<svg xmlns="http://www.w3.org/2000/svg" width="500" height="500" fill="none"><path fill="#F0F0F0" d="M249.049 486.053c130.123 0 235.608-60.902 235.608-136.029S379.172 213.995 249.049 213.995 13.441 274.897 13.441 350.024 118.927 486.053 249.05 486.053"/><path fill="#E0E0E0" d="M384.365 397.224c-15.45-8.92-15.45-23.382 0-32.302s40.498-8.92 55.948 0 15.45 23.382 0 32.302-40.498 8.92-55.948 0M70.12 398.462l-40.64-23.464c-2.291-1.323-2.291-3.468 0-4.791l236.389-136.479c2.291-1.323 6.006-1.323 8.297 0l40.642 23.463c2.291 1.323 2.291 3.468 0 4.79L78.417 398.462c-2.291 1.323-6.006 1.323-8.297 0"/><path fill="#0A5840" d="m216.199 356.644 34.937-20.201c3.601-2.079 5.402-4.804 5.402-7.529s.015-4.86.015-4.86l-36.249-20.44c-1.921-1.109-3.478-3.806-3.478-6.024v-43.075l-61.023 35.262-.002 43.074c0 2.218 1.557 4.915 3.478 6.024l30.836 17.768c7.203 4.16 18.881 4.159 26.084.001"/><path fill="#000" d="m216.199 356.644 34.937-20.201c3.601-2.079 5.402-4.804 5.402-7.529s.015-4.86.015-4.86l-36.249-20.44c-1.921-1.109-3.478-3.806-3.478-6.024v-43.075l-61.023 35.262-.002 43.074c0 2.218 1.557 4.915 3.478 6.024l30.836 17.768c7.203 4.16 18.881 4.159 26.084.001" opacity=".6"/><path fill="#000" d="M170.455 340.48v4.839l-11.184-6.445c-1.908-1.104-3.474-3.795-3.474-6.024v-43.07l11.626-6.707c.241 2.952.502 6.004.743 8.976l-8.152 4.719v33.653c0 2.229 1.546 4.919 3.474 6.024z" opacity=".3"/><path fill="#0A5840" d="M160.012 330.428c0 2.218 1.557 4.915 3.478 6.024l26.622 15.335c7.203 4.158 18.882 4.16 26.085.003l34.955-20.199c7.204-4.157 7.205-10.898.002-15.057l-26.639-15.345c-1.921-1.109-3.478-3.806-3.478-6.024l-.001-33.657-61.024 35.262z"/><path fill="#000" d="M160.012 330.428c0 2.218 1.557 4.915 3.478 6.024l26.622 15.335c7.203 4.158 18.882 4.16 26.085.003l34.955-20.199c7.204-4.157 7.205-10.898.002-15.057l-26.639-15.345c-1.921-1.109-3.478-3.806-3.478-6.024l-.001-33.657-61.024 35.262z" opacity=".3"/><path fill="#000" d="M231.599 305.283v-.005l-7.084-4.09c-1.921-1.109-3.478-3.806-3.478-6.024v-33.657l-61.025 35.262v33.659c0 2.218 1.557 4.915 3.478 6.024l6.961 4.019z" opacity=".5"/><path fill="#0A5840" d="M256.547 324.058v4.859c0 2.731-1.807 5.441-5.401 7.53l-34.943 20.189c-3.454 2.008-7.931 3.012-12.449 3.092v-4.839c4.518-.06 8.995-1.104 12.449-3.092l34.943-20.21c3.593-2.068 5.401-4.798 5.401-7.529"/><path fill="#000" d="M256.547 324.058v4.859c0 2.731-1.807 5.441-5.401 7.53l-34.943 20.189c-3.454 2.008-7.931 3.012-12.449 3.092v-4.839c4.518-.06 8.995-1.104 12.449-3.092l34.943-20.21c3.593-2.068 5.401-4.798 5.401-7.529" opacity=".5"/><path fill="#0A5840" d="M62.031 372.263c2.252 1.3 6.025 1.23 8.426-.156l235.997-136.25c2.401-1.386 4.346-4.757 4.346-7.529V37.414c0-2.772-1.826-6.074-4.078-7.374s-6.024-1.231-8.425.156L62.303 166.446c-2.4 1.386-4.347 4.757-4.347 7.53l-.003 190.913c0 2.772 1.825 6.073 4.078 7.374"/><path fill="#0A5840" d="m70.456 372.102 235.996-136.249c2.401-1.386 4.347-4.757 4.347-7.53V37.409c0-2.772-1.946-3.896-4.347-2.51L70.459 171.149c-2.4 1.386-4.347 4.757-4.347 7.53l-.003 190.913c0 2.772 1.947 3.896 4.347 2.51"/><path fill="#000" d="m70.456 372.102 235.996-136.249c2.401-1.386 4.347-4.757 4.347-7.53V37.409c0-2.772-1.946-3.896-4.347-2.51L70.459 171.149c-2.4 1.386-4.347 4.757-4.347 7.53l-.003 190.913c0 2.772 1.947 3.896 4.347 2.51" opacity=".5"/><path fill="#0A5840" d="M69.815 377.064c-2.409 1.064-5.742 1.024-7.79-.161-2.249-1.305-4.076-4.598-4.076-7.389v-17.383l8.152 4.719v17.383c0 2.53 1.606 3.674 3.714 2.831"/><path fill="#000" d="M69.815 377.064c-2.409 1.064-5.742 1.024-7.79-.161-2.249-1.305-4.076-4.598-4.076-7.389v-17.383l8.152 4.719v17.383c0 2.53 1.606 3.674 3.714 2.831" opacity=".5"/><path fill="#0A5840" d="m66.102 356.849.007 17.377c0 2.772 1.947 3.896 4.347 2.51l235.996-136.249c2.401-1.386 4.347-4.757 4.347-7.53v-17.414z"/><path fill="#000" d="M66.11 356.813v17.413c0 2.772 1.946 3.896 4.346 2.51l235.996-136.249c2.401-1.386 4.347-4.757 4.347-7.53v-17.414z" opacity=".3"/><path fill="#0A5840" d="m74.262 335.041.002-153.655c0-1.663 1.168-3.686 2.608-4.518l223.157-128.84c1.441-.832 2.608-.157 2.608 1.506l.007 153.659c0 1.663-1.168 3.686-2.608 4.518L76.871 336.547c-1.441.832-2.61.157-2.61-1.506"/><path fill="#263238" d="m74.262 335.041.002-153.655c0-1.663 1.168-3.686 2.608-4.518l223.157-128.84c1.441-.832 2.608-.157 2.608 1.506l.007 153.659c0 1.663-1.168 3.686-2.608 4.518L76.871 336.547c-1.441.832-2.61.157-2.61-1.506"/><path fill="#0A5840" d="M188.45 291.726c-2.253 1.301-4.079 4.464-4.079 7.065s1.827 3.655 4.08 2.354 4.079-4.464 4.079-7.065c-.001-2.6-1.827-3.654-4.08-2.354"/><path fill="#000" d="M67.386 174.378c-.783 1.365-1.265 2.911-1.285 4.297V356.85l-8.152-4.719.005-178.155c0-1.385.497-2.931 1.28-4.296z" opacity=".7"/><path fill="#000" d="M310.753 36.694c-.308-2.241-2.118-3.053-4.307-1.799L70.457 171.153c-1.192.689-2.271 1.861-3.073 3.228l-8.154-4.708c.793-1.347 1.872-2.539 3.075-3.228L298.293 30.197c2.406-1.388 6.168-1.46 8.43-.154 2.056 1.182 3.752 4.05 4.03 6.651" opacity=".3"/><path fill="#0A5840" d="M323.495 60.187c-.568-.341-1.343-.329-2.217.176L98.59 188.949c-1.683.972-3.047 3.332-3.047 5.275l.002 152.719c0 1.184.507 2.23 1.284 2.647.498.268 3.115 1.79 3.892 2.208.498.268 1.107.277 1.765-.102l222.68-128.637c1.684-.969 3.049-3.329 3.049-5.272V64.328c0-1.002-.363-1.696-.944-2.001a172 172 0 0 1-3.776-2.14"/><path fill="#FAFAFA" d="M101.479 351.491c-.851 0-1.541-1.05-1.541-2.34V196.432c0-1.75 1.28-3.968 2.796-4.844L325.418 63.002c.396-.229.78-.349 1.111-.349.742 0 1.186.626 1.186 1.675v153.46c0 1.75-1.281 3.966-2.798 4.838L102.236 351.263q-.395.227-.757.228"/><path fill="#E0E0E0" d="M326.53 63.153c.596 0 .685.736.685 1.175v153.46c0 1.593-1.167 3.61-2.55 4.406L101.988 350.83a1.05 1.05 0 0 1-.509.161c-.556 0-1.042-.86-1.042-1.84V196.432c0-1.594 1.166-3.613 2.546-4.41L325.668 63.435c.404-.233.692-.282.862-.282m0-1c-.409 0-.873.134-1.362.416L102.484 191.156c-1.682.971-3.046 3.334-3.046 5.276v152.719c0 1.536.852 2.84 2.042 2.84.315 0 .655-.091 1.007-.294l222.68-128.637c1.684-.969 3.049-3.329 3.049-5.272V64.328c0-1.378-.687-2.175-1.686-2.175"/><path fill="#F0F0F0" d="M96.823 349.589c.33.175 2.7 1.526 3.737 2.117-.7-.499-1.069-1.356-1.12-2.558V206.397l-3.9-2.282v142.829c0 1.179.507 2.233 1.283 2.645"/><path fill="#0A5840" d="M328.214 64.305c-.012-1.924-1.37-2.703-3.045-1.736L102.484 191.156c-1.682.971-3.046 3.334-3.046 5.276l.002 9.965L328.215 74.303z"/><path fill="#fff" d="M325.167 62.568 102.486 191.154c-.834.489-1.6 1.313-2.146 2.261l-3.871-2.242c.546-.939 1.296-1.755 2.119-2.225L321.277 60.362c.872-.508 1.648-.516 2.214-.18.546.335 3.076 1.773 3.718 2.117-.538-.258-1.256-.181-2.042.269" opacity=".4"/><path fill="#000" d="m95.54 204.125.001-9.905c0-.987.362-2.079.927-3.047l3.88 2.232c-.565.958-.91 2.041-.91 3.027v9.963z" opacity=".15"/><path fill="#0A5840" d="m281.252 179.423-133.374 77.003c-1.229.71-2.226 2.436-2.226 3.855v38.236c0 1.419.997 3.144 2.228 3.852l3.897 2.242c1.23.708 3.224.706 4.453-.003l133.356-76.993c1.229-.71 2.226-2.436 2.227-3.855l.016-38.247c.001-1.419-.996-3.144-2.227-3.852l-3.896-2.242c-1.231-.707-3.225-.705-4.454.004"/><path fill="#fff" d="M291.812 185.153c-.154-1.151-1.09-1.573-2.21-.925l-133.369 77.001c-.617.35-1.172.966-1.573 1.665l-8.348-4.822c.401-.689.956-1.295 1.563-1.645l133.38-77.001c1.224-.709 3.218-.72 4.451-.01l3.896 2.241c1.13.648 2.066 2.16 2.21 3.496" opacity=".5"/><path fill="#263238" d="M155.854 304.787c-1.234.524-2.961.463-4.071-.175l-3.896-2.241c-1.234-.709-2.231-2.436-2.231-3.855v-38.233c0-.72.257-1.511.658-2.21l8.348 4.822c-.411.699-.658 1.48-.658 2.19v38.243c-.001 1.274.801 1.86 1.85 1.459"/><path fill="#0A5840" d="m156.23 261.233 133.374-77.004c1.229-.71 2.225-.134 2.225 1.285l-.016 38.247c-.001 1.419-.998 3.145-2.227 3.855L156.23 304.609c-1.229.71-2.226.134-2.226-1.285v-38.236c.001-1.42.997-3.146 2.226-3.855"/><path fill="#455A64" d="m245.895 199.839-98.023 56.589c-.606.35-1.161.956-1.563 1.645l8.348 4.822c.401-.699.956-1.316 1.573-1.665l97.997-56.579z"/><path fill="#37474F" d="m254.23 204.652-98 56.58c-1.229.71-2.226 2.436-2.226 3.855v38.236c0 1.419.996 1.995 2.226 1.285l98-56.58z"/><path fill="#0A5840" d="m178.83 256.575 50.567-29.196c2.097-1.211 3.796-.351 3.796 1.921 0 2.271-1.7 5.094-3.797 6.305l-50.563 29.193c-2.097 1.211-3.798.351-3.798-1.919-.001-2.271 1.698-5.093 3.795-6.304"/><path fill="#FAFAFA" d="M189.194 266.237q.086-.05.148.026.063.075.063.227v5.695a9 9 0 0 1-.142 1.636 6.6 6.6 0 0 1-.422 1.438 4.8 4.8 0 0 1-.702 1.177q-.423.513-.977.833-.563.325-.981.297a.97.97 0 0 1-.699-.367q-.281-.338-.419-.954a7 7 0 0 1-.137-1.476v-5.694a.75.75 0 0 1 .063-.299q.061-.148.148-.197l.634-.366q.085-.05.149.025.062.075.062.227v5.625q0 .57.086.922.085.355.241.52.157.168.376.16.219-.01.477-.158a2 2 0 0 0 .48-.396 2.3 2.3 0 0 0 .38-.594q.156-.346.246-.801t.089-1.024v-5.624q0-.153.062-.299.062-.148.15-.198zM193.118 271.625q0-.151-.055-.218-.054-.066-.191-.07a1.6 1.6 0 0 0-.363.043q-.227.048-.578.112-.344.058-.57-.018a.7.7 0 0 1-.363-.277 1.3 1.3 0 0 1-.192-.522 4.5 4.5 0 0 1-.054-.738q0-.417.109-.884.11-.465.316-.897a4 4 0 0 1 .504-.798q.297-.365.68-.586.382-.222.684-.241a.85.85 0 0 1 .512.106q.21.129.327.388t.133.582a.65.65 0 0 1-.059.298q-.066.15-.153.198l-.601.347q-.116.068-.176.026-.058-.043-.128-.1a.35.35 0 0 0-.188-.064q-.116-.009-.351.126t-.414.363a.86.86 0 0 0-.181.549q0 .151.044.232.042.079.163.092.122.014.337-.02.214-.034.558-.106.695-.138.98.259.286.399.286 1.231 0 .418-.117.88-.118.463-.34.905-.223.441-.547.816t-.73.608q-.414.24-.731.248a.86.86 0 0 1-.534-.143.94.94 0 0 1-.336-.431 1.7 1.7 0 0 1-.126-.607.65.65 0 0 1 .059-.298.42.42 0 0 1 .152-.2l.602-.347q.117-.066.176-.004.058.063.132.146a.34.34 0 0 0 .207.103q.132.02.399-.134a1.9 1.9 0 0 0 .473-.391q.104-.124.176-.268a.7.7 0 0 0 .069-.296M195.152 268.906q0-.776.133-1.541.134-.764.383-1.416.25-.65.605-1.148.355-.496.793-.749.436-.253.793-.175.354.081.605.416.249.335.387.901.136.568.137 1.276v.624a.7.7 0 0 1-.063.299q-.061.148-.149.198l-2.609 1.507q0 .319.075.518a.6.6 0 0 0 .199.295q.125.095.289.083a.8.8 0 0 0 .336-.111q.249-.143.406-.324.156-.18.258-.378.085-.16.141-.234a.5.5 0 0 1 .149-.126l.625-.361q.084-.048.152.022.066.074.058.231a2.5 2.5 0 0 1-.12.57 4.928 4.928 0 0 1-.898 1.615 2.9 2.9 0 0 1-.769.652q-.438.253-.793.189-.356-.066-.605-.422-.25-.355-.383-.967a6.8 6.8 0 0 1-.135-1.444m1.915-3.189a1.3 1.3 0 0 0-.387.342 2.3 2.3 0 0 0-.27.461 3 3 0 0 0-.168.514 3.4 3.4 0 0 0-.075.48l1.766-1.019a3 3 0 0 0-.058-.404.8.8 0 0 0-.141-.335.4.4 0 0 0-.258-.156q-.16-.026-.409.117M202.129 262.934a1.58 1.58 0 0 0-.676.758q-.207.489-.207 1.321v3.611a.8.8 0 0 1-.062.299q-.062.148-.15.197l-.592.343q-.086.048-.149-.026t-.063-.227v-6.472a.75.75 0 0 1 .063-.299.4.4 0 0 1 .149-.198l.592-.341q.086-.05.15.025.062.074.062.227v.32q.203-.45.434-.765.229-.313.605-.53l.351-.203q.085-.048.149.026.062.074.062.227v.917a.8.8 0 0 1-.062.3q-.062.148-.149.197zM209.59 262.447q.085-.05.149.026.062.075.062.227v.987a.8.8 0 0 1-.062.299q-.063.147-.149.197l-3.422 1.976q-.086.05-.149-.026-.062-.074-.062-.227v-8.972a.8.8 0 0 1 .062-.299q.062-.147.149-.197l.633-.365q.086-.05.149.026.063.074.063.227v7.61zM212.66 255.05q.43-.249.778-.213a.93.93 0 0 1 .601.305q.255.27.406.738.154.467.177 1.092.008.12.008.315v.771q0 .187-.008.316-.03.656-.18 1.298a6.3 6.3 0 0 1-.403 1.198q-.254.556-.601.993a2.8 2.8 0 0 1-.778.685q-.429.248-.777.213a.94.94 0 0 1-.6-.299q-.255-.263-.403-.732a4.4 4.4 0 0 1-.181-1.091 9 9 0 0 1-.011-.305q-.003-.186-.004-.379 0-.196.004-.392t.011-.325a6.7 6.7 0 0 1 .584-2.504q.254-.563.6-.999.348-.437.777-.685m.947 2.579q-.024-.417-.115-.65-.089-.233-.223-.323a.38.38 0 0 0-.288-.062 1 1 0 0 0-.321.122 1.6 1.6 0 0 0-.608.644 2.6 2.6 0 0 0-.223.58 4 4 0 0 0-.113.78 13.036 13.036 0 0 0 0 1.25q.024.416.113.648.09.233.223.323.132.09.289.062a1 1 0 0 0 .319-.122q.164-.094.321-.247.156-.152.288-.396a2.6 2.6 0 0 0 .223-.58q.09-.337.115-.781.006-.1.007-.275v-.7q0-.167-.007-.273M217.684 260.898q.166-.094.337-.284a2 2 0 0 0 .311-.465 3.026 3.026 0 0 0 .321-1.38v-.514a4 4 0 0 1-.165.365 3.2 3.2 0 0 1-.581.816 2 2 0 0 1-.434.333q-.392.226-.707.139-.317-.088-.539-.412a2.5 2.5 0 0 1-.351-.838 5.3 5.3 0 0 1-.146-1.146 14 14 0 0 1-.007-.482q0-.276.007-.49.016-.648.146-1.313.128-.664.351-1.244t.539-1.034q.315-.452.707-.678.242-.141.434-.168a.8.8 0 0 1 .335.014.6.6 0 0 1 .246.13q.101.087.165.176v-.32q0-.152.062-.299.061-.147.149-.197l.593-.343q.086-.048.149.026.063.075.063.227v6.514q0 1.68-.528 2.839-.526 1.159-1.458 1.695-.397.23-.738.24a1 1 0 0 1-.589-.16 1.2 1.2 0 0 1-.399-.479 1.8 1.8 0 0 1-.164-.718.6.6 0 0 1 .059-.297q.065-.15.152-.2l.531-.306q.11-.063.187.024.079.085.133.167.101.178.277.228.18.052.552-.166m-.937-4.847a6 6 0 0 0 0 .779q.047.875.313 1.116.265.243.647.022.382-.222.645-.775.262-.553.301-1.326.015-.217.016-.537a7 7 0 0 0-.016-.518q-.039-.7-.301-.966t-.645-.044q-.384.22-.647.771-.265.55-.313 1.478M221.981 247.17q.086-.05.148.024.063.076.063.228v1.083a.8.8 0 0 1-.063.3.4.4 0 0 1-.148.198l-.671.387q-.086.048-.149-.026-.063-.075-.063-.228v-1.083q0-.152.063-.3.062-.147.149-.196zm.173 9.385a.7.7 0 0 1-.063.299q-.062.148-.149.198l-.592.342q-.086.05-.149-.026-.063-.073-.063-.227v-6.471q0-.154.063-.299.062-.148.149-.198l.592-.342q.086-.05.149.026.063.072.063.227zM227.433 253.507a.8.8 0 0 1-.061.299q-.062.147-.149.197l-.594.343q-.085.048-.149-.026t-.062-.227v-3.528q0-.833-.219-1.207-.218-.374-.672-.112-.414.24-.652.876-.238.638-.238 1.471v3.528a.8.8 0 0 1-.062.299q-.062.148-.149.197l-.593.343q-.087.049-.149-.026-.063-.075-.063-.227v-6.472a.75.75 0 0 1 .063-.299.4.4 0 0 1 .149-.198l.593-.341q.085-.05.149.025.062.075.062.227v.32q.203-.478.477-.872t.649-.61q.476-.276.796-.197t.515.411.278.875q.081.543.081 1.196z"/><path fill="#455A64" d="m277.877 224.402-9.714 5.608 1.505-13.624c-1.162-.614-1.902-2.126-1.902-4.296 0-3.869 2.352-8.363 5.254-10.039 2.901-1.675 5.253.103 5.253 3.972 0 2.17-.74 4.537-1.902 6.493z"/><path fill="#37474F" d="m277.878 224.402-8.549-4.935-1.165 10.543zM273.019 202.051c-1.899 1.096-3.557 3.401-4.48 5.946l7.832 4.522v-.002c1.162-1.956 1.902-4.322 1.902-6.493-.001-3.869-2.353-5.648-5.254-3.973"/><path fill="#0A5840" d="M225.798 156.704c-3.322-1.923-7.912-1.65-12.985 1.279-10.139 5.855-18.358 20.092-18.356 31.8.001 5.875 2.072 9.994 5.416 11.902.87.497 5.592 3.244 6.469 3.751 3.322 1.92 7.91 1.646 12.98-1.281 10.138-5.854 18.356-20.091 18.356-31.8 0-5.851-2.054-9.96-5.373-11.878"/><path fill="#0A5840" d="M219.317 161.755c-10.138 5.857-18.358 20.092-18.356 31.799s8.221 16.454 18.359 10.6 18.367-20.091 18.356-31.8c-.01-11.706-8.23-16.452-18.359-10.599"/><path fill="#0A5840" d="M229.452 187.731v1.336c-2.614 4.462-6.192 8.347-10.136 10.618-3.951 2.278-7.521 2.527-10.136 1.073v-2.768c0-5.345 3.629-11.633 8.259-14.313l2.665-1.534c2.366-1.366 4.659-1.541 6.463-.497 1.841 1.061 2.885 3.274 2.885 6.085"/><path fill="#fff" d="m225.796 156.704 6.507 3.771c-3.324-1.924-7.914-1.652-12.984 1.278-6.639 3.837-12.455 11.267-15.679 19.226l-6.507-3.775c3.224-7.959 9.037-15.389 15.679-19.223 5.073-2.926 9.663-3.2 12.984-1.277" opacity=".4"/><path fill="#000" d="M206.095 205.293c-1.146-.662-5.422-3.152-6.226-3.61-3.344-1.907-5.416-6.026-5.416-11.9l6.507 3.775c.004 5.706 1.96 9.759 5.135 11.735" opacity=".2"/><path fill="#000" d="m197.132 177.205 6.507 3.775c-1.701 4.196-2.679 8.537-2.679 12.574v.003l-6.507-3.775c0-4.04.981-8.384 2.679-12.577" opacity=".1"/><path fill="#fff" d="M217.008 181.521a3.5 3.5 0 0 1-1.766-.46c-1.237-.715-1.918-2.13-1.918-3.983 0-3.393 2.302-7.382 5.243-9.079v-.003c1.599-.927 3.161-1.042 4.407-.328 1.237.715 1.918 2.13 1.918 3.983 0 3.393-2.302 7.382-5.24 9.079-.912.525-1.81.791-2.644.791M226.567 181.648c-1.804-1.044-4.097-.869-6.463.497l-2.665 1.534c-4.63 2.68-8.259 8.967-8.259 14.313v2.768c2.614 1.453 6.185 1.205 10.136-1.073 3.943-2.271 7.521-6.156 10.136-10.618v-1.336c0-2.813-1.044-5.026-2.885-6.085"/><path fill="#0A5840" d="M432.156 354.648s1.328-11.679 7.137-20.743c5.81-9.064 13.792-14.721 21.24-15.31s13.464 6.263 5.494 10.969c-7.969 4.706-22.128 9.508-28.644 27.108z"/><path fill="#000" d="M432.156 354.648s1.328-11.679 7.137-20.743c5.81-9.064 13.792-14.721 21.24-15.31s13.464 6.263 5.494 10.969c-7.969 4.706-22.128 9.508-28.644 27.108z" opacity=".1"/><path fill="#fff" d="M434.339 351.615a.397.397 0 0 1-.298-.541c7.86-19.357 22.823-27.44 29.637-29.009a.398.398 0 0 1 .179.775c-6.675 1.537-21.342 9.48-29.079 28.533a.4.4 0 0 1-.439.242"/><path fill="#0A5840" d="M474.128 351.844c-.674 1.52-2.334 2.312-3.879 2.934-1.536.616-3.22 1.29-4.054 2.727-1.681 2.904 1.079 6.986-.726 9.814-.758 1.185-2.166 1.81-3.551 2.058-1.151.215-2.322.214-3.489.312a14 14 0 0 1-1.659-.129c-1.601-.232-3.338-.307-4.805.512-2.308 1.297-3.017 4.211-4.418 6.458-1.681 2.69-4.652 4.452-7.774 4.876-1.037.137-2.966.324-4.023-.265a2 2 0 0 1-.218-.139c-.007-.001-.013-.01-.019-.019a7 7 0 0 1-.406-.485c-.02-.019-.03-.043-.041-.068-.409-1.506.259-3.073.285-4.628a3 3 0 0 0-.002-.282 468 468 0 0 1-.158-5.409 309 309 0 0 1-.099-9.965c.023-2.157-.237-4.519.676-6.551 1.011-2.235 3.524-2.284 4.474-4.477.381-.874.583-1.811.951-2.695 1.099-2.592 3.762-4.455 6.58-4.593 4.387-.223 8.325 3.329 12.707 3.006 1.135-.089 2.241-.434 3.359-.64 3.554-.665 7.661.346 9.659 3.354.837 1.257 1.241 2.914.63 4.294"/><path fill="#fff" d="m434.706 373.519-.03-.007a.375.375 0 0 1-.265-.458c6.062-22.744 30.026-26.031 35.633-25.626a.374.374 0 1 1-.054.746c-5.484-.396-28.924 2.82-34.856 25.073a.373.373 0 0 1-.428.272"/><path fill="#fff" d="M461.333 361.994a.37.37 0 0 1-.198-.105c-.06-.061-6.172-6.086-16.308-4.594a.375.375 0 0 1-.109-.741c10.528-1.548 16.886 4.744 16.95 4.808a.374.374 0 0 1-.335.632"/><path fill="#E6E6E6" d="m377.116 80.006 3.182 1.224v-7.011c0-5.558 4.433-6.89 9.246-4.112 4.813 2.779 8.715 9.537 8.715 15.095v1.018c1.092-.436 2.502-.267 4.044.624 3.464 2 6.271 6.863 6.271 10.862v.463l4.437 2.562c2.281 1.317 4.13 4.52 4.13 7.153s-1.849 3.701-4.13 2.384l-35.897-20.725c-2.281-1.317-4.13-4.52-4.13-7.153.002-2.634 1.851-3.701 4.132-2.384M419.705 74.464l5.769 3.33a7 7 0 0 1-.049-.763V75.36c0-2.974 2.088-4.18 4.664-2.693 1.043.602 2.003 1.557 2.78 2.673.422-3.74 3.356-5.133 6.92-3.075 3.854 2.225 6.978 7.636 6.978 12.085v2.5c0 1.154-.213 2.124-.591 2.898l4.792 2.767c1.429.825 2.587 2.83 2.587 4.48s-1.158 2.32-2.587 1.495l-31.264-18.05c-1.429-.825-2.587-2.831-2.587-4.481.001-1.651 1.159-2.32 2.588-1.495"/><path fill="#FFA8A7" d="M397.365 226.232c-4.2 7.101-8.241 13.27-11.078 16.227-5.387 2.506-18.045 6.358-22.998 7.003a3.7 3.7 0 0 1-2.486-.585c-1.947-1.276-3.453-1.483-5.506-2.194-1.607-.556-2.288-1.324-2.59-1.032-.388.375-.811 1.442.168 2.547.492.555 1.389 1.162 2.544 1.903 0 0-3.541.945-6.704.115-4.287-1.125-6.311.936-3.412 5.591 1.038 1.667 5.126 4.336 13.41 3.615 2.387-.207 5.831-.407 8.802-1.041 7.946-1.696 16.778-3.339 22.208-4.961 1.37-.409 3.817-1.994 5.274-3.655 9.134-10.412 12.159-17.83 16.163-24.572l-.346-11.017c-6.473-.201-9.935 6.113-13.449 12.056"/><path fill="#455A64" d="M411.932 213.975s-5.653-1.202-9.902 4.234c-4.446 5.689-12.307 19.352-12.307 19.352s2.579 6.851 9.518 7.977l11.148-15.058s5.279-10.423 1.543-16.505"/><path fill="#FFA8A7" d="M436.037 367.536h-7.267v12.958h7.267zM410.838 366.845l-7.263.26-.364-13.713 7.627-.26z"/><path fill="#37474F" d="M437.06 255.347c0 7.228-1.064 65.398-1.064 65.398.169 2.08 2.041 5.915 1.636 13.903-.551 10.852-1.285 39.368-1.285 39.368s-3.528 2.147-8.092.166c0 0-5.892-39.961-7.194-50.714-1.136-9.385-4.047-40.52-4.047-40.52l-3.939 36.741s1.34 5.597.901 12.029c-.34 4.974-2.677 30.879-2.677 30.879s-3.421 2.418-8.391.669c0 0-4.134-39.013-4.218-43.577-.096-5.203 2.417-64.419 2.417-64.419z"/><path fill="#263238" d="M428.768 376.758v-1.082c-.695.315-2.311 6.736-5.195 9.475-2.292 2.178-5.419 4.693-6.215 7.121-.827 2.525 4.355 3.919 6.496 3.524 2.488-.459 6.802-2.284 7.884-3.976s1.59-4.188 2.469-5.427c.88-1.24 2.908-2.624 3.384-4.059.261-.788-.049-2.515-.416-3.973-.337-1.338-.702-2.81-1.141-2.684v.825c-.528.609-1.987 1.213-3.633 1.279-1.062.041-3.642-.179-3.633-1.023M403.499 364.771c-.378.014-.685.568-1.517 1.507-1.006 1.134-2.651 2.357-4.275 3.204-2.721 1.419-8.012 3.601-10.406 4.725-1.496.702-1.426 2.584.12 3.655s5.279 1.843 9.762.798c2.442-.569 5.621-2.918 7.633-2.791s5.777.097 7.262-.97.891-3.343.471-5.3c-.458-2.136-1.031-5.466-1.71-5.32v.736c-.874 1.378-5.383 1.939-7.302.924zM417.015 282.947s-5.809-1.704-10.12-6.044c0 0 1.953 3.808 7.76 7.352l-1.242 32.811z"/><path fill="#0A5840" d="M432.989 215.059s5.975 1.383 5.571 12.217l-1.257 17.258.035 25.899c-5.344 6.055-29.036 5.612-37.147-.485 0 0 .919-30.65 1.467-42.444.389-8.385 2.319-12.606 10.559-13.53l10.134.446z"/><path fill="#263238" d="M425.353 192.535c0 6.224-4.844 11.269-10.819 11.269s-9.512-5.184-10.819-11.269c-2.392-11.129 4.844-11.269 10.819-11.269s10.819 5.045 10.819 11.269M430.874 197.094s-1.659 8.12-2.325 9.454c-.665 1.334-2.041 1.713-2.041 1.713l.116-5.712zM428.789 185.461s1.19-.298 2.454 1.677c1.084 1.693 1.33 5.496-.371 9.956l-3.126.374z"/><path fill="#263238" d="m429.938 187.105 3.833.071c.094-1.1-.689-2.007-1.748-2.027-1.058-.019-1.992.856-2.085 1.956"/><path fill="#263238" d="m430.41 186.197 2.84-2.731c-.701-.812-1.905-.859-2.689-.105-.784.753-.852 2.023-.151 2.836"/><path fill="#FFA8A7" d="M426.808 197.47c.627.39 1.521-.864 2.294-1.707.773-.842 3.2-1.638 4.459 1.125 1.283 2.815-.886 5.492-2.69 6.389-3.225 1.603-4.25-.728-4.25-.728l-.261 12.862c-4.545 7.03-14.84 6.777-11.139-.34l.01-3.915s-3.102.49-4.615.247c-2.518-.405-4.102-2.474-4.866-5.313-1.227-4.559-1.693-8.241-.652-17.207 1.141-9.828 12.116-9.93 18.042-6.045 5.928 3.886 3.668 14.632 3.668 14.632"/><path fill="#263238" d="M413.127 187.349c2.622-.262 5.214-.795 7.841-.989.569-.042 1.15-.067 1.701.082 2.013.544 1.753 2.884 2.073 4.519.55 2.815 1.007 7.587 2.066 7.608.315.006 1.514-2.065 2.294-2.805.505-.479.591-1.512.7-2.151.2-1.167.308-2.35.397-3.529.076-.998.176-2.014.172-3.016-.005-1.124.017-2.268-.262-3.366-.254-.997-.72-1.743-1.402-2.52l-.2-.222c-1.293-1.394-2.942-2.439-4.693-3.161-2.513-1.036-5.236-1.449-7.94-1.726s-5.429-.427-8.092-.975c-.155-.032-.321-.064-.469-.008-.232.089-.333.358-.38.601-.235 1.234.32 2.584 1.357 3.295-1.812.144-3.892-.8-5.638-1.273-.294-.08-.628-.155-.889.003-.18.109-.286.309-.35.509-.148.464-.115.965-.049 1.448.195 1.427.681 2.837 1.561 3.977 1.266 1.641 3.35 3.121 5.405 3.533 1.623.327 3.138.331 4.797.166"/><path fill="#F28F8F" d="M415.23 211.157s5.62-1.179 7.585-2.267c1.315-.728 2.398-1.99 2.716-2.799 0 0-.368 1.737-1.543 3.301-1.437 1.913-8.758 3.322-8.758 3.322z"/><path fill="#263238" d="M416.582 196.007c0 .673.505 1.217 1.126 1.216.622-.002 1.126-.549 1.126-1.222s-.504-1.217-1.126-1.216-1.126.549-1.126 1.222M418.391 191.15l2.41 1.385c.355-.721.104-1.616-.562-1.998s-1.493-.108-1.848.613"/><path fill="#F28F8F" d="m415.743 204.11-2.571 1.005c.254.768 1.036 1.165 1.746.887.711-.277 1.08-1.124.825-1.892"/><path fill="#263238" d="m406.251 192.182 2.197-1.762c-.448-.655-1.303-.792-1.91-.305-.606.486-.735 1.412-.287 2.067M407.219 195.673c0 .673.504 1.217 1.126 1.215s1.126-.549 1.126-1.222-.504-1.217-1.126-1.216c-.622.003-1.126.55-1.126 1.223"/><path fill="#F28F8F" d="m413.242 194.731-.131 7.114-4.037-.926z"/><path fill="#0A5840" d="m317.312 254.276 6.265-3.616 2.483-3.007-6.264 3.617z"/><path fill="#000" d="m317.312 254.276 6.265-3.616 2.483-3.007-6.264 3.617z" opacity=".4"/><path fill="#0A5840" d="m334.359 264.118 6.264-3.616 5.236-4.634-6.265 3.616z"/><path fill="#000" d="m334.359 264.118 6.264-3.616 5.236-4.634-6.265 3.616z" opacity=".4"/><path fill="#0A5840" d="M387.622 276.615c1.373 1.747 2.375 4.314 2.59 6.817-1.374-1.747-2.375-4.314-2.59-6.817m14.563.189c-2.107-14.352-9.818-28.549-19.009-33.854-4.41-2.55-8.492-2.642-11.761-.73-.956.555-4.503 2.601-5.901 3.403-.113.062-.226.123-.329.195a9 9 0 0 0-.761.483c-.473.329-.925.699-1.357 1.121-.062.051-.124.123-.195.185-.185.185-.37.391-.545.596-.216.247-.432.504-.627.771a14.5 14.5 0 0 0-1.151 1.768c-.175.308-.35.637-.514.977l-51.516-29.741-6.261 3.608v3.989l.534.308.494.288v.843l-1.028.596v2.323l7.566 16.017 7.484 4.328 2.488-3.012 6.6 3.948 3.793 6.497 4.174 2.406 5.233-4.636 6.425 3.711 2.159 8.903 10.764 6.21a59 59 0 0 0 2.036 6.693c.072.226.154.452.247.699 3.578 9.407 9.273 17.456 15.688 21.167a16.6 16.6 0 0 0 2.416 1.162c.453.185.905.329 1.347.452a10 10 0 0 0 1.203.267c1.326.236 2.611.226 3.814-.01l.524-.123a4.5 4.5 0 0 0 .73-.216l.555-.216c.195-.072.391-.165.576-.267.185-.082.36-.175.535-.278.092-.051.185-.103.267-.154.041-.01.082-.041.124-.072 1.429-.822 4.955-2.858 5.911-3.403 4.76-2.755 7.844-9.736 7.844-19.605a51.6 51.6 0 0 0-.576-7.597"/><path fill="#0A5840" d="M385.784 288.721c-2.471-1.427-4.475-5.668-4.475-9.473s2.004-5.733 4.475-4.306 4.475 5.668 4.475 9.473c-.001 3.805-2.004 5.733-4.475 4.306m10.139-8.308c-2.107-14.341-9.818-28.539-19.009-33.843-4.256-2.457-8.193-2.642-11.401-.946-.113.062-.226.123-.329.195a9 9 0 0 0-.761.483c-.473.329-.925.699-1.357 1.121-.062.051-.124.123-.195.185-.185.185-.37.391-.545.596-.216.247-.432.504-.627.771a14.5 14.5 0 0 0-1.151 1.768c-.175.308-.35.637-.514.977-.853 1.748-1.532 3.783-1.984 6.086l-55.792-32.219v3.989l.534.308.494.288v.843l-1.028.596v2.323l7.566 16.017 7.484 4.328 2.488-3.012 6.6 3.948 3.793 6.497 4.174 2.406 5.233-4.636 6.425 3.711 2.159 8.903 10.764 6.21a59 59 0 0 0 2.036 6.693c.072.226.154.452.247.699 3.578 9.407 9.273 17.456 15.688 21.167a16.6 16.6 0 0 0 2.416 1.162c.453.185.905.329 1.347.452a10 10 0 0 0 1.203.267c1.326.236 2.611.226 3.814-.01l.524-.123a4.5 4.5 0 0 0 .73-.216l.555-.216c.195-.072.391-.165.576-.267.185-.082.36-.175.535-.278.092-.051.185-.103.267-.154.041-.01.082-.041.124-.072 4.564-2.878 7.495-9.756 7.495-19.389a53.4 53.4 0 0 0-.578-7.608"/><path fill="#000" d="M390.259 284.412c0 3.804-2.005 5.737-4.472 4.308-2.478-1.429-4.482-5.665-4.482-9.468s2.005-5.736 4.482-4.307c.658.38 1.285.956 1.83 1.676.216 2.498 1.223 5.068 2.591 6.816.041.327.051.656.051.975" opacity=".4"/><path fill="#fff" d="M402.762 284.402c0 9.869-3.084 16.85-7.844 19.605-.956.545-4.482 2.58-5.911 3.403 4.564-2.878 7.495-9.756 7.495-19.389 0-2.508-.206-5.058-.576-7.607-2.107-14.341-9.818-28.539-19.009-33.843-4.256-2.457-8.193-2.642-11.401-.946 1.398-.802 4.945-2.848 5.901-3.403 3.269-1.912 7.351-1.82 11.761.73 9.191 5.305 16.901 19.502 19.009 33.854.38 2.538.575 5.087.575 7.596" opacity=".4"/><path fill="#0A5840" d="M396.499 288.02c0 9.633-2.93 16.511-7.495 19.389 1.429-.822 4.955-2.858 5.911-3.403 4.76-2.755 7.844-9.736 7.844-19.605 0-.364-.013-.731-.021-1.097l-6.262 3.615c.009.368.023.736.023 1.101"/><path fill="#000" d="M396.499 288.02c0 9.633-2.93 16.511-7.495 19.389 1.429-.822 4.955-2.858 5.911-3.403 4.76-2.755 7.844-9.736 7.844-19.605 0-.364-.013-.731-.021-1.097l-6.262 3.615c.009.368.023.736.023 1.101" opacity=".1"/><path fill="#000" d="M358.276 261.918v2.036l-56.018-32.343 1.028-.596v-.843z" opacity=".15"/><path fill="#000" d="M358.276 262.761v1.193l-56.018-32.343 1.028-.596v-.01z" opacity=".15"/><path stroke="#000" stroke-miterlimit="10" d="M385.034 303.189c7.809-2.397 10.504-16.187 6.019-30.8-4.484-14.614-14.451-24.517-22.26-22.121s-10.505 16.187-6.02 30.8c4.485 14.614 14.452 24.517 22.261 22.121Z" opacity=".15"/><path fill="#fff" d="M360.034 251.72c-.853 1.748-1.532 3.783-1.984 6.086l-55.792-32.219 6.261-3.608z" opacity=".4"/><path fill="#FFA8A7" d="M432.504 254.853c2.926-5.533 6.261-17.953 7.922-24.221 2.359-8.903-1.459-14.505-5.793-14.73-2.718.414-11.642 32.889-11.642 32.889-.989.791-14.572 7.674-18.936 9.404-.773.307-1.634.294-2.416.009-2.096-.765-3.523-.62-5.574-.826-1.606-.161-2.419-.732-2.622-.388-.26.442-.381 1.545.788 2.367.588.414 1.559.783 2.798 1.222 0 0-2.32.804-5.415.736-4.195-.093-5.705 1.73-2.451 5.982 2.039 2.664 5.317 3.504 12.7.951 2.127-.736 5.009-2.166 7.691-3.14 5.546-2.015 6.97-2.233 11.227-3.666 6.143-2.069 10.424-4.134 11.723-6.589"/><path fill="#455A64" d="M432.99 215.059c2.552.349 5.026.926 6.51 2.988s2.721 4.97 1.237 12.958-4.537 16.474-4.537 16.474-5.936 2.537-12.251-3.899l4.336-16.779s.742-10.9 4.705-11.742"/></svg>