<svg xmlns="http://www.w3.org/2000/svg" width="500" height="500" fill="none"><path fill="#EBEBEB" d="M500 382.398H0v.25h500zM85.581 391.922H52.459v.25h33.122zM225 392.047h-53.86v.25H225zM124.966 397.083h-19.192v.25h19.192zM446.001 396.958h-19.235v.25h19.235zM417.862 396.958H387.57v.25h30.292zM370.889 395.306h-42.556v.25h42.556zM237.014 337.8H43.915a5.715 5.715 0 0 1-5.708-5.708V60.66a5.715 5.715 0 0 1 5.708-5.708h193.099a5.715 5.715 0 0 1 5.707 5.708v271.432a5.715 5.715 0 0 1-5.707 5.708M43.915 55.203a5.464 5.464 0 0 0-5.458 5.458v271.432a5.464 5.464 0 0 0 5.458 5.458h193.099a5.463 5.463 0 0 0 5.457-5.458V60.66a5.464 5.464 0 0 0-5.457-5.458zM453.31 337.8H260.212a5.714 5.714 0 0 1-5.707-5.708V60.66a5.715 5.715 0 0 1 5.707-5.708H453.31a5.714 5.714 0 0 1 5.708 5.708v271.432a5.714 5.714 0 0 1-5.708 5.708M260.212 55.203a5.463 5.463 0 0 0-5.457 5.458v271.432a5.463 5.463 0 0 0 5.457 5.458H453.31a5.464 5.464 0 0 0 5.458-5.458V60.66a5.464 5.464 0 0 0-5.458-5.458z"/><path fill="#EBEBEB" d="M308.941 247.462H86.736c-6.202 0-10.828-5.075-10.28-11.277L88.567 99.289c.55-6.202 6.073-11.277 12.275-11.277h222.204c6.202 0 10.828 5.075 10.28 11.277l-12.111 136.895c-.548 6.203-6.072 11.278-12.274 11.278"/><path fill="#F5F5F5" d="M292.698 229.642H70.493c-6.202 0-10.828-5.075-10.28-11.277L72.325 81.47c.549-6.202 6.073-11.277 12.275-11.277h222.204c6.202 0 10.828 5.075 10.28 11.277l-12.111 136.895c-.549 6.203-6.073 11.277-12.275 11.277"/><path fill="#EBEBEB" d="M306.804 70.192H84.6c-6.203 0-11.726 5.075-12.275 11.277h244.759c.548-6.202-4.077-11.277-10.28-11.277"/><path fill="#fff" d="M124.988 95.693H89.195c-1.708 0-2.969-1.384-2.818-3.092s1.658-3.092 3.365-3.092h35.793c1.708 0 2.969 1.384 2.818 3.092s-1.658 3.092-3.365 3.092M195.679 95.693h-57.848c-1.708 0-2.969-1.384-2.818-3.092s1.658-3.092 3.365-3.092h57.848c1.708 0 2.969 1.384 2.818 3.092s-1.657 3.092-3.365 3.092M142.922 105.985H94.944c-1.708 0-2.969-1.384-2.818-3.092s1.658-3.092 3.365-3.092h47.978c1.708 0 2.969 1.384 2.818 3.092s-1.657 3.092-3.365 3.092M232.202 105.985h-76.436c-1.708 0-2.969-1.384-2.818-3.092s1.658-3.092 3.365-3.092h76.436c1.708 0 2.969 1.384 2.818 3.092s-1.658 3.092-3.365 3.092M193.858 116.277H136.01c-1.708 0-2.969-1.384-2.818-3.092s1.658-3.092 3.365-3.092h57.848c1.708 0 2.969 1.384 2.818 3.092s-1.657 3.092-3.365 3.092M152.651 146.569h-47.978c-1.708 0-2.969-1.384-2.818-3.092s1.658-3.092 3.365-3.092h47.978c1.708 0 2.969 1.384 2.818 3.092s-1.657 3.092-3.365 3.092M241.931 146.569h-76.436c-1.708 0-2.969-1.384-2.818-3.092s1.658-3.092 3.365-3.092h76.436c1.708 0 2.969 1.384 2.818 3.092s-1.657 3.092-3.365 3.092M142.262 201.553h-35.793c-1.708 0-3.214 1.384-3.365 3.092s1.111 3.092 2.818 3.092h35.793c1.708 0 3.214-1.384 3.365-3.092s-1.111-3.092-2.818-3.092M212.954 201.553h-57.848c-1.708 0-3.214 1.384-3.365 3.092s1.111 3.092 2.818 3.092h57.848c1.708 0 3.214-1.384 3.365-3.092s-1.111-3.092-2.818-3.092M162.017 191.261h-47.978c-1.708 0-3.214 1.384-3.365 3.092s1.111 3.092 2.818 3.092h47.978c1.708 0 3.214-1.384 3.365-3.092s-1.11-3.092-2.818-3.092M251.297 191.261h-76.436c-1.708 0-3.214 1.384-3.365 3.092s1.111 3.092 2.818 3.092h76.436c1.708 0 3.214-1.384 3.365-3.092s-1.111-3.092-2.818-3.092M126.783 150.677H104.31c-1.707 0-3.214 1.384-3.365 3.092s1.111 3.092 2.818 3.092h22.473c1.707 0 3.214-1.384 3.365-3.092.151-1.707-1.11-3.092-2.818-3.092M216.063 150.677h-76.436c-1.708 0-3.214 1.384-3.365 3.092s1.111 3.092 2.818 3.092h76.436c1.708 0 3.214-1.384 3.365-3.092.151-1.707-1.111-3.092-2.818-3.092M298.056 75.831c-.168 1.903-1.848 3.446-3.751 3.446s-3.309-1.543-3.141-3.446 1.848-3.446 3.751-3.446 3.309 1.543 3.141 3.446M284.737 75.831c-.168 1.903-1.848 3.446-3.751 3.446s-3.309-1.543-3.141-3.446 1.848-3.446 3.751-3.446 3.309 1.543 3.141 3.446M271.417 75.831c-.168 1.903-1.848 3.446-3.751 3.446s-3.309-1.543-3.141-3.446 1.848-3.446 3.751-3.446 3.309 1.543 3.141 3.446"/><path fill="#EBEBEB" d="M338.087 364.325H186.325c-4.236 0-7.396-3.466-7.021-7.702l8.272-93.497c.375-4.236 4.147-7.702 8.384-7.702h151.762c4.236 0 7.396 3.466 7.021 7.702l-8.271 93.497c-.376 4.236-4.149 7.702-8.385 7.702"/><path fill="#FAFAFA" d="M347.721 255.424H195.96c-4.236 0-8.009 3.466-8.384 7.702h167.166c.375-4.237-2.785-7.702-7.021-7.702"/><path fill="#fff" d="M217.147 345.141h-24.446c-1.166 0-2.195.945-2.299 2.112-.103 1.166.759 2.112 1.925 2.112h24.446c1.166 0 2.195-.945 2.298-2.112s-.757-2.112-1.924-2.112M265.429 345.141h-39.51c-1.166 0-2.195.945-2.298 2.112-.103 1.166.759 2.112 1.925 2.112h39.51c1.166 0 2.195-.945 2.298-2.112s-.759-2.112-1.925-2.112M230.64 338.112h-32.768c-1.166 0-2.195.945-2.298 2.112-.103 1.166.759 2.112 1.925 2.112h32.768c1.166 0 2.195-.945 2.299-2.112.102-1.167-.76-2.112-1.926-2.112M291.617 338.112h-52.205c-1.166 0-2.195.945-2.299 2.112-.103 1.166.759 2.112 1.925 2.112h52.205c1.166 0 2.195-.945 2.298-2.112s-.758-2.112-1.924-2.112M266.672 331.082h-39.509c-1.166 0-2.195.945-2.298 2.112-.103 1.166.759 2.112 1.925 2.112h39.51c1.166 0 2.195-.945 2.298-2.112.103-1.166-.759-2.112-1.926-2.112M242.189 310.393h-32.768c-1.166 0-2.195.945-2.298 2.112-.103 1.166.759 2.112 1.925 2.112h32.768c1.166 0 2.195-.945 2.298-2.112.103-1.166-.758-2.112-1.925-2.112M303.166 310.393h-52.205c-1.166 0-2.195.945-2.298 2.112-.103 1.166.759 2.112 1.925 2.112h52.205c1.166 0 2.195-.945 2.298-2.112.103-1.166-.759-2.112-1.925-2.112M241.738 272.841h-24.446c-1.166 0-2.028-.946-1.925-2.112s1.132-2.112 2.298-2.112h24.446c1.166 0 2.028.945 1.925 2.112-.103 1.166-1.132 2.112-2.298 2.112M290.019 272.841H250.51c-1.166 0-2.028-.946-1.925-2.112s1.132-2.112 2.299-2.112h39.509c1.166 0 2.028.945 1.925 2.112-.103 1.166-1.133 2.112-2.299 2.112M253.987 279.87h-32.768c-1.166 0-2.028-.945-1.925-2.112.103-1.166 1.132-2.112 2.298-2.112h32.768c1.166 0 2.028.945 1.925 2.112-.103 1.166-1.132 2.112-2.298 2.112M314.963 279.87h-52.205c-1.166 0-2.028-.945-1.925-2.112.103-1.166 1.132-2.112 2.298-2.112h52.205c1.166 0 2.028.945 1.925 2.112-.102 1.166-1.131 2.112-2.298 2.112M225.018 307.588h-15.349c-1.166 0-2.028-.945-1.925-2.112.103-1.166 1.132-2.112 2.298-2.112h15.349c1.166 0 2.028.945 1.925 2.112-.102 1.166-1.132 2.112-2.298 2.112M285.995 307.588H233.79c-1.166 0-2.028-.945-1.925-2.112.103-1.166 1.132-2.112 2.298-2.112h52.205c1.166 0 2.028.945 1.925 2.112-.103 1.166-1.132 2.112-2.298 2.112"/><path fill="#EBEBEB" d="M341.747 259.275c-.115 1.3-1.262 2.353-2.562 2.353s-2.26-1.054-2.145-2.353 1.262-2.353 2.562-2.353c1.299-.001 2.26 1.053 2.145 2.353M332.65 259.275c-.115 1.3-1.262 2.353-2.562 2.353s-2.26-1.054-2.145-2.353 1.262-2.353 2.562-2.353 2.259 1.053 2.145 2.353M323.552 259.275c-.115 1.3-1.262 2.353-2.562 2.353s-2.26-1.054-2.145-2.353 1.262-2.353 2.562-2.353 2.26 1.053 2.145 2.353"/><path fill="#F5F5F5" d="M250 427.561c107.082 0 193.889-5.069 193.889-11.323S357.082 404.915 250 404.915s-193.89 5.069-193.89 11.323 86.808 11.323 193.89 11.323"/><path fill="#0A5840" d="m420.255 188.935-.032-.001a.5.5 0 0 1-.467-.531l.435-6.771a.51.51 0 0 1 .531-.467.5.5 0 0 1 .467.531l-.435 6.771a.5.5 0 0 1-.499.468M421.162 174.839l-.033-.001a.5.5 0 0 1-.467-.531l1.479-23.022a.5.5 0 0 1 .998.064l-1.479 23.022a.5.5 0 0 1-.498.468"/><path fill="#fff" d="M393.132 326.723H217.693c-7.967 0-14.067-6.519-13.555-14.486l13.23-205.816c.512-7.967 7.45-14.486 15.417-14.486h175.439c7.967 0 14.067 6.519 13.555 14.486l-13.23 205.816c-.512 7.967-7.449 14.486-15.417 14.486"/><path fill="#0A5840" d="M393.133 327.723h-175.44c-4.127 0-7.918-1.619-10.676-4.561-2.766-2.948-4.143-6.852-3.877-10.989l13.23-205.817c.547-8.504 7.911-15.422 16.415-15.422h175.439c4.127 0 7.918 1.62 10.676 4.56 2.766 2.949 4.143 6.852 3.877 10.99l-13.23 205.817c-.546 8.504-7.91 15.422-16.414 15.422M232.786 92.935c-7.47 0-13.938 6.079-14.419 13.55l-13.23 205.817c-.23 3.58.956 6.951 3.34 9.492 2.375 2.533 5.648 3.929 9.217 3.929h175.439c7.47 0 13.938-6.078 14.419-13.55l13.23-205.817c.23-3.58-.956-6.952-3.34-9.494-2.375-2.533-5.648-3.928-9.217-3.928z"/><path fill="#0A5840" d="M408.225 91.935H232.786c-7.967 0-14.905 6.519-15.417 14.486h204.41c.513-7.968-5.587-14.486-13.554-14.486"/><path fill="#263238" d="M268.084 130.773h-26.906a2.06 2.06 0 0 1-2.075-2.217c.078-1.22 1.14-2.218 2.36-2.218h26.906a2.06 2.06 0 0 1 2.075 2.218c-.078 1.219-1.14 2.217-2.36 2.217"/><path fill="#0A5840" d="M338.265 144.078h-84.637a2.06 2.06 0 0 1-2.075-2.217c.078-1.22 1.14-2.218 2.36-2.218h84.637a2.06 2.06 0 0 1 2.075 2.218c-.078 1.219-1.141 2.217-2.36 2.217M297.05 157.384h-44.277a2.06 2.06 0 0 1-2.075-2.218c.078-1.22 1.14-2.217 2.36-2.217h44.277a2.06 2.06 0 0 1 2.075 2.217c-.078 1.22-1.14 2.218-2.36 2.218M376.617 170.689H251.916a2.06 2.06 0 0 1-2.075-2.217c.078-1.22 1.14-2.218 2.36-2.218h124.701a2.06 2.06 0 0 1 2.075 2.218c-.078 1.219-1.14 2.217-2.36 2.217M358.476 157.384h-44.277a2.06 2.06 0 0 1-2.075-2.218c.078-1.22 1.14-2.217 2.36-2.217h44.277a2.06 2.06 0 0 1 2.075 2.217c-.078 1.22-1.14 2.218-2.36 2.218"/><path fill="#263238" d="M259.531 263.826h-26.906a2.06 2.06 0 0 1-2.075-2.217c.078-1.22 1.141-2.218 2.36-2.218h26.906a2.06 2.06 0 0 1 2.075 2.218c-.078 1.219-1.14 2.217-2.36 2.217"/><path fill="#0A5840" d="M328.856 290.437H244.22a2.06 2.06 0 0 1-2.075-2.218c.078-1.22 1.141-2.217 2.36-2.217h84.637a2.06 2.06 0 0 1 2.075 2.217c-.079 1.22-1.141 2.218-2.361 2.218M287.642 303.742h-44.277a2.06 2.06 0 0 1-2.075-2.217c.078-1.22 1.141-2.218 2.36-2.218h44.277a2.06 2.06 0 0 1 2.075 2.218c-.079 1.219-1.141 2.217-2.36 2.217M370.061 272.697H245.36c-1.22 0-2.282.998-2.36 2.217a2.06 2.06 0 0 0 2.075 2.218h124.701c1.22 0 2.282-.998 2.36-2.218a2.06 2.06 0 0 0-2.075-2.217M349.068 303.742h-44.277a2.06 2.06 0 0 1-2.075-2.217c.078-1.22 1.14-2.218 2.36-2.218h44.277a2.06 2.06 0 0 1 2.075 2.218c-.078 1.219-1.14 2.217-2.36 2.217"/><path fill="#263238" d="M277.113 197.3h-40.212a2.06 2.06 0 0 1-2.075-2.218c.078-1.22 1.14-2.217 2.36-2.217h40.212a2.06 2.06 0 0 1 2.075 2.217c-.078 1.22-1.14 2.218-2.36 2.218"/><path fill="#0A5840" d="M332.563 232.781h-84.637c-1.22 0-2.282.998-2.36 2.217a2.06 2.06 0 0 0 2.075 2.218h84.637c1.22 0 2.282-.998 2.36-2.218a2.06 2.06 0 0 0-2.075-2.217M279.753 219.475h-30.972c-1.22 0-2.282.998-2.36 2.218a2.06 2.06 0 0 0 2.075 2.217h30.972c1.22 0 2.282-.998 2.36-2.217a2.06 2.06 0 0 0-2.075-2.218M307.81 206.17h-58.174c-1.22 0-2.282.998-2.36 2.217a2.06 2.06 0 0 0 2.075 2.217h58.174c1.22 0 2.282-.998 2.36-2.217a2.06 2.06 0 0 0-2.075-2.217M382.32 206.17h-58.174c-1.22 0-2.282.998-2.36 2.217a2.06 2.06 0 0 0 2.075 2.217h58.174c1.22 0 2.282-.998 2.36-2.217a2.06 2.06 0 0 0-2.075-2.217M354.485 219.475h-57.582c-1.22 0-2.282.998-2.36 2.218a2.06 2.06 0 0 0 2.075 2.217H354.2c1.22 0 2.282-.998 2.36-2.217a2.06 2.06 0 0 0-2.075-2.218"/><path fill="#fff" d="M236.593 98.437c-.143 2.224-2.062 4.026-4.285 4.026s-3.911-1.803-3.768-4.026c.143-2.224 2.062-4.026 4.285-4.026s3.911 1.803 3.768 4.026M244.897 95.161c.865 0 1.653.334 2.221.939.57.608.854 1.421.798 2.289-.118 1.833-1.704 3.325-3.537 3.325-.864 0-1.653-.334-2.221-.939-.57-.608-.854-1.421-.798-2.289.118-1.834 1.705-3.325 3.537-3.325m0-.75c-2.224 0-4.142 1.803-4.285 4.026-.143 2.224 1.544 4.026 3.768 4.026s4.142-1.803 4.285-4.026-1.544-4.026-3.768-4.026"/><path fill="#fff" d="M260.736 98.437c-.143 2.224-2.061 4.026-4.285 4.026s-3.91-1.803-3.767-4.026c.143-2.224 2.061-4.026 4.285-4.026 2.223 0 3.91 1.803 3.767 4.026" opacity=".5"/><path fill="#0A5840" d="M159.452 216.223s-17.151 59.587-24.109 88.847c-7.307 30.729-29.043 77.182-30.85 97.551-1.879.748-7.968-.093-11.217-1.664 0 0 2.979-64.945 20.64-94.528-3.988-72.793 15.769-90.206 15.769-90.206z"/><path fill="#000" d="m137.235 246.154 9.645 14.814c-3.057 11.173-6.184 22.819-8.741 32.839-2.682-17.344-.904-47.653-.904-47.653" opacity=".1"/><path fill="#FF8B7B" d="m160.014 201.686-2.644-1.432a3.5 3.5 0 0 0-3.203-.066l-4.746 2.323a6.52 6.52 0 0 0-3.57 4.803l-.212 1.291c4.223 2.674 10.757 2.453 10.757 2.453l1.87.143c1.665.127 3.06-1.014 3.204-2.621l.332-3.701c.115-1.277-.597-2.548-1.788-3.193"/><path fill="#FF8B7B" d="m149.352 203.279-.167-.053c-1.613-.507-3.376-1.043-4.996-1.671-1.64-.609-3.237-1.262-4.701-2.006-1.473-.716-2.803-1.565-3.824-2.412-.682-.575-1.126-1.154-1.378-1.621-.187-2.094-.324-4.197-.304-6.335.014-2.271.108-4.556.318-6.847.212-2.288.479-4.581.841-6.861.178-1.14.369-2.277.591-3.401l.345-1.672.338-1.554.061-.28a5.419 5.419 0 0 0-10.521-2.583 57 57 0 0 0-.524 2.033c-.156.648-.282 1.294-.414 1.938a99 99 0 0 0-.682 3.867 76 76 0 0 0-.754 7.806 67 67 0 0 0 .058 7.902c.125 2.644.535 5.302 1.013 7.942l.049.273q.069.369.223.729a12.1 12.1 0 0 0 2.526 3.732c.981.992 2.016 1.758 3.043 2.399 2.059 1.254 4.123 2.003 6.136 2.587 2.024.562 4.02.922 6.009 1.146.994.113 1.989.169 2.979.216 1.004.05 1.951.059 3.028.016a2.72 2.72 0 0 0 2.478-1.895 2.706 2.706 0 0 0-1.771-3.395"/><path fill="#263238" d="M133.073 152.962c4.867 4.514 7.728 11.547 4.785 25.472-4.77 2.711-16.841.228-16.841.228s-1.336-20.597 12.056-25.7"/><path fill="#FF8B7B" d="M145.309 132.261c.862 6.038 1.485 16.984-2.793 20.416 0 0 5.637-.15 16.495 8.564 4.003-4.462 1.667-6.328 1.667-6.328-6.441-2.372-6.038-7.231-4.682-11.673z"/><path fill="#263238" d="M169.563 128.863c-.137.801.16 1.549.662 1.671s1.02-.429 1.156-1.23-.16-1.549-.662-1.671-1.02.429-1.156 1.23"/><path fill="#263238" d="m170.489 127.624 1.939-.108s-1.202 1.273-1.939.108"/><path fill="#FF5652" d="M169.267 130.363s.715 3.765 1.866 5.776c-1.182.741-2.829-.128-2.829-.128z"/><path fill="#0A5840" d="M169.445 135.005q-.275 0-.54-.069c-.584-.153-1.069-.561-1.403-1.181-.691-1.281-.688-3.361.01-5.429 1.078-3.2 3.368-5.327 5.218-4.841.584.153 1.069.561 1.403 1.181.691 1.281.688 3.361-.01 5.429-.975 2.894-2.943 4.91-4.678 4.91m2.757-11.086c-1.488 0-3.336 1.955-4.216 4.568-.655 1.94-.672 3.868-.044 5.031.271.501.637.816 1.09.934 1.548.401 3.655-1.663 4.616-4.518.655-1.94.672-3.868.044-5.031-.27-.501-.637-.816-1.09-.935a1.7 1.7 0 0 0-.4-.049"/><path fill="#263238" d="M172.803 123.176a.44.44 0 0 0 .154-.305c.015-.25-.191-.464-.459-.479-2.694-.146-4.05 1.521-4.106 1.593a.43.43 0 0 0 .104.633.515.515 0 0 0 .682-.094c.052-.066 1.124-1.344 3.266-1.227a.5.5 0 0 0 .359-.121"/><path fill="#FF8B7B" d="M144.717 119.805c-1.212 9.597-.634 15.112 1.842 19.626 5.127 9.346 17.45 9.009 21.44.111 3.591-8.009 4.969-22.358-3.395-28.347-8.24-5.901-18.675-.987-19.887 8.61"/><path fill="#263238" d="M141.111 119.889c-2.555 5.735 2.563 16.094 6.945 20.889 2.725 2.982 11.299-1.558 16.528-10.492 2.25-6.453-.585-11.286-.585-11.286z"/><path fill="#0A5840" d="M174.235 128.947a.2.2 0 0 1-.09-.017c-.096-.037-9.643-3.658-13.387-3.224a.247.247 0 0 1-.277-.219.25.25 0 0 1 .219-.277c3.86-.473 13.228 3.101 13.625 3.253a.25.25 0 0 1-.09.484"/><path fill="#263238" d="M162.5 123.545c-8.773 5.037-18.886 1.59-21.216-2.154s-.909-5.943-.094-6.851c-2.513-.673-4.102-4.097 3.292-7.5s28.477-3.152 21.654-7.046c6.534 1.116 4.799 4.473 2.349 4.911 13.015 2.845 4.473 16.262-5.985 18.64"/><path fill="#263238" d="M141.639 113.417c-2.333 2.25-5.528.778-6.028-.972-.389 6.361 8.833 4.249 6.028.972"/><path fill="#FF8B7B" d="M160.776 129.554c.298 2.159 1.428 3.809 2.696 4.649 1.908 1.264 3.63-.831 3.743-3.467.102-2.372-.768-5.889-2.992-6.059-2.192-.168-3.788 2.409-3.447 4.877"/><path fill="#263238" d="M110.164 416.198c-7.385-1.095-7.526-2.322-11.487-3.71-3.39-1.196-4.344-1.024-7.08-1.948-2.285-.77-1.51-2.946-.006-5.258.754-1.161.862-2.267 1.685-4.323l11.217 1.664c1.092 3.132 1.477 7.139 7.88 9.431 3.815 1.363.735 4.58-2.209 4.144M178.562 416.226c-7.337-.013-8.749-.482-12.872-.623-3.535-.128-4.116.623-7.699.623-2.374 0-2.701-2.673-1.832-4.678.677-1.561.78-3.429 1.272-5.456h10.118c1.825 3.207 6.801 5.58 12.363 5.978 3.975.294 1.587 4.156-1.35 4.156"/><path fill="#0A5840" d="M169.984 216.223s1.463 52.793-1.663 86.318c.196 31.473-.773 103.55-.773 103.55-.244 1.608-8.686.966-10.118 0 0 0-15.808-52.499-8.79-103.55-17.569-53.244-13.779-86.318-13.779-86.318zM105.965 398.542c-.119 1.023-.289 2.811-.226 4.205a.873.873 0 0 1-.877.912c-4.203.048-10.004-1.785-11.84-2.404a.87.87 0 0 1-.586-.817l-.036-3.971a.872.872 0 0 1 1.017-.868l11.824 1.987c.46.078.778.494.724.956"/><path fill="#fff" d="M105.965 398.542c-.119 1.023-.289 2.811-.226 4.205a.873.873 0 0 1-.877.912c-4.203.048-10.004-1.785-11.84-2.404a.87.87 0 0 1-.586-.817l-.036-3.971a.872.872 0 0 1 1.017-.868l11.824 1.987c.46.078.778.494.724.956" opacity=".5"/><path fill="#0A5840" d="M168.707 401.656c.03 1.093.094 3.041.195 4.481a.92.92 0 0 1-.799.962c-3.58.493-9.29.046-11.163-.124a.816.816 0 0 1-.734-.666l-.753-3.92c-.103-.535.314-1.053.864-1.075l11.524-.459a.82.82 0 0 1 .866.801"/><path fill="#fff" d="M168.707 401.656c.03 1.093.094 3.041.195 4.481a.92.92 0 0 1-.799.962c-3.58.493-9.29.046-11.163-.124a.816.816 0 0 1-.734-.666l-.753-3.92c-.103-.535.314-1.053.864-1.075l11.524-.459a.82.82 0 0 1 .866.801" opacity=".5"/><path fill="#263238" d="M176.671 171.981c-.363 3.948-.814 8.945-2.515 18.264-1.288 7.907-3.016 12.853-4.172 25.978-4.533 3.252-35.468 1.752-40.299 0 .81-11.352 1.386-26.527-2.675-52.762-.942-6.083 3.467-11.271 9.47-11.142 1.604.034 3.302.107 5.037.236 6.746.501 12.271.963 18.162 2.236 1.952.422 3.967.922 5.89 1.434 6.938 1.849 11.753 8.682 11.102 15.756"/><path fill="#FF8B7B" d="M203.903 179.618a2.706 2.706 0 0 0-3.827.069l-.067.07c-1.473 1.527-3.003 3.143-4.561 4.621-1.547 1.501-3.111 2.956-4.704 4.259-1.563 1.307-3.23 2.479-4.661 3.173a6 6 0 0 1-.75.303c-.998-1.534-1.968-3.09-2.837-4.736a80 80 0 0 1-2.974-6.175 106 106 0 0 1-3.617-9.709l-.491-1.635-.441-1.528-.08-.275a5.42 5.42 0 0 0-10.485 2.727c.18.784.329 1.378.505 2.038.17.645.367 1.273.557 1.902a99 99 0 0 0 1.238 3.726 76 76 0 0 0 3.047 7.226 67 67 0 0 0 3.807 6.925c1.366 2.267 2.99 4.411 4.666 6.507l.125.157q.26.321.59.595a8.55 8.55 0 0 0 3.499 1.711 8.6 8.6 0 0 0 3.519.053c2.045-.399 3.452-1.189 4.69-1.962 2.428-1.586 4.156-3.383 5.798-5.187a58 58 0 0 0 4.348-5.643c1.299-1.964 2.515-3.885 3.626-6.01a2.71 2.71 0 0 0-.52-3.202"/><path fill="#fff" d="m349.303 185.165 35.016 4.479c7.389.945 12.269 7.814 10.845 15.264l-9.964 52.123c-1.424 7.45-8.635 12.772-16.024 11.826L206.47 248.044c-7.389-.945-12.269-7.814-10.845-15.264l9.964-52.123c1.424-7.45 8.635-12.771 16.024-11.826l106.273 13.595"/><path fill="#263238" d="M370.455 269.459h-.016a14 14 0 0 1-1.326-.106l-3.687-.472a.501.501 0 0 1 .127-.993l3.686.472q.617.079 1.23.098a.5.5 0 0 1-.014 1.001m4.917-.743a.501.501 0 0 1-.16-.974 14.4 14.4 0 0 0 4.228-2.29.5.5 0 1 1 .615.789 15.4 15.4 0 0 1-4.523 2.448.5.5 0 0 1-.16.027m-14.841-.465a1 1 0 0 1-.064-.004l-4.96-.634a.501.501 0 0 1 .127-.993l4.96.634a.501.501 0 0 1-.063.997m-9.919-1.269a1 1 0 0 1-.064-.004l-4.96-.635a.5.5 0 0 1-.433-.56.505.505 0 0 1 .56-.433l4.96.635a.502.502 0 0 1-.063.997m-9.92-1.268a1 1 0 0 1-.065-.004l-4.959-.635a.502.502 0 0 1 .127-.993l4.959.635a.502.502 0 0 1-.062.997m-9.919-1.27a1 1 0 0 1-.064-.004l-4.959-.634a.501.501 0 0 1 .127-.993l4.959.634a.501.501 0 0 1-.063.997m-9.919-1.268a1 1 0 0 1-.064-.004l-4.96-.635a.502.502 0 0 1 .127-.993l4.96.635a.502.502 0 0 1-.063.997m62.263-.492a.499.499 0 0 1-.418-.772 14 14 0 0 0 1.893-4.413.499.499 0 1 1 .973.229 14.9 14.9 0 0 1-2.027 4.729.51.51 0 0 1-.421.227m-72.182-.777a1 1 0 0 1-.064-.004l-4.96-.635a.502.502 0 0 1 .127-.993l4.96.635a.5.5 0 0 1-.063.997m-9.918-1.269a1 1 0 0 1-.065-.004l-4.96-.634a.501.501 0 0 1 .127-.993l4.96.634a.501.501 0 0 1-.062.997m-9.92-1.269a1 1 0 0 1-.065-.004l-4.959-.635a.502.502 0 0 1 .127-.993l4.959.635a.502.502 0 0 1-.062.997m-9.919-1.268a1 1 0 0 1-.064-.004l-4.96-.635a.502.502 0 0 1 .127-.993l4.96.635a.502.502 0 0 1-.063.997m-9.919-1.27a1 1 0 0 1-.064-.004l-4.96-.634a.501.501 0 0 1 .127-.993l4.96.634a.5.5 0 0 1-.063.997m-9.919-1.268a1 1 0 0 1-.064-.004l-4.96-.634a.501.501 0 0 1 .127-.993l4.96.634a.501.501 0 0 1-.063.997m-9.92-1.269a1 1 0 0 1-.064-.004l-4.959-.635a.5.5 0 0 1 .127-.993l4.959.635a.502.502 0 0 1-.063.997m134.608-1.091a.5.5 0 0 1-.492-.594l.939-4.911a.5.5 0 0 1 .982.188l-.938 4.911a.5.5 0 0 1-.491.406m-144.527-.178a1 1 0 0 1-.065-.004l-4.959-.635a.502.502 0 0 1 .127-.993l4.959.635a.502.502 0 0 1-.062.997m-9.919-1.269a1 1 0 0 1-.064-.004l-4.96-.634a.501.501 0 0 1 .127-.993l4.96.634a.501.501 0 0 1-.063.997m-9.919-1.269a1 1 0 0 1-.064-.004l-4.96-.635a.502.502 0 0 1 .126-.993l4.96.635a.501.501 0 0 1-.062.997m-9.92-1.268a1 1 0 0 1-.064-.004l-4.959-.635a.502.502 0 0 1 .127-.993l4.959.635a.501.501 0 0 1-.063.997m-9.712-2.084a.5.5 0 0 1-.236-.06 12.9 12.9 0 0 1-3.977-3.296.5.5 0 1 1 .778-.627 12 12 0 0 0 3.671 3.042.5.5 0 0 1-.236.941m185.875-3.754a.5.5 0 0 1-.492-.594l.938-4.91a.499.499 0 1 1 .982.188l-.938 4.91a.5.5 0 0 1-.49.406m-191.999-3.816a.5.5 0 0 1-.479-.359 13.6 13.6 0 0 1-.55-3.842q0-.642.06-1.293a.501.501 0 0 1 .996.094 12.8 12.8 0 0 0 .453 4.76.5.5 0 0 1-.48.64m193.876-6.005a.5.5 0 0 1-.493-.594l.94-4.912a.5.5 0 0 1 .982.187l-.939 4.912a.5.5 0 0 1-.49.407m-193.472-3.863a.5.5 0 0 1-.492-.594l.939-4.911a.5.5 0 0 1 .982.188l-.939 4.911a.5.5 0 0 1-.49.406m195.35-5.96a.5.5 0 0 1-.492-.594l.938-4.911a.5.5 0 0 1 .982.188l-.938 4.911a.5.5 0 0 1-.49.406m-193.472-3.862a.5.5 0 0 1-.492-.594l.938-4.911a.5.5 0 0 1 .983.188l-.939 4.911a.5.5 0 0 1-.49.406m195.35-5.96a.5.5 0 0 1-.492-.594l.939-4.911a.5.5 0 1 1 .982.187l-.939 4.911a.5.5 0 0 1-.49.407m-193.473-3.862a.5.5 0 0 1-.492-.594l.938-4.911a.501.501 0 0 1 .982.188l-.939 4.911a.5.5 0 0 1-.489.406m195.288-5.97q-.024 0-.047-.002a.5.5 0 0 1-.452-.544q.057-.612.057-1.213c0-1.208-.17-2.402-.506-3.547a.5.5 0 0 1 .959-.282 13.6 13.6 0 0 1 .547 3.829q0 .647-.061 1.305a.5.5 0 0 1-.497.454m-193.411-3.853a.5.5 0 0 1-.492-.594l.939-4.911a.5.5 0 1 1 .982.187l-.939 4.911a.5.5 0 0 1-.49.407m190.647-5.498a.5.5 0 0 1-.39-.187 11.9 11.9 0 0 0-3.667-3.045.5.5 0 1 1 .473-.881 12.95 12.95 0 0 1 3.974 3.299.5.5 0 0 1-.39.814m-188.769-4.323a.5.5 0 0 1-.492-.594l.938-4.911a.502.502 0 0 1 .983.188l-.939 4.911a.5.5 0 0 1-.49.406m180.2-.302a1 1 0 0 1-.064-.004l-4.959-.635a.5.5 0 0 1-.433-.56.503.503 0 0 1 .559-.433l4.959.635a.502.502 0 0 1-.062.997m-9.919-1.269-.064-.004-4.96-.635a.5.5 0 0 1-.433-.56.51.51 0 0 1 .56-.433l4.96.635a.502.502 0 0 1-.063.997m-9.919-1.269a1 1 0 0 1-.064-.004l-4.96-.634a.5.5 0 0 1-.433-.56.504.504 0 0 1 .56-.433l4.96.634a.501.501 0 0 1-.063.997m-9.919-1.269q-.033 0-.065-.004l-4.96-.634a.5.5 0 0 1-.433-.56.51.51 0 0 1 .56-.433l4.96.634a.502.502 0 0 1-.062.997m-29.785-3.81a1 1 0 0 1-.064-.004l-4.959-.634a.5.5 0 0 1-.433-.56.51.51 0 0 1 .56-.433l4.959.634a.502.502 0 0 1-.063.997m-9.919-1.269-.064-.004-4.96-.635a.5.5 0 0 1-.433-.56.505.505 0 0 1 .56-.433l4.96.635a.5.5 0 0 1-.063.997m-108.85-.632a.5.5 0 0 1-.487-.614 14.9 14.9 0 0 1 2.024-4.732.5.5 0 1 1 .837.545 13.9 13.9 0 0 0-1.888 4.415.5.5 0 0 1-.486.386m98.932-.637a1 1 0 0 1-.065-.004l-4.96-.634a.5.5 0 0 1-.433-.56.51.51 0 0 1 .56-.433l4.96.634a.501.501 0 0 1-.062.997m-9.919-1.269-.064-.004-4.96-.634a.5.5 0 0 1-.433-.56.505.505 0 0 1 .56-.433l4.96.634a.502.502 0 0 1-.063.997m-9.92-1.268a1 1 0 0 1-.064-.004l-4.959-.635a.502.502 0 0 1 .126-.993l4.959.635a.501.501 0 0 1-.062.997m-9.919-1.27a1 1 0 0 1-.064-.004l-4.959-.634a.5.5 0 0 1-.433-.559.51.51 0 0 1 .56-.433l4.959.634a.5.5 0 0 1 .433.56.5.5 0 0 1-.496.436m-9.919-1.269a1 1 0 0 1-.064-.004l-4.96-.634a.5.5 0 0 1-.433-.56.51.51 0 0 1 .56-.433l4.96.634a.501.501 0 0 1-.063.997m-9.919-1.268a1 1 0 0 1-.064-.004l-4.96-.635a.5.5 0 0 1-.433-.559.506.506 0 0 1 .56-.433l4.96.635a.5.5 0 0 1 .433.56.5.5 0 0 1-.496.436m-44.015-1.259a.499.499 0 0 1-.308-.894 15.4 15.4 0 0 1 4.52-2.452.5.5 0 1 1 .322.946 14.4 14.4 0 0 0-4.228 2.294.5.5 0 0 1-.306.106m34.095-.01a1 1 0 0 1-.065-.004l-4.959-.634a.5.5 0 0 1-.433-.56.506.506 0 0 1 .56-.433l4.959.634a.501.501 0 0 1-.062.997m-9.919-1.269a1 1 0 0 1-.064-.004l-4.959-.634a.5.5 0 0 1-.433-.559.506.506 0 0 1 .559-.433l4.959.634a.5.5 0 0 1-.062.996m-9.919-1.269a1 1 0 0 1-.064-.004l-3.674-.47q-.623-.079-1.243-.098a.5.5 0 0 1 .032-.999q.666.02 1.339.105l3.674.47a.5.5 0 0 1 .433.56.5.5 0 0 1-.497.436M264.708 197.369l-37.293-4.771c-1.131-.145-1.878-1.196-1.66-2.337.218-1.14 1.322-1.955 2.453-1.81l37.293 4.771c1.131.145 1.878 1.196 1.66 2.337-.218 1.14-1.322 1.955-2.453 1.81"/><path fill="#0A5840" d="m311.906 237.395-78.494-10.041c-1.131-.145-2.235.67-2.453 1.811-.218 1.14.529 2.192 1.66 2.337l78.494 10.041c1.131.145 2.235-.67 2.453-1.811.219-1.141-.528-2.193-1.66-2.337M264.515 218.587l-28.724-3.674c-1.131-.145-2.235.67-2.453 1.81s.529 2.192 1.66 2.337l28.724 3.674c1.131.145 2.235-.67 2.453-1.811.218-1.14-.529-2.192-1.66-2.336M292.121 209.373l-53.952-6.902c-1.131-.145-2.235.67-2.453 1.81s.529 2.192 1.66 2.337l53.952 6.902c1.131.145 2.235-.67 2.453-1.81s-.529-2.193-1.66-2.337M361.223 218.212l-53.952-6.902c-1.131-.145-2.235.67-2.453 1.81s.529 2.192 1.66 2.337l53.952 6.902c1.131.145 2.235-.67 2.453-1.81s-.529-2.192-1.66-2.337M333.823 227.453l-53.404-6.831c-1.131-.145-2.235.67-2.453 1.81s.529 2.192 1.66 2.337l53.403 6.832c1.131.145 2.235-.67 2.453-1.81.219-1.142-.528-2.194-1.659-2.338M336.962 183.639l8.858-2.787s-4.348-1.387-6.725-.282c-1.505.7-2.288 1.687-3.216 2.493l-4.183-2.223c.422-.048.774-.236.957-.552a1.03 1.03 0 0 0 .089-.784c-.121-.473-.52-.954-1.109-1.267-.932-.495-1.986-.38-2.355.257-.136.235-.16.508-.089.784.121.473.52.954 1.109 1.267l3.884 2.064c.477.253.837.557 1.141.894a4.9 4.9 0 0 1-1.372.686l-4.389 1.381c-1.053.331-1.765 1.153-1.589 1.835s1.171.967 2.224.636 1.765-1.153 1.589-1.835c-.087-.339-.376-.579-.774-.695l4.727-1.487c.673.938 1.151 2.03 2.418 2.959 2 1.467 6.646.823 6.646.823zm-7.291-4.511c-.028-.11-.045-.27.033-.406.195-.337.952-.427 1.674-.043.451.24.789.614.882.978.028.11.045.27-.033.406-.089.153-.294.258-.562.287-.343.038-.749-.051-1.111-.244-.452-.24-.79-.615-.883-.978m1.633 7.23c.093.361-.413.955-1.229 1.212s-1.529.045-1.621-.315c-.092-.361.413-.955 1.229-1.212s1.529-.045 1.621.315"/><path fill="#FF8B7B" d="m211.007 173.312-2.984-.366a3.5 3.5 0 0 0-3.006 1.109l-3.569 3.897a6.52 6.52 0 0 0-1.567 5.776l.275 1.279c4.908.946 10.909-1.648 10.909-1.648l1.793-.549c1.596-.49 2.478-2.062 2.025-3.611l-1.043-3.566c-.362-1.233-1.488-2.156-2.833-2.321"/><path fill="#263238" d="M164.483 155.94c6.428 1.658 12.287 6.487 16.315 20.137-2.908 4.652-14.709 8.204-14.709 8.204s-10.964-17.486-1.606-28.341M359.625 372.611a.5.5 0 0 1-.484-.376c-.093-.362-9.211-36.444-5.685-57.369a.5.5 0 1 1 .986.166c-3.49 20.716 5.576 56.596 5.668 56.955a.5.5 0 0 1-.485.624"/><path fill="#263238" d="M353.506 318.742a.499.499 0 0 1-.038-.998c.477-.038 1.768-.283 3.453-1.745a.5.5 0 1 1 .654.756c-1.909 1.655-3.453 1.94-4.029 1.985zM353.315 325.013a.5.5 0 0 1-.135-.981c1.619-.451 3.094-1.337 4.384-2.633a.5.5 0 0 1 .709.705c-1.414 1.42-3.036 2.393-4.823 2.891a.5.5 0 0 1-.135.018M353.392 331.872a.5.5 0 0 1-.233-.943c2.629-1.385 5.043-3.328 7.176-5.775a.5.5 0 1 1 .754.656c-2.215 2.542-4.726 4.562-7.463 6.004a.5.5 0 0 1-.234.058M353.727 337.169a.5.5 0 0 1-.086-.992c3.319-.583 6.225-2.347 8.634-5.243a.5.5 0 1 1 .769.639c-2.566 3.084-5.671 4.965-9.229 5.589a1 1 0 0 1-.088.007M355.602 344.069a5 5 0 0 1-1.308-.169.5.5 0 1 1 .261-.965c1.594.43 3.623-.177 5.867-1.762a.498.498 0 1 1 .576.816c-1.944 1.376-3.784 2.08-5.396 2.08M356.247 351.694c-.354 0-.714-.067-1.078-.23a.5.5 0 1 1 .41-.912c.769.347 1.549.024 2.746-.542a.5.5 0 0 1 .428.904c-.813.386-1.647.78-2.506.78M359.032 367.658q-.286.001-.587-.055a.499.499 0 1 1 .188-.982c.522.099 1.038-.021 1.565-.163a22.8 22.8 0 0 0 6.944-3.246.5.5 0 1 1 .566.824 23.8 23.8 0 0 1-7.249 3.387c-.448.122-.922.235-1.427.235M353.075 320.726a.5.5 0 0 1-.252-.068c-.593-.346-1.124-.989-1.456-1.766a.5.5 0 0 1 .92-.392c.245.574.635 1.058 1.04 1.295a.5.5 0 0 1-.252.931M352.991 329.077a1 1 0 0 1-.072-.005c-1.183-.17-2.311-.902-2.904-1.553a.5.5 0 1 1 .738-.674c.458.502 1.376 1.103 2.309 1.236a.5.5 0 0 1-.071.996M352.914 334.643c-1.86 0-3.817-1.308-5.164-3.474a.5.5 0 1 1 .85-.527c1.196 1.926 3.006 3.109 4.513 2.994.256-.03.514.188.533.465a.5.5 0 0 1-.465.533 4 4 0 0 1-.267.009M352.978 341.065c-1.554 0-3.141-1.04-4.408-2.009a38 38 0 0 1-3.244-2.794.5.5 0 0 1 .693-.721 37 37 0 0 0 3.158 2.72c1.326 1.015 3.032 2.123 4.422 1.717a.5.5 0 1 1 .283.959 3.2 3.2 0 0 1-.904.128M352.41 348.295c-1.896 0-4.413-.521-6.384-2.028a.5.5 0 0 1 .607-.795c2.637 2.016 6.435 2.086 7.644 1.558a.5.5 0 0 1 .4.916c-.486.212-1.294.349-2.267.349M354.344 356.611c-2.526 0-5.566-.985-7.938-2.651a.5.5 0 1 1 .574-.818c2.688 1.888 6.416 2.862 8.863 2.318a.5.5 0 0 1 .217.977 8 8 0 0 1-1.716.174M356.221 365.181c-1.017 0-2.157-.191-3.481-.579-2.005-.587-4.547-1.582-6.428-4.09a.5.5 0 0 1 .801-.599c1.693 2.258 3.936 3.152 5.908 3.73 1.976.578 3.477.688 4.727.345a.5.5 0 1 1 .263.965 6.8 6.8 0 0 1-1.79.228"/><path fill="#0A5840" d="M347.403 335.902a1.731 1.731 0 1 1-3.462 0 1.731 1.731 0 0 1 3.462 0M359.611 321.751a1.731 1.731 0 1 1-3.462 0 1.731 1.731 0 0 1 3.462 0M355.759 314.949a1.731 1.731 0 1 1-3.462 0 1.731 1.731 0 0 1 3.462 0M348.423 353.551a1.731 1.731 0 1 1-3.462 0 1.731 1.731 0 0 1 3.462 0"/><path fill="#263238" d="M371.443 371.258a.5.5 0 0 1-.495-.575c.075-.494 7.679-49.651 22.701-72.651a.501.501 0 0 1 .838.546c-14.903 22.817-22.476 71.763-22.551 72.255a.5.5 0 0 1-.493.425"/><path fill="#263238" d="M394.489 302.964c-1.44 0-2.399-.314-2.847-.505a.5.5 0 1 1 .39-.92c.61.258 2.336.782 5.152.063a.5.5 0 0 1 .248.968c-1.134.29-2.117.394-2.943.394M391.022 310.22a13.2 13.2 0 0 1-2.754-.292.5.5 0 0 1-.385-.594.51.51 0 0 1 .594-.385c2.209.472 4.466.324 6.709-.439a.5.5 0 1 1 .322.948 13.9 13.9 0 0 1-4.486.762M384.931 318.256a.5.5 0 0 1-.004-1c3.9-.03 7.826-.868 11.669-2.491a.5.5 0 1 1 .388.922c-3.964 1.674-8.019 2.538-12.05 2.569zM388.021 335.158c-1.764 0-3.515-.204-5.244-.612-1.046-.246-2.033-.479-3.095-1.214a.499.499 0 1 1 .568-.822c.906.627 1.723.819 2.757 1.063 3.434.81 6.964.778 10.489-.095a.5.5 0 1 1 .24.97c-1.908.474-3.819.71-5.715.71M385.651 344.799a28.8 28.8 0 0 1-5.88-.606c-.899-.187-1.938-.442-2.87-1.125a.5.5 0 1 1 .592-.806c.77.564 1.685.788 2.481.953 4.102.853 8.308.773 12.5-.241a.5.5 0 0 1 .603.369.5.5 0 0 1-.369.604 30 30 0 0 1-7.057.852M382.149 355.283q-.881 0-1.756-.054c-1.688-.102-3.883-.376-5.87-1.584a.501.501 0 0 1 .52-.856c1.8 1.095 3.838 1.346 5.411 1.441a28.8 28.8 0 0 0 8.061-.662c1.387-.311 3.193-.811 4.871-1.918a.499.499 0 1 1 .55.834c-1.814 1.197-3.733 1.729-5.203 2.06a30 30 0 0 1-6.584.739M381.302 366.156a30 30 0 0 1-6.451-.704c-.814-.18-1.673-.405-2.446-1.004a.5.5 0 0 1 .613-.791c.608.472 1.346.663 2.049.818 3.302.73 6.699.874 10.09.426 1.143-.15 2.089-.351 2.995-.838a.5.5 0 0 1 .473.881c-1.101.592-2.254.806-3.337.949q-1.997.263-3.986.263M390.296 304.621a.5.5 0 0 1-.413-.219c-.51-.749-.803-1.808-.803-2.905a.5.5 0 0 1 1 0c0 .901.229 1.756.629 2.343a.499.499 0 0 1-.413.781M385.506 314.457c-.277-.328-.56-.663-.8-1.087-.755-1.331-.956-3.402-.54-5.538a.505.505 0 0 1 .587-.396.5.5 0 0 1 .396.587c-.367 1.881-.203 3.74.428 4.854.194.344.435.629.69.932zM383.211 321.433a.5.5 0 0 1-.2-.042c-2.332-1.02-4.104-3.849-4.623-7.383a.5.5 0 0 1 .423-.567.51.51 0 0 1 .567.423c.462 3.146 2.046 5.742 4.033 6.611a.5.5 0 0 1-.2.958M380.668 329.426a.5.5 0 0 1-.099-.01c-2.39-.475-4.079-3.17-5.284-5.466a56 56 0 0 1-2.461-5.369.5.5 0 1 1 .929-.369 56 56 0 0 0 2.416 5.273c1.102 2.099 2.62 4.558 4.595 4.95a.5.5 0 0 1-.096.991M377.932 338.36a.5.5 0 0 1-.145-.022c-1.701-.516-3.629-1.1-5.225-2.57a.499.499 0 1 1 .678-.734c1.427 1.314 3.16 1.84 4.836 2.348a.5.5 0 0 1-.144.978M375.348 349.479a.5.5 0 0 1-.131-.018c-3.57-.965-7.777-4.626-10.229-8.904a.5.5 0 1 1 .868-.498c2.294 4.002 6.342 7.551 9.624 8.438a.5.5 0 0 1-.132.982M373.278 360.957a.5.5 0 0 1-.106-.012c-1.9-.415-3.832-1.579-6.081-3.663-2.088-1.935-4.607-4.685-5.567-8.818a.5.5 0 1 1 .974-.227c.893 3.846 3.166 6.359 5.273 8.311 2.112 1.958 3.896 3.045 5.614 3.421a.499.499 0 0 1-.107.988"/><path fill="#0A5840" d="M395.348 333.964a1.731 1.731 0 1 1-3.462 0 1.731 1.731 0 0 1 3.462 0M367.152 340.308a1.731 1.731 0 1 1-3.462 0 1.731 1.731 0 0 1 3.462 0M380.614 313.936a1.731 1.731 0 1 1-3.462 0 1.731 1.731 0 0 1 3.462 0M399.041 302.086a1.731 1.731 0 1 1-3.462 0 1.731 1.731 0 0 1 3.462 0M350.05 371.081h36.432c1.719 0 3.001 1.743 2.644 3.594l-7.571 39.195c-.265 1.374-1.368 2.356-2.644 2.356h-21.289c-1.276 0-2.379-.982-2.644-2.356l-7.571-39.195c-.358-1.851.924-3.594 2.643-3.594"/></svg>