<svg xmlns="http://www.w3.org/2000/svg" width="750" height="500" fill="none"><path fill="#EBEBEB" d="M689.807 244.736H662.64v32.993h-6.989v-18.682h-34.549v29.576h-4.574v-69.407h-30.022v19.055h-15.393v23.699h-4.659v-14.905h-27.292v44.487h-7.988v-36.168h-24.962v-27.466h-16.974v-15.643h-19.636v69.381h-6.598v-28.951h-32.343v41.445h-4.475v-33.83h-32.801v-30.476H375v161.635h314.807z"/><path fill="#fff" d="M681.88 255.192h4.596v-6.307h-4.596zM673.913 255.192h4.596v-6.307h-4.596zM665.946 255.192h4.596v-6.307h-4.596zM681.88 264.682h4.596v-6.308h-4.596zM673.913 264.682h4.596v-6.308h-4.596zM665.946 264.682h4.596v-6.308h-4.596zM681.88 274.174h4.596v-6.308h-4.596zM673.913 274.174h4.596v-6.308h-4.596zM665.946 274.174h4.596v-6.308h-4.596zM681.88 283.664h4.596v-6.308h-4.596zM673.913 283.664h4.596v-6.308h-4.596zM665.946 283.664h4.596v-6.308h-4.596zM522.744 265.156h4.596v-5.262h-4.596zM514.778 265.156h4.596v-5.262h-4.596zM506.811 265.156h4.596v-5.262h-4.596zM522.744 273.073h4.596v-5.262h-4.596zM514.778 273.073h4.596v-5.262h-4.596zM506.811 273.073h4.596v-5.262h-4.596zM522.744 280.991h4.596v-5.262h-4.596zM514.778 280.991h4.596v-5.262h-4.596zM506.811 280.991h4.596v-5.262h-4.596zM522.744 288.908h4.596v-5.262h-4.596zM514.778 288.908h4.596v-5.262h-4.596zM506.811 288.908h4.596v-5.262h-4.596zM522.744 297.023h4.596v-5.262h-4.596zM514.778 297.023h4.596v-5.262h-4.596zM506.811 297.023h4.596v-5.262h-4.596zM522.744 305.137h4.596v-5.262h-4.596zM514.778 305.137h4.596v-5.262h-4.596zM506.811 305.137h4.596v-5.262h-4.596zM522.744 313.251h4.596v-5.262h-4.596zM514.778 313.251h4.596v-5.262h-4.596zM506.811 313.251h4.596v-5.262h-4.596zM522.744 321.365h4.596v-5.262h-4.596zM514.778 321.365h4.596v-5.262h-4.596zM506.811 321.365h4.596v-5.262h-4.596zM625.264 267.04h26.461v-3.945h-26.461zM625.264 274.694h26.461v-3.945h-26.461zM625.264 282.349h26.461v-3.945h-26.461zM625.264 290.003h26.461v-3.945h-26.461zM625.264 297.658h26.461v-3.945h-26.461zM625.264 305.312h26.461v-3.945h-26.461zM625.264 312.966h26.461v-3.945h-26.461zM625.264 320.621h26.461v-3.945h-26.461zM434.763 260.328h24.328v-3.945h-24.328zM434.763 267.982h24.328v-3.945h-24.328zM434.763 275.637h24.328v-3.945h-24.328zM434.763 283.292h24.328v-3.945h-24.328zM434.763 290.945h24.328V287h-24.328zM434.763 298.6h24.328v-3.945h-24.328zM434.763 306.255h24.328v-3.945h-24.328zM434.763 313.908h24.328v-3.945h-24.328zM434.763 321.182h24.328v-3.945h-24.328zM434.763 328.455h24.328v-3.945h-24.328zM434.763 335.728h24.328v-3.945h-24.328zM434.763 343.001h24.328v-3.945h-24.328zM434.763 350.274h24.328v-3.945h-24.328zM395.429 269.574h25.698v-3.945h-25.698zM395.429 277.228h25.698v-3.945h-25.698zM395.429 284.882h25.698v-3.945h-25.698zM395.429 292.537h25.698v-3.945h-25.698zM395.429 300.192h25.698v-3.945h-25.698zM395.429 307.845h25.698V303.9h-25.698zM395.429 315.5h25.698v-3.945h-25.698zM395.429 323.155h25.698v-3.945h-25.698zM395.429 330.005h25.698v-3.945h-25.698zM395.429 336.856h25.698v-3.945h-25.698zM395.429 343.707h25.698v-3.945h-25.698zM550.297 254.447h8.171v-3.81h-8.171zM550.297 261.839h8.171v-3.81h-8.171zM550.297 269.23h8.171v-3.81h-8.171zM550.297 276.622h8.171v-3.81h-8.171zM550.297 284.014h8.171v-3.809h-8.171zM550.297 291.407h8.171v-3.81h-8.171zM550.297 298.798h8.171v-3.81h-8.171zM550.297 306.19h8.171v-3.81h-8.171zM539.178 254.447h8.171v-3.81h-8.171zM539.178 261.839h8.171v-3.81h-8.171zM539.178 269.23h8.171v-3.81h-8.171zM539.178 276.622h8.171v-3.81h-8.171zM539.178 284.014h8.171v-3.809h-8.171zM539.178 291.407h8.171v-3.81h-8.171zM539.178 298.798h8.171v-3.81h-8.171zM539.178 306.19h8.171v-3.81h-8.171zM603.463 229.221h8.514v-6.008h-8.514zM590.772 229.221h8.513v-6.008h-8.513zM603.463 238.047h8.514v-6.008h-8.514zM590.772 238.047h8.513v-6.008h-8.513zM603.463 246.872h8.514v-6.008h-8.514zM590.772 246.872h8.513v-6.008h-8.513zM603.463 255.698h8.514v-6.008h-8.514zM590.772 255.698h8.513v-6.008h-8.513zM603.463 264.523h8.514v-6.008h-8.514zM590.772 264.523h8.513v-6.008h-8.513zM603.463 273.349h8.514v-6.008h-8.514zM590.772 273.349h8.513v-6.008h-8.513zM603.463 282.174h8.514v-6.008h-8.514zM590.772 282.174h8.513v-6.008h-8.513zM603.463 291h8.514v-6.008h-8.514zM590.772 291h8.513v-6.008h-8.513zM575.041 246.872h8.513v-6.008h-8.513zM575.041 255.698h8.513v-6.008h-8.513zM575.041 264.523h8.513v-6.008h-8.513zM575.041 273.349h8.513v-6.008h-8.513zM575.041 282.174h8.513v-6.008h-8.513zM575.041 291h8.513v-6.008h-8.513zM603.463 299.721h8.514v-6.008h-8.514zM590.772 299.721h8.513v-6.008h-8.513zM575.041 299.721h8.513v-6.008h-8.513zM603.463 308.441h8.514v-6.008h-8.514zM590.772 308.441h8.513v-6.008h-8.513zM575.041 308.441h8.513v-6.008h-8.513zM603.463 317.161h8.514v-6.008h-8.514zM590.772 317.161h8.513v-6.008h-8.513zM575.041 317.161h8.513v-6.008h-8.513zM603.463 325.881h8.514v-6.008h-8.514zM590.772 325.881h8.513v-6.008h-8.513zM575.041 325.881h8.513v-6.008h-8.513zM603.463 334.602h8.514v-6.008h-8.514zM590.772 334.602h8.513v-6.008h-8.513zM575.041 334.602h8.513v-6.008h-8.513zM498.149 237.051h4.596v-5.262h-4.596zM490.182 237.051h4.596v-5.262h-4.596zM498.149 244.969h4.596v-5.262h-4.596zM490.182 244.969h4.596v-5.262h-4.596zM498.149 252.887h4.596v-5.262h-4.596zM490.182 252.887h4.596v-5.262h-4.596zM498.149 260.804h4.596v-5.262h-4.596zM490.182 260.804h4.596v-5.262h-4.596zM498.149 268.918h4.596v-5.262h-4.596zM490.182 268.918h4.596v-5.262h-4.596zM498.149 277.032h4.596v-5.262h-4.596zM490.182 277.032h4.596v-5.262h-4.596zM498.149 285.146h4.596v-5.262h-4.596zM490.182 285.146h4.596v-5.262h-4.596zM498.149 293.26h4.596v-5.262h-4.596zM490.182 293.26h4.596v-5.262h-4.596zM498.149 301.46h4.596v-5.262h-4.596zM490.182 301.46h4.596v-5.262h-4.596zM498.149 309.66h4.596v-5.262h-4.596zM490.182 309.66h4.596v-5.262h-4.596zM498.149 317.86h4.596v-5.262h-4.596zM490.182 317.86h4.596v-5.262h-4.596zM498.149 326.06h4.596v-5.262h-4.596zM490.182 326.06h4.596v-5.262h-4.596zM385.909 238.844h4.596v-6.2h-4.596zM377.943 238.844h4.596v-6.2h-4.596zM385.909 248.172h4.596v-6.2h-4.596zM377.943 248.172h4.596v-6.2h-4.596zM385.909 257.5h4.596v-6.2h-4.596zM377.943 257.5h4.596v-6.2h-4.596zM385.909 266.828h4.596v-6.2h-4.596zM377.943 266.828h4.596v-6.2h-4.596zM385.909 276.387h4.596v-6.2h-4.596zM377.943 276.387h4.596v-6.2h-4.596zM385.909 285.946h4.596v-6.2h-4.596zM377.943 285.946h4.596v-6.2h-4.596zM385.909 295.505h4.596v-6.2h-4.596zM377.943 295.505h4.596v-6.2h-4.596zM385.909 305.064h4.596v-6.2h-4.596zM377.943 305.064h4.596v-6.2h-4.596zM385.909 314.725h4.596v-6.2h-4.596zM377.943 314.725h4.596v-6.2h-4.596zM385.909 324.385h4.596v-6.199h-4.596zM377.943 324.385h4.596v-6.199h-4.596zM385.909 334.047h4.596v-6.2h-4.596zM377.943 334.047h4.596v-6.2h-4.596zM385.909 343.707h4.596v-6.2h-4.596zM377.943 343.707h4.596v-6.2h-4.596zM481.112 237.051h4.596v-5.262h-4.596zM473.145 237.051h4.596v-5.262h-4.596zM481.112 228.933h4.596v-5.262h-4.596zM473.145 228.933h4.596v-5.262h-4.596zM481.112 220.814h4.596v-5.262h-4.596zM473.145 220.814h4.596v-5.262h-4.596zM481.112 244.969h4.596v-5.262h-4.596zM473.145 244.969h4.596v-5.262h-4.596zM481.112 252.887h4.596v-5.262h-4.596zM473.145 252.887h4.596v-5.262h-4.596zM481.112 260.804h4.596v-5.262h-4.596zM473.145 260.804h4.596v-5.262h-4.596zM481.112 268.918h4.596v-5.262h-4.596zM473.145 268.918h4.596v-5.262h-4.596zM481.112 277.032h4.596v-5.262h-4.596zM473.145 277.032h4.596v-5.262h-4.596zM481.112 285.146h4.596v-5.262h-4.596zM473.145 285.146h4.596v-5.262h-4.596zM481.112 293.26h4.596v-5.262h-4.596zM473.145 293.26h4.596v-5.262h-4.596zM481.112 301.46h4.596v-5.262h-4.596zM473.145 301.46h4.596v-5.262h-4.596zM481.112 309.66h4.596v-5.262h-4.596zM473.145 309.66h4.596v-5.262h-4.596zM481.112 317.86h4.596v-5.262h-4.596zM473.145 317.86h4.596v-5.262h-4.596zM481.112 326.06h4.596v-5.262h-4.596zM473.145 326.06h4.596v-5.262h-4.596z"/><path fill="#EBEBEB" d="M375 244.736h-27.167v32.993h-6.989v-18.682h-34.549v29.576h-4.574v-69.407h-30.022v19.055h-15.393v23.699h-4.659v-14.905h-27.292v44.487h-7.988v-36.168h-24.962v-27.466h-16.974v-15.643h-19.636v69.381h-6.598v-28.951h-32.343v41.445h-4.475v-33.83H78.578v-30.476H60.193v161.635H375z"/><path fill="#fff" d="M367.072 255.192h4.596v-6.307h-4.596zM359.106 255.192h4.596v-6.307h-4.596zM351.139 255.192h4.596v-6.307h-4.596zM367.072 264.682h4.596v-6.308h-4.596zM359.106 264.682h4.596v-6.308h-4.596zM351.139 264.682h4.596v-6.308h-4.596zM367.072 274.174h4.596v-6.308h-4.596zM359.106 274.174h4.596v-6.308h-4.596zM351.139 274.174h4.596v-6.308h-4.596zM367.072 283.664h4.596v-6.308h-4.596zM359.106 283.664h4.596v-6.308h-4.596zM351.139 283.664h4.596v-6.308h-4.596zM207.937 265.156h4.596v-5.262h-4.596zM199.97 265.156h4.596v-5.262h-4.596zM192.004 265.156h4.596v-5.262h-4.596zM207.937 273.073h4.596v-5.262h-4.596zM199.97 273.073h4.596v-5.262h-4.596zM192.004 273.073h4.596v-5.262h-4.596zM207.937 280.991h4.596v-5.262h-4.596zM199.97 280.991h4.596v-5.262h-4.596zM192.004 280.991h4.596v-5.262h-4.596zM207.937 288.908h4.596v-5.262h-4.596zM199.97 288.908h4.596v-5.262h-4.596zM192.004 288.908h4.596v-5.262h-4.596zM207.937 297.023h4.596v-5.262h-4.596zM199.97 297.023h4.596v-5.262h-4.596zM192.004 297.023h4.596v-5.262h-4.596zM207.937 305.137h4.596v-5.262h-4.596zM199.97 305.137h4.596v-5.262h-4.596zM192.004 305.137h4.596v-5.262h-4.596zM207.937 313.251h4.596v-5.262h-4.596zM199.97 313.251h4.596v-5.262h-4.596zM192.004 313.251h4.596v-5.262h-4.596zM207.937 321.365h4.596v-5.262h-4.596zM199.97 321.365h4.596v-5.262h-4.596zM192.004 321.365h4.596v-5.262h-4.596zM310.457 267.04h26.461v-3.945h-26.461zM310.457 274.694h26.461v-3.945h-26.461zM310.457 282.349h26.461v-3.945h-26.461zM310.457 290.003h26.461v-3.945h-26.461zM310.457 297.658h26.461v-3.945h-26.461zM310.457 305.312h26.461v-3.945h-26.461zM310.457 312.966h26.461v-3.945h-26.461zM310.457 320.621h26.461v-3.945h-26.461zM119.956 260.328h24.328v-3.945h-24.328zM119.956 267.982h24.328v-3.945h-24.328zM119.956 275.637h24.328v-3.945h-24.328zM119.956 283.292h24.328v-3.945h-24.328zM119.956 290.945h24.328V287h-24.328zM119.956 298.6h24.328v-3.945h-24.328zM119.956 306.255h24.328v-3.945h-24.328zM119.956 313.908h24.328v-3.945h-24.328zM119.956 321.182h24.328v-3.945h-24.328zM119.956 328.455h24.328v-3.945h-24.328zM119.956 335.728h24.328v-3.945h-24.328zM119.956 343.001h24.328v-3.945h-24.328zM119.956 350.274h24.328v-3.945h-24.328zM80.622 269.574h25.698v-3.945H80.622zM80.622 277.228h25.698v-3.945H80.622zM80.622 284.882h25.698v-3.945H80.622zM80.622 292.537h25.698v-3.945H80.622zM80.622 300.192h25.698v-3.945H80.622zM80.622 307.845h25.698V303.9H80.622zM80.622 315.5h25.698v-3.945H80.622zM80.622 323.155h25.698v-3.945H80.622zM80.622 330.005h25.698v-3.945H80.622zM80.622 336.856h25.698v-3.945H80.622zM80.622 343.707h25.698v-3.945H80.622zM235.49 254.447h8.171v-3.81h-8.171zM235.49 261.839h8.171v-3.81h-8.171zM235.49 269.23h8.171v-3.81h-8.171zM235.49 276.622h8.171v-3.81h-8.171zM235.49 284.014h8.171v-3.809h-8.171zM235.49 291.407h8.171v-3.81h-8.171zM235.49 298.798h8.171v-3.81h-8.171zM235.49 306.19h8.171v-3.81h-8.171zM224.371 254.447h8.171v-3.81h-8.171zM224.371 261.839h8.171v-3.81h-8.171zM224.371 269.23h8.171v-3.81h-8.171zM224.371 276.622h8.171v-3.81h-8.171zM224.371 284.014h8.171v-3.809h-8.171zM224.371 291.407h8.171v-3.81h-8.171zM224.371 298.798h8.171v-3.81h-8.171zM224.371 306.19h8.171v-3.81h-8.171zM288.655 229.221h8.514v-6.008h-8.514zM275.965 229.221h8.513v-6.008h-8.513zM288.655 238.047h8.514v-6.008h-8.514zM275.965 238.047h8.513v-6.008h-8.513zM288.655 246.872h8.514v-6.008h-8.514zM275.965 246.872h8.513v-6.008h-8.513zM288.655 255.698h8.514v-6.008h-8.514zM275.965 255.698h8.513v-6.008h-8.513zM288.655 264.523h8.514v-6.008h-8.514zM275.965 264.523h8.513v-6.008h-8.513zM288.655 273.349h8.514v-6.008h-8.514zM275.965 273.349h8.513v-6.008h-8.513zM288.655 282.174h8.514v-6.008h-8.514zM275.965 282.174h8.513v-6.008h-8.513zM288.655 291h8.514v-6.008h-8.514zM275.965 291h8.513v-6.008h-8.513zM260.233 246.872h8.514v-6.008h-8.514zM260.233 255.698h8.514v-6.008h-8.514zM260.233 264.523h8.514v-6.008h-8.514zM260.233 273.349h8.514v-6.008h-8.514zM260.233 282.174h8.514v-6.008h-8.514zM260.233 291h8.514v-6.008h-8.514zM288.656 299.721h8.514v-6.008h-8.514zM275.965 299.721h8.513v-6.008h-8.513zM260.233 299.721h8.514v-6.008h-8.514zM288.656 308.441h8.514v-6.008h-8.514zM275.965 308.441h8.513v-6.008h-8.513zM260.233 308.441h8.514v-6.008h-8.514zM288.656 317.161h8.514v-6.008h-8.514zM275.965 317.161h8.513v-6.008h-8.513zM260.233 317.161h8.514v-6.008h-8.514zM288.656 325.881h8.514v-6.008h-8.514zM275.965 325.881h8.513v-6.008h-8.513zM260.233 325.881h8.514v-6.008h-8.514zM288.656 334.602h8.514v-6.008h-8.514zM275.965 334.602h8.513v-6.008h-8.513zM260.233 334.602h8.514v-6.008h-8.514zM183.341 237.051h4.597v-5.262h-4.597zM175.375 237.051h4.596v-5.262h-4.596zM183.341 244.969h4.597v-5.262h-4.597zM175.375 244.969h4.596v-5.262h-4.596zM183.341 252.887h4.597v-5.262h-4.597zM175.375 252.887h4.596v-5.262h-4.596zM183.341 260.804h4.597v-5.262h-4.597zM175.375 260.804h4.596v-5.262h-4.596zM183.341 268.918h4.597v-5.262h-4.597zM175.375 268.918h4.596v-5.262h-4.596zM183.341 277.032h4.597v-5.262h-4.597zM175.375 277.032h4.596v-5.262h-4.596zM183.341 285.146h4.597v-5.262h-4.597zM175.375 285.146h4.596v-5.262h-4.596zM183.341 293.26h4.597v-5.262h-4.597zM175.375 293.26h4.596v-5.262h-4.596zM183.341 301.46h4.597v-5.262h-4.597zM175.375 301.46h4.596v-5.262h-4.596zM183.341 309.66h4.597v-5.262h-4.597zM175.375 309.66h4.596v-5.262h-4.596zM183.341 317.86h4.597v-5.262h-4.597zM175.375 317.86h4.596v-5.262h-4.596zM183.341 326.06h4.597v-5.262h-4.597zM175.375 326.06h4.596v-5.262h-4.596zM71.102 238.844h4.596v-6.2h-4.596zM63.136 238.844h4.596v-6.2h-4.596zM71.102 248.172h4.596v-6.2h-4.596zM63.136 248.172h4.596v-6.2h-4.596zM71.102 257.5h4.596v-6.2h-4.596zM63.136 257.5h4.596v-6.2h-4.596zM71.102 266.828h4.596v-6.2h-4.596zM63.136 266.828h4.596v-6.2h-4.596zM71.102 276.387h4.596v-6.2h-4.596zM63.136 276.387h4.596v-6.2h-4.596zM71.102 285.946h4.596v-6.2h-4.596zM63.136 285.946h4.596v-6.2h-4.596zM71.102 295.505h4.596v-6.2h-4.596zM63.136 295.505h4.596v-6.2h-4.596zM71.102 305.064h4.596v-6.2h-4.596zM63.136 305.064h4.596v-6.2h-4.596zM71.102 314.725h4.596v-6.2h-4.596zM63.136 314.725h4.596v-6.2h-4.596zM71.102 324.385h4.596v-6.199h-4.596zM63.136 324.385h4.596v-6.199h-4.596zM71.102 334.047h4.596v-6.2h-4.596zM63.136 334.047h4.596v-6.2h-4.596zM71.102 343.707h4.596v-6.2h-4.596zM63.136 343.707h4.596v-6.2h-4.596zM166.305 237.051h4.596v-5.262h-4.596zM158.338 237.051h4.596v-5.262h-4.596zM166.305 228.933h4.596v-5.262h-4.596zM158.338 228.933h4.596v-5.262h-4.596zM166.305 220.814h4.596v-5.262h-4.596zM158.338 220.814h4.596v-5.262h-4.596zM166.305 244.969h4.596v-5.262h-4.596zM158.338 244.969h4.596v-5.262h-4.596zM166.305 252.887h4.596v-5.262h-4.596zM158.338 252.887h4.596v-5.262h-4.596zM166.305 260.804h4.596v-5.262h-4.596zM158.338 260.804h4.596v-5.262h-4.596zM166.305 268.918h4.596v-5.262h-4.596zM158.338 268.918h4.596v-5.262h-4.596zM166.305 277.032h4.596v-5.262h-4.596zM158.338 277.032h4.596v-5.262h-4.596zM166.305 285.146h4.596v-5.262h-4.596zM158.338 285.146h4.596v-5.262h-4.596zM166.305 293.26h4.596v-5.262h-4.596zM158.338 293.26h4.596v-5.262h-4.596zM166.305 301.46h4.596v-5.262h-4.596zM158.338 301.46h4.596v-5.262h-4.596zM166.305 309.66h4.596v-5.262h-4.596zM158.338 309.66h4.596v-5.262h-4.596zM166.305 317.86h4.596v-5.262h-4.596zM158.338 317.86h4.596v-5.262h-4.596zM166.305 326.06h4.596v-5.262h-4.596zM158.338 326.06h4.596v-5.262h-4.596z"/><path fill="#EBEBEB" d="M686.034 173.852H578.361s10.676-29.16 27.106-29.16 21.577 20.127 21.577 20.127 11.086-10.935 20.191-10.935 17.024 14.451 17.024 14.451 12.867-7.771 21.775 5.517M691.895 116.183h-50.318s11.244-16.29 20.102-16.29 11.476 10.86 11.476 10.86 6.251-5.068 12.043-4.163 6.697 9.593 6.697 9.593M189.22 165.166H91.209s13.422-29.965 27.78-31.838 21.225 22.266 21.225 22.266 9.26-8.532 16.543-8.532 12.902 11.237 12.902 11.237 14.567-7.699 19.561 6.867M124.313 91.038H58.105s11.373-21.71 23.711-22.026 18.823 16.43 18.823 16.43 19.192-15.402 23.674 5.596M375 466.158c160.926 0 291.382-8.907 291.382-19.894S535.926 426.37 375 426.37s-291.382 8.907-291.382 19.894S214.074 466.158 375 466.158"/><path fill="#263238" d="m694.76 391.305-79.94.243-79.94.088-159.88.168-159.88-.167-79.94-.088-79.941-.244 79.941-.245 79.94-.088 159.88-.166 159.88.167 79.94.089zM600.102 67.872H149.898V374h450.204z"/><path fill="#DBDBDB" d="M600.102 328.844H149.898V374h450.204z"/><path fill="#C7C7C7" d="M462.728 429.187H287.272v14.662h175.456z"/><path fill="#263238" d="M382.326 348.387a7.458 7.458 0 1 1-14.916 0 7.459 7.459 0 1 1 14.916 0"/><path fill="#DBDBDB" d="M441.835 429.198H308.164l3.396-25.447.168-1.199.314-2.388.157-1.2.326-2.387.044-.37.112-.83.325-2.388.157-1.199 2.377-17.78h118.918l2.243 16.771.112.807.37 2.78.1.807.146 1.032.235 1.748.102.808.369 2.791.112.796z"/><path fill="#C7C7C7" d="m437.429 396.207-124.266-4.417 2.377-17.78h118.918z"/><path fill="#fff" d="M579.327 87.777H170.673v219.831h408.654z"/><path fill="#fff" d="M579.327 87.777H170.673v219.831h408.654z"/><path fill="#455A64" d="M579.327 87.777H170.673v9.948h408.654z"/><path fill="#C7C7C7" d="M178.58 92.75a2.466 2.466 0 1 1-4.933.002 2.466 2.466 0 0 1 4.933-.001"/><path fill="#fff" d="M188.654 92.75a2.467 2.467 0 1 1-4.934 0 2.467 2.467 0 0 1 4.934 0"/><path fill="#0A5840" d="M198.729 92.75a2.467 2.467 0 1 1-4.934 0 2.467 2.467 0 0 1 4.934 0"/><path fill="#DBDBDB" d="M579.327 97.725h-7.249v209.883h7.249z"/><path fill="#A6A6A6" d="M575.698 183.905a1.87 1.87 0 0 1-1.872-1.872v-80.981a1.872 1.872 0 1 1 3.744 0v80.981a1.87 1.87 0 0 1-1.872 1.872"/><path fill="#0A5840" d="M297.202 146.229H183.72v20.64h113.482zM297.202 174.956H183.72v48.455h113.482z"/><path fill="#fff" d="M198.21 152.387h1.561l.984 2.89.983-2.89h1.574l-1.487 3.972 1.107 2.79 2.471-6.787h1.844l-3.553 8.729h-1.426l-1.512-3.664-1.512 3.664h-1.426l-3.529-8.729h1.82l2.483 6.787 1.082-2.79zM214.206 159.604v1.488h-6.062v-8.729h5.951v1.488h-4.254v2.103h3.676v1.377h-3.676v2.274zM220.586 152.362h1.5l3.32 8.729h-1.746l-.812-2.176h-3.049l-.799 2.176h-1.746zm1.955 5.361-1.205-3.431-1.254 3.431zM226.365 161.092v-8.729h3.861q.601 0 1.113.252.51.252.879.664.37.411.578.935.209.523.209 1.051 0 .849-.424 1.543a2.44 2.44 0 0 1-1.149 1.002l1.992 3.283h-1.906l-1.783-2.926h-1.672v2.926zm1.697-4.414h2.127a.9.9 0 0 0 .436-.11q.203-.11.351-.301.147-.19.233-.449.086-.258.086-.554 0-.307-.099-.566a1.5 1.5 0 0 0-.264-.449 1.2 1.2 0 0 0-.381-.295 1 1 0 0 0-.437-.105h-2.053zM240.603 159.604v1.488h-6.062v-8.729h5.951v1.488h-4.254v2.103h3.676v1.377h-3.676v2.274zM252.221 152.362v8.729h-1.685v-3.726h-3.959v3.726h-1.697v-8.729h1.697v3.529h3.959v-3.529zM254.041 161.092v-8.729h1.697v8.729zM257.558 161.092v-8.729h3.861q.601 0 1.113.252.51.252.879.664.368.411.578.935.209.523.209 1.051 0 .849-.424 1.543a2.44 2.44 0 0 1-1.149 1.002l1.992 3.283h-1.906l-1.783-2.926h-1.672v2.926zm1.696-4.414h2.127a.9.9 0 0 0 .437-.11q.202-.11.351-.301.147-.19.233-.449.086-.258.086-.554 0-.307-.099-.566a1.5 1.5 0 0 0-.264-.449 1.2 1.2 0 0 0-.381-.295 1 1 0 0 0-.436-.105h-2.053zM265.733 161.092v-8.729h1.697v8.729zM270.947 155.498v5.594h-1.697v-8.729h1.316l4.549 5.729v-5.717h1.697v8.717h-1.377zM284.693 160.108q-1.045 1.045-2.434 1.045a3.9 3.9 0 0 1-1.617-.344 4.1 4.1 0 0 1-1.315-.947 4.5 4.5 0 0 1-.885-1.42 4.7 4.7 0 0 1-.326-1.765q0-.898.326-1.69.326-.793.897-1.39.572-.597 1.346-.946a4 4 0 0 1 1.684-.351q1.23 0 2.109.517a3.35 3.35 0 0 1 1.322 1.389l-1.267.935a2.35 2.35 0 0 0-.928-.996 2.55 2.55 0 0 0-1.297-.344q-.553 0-1.014.233-.462.234-.787.64a3 3 0 0 0-.504.935 3.5 3.5 0 0 0-.178 1.119q0 .615.197 1.149.196.535.541.928.344.394.817.621.473.228 1.027.228 1.266 0 2.287-1.193v-.615h-1.758v-1.242h3.16v4.488h-1.402v-.984zM190.062 182.68c8.4-.206 16.8-.303 25.199-.383l25.2-.117 25.199.115 12.6.139 12.6.245-12.6.245-12.6.139-25.199.115-25.2-.117c-8.399-.078-16.799-.175-25.199-.381M190.062 188.217c8.4-.206 16.8-.303 25.199-.383l25.2-.117 25.199.115 12.6.14 12.6.245-12.6.245-12.6.14-25.199.115-25.2-.117c-8.399-.081-16.799-.177-25.199-.383M190.062 193.753c8.4-.206 16.8-.303 25.199-.383l25.2-.117 25.199.115 12.6.139 12.6.245-12.6.245-12.6.139-25.199.115-25.2-.117c-8.399-.078-16.799-.175-25.199-.381M190.062 199.29c8.4-.206 16.8-.303 25.199-.383l25.2-.117 25.199.115 12.6.139 12.6.245-12.6.245-12.6.139-25.199.115-25.2-.117c-8.399-.078-16.799-.175-25.199-.381M190.062 204.827c8.4-.206 16.8-.303 25.199-.383l25.2-.117 25.199.115 12.6.14 12.6.245-12.6.245-12.6.14-25.199.115-25.2-.117c-8.399-.081-16.799-.177-25.199-.383M190.062 210.363c8.4-.206 16.8-.303 25.199-.383l25.2-.117 25.199.115 12.6.139 12.6.245-12.6.245-12.6.139-25.199.115-25.2-.117c-8.399-.078-16.799-.175-25.199-.381M190.062 215.9c3.64-.206 7.28-.303 10.92-.383 3.64-.091 7.28-.104 10.92-.117 3.64.011 7.28.025 10.92.115l5.46.139c1.82.083 3.64.132 5.46.245-1.82.113-3.64.162-5.46.245l-5.46.139c-3.64.091-7.28.104-10.92.115-3.64-.013-7.28-.025-10.92-.117-3.64-.078-7.28-.175-10.92-.381"/><path fill="#C7C7C7" d="M297.202 234.721H183.72v20.64h113.482zM297.202 263.448H183.72v32.155h113.482z"/><path fill="#fff" d="M205.095 240.854v8.729h-1.685v-3.726h-3.959v3.726h-1.697v-8.729h1.697v3.529h3.959v-3.529zM212.976 248.095v1.488h-6.061v-8.729h5.951v1.488h-4.254v2.103h3.676v1.377h-3.676v2.274zM214.304 249.583v-8.729h1.697v7.242h4.451v1.488h-6.148zM221.484 249.583v-8.729h3.701q.601 0 1.113.252.51.252.879.664.368.411.578.935.21.523.209 1.051a3.05 3.05 0 0 1-.75 2.004 2.7 2.7 0 0 1-.86.651 2.5 2.5 0 0 1-1.106.246h-2.066v2.926zm1.697-4.414h1.967a.97.97 0 0 0 .781-.381q.313-.381.313-1.033 0-.332-.098-.596a1.5 1.5 0 0 0-.258-.449 1 1 0 0 0-.375-.276 1.1 1.1 0 0 0-.437-.092h-1.893zM234.358 240.878h1.561l.984 2.89.983-2.89h1.574l-1.487 3.972 1.106 2.791 2.471-6.787h1.844l-3.553 8.729h-1.426l-1.512-3.664-1.512 3.664h-1.426l-3.529-8.729h1.82l2.483 6.787 1.082-2.791zM246.026 240.854h1.5l3.32 8.729H249.1l-.811-2.176h-3.049l-.799 2.176h-1.746zm1.955 5.36-1.205-3.431-1.254 3.431zM253.501 243.989v5.594h-1.697v-8.729h1.316l4.549 5.729v-5.717h1.697v8.717h-1.377zM267.714 242.341h-2.791v7.242h-1.685v-7.242h-2.79v-1.488h7.266zM274.857 248.095v1.488h-6.061v-8.729h5.951v1.488h-4.254v2.103h3.676v1.377h-3.676v2.274zM276.185 249.583v-8.729h3.172q1.07 0 1.875.344t1.346.934.812 1.383q.27.794.27 1.691 0 .995-.301 1.801t-.867 1.377-1.358.885q-.793.313-1.777.313zm5.767-4.377q0-.627-.172-1.156a2.6 2.6 0 0 0-.504-.91 2.24 2.24 0 0 0-.817-.59 2.8 2.8 0 0 0-1.101-.209h-1.476v5.754h1.476q.627 0 1.113-.221t.812-.609q.326-.387.498-.916a3.7 3.7 0 0 0 .171-1.143M190.062 271.171c8.4-.206 16.8-.303 25.199-.383l25.2-.116 25.199.115 12.6.139 12.6.245-12.6.245-12.6.139-25.199.115-25.2-.117c-8.399-.079-16.799-.176-25.199-.382M190.062 276.708c8.4-.206 16.8-.303 25.199-.383l25.2-.117 25.199.115 12.6.139 12.6.245-12.6.245-12.6.139-25.199.115-25.2-.117c-8.399-.078-16.799-.175-25.199-.381M190.062 282.245c8.4-.206 16.8-.303 25.199-.383l25.2-.117 25.199.115 12.6.139 12.6.245-12.6.245-12.6.139-25.199.115-25.2-.117c-8.399-.079-16.799-.175-25.199-.381M190.062 287.781c3.64-.206 7.28-.303 10.92-.383 3.64-.091 7.28-.104 10.92-.117 3.64.011 7.28.025 10.92.115l5.46.139c1.82.083 3.64.132 5.46.245-1.82.113-3.64.162-5.46.245l-5.46.139c-3.64.091-7.28.104-10.92.115-3.64-.013-7.28-.026-10.92-.117-3.64-.078-7.28-.175-10.92-.381"/><path fill="#0A5840" d="M427.49 218.421H314.008v20.64H427.49zM427.49 247.148H314.008v48.455H427.49z"/><path fill="#fff" d="M324.029 231.501q.172.123.578.27t.935.148q.516 0 .824-.178t.467-.547.209-.916.049-1.285v-4.439h1.697v4.439q0 .996-.104 1.813t-.443 1.396a2.3 2.3 0 0 1-.978.897q-.64.32-1.721.32-1.107 0-1.893-.541zM334.234 233.345a4 4 0 0 1-1.74-.375 4.3 4.3 0 0 1-1.34-.996 4.5 4.5 0 0 1-.867-1.42 4.5 4.5 0 0 1-.307-1.635q0-.873.326-1.672a4.6 4.6 0 0 1 .897-1.414q.572-.615 1.358-.978a4 4 0 0 1 1.71-.363q.946 0 1.727.387a4.3 4.3 0 0 1 1.335 1.015q.553.627.86 1.426.308.8.308 1.623 0 .873-.32 1.666a4.5 4.5 0 0 1-.885 1.402q-.566.61-1.352.971a4 4 0 0 1-1.71.363m-2.533-4.426q0 .566.172 1.094t.498.935q.326.406.799.651.473.246 1.076.246.615 0 1.088-.252a2.5 2.5 0 0 0 .799-.67q.325-.418.492-.94.166-.523.166-1.063 0-.566-.179-1.094a3 3 0 0 0-.504-.935 2.4 2.4 0 0 0-.799-.646 2.3 2.3 0 0 0-1.064-.24q-.615 0-1.094.252a2.4 2.4 0 0 0-.799.664 3 3 0 0 0-.485.935 3.5 3.5 0 0 0-.166 1.063M339.803 233.283v-8.73h1.697v8.73zM345.016 227.689v5.594h-1.697v-8.73h1.316l4.549 5.73v-5.717h1.697v8.717h-1.377zM359.377 233.345a4 4 0 0 1-1.74-.375 4.3 4.3 0 0 1-1.34-.996 4.5 4.5 0 0 1-.867-1.42 4.5 4.5 0 0 1-.307-1.635q0-.873.326-1.672a4.6 4.6 0 0 1 .897-1.414q.572-.615 1.358-.978a4 4 0 0 1 1.71-.363q.947 0 1.727.387a4.3 4.3 0 0 1 1.335 1.015q.553.627.86 1.426.308.8.308 1.623 0 .873-.32 1.666a4.5 4.5 0 0 1-.885 1.402q-.565.61-1.353.971a4 4 0 0 1-1.709.363m-2.533-4.426q0 .566.172 1.094t.498.935q.326.406.799.651.473.246 1.076.246.615 0 1.088-.252t.799-.67q.325-.418.492-.94.166-.523.166-1.063 0-.566-.179-1.094a3 3 0 0 0-.504-.935 2.4 2.4 0 0 0-.799-.646q-.473-.24-1.063-.24-.615 0-1.094.252a2.4 2.4 0 0 0-.799.664 3 3 0 0 0-.485.935 3.5 3.5 0 0 0-.167 1.063M368.635 231.845q.601 0 1.014-.246.411-.245.664-.639.252-.393.356-.904.104-.51.104-1.051v-4.451h1.685v4.451q0 .898-.215 1.685a3.9 3.9 0 0 1-.676 1.377 3.24 3.24 0 0 1-1.186.935q-.726.344-1.733.344-1.045 0-1.777-.363a3.3 3.3 0 0 1-1.187-.959 3.8 3.8 0 0 1-.658-1.383 6.5 6.5 0 0 1-.203-1.635v-4.451h1.696v4.451q0 .554.104 1.064.105.51.357.904t.658.633q.408.237.997.238M374.168 233.283v-8.73h3.861q.6 0 1.111.252.512.253.881.664.368.411.576.935.21.523.209 1.051a2.9 2.9 0 0 1-.424 1.543 2.44 2.44 0 0 1-1.148 1.002l1.99 3.283h-1.904l-1.783-2.926h-1.672v2.926zm1.697-4.414h2.128a.9.9 0 0 0 .436-.11q.204-.11.352-.301.148-.19.232-.449.087-.258.086-.554a1.54 1.54 0 0 0-.362-1.014 1.2 1.2 0 0 0-.381-.295 1 1 0 0 0-.438-.104h-2.053zM391.479 226.042h-2.791v7.242h-1.685v-7.242h-2.791v-1.488h7.267zM398.623 231.795v1.488h-6.061v-8.73h5.95v1.488h-4.254v2.102h3.677v1.377h-3.677v2.274zM402.435 224.554h1.5l3.319 8.73h-1.746l-.81-2.176h-3.05l-.799 2.176h-1.746zm1.955 5.361-1.205-3.431-1.254 3.431zM415.331 233.283v-5.779l-2.25 4.303h-.922l-2.25-4.303v5.779h-1.696v-8.73h1.819l2.582 4.967 2.606-4.967h1.808v8.73zM320.35 254.871c8.4-.206 16.8-.303 25.2-.383l25.199-.117 25.199.115 12.6.139 12.6.245-12.6.245-12.6.139-25.199.115-25.199-.117c-8.4-.078-16.8-.175-25.2-.381M320.35 260.408c8.4-.206 16.8-.303 25.2-.383l25.199-.117 25.199.115 12.6.139 12.6.245-12.6.245-12.6.139-25.199.115-25.199-.117c-8.4-.078-16.8-.175-25.2-.381M320.35 265.944c8.4-.206 16.8-.303 25.2-.383l25.199-.117 25.199.115 12.6.139 12.6.245-12.6.245-12.6.139-25.199.115-25.199-.117c-8.4-.078-16.8-.174-25.2-.381M320.35 271.481c8.4-.206 16.8-.303 25.2-.383l25.199-.117 25.199.115 12.6.14 12.6.245-12.6.245-12.6.14-25.199.115-25.199-.117c-8.4-.08-16.8-.177-25.2-.383M320.35 277.018c8.4-.206 16.8-.303 25.2-.383l25.199-.116 25.199.115 12.6.139 12.6.245-12.6.245-12.6.139-25.199.115-25.199-.117c-8.4-.079-16.8-.176-25.2-.382M320.35 282.555c8.4-.206 16.8-.303 25.2-.383l25.199-.116 25.199.115 12.6.139 12.6.245-12.6.245-12.6.139-25.199.115-25.199-.117c-8.4-.08-16.8-.176-25.2-.382M320.35 288.091c3.64-.206 7.28-.303 10.92-.383 3.64-.091 7.28-.104 10.92-.117 3.64.011 7.28.025 10.92.115l5.46.139c1.82.083 3.64.132 5.46.245-1.82.113-3.64.162-5.46.245l-5.46.139c-3.64.091-7.28.104-10.92.115-3.64-.013-7.28-.025-10.92-.117-3.64-.078-7.28-.175-10.92-.381"/><path fill="#455A64" d="M427.49 146.229H314.008v20.64H427.49zM427.49 174.956H314.008v32.155H427.49z"/><path fill="#fff" d="M338.74 152.362h1.5l3.32 8.729h-1.746l-.812-2.176h-3.049l-.799 2.176h-1.746zm1.955 5.361-1.205-3.431-1.254 3.431zM344.519 161.092v-8.729h3.701q.601 0 1.113.252.51.252.879.664.37.411.578.935.21.523.209 1.051 0 .553-.196 1.076a3 3 0 0 1-.554.928 2.7 2.7 0 0 1-.86.651 2.5 2.5 0 0 1-1.106.246h-2.066v2.926zm1.696-4.414h1.967a.97.97 0 0 0 .781-.381q.314-.381.314-1.033 0-.332-.098-.596a1.5 1.5 0 0 0-.258-.449 1 1 0 0 0-.375-.276 1.1 1.1 0 0 0-.436-.092h-1.894v2.827zM352.178 161.092v-8.729h3.701q.601 0 1.113.252.51.252.879.664.37.411.578.935.21.523.209 1.051 0 .553-.196 1.076a3 3 0 0 1-.554.928 2.7 2.7 0 0 1-.86.651 2.5 2.5 0 0 1-1.107.246h-2.066v2.926zm1.697-4.414h1.967a.97.97 0 0 0 .781-.381q.314-.381.314-1.033 0-.332-.098-.596a1.5 1.5 0 0 0-.258-.449 1 1 0 0 0-.375-.276 1.1 1.1 0 0 0-.436-.092h-1.894zM359.838 161.092v-8.729h1.697v7.242h4.451v1.488zM366.515 152.362l2.151 4.205 2.189-4.205h1.831l-3.172 5.68v3.049h-1.685v-3.074l-3.16-5.656h1.846zM377.875 155.498v5.594h-1.697v-8.729h1.316l4.549 5.729v-5.717h1.697v8.717h-1.377zM389.285 161.153q-.96 0-1.74-.375a4.3 4.3 0 0 1-1.34-.996 4.5 4.5 0 0 1-.867-1.42 4.5 4.5 0 0 1-.308-1.635q0-.873.326-1.672a4.6 4.6 0 0 1 .897-1.414q.572-.615 1.358-.977a4 4 0 0 1 1.709-.363q.947 0 1.728.387t1.334 1.015q.554.627.861 1.426.307.8.307 1.623 0 .873-.319 1.666a4.5 4.5 0 0 1-.886 1.402 4.25 4.25 0 0 1-1.352.971 4 4 0 0 1-1.708.362m-2.533-4.426q0 .566.172 1.094.173.528.498.935.325.406.799.651a2.3 2.3 0 0 0 1.076.246q.615 0 1.088-.252t.8-.67q.326-.417.491-.941a3.48 3.48 0 0 0-.012-2.157 3 3 0 0 0-.504-.935 2.4 2.4 0 0 0-.8-.645q-.473-.24-1.064-.24-.615 0-1.094.252-.48.253-.8.664a3 3 0 0 0-.485.935 3.5 3.5 0 0 0-.165 1.063M397.547 152.387h1.562l.983 2.89.984-2.89h1.572l-1.487 3.972 1.108 2.79 2.472-6.787h1.844l-3.553 8.729h-1.427l-1.513-3.664-1.513 3.664h-1.426l-3.528-8.729h1.819l2.484 6.787 1.082-2.79zM320.35 182.68c8.4-.206 16.8-.303 25.2-.383l25.199-.117 25.199.115 12.6.139 12.6.245-12.6.245-12.6.139-25.199.115-25.199-.117c-8.4-.078-16.8-.175-25.2-.381M320.35 188.217c8.4-.206 16.8-.303 25.2-.383l25.199-.117 25.199.115 12.6.14 12.6.245-12.6.245-12.6.14-25.199.115-25.199-.117c-8.4-.081-16.8-.177-25.2-.383M320.35 193.753c8.4-.206 16.8-.303 25.2-.383l25.199-.117 25.199.115 12.6.139 12.6.245-12.6.245-12.6.139-25.199.115-25.199-.117c-8.4-.078-16.8-.175-25.2-.381M320.35 199.29c3.64-.206 7.28-.303 10.92-.383 3.64-.091 7.28-.104 10.92-.117 3.64.011 7.28.025 10.92.115l5.46.139c1.82.083 3.64.132 5.46.245-1.82.113-3.64.162-5.46.245l-5.46.139c-3.64.091-7.28.104-10.92.115-3.64-.013-7.28-.025-10.92-.117-3.64-.078-7.28-.175-10.92-.381"/><path fill="#0A5840" d="M557.779 146.229H444.297v20.64h113.482zM557.779 174.956H444.297v48.455h113.482z"/><path fill="#fff" d="M465.671 152.362v8.729h-1.685v-3.726h-3.959v3.726h-1.696v-8.729h1.696v3.529h3.959v-3.529zM473.553 159.604v1.488h-6.061v-8.729h5.95v1.488h-4.254v2.103h3.677v1.377h-3.677v2.274zM474.88 161.092v-8.729h1.696v7.242h4.451v1.488zM482.06 161.092v-8.729h3.7q.601 0 1.113.252.51.252.879.664.368.411.578.935.209.523.209 1.051 0 .553-.197 1.076a3 3 0 0 1-.553.928 2.7 2.7 0 0 1-.861.651 2.5 2.5 0 0 1-1.106.246h-2.066v2.926zm1.697-4.414h1.968a.97.97 0 0 0 .78-.381q.314-.381.314-1.033 0-.332-.099-.596a1.4 1.4 0 0 0-.258-.449 1 1 0 0 0-.375-.276 1.1 1.1 0 0 0-.436-.092h-1.894zM494.933 152.387h1.561l.983 2.89.984-2.89h1.573l-1.487 3.972 1.106 2.79 2.472-6.787h1.844l-3.553 8.729h-1.427l-1.513-3.664-1.512 3.664h-1.427l-3.528-8.729h1.819l2.484 6.787 1.082-2.79zM506.602 152.362h1.5l3.319 8.729h-1.746l-.81-2.176h-3.05l-.799 2.176h-1.746zm1.955 5.361-1.205-3.431-1.254 3.431zM514.076 155.498v5.594h-1.696v-8.729h1.315l4.549 5.729v-5.717h1.697v8.717h-1.377zM528.29 153.85h-2.791v7.242h-1.685v-7.242h-2.791v-1.488h7.267zM535.434 159.604v1.488h-6.062v-8.729h5.95v1.488h-4.254v2.103h3.677v1.377h-3.677v2.274zM536.762 161.092v-8.729h3.172q1.07 0 1.875.344t1.347.935q.54.59.812 1.383.27.794.271 1.691 0 .996-.302 1.801t-.867 1.377a3.9 3.9 0 0 1-1.358.885q-.793.313-1.776.313zm5.766-4.377q0-.627-.173-1.156a2.6 2.6 0 0 0-.504-.91 2.25 2.25 0 0 0-.817-.59 2.8 2.8 0 0 0-1.101-.209h-1.476v5.754h1.476a2.7 2.7 0 0 0 1.112-.221 2.26 2.26 0 0 0 .811-.609q.327-.387.498-.915.175-.53.174-1.144M450.639 182.68c8.4-.206 16.8-.303 25.199-.383l25.199-.117 25.199.115 12.6.139 12.6.245-12.6.245-12.6.139-25.199.115-25.199-.117c-8.4-.078-16.8-.175-25.199-.381M450.639 188.217c8.4-.206 16.8-.303 25.199-.383l25.199-.117 25.199.115 12.6.14 12.6.245-12.6.245-12.6.14-25.199.115-25.199-.117c-8.4-.081-16.8-.177-25.199-.383M450.639 193.753c8.4-.206 16.8-.303 25.199-.383l25.199-.117 25.199.115 12.6.139 12.6.245-12.6.245-12.6.139-25.199.115-25.199-.117c-8.4-.078-16.8-.175-25.199-.381M450.639 199.29c8.4-.206 16.8-.303 25.199-.383l25.199-.117 25.199.115 12.6.139 12.6.245-12.6.245-12.6.139-25.199.115-25.199-.117c-8.4-.078-16.8-.175-25.199-.381M450.639 204.827c8.4-.206 16.8-.303 25.199-.383l25.199-.117 25.199.115 12.6.14 12.6.245-12.6.245-12.6.14-25.199.115-25.199-.117c-8.4-.081-16.8-.177-25.199-.383M450.639 210.363c8.4-.206 16.8-.303 25.199-.383l25.199-.117 25.199.115 12.6.139 12.6.245-12.6.245-12.6.139-25.199.115-25.199-.117c-8.4-.078-16.8-.175-25.199-.381M450.639 215.9c3.64-.206 7.28-.303 10.92-.383 3.64-.091 7.28-.104 10.92-.117 3.64.011 7.28.025 10.92.115l5.46.139c1.82.083 3.64.132 5.46.245-1.82.113-3.64.162-5.46.245l-5.46.139c-3.64.091-7.28.104-10.92.115-3.64-.013-7.28-.025-10.92-.117-3.64-.078-7.28-.175-10.92-.381"/><path fill="#C7C7C7" d="M557.779 234.721H444.297v20.64h113.482zM557.779 263.448H444.297v32.155h113.482z"/><path fill="#fff" d="M465.395 243.989v5.594h-1.696v-8.729h1.315l4.549 5.729v-5.717h1.697v8.717h-1.377zM476.806 249.645q-.96 0-1.74-.375a4.3 4.3 0 0 1-1.34-.996 4.5 4.5 0 0 1-.867-1.42 4.5 4.5 0 0 1-.308-1.635q0-.873.326-1.672a4.6 4.6 0 0 1 .897-1.414q.572-.615 1.358-.977a4 4 0 0 1 1.709-.363 3.8 3.8 0 0 1 1.727.387q.782.387 1.334 1.015.554.627.861 1.426.307.8.307 1.623 0 .873-.319 1.666a4.5 4.5 0 0 1-.886 1.402 4.25 4.25 0 0 1-1.352.971 4.05 4.05 0 0 1-1.707.362m-2.534-4.427q0 .566.172 1.094.173.528.498.935.325.406.799.651a2.3 2.3 0 0 0 1.076.246q.615 0 1.088-.252t.8-.67q.326-.417.491-.941a3.48 3.48 0 0 0-.012-2.157 3 3 0 0 0-.504-.934 2.4 2.4 0 0 0-.8-.646q-.473-.24-1.064-.24-.615 0-1.094.252t-.8.664a3 3 0 0 0-.485.935 3.5 3.5 0 0 0-.165 1.063M485.067 240.878h1.561l.983 2.89.984-2.89h1.573l-1.487 3.972 1.107 2.791 2.472-6.787h1.844l-3.553 8.729h-1.427l-1.513-3.664-1.512 3.664h-1.427l-3.528-8.729h1.819l2.484 6.787 1.082-2.791zM504.875 240.854v8.729h-1.685v-3.726h-3.959v3.726h-1.696v-8.729h1.696v3.529h3.959v-3.529zM506.695 249.583v-8.729h1.696v8.729zM510.212 249.583v-8.729h3.86q.602 0 1.112.252t.88.664q.368.411.577.935.21.523.209 1.051a2.9 2.9 0 0 1-.424 1.543 2.44 2.44 0 0 1-1.149 1.002l1.991 3.283h-1.905l-1.783-2.926h-1.672v2.926h-1.696zm1.696-4.414h2.127a.9.9 0 0 0 .436-.11 1.1 1.1 0 0 0 .351-.301 1.5 1.5 0 0 0 .233-.449q.087-.258.086-.554 0-.307-.098-.565a1.5 1.5 0 0 0-.265-.449 1.2 1.2 0 0 0-.381-.295 1 1 0 0 0-.436-.105h-2.054zM518.388 249.583v-8.729h1.696v8.729zM523.601 243.989v5.594h-1.696v-8.729h1.315l4.549 5.729v-5.717h1.697v8.717h-1.377zM537.347 248.6q-1.046 1.045-2.435 1.045a3.9 3.9 0 0 1-1.617-.344 4.1 4.1 0 0 1-1.315-.947 4.5 4.5 0 0 1-.885-1.42 4.7 4.7 0 0 1-.326-1.765q0-.898.326-1.69.325-.793.898-1.39a4.3 4.3 0 0 1 1.346-.946 4 4 0 0 1 1.685-.351q1.229 0 2.108.517a3.34 3.34 0 0 1 1.322 1.389l-1.267.934a2.35 2.35 0 0 0-.929-.996 2.54 2.54 0 0 0-1.297-.344q-.553 0-1.015.233a2.4 2.4 0 0 0-.786.64 3 3 0 0 0-.505.935 3.5 3.5 0 0 0-.178 1.119q0 .615.196 1.149.198.535.541.928.344.394.818.621.472.227 1.026.227 1.266 0 2.287-1.193v-.615h-1.759v-1.242h3.16v4.488h-1.401v-.982zM450.639 271.171c8.4-.206 16.8-.303 25.199-.383l25.199-.116 25.199.115 12.6.139 12.6.245-12.6.245-12.6.139-25.199.115-25.199-.117c-8.4-.079-16.8-.176-25.199-.382M450.639 276.708c8.4-.206 16.8-.303 25.199-.383l25.199-.117 25.199.115 12.6.139 12.6.245-12.6.245-12.6.139-25.199.115-25.199-.117c-8.4-.078-16.8-.175-25.199-.381M450.639 282.245c8.4-.206 16.8-.303 25.199-.383l25.199-.117 25.199.115 12.6.139 12.6.245-12.6.245-12.6.139-25.199.115-25.199-.117c-8.4-.079-16.8-.175-25.199-.381M450.639 287.781c3.64-.206 7.28-.303 10.92-.383 3.64-.091 7.28-.104 10.92-.117 3.64.011 7.28.025 10.92.115l5.46.139c1.82.083 3.64.132 5.46.245-1.82.113-3.64.162-5.46.245l-5.46.139c-3.64.091-7.28.104-10.92.115-3.64-.013-7.28-.026-10.92-.117-3.64-.078-7.28-.175-10.92-.381M556.849 111.839H183.72v26.377h373.129z"/><path fill="#C7C7C7" d="M557.35 138.716H183.22v-27.377h374.13zm-373.13-1h372.13v-25.377H184.22z"/><path fill="#0A5840" d="M557.221 111.839h-26.377v26.377h26.377z"/><path fill="#fff" d="m553.401 133.312-2.73 2.068-5.057-6.677-1.85-2.442a4.44 4.44 0 0 0 2.463-2.417l1.965 2.59z"/><path fill="#fff" d="M548.028 117.591a7.453 7.453 0 0 0-10.447-1.377 7.453 7.453 0 0 0-1.377 10.447 7.448 7.448 0 0 0 11.989-.226 7.46 7.46 0 0 0-.165-8.844m-3.203 8.07a4.3 4.3 0 0 1-1.061.6 4.45 4.45 0 0 1-5.184-1.423 4.46 4.46 0 0 1 .822-6.249 4.46 4.46 0 0 1 6.249.826 4.46 4.46 0 0 1 .576 4.428 4.44 4.44 0 0 1-1.402 1.818"/><path fill="#C7C7C7" d="M196.27 130.829q-1.359 0-2.19-.703l.863-1.791q.16.16.623.352t1.119.192q.624 0 1.039-.232.416-.231.703-.711.288-.478.495-1.191.207-.711.416-1.67l1.231-5.754h2.205l-1.23 5.754a22 22 0 0 1-.624 2.357q-.351 1.063-.935 1.814t-1.478 1.167-2.237.416M207.202 130.734q-1.007 0-1.79-.392a4 4 0 0 1-1.319-1.047 4.5 4.5 0 0 1-.807-1.502 5.8 5.8 0 0 1-.272-1.774q0-1.294.551-2.518a7.5 7.5 0 0 1 1.479-2.173 7.4 7.4 0 0 1 2.134-1.526 5.8 5.8 0 0 1 2.517-.575q1.006 0 1.783.399a3.9 3.9 0 0 1 1.294 1.055q.52.655.791 1.518.272.863.272 1.774 0 1.28-.543 2.501a7.4 7.4 0 0 1-1.463 2.166 7.4 7.4 0 0 1-2.118 1.519 5.7 5.7 0 0 1-2.509.575m.432-1.951q.879 0 1.607-.432a4.5 4.5 0 0 0 1.255-1.103q.527-.672.815-1.494a4.9 4.9 0 0 0 .288-1.622q0-.591-.144-1.127a2.8 2.8 0 0 0-.44-.935 2.2 2.2 0 0 0-.743-.64 2.16 2.16 0 0 0-1.039-.239q-.88 0-1.614.423a4.4 4.4 0 0 0-1.263 1.095 5.1 5.1 0 0 0-.815 1.494 5 5 0 0 0-.288 1.638q0 .591.144 1.119t.448.935q.303.408.743.647.438.242 1.046.241M216.648 119.305h5.818q.48 0 .839.2.36.2.6.52t.359.735q.12.417.12.863 0 .495-.152.975a3.674 3.674 0 0 1-1.135 1.686 3.5 3.5 0 0 1-.903.552q.72.24 1.103.823.383.584.383 1.43 0 .863-.351 1.526a3.4 3.4 0 0 1-.943 1.119 4.2 4.2 0 0 1-1.358.688 5.5 5.5 0 0 1-1.583.232h-5.211zm3.197 9.478q.303 0 .607-.144a1.8 1.8 0 0 0 .535-.391q.232-.248.376-.575t.144-.695q0-.495-.247-.84a.79.79 0 0 0-.679-.343h-3.133l-.623 2.989zm.687-4.731q.288 0 .567-.128.279-.127.504-.36.224-.231.359-.559.136-.327.136-.727 0-.495-.24-.791a.78.78 0 0 0-.639-.296h-2.781l-.607 2.861zM233.11 130.734q-1.007 0-1.79-.392a4 4 0 0 1-1.319-1.047 4.5 4.5 0 0 1-.807-1.502 5.8 5.8 0 0 1-.272-1.774q0-1.294.551-2.518a7.5 7.5 0 0 1 1.479-2.173 7.4 7.4 0 0 1 2.134-1.526 5.8 5.8 0 0 1 2.517-.575q1.007 0 1.782.399a3.9 3.9 0 0 1 1.294 1.055q.52.655.791 1.518.272.863.272 1.774 0 1.28-.544 2.501a7.4 7.4 0 0 1-1.462 2.166 7.4 7.4 0 0 1-2.118 1.519 5.7 5.7 0 0 1-2.508.575m.432-1.951q.879 0 1.607-.432a4.5 4.5 0 0 0 1.255-1.103q.527-.672.815-1.494a4.9 4.9 0 0 0 .288-1.622q0-.591-.144-1.127a2.8 2.8 0 0 0-.439-.935 2.2 2.2 0 0 0-.743-.64 2.2 2.2 0 0 0-1.039-.239q-.88 0-1.614.423a4.35 4.35 0 0 0-1.263 1.095 5.1 5.1 0 0 0-.815 1.494 5 5 0 0 0-.288 1.638q0 .591.144 1.119t.448.935q.303.408.743.647.435.242 1.045.241M242.557 119.305h7.257l-.416 1.934h-5.067l-.607 2.925h4.188l-.384 1.79h-4.188l-1.007 4.699h-2.19zM251.444 119.305h7.257l-.416 1.934h-5.067l-.607 2.925h4.188l-.384 1.79h-4.188l-1.007 4.699h-2.19zM260.331 119.305h7.352l-.399 1.934h-5.179l-.575 2.733h4.459l-.384 1.79h-4.459l-.624 2.957h5.307l-.416 1.934h-7.496zM267.155 130.654l2.414-11.348h4.795q.64 0 1.151.264.512.263.863.704t.535 1.007q.184.568.184 1.159 0 .623-.208 1.223a4.76 4.76 0 0 1-1.415 2.069 4 4 0 0 1-1.063.655l1.535 4.268h-2.494l-1.342-3.804h-1.966l-.799 3.804zm5.946-5.738q.32 0 .631-.184t.552-.495.391-.719q.152-.408.152-.855 0-.607-.296-1.015-.295-.408-.727-.408h-2.461l-.783 3.676z"/><path fill="#263238" d="M279.623 117.572h-1.236v14.911h1.236z"/><path fill="#F7A9A0" d="M457.731 300.73s-45.98 12.473-53.588 11.097-33.283-35.891-38.989-48.43-15.162-74.891-13.32-81.753 11.338-6.963 19.375 10.733 27.017 56.579 30.398 59.749 59.859 45.328 56.124 48.604"/><path fill="#263238" d="m387.29 298.219 59.622-11.901s-42.863-33.546-45.457-37.433-26.155-52.938-33.634-64.576c-7.479-11.639-19.188-11.785-16.657 7.612 2.656 20.356 8.427 63.252 12.071 71.176 3.646 7.922 24.055 35.122 24.055 35.122"/><path fill="#37474F" d="m403.186 295.05-15.9 3.17s-20.41-27.2-24.05-35.12c-3.64-7.93-9.42-50.82-12.07-71.18-1.74-13.37 3.27-17.45 9.01-14.88z"/><path fill="#F7A9A0" d="M408.137 307.734c7.055-3.696 15.645-12.639 21.491-13.574a6.79 6.79 0 0 1 7.314 3.485s2.692-5.974 8.136-5.949c2.801.013 5.241 4.5 5.241 4.5s2.366-4.694 7.206-4.372c3.856.256 5.724 4.713 5.724 4.713s4.368-3.444 8.213-1.924c7.797 3.084 9.101 36.233-2.909 41.834-5.597 2.611-5.476-5.504-5.476-5.504s-2.992 11.626-9.819 12.07-6.033-10.09-6.033-10.09-2.999 11.241-10.123 10.987c-7.417-.265-4.819-10.664-4.819-10.664s-4.707 7.568-10.117 6.124c-8.933-2.384.665-20.325-1.35-27.542h-11.22z"/><path fill="#F7A9A0" d="M418.317 300.679c-6.985 2.915-14.959-8.115-22.147-5.548-9.316 3.327-.698 14.83 13.427 16.696h11.22z"/><path fill="#263238" d="M463.648 297.198c-.013-.109.138-.15.17-.04 3.086 10.799 3.166 23.61-.693 34.229-.126.348-.747.294-.681-.117 1.884-11.705 2.624-22.243 1.204-34.072M450.382 296.032c-.016-.128.197-.156.235-.022 3.119 11.145 2.813 25.576-3.077 37.292-.202.402-.786.56-.588.08 3.325-8.088 4.762-26.709 3.43-37.35M431.587 333.965c5.213-11.453 6.229-23.424 5.506-35.87-.01-.162.221-.159.265-.025 2.013 5.992 1.647 13.973.837 20.159-.776 5.926-2.667 11.116-6.208 15.918-.137.187-.511.063-.4-.182"/><path fill="#263238" d="M395.623 294.256c4.571-1.524 9.272 2.137 13.123 4.179 1.262.669 2.514 1.42 3.879 1.841 3.047.94 5.31.346 6.63-.501 2.135-1.37 8.806-8.016 13.613-5.81 1.501.689 3.267 2.086 4.121 3.499 1.469-2.666 3.344-5.574 6.6-6.109 1.489-.245 2.881.143 4.076 1.057a8.5 8.5 0 0 1 1.603 1.628c.422.557.857 1.163 1.104 1.824q.012-.032.025-.064l.097-.205q.099-.204.202-.407c.145-.281.312-.557.516-.8.188-.224.388-.44.615-.626.199-.164.438-.3.703-.278.086.007.095.119.016.147-.238.083-.38.302-.513.502-.153.231-.295.47-.456.696-.157.222-.32.44-.477.662a7 7 0 0 0-.238.358q-.053.088-.105.174c-.043.068-.104.103-.154.163-.074.089-.18.042-.23-.038-.01-.001-.021.009-.03.001-.52-.402-.89-.953-1.325-1.444-.488-.551-.997-1.095-1.592-1.533-1.132-.835-2.517-1.234-3.912-.959-2.918.575-4.772 3.165-6.325 5.479-.011.017-.028.018-.042.028l.001.001c.044.078-.058.141-.119.087-1.602-1.397-3.129-2.976-5.337-3.299-2.384-.348-4.643.796-6.616 1.994-.982.596-1.942 1.22-2.848 1.927-.81.632-1.58 1.33-2.45 1.878-3.706 2.335-7.766.526-8.78.093-2.02-.863-3.9-1.954-5.79-3.066-1.918-1.13-3.949-2.248-6.196-2.508-2.004-.232-4.242.406-5.509 2.059-.689.898-1.583 2.575.24 6.392.016.034-.027.075-.052.05-.941-.959-3.972-7.104 1.932-9.072"/><path fill="#37474F" d="M382.912 307.612h-58.526c-.482-1.884-.949-3.738-1.417-5.563-.534-2.099-1.061-4.146-1.565-6.141-.111-.445-.23-.89-.341-1.328-.386-1.528-.764-3.019-1.135-4.465-.223-.883-.445-1.75-.66-2.611-.23-.875-.445-1.736-.66-2.574-.059-.223-.111-.445-.171-.66q-.089-.365-.178-.719c-.074-.297-.148-.579-.223-.868v-.007c-.082-.304-.156-.601-.23-.897a124 124 0 0 1-.423-1.661q-.312-1.203-.601-2.351c-.082-.334-.171-.667-.252-.994a107 107 0 0 1-.401-1.565q-.132-.512-.252-1.001a447 447 0 0 1-.964-3.783c-.082-.311-.156-.616-.237-.912-.126-.512-.252-1.001-.371-1.476a25 25 0 0 1-.223-.868c-.26-1.009-.497-1.928-.697-2.737q-.087-.323-.163-.623c-.133-.534-.259-1.009-.363-1.432-.044-.171-.082-.334-.126-.482q-.064-.256-.119-.467c-.022-.104-.052-.208-.074-.297q-.057-.222-.104-.4l-.044-.178-.133-.527h56.968s1.876 6.467 4.88 16.896c.608 2.121 1.268 4.413 1.973 6.846 1.997 6.949 4.325 15.063 6.832 23.845"/><path fill="#263238" d="M333.969 307.612h-1.461a1694 1694 0 0 1-6.297-26.945 1619 1619 0 0 1-1.454-6.571c-.044-.208-.089-.408-.134-.616-.022-.111.141-.156.171-.044.022.067.037.134.059.2.66 2.351 1.32 4.71 1.965 7.068 2.471 8.944 4.837 17.918 7.151 26.908"/><path fill="#263238" d="m367.382 260.025-2.514 12.586-2.062 10.324-3.508 17.593-.364 1.802-.601 3.004-.453 2.277h-33.502c-.475-1.891-.949-3.745-1.409-5.563-.534-2.099-1.061-4.146-1.565-6.141-.111-.445-.23-.89-.341-1.328-.386-1.528-.764-3.019-1.135-4.465-.223-.883-.445-1.75-.66-2.611-.23-.875-.445-1.736-.66-2.574-.059-.223-.111-.445-.171-.66q-.089-.365-.178-.719c-.074-.297-.148-.579-.223-.868v-.007c-.082-.304-.156-.601-.23-.897a124 124 0 0 1-.423-1.661q-.312-1.203-.601-2.351a81 81 0 0 1-.252-.994 107 107 0 0 1-.401-1.565q-.132-.512-.252-1.001a447 447 0 0 1-.964-3.783c-.082-.311-.156-.616-.237-.912-.126-.512-.252-1.001-.371-1.476a25 25 0 0 1-.223-.868c-.26-1.009-.497-1.928-.697-2.737q-.087-.323-.163-.623c-.133-.534-.259-1.009-.363-1.432-.044-.171-.082-.334-.126-.482q-.064-.256-.119-.467c-.022-.104-.052-.208-.074-.297q-.057-.222-.104-.4l-.044-.178-.133-.527z"/><path fill="#37474F" d="M367.389 260.003v.022c-.022.312-.237 3.708-.786 8.893a287 287 0 0 1-.556 4.954 254 254 0 0 1-1.261 9.189c-.875 5.718-2.017 11.956-3.501 18.052a146 146 0 0 1-1.721 6.497l-73.538.026c.868-11.207 1.661-21.342 2.292-29.33.883-11.244 1.446-18.282 1.446-18.282l66.707-.022z"/><path fill="#263238" d="M367.233 266.76a234 234 0 0 1-.363 7.877 127 127 0 0 1-.808 8.507 4 4 0 0 1-.037.311 207 207 0 0 1-1.194 7.943c-.423 2.462-.734 5.118-1.825 7.395-.408.86-.994 1.684-1.721 2.321-.675.593-1.461 1.038-2.351 1.216a3 3 0 0 1-.438.074c-.037.008-.081 0-.126.008.052.037.089.082.082.156-.03.883-.007 1.78-.104 2.655-.007.037-.007.074-.015.111-.089.764-.23 1.52-.371 2.277h-1.261c.007-.015.007-.03.015-.045.223-.831.408-1.669.616-2.507.223-.853.504-1.691.705-2.559.007-.037.037-.059.059-.082-1.602.022-3.219-.831-3.797-2.381-.423-1.127-.23-2.299-.059-3.456.23-1.506.452-3.011.682-4.517.43-2.766.986-5.503 1.476-8.255.074-.415.148-.838.223-1.254.986-5.6 2.017-11.199 3.256-16.747.044-.23.096-.46.148-.69.03-.156.282-.111.267.037-.037.371-.074.749-.119 1.12a165 165 0 0 1-.764 6.364c-.356 2.485-.601 4.984-.949 7.469-.119.845-.237 1.691-.363 2.536-.571 4.087-1.164 8.173-1.862 12.245-.326 1.891-1.506 5.281 1.216 5.867a2.78 2.78 0 0 0 1.847-.23c1.209-.601 2.091-1.98 2.529-3.197.771-2.166 1.046-4.554 1.446-6.809q.665-3.736 1.187-7.483v-.007c.445-3.122.905-6.237 1.394-9.353q.37-2.38.749-4.762l.356-2.203c.029-.152.274-.108.274.048M302.158 286.31c3.062-.013 6.11-.458 9.072-1.22 1.367-.352 2.718-.789 4.058-1.229 1.288-.422 2.622-.941 3.66-1.836 2.063-1.779 3.023-4.581 3.919-7.066 1.012-2.809 1.743-5.668 2.378-8.581.031-.144.241-.095.245.039.098 3.266-.369 6.593-1.235 9.742-.739 2.688-1.735 5.69-3.907 7.574-2.286 1.983-5.389 2.679-8.314 3.04-3.302.408-6.595.311-9.884-.137-.204-.028-.207-.325.008-.326M297.063 266.463c-.163 4.116-.334 8.24-.519 12.356a3747 3747 0 0 1-1.387 28.792h-1.38c.63-9.62 1.29-19.232 1.995-28.836.304-4.109.616-8.21.935-12.319.022-.23.363-.215.356.007"/><path fill="#EBEBEB" d="M376.303 285.276c-1.491 1.415-91.074-5.252-91.494-5.842-1.142-1.607 28.275-90.628 49.161-105.933 12.025-8.812 20.619-3.321 23.897-.166 13.474 12.968 19.734 110.697 18.436 111.941"/><path fill="#0A5840" d="m349.006 196.72 5.393-7.094 4.237 6.317-1.753 5.724-5.347.279z"/><path fill="#0A5840" d="m351.536 201.946-7.053 59.329 9.663 20.531 7.472-21.714-4.735-58.425z"/><path fill="#263238" d="M383.393 306.094s-11.803-.848-27.588-2.038c-.921-5.633-2.837-19.375-3.067-19.38-.182.294-4.852 13.394-6.398 18.676-15.326-1.18-73.269-6.676-73.788-7.106-.138-.111 9.354-17.678 9.354-17.678 9.144-25.753 25.721-70.565 31.838-81.801 11.572-21.257 21.552-25.75 21.552-25.75l20.091 60.103c.102-.972 4.994-55.304 4.994-55.304 1.257 1.947 8.477 13.949 12.251 37.857 3.839 24.315 5.624 57.646 6.646 74.331 0 0 4.122 17.752 4.115 18.09"/><path fill="#37474F" d="M356.047 222.709c-.07 5.175-.249 10.344-.445 15.512-.194 5.168-.477 10.332-.711 15.498-.315 5.162-.587 10.326-.942 15.486l-.553 7.738c-.221 2.578-.407 5.157-.658 7.733.025-2.588.114-5.173.169-7.759l.275-7.753c.196-5.168.476-10.332.713-15.498.318-5.162.586-10.326.944-15.486.354-5.16.727-10.318 1.208-15.471M352.37 240.845a2.585 2.585 0 1 1-5.169-.11 2.585 2.585 0 0 1 5.169.11M351.164 255.436a2.586 2.586 0 0 1-5.17-.11 2.585 2.585 0 0 1 2.64-2.529 2.58 2.58 0 0 1 2.53 2.639M349.958 270.027a2.586 2.586 0 1 1-5.17-.112 2.586 2.586 0 0 1 5.17.112"/><path fill="#F7A9A0" d="M351.915 190.806c-5.761-.811-11.678-12.391-12.711-20.308-.068-.543 8.768-17.71 10.165-21.293.283-.737 20.379 14.233 20.379 14.233s-5.141 6.649-7.539 12.912c-.195.526-4.725 15.236-10.294 14.456"/><path fill="#263238" d="M369.747 163.435s-5.141 6.65-7.541 12.914c-.045.125-.333 1.043-.815 2.362-10.312-5.156-14.561-14.37-16.293-20.481 1.92-3.9 3.706-7.571 4.269-9.022.288-.737 20.38 14.227 20.38 14.227"/><path fill="#F7A9A0" d="M347.307 123.747c-4.17 7.914-4.354 33.032.599 39.584 7.181 9.497 21.242 12.952 29.902 3.808 8.396-8.863 8.056-41.603 2.308-47.794-8.465-9.118-26.65-7.287-32.809 4.402"/><path fill="#263238" d="M367.089 140.916c-.765-.024-1.466-.174-2.22-.275-.851-.115-1.54-.119-2.21-.712-.36-.318-.393-1.022-.116-1.4.645-.881 1.721-.998 2.751-.902 1.117.105 1.951.471 2.75 1.256.773.76.053 2.064-.955 2.033M367.19 143.183c-.015-.064-.13.084-.125.154.107 1.692-.055 3.647-1.569 4.258-.047.019-.039.104.017.094 1.861-.322 2.05-2.92 1.677-4.506"/><path fill="#263238" d="M365.621 141.463c-2.73-.12-2.77 5.349-.241 5.46 2.49.11 2.53-5.359.241-5.46M376.981 143.024c.013-.065.132.081.129.15-.066 1.694.143 3.645 1.671 4.218.048.018.042.103-.014.094-1.868-.275-2.12-2.868-1.786-4.462"/><path fill="#263238" d="M378.507 141.266c2.726-.187 2.9 5.28.374 5.453-2.486.17-2.66-5.297-.374-5.453M380.32 136.859c-.757-.129-1.434-.374-2.17-.58-.83-.232-1.515-.331-2.1-1.013-.314-.366-.25-1.072.077-1.41.761-.788 1.848-.756 2.859-.519 1.096.258 1.876.738 2.562 1.629.665.863-.229 2.063-1.228 1.893M365.037 158.335c.403.4.804.949 1.418 1.005.589.054 1.282-.207 1.824-.413.053-.02.108.037.073.087-.445.647-1.373 1.048-2.157.904-.766-.139-1.14-.805-1.321-1.508-.025-.098.104-.133.163-.075M366.855 153.276c.937 1.477 2.326 2.291 3.832 2.595.672.14 1.38.168 2.074.11.136-.002.273-.016.397-.042.124-.014.236-.028.372-.055.198-.027.308-.19.343-.377v-.012c-.001-.062-.001-.112-.015-.173v-.013l-.002-.149c.045-1.304-.067-3.289-.067-3.289.475.242 2.897 1.353 2.864.671-.296-5.644-.624-11.921-2.111-17.475-.04-.186-.325-.145-.31.041.069 5.436 1.094 10.822 1.251 16.281-.773-.3-2.034-.855-2.717-.846-.186.052.285 3.832.218 4.416 0 0 0 .025-.012.062-2.194.264-3.841-.41-5.958-1.897-.125-.097-.26.017-.159.152"/><path fill="#263238" d="M371.997 155.314s-1.168 1.552-2.756 2.104c-.585.205-1.214.283-1.871.103-1.351-.365-1.375-1.607-1.119-2.668a7.4 7.4 0 0 1 .618-1.622s1.962 1.864 5.128 2.083"/><path fill="#FF97B8" d="M369.241 157.418c-.585.205-1.214.283-1.871.103-1.351-.365-1.375-1.607-1.119-2.668 1.449.159 2.877 1.154 2.99 2.565"/><path fill="#263238" d="M345.01 147.288s-6.444-15.689-4.342-23.849c.95-3.688 6.448-5.416 6.448-5.416s-.815-4.794 4.003-8.095c5.078-3.479 15.659-.871 15.659-.871s8.52-8.963 17.736-3.444 1.068 15.67 1.068 15.67 2.811 5.686-6.631 8.315c-9.193 2.56-26.147-4.013-26.147-4.013s.014 9.215-3.108 18.135c-1.157 3.306-4.686 3.568-4.686 3.568"/><path fill="#263238" d="M368.455 109.454c-2.025-1.281-4.36-1.979-6.723-2.344-2.095-.323-4.295-.4-6.384.002-3.736.719-7.29 2.835-8.492 6.63-.604 1.907-.401 3.895.525 5.66.038.072.147-.001.105-.073-1.837-3.171.043-7.364 2.761-9.356 3.075-2.253 7.298-2.63 10.978-2.214 2.463.278 4.818 1.044 7.133 1.896.136.051.218-.124.097-.201M390.81 111.46c-.388-2.881-2.472-5.019-4.992-6.279-2.872-1.436-6.232-1.774-9.363-1.128-3.191.658-6.091 2.284-8.497 4.458-.053.048.03.142.085.094 4.382-3.797 10.561-5.386 16.09-3.285 2.473.94 4.826 2.657 5.629 5.285.739 2.416.058 5.234-1.36 7.271-1.752 2.516-4.532 4.193-7.313 5.353-.064.027-.03.125.037.102 2.666-.94 5.233-2.261 7.142-4.396 1.801-2.015 2.909-4.748 2.542-7.475M381.007 130.399c-4.153 1.071-8.507.955-12.705.213-4.396-.777-8.62-2.115-12.742-3.815a139 139 0 0 1-7.081-3.183c-.075-.036-.125.074-.055.115 4.041 2.427 8.21 4.661 12.682 6.191 4.167 1.426 8.464 2.139 12.873 1.888a28.6 28.6 0 0 0 7.06-1.319c.06-.019.027-.106-.032-.09"/><path fill="#F7A9A0" d="M348.891 145.814s-4.098-8.851-8.023-7.529c-3.926 1.321-1.827 13.464 2.089 15.775s6.128-1.267 6.128-1.267z"/><path fill="#263238" d="M341.555 141.75c-.066-.018-.096.074-.042.108 2.729 1.717 3.789 4.718 4.367 7.737-.68-1.244-1.765-2.053-3.409-1.274-.086.041-.034.174.052.171 1.251-.042 2.083.322 2.725 1.432.454.786.693 1.719.965 2.581.091.287.591.232.545-.089l-.012-.072c.746-3.732-1.231-9.496-5.191-10.594"/><path fill="#EBEBEB" d="m362.642 175.087-8.281 11.666-13.171-20.962-6.784 4.725s11.598 31.281 11.946 30.035l8.046-10.925 6.701 9.951 3.339-21.13z"/><path fill="#263238" d="M363.341 189.225c.434-3.507.97-7.027 1.241-10.55.01-.125-.171-.216-.229-.078-1.333 3.212-2.923 16.633-3.545 19.805l-.03-.043c-.277-.428-6.285-8.83-6.38-8.733-1.611 1.671-7.503 9.62-7.944 10.362-1.83-4.967-9.856-24.701-12.225-29.519-.068-.138-.275-.074-.231.081 1.47 5.156 11.746 31.138 11.966 31.117.121.137 7.425-9.646 8.441-11.563.952 1.763 6.857 11.077 6.981 10.567.836-3.444 1.519-7.934 1.955-11.446"/><g opacity=".3"><path fill="#fff" d="M415.32 182.624c-19.676 7.704-41.863-2-49.565-21.661-7.711-19.675 1.992-41.869 21.66-49.572s41.863 2 49.566 21.669c7.703 19.668-2 41.863-21.661 49.564"/><path fill="#EBEBEB" d="M371.083 170.383c10.112 13.125 28.03 18.597 44.24 12.242a38.2 38.2 0 0 0 9.151-5.119zM366.147 132.095l73.125 9.755a38.2 38.2 0 0 0-2.288-8.79 37.6 37.6 0 0 0-5.074-9.079l-53.989-7.208a38.2 38.2 0 0 0-11.774 15.322M364.546 157.341l69.654 9.292a39 39 0 0 0 3.198-6.791l-74.169-9.895a37 37 0 0 0 1.317 7.394M364.445 137.045l75.177 10.035q.005-.697-.018-1.39l-74.774-9.975c-.14.436-.276.879-.385 1.33M389.225 110.734l33.367 4.451a37 37 0 0 0-2.944-1.775l-27.137-3.62a36 36 0 0 0-3.286.944"/></g><path fill="#EBEBEB" d="m427.899 228.504 9.365-3.668-16.129-41.178-9.365 3.668z"/><path fill="#A6A6A6" d="M441.851 131.146c-8.744-22.307-34.021-33.355-56.349-24.628-10.811 4.234-19.324 12.428-23.97 23.076-4.656 10.639-4.882 22.461-.648 33.272 7.169 18.296 25.445 29.016 44.103 27.47a43.4 43.4 0 0 0 12.247-2.842c18.296-7.169 29.015-25.445 27.47-44.102a43.4 43.4 0 0 0-2.853-12.246m-3.315 12.757c1.325 15.997-7.867 31.689-23.57 37.84-19.149 7.498-40.824-1.983-48.322-21.133-3.638-9.273-3.444-19.408.543-28.538 3.997-9.131 11.296-16.163 20.579-19.792a37.5 37.5 0 0 1 10.575-2.473c6.08-.504 12.218.508 17.965 3.026 9.13 3.988 16.163 11.296 19.792 20.579a37.2 37.2 0 0 1 2.438 10.491"/><path fill="#263238" d="m436.637 257.907 14.163-5.548-14.299-36.507-14.164 5.548z"/><path fill="#fff" d="m424.309 138.311-.057-.129c-.27-.599.292.579.092.187a36 36 0 0 0-.738-1.391 33 33 0 0 0-3.116-4.538c-.163-.201-.335-.395-.497-.597-.054-.066.407.46.036.045q-.158-.178-.318-.354a34 34 0 0 0-1.273-1.322 31 31 0 0 0-3.064-2.638c-.258-.194-.522-.379-.783-.568-.352-.256.414.269-.076-.05q-.243-.16-.487-.316a28 28 0 0 0-1.914-1.113 27 27 0 0 0-3.181-1.436c-.591-.227.254.076-.179-.065-.209-.068-.417-.14-.627-.207-1.888-.598-3.823-.965-5.789-1.184-.04-.004-.395-.035-.099-.01.301.025-.159-.01-.211-.013q-.437-.029-.875-.047a33 33 0 0 0-1.687-.023c-1.19.015-2.378.097-3.561.229-1.359.151-2.581-1.119-2.639-2.419-.064-1.443 1.056-2.487 2.419-2.639 7.507-.835 15.183.704 21.477 4.968a34.9 34.9 0 0 1 10.391 11.028c.581.979 1.129 1.999 1.573 3.047.518 1.222-.392 2.846-1.63 3.186-1.422.388-2.632-.322-3.187-1.631M426.501 145.51a2.49 2.49 0 1 0 4.737-1.532 2.49 2.49 0 0 0-4.737 1.532"/><path fill="#F7A9A0" d="M323.361 197.561c1.332 32.158 12.865 74.464 24.213 82.814 11.25 8.277 55.264-15.999 76.198-27.694 5.145-2.875-22.077-43.017-26.843-38.894-7.029 6.082-33.488 19.981-34.102 20.437-1.316.976-12.702-19.978-20.886-38.073-11.401-25.211-19.349-17.157-18.58 1.41"/><path fill="#F7A9A0" d="M450.212 187.346c3.706 3.18 1.717 7.828 1.717 7.828s3.87.474 6.217 3.393c2.688 3.344-1.377 9.024-1.377 9.024s3.818 1.291 5.987 4.624c2.25 3.459-1.033 9.776-1.033 9.776s2.896 3.156 2.703 7.382c-.328 7.225-9.951 12.647-16.033 16.156-6.081 3.509-26.62 7.766-30.451 8.974l-22.858-38.84s22.796-23.495 30.532-26.606c6.519-2.62 20.436-5.28 24.596-1.711"/><path fill="#263238" d="M451.682 195.069c-7.598 1.123-14.45 4.432-21.477 7.346-.156.065-.053.309.103.242 6.955-2.979 14.411-4.54 21.471-7.236.195-.075.108-.383-.097-.352M456.618 207.545c-1.711.306-3.316 1.175-4.873 1.914q-2.514 1.194-4.988 2.471a213 213 0 0 0-9.775 5.352c-.142.083-.051.321.103.242a263 263 0 0 1 9.975-4.882 372 372 0 0 1 5.066-2.288c1.576-.698 3.297-1.303 4.689-2.34.207-.154.061-.515-.197-.469M461.582 222.059c-1.498.206-2.984 1.246-4.295 1.957a447 447 0 0 1-4.478 2.396c-2.994 1.58-5.989 3.159-9.036 4.634-.152.074-.05.316.104.242 3.104-1.483 6.227-2.923 9.318-4.434a425 425 0 0 0 4.54-2.25c1.283-.645 2.961-1.305 3.934-2.398.053-.061-.012-.157-.087-.147M391.891 215.689l27.083 44.337s-60.262 30.03-71.822 21.316-23.844-54.404-24.799-81.195 9.092-25.906 19.083-7.102 18.379 40.031 19.848 39.38c1.47-.652 30.607-16.736 30.607-16.736"/><path fill="#37474F" d="M322.905 215.119c.412 3.051 1.06 6.062 1.732 9.063.681 3 1.425 5.985 2.212 8.958 1.559 5.949 3.274 11.859 5.218 17.69 1.958 5.823 4.066 11.604 6.651 17.161 1.299 2.771 2.715 5.496 4.413 8.017.438.619.85 1.26 1.339 1.834l.711.879.773.815c1.056 1.034 2.236 1.998 3.593 2.401 2.863.702 5.965.503 8.968.095 3.019-.427 6.01-1.109 8.974-1.888 5.927-1.576 11.74-3.594 17.5-5.732 5.764-2.137 11.464-4.453 17.117-6.88 5.651-2.431 11.286-4.908 16.844-7.553l-.021.073-2.054-3.462 2.143 3.408.03.048-.051.026c-10.99 5.558-22.228 10.632-33.719 15.101-5.753 2.211-11.587 4.237-17.55 5.863-2.984.799-6.002 1.505-9.077 1.954-3.065.414-6.237.695-9.376-.101-1.625-.498-2.885-1.569-4.007-2.671l-.811-.864c-.254-.3-.49-.612-.736-.918-.506-.603-.925-1.26-1.373-1.899-1.73-2.595-3.146-5.359-4.446-8.164-2.578-5.622-4.693-11.431-6.549-17.309a270 270 0 0 1-4.963-17.806 257 257 0 0 1-1.985-9.025c-.595-3.022-1.166-6.053-1.5-9.114"/><path fill="#37474F" d="M355.096 221.759c.917 1.748 1.815 3.502 2.791 5.211.482.857.963 1.714 1.479 2.544.518.815 1.056 1.673 1.695 2.301.08.074.159.14.232.185.041.035.062.027.09.045 0 0 .031.014.001.003-.065-.042-.238.015-.182-.002l.058-.027.635-.332 1.294-.703 2.591-1.419 5.169-2.87 10.398-5.634c3.492-1.832 6.979-3.674 10.506-5.442l.072-.036.035.064.721 1.333-.857-1.25.107.028c-3.365 2.064-6.776 4.042-10.185 6.025a1063 1063 0 0 1-10.322 5.779l-5.214 2.795-2.618 1.383q-.654.347-1.324.671l-.691.322-.113.044c.029-.003-.176.055-.271.021-.059-.016-.053-.021-.083-.032-.081-.039-.182-.081-.235-.129a2.3 2.3 0 0 1-.334-.288c-.733-.795-1.2-1.659-1.703-2.523a49 49 0 0 1-1.369-2.639c-.841-1.79-1.654-3.589-2.373-5.428M321.47 220.89c.966 1.679 1.711 3.439 2.455 5.194l2.137 5.313c-1.247-1.496-2.076-3.267-2.829-5.025-.727-1.778-1.348-3.593-1.763-5.482"/><path fill="#0A5840" d="M246.087 358.301H95.272v91.369h150.815z"/><path fill="#000" d="M246.087 358.301H95.272v43.028h150.815z" opacity=".1"/><path fill="#0A5840" d="M249.646 344.87H91.7v42.646h157.946z"/><path fill="#455A64" d="M203.924 320.546v24.324h-11.439v-13.836H148.86v13.836h-11.439v-24.324z"/><path fill="#263238" d="M133.673 377.332h-10.295V397.7h10.295zM217.968 377.332h-10.295V397.7h10.295z"/><path fill="#0A5840" d="M597.663 361.441s-23.111-5.24-35.78-16.911c-12.668-11.671-19.744-32.582-19.744-32.582s13.604 2.492 25.92 6.808c2.067 2.213 6.006 6.772 7.842 11.088 0 0 .389-4.559.061-7.927 3.294 1.52 6.164 3.197 8.23 4.997 10.505 9.191 13.471 34.527 13.471 34.527"/><path fill="#263238" d="M556.571 322.111c-3.151-2.181-6.358-4.283-9.495-6.483-.189-.133-.012-.428.19-.308a286 286 0 0 1 17.507 11.341 172 172 0 0 1 5.848 4.306q-.2-.342-.403-.685c-.693-1.161-1.424-2.3-2.155-3.438-1.469-2.286-3.075-4.537-4.906-6.549-.068-.075.048-.185.114-.108 1.797 2.075 3.594 4.129 5.239 6.331a47 47 0 0 1 2.196 3.238q.539.861 1.039 1.746c.111.197.233.395.347.597 2.989 2.346 5.898 4.793 8.676 7.381a102 102 0 0 1 4.964 4.96c-.893-2.797-1.674-5.625-2.71-8.38-.035-.094.119-.134.153-.038 1.006 2.889 2.107 5.791 2.885 8.759a88 88 0 0 1 5.059 5.957q-.04-.19-.083-.376-.391-1.635-.827-3.258a95 95 0 0 0-1.882-6.216c-1.446-4.2-3.323-8.31-6.209-11.727-.065-.077.049-.186.114-.108 4.515 5.345 7.162 11.753 8.851 18.483q.37 1.478.705 2.963c.119.524.257 1.059.346 1.598a77 77 0 0 1 2.04 2.874c4.013 5.972 7.141 12.497 9.779 19.177 2.971 7.523 5.28 15.293 7.408 23.091.042.153-.188.206-.237.059-4.52-13.524-9.137-27.241-16.874-39.33a91 91 0 0 0-5.277-7.384c-3.802-.213-7.639-1.039-11.24-2.239-3.982-1.327-7.739-3.166-11.264-5.44-2.035-1.313-3.889-2.845-5.773-4.361-.088-.071.011-.195.099-.121 3.126 2.643 6.882 4.714 10.593 6.409 3.729 1.704 7.652 3.038 11.659 3.912 1.707.372 3.437.646 5.168.881a98 98 0 0 0-6.816-7.551c-.779-.779-1.588-1.524-2.389-2.277-2.654-1.938-5.596-3.468-8.544-4.893-3.787-1.83-7.514-3.769-11.262-5.675-2.114-1.075-4.215-2.177-6.347-3.217-.091-.045-.008-.177.083-.134 3.798 1.835 7.656 3.549 11.491 5.306 3.609 1.653 7.26 3.312 10.722 5.258.15.084.289.175.436.261a178 178 0 0 0-9.686-7.828 278 278 0 0 0-9.332-6.764"/><path fill="#263238" d="M557.885 334.026c1.879.824 3.793 1.554 5.654 2.424 1.913.894 3.727 1.942 5.543 3.017.08.047.006.159-.074.12-1.843-.882-3.709-1.707-5.534-2.625-1.869-.94-3.717-1.945-5.633-2.785-.093-.04-.049-.191.044-.151"/><path fill="#0A5840" d="M672.743 244.969s-6.489 7.431-6.908 19.195c-.075 2.073.251 4.96.492 8.358-8.617 4.601-15.082 12.89-15.082 12.89 4.896-2.941 11.615-4.129 15.241-3.649-.123 2.235-.388 4.555-.883 6.907-1.601-.092-4.692.122-9.803 1.939 0 0 5.016-.127 8.839 1.757-4.119 13.106-16.366 26.572-50.182 32.29 0 0-6.524-22.958 5.99-47.587 10.132-19.932 52.296-32.1 52.296-32.1"/><path fill="#263238" d="M602.753 380.739a339 339 0 0 1 2.19-16.747c1.731-11.132 3.973-22.201 6.82-33.102 1.343-5.142 2.952-10.176 4.881-15.083-.126-.89-.106-1.817-.125-2.707a98 98 0 0 1-.016-3.249 88 88 0 0 1 .31-6.487c.364-4.263 1.013-8.532 2.078-12.679.618-2.409 1.336-4.781 2.044-7.165.029-.097.179-.052.151.045-1.196 4.122-1.884 8.412-2.497 12.655a119 119 0 0 0-1.136 12.691 99 99 0 0 0-.065 3.488c0 .492.021.993.039 1.494 1.665-4.025 3.543-7.964 5.698-11.794 3.409-6.058 7.325-11.816 11.575-17.316-.039-.627.15-1.288.277-1.892q.239-1.133.492-2.263c.347-1.545.734-3.081 1.153-4.608.84-3.064 1.95-6.026 2.909-9.051.03-.096.18-.052.151.046-.893 2.996-1.486 6.097-2.172 9.146-.339 1.508-.669 3.018-1.001 4.527a172 172 0 0 0-.483 2.266c-.011.054-.02.113-.031.169a183 183 0 0 1 4.187-5.099c6.457-7.572 13.537-14.558 20.663-21.493.876-.853 1.774-1.684 2.662-2.524.074-.07.178.041.109.114-6.81 7.104-13.516 14.29-19.866 21.812a247 247 0 0 0-4.454 5.428c.768-.521 1.544-1.027 2.307-1.527 1.967-1.288 3.96-2.541 6.012-3.69s4.12-2.273 6.228-3.318c2.169-1.075 4.486-1.95 6.578-3.167.09-.052.168.1.076.138-2.157.884-4.171 2.233-6.171 3.418a236 236 0 0 0-6.134 3.732c-1.987 1.261-3.986 2.504-5.959 3.786-1.645 1.069-3.265 2.236-4.97 3.223-3.9 5.053-7.566 10.286-10.834 15.768a116 116 0 0 0-5.6 10.62c.405-.177.813-.348 1.212-.526l3.096-1.375c1.989-.883 3.987-1.744 5.982-2.612 3.792-1.65 7.644-3.165 11.364-4.974 2.086-1.014 4.138-2.085 6.07-3.372.085-.056.158.081.076.138-6.933 4.78-14.707 8.147-22.38 11.543l-3.328 1.473c-.914.404-1.83.857-2.772 1.21a118.5 118.5 0 0 0-5.719 15.671c-3.079 10.74-5.425 21.714-7.357 32.714-1.94 11.045-3.249 22.165-4.265 33.329-.127 1.394-.252 2.786-.41 4.177-.063.555-.887.555-.881-.022.064-5.667.645-11.345 1.236-16.979"/><path fill="#263238" d="M623.326 287.352c.62-3.438 1.536-6.799 2.462-10.164.027-.098.176-.052.15.046-.855 3.303-1.467 6.671-2.088 10.025a236 236 0 0 0-1.674 10.292c-.008.059-.099.06-.094-.002a91 91 0 0 1 1.244-10.197M637.899 296.676c2.292-1.622 4.865-2.852 7.354-4.139 1.232-.637 2.481-1.242 3.729-1.847 1.287-.623 2.624-1.145 3.901-1.786.091-.046.167.092.076.138-1.236.621-2.409 1.372-3.624 2.034-1.253.683-2.498 1.378-3.755 2.053-2.473 1.328-4.904 2.801-7.499 3.877a.189.189 0 0 1-.182-.33"/><path fill="#263238" d="M597.243 321.406s-21.386-5.108-31.207-19.456c-9.378-13.701-12.408-37.056-12.649-39.111.385 1.884 4.798 22.297 19.359 31.805 11.147 7.287 21.919 13.274 24.497 26.762" opacity=".1"/><path fill="#263238" d="M577.504 284.455c3.763 3.624 6.586 7.887 7.884 12.987.011.044-.052.066-.067.023-1.607-4.749-4.258-9.429-7.922-12.892-.073-.071.032-.189.105-.118"/><path fill="#0A5840" d="M597.243 321.406s-21.386-5.108-31.207-19.456c-9.378-13.701-12.408-37.056-12.649-39.111a1 1 0 0 1-.024-.144s10.254 14.581 21.036 18.298c10.783 3.718 25.935 16.581 22.844 40.413"/><path fill="#263238" d="M557.153 270.737c1.984 3.89 4.063 7.75 6.611 11.305 2.481 3.462 5.47 6.409 8.798 9.053 2.905 2.308 5.976 4.398 8.917 6.66q-.032-.054-.066-.106a42 42 0 0 0-1.752-2.394c-1.225-1.565-2.563-3.042-3.909-4.502-2.658-2.883-5.371-5.712-7.753-8.833a32.6 32.6 0 0 1-3.43-5.524c-.044-.091.106-.141.149-.05 3.468 7.228 10.397 11.852 15.34 17.957a32 32 0 0 1 1.977 2.703c.429.661.952 1.398 1.231 2.174 2.689 2.204 5.175 4.606 7.296 7.375a30 30 0 0 0-.858-4.152c-.532-1.915-1.227-3.715-2.267-5.416-.053-.086.079-.174.131-.087 1.001 1.688 1.913 3.504 2.494 5.381.472 1.525.694 3.052.778 4.618l.011.014c1.067 1.433 2.015 2.942 2.89 4.493-.089-.457-.175-.914-.266-1.37a107 107 0 0 0-1.447-6.358c-1.122-4.261-2.636-8.393-5.144-12.049-.057-.084.074-.171.131-.087 2.475 3.606 4.351 7.633 5.699 11.788.681 2.099 1.228 4.233 1.708 6.386.235 1.052.446 2.108.648 3.167.105.547.223 1.107.312 1.671 2.185 4.62 3.721 9.575 4.933 14.498 2.181 8.863 3.542 17.979 4.561 27.041 1.07 9.516 1.63 19.135 1.475 28.713-.019 1.203-.091 2.404-.157 3.605-.017.31-.48.355-.495.028-.21-4.745-.333-9.494-.614-14.235a298 298 0 0 0-1.202-14.209c-.997-9.276-2.437-18.539-4.457-27.649-1.734-7.819-3.982-15.689-8.255-22.54a42.4 42.4 0 0 0-7.716-9.176c-2.999-2.691-6.277-5.05-9.438-7.543-3.145-2.48-6.168-5.179-8.661-8.326-2.691-3.396-4.809-7.205-6.802-11.038-.504-.97-1.021-1.932-1.532-2.898-.047-.09.085-.177.131-.088"/><path fill="#263238" d="M560.845 273.874c1.371 2.894 3.022 5.647 4.764 8.331.041.064-.055.127-.098.065-1.863-2.628-3.414-5.449-4.815-8.346-.044-.091.106-.141.149-.05"/><path fill="#0A5840" d="M675.724 311.948s.339 30.393-17.834 39.166c-18.171 8.785-27.915 1.465-40.263 4.405 0 0 .012-.002.022-.016.479-.725 9.292-13.392 23.309-16.88 14.418-3.596 30.395-14.012 34.766-26.675"/><path fill="#000" d="M675.724 311.948s.339 30.393-17.834 39.166c-18.171 8.785-27.915 1.465-40.263 4.405 0 0 .012-.002.022-.016.512-.249 9.528-4.759 20.66-6.095 11.459-1.379 33.35-8.847 37.415-37.46" opacity=".1"/><path fill="#263238" d="M616.431 356.059c2.168-1.953 4.594-3.633 7.228-4.895.389-.186.791-.338 1.187-.506q.288-.362.61-.698a24 24 0 0 1 1.711-1.625 25.3 25.3 0 0 1 3.656-2.637c3.011-1.769 6.31-3.008 9.388-4.653.089-.048.166.091.076.138-1.522.79-2.995 1.662-4.475 2.526-1.44.841-2.913 1.642-4.314 2.547a31 31 0 0 0-3.596 2.696c-.32.279-.627.584-.934.892 2.004-.686 4.064-1.211 6.141-1.631 3.327-.672 6.691-1.148 10.011-1.856a46 46 0 0 0 4.822-1.302c1.509-1.214 3.013-2.421 4.441-3.737 1.725-1.59 3.308-3.318 4.697-5.209.06-.082.196.003.134.083-2.243 2.894-4.647 5.811-7.45 8.221a41 41 0 0 0 2.324-.963c6.174-2.805 11.669-7.261 15.485-12.883.057-.083.191-.001.134.083-3.327 4.816-7.548 8.939-12.527 12.026-2.496 1.548-5.129 2.815-7.915 3.746-3.203 1.071-6.523 1.705-9.836 2.325-3.244.607-6.5 1.227-9.631 2.291a29 29 0 0 0-8.077 4.249c-4.677 3.504-8.295 8.297-10.889 13.503-3.439 6.9-5.083 14.612-5.997 22.222-.039.326-.542.326-.519-.013.852-12.775 4.267-26.068 14.115-34.94"/><path fill="#263238" d="M637.52 346.149c.908-1.45 2.268-2.539 3.736-3.386 1.716-.992 3.256-2.061 4.443-3.676.06-.082.196.003.134.082-1.098 1.41-2.413 2.566-3.924 3.514-1.586.995-3.186 1.969-4.275 3.536-.049.07-.16.003-.114-.07"/><path fill="#37474F" d="m627.879 378.49-.827 16.713-2.535 51.061h-38.122l-2.535-51.061-.827-16.713z"/><path fill="#263238" d="m627.879 378.49-.827 16.713H583.86l-.827-16.713z"/><path fill="#37474F" d="M630.551 371.514h-50.19v15.943h50.19z"/></svg>