<svg xmlns="http://www.w3.org/2000/svg" width="500" height="500" fill="none"><path fill="#EBEBEB" d="M449.901 398.494h-33.122v.25h33.122zM331.22 401.208h-8.693v.25h8.693zM415.778 389.208h-19.192v.25h19.192zM95.652 390.888H52.459v.25h43.193zM110.889 390.888h-6.333v.25h6.333zM225.147 395.111h-93.676v.25h93.676zM237.014 337.8H43.915a5.715 5.715 0 0 1-5.708-5.708V60.66a5.715 5.715 0 0 1 5.708-5.708h193.099a5.715 5.715 0 0 1 5.707 5.708v271.432a5.715 5.715 0 0 1-5.707 5.708M43.915 55.203a5.464 5.464 0 0 0-5.458 5.458v271.432a5.464 5.464 0 0 0 5.458 5.458h193.099a5.463 5.463 0 0 0 5.457-5.458V60.66a5.464 5.464 0 0 0-5.457-5.458zM453.31 337.8H260.212a5.714 5.714 0 0 1-5.707-5.708V60.66a5.715 5.715 0 0 1 5.707-5.708H453.31a5.714 5.714 0 0 1 5.708 5.708v271.432a5.714 5.714 0 0 1-5.708 5.708M260.212 55.203a5.463 5.463 0 0 0-5.457 5.458v271.432a5.463 5.463 0 0 0 5.457 5.458H453.31a5.464 5.464 0 0 0 5.458-5.458V60.66a5.464 5.464 0 0 0-5.458-5.458zM500 382.398H0v.25h500z"/><path fill="#E0E0E0" d="M97.696 100.325h-1.8v140.366h1.8zM209.746 100.325h-1.8v140.366h1.8z"/><path fill="#EBEBEB" d="M216.796 109.15H88.846l-2.7-6.3h133.35zM216.796 117.799H88.846l-2.7-6.3h133.35zM216.796 126.449H88.846l-2.7-6.3h133.35zM216.796 135.098H88.846l-2.7-6.3h133.35zM216.796 143.747H88.846l-2.7-6.3h133.35zM216.796 152.397H88.846l-2.7-6.3h133.35zM216.796 161.046H88.846l-2.7-6.3h133.35zM216.796 169.696H88.846l-2.7-6.3h133.35zM216.796 178.345H88.846l-2.7-6.3h133.35zM216.796 186.994H88.846l-2.7-6.3h133.35zM216.796 195.644H88.846l-2.7-6.3h133.35zM216.796 204.293H88.846l-2.7-6.3h133.35zM216.796 212.943H88.846l-2.7-6.3h133.35zM216.796 221.592H88.846l-2.7-6.3h133.35zM216.796 230.241H88.846l-2.7-6.3h133.35zM216.796 238.891H88.846l-2.7-6.3h133.35z"/><path fill="#E0E0E0" d="M219.496 238.891H86.146v3.6h133.35zM224.146 94.96H81.496v8.401h142.65zM82.961 179.52a1.45 1.45 0 0 1-1.45-1.451v-48.994a1.45 1.45 0 1 1 2.901 0v48.994c0 .801-.65 1.451-1.45 1.451"/><path fill="#E0E0E0" d="M83.486 101.675h-1.05v29.098h1.05z"/><path fill="#E6E6E6" d="M253.061 285.586h-9.949V156.503a2.753 2.753 0 0 1 2.753-2.753h4.444a2.753 2.753 0 0 1 2.753 2.753z"/><path fill="#F0F0F0" d="M248.927 153.751h-2.742a3.073 3.073 0 0 0-3.073 3.072v128.763h2.742V156.823a3.073 3.073 0 0 1 3.073-3.072"/><path fill="#EBEBEB" d="M255.954 277.08H240.29v105.569h15.664z"/><path fill="#E6E6E6" d="M265.345 382.648h-34.446v-.444a3.824 3.824 0 0 1 3.824-3.824h26.797a3.824 3.824 0 0 1 3.824 3.824v.444z"/><path fill="#E0E0E0" d="M396.416 330.5h25.25a8.215 8.215 0 0 0 8.215-8.215v-36.914a1.5 1.5 0 1 0-3 0v36.914a5.215 5.215 0 0 1-5.215 5.215h-25.25z"/><path fill="#E0E0E0" d="M389.195 365.881v-34.377l-2.018-.636a5.45 5.45 0 0 1-3.815-5.202h19.047a5.45 5.45 0 0 1-3.815 5.202l-2.018.636v34.377L412.415 373v3l-19.53-6.827L373.356 376v-3z"/><path fill="#F0F0F0" d="M367.979 327.498h49.815a5.404 5.404 0 0 0 0-10.808h-49.815a5.404 5.404 0 0 0 0 10.808"/><path fill="#EBEBEB" d="m426.581 298.362 2.688-38.438a5.405 5.405 0 0 0-10.782-.754l-2.688 38.438a5.404 5.404 0 1 0 10.782.754"/><path fill="#E0E0E0" d="M408.999 378.107a3.417 3.417 0 1 0 6.834 0 3.417 3.417 0 0 0-6.834 0M369.939 378.107a3.417 3.417 0 1 0 6.834 0 3.417 3.417 0 0 0-6.834 0M100.368 330.5h-25.25a8.215 8.215 0 0 1-8.215-8.215v-36.914a1.5 1.5 0 0 1 3 0v36.914a5.215 5.215 0 0 0 5.215 5.215h25.25z"/><path fill="#E0E0E0" d="M107.588 365.881v-34.377l2.018-.636a5.45 5.45 0 0 0 3.815-5.202H94.373a5.45 5.45 0 0 0 3.815 5.202l2.018.636v34.377L84.368 373v3l19.53-6.827L123.427 376v-3z"/><path fill="#F0F0F0" d="M128.804 327.498H78.99a5.404 5.404 0 0 1 0-10.808h49.815a5.404 5.404 0 1 1-.001 10.808"/><path fill="#EBEBEB" d="m70.202 298.362-2.688-38.438a5.405 5.405 0 0 1 10.782-.754l2.688 38.438a5.405 5.405 0 0 1-10.782.754"/><path fill="#E0E0E0" d="M87.784 378.107a3.417 3.417 0 1 1-6.835 0 3.417 3.417 0 0 1 6.835 0M126.843 378.107a3.417 3.417 0 1 1-6.834 0 3.417 3.417 0 0 1 6.834 0"/><path fill="#EBEBEB" d="M207.681 382.648h-19.506l-2-36.981h23.506z"/><path fill="#E0E0E0" d="M192.675 382.648h-8V381l8-1zM209.681 345.667h-23.506v-.025a2.975 2.975 0 0 1 2.975-2.975h17.555a2.975 2.975 0 0 1 2.975 2.975v.025zM167.675 286.742h-31.211V283l31.211-2z"/><path fill="#F0F0F0" d="M213.841 290.553h-92.333v12.78h92.333z"/><path fill="#FAFAFA" d="M232.98 286.742H102.697v7.621H232.98z"/><path fill="#E6E6E6" d="M220.878 382.648h5.886l-10.184-88.284h-6.899zM125.997 294.364h-6.899l-10.184 88.284h5.886z"/><path fill="#E0E0E0" d="m199.287 284.844-8-39.742c-.381-1.891-3.273-1.091-2.893.798l7.618 37.844H179.51c-1.931 0-1.934 3 0 3h18.331c1.028-.002 1.636-.956 1.446-1.9"/><path fill="#FAFAFA" d="m180.613 274.184 5.139-73.487a13.66 13.66 0 0 1 5.673 12.057l-3.516 50.28a13.66 13.66 0 0 1-7.296 11.15"/><path fill="#F5F5F5" d="M220.66 286.742h-8.357a2.9 2.9 0 0 1-2.902-2.902v-15.557a2.9 2.9 0 0 1 2.902-2.902h8.357a2.9 2.9 0 0 1 2.902 2.902v15.557a2.903 2.903 0 0 1-2.902 2.902"/><path fill="#E0E0E0" d="M215 257.428c-2.213 0-4.006.548-4.006 1.224s1.794-.237 4.006-.237q.438.002.849.043v4.847h1.265v-4.659c1.133.216 1.892.444 1.892.006 0-.676-1.794-1.224-4.006-1.224"/><path fill="#F0F0F0" d="M218.737 261.725h-4.512v4.512h4.512zM282.942 303.333h92.333v-12.78h-92.333z"/><path fill="#FAFAFA" d="M263.803 294.364h130.283v-7.621H263.803z"/><path fill="#E6E6E6" d="M275.906 382.648h-5.887l10.185-88.284h6.899zM370.786 294.364h6.899l10.185 88.284h-5.887z"/><path fill="#E0E0E0" d="M332.338 65.455h-2.235v69.234h2.235z"/><path fill="#E0E0E0" d="m303.414 148.034 27.811-43.17 27.811 43.17zM150.432 65.455h-2.235v55.632h2.235z"/><path fill="#FAFAFA" d="m121.508 146.211 27.811-43.17 27.811 43.17z"/><path fill="#F5F5F5" d="M245.178 423.714c107.082 0 193.889-5.069 193.889-11.323s-86.807-11.323-193.889-11.323-193.889 5.069-193.889 11.323 86.807 11.323 193.889 11.323"/><path fill="#263238" d="M346.714 406.43c-.02-.11-.05-.21-.08-.32-.04-.17-.09-.33-.14-.49-.06-.16-.11-.31-.17-.47-.01-.01-.01-.02-.01-.04-.06-.14-.12-.27-.18-.41l-17.66-39.08-3.1-6.87-2.44-5.39h-54.19l.93 5.39 1.19 6.87 6.2 35.81v.01c.02.13.04.25.05.38.01.12.02.25.01.37v.09c0 .12-.01.24-.02.37l-.06.37c0 .01 0 .02-.01.03-.02.14-.06.27-.1.4q-.03.135-.09.27c0 .01-.01.03-.02.05s-.02.05-.03.08c-.01.02-.02.05-.03.07-.05.11-.1.21-.16.31-.06.12-.12.23-.2.34 0 .01 0 .02-.01.02l-.06.09c-.06.08-.12.16-.19.24-.08.11-.18.21-.27.31-.16.17-.35.33-.54.47-.15.11-.32.22-.49.3-.11.07-.23.13-.35.17-.13.06-.25.1-.38.14-.01.01-.02.01-.03.01-.01.01-.03.02-.05.02-.11.04-.23.06-.35.09h-.01c-.28.06-.58.09-.89.09h-23.73c-.23 0-.45.03-.67.1a2.36 2.36 0 0 0-1.23.91q-.12.18-.21.39-.18.42-.18.9v2.56q0 .48.18.9.09.21.21.39a2.36 2.36 0 0 0 1.23.91c.22.07.44.1.67.1h95.41c.52 0 1-.16 1.39-.43.14-.09.27-.2.37-.31a2.321 2.321 0 0 0 .53-.78l.01-.01c.12-.3.19-.63.19-.97v-2.66a9.2 9.2 0 0 0-.24-2.09"/><path fill="#fff" d="M246.763 408.813v2.571a2.286 2.286 0 0 0 2.293 2.293h95.4a2.51 2.51 0 0 0 2.505-2.492v-2.664c0-.702-.079-1.405-.238-2.094a10 10 0 0 0-.583-1.736l-23.207-51.331h-54.194l8.324 48.071c.053.291.079.57.066.848-.039 2.014-1.497 3.751-3.446 4.148a4 4 0 0 1-.901.093h-23.724a2.295 2.295 0 0 0-2.295 2.293" opacity=".2"/><path fill="#263238" d="m349.198 404.696-23.202-51.34h-3.067l23.201 51.34a9.3 9.3 0 0 1 .825 3.827v2.66a2.495 2.495 0 0 1-2.495 2.495h3.067a2.495 2.495 0 0 0 2.495-2.495v-2.66a9.3 9.3 0 0 0-.824-3.827"/><path fill="#000" d="M322.929 353.356h-54.186l2.123 12.269h57.608z" opacity=".3"/><path fill="#263238" d="m429.754 183.23-13.04 149-1.58 18.06c-.41 4.67-4.52 8.46-9.19 8.46h-231.2c-4.66 0-8.12-3.79-7.71-8.46l1.58-18.06 13.04-149c.4-4.67 4.52-8.45 9.19-8.45h231.19c1.93 0 3.66.65 4.99 1.74.19.16.38.32.54.5.52.52.97 1.11 1.31 1.77q.36.645.57 1.38c.29.95.399 1.98.31 3.06"/><path fill="#0A5840" d="m168.615 332.227-1.581 18.066c-.408 4.668 3.045 8.452 7.713 8.452h231.195c4.668 0 8.783-3.784 9.191-8.452l1.581-18.066z"/><path fill="#fff" d="m168.615 332.227-1.581 18.066c-.408 4.668 3.045 8.452 7.713 8.452h231.195c4.668 0 8.783-3.784 9.191-8.452l1.581-18.066z" opacity=".6"/><path fill="#0A5840" d="M408.555 327.124H177.667c-2.531 0-4.404-2.052-4.182-4.583l12.08-138.076c.222-2.531 2.453-4.583 4.984-4.583h230.888c2.531 0 4.403 2.052 4.182 4.583l-12.08 138.076c-.222 2.532-2.453 4.583-4.984 4.583"/><path fill="#263238" d="M427.149 174.78h-5.112c4.668 0 8.121 3.784 7.713 8.452l-14.616 167.061c-.408 4.668-4.524 8.452-9.191 8.452h5.112c4.668 0 8.783-3.784 9.192-8.452l14.616-167.061c.407-4.668-3.046-8.452-7.714-8.452"/><path fill="#fff" d="M427.149 174.78h-5.112c4.668 0 8.121 3.784 7.713 8.452l-14.616 167.061c-.408 4.668-4.524 8.452-9.191 8.452h5.112c4.668 0 8.783-3.784 9.192-8.452l14.616-167.061c.407-4.668-3.046-8.452-7.714-8.452" opacity=".2"/><g fill="#fff" opacity=".1"><path d="M264.124 179.882h-8.881l-31.297 147.242h8.881zM214.971 327.124l31.297-147.242h-33.367l-31.297 147.242z"/></g><path fill="#fff" d="M330.471 408.831v2.443a2.404 2.404 0 0 1-2.404 2.404h-79.01a2.296 2.296 0 0 1-2.297-2.297v-2.561a2.297 2.297 0 0 1 2.297-2.297h23.73q.46 0 .889-.095h54.392a2.4 2.4 0 0 1 2.403 2.403" opacity=".2"/><path fill="#000" d="M346.716 406.427h-73.041c1.958-.392 3.408-2.128 3.45-4.149h67.728z" opacity=".2"/><path fill="#000" d="M415.765 204.194H304.649v128.02h111.116z" opacity=".3"/><path fill="#fff" d="M409.913 190.676H299.001v135.929h110.912z"/><path fill="#263238" d="M409.913 190.676H299.001v8.041h110.912z"/><path fill="#000" d="M409.913 198.717h-80.161v127.888h80.161z" opacity=".1"/><path fill="#000" d="M356.216 201.78h-22.515v26.037h22.515zM407.217 201.78h-46.714v10.721h46.714zM407.217 217.096h-46.714v57.818h46.714zM407.217 279.508h-46.714v43.268h46.714z" opacity=".1"/><path fill="#0A5840" d="M360.503 237.772h-31.006v9.955h31.006zM330.007 217.096h-31.006v9.955h31.006z"/><path fill="#000" d="M407.217 288.985h-46.714v5.169h46.714z"/><path fill="#0A5840" d="m365.196 206.119.97-1.969.973 1.967 2.173.314-1.571 1.534.373 2.163-1.944-1.02-1.942 1.023.369-2.164-1.573-1.531zM374.042 206.119l.97-1.969.973 1.967 2.173.314-1.571 1.534.373 2.163-1.944-1.02-1.942 1.023.369-2.164-1.573-1.531zM382.888 206.119l.97-1.969.973 1.967 2.172.314-1.57 1.534.373 2.163-1.944-1.02-1.942 1.023.369-2.164-1.573-1.531z"/><path fill="#000" d="m391.734 206.119.97-1.969.973 1.967 2.172.314-1.57 1.534.373 2.163-1.944-1.02-1.942 1.023.369-2.164-1.573-1.531zM400.58 206.119l.969-1.969.974 1.967 2.172.314-1.57 1.534.372 2.163-1.943-1.02-1.942 1.023.369-2.164-1.573-1.531z"/><path stroke="#263238" stroke-miterlimit="10" d="M363.83 222.697h18.372M363.83 231.313h14.496M363.83 238.837h14.496M363.83 246.361h14.496M363.83 253.885h14.496M363.83 261.408h14.496M363.83 268.932h14.496M380.331 231.313h14.497M380.331 238.837h14.497M380.331 246.361h14.497M380.331 253.885h14.497M380.331 261.408h14.497M380.331 268.932h14.497M363.83 225.569h30.998M363.83 284.965h30.998M333.701 231.313h22.515M333.701 253.221h22.515M333.701 261.597h22.515M333.701 269.973h22.515M333.701 278.349h22.515M333.701 286.725h22.515M333.701 295.102h22.515M333.701 303.478h22.515M333.701 311.854h22.515M333.701 234.542h11.258M302.881 204.15h23.261M302.881 210.615h23.261M302.881 234.542h23.261"/><path fill="#fff" d="M333.742 227.693v-3.176a33.5 33.5 0 0 1 21.834-.227l.681.227v3.176z"/><path fill="#F7978D" d="M343.881 226.826c2.543-.415 3.878-1.627 4.529-2.497.349-.467.26-1.097-.118-1.542-1.6-1.885-1.894-6.098-1.872-8.577l-1.799 2.312-2.453 3.151q.264.575.46 1.177.147.44.213.879l.005.01.007.05c.144 1.046-.125 2.044-1.271 2.855-.802.568-.699 1.795.229 2.118.461.16 1.123.215 2.07.064"/><path fill="#000" d="M342.168 219.673q.264.575.46 1.177.147.44.213.879l.005.01.007.05c1.065-.481 2.283-1.984 2.196-3.168a5.5 5.5 0 0 0-.205-1.149z" opacity=".2"/><path fill="#263238" d="M339.908 213.873s-.98 1.577-2.355.046c.851-1.781.208-1.951.16-3.284a4.28 4.28 0 0 1 1.824-3.988l1.375.029c4.93.934-1.004 7.197-1.004 7.197"/><path fill="#F7978D" d="M347.838 209.609a4.86 4.86 0 0 0-5.876-3.561c-3.827.84-5.429 6.102-5.312 9.47a4.798 4.798 0 0 0 7.583 3.828c2.215-1.539 2.597-3.667 3.555-7.232a4.87 4.87 0 0 0 .05-2.505"/><path fill="#263238" d="M338.334 215.816s.973-.272 3.734-.329c-.272.925-.836 1.678-2.252 1.707-.703.089-1.36-.47-1.469-1.249a1 1 0 0 1-.013-.129"/><path fill="#FF5652" d="M340.429 216.447a2.35 2.35 0 0 0-1.518.482c.272.183.586.272.899.255a2.32 2.32 0 0 0 1.515-.481 1.4 1.4 0 0 0-.896-.256"/><path fill="#fff" d="M338.459 215.788a.63.63 0 0 0 .457.445 13.4 13.4 0 0 0 2.433-.287.76.76 0 0 0 .595-.466 20.4 20.4 0 0 0-3.485.308"/><path fill="#263238" d="M346.516 216.836s-1.591-3.596-1.459-4.762c.042-1.395.941-2.603 2.339-3.146l1.348.278c5.83 2.411-2.228 7.63-2.228 7.63"/><path fill="#FF5652" d="M339.218 214.728a1.7 1.7 0 0 1-1.34-.498 11 11 0 0 0 1.925-2.269z"/><path fill="#F7978D" d="M347.755 212.985c-.911-.147-1.897.983-2.293 1.813-.439.926-.141 1.802.83 1.586a3.46 3.46 0 0 0 1.909-1.335c.586-.82.465-1.917-.446-2.064"/><path fill="#263238" d="M341.917 211.921c-.194-.031-.406.21-.458.477s.056.53.248.565.374-.184.456-.472c.061-.295-.052-.539-.246-.57M338.63 211.186c-.194-.031-.397.178-.456.472-.06.294.046.562.24.592.194.031.398-.182.458-.477.058-.288-.048-.556-.242-.587M339.36 210.05a.18.18 0 0 1-.161.039 1.5 1.5 0 0 0-1.289.167.17.17 0 0 1-.246-.028.18.18 0 0 1 .028-.246 1.82 1.82 0 0 1 1.606-.229.18.18 0 0 1 .117.221.3.3 0 0 1-.055.076M342.936 211.488a.18.18 0 0 1-.151-.068 1.49 1.49 0 0 0-1.119-.661.17.17 0 0 1-.177-.165v-.009a.18.18 0 0 1 .174-.177c.57.033 1.091.332 1.407.807a.18.18 0 0 1-.043.246.2.2 0 0 1-.091.027M338.588 208.497c-.025-.434-.374-1.364-.171-2.035a2.5 2.5 0 0 1 1.346-1.533c.954-.429 2.06-.214 3.083.009.242.053.489.108.697.241s.372.364.357.61c-.016.249-.212.458-.44.562-.227.104-2.04.532-2.796.814-.316.12-1.626.66-2.076 1.332"/><path fill="#263238" d="M349.86 206.561c1.337 1.038 1.726 3.344 1.079 4.834-.272.626-.934 1.69-.934 1.69l-2.474-1.695c-1.146-.58-1.985-1.59-2.478-2.776a2.9 2.9 0 0 0-.655-.971 2.98 2.98 0 0 0-2.614-.774c-.348.069-.818.146-.963-.178-.158-.352.353-.957.728-1.294 1.473-1.321 4.2-2.027 8.311 1.164"/><path fill="#000" d="M344.971 208.436c-.92-1.595-2.091-1.745-3.637-1.507.03-.37.214-.726.499-.963 1.245-1.035 2.91 1.317 3.138 2.47" opacity=".2"/><path fill="#263238" d="M340.682 206.668a1.1 1.1 0 0 0-.253.464c-.275.875-.046 1.844.397 2.647-.418-.42-.657-.985-.831-1.551-.11-.357-.198-.728-.182-1.101.016-.374.146-.754.418-1.011s.699-.361 1.036-.198c.206.1.543.479.298.663-.228.17-.57-.228-.883.087"/><path fill="#000" d="M338.465 176.759v101.45h-111.11v-128.02h105.26v26.57z" opacity=".3"/><path fill="#fff" d="M332.615 136.669h-110.91v135.93h110.91z"/><path fill="#263238" d="M332.616 136.669H221.704v8.041h110.912z"/><path fill="#000" d="M332.615 144.709h-80.16v127.89h80.16z" opacity=".1"/><path fill="#000" d="M278.919 147.773h-22.515v26.037h22.515zM329.92 147.773h-46.714v10.721h46.714zM329.92 163.089h-46.714v57.818h46.714zM329.92 225.502h-46.714v43.268h46.714z" opacity=".1"/><path fill="#0A5840" d="M283.206 183.766H252.2v9.955h31.006zM252.71 163.089h-31.006v9.955h31.006z"/><path fill="#000" d="M329.92 234.979h-46.714v5.169h46.714z"/><path fill="#0A5840" d="m287.899 152.113.97-1.97.973 1.968 2.173.314-1.571 1.533.373 2.164-1.944-1.02-1.942 1.023.369-2.164-1.573-1.531zM296.745 152.113l.97-1.97.973 1.968 2.173.314-1.571 1.533.373 2.164-1.944-1.02-1.942 1.023.369-2.164-1.573-1.531zM305.591 152.113l.97-1.97.973 1.968 2.173.314-1.571 1.533.373 2.164-1.944-1.02-1.942 1.023.369-2.164-1.573-1.531z"/><path fill="#000" d="m314.437 152.113.97-1.97.973 1.968 2.172.314-1.57 1.533.373 2.164-1.944-1.02-1.942 1.023.369-2.164-1.573-1.531zM323.283 152.113l.97-1.97.973 1.968 2.172.314-1.57 1.533.373 2.164-1.944-1.02-1.942 1.023.369-2.164-1.573-1.531z"/><path stroke="#263238" stroke-miterlimit="10" d="M286.533 168.691h18.372M286.533 177.306h14.497M286.533 184.83h14.497M286.533 192.354h14.497M286.533 199.878h14.497M286.533 207.402h14.497M286.533 214.926h14.497M303.034 177.306h14.497M303.034 184.83h14.497M303.034 192.354h14.497M303.034 199.878h14.497M303.034 207.402h14.497M303.034 214.926h14.497M286.533 171.563h30.998M286.533 230.958h30.998M256.404 177.306h22.515M256.404 199.214h22.515M256.404 207.59h22.515M256.404 215.967h22.515M256.404 224.343h22.515M256.404 232.719h22.515M256.404 241.095h22.515M256.404 249.471h22.515M256.404 257.847h22.515M256.404 180.536h11.258M225.584 150.143h23.262M225.584 156.608h23.262M225.584 180.536h23.262"/><path fill="#263238" d="M256.459 173.723v-3.176a33.5 33.5 0 0 1 21.833-.227l.682.227v3.176z"/><path fill="#DD8C6A" d="m271.13 162.324-2.365 1.88-3.216 2.56c.183.371.298.772.339 1.183.118.913-.125 1.749-1.172 2.204-.44.113-1.039 2.182 1.656 2.46 1.827.24 3.089-.174 4.351-1.073.61-.562.803-.889.435-1.696-1.06-2.282-.623-5.225-.028-7.518"/><path fill="#000" d="m266.326 166.127 2.08-1.895.027.223q.032.49-.013.979c-.104 1.112-1.395 2.323-2.51 2.735l-.036-.234a4.3 4.3 0 0 0-.299-1.128.2.2 0 0 0-.04-.056z" opacity=".2"/><path fill="#263238" d="M264.688 160.642c-1.132-3.397-.511-5.126-1.807-7.043-.778-.499-2.476.815-1.908 3.585s3.715 3.458 3.715 3.458"/><path fill="#DD8C6A" d="M271.724 158.156c-.378 3.68-.44 5.848-2.381 7.612-2.934 2.671-7.404.695-8.115-3.043-.643-3.363.114-8.808 3.788-10.049a5.132 5.132 0 0 1 6.708 5.48"/><path fill="#263238" d="m271.654 161.464-1.606.082-.311-2.447-1.478-1.175-.421-3.831s3.381-.026 4.684.001c.456.01 1.836 1.468 1.989 2.016.433 1.548-.169 3.179-1.363 4.256a9.4 9.4 0 0 1-1.494 1.098"/><path fill="#263238" d="M271.697 155.609c-.933.488-2.103-.05-3.119-.326s-2.017-.627-3.059-.778c-.903-.131-1.883-.091-2.644.411-.761.503-1.19 1.582-.735 2.373a3.99 3.99 0 0 1-2.065-3.015 3.99 3.99 0 0 1 1.319-3.408c.883-.769 2.077-1.107 3.247-1.159s2.334.159 3.486.368c1.531.279 3.736.255 5.141.909 1.496.697 1.283 3.132-1.571 4.625"/><path fill="#DD8C6A" d="M273.107 161.059a3.38 3.38 0 0 1-1.435 1.924c-.908.56-1.707-.389-1.625-1.437.079-.936.792-2.191 1.786-2.324.994-.134 1.552.845 1.274 1.837"/><path fill="#263238" d="M265.882 159.31c-.001.306-.161.564-.365.568s-.344-.231-.363-.54.161-.564.366-.572c.204-.008.364.234.362.544M262.402 159.418c.002.312-.163.568-.366.572s-.362-.238-.363-.54.165-.563.365-.568.364.23.364.536"/><path fill="#FF5652" d="M263.518 159.611a10 10 0 0 1-1.101 2.362c.489.388 1.261.111 1.261.111z"/><path fill="#263238" d="M263.948 163.883a2.64 2.64 0 0 0 1.912-.816.09.09 0 0 0-.008-.129.095.095 0 0 0-.13.012 2.53 2.53 0 0 1-2.113.737.09.09 0 0 0-.107.073.09.09 0 0 0 .073.107l.013.002q.18.018.36.014M266.564 158.2a.16.16 0 0 0 .083-.036.183.183 0 0 0 .026-.256 1.73 1.73 0 0 0-1.488-.669.18.18 0 0 0-.161.197l.001.007a.184.184 0 0 0 .205.156c.452-.022.886.178 1.163.536a.17.17 0 0 0 .171.065M262.383 157.421a.2.2 0 0 0 .029-.087.183.183 0 0 0-.197-.166 1.72 1.72 0 0 0-1.397.844.18.18 0 0 0 .318.168 1.38 1.38 0 0 1 1.106-.651.18.18 0 0 0 .141-.108"/><path fill="#000" d="M291.879 204.493H180.763v128.02h111.116z" opacity=".3"/><path fill="#fff" d="M286.026 190.975H175.114v135.929h110.912z"/><path fill="#263238" d="M286.026 190.975H175.114v8.041h110.912z"/><path fill="#000" d="M286.026 199.016h-80.161v127.888h80.161z" opacity=".1"/><path fill="#000" d="M232.33 202.079h-22.515v26.037h22.515zM283.33 202.079h-46.714V212.8h46.714zM283.33 217.395h-46.714v57.818h46.714zM283.33 279.807h-46.714v43.268h46.714z" opacity=".1"/><path fill="#0A5840" d="M236.616 238.071H205.61v9.955h31.006zM206.12 217.395h-31.006v9.955h31.006z"/><path fill="#000" d="M283.33 289.284h-46.714v5.169h46.714z"/><path fill="#0A5840" d="m241.31 206.418.969-1.969.974 1.967 2.172.314-1.57 1.534.372 2.163-1.943-1.02-1.942 1.023.369-2.164-1.574-1.531zM250.156 206.418l.969-1.969.973 1.967 2.173.314-1.57 1.534.372 2.163-1.943-1.02-1.943 1.023.37-2.164-1.573-1.531zM259.001 206.418l.97-1.969.973 1.967 2.173.314-1.571 1.534.373 2.163-1.944-1.02-1.942 1.023.37-2.164-1.574-1.531zM267.847 206.418l.97-1.969.973 1.967 2.173.314-1.571 1.534.373 2.163-1.944-1.02-1.942 1.023.37-2.164-1.574-1.531z"/><path fill="#000" d="m276.693 206.418.97-1.969.972 1.967 2.174.314-1.571 1.534.373 2.163-1.944-1.02-1.942 1.023.369-2.164-1.573-1.531z"/><path stroke="#263238" stroke-miterlimit="10" d="M239.943 222.996h18.373M239.943 231.611h14.497M239.943 239.135h14.497M239.943 246.659h14.497M239.943 254.183h14.497M239.943 261.707h14.497M239.943 269.231h14.497M256.445 231.611h14.497M256.445 239.135h14.497M256.445 246.659h14.497M256.445 254.183h14.497M256.445 261.707h14.497M256.445 269.231h14.497M239.943 225.868h30.999M239.943 285.264h30.999M209.815 231.611h22.515M209.815 253.52h22.515M209.815 261.896h22.515M209.815 270.272h22.515M209.815 278.648h22.515M209.815 287.024h22.515M209.815 295.4h22.515M209.815 303.776h22.515M209.815 312.153h22.515M209.815 234.841h11.257M178.995 204.449h23.261M178.995 210.914h23.261M178.995 234.841h23.261"/><path fill="#0A5840" d="M209.815 228.116v-3.176a33.5 33.5 0 0 1 21.833-.227l.682.227v3.176z"/><path fill="#263238" d="M219.103 205.363c-1.413-.461-3.014-.058-4.217.816s-2.044 2.168-2.631 3.534c-.326.759-.559 1.708-.046 2.356.535.677 1.555.633 2.411.528 1.356-2.513 2.96-4.822 4.483-7.234"/><path fill="#FFB573" d="M218.307 220.556c.645 1.542.977 3.267-.954 4.641-.408.29-.733.701-.862 1.188-.207.78.059 1.651 2.948.752 4.178-1.298 4.458-3.827 4.458-3.827-1.78-1.048-1.953-5.382-1.841-7.803z"/><path fill="#000" d="M221.018 218.933c.044 1.056-1.375 2.383-2.314 2.82a7 7 0 0 0-.392-1.199l2.22-2.989c.253.418.419.883.486 1.368" opacity=".2"/><path fill="#FFB573" d="M224.336 209.689a5.23 5.23 0 0 0-6.529-3.489c-3.904 1.162-5.011 6.797-4.543 10.335.501 3.945 5.071 5.53 8.287 2.827 2.148-1.797 2.324-3.432 2.935-7.252a5.26 5.26 0 0 0-.15-2.421"/><path fill="#ED893E" d="M215.605 215.352a1.42 1.42 0 0 1-1.15-.335 8.9 8.9 0 0 0 1.386-1.995z"/><path fill="#263238" d="M218.535 215.904a.093.093 0 0 0-.014-.131.09.09 0 0 0-.13.014 2.46 2.46 0 0 1-2.112.776.1.1 0 0 0-.099.083v.005a.09.09 0 0 0 .079.095q.222.027.448.017a2.61 2.61 0 0 0 1.828-.859M215.548 206.664c1.385-.138 2.814.678 3.399 1.941.281.607.375 1.28.522 1.932s.364 1.319.831 1.798 1.243.713 1.824.383c.319 1.132 1.416 2.178 2.577 2.359-.863 1.25-1.931 2.564-2.794 3.814.311.97.345 1.156.656 2.126 1.738-.424 3.904-2.109 4.977-4.237 1.015-2.013 1.214-4.507-.684-4.574.672-1.35-.554-4.175-1.566-5.293s-2.489-1.714-3.969-2.005c-.998-.196-2.037-.268-3.027-.037-.99.234-2.207.931-2.746 1.793"/><path fill="#FFB573" d="M225.401 214.814a1.265 1.265 0 0 0-1.124-1.392c-.961-.082-1.684 1.072-1.882 1.894-.206.913.294 1.744 1.233 1.43a2.85 2.85 0 0 0 1.614-1.434c.086-.154.14-.324.159-.498"/><path fill="#263238" d="M219.293 211.128a.2.2 0 0 0 .089-.04.19.19 0 0 0 .025-.266l-.002-.003a2.2 2.2 0 0 0-1.853-.833.194.194 0 0 0-.164.211.19.19 0 0 0 .205.165 1.84 1.84 0 0 1 1.527.703c.042.05.108.074.173.063M213.505 211.334a.2.2 0 0 0 .079-.059c.365-.468.93-.734 1.521-.716a.19.19 0 0 0 .211-.165v-.003a.194.194 0 0 0-.171-.209 2.24 2.24 0 0 0-1.856.853.19.19 0 0 0 .015.267c.055.05.133.062.201.032M218.366 212.079c-.015.345-.211.619-.441.612-.229-.007-.396-.296-.377-.647s.211-.618.436-.61c.224.007.395.295.382.645M214.891 212.366c-.014.331-.203.592-.418.585s-.379-.283-.365-.618.203-.592.418-.584c.215.007.384.282.365.617"/><path fill="#263238" d="m214.621 211.77-.785-.261s.381.638.785.261M218.082 211.456l-.82-.273s.399.667.82.273M90.642 249.999c-7.738-.037-7.738-6.633-7.738-6.633l65.743-70.675.339-1.529 3.77 3.511s-.023.054-.093.145c-.212.394-57.717 75.209-62.021 75.181"/><g opacity=".5"><path fill="#fff" d="M189.634 156.537c-8.634 13.342-23.081 23.582-32.173 18.829a.5.5 0 0 0 .104-.157l-4.962-2.719c-3.35-2.993-5.24-7.409-5.725-12.587-.753-7.957 1.77-17.68 7.291-26.658 9.73-15.817 25.591-22.846 32.91-18.478 1.269.772 2.445 1.55 3.462 2.347l.05.044c.577.371 2.299 1.634 2.753 2.125a8.6 8.6 0 0 1 1.093 1.309c1.739 2.345 2.793 5.521 3.067 9.195.634 7.711-1.934 17.606-7.87 26.75" opacity=".4"/></g><path fill="#fff" d="m197.467 129.548-44.9 42.702c-3.35-2.993-5.24-7.409-5.725-12.586l.023-.086 47.535-39.225c1.739 2.345 2.793 5.521 3.067 9.195" opacity=".2"/><path fill="#263238" d="M193.049 157.904c10.915-17.628 9.547-38.277-3.087-46.094-12.626-7.829-31.71.161-42.628 17.77-10.629 17.183-9.621 37.191 2.09 45.452.315.248.642.453.981.666a18.8 18.8 0 0 0 4.374 2.002c12.338 3.956 28.541-4.091 38.27-19.796m-36.602 16.474a8.8 8.8 0 0 1-1.99-.833 2 2 0 0 1-.276-.153c-.142-.097-.292-.181-.422-.27l-.118-.08a11.7 11.7 0 0 1-1.689-1.302c-7.759-7.063-6.967-23.949 2.188-38.731 9.785-15.788 25.809-22.781 32.559-18.786a31 31 0 0 1 3.176 2.139l.047.032a8.3 8.3 0 0 1 1.44 1.236c6.034 6.272 4.149 21.69-4.849 36.216-8.938 14.413-21.765 22.955-30.066 20.532"/><path fill="#000" d="M189.595 156.285c-8.634 13.364-23.08 23.604-32.161 18.834a.4.4 0 0 0 .092-.154l-1.068-.594c8.277 2.43 21.117-6.118 30.058-20.525 8.996-14.52 10.888-29.927 4.849-36.208a8 8 0 0 0-.632-.605c.669.462 2.167 1.555 2.578 2.024.389.36.753.817 1.086 1.29 1.744 2.362 2.785 5.533 3.08 9.195.613 7.712-1.948 17.617-7.882 26.743" opacity=".4"/><path fill="#263238" d="M64.5 312.66c.392 2.619 3.022 4.242 5.468 5.257a41.7 41.7 0 0 0 13.897 3.129c3.512-12.701 6.238-26.09 7.535-39.204-11.794 7.313-28.947 17.093-26.9 30.818"/><path fill="#000" d="M64.5 312.66c.392 2.619 3.022 4.242 5.468 5.257a41.7 41.7 0 0 0 13.897 3.129c3.512-12.701 6.238-26.09 7.535-39.204-11.794 7.313-28.947 17.093-26.9 30.818" opacity=".2"/><path fill="#263238" d="M124.196 154.324c.379-.064.772.337.883.91s-.098 1.104-.477 1.168-.772-.337-.883-.91c-.14-.592.097-1.103.477-1.168"/><path fill="#B74D3C" d="M125.215 161.916a3.36 3.36 0 0 0 2.647-1.04 21.1 21.1 0 0 1-3.688-4.39z"/><path fill="#263238" d="M121.246 152.647a2.72 2.72 0 0 1 2.307-.946q.054.02.113.021a.349.349 0 1 0 .01-.698 3.4 3.4 0 0 0-2.919 1.105.348.348 0 0 0 .246.584.34.34 0 0 0 .243-.066"/><path fill="#CB7A63" d="M116.732 187.449c-9.852-.098-11.248-5.49-11.248-5.49 2.984-2.803 3.241-8.055 2.714-12.754.728 1.075 1.649 2.015 2.872 2.861 2.324 1.597 4.866 1.965 7.184 1.44a.22.22 0 0 0 .124-.04 2 2 0 0 0-.057.287c-.667 3.743-.228 7.771 3.687 9.028-.002 0 5.575 4.777-5.276 4.668"/><path fill="#CB7A63" d="M118.678 172.087c-.114.45-.228.901-.301 1.379a.22.22 0 0 1-.124.04c-2.318.524-4.859.157-7.184-1.44-1.223-.847-2.144-1.787-2.872-2.861a45 45 0 0 0-.514-3.426l10.599 6.086z"/><path fill="#263238" d="M102.466 182.803s1.657-4.773 4.037-6.242 12.658.32 14.261.986 3.155 4.423 3.155 4.423z"/><path fill="#fff" d="M102.466 182.803s1.657-4.773 4.037-6.242 12.658.32 14.261.986 3.155 4.423 3.155 4.423z" opacity=".5"/><path fill="#CB7A63" d="M125.9 164.195a9.99 9.99 0 0 1-5.023 8.284h-.014c-.014.014-.027.013-.041.013a8.2 8.2 0 0 1-2.446.974.22.22 0 0 1-.124.04c-2.318.524-4.859.157-7.184-1.44-1.223-.847-2.144-1.787-2.872-2.861-1.875-2.687-2.606-6.239-3.884-11.233a9.8 9.8 0 0 1-.146-4.503c1.08-5.326 6.273-8.764 11.585-7.684 7.459 1.483 10.435 11.762 10.149 18.41"/><path fill="#000" d="M120.823 172.492a8.2 8.2 0 0 1-2.446.974c-.041.027.358-4.375.358-4.375-.026-.074 1.568 3.396 2.088 3.401" opacity=".2"/><path fill="#263238" d="M102.466 155.364c-.95 1.99-3.233 4.263-4.183 6.253-.51 1.067-1.03 2.204-.843 3.354.186 1.151 1.386 2.246 2.626 1.968-.992 1.425-.251 3.765 1.272 4.726s3.852.622 4.97-.723c.953 1.08 1.755 1.877 3.277 1.9s3.042-.598 4.034-1.649c1.371 1.416 3.667 2.053 5.496 1.165s2.835-2.985 2.307-4.809c-.413-1.427-.943-3.658-.757-5.124 0 0 2.154-3.159 1.275-5.066l-.944-5.974c-1.559-1.291-3.736-1.846-5.844-1.811s-4.162.615-6.105 1.359c-2.717 1.042-5.406 1.969-6.581 4.431"/><path fill="#CB7A63" d="M118.816 155.043c2.059.651 3.075 3.724 3.123 5.664.056 2.143-1.402 3.466-3.239 1.994a8.16 8.16 0 0 1-2.767-4.429c-.464-2.109.824-3.879 2.883-3.229"/><path fill="#0A5840" d="M99.376 408.302c-1.03-.056-1.934-.238-2.208-.707a.68.68 0 0 1 .078-.789.93.93 0 0 1 .628-.388c1.311-.279 3.859 1.392 3.997 1.461.06.041.086.117.064.189a.18.18 0 0 1-.159.146c-.799.098-1.602.127-2.4.088m-1.079-1.552a1.3 1.3 0 0 0-.35-.019.54.54 0 0 0-.386.236c-.146.219-.115.323-.039.4.312.511 2.257.626 3.708.509a8 8 0 0 0-2.931-1.147z"/><path fill="#0A5840" d="m101.727 408.192-.072-.004c-.896-.471-2.58-2.198-2.348-3.081.02-.205.22-.451.729-.475.375-.024.737.107.999.362.95.864.914 2.931.916 3.024a.23.23 0 0 1-.098.159.18.18 0 0 1-.126.015m-1.584-3.174-.103-.006c-.33-.018-.366.145-.38.185-.134.517.984 1.885 1.886 2.51a4.15 4.15 0 0 0-.798-2.421.9.9 0 0 0-.622-.301z"/><path fill="#CB7A63" d="m111.127 390.763-7.66-.413-.95 17.699 7.705.416z"/><path fill="#263238" d="M100.733 407.664c-5.53 2.919-7.153 2.976-13.33 3.965-1.35.217-.8 3.463 2.37 3.634 5.247.283 5.819.065 10.289.306 3.831.207 8.213.619 11.254.835q.14.01.281-.015c.613-.11 1.039-.69.952-1.295l-.874-6.912a.65.65 0 0 0-.61-.558l-8.423-.454a3.7 3.7 0 0 0-1.909.494"/><path fill="#000" d="m111.136 390.773-.565 10.692-7.693-.414.588-10.691z" opacity=".2"/><path fill="#0A5840" d="M121.79 236.416s-.652 51.073-2.38 75.139c-1.615 22.429-6.628 87.77-6.628 87.77l-13.016-.702s-2.73-67.14-2.977-90.022c-.243-21.666-1.3-73.188-1.3-73.188z"/><path fill="#263238" d="M121.79 236.416s-.652 51.073-2.38 75.139c-1.615 22.429-6.628 87.77-6.628 87.77l-13.016-.702s-2.73-67.14-2.977-90.022c-.243-21.666-1.3-73.188-1.3-73.188z"/><path fill="#fff" d="M121.79 236.416s-.652 51.073-2.38 75.139c-1.615 22.429-6.628 87.77-6.628 87.77l-13.016-.702s-2.73-67.14-2.977-90.022c-.243-21.666-1.3-73.188-1.3-73.188z" opacity=".6"/><path fill="#263238" d="m115.127 394.875-.877 4.745-15.83-.853s-.26-5.388-.198-5.384z"/><path fill="#fff" d="m115.127 394.875-.877 4.745-15.83-.853s-.26-5.388-.198-5.384z" opacity=".5"/><path fill="#0A5840" d="M178.591 406.872c-.09-1.023-.048-1.947.363-2.323a.69.69 0 0 1 .798-.089c.221.106.39.294.471.526.471 1.228-.796 4.089-.856 4.23a.17.17 0 0 1-.176.113.17.17 0 0 1-.156-.128 13.5 13.5 0 0 1-.444-2.329m1.376-1.393a1.2 1.2 0 0 0-.031-.347.49.49 0 0 0-.288-.329c-.236-.098-.345-.044-.399.044-.46.413-.289 2.346.053 3.746a8.5 8.5 0 0 0 .665-3.114"/><path fill="#0A5840" d="M179.02 409.151a.3.3 0 0 1-.006-.072c.328-.968 1.804-2.992 2.686-2.956.205-.023.477.123.572.608.081.364.003.749-.216 1.058-.698 1.112-2.753 1.517-2.834 1.536a.16.16 0 0 1-.17-.053.15.15 0 0 1-.032-.121m2.907-2.226-.01-.113c-.029-.328-.195-.33-.236-.325-.53-.024-1.709 1.368-2.189 2.384a4.45 4.45 0 0 0 2.266-1.286c.14-.194.211-.427.199-.663z"/><path fill="#CB7A63" d="m173.383 391.851-7.396 1.353 5.712 17.35 7.449-1.365z"/><path fill="#263238" d="M180.864 408.005c2.234 2.164 3.411 3.277 9.451 4.474 1.331.257.457 3.493-2.714 3.565-5.242.114-2.374-.194-6.838-.094-3.821.081-8.216.361-11.255.48a1.097 1.097 0 0 1-1.151-1.347l1.545-6.905a.68.68 0 0 1 .657-.538l8.404-.189a2.54 2.54 0 0 1 1.901.554"/><path fill="#000" d="m173.394 391.86 2.954 8.907-7.418 1.359-2.943-8.922z" opacity=".2"/><path fill="#000" d="M121.567 269.985c-.97 17.294-1.87 38.011-2.572 49.507-.033.555-.08 1.132-.109 1.745-3.199-18.257-7.971-47.987.851-51.063.461-.176 1.331-.227 1.83-.189" opacity=".3"/><path fill="#263238" d="M98.982 238.787s1.717 17.797 4.49 25.608c3.923 11.049 8.812 14.606 12.573 21.218 6.623 11.643 10.314 21.66 14.785 30.924 14.003 28.981 33.379 80.071 33.379 80.071l14.003-.984-49.574-157.684z"/><path fill="#fff" d="M98.982 238.787s1.717 17.797 4.49 25.608c3.923 11.049 8.812 14.606 12.573 21.218 6.623 11.643 10.314 21.66 14.785 30.924 14.003 28.981 33.379 80.071 33.379 80.071l14.003-.984-49.574-157.684z" opacity=".6"/><path fill="#263238" d="m180.71 392.642.171 4.808-16.266 2.431s-1.475-5.197-1.413-5.199z"/><path fill="#fff" d="m180.71 392.642.171 4.808-16.266 2.431s-1.475-5.197-1.413-5.199z" opacity=".5"/><path fill="#CB7A63" d="M103.224 225.575c-.68 1.696-2.287 5.087-4.729 7.083a2.02 2.02 0 0 1-1.964.324s-4.306-2.666-4.652-3.86a.5.5 0 0 1-.01-.223l1.07-4.964s.045-.011.134-.045c.781-.257 4.975-1.551 6.782-.826l2.789 1.116c.546.224.814.848.58 1.395"/><path fill="#0A5840" d="m96.187 194.804-14.629 14.244 11.514 14.842a2 2 0 0 1-.134.045l-1.07 4.964a.5.5 0 0 0 .01.223c-.569.234-1.305.324-2.265.212 0 0-21.844-17.698-20.65-20.754.613-1.551 2.33-4.44 3.948-7.006 0 0 .044-.078.145-.234 1.93-3.201 14.073-21.367 23.198-21.267 7.32.067 6.927 8.373-.067 14.731"/><path fill="#000" d="m96.187 194.804-14.629 14.244 11.514 14.842a2 2 0 0 1-.134.045l-1.071 4.964a.5.5 0 0 0 .011.223c-.569.234-1.305.324-2.265.212 0 0-22.113-15.139-20.651-20.754.42-1.614 2.331-4.44 3.949-7.006 0 0 .044-.078.145-.234 1.93-3.201 14.073-21.367 23.198-21.267 7.32.067 6.927 8.373-.067 14.731" opacity=".5"/><path fill="#263238" d="M91.88 229.122a.5.5 0 0 1-.012-.223l1.071-4.964s.045-.011.134-.045l.357.145s1.171 4.05-1.55 5.087"/><path fill="#0A5840" d="M164.142 313.456c-22.483 5.476-20.266-12.996-51.16-.974-9.1 3.541-14.387-5.599-19.31-7.101-9.808-2.985-20.719-2.077-29.358 3.448a254 254 0 0 1 29.84-71.565c.705-5.228 2.79-16.26-2.864-47.148-1.038-5.664 4.839-10.522 10.586-10.827.046 0 3.578-.259 3.634-.269 5.488-.26 10.994-.204 16.473.167a63 63 0 0 1 5.191.76 10.29 10.29 0 0 1 8.232 8.297c.732 4.097 1.298 8.76 1.001 16.825-.222 5.868-.899 13.544-2.299 24.139a672 672 0 0 1-1.196 8.575l.019.019s14.723 35.343 31.211 75.654"/><path fill="#000" d="M164.142 313.456c-22.483 5.476-20.266-12.996-51.16-.974-9.1 3.541-14.387-5.599-19.31-7.101-9.808-2.985-20.719-2.077-29.358 3.448a254 254 0 0 1 29.84-71.565c.705-5.228 2.79-16.26-2.864-47.148-1.038-5.664 4.839-10.522 10.586-10.827.046 0 3.578-.259 3.634-.269 5.488-.26 10.994-.204 16.473.167a63 63 0 0 1 5.191.76 10.29 10.29 0 0 1 8.232 8.297c.732 4.097 1.298 8.76 1.001 16.825-.222 5.868-.899 13.544-2.299 24.139a672 672 0 0 1-1.196 8.575l.019.019s14.723 35.343 31.211 75.654" opacity=".5"/><path fill="#000" d="M136.408 205.069c-.222 5.868-.899 13.544-2.299 24.139-.862-9.279-2.392-18.392-7.889-36.997l10.021 3.189c.176 3.087.213 6.378.167 9.669" opacity=".2"/><path fill="#CB7A63" d="M131.435 164.666c-.184-.299-.383-.611-.692-.777-.241-.129-.522-.154-.794-.177-2.108-.177-3.212-.337-5.176.447-.145.058-.298.128-.379.262-.071.115-.077.256-.081.39l-.111 3.502c-.008.259-.014.529.101.761s.335.391.546.542c1.078.766 6.193 3.366 6.193 3.366 1.027.105 3.156-1.825 4.057-2.327 0 0-2.54-4.169-3.664-5.989"/><path fill="#0A5840" d="m129.648 173.072 5.745-3.085s14.877 18.996 15.756 20.534c7.046 12.332-2.622 11.996-5.348 10.301-6.267-3.896-5.662-9.512-8.118-14.432z"/><path fill="#000" d="m129.648 173.072 5.745-3.085s14.877 18.996 15.756 20.534c7.046 12.332-2.622 11.996-5.348 10.301-6.267-3.896-5.662-9.512-8.118-14.432z" opacity=".5"/><path fill="#0A5840" d="M133.28 182.547c10.42 7.8 20.35 13.129 20.35 13.129l.355 1.478c.75 3.128-2.191 5.883-5.264 4.93l-1.743-.541s-22.78-6.23-23.283-12.796c-3.03-3.709 2.615-12.575 9.585-6.2"/><path fill="#000" d="M133.28 182.547c10.42 7.8 20.35 13.129 20.35 13.129l.355 1.478c.75 3.128-2.191 5.883-5.264 4.93l-1.743-.541s-22.78-6.23-23.283-12.796c-3.03-3.709 2.615-12.575 9.585-6.2" opacity=".5"/><path fill="#263238" d="M124.089 149.764v.019l-3.18.76-20.672 4.932c-.047-.148-.084-.315-.121-.473a22 22 0 0 1-.482-2.818 21 21 0 0 1-.13-1.975c-.121-7.027 3.282-12.978 8.677-14.267 5.386-1.289 11.115 2.484 14.174 8.807.278.565.528 1.159.751 1.761.352.89.64 1.826.871 2.79.038.158.084.315.112.464"/><path fill="#000" d="m124.023 149.764-3.18.779-20.672 4.932c-.047-.148-.083-.315-.121-.473a22 22 0 0 1-.482-2.818l23.472-5.673c.352.89.64 1.826.871 2.79.038.157.084.314.112.463" opacity=".5"/><path fill="#263238" d="M131.74 149.921a2.32 2.32 0 0 1-.276 1.744 2.34 2.34 0 0 1-1.432 1.035l-32.631 7.792a2.31 2.31 0 0 1-2.78-1.707 2.3 2.3 0 0 1 .277-1.744 2.34 2.34 0 0 1 1.432-1.035l32.631-7.792a2.306 2.306 0 0 1 2.779 1.707"/></svg>