<svg xmlns="http://www.w3.org/2000/svg" width="500" height="500" fill="none"><path fill="#0A5840" d="M376.906 152.429c-15.848-23.374-29.001-52.62-54.629-67.07-36.448-20.551-71.484 7.392-101.033 27.116-15.5 10.346-32.026 21.127-50.783 24.129-26.864 4.3-54.14-7.599-80.775-.313-44.96 12.299-57.305 66.955-42.17 105.872 21 54 67.999 112 76.999 156s51 75 123 55 68-66 132-76 95-56 84-114c-5.415-28.554-22.951-49.506-45.764-66.319-16.282-11.999-29.506-27.692-40.845-44.415"/><path fill="#fff" d="M376.906 152.429c-15.848-23.374-29.001-52.62-54.629-67.07-36.448-20.551-71.484 7.392-101.033 27.116-15.5 10.346-32.026 21.127-50.783 24.129-26.864 4.3-54.14-7.599-80.775-.313-44.96 12.299-57.305 66.955-42.17 105.872 21 54 67.999 112 76.999 156s51 75 123 55 68-66 132-76 95-56 84-114c-5.415-28.554-22.951-49.506-45.764-66.319-16.282-11.999-29.506-27.692-40.845-44.415" opacity=".7"/><path fill="#0A5840" d="M122.923 60.92c.004-.003 5.308-4.19 6.668-6.88 1.158-2.291 1.997-5.531.801-7.971-1.17-2.389-4.1-3.535-6.454-2.07-3.268 2.033-3.618 8.965-2.786 12.3.072.288 1.716 4.665 1.771 4.621M73.845 95.846c.219.2 4.005 2.945 4.026 2.878.003-.005 2.117-6.423 1.767-9.417-.299-2.55-1.387-5.715-3.73-7.091-2.293-1.347-5.37-.687-6.525 1.834-1.605 3.498 1.928 9.474 4.462 11.796M185.071 67.271s-19.433 20.059-19.327 44.699 19.712 44.531 19.712 44.531 19.433-20.059 19.327-44.699c-.107-24.64-19.712-44.531-19.712-44.531"/><path fill="#0A5840" d="M157.364 126.727c.275-.302.516-.599.703-.882 1.414-2.143 2.619-5.265 1.712-7.826-.888-2.508-3.666-3.982-6.173-2.798-2.638 1.246-3.932 5.477-4.211 8.938a50 50 0 0 0-2.816-.562l-1.055-2.37c-.385-.818-.651-1.643-.988-2.476-.465-1.231-.884-2.523-1.304-3.812 1.537-.687 6.012-2.78 7.68-4.624 1.722-1.904 3.386-4.807 2.878-7.476-.498-2.614-3.021-4.492-5.679-3.701-3.689 1.098-5.858 7.691-5.935 11.127-.003.112.056.839.135 1.702-.372-1.271-.748-2.539-1.082-3.839-.949-3.689-1.8-7.477-2.669-11.269-.181-.79-.374-1.576-.558-2.366 1.296-.572 6.165-2.797 7.912-4.728 1.722-1.904 3.387-4.808 2.878-7.477-.498-2.613-3.021-4.492-5.678-3.701-3.689 1.098-5.858 7.691-5.935 11.128-.003.123.07.992.159 1.963a143 143 0 0 0-1.612-6.102c-1.018-3.514-2.211-6.92-3.628-10.128.459-.197 6.22-2.691 8.162-4.838 1.722-1.904 3.386-4.808 2.878-7.477-.498-2.614-3.021-4.492-5.679-3.702-3.689 1.098-5.857 7.692-5.935 11.128-.005.244.28 3.385.419 4.504q-.023-.058-.047-.117c-1.518-3.354-3.382-6.368-5.289-9.141-1.898-2.769-3.921-5.215-5.839-7.417-1.914-2.208-3.802-4.11-5.486-5.78-.919-.896-1.776-1.7-2.583-2.441l.081-.007c.07-.007-1.798-4.293-1.947-4.55-1.724-2.973-6.803-7.705-10.564-6.889-2.71.588-4.015 3.45-3.191 5.98.84 2.583 3.699 4.325 6.125 5.163 2.486.859 7.919.444 9.266.325.823.786 1.694 1.636 2.636 2.596 1.643 1.702 3.483 3.639 5.342 5.878.497.595 1.007 1.257 1.513 1.888-1.073-.887-2.564-2.084-2.721-2.185-2.9-1.844-9.588-3.703-12.549-1.246-2.134 1.77-1.973 4.912-.076 6.778 1.937 1.905 5.276 2.134 7.816 1.759 2.65-.391 7.384-3.349 8.413-4.007 1.099 1.416 2.195 2.896 3.247 4.506 1.817 2.767 3.607 5.811 5.026 9.136.079.185.138.386.215.572-.455-.53-3.157-3.26-3.368-3.429-2.68-2.152-9.123-4.734-12.337-2.616-2.316 1.526-2.501 4.666-.82 6.729 1.716 2.106 5.01 2.701 7.575 2.607 2.956-.107 8.781-3.047 8.999-3.157 1.289 3.131 2.373 6.444 3.286 9.871.665 2.483 1.236 5.025 1.785 7.581-.607-.676-3.121-3.213-3.323-3.375-2.68-2.151-9.123-4.734-12.337-2.616-2.315 1.526-2.5 4.666-.82 6.728 1.716 2.106 5.01 2.701 7.575 2.607 2.886-.105 8.479-2.896 8.95-3.132.249 1.161.502 2.319.742 3.485.785 3.805 1.556 7.622 2.433 11.366.303 1.297.65 2.564.992 3.835-.942-.986-2.691-2.746-2.859-2.88-2.68-2.152-9.123-4.734-12.337-2.617-2.316 1.526-2.501 4.666-.82 6.729 1.716 2.106 5.01 2.701 7.575 2.607 2.577-.093 7.331-2.339 8.66-2.99.584 2.11 1.21 4.19 1.924 6.209.327.864.604 1.767.965 2.578l.542 1.292c-.477-.053-.742-.071-.742-.071s-.051 1.203.063 3.16c-2.829-2.015-6.905-3.75-9.558-2.532-2.52 1.157-3.179 4.233-1.831 6.526q.258.436.593.817c.419 3.039 2.159 6.416 3.654 8.142.144.166 2.068 1.94 3.07 2.824-.969-.525-1.932-1.044-2.931-1.608-1.444-.8-2.943-1.693-4.401-2.549l-2.241-1.43c-.772-.47-1.449-1.012-2.19-1.521-1.067-.769-2.129-1.617-3.191-2.46.903-1.421 3.481-5.636 3.855-8.094.386-2.538.172-5.878-1.724-7.824-1.857-1.906-4.998-2.08-6.778.045-2.471 2.951-.643 9.646 1.189 12.555.059.094.51.669 1.051 1.345-1.011-.855-2.025-1.704-3.02-2.605-2.826-2.554-5.626-5.243-8.443-7.926-.587-.559-1.181-1.109-1.77-1.666.766-1.192 3.599-5.733 3.991-8.309.386-2.538.173-5.878-1.724-7.824-1.857-1.905-4.998-2.08-6.778.046-2.471 2.951-.642 9.646 1.189 12.555.066.104.605.789 1.216 1.549a145 145 0 0 0-4.711-4.201c-2.788-2.369-5.662-4.552-8.613-6.446.274-.418 3.703-5.676 4.139-8.538.386-2.538.172-5.878-1.724-7.824-1.857-1.905-4.998-2.08-6.78.045-2.47 2.951-.641 9.647 1.19 12.555.13.206 2.1 2.669 2.834 3.525-.035-.022-.07-.05-.104-.072-3.117-1.96-6.334-3.445-9.454-4.706-3.11-1.262-6.147-2.187-8.962-2.965-2.815-.786-5.438-1.331-7.764-1.794a116 116 0 0 0-3.501-.611l.064-.051c.055-.045-3.868-2.589-4.134-2.722-3.078-1.529-9.924-2.674-12.611.082-1.936 1.985-1.445 5.093.638 6.748 2.127 1.691 5.472 1.567 7.957.927 2.547-.656 6.85-3.998 7.907-4.841 1.12.202 2.316.43 3.63.711 2.31.513 4.913 1.113 7.699 1.956.743.223 1.533.493 2.303.741-1.385-.148-3.288-.324-3.475-.321-3.436.062-10.04 2.2-11.154 5.884-.803 2.654 1.064 5.186 3.675 5.695 2.667.52 5.578-1.131 7.489-2.844 1.995-1.788 4.31-6.867 4.806-7.983 1.698.575 3.428 1.204 5.194 1.967 3.042 1.306 6.214 2.856 9.23 4.847.169.111.329.246.496.358-.672-.191-4.432-.977-4.701-1.002-3.422-.316-10.221 1.084-11.733 4.624-1.09 2.55.488 5.271 3.028 6.064 2.593.81 5.669-.511 7.757-2.004 2.406-1.72 5.643-7.385 5.764-7.598 2.802 1.901 5.534 4.065 8.186 6.421 1.924 1.704 3.803 3.509 5.671 5.338-.88-.229-4.375-.958-4.633-.982-3.422-.316-10.221 1.084-11.733 4.624-1.09 2.55.488 5.271 3.027 6.065 2.594.81 5.669-.511 7.757-2.004 2.349-1.68 5.475-7.093 5.737-7.55.848.831 1.698 1.657 2.541 2.497 2.754 2.74 5.503 5.499 8.299 8.138.969.915 1.957 1.78 2.943 2.652-1.33-.302-3.76-.805-3.973-.825-3.422-.316-10.221 1.084-11.733 4.623-1.09 2.55.488 5.271 3.028 6.064 2.593.81 5.669-.511 7.757-2.004 2.098-1.5 4.824-5.995 5.574-7.272 1.651 1.438 3.321 2.827 5.031 4.117.749.54 1.479 1.14 2.227 1.617l2.21 1.478c1.544.956 2.976 1.849 4.436 2.701.736.436 1.439.831 2.158 1.245-1.301-.508-3.376-1.278-3.573-1.327-3.335-.831-10.267-.477-12.298 2.793-1.464 2.355-.316 5.285 2.074 6.453 2.441 1.194 5.68.353 7.971-.806 2.525-1.278 6.324-5.981 6.786-6.559a206 206 0 0 0 5.13 2.839 236 236 0 0 0 11.122 5.584c9.595 8.298 23.104 9.212 23.104 9.212s.713-16.178-8.812-26.826c-3.453-3.856-7.779-6.455-11.891-8.206m-17.138 15.776c.301-.661 2.601-5.802 2.76-8.701.535-.098 1.07-.21 1.59-.331.921 4.449 2.668 9.672 5.959 14.245a231 231 0 0 1-5.639-2.769 207 207 0 0 1-4.67-2.444M228.148 123.634s-16.186.496-26.094 10.79-9.785 26.487-9.785 26.487 16.186-.496 26.094-10.79c9.907-10.294 9.785-26.487 9.785-26.487"/><g fill="#fff" opacity=".5"><path d="M122.923 60.92c.004-.003 5.308-4.19 6.668-6.88 1.158-2.291 1.997-5.531.801-7.971-1.17-2.389-4.1-3.535-6.454-2.07-3.268 2.033-3.618 8.965-2.786 12.3.072.288 1.716 4.665 1.771 4.621M73.845 95.846c.219.2 4.005 2.945 4.026 2.878.003-.005 2.117-6.423 1.767-9.417-.299-2.55-1.387-5.715-3.73-7.091-2.293-1.347-5.37-.687-6.525 1.834-1.605 3.498 1.928 9.474 4.462 11.796M185.071 67.271s-19.433 20.059-19.327 44.699 19.712 44.531 19.712 44.531 19.433-20.059 19.327-44.699c-.107-24.64-19.712-44.531-19.712-44.531"/><path d="M157.364 126.727c.275-.302.516-.599.703-.882 1.414-2.143 2.619-5.265 1.712-7.826-.888-2.508-3.666-3.982-6.173-2.798-2.638 1.246-3.932 5.477-4.211 8.938a50 50 0 0 0-2.816-.562l-1.055-2.37c-.385-.818-.651-1.643-.988-2.476-.465-1.231-.884-2.523-1.304-3.812 1.537-.687 6.012-2.78 7.68-4.624 1.722-1.904 3.386-4.807 2.878-7.476-.498-2.614-3.021-4.492-5.679-3.701-3.689 1.098-5.858 7.691-5.935 11.127-.003.112.056.839.135 1.702-.372-1.271-.748-2.539-1.082-3.839-.949-3.689-1.8-7.477-2.669-11.269-.181-.79-.374-1.576-.558-2.366 1.296-.572 6.165-2.797 7.912-4.728 1.722-1.904 3.387-4.808 2.878-7.477-.498-2.613-3.021-4.492-5.678-3.701-3.689 1.098-5.858 7.691-5.935 11.128-.003.123.07.992.159 1.963a143 143 0 0 0-1.612-6.102c-1.018-3.514-2.211-6.92-3.628-10.128.459-.197 6.22-2.691 8.162-4.838 1.722-1.904 3.386-4.808 2.878-7.477-.498-2.614-3.021-4.492-5.679-3.702-3.689 1.098-5.857 7.692-5.935 11.128-.005.244.28 3.385.419 4.504q-.023-.058-.047-.117c-1.518-3.354-3.382-6.368-5.289-9.141-1.898-2.769-3.921-5.215-5.839-7.417-1.914-2.208-3.802-4.11-5.486-5.78-.919-.896-1.776-1.7-2.583-2.441l.081-.007c.07-.007-1.798-4.293-1.947-4.55-1.724-2.973-6.803-7.705-10.564-6.889-2.71.588-4.015 3.45-3.191 5.98.84 2.583 3.699 4.325 6.125 5.163 2.486.859 7.919.444 9.266.325.823.786 1.694 1.636 2.636 2.596 1.643 1.702 3.483 3.639 5.342 5.878.497.595 1.007 1.257 1.513 1.888-1.073-.887-2.564-2.084-2.721-2.185-2.9-1.844-9.588-3.703-12.549-1.246-2.134 1.77-1.973 4.912-.076 6.778 1.937 1.905 5.276 2.134 7.816 1.759 2.65-.391 7.384-3.349 8.413-4.007 1.099 1.416 2.195 2.896 3.247 4.506 1.817 2.767 3.607 5.811 5.026 9.136.079.185.138.386.215.572-.455-.53-3.157-3.26-3.368-3.429-2.68-2.152-9.123-4.734-12.337-2.616-2.316 1.526-2.501 4.666-.82 6.729 1.716 2.106 5.01 2.701 7.575 2.607 2.956-.107 8.781-3.047 8.999-3.157 1.289 3.131 2.373 6.444 3.286 9.871.665 2.483 1.236 5.025 1.785 7.581-.607-.676-3.121-3.213-3.323-3.375-2.68-2.151-9.123-4.734-12.337-2.616-2.315 1.526-2.5 4.666-.82 6.728 1.716 2.106 5.01 2.701 7.575 2.607 2.886-.105 8.479-2.896 8.95-3.132.249 1.161.502 2.319.742 3.485.785 3.805 1.556 7.622 2.433 11.366.303 1.297.65 2.564.992 3.835-.942-.986-2.691-2.746-2.859-2.88-2.68-2.152-9.123-4.734-12.337-2.617-2.316 1.526-2.501 4.666-.82 6.729 1.716 2.106 5.01 2.701 7.575 2.607 2.577-.093 7.331-2.339 8.66-2.99.584 2.11 1.21 4.19 1.924 6.209.327.864.604 1.767.965 2.578l.542 1.292c-.477-.053-.742-.071-.742-.071s-.051 1.203.063 3.16c-2.829-2.015-6.905-3.75-9.558-2.532-2.52 1.157-3.179 4.233-1.831 6.526q.258.436.593.817c.419 3.039 2.159 6.416 3.654 8.142.144.166 2.068 1.94 3.07 2.824-.969-.525-1.932-1.044-2.931-1.608-1.444-.8-2.943-1.693-4.401-2.549l-2.241-1.43c-.772-.47-1.449-1.012-2.19-1.521-1.067-.769-2.129-1.617-3.191-2.46.903-1.421 3.481-5.636 3.855-8.094.386-2.538.172-5.878-1.724-7.824-1.857-1.906-4.998-2.08-6.778.045-2.471 2.951-.643 9.646 1.189 12.555.059.094.51.669 1.051 1.345-1.011-.855-2.025-1.704-3.02-2.605-2.826-2.554-5.626-5.243-8.443-7.926-.587-.559-1.181-1.109-1.77-1.666.766-1.192 3.599-5.733 3.991-8.309.386-2.538.173-5.878-1.724-7.824-1.857-1.905-4.998-2.08-6.778.046-2.471 2.951-.642 9.646 1.189 12.555.066.104.605.789 1.216 1.549a145 145 0 0 0-4.711-4.201c-2.788-2.369-5.662-4.552-8.613-6.446.274-.418 3.703-5.676 4.139-8.538.386-2.538.172-5.878-1.724-7.824-1.857-1.905-4.998-2.08-6.78.045-2.47 2.951-.641 9.647 1.19 12.555.13.206 2.1 2.669 2.834 3.525-.035-.022-.07-.05-.104-.072-3.117-1.96-6.334-3.445-9.454-4.706-3.11-1.262-6.147-2.187-8.962-2.965-2.815-.786-5.438-1.331-7.764-1.794a116 116 0 0 0-3.501-.611l.064-.051c.055-.045-3.868-2.589-4.134-2.722-3.078-1.529-9.924-2.674-12.611.082-1.936 1.985-1.445 5.093.638 6.748 2.127 1.691 5.472 1.567 7.957.927 2.547-.656 6.85-3.998 7.907-4.841 1.12.202 2.316.43 3.63.711 2.31.513 4.913 1.113 7.699 1.956.743.223 1.533.493 2.303.741-1.385-.148-3.288-.324-3.475-.321-3.436.062-10.04 2.2-11.154 5.884-.803 2.654 1.064 5.186 3.675 5.695 2.667.52 5.578-1.131 7.489-2.844 1.995-1.788 4.31-6.867 4.806-7.983 1.698.575 3.428 1.204 5.194 1.967 3.042 1.306 6.214 2.856 9.23 4.847.169.111.329.246.496.358-.672-.191-4.432-.977-4.701-1.002-3.422-.316-10.221 1.084-11.733 4.624-1.09 2.55.488 5.271 3.028 6.064 2.593.81 5.669-.511 7.757-2.004 2.406-1.72 5.643-7.385 5.764-7.598 2.802 1.901 5.534 4.065 8.186 6.421 1.924 1.704 3.803 3.509 5.671 5.338-.88-.229-4.375-.958-4.633-.982-3.422-.316-10.221 1.084-11.733 4.624-1.09 2.55.488 5.271 3.027 6.065 2.594.81 5.669-.511 7.757-2.004 2.349-1.68 5.475-7.093 5.737-7.55.848.831 1.698 1.657 2.541 2.497 2.754 2.74 5.503 5.499 8.299 8.138.969.915 1.957 1.78 2.943 2.652-1.33-.302-3.76-.805-3.973-.825-3.422-.316-10.221 1.084-11.733 4.623-1.09 2.55.488 5.271 3.028 6.064 2.593.81 5.669-.511 7.757-2.004 2.098-1.5 4.824-5.995 5.574-7.272 1.651 1.438 3.321 2.827 5.031 4.117.749.54 1.479 1.14 2.227 1.617l2.21 1.478c1.544.956 2.976 1.849 4.436 2.701.736.436 1.439.831 2.158 1.245-1.301-.508-3.376-1.278-3.573-1.327-3.335-.831-10.267-.477-12.298 2.793-1.464 2.355-.316 5.285 2.074 6.453 2.441 1.194 5.68.353 7.971-.806 2.525-1.278 6.324-5.981 6.786-6.559a206 206 0 0 0 5.13 2.839 236 236 0 0 0 11.122 5.584c9.595 8.298 23.104 9.212 23.104 9.212s.713-16.178-8.812-26.826c-3.453-3.856-7.779-6.455-11.891-8.206m-17.138 15.776c.301-.661 2.601-5.802 2.76-8.701.535-.098 1.07-.21 1.59-.331.921 4.449 2.668 9.672 5.959 14.245a231 231 0 0 1-5.639-2.769 207 207 0 0 1-4.67-2.444M228.148 123.634s-16.186.496-26.094 10.79-9.785 26.487-9.785 26.487 16.186-.496 26.094-10.79c9.907-10.294 9.785-26.487 9.785-26.487"/></g><path fill="#fff" d="m185.872 134.06 15.898-14.293-.683-.759-15.224 13.689-.081-18.734.084.058 13.446-19.662-.842-.576-12.695 18.562-.194-45.076-1.02.004.132 30.595-10.121-8.76-.667.772 10.794 9.34.094 21.877-15.342-13.574-.676.763 16.024 14.177.086 19.918-11.53-9.047-.629.802 12.165 9.546.055 12.822 1.019-.005-.097-22.443zM171.225 139.577l-1.013-.115-1.284 11.321-6.825-7.63.012-.002-1.731-13.701-1.011.128 1.548 12.254-16.968-18.968-.76.68 11.512 12.87-7.288.088.013 1.02 8.178-.099 8.073 9.024-11.399.013.002 1.02 12.308-.014 7.341 8.206-8.04.484.062 1.017 8.844-.532 4.889 5.465.76-.681-8.609-9.624zM209.64 143.613l13.535-2.748-.204-.999-12.105 2.458 17.649-18.336-.734-.707-11.975 12.441-.633-7.263-1.015.089.71 8.149-8.397 8.723-.864-11.366-1.018.078.934 12.273-7.635 7.932-1.083-7.981-1.01.138 1.191 8.781-5.084 5.281.733.707 8.955-9.303 12.294.471.039-1.019-11.385-.436 7.099-7.376z"/><path fill="#263238" d="M234.902 432.742 115.797 215.307l-82.282 27.857 26.69 51.897-1.69-2.897-4.973 1.658a3.64 3.64 0 0 0-2.086 5.117l13.161 25.591a8.68 8.68 0 0 0 9.147 4.592l3.646-.608 64.105 124.649z"/><path fill="#0A5840" stroke="#263238" stroke-linecap="round" stroke-linejoin="round" stroke-miterlimit="10" d="M311.837 121.428a5.5 5.5 0 0 1-7.466-2.181l-3.049-5.566-185.525 101.626 119.105 217.436 185.525-101.625-64.837-118.366a5.5 5.5 0 0 1 2.181-7.466 5.5 5.5 0 0 0 2.181-7.466l-40.65-74.21a5.5 5.5 0 0 0-7.465-2.182"/><path fill="#fff" stroke="#263238" stroke-linecap="round" stroke-linejoin="round" stroke-miterlimit="10" d="m321.076 129.493-150.68 53.698 71.922 201.819 150.68-53.697z"/><path fill="#fff" stroke="#263238" stroke-linecap="round" stroke-linejoin="round" stroke-miterlimit="10" d="m321.075 129.494-150.68 53.698 26.498 74.356 150.681-53.697z"/><path fill="#263238" stroke="#263238" stroke-linecap="round" stroke-linejoin="round" stroke-miterlimit="10" d="M309.413 205.882c11.252-7.142 14.584-22.054 7.442-33.306s-22.054-14.584-33.306-7.442-14.584 22.054-7.442 33.306 22.054 14.584 33.306 7.442"/><path fill="#fff" stroke="#263238" stroke-linecap="round" stroke-linejoin="round" stroke-miterlimit="10" d="M304.576 208.232c7.042-2.51 12.193-7.957 14.57-14.471-4.182-9.378-14.429-14.271-23.643-10.987s-14.056 13.554-11.365 23.464c5.961 3.543 13.396 4.504 20.438 1.994"/><path fill="#fff" stroke="#263238" stroke-linecap="round" stroke-linejoin="round" stroke-miterlimit="10" d="M306.372 176.852c2.267 6.36-1.052 13.354-7.412 15.621-6.361 2.267-13.354-1.052-15.621-7.412-2.267-6.361 1.052-13.354 7.412-15.621s13.354 1.051 15.621 7.412M245.818 186.145l-52.736 18.793 2.16 6.062 52.736-18.794zM251.002 200.693l-52.736 18.793 2.16 6.062 52.736-18.794z"/><path fill="#263238" d="m255.322 212.816-52.736 18.793 1.08 3.03 52.736-18.793zM257.915 220.09l-52.736 18.793 1.08 3.031 52.736-18.794zM271.092 257.065l-52.736 18.794 1.08 3.03 52.736-18.793zM273.468 263.733l-52.736 18.794 1.08 3.03 52.736-18.793zM275.845 270.401l-52.736 18.793 1.08 3.031 52.736-18.794zM342.618 231.575l-52.736 18.794 1.08 3.03 52.736-18.793zM344.996 238.242l-52.736 18.793 1.08 3.031 52.736-18.794zM347.372 244.91l-52.736 18.793 1.08 3.031 52.736-18.794z"/><path stroke="#263238" stroke-linecap="round" stroke-linejoin="round" stroke-miterlimit="10" d="m214.977 270.221 127.289-45.363"/><path fill="#263238" d="M283.406 291.616 230.67 310.41l1.08 3.03 52.736-18.793zM285.782 298.284l-52.736 18.793 1.08 3.031 52.736-18.794zM288.158 304.952l-52.736 18.793 1.08 3.031 52.736-18.794zM354.932 266.126l-52.736 18.794 1.08 3.03 52.736-18.793zM357.308 272.793l-52.736 18.794 1.08 3.03 52.736-18.794zM359.685 279.461l-52.736 18.793 1.08 3.031 52.736-18.794z"/><path stroke="#263238" stroke-linecap="round" stroke-linejoin="round" stroke-miterlimit="10" d="m227.29 304.771 127.289-45.363"/><path fill="#263238" stroke="#263238" stroke-linecap="round" stroke-linejoin="round" stroke-miterlimit="10" d="m364.438 292.797-124.869 44.5 10.801 30.308 124.868-44.5z"/><path fill="#fff" stroke="#263238" stroke-linecap="round" stroke-linejoin="round" stroke-miterlimit="10" d="m301.339 141.99-147.017 63.024 84.413 196.913 147.017-63.023z"/><path fill="#fff" stroke="#263238" stroke-linecap="round" stroke-linejoin="round" stroke-miterlimit="10" d="m301.339 141.989-147.017 63.023 31.1 72.549 147.018-63.023z"/><path fill="#263238" stroke="#263238" stroke-linecap="round" stroke-linejoin="round" stroke-miterlimit="10" d="M300.715 212.307c7.114-11.27 3.745-26.172-7.524-33.286s-26.172-3.746-33.286 7.524-3.746 26.172 7.524 33.286 26.172 3.745 33.286-7.524"/><path fill="#fff" stroke="#263238" stroke-linecap="round" stroke-linejoin="round" stroke-miterlimit="10" d="M289.819 221.598c6.871-2.946 11.671-8.704 13.635-15.355-4.761-9.097-15.294-13.339-24.285-9.485s-13.18 14.408-9.874 24.129c6.173 3.163 13.653 3.657 20.524.711"/><path fill="#fff" stroke="#263238" stroke-linecap="round" stroke-linejoin="round" stroke-miterlimit="10" d="M289.646 190.167c2.661 6.206-.214 13.394-6.419 16.055-6.206 2.661-13.394-.213-16.055-6.42s.213-13.394 6.419-16.054c6.207-2.661 13.395.213 16.055 6.419M229.778 203.238l-51.454 22.057 2.536 5.915 51.454-22.057zM235.863 217.433l-51.454 22.057 2.535 5.914 51.454-22.057z"/><path fill="#263238" d="m240.933 229.261-51.454 22.057 1.268 2.957 51.454-22.057zM243.976 236.359l-51.454 22.057 1.267 2.957 51.454-22.057zM259.442 272.436l-51.454 22.058 1.267 2.956 51.454-22.057zM262.231 278.941l-51.454 22.057 1.267 2.957 51.454-22.057zM265.019 285.447l-51.454 22.058 1.268 2.956 51.454-22.057zM329.231 242.518l-51.454 22.057 1.268 2.957 51.454-22.057zM332.02 249.025l-51.454 22.057 1.267 2.957 51.454-22.058zM334.809 255.529l-51.454 22.058 1.267 2.956 51.454-22.057z"/><path stroke="#263238" stroke-linecap="round" stroke-linejoin="round" stroke-miterlimit="10" d="m204.278 289.077 124.199-53.246"/><path fill="#263238" d="m273.894 306.148-51.454 22.057 1.267 2.957 51.454-22.057zM276.682 312.652l-51.453 22.058 1.267 2.956 51.454-22.057zM279.471 319.159l-51.454 22.057 1.268 2.957 51.454-22.057zM343.682 276.23l-51.454 22.058 1.268 2.956 51.454-22.057zM346.471 282.736l-51.454 22.057 1.268 2.957 51.454-22.057zM349.26 289.241l-51.454 22.057 1.267 2.957 51.454-22.057z"/><path stroke="#263238" stroke-linecap="round" stroke-linejoin="round" stroke-miterlimit="10" d="m218.731 322.788 124.198-53.246"/><path fill="#263238" stroke="#263238" stroke-linecap="round" stroke-linejoin="round" stroke-miterlimit="10" d="m354.838 302.254-121.834 52.227 12.677 29.571 121.833-52.227z"/><path fill="#fff" stroke="#263238" stroke-linecap="round" stroke-linejoin="round" stroke-miterlimit="10" d="m267.723 140.598-134.157 87.113 116.678 179.688 134.157-87.113z"/><path fill="#fff" stroke="#263238" stroke-linecap="round" stroke-linejoin="round" stroke-miterlimit="10" d="m267.724 140.6-134.157 87.113 42.988 66.203 134.157-87.113z"/><path fill="#263238" stroke="#263238" stroke-linecap="round" stroke-linejoin="round" stroke-miterlimit="10" d="M260.631 224.604c13.154-2.139 22.083-14.536 19.944-27.69s-14.536-22.084-27.69-19.944c-13.154 2.139-22.084 14.536-19.945 27.69s14.537 22.083 27.691 19.944"/><path fill="#0A5840" stroke="#263238" stroke-linecap="round" stroke-linejoin="round" stroke-miterlimit="10" d="M269.904 221.039c6.27-4.071 10.021-10.562 10.826-17.449-6.239-8.155-17.34-10.545-25.544-5.218s-10.539 16.439-5.628 25.457c6.62 2.066 14.075 1.282 20.346-2.79"/><path fill="#fff" stroke="#263238" stroke-linecap="round" stroke-linejoin="round" stroke-miterlimit="10" d="M264.39 190.095c3.677 5.663 2.067 13.235-3.596 16.912s-13.235 2.067-16.912-3.597-2.067-13.235 3.596-16.912 13.235-2.066 16.912 3.597M207.625 213.129l-46.953 30.488 3.504 5.397 46.953-30.488zM216.035 226.081l-46.953 30.488 3.505 5.397 46.952-30.488z"/><path fill="#263238" d="m223.043 236.874-46.953 30.489 1.752 2.698 46.953-30.488zM227.249 243.351l-46.953 30.488 1.752 2.698 46.953-30.488zM248.625 276.272l-46.953 30.488 1.752 2.698 46.953-30.488zM252.479 282.206l-46.953 30.489 1.752 2.698 46.953-30.488zM256.333 288.144l-46.953 30.489 1.752 2.698 46.953-30.489zM312.307 234.92l-46.953 30.488 1.752 2.698 46.953-30.488zM316.161 240.857l-46.953 30.488 1.752 2.698 46.953-30.488zM320.016 246.792l-46.953 30.489 1.752 2.698 46.953-30.489z"/><path stroke="#263238" stroke-linecap="round" stroke-linejoin="round" stroke-miterlimit="10" d="m197.08 302.079 113.338-73.587"/><path fill="#263238" d="m268.599 307.032-46.953 30.489 1.752 2.698 46.953-30.489zM272.453 312.969 225.5 343.457l1.752 2.698 46.953-30.488zM276.308 318.905l-46.953 30.488 1.752 2.698 46.953-30.488zM332.281 265.681l-46.953 30.489 1.752 2.698 46.953-30.489zM336.136 271.618l-46.953 30.488 1.752 2.698 46.953-30.488zM339.991 277.555l-46.953 30.488 1.752 2.698 46.953-30.488z"/><path stroke="#263238" stroke-linecap="round" stroke-linejoin="round" stroke-miterlimit="10" d="m217.054 332.842 113.338-73.587"/><path fill="#263238" stroke="#263238" stroke-linecap="round" stroke-linejoin="round" stroke-miterlimit="10" d="m347.7 289.427-111.176 72.19 17.522 26.985 111.176-72.191z"/><path fill="#0A5840" stroke="#263238" stroke-linecap="round" stroke-linejoin="round" stroke-miterlimit="10" d="M115.797 215.307 44.679 160.25l42.316 79.389c1.024 1.921-1.657 2.279-4.359.583-2.722-1.709-5.41-1.33-4.342.613l21.951 39.895c.264.479.737.987 1.349 1.449l10.713 8.079c.631.476 1.114 1.001 1.372 1.492l44.413 84.352 76.809 56.64z"/><path fill="#263238" stroke="#263238" stroke-linecap="round" stroke-linejoin="round" stroke-miterlimit="10" d="M115.797 215.307 44.679 160.25l42.316 79.389c1.024 1.921-1.657 2.279-4.359.583-2.722-1.709-5.41-1.33-4.342.613l21.951 39.895c.264.479.737.987 1.349 1.449l10.713 8.079c.631.476 1.114 1.001 1.372 1.492l44.413 84.352 76.809 56.64z" opacity=".25"/><path fill="#263238" d="M418.73 336.524a.17.17 0 0 0-.084-.086c-1.163-.512-11.046-.419-11.257.157-.027.072.049.162.201.264s.382.217.663.339.614.25.974.379.746.26 1.134.386a71 71 0 0 0 2.55.773c.359.103.582.163.582.163s-6.888 6.65-10.188 9.847c-1.801 1.745-4.544 3.867-6.667 5.438-.153-.153-.306-.308-.459-.455a22 22 0 0 0-2.108-1.798l.009-.267c-.672.47-1.376.803-2.689 1.464-3.484 1.753-13.238 6.136-16.721 13.148-2.815 5.665-5.047 9.224-5.801 10.384l.002.415v.045c-.094-.014-.184-.034-.28-.042-3.37-.289-9.792 1.948-14.512 4.281-3.463 1.712-8.941 5.533-11.619 7.451l-.003-.003-3.653 1.291c-1.335.195-3.778.499-4.11.914-.358.447-2.715.031-3.762.255s-.751.991-.751.991l1.965.193-13.128 4.639 10.615 8.414 14.314-5.332c.256.062.498.115.776.191 1.949.533 2.952.238 4.621-.413a21 21 0 0 0 1.491-.648c2.654-.35 10.748-2.129 13.559-2.754 2.105 2.864 8.123 7.67 9.151 9.755a1.5 1.5 0 0 1 .135.412.55.55 0 0 1-.012.268c-.461 1.253-1.336 2.556-1.846 3.261a28 28 0 0 0-4.233-1.343c-5.473-1.266-8.457 4.416-9.409 4.696-.952.281-2.11 1.124-.989 1.92 1.121.797-.568 1.545-1.247 2.622-.414.657-.697 1.862-.856 2.706-3.611.31-6.695 1.804-7.494 3.974-1.034 2.81 8.105 4.873 8.105 4.873s12.612 4.922 22.231 1.833 9.253-8.24 9.969-10.957 8.604-9.552 17.413-14.28 12.639-8.989 4.254-15.408c-5.5-4.211-10.335-6.232-14.324-6.393l.002-.004q.15-.356.314-.707c.067-.146.131-.293.202-.437.123-.251.257-.495.391-.74.066-.121.128-.244.197-.363q.312-.54.668-1.055c.451-.65.81-1.278 1.094-1.883 1.277-2.723 1.027-4.97.731-6.532-.164-.868-.342-1.525-.28-1.935.2-1.311 2.377-6.463 2.939-8.758q.052-.215.038-.474c-.027-.512-.244-1.143-.595-1.839 2.247-1.346 6.783-3.786 8.854-6.09 1.967-2.188 6.638-10.542 8.339-14.768l.002-.004q.104-.26.193-.497v-.001q.09-.239.162-.454l.003-.01q.07-.209.124-.392l.011-.044q.046-.164.079-.305l.009-.05c.017-.085.033-.168.041-.239.003-.026.001-.045.003-.07.004-.055.009-.112.005-.156-.002-.032-.012-.052-.018-.078-.007-.024-.01-.057-.02-.078m-53.135 56.282c-3.086.867-10.205 3.111-14.015 4.375l-6.991-6.415c1.698-.874 5.474-2.514 9.755-4.352 3.663-1.572 8.939-2.608 12.273-3.152.145.242.496.917.677 2.068.092.585.743 1.983 1.497 3.599-.568 1.388-1.937 2.692-3.196 3.877"/><path fill="#fff" stroke="#263238" stroke-linecap="round" stroke-linejoin="round" stroke-miterlimit="10" d="M406.75 288.382s3.843 11.684 5.25 19.415 4.359 23.823 4.359 23.823-7.418.418-7.551 1.632 9.79 5.985 11.273 5.533 2.328-30.669 1.439-37.524-5.626-15.974-6.012-18.065c-.386-2.09-1.18-6.068-1.18-6.068z"/><path fill="#0A5840" stroke="#263238" stroke-linecap="round" stroke-linejoin="round" stroke-miterlimit="10" d="M420.081 338.784c.368-.112.696-2.058.969-5.02-2.905 2.135-4.956-.006-4.956-.006l.265-2.138s-7.418.418-7.551 1.632 9.79 5.985 11.273 5.532"/><path fill="#fff" stroke="#263238" stroke-linecap="round" stroke-linejoin="round" stroke-miterlimit="10" d="M402.342 197.928s-11.78-12.141-13.535-12.948c-1.755-.806-2.359.971-1.862 2.049s12.485 16.929 14.512 18.994.885-8.095.885-8.095"/><path fill="#263238" stroke="#263238" stroke-linecap="round" stroke-linejoin="round" stroke-miterlimit="10" d="m371.777 163.54-15.784 11.382 18.681 26.945 14.434-12.143z"/><path fill="#0A5840" stroke="#263238" stroke-linecap="round" stroke-linejoin="round" stroke-miterlimit="10" d="m371.891 166.469-13.362 9.635 15.814 22.811 12.22-10.28z"/><path fill="#fff" d="M390.216 187.083s-.586-1.581-1.88-3.618-2.128-3.076-4.417-2.947-3.767-.222-5.079-.366c-1.311-.143-1.329 1.751-.641 2.395s4.496.492 4.496.492c-.39-.509-.095.325 2.428 3.793.71.976 3.195 1.168 3.757 1.23"/><path stroke="#263238" stroke-linecap="round" stroke-linejoin="round" stroke-miterlimit="10" d="M390.216 187.083s-.586-1.581-1.88-3.618-2.128-3.076-4.417-2.947-3.767-.222-5.079-.366c-1.311-.143-1.329 1.751-.641 2.395s4.496.492 4.496.492c-.39-.509-.095.325 2.428 3.793.71.976 3.195 1.168 3.757 1.23"/><path fill="#fff" stroke="#263238" stroke-linecap="round" stroke-linejoin="round" stroke-miterlimit="10" d="M407.125 143.747s-1.208 5.117-1.171 7.52 1.292 4.64-.319 5.663c-1.612 1.023-.949 3.195-.157 4.182.792.986.385 13.388 6.674 13.475 6.288.088 12.341-3.15 13.618-6.609s4.454-13.309.462-17.944-15.431-12.483-19.107-6.287"/><path stroke="#263238" stroke-linecap="round" stroke-linejoin="round" stroke-miterlimit="10" d="m407.357 155.24.997 1.817-1.2.039M407.164 152.315s1.875.034 2.049 3.127"/><path fill="#fff" stroke="#263238" stroke-linecap="round" stroke-linejoin="round" stroke-miterlimit="10" d="M417.152 172.734s.403 4.543-.018 8.395c-.039.359-.227.784-.534 1.261 2.562-1.689 6.639-4.181 9.976-5.327q.477-.165 1.002-.386c-.79-5.464-.762-12.784-.762-12.784zM390.316 292.43s-.532 13.553.601 18.183c1.132 4.629 5.351 42.924 5.177 46.386s-.328 4.879-.328 4.879-10.406 1.525-11.462 1.819-1.413 1.689 4.345 3.342 10.192 4.186 11.425 2.273 2.9-9.039 3.392-14.169c1.148-11.975 3.114-25.479 1.934-31.547s-4.251-13.571-3.827-15.573c.423-2.002 6.913-23.959 6.913-23.959z"/><path fill="#0A5840" stroke="#263238" stroke-linecap="round" stroke-linejoin="round" stroke-miterlimit="10" d="M400.073 369.311c.475-.737.885-2.275 1.288-4.168-3.056 1.603-6.803-.672-6.803-.672l1.208-2.594s-10.406 1.525-11.462 1.819-1.413 1.689 4.345 3.342c5.757 1.654 10.191 4.187 11.424 2.273M417.152 172.734s.403 4.543-.018 8.395c-.421 3.853-17.85 15.144-17.415 19.39s2.487 10.169 1.344 15.142-7.533 22.27-8.806 28.429-6.095 53.018-3.918 55.055 10.966 1.199 15.439-1.312c4.473-2.51 13.609-12.008 14.424-16.718s1.717-15.708 2.305-18.342c.588-2.635 5.186-9.03 4.671-20.783s3.74-25.983 4.744-35.171-.039-21.598-1.595-26.566c-1.556-4.969-1.511-16.36-1.511-16.36z"/><path fill="#263238" stroke="#263238" stroke-linecap="round" stroke-linejoin="round" stroke-miterlimit="10" d="M418.202 281.117c.815-4.71 1.717-15.708 2.305-18.342.588-2.635 5.186-9.03 4.671-20.783-.283-6.459.876-13.663 2.143-20.371-3.333 3.158-12.005 10.517-21.254 11.384-6.691.627-8.868-1.329-9.499-3.144-1.852 5.579-3.689 11.228-4.31 14.231-1.273 6.159-6.095 53.018-3.918 55.055s10.966 1.199 15.439-1.312c4.472-2.511 13.608-12.009 14.423-16.718"/><path stroke="#fff" stroke-linecap="round" stroke-linejoin="round" stroke-miterlimit="10" stroke-width=".5" d="m416.305 267.46-13.496 23.522M410.136 282.499l-6.17 12.34"/><path fill="#263238" d="M460.652 189.406c-2.608-11.302-9.998-15.214-16.518-19.126-2.982-1.789-3.961-4.85-4.149-7.647l-.326 3.038c-.149-1.758-.147-3.215.025-4.27.107-.657.25-1.374.405-2.141-.12.989-.186 2.156-.104 3.373l.671-6.263-.019.065c.989-5.609 1.457-13.078-4.423-20.905-7.854-10.456-23.552-6.773-23.552-6.773s-10.47-.245-11.118 5.683c-.648 5.927 3.247 11.452 8.517 12.627 0 0 1.067 2.288 2.292 5.689a5.25 5.25 0 0 0-1.255 1.876s1.739.869 2.608 6.52-7.824 16.083-6.955 23.038 8.259 6.955 7.824 10.867-5.651 3.043-5.216 7.824c.312 3.432 6.224 7.76 10.017 10.895-.199 3.437-.286 6.941-.064 9.975-1.8 3.173-3.644 7.317-3.433 12.6.257 6.437 6.212 8.73 11.858 7.215 1.56-.419 3.066-.99 4.521-1.675 5.326 2.137 18.259.486 24.482-9.886 6.52-10.867.435-14.345 0-22.169s6.52-9.128 3.912-20.43"/><path stroke="#263238" stroke-linecap="round" stroke-linejoin="round" stroke-miterlimit="10" d="M439.985 162.633c.188 2.797 1.167 5.858 4.149 7.647 6.52 3.912 13.91 7.824 16.518 19.126s-4.347 12.606-3.912 20.43 6.52 11.302 0 22.169c-6.223 10.372-19.156 12.023-24.482 9.886a27 27 0 0 1-4.521 1.675c-5.646 1.515-11.601-.778-11.858-7.215-.211-5.283 1.633-9.427 3.433-12.6-.222-3.034-.135-6.538.064-9.975-3.793-3.135-9.705-7.463-10.017-10.895-.435-4.781 4.781-3.912 5.216-7.824s-6.955-3.912-7.824-10.867 7.824-17.387 6.955-23.038-2.608-6.52-2.608-6.52a5.25 5.25 0 0 1 1.255-1.876c-1.225-3.401-2.292-5.689-2.292-5.689-5.27-1.175-9.165-6.7-8.517-12.627s11.118-5.683 11.118-5.683 15.698-3.683 23.552 6.773c5.88 7.827 5.412 15.296 4.423 20.905l.019-.065zm0 0-.326 3.038c-.149-1.758-.147-3.215.025-4.27.107-.657.25-1.374.405-2.141-.12.989-.186 2.156-.104 3.373"/><path stroke="#fff" stroke-linecap="round" stroke-linejoin="round" stroke-miterlimit="10" stroke-width=".5" d="M409.288 138.208c2.422 3.129 6.431 7.651 11.373 10.772 8.259 5.216 2.608 20.865-3.912 27.82s-5.216 13.475 2.173 16.953 20.43 7.39 13.041 19.996c-7.39 12.606-8.259 22.604 2.608 25.647M406.75 134.636s.601.97 1.696 2.458M443.817 237.925c1.527.32 3.039.09 4.229-.703M435.844 190.216c6.735 2.422 14.014 4.461 14.81 11.361 1.304 11.302-13.91 16.518-13.91 25.647 0 4.284 1.628 7.324 3.76 9.074"/><path stroke="#fff" stroke-linecap="round" stroke-linejoin="round" stroke-miterlimit="10" stroke-width=".5" d="M420.66 148.98s10.432 3.912 13.041 10.433c2.608 6.52-13.475 16.083-8.259 24.342 1.607 2.544 4.492 4.139 7.754 5.459M435.2 139.824s9.008 9.182 4.889 19.437-6.046 14.882-2.961 17.581 18.895 3.856 22.751 16.196"/><path fill="#fff" stroke="#263238" stroke-linecap="round" stroke-linejoin="round" stroke-miterlimit="10" d="M398.638 226.194s-9.095-6.728-13.402-14.162-7.916-13.767-7.827-14.577c.088-.81.531-4.857-.731-6.428-1.262-1.572-5.559-3.475-6.122-3.946s-1.73.835-.424 2.002a48 48 0 0 1 2.59 2.536l-8.367-2.143s-.762 1.35.161 2.27 3.554 1.208 3.646 2.242 2.748 2.963 3.874 3.905 1.733 1.009 1.733 1.009 4.795 16.088 8.157 22.804 8.501 14.036 12.077 15.041 7.949-5.275 7.949-5.275z"/><path fill="#0A5840" stroke="#263238" stroke-linecap="round" stroke-linejoin="round" stroke-miterlimit="10" d="M414.453 193.928s-4.872 3.358-6.393 7.902-9.28 15.574-10.399 18.319-2.061 3.87-2.061 3.87.977 6.046 5.142 9.163 5.423 2.845 5.423 2.845 14.952-24.374 17.415-30.044c2.462-5.669-2.68-14.832-9.127-12.055"/></svg>