<svg width="450" height="450" viewBox="0 0 450 450" fill="none" xmlns="http://www.w3.org/2000/svg">
<path d="M404.911 358.645H375.101V358.87H404.911V358.645Z" fill="#EBEBEB"/>
<path d="M298.098 361.087H290.274V361.312H298.098V361.087Z" fill="#EBEBEB"/>
<path d="M374.2 350.287H356.927V350.512H374.2V350.287Z" fill="#EBEBEB"/>
<path d="M86.0868 351.799H47.2131V352.024H86.0868V351.799Z" fill="#EBEBEB"/>
<path d="M99.8 351.799H94.1003V352.024H99.8V351.799Z" fill="#EBEBEB"/>
<path d="M202.632 355.6H118.324V355.825H202.632V355.6Z" fill="#EBEBEB"/>
<path d="M213.313 304.02H39.5234C36.6911 304.02 34.3862 301.715 34.3862 298.883V54.594C34.3862 51.7617 36.6911 49.4568 39.5234 49.4568H213.313C216.144 49.4568 218.449 51.7617 218.449 54.594V298.883C218.449 301.715 216.144 304.02 213.313 304.02ZM39.5234 49.6827C36.8144 49.6827 34.6112 51.8859 34.6112 54.5949V298.884C34.6112 301.593 36.8144 303.796 39.5234 303.796H213.313C216.021 303.796 218.224 301.593 218.224 298.884V54.594C218.224 51.8859 216.021 49.6818 213.313 49.6818L39.5234 49.6827Z" fill="#EBEBEB"/>
<path d="M407.979 304.02H234.191C231.358 304.02 229.054 301.715 229.054 298.883V54.594C229.054 51.7617 231.359 49.4568 234.191 49.4568H407.979C410.812 49.4568 413.116 51.7617 413.116 54.594V298.883C413.117 301.715 410.812 304.02 407.979 304.02ZM234.191 49.6827C231.483 49.6827 229.279 51.8859 229.279 54.5949V298.884C229.279 301.593 231.483 303.796 234.191 303.796H407.979C410.688 303.796 412.891 301.593 412.891 298.884V54.594C412.891 51.8859 410.688 49.6818 407.979 49.6818L234.191 49.6827Z" fill="#EBEBEB"/>
<path d="M450 344.158H0V344.383H450V344.158Z" fill="#EBEBEB"/>
<path d="M87.9264 90.2925H86.3064V216.622H87.9264V90.2925Z" fill="#E0E0E0"/>
<path d="M188.771 90.2925H187.151V216.622H188.771V90.2925Z" fill="#E0E0E0"/>
<path d="M195.116 98.235H79.9615L77.5315 92.565H197.547L195.116 98.235Z" fill="#EBEBEB"/>
<path d="M195.116 106.019H79.9615L77.5315 100.349H197.547L195.116 106.019Z" fill="#EBEBEB"/>
<path d="M195.116 113.804H79.9615L77.5315 108.134H197.547L195.116 113.804Z" fill="#EBEBEB"/>
<path d="M195.116 121.588H79.9615L77.5315 115.918H197.547L195.116 121.588Z" fill="#EBEBEB"/>
<path d="M195.116 129.372H79.9615L77.5315 123.702H197.547L195.116 129.372Z" fill="#EBEBEB"/>
<path d="M195.116 137.157H79.9615L77.5315 131.487H197.547L195.116 137.157Z" fill="#EBEBEB"/>
<path d="M195.116 144.941H79.9615L77.5315 139.271H197.547L195.116 144.941Z" fill="#EBEBEB"/>
<path d="M195.116 152.726H79.9615L77.5315 147.056H197.547L195.116 152.726Z" fill="#EBEBEB"/>
<path d="M195.116 160.51H79.9615L77.5315 154.84H197.547L195.116 160.51Z" fill="#EBEBEB"/>
<path d="M195.116 168.295H79.9615L77.5315 162.625H197.547L195.116 168.295Z" fill="#EBEBEB"/>
<path d="M195.116 176.08H79.9615L77.5315 170.41H197.547L195.116 176.08Z" fill="#EBEBEB"/>
<path d="M195.116 183.864H79.9615L77.5315 178.194H197.547L195.116 183.864Z" fill="#EBEBEB"/>
<path d="M195.116 191.649H79.9615L77.5315 185.979H197.547L195.116 191.649Z" fill="#EBEBEB"/>
<path d="M195.116 199.433H79.9615L77.5315 193.763H197.547L195.116 199.433Z" fill="#EBEBEB"/>
<path d="M195.116 207.217H79.9615L77.5315 201.547H197.547L195.116 207.217Z" fill="#EBEBEB"/>
<path d="M195.116 215.002H79.9615L77.5315 209.332H197.547L195.116 215.002Z" fill="#EBEBEB"/>
<path d="M197.547 215.002H77.5315V218.242H197.547V215.002Z" fill="#E0E0E0"/>
<path d="M201.731 85.464H73.3464V93.0249H201.731V85.464Z" fill="#E0E0E0"/>
<path d="M74.665 161.568C73.9432 161.568 73.3591 160.983 73.3591 160.262V116.167C73.3591 115.446 73.9441 114.862 74.665 114.862C75.3859 114.862 75.9709 115.447 75.9709 116.167V160.262C75.9709 160.983 75.3859 161.568 74.665 161.568Z" fill="#E0E0E0"/>
<path d="M75.1374 91.5075H74.1924V117.696H75.1374V91.5075Z" fill="#E0E0E0"/>
<path d="M227.755 257.027H218.801V140.853C218.801 139.485 219.91 138.375 221.278 138.375H225.278C226.646 138.375 227.756 139.484 227.756 140.853L227.755 257.027Z" fill="#E6E6E6"/>
<path d="M224.034 138.376H221.566C220.039 138.376 218.801 139.614 218.801 141.141V257.027H221.269V141.141C221.269 139.613 222.507 138.376 224.034 138.376Z" fill="#F0F0F0"/>
<path d="M230.359 249.372H216.261V344.384H230.359V249.372Z" fill="#EBEBEB"/>
<path d="M238.81 344.383H207.809V343.984C207.809 342.083 209.35 340.542 211.251 340.542H235.368C237.269 340.542 238.81 342.083 238.81 343.984V344.383H238.81Z" fill="#E6E6E6"/>
<path d="M356.774 297.45H379.499C383.582 297.45 386.893 294.14 386.893 290.056V256.834C386.893 256.089 386.289 255.484 385.543 255.484C384.797 255.484 384.193 256.089 384.193 256.834V290.056C384.193 292.648 382.091 294.75 379.499 294.75H356.774V297.45Z" fill="#E0E0E0"/>
<path d="M350.276 329.293V298.354L348.46 297.781C346.416 297.138 345.027 295.242 345.027 293.099H362.169C362.169 295.242 360.779 297.138 358.735 297.781L356.919 298.354V329.293L371.174 335.7V338.4L353.597 332.256L336.021 338.4V335.7L350.276 329.293Z" fill="#E0E0E0"/>
<path d="M331.181 294.748H376.014C378.7 294.748 380.878 292.571 380.878 289.885C380.878 287.199 378.701 285.021 376.014 285.021H331.181C328.495 285.021 326.317 287.198 326.317 289.885C326.317 292.57 328.495 294.748 331.181 294.748Z" fill="#F0F0F0"/>
<path d="M383.923 268.526L386.342 233.932C386.529 231.252 384.51 228.929 381.829 228.74C379.15 228.553 376.825 230.574 376.638 233.253L374.219 267.847C374.032 270.527 376.052 272.851 378.732 273.038C381.411 273.226 383.736 271.205 383.923 268.526Z" fill="#EBEBEB"/>
<path d="M368.099 340.296C368.099 341.995 369.476 343.372 371.174 343.372C372.872 343.372 374.249 341.995 374.249 340.296C374.249 338.598 372.872 337.221 371.174 337.221C369.476 337.221 368.099 338.598 368.099 340.296Z" fill="#E0E0E0"/>
<path d="M332.946 340.296C332.946 341.995 334.323 343.372 336.021 343.372C337.719 343.372 339.096 341.995 339.096 340.296C339.096 338.598 337.719 337.221 336.021 337.221C334.323 337.221 332.946 338.598 332.946 340.296Z" fill="#E0E0E0"/>
<path d="M90.3311 297.45H67.6061C63.5228 297.45 60.2126 294.14 60.2126 290.056V256.834C60.2126 256.089 60.8174 255.484 61.5626 255.484C62.3078 255.484 62.9126 256.089 62.9126 256.834V290.056C62.9126 292.648 65.0141 294.75 67.6061 294.75H90.3311V297.45Z" fill="#E0E0E0"/>
<path d="M96.8292 329.293V298.354L98.6454 297.781C100.689 297.138 102.079 295.242 102.079 293.099H84.9357C84.9357 295.242 86.3253 297.138 88.3692 297.781L90.1854 298.354V329.293L75.9312 335.7V338.4L93.5082 332.256L111.084 338.4V335.7L96.8292 329.293Z" fill="#E0E0E0"/>
<path d="M115.923 294.748H71.0909C68.4053 294.748 66.2273 292.571 66.2273 289.885C66.2273 287.199 68.4044 285.021 71.0909 285.021H115.924C118.61 285.021 120.788 287.198 120.788 289.885C120.787 292.57 118.61 294.748 115.923 294.748Z" fill="#F0F0F0"/>
<path d="M63.1817 268.526L60.7625 233.932C60.5753 231.252 62.5958 228.929 65.2751 228.74C67.9544 228.553 70.2791 230.573 70.4663 233.253L72.8855 267.847C73.0727 270.527 71.0522 272.851 68.3729 273.038C65.6936 273.226 63.3698 271.205 63.1817 268.526Z" fill="#EBEBEB"/>
<path d="M79.0056 340.296C79.0056 341.995 77.6286 343.372 75.9303 343.372C74.232 343.372 72.855 341.995 72.855 340.296C72.855 338.598 74.232 337.221 75.9303 337.221C77.6295 337.221 79.0056 338.598 79.0056 340.296Z" fill="#E0E0E0"/>
<path d="M114.159 340.296C114.159 341.995 112.782 343.372 111.083 343.372C109.385 343.372 108.008 341.995 108.008 340.296C108.008 338.598 109.385 337.221 111.083 337.221C112.783 337.221 114.159 338.598 114.159 340.296Z" fill="#E0E0E0"/>
<path d="M186.913 344.383H169.358L167.558 311.1H188.713L186.913 344.383Z" fill="#EBEBEB"/>
<path d="M173.408 344.383H166.208V342.9L173.408 342V344.383Z" fill="#E0E0E0"/>
<path d="M188.713 311.1H167.558V311.078C167.558 309.599 168.756 308.4 170.235 308.4H186.035C187.513 308.4 188.712 309.599 188.712 311.078V311.1H188.713Z" fill="#E0E0E0"/>
<path d="M150.908 258.068H122.818V254.7L150.908 252.9V258.068Z" fill="#E0E0E0"/>
<path d="M192.457 261.498H109.357V273H192.457V261.498Z" fill="#F0F0F0"/>
<path d="M209.682 258.068H92.4272V264.927H209.682V258.068Z" fill="#FAFAFA"/>
<path d="M198.79 344.383H204.088L194.922 264.928H188.713L198.79 344.383Z" fill="#E6E6E6"/>
<path d="M113.397 264.928H107.188L98.0225 344.383H103.32L113.397 264.928Z" fill="#E6E6E6"/>
<path d="M179.358 256.36C176.958 244.437 174.558 232.514 172.158 220.592C171.815 218.89 169.212 219.61 169.554 221.31C171.84 232.663 174.126 244.016 176.411 255.37C171.46 255.37 166.509 255.37 161.559 255.37C159.821 255.37 159.818 258.07 161.559 258.07C167.058 258.07 172.557 258.07 178.057 258.07C178.982 258.068 179.529 257.209 179.358 256.36Z" fill="#E0E0E0"/>
<path d="M162.552 246.766L167.177 180.627C170.647 183.113 172.58 187.221 172.282 191.479L169.118 236.731C168.82 240.989 166.334 244.787 162.552 246.766Z" fill="#FAFAFA"/>
<path d="M198.594 258.068H191.073C189.63 258.068 188.461 256.899 188.461 255.456V241.455C188.461 240.012 189.63 238.843 191.073 238.843H198.594C200.037 238.843 201.206 240.012 201.206 241.455V255.456C201.205 256.899 200.036 258.068 198.594 258.068Z" fill="#F5F5F5"/>
<path d="M193.5 231.685C191.508 231.685 189.895 232.178 189.895 232.787C189.895 233.395 191.509 232.573 193.5 232.573C193.763 232.573 194.017 232.589 194.264 232.612V236.974H195.403V232.781C196.422 232.976 197.105 233.181 197.105 232.787C197.105 232.178 195.491 231.685 193.5 231.685Z" fill="#E0E0E0"/>
<path d="M196.863 235.552H192.802V239.613H196.863V235.552Z" fill="#F0F0F0"/>
<path d="M254.648 273H337.748V261.498H254.648V273Z" fill="#F0F0F0"/>
<path d="M237.423 264.928H354.677V258.069H237.423V264.928Z" fill="#FAFAFA"/>
<path d="M248.315 344.383H243.017L252.184 264.928H258.393L248.315 344.383Z" fill="#E6E6E6"/>
<path d="M333.708 264.928H339.917L349.083 344.383H343.785L333.708 264.928Z" fill="#E6E6E6"/>
<path d="M299.104 58.9095H297.093V121.22H299.104V58.9095Z" fill="#E0E0E0"/>
<path d="M273.073 133.231L298.102 94.3776L323.132 133.231H273.073Z" fill="#E0E0E0"/>
<path d="M135.389 58.9095H133.377V108.978H135.389V58.9095Z" fill="#E0E0E0"/>
<path d="M109.357 131.59L134.387 92.7369L159.417 131.59H109.357Z" fill="#FAFAFA"/>
<path d="M220.66 381.343C317.034 381.343 395.16 376.78 395.16 371.152C395.16 365.524 317.034 360.961 220.66 360.961C124.286 360.961 46.1602 365.524 46.1602 371.152C46.1602 376.78 124.286 381.343 220.66 381.343Z" fill="#F5F5F5"/>
<path d="M312.043 365.787C312.025 365.688 311.998 365.598 311.971 365.499C311.935 365.346 311.89 365.202 311.845 365.058C311.791 364.914 311.746 364.779 311.692 364.635C311.683 364.626 311.683 364.617 311.683 364.599C311.629 364.473 311.575 364.356 311.521 364.23L295.627 329.058L292.837 322.875L290.641 318.024H241.87L242.707 322.875L243.778 329.058L249.358 361.287V361.296C249.376 361.413 249.394 361.521 249.403 361.638C249.412 361.746 249.421 361.863 249.412 361.971V362.052C249.412 362.16 249.403 362.268 249.394 362.385C249.376 362.493 249.358 362.61 249.34 362.718C249.34 362.727 249.34 362.736 249.331 362.745C249.313 362.871 249.277 362.988 249.241 363.105C249.223 363.186 249.196 363.267 249.16 363.348C249.16 363.357 249.151 363.375 249.142 363.393C249.133 363.411 249.124 363.438 249.115 363.465C249.106 363.483 249.097 363.51 249.088 363.528C249.043 363.627 248.998 363.717 248.944 363.807C248.89 363.915 248.836 364.014 248.764 364.113C248.764 364.122 248.764 364.131 248.755 364.131C248.737 364.158 248.719 364.185 248.701 364.212C248.647 364.284 248.593 364.356 248.53 364.428C248.458 364.527 248.368 364.617 248.287 364.707C248.143 364.86 247.972 365.004 247.801 365.13C247.666 365.229 247.513 365.328 247.36 365.4C247.261 365.463 247.153 365.517 247.045 365.553C246.928 365.607 246.82 365.643 246.703 365.679C246.694 365.688 246.685 365.688 246.676 365.688C246.667 365.697 246.649 365.706 246.631 365.706C246.532 365.742 246.424 365.76 246.316 365.787H246.307C246.055 365.841 245.785 365.868 245.506 365.868H224.149C223.942 365.868 223.744 365.895 223.546 365.958C223.411 366.003 223.294 366.057 223.168 366.12C222.88 366.273 222.628 366.507 222.439 366.777C222.367 366.885 222.304 367.002 222.25 367.128C222.142 367.38 222.088 367.65 222.088 367.938V370.242C222.088 370.53 222.142 370.8 222.25 371.052C222.304 371.178 222.367 371.295 222.439 371.403C222.628 371.673 222.88 371.907 223.168 372.06C223.294 372.123 223.411 372.177 223.546 372.222C223.744 372.285 223.942 372.312 224.149 372.312H310.018C310.486 372.312 310.918 372.168 311.269 371.925C311.395 371.844 311.512 371.745 311.602 371.646C311.71 371.538 311.8 371.43 311.881 371.313C311.962 371.196 312.025 371.07 312.079 370.944C312.088 370.935 312.088 370.935 312.088 370.935C312.196 370.665 312.259 370.368 312.259 370.062V367.668C312.258 367.029 312.187 366.399 312.043 365.787Z" fill="#263238"/>
<path opacity="0.2" d="M222.087 367.932V370.246C222.087 371.39 223.006 372.309 224.15 372.309H310.01C311.251 372.309 312.265 371.296 312.265 370.066V367.669C312.265 367.037 312.194 366.404 312.051 365.784C311.919 365.248 311.753 364.723 311.526 364.222L290.64 318.024H241.865L249.357 361.288C249.404 361.55 249.428 361.801 249.416 362.051C249.381 363.864 248.069 365.427 246.315 365.784C246.052 365.844 245.79 365.868 245.504 365.868H224.152C223.006 365.868 222.087 366.799 222.087 367.932Z" fill="white"/>
<path d="M314.278 364.226L293.396 318.02H290.636L311.517 364.226C312.007 365.308 312.259 366.483 312.259 367.671V370.065C312.259 371.305 311.254 372.31 310.014 372.31H312.774C314.014 372.31 315.02 371.305 315.02 370.065V367.671C315.021 366.483 314.767 365.308 314.278 364.226Z" fill="#263238"/>
<path opacity="0.3" d="M290.636 318.02H241.869L243.779 329.062H295.627L290.636 318.02Z" fill="black"/>
<path d="M386.778 164.907L375.042 299.007L373.62 315.261C373.251 319.464 369.552 322.875 365.349 322.875H157.269C153.075 322.875 149.961 319.464 150.33 315.261L151.752 299.007L163.488 164.907C163.848 160.704 167.556 157.302 171.759 157.302H379.83C381.567 157.302 383.124 157.887 384.321 158.868C384.492 159.012 384.663 159.156 384.807 159.318C385.275 159.786 385.68 160.317 385.986 160.911C386.202 161.298 386.373 161.712 386.499 162.153C386.76 163.008 386.859 163.935 386.778 164.907Z" fill="#263238"/>
<path d="M151.753 299.004L150.33 315.264C149.963 319.465 153.071 322.87 157.272 322.87H365.348C369.549 322.87 373.252 319.465 373.62 315.264L375.042 299.004H151.753Z" fill="#0A5840"/>
<path opacity="0.6" d="M151.753 299.004L150.33 315.264C149.963 319.465 153.071 322.87 157.272 322.87H365.348C369.549 322.87 373.252 319.465 373.62 315.264L375.042 299.004H151.753Z" fill="white"/>
<path d="M367.699 294.412H159.9C157.622 294.412 155.937 292.565 156.136 290.287L167.008 166.018C167.208 163.741 169.216 161.894 171.494 161.894H379.293C381.571 161.894 383.256 163.741 383.057 166.018L372.185 290.287C371.985 292.566 369.977 294.412 367.699 294.412Z" fill="#0A5840"/>
<path d="M384.434 157.302H379.833C384.034 157.302 387.142 160.708 386.775 164.909L373.621 315.264C373.253 319.465 369.549 322.87 365.349 322.87H369.949C374.151 322.87 377.854 319.465 378.222 315.264L391.377 164.909C391.743 160.708 388.635 157.302 384.434 157.302Z" fill="#263238"/>
<g opacity="0.2">
<path d="M384.434 157.302H379.833C384.034 157.302 387.142 160.708 386.775 164.909L373.621 315.264C373.253 319.465 369.549 322.87 365.349 322.87H369.949C374.151 322.87 377.854 319.465 378.222 315.264L391.377 164.909C391.743 160.708 388.635 157.302 384.434 157.302Z" fill="white"/>
</g>
<g opacity="0.1">
<path d="M237.711 161.894H229.719L201.551 294.412H209.544L237.711 161.894Z" fill="white"/>
<path d="M193.474 294.412L221.641 161.894H191.611L163.443 294.412H193.474Z" fill="white"/>
</g>
<path opacity="0.2" d="M297.424 367.948V370.147C297.424 371.341 296.455 372.31 295.26 372.31H224.151C223.009 372.31 222.084 371.385 222.084 370.243V367.938C222.084 366.797 223.009 365.871 224.151 365.871H245.508C245.785 365.871 246.051 365.842 246.308 365.785H295.261C296.455 365.784 297.424 366.753 297.424 367.948Z" fill="white"/>
<path opacity="0.2" d="M312.044 365.784H246.307C248.07 365.431 249.375 363.869 249.412 362.05H310.368L312.044 365.784Z" fill="black"/>
<path opacity="0.3" d="M374.189 183.775H274.184V298.993H374.189V183.775Z" fill="black"/>
<path d="M368.922 171.608H269.101V293.945H368.922V171.608Z" fill="white"/>
<path d="M368.922 171.608H269.101V178.845H368.922V171.608Z" fill="#263238"/>
<path opacity="0.1" d="M368.922 178.845H296.777V293.944H368.922V178.845Z" fill="black"/>
<path opacity="0.1" d="M320.594 181.602H300.331V205.035H320.594V181.602Z" fill="black"/>
<path opacity="0.1" d="M366.495 181.602H324.453V191.251H366.495V181.602Z" fill="black"/>
<path opacity="0.1" d="M366.495 195.386H324.453V247.423H366.495V195.386Z" fill="black"/>
<path opacity="0.1" d="M366.495 251.557H324.453V290.498H366.495V251.557Z" fill="black"/>
<path d="M324.453 213.995H296.547V222.954H324.453V213.995Z" fill="#0A5840"/>
<path d="M297.006 195.386H269.101V204.346H297.006V195.386Z" fill="#0A5840"/>
<path d="M366.495 260.086H324.453V264.739H366.495V260.086Z" fill="black"/>
<path d="M328.676 185.507L329.549 183.735L330.425 185.505L332.381 185.788L330.967 187.168L331.302 189.115L329.553 188.197L327.805 189.118L328.137 187.17L326.721 185.792L328.676 185.507Z" fill="#0A5840"/>
<path d="M336.638 185.507L337.511 183.735L338.386 185.505L340.342 185.788L338.928 187.168L339.264 189.115L337.514 188.197L335.766 189.118L336.099 187.17L334.683 185.792L336.638 185.507Z" fill="#0A5840"/>
<path d="M344.599 185.507L345.472 183.735L346.348 185.505L348.303 185.788L346.89 187.168L347.225 189.115L345.476 188.197L343.728 189.118L344.06 187.17L342.644 185.792L344.599 185.507Z" fill="#0A5840"/>
<path d="M352.561 185.507L353.434 183.735L354.309 185.505L356.264 185.788L354.851 187.168L355.187 189.115L353.437 188.197L351.689 189.118L352.021 187.17L350.606 185.792L352.561 185.507Z" fill="black"/>
<path d="M360.522 185.507L361.394 183.735L362.271 185.505L364.225 185.788L362.812 187.168L363.147 189.115L361.399 188.197L359.651 189.118L359.983 187.17L358.567 185.792L360.522 185.507Z" fill="black"/>
<path d="M327.447 200.427H343.982" stroke="#263238" stroke-miterlimit="10"/>
<path d="M327.447 208.182H340.493" stroke="#263238" stroke-miterlimit="10"/>
<path d="M327.447 214.953H340.493" stroke="#263238" stroke-miterlimit="10"/>
<path d="M327.447 221.725H340.493" stroke="#263238" stroke-miterlimit="10"/>
<path d="M327.447 228.496H340.493" stroke="#263238" stroke-miterlimit="10"/>
<path d="M327.447 235.267H340.493" stroke="#263238" stroke-miterlimit="10"/>
<path d="M327.447 242.039H340.493" stroke="#263238" stroke-miterlimit="10"/>
<path d="M342.298 208.182H355.345" stroke="#263238" stroke-miterlimit="10"/>
<path d="M342.298 214.953H355.345" stroke="#263238" stroke-miterlimit="10"/>
<path d="M342.298 221.725H355.345" stroke="#263238" stroke-miterlimit="10"/>
<path d="M342.298 228.496H355.345" stroke="#263238" stroke-miterlimit="10"/>
<path d="M342.298 235.267H355.345" stroke="#263238" stroke-miterlimit="10"/>
<path d="M342.298 242.039H355.345" stroke="#263238" stroke-miterlimit="10"/>
<path d="M327.447 203.012H355.345" stroke="#263238" stroke-miterlimit="10"/>
<path d="M327.447 256.469H355.345" stroke="#263238" stroke-miterlimit="10"/>
<path d="M300.331 208.182H320.594" stroke="#263238" stroke-miterlimit="10"/>
<path d="M300.331 227.899H320.594" stroke="#263238" stroke-miterlimit="10"/>
<path d="M300.331 235.437H320.594" stroke="#263238" stroke-miterlimit="10"/>
<path d="M300.331 242.976H320.594" stroke="#263238" stroke-miterlimit="10"/>
<path d="M300.331 250.514H320.594" stroke="#263238" stroke-miterlimit="10"/>
<path d="M300.331 258.052H320.594" stroke="#263238" stroke-miterlimit="10"/>
<path d="M300.331 265.592H320.594" stroke="#263238" stroke-miterlimit="10"/>
<path d="M300.331 273.13H320.594" stroke="#263238" stroke-miterlimit="10"/>
<path d="M300.331 280.669H320.594" stroke="#263238" stroke-miterlimit="10"/>
<path d="M300.331 211.088H310.463" stroke="#263238" stroke-miterlimit="10"/>
<path d="M272.593 183.735H293.528" stroke="#263238" stroke-miterlimit="10"/>
<path d="M272.593 189.553H293.528" stroke="#263238" stroke-miterlimit="10"/>
<path d="M272.593 211.088H293.528" stroke="#263238" stroke-miterlimit="10"/>
<path d="M300.368 204.924V202.065C306.711 199.804 313.629 199.733 320.018 201.861L320.631 202.065V204.924H300.368Z" fill="white"/>
<path d="M309.493 204.143C311.782 203.77 312.983 202.679 313.569 201.896C313.883 201.476 313.803 200.909 313.463 200.508C312.023 198.812 311.758 195.02 311.778 192.789L310.159 194.87L307.951 197.706C308.109 198.05 308.248 198.404 308.365 198.765C308.452 199.028 308.518 199.293 308.557 199.556L308.561 199.565L308.568 199.61C308.697 200.551 308.455 201.45 307.424 202.18C306.702 202.691 306.795 203.795 307.63 204.086C308.045 204.23 308.641 204.279 309.493 204.143Z" fill="#F7978D"/>
<path opacity="0.2" d="M307.951 197.706C308.109 198.05 308.248 198.404 308.365 198.765C308.452 199.028 308.518 199.293 308.557 199.556L308.561 199.565L308.568 199.61C309.526 199.177 310.622 197.824 310.544 196.759C310.52 196.409 310.458 196.065 310.36 195.725L307.951 197.706Z" fill="black"/>
<path d="M305.917 192.486C305.917 192.486 305.035 193.905 303.798 192.527C304.564 190.924 303.985 190.771 303.942 189.571C303.787 188.164 304.418 186.786 305.583 185.982L306.821 186.008C311.258 186.849 305.917 192.486 305.917 192.486Z" fill="#263238"/>
<path d="M313.054 188.648C312.479 186.303 310.111 184.868 307.766 185.443C304.321 186.199 302.88 190.935 302.985 193.966C302.998 194.842 303.279 195.693 303.788 196.406C305.173 198.346 307.869 198.796 309.81 197.411C311.803 196.026 312.147 194.111 313.009 190.903C313.221 190.168 313.236 189.391 313.054 188.648Z" fill="#F7978D"/>
<path d="M304.5 194.234C304.5 194.234 305.376 193.99 307.861 193.938C307.616 194.771 307.109 195.448 305.834 195.475C305.202 195.555 304.61 195.052 304.512 194.35C304.507 194.312 304.502 194.273 304.5 194.234Z" fill="#263238"/>
<path d="M306.386 194.802C305.895 194.783 305.417 194.934 305.02 195.236C305.265 195.401 305.547 195.481 305.829 195.465C306.319 195.486 306.796 195.335 307.192 195.033C306.949 194.863 306.667 194.783 306.386 194.802Z" fill="#FF5652"/>
<path d="M304.613 194.209C304.674 194.413 304.834 194.568 305.024 194.61C305.761 194.591 306.494 194.503 307.214 194.351C307.448 194.322 307.649 194.164 307.75 193.932C306.696 193.935 305.647 194.027 304.613 194.209Z" fill="white"/>
<path d="M311.864 195.152C311.864 195.152 310.432 191.916 310.551 190.867C310.589 189.611 311.398 188.524 312.656 188.035L313.869 188.285C319.116 190.455 311.864 195.152 311.864 195.152Z" fill="#263238"/>
<path d="M305.296 193.255C304.848 193.291 304.407 193.127 304.09 192.807C304.757 192.207 305.34 191.521 305.823 190.765L305.296 193.255Z" fill="#FF5652"/>
<path d="M312.979 191.686C312.159 191.554 311.272 192.571 310.916 193.318C310.521 194.151 310.789 194.94 311.663 194.745C312.357 194.556 312.964 194.131 313.381 193.544C313.908 192.806 313.799 191.819 312.979 191.686Z" fill="#F7978D"/>
<path d="M307.725 190.729C307.551 190.701 307.36 190.918 307.313 191.158C307.266 191.398 307.363 191.635 307.536 191.667C307.709 191.698 307.873 191.501 307.947 191.242C308.001 190.976 307.9 190.757 307.725 190.729Z" fill="#263238"/>
<path d="M304.767 190.067C304.592 190.039 304.409 190.228 304.356 190.492C304.302 190.757 304.398 190.998 304.572 191.025C304.747 191.053 304.931 190.861 304.985 190.596C305.037 190.336 304.941 190.095 304.767 190.067Z" fill="#263238"/>
<path d="M305.424 189.045C305.383 189.079 305.33 189.092 305.279 189.08C304.89 188.95 304.463 189.005 304.119 189.23C304.054 189.284 303.957 189.276 303.902 189.211C303.9 189.21 303.898 189.207 303.898 189.205C303.846 189.137 303.857 189.039 303.923 188.984C304.346 188.692 304.881 188.616 305.368 188.778C305.451 188.805 305.498 188.893 305.473 188.977C305.462 189.002 305.445 189.025 305.424 189.045Z" fill="#263238"/>
<path d="M308.642 190.339C308.589 190.342 308.539 190.318 308.506 190.278C308.279 189.936 307.909 189.717 307.499 189.683C307.415 189.686 307.343 189.62 307.34 189.535C307.34 189.532 307.34 189.529 307.34 189.526C307.342 189.44 307.41 189.371 307.496 189.367C308.009 189.397 308.478 189.666 308.763 190.093C308.811 190.165 308.794 190.264 308.724 190.315C308.699 190.328 308.671 190.337 308.642 190.339Z" fill="#263238"/>
<path d="M304.729 187.647C304.707 187.257 304.392 186.42 304.575 185.816C304.758 185.212 305.211 184.695 305.787 184.436C306.645 184.05 307.641 184.243 308.561 184.444C308.779 184.492 309.001 184.541 309.189 184.661C309.376 184.781 309.523 184.989 309.51 185.21C309.495 185.434 309.319 185.622 309.114 185.716C308.91 185.809 307.278 186.195 306.597 186.448C306.313 186.556 305.134 187.042 304.729 187.647Z" fill="#263238"/>
<path d="M314.874 185.905C316.077 186.839 316.427 188.914 315.845 190.255C315.6 190.819 315.004 191.776 315.004 191.776L312.778 190.251C311.746 189.729 310.991 188.82 310.547 187.753C310.412 187.426 310.212 187.125 309.958 186.879C309.348 186.286 308.44 186.016 307.605 186.182C307.292 186.244 306.869 186.313 306.739 186.022C306.596 185.705 307.056 185.161 307.394 184.857C308.72 183.668 311.174 183.033 314.874 185.905Z" fill="#263238"/>
<path opacity="0.2" d="M310.474 187.592C309.646 186.157 308.592 186.022 307.2 186.236C307.227 185.903 307.393 185.583 307.65 185.369C308.77 184.438 310.269 186.555 310.474 187.592Z" fill="black"/>
<path d="M306.614 186.001C306.5 186.115 306.434 186.266 306.386 186.419C306.138 187.206 306.345 188.078 306.743 188.801C306.367 188.423 306.152 187.915 305.995 187.405C305.896 187.084 305.817 186.75 305.832 186.414C305.846 186.078 305.963 185.736 306.208 185.504C306.453 185.274 306.837 185.18 307.14 185.326C307.326 185.416 307.629 185.757 307.408 185.923C307.203 186.076 306.895 185.718 306.614 186.001Z" fill="#263238"/>
<path opacity="0.3" d="M304.619 159.083V250.388H204.62V135.17H299.354V159.083H304.619Z" fill="black"/>
<path d="M299.354 123.002H199.535V245.339H299.354V123.002Z" fill="white"/>
<path d="M299.354 123.002H199.534V130.239H299.354V123.002Z" fill="#263238"/>
<path opacity="0.1" d="M299.353 130.238H227.209V245.339H299.353V130.238Z" fill="black"/>
<path opacity="0.1" d="M251.027 132.996H230.764V156.429H251.027V132.996Z" fill="black"/>
<path opacity="0.1" d="M296.928 132.996H254.885V142.645H296.928V132.996Z" fill="black"/>
<path opacity="0.1" d="M296.928 146.78H254.885V198.816H296.928V146.78Z" fill="black"/>
<path opacity="0.1" d="M296.928 202.952H254.885V241.893H296.928V202.952Z" fill="black"/>
<path d="M254.885 165.389H226.98V174.349H254.885V165.389Z" fill="#0A5840"/>
<path d="M227.439 146.78H199.534V155.74H227.439V146.78Z" fill="#0A5840"/>
<path d="M296.928 211.481H254.885V216.133H296.928V211.481Z" fill="black"/>
<path d="M259.109 136.902L259.982 135.129L260.858 136.9L262.814 137.182L261.4 138.562L261.735 140.51L259.986 139.592L258.238 140.512L258.57 138.565L257.154 137.187L259.109 136.902Z" fill="#0A5840"/>
<path d="M267.071 136.902L267.944 135.129L268.819 136.9L270.775 137.182L269.361 138.562L269.697 140.51L267.947 139.592L266.199 140.512L266.531 138.565L265.116 137.187L267.071 136.902Z" fill="#0A5840"/>
<path d="M275.032 136.902L275.905 135.129L276.781 136.9L278.736 137.182L277.322 138.562L277.658 140.51L275.909 139.592L274.161 140.512L274.493 138.565L273.077 137.187L275.032 136.902Z" fill="#0A5840"/>
<path d="M282.993 136.902L283.866 135.129L284.742 136.9L286.697 137.182L285.284 138.562L285.62 140.51L283.87 139.592L282.122 140.512L282.454 138.565L281.039 137.187L282.993 136.902Z" fill="black"/>
<path d="M290.955 136.902L291.828 135.129L292.704 136.9L294.658 137.182L293.245 138.562L293.581 140.51L291.831 139.592L290.084 140.512L290.416 138.565L289 137.187L290.955 136.902Z" fill="black"/>
<path d="M257.88 151.822H274.415" stroke="#263238" stroke-miterlimit="10"/>
<path d="M257.88 159.575H270.927" stroke="#263238" stroke-miterlimit="10"/>
<path d="M257.88 166.347H270.927" stroke="#263238" stroke-miterlimit="10"/>
<path d="M257.88 173.119H270.927" stroke="#263238" stroke-miterlimit="10"/>
<path d="M257.88 179.89H270.927" stroke="#263238" stroke-miterlimit="10"/>
<path d="M257.88 186.662H270.927" stroke="#263238" stroke-miterlimit="10"/>
<path d="M257.88 193.433H270.927" stroke="#263238" stroke-miterlimit="10"/>
<path d="M272.731 159.575H285.778" stroke="#263238" stroke-miterlimit="10"/>
<path d="M272.731 166.347H285.778" stroke="#263238" stroke-miterlimit="10"/>
<path d="M272.731 173.119H285.778" stroke="#263238" stroke-miterlimit="10"/>
<path d="M272.731 179.89H285.778" stroke="#263238" stroke-miterlimit="10"/>
<path d="M272.731 186.662H285.778" stroke="#263238" stroke-miterlimit="10"/>
<path d="M272.731 193.433H285.778" stroke="#263238" stroke-miterlimit="10"/>
<path d="M257.88 154.407H285.778" stroke="#263238" stroke-miterlimit="10"/>
<path d="M257.88 207.862H285.778" stroke="#263238" stroke-miterlimit="10"/>
<path d="M230.764 159.575H251.027" stroke="#263238" stroke-miterlimit="10"/>
<path d="M230.764 179.293H251.027" stroke="#263238" stroke-miterlimit="10"/>
<path d="M230.764 186.831H251.027" stroke="#263238" stroke-miterlimit="10"/>
<path d="M230.764 194.37H251.027" stroke="#263238" stroke-miterlimit="10"/>
<path d="M230.764 201.909H251.027" stroke="#263238" stroke-miterlimit="10"/>
<path d="M230.764 209.447H251.027" stroke="#263238" stroke-miterlimit="10"/>
<path d="M230.764 216.985H251.027" stroke="#263238" stroke-miterlimit="10"/>
<path d="M230.764 224.524H251.027" stroke="#263238" stroke-miterlimit="10"/>
<path d="M230.764 232.062H251.027" stroke="#263238" stroke-miterlimit="10"/>
<path d="M230.764 162.482H240.896" stroke="#263238" stroke-miterlimit="10"/>
<path d="M203.026 135.129H223.961" stroke="#263238" stroke-miterlimit="10"/>
<path d="M203.026 140.947H223.961" stroke="#263238" stroke-miterlimit="10"/>
<path d="M203.026 162.482H223.961" stroke="#263238" stroke-miterlimit="10"/>
<path d="M230.813 156.351V153.492C237.156 151.231 244.074 151.16 250.463 153.288L251.077 153.492V156.351H230.813Z" fill="#263238"/>
<path d="M244.017 146.092L241.889 147.784L238.994 150.088C239.159 150.421 239.262 150.782 239.299 151.152C239.406 151.974 239.187 152.726 238.245 153.136C237.849 153.238 237.309 155.1 239.735 155.35C241.379 155.566 242.515 155.193 243.651 154.384C244.2 153.878 244.374 153.584 244.042 152.858C243.088 150.804 243.482 148.155 244.017 146.092Z" fill="#DD8C6A"/>
<path opacity="0.2" d="M239.694 149.514L241.566 147.809C241.573 147.872 241.581 147.938 241.59 148.009C241.609 148.303 241.605 148.597 241.578 148.891C241.485 149.891 240.323 150.981 239.319 151.352L239.287 151.141C239.244 150.792 239.154 150.451 239.018 150.126C239.009 150.107 238.996 150.091 238.982 150.076L239.694 149.514Z" fill="black"/>
<path d="M238.219 144.578C237.201 141.52 237.759 139.964 236.593 138.239C235.893 137.79 234.365 138.973 234.876 141.466C235.388 143.959 238.219 144.578 238.219 144.578Z" fill="#263238"/>
<path d="M244.552 142.34C244.211 145.652 244.156 147.604 242.409 149.191C239.768 151.595 235.745 149.817 235.105 146.452C234.527 143.426 235.208 138.525 238.514 137.408C240.936 136.606 243.549 137.92 244.351 140.341C244.563 140.986 244.632 141.668 244.552 142.34Z" fill="#DD8C6A"/>
<path d="M244.489 145.318L243.043 145.391L242.763 143.189L241.433 142.132L241.054 138.684C241.054 138.684 244.097 138.66 245.27 138.685C245.68 138.694 246.922 140.006 247.06 140.499C247.45 141.892 246.908 143.36 245.833 144.329C245.42 144.701 244.97 145.032 244.489 145.318Z" fill="#263238"/>
<path d="M244.527 140.048C243.688 140.487 242.635 140.003 241.72 139.755C240.806 139.506 239.905 139.19 238.967 139.054C238.155 138.937 237.273 138.973 236.588 139.424C235.903 139.877 235.517 140.848 235.926 141.56C234.917 141.028 234.199 139.979 234.068 138.847C233.936 137.713 234.395 136.528 235.255 135.779C236.049 135.087 237.124 134.783 238.177 134.736C239.23 134.689 240.278 134.879 241.314 135.067C242.692 135.319 244.677 135.297 245.941 135.886C247.288 136.513 247.096 138.704 244.527 140.048Z" fill="#263238"/>
<path d="M245.796 144.953C245.592 145.669 245.133 146.285 244.505 146.685C243.688 147.189 242.969 146.335 243.042 145.391C243.113 144.549 243.755 143.419 244.65 143.3C245.544 143.179 246.047 144.06 245.796 144.953Z" fill="#DD8C6A"/>
<path d="M239.294 143.379C239.293 143.654 239.149 143.887 238.965 143.89C238.783 143.894 238.656 143.682 238.639 143.404C238.621 143.126 238.783 142.897 238.968 142.889C239.152 142.882 239.296 143.1 239.294 143.379Z" fill="#263238"/>
<path d="M236.162 143.476C236.164 143.757 236.015 143.987 235.833 143.991C235.65 143.995 235.507 143.777 235.506 143.505C235.505 143.232 235.654 142.998 235.834 142.994C236.013 142.988 236.162 143.201 236.162 143.476Z" fill="#263238"/>
<path d="M237.166 143.65C236.93 144.399 236.597 145.113 236.175 145.776C236.615 146.125 237.31 145.876 237.31 145.876L237.166 143.65Z" fill="#FF5652"/>
<path d="M237.553 147.495C238.203 147.496 238.826 147.23 239.274 146.76C239.304 146.726 239.301 146.675 239.267 146.644C239.231 146.616 239.181 146.621 239.15 146.655C238.654 147.16 237.951 147.406 237.248 147.318C237.203 147.309 237.16 147.339 237.152 147.384C237.143 147.429 237.173 147.472 237.218 147.48C237.221 147.481 237.225 147.481 237.229 147.482C237.337 147.493 237.445 147.497 237.553 147.495Z" fill="#263238"/>
<path d="M239.908 142.38C239.935 142.376 239.961 142.366 239.982 142.348C240.052 142.29 240.062 142.187 240.006 142.117C239.688 141.705 239.186 141.479 238.666 141.515C238.577 141.524 238.513 141.603 238.522 141.692C238.522 141.694 238.522 141.697 238.522 141.699C238.535 141.788 238.617 141.85 238.707 141.839C239.114 141.819 239.504 141.999 239.754 142.321C239.789 142.369 239.849 142.393 239.908 142.38Z" fill="#263238"/>
<path d="M236.145 141.679C236.16 141.655 236.168 141.628 236.171 141.601C236.163 141.511 236.083 141.444 235.993 141.451C235.473 141.477 235.002 141.763 234.736 142.211C234.695 142.29 234.724 142.388 234.804 142.429C234.883 142.472 234.981 142.441 235.022 142.362C235.237 142.015 235.609 141.796 236.018 141.776C236.074 141.768 236.122 141.731 236.145 141.679Z" fill="#263238"/>
<path opacity="0.3" d="M262.691 184.044H162.687V299.262H262.691V184.044Z" fill="black"/>
<path d="M257.423 171.878H157.603V294.214H257.423V171.878Z" fill="white"/>
<path d="M257.423 171.878H157.603V179.114H257.423V171.878Z" fill="#263238"/>
<path opacity="0.1" d="M257.423 179.114H185.279V294.214H257.423V179.114Z" fill="black"/>
<path opacity="0.1" d="M209.097 181.871H188.833V205.304H209.097V181.871Z" fill="black"/>
<path opacity="0.1" d="M254.997 181.871H212.954V191.52H254.997V181.871Z" fill="black"/>
<path opacity="0.1" d="M254.997 195.656H212.954V247.692H254.997V195.656Z" fill="black"/>
<path opacity="0.1" d="M254.997 251.826H212.954V290.767H254.997V251.826Z" fill="black"/>
<path d="M212.954 214.264H185.049V223.223H212.954V214.264Z" fill="#0A5840"/>
<path d="M185.508 195.656H157.603V204.615H185.508V195.656Z" fill="#0A5840"/>
<path d="M254.997 260.356H212.954V265.008H254.997V260.356Z" fill="black"/>
<path d="M217.179 185.776L218.051 184.004L218.928 185.774L220.882 186.057L219.469 187.438L219.804 189.384L218.055 188.466L216.308 189.387L216.64 187.439L215.223 186.061L217.179 185.776Z" fill="#0A5840"/>
<path d="M225.14 185.776L226.012 184.004L226.888 185.774L228.844 186.057L227.431 187.438L227.766 189.384L226.017 188.466L224.268 189.387L224.601 187.439L223.186 186.061L225.14 185.776Z" fill="#0A5840"/>
<path d="M233.101 185.776L233.974 184.004L234.849 185.774L236.805 186.057L235.391 187.438L235.727 189.384L233.977 188.466L232.23 189.387L232.563 187.439L231.146 186.061L233.101 185.776Z" fill="#0A5840"/>
<path d="M241.062 185.776L241.935 184.004L242.811 185.774L244.767 186.057L243.353 187.438L243.688 189.384L241.939 188.466L240.191 189.387L240.524 187.439L239.107 186.061L241.062 185.776Z" fill="#0A5840"/>
<path d="M249.024 185.776L249.897 184.004L250.772 185.774L252.728 186.057L251.314 187.438L251.65 189.384L249.9 188.466L248.152 189.387L248.485 187.439L247.069 186.061L249.024 185.776Z" fill="black"/>
<path d="M215.949 200.696H232.484" stroke="#263238" stroke-miterlimit="10"/>
<path d="M215.949 208.45H228.996" stroke="#263238" stroke-miterlimit="10"/>
<path d="M215.949 215.222H228.996" stroke="#263238" stroke-miterlimit="10"/>
<path d="M215.949 221.993H228.996" stroke="#263238" stroke-miterlimit="10"/>
<path d="M215.949 228.765H228.996" stroke="#263238" stroke-miterlimit="10"/>
<path d="M215.949 235.536H228.996" stroke="#263238" stroke-miterlimit="10"/>
<path d="M215.949 242.308H228.996" stroke="#263238" stroke-miterlimit="10"/>
<path d="M230.801 208.45H243.848" stroke="#263238" stroke-miterlimit="10"/>
<path d="M230.801 215.222H243.848" stroke="#263238" stroke-miterlimit="10"/>
<path d="M230.801 221.993H243.848" stroke="#263238" stroke-miterlimit="10"/>
<path d="M230.801 228.765H243.848" stroke="#263238" stroke-miterlimit="10"/>
<path d="M230.801 235.536H243.848" stroke="#263238" stroke-miterlimit="10"/>
<path d="M230.801 242.308H243.848" stroke="#263238" stroke-miterlimit="10"/>
<path d="M215.949 203.281H243.848" stroke="#263238" stroke-miterlimit="10"/>
<path d="M215.949 256.738H243.848" stroke="#263238" stroke-miterlimit="10"/>
<path d="M188.833 208.45H209.097" stroke="#263238" stroke-miterlimit="10"/>
<path d="M188.833 228.168H209.097" stroke="#263238" stroke-miterlimit="10"/>
<path d="M188.833 235.706H209.097" stroke="#263238" stroke-miterlimit="10"/>
<path d="M188.833 243.245H209.097" stroke="#263238" stroke-miterlimit="10"/>
<path d="M188.833 250.783H209.097" stroke="#263238" stroke-miterlimit="10"/>
<path d="M188.833 258.322H209.097" stroke="#263238" stroke-miterlimit="10"/>
<path d="M188.833 265.86H209.097" stroke="#263238" stroke-miterlimit="10"/>
<path d="M188.833 273.398H209.097" stroke="#263238" stroke-miterlimit="10"/>
<path d="M188.833 280.938H209.097" stroke="#263238" stroke-miterlimit="10"/>
<path d="M188.833 211.357H198.965" stroke="#263238" stroke-miterlimit="10"/>
<path d="M161.095 184.004H182.03" stroke="#263238" stroke-miterlimit="10"/>
<path d="M161.095 189.823H182.03" stroke="#263238" stroke-miterlimit="10"/>
<path d="M161.095 211.357H182.03" stroke="#263238" stroke-miterlimit="10"/>
<path d="M188.833 205.304V202.446C195.177 200.185 202.094 200.113 208.483 202.242L209.097 202.446V205.304H188.833Z" fill="#0A5840"/>
<path d="M197.193 184.827C195.921 184.412 194.48 184.775 193.397 185.561C192.315 186.348 191.558 187.512 191.029 188.742C190.736 189.425 190.526 190.279 190.988 190.862C191.469 191.471 192.387 191.432 193.158 191.337C194.378 189.076 195.822 186.998 197.193 184.827Z" fill="#263238"/>
<path d="M196.476 198.5C197.057 199.888 197.355 201.441 195.618 202.677C195.25 202.938 194.958 203.308 194.842 203.746C194.655 204.448 194.895 205.232 197.495 204.423C201.255 203.255 201.507 200.979 201.507 200.979C199.905 200.036 199.749 196.135 199.85 193.956L196.476 198.5Z" fill="#FFB573"/>
<path opacity="0.2" d="M198.916 197.04C198.956 197.99 197.679 199.184 196.834 199.578C196.749 199.208 196.631 198.846 196.481 198.499L198.479 195.809C198.706 196.185 198.856 196.603 198.916 197.04Z" fill="black"/>
<path d="M201.902 188.72C201.146 186.226 198.517 184.822 196.026 185.58C192.513 186.626 191.516 191.697 191.937 194.882C192.388 198.432 196.501 199.859 199.396 197.426C201.329 195.809 201.487 194.337 202.037 190.899C202.162 190.171 202.116 189.426 201.902 188.72Z" fill="#FFB573"/>
<path d="M194.044 193.817C193.671 193.874 193.293 193.763 193.009 193.515C193.505 192.977 193.925 192.372 194.257 191.72L194.044 193.817Z" fill="#ED893E"/>
<path d="M196.682 194.314C196.711 194.278 196.706 194.225 196.67 194.196C196.634 194.167 196.581 194.172 196.553 194.208C196.067 194.735 195.359 194.995 194.652 194.907C194.608 194.905 194.569 194.937 194.563 194.981C194.563 194.983 194.563 194.984 194.563 194.986C194.559 195.029 194.591 195.067 194.634 195.071C194.767 195.088 194.902 195.093 195.037 195.087C195.665 195.061 196.257 194.783 196.682 194.314Z" fill="#263238"/>
<path d="M193.993 185.998C195.24 185.873 196.526 186.608 197.052 187.745C197.305 188.291 197.39 188.897 197.522 189.483C197.654 190.07 197.85 190.67 198.27 191.102C198.69 191.533 199.389 191.743 199.912 191.446C200.199 192.465 201.186 193.406 202.231 193.569C201.454 194.694 200.493 195.877 199.716 197.002C199.996 197.875 200.027 198.042 200.307 198.915C201.871 198.534 203.82 197.017 204.786 195.102C205.699 193.29 205.879 191.046 204.17 190.985C204.775 189.77 203.672 187.228 202.761 186.222C201.85 185.216 200.521 184.679 199.189 184.417C198.291 184.241 197.356 184.176 196.465 184.384C195.574 184.595 194.478 185.222 193.993 185.998Z" fill="#263238"/>
<path d="M202.861 193.333C202.926 192.705 202.473 192.145 201.849 192.08C200.984 192.006 200.334 193.045 200.155 193.784C199.97 194.606 200.42 195.354 201.265 195.071C201.9 194.849 202.422 194.386 202.718 193.781C202.795 193.642 202.844 193.489 202.861 193.333Z" fill="#FFB573"/>
<path d="M197.364 190.015C197.393 190.01 197.42 189.997 197.444 189.979C197.516 189.919 197.526 189.812 197.466 189.74L197.464 189.737C197.064 189.23 196.442 188.95 195.797 188.987C195.705 189.002 195.64 189.085 195.649 189.177C195.66 189.269 195.742 189.335 195.834 189.326C196.367 189.303 196.878 189.539 197.208 189.959C197.246 190.004 197.305 190.025 197.364 190.015Z" fill="#263238"/>
<path d="M192.154 190.201C192.181 190.189 192.206 190.171 192.225 190.148C192.554 189.726 193.062 189.487 193.594 189.503C193.687 189.515 193.772 189.448 193.784 189.355V189.352C193.792 189.257 193.724 189.175 193.63 189.164C192.984 189.136 192.362 189.421 191.96 189.932C191.898 190.002 191.903 190.11 191.973 190.172C192.023 190.217 192.093 190.228 192.154 190.201Z" fill="#263238"/>
<path d="M196.53 190.871C196.517 191.182 196.34 191.428 196.133 191.422C195.927 191.416 195.777 191.155 195.794 190.84C195.811 190.524 195.984 190.283 196.186 190.291C196.388 190.297 196.542 190.556 196.53 190.871Z" fill="#263238"/>
<path d="M193.403 191.129C193.39 191.427 193.22 191.662 193.027 191.656C192.833 191.649 192.685 191.401 192.698 191.1C192.711 190.798 192.881 190.567 193.074 190.574C193.268 190.58 193.42 190.828 193.403 191.129Z" fill="#263238"/>
<path d="M193.16 190.593L192.453 190.358C192.453 190.358 192.796 190.932 193.16 190.593Z" fill="#263238"/>
<path d="M196.275 190.31L195.537 190.065C195.537 190.065 195.896 190.665 196.275 190.31Z" fill="#263238"/>
<path d="M81.5777 224.999C74.6135 224.966 74.6135 219.029 74.6135 219.029L133.782 155.422L134.087 154.046L137.48 157.206C137.48 157.206 137.46 157.254 137.397 157.336C137.206 157.691 85.4513 225.024 81.5777 224.999Z" fill="#263238"/>
<g opacity="0.5">
<path opacity="0.4" d="M170.671 140.883C162.9 152.891 149.898 162.107 141.715 157.829C141.794 157.74 141.809 157.688 141.809 157.688L137.343 155.241C134.328 152.547 132.627 148.573 132.19 143.913C131.513 136.751 133.783 128.001 138.752 119.921C147.509 105.685 161.784 99.3591 168.371 103.29C169.513 103.985 170.572 104.685 171.487 105.403L171.532 105.442C172.051 105.776 173.601 106.913 174.01 107.355C174.36 107.699 174.696 108.094 174.993 108.533C176.558 110.643 177.507 113.502 177.754 116.808C178.324 123.748 176.013 132.654 170.671 140.883Z" fill="white"/>
</g>
<path opacity="0.2" d="M177.72 116.593L137.31 155.025C134.295 152.331 132.594 148.357 132.158 143.698C132.171 143.646 132.178 143.62 132.178 143.62L174.96 108.318C176.525 110.428 177.474 113.287 177.72 116.593Z" fill="white"/>
<path d="M173.744 142.114C183.568 126.248 182.336 107.664 170.966 100.629C159.602 93.5829 142.427 100.774 132.601 116.622C123.034 132.087 123.942 150.094 134.482 157.529C134.765 157.752 135.059 157.937 135.364 158.128C136.613 158.898 137.924 159.509 139.301 159.93C150.405 163.49 164.988 156.248 173.744 142.114ZM140.802 156.94C140.176 156.764 139.583 156.516 139.011 156.191C138.929 156.151 138.838 156.103 138.763 156.053C138.635 155.966 138.5 155.89 138.383 155.81L138.277 155.738C137.738 155.388 137.22 155.005 136.757 154.566C129.774 148.209 130.486 133.012 138.726 119.708C147.532 105.499 161.954 99.2052 168.029 102.801C169.083 103.424 170.041 104.073 170.887 104.726L170.93 104.755C171.409 105.08 171.841 105.45 172.226 105.867C177.656 111.512 175.96 125.388 167.862 138.461C159.817 151.433 148.273 159.121 140.802 156.94Z" fill="#263238"/>
<g opacity="0.4">
<path opacity="0.4" d="M170.636 140.657C162.866 152.684 149.863 161.9 141.69 157.607C141.756 157.533 141.774 157.469 141.774 157.469L140.813 156.934C148.262 159.121 159.818 151.428 167.865 138.461C175.962 125.393 177.663 111.527 172.228 105.874C172.048 105.688 171.867 105.501 171.66 105.33C172.263 105.746 173.611 106.729 173.981 107.151C174.331 107.475 174.658 107.887 174.958 108.312C176.528 110.438 177.465 113.292 177.73 116.588C178.282 123.529 175.977 132.443 170.636 140.657Z" fill="black"/>
</g>
<path d="M58.0509 281.394C58.4028 283.751 60.7698 285.212 62.9712 286.125C66.9375 287.772 71.1891 288.729 75.4785 288.941C78.6393 277.511 81.0927 265.46 82.26 253.658C71.6454 260.24 56.2077 269.042 58.0509 281.394Z" fill="#263238"/>
<path opacity="0.2" d="M58.0509 281.394C58.4028 283.751 60.7698 285.212 62.9712 286.125C66.9375 287.772 71.1891 288.729 75.4785 288.941C78.6393 277.511 81.0927 265.46 82.26 253.658C71.6454 260.24 56.2077 269.042 58.0509 281.394Z" fill="black"/>
<path d="M111.776 138.892C112.117 138.834 112.471 139.195 112.571 139.711C112.67 140.226 112.483 140.704 112.142 140.762C111.8 140.819 111.447 140.458 111.347 139.943C111.221 139.41 111.434 138.95 111.776 138.892Z" fill="#263238"/>
<path d="M112.693 145.724C113.587 145.78 114.459 145.437 115.076 144.788C113.795 143.628 112.678 142.299 111.756 140.837L112.693 145.724Z" fill="#B74D3C"/>
<path d="M109.121 137.382C109.635 136.779 110.408 136.463 111.198 136.531C111.23 136.543 111.264 136.549 111.299 136.55C111.473 136.552 111.616 136.414 111.618 136.24C111.621 136.067 111.482 135.924 111.308 135.922C110.323 135.808 109.344 136.179 108.681 136.916C108.631 136.971 108.601 137.043 108.599 137.118C108.593 137.291 108.73 137.436 108.903 137.442C108.98 137.451 109.058 137.429 109.121 137.382Z" fill="#263238"/>
<path d="M105.059 168.704C96.1919 168.616 94.9355 163.763 94.9355 163.763C97.6211 161.24 97.8524 156.514 97.3781 152.284C98.0333 153.252 98.8622 154.098 99.9629 154.859C102.055 156.297 104.342 156.628 106.429 156.155C106.465 156.156 106.502 156.144 106.54 156.119C106.515 156.206 106.501 156.291 106.489 156.378C105.889 159.746 106.284 163.372 109.807 164.503C109.805 164.503 114.825 168.802 105.059 168.704Z" fill="#CB7A63"/>
<path d="M106.81 154.878C106.707 155.283 106.605 155.689 106.539 156.119C106.502 156.144 106.465 156.155 106.428 156.155C104.341 156.627 102.054 156.297 99.962 154.859C98.8613 154.097 98.0324 153.251 97.3772 152.285C97.2647 151.212 97.091 150.163 96.9146 149.201L106.454 154.679L106.81 154.878Z" fill="#CB7A63"/>
<path d="M92.2192 164.523C92.2192 164.523 93.7105 160.227 95.8525 158.905C97.9945 157.583 107.245 159.193 108.687 159.792C110.129 160.392 111.527 163.773 111.527 163.773L92.2192 164.523Z" fill="#263238"/>
<path opacity="0.5" d="M92.2192 164.523C92.2192 164.523 93.7105 160.227 95.8525 158.905C97.9945 157.583 107.245 159.193 108.687 159.792C110.129 160.392 111.527 163.773 111.527 163.773L92.2192 164.523Z" fill="white"/>
<path d="M113.31 147.775C113.178 151.051 111.329 153.778 108.789 155.231H108.777C108.764 155.244 108.752 155.243 108.74 155.243C108.058 155.655 107.317 155.943 106.538 156.119C106.501 156.144 106.464 156.155 106.427 156.155C104.34 156.627 102.054 156.297 99.961 154.859C98.8603 154.097 98.0314 153.251 97.3762 152.284C95.6887 149.866 95.0308 146.669 93.8806 142.175C93.5242 140.854 93.4765 139.461 93.7492 138.122C94.7212 133.329 99.3949 130.234 104.176 131.206C110.889 132.541 113.567 141.792 113.31 147.775Z" fill="#CB7A63"/>
<path opacity="0.2" d="M108.74 155.243C108.059 155.655 107.318 155.943 106.539 156.119C106.502 156.144 106.861 152.182 106.861 152.182C106.838 152.115 108.272 155.238 108.74 155.243Z" fill="black"/>
<path d="M92.2193 139.828C91.3643 141.619 89.3096 143.664 88.4546 145.455C87.9965 146.416 87.5285 147.439 87.6959 148.474C87.8633 149.51 88.9433 150.495 90.0593 150.245C89.1665 151.528 89.8334 153.634 91.2041 154.498C92.5748 155.363 94.6709 155.058 95.6771 153.848C96.5348 154.82 97.2566 155.537 98.6264 155.558C99.9962 155.578 101.364 155.02 102.257 154.074C103.491 155.348 105.557 155.921 107.203 155.122C108.849 154.323 109.755 152.436 109.28 150.794C108.908 149.51 108.431 147.502 108.598 146.182C108.598 146.182 110.537 143.339 109.746 141.623L108.896 136.246C107.493 135.085 105.534 134.585 103.637 134.617C101.739 134.649 99.8909 135.17 98.1422 135.84C95.6969 136.777 93.2768 137.612 92.2193 139.828Z" fill="#263238"/>
<path d="M106.934 139.539C108.787 140.125 109.702 142.89 109.745 144.636C109.795 146.565 108.483 147.756 106.83 146.431C105.585 145.411 104.71 144.01 104.34 142.445C103.922 140.547 105.081 138.954 106.934 139.539Z" fill="#CB7A63"/>
<path d="M89.4383 367.472C88.5113 367.421 87.6977 367.258 87.4511 366.835C87.3188 366.615 87.3476 366.33 87.5213 366.125C87.6536 365.935 87.8597 365.809 88.0865 365.776C89.2664 365.525 91.5596 367.029 91.6838 367.091C91.7378 367.128 91.7611 367.196 91.7413 367.261C91.7278 367.33 91.6694 367.384 91.5983 367.393C90.8792 367.481 90.1565 367.507 89.4383 367.472ZM88.4671 366.075C88.3645 366.055 88.2584 366.049 88.1522 366.058C88.0118 366.073 87.8839 366.152 87.8047 366.27C87.6733 366.467 87.7013 366.561 87.7697 366.63C88.0505 367.09 89.801 367.194 91.1069 367.088C90.3113 366.574 89.4149 366.224 88.469 366.056L88.4671 366.075Z" fill="#0A5840"/>
<path d="M91.5541 367.373L91.4893 367.369C90.6829 366.945 89.1682 365.391 89.3761 364.596C89.3941 364.412 89.5741 364.19 90.0322 364.169C90.3697 364.147 90.6955 364.265 90.9313 364.495C91.7863 365.272 91.7539 367.132 91.7557 367.216C91.7485 367.274 91.7161 367.326 91.6675 367.359C91.6315 367.378 91.5919 367.382 91.5541 367.373ZM90.1285 364.516L90.0358 364.511C89.7397 364.495 89.7064 364.641 89.6938 364.677C89.5732 365.143 90.5794 366.374 91.3912 366.936C91.384 366.144 91.1329 365.385 90.673 364.757C90.5308 364.598 90.331 364.501 90.1132 364.486L90.1285 364.516Z" fill="#0A5840"/>
<path d="M100.014 351.687L93.1201 351.315L92.2651 367.244L99.1996 367.619L100.014 351.687Z" fill="#CB7A63"/>
<path d="M90.6596 366.898C85.6826 369.525 84.2219 369.576 78.6635 370.466C77.4485 370.661 77.9435 373.583 80.7965 373.737C85.5179 373.991 86.0327 373.795 90.0557 374.012C93.5036 374.198 97.4474 374.569 100.184 374.764C100.268 374.77 100.353 374.765 100.437 374.75C100.989 374.651 101.372 374.129 101.294 373.585L100.507 367.364C100.469 367.086 100.242 366.878 99.9584 366.862L92.3777 366.453C91.7828 366.441 91.187 366.595 90.6596 366.898Z" fill="#263238"/>
<path opacity="0.2" d="M100.022 351.696L99.5138 361.318L92.5901 360.946L93.1193 351.324L100.022 351.696Z" fill="black"/>
<path d="M109.611 212.774C109.611 212.774 109.024 258.74 107.469 280.399C106.015 300.586 101.504 359.393 101.504 359.393L89.7892 358.761C89.7892 358.761 87.3322 298.335 87.1099 277.741C86.8912 258.242 85.9399 211.872 85.9399 211.872L109.611 212.774Z" fill="#0A5840"/>
<path d="M109.611 212.774C109.611 212.774 109.024 258.74 107.469 280.399C106.015 300.586 101.504 359.393 101.504 359.393L89.7892 358.761C89.7892 358.761 87.3322 298.335 87.1099 277.741C86.8912 258.242 85.9399 211.872 85.9399 211.872L109.611 212.774Z" fill="#263238"/>
<path opacity="0.6" d="M109.611 212.774C109.611 212.774 109.024 258.74 107.469 280.399C106.015 300.586 101.504 359.393 101.504 359.393L89.7892 358.761C89.7892 358.761 87.3322 298.335 87.1099 277.741C86.8912 258.242 85.9399 211.872 85.9399 211.872L109.611 212.774Z" fill="white"/>
<path d="M103.614 355.387L102.825 359.658L88.5788 358.89C88.5788 358.89 88.3439 354.041 88.3997 354.045L103.614 355.387Z" fill="#263238"/>
<g opacity="0.5">
<path d="M103.614 355.387L102.825 359.658L88.5788 358.89C88.5788 358.89 88.3439 354.041 88.3997 354.045L103.614 355.387Z" fill="white"/>
</g>
<path d="M160.732 366.185C160.651 365.264 160.689 364.432 161.058 364.094C161.26 363.917 161.548 363.884 161.777 364.014C161.976 364.109 162.128 364.279 162.201 364.487C162.624 365.593 161.484 368.167 161.43 368.294C161.407 368.361 161.341 368.403 161.272 368.396C161.204 368.392 161.148 368.347 161.131 368.281C160.937 367.596 160.804 366.895 160.732 366.185ZM161.97 364.931C161.976 364.826 161.967 364.72 161.942 364.619C161.907 364.484 161.812 364.375 161.683 364.323C161.471 364.234 161.373 364.283 161.324 364.362C160.91 364.734 161.064 366.474 161.372 367.734C161.747 366.842 161.95 365.89 161.97 364.931Z" fill="#0A5840"/>
<path d="M161.118 368.236C161.113 368.214 161.112 368.193 161.113 368.171C161.408 367.3 162.736 365.478 163.53 365.511C163.714 365.49 163.959 365.621 164.045 366.058C164.118 366.385 164.047 366.732 163.85 367.01C163.222 368.011 161.373 368.375 161.3 368.392C161.243 368.409 161.183 368.39 161.147 368.345C161.122 368.314 161.112 368.275 161.118 368.236ZM163.734 366.232C163.734 366.232 163.729 366.168 163.725 366.131C163.699 365.836 163.55 365.834 163.513 365.838C163.036 365.817 161.975 367.069 161.543 367.984C162.32 367.812 163.031 367.408 163.582 366.826C163.708 366.652 163.772 366.442 163.761 366.23L163.734 366.232Z" fill="#0A5840"/>
<path d="M156.045 352.666L149.388 353.884L154.529 369.499L161.233 368.27L156.045 352.666Z" fill="#CB7A63"/>
<path d="M162.778 367.204C164.788 369.152 165.848 370.154 171.284 371.231C172.481 371.462 171.695 374.375 168.841 374.44C164.123 374.542 166.704 374.265 162.687 374.355C159.248 374.428 155.292 374.68 152.557 374.787C152.465 374.794 152.374 374.788 152.284 374.77C151.739 374.66 151.398 374.125 151.521 373.575L152.912 367.36C152.971 367.08 153.22 366.877 153.503 366.876L161.067 366.706C161.686 366.636 162.301 366.815 162.778 367.204Z" fill="#263238"/>
<path opacity="0.2" d="M156.054 352.674L158.713 360.69L152.037 361.913L149.388 353.884L156.054 352.674Z" fill="black"/>
<path opacity="0.3" d="M109.41 242.986C108.537 258.551 107.727 277.196 107.095 287.543C107.066 288.042 107.023 288.562 106.997 289.113C104.118 272.682 99.8234 245.925 107.763 243.157C108.178 242.998 108.961 242.952 109.41 242.986Z" fill="black"/>
<path d="M89.0837 214.908C89.0837 214.908 90.629 230.926 93.1247 237.955C96.6554 247.9 101.056 251.101 104.44 257.052C110.401 267.53 113.723 276.546 117.747 284.883C130.35 310.966 147.788 356.947 147.788 356.947L160.391 356.062L115.774 214.146L89.0837 214.908Z" fill="#263238"/>
<path opacity="0.6" d="M89.0837 214.908C89.0837 214.908 90.629 230.926 93.1247 237.955C96.6554 247.9 101.056 251.101 104.44 257.052C110.401 267.53 113.723 276.546 117.747 284.883C130.35 310.966 147.788 356.947 147.788 356.947L160.391 356.062L115.774 214.146L89.0837 214.908Z" fill="white"/>
<path d="M162.639 353.378L162.793 357.705L148.153 359.893C148.153 359.893 146.826 355.216 146.882 355.214L162.639 353.378Z" fill="#263238"/>
<g opacity="0.5">
<path d="M162.639 353.378L162.793 357.705L148.153 359.893C148.153 359.893 146.826 355.216 146.882 355.214L162.639 353.378Z" fill="white"/>
</g>
<path d="M92.9015 203.018C92.2895 204.544 90.8432 207.596 88.6454 209.392C88.1432 209.794 87.4709 209.904 86.8778 209.684C86.8778 209.684 83.0024 207.284 82.691 206.21C82.6712 206.13 82.6712 206.069 82.6811 206.009L83.645 201.542C83.645 201.542 83.6855 201.532 83.7656 201.501C84.4685 201.27 88.2431 200.105 89.8694 200.758L92.3795 201.762C92.8709 201.964 93.1121 202.525 92.9015 203.018Z" fill="#CB7A63"/>
<path d="M86.5681 175.324L73.402 188.143L83.7646 201.501C83.6845 201.531 83.644 201.541 83.644 201.541L82.6801 206.009C82.6702 206.069 82.6702 206.13 82.69 206.21C82.1779 206.42 81.5155 206.501 80.6515 206.401C80.6515 206.401 60.9919 190.472 62.0656 187.722C62.6182 186.326 64.1635 183.726 65.6197 181.417C65.6197 181.417 65.6593 181.346 65.7502 181.206C67.4872 178.325 78.4159 161.976 86.6284 162.066C93.2164 162.126 92.8627 169.601 86.5681 175.324Z" fill="#0A5840"/>
<path opacity="0.5" d="M86.5682 175.324L73.4021 188.143L83.7647 201.501C83.6846 201.531 83.6441 201.541 83.6441 201.541L82.6802 206.009C82.6703 206.069 82.6703 206.13 82.6901 206.21C82.178 206.42 81.5156 206.501 80.6516 206.401C80.6516 206.401 60.7499 192.775 62.0657 187.722C62.4437 186.269 64.1636 183.726 65.6198 181.417C65.6198 181.417 65.6594 181.346 65.7503 181.206C67.4873 178.325 78.416 161.976 86.6285 162.066C93.2165 162.126 92.8628 169.601 86.5682 175.324Z" fill="black"/>
<path d="M82.691 206.21C82.6712 206.13 82.6712 206.069 82.6811 206.009L83.645 201.541C83.645 201.541 83.6855 201.532 83.7656 201.501L84.0869 201.631C84.0869 201.631 85.1408 205.276 82.691 206.21Z" fill="#263238"/>
<path d="M147.728 282.11C127.493 287.039 129.488 270.414 101.684 281.234C93.4938 284.421 88.7355 276.195 84.3048 274.843C75.4776 272.156 65.6577 272.974 57.8826 277.946C63.4644 255.27 72.5661 233.461 84.7386 213.538C85.3731 208.832 87.2496 198.904 82.161 171.104C81.2268 166.007 86.5161 161.635 91.6884 161.36C91.7298 161.36 94.9086 161.127 94.959 161.118C99.8982 160.884 104.854 160.934 109.785 161.268C111.428 161.435 113.03 161.686 114.457 161.952C118.236 162.661 121.189 165.631 121.865 169.42C122.524 173.107 123.034 177.304 122.766 184.562C122.566 189.843 121.957 196.752 120.697 206.287C120.38 208.682 120.021 211.252 119.621 214.005C119.629 214.013 119.629 214.013 119.638 214.022C119.638 214.022 132.889 245.83 147.728 282.11Z" fill="#0A5840"/>
<path opacity="0.5" d="M147.728 282.11C127.493 287.039 129.488 270.414 101.684 281.234C93.4938 284.421 88.7355 276.195 84.3048 274.843C75.4776 272.156 65.6577 272.974 57.8826 277.946C63.4644 255.27 72.5661 233.461 84.7386 213.538C85.3731 208.832 87.2496 198.904 82.161 171.104C81.2268 166.007 86.5161 161.635 91.6884 161.36C91.7298 161.36 94.9086 161.127 94.959 161.118C99.8982 160.884 104.854 160.934 109.785 161.268C111.428 161.435 113.03 161.686 114.457 161.952C118.236 162.661 121.189 165.631 121.865 169.42C122.524 173.107 123.034 177.304 122.766 184.562C122.566 189.843 121.957 196.752 120.697 206.287C120.38 208.682 120.021 211.252 119.621 214.005C119.629 214.013 119.629 214.013 119.638 214.022C119.638 214.022 132.889 245.83 147.728 282.11Z" fill="black"/>
<path opacity="0.2" d="M122.767 184.562C122.567 189.843 121.958 196.752 120.698 206.287C119.922 197.936 118.545 189.734 113.598 172.99L122.617 175.86C122.775 178.638 122.809 181.6 122.767 184.562Z" fill="black"/>
<path d="M118.291 148.199C118.126 147.93 117.947 147.649 117.669 147.5C117.452 147.384 117.199 147.361 116.954 147.341C115.057 147.181 114.063 147.037 112.296 147.743C112.165 147.795 112.027 147.858 111.955 147.979C111.891 148.082 111.885 148.209 111.882 148.33C111.848 149.38 111.815 150.431 111.782 151.482C111.775 151.715 111.769 151.958 111.873 152.167C111.976 152.375 112.174 152.518 112.364 152.654C113.334 153.344 117.938 155.684 117.938 155.684C118.862 155.778 120.778 154.041 121.589 153.589C121.589 153.589 119.303 149.837 118.291 148.199Z" fill="#CB7A63"/>
<path d="M116.683 155.765L121.854 152.988C121.854 152.988 135.243 170.085 136.034 171.469C142.375 182.568 133.674 182.265 131.221 180.74C125.581 177.233 126.125 172.179 123.915 167.751L116.683 155.765Z" fill="#0A5840"/>
<g opacity="0.5">
<path d="M116.683 155.765L121.854 152.988C121.854 152.988 135.243 170.085 136.034 171.469C142.375 182.568 133.674 182.265 131.221 180.74C125.581 177.233 126.125 172.179 123.915 167.751L116.683 155.765Z" fill="black"/>
</g>
<path d="M119.952 164.292C129.33 171.312 138.267 176.108 138.267 176.108L138.586 177.439C139.261 180.254 136.615 182.733 133.849 181.876L132.28 181.389C132.28 181.389 111.778 175.782 111.325 169.872C108.598 166.534 113.679 158.555 119.952 164.292Z" fill="#0A5840"/>
<path opacity="0.5" d="M119.952 164.292C129.33 171.312 138.267 176.108 138.267 176.108L138.586 177.439C139.261 180.254 136.615 182.733 133.849 181.876L132.28 181.389C132.28 181.389 111.778 175.782 111.325 169.872C108.598 166.534 113.679 158.555 119.952 164.292Z" fill="black"/>
<path d="M111.68 134.788C111.68 134.796 111.68 134.796 111.68 134.805L108.818 135.489L90.2131 139.928C90.1708 139.794 90.1374 139.644 90.1041 139.502C89.9034 138.65 89.7532 137.8 89.6704 136.966C89.6038 136.365 89.5614 135.772 89.5533 135.188C89.4444 128.864 92.5072 123.508 97.3627 122.348C102.21 121.188 107.366 124.583 110.119 130.274C110.369 130.783 110.594 131.317 110.795 131.859C111.112 132.66 111.371 133.502 111.579 134.37C111.613 134.512 111.655 134.654 111.68 134.788Z" fill="#263238"/>
<path opacity="0.5" d="M111.621 134.788L108.759 135.489L90.1538 139.927C90.1115 139.794 90.0791 139.644 90.0449 139.502C89.8442 138.65 89.6939 137.8 89.6111 136.966L110.736 131.86C111.053 132.661 111.312 133.503 111.52 134.371C111.554 134.512 111.595 134.653 111.621 134.788Z" fill="black"/>
<path d="M118.566 134.929C118.699 135.489 118.592 136.041 118.317 136.499C118.034 136.95 117.581 137.298 117.029 137.43L87.6608 144.443C86.5493 144.708 85.4252 144.018 85.1597 142.907C85.0265 142.347 85.1318 141.786 85.4081 141.337C85.6925 140.885 86.1443 140.538 86.6969 140.405L116.065 133.393C117.176 133.127 118.299 133.81 118.566 134.929Z" fill="#263238"/>
</svg>
