<svg width="500" height="500" viewBox="0 0 500 500" fill="none" xmlns="http://www.w3.org/2000/svg">
<path d="M65.8593 307.701C65.5133 305.355 63.6053 303.552 61.2443 303.339C57.9283 303.04 55.2103 305.93 55.7123 309.222L78.2033 446.487H88.4723L65.8593 307.701Z" fill="#EBEBEB"/>
<path d="M57.8404 309.387L150.548 207.541L151.223 208.658L155.718 216.098L65.4454 316.275C63.2164 318.749 59.2584 318.476 57.3894 315.721C56.0574 313.759 56.2444 311.14 57.8404 309.387Z" fill="#EBEBEB"/>
<path d="M64.6514 312.024C64.7144 312.026 64.8084 311.805 64.7724 311.383C64.7354 310.971 64.5244 310.331 63.9164 309.805C63.3314 309.28 62.2884 308.941 61.2374 309.297C60.1964 309.618 59.2694 310.722 59.2814 312.024C59.2684 313.327 60.1954 314.431 61.2374 314.752C62.2884 315.109 63.3314 314.769 63.9164 314.244C64.5234 313.718 64.7354 313.078 64.7714 312.666C64.8084 312.243 64.7154 312.023 64.6514 312.024C64.4854 311.989 64.4844 312.974 63.4714 313.659C62.9894 313.982 62.2504 314.131 61.5644 313.851C60.8834 313.59 60.3144 312.862 60.3214 312.023C60.3154 311.184 60.8834 310.457 61.5644 310.196C62.2494 309.916 62.9884 310.065 63.4714 310.388C64.4844 311.074 64.4864 312.06 64.6514 312.024Z" fill="#E0E0E0"/>
<path d="M63.2356 303.464C63.1286 303.368 62.0696 304.352 60.4436 306.021C59.6446 306.87 58.6436 307.812 57.6646 309.085C56.7216 310.332 55.8076 312.128 56.2046 314.147C56.6556 316.182 58.3966 317.434 59.9766 317.851C61.6106 318.324 63.2056 317.88 64.2356 317.258C66.3176 315.954 67.0476 314.624 66.9796 314.574C66.8516 314.427 65.8766 315.588 63.8946 316.607C62.9046 317.089 61.5966 317.369 60.2416 316.931C58.9166 316.535 57.5466 315.457 57.2216 313.933C56.9076 312.387 57.6006 310.829 58.4406 309.648C59.2976 308.446 60.2646 307.42 60.9906 306.514C62.4766 304.718 63.3426 303.56 63.2356 303.464Z" fill="#E0E0E0"/>
<path d="M129.167 458.597H44.7617C44.7617 458.597 55.5347 445.165 83.6357 445.165C109.813 445.165 125.404 452.864 129.167 458.597Z" fill="#E0E0E0"/>
<path d="M150.014 191.392L145.723 184.956L151.024 180.889L155.578 187.365L150.014 191.392Z" fill="#EBEBEB"/>
<path d="M142.75 195.276L161.225 181.882L178.965 203.214C209.723 208.175 222.126 227.523 222.126 227.523L167.059 269.691C148.207 248.855 157.137 219.089 157.137 219.089L142.75 195.276Z" fill="#F5F5F5"/>
<path d="M157.129 219.093C157.298 219.325 162.322 215.959 168.348 211.576C174.377 207.191 179.126 203.45 178.957 203.217C178.788 202.985 173.766 206.35 167.737 210.734C161.71 215.118 156.96 218.86 157.129 219.093Z" fill="#E0E0E0"/>
<path d="M159.781 52.813H51.1406V161.453H159.781V52.813Z" fill="#EBEBEB"/>
<path d="M156.586 56.0079H54.3359V158.258H156.586V56.0079Z" fill="white"/>
<path d="M120.14 92.454H90.7812V121.813H120.14V92.454Z" fill="#E0E0E0"/>
<path d="M164.359 52.844H159.781V161.454H164.359V52.844Z" fill="#E0E0E0"/>
<path d="M448.777 195.69H340.137V304.33H448.777V195.69Z" fill="#EBEBEB"/>
<path d="M445.582 198.885H343.332V301.135H445.582V198.885Z" fill="white"/>
<path d="M409.136 235.331H379.777V264.69H409.136V235.331Z" fill="#E0E0E0"/>
<path d="M453.355 195.72H448.777V304.33H453.355V195.72Z" fill="#E0E0E0"/>
<path d="M389.017 51.9132L374.949 51.9891L375.327 121.992L389.395 121.916L389.017 51.9132Z" fill="#E0E0E0"/>
<path d="M289.497 52.1291L253.066 52.3221L253.271 90.9681L289.702 90.7751L289.497 52.1291Z" fill="#EBEBEB"/>
<path d="M325.764 51.9051L289.332 52.1018L289.541 90.7478L325.973 90.5511L325.764 51.9051Z" fill="#F5F5F5"/>
<path d="M253.123 62.982C277.334 63.182 301.605 63.041 325.813 62.648C326.311 62.641 326.308 61.877 325.809 61.874C301.598 61.74 277.327 61.859 253.12 62.319C252.693 62.326 252.696 62.978 253.123 62.982Z" fill="#E0E0E0"/>
<path d="M296.545 90.1035L230.355 90.4609L230.526 121.955L296.716 121.598L296.545 90.1035Z" fill="#EBEBEB"/>
<path d="M362.424 89.7477L296.234 90.1051L296.404 121.599L362.594 121.242L362.424 89.7477Z" fill="#F5F5F5"/>
<path d="M230.396 99.229C274.367 99.727 318.493 99.28 362.462 98.577C362.96 98.569 362.957 97.805 362.458 97.803C318.484 97.571 274.356 97.597 230.393 98.566C229.966 98.574 229.968 99.224 230.396 99.229Z" fill="#E0E0E0"/>
<path d="M462.084 121.963H205.645V133.246H462.084V121.963Z" fill="#E0E0E0"/>
<path d="M258.039 127.388H247.629V165.887H258.039V127.388Z" fill="#E0E0E0"/>
<path d="M413.441 127.388H403.031V165.887H413.441V127.388Z" fill="#E0E0E0"/>
<path d="M402.744 25.811L388.676 25.887L389.196 122.165L403.264 122.089L402.744 25.811Z" fill="#EBEBEB"/>
<path d="M424.723 43.738L402.863 43.8561L403.285 121.879L425.145 121.761L424.723 43.738Z" fill="#F5F5F5"/>
<path d="M424.571 58.7811C424.571 58.9901 419.677 59.1601 413.642 59.1601C407.604 59.1601 402.711 58.9901 402.711 58.7811C402.711 58.5721 407.604 58.4021 413.642 58.4021C419.677 58.4021 424.571 58.5721 424.571 58.7811Z" fill="#E0E0E0"/>
<path d="M424.571 55.503C424.571 55.712 419.677 55.882 413.642 55.882C407.604 55.882 402.711 55.712 402.711 55.503C402.711 55.294 407.604 55.124 413.642 55.124C419.677 55.125 424.571 55.294 424.571 55.503Z" fill="#E0E0E0"/>
<path d="M424.571 110.033C424.571 110.242 419.677 110.412 413.642 110.412C407.604 110.412 402.711 110.242 402.711 110.033C402.711 109.824 407.604 109.654 413.642 109.654C419.677 109.654 424.571 109.823 424.571 110.033Z" fill="#E0E0E0"/>
<path d="M424.571 106.755C424.571 106.964 419.677 107.134 413.642 107.134C407.604 107.134 402.711 106.964 402.711 106.755C402.711 106.546 407.604 106.376 413.642 106.376C419.677 106.376 424.571 106.546 424.571 106.755Z" fill="#E0E0E0"/>
<path d="M413.992 99.604C413.783 99.604 413.613 91.732 413.613 82.024C413.613 72.313 413.782 64.443 413.992 64.443C414.201 64.443 414.371 72.313 414.371 82.024C414.371 91.732 414.201 99.604 413.992 99.604Z" fill="#E0E0E0"/>
<path d="M448.603 62.9091H424.809V121.8H448.603V62.9091Z" fill="#EBEBEB"/>
<path d="M399.539 42.2649C399.539 44.4979 397.729 46.3079 395.496 46.3079C393.263 46.3079 391.453 44.4979 391.453 42.2649C391.453 40.0319 393.263 38.2209 395.496 38.2209C397.728 38.2209 399.539 40.0319 399.539 42.2649Z" fill="#E0E0E0"/>
<path d="M396.746 53.386H394.246V110.66H396.746V53.386Z" fill="#E0E0E0"/>
<path d="M52.207 412.941L58.926 457.095H97.961L107.021 413.579L52.207 412.941Z" fill="#0A5840"/>
<path d="M101.565 441.239C101.565 441.366 91.5627 441.468 79.2267 441.468C66.8867 441.468 56.8867 441.365 56.8867 441.239C56.8867 441.113 66.8867 441.01 79.2267 441.01C91.5627 441.01 101.565 441.113 101.565 441.239Z" fill="#FAFAFA"/>
<path d="M101.715 439.068C101.715 439.195 91.6454 439.297 79.2264 439.297C66.8024 439.297 56.7344 439.194 56.7344 439.068C56.7344 438.942 66.8024 438.839 79.2264 438.839C91.6454 438.839 101.715 438.941 101.715 439.068Z" fill="#FAFAFA"/>
<path d="M101.638 436.615C101.638 436.741 91.5683 436.844 79.1483 436.844C66.7243 436.844 56.6562 436.742 56.6562 436.615C56.6562 436.488 66.7243 436.386 79.1483 436.386C91.5673 436.386 101.638 436.489 101.638 436.615Z" fill="#FAFAFA"/>
<path d="M63.4103 454.576C63.2853 454.598 62.7493 452.108 62.2133 449.017C61.6773 445.924 61.3433 443.401 61.4673 443.379C61.5913 443.357 62.1273 445.846 62.6643 448.939C63.2003 452.03 63.5343 454.554 63.4103 454.576Z" fill="#FAFAFA"/>
<path d="M66.067 454.107C65.938 454.11 65.7889 451.677 65.5829 448.683C65.3809 445.687 65.1999 443.257 65.3279 443.243C65.4509 443.228 65.837 445.644 66.04 448.652C66.247 451.659 66.191 454.105 66.067 454.107Z" fill="#FAFAFA"/>
<path d="M70.9036 454.105C70.7826 454.126 70.2496 451.647 69.8876 448.543C69.5216 445.439 69.4676 442.904 69.5906 442.897C69.7206 442.889 69.9786 445.4 70.3426 448.49C70.7026 451.58 71.0316 454.083 70.9036 454.105Z" fill="#FAFAFA"/>
<path d="M74.3019 454.338C74.1789 454.349 73.8609 451.822 73.7609 448.687C73.6569 445.551 73.8109 443.009 73.9339 443.012C74.0639 443.014 74.1159 445.549 74.2189 448.672C74.3179 451.794 74.4309 454.327 74.3019 454.338Z" fill="#FAFAFA"/>
<path d="M80.3183 454.107C80.1913 454.111 80.0083 451.71 79.9073 448.744C79.8063 445.777 79.8283 443.369 79.9543 443.365C80.0813 443.361 80.2643 445.762 80.3653 448.729C80.4663 451.694 80.4443 454.103 80.3183 454.107Z" fill="#FAFAFA"/>
<path d="M84.7119 454.34C84.5859 454.339 84.5029 451.855 84.5279 448.792C84.5529 445.728 84.6759 443.245 84.8019 443.247C84.9289 443.248 85.0109 445.732 84.9859 448.796C84.9609 451.858 84.8379 454.341 84.7119 454.34Z" fill="#FAFAFA"/>
<path d="M88.8299 453.75C88.7039 453.738 88.8529 451.141 89.1629 447.951C89.4729 444.76 89.8259 442.184 89.9519 442.196C90.0779 442.208 89.9289 444.804 89.6189 447.995C89.3089 451.186 88.9559 453.762 88.8299 453.75Z" fill="#FAFAFA"/>
<path d="M94.1402 453.172C94.0192 453.157 94.2092 450.929 94.7972 448.241C95.3792 445.55 96.1322 443.446 96.2482 443.482C96.3742 443.52 95.8222 445.668 95.2442 448.338C94.6622 451.005 94.2702 453.189 94.1402 453.172Z" fill="#FAFAFA"/>
<path d="M47.7266 404.198V412.46C47.7266 414.256 49.1826 415.713 50.9796 415.713H107.507C109.303 415.713 110.76 414.257 110.76 412.46V404.198H47.7266Z" fill="#0A5840"/>
<g opacity="0.4">
<path d="M52.6289 415.712L53.0979 418.343L105.256 422.06L106.577 415.712H52.6289Z" fill="black"/>
</g>
<path d="M56.239 404.239C56.239 404.239 34.263 378.906 36.705 377.99C39.147 377.074 58.681 391.115 58.681 391.115C58.681 391.115 41.894 353.572 45.251 350.825C48.6081 348.078 66.311 384.094 66.311 384.094C66.311 384.094 63.564 331.595 66.311 330.985C69.058 330.375 79.131 383.484 79.131 383.484C79.131 383.484 94.0871 334.953 98.3601 334.953C102.633 334.953 93.782 381.652 93.782 381.652C93.782 381.652 111.485 351.74 114.232 355.708C116.979 359.676 101.718 392.03 101.718 392.03C101.718 392.03 123.999 373.411 124.915 375.853C125.831 378.295 100.802 404.239 100.802 404.239H56.239Z" fill="#455A64"/>
<path d="M53.1725 366.086C53.3245 366.018 57.2225 374.375 61.8785 384.749C66.5355 395.127 70.1865 403.593 70.0345 403.661C69.8825 403.729 65.9855 395.374 61.3275 384.996C56.6725 374.621 53.0205 366.154 53.1725 366.086Z" fill="#263238"/>
<path d="M70.9258 370.755C71.0918 370.743 71.7398 378.109 72.3728 387.205C73.0058 396.304 73.3838 403.687 73.2178 403.698C73.0518 403.71 72.4038 396.345 71.7708 387.246C71.1378 378.151 70.7598 370.766 70.9258 370.755Z" fill="#263238"/>
<path d="M95.4133 347.243C95.4333 347.25 95.3883 347.454 95.2843 347.838C95.1543 348.286 94.9953 348.837 94.8023 349.507C94.3423 351.037 93.7203 353.105 92.9643 355.623C91.4143 360.787 89.3313 367.937 87.2093 375.883C85.0903 383.833 83.3333 391.071 82.1043 396.321C81.5063 398.881 81.0143 400.984 80.6513 402.539C80.4853 403.216 80.3493 403.774 80.2383 404.226C80.1373 404.61 80.0743 404.81 80.0543 404.806C80.0333 404.802 80.0573 404.594 80.1193 404.201C80.2003 403.742 80.3003 403.177 80.4213 402.49C80.6943 401.006 81.1253 398.866 81.6883 396.227C82.8123 390.95 84.5043 383.687 86.6263 375.728C88.7513 367.773 90.9013 360.633 92.5563 355.497C93.3833 352.929 94.0753 350.858 94.5783 349.435C94.8153 348.779 95.0103 348.239 95.1683 347.801C95.3093 347.429 95.3933 347.237 95.4133 347.243Z" fill="#263238"/>
<path d="M106.003 374.304C106.14 374.399 101.85 380.795 96.4229 388.588C90.9939 396.384 86.4839 402.624 86.3469 402.529C86.2099 402.434 90.4989 396.039 95.9279 388.244C101.355 380.451 105.867 374.209 106.003 374.304Z" fill="#263238"/>
<path d="M63.657 403.701C63.606 403.763 62.861 403.252 61.734 402.329C60.607 401.406 59.107 400.059 57.553 398.467C56 396.873 54.692 395.339 53.798 394.189C52.903 393.039 52.412 392.281 52.474 392.232C52.613 392.123 54.897 394.889 57.985 398.046C61.061 401.211 63.769 403.565 63.657 403.701Z" fill="#263238"/>
<path d="M77.0045 393.637C77.1705 393.622 77.5195 395.962 77.7835 398.862C78.0485 401.764 78.1285 404.127 77.9625 404.143C77.7965 404.158 77.4475 401.819 77.1825 398.917C76.9185 396.017 76.8385 393.652 77.0045 393.637Z" fill="#263238"/>
<path d="M362.535 282.848C371.501 281.183 379.321 274.369 382.198 265.715C385.074 257.061 382.888 246.921 376.703 240.22C375.768 239.207 374.677 238.231 373.327 237.956C370.474 237.376 368.094 240.034 366.399 242.401C362.321 248.095 358.242 253.789 354.164 259.484" fill="#263238"/>
<path d="M358.818 264.416C369.006 257.168 375.519 243.131 376.643 230.679C377.766 218.226 369.731 194.845 364.401 183.536C357.914 169.771 355.23 189.455 350.583 191.86C347.815 193.292 346.257 196.424 345.901 199.52C345.545 202.616 346.204 205.729 346.858 208.775C350.845 227.322 354.832 245.869 358.818 264.416Z" fill="#263238"/>
<path d="M309.284 151.533C288.889 144.861 275.02 153.435 268.775 160.409C262.53 167.383 259.698 176.813 258.612 186.111C257.526 195.409 258.003 204.816 257.443 214.16C256.972 222.013 257.077 222.489 257.381 230.35C257.685 238.211 260.484 251.834 265.602 257.808C270.521 263.551 275.606 268.544 282.562 271.513C285.065 272.582 287.988 273.642 290.397 272.375C292.145 271.456 293.102 269.55 293.933 267.758C308.961 235.342 319.181 200.701 324.156 165.319" fill="#263238"/>
<path d="M333.838 169.323L299.292 162.096L291.022 164.545C272.04 167.914 262.582 191.139 265.132 206.544C267.965 223.658 272.099 244.442 277.004 256.567C286.869 280.948 307.011 279.689 307.011 279.689C307.005 279.65 308.016 286.649 309.332 295.182C311.698 310.518 326.382 320.783 341.599 317.743C356.105 314.844 365.648 300.901 363.099 286.329L343.889 176.512C342.912 171.871 338.546 168.748 333.838 169.323Z" fill="#FFBE9D"/>
<path d="M277.56 223.412C277.896 225.141 279.636 226.281 281.446 225.964C283.254 225.648 284.452 223.994 284.117 222.265C283.782 220.537 282.041 219.394 280.234 219.71C278.422 220.027 277.225 221.684 277.56 223.412Z" fill="#263238"/>
<path d="M273.417 214.06C273.917 214.39 275.956 212.003 279.452 211.205C282.931 210.358 285.91 211.563 286.19 211.048C286.333 210.815 285.746 210.147 284.443 209.591C283.157 209.036 281.101 208.682 278.928 209.193C276.755 209.708 275.11 210.932 274.248 211.994C273.363 213.067 273.175 213.917 273.417 214.06Z" fill="#263238"/>
<path d="M299.874 237.8C299.845 237.598 297.587 237.724 293.965 238.087C293.052 238.201 292.167 238.219 291.876 237.645C291.517 237.049 291.668 236.002 291.861 234.864C292.201 232.512 292.557 230.047 292.931 227.463C294.36 216.948 295.176 208.384 294.752 208.331C294.328 208.277 292.824 216.757 291.395 227.272C291.065 229.86 290.746 232.328 290.446 234.687C290.342 235.779 290.028 237.063 290.792 238.295C291.186 238.906 291.952 239.238 292.56 239.26C293.172 239.302 293.676 239.196 294.124 239.12C297.707 238.493 299.907 238.001 299.874 237.8Z" fill="#263238"/>
<path d="M307.008 279.69C307.008 279.69 324.288 276.856 338.816 262.821C338.816 262.821 333.838 282.45 307.959 285.932L307.008 279.69Z" fill="#EB996E"/>
<path d="M303.487 245.021C304.451 242.712 306.338 241.405 308.629 241.005C310.218 240.729 311.936 241.103 313.125 242.249C314.314 243.394 314.857 245.364 314.23 246.983C313.522 248.807 311.559 249.767 309.754 249.731C307.947 249.695 306.258 248.866 304.642 248.02C304.195 247.785 303.738 247.539 303.414 247.13C303.091 246.725 303.257 245.508 303.487 245.021Z" fill="#EB996E"/>
<path d="M310.713 237.842C310.137 237.94 311.006 241.733 308.382 245.174C305.767 248.622 301.627 249.129 301.72 249.666C301.722 249.917 302.79 250.195 304.506 249.848C306.192 249.519 308.512 248.417 310.117 246.313C311.717 244.206 312.059 241.807 311.829 240.221C311.607 238.602 310.967 237.76 310.713 237.842Z" fill="#263238"/>
<path d="M272.165 204.118C272.962 204.769 275.179 203.39 278.063 202.683C280.922 201.876 283.53 201.982 283.902 201.022C284.057 200.562 283.487 199.857 282.243 199.353C281.015 198.848 279.109 198.644 277.134 199.164C275.161 199.687 273.604 200.803 272.786 201.848C271.952 202.899 271.805 203.793 272.165 204.118Z" fill="#263238"/>
<path d="M315.281 216.268C315.674 217.985 314.544 219.732 312.759 220.174C310.978 220.616 309.213 219.588 308.82 217.872C308.428 216.156 309.557 214.407 311.337 213.965C313.123 213.522 314.888 214.553 315.281 216.268Z" fill="#263238"/>
<path d="M320.38 205.241C320.056 205.745 317.226 204.387 313.706 205.071C310.181 205.704 307.945 208.012 307.481 207.654C307.257 207.499 307.523 206.65 308.49 205.615C309.441 204.587 311.178 203.431 313.373 203.019C315.569 202.611 317.568 203.065 318.787 203.687C320.027 204.31 320.543 205.011 320.38 205.241Z" fill="#263238"/>
<path d="M316.84 194.328C316.374 195.246 313.79 194.882 310.866 195.402C307.924 195.82 305.583 196.972 304.855 196.245C304.527 195.887 304.763 195.011 305.697 194.047C306.616 193.089 308.276 192.131 310.292 191.807C312.308 191.486 314.183 191.877 315.355 192.502C316.542 193.127 317.039 193.886 316.84 194.328Z" fill="#263238"/>
<path d="M302.524 158.711C310.097 153.964 322.776 152.844 330.734 156.914C338.692 160.984 344.554 168.523 347.698 176.89C350.841 185.257 350.99 198.457 350.226 207.362C333.976 192.712 316.873 175.512 301.023 160.43L302.524 158.711Z" fill="#263238"/>
<path d="M294.896 152.098C249.006 153.791 265.241 220.751 265.241 220.751C265.255 195.008 295.31 162.703 295.31 162.703L302.156 160.249L294.896 152.098Z" fill="#263238"/>
<path d="M348.821 220.159C348.39 218.274 349.543 213.326 351.337 212.606C356.128 210.683 365.18 209.013 368.179 221.618C372.278 238.848 354.134 239.409 353.986 238.922C353.871 238.541 350.309 226.671 348.821 220.159Z" fill="#FFBE9D"/>
<path d="M355.379 231.556C355.442 231.483 355.729 231.694 356.291 231.807C356.84 231.915 357.728 231.87 358.546 231.319C360.207 230.218 361.052 226.964 360.397 223.838C360.068 222.259 359.385 220.844 358.535 219.74C357.709 218.605 356.685 217.918 355.729 217.974C354.768 217.979 354.249 218.682 354.153 219.217C354.037 219.755 354.229 220.073 354.144 220.123C354.107 220.178 353.706 219.923 353.676 219.179C353.666 218.819 353.77 218.365 354.097 217.937C354.43 217.503 354.997 217.187 355.653 217.104C357.004 216.88 358.49 217.818 359.424 219.03C360.432 220.231 361.238 221.812 361.607 223.585C362.323 227.084 361.319 230.755 358.999 232.068C357.863 232.672 356.764 232.548 356.145 232.265C355.509 231.966 355.327 231.601 355.379 231.556Z" fill="#EB996E"/>
<path d="M361.851 174.861C355.268 163.722 344.505 155.472 332.719 150.134C326.398 147.271 319.551 145.148 312.624 145.549C305.696 145.95 298.668 149.223 295.073 155.159L294.043 156.669C304.793 172.356 312.794 185.823 325.543 199.936C330.228 205.122 335.348 224.714 337.445 231.38C344.606 254.143 359.138 261.833 359.138 261.833C386.723 256.922 368.433 186 361.851 174.861Z" fill="#263238"/>
<path d="M373.774 276.706C373.68 276.653 374.477 275.396 375.268 273.168C375.67 272.057 376.011 270.689 376.234 269.148C376.421 267.603 376.466 265.884 376.257 264.099C375.822 260.516 374.425 257.492 373.188 255.489C371.933 253.482 370.918 252.4 370.997 252.331C371.023 252.307 371.287 252.565 371.745 253.055C372.216 253.534 372.816 254.3 373.498 255.29C374.835 257.273 376.327 260.355 376.774 264.036C376.99 265.868 376.928 267.635 376.71 269.215C376.455 270.791 376.068 272.181 375.614 273.296C375.422 273.867 375.153 274.344 374.954 274.777C374.758 275.212 374.545 275.564 374.365 275.848C374.013 276.42 373.805 276.725 373.774 276.706Z" fill="white"/>
<path d="M375.194 239.184C375.185 239.185 375.166 239.082 375.137 238.88C375.107 238.65 375.069 238.355 375.022 237.985C374.969 237.592 374.929 237.103 374.84 236.531C374.742 235.954 374.63 235.296 374.504 234.56C373.957 231.606 372.798 227.377 370.518 222.506C368.224 217.649 364.755 212.203 360.057 206.868C355.376 201.514 349.461 196.344 342.936 191.363C336.395 186.387 329.91 181.982 324.14 177.789C318.36 173.611 313.305 169.628 309.294 166.011C305.286 162.392 302.304 159.184 300.375 156.863C299.414 155.699 298.684 154.783 298.219 154.138C297.998 153.837 297.821 153.597 297.684 153.41C297.566 153.244 297.509 153.157 297.516 153.152C297.523 153.147 297.594 153.223 297.726 153.378C297.874 153.557 298.064 153.786 298.302 154.073C298.793 154.696 299.547 155.59 300.529 156.73C302.5 159.005 305.513 162.162 309.539 165.735C313.568 169.305 318.632 173.248 324.42 177.399C330.198 181.565 336.693 185.96 343.251 190.948C349.793 195.941 355.727 201.146 360.417 206.551C365.124 211.936 368.585 217.44 370.851 222.349C373.103 227.273 374.215 231.545 374.702 234.523C374.81 235.265 374.907 235.928 374.992 236.51C375.065 237.086 375.089 237.579 375.125 237.974C375.151 238.347 375.173 238.644 375.189 238.876C375.202 239.079 375.203 239.184 375.194 239.184Z" fill="white"/>
<path d="M363.464 183.389C363.396 183.424 363.109 182.399 361.959 180.955C361.37 180.251 360.559 179.458 359.472 178.728C358.389 177.994 357.048 177.322 355.506 176.731C352.427 175.525 348.534 174.734 344.311 173.481C340.084 172.255 335.486 170.732 330.747 168.902C321.254 165.256 313.053 161.025 307.297 157.692C304.424 156.012 302.142 154.582 300.587 153.56C299.849 153.063 299.259 152.664 298.811 152.362C298.408 152.083 298.202 151.93 298.211 151.915C298.221 151.9 298.447 152.024 298.868 152.274C299.329 152.555 299.936 152.926 300.695 153.389C302.281 154.357 304.588 155.737 307.479 157.372C313.271 160.617 321.471 164.782 330.934 168.416C335.659 170.24 340.238 171.773 344.446 173.021C348.64 174.294 352.532 175.121 355.64 176.388C357.193 177.009 358.546 177.716 359.636 178.488C360.73 179.256 361.541 180.09 362.117 180.829C362.395 181.208 362.642 181.544 362.803 181.869C362.981 182.183 363.13 182.449 363.21 182.684C363.394 183.141 363.481 183.382 363.464 183.389Z" fill="#455A64"/>
<path d="M285.053 270.926C285.05 270.934 284.933 270.894 284.709 270.807C284.461 270.707 284.134 270.575 283.719 270.408C282.838 270.079 281.595 269.466 280.016 268.631C278.475 267.734 276.592 266.608 274.619 265.007C272.628 263.438 270.482 261.475 268.427 259.023C264.312 254.166 260.345 247.397 258.493 239.108C256.624 230.857 256.867 221.266 259.677 211.912C261.04 207.223 262.993 202.842 265.259 198.841C267.552 194.85 270.163 191.255 272.752 187.931C275.347 184.607 277.921 181.541 280.299 178.652C282.681 175.765 284.838 173.03 286.735 170.478C290.494 165.348 292.982 160.817 294.376 157.551C294.715 156.73 295.057 156.016 295.286 155.372C295.507 154.733 295.697 154.188 295.853 153.736C296.004 153.315 296.122 152.983 296.212 152.732C296.296 152.507 296.343 152.392 296.352 152.395C296.361 152.398 296.33 152.517 296.263 152.748C296.185 153.003 296.083 153.341 295.953 153.769C295.809 154.227 295.635 154.779 295.431 155.426C295.217 156.078 294.889 156.801 294.563 157.631C293.221 160.935 290.767 165.519 287.033 170.695C285.149 173.269 283.003 176.024 280.633 178.926C278.267 181.83 275.708 184.904 273.13 188.226C270.558 191.549 267.97 195.132 265.701 199.095C263.459 203.066 261.526 207.412 260.175 212.06C257.39 221.334 257.136 230.829 258.96 239.004C260.766 247.211 264.661 253.938 268.707 258.786C270.727 261.233 272.839 263.2 274.799 264.78C276.741 266.392 278.596 267.536 280.114 268.455C281.669 269.312 282.893 269.953 283.758 270.312C284.164 270.499 284.484 270.646 284.726 270.758C284.947 270.86 285.056 270.917 285.053 270.926Z" fill="#455A64"/>
<path d="M376.209 234.046C376.244 234.054 376.175 234.496 376.021 235.29C375.876 236.086 375.608 237.226 375.254 238.629C374.502 241.416 373.333 245.281 371.25 249.205C370.215 251.166 369.063 252.946 367.902 254.477C366.712 255.985 365.567 257.286 364.512 258.284C363.471 259.294 362.582 260.062 361.937 260.551C361.297 261.048 360.934 261.309 360.912 261.281C360.849 261.206 362.249 260.088 364.251 258.024C365.263 257.003 366.366 255.692 367.519 254.188C368.644 252.66 369.768 250.899 370.789 248.962C372.845 245.09 374.061 241.279 374.9 238.53C375.268 237.222 375.577 236.122 375.824 235.243C376.039 234.465 376.174 234.038 376.209 234.046Z" fill="#455A64"/>
<path d="M466.85 456.534L452.568 365.87C452.568 365.87 434.287 294.535 419.588 285.572C404.889 276.609 366.197 277.999 366.197 277.999L363.118 284.513C353.518 304.829 326.172 308.509 311.542 291.455L295.663 295.364C282.221 298.674 270.396 306.854 262.917 318.502C262.663 318.898 252.066 333.077 251.818 333.484C246.292 342.544 193.345 405.655 193.345 405.655C193.345 405.655 154.814 387.297 153.17 387.563C151.526 387.829 136.371 406.439 136.371 406.439C136.371 406.439 184.061 456.03 204.262 453.681C224.463 451.332 246.659 417.972 246.659 417.972L287.836 378.451C293.641 400.286 312.404 456.622 312.404 456.622L466.85 456.534Z" fill="#0A5840"/>
<g opacity="0.3">
<path d="M234.574 419.836C230.379 415.124 224.489 412.32 218.668 409.887C198.012 401.253 176.204 395.77 154.49 390.317C153.826 390.151 153.112 389.986 152.474 390.231C151.092 390.761 151.027 392.671 151.255 394.134C151.483 395.597 151.483 395.597 151.483 395.597L150.523 397.708C162.782 413.324 179.396 426.125 197.457 434.369C202.596 436.715 208.083 438.769 213.725 438.483C220.299 438.15 226.256 434.704 231.92 431.35C234.125 430.044 236.548 428.437 236.997 425.915C237.393 423.691 236.077 421.524 234.574 419.836Z" fill="black"/>
</g>
<path d="M278.69 335.632C278.708 335.631 278.749 335.862 278.811 336.303C278.874 336.797 278.956 337.438 279.058 338.234C279.143 339.075 279.317 340.095 279.496 341.281C279.662 342.469 279.901 343.815 280.174 345.301C281.23 351.251 283.134 359.385 285.44 368.317C287.757 377.25 289.94 385.319 291.374 391.199C292.101 394.136 292.643 396.525 292.99 398.181C293.148 398.969 293.274 399.603 293.372 400.092C293.454 400.53 293.488 400.762 293.471 400.765C293.453 400.769 293.385 400.545 293.27 400.114C293.148 399.631 292.99 399.004 292.793 398.226C292.385 396.585 291.789 394.212 291.017 391.289C289.447 385.391 287.304 377.342 284.936 368.447C282.628 359.508 280.777 351.345 279.811 345.364C279.56 343.871 279.346 342.518 279.207 341.322C279.055 340.129 278.91 339.103 278.856 338.257C278.794 337.455 278.744 336.81 278.706 336.313C278.679 335.868 278.672 335.634 278.69 335.632Z" fill="#263238"/>
<path d="M366.643 402.001C366.639 402.037 366.098 401.997 365.121 401.893C364.631 401.847 364.034 401.775 363.348 401.647C362.661 401.525 361.871 401.414 361.018 401.201C359.296 400.839 357.278 400.26 355.084 399.482C352.902 398.673 350.551 397.646 348.19 396.36C345.839 395.053 343.713 393.617 341.861 392.207C340.029 390.771 338.46 389.375 337.232 388.115C336.595 387.508 336.079 386.9 335.608 386.386C335.132 385.875 334.752 385.409 334.451 385.02C333.84 384.25 333.517 383.815 333.545 383.793C333.573 383.77 333.95 384.162 334.605 384.889C334.928 385.256 335.329 385.7 335.822 386.189C336.311 386.682 336.841 387.268 337.49 387.853C338.741 389.07 340.321 390.425 342.152 391.826C344.002 393.202 346.114 394.611 348.441 395.904C350.778 397.176 353.098 398.206 355.25 399.032C357.414 399.828 359.403 400.438 361.101 400.843C361.943 401.078 362.722 401.212 363.4 401.361C364.077 401.516 364.667 401.616 365.15 401.693C366.114 401.857 366.647 401.965 366.643 402.001Z" fill="#263238"/>
<path d="M366.649 272.629C369.01 269.829 367.938 267.351 366.572 266.266C364.304 264.465 361.598 265.115 359.563 266.745C353.325 271.741 346.138 276.136 339.758 280.951C333.379 285.766 324.917 289.292 317.483 286.362C315.795 285.697 314.232 284.722 312.496 284.201C310.76 283.68 308.71 283.693 307.321 284.858C305.932 286.023 305.706 290.523 307.252 291.469C310.096 298.879 316.949 304.395 324.609 306.474C332.269 308.552 340.591 307.413 347.848 304.199C355.105 300.985 361.362 295.804 366.652 289.887C368.432 287.896 370.156 285.733 370.858 283.157C371.831 279.588 366.649 272.629 366.649 272.629Z" fill="#0A5840"/>
<path d="M368.62 270.345C368.634 270.357 368.488 270.555 368.197 270.923C367.903 271.287 367.48 271.834 366.898 272.508C365.754 273.871 364.042 275.8 361.792 278.056C359.545 280.312 356.723 282.867 353.33 285.378C349.936 287.878 345.934 290.299 341.417 292.149C332.343 295.843 323.164 296.2 316.926 294.901C313.791 294.275 311.344 293.379 309.744 292.59C308.922 292.243 308.344 291.848 307.928 291.634C307.521 291.401 307.312 291.272 307.321 291.256C307.348 291.207 308.207 291.692 309.827 292.405C311.441 293.132 313.883 293.965 316.993 294.539C323.182 295.732 332.247 295.319 341.219 291.667C345.688 289.837 349.66 287.451 353.045 284.991C356.429 282.52 359.261 280.008 361.532 277.794C363.806 275.581 365.555 273.695 366.744 272.375C367.312 271.746 367.767 271.241 368.115 270.855C368.434 270.51 368.606 270.334 368.62 270.345Z" fill="#263238"/>
<path d="M366.836 284.19C366.85 284.201 366.76 284.348 366.575 284.617C366.35 284.932 366.075 285.317 365.743 285.782C365.019 286.793 363.913 288.214 362.497 289.929C359.67 293.361 355.487 297.892 350.387 302.381C345.277 306.863 340.244 310.427 336.477 312.789C334.594 313.973 333.043 314.886 331.947 315.474C331.443 315.743 331.026 315.966 330.684 316.148C330.393 316.297 330.235 316.368 330.227 316.352C330.218 316.336 330.358 316.235 330.633 316.057C330.961 315.852 331.361 315.601 331.845 315.299C332.907 314.658 334.426 313.699 336.277 312.48C339.982 310.046 344.956 306.452 350.043 301.99C355.121 297.521 359.325 293.052 362.216 289.691C363.664 288.012 364.81 286.63 365.583 285.658C365.946 285.217 366.245 284.852 366.491 284.553C366.703 284.305 366.822 284.179 366.836 284.19Z" fill="#263238"/>
<g opacity="0.3">
<path d="M398.092 350.322C399.596 364.426 400.115 377.73 401.619 391.834C401.826 393.772 402.008 395.845 401.089 397.564C399.739 400.088 396.584 400.915 393.78 401.49C386.222 403.042 378.402 405.377 370.844 406.928C382.463 406.704 394.426 405.381 406.045 405.157C406.946 405.14 409.563 404.998 409.563 404.998C409.563 404.998 408.883 401.328 408.689 400.449C404.834 382.948 401.946 367.823 398.092 350.322Z" fill="black"/>
</g>
<g opacity="0.3">
<path d="M288.306 379.841C278.647 368.015 275.463 351.708 278.69 336.783C280.793 352.744 284.731 366.901 288.306 379.841Z" fill="black"/>
</g>
<g opacity="0.3">
<path d="M318.717 383.36C325.105 377.873 327.988 368.622 325.848 360.477C324.759 356.333 322.506 352.546 321.615 348.354C320.676 343.932 321.308 339.352 321.521 334.836C321.733 330.32 321.44 325.525 318.942 321.758C317.562 319.677 315.527 317.932 314.888 315.518C314.284 313.238 315.057 310.849 315.216 308.496C315.505 304.201 313.578 299.815 310.219 297.123C309.228 296.328 307.732 295.693 306.768 296.52C306.144 297.055 306.052 297.971 306.004 298.791C304.79 319.761 303.664 341.393 310.701 361.185C313.391 368.751 317.267 376.024 318.242 383.994" fill="black"/>
</g>
<g opacity="0.3">
<path d="M340.714 292.259C330.585 296.392 318.156 296.957 307.535 291.376L308.654 292.974C313.546 297.87 320.875 299.759 327.779 299.26C334.683 298.76 341.254 296.12 347.44 293.014C351.776 290.837 356.035 288.382 359.562 285.05C363.089 281.717 365.861 277.417 366.65 272.629C359.413 280.832 350.843 288.126 340.714 292.259Z" fill="black"/>
</g>
<path d="M391.621 279.04C391.621 279.04 396.724 298.641 397.083 316.567C397.442 334.493 409.56 404.998 409.56 404.998L345.874 408.171L341.812 444.649C341.812 444.649 413.995 460.315 434.789 459.239C455.583 458.163 464.168 441.991 461.658 417.97C461.658 417.97 446.859 328.474 438.557 307.417C431.04 288.355 417.435 281.104 391.621 279.04Z" fill="#0A5840"/>
<path d="M438.558 307.418C438.558 307.418 438.696 307.762 438.941 308.444C439.187 309.138 439.546 310.151 440.016 311.476C440.872 314.169 442.056 318.171 443.354 323.381C446 333.79 449.258 348.987 452.88 367.839C454.691 377.265 456.603 387.604 458.569 398.718C459.532 404.279 460.527 410.03 461.553 415.954C461.668 416.694 461.826 417.44 461.907 418.196C461.966 418.954 462.025 419.715 462.085 420.478C462.134 421.242 462.228 422.007 462.24 422.777C462.255 423.547 462.27 424.32 462.285 425.095C462.357 428.197 462.098 431.341 461.669 434.499C461.513 435.281 461.355 436.065 461.198 436.852L460.961 438.034L460.619 439.195C460.384 439.968 460.175 440.752 459.917 441.522C459.611 442.276 459.304 443.032 458.996 443.79C457.638 446.757 455.884 449.635 453.475 451.992C451.065 454.334 448.15 456.167 444.972 457.433C441.769 458.669 438.336 459.213 434.877 459.487C427.927 459.702 420.921 458.86 413.847 457.97C406.77 457.056 399.616 455.943 392.398 454.706C374.841 451.71 357.877 448.332 341.762 444.895L341.539 444.847L341.564 444.62C342.982 431.932 344.345 419.741 345.641 408.144L345.663 407.943L345.864 407.933C369.936 406.755 391.479 405.7 409.553 404.815L409.385 405.033C405.639 386.776 402.618 372.057 400.532 361.89C399.502 356.817 398.704 352.882 398.16 350.203C397.896 348.875 397.695 347.861 397.557 347.167C397.424 346.483 397.369 346.13 397.369 346.13C397.369 346.13 397.459 346.476 397.608 347.156C397.757 347.849 397.975 348.859 398.261 350.182C398.826 352.857 399.657 356.785 400.727 361.85C402.851 372.009 405.926 386.716 409.74 404.96L409.783 405.167L409.571 405.178C391.498 406.094 369.958 407.186 345.888 408.407L346.111 408.197C344.825 419.795 343.473 431.988 342.065 444.677L341.868 444.402C357.975 447.827 374.938 451.2 392.484 454.193C399.698 455.429 406.846 456.542 413.912 457.456C420.97 458.347 427.981 459.187 434.849 458.977C438.264 458.707 441.647 458.173 444.79 456.962C447.909 455.721 450.762 453.929 453.124 451.638C455.484 449.333 457.208 446.51 458.548 443.592C458.852 442.846 459.155 442.101 459.458 441.359C459.714 440.6 459.92 439.826 460.153 439.063L460.492 437.918L460.728 436.749C460.885 435.971 461.041 435.196 461.196 434.422C461.624 431.296 461.885 428.179 461.816 425.098C461.802 424.328 461.788 423.56 461.774 422.796C461.763 422.031 461.671 421.274 461.623 420.517C461.565 419.76 461.508 419.006 461.45 418.255C461.371 417.508 461.217 416.773 461.102 416.029C460.085 410.105 459.098 404.353 458.144 398.792C456.197 387.676 454.306 377.336 452.519 367.907C448.943 349.05 445.742 333.847 443.158 323.429C441.891 318.214 440.739 314.208 439.916 311.507C439.468 310.176 439.126 309.158 438.891 308.461C438.662 307.776 438.558 307.418 438.558 307.418Z" fill="#263238"/>
<path d="M429.864 425.96C429.784 426.002 428.991 424.525 427.502 422.277C426.017 420.028 423.767 417.045 420.881 414.117C417.986 411.194 415.03 408.908 412.799 407.395C410.569 405.878 409.101 405.069 409.145 404.99C409.162 404.958 409.543 405.134 410.219 405.479C410.899 405.817 411.853 406.364 413.002 407.088C415.301 408.532 418.327 410.798 421.252 413.751C424.169 416.71 426.396 419.762 427.813 422.078C428.524 423.235 429.06 424.196 429.39 424.88C429.725 425.56 429.896 425.943 429.864 425.96Z" fill="#263238"/>
<path d="M409.409 289.966C409.43 289.995 408.965 290.413 408.108 291.142C407.673 291.499 407.151 291.946 406.591 292.517C406.025 293.08 405.34 293.679 404.691 294.448C404.354 294.823 404.002 295.213 403.637 295.618C403.274 296.027 402.942 296.493 402.573 296.952C401.816 297.859 401.135 298.921 400.388 300.016C398.981 302.262 397.619 304.849 396.515 307.705C395.447 310.575 394.751 313.416 394.316 316.031C394.149 317.346 393.954 318.593 393.92 319.774C393.892 320.363 393.831 320.931 393.832 321.479C393.837 322.025 393.841 322.55 393.845 323.054C393.821 324.06 393.937 324.963 393.988 325.759C394.028 326.558 394.123 327.239 394.212 327.794C394.37 328.908 394.441 329.53 394.406 329.537C394.371 329.545 394.232 328.936 394.012 327.826C393.892 327.272 393.767 326.591 393.699 325.788C393.621 324.988 393.478 324.079 393.478 323.064C393.463 322.555 393.447 322.024 393.431 321.473C393.42 320.92 393.471 320.345 393.49 319.749C393.506 318.554 393.687 317.291 393.843 315.958C394.257 313.308 394.948 310.426 396.03 307.52C397.147 304.628 398.54 302.013 399.987 299.755C400.754 298.654 401.456 297.589 402.236 296.683C402.617 296.224 402.96 295.76 403.335 295.354C403.712 294.952 404.076 294.565 404.425 294.194C405.098 293.435 405.807 292.848 406.397 292.301C406.98 291.746 407.525 291.318 407.983 290.983C408.881 290.301 409.387 289.937 409.409 289.966Z" fill="#263238"/>
<path d="M317.094 328.382C316.032 325.434 313.452 323.105 312.924 320.016C312.514 317.617 313.426 315.21 313.644 312.786C314.103 307.679 311.425 300.723 309.593 295.934C307.686 290.95 303.925 288.521 307.657 284.189L307.325 282.285C300.303 281.246 292.73 287.993 292.805 295.091C287.778 297.18 284.101 302.205 283.633 307.628C283.165 313.051 285.924 318.633 290.519 321.553C289.662 328.147 288.846 335.09 291.356 341.247C293.865 347.404 300.949 352.236 307.16 349.863C311.4 348.243 313.933 343.928 315.697 339.746C317.215 336.144 318.419 332.061 317.094 328.382Z" fill="#263238"/>
<path d="M306.353 294.882C306.307 295.052 303.155 293.538 298.991 293.746C294.823 293.891 291.811 295.666 291.751 295.501C291.721 295.453 292.418 294.944 293.694 294.396C294.965 293.846 296.842 293.32 298.969 293.226C301.095 293.14 303.011 293.505 304.323 293.946C305.641 294.383 306.378 294.831 306.353 294.882Z" fill="#455A64"/>
<path d="M308.329 324.36C308.344 324.393 308.125 324.523 307.71 324.734C307.3 324.953 306.673 325.203 305.879 325.451C304.295 325.953 301.972 326.309 299.43 326.033C296.888 325.747 294.699 324.89 293.263 324.054C292.542 323.639 291.986 323.257 291.633 322.954C291.275 322.658 291.089 322.482 291.111 322.454C291.167 322.38 291.981 322.997 293.436 323.729C294.885 324.464 297.021 325.237 299.487 325.515C301.953 325.782 304.206 325.496 305.781 325.096C307.361 324.7 308.291 324.276 308.329 324.36Z" fill="#455A64"/>
<path d="M311.723 319.919C311.636 319.967 310.774 318.34 309.042 315.944C308.184 314.741 307.069 313.377 305.752 311.939C304.413 310.52 302.859 309.037 301.106 307.623C299.339 306.225 297.549 305.037 295.869 304.045C294.174 303.078 292.598 302.292 291.235 301.721C288.515 300.562 286.738 300.081 286.766 299.985C286.776 299.95 287.224 300.05 288.03 300.262C288.435 300.363 288.926 300.5 289.484 300.698C290.043 300.891 290.69 301.087 291.376 301.38C292.769 301.913 294.38 302.672 296.108 303.628C297.821 304.608 299.643 305.8 301.432 307.215C303.207 308.646 304.772 310.159 306.106 311.613C307.42 313.087 308.516 314.49 309.344 315.731C309.782 316.335 310.116 316.923 310.427 317.426C310.743 317.927 310.986 318.375 311.173 318.747C311.557 319.487 311.754 319.902 311.723 319.919Z" fill="#455A64"/>
<path d="M305.651 290.757C305.517 290.842 304.485 289.216 302.698 287.718C300.926 286.2 299.154 285.449 299.216 285.303C299.246 285.176 301.181 285.737 303.035 287.321C304.901 288.889 305.771 290.707 305.651 290.757Z" fill="#455A64"/>
<path d="M312.468 327.725C312.508 327.804 311.211 328.479 309.235 329.754C307.258 331.025 304.635 332.957 302.058 335.448C299.486 337.947 297.473 340.509 296.141 342.445C294.805 344.381 294.089 345.655 294.012 345.613C293.98 345.596 294.13 345.262 294.43 344.671C294.723 344.076 295.2 343.243 295.835 342.242C297.1 340.237 299.093 337.604 301.696 335.075C304.305 332.553 306.998 330.643 309.042 329.442C310.063 328.839 310.911 328.388 311.514 328.114C312.113 327.833 312.452 327.693 312.468 327.725Z" fill="white"/>
<path d="M294.917 320.698C294.881 320.697 294.871 320.334 294.884 319.677C294.887 319.02 294.969 318.071 295.137 316.907C295.467 314.581 296.302 311.396 297.902 308.167C299.513 304.942 301.55 302.355 303.206 300.689C304.032 299.853 304.74 299.215 305.262 298.816C305.778 298.409 306.073 298.199 306.096 298.227C306.157 298.299 305.04 299.224 303.474 300.942C301.906 302.653 299.953 305.229 298.369 308.399C296.796 311.575 295.92 314.685 295.501 316.968C295.075 319.254 295.011 320.703 294.917 320.698Z" fill="white"/>
<path d="M308.718 343.714C308.636 343.741 308.29 342.776 307.561 341.303C306.836 339.83 305.67 337.872 304.05 335.963C302.424 334.059 300.676 332.596 299.338 331.645C298 330.69 297.102 330.195 297.142 330.118C297.167 330.066 298.13 330.448 299.544 331.34C300.956 332.227 302.784 333.68 304.446 335.626C306.101 337.577 307.244 339.613 307.894 341.148C308.549 342.686 308.773 343.698 308.718 343.714Z" fill="#455A64"/>
<path d="M317.818 354.135C316.025 351.302 313.491 348.492 310.152 348.198L299.531 351.711C296.39 355.854 295.818 361.792 298.111 366.459C299.355 368.991 301.319 371.081 303.141 373.234C304.963 375.387 306.711 377.727 307.381 380.467C308.05 383.207 307.396 386.445 305.132 388.128C307.813 387.112 310.151 385.211 311.692 382.792C312.017 385.026 311.541 387.368 310.369 389.297C316.921 387.11 321.529 380.669 322.584 373.843C323.639 367.018 321.512 359.971 317.818 354.135Z" fill="#263238"/>
<path d="M316.589 344.499C316.24 343.663 315.586 342.882 314.699 342.696C313.355 342.414 312.175 343.53 311.133 344.426C307.407 347.631 302.105 348.908 297.328 347.75L297.144 347.716C296.263 348.144 295.461 349.622 295.583 350.595C295.705 351.568 296.287 352.428 296.988 353.113C298.596 354.683 300.858 355.473 303.103 355.581C305.348 355.69 307.583 355.163 309.691 354.387C311.804 353.609 313.882 352.53 315.324 350.8C316.766 349.069 317.455 346.578 316.589 344.499Z" fill="#455A64"/>
<path d="M107.922 322.888L114.035 359.853L167.94 411.742L213.827 435.695L287.119 415.327L288.694 406.819L249.01 379.993L204.266 341.69C204.266 341.69 189.607 299.308 184.509 290.067L107.922 322.888Z" fill="white"/>
<path d="M107.922 322.888C107.922 322.888 108.366 322.681 109.257 322.291C110.16 321.898 111.486 321.322 113.22 320.567C116.723 319.053 121.867 316.83 128.477 313.975C141.749 308.261 160.896 300.019 184.434 289.887L184.6 289.816L184.681 289.972C186.604 293.661 188.19 297.623 189.833 301.691C191.449 305.769 193.059 309.979 194.673 314.309C197.894 322.97 201.171 332.091 204.488 341.613L204.419 341.512C218.2 353.301 233.325 366.239 249.177 379.799L249.154 379.781C261.959 388.435 275.243 397.413 288.841 406.603L288.982 406.698L288.951 406.866C288.856 407.381 288.752 407.94 288.648 408.499C288.221 410.803 287.796 413.099 287.375 415.373L287.345 415.533L287.188 415.576C261.476 422.716 236.806 429.567 213.892 435.93L213.799 435.956L213.713 435.911C197.355 427.361 181.986 419.328 167.838 411.934L167.81 411.919L167.788 411.897C145.839 390.723 127.476 373.008 113.94 359.95L113.907 359.918L113.9 359.873C111.973 348.025 110.468 338.771 109.442 332.469C108.939 329.338 108.554 326.941 108.293 325.317C108.168 324.519 108.073 323.912 108.007 323.495C107.945 323.09 107.922 322.888 107.922 322.888C107.922 322.888 107.967 323.102 108.041 323.514C108.114 323.935 108.22 324.547 108.36 325.351C108.637 326.979 109.045 329.38 109.579 332.517C110.635 338.798 112.185 348.021 114.17 359.829L114.13 359.753C127.694 372.782 146.096 390.457 168.091 411.583L168.041 411.547C182.196 418.926 197.574 426.943 213.941 435.476L213.762 435.457C236.674 429.085 261.341 422.224 287.05 415.074L286.864 415.277C287.285 413.002 287.71 410.706 288.137 408.402C288.241 407.843 288.344 407.284 288.439 406.769L288.549 407.032C274.953 397.839 261.672 388.859 248.868 380.201L248.856 380.193L248.845 380.183C233.003 366.611 217.888 353.663 204.115 341.864L204.067 341.823L204.046 341.763C200.74 332.242 197.474 323.118 194.267 314.457C192.661 310.127 191.057 305.918 189.45 301.841C187.817 297.779 186.233 293.808 184.339 290.158L184.586 290.243C161.055 300.282 141.914 308.448 128.645 314.109C122.004 316.931 116.835 319.128 113.316 320.624C111.561 321.365 110.22 321.932 109.306 322.317C108.399 322.7 107.922 322.888 107.922 322.888Z" fill="#263238"/>
<path d="M204.268 341.689C204.276 341.705 204.044 341.846 203.593 342.1C203.097 342.373 202.437 342.735 201.61 343.19C199.884 344.129 197.369 345.455 194.245 347.062C187.998 350.278 179.292 354.579 169.519 358.991C159.74 363.399 150.741 367.057 144.167 369.541C140.881 370.785 138.209 371.758 136.35 372.395C135.457 372.698 134.744 372.941 134.208 373.123C133.716 373.284 133.455 373.36 133.449 373.343C133.443 373.326 133.692 373.217 134.172 373.024C134.699 372.819 135.401 372.546 136.28 372.205C138.162 371.475 140.798 370.453 144.033 369.198C150.568 366.628 159.534 362.921 169.303 358.517C179.067 354.109 187.791 349.864 194.077 346.734C197.181 345.18 199.71 343.914 201.515 343.011C202.361 342.593 203.035 342.259 203.543 342.008C204.01 341.783 204.259 341.673 204.268 341.689Z" fill="#263238"/>
<path d="M248.315 379.788C248.368 379.922 230.418 387.184 208.227 396.006C186.028 404.832 167.995 411.875 167.942 411.742C167.889 411.608 185.835 404.348 208.034 395.523C230.226 386.699 248.262 379.654 248.315 379.788Z" fill="#263238"/>
<path d="M121.033 366.166C121.033 366.166 124.518 364.94 125.241 362.915C125.964 360.891 125.819 359.3 125.241 358.577C124.663 357.854 114.541 353.661 113.529 353.371C112.517 353.082 103.841 352.359 103.407 357.564C103.407 357.564 102.973 360.456 105.431 363.926C105.431 363.926 102.105 370.288 102.105 371.879C102.105 373.469 103.696 375.928 103.551 377.229C103.406 378.53 100.515 381.712 101.527 384.314C102.539 386.917 103.696 387.351 103.696 389.23C103.696 391.11 102.973 392.556 103.696 393.713C104.419 394.87 109.046 400.798 112.661 401.521C116.276 402.244 133.772 404.702 133.772 404.702L136.375 406.437C136.375 406.437 144.039 408.751 148.087 401.955C152.136 395.159 151.413 395.593 151.413 395.593L138.235 383.03C138.235 383.03 139.81 379.991 137.966 378.385C136.886 377.445 134.785 377.084 134.785 377.084C134.785 377.084 135.942 372.746 133.773 371.3C131.603 369.856 121.033 366.166 121.033 366.166Z" fill="#FFBE9D"/>
<path d="M106.551 387.449C106.547 387.432 106.703 387.381 107.003 387.301C107.304 387.224 107.747 387.104 108.325 386.982C109.477 386.723 111.158 386.401 113.255 386.107C117.442 385.511 123.331 385.132 129.813 385.71L129.929 385.72L129.992 385.805C130.09 385.937 130.195 386.081 130.274 386.242C130.731 387.139 130.63 388.173 130.279 389.012C129.934 389.878 129.264 390.55 128.561 391.038C127.113 392.009 125.559 392.459 124.173 393.051C121.384 394.151 118.906 395.127 116.874 395.928L116.982 395.773C116.876 397.747 115.911 399.103 115.183 399.829C114.809 400.2 114.475 400.433 114.245 400.579C114.009 400.717 113.881 400.777 113.873 400.763C113.845 400.723 114.356 400.454 115.047 399.7C115.714 398.958 116.585 397.622 116.637 395.763L116.64 395.651L116.745 395.608C118.764 394.774 121.225 393.757 123.996 392.611C125.378 392.008 126.941 391.528 128.269 390.62C128.924 390.157 129.503 389.568 129.801 388.812C130.111 388.074 130.177 387.187 129.811 386.48C129.748 386.352 129.664 386.238 129.587 386.133L129.766 386.228C123.33 385.651 117.481 385.968 113.301 386.468C111.208 386.714 109.524 386.98 108.363 387.178C107.202 387.377 106.559 387.487 106.551 387.449Z" fill="#EB996E"/>
<path d="M134.874 377.047C134.887 377.052 134.866 377.162 134.766 377.348C134.665 377.531 134.471 377.787 134.142 378.023C133.815 378.258 133.355 378.471 132.784 378.556C132.217 378.644 131.562 378.6 130.87 378.483C128.132 377.972 124.379 377.21 120.231 376.348C116.608 375.592 113.289 374.877 110.748 374.309L110.867 374.297C109.34 374.906 108.054 375.419 107.04 375.823C106.127 376.173 105.61 376.35 105.594 376.313C105.578 376.276 106.065 376.028 106.951 375.615C107.947 375.167 109.209 374.6 110.709 373.926L110.763 373.902L110.828 373.915C113.385 374.411 116.712 375.082 120.336 375.838C124.481 376.7 128.234 377.521 130.935 378.121C132.274 378.434 133.394 378.275 134.028 377.855C134.676 377.458 134.831 377.017 134.874 377.047Z" fill="#EB996E"/>
<path d="M138.235 383.032C138.248 383.037 138.23 383.148 138.139 383.339C138.049 383.528 137.886 383.801 137.601 384.087C137.05 384.677 135.94 385.237 134.517 385.373C131.703 385.599 127.838 385.657 123.559 385.473C121.423 385.386 119.384 385.202 117.549 385.059C115.708 384.909 114.074 384.964 112.687 385.168C111.296 385.294 110.234 385.626 109.611 386.087C108.979 386.522 108.702 386.869 108.666 386.834C108.652 386.822 108.712 386.731 108.84 386.566C108.972 386.405 109.178 386.173 109.491 385.924C109.802 385.674 110.23 385.413 110.769 385.222C111.308 385.03 111.944 384.908 112.638 384.804C114.014 384.552 115.729 384.454 117.579 384.581C119.435 384.7 121.45 384.867 123.582 384.954C127.833 385.137 131.711 385.136 134.48 385.007C135.858 384.918 136.896 384.45 137.463 383.939C138.04 383.435 138.19 383.007 138.235 383.032Z" fill="#EB996E"/>
<path d="M140.482 391.2C140.398 391.337 138.538 390.141 135.945 389.473C133.358 388.777 131.151 388.901 131.145 388.74C131.115 388.616 133.386 388.248 136.077 388.969C138.774 389.668 140.57 391.107 140.482 391.2Z" fill="#EB996E"/>
<path d="M122.95 366.885C122.926 366.957 121.984 366.707 120.461 366.316C118.939 365.924 116.831 365.407 114.483 364.936C112.133 364.466 109.99 364.131 108.434 363.906C106.878 363.68 105.912 363.547 105.918 363.472C105.923 363.405 106.901 363.408 108.476 363.541C110.05 363.673 112.219 363.953 114.585 364.426C116.95 364.901 119.059 365.479 120.563 365.963C122.067 366.447 122.971 366.821 122.95 366.885Z" fill="#EB996E"/>
<path d="M336.052 412.303C336.052 412.303 319.59 398.49 316.439 398.005C313.289 397.52 308.199 397.036 306.988 398.005C305.776 398.974 275.726 406.972 275.726 406.972C275.726 406.972 273.127 408.348 272.179 411.221C271.688 412.709 272.494 414.318 273.961 414.87C275.423 415.42 277.557 415.844 280.088 415.212C280.088 415.212 278.876 417.878 280.815 420.301C282.754 422.724 288.758 421.27 288.758 421.27C288.758 421.27 286.389 427.329 292.205 429.025C292.205 429.025 290.024 430.721 292.205 433.387C294.386 436.053 296.634 438.775 300.929 438.476C305.224 438.177 313.531 438.499 313.531 438.499H329.041C329.041 438.499 331.707 437.265 333.161 437.022C334.615 436.78 342.202 438.444 342.202 438.444L345.063 412.97L336.052 412.303Z" fill="#FFBE9D"/>
<path d="M310.486 408.445C310.491 408.48 310.064 408.586 309.288 408.746C308.407 408.929 307.307 409.157 306.002 409.428C303.23 410.013 299.421 410.909 295.224 411.956C291.026 413.003 287.217 413.937 284.439 414.525C283.051 414.821 281.923 415.043 281.14 415.173C280.357 415.305 279.921 415.362 279.914 415.327C279.907 415.292 280.329 415.168 281.098 414.975C281.972 414.758 283.062 414.488 284.356 414.167C287.215 413.444 290.958 412.498 295.099 411.452C299.299 410.404 303.134 409.562 305.931 409.068C307.329 408.82 308.465 408.641 309.254 408.547C310.042 408.448 310.48 408.41 310.486 408.445Z" fill="#EB996E"/>
<path d="M310.159 417.972C310.165 418.046 308.955 418.196 307.001 418.416C305.047 418.636 302.348 418.935 299.381 419.355C296.414 419.777 293.745 420.263 291.822 420.659C289.898 421.053 288.713 421.33 288.692 421.254C288.674 421.191 289.828 420.788 291.74 420.3C293.651 419.81 296.327 419.263 299.308 418.839C302.288 418.417 305.002 418.175 306.968 418.048C308.935 417.922 310.154 417.902 310.159 417.972Z" fill="#EB996E"/>
<path d="M310.486 428.459C310.501 428.527 309.505 428.821 307.872 429.214C306.24 429.6 303.962 430.091 301.395 430.329C298.805 430.572 296.456 430.205 294.824 429.804C293.184 429.399 292.22 428.997 292.239 428.938C292.262 428.86 293.264 429.136 294.901 429.444C296.534 429.748 298.83 430.046 301.348 429.81C303.877 429.576 306.149 429.147 307.796 428.853C309.444 428.554 310.47 428.387 310.486 428.459Z" fill="#EB996E"/>
<path d="M482.796 456.948H16.9414V476.688H482.796V456.948Z" fill="#455A64"/>
<path d="M16.9425 456.948C16.9425 456.948 17.7345 456.928 19.3045 456.918C20.8875 456.911 23.2255 456.902 26.2905 456.889C32.4535 456.875 41.5315 456.855 53.2295 456.83C76.6725 456.8 110.611 456.757 152.637 456.704C236.774 456.661 353.278 456.6 482.796 456.533H483.144V456.948C483.144 463.183 483.144 469.908 483.144 476.661V476.689V477.104H482.796C257.66 476.953 68.6315 476.827 16.9425 476.792H16.8555V476.689C16.8785 469.908 16.8945 464.966 16.9055 461.708C16.9215 458.47 16.9425 456.948 16.9425 456.948C16.9455 457.65 16.9705 463.268 17.0285 476.688L16.9425 476.585C68.6315 476.55 257.66 476.424 482.796 476.273L482.449 476.687V476.659C482.449 469.907 482.449 463.181 482.449 456.946L482.796 457.36C353.379 457.293 236.966 457.233 152.895 457.189C110.835 457.136 76.8685 457.093 53.4065 457.063C41.6725 457.037 32.5675 457.017 26.3865 457.004C23.3005 456.991 20.9465 456.981 19.3535 456.975C17.7675 456.968 16.9425 456.948 16.9425 456.948Z" fill="#263238"/>
<path d="M115.629 457.241C115.637 457.247 115.587 457.319 115.481 457.455C115.373 457.589 115.219 457.795 114.995 458.046C114.528 458.53 113.794 459.231 112.653 459.863C111.518 460.492 109.991 461.054 108.153 461.326C106.319 461.629 104.198 461.67 101.876 461.593C99.5427 461.518 97.0107 461.174 94.3187 460.751C91.6267 460.342 88.7557 459.843 85.7127 459.757C79.6067 459.545 72.9747 461.093 66.3447 463.396C59.6967 465.697 53.4877 468.316 47.5457 469.911C44.5817 470.714 41.7047 471.285 38.9737 471.558C36.2437 471.83 33.6737 471.788 31.3557 471.544C26.7017 471.053 23.1307 469.605 20.9097 468.305C18.6757 466.994 17.6797 465.964 17.6797 465.964C17.6857 465.957 17.7627 466.004 17.9047 466.103C18.0717 466.224 18.2767 466.372 18.5267 466.552C19.0697 466.948 19.8947 467.508 21.0207 468.117C23.2547 469.346 26.7977 470.717 31.3987 471.152C33.6907 471.369 36.2287 471.388 38.9227 471.099C41.6177 470.81 44.4637 470.228 47.4017 469.418C53.2907 467.809 59.4747 465.185 66.1527 462.872C72.8097 460.559 79.5257 459.002 85.7297 459.246C88.8227 459.349 91.7077 459.869 94.3937 460.297C97.0797 460.739 99.5857 461.102 101.891 461.201C104.199 461.303 106.295 461.289 108.102 461.02C109.914 460.781 111.414 460.262 112.543 459.675C114.804 458.454 115.563 457.165 115.629 457.241Z" fill="#263238"/>
<path d="M64.6692 457.54C64.6942 457.57 64.1922 457.982 63.2592 458.705C62.3172 459.413 60.8862 460.363 59.0092 461.357C57.1162 462.314 54.7832 463.34 52.0572 464.098C49.3352 464.849 46.2452 465.374 42.9762 465.474C36.4122 465.698 30.5602 464.074 26.7372 462.227C24.8172 461.282 23.4812 460.106 22.8192 459.124C22.4742 458.642 22.2912 458.219 22.1782 457.934C22.0812 457.641 22.0402 457.486 22.0592 457.48C22.1192 457.455 22.2842 458.094 23.0002 458.998C23.6962 459.91 25.0182 460.995 26.9192 461.876C30.7232 463.601 36.4992 465.14 42.9582 464.919C46.1772 464.82 49.2212 464.319 51.9132 463.606C54.6082 462.885 56.9252 461.911 58.8212 461.01C60.7012 460.072 62.1522 459.181 63.1282 458.531C64.0952 457.865 64.6442 457.51 64.6692 457.54Z" fill="#263238"/>
<path d="M173.979 470.052C173.986 470.038 174.231 470.129 174.702 470.305C175.18 470.462 175.892 470.694 176.852 470.858C178.732 471.173 181.778 471.277 185.005 469.622L184.981 469.873C182.531 468.028 179.058 466.424 174.872 466.057C170.736 465.677 165.852 466.525 161.723 469.367C161.231 469.712 160.753 470.135 160.705 470.649C160.638 471.167 161.041 471.631 161.578 471.923C162.116 472.227 162.729 472.402 163.384 472.536C164.04 472.681 164.701 472.826 165.367 472.972C168.033 473.547 170.786 474.118 173.637 474.523C176.485 474.929 179.432 475.199 182.433 475.102C183.933 475.07 185.443 474.923 186.948 474.683C187.7 474.559 188.452 474.418 189.195 474.226C189.951 474.067 190.67 473.843 191.371 473.544C192.462 473.083 193.49 472.442 194.192 471.568C194.904 470.709 195.131 469.541 194.734 468.535C194.355 467.521 193.464 466.741 192.519 466.138C191.563 465.53 190.492 465.091 189.427 464.675C185.148 463.039 180.707 462.327 176.488 462.074C168.013 461.599 160.374 463.177 154.402 465.391C148.403 467.612 143.97 470.343 141.105 472.429C139.684 473.494 138.59 474.334 137.892 474.955C137.55 475.237 137.279 475.46 137.071 475.632C136.884 475.782 136.784 475.856 136.778 475.849C136.771 475.842 136.857 475.755 137.031 475.591C137.229 475.409 137.488 475.171 137.815 474.872C138.49 474.223 139.564 473.353 140.97 472.257C143.805 470.109 148.231 467.309 154.257 465.024C160.255 462.746 167.954 461.111 176.519 461.562C180.782 461.804 185.276 462.511 189.634 464.168C190.714 464.588 191.811 465.034 192.83 465.678C193.827 466.317 194.817 467.153 195.271 468.345C195.746 469.522 195.46 470.936 194.648 471.907C193.852 472.894 192.75 473.566 191.603 474.054C190.871 474.367 190.098 474.606 189.336 474.766C188.577 474.961 187.811 475.105 187.044 475.231C185.511 475.475 183.974 475.623 182.452 475.654C179.405 475.749 176.425 475.47 173.557 475.055C170.685 474.641 167.922 474.06 165.252 473.476C164.585 473.327 163.924 473.179 163.268 473.033C162.61 472.896 161.924 472.704 161.317 472.356C161.014 472.182 160.72 471.964 160.498 471.662C160.275 471.366 160.154 470.968 160.2 470.597C160.301 469.812 160.924 469.337 161.431 468.973C165.697 466.064 170.697 465.235 174.914 465.652C179.182 466.058 182.709 467.728 185.178 469.637L185.366 469.783L185.154 469.888C181.819 471.547 178.718 471.383 176.823 471.015C174.884 470.612 173.979 470.052 173.979 470.052Z" fill="#263238"/>
<path d="M233.927 457.752C233.949 457.741 234.167 458.074 234.386 458.746C234.612 459.413 234.809 460.443 234.694 461.708C234.54 464.253 232.931 467.592 230.157 470.324C228.814 471.726 227.358 472.909 225.918 473.815C224.472 474.713 223.054 475.335 221.829 475.736C220.602 476.14 219.574 476.337 218.866 476.456C218.153 476.556 217.756 476.585 217.75 476.548C217.729 476.446 219.313 476.234 221.691 475.367C222.874 474.926 224.236 474.285 225.628 473.388C227.013 472.483 228.421 471.32 229.739 469.945C232.454 467.268 234.038 464.1 234.291 461.67C234.603 459.224 233.788 457.78 233.927 457.752Z" fill="#263238"/>
<path d="M317.583 475.651C317.529 475.697 316.927 474.819 315.445 473.634C313.984 472.467 311.545 470.97 308.159 470.45C306.474 470.169 304.602 470.262 302.612 470.605C300.626 470.911 298.461 471.428 296.11 471.185C293.718 470.973 291.578 469.572 289.638 468.109C287.692 466.609 285.606 465.192 283.134 464.371C278.215 462.668 273.009 462.956 268.69 464.154C264.327 465.356 260.775 467.458 258.002 469.4C255.226 471.368 253.194 473.231 251.806 474.525C251.152 475.15 250.627 475.652 250.225 476.037C249.864 476.384 249.668 476.56 249.653 476.547C249.638 476.534 249.807 476.332 250.14 475.96C250.472 475.586 250.979 475.049 251.647 474.372C252.991 473.027 254.99 471.111 257.76 469.084C260.528 467.084 264.101 464.916 268.543 463.661C272.938 462.414 278.259 462.095 283.328 463.847C285.867 464.686 288.056 466.181 289.98 467.676C291.916 469.144 293.936 470.465 296.172 470.675C298.39 470.922 300.53 470.441 302.536 470.149C304.543 469.821 306.502 469.745 308.224 470.061C311.697 470.646 314.151 472.233 315.59 473.468C317.05 474.725 317.583 475.651 317.583 475.651Z" fill="#263238"/>
<path d="M392.275 457.137C392.291 457.149 392.115 457.381 391.766 457.811C391.403 458.23 390.926 458.901 390.174 459.646C388.758 461.215 386.474 463.291 383.374 465.501C380.276 467.71 376.299 469.986 371.575 471.84C369.217 472.768 366.675 473.602 363.967 474.192C361.266 474.786 358.409 475.24 355.455 475.253C349.535 475.288 344.003 473.868 339.304 471.998C334.593 470.107 330.638 467.793 327.568 465.547C324.493 463.303 322.232 461.207 320.815 459.641C320.067 458.893 319.583 458.228 319.22 457.809C318.869 457.379 318.693 457.149 318.708 457.136C318.723 457.124 318.93 457.332 319.309 457.737C319.7 458.132 320.208 458.771 320.978 459.493C322.438 461.006 324.726 463.043 327.808 465.23C330.885 467.419 334.83 469.677 339.503 471.523C344.166 473.349 349.633 474.732 355.447 474.697C358.351 474.684 361.17 474.241 363.84 473.661C366.518 473.086 369.037 472.27 371.378 471.364C376.068 469.554 380.033 467.333 383.138 465.181C386.244 463.029 388.554 461.012 390.012 459.497C390.785 458.778 391.287 458.133 391.678 457.739C392.054 457.333 392.26 457.125 392.275 457.137Z" fill="#263238"/>
<path d="M381.603 456.948C381.614 456.964 381.477 457.071 381.206 457.259C380.933 457.443 380.537 457.728 379.999 458.051C378.94 458.722 377.358 459.624 375.333 460.611C373.307 461.591 370.829 462.652 367.961 463.519C365.102 464.382 361.837 465.109 358.342 465.112C351.34 465.074 345.296 462.865 341.264 460.93C339.238 459.94 337.673 459.004 336.638 458.297C336.109 457.959 335.728 457.656 335.462 457.462C335.199 457.263 335.067 457.151 335.079 457.136C335.107 457.099 335.688 457.476 336.76 458.115C337.827 458.762 339.411 459.64 341.441 460.576C345.481 462.404 351.477 464.52 358.341 464.556C361.75 464.554 364.971 463.856 367.804 463.029C370.647 462.199 373.121 461.184 375.156 460.257C377.189 459.323 378.793 458.478 379.883 457.866C380.978 457.26 381.578 456.911 381.603 456.948Z" fill="#263238"/>
<path d="M428.97 458.97C428.967 458.989 428.782 458.99 428.432 458.974C428.017 458.948 427.513 458.917 426.906 458.88C426.567 458.855 426.201 458.828 425.807 458.799C425.398 458.796 424.96 458.793 424.495 458.79C423.554 458.78 422.484 458.749 421.302 458.841C420.709 458.872 420.091 458.904 419.448 458.938C418.805 459.011 418.138 459.086 417.448 459.164C416.061 459.28 414.607 459.598 413.066 459.847C410.01 460.491 406.696 461.402 403.328 462.661C399.972 463.957 396.904 465.477 394.206 467.01C392.893 467.833 391.605 468.559 390.497 469.375C389.933 469.768 389.388 470.148 388.862 470.514C388.362 470.906 387.88 471.285 387.418 471.647C386.478 472.347 385.702 473.062 385.007 473.677C384.662 473.98 384.338 474.265 384.035 474.531C383.759 474.806 383.503 475.061 383.267 475.297C382.838 475.715 382.482 476.061 382.189 476.347C381.938 476.583 381.798 476.701 381.783 476.689C381.768 476.677 381.878 476.534 382.102 476.273C382.375 475.967 382.706 475.596 383.105 475.149C383.332 474.901 383.577 474.633 383.842 474.344C384.136 474.066 384.451 473.768 384.786 473.451C385.465 472.811 386.228 472.07 387.159 471.345C387.617 470.971 388.095 470.581 388.591 470.175C389.115 469.797 389.658 469.405 390.22 469.001C391.327 468.161 392.616 467.414 393.933 466.572C396.641 465.001 399.732 463.452 403.12 462.144C406.521 460.872 409.873 459.968 412.964 459.345C414.523 459.107 415.993 458.804 417.396 458.707C418.093 458.639 418.766 458.574 419.416 458.511C420.065 458.489 420.69 458.469 421.289 458.449C422.481 458.381 423.56 458.44 424.507 458.48C424.975 458.5 425.415 458.518 425.826 458.536C426.222 458.583 426.589 458.626 426.928 458.666C427.533 458.745 428.035 458.811 428.449 458.865C428.792 458.914 428.972 458.951 428.97 458.97Z" fill="#263238"/>
<path d="M325.951 475.255C325.887 475.302 325.24 474.031 323.388 472.302C321.56 470.573 318.388 468.541 314 467.218C311.814 466.553 309.346 466.057 306.675 465.651C304.004 465.239 301.125 464.917 298.11 464.413C295.088 463.933 291.975 463.095 288.808 462.153C285.635 461.233 282.349 460.25 278.885 459.832C271.929 458.979 265.218 460.401 259.554 462.418C256.703 463.428 254.101 464.648 251.691 465.841C249.282 467.037 247.072 468.218 245.067 469.315C241.057 471.514 237.866 473.385 235.666 474.686C234.599 475.319 233.754 475.821 233.135 476.189C232.868 476.344 232.651 476.47 232.472 476.573C232.321 476.657 232.241 476.696 232.235 476.688C232.23 476.68 232.299 476.625 232.44 476.525C232.61 476.409 232.818 476.267 233.072 476.094C233.632 475.721 234.464 475.18 235.547 474.502C237.712 473.143 240.875 471.219 244.866 468.972C246.862 467.851 249.065 466.648 251.473 465.43C253.88 464.216 256.497 462.97 259.371 461.937C265.077 459.875 271.874 458.412 278.958 459.279C282.487 459.706 285.801 460.704 288.971 461.63C292.141 462.58 295.205 463.417 298.202 463.907C301.193 464.422 304.071 464.761 306.751 465.195C309.432 465.623 311.918 466.145 314.125 466.843C318.551 468.229 321.741 470.347 323.545 472.147C325.373 473.949 325.951 475.255 325.951 475.255Z" fill="#263238"/>
<path d="M221.022 457.241C221.052 457.243 221.066 457.695 220.954 458.502C220.854 459.311 220.577 460.469 220.043 461.834C218.971 464.525 216.761 468.178 212.884 470.712C209.007 473.121 205.092 474.515 202.271 475.446C200.853 475.903 199.692 476.23 198.883 476.433C198.075 476.637 197.621 476.725 197.61 476.689C197.599 476.651 198.031 476.493 198.817 476.226C199.715 475.915 200.824 475.53 202.135 475.075C204.906 474.055 208.77 472.609 212.568 470.247C216.299 467.813 218.524 464.284 219.666 461.687C220.826 459.043 220.904 457.221 221.022 457.241Z" fill="#263238"/>
<path d="M112.876 476.689C112.85 476.66 113.255 476.286 114.01 475.633C114.759 474.973 115.892 474.073 117.327 473.003C120.194 470.86 124.369 468.167 129.208 465.585C134.049 463.006 138.572 460.944 141.854 459.483C143.497 458.754 144.832 458.178 145.76 457.791C146.688 457.404 147.21 457.207 147.226 457.242C147.243 457.277 146.754 457.54 145.855 457.987C144.854 458.471 143.569 459.093 142.028 459.838C138.792 461.39 134.307 463.503 129.485 466.072C124.667 468.643 120.484 471.267 117.569 473.319C116.11 474.343 114.943 475.193 114.153 475.8C113.356 476.399 112.902 476.718 112.876 476.689Z" fill="#263238"/>
<path d="M134.826 458.049C134.821 458.113 133.749 457.915 131.821 458.057C129.901 458.206 127.13 458.817 124.049 460.346C120.935 461.817 117.649 464.257 113.953 466.911C112.094 468.225 110.101 469.575 107.873 470.728C105.646 471.884 103.182 472.774 100.602 473.441C95.4169 474.735 90.3129 475.033 85.7199 475.174C81.1139 475.305 76.9759 475.216 73.5089 475.354C70.0409 475.472 67.2519 475.8 65.3429 476.128C64.3899 476.299 63.6499 476.44 63.1529 476.554C62.6529 476.66 62.3879 476.707 62.3829 476.689C62.3779 476.67 62.6329 476.587 63.1239 476.445C63.6139 476.295 64.3489 476.12 65.2999 475.915C67.2059 475.52 70.0099 475.131 73.4899 474.961C76.9699 474.772 81.1169 474.821 85.7009 474.662C90.2799 474.494 95.3429 474.179 100.455 472.903C102.998 472.245 105.419 471.376 107.608 470.247C109.8 469.122 111.78 467.795 113.641 466.497C117.339 463.876 120.687 461.44 123.868 459.994C127.013 458.489 129.853 457.924 131.804 457.842C132.783 457.804 133.543 457.852 134.053 457.914C134.565 457.984 134.829 458.03 134.826 458.049Z" fill="#263238"/>
<path d="M439.915 476.689C439.889 476.66 440.294 476.286 441.049 475.633C441.798 474.973 442.931 474.073 444.365 473.003C447.231 470.86 451.408 468.167 456.246 465.585C461.087 463.006 465.61 460.944 468.892 459.483C470.534 458.754 471.87 458.178 472.798 457.791C473.726 457.404 474.247 457.207 474.264 457.242C474.281 457.277 473.792 457.54 472.893 457.987C471.892 458.471 470.607 459.093 469.066 459.838C465.83 461.39 461.344 463.503 456.523 466.072C451.705 468.643 447.522 471.267 444.607 473.319C443.148 474.343 441.981 475.193 441.191 475.8C440.394 476.399 439.94 476.718 439.915 476.689Z" fill="#263238"/>
<path d="M461.861 458.049C461.856 458.113 460.784 457.915 458.856 458.057C456.936 458.206 454.165 458.817 451.084 460.346C447.969 461.817 444.684 464.257 440.988 466.911C439.129 468.225 437.136 469.575 434.908 470.728C432.681 471.884 430.217 472.774 427.637 473.441C422.452 474.735 417.348 475.033 412.755 475.174C408.149 475.305 404.011 475.216 400.544 475.354C397.076 475.472 394.287 475.8 392.378 476.128C391.425 476.299 390.685 476.44 390.188 476.554C389.688 476.66 389.423 476.707 389.418 476.689C389.413 476.67 389.668 476.587 390.159 476.445C390.649 476.295 391.383 476.12 392.335 475.915C394.241 475.52 397.045 475.131 400.526 474.961C404.006 474.772 408.152 474.821 412.737 474.662C417.316 474.494 422.379 474.179 427.491 472.903C430.034 472.245 432.455 471.376 434.644 470.247C436.836 469.122 438.816 467.795 440.676 466.497C444.374 463.876 447.722 461.44 450.904 459.994C454.049 458.489 456.889 457.924 458.84 457.842C459.819 457.804 460.579 457.852 461.089 457.914C461.599 457.984 461.863 458.03 461.861 458.049Z" fill="#263238"/>
<path d="M425.366 456.87C425.366 457.024 405.896 457.148 381.886 457.148C357.867 457.148 338.402 457.024 338.402 456.87C338.402 456.716 357.867 456.592 381.886 456.592C405.896 456.592 425.366 456.716 425.366 456.87Z" fill="#263238"/>
<path d="M197.12 192.621C221.734 188.485 238.334 165.18 234.199 140.567C230.063 115.953 206.758 99.3527 182.144 103.488C157.531 107.624 140.931 130.929 145.066 155.543C149.202 180.156 172.507 196.756 197.12 192.621Z" fill="white"/>
<path d="M234.865 184.296C234.869 184.343 234.371 184.334 233.543 184.603C232.727 184.865 231.567 185.495 230.641 186.737C230.188 187.355 229.795 188.122 229.625 189.003C229.463 189.881 229.52 190.869 229.909 191.801C230.634 193.653 232.586 195.355 234.929 195.415C237.274 195.43 239.279 193.79 240.063 191.962C240.482 191.042 240.57 190.057 240.436 189.174C240.293 188.287 239.925 187.509 239.492 186.877C238.606 185.606 237.467 184.941 236.66 184.653C235.841 184.359 235.343 184.351 235.349 184.305C235.35 184.291 235.472 184.29 235.706 184.303C235.824 184.305 235.968 184.321 236.136 184.358C236.306 184.386 236.501 184.425 236.713 184.498C237.562 184.747 238.774 185.395 239.736 186.705C240.207 187.357 240.613 188.171 240.782 189.117C240.943 190.059 240.859 191.128 240.421 192.117C240.005 193.11 239.279 194.034 238.327 194.715C237.386 195.41 236.182 195.843 234.924 195.838C233.667 195.802 232.478 195.332 231.559 194.607C230.629 193.896 229.933 192.95 229.549 191.945C229.142 190.943 229.093 189.871 229.283 188.935C229.481 187.995 229.913 187.194 230.404 186.557C231.407 185.278 232.639 184.669 233.496 184.447C233.71 184.381 233.906 184.348 234.077 184.325C234.246 184.294 234.391 184.281 234.509 184.284C234.743 184.277 234.865 184.282 234.865 184.296Z" fill="#263238"/>
<path d="M234.68 155.003C234.68 155.003 234.691 154.752 234.734 154.266C234.78 153.769 234.847 153.05 234.935 152.11C234.981 151.636 235.032 151.106 235.088 150.523C235.118 149.937 235.092 149.294 235.097 148.599C235.095 147.904 235.093 147.155 235.091 146.355C235.105 145.954 235.072 145.543 235.019 145.119C234.975 144.695 234.93 144.259 234.884 143.81C234.632 140.21 233.643 135.849 231.752 131.094C229.837 126.355 226.805 121.244 222.315 116.609C221.75 116.035 221.178 115.453 220.6 114.865C219.988 114.313 219.334 113.793 218.692 113.247C218.369 112.976 218.044 112.704 217.717 112.43C217.393 112.153 217.066 111.875 216.701 111.645C215.99 111.158 215.272 110.666 214.546 110.169C214.182 109.923 213.822 109.665 213.449 109.425C213.059 109.211 212.668 108.996 212.275 108.78C211.489 108.348 210.696 107.912 209.895 107.471C209.082 107.056 208.214 106.735 207.364 106.356C206.936 106.173 206.506 105.99 206.074 105.805C205.857 105.716 205.644 105.614 205.423 105.534L204.747 105.322C202.935 104.773 201.121 104.102 199.183 103.792C198.222 103.61 197.263 103.365 196.28 103.229C195.291 103.128 194.295 103.027 193.291 102.924C192.789 102.882 192.287 102.801 191.779 102.79C191.271 102.79 190.761 102.789 190.25 102.789C189.227 102.8 188.195 102.761 187.161 102.813C185.101 103.046 182.99 103.131 180.918 103.644C180.396 103.749 179.873 103.854 179.348 103.96C179.086 104.015 178.821 104.06 178.561 104.124L177.789 104.36C176.759 104.675 175.723 104.992 174.68 105.31C173.655 105.677 172.656 106.134 171.634 106.546C171.13 106.769 170.603 106.943 170.115 107.207L168.644 107.991C166.631 108.96 164.797 110.277 162.898 111.526C162.014 112.241 161.127 112.96 160.235 113.682L159.565 114.224C159.353 114.418 159.153 114.625 158.946 114.825L157.709 116.039L156.467 117.258L155.338 118.593L154.209 119.937L153.643 120.611C153.468 120.847 153.308 121.094 153.139 121.335C152.472 122.306 151.803 123.281 151.132 124.259C150.559 125.298 149.983 126.341 149.405 127.388C147.252 131.658 145.73 136.312 144.916 141.16C144.231 146.03 144.279 150.927 145.047 155.649C145.283 156.822 145.517 157.99 145.751 159.154C146.097 160.289 146.442 161.421 146.786 162.548L147.047 163.391L147.384 164.205L148.056 165.827L148.731 167.44L149.549 168.977L150.363 170.508L150.772 171.268L151.248 171.987C151.881 172.945 152.512 173.897 153.139 174.846C154.575 176.609 155.927 178.417 157.555 179.948L158.722 181.139C159.108 181.538 159.559 181.863 159.972 182.227C160.823 182.927 161.638 183.664 162.505 184.323C163.403 184.941 164.296 185.555 165.184 186.165L165.849 186.623C166.078 186.763 166.317 186.885 166.55 187.016C167.019 187.275 167.486 187.533 167.952 187.79C169.774 188.903 171.762 189.62 173.656 190.462C174.627 190.824 175.623 191.097 176.595 191.415C177.083 191.569 177.569 191.722 178.054 191.875C178.542 192.017 179.045 192.091 179.536 192.202C180.524 192.407 181.505 192.61 182.478 192.811C183.457 192.977 184.445 193.032 185.417 193.148C187.36 193.436 189.291 193.341 191.185 193.363L191.894 193.365C192.129 193.355 192.363 193.323 192.597 193.303C193.064 193.257 193.529 193.212 193.992 193.166C194.916 193.061 195.841 193.017 196.741 192.865C197.637 192.686 198.526 192.509 199.405 192.334C199.845 192.246 200.282 192.159 200.718 192.072C201.143 191.945 201.567 191.818 201.988 191.692C202.83 191.437 203.663 191.184 204.487 190.933C204.905 190.824 205.3 190.656 205.692 190.49C206.086 190.327 206.478 190.165 206.867 190.004C207.644 189.676 208.424 189.378 209.174 189.035C209.903 188.648 210.623 188.266 211.335 187.889C217.012 184.82 221.442 180.859 224.694 176.916C225.104 176.424 225.52 175.95 225.906 175.468C226.257 174.959 226.602 174.46 226.94 173.97C227.279 173.48 227.61 172.999 227.936 172.528C228.095 172.29 228.268 172.064 228.411 171.823C228.547 171.578 228.681 171.335 228.815 171.095C229.348 170.135 229.857 169.217 230.344 168.34C230.805 167.452 231.137 166.554 231.509 165.733C231.688 165.319 231.862 164.916 232.031 164.525C232.209 164.137 232.364 163.754 232.471 163.368C232.714 162.606 232.942 161.893 233.153 161.23C233.358 160.566 233.576 159.96 233.724 159.393C233.846 158.82 233.957 158.3 234.056 157.834C234.256 156.911 234.408 156.205 234.514 155.718C234.615 155.246 234.68 155.003 234.68 155.003C234.68 155.003 234.644 155.25 234.552 155.73C234.456 156.22 234.317 156.93 234.135 157.857C234.041 158.326 233.937 158.848 233.822 159.424C233.68 159.994 233.468 160.603 233.269 161.271C233.063 161.938 232.841 162.655 232.604 163.421C232.499 163.81 232.347 164.195 232.172 164.585C232.005 164.979 231.833 165.384 231.657 165.801C231.289 166.628 230.962 167.531 230.504 168.426C230.021 169.308 229.514 170.234 228.985 171.201C228.852 171.443 228.719 171.687 228.583 171.934C228.441 172.177 228.269 172.405 228.11 172.644C227.786 173.119 227.455 173.604 227.117 174.098C226.779 174.592 226.435 175.096 226.084 175.609C225.699 176.096 225.283 176.574 224.873 177.07C221.621 181.047 217.18 185.049 211.475 188.155C210.76 188.537 210.035 188.924 209.303 189.315C208.55 189.662 207.765 189.965 206.984 190.297C206.592 190.46 206.198 190.624 205.802 190.789C205.407 190.957 205.01 191.127 204.589 191.238C203.759 191.492 202.921 191.749 202.074 192.009C201.65 192.136 201.226 192.275 200.796 192.394C200.357 192.482 199.917 192.572 199.474 192.661C198.588 192.84 197.694 193.02 196.791 193.202C195.884 193.357 194.953 193.404 194.021 193.512C193.554 193.559 193.086 193.606 192.615 193.653C192.38 193.674 192.144 193.707 191.907 193.717H191.193C189.285 193.699 187.338 193.797 185.38 193.511C184.401 193.397 183.405 193.342 182.418 193.177C181.437 192.976 180.448 192.772 179.451 192.568C178.955 192.457 178.448 192.382 177.956 192.24C177.467 192.087 176.977 191.933 176.484 191.779C175.504 191.459 174.499 191.185 173.519 190.822C171.607 189.976 169.602 189.255 167.762 188.135C167.292 187.876 166.82 187.616 166.347 187.356C166.112 187.223 165.87 187.1 165.639 186.96L164.968 186.5C164.072 185.885 163.17 185.267 162.263 184.645C161.388 183.981 160.564 183.239 159.705 182.534C159.288 182.167 158.833 181.839 158.443 181.437L157.264 180.237C155.62 178.694 154.253 176.871 152.804 175.093C152.17 174.137 151.534 173.176 150.894 172.21L150.414 171.485L150 170.718L149.177 169.174L148.351 167.623L147.669 165.996L146.99 164.359L146.649 163.538L146.384 162.688C146.037 161.551 145.689 160.409 145.339 159.263C145.103 158.088 144.865 156.909 144.627 155.726C143.851 150.96 143.801 146.017 144.493 141.102C145.313 136.209 146.85 131.512 149.025 127.203C149.609 126.146 150.19 125.094 150.769 124.045C151.447 123.058 152.123 122.074 152.796 121.095C152.966 120.851 153.128 120.602 153.305 120.364L153.877 119.684L155.017 118.328L156.158 116.983L157.412 115.753L158.661 114.529C158.87 114.327 159.073 114.118 159.287 113.923L159.963 113.376C160.863 112.648 161.76 111.923 162.652 111.202C164.569 109.943 166.42 108.617 168.453 107.64L169.938 106.851C170.43 106.586 170.963 106.409 171.471 106.185C172.502 105.771 173.511 105.311 174.545 104.942C175.597 104.622 176.643 104.303 177.682 103.987L178.461 103.75C178.724 103.685 178.991 103.641 179.255 103.585C179.785 103.479 180.313 103.373 180.839 103.268C182.93 102.754 185.059 102.669 187.137 102.439C188.18 102.387 189.221 102.428 190.252 102.419C190.768 102.42 191.282 102.421 191.794 102.423C192.305 102.435 192.812 102.517 193.318 102.56C194.33 102.665 195.334 102.769 196.33 102.872C197.321 103.011 198.287 103.259 199.255 103.445C201.208 103.762 203.036 104.441 204.86 104.998L205.541 105.213C205.764 105.293 205.979 105.396 206.197 105.487C206.632 105.674 207.065 105.859 207.496 106.044C208.351 106.427 209.225 106.753 210.044 107.173C210.85 107.619 211.648 108.06 212.439 108.497C212.835 108.715 213.228 108.933 213.619 109.15C213.994 109.393 214.356 109.653 214.722 109.902C215.451 110.404 216.173 110.901 216.888 111.394C217.255 111.627 217.583 111.907 217.909 112.187C218.237 112.463 218.564 112.738 218.889 113.012C219.534 113.564 220.191 114.089 220.805 114.646C221.386 115.24 221.96 115.826 222.527 116.406C227.033 121.085 230.064 126.238 231.968 131.01C233.849 135.798 234.817 140.184 235.045 143.799C235.088 144.25 235.13 144.688 235.171 145.114C235.221 145.539 235.25 145.952 235.233 146.354C235.228 147.157 235.224 147.908 235.22 148.605C235.209 149.302 235.227 149.947 235.191 150.533C235.127 151.117 235.069 151.647 235.017 152.122C234.911 153.061 234.83 153.78 234.775 154.276C234.72 154.757 234.68 155.003 234.68 155.003Z" fill="#263238"/>
<path d="M177.84 148.865C177.84 151.311 175.857 153.293 173.412 153.293C170.966 153.293 168.984 151.31 168.984 148.865C168.984 146.419 170.967 144.437 173.412 144.437C175.857 144.436 177.84 146.419 177.84 148.865Z" fill="#263238"/>
<path d="M193.133 148.865C193.133 151.311 191.15 153.293 188.705 153.293C186.259 153.293 184.277 151.31 184.277 148.865C184.277 146.419 186.26 144.437 188.705 144.437C191.151 144.436 193.133 146.419 193.133 148.865Z" fill="#263238"/>
<path d="M208.422 148.865C208.422 151.311 206.439 153.293 203.994 153.293C201.548 153.293 199.566 151.31 199.566 148.865C199.566 146.419 201.548 144.437 203.994 144.437C206.439 144.436 208.422 146.419 208.422 148.865Z" fill="#263238"/>
</svg>
