<svg xmlns="http://www.w3.org/2000/svg" width="500" height="500" fill="none"><path fill="#0A5840" d="M48.772 385.438H411.24V149.942c-12.844-25.648-48.516-86.433-98.15-86.433-62.902 0-35.659 125.841-85.678 125.841S83.894 179.269 83.894 224.419s84.454 92.21 57.934 118.73c-24.005 24.005-82.227 11.133-93.056 42.289"/><path fill="#fff" d="M48.772 385.438H411.24V149.942c-12.844-25.648-48.516-86.433-98.15-86.433-62.902 0-35.659 125.841-85.678 125.841S83.894 179.269 83.894 224.419s84.454 92.21 57.934 118.73c-24.005 24.005-82.227 11.133-93.056 42.289" opacity=".7"/><path fill="#0A5840" d="M411.24 385.45v-.012H48.772s-29.95 5.206-28.504 21.67 55.672-1.793 64.349 24.326c8.676 26.119 80.976 31.904 142.795 10.936C289.231 421.403 311.645 459 343.458 459s31.994-33.44 62.993-27.565 44.841-5.934 32.764-18.01z"/><path stroke="#263238" stroke-linecap="round" stroke-linejoin="round" stroke-miterlimit="10" d="M31.322 385.45H406.45M426.482 299.168l17.933 17.933M472.841 345.527l-17.853-17.854M444.415 325.499l-17.933-17.932M472.837 353.921l-17.849-17.849M444.659 98.454l-16.991-5.958M472.838 108.335l-18.867-6.616M444.731 105.092l-17.063-5.983M472.841 114.948l-18.862-6.613M445.762 213.087l-19.28-10.953M472.843 228.47l-19.781-11.237M445.762 220.077l-19.28-10.952M472.843 235.461l-19.845-11.273M424.55 79.325V58.81M424.55 164.415V82.941M424.55 197.9v-29.553M424.55 305.773V203.326M424.55 368.442v-57.209M457.081 404.67l-32.531-32.53M481.367 428.956l-19.408-19.408M446.451 328.675v56.763M446.451 222.573v92.908M446.451 107.071v103.844M446.451 58.81v38.32M452.995 336.072v56.958M452.995 226.911v98.588M452.995 109.783v104.656M452.995 58.81v41.03M476.426 366.717v46.707M476.426 259.447v103.391M476.426 124.605v129.944M476.426 58.81v60.372M434.364 321.989v50.027M434.364 220.076v81.306M434.364 107.071v95.064M434.364 58.81v30.006M480.28 454.49l-69.04-69.04V58.81"/><path fill="#0A5840" d="M385.753 49.139H69.071v182.014h316.682z"/><mask id="a" width="317" height="183" x="69" y="49" maskUnits="userSpaceOnUse" style="mask-type:luminance"><path fill="#fff" d="M385.753 49.139H69.071v182.014h316.682z"/></mask><g mask="url(#a)"><path fill="#fff" d="M385.753 49.139H69.071v182.014h316.682z" opacity=".6"/></g><path stroke="#263238" stroke-linecap="round" stroke-linejoin="round" stroke-miterlimit="10" d="M385.753 49.139H69.071v182.014h316.682z"/><path fill="#263238" stroke="#263238" stroke-linecap="round" stroke-linejoin="round" stroke-miterlimit="10" d="M385.753 49.139H69.071v18.434h316.682z"/><path fill="#fff" stroke="#263238" stroke-linecap="round" stroke-linejoin="round" stroke-miterlimit="10" d="M237.717 54.015H88.569v8.682h149.148z"/><path fill="#0A5840" d="M116.113 54.015H88.569v8.682h27.544z"/><mask id="b" width="29" height="9" x="88" y="54" maskUnits="userSpaceOnUse" style="mask-type:luminance"><path fill="#fff" d="M116.113 54.015H88.569v8.682h27.544z"/></mask><g mask="url(#b)"><path fill="#fff" stroke="#263238" stroke-linecap="round" stroke-linejoin="round" stroke-miterlimit="10" d="M116.113 54.015H88.569v8.682h27.544z" opacity=".5"/></g><path stroke="#263238" stroke-linecap="round" stroke-linejoin="round" stroke-miterlimit="10" d="M116.113 54.015H88.569v8.682h27.544z"/><path fill="#fff" stroke="#263238" stroke-linecap="round" stroke-linejoin="round" stroke-miterlimit="10" d="M244.392 159.825H139v8.682h105.392zM381.971 177.736h-82.798v8.682h82.798zM381.971 195.166h-82.798v8.682h82.798zM381.971 212.595h-82.798v8.682h82.798z"/><path fill="#0A5840" stroke="#263238" stroke-linecap="round" stroke-linejoin="round" stroke-miterlimit="10" d="M166.544 159.825H139v8.682h27.544z"/><path fill="#fff" d="M288.148 177.736H139v43.541h149.148z" opacity=".7"/><path fill="#fff" stroke="#263238" stroke-linecap="round" stroke-linejoin="round" stroke-miterlimit="10" d="M381.664 74.08H139v14.126h242.664z"/><path fill="#fff" d="M381.664 94.713H139v55.884h242.664z" opacity=".5"/><path fill="#0A5840" stroke="#263238" stroke-linecap="round" stroke-linejoin="round" stroke-miterlimit="10" d="M183.814 74.08H139v14.126h44.814zM172.287 99.418h-30.034v9.467h30.034zM329.207 163.774h-30.034v9.467h30.034zM107.421 138.847H77.387v9.467h30.034z"/><path fill="#fff" stroke="#263238" stroke-linecap="round" stroke-linejoin="round" stroke-miterlimit="10" d="M331.347 113.417H142.253v4.734h189.094zM99.078 152.708H77.74v4.734h21.338z"/><path fill="#0A5840" stroke="#263238" stroke-linecap="round" stroke-linejoin="round" stroke-miterlimit="10" d="M107.421 166.174H77.387v9.467h30.034z"/><path fill="#fff" stroke="#263238" stroke-linecap="round" stroke-linejoin="round" stroke-miterlimit="10" d="M104.5 180.035H77.74v4.734h26.76zM101.247 189.162H77.74v4.733h23.507zM95.824 198.289H77.74v4.734h18.084zM104.5 207.416H77.74v4.734h26.76zM99.078 216.544H77.74v4.734h21.338zM346.531 122.683H142.253v4.734h204.278zM323.394 131.948H142.253v4.733h181.141zM341.469 141.214H142.253v4.734h199.216z"/><path fill="#0A5840" stroke="#263238" stroke-linecap="round" stroke-linejoin="round" stroke-miterlimit="10" d="M381.664 54.015h-8.682v8.682h8.682z"/><path fill="#0A5840" d="M360.25 54.015h-8.682v8.682h8.682z"/><mask id="c" width="10" height="9" x="351" y="54" maskUnits="userSpaceOnUse" style="mask-type:luminance"><path fill="#fff" d="M360.25 54.015h-8.682v8.682h8.682z"/></mask><g mask="url(#c)"><path fill="#fff" d="M360.25 54.015h-8.682v8.682h8.682z" opacity=".6"/></g><path stroke="#263238" stroke-linecap="round" stroke-linejoin="round" stroke-miterlimit="10" d="M360.25 54.015h-8.682v8.682h8.682z"/><path fill="#0A5840" d="M370.957 54.015h-8.682v8.682h8.682z"/><mask id="d" width="9" height="9" x="362" y="54" maskUnits="userSpaceOnUse" style="mask-type:luminance"><path fill="#fff" d="M370.957 54.015h-8.682v8.682h8.682z"/></mask><g mask="url(#d)"><path fill="#fff" d="M370.957 54.015h-8.682v8.682h8.682z" opacity=".4"/></g><path stroke="#263238" stroke-linecap="round" stroke-linejoin="round" stroke-miterlimit="10" d="M370.957 54.015h-8.682v8.682h8.682z"/><path fill="#fff" d="M133.511 74.08H77.387v56.124h56.124z"/><path fill="#263238" stroke="#263238" stroke-linecap="round" stroke-linejoin="round" stroke-miterlimit="10" d="M103.672 82.318s-9.753-.362-8.486 2.549-6.153 3.56-4.385 6.741c1.768 3.182-3.388 7.493-.766 9.175 2.62 1.681 1.41 4.844.157 6.512-1.254 1.667 2.012 3.848 4.57 3.819s-.977 2.976.003 3.726c.979.75 2.446-1.851 4.354-1.315 1.909.536 6.245-1.113 7.418-.655 1.174.459 16.671 1.367 16.814.319s-1.433-1.227-1.104-2.254c.33-1.027 2.873.031 3.393-2.211s-1.47-3.245-1.17-5.391 1.912-1.195 2.274-4.132-3.899-3.847-4.047-5.354 4.075-.999 2.851-3.814-5.663-2.36-6.652-3.962 2.676-1.461.313-3.691c-2.365-2.23-11.744-3.676-15.537-.062"/><path stroke="#7F7F7F" stroke-linecap="round" stroke-linejoin="round" stroke-width=".75" d="M93.246 105.75c-1.13 2.403 1.032 2.816 2.928 3.466s.803 3.48.803 3.48M92.218 100.543c.836 1.114 1.59 2.635 1.342 4.187M92.79 92.99c-.17 2.281-2.41 5.568-1.405 6.586M96.404 87.641s-5.058 1.981-3.854 4.034M96.571 85.317c.264.502 1.017.542.976 1.256M102.907 83.429s-6.114-.055-6.389 1.191M124.428 98.505c-.474 1.366-3.243 4-2.157 6.362s1.864 3.249-.117 3.822M122.61 90.617c-.407 1.47-2.835 1.275-2.534 3.784.213 1.774 2.538 2.408 3.714 3.11M117.089 85.345c0 1.863-1.778 2.129.69 3.526 1.424.805 2.675.909 3.554.952M104.785 83.643s10.72-3.015 11.994.244M119.684 108.752c-.485 1.358.978 3.245.978 3.245M118.236 91.876c.215 1.621-1.372 2.239-1.008 3.957s3.46 1.373 3.617 2.697-2.459 2.784-1.851 5.408c.304 1.312.598 2.175.755 2.881M114.257 88.95c.377 1.555 1.753 1.677 2.785 1.944M114.898 86.077c-.072.612-.362 1.056-.548 1.547"/><path stroke="#7F7F7F" stroke-linecap="round" stroke-linejoin="round" stroke-width=".75" d="M103.363 84.918s10.497-2.734 11.368-.146M115.643 103.383c.224.959 1.288 1.739 1.252 3.112-.048 1.831-.828 3.075.021 4.741M111.569 89.46c.43 1.794 1.103 2.765 2.375 3.654 1.553 1.086 1.069 3.24 2.024 4.679.954 1.439.539 2.989-.196 4.542M101.481 86.142s9.419-.687 9.833 1.995M98.854 85.604s.432-1.355 2.739-.448"/><path fill="#0A5840" stroke="#263238" stroke-linecap="round" stroke-linejoin="round" stroke-miterlimit="10" d="M92.776 117.646c3.808-1.078 9.337-2.913 15.964-2.913 4.287 0 8.086 1.263 11.445 2.071 3.57.858 8.342 1.077 6.209 13.312H88.409s-1.24-10.882 4.367-12.47"/><path fill="#fff" stroke="#263238" stroke-linecap="round" stroke-linejoin="round" stroke-miterlimit="10" d="m112.34 112.076-1.976-8.082-5.504 1.66-1.651 6.557a4.41 4.41 0 0 1-2.367 2.915c-1.487.707-2.352 1.38-2.352 1.38s6.529 8.915 19.062 0c0 0-.951-.747-2.683-1.494-1.255-.542-2.205-1.61-2.529-2.936"/><path fill="#fff" stroke="#263238" stroke-linecap="round" stroke-linejoin="round" stroke-miterlimit="10" d="m95.226 91.99-.715 4.794a3.3 3.3 0 0 0 .122 1.51l.419 1.313-.247 3.123a3.4 3.4 0 0 0-.004.486c.105 1.602.88 10.109 5.502 10.46 4.098.311 8.18-4.758 9.629-6.768a4.9 4.9 0 0 0 .772-1.662l.62-2.431s1.994.037 2.613-1.927 1.65-3.233-.34-4.212c-1.99-.98-2.696 1.788-2.696 1.788s-.515-3.236-1.061-4.16c-.481-.814-2.238-1.8-2.758-2.59-.284-.431-.701-1.946-.701-1.946s-6.054 1.167-10.648.23z"/><path stroke="#263238" stroke-linecap="round" stroke-linejoin="round" stroke-miterlimit="10" d="m97.956 100.376-1.635 3.956a.88.88 0 0 0 .757 1.216l2.043.135M104.137 106.429c-1.306 2.218-2.893 1.75-3.865 1.128"/><path fill="#263238" d="M100.479 99.896c0 .68.258 1.231.575 1.231.318 0 .575-.551.575-1.231s-.257-1.231-.575-1.231-.575.551-.575 1.231M95.679 99.896c0 .68.257 1.231.575 1.231s.575-.551.575-1.231-.258-1.231-.575-1.231c-.318 0-.575.551-.575 1.231"/><path stroke="#263238" stroke-linecap="round" stroke-linejoin="round" stroke-miterlimit="10" d="M100.272 97.18s2.363-.802 3.572 1.484M97.3 97.044s-1.778-1.051-2.667 1.25"/><path fill="#263238" stroke="#263238" stroke-linecap="round" stroke-linejoin="round" stroke-miterlimit="10" d="M95.375 88.817s1.494 5.548 4.161 6.188 4.588 1.067 5.121 3.414 3.628 2.771 4.908 4.48-.96 8.68 1.814 9.675c0 0-.64-2.27 0-4.798s2.295-4.983 1.094-9.464-6.535-9.496-6.535-9.496l-5.371-.64z"/><path stroke="#7F7F7F" stroke-linecap="round" stroke-linejoin="round" stroke-width=".75" d="M97.794 89.777s1.58 2.792 5.264 3.361 3.684 4.695 5.391 5.833 3.725 1.411 2.703 6.704"/><path fill="#0A5840" stroke="#263238" stroke-linecap="round" stroke-linejoin="round" stroke-miterlimit="10" d="M356.015 395.617c.493 0 .924-.361.999-.864.046-.312 4.65-31.715 8.606-74.052 2.048-21.91 7.246-37.247 11.247-46.256 4.332-9.756 8.23-14.396 8.269-14.441a1.012 1.012 0 0 0-1.539-1.312c-.652.764-16.006 19.193-19.99 61.822-3.952 42.279-8.547 73.633-8.593 73.945a1.01 1.01 0 0 0 1.001 1.158"/><path fill="#0A5840" stroke="#263238" stroke-linecap="round" stroke-linejoin="round" stroke-miterlimit="10" d="M368.254 371.824q-.093 0-.186-.013a1.264 1.264 0 0 1-1.066-1.435c.033-.224 3.319-22.642 6.144-52.87 2.866-30.664 13.956-43.974 14.427-44.526a1.265 1.265 0 0 1 1.926 1.64c-.11.131-11.051 13.341-13.834 43.121-2.832 30.301-6.128 52.78-6.16 53.004a1.27 1.27 0 0 1-1.251 1.079"/><path fill="#0A5840" d="M405.328 250.992a1.685 1.685 0 0 1 1.866 1.345c1.673 8.498 8.897 49.357-8.038 43.969-14.057-4.473-13.133-14.755-11.741-19.721.288-1.026-.738-1.935-1.723-1.527-5.482 2.267-17.409 5.832-18.727-5.363-1.518-12.898 30.824-17.75 38.363-18.703"/><path fill="#000" d="M389.981 270.293c-3.493.514-14.813 2.374-14.09-.981s15.183-.969 15.906-2.343-7.049-4.939-5.784-6.952 7.23 5.395 8.495 4.583 5.423-10.71 7.773-8.472c2.35 2.237-5.603 8.6-5.423 10.841.181 2.241 7.772 1.698 8.676 4.139s-8.857-2.264-9.399-.815 9.761 13.559 6.507 15.367c-3.253 1.807-9.668-15.807-12.661-15.367" opacity=".2"/><path fill="#0A5840" d="M412.318 200.576a2.354 2.354 0 0 1 2.608 1.88c2.339 11.879 12.438 68.995-11.236 61.463-19.65-6.252-18.358-20.626-16.413-27.567.402-1.434-1.032-2.704-2.409-2.135-7.664 3.169-24.336 8.153-26.177-7.497-2.121-18.03 43.089-24.812 53.627-26.144"/><path fill="#fff" d="M384.567 231.403c-4.78.456-19.614-1.054-17.579-7.742 2.034-6.688 18.69 2.53 21.388.723s-4.189-11.589.158-13.476 5.251 9.043 6.878 8.91 9.399-14.051 12.653-12.243-7.953 12.834-8.676 16.087 12.833.361 13.737 3.434-14.28.498-15.003 2.689 13.918 14.482 10.122 19.724c-3.795 5.241-12.367-19.184-23.678-18.106" opacity=".7"/><path fill="#0A5840" stroke="#263238" stroke-linecap="round" stroke-linejoin="round" stroke-miterlimit="10" d="M365.787 369.257a1.086 1.086 0 0 1-1.076-.961 1705 1705 0 0 1-3.776-36.172c-3.883-41.549-19.147-59.863-19.3-60.043a1.084 1.084 0 1 1 1.65-1.408c.646.757 15.863 19.022 19.81 61.25a1694 1694 0 0 0 3.772 36.125 1.085 1.085 0 0 1-1.08 1.209"/><path fill="#0A5840" d="M312.813 258.039a1.96 1.96 0 0 0-1.263 2.36c2.595 9.74 15.927 56.155 30.879 41.864 12.411-11.862 6.189-22.141 2.196-26.621-.825-.926-.217-2.4 1.021-2.478 6.891-.432 21.184-2.801 16.839-15.18-5.006-14.262-41.302-2.802-49.672.055"/><path fill="#fff" d="M339.198 277.975c.322 4.543 1.621 18.349-1.81 16.903s-1.444-16.087-3.613-18.075-6.688 10.484-8.495 7.049c-1.808-3.434 4.338-8.894 4.157-11.316s-11.026-8.386-10.122-10.556 10.845 5.242 11.93 3.434 2.35-10.122 5.061-9.219-.005 8.495 1.082 9.58 12.294-10.484 14.101-4.7c1.754 5.614-13.416 1.019-12.291 16.9" opacity=".5"/><path fill="#263238" stroke="#263238" stroke-linecap="round" stroke-linejoin="round" stroke-miterlimit="10" d="M375.456 398.256h-15.715a11.49 11.49 0 0 1-11.474-10.895l-1.605-30.977h41.872l-1.605 30.977c-.315 6.106-5.359 10.895-11.473 10.895"/><path fill="#fff" d="M176.906 422.759h11.863v-90.231h-11.863z"/><mask id="e" width="12" height="91" x="165" y="325" maskUnits="userSpaceOnUse" style="mask-type:luminance"><path fill="#fff" d="M176.906 325.244h-11.863v90.231h11.863z"/></mask><g mask="url(#e)"><path fill="#000" d="M172.231 416.3h9.351v-84.596h-9.351z" opacity=".2"/></g><path stroke="#263238" stroke-linecap="round" stroke-linejoin="round" stroke-miterlimit="10" d="M176.906 422.759h11.863v-90.231h-11.863z"/><path fill="#fff" d="M149.688 412.213h66.302a8.727 8.727 0 0 1 8.727 8.727v1.818H140.96v-1.818a8.727 8.727 0 0 1 8.728-8.727"/><mask id="f" width="85" height="11" x="140" y="412" maskUnits="userSpaceOnUse" style="mask-type:luminance"><path fill="#fff" d="M149.688 412.213h66.302a8.727 8.727 0 0 1 8.727 8.727v1.818H140.96v-1.818a8.727 8.727 0 0 1 8.728-8.727"/></mask><g mask="url(#f)"><path fill="#000" d="M152.236 414.787h61.204a8.056 8.056 0 0 1 8.056 8.056v1.679H144.18v-1.679a8.056 8.056 0 0 1 8.056-8.056" opacity=".2"/></g><path stroke="#263238" stroke-linecap="round" stroke-linejoin="round" stroke-miterlimit="10" d="M149.688 412.213h66.302a8.727 8.727 0 0 1 8.727 8.727v1.818H140.96v-1.818a8.727 8.727 0 0 1 8.728-8.727"/><path fill="#fff" stroke="#263238" stroke-linecap="round" stroke-linejoin="round" stroke-miterlimit="10" d="M180.158 422.758h5.36v-7.865a2.68 2.68 0 0 0-5.36 0zM175.77 333.539h14.137v-14.138H175.77z"/><path fill="#fff" d="M141.44 319.166h11.863v-31.754H141.44z"/><mask id="g" width="13" height="33" x="128" y="293" maskUnits="userSpaceOnUse" style="mask-type:luminance"><path fill="#fff" d="M140.622 293.322h-11.863v31.754h11.863z"/></mask><g mask="url(#g)"><path fill="#000" d="M136.355 322.471h9.351v-32.454h-9.351z" opacity=".2"/></g><path stroke="#263238" stroke-linecap="round" stroke-linejoin="round" stroke-miterlimit="10" d="M141.44 319.166h11.863v-31.754H141.44z"/><path fill="#263238" d="M136.593 324.646c31.055 3.853 61.424 3.854 92.49 0 2.616-.372 4.417-2.722 4.027-5.204l-.752-4.781c-.39-2.483-2.733-4.174-5.239-3.817-29.822 3.636-58.74 3.636-88.562 0-2.505-.356-4.849 1.334-5.239 3.817l-.752 4.781c-.39 2.483 1.411 4.832 4.027 5.204"/><mask id="h" width="102" height="18" x="132" y="310" maskUnits="userSpaceOnUse" style="mask-type:luminance"><path fill="#fff" d="M136.593 324.646c31.055 3.853 61.424 3.854 92.49 0 2.616-.372 4.417-2.722 4.027-5.204l-.752-4.781c-.39-2.483-2.733-4.174-5.239-3.817-29.822 3.636-58.74 3.636-88.562 0-2.505-.356-4.849 1.334-5.239 3.817l-.752 4.781c-.39 2.483 1.411 4.832 4.027 5.204"/></mask><g mask="url(#h)"><path fill="#000" d="M138.557 310.843c29.822 3.636 58.74 3.636 88.562 0 2.505-.357 4.848 1.334 5.239 3.817l.583 3.711c-30.504 1.692-60.786.643-91.557-3.174-2.461-.35-4.396-1.975-5.199-4.06a4.7 4.7 0 0 1 2.372-.294" opacity=".2"/></g><path stroke="#263238" stroke-linecap="round" stroke-linejoin="round" stroke-miterlimit="10" d="M136.593 324.646c31.055 3.853 61.424 3.854 92.49 0 2.616-.372 4.417-2.722 4.027-5.204l-.752-4.781c-.39-2.483-2.733-4.174-5.239-3.817-29.822 3.636-58.74 3.636-88.562 0-2.505-.356-4.849 1.334-5.239 3.817l-.752 4.781c-.39 2.483 1.411 4.832 4.027 5.204"/><path fill="#263238" d="m136.868 295.925 27.288-3.908c6.937-.993 11.514-7.114 10.433-13.49-2.604-15.995-3.686-32.387-2.515-48.576.392-6.062-4.089-11.547-10.548-12.472l-22.685-3.248c-6.518-.933-12.886 3.983-13.992 11.191-3.068 19.156-3.653 38.877-2.104 58.198.617 7.711 7.247 13.29 14.123 12.305"/><mask id="i" width="54" height="83" x="121" y="214" maskUnits="userSpaceOnUse" style="mask-type:luminance"><path fill="#fff" d="m136.868 295.925 27.288-3.908c6.937-.993 11.514-7.114 10.433-13.49-2.604-15.995-3.686-32.387-2.515-48.576.392-6.062-4.089-11.547-10.548-12.472l-22.685-3.248c-6.518-.933-12.886 3.983-13.992 11.191-3.068 19.156-3.653 38.877-2.104 58.198.617 7.711 7.247 13.29 14.123 12.305"/></mask><g mask="url(#i)"><path fill="#000" d="M136.701 231.698c1.106-7.208 7.474-12.125 13.992-11.191l19.762 2.83c1.169 1.959 1.772 4.241 1.619 6.616-1.171 16.189-.089 32.58 2.515 48.576 1.082 6.376-3.496 12.497-10.433 13.49l-27.288 3.908c-.115.016-.228.016-.343.029a14 14 0 0 1-1.929-6.059c-1.548-19.322-.964-39.044 2.105-58.199" opacity=".2"/></g><path stroke="#263238" stroke-linecap="round" stroke-linejoin="round" stroke-miterlimit="10" d="m136.868 295.925 27.288-3.908c6.937-.993 11.514-7.114 10.433-13.49-2.604-15.995-3.686-32.387-2.515-48.576.392-6.062-4.089-11.547-10.548-12.472l-22.685-3.248c-6.518-.933-12.886 3.983-13.992 11.191-3.068 19.156-3.653 38.877-2.104 58.198.617 7.711 7.247 13.29 14.123 12.305"/><path fill="#fff" stroke="#263238" stroke-linecap="round" stroke-linejoin="round" stroke-miterlimit="10" d="m260.08 371.81-.027 13.7 17.476 17.635s8.533 4.156 9.254 7.898c.72 3.742-3.342 6.572-13.459 3.734s-11.509-6.25-15.325-7.908-14.329-2.837-13.868-7.772 5.317-12.388 5.317-12.388l-.604-10.875z"/><path fill="#0A5840" d="M248.425 388.386c1.729 1.499 2.41 4.557 2.41 4.557s8.86 4.6 9.03.802c.115-2.573 2.651-3.667 4.277-4.107l13.386 13.508s8.534 4.156 9.254 7.898-3.343 6.572-13.459 3.734-11.509-6.25-15.325-7.908-14.328-2.837-13.867-7.772c.326-3.492 2.844-8.23 4.294-10.712"/><mask id="j" width="43" height="28" x="244" y="388" maskUnits="userSpaceOnUse" style="mask-type:luminance"><path fill="#fff" d="M248.425 388.386c1.729 1.499 2.41 4.557 2.41 4.557s8.86 4.6 9.03.802c.115-2.573 2.651-3.667 4.277-4.107l13.386 13.508s8.534 4.156 9.254 7.898-3.343 6.572-13.459 3.734-11.509-6.25-15.325-7.908-14.328-2.837-13.867-7.772c.326-3.492 2.844-8.23 4.294-10.712"/></mask><g mask="url(#j)"><path fill="#000" d="M248.425 388.386c1.729 1.499 2.41 4.557 2.41 4.557s8.86 4.6 9.03.802c.115-2.573 2.651-3.667 4.277-4.107l13.386 13.508s8.534 4.156 9.254 7.898-3.343 6.572-13.459 3.734-11.509-6.25-15.325-7.908-14.328-2.837-13.867-7.772c.326-3.492 2.844-8.23 4.294-10.712" opacity=".3"/></g><path stroke="#263238" stroke-linecap="round" stroke-linejoin="round" stroke-miterlimit="10" d="M248.425 388.386c1.729 1.499 2.41 4.557 2.41 4.557s8.86 4.6 9.03.802c.115-2.573 2.651-3.667 4.277-4.107l13.386 13.508s8.534 4.156 9.254 7.898-3.343 6.572-13.459 3.734-11.509-6.25-15.325-7.908-14.328-2.837-13.867-7.772c.326-3.492 2.844-8.23 4.294-10.712"/><path fill="#fff" stroke="#263238" stroke-linecap="round" stroke-linejoin="round" stroke-miterlimit="10" d="M244.131 399.096c.027-.289.072-.588.127-.892a21.4 21.4 0 0 0 2.999 2.576c4.771 3.408 12.097 2.726 14.843 5.282 2.745 2.556 6.796 4.071 6.796 4.071 2.547-2.035 6.645.7 11.586 1.275 2.766.322 4.729-.537 5.924-1.356.172.331.313.663.376.99.72 3.742-3.343 6.572-13.459 3.734s-11.509-6.25-15.325-7.908-14.328-2.837-13.867-7.772"/><path stroke="#263238" stroke-linecap="round" stroke-linejoin="round" stroke-miterlimit="10" d="M286.863 412.707s-2.298 3.241-15.07-1.299"/><path fill="#fff" d="M178.322 286.358s74.97-5.022 78.378 5.56 5.022 44.48 5.201 57.931-.897 30.49-.897 30.49-6.815 2.332-13.81 0c0 0-3.296-19.549-5.683-29.055s-4.898-22.173-3.464-42.204c0 0-71.831 10.817-72.235-1.738s12.51-20.984 12.51-20.984"/><mask id="k" width="97" height="97" x="165" y="285" maskUnits="userSpaceOnUse" style="mask-type:luminance"><path fill="#fff" d="M178.322 286.358s74.97-5.022 78.378 5.56 5.022 44.48 5.201 57.931-.897 30.49-.897 30.49-6.815 2.332-13.81 0c0 0-3.296-19.549-5.683-29.055s-4.898-22.173-3.464-42.204c0 0-71.831 10.817-72.235-1.738s12.51-20.984 12.51-20.984"/></mask><g mask="url(#k)"><path fill="#000" d="M178.322 286.358s74.97-5.022 78.378 5.56 5.022 44.48 5.201 57.931-.897 30.49-.897 30.49-6.815 2.332-13.81 0c0 0-3.296-19.549-5.683-29.055s-4.898-22.173-3.464-42.204c0 0-71.831 10.817-72.235-1.738s12.51-20.984 12.51-20.984" opacity=".5"/><mask id="l" width="97" height="97" x="165" y="285" maskUnits="userSpaceOnUse" style="mask-type:luminance"><path fill="#fff" d="M178.322 286.358s74.97-5.022 78.378 5.56 5.022 44.48 5.201 57.931-.897 30.49-.897 30.49-6.815 2.332-13.81 0c0 0-3.296-19.549-5.683-29.055s-4.898-22.173-3.464-42.204c0 0-71.831 10.817-72.235-1.738s12.51-20.984 12.51-20.984"/></mask><g mask="url(#l)"><path fill="#000" d="M161.17 300.526s7.88 8.88 27.218 7.895c19.338-.984 52.73-6.564 56.64-3.91s-3.862 13.187-1.738 33.814c2.124 20.626 5.826 40.348 10.346 41.332s-30.004 6.678-30.004 6.678l-18.126-43.923-31.844-14.877-19.892-8.539z" opacity=".3"/></g></g><path stroke="#263238" stroke-linecap="round" stroke-linejoin="round" stroke-miterlimit="10" d="M178.322 286.358s74.97-5.022 78.378 5.56 5.022 44.48 5.201 57.931-.897 30.49-.897 30.49-6.815 2.332-13.81 0c0 0-3.296-19.549-5.683-29.055s-4.898-22.173-3.464-42.204c0 0-71.831 10.817-72.235-1.738s12.51-20.984 12.51-20.984"/><path stroke="#263238" stroke-linecap="round" stroke-linejoin="round" stroke-miterlimit="10" d="M246.102 302.23s-.775 3.475-5.626 6.849"/><path fill="#fff" d="m262.74 376.047-.514 5.072s-8.571 4.598-16.118.345l-1.576-4.98c0 .001 5.112 3.5 18.208-.437"/><mask id="m" width="19" height="8" x="244" y="376" maskUnits="userSpaceOnUse" style="mask-type:luminance"><path fill="#fff" d="m262.74 376.047-.514 5.072s-8.571 4.598-16.118.345l-1.576-4.98c0 .001 5.112 3.5 18.208-.437"/></mask><g mask="url(#m)"><path fill="#000" d="m262.74 376.047-.514 5.072s-8.571 4.598-16.118.345l-1.576-4.98s5.112 3.5 18.208-.437" opacity=".3"/></g><path stroke="#263238" stroke-linecap="round" stroke-linejoin="round" stroke-miterlimit="10" d="m262.74 376.047-.514 5.072s-8.571 4.598-16.118.345l-1.576-4.98c0 .001 5.112 3.5 18.208-.437"/><path fill="#fff" stroke="#263238" stroke-linecap="round" stroke-linejoin="round" stroke-miterlimit="10" d="m198.307 367.659-4.834 8.179-2.237 26.325s3.91 11.362 1.215 14.057-13.568-1.022-16.891-10.99-1.278-13.035-2.045-17.124-5.112-12.609-.767-14.994 11.245-3.663 11.245-3.663l3.834-8.264z"/><path fill="#0A5840" d="M173.516 388.105c-.767-4.089-5.112-12.609-.767-14.994 2.772-1.522 6.577-2.59 8.973-3.167-.243 1.579-1.391 3.167-1.391 3.167s-.171 3.067 1.022 4.43 4.259-1.704 8.69 0c2.049.788 2.818 1.79 3.061 2.642l-.151 1.775-1.717 20.204s3.91 11.362 1.215 14.057-13.568-1.022-16.891-10.99-1.278-13.035-2.044-17.124"/><mask id="n" width="24" height="49" x="170" y="369" maskUnits="userSpaceOnUse" style="mask-type:luminance"><path fill="#fff" d="M173.516 388.105c-.767-4.089-5.112-12.609-.767-14.994 2.772-1.522 6.577-2.59 8.973-3.167-.243 1.579-1.391 3.167-1.391 3.167s-.171 3.067 1.022 4.43 4.259-1.704 8.69 0c2.049.788 2.818 1.79 3.061 2.642l-.151 1.775-1.717 20.204s3.91 11.362 1.215 14.057-13.568-1.022-16.891-10.99-1.278-13.035-2.044-17.124"/></mask><g mask="url(#n)"><path fill="#000" d="M173.516 388.105c-.767-4.089-5.112-12.609-.767-14.994 2.772-1.522 6.577-2.59 8.973-3.167-.243 1.579-1.391 3.167-1.391 3.167s-.171 3.067 1.022 4.43 4.259-1.704 8.69 0c2.049.788 2.818 1.79 3.061 2.642l-.151 1.775-1.717 20.204s3.91 11.362 1.215 14.057-13.568-1.022-16.891-10.99-1.278-13.035-2.044-17.124" opacity=".3"/></g><path stroke="#263238" stroke-linecap="round" stroke-linejoin="round" stroke-miterlimit="10" d="M173.516 388.105c-.767-4.089-5.112-12.609-.767-14.994 2.772-1.522 6.577-2.59 8.973-3.167-.243 1.579-1.391 3.167-1.391 3.167s-.171 3.067 1.022 4.43 4.259-1.704 8.69 0c2.049.788 2.818 1.79 3.061 2.642l-.151 1.775-1.717 20.204s3.91 11.362 1.215 14.057-13.568-1.022-16.891-10.99-1.278-13.035-2.044-17.124"/><path fill="#fff" stroke="#263238" stroke-linecap="round" stroke-linejoin="round" stroke-miterlimit="10" d="M175.56 405.229c-3.322-9.967-1.278-13.035-2.045-17.124s-5.112-12.609-.767-14.994c.212-.116.439-.225.661-.336-.19 1.661-.271 3.463-.065 5.106.596 4.771 3.237 5.964 3.578 16.357s3.238 11.245 3.238 11.245 6.816 2.897 10.223 6.475c1.349 1.417 2.32 1.543 3.006 1.189-.041 1.327-.307 2.439-.939 3.071-2.694 2.695-13.567-1.022-16.89-10.989"/><path stroke="#263238" stroke-linecap="round" stroke-linejoin="round" stroke-miterlimit="10" d="M190.895 414.941s-4.6.128-11.501-7.54"/><path fill="#fff" d="M152.495 289.182s-10.627 21.253 2.959 23.137c13.586 1.883 55.151-.538 55.151-.538s-8.43 13.317-13.81 26.051-10.761 25.827-10.761 25.827 2.331 6.277 11.837 7.533c0 0 7.712-12.017 24.572-30.849s21.522-37.664 17.935-44.121-22.24-9.954-52.371-11.344z"/><mask id="o" width="94" height="88" x="148" y="284" maskUnits="userSpaceOnUse" style="mask-type:luminance"><path fill="#fff" d="M152.495 289.182s-10.627 21.253 2.959 23.137c13.586 1.883 55.151-.538 55.151-.538s-8.43 13.317-13.81 26.051-10.761 25.827-10.761 25.827 2.331 6.277 11.837 7.533c0 0 7.712-12.017 24.572-30.849s21.522-37.664 17.935-44.121-22.24-9.954-52.371-11.344z"/></mask><g mask="url(#o)"><path fill="#000" d="M152.495 289.182s-10.627 21.253 2.959 23.137c13.586 1.883 55.151-.538 55.151-.538s-8.43 13.317-13.81 26.051-10.761 25.827-10.761 25.827 2.331 6.277 11.837 7.533c0 0 7.712-12.017 24.572-30.849s21.522-37.664 17.935-44.121-22.24-9.954-52.371-11.344z" opacity=".5"/><mask id="p" width="94" height="88" x="148" y="284" maskUnits="userSpaceOnUse" style="mask-type:luminance"><path fill="#fff" d="M152.495 289.182s-10.627 21.253 2.959 23.137c13.586 1.883 55.151-.538 55.151-.538s-8.43 13.317-13.81 26.051-10.761 25.827-10.761 25.827 2.331 6.277 11.837 7.533c0 0 7.712-12.017 24.572-30.849s21.522-37.664 17.935-44.121-22.24-9.954-52.371-11.344z"/></mask><g mask="url(#p)"><path fill="#000" d="M148.361 290.492s-1.393 17.017 12.808 17.93 52.769-7.747 56.983-2.513-34.764 53.577-28.109 63.026-28.874 0-28.874 0l-32.434-26.702-9.761-31.437 14.537-20.9z" opacity=".3"/></g></g><path stroke="#263238" stroke-linecap="round" stroke-linejoin="round" stroke-miterlimit="10" d="M152.495 289.182s-10.627 21.253 2.959 23.137c13.586 1.883 55.151-.538 55.151-.538s-8.43 13.317-13.81 26.051-10.761 25.827-10.761 25.827 2.331 6.277 11.837 7.533c0 0 7.712-12.017 24.572-30.849s21.522-37.664 17.935-44.121-22.24-9.954-52.371-11.344z"/><path stroke="#263238" stroke-linecap="round" stroke-linejoin="round" stroke-miterlimit="10" d="M213.862 308.422c1.022-.85 3.101-2.526 8.582-5.026M219.036 300.526s-8.749 7.174-6.975 8.25"/><path fill="#fff" d="m201.1 369.398-3.228 3.946s-9.685-.897-13.631-8.609l1.435-5.022s2.332 5.74 15.424 9.685"/><mask id="q" width="18" height="15" x="184" y="359" maskUnits="userSpaceOnUse" style="mask-type:luminance"><path fill="#fff" d="m201.1 369.398-3.228 3.946s-9.685-.897-13.631-8.609l1.435-5.022s2.332 5.74 15.424 9.685"/></mask><g mask="url(#q)"><path fill="#000" d="m201.1 369.398-3.228 3.946s-9.685-.897-13.631-8.609l1.435-5.022s2.332 5.74 15.424 9.685" opacity=".3"/></g><path stroke="#263238" stroke-linecap="round" stroke-linejoin="round" stroke-miterlimit="10" d="m201.1 369.398-3.228 3.946s-9.685-.897-13.631-8.609l1.435-5.022s2.332 5.74 15.424 9.685"/><path fill="#fff" stroke="#263238" stroke-linecap="round" stroke-linejoin="round" stroke-miterlimit="10" d="m213.249 267.689 1.467 8.472-6.828 2.173-5.253-10.083s6.093-5.27 10.614-.562"/><path fill="#fff" stroke="#263238" stroke-linecap="round" stroke-linejoin="round" stroke-miterlimit="10" d="M225.166 281.715c1.003 1.004 3.41 1.09 1.791-1.084-1.791-2.405-3.81-3.212-5.189-3.827-3.607-1.61-5.013-1.287-8.276-2.002s-3.873.612-5.003 1.231c-2.689 1.474-3.335 1.729-4.015 3.212-.679 1.482-1.421 3.411.679 3.411 1.915 0 2.038-3.164 3.891-3.041s2.779 3.041 4.076 3.041h.494c1.112 0 1.172-.924.492-2.378s-1.418-2.763-1.418-2.763 1.612.734 2.501 2.625c.89 1.891 1.054 2.689 2.689 2.689s1.522-1.215-.105-3.898c0 0 1.466.805 2.266 2.319.801 1.515 1.219 1.405 2.269 1.405 1.373 0 1.281-2.269-1.159-3.751.002.001.543-.663 4.017 2.811"/><path stroke="#263238" stroke-linecap="round" stroke-linejoin="round" stroke-miterlimit="10" d="M215.637 276.295s.959-.046 1.561 1.575"/><path fill="#0A5840" stroke="#263238" stroke-linecap="round" stroke-linejoin="round" stroke-miterlimit="10" d="M189.699 202.122a1.714 1.714 0 0 1 2.225-1.637c3.453 1.079 9.699 3.944 9.42 10.501-.385 9.04 0 27.33 0 27.33s3.449-1.464 7.498 12.526 4.601 17.895 4.601 17.895-4.843-3.488-9.67 1.708c0 0-10.98-20.742-12.644-29.689-1.4-7.525-1.449-31.272-1.43-38.634"/><path fill="#0A5840" d="M214.716 270.445s-5.628-3.651-10.944 2.196l-3.323-3.904s3.977-3.538 8.392-3.66 5.875 1.464 5.875 1.464z"/><mask id="r" width="15" height="8" x="200" y="265" maskUnits="userSpaceOnUse" style="mask-type:luminance"><path fill="#fff" d="M214.716 270.445s-5.628-3.651-10.944 2.196l-3.323-3.904s3.977-3.538 8.392-3.66 5.875 1.464 5.875 1.464z"/></mask><g mask="url(#r)"><path fill="#fff" d="M214.716 270.445s-5.628-3.651-10.944 2.196l-3.323-3.904s3.977-3.538 8.392-3.66 5.875 1.464 5.875 1.464z" opacity=".6"/></g><path stroke="#263238" stroke-linecap="round" stroke-linejoin="round" stroke-miterlimit="10" d="M214.716 270.445s-5.628-3.651-10.944 2.196l-3.323-3.904s3.977-3.538 8.392-3.66 5.875 1.464 5.875 1.464z"/><path fill="#0A5840" d="M202.398 250.679c-.244-11.713 2.928-26.11-3.416-33.919 0 0 .244-12.201-9.273-16.837s-33.187-6.833-39.287-1.952c-5.132 4.106 1.937 44.996 2.984 75.453.197 5.747-1.737 11.122-2.008 15.81 0 0 1.952 3.66 11.713 0s37.823-4.758 37.823-4.758 1.708-22.084 1.464-33.797"/><mask id="s" width="55" height="96" x="148" y="195" maskUnits="userSpaceOnUse" style="mask-type:luminance"><path fill="#fff" d="M202.398 250.679c-.244-11.713 2.928-26.11-3.416-33.919 0 0 .244-12.201-9.273-16.837s-33.187-6.833-39.287-1.952c-5.132 4.106 1.937 44.996 2.984 75.453.197 5.747-1.737 11.122-2.008 15.81 0 0 1.952 3.66 11.713 0s37.823-4.758 37.823-4.758 1.708-22.084 1.464-33.797"/></mask><g mask="url(#s)"><path fill="#000" d="M203.772 261.314s-4.943 10.382-13.657 10.72-1.233-16.942-3.333-18.792-9.651 18.437-23.933 15.614-2.569-6.26-2.243-16.824c.325-10.564 3.254-28.459-3.091-28.296s-12.364 28.901-12.364 28.901l-1.301 31.839 5.595 11.814 35.237 4.392 19.089-3.742 1.733-34.732z" opacity=".3"/></g><path stroke="#263238" stroke-linecap="round" stroke-linejoin="round" stroke-miterlimit="10" d="M202.398 250.679c-.244-11.713 2.928-26.11-3.416-33.919 0 0 .244-12.201-9.273-16.837s-33.187-6.833-39.287-1.952c-5.132 4.106 1.937 44.996 2.984 75.453.197 5.747-1.737 11.122-2.008 15.81 0 0 1.952 3.66 11.713 0s37.823-4.758 37.823-4.758 1.708-22.084 1.464-33.797"/><path fill="#0A5840" d="M187.983 199.172c1.535 3.035 3.838 8.178 2.945 10.186-1.301 2.928-4.555-3.579-6.344-3.254s-3.253 4.447-6.67 4.013c-3.154-.401-7.836-9.857-15.065-14.892 8.467-.152 18.831 1.454 25.134 3.947"/><mask id="t" width="30" height="16" x="162" y="195" maskUnits="userSpaceOnUse" style="mask-type:luminance"><path fill="#fff" d="M187.983 199.172c1.535 3.035 3.838 8.178 2.945 10.186-1.301 2.928-4.555-3.579-6.344-3.254s-3.253 4.447-6.67 4.013c-3.154-.401-7.836-9.857-15.065-14.892 8.467-.152 18.831 1.454 25.134 3.947"/></mask><g mask="url(#t)"><path fill="#fff" d="M187.983 199.172c1.535 3.035 3.838 8.178 2.945 10.186-1.301 2.928-4.555-3.579-6.344-3.254s-3.253 4.447-6.67 4.013c-3.154-.401-7.836-9.857-15.065-14.892 8.467-.152 18.831 1.454 25.134 3.947" opacity=".7"/></g><path stroke="#263238" stroke-linecap="round" stroke-linejoin="round" stroke-miterlimit="10" d="M187.983 199.172c1.535 3.035 3.838 8.178 2.945 10.186-1.301 2.928-4.555-3.579-6.344-3.254s-3.253 4.447-6.67 4.013c-3.154-.401-7.836-9.857-15.065-14.892 8.467-.152 18.831 1.454 25.134 3.947M165.713 283.134c-13.671 1.412-2.864-5.346-2.864-5.346M187.561 251.052c-3.617 10.403-10.754 27.67-19.318 31.398M190.115 243.038s-.451 1.627-1.287 4.226"/><path fill="#fff" d="M191.539 278.335s4.659 2.155 6.186 2.928c.483.245 2.725 1.098 1.094 1.871-1.395.661-5.816-1.586-5.816-1.586l-4.27-.854z"/><mask id="u" width="12" height="6" x="188" y="278" maskUnits="userSpaceOnUse" style="mask-type:luminance"><path fill="#fff" d="M191.539 278.335s4.659 2.155 6.186 2.928c.483.245 2.725 1.098 1.094 1.871-1.395.661-5.816-1.586-5.816-1.586l-4.27-.854z"/></mask><g mask="url(#u)"><path fill="#000" d="M191.539 278.335s4.659 2.155 6.186 2.928c.483.245 2.725 1.098 1.094 1.871-1.395.661-5.816-1.586-5.816-1.586l-4.27-.854z" opacity=".2"/></g><path stroke="#263238" stroke-linecap="round" stroke-linejoin="round" stroke-miterlimit="10" d="M191.539 278.335s4.659 2.155 6.186 2.928c.483.245 2.725 1.098 1.094 1.871-1.395.661-5.816-1.586-5.816-1.586l-4.27-.854z"/><path fill="#fff" stroke="#263238" stroke-linecap="round" stroke-linejoin="round" stroke-miterlimit="10" d="m164.619 272.957 12.811 7.198s3.294 3.172 8.297 3.172 7.199-3.66 7.199-3.66l2.684.366s3.294 3.05 4.27 1.708v-.732l-2.156-2.074-1.139-.793 1.871.346s.895 1.057 2.928 1.708c0 0 5.368 3.01 5.938 1.139 0 0 1.627.325 2.034-.488s-.651-1.911-.651-1.911 1.22.163 1.708-.793-2.033-1.85-2.684-2.339-4.23-3.091-6.182-3.254-15.292 2.766-17.244 1.79-14.479-10.818-14.479-10.818l-6.751 8.215z"/><path stroke="#263238" stroke-linecap="round" stroke-linejoin="round" stroke-miterlimit="10" d="M206.59 280.115s-6.67-4.067-7.646-4.474-4.636 0-4.636 0M206.916 277.788s-4.392-2.797-5.368-3.123c-.731-.244-.669-.708-2.551-.293"/><path fill="#0A5840" d="M152.59 198.84c-.713-.887-1.444-1.247-2.168-.868 0 0-4.392 1.464-7.158 13.99s-4.23 42.947-1.79 46.526 23.263 15.292 23.263 15.292.976-3.904 7.971-8.134c0 0-12.852-12.526-14.804-12.038 0 0 1.515-1.674-1.789-2.277 0 0 .976-10.574.976-16.105 0 0 2.603-4.88 1.79-13.177"/><path stroke="#263238" stroke-linecap="round" stroke-linejoin="round" stroke-miterlimit="10" d="M152.59 198.84c-.713-.887-1.444-1.247-2.168-.868 0 0-4.392 1.464-7.158 13.99s-4.23 42.947-1.79 46.526 23.263 15.292 23.263 15.292.976-3.904 7.971-8.134c0 0-12.852-12.526-14.804-12.038 0 0 1.515-1.674-1.789-2.277 0 0 .976-10.574.976-16.105 0 0 2.603-4.88 1.79-13.177"/><path stroke="#263238" stroke-linecap="round" stroke-linejoin="round" stroke-miterlimit="10" d="M154.701 222.554c1.018 3.432 2.271 8.418 1.577 10.19-1.098 2.806-2.597-5.488-5.246-7.443M153.594 219.079s.221.633.54 1.634M152.587 254.612c-.967.425-2.531.75-3.141 3.266"/><path fill="#000" d="M147.372 252.509s5.49-1.464 5.979.732Z" opacity=".3"/><path fill="#0A5840" d="M175.753 266.959s-4.88 1.586-7.931 8.907l-4.514-1.342s.854-6.589 9.517-11.347z"/><mask id="v" width="13" height="13" x="163" y="263" maskUnits="userSpaceOnUse" style="mask-type:luminance"><path fill="#fff" d="M175.753 266.959s-4.88 1.586-7.931 8.907l-4.514-1.342s.854-6.589 9.517-11.347z"/></mask><g mask="url(#v)"><path fill="#fff" d="M175.753 266.959s-4.88 1.586-7.931 8.907l-4.514-1.342s.854-6.589 9.517-11.347z" opacity=".6"/></g><path stroke="#263238" stroke-linecap="round" stroke-linejoin="round" stroke-miterlimit="10" d="M175.753 266.959s-4.88 1.586-7.931 8.907l-4.514-1.342s.854-6.589 9.517-11.347z"/><path fill="#263238" stroke="#263238" stroke-linecap="round" stroke-linejoin="round" stroke-miterlimit="10" d="M191.905 148.191s14.966 1.139 12.526 5.368c-2.44 4.23 8.785 6.507 5.531 11.062s3.877 12.038-.42 14.153-2.996 7.158-1.369 9.923c1.627 2.766-3.742 5.531-7.646 5.043s.976 4.718-.651 5.694-3.416-3.254-6.426-2.766-9.35-2.785-11.223-2.287-25.712-.804-25.75-2.43c-.037-1.627 2.403-1.627 2.077-3.254-.325-1.627-4.396-.452-4.801-3.968s2.809-4.704 2.723-8.035-2.714-2.158-2.758-6.709 6.625-5.202 7.113-7.479-6.053-2.234-3.694-6.324 9.063-2.624 10.852-4.901-3.835-2.698.163-5.694c4-2.995 18.585-3.577 23.753 2.604"/><path fill="#fff" d="M185.063 199.141c1.139 1.39 4.239 5.825-2.756 5.663-6.995-.163-17.567-9.583-17.567-9.583s4.228-1.642 6.993-8.149c1.207-2.841 3.904-11.713 3.904-11.713l10.699 11.55-3.378 9.273s1.647 2.399 2.105 2.959"/><mask id="w" width="23" height="30" x="164" y="175" maskUnits="userSpaceOnUse" style="mask-type:luminance"><path fill="#fff" d="M185.063 199.141c1.139 1.39 4.239 5.825-2.756 5.663-6.995-.163-17.567-9.583-17.567-9.583s4.228-1.642 6.993-8.149c1.207-2.841 3.904-11.713 3.904-11.713l10.699 11.55-3.378 9.273s1.647 2.399 2.105 2.959"/></mask><g mask="url(#w)"><path fill="#263238" d="M185.212 195.216s-9.551-4.912-10.632-13.086c-1.081-8.175.894-7.829.894-7.829l3.763 8.542 4.999 5.358 2.61 4.299z"/></g><path stroke="#263238" stroke-linecap="round" stroke-linejoin="round" stroke-miterlimit="10" d="M185.063 199.141c1.139 1.39 4.239 5.825-2.756 5.663-6.995-.163-17.567-9.583-17.567-9.583s4.228-1.642 6.993-8.149c1.207-2.841 3.904-11.713 3.904-11.713l10.699 11.55-3.378 9.273s1.647 2.399 2.105 2.959"/><path fill="#fff" stroke="#263238" stroke-linecap="round" stroke-linejoin="round" stroke-miterlimit="10" d="M201.014 159.742s2.115 9.923.407 13.177-.163 7.483-3.579 11.387-5.916 10.908-10.086 9.923c-5.453-1.288-11.612-8.622-11.981-11.55s-.037-5.617-.037-5.617-1.158.239-2.46-.976c-1.301-1.215-3.01-6.17 0-7.804 2.645-1.436 3.711 1.627 3.711 1.627l7.595-10.9z"/><path stroke="#263238" stroke-linecap="round" stroke-linejoin="round" stroke-miterlimit="10" d="M195.32 177.717c-.488 1.546 1.789 4.067 1.057 5.206s-2.603.569-2.603 1.708M192.88 186.746s-3.656.488-5.814-2.115"/><path fill="#263238" d="M197.532 176.529c-.254.854-.14 1.641.254 1.758s.919-.48 1.173-1.334.14-1.641-.254-1.758-.919.481-1.173 1.334M189.566 174.969c-.254.854-.14 1.641.254 1.758s.919-.48 1.173-1.334.14-1.641-.254-1.758c-.394-.118-.919.48-1.173 1.334"/><path stroke="#263238" stroke-linecap="round" stroke-linejoin="round" stroke-miterlimit="10" d="M200.527 173.732s-1.057-2.359-3.66.569M193.451 172.834s-2.766-3.738-5.694-.647"/><path fill="#263238" stroke="#263238" stroke-linecap="round" stroke-linejoin="round" stroke-miterlimit="10" d="M195.638 156.488s.076 6.973 3.058 7.077c2.983.103.102 5.162 4.281 5.734s0-8.419 0-8.419l-2.741-3.294z"/><path fill="#263238" stroke="#263238" stroke-linecap="round" stroke-linejoin="round" stroke-miterlimit="10" d="M196.541 156.488s-1.708 6.344-4.758 7.077-5.246 1.22-5.856 3.904-4.148 3.169-5.612 5.123 1.098 9.925-2.074 11.064c0 0 .732-2.595 0-5.487s-2.624-5.698-1.251-10.822 7.473-10.859 7.473-10.859l6.141-.732zM174.475 177.432s1.22 6.589 0 9.09 2.183 3.538.542 5.491-8.351 3.294-9.815 0 7.503-15.252 9.273-14.581"/><path stroke="#7F7F7F" stroke-linecap="round" stroke-linejoin="round" stroke-width=".75" d="M203.772 185.806c1.31 3.868-2.066 4.124-5.075 4.789s-1.83 5.179-1.83 5.179M206.246 178.029c-1.471 1.557-2.885 3.751-2.778 6.165M206.682 166.387c-.136 3.515 2.719 8.927 1.003 10.309M202.087 157.586s7.386 3.904 5.19 6.833M202.236 154.006c-.49.721-1.649.652-1.71 1.75M192.88 150.021s9.353.976 9.557 2.928M157.375 169.325c.488 2.17 4.262 6.675 2.192 10.096s-3.412 4.641-.484 5.861M161.524 157.586c.366 2.318 4.112 2.44 3.215 6.223-.634 2.674-4.296 3.24-6.215 4.109M170.876 150.488c-.323 2.847 2.348 3.563-1.666 5.268-2.315.984-4.246.924-5.597.838M189.974 150.021s-15.858-6.466-18.372-1.708M162.849 185.806c.505 2.16-2.057 4.789-2.057 4.789M167.99 160.27c-.61 2.44 1.708 3.66.854 6.223s-5.525 1.497-5.996 3.494 3.275 4.681 1.89 8.585c-.692 1.952-1.291 3.221-1.654 4.271M174.579 156.488c-.846 2.311-2.97 2.258-4.593 2.488M174.098 151.987c.004.948.37 1.676.568 2.46"/><path stroke="#7F7F7F" stroke-linecap="round" stroke-linejoin="round" stroke-width=".75" d="M191.926 152.218s-15.567-5.999-17.347-2.196M169.956 178.304c-.509 1.427-2.27 2.434-2.454 4.538-.244 2.806.732 4.843-.854 7.241M178.597 157.735c-.968 2.666-2.166 4.034-4.263 5.172-2.562 1.39-2.196 4.766-3.904 6.799s-1.342 4.474-.488 6.975M194.588 154.414s-14.275-2.684-15.373 1.342M198.696 154.048s-.425-2.145-4.108-1.159M193.776 157.586s-1.806 3.192-6.019 3.843-4.213 5.368-6.165 6.67-4.259 1.614-3.091 7.667"/><path fill="#fff" d="M182.958 196.182s-1.162 2.112 1.278 4.224Z"/><path stroke="#263238" stroke-linecap="round" stroke-linejoin="round" stroke-miterlimit="10" d="M182.958 196.182s-1.162 2.112 1.278 4.224"/><path fill="#263238" stroke="#263238" stroke-linecap="round" stroke-linejoin="round" stroke-miterlimit="10" d="m207.762 283.001 18.573-33.537a4.27 4.27 0 0 1 3.736-2.201h1.528v38.555h-22.177c-1.445 0-2.36-1.552-1.66-2.817"/><path fill="#fff" d="M210.741 285.818h37.334c1.327 0 2.549-.72 3.192-1.881l19.149-34.578a1.412 1.412 0 0 0-1.235-2.096h-37.792a4.27 4.27 0 0 0-3.736 2.201l-18.573 33.537c-.699 1.265.215 2.817 1.661 2.817"/><mask id="x" width="63" height="39" x="208" y="247" maskUnits="userSpaceOnUse" style="mask-type:luminance"><path fill="#fff" d="M210.741 285.818h37.334c1.327 0 2.549-.72 3.192-1.881l19.149-34.578a1.412 1.412 0 0 0-1.235-2.096h-37.792a4.27 4.27 0 0 0-3.736 2.201l-18.573 33.537c-.699 1.265.215 2.817 1.661 2.817"/></mask><g mask="url(#x)"><path fill="#000" d="M210.741 285.818h37.334c1.327 0 2.549-.72 3.192-1.881l19.149-34.578a1.412 1.412 0 0 0-1.235-2.096h-37.792a4.27 4.27 0 0 0-3.736 2.201l-18.573 33.537c-.699 1.265.215 2.817 1.661 2.817" opacity=".2"/></g><path stroke="#263238" stroke-linecap="round" stroke-linejoin="round" stroke-miterlimit="10" d="M210.741 285.818h37.334c1.327 0 2.549-.72 3.192-1.881l19.149-34.578a1.412 1.412 0 0 0-1.235-2.096h-37.792a4.27 4.27 0 0 0-3.736 2.201l-18.573 33.537c-.699 1.265.215 2.817 1.661 2.817"/><path fill="#fff" d="M178.24 285.818h28.122c.641 0 1.16-.52 1.16-1.16v-1.524h-31.966a2.684 2.684 0 0 0 2.684 2.684"/><mask id="y" width="33" height="3" x="175" y="283" maskUnits="userSpaceOnUse" style="mask-type:luminance"><path fill="#fff" d="M178.24 285.818h28.122c.641 0 1.16-.52 1.16-1.16v-1.524h-31.966a2.684 2.684 0 0 0 2.684 2.684"/></mask><g mask="url(#y)"><path fill="#000" d="M178.24 285.818h28.122c.641 0 1.16-.52 1.16-1.16v-1.524h-31.966a2.684 2.684 0 0 0 2.684 2.684" opacity=".4"/></g><path stroke="#263238" stroke-linecap="round" stroke-linejoin="round" stroke-miterlimit="10" d="M178.24 285.818h28.122c.641 0 1.16-.52 1.16-1.16v-1.524h-31.966a2.684 2.684 0 0 0 2.684 2.684"/></svg>