<svg width="500" height="501" viewBox="0 0 500 501" fill="none" xmlns="http://www.w3.org/2000/svg">
<path d="M456.99 119.122C405.448 46.4422 292.217 11.2412 216.421 36.9652C178.391 49.8722 148.82 76.8852 117.025 99.8252C84.2665 123.461 46.7875 145.022 31.0165 182.35C18.5685 211.815 23.1505 246.933 41.0615 277.122C61.4365 311.463 96.9345 333.862 126.949 359.493C147.826 377.321 166.928 397.142 189.291 413.24C239.965 449.719 301.577 455.938 354.34 436.826C399.06 420.628 405.186 384.459 415.635 342.65C428.499 291.183 462.634 249.707 473.799 198.153C479.507 171.798 474.187 143.372 456.99 119.122Z" fill="#0A5840"/>
<path opacity="0.7" d="M456.99 119.122C405.448 46.4422 292.217 11.2412 216.421 36.9652C178.391 49.8722 148.82 76.8852 117.025 99.8252C84.2665 123.461 46.7875 145.022 31.0165 182.35C18.5685 211.815 23.1505 246.933 41.0615 277.122C61.4365 311.463 96.9345 333.862 126.949 359.493C147.826 377.321 166.928 397.142 189.291 413.24C239.965 449.719 301.577 455.938 354.34 436.826C399.06 420.628 405.186 384.459 415.635 342.65C428.499 291.183 462.634 249.707 473.799 198.153C479.507 171.798 474.187 143.372 456.99 119.122Z" fill="white"/>
<path d="M407.484 298.27L421.584 433.372" stroke="#263238" stroke-width="2" stroke-miterlimit="10"/>
<path d="M419.314 407.515L412.922 400.764" stroke="#263238" stroke-width="2" stroke-miterlimit="10"/>
<path d="M414.866 402.787C414.866 402.787 415.049 399.801 412.322 397.365C410.681 395.9 402.047 392.267 401.227 395.308C400.336 398.616 409.174 405.112 414.866 402.787Z" fill="#0A5840" stroke="#263238" stroke-miterlimit="10"/>
<path d="M414.861 402.787L406.641 397.664" stroke="#263238" stroke-width="0.5" stroke-miterlimit="10"/>
<path d="M420.915 422.88L414.523 416.129" stroke="#263238" stroke-width="2" stroke-miterlimit="10"/>
<path d="M416.467 418.152C416.467 418.152 416.65 415.166 413.923 412.73C412.282 411.265 403.648 407.632 402.828 410.673C401.937 413.981 410.775 420.477 416.467 418.152Z" fill="#0A5840" stroke="#263238" stroke-miterlimit="10"/>
<path d="M416.47 418.152L408.25 413.029" stroke="#263238" stroke-width="0.5" stroke-miterlimit="10"/>
<path d="M415.4 370.023L409.008 363.271" stroke="#263238" stroke-width="2" stroke-miterlimit="10"/>
<path d="M410.951 365.295C410.951 365.295 411.134 362.308 408.407 359.873C406.766 358.408 398.132 354.775 397.312 357.816C396.421 361.124 405.259 367.62 410.951 365.295Z" fill="#0A5840" stroke="#263238" stroke-miterlimit="10"/>
<path d="M410.954 365.294L402.734 360.172" stroke="#263238" stroke-width="0.5" stroke-miterlimit="10"/>
<path d="M417.009 385.388L410.617 378.637" stroke="#263238" stroke-width="2" stroke-miterlimit="10"/>
<path d="M412.561 380.658C412.561 380.658 412.744 377.672 410.017 375.236C408.376 373.771 399.742 370.138 398.922 373.179C398.031 376.487 406.869 382.983 412.561 380.658Z" fill="#0A5840" stroke="#263238" stroke-miterlimit="10"/>
<path d="M412.564 380.657L404.344 375.535" stroke="#263238" stroke-width="0.5" stroke-miterlimit="10"/>
<path d="M412.797 345.062L406.406 338.311" stroke="#263238" stroke-width="2" stroke-miterlimit="10"/>
<path d="M408.35 340.334C408.35 340.334 408.533 337.348 405.806 334.912C404.165 333.447 395.531 329.814 394.711 332.855C393.82 336.163 402.658 342.659 408.35 340.334Z" fill="#0A5840" stroke="#263238" stroke-miterlimit="10"/>
<path d="M408.354 340.334L400.133 335.211" stroke="#263238" stroke-width="0.5" stroke-miterlimit="10"/>
<path d="M410.181 319.993L403.789 313.242" stroke="#263238" stroke-width="2" stroke-miterlimit="10"/>
<path d="M405.733 315.265C405.733 315.265 405.916 312.279 403.189 309.843C401.548 308.378 392.914 304.745 392.094 307.786C391.204 311.094 400.041 317.59 405.733 315.265Z" fill="#0A5840" stroke="#263238" stroke-miterlimit="10"/>
<path d="M405.736 315.267L397.516 310.145" stroke="#263238" stroke-width="0.5" stroke-miterlimit="10"/>
<path d="M418.242 398.423L423.102 390.498" stroke="#263238" stroke-width="2" stroke-miterlimit="10"/>
<path d="M421.619 392.879C421.619 392.879 420.823 389.995 422.989 387.049C424.292 385.277 431.99 379.939 433.42 382.746C434.974 385.798 427.668 393.978 421.619 392.879Z" fill="#0A5840" stroke="#263238" stroke-miterlimit="10"/>
<path d="M421.625 392.88L429.027 385.805" stroke="#263238" stroke-width="0.5" stroke-miterlimit="10"/>
<path d="M414.023 357.99L418.883 350.064" stroke="#263238" stroke-width="2" stroke-miterlimit="10"/>
<path d="M417.401 352.445C417.401 352.445 416.605 349.561 418.771 346.615C420.074 344.842 427.772 339.505 429.202 342.312C430.757 345.364 423.45 353.545 417.401 352.445Z" fill="#0A5840" stroke="#263238" stroke-miterlimit="10"/>
<path d="M417.406 352.445L424.808 345.371" stroke="#263238" stroke-width="0.5" stroke-miterlimit="10"/>
<path d="M412.172 340.221L417.032 332.295" stroke="#263238" stroke-width="2" stroke-miterlimit="10"/>
<path d="M415.549 334.675C415.549 334.675 414.753 331.791 416.919 328.845C418.222 327.073 425.92 321.736 427.35 324.542C428.905 327.594 421.599 335.775 415.549 334.675Z" fill="#0A5840" stroke="#263238" stroke-miterlimit="10"/>
<path d="M415.547 334.676L422.949 327.602" stroke="#263238" stroke-width="0.5" stroke-miterlimit="10"/>
<path d="M409.453 314.173L414.313 306.248" stroke="#263238" stroke-width="2" stroke-miterlimit="10"/>
<path d="M412.83 308.627C412.83 308.627 412.034 305.743 414.2 302.797C415.503 301.024 423.201 295.687 424.631 298.494C426.186 301.546 418.879 309.727 412.83 308.627Z" fill="#0A5840" stroke="#263238" stroke-miterlimit="10"/>
<path d="M412.828 308.628L420.23 301.553" stroke="#263238" stroke-width="0.5" stroke-miterlimit="10"/>
<path d="M407.369 297.518C407.369 297.518 406.573 294.633 408.739 291.687C410.042 289.915 417.74 284.578 419.17 287.385C420.725 290.437 413.419 298.618 407.369 297.518Z" fill="#0A5840" stroke="#263238" stroke-miterlimit="10"/>
<path d="M407.375 297.517L414.777 290.443" stroke="#263238" stroke-width="0.5" stroke-miterlimit="10"/>
<path d="M407.799 297.823C407.799 297.823 404.847 298.312 402.145 295.849C400.519 294.367 396.018 286.152 398.959 285.024C402.158 283.798 409.527 291.922 407.799 297.823Z" fill="#0A5840" stroke="#263238" stroke-miterlimit="10"/>
<path d="M407.798 297.824L401.539 289.721" stroke="#263238" stroke-width="0.5" stroke-miterlimit="10"/>
<path d="M444.676 316.875L430.656 451.986" stroke="#263238" stroke-width="2" stroke-miterlimit="10"/>
<path d="M433.756 426.215L428.891 418.293" stroke="#263238" stroke-width="2" stroke-miterlimit="10"/>
<path d="M430.378 420.673C430.378 420.673 431.172 417.788 429.005 414.844C427.701 413.072 419.999 407.74 418.571 410.547C417.018 413.6 424.329 421.776 430.378 420.673Z" fill="#0A5840" stroke="#263238" stroke-miterlimit="10"/>
<path d="M430.38 420.674L423.391 413.969" stroke="#263238" stroke-width="0.5" stroke-miterlimit="10"/>
<path d="M437.646 388.72L432.781 380.797" stroke="#263238" stroke-width="2" stroke-miterlimit="10"/>
<path d="M434.268 383.177C434.268 383.177 435.062 380.292 432.895 377.348C431.591 375.576 423.889 370.244 422.461 373.051C420.908 376.104 428.219 384.28 434.268 383.177Z" fill="#0A5840" stroke="#263238" stroke-miterlimit="10"/>
<path d="M434.271 383.178L427.281 376.473" stroke="#263238" stroke-width="0.5" stroke-miterlimit="10"/>
<path d="M436.052 404.086L431.188 396.164" stroke="#263238" stroke-width="2" stroke-miterlimit="10"/>
<path d="M432.675 398.544C432.675 398.544 433.469 395.659 431.302 392.715C429.998 390.943 422.296 385.611 420.868 388.418C419.315 391.471 426.627 399.647 432.675 398.544Z" fill="#0A5840" stroke="#263238" stroke-miterlimit="10"/>
<path d="M432.677 398.545L425.688 391.84" stroke="#263238" stroke-width="0.5" stroke-miterlimit="10"/>
<path d="M440.24 363.759L435.375 355.836" stroke="#263238" stroke-width="2" stroke-miterlimit="10"/>
<path d="M436.862 358.216C436.862 358.216 437.656 355.331 435.489 352.387C434.185 350.615 426.483 345.283 425.055 348.09C423.502 351.143 430.813 359.319 436.862 358.216Z" fill="#0A5840" stroke="#263238" stroke-miterlimit="10"/>
<path d="M436.865 358.217L429.875 351.512" stroke="#263238" stroke-width="0.5" stroke-miterlimit="10"/>
<path d="M442.834 338.689L437.969 330.766" stroke="#263238" stroke-width="2" stroke-miterlimit="10"/>
<path d="M439.456 333.146C439.456 333.146 440.25 330.261 438.083 327.317C436.779 325.545 429.077 320.213 427.649 323.02C426.096 326.073 433.408 334.25 439.456 333.146Z" fill="#0A5840" stroke="#263238" stroke-miterlimit="10"/>
<path d="M439.458 333.146L432.469 326.441" stroke="#263238" stroke-width="0.5" stroke-miterlimit="10"/>
<path d="M434.578 417.099L440.965 410.344" stroke="#263238" stroke-width="2" stroke-miterlimit="10"/>
<path d="M439.026 412.367C439.026 412.367 438.841 409.381 441.567 406.944C443.207 405.478 451.839 401.84 452.661 404.881C453.553 408.188 444.719 414.689 439.026 412.367Z" fill="#0A5840" stroke="#263238" stroke-miterlimit="10"/>
<path d="M439.023 412.368L447.723 406.969" stroke="#263238" stroke-width="0.5" stroke-miterlimit="10"/>
<path d="M438.773 376.665L445.161 369.91" stroke="#263238" stroke-width="2" stroke-miterlimit="10"/>
<path d="M443.221 371.933C443.221 371.933 443.036 368.947 445.762 366.51C447.402 365.044 456.034 361.406 456.856 364.447C457.749 367.754 448.915 374.255 443.221 371.933Z" fill="#0A5840" stroke="#263238" stroke-miterlimit="10"/>
<path d="M443.219 371.934L451.919 366.535" stroke="#263238" stroke-width="0.5" stroke-miterlimit="10"/>
<path d="M440.617 358.894L447.005 352.139" stroke="#263238" stroke-width="2" stroke-miterlimit="10"/>
<path d="M445.065 354.162C445.065 354.162 444.88 351.176 447.606 348.739C449.246 347.273 457.878 343.635 458.7 346.676C459.593 349.983 450.759 356.484 445.065 354.162Z" fill="#0A5840" stroke="#263238" stroke-miterlimit="10"/>
<path d="M445.062 354.161L453.762 348.762" stroke="#263238" stroke-width="0.5" stroke-miterlimit="10"/>
<path d="M443.328 332.841L449.716 326.086" stroke="#263238" stroke-width="2" stroke-miterlimit="10"/>
<path d="M447.768 328.111C447.768 328.111 447.583 325.125 450.309 322.688C451.949 321.222 460.581 317.584 461.403 320.625C462.295 323.932 453.461 330.433 447.768 328.111Z" fill="#0A5840" stroke="#263238" stroke-miterlimit="10"/>
<path d="M447.773 328.11L456.473 322.711" stroke="#263238" stroke-width="0.5" stroke-miterlimit="10"/>
<path d="M444.721 316.117C444.721 316.117 444.536 313.131 447.262 310.694C448.902 309.228 457.534 305.59 458.356 308.631C459.248 311.937 450.414 318.439 444.721 316.117Z" fill="#0A5840" stroke="#263238" stroke-miterlimit="10"/>
<path d="M444.719 316.116L453.419 310.717" stroke="#263238" stroke-width="0.5" stroke-miterlimit="10"/>
<path d="M445.078 316.503C445.078 316.503 442.089 316.374 439.951 313.408C438.665 311.623 435.953 302.657 439.063 302.159C442.445 301.617 447.984 311.085 445.078 316.503Z" fill="#0A5840" stroke="#263238" stroke-miterlimit="10"/>
<path d="M445.074 316.503L440.617 307.285" stroke="#263238" stroke-width="0.5" stroke-miterlimit="10"/>
<path d="M428.609 261.855V432.712" stroke="#263238" stroke-width="2" stroke-miterlimit="10"/>
<path d="M428.751 407.023L423.094 399.645" stroke="#263238" stroke-width="2" stroke-miterlimit="10"/>
<path d="M424.812 401.858C424.812 401.858 425.304 398.907 422.845 396.201C421.365 394.573 413.154 390.064 412.024 393.004C410.793 396.202 418.909 403.58 424.812 401.858Z" fill="#0A5840" stroke="#263238" stroke-miterlimit="10"/>
<path d="M424.816 401.858L417.172 395.91" stroke="#263238" stroke-width="0.5" stroke-miterlimit="10"/>
<path d="M428.751 374.913L423.094 367.535" stroke="#263238" stroke-width="2" stroke-miterlimit="10"/>
<path d="M424.812 369.75C424.812 369.75 425.304 366.799 422.845 364.093C421.365 362.465 413.154 357.956 412.024 360.896C410.793 364.093 418.909 371.471 424.812 369.75Z" fill="#0A5840" stroke="#263238" stroke-miterlimit="10"/>
<path d="M424.816 369.75L417.172 363.801" stroke="#263238" stroke-width="0.5" stroke-miterlimit="10"/>
<path d="M428.751 337.218L423.094 329.84" stroke="#263238" stroke-width="2" stroke-miterlimit="10"/>
<path d="M424.812 332.052C424.812 332.052 425.304 329.101 422.845 326.396C421.365 324.768 413.154 320.259 412.024 323.199C410.793 326.396 418.909 333.774 424.812 332.052Z" fill="#0A5840" stroke="#263238" stroke-miterlimit="10"/>
<path d="M424.816 332.053L417.172 326.105" stroke="#263238" stroke-width="0.5" stroke-miterlimit="10"/>
<path d="M428.751 312.122L423.094 304.744" stroke="#263238" stroke-width="2" stroke-miterlimit="10"/>
<path d="M424.812 306.958C424.812 306.958 425.304 304.007 422.845 301.301C421.365 299.673 413.154 295.164 412.024 298.104C410.793 301.302 418.909 308.68 424.812 306.958Z" fill="#0A5840" stroke="#263238" stroke-miterlimit="10"/>
<path d="M424.816 306.958L417.172 301.01" stroke="#263238" stroke-width="0.5" stroke-miterlimit="10"/>
<path d="M428.751 286.918L423.094 279.539" stroke="#263238" stroke-width="2" stroke-miterlimit="10"/>
<path d="M424.812 281.752C424.812 281.752 425.304 278.801 422.845 276.095C421.365 274.467 413.154 269.958 412.024 272.898C410.793 276.095 418.909 283.473 424.812 281.752Z" fill="#0A5840" stroke="#263238" stroke-miterlimit="10"/>
<path d="M424.816 281.753L417.172 275.805" stroke="#263238" stroke-width="0.5" stroke-miterlimit="10"/>
<path d="M428.625 416.828L434.281 409.449" stroke="#263238" stroke-width="2" stroke-miterlimit="10"/>
<path d="M432.556 411.663C432.556 411.663 432.064 408.712 434.523 406.006C436.003 404.378 444.214 399.869 445.344 402.809C446.574 406.006 438.458 413.384 432.556 411.663Z" fill="#0A5840" stroke="#263238" stroke-miterlimit="10"/>
<path d="M432.562 411.663L440.659 405.395" stroke="#263238" stroke-width="0.5" stroke-miterlimit="10"/>
<path d="M428.625 365.761L434.281 358.383" stroke="#263238" stroke-width="2" stroke-miterlimit="10"/>
<path d="M432.556 360.596C432.556 360.596 432.064 357.645 434.523 354.939C436.003 353.311 444.214 348.802 445.344 351.742C446.574 354.94 438.458 362.318 432.556 360.596Z" fill="#0A5840" stroke="#263238" stroke-miterlimit="10"/>
<path d="M432.562 360.596L440.659 354.328" stroke="#263238" stroke-width="0.5" stroke-miterlimit="10"/>
<path d="M428.625 340.558L434.281 333.18" stroke="#263238" stroke-width="2" stroke-miterlimit="10"/>
<path d="M432.556 335.393C432.556 335.393 432.064 332.442 434.523 329.736C436.003 328.108 444.214 323.599 445.344 326.539C446.574 329.736 438.458 337.114 432.556 335.393Z" fill="#0A5840" stroke="#263238" stroke-miterlimit="10"/>
<path d="M432.562 335.394L440.659 329.125" stroke="#263238" stroke-width="0.5" stroke-miterlimit="10"/>
<path d="M428.625 307.242L434.281 299.863" stroke="#263238" stroke-width="2" stroke-miterlimit="10"/>
<path d="M432.556 302.079C432.556 302.079 432.064 299.128 434.523 296.422C436.003 294.794 444.214 290.285 445.344 293.225C446.574 296.422 438.458 303.8 432.556 302.079Z" fill="#0A5840" stroke="#263238" stroke-miterlimit="10"/>
<path d="M432.562 302.078L440.659 295.809" stroke="#263238" stroke-width="0.5" stroke-miterlimit="10"/>
<path d="M428.625 281.052L434.281 273.674" stroke="#263238" stroke-width="2" stroke-miterlimit="10"/>
<path d="M432.556 275.887C432.556 275.887 432.064 272.936 434.523 270.23C436.003 268.602 444.214 264.093 445.344 267.033C446.574 270.23 438.458 277.608 432.556 275.887Z" fill="#0A5840" stroke="#263238" stroke-miterlimit="10"/>
<path d="M432.555 275.887L440.651 269.619" stroke="#263238" stroke-width="0.5" stroke-miterlimit="10"/>
<path d="M428.282 264.272C428.282 264.272 427.79 261.321 430.25 258.615C431.73 256.987 439.941 252.478 441.071 255.418C442.301 258.615 434.185 265.994 428.282 264.272Z" fill="#0A5840" stroke="#263238" stroke-miterlimit="10"/>
<path d="M428.281 264.272L436.378 258.004" stroke="#263238" stroke-width="0.5" stroke-miterlimit="10"/>
<path d="M428.677 264.619C428.677 264.619 425.69 264.799 423.258 262.069C421.794 260.427 418.171 251.788 421.213 250.972C424.522 250.084 431.008 258.93 428.677 264.619Z" fill="#0A5840" stroke="#263238" stroke-miterlimit="10"/>
<path d="M428.682 264.619L423.297 255.91" stroke="#263238" stroke-width="0.5" stroke-miterlimit="10"/>
<path d="M435.638 477.026H417.543L415.281 431.328H437.9L435.638 477.026Z" fill="#263238" stroke="#263238" stroke-miterlimit="10"/>
<path opacity="0.2" d="M412.109 322.566H370.109V339.566H412.109V322.566Z" fill="black"/>
<path opacity="0.2" d="M143.156 402.012H101.156V419.012H143.156V402.012Z" fill="black"/>
<path opacity="0.2" d="M80.1563 282.512H38.1562V299.512H80.1563V282.512Z" fill="black"/>
<path opacity="0.2" d="M396.109 262.066H354.109V279.066H396.109V262.066Z" fill="black"/>
<path opacity="0.2" d="M429.156 164.012H387.156V181.012H429.156V164.012Z" fill="black"/>
<path opacity="0.2" d="M273.156 185.012H231.156V202.012H273.156V185.012Z" fill="black"/>
<path opacity="0.2" d="M276.156 329.012H234.156V346.012H276.156V329.012Z" fill="black"/>
<path opacity="0.2" d="M228.156 329.012H186.156V346.012H228.156V329.012Z" fill="black"/>
<path opacity="0.2" d="M108.156 189.012H66.1562V206.012H108.156V189.012Z" fill="black"/>
<path opacity="0.2" d="M155.156 189.012H113.156V206.012H155.156V189.012Z" fill="black"/>
<path opacity="0.2" d="M326.156 185.012H284.156V202.012H326.156V185.012Z" fill="black"/>
<path opacity="0.1" d="M373.109 285.566H331.109V302.566H373.109V285.566Z" fill="black"/>
<path opacity="0.1" d="M462.156 398.012H420.156V415.012H462.156V398.012Z" fill="black"/>
<path opacity="0.1" d="M421.109 285.566H379.109V302.566H421.109V285.566Z" fill="black"/>
<path opacity="0.1" d="M138.156 166.512H96.1562V183.512H138.156V166.512Z" fill="black"/>
<path opacity="0.1" d="M94.1563 131.512H52.1562V148.512H94.1563V131.512Z" fill="black"/>
<path opacity="0.1" d="M483.156 164.512H441.156V181.512H483.156V164.512Z" fill="black"/>
<path opacity="0.1" d="M455.156 193.512H413.156V210.512H455.156V193.512Z" fill="black"/>
<path opacity="0.1" d="M299.156 164.512H257.156V181.512H299.156V164.512Z" fill="black"/>
<path opacity="0.1" d="M259.156 309.012H217.156V326.012H259.156V309.012Z" fill="black"/>
<path opacity="0.1" d="M233.156 358.012H191.156V375.012H233.156V358.012Z" fill="black"/>
<path opacity="0.1" d="M274.156 400.012H232.156V417.012H274.156V400.012Z" fill="black"/>
<path opacity="0.1" d="M100.156 309.012H58.1562V326.012H100.156V309.012Z" fill="black"/>
<path opacity="0.2" d="M407.711 74.4805H365.711V91.4805H407.711V74.4805Z" fill="black"/>
<path opacity="0.1" d="M427.711 100.98H385.711V117.98H427.711V100.98Z" fill="black"/>
<path opacity="0.1" d="M81.1563 358.012H39.1562V375.012H81.1563V358.012Z" fill="black"/>
<path opacity="0.2" d="M329.109 322.566H287.109V339.566H329.109V322.566Z" fill="black"/>
<path d="M392.911 116.244H132.938V273.331H392.911V116.244Z" fill="white" stroke="#263238" stroke-miterlimit="10"/>
<path d="M132.938 273.332L233.988 177.793" stroke="#263238" stroke-miterlimit="10"/>
<path d="M392.323 273.332L291.273 177.793" stroke="#263238" stroke-miterlimit="10"/>
<path d="M262.924 28.168L132.938 116.245L262.924 194.788L392.913 116.245L262.924 28.168Z" fill="#0A5840" stroke="#263238" stroke-miterlimit="10"/>
<path d="M262.93 194.789L371.789 129.013V69.3945H156.828V130.678L262.93 194.789Z" fill="white" stroke="#263238" stroke-miterlimit="10"/>
<path d="M189.438 94.1992H339.174" stroke="#263238" stroke-miterlimit="10"/>
<path d="M189.438 113.488H339.174" stroke="#263238" stroke-miterlimit="10"/>
<path d="M189.438 132.781H339.174" stroke="#263238" stroke-miterlimit="10"/>
<path d="M179.834 231.849C177.592 232.518 175.976 234.668 175.804 237.24C175.075 248.15 173.164 278.603 173.432 294.143C173.762 313.285 174.559 395.333 174.559 395.333L346.347 392.268C346.347 392.268 346.357 285.587 346.003 265.078C345.796 253.072 345.001 243.655 344.377 237.909C343.992 234.361 341.199 231.748 337.985 231.931L256.204 236.591C256.206 236.591 204.03 224.631 179.834 231.849Z" fill="#B8B8B8" stroke="#263238" stroke-miterlimit="10"/>
<path d="M285.506 275.981C285.506 275.981 278.769 278.124 271.726 278.431C264.683 278.737 263.152 286.392 263.152 292.21C263.152 298.028 259.478 312.726 259.478 317.932C259.478 323.138 261.009 324.669 259.478 330.181C257.947 335.693 257.028 338.143 256.416 339.367C255.804 340.592 283.669 372.438 289.487 376.725C295.305 381.012 299.898 389.892 302.348 390.198C304.798 390.504 310.922 382.236 311.841 378.562C312.76 374.887 315.822 358.046 318.271 348.859C320.721 339.673 330.826 317.013 333.888 309.358C336.95 301.703 330.826 278.431 324.089 277.206C317.352 275.981 312.453 275.369 303.267 275.369C294.08 275.369 285.506 275.981 285.506 275.981Z" fill="#9E9E9E" stroke="#263238" stroke-miterlimit="10"/>
<path d="M293.219 355.514C298.529 359.113 306.103 365.593 308.78 374.581" stroke="#263238" stroke-miterlimit="10"/>
<path d="M287.656 352.227C287.656 352.227 288.709 352.725 290.354 353.696" stroke="#263238" stroke-miterlimit="10"/>
<path d="M307.742 361.174C308.259 362.141 308.716 363.048 309.09 363.864" stroke="#263238" stroke-miterlimit="10"/>
<path d="M295.617 341.816C295.617 341.816 301.9 350.955 306.209 358.424" stroke="#263238" stroke-miterlimit="10"/>
<path d="M276.828 269.902C276.828 269.902 278.944 276.635 278.559 279.906C278.174 283.176 276.25 287.024 282.022 288.371C287.793 289.718 295.296 286.062 296.258 284.331C297.22 282.6 295.296 273.365 294.334 269.71C293.372 266.055 292.218 262.592 292.218 262.592C292.218 262.592 285.293 271.441 276.828 269.902Z" fill="white" stroke="#263238" stroke-miterlimit="10"/>
<path d="M284.078 274.263L293.395 276.592L293.728 261.951L284.078 274.263Z" fill="#263238" stroke="#263238" stroke-miterlimit="10"/>
<path d="M347.281 295.185C347.281 295.185 354.653 303.74 358.924 310.274C363.196 316.809 359.228 324.568 355.273 326.135C351.318 327.702 327.381 311.982 327.381 311.982C327.381 311.982 324.926 305.724 327.176 301.11C329.426 296.496 341.759 292.797 347.281 295.185Z" fill="white" stroke="#263238" stroke-miterlimit="10"/>
<path d="M316.78 277.847C316.78 277.847 324.157 276.181 330.633 278.405C337.109 280.629 344.856 290.789 344.856 290.789C344.856 290.789 336.774 288.941 331.78 295.305C326.786 301.669 325.194 310.1 325.194 310.1C325.194 310.1 315.967 305.6 313.531 297.176" fill="#9E9E9E"/>
<path d="M316.78 277.847C316.78 277.847 324.157 276.181 330.633 278.405C337.109 280.629 344.856 290.789 344.856 290.789C344.856 290.789 336.774 288.941 331.78 295.305C326.786 301.669 325.194 310.1 325.194 310.1C325.194 310.1 315.967 305.6 313.531 297.176" stroke="#263238" stroke-miterlimit="10"/>
<path d="M319.183 308.876L328.364 313.679C328.364 313.679 327.093 305.742 333.95 299.352C339.01 294.635 345.642 296.231 348.769 297.391C349.403 297.626 349.999 296.972 349.709 296.361C348.564 293.944 346.512 289.755 345.268 288.065C343.471 285.624 329.901 287.277 325.348 292.779C320.794 298.281 316.873 305.737 319.183 308.876Z" fill="#9E9E9E" stroke="#263238" stroke-miterlimit="10"/>
<path d="M269.896 216.229C269.896 216.229 262.778 216.421 258.353 220.077C253.928 223.732 249.311 238.545 246.81 245.278C244.309 252.011 238.923 278.174 242.385 285.485C245.848 292.795 255.082 304.146 265.085 305.107C275.089 306.069 280.668 299.143 280.668 299.143C280.668 299.143 279.321 302.991 277.59 298.758C275.859 294.526 279.129 288.947 279.514 281.829C279.899 274.711 277.783 272.403 274.127 266.631C270.472 260.86 265.278 243.546 268.933 239.121C272.588 234.696 285.093 239.891 287.978 245.662C290.864 251.433 293.557 255.088 293.942 259.513C294.327 263.938 289.517 279.905 296.828 285.484C304.138 291.063 316.643 288.754 319.528 282.983C322.414 277.212 321.067 275.48 321.067 275.48C321.067 275.48 318.566 279.328 317.412 273.556C316.258 267.784 321.837 257.012 318.374 248.932C314.911 240.852 310.679 232.388 302.407 225.654C294.135 218.921 291.249 212.38 283.362 212.188C275.475 211.996 270.666 214.113 269.896 216.229Z" fill="#263238" stroke="#263238" stroke-miterlimit="10"/>
<path d="M278.389 228.758C278.389 228.758 266.018 230.764 263.009 236.113C260 241.462 263.343 254.167 264.346 258.848C265.349 263.529 272.37 269.547 275.379 270.884C278.388 272.221 280.728 274.227 285.075 274.227C289.421 274.227 297.111 256.841 297.111 256.841C297.111 256.841 294.102 249.151 288.753 241.461C283.404 233.773 282.736 229.426 278.389 228.758Z" fill="white" stroke="#263238" stroke-miterlimit="10"/>
<path d="M271.047 250.471C271.047 251.321 270.358 252.01 269.508 252.01C268.658 252.01 267.969 251.321 267.969 250.471C267.969 249.621 268.658 248.932 269.508 248.932C270.358 248.932 271.047 249.621 271.047 250.471Z" fill="#263238"/>
<path d="M282.398 246.43C282.398 247.28 281.709 247.969 280.859 247.969C280.009 247.969 279.32 247.28 279.32 246.43C279.32 245.58 280.009 244.891 280.859 244.891C281.709 244.891 282.398 245.58 282.398 246.43Z" fill="#263238"/>
<path d="M264.703 247.777C264.703 247.777 265.088 245.468 268.551 244.891" stroke="#263238" stroke-miterlimit="10"/>
<path d="M276.828 242.392C276.828 242.392 278.752 239.699 282.599 241.045" stroke="#263238" stroke-miterlimit="10"/>
<path d="M272.977 247.969C272.977 247.969 274.516 251.239 274.516 251.817C274.516 252.394 274.324 253.548 274.324 253.548C274.324 253.548 272.593 257.588 274.132 258.165C275.671 258.742 278.172 258.742 278.172 258.742" stroke="#263238" stroke-miterlimit="10"/>
<path d="M277.781 262.205L281.051 261.051" stroke="#263238" stroke-miterlimit="10"/>
<path d="M201.914 264.345C201.914 264.345 214.775 290.067 219.98 298.335C225.186 306.603 233.147 315.483 233.147 315.483C233.147 315.483 245.396 317.32 252.438 317.627C259.481 317.933 272.648 315.177 272.648 315.177C272.648 315.177 253.663 289.149 249.07 277.819C244.477 266.489 242.027 260.365 242.027 260.365C242.027 260.365 219.368 266.182 201.914 264.345Z" fill="white" stroke="#263238" stroke-miterlimit="10"/>
<path d="M345.878 310.646C345.878 310.646 295.738 322.552 292.991 322.327C290.244 322.102 287.728 322.818 285.156 320.457C282.584 318.096 272.527 309.592 270.77 308.527C269.014 307.462 257.267 308.344 256.021 308.549C254.775 308.754 251.979 309.14 253.735 310.205C255.491 311.27 259.814 311.01 261.035 311.109C262.256 311.209 268.895 312.674 268.895 312.674L259.315 317.113C259.315 317.113 255.453 319.255 256.219 321.161C256.985 323.067 260.031 319.629 260.031 319.629L267.275 317.456L270.962 317.45L264.534 320.918C264.534 320.918 264.49 325.216 265.636 326.231C266.782 327.246 270.849 326.35 270.849 326.35L275.452 326.419C275.452 326.419 281.306 329.97 282.527 330.07C283.748 330.17 286.85 329.809 286.85 329.809L288.071 329.909C288.071 329.909 330.34 331.87 339.34 330.763C348.34 329.656 355.055 330.205 358.076 327.073C361.097 323.941 361.764 316.148 360.718 313.912" fill="white"/>
<path d="M345.878 310.646C345.878 310.646 295.738 322.552 292.991 322.327C290.244 322.102 287.728 322.818 285.156 320.457C282.584 318.096 272.527 309.592 270.77 308.527C269.014 307.462 257.267 308.344 256.021 308.549C254.775 308.754 251.979 309.14 253.735 310.205C255.491 311.27 259.814 311.01 261.035 311.109C262.256 311.209 268.895 312.674 268.895 312.674L259.315 317.113C259.315 317.113 255.453 319.255 256.219 321.161C256.985 323.067 260.031 319.629 260.031 319.629L267.275 317.456L270.962 317.45L264.534 320.918C264.534 320.918 264.49 325.216 265.636 326.231C266.782 327.246 270.849 326.35 270.849 326.35L275.452 326.419C275.452 326.419 281.306 329.97 282.527 330.07C283.748 330.17 286.85 329.809 286.85 329.809L288.071 329.909C288.071 329.909 330.34 331.87 339.34 330.763C348.34 329.656 355.055 330.205 358.076 327.073C361.097 323.941 361.764 316.148 360.718 313.912" stroke="#263238" stroke-miterlimit="10"/>
<path d="M265.156 324.658C265.156 324.658 269.934 322.591 272.755 321.9" stroke="#263238" stroke-miterlimit="10"/>
<path d="M201.805 285.626L203.258 281.591C203.736 280.264 204.763 279.207 206.077 278.694C208.307 277.825 211.601 276.574 212.08 276.574C212.814 276.574 216.484 277.063 216.239 278.776C215.994 280.488 212.325 279.755 212.325 279.755C212.325 279.755 208.9 280.244 207.921 281.223C206.942 282.202 206.209 284.893 206.209 284.893L201.805 285.626Z" fill="white" stroke="#263238" stroke-miterlimit="10"/>
<path d="M201.493 283.369C201.493 283.369 208.787 281.957 209.963 281.957C211.139 281.957 220.315 285.251 220.315 286.663C220.315 288.075 219.139 288.781 219.139 288.781C219.139 288.781 220.08 291.604 218.904 292.545C217.728 293.486 217.728 293.486 217.728 293.486C217.728 293.486 217.022 295.603 216.316 295.603C215.61 295.603 207.376 296.074 205.964 296.074C204.552 296.074 200.788 297.721 200.082 296.309C199.375 294.897 200.081 287.133 201.493 283.369Z" fill="white" stroke="#263238" stroke-miterlimit="10"/>
<path d="M219.143 288.78C219.143 288.78 211.849 285.957 210.673 285.957C209.497 285.957 202.203 286.428 202.203 286.428" stroke="#263238" stroke-miterlimit="10"/>
<path d="M217.726 293.487C217.726 293.487 210.668 290.664 209.962 290.664C209.256 290.664 201.492 291.37 201.492 291.37" stroke="#263238" stroke-miterlimit="10"/>
<path d="M197.625 325.28C197.625 325.28 209.261 363.25 214.16 373.049C219.059 382.848 223.653 389.585 227.633 389.585C231.614 389.585 242.637 391.422 246.006 390.197C249.374 388.972 231.614 349.777 224.571 333.242C217.528 316.707 211.098 314.257 206.811 316.094C202.525 317.931 197.625 325.28 197.625 325.28Z" fill="#263238" stroke="#263238" stroke-miterlimit="10"/>
<path d="M306.024 388.667C306.024 388.667 308.167 387.136 306.024 381.012C303.88 374.888 277.852 349.472 263.46 335.999C249.068 322.526 232.226 300.785 217.528 296.191C202.83 291.598 198.237 298.641 189.357 302.928C184.91 305.075 154.143 319.157 145.875 322.526C137.607 325.894 108.211 335.387 103.924 335.999C99.6373 336.611 94.1253 334.774 93.8193 337.836C93.5133 340.898 103.618 345.798 107.292 347.022C110.967 348.247 124.134 349.472 128.727 350.084C133.32 350.696 136.689 353.146 139.751 350.696C142.813 348.246 148.019 336.916 152.306 335.998C156.593 335.079 174.353 329.874 184.458 329.874C194.563 329.874 210.486 320.994 210.486 320.994C210.486 320.994 233.452 372.131 236.82 378.868C240.188 385.605 238.657 392.035 259.174 393.566C279.69 395.098 303.881 391.729 306.024 388.667Z" fill="white" stroke="#263238" stroke-miterlimit="10"/>
<path d="M129.859 350.278C133.883 351.078 136.947 352.941 139.752 350.698C141.014 349.688 142.641 347.17 144.416 344.494C140.111 339.674 132.678 347.094 129.859 350.278Z" fill="#9E9E9E" stroke="#263238" stroke-miterlimit="10"/>
<path d="M105.41 335.688C104.777 335.84 104.264 335.951 103.924 335.999C99.6373 336.612 94.1253 334.773 93.8193 337.835C93.5133 340.897 103.618 345.797 107.292 347.021C107.31 347.027 107.333 347.033 107.352 347.039C108.117 345.879 108.81 344.439 109.13 342.734C109.647 339.971 107.436 337.403 105.41 335.688Z" fill="#9E9E9E" stroke="#263238" stroke-miterlimit="10"/>
<path d="M263.459 336C249.067 322.527 232.225 300.786 217.527 296.193C202.829 291.6 198.236 298.643 189.356 302.93C186.158 304.474 163.039 314.306 150.773 319.772C153.728 321.958 158.428 322.528 159.653 327.733C160.358 330.729 158.815 333.323 159.041 334.47C164.316 333.749 178.639 331.714 187.825 329.877C197.734 327.895 210.485 320.997 210.485 320.997C210.485 320.997 233.451 372.134 236.819 378.871C240.187 385.608 238.656 392.038 259.173 393.569C279.689 395.1 303.88 391.732 306.023 388.67C306.023 388.67 308.166 387.139 306.023 381.015C303.879 374.889 277.851 349.473 263.459 336Z" fill="#263238" stroke="#263238" stroke-miterlimit="10"/>
<path d="M237.203 378.689C237.844 380.053 238.378 381.183 238.78 382.023" stroke="#6E6E6E" stroke-miterlimit="10"/>
<path d="M203.094 325.016L210.484 320.994C210.484 320.994 227.078 357.009 235.221 374.457" stroke="#6E6E6E" stroke-miterlimit="10"/>
<path d="M178.146 307.839C178.146 307.839 139.569 314.022 130.553 313.506C121.537 312.99 100.844 308.401 92.2879 305.057C83.7309 301.713 76.0169 298.338 75.0369 302.31C74.0569 306.282 79.5399 317.892 83.8339 319.985C88.1279 322.078 99.8349 326.995 100.427 327.817C101.019 328.639 107.442 335.154 112.527 335.812C117.612 336.471 123.897 331.462 126.945 330.227C129.992 328.991 161.865 316.304 178.146 307.839Z" fill="white" stroke="#263238" stroke-miterlimit="10"/>
<path d="M142.266 312.787C144.392 314.588 147.23 317.611 148.18 321.49C158.427 317.156 170.161 311.99 178.148 307.838C178.148 307.838 156.908 311.242 142.266 312.787Z" fill="#263238" stroke="#263238" stroke-miterlimit="10"/>
<path d="M84.9468 304.197C85.7488 303.794 86.5298 303.43 87.2858 303.099C80.9078 300.655 75.8198 299.134 75.0368 302.308C74.4618 304.639 76.1138 309.6 78.4438 313.725C78.7898 311.377 80.0818 306.645 84.9468 304.197Z" fill="#9E9E9E" stroke="#263238" stroke-miterlimit="10"/>
<path d="M114.585 322.802C109.974 323.744 106.307 328.648 104.469 331.613C106.837 333.513 109.863 335.465 112.527 335.811C117.474 336.452 123.548 331.739 126.681 330.344C125.4 326.65 120.553 321.583 114.585 322.802Z" fill="#9E9E9E" stroke="#263238" stroke-miterlimit="10"/>
<path d="M189.047 383.1C189.047 383.1 239.845 385.496 247.513 385.496C255.181 385.496 311.73 382.141 318.439 382.141C325.148 382.141 320.835 477.029 320.835 477.029H190.485L189.047 383.1Z" fill="#B8B8B8" stroke="#263238" stroke-miterlimit="10"/>
<path d="M302.359 422.277H317.161" stroke="#263238" stroke-miterlimit="10"/>
<path d="M213.062 422.277H297.55" stroke="#263238" stroke-miterlimit="10"/>
<path d="M200.016 422.277H207.302" stroke="#263238" stroke-miterlimit="10"/>
<path d="M203.167 474.999C203.167 474.999 201.823 374.22 200.479 360.783C199.135 347.346 181.667 327.19 164.198 329.205C146.729 331.22 139.339 347.345 140.011 359.439C140.683 371.533 163.526 381.61 163.526 387.657C163.526 393.704 150.089 452.828 146.058 464.249C142.027 475.671 152.777 477.014 162.854 477.014C172.931 477.014 202.494 477.014 202.494 477.014L203.167 474.999Z" fill="#B8B8B8" stroke="#263238" stroke-miterlimit="10"/>
<path d="M165.021 396.812C164.132 399.772 163.328 402.109 163.328 402.109" stroke="#263238" stroke-miterlimit="10"/>
<path d="M147.32 367.279C154.927 375.686 166.937 382.092 167.338 385.695C167.481 386.978 167.014 389.43 166.354 392.054" stroke="#263238" stroke-miterlimit="10"/>
<path d="M144.917 355.27C144.917 355.27 141.29 357.781 144.517 363.503" stroke="#263238" stroke-miterlimit="10"/>
<path d="M199.547 459.766L199.76 468.168" stroke="#263238" stroke-miterlimit="10"/>
<path d="M197.672 385.707L199.375 452.963" stroke="#263238" stroke-miterlimit="10"/>
<path d="M197.359 373.285L197.551 380.887" stroke="#263238" stroke-miterlimit="10"/>
<path d="M181.174 337.666C176.588 334.958 170.455 332.244 164.531 332.448" stroke="#263238" stroke-miterlimit="10"/>
<path d="M188.554 342.859C188.554 342.859 187.108 341.6 184.742 339.957" stroke="#263238" stroke-miterlimit="10"/>
<path d="M313.312 474.999C313.312 474.999 314.656 374.22 315.999 360.783C317.343 347.346 334.811 327.19 352.28 329.205C369.748 331.221 377.139 347.345 376.467 359.439C375.795 371.533 352.952 381.61 352.952 387.657C352.952 393.704 366.389 452.828 370.42 464.249C374.451 475.671 363.701 477.014 353.623 477.014C343.545 477.014 313.983 477.014 313.983 477.014L313.312 474.999Z" fill="#B8B8B8" stroke="#263238" stroke-miterlimit="10"/>
<path d="M317.078 438.941C317.07 443.182 317.07 445.748 317.07 445.748" stroke="#263238" stroke-miterlimit="10"/>
<path d="M317.791 369.293C317.307 383.94 317.147 413.982 317.094 431.735" stroke="#263238" stroke-miterlimit="10"/>
<path d="M339.088 334.852C339.088 334.852 319.871 351.667 318.27 361.275C318.222 361.561 318.176 361.961 318.133 362.464" stroke="#263238" stroke-miterlimit="10"/>
<path d="M351.454 402.522C350.508 398.613 349.898 396.105 349.898 396.105" stroke="#263238" stroke-miterlimit="10"/>
<path d="M352.782 474.75C356.727 474.194 360.546 472.817 362.309 469.771C366.713 462.164 363.11 453.357 361.909 446.951C361.094 442.604 355.854 420.744 352.57 407.141" stroke="#263238" stroke-miterlimit="10"/>
<path d="M340.688 474.574C340.688 474.574 343.07 474.962 346.29 475.057" stroke="#263238" stroke-miterlimit="10"/>
<path d="M361.849 372.797C359.421 375.063 357.5 376.488 357.5 376.488" stroke="#263238" stroke-miterlimit="10"/>
<path d="M367.52 344.059C367.52 344.059 373.124 349.664 371.523 358.472C370.794 362.479 367.829 366.569 364.812 369.837" stroke="#263238" stroke-miterlimit="10"/>
<path d="M471 477.027H482" stroke="#263238" stroke-miterlimit="10"/>
<path d="M72 477.027H459" stroke="#263238" stroke-miterlimit="10"/>
<path d="M39 477.027H63" stroke="#263238" stroke-miterlimit="10"/>
</svg>
