<svg width="348" height="291" viewBox="0 0 348 291" fill="none" xmlns="http://www.w3.org/2000/svg">
<g opacity="0.8">
<path d="M339.038 289.747L44.5083 290.042C37.6443 290.049 34.3413 285.069 35.9333 280.05L74.9193 224.051C76.2053 222.07 81.1753 220.492 86.0463 220.488L295.104 220.299C299.972 220.295 304.994 221.862 306.348 223.841L347.348 279.927C348.105 284.5 345.896 289.74 339.038 289.747Z" fill="#D5CBFD"/>
<path d="M338.754 284.775L44.6777 285.069C37.8247 285.076 34.2467 282.041 36.6187 278.396L75.0097 219.384C76.2937 217.411 81.2567 215.841 86.1217 215.836L294.928 215.648C299.79 215.644 304.805 217.204 306.157 219.174L346.573 278.088C349.07 281.728 345.601 284.768 338.754 284.775Z" fill="#DAE3FD"/>
<path d="M305.237 259.19L74.8989 259.268C68.9099 259.274 65.3279 257.202 67.8559 253.389L89.64 218.837C90.762 217.099 95.099 215.716 99.351 215.713L281.825 215.561C286.074 215.557 290.457 216.933 291.638 218.668L312.071 253.301C315.044 258.091 311.221 259.184 305.237 259.19Z" fill="#F3F8FD"/>
<path d="M305.233 258.827L74.8946 258.921C68.9056 258.927 65.3246 256.872 67.8516 253.089L89.6386 218.811C90.7606 217.087 95.0976 215.715 99.3496 215.711L281.824 215.547C286.073 215.543 290.456 216.907 291.637 218.629L312.067 252.985C315.04 257.737 311.216 258.821 305.233 258.827Z" fill="#C7CBDB"/>
<path d="M294.927 215.648L86.1209 215.836C81.2559 215.84 76.2919 217.411 75.0089 219.384L74.8359 219.65C76.1239 217.671 81.0959 216.096 85.9689 216.092L295.089 215.904C299.959 215.9 304.983 217.465 306.338 219.441L306.156 219.176C304.805 217.204 299.79 215.643 294.927 215.648Z" fill="white"/>
<path d="M338.145 283.813L45.2547 284.105C38.4297 284.112 34.8587 281.101 37.2107 277.485L36.6187 278.395C34.2467 282.04 37.8247 285.075 44.6777 285.068L338.754 284.774C345.601 284.767 349.07 281.727 346.573 278.088L345.95 277.18C348.428 280.79 344.965 283.806 338.145 283.813Z" fill="white"/>
<path d="M245.503 284.868L137.984 284.975L143.011 260.794L239.636 260.701L245.503 284.868Z" fill="#B3C1DB"/>
<path d="M245.503 284.868L137.984 284.975L138.939 280.383L244.389 280.279L245.503 284.868Z" fill="#96A5BC"/>
<path d="M244.502 280.739L138.844 280.844L138.94 280.383L244.39 280.279L244.502 280.739Z" fill="white"/>
<path d="M239.681 260.894L142.969 260.988L143.05 260.601L239.588 260.508L239.681 260.894Z" fill="#A0A3C5"/>
<path d="M298.721 249.196L83.6 249.4C79.033 249.404 76.051 246.844 77.517 244.208L89.5819 222.52C90.5489 220.782 93.4019 219.564 96.4979 219.561L284.627 219.391C287.749 219.388 290.689 220.623 291.728 222.379L304.542 244.041C306.093 246.661 303.253 249.192 298.721 249.196Z" fill="black"/>
<path d="M305.038 243.41H75.5664L75.6714 242.744H304.903L305.038 243.41Z" fill="#C7CBDB"/>
<path d="M302.613 238.458H78.5703L78.6743 237.801H302.479L302.613 238.458Z" fill="#C7CBDB"/>
<path d="M299.659 233.578H82.0234L82.1254 232.932H299.528L299.659 233.578Z" fill="#C7CBDB"/>
<path d="M296.29 228.77H83.8555L83.9555 228.133H296.16L296.29 228.77Z" fill="#C7CBDB"/>
<path d="M294.067 224.034H87.6602L87.7592 223.406H293.94L294.067 224.034Z" fill="#C7CBDB"/>
<path d="M96.497 219.559C95.476 219.56 94.49 219.704 93.582 219.944L287.56 219.768C286.64 219.53 285.648 219.388 284.627 219.389L96.497 219.559Z" fill="#1F2135"/>
<path d="M308.058 256.65L74.4638 256.874C72.4328 256.876 71.1148 255.722 71.7788 254.528L72.7478 252.786C73.2148 251.946 74.5488 251.356 75.9788 251.354L306.28 251.135C307.722 251.134 309.096 251.732 309.599 252.581L310.628 254.321C311.329 255.507 310.074 256.648 308.058 256.65Z" fill="black"/>
<path d="M73.9648 251.774L308.315 251.551C307.723 251.289 307.011 251.134 306.279 251.135L255.747 251.183L75.9768 251.354C75.2458 251.354 74.5428 251.511 73.9648 251.774Z" fill="#1F2135"/>
<path d="M294.227 258.052H292.391L289.406 250.357H291.242L294.227 258.052Z" fill="#C7CBDB"/>
<path d="M283.376 258.645H281.54L278.516 250.357H280.351L283.376 258.645Z" fill="#C7CBDB"/>
<path d="M270.942 257.736H269.106L267.328 250.357H269.163L270.942 257.736Z" fill="#C7CBDB"/>
<path d="M87.1445 257.995H88.9805L91.7135 250.357H89.8775L87.1445 257.995Z" fill="#C7CBDB"/>
<path d="M98.0781 257.995H99.9141L102.603 250.357H100.767L98.0781 257.995Z" fill="#C7CBDB"/>
<path d="M110.535 257.995H112.371L114.236 250.357H112.401L110.535 257.995Z" fill="#C7CBDB"/>
<path d="M155.492 258.922H157.327L158.089 249.795H156.253L155.492 258.922Z" fill="#C7CBDB"/>
<path fill-rule="evenodd" clip-rule="evenodd" d="M298.911 215.976H81.1487C75.5737 215.976 71.0547 211.457 71.0547 205.882V82.6741C71.0547 77.0991 75.5737 72.5801 81.1487 72.5801H298.911C304.486 72.5801 309.005 77.0991 309.005 82.6741V205.882C309.005 211.457 304.486 215.976 298.911 215.976Z" fill="#E1EAFF"/>
<path fill-rule="evenodd" clip-rule="evenodd" d="M297.702 72.5801H82.3567C76.1147 72.5801 71.0547 77.6401 71.0547 83.8821V84.1421C71.0547 77.9001 76.1147 72.8401 82.3567 72.8401H297.702C303.944 72.8401 309.004 77.9001 309.004 84.1421V83.8821C309.004 77.6401 303.944 72.5801 297.702 72.5801Z" fill="white"/>
<path d="M297.701 74.8184C302.698 74.8184 306.764 78.8844 306.764 83.8814V204.672C306.764 209.669 302.698 213.735 297.701 213.735H82.356C77.359 213.735 73.293 209.669 73.293 204.672V83.8814C73.293 78.8844 77.358 74.8184 82.356 74.8184H297.701Z" fill="#131A28"/>
<path d="M301.163 86.4316H78.8984V203.632H301.163V86.4316Z" fill="#FF9400"/>
<path d="M240.376 97.3652H91.7148V139.227H240.376V97.3652Z" fill="#FF6F00"/>
<path d="M240.376 147.67H91.7148V161.156H240.376V147.67Z" fill="#FF6F00"/>
<path d="M240.376 164.748H91.7148V170.719H240.376V164.748Z" fill="#FF6F00"/>
<path d="M240.376 186.775H91.7148V192.746H240.376V186.775Z" fill="#FF6F00"/>
<path d="M263.484 186.775H255.742V192.746H263.484V186.775Z" fill="#FF6F00"/>
<path d="M277.5 186.775H269.758V192.746H277.5V186.775Z" fill="#FF6F00"/>
<path d="M291.523 186.775H283.781V192.746H291.523V186.775Z" fill="#FF6F00"/>
<path d="M232.738 83.4304H206.933C205.513 83.4304 204.352 82.2684 204.352 80.8494V80.2314C204.352 78.8114 205.514 77.6504 206.933 77.6504H232.738C234.158 77.6504 235.319 78.8124 235.319 80.2314V80.8494C235.319 82.2684 234.157 83.4304 232.738 83.4304Z" fill="black"/>
<path d="M207.429 82.5473C208.585 82.5473 209.522 81.6103 209.522 80.4543C209.522 79.2984 208.585 78.3613 207.429 78.3613C206.273 78.3613 205.336 79.2984 205.336 80.4543C205.336 81.6103 206.273 82.5473 207.429 82.5473Z" fill="#131A28"/>
<path d="M207.429 81.7276C208.132 81.7276 208.702 81.1577 208.702 80.4547C208.702 79.7516 208.132 79.1816 207.429 79.1816C206.726 79.1816 206.156 79.7516 206.156 80.4547C206.156 81.1577 206.726 81.7276 207.429 81.7276Z" fill="black"/>
<path opacity="0.2" d="M207.838 80.5777C208.063 80.5777 208.246 80.3951 208.246 80.1697C208.246 79.9444 208.063 79.7617 207.838 79.7617C207.612 79.7617 207.43 79.9444 207.43 80.1697C207.43 80.3951 207.612 80.5777 207.838 80.5777Z" fill="#E1EAFF"/>
<path opacity="0.2" d="M207.243 81.2647C207.623 81.2647 207.931 80.9566 207.931 80.5767C207.931 80.1967 207.623 79.8887 207.243 79.8887C206.863 79.8887 206.555 80.1967 206.555 80.5767C206.555 80.9566 206.863 81.2647 207.243 81.2647Z" fill="#E1EAFF"/>
<path opacity="0.41" d="M309.002 181.031V84.1421V83.8821C309.002 81.9311 308.508 80.0961 307.638 78.4951C306.42 76.2531 304.466 74.4691 302.099 73.4681C300.747 72.8961 299.26 72.5801 297.7 72.5801H249.115C248.756 73.4591 248.555 74.4191 248.555 75.4271V174.827C248.555 178.254 251.333 181.031 254.759 181.031" fill="#C7A100"/>
<path opacity="0.3" d="M202.481 0H46.1987C36.6137 0 28.8438 7.77 28.8438 17.355V137.946C28.8438 147.531 36.6137 155.301 46.1987 155.301H180.274L199.876 174.903C201.604 176.631 204.559 175.407 204.559 172.963V155.165C213.162 154.137 219.836 146.826 219.836 137.946V17.355C219.836 7.77 212.066 0 202.481 0Z" fill="white"/>
<mask id="mask0_3581_58317" style="mask-type:luminance" maskUnits="userSpaceOnUse" x="28" y="0" width="192" height="176">
<path d="M202.481 0H46.1987C36.6137 0 28.8438 7.77 28.8438 17.355V137.946C28.8438 147.531 36.6137 155.301 46.1987 155.301H180.274L199.876 174.903C201.604 176.631 204.559 175.407 204.559 172.963V155.165C213.162 154.137 219.836 146.826 219.836 137.946V17.355C219.836 7.77 212.066 0 202.481 0Z" fill="white"/>
</mask>
<g mask="url(#mask0_3581_58317)">
<path opacity="0.2" d="M81.4111 46.4727L16.3711 111.513L18.3381 156.377L22.4111 177.136L28.7371 188.605H66.6141L81.3541 177.136L105.603 137.298L116.437 120.562L124.233 94.3017L120.825 85.0157" fill="#4E7397"/>
</g>
<mask id="mask1_3581_58317" style="mask-type:luminance" maskUnits="userSpaceOnUse" x="28" y="0" width="192" height="176">
<path d="M202.481 0H46.1987C36.6137 0 28.8438 7.77 28.8438 17.355V137.946C28.8438 147.531 36.6137 155.301 46.1987 155.301H180.274L199.876 174.903C201.604 176.631 204.559 175.407 204.559 172.963V155.165C213.162 154.137 219.836 146.826 219.836 137.946V17.355C219.836 7.77 212.066 0 202.481 0Z" fill="white"/>
</mask>
<g mask="url(#mask1_3581_58317)">
<path d="M169.891 139.854V191.208C169.891 216.261 149.393 236.759 124.34 236.759C99.2871 236.759 78.7891 216.261 78.7891 191.208V139.854C78.7891 114.801 99.2871 94.3027 124.34 94.3027C149.393 94.3027 169.891 114.801 169.891 139.854Z" fill="#CDDFFA"/>
</g>
<mask id="mask2_3581_58317" style="mask-type:luminance" maskUnits="userSpaceOnUse" x="28" y="0" width="192" height="176">
<path d="M202.481 0H46.1987C36.6137 0 28.8438 7.77 28.8438 17.355V137.946C28.8438 147.531 36.6137 155.301 46.1987 155.301H180.274L199.876 174.903C201.604 176.631 204.559 175.407 204.559 172.963V155.165C213.162 154.137 219.836 146.826 219.836 137.946V17.355C219.836 7.77 212.066 0 202.481 0Z" fill="white"/>
</mask>
<g mask="url(#mask2_3581_58317)">
<path d="M124.34 94.3027C120.188 94.3027 116.165 94.8767 112.336 95.9307C131.612 101.234 145.883 118.954 145.883 139.854V191.208C145.883 212.109 131.612 229.828 112.336 235.131C116.165 236.185 120.188 236.759 124.34 236.759C149.393 236.759 169.891 216.261 169.891 191.208V139.854C169.891 114.801 149.393 94.3027 124.34 94.3027Z" fill="#A6C9FA"/>
</g>
<mask id="mask3_3581_58317" style="mask-type:luminance" maskUnits="userSpaceOnUse" x="28" y="0" width="192" height="176">
<path d="M202.481 0H46.1987C36.6137 0 28.8438 7.77 28.8438 17.355V137.946C28.8438 147.531 36.6137 155.301 46.1987 155.301H180.274L199.876 174.903C201.604 176.631 204.559 175.407 204.559 172.963V155.165C213.162 154.137 219.836 146.826 219.836 137.946V17.355C219.836 7.77 212.066 0 202.481 0Z" fill="white"/>
</mask>
<g mask="url(#mask3_3581_58317)">
<path d="M124.34 94.3027C99.2871 94.3027 78.7891 114.801 78.7891 139.854V143.81C78.7891 118.757 99.2871 98.2587 124.34 98.2587C149.393 98.2587 169.891 118.757 169.891 143.81V139.854C169.891 114.801 149.393 94.3027 124.34 94.3027Z" fill="#FFF0FF"/>
</g>
<path d="M124.339 94.3027C113.278 94.3027 103.108 98.3027 95.1953 104.923C103.476 110.796 113.567 114.265 124.433 114.265C135.256 114.265 145.311 110.829 153.569 104.998C145.644 98.3337 135.441 94.3027 124.339 94.3027Z" fill="#B6C7ED"/>
<path d="M90.1055 83.293C91.8445 100.62 106.575 114.265 124.34 114.265C141.168 114.265 155.262 102.018 158.181 85.999C135.485 86.814 112.809 84.164 90.1055 83.293Z" fill="#0A5840"/>
<path d="M90.1055 83.293C91.8445 96.939 106.575 107.685 124.34 107.685C141.168 107.685 155.262 98.04 158.181 85.424C135.485 86.066 112.809 83.979 90.1055 83.293Z" fill="#370D8E"/>
<path d="M143.735 106.045H104.943C86.0181 106.045 70.5352 90.5605 70.5352 71.6365C70.5352 52.7115 86.0191 37.2285 104.943 37.2285H143.735C162.66 37.2285 178.143 52.7125 178.143 71.6365C178.144 90.5605 162.66 106.045 143.735 106.045Z" fill="#FFF0FF"/>
<path d="M74.0519 121.691C73.4559 121.923 72.7969 122.014 72.1189 121.928C69.9549 121.655 68.4179 119.687 68.6739 117.524C68.7149 117.132 69.4089 109.451 62.4959 100.349C61.1699 98.6031 61.5109 96.1131 63.2559 94.7871C64.9989 93.4621 67.4899 93.8001 68.8179 95.5471C77.8299 107.414 76.6099 118.04 76.5539 118.486C76.3649 119.984 75.3659 121.18 74.0519 121.691Z" fill="#0A5840"/>
<path d="M64.3961 123.742C64.1211 123.849 63.8311 123.926 63.5271 123.971C61.3681 124.286 59.3621 122.801 59.0311 120.648C58.9661 120.259 57.5811 112.672 48.4871 105.749C46.7431 104.421 46.4051 101.931 47.7331 100.187C49.0611 98.4416 51.5531 98.1046 53.2951 99.4326C65.1511 108.459 66.8161 119.024 66.8811 119.47C67.1531 121.335 66.0801 123.086 64.3961 123.742Z" fill="#0A5840"/>
<path d="M58.4769 131.457C56.5909 132.191 54.4259 131.382 53.4989 129.545C53.3119 129.187 49.6449 122.408 38.8609 118.642C36.7909 117.919 35.6999 115.656 36.4219 113.586C37.1439 111.517 39.4089 110.424 41.4779 111.147C55.5459 116.06 60.3989 125.591 60.5989 125.995C61.5719 127.959 60.767 130.34 58.8029 131.313C58.6959 131.366 58.5869 131.414 58.4769 131.457Z" fill="#0A5840"/>
<path d="M67.7705 145.65C76.6291 145.65 83.8105 138.469 83.8105 129.61C83.8105 120.752 76.6291 113.57 67.7705 113.57C58.9118 113.57 51.7305 120.752 51.7305 129.61C51.7305 138.469 58.9118 145.65 67.7705 145.65Z" fill="#E9F2FA"/>
<path d="M62.0764 114.972C70.2794 111.78 79.5043 115.802 82.7723 123.953C82.7523 123.901 82.7404 123.847 82.7194 123.795C79.5074 115.539 70.2113 111.45 61.9554 114.662C53.6994 117.874 49.6103 127.17 52.8223 135.426C52.8423 135.478 52.8693 135.526 52.8903 135.578C49.7923 127.362 53.8734 118.164 62.0764 114.972Z" fill="#FFFFFA"/>
<path d="M80.6265 128.058C79.4125 128.53 78.0015 128.41 76.9145 127.622C75.2645 126.425 74.9825 124.14 76.2775 122.504C76.5005 122.215 80.7855 116.487 79.5155 106.529C79.2595 104.523 80.7545 102.637 82.8575 102.314C84.9595 101.993 86.8705 103.358 87.1265 105.365C88.8095 118.565 82.5665 126.504 82.3005 126.836C81.8475 127.399 81.2635 127.81 80.6265 128.058Z" fill="#0A5840"/>
<path d="M76.9141 121.523C77.9491 123.112 79.8921 125.159 83.1431 125.611C83.3141 125.339 83.5021 125.024 83.7051 124.665C80.1651 124.363 78.2951 122.028 77.4541 120.525C77.2581 120.916 77.0771 121.246 76.9141 121.523Z" fill="#0A5840"/>
<path d="M78.6351 117.57C78.5221 117.926 78.4071 118.263 78.2891 118.582C79.5081 119.654 81.5511 120.969 84.2671 120.969C84.6501 120.969 85.0511 120.932 85.4601 120.875C85.5881 120.534 85.7101 120.169 85.8321 119.802C82.3231 120.524 79.8381 118.746 78.6351 117.57Z" fill="#0A5840"/>
<path d="M79.4485 114.037C79.3945 114.392 79.3355 114.737 79.2695 115.071C80.3935 115.713 81.9875 116.356 83.8715 116.356C84.8035 116.356 85.8075 116.192 86.8575 115.8C86.9285 115.418 86.9935 115.026 87.0525 114.626C83.7495 116.13 80.9715 115.004 79.4485 114.037Z" fill="#0A5840"/>
<path d="M87.3855 109.021C84.3625 111.083 81.4605 110.472 79.7385 109.741C79.7435 110.097 79.7385 110.44 79.7305 110.782C80.6435 111.123 81.7785 111.412 83.0595 111.412C84.4015 111.412 85.8905 111.088 87.4085 110.193C87.4115 109.812 87.3945 109.413 87.3855 109.021Z" fill="#27FFBB"/>
<path d="M70.7742 103.802C71.4812 103.267 72.1482 102.591 72.7452 101.772C72.5662 101.422 72.3782 101.07 72.1832 100.715C70.2672 103.738 67.3082 104.638 65.4102 104.876C65.5852 105.201 65.7492 105.52 65.9062 105.837C67.3172 105.599 69.1262 105.05 70.7742 103.802Z" fill="#0A5840"/>
<path d="M76.2202 112.027C76.1582 111.662 76.0842 111.282 76.0042 110.893C72.8592 112.84 69.8502 112.347 68.0742 111.716C68.1762 112.14 68.2652 112.546 68.3372 112.932C70.3142 113.486 73.2132 113.724 76.2202 112.027Z" fill="#0A5840"/>
<path d="M69.7459 96.8189C69.5159 96.4929 69.2769 96.1659 69.0319 95.8379C67.7379 99.1719 65.0309 100.585 63.0859 101.172C63.2869 101.453 63.5019 101.737 63.6899 102.015C64.6729 101.682 65.7849 101.18 66.8509 100.382C67.9699 99.5439 69.0039 98.3789 69.7459 96.8189Z" fill="#27FFBB"/>
<path d="M74.1895 107.307C74.4175 107.133 74.6395 106.935 74.8595 106.729C74.7365 106.369 74.6035 106.003 74.4635 105.633C71.9325 108.222 68.8125 108.469 67.0195 108.338C67.1605 108.704 67.2835 109.057 67.4025 109.408C69.2025 109.447 71.8265 109.116 74.1895 107.307Z" fill="#0A5840"/>
<path d="M51.9163 108.734C53.1813 108.056 54.7083 106.975 55.8813 105.319C56.4023 104.584 56.8403 103.726 57.1623 102.755C56.8783 102.48 56.5873 102.205 56.2873 101.93C55.4073 105.34 52.9053 107.149 51.1523 108.002C51.4153 108.247 51.6703 108.49 51.9163 108.734Z" fill="#0A5840"/>
<path d="M51.0721 103.417C51.8991 102.262 52.5431 100.826 52.7651 99.1077C52.4361 98.9297 52.0941 98.8007 51.7411 98.7227C51.4591 101.959 49.5251 104.039 47.9141 105.214C48.0841 105.406 48.2731 105.586 48.4851 105.747C48.5401 105.789 48.5871 105.831 48.6411 105.873C49.4541 105.258 50.3251 104.459 51.0721 103.417Z" fill="#27FFBB"/>
<path d="M60.2259 107.467C60.3959 107.224 60.5449 106.948 60.6969 106.677C60.4659 106.382 60.2259 106.085 59.9769 105.787C58.3709 108.976 55.5229 110.236 53.7539 110.709C54.0019 111 54.2319 111.286 54.4569 111.573C56.1849 111.017 58.5449 109.865 60.2259 107.467Z" fill="#0A5840"/>
<path d="M63.682 111.121C63.502 110.803 63.309 110.478 63.109 110.15C60.751 112.94 57.79 113.507 55.875 113.523C56.106 113.873 56.326 114.219 56.525 114.554C58.592 114.398 61.38 113.645 63.682 111.121Z" fill="#0A5840"/>
<path d="M45.7818 116.251C46.1128 115.334 46.3168 114.307 46.3448 113.186C46.0028 113.017 45.6278 112.859 45.2708 112.695C45.4008 116.197 43.5588 118.615 42.0898 119.958C42.4158 120.109 42.7338 120.262 43.0438 120.418C44.0388 119.433 45.1298 118.056 45.7818 116.251Z" fill="#0A5840"/>
<path d="M40.7724 110.977C41.2794 114.349 39.7094 116.905 38.3594 118.407C38.5234 118.491 38.6834 118.579 38.8624 118.642C39.0104 118.694 39.1424 118.751 39.2874 118.804C39.9634 118.005 40.6644 116.999 41.1754 115.77C41.7094 114.485 42.0064 112.974 41.8584 111.293C41.7284 111.246 41.6114 111.194 41.4794 111.148C41.2454 111.065 41.0094 111.014 40.7724 110.977Z" fill="#27FFBB"/>
<path d="M55.0629 119.122C54.7929 118.873 54.4919 118.619 54.1989 118.367C53.0079 121.793 50.4809 123.382 48.7109 124.089C49.0249 124.35 49.3219 124.607 49.6009 124.861C51.4629 123.986 53.8049 122.292 55.0629 119.122Z" fill="#0A5840"/>
<path d="M50.5583 116.875C50.6463 116.516 50.6993 116.132 50.7473 115.743C50.4263 115.528 50.0913 115.316 49.7523 115.104C49.5303 118.649 47.4553 120.894 45.9453 122.066C46.2523 122.264 46.5533 122.462 46.8383 122.661C48.2183 121.501 49.8903 119.611 50.5583 116.875Z" fill="#0A5840"/>
<path d="M103.241 46.793H93.1232C92.0622 46.793 91.1992 47.676 91.1992 48.761C91.1992 49.847 92.0622 50.73 93.1232 50.73H103.241C104.302 50.73 105.165 49.847 105.165 48.761C105.165 47.676 104.302 46.793 103.241 46.793Z" fill="white"/>
<path d="M107.618 46.793C106.557 46.793 105.695 47.676 105.695 48.761C105.695 49.847 106.558 50.73 107.618 50.73C108.678 50.73 109.541 49.847 109.541 48.761C109.541 47.676 108.679 46.793 107.618 46.793Z" fill="white"/>
<path d="M112.036 46.793C110.975 46.793 110.113 47.676 110.113 48.761C110.113 49.847 110.976 50.73 112.036 50.73C113.096 50.73 113.959 49.847 113.959 48.761C113.959 47.676 113.097 46.793 112.036 46.793Z" fill="white"/>
<path d="M96.2472 46.3433C97.3082 46.3433 98.1712 45.4603 98.1712 44.3743C98.1712 43.2893 97.3082 42.4062 96.2472 42.4062C95.1862 42.4062 94.3242 43.2893 94.3242 44.3743C94.3242 45.4603 95.1872 46.3433 96.2472 46.3433Z" fill="white"/>
<path d="M100.329 46.3433C101.39 46.3433 102.253 45.4603 102.253 44.3743C102.253 43.2893 101.39 42.4062 100.329 42.4062C99.2683 42.4062 98.4062 43.2893 98.4062 44.3743C98.4062 45.4603 99.2693 46.3433 100.329 46.3433Z" fill="white"/>
<path d="M103.241 46.6934H93.1232C92.0622 46.6934 91.1992 47.5564 91.1992 48.6164C91.1992 49.6774 92.0622 50.5404 93.1232 50.5404H103.241C104.302 50.5404 105.165 49.6774 105.165 48.6164C105.165 47.5564 104.302 46.6934 103.241 46.6934Z" fill="#C9D4D6"/>
<path d="M107.618 46.6934C106.557 46.6934 105.695 47.5564 105.695 48.6164C105.695 49.6774 106.558 50.5404 107.618 50.5404C108.678 50.5404 109.541 49.6774 109.541 48.6164C109.541 47.5564 108.679 46.6934 107.618 46.6934Z" fill="#C9D4D6"/>
<path d="M112.036 46.6934C110.975 46.6934 110.113 47.5564 110.113 48.6164C110.113 49.6774 110.976 50.5404 112.036 50.5404C113.096 50.5404 113.959 49.6774 113.959 48.6164C113.959 47.5564 113.097 46.6934 112.036 46.6934Z" fill="#C9D4D6"/>
<path d="M96.2472 46.2533C97.3082 46.2533 98.1712 45.3903 98.1712 44.3293C98.1712 43.2683 97.3082 42.4062 96.2472 42.4062C95.1862 42.4062 94.3242 43.2693 94.3242 44.3293C94.3242 45.3913 95.1872 46.2533 96.2472 46.2533Z" fill="#C9D4D6"/>
<path d="M100.329 46.2533C101.39 46.2533 102.253 45.3903 102.253 44.3293C102.253 43.2683 101.39 42.4062 100.329 42.4062C99.2683 42.4062 98.4062 43.2693 98.4062 44.3293C98.4062 45.3913 99.2693 46.2533 100.329 46.2533Z" fill="#C9D4D6"/>
<path d="M103.241 50.0394H93.1232C92.3402 50.0394 91.6992 49.3984 91.6992 48.6154C91.6992 47.8324 92.3402 47.1914 93.1232 47.1914H103.241C104.024 47.1914 104.665 47.8324 104.665 48.6154C104.664 49.3984 104.024 50.0394 103.241 50.0394Z" fill="#0A5840"/>
<path d="M107.619 50.0394C108.406 50.0394 109.043 49.4019 109.043 48.6154C109.043 47.8289 108.406 47.1914 107.619 47.1914C106.833 47.1914 106.195 47.8289 106.195 48.6154C106.195 49.4019 106.833 50.0394 107.619 50.0394Z" fill="#0A5840"/>
<path d="M112.033 50.0394C112.82 50.0394 113.457 49.4019 113.457 48.6154C113.457 47.8289 112.82 47.1914 112.033 47.1914C111.247 47.1914 110.609 47.8289 110.609 48.6154C110.609 49.4019 111.247 50.0394 112.033 50.0394Z" fill="#27FFBB"/>
<path d="M96.2482 45.7543C97.0347 45.7543 97.6722 45.1167 97.6722 44.3303C97.6722 43.5438 97.0347 42.9062 96.2482 42.9062C95.4618 42.9062 94.8242 43.5438 94.8242 44.3303C94.8242 45.1167 95.4618 45.7543 96.2482 45.7543Z" fill="#27FFBB"/>
<path d="M100.33 45.7543C101.117 45.7543 101.754 45.1167 101.754 44.3303C101.754 43.5438 101.117 42.9062 100.33 42.9062C99.5438 42.9062 98.9062 43.5438 98.9062 44.3303C98.9062 45.1167 99.5438 45.7543 100.33 45.7543Z" fill="#27FFBB"/>
<path d="M70.5352 71.6357C70.5352 81.5447 75.6662 88.7707 81.5462 96.7977C84.6902 93.1037 88.3941 88.5647 88.3941 83.6687V59.6017C88.3941 54.7057 84.6902 50.1677 81.5462 46.4727C76.1142 53.4327 70.5352 61.7277 70.5352 71.6357Z" fill="#D2D5DC"/>
<path d="M70.5352 71.6357C70.5352 81.5447 75.9922 88.7707 81.5462 96.7977C84.5152 93.1037 87.4021 88.5647 87.4021 83.6687V59.6017C87.4021 54.7057 84.5162 50.1677 81.5462 46.4727C76.4162 53.4327 70.5352 61.7277 70.5352 71.6357Z" fill="#27FFBB"/>
<path d="M70.5352 71.6357C70.5352 81.5447 74.7852 90.5047 81.5462 96.7977C84.2402 93.1037 85.8382 88.5647 85.8382 83.6687V59.6017C85.8382 54.7057 84.2402 50.1677 81.5462 46.4727C74.7842 52.7677 70.5352 61.7277 70.5352 71.6357Z" fill="#0A5840"/>
<path d="M178.171 71.6357C178.171 81.5447 172.245 88.7707 166.214 96.7977C162.99 93.1037 159.855 88.5647 159.855 83.6687V59.6017C159.855 54.7057 162.989 50.1677 166.214 46.4727C171.785 53.4327 178.171 61.7277 178.171 71.6357Z" fill="#DFDEF8"/>
<path d="M178.172 71.6357C178.172 81.5447 172.715 88.7707 167.161 96.7977C164.192 93.1037 161.305 88.5647 161.305 83.6687V59.6017C161.305 54.7057 164.191 50.1677 167.161 46.4727C172.291 53.4327 178.172 61.7277 178.172 71.6357Z" fill="#27FFBB"/>
<path d="M178.17 71.6357C178.17 81.5447 173.92 90.5047 167.159 96.7977C164.465 93.1037 162.867 88.5647 162.867 83.6687V59.6017C162.867 54.7057 164.465 50.1677 167.159 46.4727C173.921 52.7677 178.17 61.7277 178.17 71.6357Z" fill="#0A5840"/>
<path d="M93.0078 103.893C96.7308 105.281 100.753 106.044 104.945 106.044H143.737C147.929 106.044 151.95 105.281 155.674 103.893C150.25 91.9787 138.226 83.6387 124.341 83.6387C110.456 83.6387 98.4318 91.9787 93.0078 103.893Z" fill="#CAE6FF"/>
<path d="M135.668 91.4355H111.035C108.735 91.4355 106.863 93.3745 106.863 95.7575C106.863 98.1405 108.735 100.081 111.035 100.081H135.668C137.968 100.081 139.839 98.1415 139.839 95.7575C139.84 93.3735 137.969 91.4355 135.668 91.4355Z" fill="#FFF0FF"/>
<path d="M135.668 91.4355H111.035C108.735 91.4355 106.863 93.3066 106.863 95.6066C106.863 97.9066 108.735 99.7785 111.035 99.7785H135.668C137.968 99.7785 139.839 97.9066 139.839 95.6066C139.839 93.3066 137.969 91.4355 135.668 91.4355Z" fill="#A0C3EC"/>
<path d="M135.668 98.7776H111.035C109.291 98.7776 107.863 97.3506 107.863 95.6056C107.863 93.8616 109.29 92.4336 111.035 92.4336H135.668C137.412 92.4336 138.84 93.8606 138.84 95.6056C138.84 97.3496 137.413 98.7776 135.668 98.7776Z" fill="#692EFF"/>
<path d="M111.035 92.5846H135.668C137.387 92.5846 138.79 93.9716 138.832 95.6806C138.833 95.6546 138.84 95.6306 138.84 95.6056C138.84 93.8616 137.413 92.4336 135.668 92.4336H111.035C109.291 92.4336 107.863 93.8606 107.863 95.6056C107.863 95.6316 107.87 95.6556 107.871 95.6806C107.913 93.9716 109.317 92.5846 111.035 92.5846Z" fill="#9852FF"/>
<path d="M124.341 86.8676C138.125 86.8676 150.067 93.8866 155.546 103.937C155.588 103.922 155.631 103.909 155.674 103.894C150.25 92.2756 138.226 84.1426 124.341 84.1426C110.456 84.1426 98.4318 92.2756 93.0078 103.894C93.0498 103.909 93.0928 103.922 93.1358 103.937C98.6158 93.8866 110.557 86.8676 124.341 86.8676Z" fill="#E6F6FF"/>
<path d="M124.341 86.4327C138.125 86.4327 150.067 93.6307 155.546 103.937C155.588 103.921 155.631 103.908 155.674 103.893C150.25 91.9787 138.226 83.6387 124.341 83.6387C110.456 83.6387 98.4318 91.9787 93.0078 103.893C93.0498 103.909 93.0928 103.922 93.1358 103.937C98.6158 93.6297 110.557 86.4327 124.341 86.4327Z" fill="#A0C3EC"/>
<path d="M124.341 86.4327C138.125 86.4327 150.067 93.6307 155.546 103.937C155.588 103.921 155.631 103.908 155.674 103.893C150.25 91.9787 138.226 83.6387 124.341 83.6387C110.456 83.6387 98.4318 91.9787 93.0078 103.893C93.0498 103.909 93.0928 103.922 93.1358 103.937C98.6158 93.6297 110.557 86.4327 124.341 86.4327Z" fill="#A0C3EC"/>
<path d="M146.745 81.2656H101.938C95.3375 81.2656 89.9375 75.8656 89.9375 69.2656V65.4316C89.9375 58.8316 95.3375 53.4316 101.938 53.4316H146.745C153.345 53.4316 158.745 58.8316 158.745 65.4316V69.2656C158.745 75.8656 153.345 81.2656 146.745 81.2656Z" fill="#D2D5DC"/>
<path d="M146.745 79.1816H101.938C95.3375 79.1816 89.9375 73.7816 89.9375 67.1816V65.4316C89.9375 58.8316 95.3375 53.4316 101.938 53.4316H146.745C153.345 53.4316 158.745 58.8316 158.745 65.4316V67.1816C158.745 73.7816 153.345 79.1816 146.745 79.1816Z" fill="#130E20"/>
<path d="M115.375 69.4206C114.879 69.4136 114.382 69.2396 113.974 68.8916C107.911 63.7186 101.98 68.4906 101.73 68.6956C100.788 69.4706 99.3936 69.3376 98.6186 68.3966C97.8416 67.4546 97.9756 66.0616 98.9176 65.2846C102.02 62.7256 109.759 59.4836 116.844 65.5286C117.772 66.3206 117.883 67.7156 117.091 68.6446C116.646 69.1666 116.011 69.4296 115.375 69.4206Z" fill="#27FFBB"/>
<path d="M145.738 69.4206C145.242 69.4136 144.745 69.2396 144.337 68.8916C138.274 63.7186 132.343 68.4906 132.093 68.6956C131.151 69.4706 129.757 69.3376 128.982 68.3966C128.205 67.4546 128.339 66.0616 129.281 65.2846C132.383 62.7256 140.122 59.4836 147.207 65.5286C148.135 66.3206 148.246 67.7156 147.454 68.6446C147.009 69.1666 146.374 69.4296 145.738 69.4206Z" fill="#27FFBB"/>
<path opacity="0.3" d="M199.876 174.256L180.274 154.654H46.1987C36.6137 154.654 28.8438 146.884 28.8438 137.299V137.946C28.8438 147.531 36.6137 155.301 46.1987 155.301H180.274L199.876 174.903C201.604 176.631 204.559 175.407 204.559 172.963V172.316C204.559 174.76 201.604 175.984 199.876 174.256Z" fill="white"/>
<path opacity="0.3" d="M204.562 154.518V155.165C213.165 154.137 219.839 146.826 219.839 137.946V137.299C219.839 146.18 213.165 153.49 204.562 154.518Z" fill="white"/>
<path opacity="0.4" d="M202.481 1.7207H46.1987C36.6137 1.7207 28.8438 9.49071 28.8438 19.0757V19.5957C28.8438 10.0107 36.6137 2.24071 46.1987 2.24071H202.481C212.066 2.24071 219.836 10.0107 219.836 19.5957V19.0757C219.836 9.49071 212.066 1.7207 202.481 1.7207Z" fill="white"/>
<g opacity="0.1">
<path d="M219.836 45.6529V36.6719L101.207 155.3H110.189L219.836 45.6529Z" fill="white"/>
<path d="M101.913 0L28.8438 73.069V137.945C28.8438 141.226 29.7707 144.284 31.3537 146.901L178.255 0H101.913Z" fill="white"/>
<path d="M62.0059 155.3L213.418 3.888C210.432 1.46 206.627 0 202.479 0H186.739L35.2969 151.442C38.2769 153.852 42.0659 155.301 46.1969 155.301L62.0059 155.3Z" fill="white"/>
</g>
<path opacity="0.76" d="M209.041 13.209H39.6406V29.518H209.041V13.209Z" fill="#E3FFFF"/>
<path opacity="0.96" d="M199.074 26.2037C201.522 26.2037 203.507 24.1276 203.507 21.5667C203.507 19.0057 201.522 16.9297 199.074 16.9297C196.625 16.9297 194.641 19.0057 194.641 21.5667C194.641 24.1276 196.625 26.2037 199.074 26.2037Z" fill="white"/>
<path opacity="0.76" d="M199.074 25.7957C201.522 25.7957 203.507 23.811 203.507 21.3627C203.507 18.9144 201.522 16.9297 199.074 16.9297C196.625 16.9297 194.641 18.9144 194.641 21.3627C194.641 23.811 196.625 25.7957 199.074 25.7957Z" fill="#A1C1DC"/>
<path d="M199.073 24.1235C200.597 24.1235 201.832 22.8878 201.832 21.3635C201.832 19.8392 200.597 18.6035 199.073 18.6035C197.548 18.6035 196.312 19.8392 196.312 21.3635C196.312 22.8878 197.548 24.1235 199.073 24.1235Z" fill="#FFC100"/>
<path opacity="0.76" d="M199.073 18.8075C200.563 18.8075 201.768 19.9895 201.823 21.4655C201.824 21.4305 201.832 21.3985 201.832 21.3635C201.832 19.8395 200.597 18.6035 199.073 18.6035C197.549 18.6035 196.312 19.8395 196.312 21.3635C196.312 21.3985 196.322 21.4305 196.323 21.4655C196.378 19.9895 197.584 18.8075 199.073 18.8075Z" fill="#FFFF35"/>
<path opacity="0.96" d="M186.394 26.2037C188.842 26.2037 190.827 24.1276 190.827 21.5667C190.827 19.0057 188.842 16.9297 186.394 16.9297C183.946 16.9297 181.961 19.0057 181.961 21.5667C181.961 24.1276 183.946 26.2037 186.394 26.2037Z" fill="white"/>
<path opacity="0.76" d="M186.394 25.7957C188.842 25.7957 190.827 23.811 190.827 21.3627C190.827 18.9144 188.842 16.9297 186.394 16.9297C183.946 16.9297 181.961 18.9144 181.961 21.3627C181.961 23.811 183.946 25.7957 186.394 25.7957Z" fill="#A1C1DC"/>
<path d="M186.393 24.1235C187.917 24.1235 189.153 22.8878 189.153 21.3635C189.153 19.8392 187.917 18.6035 186.393 18.6035C184.869 18.6035 183.633 19.8392 183.633 21.3635C183.633 22.8878 184.869 24.1235 186.393 24.1235Z" fill="#E30033"/>
<path d="M186.393 18.8075C187.883 18.8075 189.088 19.9895 189.143 21.4655C189.144 21.4305 189.153 21.3985 189.153 21.3635C189.153 19.8395 187.917 18.6035 186.393 18.6035C184.869 18.6035 183.633 19.8395 183.633 21.3635C183.633 21.3985 183.642 21.4305 183.643 21.4655C183.698 19.9895 184.903 18.8075 186.393 18.8075Z" fill="#FF205C"/>
<path opacity="0.96" d="M173.714 26.2037C176.163 26.2037 178.147 24.1276 178.147 21.5667C178.147 19.0057 176.163 16.9297 173.714 16.9297C171.266 16.9297 169.281 19.0057 169.281 21.5667C169.281 24.1276 171.266 26.2037 173.714 26.2037Z" fill="white"/>
<path opacity="0.76" d="M173.714 25.7957C176.163 25.7957 178.147 23.811 178.147 21.3627C178.147 18.9144 176.163 16.9297 173.714 16.9297C171.266 16.9297 169.281 18.9144 169.281 21.3627C169.281 23.811 171.266 25.7957 173.714 25.7957Z" fill="#A1C1DC"/>
<path d="M173.713 24.1235C175.237 24.1235 176.473 22.8878 176.473 21.3635C176.473 19.8392 175.237 18.6035 173.713 18.6035C172.189 18.6035 170.953 19.8392 170.953 21.3635C170.953 22.8878 172.189 24.1235 173.713 24.1235Z" fill="#188AAB"/>
<path d="M173.713 18.8075C175.203 18.8075 176.408 19.9895 176.463 21.4655C176.464 21.4305 176.473 21.3985 176.473 21.3635C176.473 19.8395 175.237 18.6035 173.713 18.6035C172.189 18.6035 170.953 19.8395 170.953 21.3635C170.953 21.3985 170.962 21.4305 170.963 21.4655C171.018 19.9895 172.223 18.8075 173.713 18.8075Z" fill="#18B0BC"/>
<path opacity="0.96" d="M209.041 12.7969H39.6406V13.2089H209.041V12.7969Z" fill="white"/>
<path d="M330.087 177.136H257.51C254.45 177.136 251.969 174.655 251.969 171.595V71.5793C251.969 67.3863 255.368 63.9883 259.56 63.9883H328.036C332.229 63.9883 335.627 67.3873 335.627 71.5793V171.595C335.628 174.656 333.147 177.136 330.087 177.136Z" fill="#2734C0"/>
<path d="M328.218 63.9883H259.378C255.286 63.9883 251.969 67.3053 251.969 71.3973V89.0113H335.628V71.3973C335.627 67.3053 332.31 63.9883 328.218 63.9883Z" fill="#13217A"/>
<path d="M328.359 63.9883H259.237C255.223 63.9883 251.969 67.2423 251.969 71.2563V71.6353C251.969 67.6213 255.223 64.3673 259.237 64.3673H328.359C332.373 64.3673 335.627 67.6213 335.627 71.6353V71.2563C335.627 67.2423 332.373 63.9883 328.359 63.9883Z" fill="#275BBB"/>
<path d="M264.953 85.0163C269.333 85.0163 272.883 81.3348 272.883 76.7933C272.883 72.2519 269.333 68.5703 264.953 68.5703C260.574 68.5703 257.023 72.2519 257.023 76.7933C257.023 81.3348 260.574 85.0163 264.953 85.0163Z" fill="#133DAD"/>
<path d="M264.953 84.4284C269.333 84.4284 272.883 80.878 272.883 76.4984C272.883 72.1187 269.333 68.5684 264.953 68.5684C260.574 68.5684 257.023 72.1187 257.023 76.4984C257.023 80.878 260.574 84.4284 264.953 84.4284Z" fill="#130E20"/>
<path d="M335.628 89.0117H251.969V90.0357H335.628V89.0117Z" fill="#275BBB"/>
<path d="M335.625 115.207H274.325C269.149 115.207 264.953 111.011 264.953 105.835C264.953 100.659 269.149 96.4629 274.325 96.4629H335.625V115.207Z" fill="#27FFBB"/>
<path d="M274.325 96.4648C269.149 96.4648 264.953 100.661 264.953 105.837C264.953 105.876 264.958 105.914 264.959 105.952C265.021 100.83 269.188 96.6958 274.325 96.6958H335.624V96.4648H274.325Z" fill="#6AFFF3"/>
<path d="M334.399 140.379H274.325C269.149 140.379 264.953 136.183 264.953 131.007C264.953 125.831 269.149 121.635 274.325 121.635H334.399C335.076 121.635 335.624 122.184 335.624 122.86V139.153C335.624 139.831 335.076 140.379 334.399 140.379Z" fill="#FF2772"/>
<path d="M274.325 121.637C269.149 121.637 264.953 125.833 264.953 131.009C264.953 131.105 264.965 131.199 264.967 131.295C265.119 126.253 269.245 122.209 274.324 122.209H335.623V121.638L274.325 121.637Z" fill="#FF589A"/>
<path d="M335.625 165.551H274.325C269.149 165.551 264.953 161.355 264.953 156.179C264.953 151.003 269.149 146.807 274.325 146.807H335.625V165.551Z" fill="#FFD700"/>
<path d="M274.325 146.809C269.149 146.809 264.953 151.005 264.953 156.181C264.953 156.248 264.962 156.312 264.963 156.379C265.069 151.295 269.216 147.205 274.325 147.205H335.624V146.81L274.325 146.809Z" fill="#FFFF45"/>
<path d="M306.553 70.9316H278.594V73.9706H306.553V70.9316Z" fill="#0A5840"/>
<path d="M323.736 70.9316H310.617V73.9706H323.736V70.9316Z" fill="#0A5840"/>
<path d="M296.947 99.5254H283.828V102.564H296.947V99.5254Z" fill="#0078FF"/>
<path d="M296.947 124.945H283.828V127.984H296.947V124.945Z" fill="#B21A39"/>
<path d="M296.947 150.074H283.828V153.113H296.947V150.074Z" fill="#FF7900"/>
<path d="M327.592 131.293H283.828V134.332H327.592V131.293Z" fill="#B21A39"/>
<path d="M327.592 135.564H283.828V136.383H327.592V135.564Z" fill="#B21A39"/>
<path d="M327.592 137.443H283.828V138.262H327.592V137.443Z" fill="#B21A39"/>
<path d="M312.658 105.076H283.828V106.595H312.658V105.076Z" fill="#0078FF"/>
<path d="M327.592 108.465H283.828V109.984H327.592V108.465Z" fill="#0078FF"/>
<path d="M319.997 105.076H314.914V106.595H319.997V105.076Z" fill="#0078FF"/>
<path d="M327.599 105.076H322.516V106.595H327.599V105.076Z" fill="#0078FF"/>
<path d="M288.911 111.104H283.828V112.623H288.911V111.104Z" fill="#0078FF"/>
<path d="M323.736 79.5117H310.617V82.5507H323.736V79.5117Z" fill="#0A5840"/>
<path d="M319.099 76.6504H278.594V78.4374H319.099V76.6504Z" fill="#0A5840"/>
<path d="M287.996 81.0312H278.594V82.8183H287.996V81.0312Z" fill="#0A5840"/>
<path d="M293.736 81.0312H290.391V82.8183H293.736V81.0312Z" fill="#0A5840"/>
<path d="M298.056 81.0312H294.711V82.8183H298.056V81.0312Z" fill="#0A5840"/>
<path d="M302.384 81.0312H299.039V82.8183H302.384V81.0312Z" fill="#0A5840"/>
<path d="M306.704 81.0312H303.359V82.8183H306.704V81.0312Z" fill="#0A5840"/>
<path d="M323.736 76.6504H320.391V78.4374H323.736V76.6504Z" fill="#0A5840"/>
<path d="M331.778 70.9316H325.047V71.6356H331.778V70.9316Z" fill="#FF2772"/>
<path d="M331.778 73.2656H325.047V73.9696H331.778V73.2656Z" fill="#FF2772"/>
<path d="M331.778 75.5996H325.047V76.3036H331.778V75.5996Z" fill="#FF2772"/>
<path d="M274.953 112.623C278.439 112.623 281.265 109.691 281.265 106.074C281.265 102.457 278.439 99.5254 274.953 99.5254C271.467 99.5254 268.641 102.457 268.641 106.074C268.641 109.691 271.467 112.623 274.953 112.623Z" fill="#7DFFE6"/>
<path d="M274.953 112.147C278.439 112.147 281.265 109.321 281.265 105.835C281.265 102.349 278.439 99.5234 274.953 99.5234C271.467 99.5234 268.641 102.349 268.641 105.835C268.641 109.321 271.467 112.147 274.953 112.147Z" fill="#00B89C"/>
<path d="M274.953 137.559C278.439 137.559 281.265 134.627 281.265 131.01C281.265 127.393 278.439 124.461 274.953 124.461C271.467 124.461 268.641 127.393 268.641 131.01C268.641 134.627 271.467 137.559 274.953 137.559Z" fill="#FF5D96"/>
<path d="M274.953 137.083C278.439 137.083 281.265 134.257 281.265 130.771C281.265 127.285 278.439 124.459 274.953 124.459C271.467 124.459 268.641 127.285 268.641 130.771C268.641 134.257 271.467 137.083 274.953 137.083Z" fill="#B21A39"/>
<path d="M274.953 162.731C278.439 162.731 281.265 159.799 281.265 156.182C281.265 152.565 278.439 149.633 274.953 149.633C271.467 149.633 268.641 152.565 268.641 156.182C268.641 159.799 271.467 162.731 274.953 162.731Z" fill="#FFF466"/>
<path d="M274.953 162.255C278.439 162.255 281.265 159.429 281.265 155.943C281.265 152.457 278.439 149.631 274.953 149.631C271.467 149.631 268.641 152.457 268.641 155.943C268.641 159.429 271.467 162.255 274.953 162.255Z" fill="#FF7900"/>
<path d="M302.482 155.941H283.828V158.247H302.482V155.941Z" fill="#FF7900"/>
<path d="M327.591 155.941H308.938V158.247H327.591V155.941Z" fill="#FF7900"/>
<path d="M327.59 160.424H293.797V161.577H327.59V160.424Z" fill="#FF7900"/>
<path d="M292.21 160.424H283.398V161.577H292.21V160.424Z" fill="#FF7900"/>
<path d="M306.903 155.941H304.523V158.247H306.903V155.941Z" fill="#FF7900"/>
<path d="M265.553 104.665C268.603 104.665 271.075 102.193 271.075 99.1431C271.075 96.0934 268.603 93.6211 265.553 93.6211C262.504 93.6211 260.031 96.0934 260.031 99.1431C260.031 102.193 262.504 104.665 265.553 104.665Z" fill="#D9FFFF"/>
<path d="M270.249 102.014C270.763 101.175 271.075 100.199 271.075 99.1431C271.075 96.0931 268.603 93.6211 265.553 93.6211C262.503 93.6211 260.031 96.0931 260.031 99.1431C260.031 102.193 262.503 104.665 265.553 104.665C266.603 104.665 267.575 104.356 268.411 103.846H270.249V102.014Z" fill="#D9FFFF"/>
<path d="M265.553 93.6911C268.593 93.6911 271.056 96.1481 271.072 99.1841C271.072 99.1701 271.075 99.1571 271.075 99.1431C271.075 96.0931 268.603 93.6211 265.553 93.6211C262.503 93.6211 260.031 96.0931 260.031 99.1431C260.031 99.1551 260.034 99.1661 260.035 99.1781C260.054 96.1451 262.516 93.6911 265.553 93.6911Z" fill="white"/>
<path d="M265.554 103.484C267.879 103.484 269.764 101.57 269.764 99.2086C269.764 96.8476 267.879 94.9336 265.554 94.9336C263.229 94.9336 261.344 96.8476 261.344 99.2086C261.344 101.57 263.229 103.484 265.554 103.484Z" fill="white"/>
<path d="M265.554 103.354C267.879 103.354 269.764 101.469 269.764 99.1436C269.764 96.8185 267.879 94.9336 265.554 94.9336C263.229 94.9336 261.344 96.8185 261.344 99.1436C261.344 101.469 263.229 103.354 265.554 103.354Z" fill="#BCC9FF"/>
<path d="M265.555 102.768C267.557 102.768 269.18 101.145 269.18 99.1426C269.18 97.1405 267.557 95.5176 265.555 95.5176C263.553 95.5176 261.93 97.1405 261.93 99.1426C261.93 101.145 263.553 102.768 265.555 102.768Z" fill="#FF2772"/>
<path d="M265.555 95.6656C267.532 95.6656 269.132 97.2496 269.173 99.2166C269.173 99.1916 269.18 99.1676 269.18 99.1426C269.18 97.1406 267.557 95.5176 265.555 95.5176C263.553 95.5176 261.93 97.1406 261.93 99.1426C261.93 99.1676 261.937 99.1916 261.937 99.2166C261.978 97.2496 263.578 95.6656 265.555 95.6656Z" fill="#FF72AE"/>
<path d="M265.401 101.686C265.287 101.686 265.191 101.647 265.113 101.569C265.035 101.487 264.996 101.386 264.996 101.267V98.0456L265.14 98.0799L263.817 99.7182L263.783 99.6291H266.21C266.319 99.6291 266.411 99.6657 266.484 99.7388C266.557 99.8119 266.594 99.9033 266.594 100.013C266.594 100.118 266.557 100.207 266.484 100.28C266.411 100.349 266.319 100.383 266.21 100.383H263.214C263.118 100.383 263.025 100.344 262.933 100.267C262.846 100.189 262.803 100.093 262.803 99.9787C262.803 99.8782 262.837 99.7868 262.906 99.7045L265.072 97.0517C265.108 97.0014 265.156 96.9626 265.216 96.9352C265.275 96.9032 265.341 96.8872 265.415 96.8872C265.533 96.8872 265.629 96.9283 265.703 97.0106C265.78 97.0883 265.819 97.1865 265.819 97.3053V101.267C265.819 101.386 265.778 101.487 265.696 101.569C265.618 101.647 265.52 101.686 265.401 101.686Z" fill="#D9FFFF"/>
<path d="M265.553 155.595C268.603 155.595 271.075 153.123 271.075 150.073C271.075 147.023 268.603 144.551 265.553 144.551C262.504 144.551 260.031 147.023 260.031 150.073C260.031 153.123 262.504 155.595 265.553 155.595Z" fill="#D9FFFF"/>
<path d="M270.249 152.944C270.763 152.105 271.075 151.129 271.075 150.073C271.075 147.023 268.603 144.551 265.553 144.551C262.503 144.551 260.031 147.023 260.031 150.073C260.031 153.123 262.503 155.595 265.553 155.595C266.603 155.595 267.575 155.286 268.411 154.776H270.249V152.944Z" fill="#D9FFFF"/>
<path d="M265.553 144.621C268.593 144.621 271.056 147.078 271.072 150.114C271.072 150.1 271.075 150.087 271.075 150.073C271.075 147.023 268.603 144.551 265.553 144.551C262.503 144.551 260.031 147.023 260.031 150.073C260.031 150.085 260.034 150.096 260.035 150.108C260.054 147.075 262.516 144.621 265.553 144.621Z" fill="white"/>
<path d="M265.554 154.413C267.879 154.413 269.764 152.499 269.764 150.138C269.764 147.777 267.879 145.863 265.554 145.863C263.229 145.863 261.344 147.777 261.344 150.138C261.344 152.499 263.229 154.413 265.554 154.413Z" fill="white"/>
<path d="M265.554 154.283C267.879 154.283 269.764 152.398 269.764 150.073C269.764 147.748 267.879 145.863 265.554 145.863C263.229 145.863 261.344 147.748 261.344 150.073C261.344 152.398 263.229 154.283 265.554 154.283Z" fill="#BCC9FF"/>
<path d="M265.555 153.697C267.557 153.697 269.18 152.074 269.18 150.072C269.18 148.07 267.557 146.447 265.555 146.447C263.553 146.447 261.93 148.07 261.93 150.072C261.93 152.074 263.553 153.697 265.555 153.697Z" fill="#FF2772"/>
<path d="M265.555 146.595C267.532 146.595 269.132 148.179 269.173 150.146C269.173 150.121 269.18 150.097 269.18 150.072C269.18 148.07 267.557 146.447 265.555 146.447C263.553 146.447 261.93 148.07 261.93 150.072C261.93 150.097 261.937 150.121 261.937 150.146C261.978 148.179 263.578 146.595 265.555 146.595Z" fill="#FF72AE"/>
<path d="M266.13 150.182L266.117 150.024C266.29 150.102 266.441 150.202 266.569 150.326C266.697 150.449 266.795 150.584 266.864 150.73C266.932 150.876 266.967 151.027 266.967 151.183C266.967 151.443 266.893 151.683 266.747 151.902C266.606 152.117 266.414 152.291 266.171 152.423C265.929 152.551 265.66 152.615 265.363 152.615C265.066 152.615 264.796 152.551 264.554 152.423C264.312 152.291 264.117 152.117 263.971 151.902C263.829 151.683 263.759 151.443 263.759 151.183C263.759 150.972 263.802 150.792 263.889 150.641C263.98 150.486 264.092 150.355 264.225 150.25C264.362 150.145 264.497 150.058 264.629 149.99L264.574 150.182C264.46 150.136 264.348 150.072 264.238 149.99C264.133 149.903 264.046 149.793 263.978 149.661C263.909 149.528 263.875 149.373 263.875 149.195C263.875 148.939 263.941 148.708 264.074 148.502C264.206 148.292 264.385 148.125 264.609 148.002C264.837 147.879 265.088 147.817 265.363 147.817C265.641 147.817 265.89 147.879 266.11 148.002C266.334 148.125 266.512 148.292 266.644 148.502C266.777 148.708 266.843 148.939 266.843 149.195C266.843 149.391 266.804 149.556 266.727 149.688C266.649 149.821 266.555 149.926 266.446 150.004C266.336 150.081 266.231 150.141 266.13 150.182ZM264.698 149.208C264.698 149.332 264.725 149.441 264.78 149.537C264.839 149.633 264.919 149.711 265.02 149.77C265.12 149.825 265.235 149.853 265.363 149.853C265.491 149.853 265.603 149.825 265.698 149.77C265.799 149.711 265.877 149.633 265.932 149.537C265.991 149.441 266.021 149.332 266.021 149.208C266.021 149.026 265.957 148.875 265.829 148.756C265.705 148.633 265.55 148.571 265.363 148.571C265.171 148.571 265.011 148.633 264.883 148.756C264.759 148.875 264.698 149.026 264.698 149.208ZM265.363 151.861C265.582 151.861 265.767 151.795 265.918 151.662C266.069 151.525 266.144 151.361 266.144 151.169C266.144 151.036 266.11 150.918 266.041 150.812C265.973 150.707 265.879 150.625 265.76 150.566C265.641 150.502 265.509 150.47 265.363 150.47C265.216 150.47 265.084 150.502 264.965 150.566C264.846 150.625 264.753 150.707 264.684 150.812C264.615 150.918 264.581 151.036 264.581 151.169C264.581 151.361 264.657 151.525 264.807 151.662C264.958 151.795 265.143 151.861 265.363 151.861Z" fill="#D9FFFF"/>
<path opacity="0.4" d="M114.158 139.23H199.277C205.029 139.23 209.736 134.523 209.736 128.771C209.736 123.019 205.029 118.312 199.277 118.312H114.158C108.406 118.312 103.699 123.019 103.699 128.771C103.699 134.523 108.405 139.23 114.158 139.23Z" fill="white"/>
<path opacity="0.4" d="M114.158 118.599H199.277C204.981 118.599 209.651 123.228 209.729 128.915C209.73 128.867 209.736 128.819 209.736 128.771C209.736 123.019 205.029 118.312 199.277 118.312H114.158C108.405 118.312 103.699 123.019 103.699 128.771C103.699 128.819 103.706 128.867 103.706 128.915C103.784 123.228 108.454 118.599 114.158 118.599Z" fill="white"/>
<path opacity="0.4" d="M152.658 112.105H199.277C205.029 112.105 209.736 107.398 209.736 101.646C209.736 95.8945 205.029 91.1875 199.277 91.1875H152.658C146.906 91.1875 142.199 95.8945 142.199 101.646C142.199 107.398 146.906 112.105 152.658 112.105Z" fill="white"/>
<path opacity="0.4" d="M152.658 91.6155H199.277C204.957 91.6155 209.608 96.2065 209.725 101.86C209.726 101.788 209.736 101.718 209.736 101.645C209.736 95.8925 205.029 91.1855 199.277 91.1855H152.658C146.905 91.1855 142.199 95.8925 142.199 101.645C142.199 101.718 142.208 101.788 142.21 101.86C142.327 96.2065 146.978 91.6155 152.658 91.6155Z" fill="white"/>
<path d="M131.966 127.247H111.671C110.627 127.247 109.773 126.393 109.773 125.349V124.894C109.773 123.85 110.627 122.996 111.671 122.996H131.966C133.01 122.996 133.864 123.85 133.864 124.894V125.349C133.865 126.392 133.01 127.247 131.966 127.247Z" fill="#0078FF"/>
<path d="M185.757 131.064H111.109C110.722 131.064 110.406 130.748 110.406 130.361V130.193C110.406 129.806 110.722 129.49 111.109 129.49H185.757C186.144 129.49 186.46 129.806 186.46 130.193V130.361C186.46 130.748 186.143 131.064 185.757 131.064Z" fill="#0078FF"/>
<path d="M200.399 131.064H189.93C189.543 131.064 189.227 130.748 189.227 130.361V130.193C189.227 129.806 189.543 129.49 189.93 129.49H200.399C200.786 129.49 201.102 129.806 201.102 130.193V130.361C201.102 130.748 200.785 131.064 200.399 131.064Z" fill="#0078FF"/>
<path d="M121.578 134.545H111.109C110.722 134.545 110.406 134.229 110.406 133.842V133.674C110.406 133.287 110.722 132.971 111.109 132.971H121.578C121.965 132.971 122.281 133.287 122.281 133.674V133.842C122.281 134.229 121.965 134.545 121.578 134.545Z" fill="#0078FF"/>
<path d="M200.396 134.545H170.437C170.05 134.545 169.734 134.229 169.734 133.842V133.674C169.734 133.287 170.05 132.971 170.437 132.971H200.396C200.783 132.971 201.099 133.287 201.099 133.674V133.842C201.099 134.229 200.782 134.545 200.396 134.545Z" fill="#0078FF"/>
<path d="M166.513 134.545H125.535C125.148 134.545 124.832 134.229 124.832 133.842V133.674C124.832 133.287 125.148 132.971 125.535 132.971H166.513C166.9 132.971 167.216 133.287 167.216 133.674V133.842C167.216 134.229 166.899 134.545 166.513 134.545Z" fill="#0078FF"/>
<path d="M169.545 100.384H149.25C148.206 100.384 147.352 99.5298 147.352 98.4858V98.0308C147.352 96.9868 148.206 96.1328 149.25 96.1328H169.545C170.589 96.1328 171.443 96.9868 171.443 98.0308V98.4858C171.443 99.5298 170.589 100.384 169.545 100.384Z" fill="#FF2772"/>
<path d="M191.83 104.201H148.683C148.296 104.201 147.98 103.885 147.98 103.498V103.33C147.98 102.943 148.296 102.627 148.683 102.627H191.83C192.217 102.627 192.533 102.943 192.533 103.33V103.498C192.533 103.885 192.217 104.201 191.83 104.201Z" fill="#FF2772"/>
<path d="M201.895 104.201H196.008C195.621 104.201 195.305 103.885 195.305 103.498V103.33C195.305 102.943 195.621 102.627 196.008 102.627H201.895C202.282 102.627 202.598 102.943 202.598 103.33V103.498C202.598 103.885 202.281 104.201 201.895 104.201Z" fill="#FF2772"/>
<path d="M159.152 107.683H148.683C148.296 107.683 147.98 107.367 147.98 106.98V106.812C147.98 106.425 148.296 106.109 148.683 106.109H159.152C159.539 106.109 159.855 106.425 159.855 106.812V106.98C159.855 107.366 159.538 107.683 159.152 107.683Z" fill="#FF2772"/>
<path d="M201.895 107.683H178.039C177.652 107.683 177.336 107.367 177.336 106.98V106.812C177.336 106.425 177.652 106.109 178.039 106.109H201.895C202.282 106.109 202.598 106.425 202.598 106.812V106.98C202.598 107.366 202.281 107.683 201.895 107.683Z" fill="#FF2772"/>
<path d="M174.111 107.683H163.113C162.726 107.683 162.41 107.367 162.41 106.98V106.812C162.41 106.425 162.726 106.109 163.113 106.109H174.111C174.498 106.109 174.814 106.425 174.814 106.812V106.98C174.814 107.366 174.498 107.683 174.111 107.683Z" fill="#FF2772"/>
<path opacity="0.4" d="M189.492 147.436C190.976 147.436 192.179 146.233 192.179 144.749C192.179 143.266 190.976 142.062 189.492 142.062C188.008 142.062 186.805 143.266 186.805 144.749C186.805 146.233 188.008 147.436 189.492 147.436Z" fill="white"/>
<path opacity="0.4" d="M189.492 142.232C190.947 142.232 192.125 143.391 192.17 144.835C192.171 144.806 192.179 144.78 192.179 144.751C192.179 143.267 190.976 142.064 189.492 142.064C188.008 142.064 186.805 143.267 186.805 144.751C186.805 144.78 186.813 144.807 186.814 144.835C186.86 143.391 188.037 142.232 189.492 142.232Z" fill="white"/>
<path opacity="0.4" d="M197.742 147.436C199.226 147.436 200.429 146.233 200.429 144.749C200.429 143.266 199.226 142.062 197.742 142.062C196.258 142.062 195.055 143.266 195.055 144.749C195.055 146.233 196.258 147.436 197.742 147.436Z" fill="white"/>
<path opacity="0.4" d="M197.742 142.232C199.197 142.232 200.375 143.391 200.42 144.835C200.421 144.806 200.429 144.78 200.429 144.751C200.429 143.267 199.226 142.064 197.742 142.064C196.258 142.064 195.055 143.267 195.055 144.751C195.055 144.78 195.063 144.807 195.064 144.835C195.109 143.391 196.287 142.232 197.742 142.232Z" fill="white"/>
<path opacity="0.4" d="M205.984 147.436C207.468 147.436 208.671 146.233 208.671 144.749C208.671 143.266 207.468 142.062 205.984 142.062C204.5 142.062 203.297 143.266 203.297 144.749C203.297 146.233 204.5 147.436 205.984 147.436Z" fill="white"/>
<path opacity="0.4" d="M205.984 142.232C207.439 142.232 208.617 143.391 208.662 144.835C208.663 144.806 208.671 144.78 208.671 144.751C208.671 143.267 207.468 142.064 205.984 142.064C204.5 142.064 203.297 143.267 203.297 144.751C203.297 144.78 203.305 144.807 203.306 144.835C203.352 143.391 204.529 142.232 205.984 142.232Z" fill="white"/>
<path opacity="0.21" d="M28.8438 99.5331C28.9028 99.5281 28.9617 99.5261 29.0207 99.5211C35.3857 98.9191 41.2667 96.3011 46.0457 92.3631L57.9747 92.4361L54.4327 82.0281C56.6897 77.6871 57.9747 72.8291 57.9747 67.7921C57.9747 60.9411 55.5957 54.8741 51.6257 50.2891L28.8438 73.0711V99.5331Z" fill="#27348B"/>
<path d="M54.429 81.6917C56.689 77.5647 57.976 72.8287 57.976 67.7907C57.976 51.7807 44.997 38.8027 28.988 38.8027C12.979 38.8027 0 51.7807 0 67.7907C0 83.8007 12.979 96.7787 28.988 96.7787C35.36 96.7787 41.249 94.7177 46.033 91.2327L57.976 92.4347L54.429 81.6917Z" fill="#27348B"/>
<path d="M57.9753 92.4358L54.4283 81.6928C56.5663 77.7878 57.8182 73.3348 57.9492 68.6008L46.7513 57.3168L43.4283 58.4248L41.4902 60.4558L38.1673 57.1328L36.4133 59.9938L35.6753 61.2858L33.2753 60.8238L29.9062 57.4548L27.1833 59.5318L26.4453 64.5158L25.2453 66.8238L15.9232 57.6558L13.5233 61.8398L12.9693 69.6848L13.1543 73.4508L11.0312 79.6528L28.1363 96.7578C28.4193 96.7658 28.7013 96.7798 28.9873 96.7798C35.3593 96.7798 41.2482 94.7188 46.0322 91.2338L57.9753 92.4358Z" fill="#191774"/>
<path d="M57.792 92.4174L57.977 92.4364L54.43 81.6934C54.392 81.7624 57.792 92.4174 57.792 92.4174Z" fill="#275DC5"/>
<path d="M28.987 39.3447C44.896 39.3447 57.805 52.1617 57.968 68.0317C57.969 67.9517 57.976 67.8727 57.976 67.7927C57.976 51.7827 44.997 38.8047 28.988 38.8047C12.979 38.8047 0 51.7827 0 67.7927C0 67.8837 0.00599615 67.9727 0.00699615 68.0627C0.150996 52.1777 13.068 39.3447 28.987 39.3447Z" fill="#275DC5"/>
<path d="M25.1484 56.3873C25.3204 56.0647 25.6107 55.8389 26.0193 55.7099C26.4279 55.5809 26.944 55.5164 27.5676 55.5164C28.1912 55.5164 28.6858 55.5701 29.0514 55.6776C29.417 55.7852 29.6965 55.9142 29.8901 56.0647C30.0836 56.2152 30.2341 56.4303 30.3416 56.7098C30.4492 57.0754 30.5029 57.6345 30.5029 58.3872V76.2894C30.5029 76.7839 30.4814 77.1603 30.4384 77.4183C30.4169 77.6549 30.3201 77.9344 30.1481 78.257C29.8471 78.8376 29.0084 79.1279 27.6321 79.1279C26.1268 79.1279 25.2452 78.7301 24.9871 77.9344C24.8581 77.5689 24.7936 77.0097 24.7936 76.2571V69.7091H16.2457V76.2894C16.2457 76.7839 16.2242 77.1603 16.1812 77.4183C16.1597 77.6549 16.0629 77.9344 15.8909 78.257C15.5898 78.8376 14.7512 79.1279 13.3749 79.1279C11.8696 79.1279 10.9879 78.7301 10.7299 77.9344C10.6009 77.5689 10.5363 77.0097 10.5363 76.2571V58.3549C10.5363 57.8603 10.5471 57.4947 10.5686 57.2582C10.6116 57.0001 10.7191 56.7098 10.8912 56.3873C11.1922 55.8067 12.0309 55.5164 13.4071 55.5164C14.9124 55.5164 15.8049 55.9142 16.0844 56.7098C16.1919 57.0754 16.2457 57.6345 16.2457 58.3872V64.9674H24.7936V58.3549C24.7936 57.8603 24.8043 57.4947 24.8258 57.2582C24.8688 57.0001 24.9764 56.7098 25.1484 56.3873ZM33.0905 58.3549C33.0905 57.8603 33.1012 57.4947 33.1227 57.2582C33.1657 57.0001 33.2733 56.7098 33.4453 56.3873C33.7464 55.8067 34.585 55.5164 35.9613 55.5164C37.4666 55.5164 38.359 55.9142 38.6385 56.7098C38.7461 57.0754 38.7998 57.6345 38.7998 58.3872V76.3216C38.7998 76.8377 38.7783 77.214 38.7353 77.4506C38.7138 77.6871 38.617 77.9667 38.445 78.2892C38.144 78.8699 37.3053 79.1602 35.929 79.1602C34.4237 79.1602 33.5421 78.7516 33.284 77.9344C33.155 77.5904 33.0905 77.042 33.0905 76.2894V58.3549ZM41.6976 74.2572C41.9126 73.8271 42.2352 73.5368 42.6653 73.3863C43.1169 73.2358 43.805 73.1605 44.7297 73.1605C45.6759 73.1605 46.3532 73.3648 46.7618 73.7734C47.1919 74.1819 47.4069 74.8271 47.4069 75.7087V76.2248C47.4069 76.7409 47.3854 77.128 47.3424 77.3861C47.3209 77.6226 47.2242 77.9129 47.0521 78.257C46.7081 78.8806 45.8801 79.1924 44.5684 79.1924C43.2781 79.1924 42.418 78.9881 41.9879 78.5795C41.5793 78.1495 41.375 77.3323 41.375 76.1281C41.375 75.2894 41.4826 74.6658 41.6976 74.2572ZM46.0199 70.4832C45.6113 70.5908 45.063 70.6445 44.3749 70.6445C43.6867 70.6445 43.1384 70.5908 42.7298 70.4832C42.3212 70.3757 42.0309 70.1822 41.8589 69.9026C41.7083 69.6231 41.6116 69.3758 41.5686 69.1607C41.5471 68.9457 41.5363 68.6124 41.5363 68.1608V57.9356C41.5363 57.484 41.5471 57.1507 41.5686 56.9356C41.6116 56.6991 41.7191 56.441 41.8911 56.1615C42.0632 55.8819 42.3535 55.6884 42.762 55.5809C43.1706 55.4518 43.719 55.3873 44.4071 55.3873C45.0952 55.3873 45.6436 55.4518 46.0522 55.5809C46.4608 55.6884 46.7403 55.8927 46.8908 56.1937C47.0629 56.4733 47.1596 56.7313 47.1811 56.9679C47.2242 57.1829 47.2457 57.5162 47.2457 57.9678V68.193C47.2457 68.6446 47.2242 68.9779 47.1811 69.193C47.1596 69.408 47.0629 69.6553 46.8908 69.9349C46.7188 70.1929 46.4285 70.3757 46.0199 70.4832Z" fill="#27FFBB"/>
<path d="M41.8732 71.1595C42.0352 71.4385 42.3191 71.6325 42.7281 71.7405C43.1362 71.8485 43.6852 71.9015 44.3732 71.9015C45.0612 71.9015 45.6091 71.8485 46.0182 71.7405C46.4262 71.6335 46.7172 71.4455 46.8892 71.1765C47.0612 70.9075 47.1632 70.6655 47.1952 70.4505C47.2272 70.2365 47.2431 69.9025 47.2431 69.4505V59.2255C47.2431 58.7735 47.2272 58.4355 47.1952 58.2095C47.1632 57.9835 47.0662 57.7255 46.9052 57.4355C46.7442 57.1445 46.4582 56.9405 46.0502 56.8225C45.6412 56.7045 45.0932 56.6445 44.4052 56.6445C43.7172 56.6445 43.1682 56.7045 42.7602 56.8225C42.3512 56.9405 42.0612 57.1395 41.8892 57.4195C41.7172 57.6995 41.6152 57.9515 41.5832 58.1775C41.5512 58.4035 41.5352 58.7415 41.5352 59.1935V69.4185C41.5352 69.8705 41.5512 70.2035 41.5832 70.4185C41.6152 70.6325 41.7122 70.8805 41.8732 71.1595ZM30.3261 57.9825C30.2291 57.6915 30.0842 57.4715 29.8902 57.3205C29.6972 57.1705 29.4172 57.0415 29.0512 56.9335C28.6852 56.8265 28.2232 56.7715 27.6642 56.7715C26.9762 56.7715 26.4271 56.8365 26.0191 56.9655C25.6101 57.0945 25.3202 57.3195 25.1482 57.6425C24.9762 57.9655 24.8742 58.2505 24.8412 58.4975C24.8092 58.7455 24.7932 59.1155 24.7932 59.6105V66.2225H16.2452V59.6425C16.2452 59.2345 16.2401 58.9275 16.2291 58.7235C16.2181 58.5195 16.1652 58.2715 16.0682 57.9815C15.9712 57.6905 15.8262 57.4705 15.6322 57.3195C15.4392 57.1695 15.1592 57.0405 14.7932 56.9325C14.4272 56.8255 13.9652 56.7705 13.4062 56.7705C12.7182 56.7705 12.1692 56.8355 11.7612 56.9645C11.3522 57.0935 11.0622 57.3185 10.8902 57.6415C10.7182 57.9645 10.6162 58.2495 10.5842 58.4965C10.5512 58.7445 10.5352 59.1145 10.5352 59.6095V77.5115C10.5352 77.9205 10.5402 78.2265 10.5512 78.4305C10.5622 78.6355 10.6162 78.8825 10.7132 79.1725C10.8102 79.4625 10.9552 79.6835 11.1492 79.8335C11.3422 79.9845 11.6222 80.1135 11.9872 80.2205C12.3532 80.3285 12.8152 80.3815 13.3742 80.3815C14.0622 80.3815 14.6101 80.3175 15.0191 80.1885C15.4271 80.0595 15.7182 79.8335 15.8902 79.5105C16.0612 79.1885 16.1642 78.9035 16.1962 78.6565C16.2282 78.4095 16.2442 78.0385 16.2442 77.5435V70.9625H24.7922V77.5105C24.7922 77.9195 24.7972 78.2255 24.8082 78.4295C24.8192 78.6345 24.8722 78.8815 24.9702 79.1715C25.0672 79.4615 25.2122 79.6825 25.4052 79.8325C25.5992 79.9835 25.8782 80.1125 26.2442 80.2195C26.6092 80.3275 27.0721 80.3805 27.6311 80.3805C28.3191 80.3805 28.8672 80.3165 29.2762 80.1875C29.6842 80.0585 29.9742 79.8325 30.1472 79.5095C30.3192 79.1875 30.4212 78.9025 30.4542 78.6555C30.4872 78.4085 30.5022 78.0375 30.5022 77.5425V59.6405C30.5022 59.2325 30.4972 58.9255 30.4862 58.7215C30.4762 58.5205 30.4231 58.2725 30.3261 57.9825ZM38.6161 57.9825C38.5191 57.6915 38.3742 57.4715 38.1802 57.3205C37.9872 57.1705 37.7072 57.0415 37.3412 56.9335C36.9752 56.8265 36.5132 56.7715 35.9542 56.7715C35.2662 56.7715 34.7172 56.8365 34.3092 56.9655C33.9002 57.0945 33.6102 57.3195 33.4382 57.6425C33.2662 57.9655 33.1642 58.2505 33.1322 58.4975C33.0992 58.7455 33.0832 59.1155 33.0832 59.6105V77.5465C33.0832 77.9555 33.0882 78.2615 33.0992 78.4655C33.1102 78.6705 33.1642 78.9175 33.2612 79.2075C33.3582 79.4975 33.5032 79.7185 33.6972 79.8685C33.8902 80.0195 34.1702 80.1485 34.5352 80.2555C34.9012 80.3635 35.3631 80.4165 35.9221 80.4165C36.6101 80.4165 37.1582 80.3525 37.5672 80.2235C37.9752 80.0945 38.2662 79.8685 38.4382 79.5455C38.6092 79.2235 38.7122 78.9435 38.7442 78.7075C38.7762 78.4715 38.7922 78.0945 38.7922 77.5785V59.6435C38.7922 59.2355 38.7872 58.9285 38.7762 58.7245C38.7662 58.5205 38.7122 58.2725 38.6161 57.9825ZM46.8572 75.0945C46.3842 74.6425 45.5662 74.4175 44.4052 74.4175C43.6962 74.4175 43.1202 74.4935 42.6792 74.6435C42.2382 74.7945 41.9312 75.0365 41.7602 75.3695C41.5882 75.7035 41.4802 75.9985 41.4382 76.2565C41.3952 76.5145 41.3732 76.8915 41.3732 77.3855C41.3732 78.5905 41.5672 79.3855 41.9542 79.7725C42.4052 80.2245 43.2122 80.4495 44.3732 80.4495C45.1042 80.4495 45.6852 80.3805 46.1152 80.2405C46.5452 80.1005 46.8512 79.8585 47.0341 79.5145C47.2171 79.1705 47.3252 78.8745 47.3572 78.6275C47.3892 78.3805 47.4052 77.9985 47.4052 77.4815V76.9655C47.4052 76.0845 47.2222 75.4605 46.8572 75.0945Z" fill="#27FFBB"/>
<path d="M24.798 66.2227H16.25V66.4447H24.798V66.2227Z" fill="#90FFF8"/>
<path d="M41.8892 57.6396C42.0612 57.3606 42.3512 57.1606 42.7602 57.0426C43.1682 56.9246 43.7172 56.8646 44.4052 56.8646C45.0932 56.8646 45.6412 56.9246 46.0502 57.0426C46.4582 57.1606 46.7442 57.3646 46.9052 57.6556C47.0662 57.9456 47.1632 58.2036 47.1952 58.4296C47.2272 58.6556 47.2431 58.9936 47.2431 59.4456V59.2236C47.2431 58.7716 47.2272 58.4336 47.1952 58.2076C47.1632 57.9816 47.0662 57.7236 46.9052 57.4336C46.7442 57.1426 46.4582 56.9386 46.0502 56.8206C45.6412 56.7026 45.0932 56.6426 44.4052 56.6426C43.7172 56.6426 43.1682 56.7026 42.7602 56.8206C42.3512 56.9386 42.0612 57.1376 41.8892 57.4176C41.7172 57.6976 41.6152 57.9496 41.5832 58.1756C41.5512 58.4016 41.5352 58.7396 41.5352 59.1916V59.4136C41.5352 58.9616 41.5512 58.6236 41.5832 58.3976C41.6152 58.1716 41.7172 57.9186 41.8892 57.6396Z" fill="#90FFF8"/>
<path d="M10.8941 57.8645C11.0661 57.5415 11.3561 57.3165 11.7651 57.1875C12.1731 57.0585 12.7221 56.9935 13.4101 56.9935C13.9691 56.9935 14.4311 57.0475 14.7971 57.1555C15.1631 57.2635 15.4431 57.3925 15.6361 57.5425C15.8291 57.6935 15.9751 57.9135 16.0721 58.2045C16.1691 58.4945 16.2221 58.7425 16.2331 58.9465C16.2441 59.1515 16.2491 59.4575 16.2491 59.8655V59.6435C16.2491 59.2355 16.2441 58.9285 16.2331 58.7245C16.2221 58.5205 16.1691 58.2725 16.0721 57.9825C15.9751 57.6915 15.8301 57.4715 15.6361 57.3205C15.4431 57.1705 15.1631 57.0415 14.7971 56.9335C14.4311 56.8265 13.9691 56.7715 13.4101 56.7715C12.7221 56.7715 12.1731 56.8365 11.7651 56.9655C11.3561 57.0945 11.0661 57.3195 10.8941 57.6425C10.7221 57.9655 10.6201 58.2505 10.5881 58.4975C10.5551 58.7455 10.5391 59.1155 10.5391 59.6105V59.8325C10.5391 59.3375 10.5551 58.9675 10.5881 58.7195C10.6201 58.4725 10.7211 58.1875 10.8941 57.8645Z" fill="#90FFF8"/>
<path d="M46.859 75.093C46.386 74.641 45.568 74.416 44.407 74.416C43.698 74.416 43.122 74.492 42.681 74.642C42.24 74.793 41.933 75.035 41.762 75.368C41.59 75.702 41.482 75.997 41.44 76.255C41.397 76.513 41.375 76.89 41.375 77.384C41.375 77.413 41.378 77.435 41.379 77.464C41.383 77.046 41.402 76.707 41.44 76.477C41.482 76.219 41.59 75.924 41.762 75.59C41.934 75.257 42.241 75.015 42.681 74.864C43.121 74.714 43.697 74.638 44.407 74.638C45.568 74.638 46.386 74.864 46.859 75.315C47.224 75.681 47.407 76.304 47.407 77.186V76.964C47.407 76.083 47.224 75.459 46.859 75.093Z" fill="#90FFF8"/>
<path d="M38.6189 57.9825C38.5219 57.6915 38.3769 57.4715 38.1829 57.3205C37.9899 57.1705 37.7099 57.0415 37.3439 56.9335C36.9779 56.8265 36.5159 56.7715 35.9569 56.7715C35.2689 56.7715 34.7199 56.8365 34.3119 56.9655C33.9029 57.0945 33.6129 57.3195 33.4409 57.6425C33.2689 57.9655 33.1669 58.2505 33.1349 58.4975C33.1019 58.7455 33.0859 59.1155 33.0859 59.6105V59.8325C33.0859 59.3375 33.1019 58.9675 33.1349 58.7195C33.1669 58.4725 33.2689 58.1875 33.4409 57.8645C33.6129 57.5415 33.9029 57.3165 34.3119 57.1875C34.7199 57.0585 35.2689 56.9935 35.9569 56.9935C36.5159 56.9935 36.9779 57.0475 37.3439 57.1555C37.7099 57.2635 37.9899 57.3925 38.1829 57.5425C38.3759 57.6935 38.5219 57.9135 38.6189 58.2045C38.7159 58.4945 38.7689 58.7425 38.7799 58.9465C38.7909 59.1515 38.7959 59.4575 38.7959 59.8655V59.6435C38.7959 59.2355 38.7909 58.9285 38.7799 58.7245C38.7689 58.5205 38.7149 58.2725 38.6189 57.9825Z" fill="#90FFF8"/>
<path d="M30.3299 57.9825C30.2329 57.6915 30.0879 57.4715 29.8939 57.3205C29.7009 57.1705 29.4209 57.0415 29.0549 56.9335C28.6889 56.8265 28.2269 56.7715 27.6679 56.7715C26.9799 56.7715 26.4309 56.8365 26.0229 56.9655C25.6139 57.0945 25.3239 57.3195 25.1519 57.6425C24.9799 57.9655 24.8779 58.2505 24.8449 58.4975C24.8129 58.7455 24.7969 59.1155 24.7969 59.6105V59.8325C24.7969 59.3375 24.8129 58.9675 24.8449 58.7195C24.8769 58.4725 24.9789 58.1875 25.1519 57.8645C25.3239 57.5415 25.6139 57.3165 26.0229 57.1875C26.4309 57.0585 26.9799 56.9935 27.6679 56.9935C28.2269 56.9935 28.6889 57.0475 29.0549 57.1555C29.4209 57.2635 29.7009 57.3925 29.8939 57.5425C30.0869 57.6935 30.2329 57.9135 30.3299 58.2045C30.4269 58.4945 30.4799 58.7425 30.4909 58.9465C30.5019 59.1515 30.5069 59.4575 30.5069 59.8655V59.6435C30.5069 59.2355 30.5019 58.9285 30.4909 58.7245C30.4799 58.5205 30.4269 58.2725 30.3299 57.9825Z" fill="#90FFF8"/>
<path d="M274.949 105.465C276.125 105.465 277.078 104.512 277.078 103.336C277.078 102.16 276.125 101.207 274.949 101.207C273.773 101.207 272.82 102.16 272.82 103.336C272.82 104.512 273.773 105.465 274.949 105.465Z" fill="#6CFFE6"/>
<path d="M274.948 101.301C276.108 101.301 277.047 102.229 277.073 103.383C277.073 103.367 277.078 103.352 277.078 103.336C277.078 102.16 276.125 101.207 274.949 101.207C273.773 101.207 272.82 102.16 272.82 103.336C272.82 103.352 272.824 103.367 272.825 103.383C272.849 102.23 273.788 101.301 274.948 101.301Z" fill="#ABFFFA"/>
<path d="M274.952 105.988C273.462 105.988 272.242 107.207 272.242 108.698V111.529C273.064 111.921 273.98 112.147 274.952 112.147C275.923 112.147 276.84 111.921 277.662 111.529V108.698C277.662 107.207 276.443 105.988 274.952 105.988Z" fill="#6CFFE6"/>
<path d="M274.952 105.988C273.462 105.988 272.242 107.207 272.242 108.698V108.854C272.242 107.364 273.461 106.144 274.952 106.144C276.443 106.144 277.662 107.363 277.662 108.854V108.698C277.662 107.207 276.443 105.988 274.952 105.988Z" fill="#B8FFFF"/>
<path d="M277.662 111.527V110.564C275.404 113.297 273.033 111.563 272.242 110.838V111.526C273.064 111.918 273.98 112.144 274.952 112.144C275.924 112.145 276.84 111.919 277.662 111.527Z" fill="#50DCE6"/>
<path d="M274.949 130.401C276.125 130.401 277.078 129.447 277.078 128.272C277.078 127.096 276.125 126.143 274.949 126.143C273.773 126.143 272.82 127.096 272.82 128.272C272.82 129.447 273.773 130.401 274.949 130.401Z" fill="#FF5195"/>
<path d="M274.948 126.239C276.108 126.239 277.047 127.167 277.073 128.321C277.073 128.305 277.078 128.29 277.078 128.274C277.078 127.098 276.125 126.145 274.949 126.145C273.773 126.145 272.82 127.098 272.82 128.274C272.82 128.29 272.824 128.305 272.825 128.321C272.849 127.167 273.788 126.239 274.948 126.239Z" fill="#FF82A6"/>
<path d="M274.952 130.924C273.462 130.924 272.242 132.143 272.242 133.634V136.465C273.064 136.857 273.98 137.083 274.952 137.083C275.923 137.083 276.84 136.857 277.662 136.465V133.634C277.662 132.144 276.443 130.924 274.952 130.924Z" fill="#FF5195"/>
<path d="M274.952 130.924C273.462 130.924 272.242 132.143 272.242 133.634V133.79C272.242 132.3 273.461 131.08 274.952 131.08C276.443 131.08 277.662 132.299 277.662 133.79V133.634C277.662 132.144 276.443 130.924 274.952 130.924Z" fill="#FF82A6"/>
<path d="M277.662 136.465V135.502C275.404 138.235 273.033 136.501 272.242 135.776V136.464C273.064 136.856 273.98 137.082 274.952 137.082C275.924 137.083 276.84 136.857 277.662 136.465Z" fill="#FF3E77"/>
<path d="M274.949 155.572C276.125 155.572 277.078 154.619 277.078 153.443C277.078 152.268 276.125 151.314 274.949 151.314C273.773 151.314 272.82 152.268 272.82 153.443C272.82 154.619 273.773 155.572 274.949 155.572Z" fill="#FFEA5D"/>
<path d="M274.948 151.41C276.108 151.41 277.047 152.338 277.073 153.492C277.073 153.476 277.078 153.461 277.078 153.445C277.078 152.269 276.125 151.316 274.949 151.316C273.773 151.316 272.82 152.269 272.82 153.445C272.82 153.461 272.824 153.476 272.825 153.492C272.849 152.338 273.788 151.41 274.948 151.41Z" fill="#FFFFA3"/>
<path d="M274.952 156.096C273.462 156.096 272.242 157.315 272.242 158.806V161.637C273.064 162.029 273.98 162.255 274.952 162.255C275.923 162.255 276.84 162.029 277.662 161.637V158.806C277.662 157.316 276.443 156.096 274.952 156.096Z" fill="#FFEA5D"/>
<path d="M274.952 156.096C273.462 156.096 272.242 157.315 272.242 158.806V158.962C272.242 157.472 273.461 156.252 274.952 156.252C276.443 156.252 277.662 157.471 277.662 158.962V158.806C277.662 157.316 276.443 156.096 274.952 156.096Z" fill="#FFFFA3"/>
<path d="M277.662 161.637V160.674C275.404 163.407 273.033 161.673 272.242 160.948V161.636C273.064 162.028 273.98 162.254 274.952 162.254C275.924 162.255 276.84 162.029 277.662 161.637Z" fill="#FFC349"/>
</g>
</svg>
