<svg width="700" height="561" viewBox="0 0 700 561" fill="none" xmlns="http://www.w3.org/2000/svg">
<path d="M700 465.359H0V465.709H700V465.359Z" fill="#EBEBEB"/>
<path d="M629.863 487.893H583.492V488.243H629.863V487.893Z" fill="#EBEBEB"/>
<path d="M463.709 491.691H451.539V492.041H463.709V491.691Z" fill="#EBEBEB"/>
<path d="M582.088 474.891H555.219V475.241H582.088V474.891Z" fill="#EBEBEB"/>
<path d="M133.908 477.244H73.4375V477.594H133.908V477.244Z" fill="#EBEBEB"/>
<path d="M155.241 477.244H146.375V477.594H155.241V477.244Z" fill="#EBEBEB"/>
<path d="M315.209 483.156H184.062V483.506H315.209V483.156Z" fill="#EBEBEB"/>
<path d="M331.814 402.921H61.4756C57.0698 402.921 53.4844 399.335 53.4844 394.93V14.9248C53.4844 10.519 57.0698 6.93359 61.4756 6.93359H331.814C336.219 6.93359 339.804 10.519 339.804 14.9248V394.93C339.804 399.335 336.219 402.921 331.814 402.921ZM61.4756 7.28499C57.2616 7.28499 53.8344 10.7122 53.8344 14.9262V394.931C53.8344 399.145 57.2616 402.572 61.4756 402.572H331.814C336.027 402.572 339.454 399.145 339.454 394.931V14.9248C339.454 10.7122 336.027 7.28359 331.814 7.28359L61.4756 7.28499Z" fill="#EBEBEB"/>
<path d="M634.639 402.921H364.302C359.897 402.921 356.312 399.335 356.312 394.93V14.9248C356.312 10.519 359.898 6.93359 364.302 6.93359H634.639C639.047 6.93359 642.631 10.519 642.631 14.9248V394.93C642.632 399.335 639.047 402.921 634.639 402.921ZM364.302 7.28499C360.09 7.28499 356.662 10.7122 356.662 14.9262V394.931C356.662 399.145 360.09 402.572 364.302 402.572H634.639C638.853 402.572 642.281 399.145 642.281 394.931V14.9248C642.281 10.7122 638.853 7.28359 634.639 7.28359L364.302 7.28499Z" fill="#EBEBEB"/>
<path d="M613.032 464.442V398.892H607.428V367.661H599.235V259.069H587.391V245.056L562.103 233.263V219.134H558.6V259.069H553.696V367.661H548.791V310.562H535.48V281.137H531.766V367.661H521.655V334.733H515V326.326H499.587V297.601H491.146V277.284H480.771V247.684H477.068V277.284H466.693V297.601H458.252V326.326H442.838V334.733H436.182V367.661H428.289V326.326H412.875V237.349H407.971V227.541H375.043V237.349H368.037V301.805H340.014V308.109H329.505V313.015H340.014V338.236H310.588V254.165H304.283V236.299H290.622V172.895H286.769V236.299H276.96V254.165H219.458V248.283H215.954V288.218H211.05V288.918H208.104V328.852H203.2V339.712H192.834V310.286H189.12V380.347H184.985V350.921H181.27V396.811H179.011V363.883H172.355V355.476H156.941V326.75H148.501V306.434H138.125V276.833H134.422V306.434H124.047V326.75H115.606V355.476H100.194V363.883H93.5381V396.109H92.3425V396.811H89.0469V464.442H613.032Z" fill="#E6E6E6"/>
<path d="M255.517 258.094H251.547V262.064H255.517V258.094Z" fill="#F0F0F0"/>
<path d="M255.517 264.75H251.547V268.72H255.517V264.75Z" fill="#F0F0F0"/>
<path d="M255.517 291.373H251.547V295.343H255.517V291.373Z" fill="#F0F0F0"/>
<path d="M255.517 298.027H251.547V301.998H255.517V298.027Z" fill="#F0F0F0"/>
<path d="M255.517 304.684H251.547V308.654H255.517V304.684Z" fill="#F0F0F0"/>
<path d="M255.517 324.65H251.547V328.621H255.517V324.65Z" fill="#F0F0F0"/>
<path d="M255.517 331.307H251.547V335.277H255.517V331.307Z" fill="#F0F0F0"/>
<path d="M261.822 284.717H257.852V288.687H261.822V284.717Z" fill="#F0F0F0"/>
<path d="M261.822 291.373H257.852V295.343H261.822V291.373Z" fill="#F0F0F0"/>
<path d="M261.822 298.027H257.852V301.998H261.822V298.027Z" fill="#F0F0F0"/>
<path d="M261.822 304.684H257.852V308.654H261.822V304.684Z" fill="#F0F0F0"/>
<path d="M261.822 311.34H257.852V315.31H261.822V311.34Z" fill="#F0F0F0"/>
<path d="M261.822 324.65H257.852V328.621H261.822V324.65Z" fill="#F0F0F0"/>
<path d="M261.822 331.307H257.852V335.277H261.822V331.307Z" fill="#F0F0F0"/>
<path d="M268.127 258.094H264.156V262.064H268.127V258.094Z" fill="#F0F0F0"/>
<path d="M268.127 264.75H264.156V268.72H268.127V264.75Z" fill="#F0F0F0"/>
<path d="M268.127 271.406H264.156V275.377H268.127V271.406Z" fill="#F0F0F0"/>
<path d="M268.127 278.061H264.156V282.031H268.127V278.061Z" fill="#F0F0F0"/>
<path d="M268.127 284.717H264.156V288.687H268.127V284.717Z" fill="#F0F0F0"/>
<path d="M268.127 291.373H264.156V295.343H268.127V291.373Z" fill="#F0F0F0"/>
<path d="M268.127 298.027H264.156V301.998H268.127V298.027Z" fill="#F0F0F0"/>
<path d="M268.127 304.684H264.156V308.654H268.127V304.684Z" fill="#F0F0F0"/>
<path d="M268.127 311.34H264.156V315.31H268.127V311.34Z" fill="#F0F0F0"/>
<path d="M268.127 317.994H264.156V321.965H268.127V317.994Z" fill="#F0F0F0"/>
<path d="M268.127 331.307H264.156V335.277H268.127V331.307Z" fill="#F0F0F0"/>
<path d="M274.431 258.094H270.461V262.064H274.431V258.094Z" fill="#F0F0F0"/>
<path d="M274.431 264.75H270.461V268.72H274.431V264.75Z" fill="#F0F0F0"/>
<path d="M274.431 271.406H270.461V275.377H274.431V271.406Z" fill="#F0F0F0"/>
<path d="M274.431 278.061H270.461V282.031H274.431V278.061Z" fill="#F0F0F0"/>
<path d="M274.431 284.717H270.461V288.687H274.431V284.717Z" fill="#F0F0F0"/>
<path d="M274.431 291.373H270.461V295.343H274.431V291.373Z" fill="#F0F0F0"/>
<path d="M274.431 298.027H270.461V301.998H274.431V298.027Z" fill="#F0F0F0"/>
<path d="M274.431 357.928H270.461V361.898H274.431V357.928Z" fill="#F0F0F0"/>
<path d="M280.736 258.094H276.766V262.064H280.736V258.094Z" fill="#F0F0F0"/>
<path d="M280.736 264.75H276.766V268.72H280.736V264.75Z" fill="#F0F0F0"/>
<path d="M280.736 271.406H276.766V275.377H280.736V271.406Z" fill="#F0F0F0"/>
<path d="M280.736 278.061H276.766V282.031H280.736V278.061Z" fill="#F0F0F0"/>
<path d="M280.736 284.717H276.766V288.687H280.736V284.717Z" fill="#F0F0F0"/>
<path d="M280.736 291.371H276.766V295.341H280.736V291.371Z" fill="#F0F0F0"/>
<path d="M280.736 298.027H276.766V301.998H280.736V298.027Z" fill="#F0F0F0"/>
<path d="M280.736 304.684H276.766V308.654H280.736V304.684Z" fill="#F0F0F0"/>
<path d="M280.736 344.617H276.766V348.588H280.736V344.617Z" fill="#F0F0F0"/>
<path d="M280.736 351.273H276.766V355.244H280.736V351.273Z" fill="#F0F0F0"/>
<path d="M280.736 357.928H276.766V361.898H280.736V357.928Z" fill="#F0F0F0"/>
<path d="M280.736 364.586H276.766V368.556H280.736V364.586Z" fill="#F0F0F0"/>
<path d="M280.736 391.207H276.766V395.177H280.736V391.207Z" fill="#F0F0F0"/>
<path d="M287.049 258.094H283.078V262.064H287.049V258.094Z" fill="#F0F0F0"/>
<path d="M287.049 264.75H283.078V268.72H287.049V264.75Z" fill="#F0F0F0"/>
<path d="M287.049 271.406H283.078V275.377H287.049V271.406Z" fill="#F0F0F0"/>
<path d="M287.049 278.061H283.078V282.031H287.049V278.061Z" fill="#F0F0F0"/>
<path d="M287.049 284.717H283.078V288.687H287.049V284.717Z" fill="#F0F0F0"/>
<path d="M287.049 291.371H283.078V295.341H287.049V291.371Z" fill="#F0F0F0"/>
<path d="M287.049 298.027H283.078V301.998H287.049V298.027Z" fill="#F0F0F0"/>
<path d="M287.049 304.684H283.078V308.654H287.049V304.684Z" fill="#F0F0F0"/>
<path d="M287.049 311.34H283.078V315.31H287.049V311.34Z" fill="#F0F0F0"/>
<path d="M287.049 317.994H283.078V321.965H287.049V317.994Z" fill="#F0F0F0"/>
<path d="M287.049 337.961H283.078V341.931H287.049V337.961Z" fill="#F0F0F0"/>
<path d="M287.049 344.617H283.078V348.588H287.049V344.617Z" fill="#F0F0F0"/>
<path d="M287.049 351.273H283.078V355.244H287.049V351.273Z" fill="#F0F0F0"/>
<path d="M287.049 357.928H283.078V361.898H287.049V357.928Z" fill="#F0F0F0"/>
<path d="M287.049 364.586H283.078V368.556H287.049V364.586Z" fill="#F0F0F0"/>
<path d="M287.049 391.207H283.078V395.177H287.049V391.207Z" fill="#F0F0F0"/>
<path d="M293.345 258.094H289.375V262.064H293.345V258.094Z" fill="#F0F0F0"/>
<path d="M293.345 264.75H289.375V268.72H293.345V264.75Z" fill="#F0F0F0"/>
<path d="M293.345 271.406H289.375V275.377H293.345V271.406Z" fill="#F0F0F0"/>
<path d="M293.345 278.061H289.375V282.031H293.345V278.061Z" fill="#F0F0F0"/>
<path d="M293.345 284.717H289.375V288.687H293.345V284.717Z" fill="#F0F0F0"/>
<path d="M293.345 291.371H289.375V295.341H293.345V291.371Z" fill="#F0F0F0"/>
<path d="M293.345 298.027H289.375V301.998H293.345V298.027Z" fill="#F0F0F0"/>
<path d="M293.345 304.684H289.375V308.654H293.345V304.684Z" fill="#F0F0F0"/>
<path d="M293.345 311.34H289.375V315.31H293.345V311.34Z" fill="#F0F0F0"/>
<path d="M293.345 317.994H289.375V321.965H293.345V317.994Z" fill="#F0F0F0"/>
<path d="M293.345 324.65H289.375V328.621H293.345V324.65Z" fill="#F0F0F0"/>
<path d="M293.345 331.305H289.375V335.275H293.345V331.305Z" fill="#F0F0F0"/>
<path d="M293.345 337.961H289.375V341.931H293.345V337.961Z" fill="#F0F0F0"/>
<path d="M293.345 344.617H289.375V348.588H293.345V344.617Z" fill="#F0F0F0"/>
<path d="M293.345 351.273H289.375V355.244H293.345V351.273Z" fill="#F0F0F0"/>
<path d="M293.345 357.928H289.375V361.898H293.345V357.928Z" fill="#F0F0F0"/>
<path d="M293.345 364.586H289.375V368.556H293.345V364.586Z" fill="#F0F0F0"/>
<path d="M293.345 371.24H289.375V375.211H293.345V371.24Z" fill="#F0F0F0"/>
<path d="M299.658 258.094H295.688V262.064H299.658V258.094Z" fill="#F0F0F0"/>
<path d="M299.658 264.75H295.688V268.72H299.658V264.75Z" fill="#F0F0F0"/>
<path d="M299.658 271.406H295.688V275.377H299.658V271.406Z" fill="#F0F0F0"/>
<path d="M299.658 278.061H295.688V282.031H299.658V278.061Z" fill="#F0F0F0"/>
<path d="M299.658 284.717H295.688V288.687H299.658V284.717Z" fill="#F0F0F0"/>
<path d="M299.658 291.371H295.688V295.341H299.658V291.371Z" fill="#F0F0F0"/>
<path d="M299.658 298.027H295.688V301.998H299.658V298.027Z" fill="#F0F0F0"/>
<path d="M299.658 304.684H295.688V308.654H299.658V304.684Z" fill="#F0F0F0"/>
<path d="M299.658 311.34H295.688V315.31H299.658V311.34Z" fill="#F0F0F0"/>
<path d="M299.658 317.994H295.688V321.965H299.658V317.994Z" fill="#F0F0F0"/>
<path d="M299.658 337.961H295.688V341.931H299.658V337.961Z" fill="#F0F0F0"/>
<path d="M299.658 344.617H295.688V348.588H299.658V344.617Z" fill="#F0F0F0"/>
<path d="M299.658 351.273H295.688V355.244H299.658V351.273Z" fill="#F0F0F0"/>
<path d="M299.658 357.928H295.688V361.898H299.658V357.928Z" fill="#F0F0F0"/>
<path d="M305.955 258.094H301.984V262.064H305.955V258.094Z" fill="#F0F0F0"/>
<path d="M305.955 264.75H301.984V268.72H305.955V264.75Z" fill="#F0F0F0"/>
<path d="M305.955 271.406H301.984V275.377H305.955V271.406Z" fill="#F0F0F0"/>
<path d="M305.955 278.061H301.984V282.031H305.955V278.061Z" fill="#F0F0F0"/>
<path d="M305.955 284.717H301.984V288.687H305.955V284.717Z" fill="#F0F0F0"/>
<path d="M305.955 291.371H301.984V295.341H305.955V291.371Z" fill="#F0F0F0"/>
<path d="M305.955 298.027H301.984V301.998H305.955V298.027Z" fill="#F0F0F0"/>
<path d="M305.955 304.684H301.984V308.654H305.955V304.684Z" fill="#F0F0F0"/>
<path d="M305.955 311.34H301.984V315.31H305.955V311.34Z" fill="#F0F0F0"/>
<path d="M305.955 317.994H301.984V321.965H305.955V317.994Z" fill="#F0F0F0"/>
<path d="M305.955 337.961H301.984V341.931H305.955V337.961Z" fill="#F0F0F0"/>
<path d="M305.955 344.617H301.984V348.588H305.955V344.617Z" fill="#F0F0F0"/>
<path d="M305.955 351.273H301.984V355.244H305.955V351.273Z" fill="#F0F0F0"/>
<path d="M376.955 240.812H372.984V244.783H376.955V240.812Z" fill="#F0F0F0"/>
<path d="M376.955 247.469H372.984V251.439H376.955V247.469Z" fill="#F0F0F0"/>
<path d="M376.955 254.123H372.984V258.093H376.955V254.123Z" fill="#F0F0F0"/>
<path d="M376.955 260.779H372.984V264.75H376.955V260.779Z" fill="#F0F0F0"/>
<path d="M376.955 267.436H372.984V271.406H376.955V267.436Z" fill="#F0F0F0"/>
<path d="M376.955 274.09H372.984V278.06H376.955V274.09Z" fill="#F0F0F0"/>
<path d="M376.955 280.746H372.984V284.716H376.955V280.746Z" fill="#F0F0F0"/>
<path d="M376.955 287.402H372.984V291.373H376.955V287.402Z" fill="#F0F0F0"/>
<path d="M376.955 307.369H372.984V311.34H376.955V307.369Z" fill="#F0F0F0"/>
<path d="M376.955 314.023H372.984V317.994H376.955V314.023Z" fill="#F0F0F0"/>
<path d="M383.259 240.812H379.289V244.783H383.259V240.812Z" fill="#F0F0F0"/>
<path d="M383.259 247.469H379.289V251.439H383.259V247.469Z" fill="#F0F0F0"/>
<path d="M383.259 254.123H379.289V258.093H383.259V254.123Z" fill="#F0F0F0"/>
<path d="M383.259 260.779H379.289V264.75H383.259V260.779Z" fill="#F0F0F0"/>
<path d="M383.259 267.436H379.289V271.406H383.259V267.436Z" fill="#F0F0F0"/>
<path d="M383.259 274.09H379.289V278.06H383.259V274.09Z" fill="#F0F0F0"/>
<path d="M383.259 280.746H379.289V284.716H383.259V280.746Z" fill="#F0F0F0"/>
<path d="M383.259 287.402H379.289V291.373H383.259V287.402Z" fill="#F0F0F0"/>
<path d="M383.259 314.023H379.289V317.994H383.259V314.023Z" fill="#F0F0F0"/>
<path d="M389.564 240.812H385.594V244.783H389.564V240.812Z" fill="#F0F0F0"/>
<path d="M389.564 247.469H385.594V251.439H389.564V247.469Z" fill="#F0F0F0"/>
<path d="M389.564 254.123H385.594V258.093H389.564V254.123Z" fill="#F0F0F0"/>
<path d="M389.564 260.779H385.594V264.75H389.564V260.779Z" fill="#F0F0F0"/>
<path d="M389.564 267.436H385.594V271.406H389.564V267.436Z" fill="#F0F0F0"/>
<path d="M389.564 274.09H385.594V278.06H389.564V274.09Z" fill="#F0F0F0"/>
<path d="M389.564 280.746H385.594V284.716H389.564V280.746Z" fill="#F0F0F0"/>
<path d="M389.564 287.402H385.594V291.373H389.564V287.402Z" fill="#F0F0F0"/>
<path d="M395.869 240.812H391.898V244.783H395.869V240.812Z" fill="#F0F0F0"/>
<path d="M395.869 247.469H391.898V251.439H395.869V247.469Z" fill="#F0F0F0"/>
<path d="M395.869 254.123H391.898V258.093H395.869V254.123Z" fill="#F0F0F0"/>
<path d="M395.869 260.779H391.898V264.75H395.869V260.779Z" fill="#F0F0F0"/>
<path d="M395.869 267.436H391.898V271.406H395.869V267.436Z" fill="#F0F0F0"/>
<path d="M395.869 274.09H391.898V278.06H395.869V274.09Z" fill="#F0F0F0"/>
<path d="M395.869 287.402H391.898V291.373H395.869V287.402Z" fill="#F0F0F0"/>
<path d="M395.869 294.057H391.898V298.027H395.869V294.057Z" fill="#F0F0F0"/>
<path d="M395.869 314.023H391.898V317.994H395.869V314.023Z" fill="#F0F0F0"/>
<path d="M395.869 320.68H391.898V324.65H395.869V320.68Z" fill="#F0F0F0"/>
<path d="M395.869 327.336H391.898V331.306H395.869V327.336Z" fill="#F0F0F0"/>
<path d="M395.869 333.992H391.898V337.963H395.869V333.992Z" fill="#F0F0F0"/>
<path d="M395.869 340.648H391.898V344.619H395.869V340.648Z" fill="#F0F0F0"/>
<path d="M395.869 347.303H391.898V351.273H395.869V347.303Z" fill="#F0F0F0"/>
<path d="M395.869 353.959H391.898V357.929H395.869V353.959Z" fill="#F0F0F0"/>
<path d="M402.174 240.812H398.203V244.783H402.174V240.812Z" fill="#F0F0F0"/>
<path d="M402.174 247.469H398.203V251.439H402.174V247.469Z" fill="#F0F0F0"/>
<path d="M402.174 254.123H398.203V258.093H402.174V254.123Z" fill="#F0F0F0"/>
<path d="M402.174 260.779H398.203V264.75H402.174V260.779Z" fill="#F0F0F0"/>
<path d="M402.174 267.436H398.203V271.406H402.174V267.436Z" fill="#F0F0F0"/>
<path d="M402.174 274.09H398.203V278.06H402.174V274.09Z" fill="#F0F0F0"/>
<path d="M402.174 294.057H398.203V298.027H402.174V294.057Z" fill="#F0F0F0"/>
<path d="M402.174 300.713H398.203V304.683H402.174V300.713Z" fill="#F0F0F0"/>
<path d="M402.174 307.369H398.203V311.34H402.174V307.369Z" fill="#F0F0F0"/>
<path d="M402.174 314.023H398.203V317.994H402.174V314.023Z" fill="#F0F0F0"/>
<path d="M402.174 320.68H398.203V324.65H402.174V320.68Z" fill="#F0F0F0"/>
<path d="M402.174 327.336H398.203V331.306H402.174V327.336Z" fill="#F0F0F0"/>
<path d="M402.174 333.992H398.203V337.963H402.174V333.992Z" fill="#F0F0F0"/>
<path d="M402.174 340.648H398.203V344.619H402.174V340.648Z" fill="#F0F0F0"/>
<path d="M402.174 347.305H398.203V351.275H402.174V347.305Z" fill="#F0F0F0"/>
<path d="M402.174 353.959H398.203V357.929H402.174V353.959Z" fill="#F0F0F0"/>
<path d="M402.174 360.615H398.203V364.586H402.174V360.615Z" fill="#F0F0F0"/>
<path d="M402.174 373.926H398.203V377.896H402.174V373.926Z" fill="#F0F0F0"/>
<path d="M408.478 240.812H404.508V244.783H408.478V240.812Z" fill="#F0F0F0"/>
<path d="M408.478 247.469H404.508V251.439H408.478V247.469Z" fill="#F0F0F0"/>
<path d="M408.478 254.123H404.508V258.093H408.478V254.123Z" fill="#F0F0F0"/>
<path d="M408.478 260.779H404.508V264.75H408.478V260.779Z" fill="#F0F0F0"/>
<path d="M408.478 267.436H404.508V271.406H408.478V267.436Z" fill="#F0F0F0"/>
<path d="M408.478 274.09H404.508V278.06H408.478V274.09Z" fill="#F0F0F0"/>
<path d="M408.478 294.057H404.508V298.027H408.478V294.057Z" fill="#F0F0F0"/>
<path d="M408.478 300.713H404.508V304.683H408.478V300.713Z" fill="#F0F0F0"/>
<path d="M408.478 307.369H404.508V311.34H408.478V307.369Z" fill="#F0F0F0"/>
<path d="M408.478 314.023H404.508V317.994H408.478V314.023Z" fill="#F0F0F0"/>
<path d="M408.478 333.992H404.508V337.963H408.478V333.992Z" fill="#F0F0F0"/>
<path d="M408.478 340.648H404.508V344.619H408.478V340.648Z" fill="#F0F0F0"/>
<path d="M408.478 347.303H404.508V351.273H408.478V347.303Z" fill="#F0F0F0"/>
<path d="M408.478 353.959H404.508V357.929H408.478V353.959Z" fill="#F0F0F0"/>
<path d="M408.478 360.615H404.508V364.586H408.478V360.615Z" fill="#F0F0F0"/>
<path d="M408.478 373.926H404.508V377.896H408.478V373.926Z" fill="#F0F0F0"/>
<path d="M408.478 380.582H404.508V384.552H408.478V380.582Z" fill="#F0F0F0"/>
<path d="M465.697 302.697H461.727V306.668H465.697V302.697Z" fill="#F0F0F0"/>
<path d="M465.697 309.354H461.727V313.324H465.697V309.354Z" fill="#F0F0F0"/>
<path d="M465.697 316.01H461.727V319.98H465.697V316.01Z" fill="#F0F0F0"/>
<path d="M465.697 322.664H461.727V326.634H465.697V322.664Z" fill="#F0F0F0"/>
<path d="M465.697 329.32H461.727V333.291H465.697V329.32Z" fill="#F0F0F0"/>
<path d="M465.697 335.977H461.727V339.947H465.697V335.977Z" fill="#F0F0F0"/>
<path d="M465.697 342.633H461.727V346.603H465.697V342.633Z" fill="#F0F0F0"/>
<path d="M465.697 362.6H461.727V366.57H465.697V362.6Z" fill="#F0F0F0"/>
<path d="M465.697 369.256H461.727V373.226H465.697V369.256Z" fill="#F0F0F0"/>
<path d="M465.697 375.91H461.727V379.881H465.697V375.91Z" fill="#F0F0F0"/>
<path d="M472.002 302.697H468.031V306.668H472.002V302.697Z" fill="#F0F0F0"/>
<path d="M472.002 309.354H468.031V313.324H472.002V309.354Z" fill="#F0F0F0"/>
<path d="M472.002 316.01H468.031V319.98H472.002V316.01Z" fill="#F0F0F0"/>
<path d="M472.002 322.664H468.031V326.634H472.002V322.664Z" fill="#F0F0F0"/>
<path d="M472.002 329.32H468.031V333.291H472.002V329.32Z" fill="#F0F0F0"/>
<path d="M472.002 335.977H468.031V339.947H472.002V335.977Z" fill="#F0F0F0"/>
<path d="M472.002 342.633H468.031V346.603H472.002V342.633Z" fill="#F0F0F0"/>
<path d="M478.306 302.697H474.336V306.668H478.306V302.697Z" fill="#F0F0F0"/>
<path d="M478.306 309.354H474.336V313.324H478.306V309.354Z" fill="#F0F0F0"/>
<path d="M478.306 316.01H474.336V319.98H478.306V316.01Z" fill="#F0F0F0"/>
<path d="M478.306 322.664H474.336V326.634H478.306V322.664Z" fill="#F0F0F0"/>
<path d="M478.306 329.32H474.336V333.291H478.306V329.32Z" fill="#F0F0F0"/>
<path d="M478.306 335.977H474.336V339.947H478.306V335.977Z" fill="#F0F0F0"/>
<path d="M478.306 342.633H474.336V346.603H478.306V342.633Z" fill="#F0F0F0"/>
<path d="M484.611 302.697H480.641V306.668H484.611V302.697Z" fill="#F0F0F0"/>
<path d="M484.611 309.354H480.641V313.324H484.611V309.354Z" fill="#F0F0F0"/>
<path d="M484.611 316.01H480.641V319.98H484.611V316.01Z" fill="#F0F0F0"/>
<path d="M484.611 322.664H480.641V326.634H484.611V322.664Z" fill="#F0F0F0"/>
<path d="M484.611 329.32H480.641V333.291H484.611V329.32Z" fill="#F0F0F0"/>
<path d="M484.611 335.977H480.641V339.947H484.611V335.977Z" fill="#F0F0F0"/>
<path d="M484.611 342.633H480.641V346.603H484.611V342.633Z" fill="#F0F0F0"/>
<path d="M484.611 349.289H480.641V353.259H484.611V349.289Z" fill="#F0F0F0"/>
<path d="M484.611 355.943H480.641V359.914H484.611V355.943Z" fill="#F0F0F0"/>
<path d="M484.611 362.6H480.641V366.57H484.611V362.6Z" fill="#F0F0F0"/>
<path d="M484.611 369.256H480.641V373.226H484.611V369.256Z" fill="#F0F0F0"/>
<path d="M490.916 302.697H486.945V306.668H490.916V302.697Z" fill="#F0F0F0"/>
<path d="M490.916 309.354H486.945V313.324H490.916V309.354Z" fill="#F0F0F0"/>
<path d="M490.916 316.01H486.945V319.98H490.916V316.01Z" fill="#F0F0F0"/>
<path d="M490.916 322.664H486.945V326.634H490.916V322.664Z" fill="#F0F0F0"/>
<path d="M490.916 329.32H486.945V333.291H490.916V329.32Z" fill="#F0F0F0"/>
<path d="M490.916 335.977H486.945V339.947H490.916V335.977Z" fill="#F0F0F0"/>
<path d="M490.916 342.633H486.945V346.603H490.916V342.633Z" fill="#F0F0F0"/>
<path d="M490.916 349.289H486.945V353.259H490.916V349.289Z" fill="#F0F0F0"/>
<path d="M490.916 355.943H486.945V359.914H490.916V355.943Z" fill="#F0F0F0"/>
<path d="M490.916 362.6H486.945V366.57H490.916V362.6Z" fill="#F0F0F0"/>
<path d="M490.916 369.256H486.945V373.226H490.916V369.256Z" fill="#F0F0F0"/>
<path d="M490.916 375.91H486.945V379.881H490.916V375.91Z" fill="#F0F0F0"/>
<path d="M490.916 395.879H486.945V399.849H490.916V395.879Z" fill="#F0F0F0"/>
<path d="M490.916 402.533H486.945V406.504H490.916V402.533Z" fill="#F0F0F0"/>
<path d="M497.22 302.699H493.25V306.67H497.22V302.699Z" fill="#F0F0F0"/>
<path d="M497.22 309.354H493.25V313.324H497.22V309.354Z" fill="#F0F0F0"/>
<path d="M497.22 316.01H493.25V319.98H497.22V316.01Z" fill="#F0F0F0"/>
<path d="M497.22 335.977H493.25V339.947H497.22V335.977Z" fill="#F0F0F0"/>
<path d="M497.22 342.633H493.25V346.603H497.22V342.633Z" fill="#F0F0F0"/>
<path d="M497.22 349.289H493.25V353.259H497.22V349.289Z" fill="#F0F0F0"/>
<path d="M497.22 355.945H493.25V359.916H497.22V355.945Z" fill="#F0F0F0"/>
<path d="M497.22 362.6H493.25V366.57H497.22V362.6Z" fill="#F0F0F0"/>
<path d="M497.22 369.256H493.25V373.226H497.22V369.256Z" fill="#F0F0F0"/>
<path d="M497.22 375.91H493.25V379.881H497.22V375.91Z" fill="#F0F0F0"/>
<path d="M497.22 395.879H493.25V399.849H497.22V395.879Z" fill="#F0F0F0"/>
<path d="M497.22 402.533H493.25V406.504H497.22V402.533Z" fill="#F0F0F0"/>
<path d="M497.22 409.189H493.25V413.16H497.22V409.189Z" fill="#F0F0F0"/>
<path d="M563.314 262.764H559.344V266.734H563.314V262.764Z" fill="#F0F0F0"/>
<path d="M563.314 269.42H559.344V273.39H563.314V269.42Z" fill="#F0F0F0"/>
<path d="M563.314 276.076H559.344V280.047H563.314V276.076Z" fill="#F0F0F0"/>
<path d="M563.314 282.73H559.344V286.701H563.314V282.73Z" fill="#F0F0F0"/>
<path d="M563.314 289.387H559.344V293.357H563.314V289.387Z" fill="#F0F0F0"/>
<path d="M563.314 296.043H559.344V300.013H563.314V296.043Z" fill="#F0F0F0"/>
<path d="M563.314 302.697H559.344V306.668H563.314V302.697Z" fill="#F0F0F0"/>
<path d="M563.314 309.354H559.344V313.324H563.314V309.354Z" fill="#F0F0F0"/>
<path d="M563.314 316.01H559.344V319.98H563.314V316.01Z" fill="#F0F0F0"/>
<path d="M563.314 322.664H559.344V326.634H563.314V322.664Z" fill="#F0F0F0"/>
<path d="M563.314 329.32H559.344V333.291H563.314V329.32Z" fill="#F0F0F0"/>
<path d="M563.314 335.977H559.344V339.947H563.314V335.977Z" fill="#F0F0F0"/>
<path d="M563.314 342.633H559.344V346.603H563.314V342.633Z" fill="#F0F0F0"/>
<path d="M563.314 349.289H559.344V353.259H563.314V349.289Z" fill="#F0F0F0"/>
<path d="M563.314 355.943H559.344V359.914H563.314V355.943Z" fill="#F0F0F0"/>
<path d="M563.314 362.6H559.344V366.57H563.314V362.6Z" fill="#F0F0F0"/>
<path d="M563.314 369.256H559.344V373.226H563.314V369.256Z" fill="#F0F0F0"/>
<path d="M563.314 375.91H559.344V379.881H563.314V375.91Z" fill="#F0F0F0"/>
<path d="M563.314 382.566H559.344V386.537H563.314V382.566Z" fill="#F0F0F0"/>
<path d="M563.314 389.223H559.344V393.193H563.314V389.223Z" fill="#F0F0F0"/>
<path d="M563.314 395.879H559.344V399.849H563.314V395.879Z" fill="#F0F0F0"/>
<path d="M563.314 402.533H559.344V406.504H563.314V402.533Z" fill="#F0F0F0"/>
<path d="M563.314 409.189H559.344V413.16H563.314V409.189Z" fill="#F0F0F0"/>
<path d="M569.619 262.764H565.648V266.734H569.619V262.764Z" fill="#F0F0F0"/>
<path d="M569.619 269.42H565.648V273.39H569.619V269.42Z" fill="#F0F0F0"/>
<path d="M569.619 276.076H565.648V280.047H569.619V276.076Z" fill="#F0F0F0"/>
<path d="M569.619 282.73H565.648V286.701H569.619V282.73Z" fill="#F0F0F0"/>
<path d="M569.619 289.387H565.648V293.357H569.619V289.387Z" fill="#F0F0F0"/>
<path d="M569.619 296.043H565.648V300.013H569.619V296.043Z" fill="#F0F0F0"/>
<path d="M569.619 302.697H565.648V306.668H569.619V302.697Z" fill="#F0F0F0"/>
<path d="M569.619 309.354H565.648V313.324H569.619V309.354Z" fill="#F0F0F0"/>
<path d="M569.619 316.01H565.648V319.98H569.619V316.01Z" fill="#F0F0F0"/>
<path d="M569.619 322.664H565.648V326.634H569.619V322.664Z" fill="#F0F0F0"/>
<path d="M569.619 329.32H565.648V333.291H569.619V329.32Z" fill="#F0F0F0"/>
<path d="M569.619 335.977H565.648V339.947H569.619V335.977Z" fill="#F0F0F0"/>
<path d="M569.619 342.633H565.648V346.603H569.619V342.633Z" fill="#F0F0F0"/>
<path d="M569.619 349.289H565.648V353.259H569.619V349.289Z" fill="#F0F0F0"/>
<path d="M569.619 355.943H565.648V359.914H569.619V355.943Z" fill="#F0F0F0"/>
<path d="M569.619 362.6H565.648V366.57H569.619V362.6Z" fill="#F0F0F0"/>
<path d="M569.619 369.256H565.648V373.226H569.619V369.256Z" fill="#F0F0F0"/>
<path d="M569.619 375.91H565.648V379.881H569.619V375.91Z" fill="#F0F0F0"/>
<path d="M569.619 382.566H565.648V386.537H569.619V382.566Z" fill="#F0F0F0"/>
<path d="M575.924 262.764H571.953V266.734H575.924V262.764Z" fill="#F0F0F0"/>
<path d="M575.924 269.42H571.953V273.39H575.924V269.42Z" fill="#F0F0F0"/>
<path d="M575.924 276.076H571.953V280.047H575.924V276.076Z" fill="#F0F0F0"/>
<path d="M575.924 282.73H571.953V286.701H575.924V282.73Z" fill="#F0F0F0"/>
<path d="M575.924 289.387H571.953V293.357H575.924V289.387Z" fill="#F0F0F0"/>
<path d="M575.924 296.043H571.953V300.013H575.924V296.043Z" fill="#F0F0F0"/>
<path d="M575.924 302.697H571.953V306.668H575.924V302.697Z" fill="#F0F0F0"/>
<path d="M575.924 309.354H571.953V313.324H575.924V309.354Z" fill="#F0F0F0"/>
<path d="M575.924 316.01H571.953V319.98H575.924V316.01Z" fill="#F0F0F0"/>
<path d="M575.924 322.664H571.953V326.634H575.924V322.664Z" fill="#F0F0F0"/>
<path d="M575.924 329.32H571.953V333.291H575.924V329.32Z" fill="#F0F0F0"/>
<path d="M575.924 335.977H571.953V339.947H575.924V335.977Z" fill="#F0F0F0"/>
<path d="M575.924 342.633H571.953V346.603H575.924V342.633Z" fill="#F0F0F0"/>
<path d="M575.924 349.289H571.953V353.259H575.924V349.289Z" fill="#F0F0F0"/>
<path d="M575.924 355.943H571.953V359.914H575.924V355.943Z" fill="#F0F0F0"/>
<path d="M575.924 362.6H571.953V366.57H575.924V362.6Z" fill="#F0F0F0"/>
<path d="M575.924 369.256H571.953V373.226H575.924V369.256Z" fill="#F0F0F0"/>
<path d="M575.924 375.91H571.953V379.881H575.924V375.91Z" fill="#F0F0F0"/>
<path d="M575.924 382.566H571.953V386.537H575.924V382.566Z" fill="#F0F0F0"/>
<path d="M582.228 262.764H578.258V266.734H582.228V262.764Z" fill="#F0F0F0"/>
<path d="M582.228 269.42H578.258V273.39H582.228V269.42Z" fill="#F0F0F0"/>
<path d="M582.228 276.076H578.258V280.047H582.228V276.076Z" fill="#F0F0F0"/>
<path d="M582.228 282.73H578.258V286.701H582.228V282.73Z" fill="#F0F0F0"/>
<path d="M582.228 289.387H578.258V293.357H582.228V289.387Z" fill="#F0F0F0"/>
<path d="M582.228 296.043H578.258V300.013H582.228V296.043Z" fill="#F0F0F0"/>
<path d="M582.228 302.697H578.258V306.668H582.228V302.697Z" fill="#F0F0F0"/>
<path d="M582.228 309.354H578.258V313.324H582.228V309.354Z" fill="#F0F0F0"/>
<path d="M582.228 316.01H578.258V319.98H582.228V316.01Z" fill="#F0F0F0"/>
<path d="M582.228 322.664H578.258V326.634H582.228V322.664Z" fill="#F0F0F0"/>
<path d="M582.228 329.32H578.258V333.291H582.228V329.32Z" fill="#F0F0F0"/>
<path d="M582.228 335.977H578.258V339.947H582.228V335.977Z" fill="#F0F0F0"/>
<path d="M582.228 342.633H578.258V346.603H582.228V342.633Z" fill="#F0F0F0"/>
<path d="M582.228 349.289H578.258V353.259H582.228V349.289Z" fill="#F0F0F0"/>
<path d="M582.228 355.943H578.258V359.914H582.228V355.943Z" fill="#F0F0F0"/>
<path d="M588.533 262.764H584.562V266.734H588.533V262.764Z" fill="#F0F0F0"/>
<path d="M588.533 269.42H584.562V273.39H588.533V269.42Z" fill="#F0F0F0"/>
<path d="M588.533 276.076H584.562V280.047H588.533V276.076Z" fill="#F0F0F0"/>
<path d="M588.533 282.73H584.562V286.701H588.533V282.73Z" fill="#F0F0F0"/>
<path d="M588.533 289.387H584.562V293.357H588.533V289.387Z" fill="#F0F0F0"/>
<path d="M588.533 296.043H584.562V300.013H588.533V296.043Z" fill="#F0F0F0"/>
<path d="M588.533 302.697H584.562V306.668H588.533V302.697Z" fill="#F0F0F0"/>
<path d="M588.533 309.354H584.562V313.324H588.533V309.354Z" fill="#F0F0F0"/>
<path d="M588.533 316.01H584.562V319.98H588.533V316.01Z" fill="#F0F0F0"/>
<path d="M588.533 322.664H584.562V326.634H588.533V322.664Z" fill="#F0F0F0"/>
<path d="M588.533 329.32H584.562V333.291H588.533V329.32Z" fill="#F0F0F0"/>
<path d="M588.533 335.977H584.562V339.947H588.533V335.977Z" fill="#F0F0F0"/>
<path d="M588.533 342.633H584.562V346.603H588.533V342.633Z" fill="#F0F0F0"/>
<path d="M594.838 262.764H590.867V266.734H594.838V262.764Z" fill="#F0F0F0"/>
<path d="M594.838 269.42H590.867V273.39H594.838V269.42Z" fill="#F0F0F0"/>
<path d="M594.838 276.076H590.867V280.047H594.838V276.076Z" fill="#F0F0F0"/>
<path d="M594.838 282.73H590.867V286.701H594.838V282.73Z" fill="#F0F0F0"/>
<path d="M594.838 289.387H590.867V293.357H594.838V289.387Z" fill="#F0F0F0"/>
<path d="M594.838 296.043H590.867V300.013H594.838V296.043Z" fill="#F0F0F0"/>
<path d="M594.838 302.697H590.867V306.668H594.838V302.697Z" fill="#F0F0F0"/>
<path d="M594.838 309.354H590.867V313.324H594.838V309.354Z" fill="#F0F0F0"/>
<path d="M594.838 316.01H590.867V319.98H594.838V316.01Z" fill="#F0F0F0"/>
<path d="M594.838 322.664H590.867V326.634H594.838V322.664Z" fill="#F0F0F0"/>
<path d="M594.838 329.32H590.867V333.291H594.838V329.32Z" fill="#F0F0F0"/>
<path d="M594.838 335.977H590.867V339.947H594.838V335.977Z" fill="#F0F0F0"/>
<path d="M131.509 311.34H127.539V315.31H131.509V311.34Z" fill="#F0F0F0"/>
<path d="M131.509 317.994H127.539V321.965H131.509V317.994Z" fill="#F0F0F0"/>
<path d="M131.509 324.65H127.539V328.621H131.509V324.65Z" fill="#F0F0F0"/>
<path d="M131.509 331.307H127.539V335.277H131.509V331.307Z" fill="#F0F0F0"/>
<path d="M131.509 337.961H127.539V341.931H131.509V337.961Z" fill="#F0F0F0"/>
<path d="M131.509 344.617H127.539V348.588H131.509V344.617Z" fill="#F0F0F0"/>
<path d="M131.509 351.273H127.539V355.244H131.509V351.273Z" fill="#F0F0F0"/>
<path d="M131.509 357.928H127.539V361.898H131.509V357.928Z" fill="#F0F0F0"/>
<path d="M131.509 364.586H127.539V368.556H131.509V364.586Z" fill="#F0F0F0"/>
<path d="M131.509 371.24H127.539V375.211H131.509V371.24Z" fill="#F0F0F0"/>
<path d="M131.509 377.896H127.539V381.867H131.509V377.896Z" fill="#F0F0F0"/>
<path d="M131.509 384.553H127.539V388.523H131.509V384.553Z" fill="#F0F0F0"/>
<path d="M131.509 391.207H127.539V395.177H131.509V391.207Z" fill="#F0F0F0"/>
<path d="M131.509 397.863H127.539V401.834H131.509V397.863Z" fill="#F0F0F0"/>
<path d="M131.509 404.52H127.539V408.49H131.509V404.52Z" fill="#F0F0F0"/>
<path d="M131.509 411.174H127.539V415.144H131.509V411.174Z" fill="#F0F0F0"/>
<path d="M131.509 417.83H127.539V421.8H131.509V417.83Z" fill="#F0F0F0"/>
<path d="M131.509 424.486H127.539V428.457H131.509V424.486Z" fill="#F0F0F0"/>
<path d="M131.509 431.141H127.539V435.111H131.509V431.141Z" fill="#F0F0F0"/>
<path d="M131.509 437.797H127.539V441.767H131.509V437.797Z" fill="#F0F0F0"/>
<path d="M137.814 311.34H133.844V315.31H137.814V311.34Z" fill="#F0F0F0"/>
<path d="M137.814 317.994H133.844V321.965H137.814V317.994Z" fill="#F0F0F0"/>
<path d="M137.814 324.65H133.844V328.621H137.814V324.65Z" fill="#F0F0F0"/>
<path d="M137.814 331.305H133.844V335.275H137.814V331.305Z" fill="#F0F0F0"/>
<path d="M137.814 337.961H133.844V341.931H137.814V337.961Z" fill="#F0F0F0"/>
<path d="M137.814 344.617H133.844V348.588H137.814V344.617Z" fill="#F0F0F0"/>
<path d="M137.814 351.273H133.844V355.244H137.814V351.273Z" fill="#F0F0F0"/>
<path d="M137.814 357.928H133.844V361.898H137.814V357.928Z" fill="#F0F0F0"/>
<path d="M137.814 364.586H133.844V368.556H137.814V364.586Z" fill="#F0F0F0"/>
<path d="M137.814 371.24H133.844V375.211H137.814V371.24Z" fill="#F0F0F0"/>
<path d="M137.814 377.896H133.844V381.867H137.814V377.896Z" fill="#F0F0F0"/>
<path d="M137.814 384.551H133.844V388.521H137.814V384.551Z" fill="#F0F0F0"/>
<path d="M137.814 391.207H133.844V395.177H137.814V391.207Z" fill="#F0F0F0"/>
<path d="M137.814 397.863H133.844V401.834H137.814V397.863Z" fill="#F0F0F0"/>
<path d="M137.814 404.52H133.844V408.49H137.814V404.52Z" fill="#F0F0F0"/>
<path d="M137.814 411.174H133.844V415.144H137.814V411.174Z" fill="#F0F0F0"/>
<path d="M137.814 417.83H133.844V421.8H137.814V417.83Z" fill="#F0F0F0"/>
<path d="M137.814 424.484H133.844V428.455H137.814V424.484Z" fill="#F0F0F0"/>
<path d="M144.127 311.34H140.156V315.31H144.127V311.34Z" fill="#F0F0F0"/>
<path d="M144.127 317.994H140.156V321.965H144.127V317.994Z" fill="#F0F0F0"/>
<path d="M144.127 324.65H140.156V328.621H144.127V324.65Z" fill="#F0F0F0"/>
<path d="M144.127 331.305H140.156V335.275H144.127V331.305Z" fill="#F0F0F0"/>
<path d="M144.127 337.961H140.156V341.931H144.127V337.961Z" fill="#F0F0F0"/>
<path d="M144.127 344.617H140.156V348.588H144.127V344.617Z" fill="#F0F0F0"/>
<path d="M144.127 351.273H140.156V355.244H144.127V351.273Z" fill="#F0F0F0"/>
<path d="M144.127 357.928H140.156V361.898H144.127V357.928Z" fill="#F0F0F0"/>
<path d="M144.127 364.586H140.156V368.556H144.127V364.586Z" fill="#F0F0F0"/>
<path d="M144.127 371.24H140.156V375.211H144.127V371.24Z" fill="#F0F0F0"/>
<path d="M144.127 377.896H140.156V381.867H144.127V377.896Z" fill="#F0F0F0"/>
<path d="M144.127 384.551H140.156V388.521H144.127V384.551Z" fill="#F0F0F0"/>
<path d="M144.127 391.207H140.156V395.177H144.127V391.207Z" fill="#F0F0F0"/>
<path d="M144.127 397.863H140.156V401.834H144.127V397.863Z" fill="#F0F0F0"/>
<path d="M144.127 404.52H140.156V408.49H144.127V404.52Z" fill="#F0F0F0"/>
<path d="M144.127 411.174H140.156V415.144H144.127V411.174Z" fill="#F0F0F0"/>
<path d="M144.127 417.83H140.156V421.8H144.127V417.83Z" fill="#F0F0F0"/>
<path d="M144.127 424.484H140.156V428.455H144.127V424.484Z" fill="#F0F0F0"/>
<path d="M107.924 359.914H103.953V363.884H107.924V359.914Z" fill="#F0F0F0"/>
<path d="M107.924 366.57H103.953V370.541H107.924V366.57Z" fill="#F0F0F0"/>
<path d="M107.924 373.227H103.953V377.197H107.924V373.227Z" fill="#F0F0F0"/>
<path d="M107.924 379.881H103.953V383.851H107.924V379.881Z" fill="#F0F0F0"/>
<path d="M107.924 386.537H103.953V390.508H107.924V386.537Z" fill="#F0F0F0"/>
<path d="M107.924 393.193H103.953V397.164H107.924V393.193Z" fill="#F0F0F0"/>
<path d="M107.924 399.848H103.953V403.818H107.924V399.848Z" fill="#F0F0F0"/>
<path d="M107.924 406.504H103.953V410.474H107.924V406.504Z" fill="#F0F0F0"/>
<path d="M107.924 413.16H103.953V417.131H107.924V413.16Z" fill="#F0F0F0"/>
<path d="M107.924 419.814H103.953V423.785H107.924V419.814Z" fill="#F0F0F0"/>
<path d="M107.924 426.471H103.953V430.441H107.924V426.471Z" fill="#F0F0F0"/>
<path d="M107.924 433.127H103.953V437.097H107.924V433.127Z" fill="#F0F0F0"/>
<path d="M107.924 439.781H103.953V443.752H107.924V439.781Z" fill="#F0F0F0"/>
<path d="M114.228 359.914H110.258V363.884H114.228V359.914Z" fill="#F0F0F0"/>
<path d="M114.228 366.57H110.258V370.541H114.228V366.57Z" fill="#F0F0F0"/>
<path d="M114.228 373.227H110.258V377.197H114.228V373.227Z" fill="#F0F0F0"/>
<path d="M114.228 379.881H110.258V383.851H114.228V379.881Z" fill="#F0F0F0"/>
<path d="M114.228 386.537H110.258V390.508H114.228V386.537Z" fill="#F0F0F0"/>
<path d="M114.228 393.193H110.258V397.164H114.228V393.193Z" fill="#F0F0F0"/>
<path d="M114.228 399.848H110.258V403.818H114.228V399.848Z" fill="#F0F0F0"/>
<path d="M114.228 406.504H110.258V410.474H114.228V406.504Z" fill="#F0F0F0"/>
<path d="M114.228 413.16H110.258V417.131H114.228V413.16Z" fill="#F0F0F0"/>
<path d="M114.228 419.814H110.258V423.785H114.228V419.814Z" fill="#F0F0F0"/>
<path d="M114.228 426.471H110.258V430.441H114.228V426.471Z" fill="#F0F0F0"/>
<path d="M114.228 433.127H110.258V437.097H114.228V433.127Z" fill="#F0F0F0"/>
<path d="M114.228 439.781H110.258V443.752H114.228V439.781Z" fill="#F0F0F0"/>
<path d="M120.533 359.914H116.562V363.884H120.533V359.914Z" fill="#F0F0F0"/>
<path d="M120.533 366.57H116.562V370.541H120.533V366.57Z" fill="#F0F0F0"/>
<path d="M120.533 373.227H116.562V377.197H120.533V373.227Z" fill="#F0F0F0"/>
<path d="M120.533 379.881H116.562V383.851H120.533V379.881Z" fill="#F0F0F0"/>
<path d="M120.533 386.537H116.562V390.508H120.533V386.537Z" fill="#F0F0F0"/>
<path d="M120.533 393.193H116.562V397.164H120.533V393.193Z" fill="#F0F0F0"/>
<path d="M120.533 399.848H116.562V403.818H120.533V399.848Z" fill="#F0F0F0"/>
<path d="M120.533 406.504H116.562V410.474H120.533V406.504Z" fill="#F0F0F0"/>
<path d="M120.533 413.16H116.562V417.131H120.533V413.16Z" fill="#F0F0F0"/>
<path d="M120.533 419.814H116.562V423.785H120.533V419.814Z" fill="#F0F0F0"/>
<path d="M120.533 426.471H116.562V430.441H120.533V426.471Z" fill="#F0F0F0"/>
<path d="M120.533 433.127H116.562V437.097H120.533V433.127Z" fill="#F0F0F0"/>
<path d="M120.533 439.781H116.562V443.752H120.533V439.781Z" fill="#F0F0F0"/>
<path d="M120.533 446.438H116.562V450.408H120.533V446.438Z" fill="#F0F0F0"/>
<path d="M155.564 361.898H151.594V365.869H155.564V361.898Z" fill="#F0F0F0"/>
<path d="M155.564 368.555H151.594V372.525H155.564V368.555Z" fill="#F0F0F0"/>
<path d="M155.564 375.211H151.594V379.181H155.564V375.211Z" fill="#F0F0F0"/>
<path d="M155.564 381.865H151.594V385.836H155.564V381.865Z" fill="#F0F0F0"/>
<path d="M155.564 388.521H151.594V392.492H155.564V388.521Z" fill="#F0F0F0"/>
<path d="M155.564 395.178H151.594V399.148H155.564V395.178Z" fill="#F0F0F0"/>
<path d="M155.564 401.834H151.594V405.804H155.564V401.834Z" fill="#F0F0F0"/>
<path d="M155.564 408.488H151.594V412.459H155.564V408.488Z" fill="#F0F0F0"/>
<path d="M155.564 415.145H151.594V419.115H155.564V415.145Z" fill="#F0F0F0"/>
<path d="M155.564 421.801H151.594V425.771H155.564V421.801Z" fill="#F0F0F0"/>
<path d="M155.564 441.768H151.594V445.738H155.564V441.768Z" fill="#F0F0F0"/>
<path d="M161.869 361.898H157.898V365.869H161.869V361.898Z" fill="#F0F0F0"/>
<path d="M161.869 368.555H157.898V372.525H161.869V368.555Z" fill="#F0F0F0"/>
<path d="M161.869 375.211H157.898V379.181H161.869V375.211Z" fill="#F0F0F0"/>
<path d="M161.869 381.865H157.898V385.836H161.869V381.865Z" fill="#F0F0F0"/>
<path d="M161.869 388.521H157.898V392.492H161.869V388.521Z" fill="#F0F0F0"/>
<path d="M161.869 395.178H157.898V399.148H161.869V395.178Z" fill="#F0F0F0"/>
<path d="M161.869 401.834H157.898V405.804H161.869V401.834Z" fill="#F0F0F0"/>
<path d="M161.869 408.488H157.898V412.459H161.869V408.488Z" fill="#F0F0F0"/>
<path d="M161.869 415.145H157.898V419.115H161.869V415.145Z" fill="#F0F0F0"/>
<path d="M161.869 435.111H157.898V439.082H161.869V435.111Z" fill="#F0F0F0"/>
<path d="M161.869 441.768H157.898V445.738H161.869V441.768Z" fill="#F0F0F0"/>
<path d="M168.174 361.898H164.203V365.869H168.174V361.898Z" fill="#F0F0F0"/>
<path d="M168.174 368.555H164.203V372.525H168.174V368.555Z" fill="#F0F0F0"/>
<path d="M168.174 375.211H164.203V379.181H168.174V375.211Z" fill="#F0F0F0"/>
<path d="M168.174 381.865H164.203V385.836H168.174V381.865Z" fill="#F0F0F0"/>
<path d="M168.174 388.521H164.203V392.492H168.174V388.521Z" fill="#F0F0F0"/>
<path d="M168.174 395.178H164.203V399.148H168.174V395.178Z" fill="#F0F0F0"/>
<path d="M168.174 401.834H164.203V405.804H168.174V401.834Z" fill="#F0F0F0"/>
<path d="M168.174 408.488H164.203V412.459H168.174V408.488Z" fill="#F0F0F0"/>
<path d="M168.174 428.455H164.203V432.425H168.174V428.455Z" fill="#F0F0F0"/>
<path d="M168.174 435.111H164.203V439.082H168.174V435.111Z" fill="#F0F0F0"/>
<path d="M168.174 441.768H164.203V445.738H168.174V441.768Z" fill="#F0F0F0"/>
<path d="M226.791 260.779H222.82V264.75H226.791V260.779Z" fill="#F0F0F0"/>
<path d="M226.791 267.436H222.82V271.406H226.791V267.436Z" fill="#F0F0F0"/>
<path d="M226.791 274.09H222.82V278.06H226.791V274.09Z" fill="#F0F0F0"/>
<path d="M226.791 280.746H222.82V284.716H226.791V280.746Z" fill="#F0F0F0"/>
<path d="M226.791 287.402H222.82V291.373H226.791V287.402Z" fill="#F0F0F0"/>
<path d="M226.791 294.057H222.82V298.027H226.791V294.057Z" fill="#F0F0F0"/>
<path d="M226.791 300.713H222.82V304.683H226.791V300.713Z" fill="#F0F0F0"/>
<path d="M226.791 307.369H222.82V311.34H226.791V307.369Z" fill="#F0F0F0"/>
<path d="M226.791 314.023H222.82V317.994H226.791V314.023Z" fill="#F0F0F0"/>
<path d="M226.791 320.68H222.82V324.65H226.791V320.68Z" fill="#F0F0F0"/>
<path d="M226.791 327.336H222.82V331.306H226.791V327.336Z" fill="#F0F0F0"/>
<path d="M226.791 333.992H222.82V337.963H226.791V333.992Z" fill="#F0F0F0"/>
<path d="M226.791 340.648H222.82V344.619H226.791V340.648Z" fill="#F0F0F0"/>
<path d="M226.791 347.303H222.82V351.273H226.791V347.303Z" fill="#F0F0F0"/>
<path d="M226.791 353.959H222.82V357.929H226.791V353.959Z" fill="#F0F0F0"/>
<path d="M226.791 360.615H222.82V364.586H226.791V360.615Z" fill="#F0F0F0"/>
<path d="M226.791 367.27H222.82V371.24H226.791V367.27Z" fill="#F0F0F0"/>
<path d="M226.791 380.582H222.82V384.552H226.791V380.582Z" fill="#F0F0F0"/>
<path d="M226.791 387.236H222.82V391.207H226.791V387.236Z" fill="#F0F0F0"/>
<path d="M226.791 393.893H222.82V397.863H226.791V393.893Z" fill="#F0F0F0"/>
<path d="M226.791 400.549H222.82V404.519H226.791V400.549Z" fill="#F0F0F0"/>
<path d="M226.791 407.203H222.82V411.174H226.791V407.203Z" fill="#F0F0F0"/>
<path d="M233.095 260.779H229.125V264.75H233.095V260.779Z" fill="#F0F0F0"/>
<path d="M233.095 267.436H229.125V271.406H233.095V267.436Z" fill="#F0F0F0"/>
<path d="M233.095 274.09H229.125V278.06H233.095V274.09Z" fill="#F0F0F0"/>
<path d="M233.095 280.746H229.125V284.716H233.095V280.746Z" fill="#F0F0F0"/>
<path d="M233.095 287.402H229.125V291.373H233.095V287.402Z" fill="#F0F0F0"/>
<path d="M233.095 294.057H229.125V298.027H233.095V294.057Z" fill="#F0F0F0"/>
<path d="M233.095 300.713H229.125V304.683H233.095V300.713Z" fill="#F0F0F0"/>
<path d="M233.095 307.369H229.125V311.34H233.095V307.369Z" fill="#F0F0F0"/>
<path d="M233.095 314.023H229.125V317.994H233.095V314.023Z" fill="#F0F0F0"/>
<path d="M233.095 320.68H229.125V324.65H233.095V320.68Z" fill="#F0F0F0"/>
<path d="M233.095 327.336H229.125V331.306H233.095V327.336Z" fill="#F0F0F0"/>
<path d="M233.095 333.992H229.125V337.963H233.095V333.992Z" fill="#F0F0F0"/>
<path d="M233.095 340.648H229.125V344.619H233.095V340.648Z" fill="#F0F0F0"/>
<path d="M233.095 347.305H229.125V351.275H233.095V347.305Z" fill="#F0F0F0"/>
<path d="M233.095 353.959H229.125V357.929H233.095V353.959Z" fill="#F0F0F0"/>
<path d="M233.095 360.615H229.125V364.586H233.095V360.615Z" fill="#F0F0F0"/>
<path d="M233.095 400.549H229.125V404.519H233.095V400.549Z" fill="#F0F0F0"/>
<path d="M233.095 407.203H229.125V411.174H233.095V407.203Z" fill="#F0F0F0"/>
<path d="M239.408 260.779H235.438V264.75H239.408V260.779Z" fill="#F0F0F0"/>
<path d="M239.408 267.436H235.438V271.406H239.408V267.436Z" fill="#F0F0F0"/>
<path d="M239.408 274.09H235.438V278.06H239.408V274.09Z" fill="#F0F0F0"/>
<path d="M239.408 280.746H235.438V284.716H239.408V280.746Z" fill="#F0F0F0"/>
<path d="M239.408 287.402H235.438V291.373H239.408V287.402Z" fill="#F0F0F0"/>
<path d="M239.408 294.057H235.438V298.027H239.408V294.057Z" fill="#F0F0F0"/>
<path d="M239.408 300.713H235.438V304.683H239.408V300.713Z" fill="#F0F0F0"/>
<path d="M239.408 307.369H235.438V311.34H239.408V307.369Z" fill="#F0F0F0"/>
<path d="M239.408 314.023H235.438V317.994H239.408V314.023Z" fill="#F0F0F0"/>
<path d="M239.408 320.68H235.438V324.65H239.408V320.68Z" fill="#F0F0F0"/>
<path d="M239.408 327.336H235.438V331.306H239.408V327.336Z" fill="#F0F0F0"/>
<path d="M239.408 333.992H235.438V337.963H239.408V333.992Z" fill="#F0F0F0"/>
<path d="M239.408 340.648H235.438V344.619H239.408V340.648Z" fill="#F0F0F0"/>
<path d="M239.408 347.305H235.438V351.275H239.408V347.305Z" fill="#F0F0F0"/>
<path d="M239.408 353.959H235.438V357.929H239.408V353.959Z" fill="#F0F0F0"/>
<path d="M239.408 360.615H235.438V364.586H239.408V360.615Z" fill="#F0F0F0"/>
<path d="M239.408 373.926H235.438V377.896H239.408V373.926Z" fill="#F0F0F0"/>
<path d="M239.408 380.582H235.438V384.552H239.408V380.582Z" fill="#F0F0F0"/>
<path d="M239.408 387.238H235.438V391.209H239.408V387.238Z" fill="#F0F0F0"/>
<path d="M239.408 393.893H235.438V397.863H239.408V393.893Z" fill="#F0F0F0"/>
<path d="M239.408 407.203H235.438V411.174H239.408V407.203Z" fill="#F0F0F0"/>
<path d="M203.908 344.617H199.938V348.588H203.908V344.617Z" fill="#F0F0F0"/>
<path d="M203.908 351.273H199.938V355.244H203.908V351.273Z" fill="#F0F0F0"/>
<path d="M203.908 357.928H199.938V361.898H203.908V357.928Z" fill="#F0F0F0"/>
<path d="M203.908 364.586H199.938V368.556H203.908V364.586Z" fill="#F0F0F0"/>
<path d="M203.908 371.24H199.938V375.211H203.908V371.24Z" fill="#F0F0F0"/>
<path d="M203.908 377.896H199.938V381.867H203.908V377.896Z" fill="#F0F0F0"/>
<path d="M203.908 384.553H199.938V388.523H203.908V384.553Z" fill="#F0F0F0"/>
<path d="M203.908 397.863H199.938V401.834H203.908V397.863Z" fill="#F0F0F0"/>
<path d="M203.908 404.52H199.938V408.49H203.908V404.52Z" fill="#F0F0F0"/>
<path d="M203.908 411.174H199.938V415.144H203.908V411.174Z" fill="#F0F0F0"/>
<path d="M203.908 417.83H199.938V421.8H203.908V417.83Z" fill="#F0F0F0"/>
<path d="M203.908 424.486H199.938V428.457H203.908V424.486Z" fill="#F0F0F0"/>
<path d="M203.908 431.141H199.938V435.111H203.908V431.141Z" fill="#F0F0F0"/>
<path d="M203.908 437.797H199.938V441.767H203.908V437.797Z" fill="#F0F0F0"/>
<path d="M203.908 444.453H199.938V448.424H203.908V444.453Z" fill="#F0F0F0"/>
<path d="M210.213 344.617H206.242V348.588H210.213V344.617Z" fill="#F0F0F0"/>
<path d="M210.213 351.273H206.242V355.244H210.213V351.273Z" fill="#F0F0F0"/>
<path d="M210.213 357.928H206.242V361.898H210.213V357.928Z" fill="#F0F0F0"/>
<path d="M210.213 364.586H206.242V368.556H210.213V364.586Z" fill="#F0F0F0"/>
<path d="M210.213 371.24H206.242V375.211H210.213V371.24Z" fill="#F0F0F0"/>
<path d="M210.213 377.896H206.242V381.867H210.213V377.896Z" fill="#F0F0F0"/>
<path d="M210.213 397.863H206.242V401.834H210.213V397.863Z" fill="#F0F0F0"/>
<path d="M210.213 404.52H206.242V408.49H210.213V404.52Z" fill="#F0F0F0"/>
<path d="M210.213 411.174H206.242V415.144H210.213V411.174Z" fill="#F0F0F0"/>
<path d="M210.213 417.83H206.242V421.8H210.213V417.83Z" fill="#F0F0F0"/>
<path d="M210.213 424.486H206.242V428.457H210.213V424.486Z" fill="#F0F0F0"/>
<path d="M210.213 431.141H206.242V435.111H210.213V431.141Z" fill="#F0F0F0"/>
<path d="M210.213 437.797H206.242V441.767H210.213V437.797Z" fill="#F0F0F0"/>
<path d="M210.213 444.453H206.242V448.424H210.213V444.453Z" fill="#F0F0F0"/>
<path d="M216.517 344.617H212.547V348.588H216.517V344.617Z" fill="#F0F0F0"/>
<path d="M216.517 351.273H212.547V355.244H216.517V351.273Z" fill="#F0F0F0"/>
<path d="M216.517 357.928H212.547V361.898H216.517V357.928Z" fill="#F0F0F0"/>
<path d="M216.517 364.586H212.547V368.556H216.517V364.586Z" fill="#F0F0F0"/>
<path d="M216.517 371.24H212.547V375.211H216.517V371.24Z" fill="#F0F0F0"/>
<path d="M216.517 377.896H212.547V381.867H216.517V377.896Z" fill="#F0F0F0"/>
<path d="M216.517 391.207H212.547V395.177H216.517V391.207Z" fill="#F0F0F0"/>
<path d="M216.517 397.863H212.547V401.834H216.517V397.863Z" fill="#F0F0F0"/>
<path d="M216.517 404.52H212.547V408.49H216.517V404.52Z" fill="#F0F0F0"/>
<path d="M216.517 411.174H212.547V415.144H216.517V411.174Z" fill="#F0F0F0"/>
<path d="M216.517 417.83H212.547V421.8H216.517V417.83Z" fill="#F0F0F0"/>
<path d="M216.517 424.486H212.547V428.457H216.517V424.486Z" fill="#F0F0F0"/>
<path d="M216.517 431.141H212.547V435.111H216.517V431.141Z" fill="#F0F0F0"/>
<path d="M216.517 437.797H212.547V441.767H216.517V437.797Z" fill="#F0F0F0"/>
<path d="M216.517 444.453H212.547V448.424H216.517V444.453Z" fill="#F0F0F0"/>
<path d="M349.392 307.369H345.422V311.34H349.392V307.369Z" fill="#F0F0F0"/>
<path d="M349.392 314.023H345.422V317.994H349.392V314.023Z" fill="#F0F0F0"/>
<path d="M349.392 320.68H345.422V324.65H349.392V320.68Z" fill="#F0F0F0"/>
<path d="M349.392 327.336H345.422V331.306H349.392V327.336Z" fill="#F0F0F0"/>
<path d="M349.392 333.992H345.422V337.963H349.392V333.992Z" fill="#F0F0F0"/>
<path d="M349.392 340.648H345.422V344.619H349.392V340.648Z" fill="#F0F0F0"/>
<path d="M349.392 347.305H345.422V351.275H349.392V347.305Z" fill="#F0F0F0"/>
<path d="M349.392 353.959H345.422V357.929H349.392V353.959Z" fill="#F0F0F0"/>
<path d="M349.392 360.615H345.422V364.586H349.392V360.615Z" fill="#F0F0F0"/>
<path d="M349.392 367.27H345.422V371.24H349.392V367.27Z" fill="#F0F0F0"/>
<path d="M349.392 373.926H345.422V377.896H349.392V373.926Z" fill="#F0F0F0"/>
<path d="M349.392 380.582H345.422V384.552H349.392V380.582Z" fill="#F0F0F0"/>
<path d="M349.392 387.238H345.422V391.209H349.392V387.238Z" fill="#F0F0F0"/>
<path d="M349.392 400.549H345.422V404.519H349.392V400.549Z" fill="#F0F0F0"/>
<path d="M349.392 407.203H345.422V411.174H349.392V407.203Z" fill="#F0F0F0"/>
<path d="M349.392 413.859H345.422V417.83H349.392V413.859Z" fill="#F0F0F0"/>
<path d="M349.392 420.516H345.422V424.486H349.392V420.516Z" fill="#F0F0F0"/>
<path d="M349.392 433.826H345.422V437.797H349.392V433.826Z" fill="#F0F0F0"/>
<path d="M349.392 440.482H345.422V444.453H349.392V440.482Z" fill="#F0F0F0"/>
<path d="M349.392 447.139H345.422V451.109H349.392V447.139Z" fill="#F0F0F0"/>
<path d="M355.705 307.369H351.734V311.34H355.705V307.369Z" fill="#F0F0F0"/>
<path d="M355.705 314.023H351.734V317.994H355.705V314.023Z" fill="#F0F0F0"/>
<path d="M355.705 320.68H351.734V324.65H355.705V320.68Z" fill="#F0F0F0"/>
<path d="M355.705 327.336H351.734V331.306H355.705V327.336Z" fill="#F0F0F0"/>
<path d="M355.705 333.992H351.734V337.963H355.705V333.992Z" fill="#F0F0F0"/>
<path d="M355.705 340.648H351.734V344.619H355.705V340.648Z" fill="#F0F0F0"/>
<path d="M355.705 347.305H351.734V351.275H355.705V347.305Z" fill="#F0F0F0"/>
<path d="M355.705 353.959H351.734V357.929H355.705V353.959Z" fill="#F0F0F0"/>
<path d="M355.705 360.615H351.734V364.586H355.705V360.615Z" fill="#F0F0F0"/>
<path d="M355.705 367.27H351.734V371.24H355.705V367.27Z" fill="#F0F0F0"/>
<path d="M355.705 373.926H351.734V377.896H355.705V373.926Z" fill="#F0F0F0"/>
<path d="M355.705 380.582H351.734V384.552H355.705V380.582Z" fill="#F0F0F0"/>
<path d="M355.705 387.238H351.734V391.209H355.705V387.238Z" fill="#F0F0F0"/>
<path d="M355.705 407.203H351.734V411.174H355.705V407.203Z" fill="#F0F0F0"/>
<path d="M355.705 413.859H351.734V417.83H355.705V413.859Z" fill="#F0F0F0"/>
<path d="M355.705 427.172H351.734V431.142H355.705V427.172Z" fill="#F0F0F0"/>
<path d="M355.705 433.826H351.734V437.797H355.705V433.826Z" fill="#F0F0F0"/>
<path d="M355.705 440.482H351.734V444.453H355.705V440.482Z" fill="#F0F0F0"/>
<path d="M355.705 447.139H351.734V451.109H355.705V447.139Z" fill="#F0F0F0"/>
<path d="M362.009 307.369H358.039V311.34H362.009V307.369Z" fill="#F0F0F0"/>
<path d="M362.009 314.023H358.039V317.994H362.009V314.023Z" fill="#F0F0F0"/>
<path d="M362.009 320.68H358.039V324.65H362.009V320.68Z" fill="#F0F0F0"/>
<path d="M362.009 327.336H358.039V331.306H362.009V327.336Z" fill="#F0F0F0"/>
<path d="M362.009 333.992H358.039V337.963H362.009V333.992Z" fill="#F0F0F0"/>
<path d="M362.009 340.648H358.039V344.619H362.009V340.648Z" fill="#F0F0F0"/>
<path d="M362.009 347.303H358.039V351.273H362.009V347.303Z" fill="#F0F0F0"/>
<path d="M362.009 353.959H358.039V357.929H362.009V353.959Z" fill="#F0F0F0"/>
<path d="M362.009 360.615H358.039V364.586H362.009V360.615Z" fill="#F0F0F0"/>
<path d="M362.009 367.27H358.039V371.24H362.009V367.27Z" fill="#F0F0F0"/>
<path d="M362.009 373.926H358.039V377.896H362.009V373.926Z" fill="#F0F0F0"/>
<path d="M362.009 380.582H358.039V384.552H362.009V380.582Z" fill="#F0F0F0"/>
<path d="M362.009 387.236H358.039V391.207H362.009V387.236Z" fill="#F0F0F0"/>
<path d="M362.009 393.893H358.039V397.863H362.009V393.893Z" fill="#F0F0F0"/>
<path d="M362.009 407.203H358.039V411.174H362.009V407.203Z" fill="#F0F0F0"/>
<path d="M362.009 420.516H358.039V424.486H362.009V420.516Z" fill="#F0F0F0"/>
<path d="M362.009 427.17H358.039V431.14H362.009V427.17Z" fill="#F0F0F0"/>
<path d="M362.009 433.826H358.039V437.797H362.009V433.826Z" fill="#F0F0F0"/>
<path d="M362.009 440.482H358.039V444.453H362.009V440.482Z" fill="#F0F0F0"/>
<path d="M362.009 447.139H358.039V451.109H362.009V447.139Z" fill="#F0F0F0"/>
<path d="M323.705 345.318H319.734V349.289H323.705V345.318Z" fill="#F0F0F0"/>
<path d="M323.705 351.975H319.734V355.945H323.705V351.975Z" fill="#F0F0F0"/>
<path d="M323.705 358.629H319.734V362.599H323.705V358.629Z" fill="#F0F0F0"/>
<path d="M323.705 365.285H319.734V369.256H323.705V365.285Z" fill="#F0F0F0"/>
<path d="M323.705 371.941H319.734V375.912H323.705V371.941Z" fill="#F0F0F0"/>
<path d="M323.705 378.596H319.734V382.566H323.705V378.596Z" fill="#F0F0F0"/>
<path d="M323.705 398.562H319.734V402.533H323.705V398.562Z" fill="#F0F0F0"/>
<path d="M323.705 405.219H319.734V409.189H323.705V405.219Z" fill="#F0F0F0"/>
<path d="M323.705 411.875H319.734V415.845H323.705V411.875Z" fill="#F0F0F0"/>
<path d="M323.705 418.531H319.734V422.502H323.705V418.531Z" fill="#F0F0F0"/>
<path d="M323.705 425.188H319.734V429.158H323.705V425.188Z" fill="#F0F0F0"/>
<path d="M323.705 431.842H319.734V435.812H323.705V431.842Z" fill="#F0F0F0"/>
<path d="M323.705 438.498H319.734V442.468H323.705V438.498Z" fill="#F0F0F0"/>
<path d="M330.017 345.318H326.047V349.289H330.017V345.318Z" fill="#F0F0F0"/>
<path d="M330.017 351.975H326.047V355.945H330.017V351.975Z" fill="#F0F0F0"/>
<path d="M330.017 358.629H326.047V362.599H330.017V358.629Z" fill="#F0F0F0"/>
<path d="M330.017 365.285H326.047V369.256H330.017V365.285Z" fill="#F0F0F0"/>
<path d="M330.017 371.941H326.047V375.912H330.017V371.941Z" fill="#F0F0F0"/>
<path d="M330.017 378.596H326.047V382.566H330.017V378.596Z" fill="#F0F0F0"/>
<path d="M330.017 398.562H326.047V402.533H330.017V398.562Z" fill="#F0F0F0"/>
<path d="M330.017 405.219H326.047V409.189H330.017V405.219Z" fill="#F0F0F0"/>
<path d="M330.017 411.875H326.047V415.845H330.017V411.875Z" fill="#F0F0F0"/>
<path d="M330.017 418.531H326.047V422.502H330.017V418.531Z" fill="#F0F0F0"/>
<path d="M330.017 425.188H326.047V429.158H330.017V425.188Z" fill="#F0F0F0"/>
<path d="M330.017 431.842H326.047V435.812H330.017V431.842Z" fill="#F0F0F0"/>
<path d="M330.017 445.154H326.047V449.125H330.017V445.154Z" fill="#F0F0F0"/>
<path d="M539.486 316.01H535.516V319.98H539.486V316.01Z" fill="#F0F0F0"/>
<path d="M539.486 322.664H535.516V326.634H539.486V322.664Z" fill="#F0F0F0"/>
<path d="M539.486 329.32H535.516V333.291H539.486V329.32Z" fill="#F0F0F0"/>
<path d="M539.486 335.977H535.516V339.947H539.486V335.977Z" fill="#F0F0F0"/>
<path d="M539.486 342.633H535.516V346.603H539.486V342.633Z" fill="#F0F0F0"/>
<path d="M539.486 349.289H535.516V353.259H539.486V349.289Z" fill="#F0F0F0"/>
<path d="M539.486 355.945H535.516V359.916H539.486V355.945Z" fill="#F0F0F0"/>
<path d="M539.486 362.6H535.516V366.57H539.486V362.6Z" fill="#F0F0F0"/>
<path d="M539.486 369.256H535.516V373.226H539.486V369.256Z" fill="#F0F0F0"/>
<path d="M539.486 375.91H535.516V379.881H539.486V375.91Z" fill="#F0F0F0"/>
<path d="M539.486 382.566H535.516V386.537H539.486V382.566Z" fill="#F0F0F0"/>
<path d="M539.486 395.879H535.516V399.849H539.486V395.879Z" fill="#F0F0F0"/>
<path d="M539.486 402.533H535.516V406.504H539.486V402.533Z" fill="#F0F0F0"/>
<path d="M539.486 409.189H535.516V413.16H539.486V409.189Z" fill="#F0F0F0"/>
<path d="M539.486 415.844H535.516V419.814H539.486V415.844Z" fill="#F0F0F0"/>
<path d="M539.486 422.5H535.516V426.47H539.486V422.5Z" fill="#F0F0F0"/>
<path d="M539.486 429.156H535.516V433.127H539.486V429.156Z" fill="#F0F0F0"/>
<path d="M539.486 435.812H535.516V439.783H539.486V435.812Z" fill="#F0F0F0"/>
<path d="M539.486 442.467H535.516V446.437H539.486V442.467Z" fill="#F0F0F0"/>
<path d="M545.799 316.01H541.828V319.98H545.799V316.01Z" fill="#F0F0F0"/>
<path d="M545.799 322.664H541.828V326.634H545.799V322.664Z" fill="#F0F0F0"/>
<path d="M545.799 329.32H541.828V333.291H545.799V329.32Z" fill="#F0F0F0"/>
<path d="M545.799 335.977H541.828V339.947H545.799V335.977Z" fill="#F0F0F0"/>
<path d="M545.799 342.633H541.828V346.603H545.799V342.633Z" fill="#F0F0F0"/>
<path d="M545.799 349.289H541.828V353.259H545.799V349.289Z" fill="#F0F0F0"/>
<path d="M545.799 355.943H541.828V359.914H545.799V355.943Z" fill="#F0F0F0"/>
<path d="M545.799 362.6H541.828V366.57H545.799V362.6Z" fill="#F0F0F0"/>
<path d="M545.799 369.256H541.828V373.226H545.799V369.256Z" fill="#F0F0F0"/>
<path d="M545.799 375.91H541.828V379.881H545.799V375.91Z" fill="#F0F0F0"/>
<path d="M545.799 382.566H541.828V386.537H545.799V382.566Z" fill="#F0F0F0"/>
<path d="M545.799 389.223H541.828V393.193H545.799V389.223Z" fill="#F0F0F0"/>
<path d="M545.799 395.879H541.828V399.849H545.799V395.879Z" fill="#F0F0F0"/>
<path d="M545.799 402.533H541.828V406.504H545.799V402.533Z" fill="#F0F0F0"/>
<path d="M545.799 409.189H541.828V413.16H545.799V409.189Z" fill="#F0F0F0"/>
<path d="M545.799 415.844H541.828V419.814H545.799V415.844Z" fill="#F0F0F0"/>
<path d="M545.799 422.5H541.828V426.47H545.799V422.5Z" fill="#F0F0F0"/>
<path d="M545.799 429.156H541.828V433.127H545.799V429.156Z" fill="#F0F0F0"/>
<path d="M545.799 435.811H541.828V439.781H545.799V435.811Z" fill="#F0F0F0"/>
<path d="M545.799 442.467H541.828V446.437H545.799V442.467Z" fill="#F0F0F0"/>
<path d="M508.431 341.932H504.461V345.902H508.431V341.932Z" fill="#F0F0F0"/>
<path d="M508.431 348.588H504.461V352.558H508.431V348.588Z" fill="#F0F0F0"/>
<path d="M508.431 355.242H504.461V359.213H508.431V355.242Z" fill="#F0F0F0"/>
<path d="M508.431 361.898H504.461V365.869H508.431V361.898Z" fill="#F0F0F0"/>
<path d="M508.431 368.555H504.461V372.525H508.431V368.555Z" fill="#F0F0F0"/>
<path d="M508.431 375.211H504.461V379.181H508.431V375.211Z" fill="#F0F0F0"/>
<path d="M508.431 381.865H504.461V385.836H508.431V381.865Z" fill="#F0F0F0"/>
<path d="M508.431 388.521H504.461V392.492H508.431V388.521Z" fill="#F0F0F0"/>
<path d="M508.431 395.178H504.461V399.148H508.431V395.178Z" fill="#F0F0F0"/>
<path d="M508.431 401.834H504.461V405.804H508.431V401.834Z" fill="#F0F0F0"/>
<path d="M514.736 341.932H510.766V345.902H514.736V341.932Z" fill="#F0F0F0"/>
<path d="M514.736 348.588H510.766V352.558H514.736V348.588Z" fill="#F0F0F0"/>
<path d="M514.736 355.242H510.766V359.213H514.736V355.242Z" fill="#F0F0F0"/>
<path d="M514.736 361.898H510.766V365.869H514.736V361.898Z" fill="#F0F0F0"/>
<path d="M514.736 368.555H510.766V372.525H514.736V368.555Z" fill="#F0F0F0"/>
<path d="M514.736 375.211H510.766V379.181H514.736V375.211Z" fill="#F0F0F0"/>
<path d="M514.736 381.865H510.766V385.836H514.736V381.865Z" fill="#F0F0F0"/>
<path d="M514.736 388.521H510.766V392.492H514.736V388.521Z" fill="#F0F0F0"/>
<path d="M514.736 395.178H510.766V399.148H514.736V395.178Z" fill="#F0F0F0"/>
<path d="M205.993 182.742C205.993 175.925 200.465 170.398 193.649 170.398C192.417 170.398 191.228 170.584 190.104 170.92C190.283 169.683 190.381 168.418 190.381 167.13C190.381 152.694 178.679 140.991 164.242 140.991C162.597 140.991 160.988 141.151 159.427 141.442C155.409 134.866 148.188 130.463 139.918 130.463C127.402 130.463 117.249 140.519 117.063 152.992C116.936 152.989 116.811 152.972 116.682 152.972C105.053 152.972 95.625 162.4 95.625 174.029C95.625 185.659 105.053 195.085 116.682 195.085H194.011L193.996 195.069C200.652 194.882 205.993 189.442 205.993 182.742Z" fill="#F0F0F0"/>
<path d="M306.422 160.548C306.422 156.196 309.95 152.666 314.302 152.666C315.089 152.666 315.848 152.785 316.566 152.999C316.451 152.21 316.39 151.402 316.39 150.58C316.39 141.363 323.862 133.891 333.079 133.891C334.131 133.891 335.157 133.993 336.154 134.178C338.718 129.979 343.33 127.168 348.609 127.168C356.601 127.168 363.083 133.588 363.202 141.552C363.283 141.55 363.363 141.539 363.444 141.539C370.869 141.539 376.888 147.558 376.888 154.983C376.888 162.409 370.869 168.427 363.444 168.427H314.071L314.081 168.416C309.832 168.3 306.422 164.827 306.422 160.548Z" fill="#F0F0F0"/>
<path d="M535.234 180.162C535.234 175.809 538.762 172.281 543.115 172.281C543.902 172.281 544.661 172.4 545.377 172.615C545.263 171.825 545.201 171.017 545.201 170.195C545.201 160.978 552.673 153.506 561.89 153.506C562.94 153.506 563.968 153.608 564.965 153.793C567.53 149.594 572.141 146.783 577.421 146.783C585.412 146.783 591.894 153.204 592.013 161.167C592.094 161.165 592.174 161.154 592.255 161.154C599.681 161.154 605.699 167.173 605.699 174.598C605.699 182.024 599.681 188.043 592.255 188.043H542.883L542.892 188.031C538.645 187.914 535.234 184.439 535.234 180.162Z" fill="#F0F0F0"/>
<path d="M221.078 81.8435C221.078 79.1765 223.24 77.0163 225.905 77.0163C226.387 77.0163 226.852 77.0891 227.291 77.2207C227.221 76.7363 227.184 76.2421 227.184 75.7381C227.184 70.0919 231.76 65.5139 237.408 65.5139C238.052 65.5139 238.68 65.5769 239.291 65.6903C240.862 63.1185 243.687 61.3965 246.921 61.3965C251.817 61.3965 255.787 65.3305 255.86 70.2081C255.91 70.2067 255.958 70.2011 256.008 70.2011C260.557 70.2011 264.244 73.8887 264.244 78.4373C264.244 82.9859 260.557 86.6735 256.008 86.6735H225.763L225.768 86.6665C223.168 86.5923 221.078 84.4643 221.078 81.8435Z" fill="#F0F0F0"/>
<path d="M426.812 85.3669C426.812 82.6999 428.974 80.5383 431.64 80.5383C432.121 80.5383 432.586 80.6111 433.026 80.7427C432.956 80.2583 432.918 79.7641 432.918 79.2601C432.918 73.6139 437.496 69.0373 443.142 69.0373C443.786 69.0373 444.415 69.1003 445.025 69.2137C446.596 66.6419 449.421 64.9199 452.655 64.9199C457.551 64.9199 461.521 68.8525 461.594 73.7315C461.644 73.7301 461.692 73.7245 461.742 73.7245C466.291 73.7245 469.979 77.4121 469.979 81.9607C469.979 86.5093 466.291 90.1969 461.742 90.1969H431.497L431.502 90.1899C428.901 90.1143 426.812 87.9863 426.812 85.3669Z" fill="#F0F0F0"/>
<path d="M349.999 528.585C499.914 528.585 621.444 521.488 621.444 512.733C621.444 503.978 499.914 496.881 349.999 496.881C200.085 496.881 78.5547 503.978 78.5547 512.733C78.5547 521.488 200.085 528.585 349.999 528.585Z" fill="#F5F5F5"/>
<path d="M119.306 250.908H102.586V492.116H119.306V250.908Z" fill="#0A5840"/>
<path d="M151.462 302.018H134.742V492.115H151.462V302.018Z" fill="#0A5840"/>
<path d="M183.626 341.906H166.906V492.118H183.626V341.906Z" fill="#0A5840"/>
<path d="M215.783 377.232H199.062V492.116H215.783V377.232Z" fill="#0A5840"/>
<path d="M247.939 408.121H231.219V492.116H247.939V408.121Z" fill="#0A5840"/>
<path d="M280.095 430.473H263.375V492.117H280.095V430.473Z" fill="#0A5840"/>
<path d="M312.251 448.84H295.531V492.117H312.251V448.84Z" fill="#0A5840"/>
<g opacity="0.7">
<path d="M119.306 250.908H102.586V492.116H119.306V250.908Z" fill="white"/>
<path d="M151.462 302.018H134.742V492.115H151.462V302.018Z" fill="white"/>
<path d="M183.626 341.906H166.906V492.118H183.626V341.906Z" fill="white"/>
<path d="M215.783 377.232H199.062V492.116H215.783V377.232Z" fill="white"/>
<path d="M247.939 408.121H231.219V492.116H247.939V408.121Z" fill="white"/>
<path d="M280.095 430.473H263.375V492.117H280.095V430.473Z" fill="white"/>
<path d="M312.251 448.84H295.531V492.117H312.251V448.84Z" fill="white"/>
</g>
<path d="M100.27 185.641L96.8906 204.525L115.756 196.967L100.27 185.641Z" fill="#0A5840"/>
<path d="M105.625 199.625C105.625 199.625 169.503 370.538 338.414 451.107" stroke="#0A5840" stroke-width="8" stroke-miterlimit="10"/>
<path d="M501.69 497.532C501.69 497.532 490.559 475.809 493.358 473.681C496.156 471.553 501.685 491.83 501.69 490.252C501.696 488.676 501.38 461.054 506.522 462.149C511.664 463.244 506.522 488.676 506.522 488.676C506.522 488.676 513.442 475.681 516.152 476.663C518.864 477.644 508.156 493.099 508.156 493.099C508.156 493.099 514.548 489.232 516.152 489.531C517.757 489.83 508.156 497.534 508.156 497.534H501.69V497.532Z" fill="#0A5840"/>
<path d="M201.119 503.626C201.119 503.626 212.25 481.902 209.451 479.774C206.653 477.646 201.124 497.924 201.119 496.346C201.114 494.77 201.429 467.148 196.287 468.243C191.145 469.337 196.287 494.77 196.287 494.77C196.287 494.77 186.661 476.41 184.107 481.092C181.891 485.153 194.652 499.192 194.652 499.192C194.652 499.192 181.96 490.598 181.891 494.385C181.818 498.446 194.652 503.628 194.652 503.628H201.119V503.626Z" fill="#0A5840"/>
<path d="M371.812 485.352C371.812 485.352 361.246 472.213 365.302 471.008C369.359 469.801 372.142 480.735 372.863 479.289C373.584 477.843 373.11 463.4 379.863 465.569C386.617 467.738 377.348 480.067 377.348 480.067C377.348 480.067 383.439 475.407 385.081 476.588C386.723 477.769 377.761 486.386 377.761 486.386L371.812 485.352Z" fill="#0A5840"/>
<path d="M275.032 469.211C275.032 469.211 282.18 453.941 277.954 453.731C273.726 453.521 272.355 465.345 272.355 465.345C272.355 465.345 269.964 449.501 263.634 451.692C256.931 454.014 268.478 466.507 268.478 466.507C268.478 466.507 257.402 459.492 256.664 463.368C255.758 468.126 270.997 470.969 270.997 470.969L275.032 469.211Z" fill="#0A5840"/>
<path d="M163.141 513.68H540.235L524.728 496.882L412.398 485.059H373.106L344.729 462.072L271.036 468.073L210.519 490.761L198.065 502.24H178.737L163.141 513.68Z" fill="#263238"/>
<path opacity="0.5" d="M163.141 513.68H540.235L524.728 496.882L412.398 485.059H373.106L344.729 462.072L271.036 468.073L210.519 490.761L198.065 502.24H178.737L163.141 513.68Z" fill="white"/>
<path opacity="0.2" d="M198.062 502.24L237.753 508.997H259.248L234.878 504.779L210.517 490.762L198.062 502.24Z" fill="black"/>
<path opacity="0.2" d="M373.104 485.059H351.687L317.219 497.34L334.941 479.823L360.554 474.893L373.104 485.059Z" fill="black"/>
<path opacity="0.2" d="M524.728 496.883L484.111 508.997L448.844 499.88L480.24 513.681H540.234L524.728 496.883Z" fill="black"/>
<path d="M331.235 471.214L321.43 468.443L325.064 444.951L334.868 447.722L331.235 471.214Z" fill="#E4897B"/>
<path d="M321.205 460.219H333.627C334.045 460.219 334.407 460.509 334.502 460.915L336.605 469.971C336.824 470.911 336.094 471.8 335.131 471.783C331.134 471.714 328.215 471.48 323.181 471.48C320.084 471.48 310.747 471.802 306.47 471.802C302.287 471.802 301.593 467.573 303.34 467.191C311.173 465.473 317.065 463.106 319.556 460.846C320.007 460.439 320.596 460.219 321.205 460.219Z" fill="#263238"/>
<path d="M489.485 498.448L479.514 500.546L471.828 478.05L481.799 475.953L489.485 498.448Z" fill="#E4897B"/>
<path d="M402.196 276.207C402.196 276.207 355.649 327.556 343.07 347.874C330.491 368.193 319.539 454.139 319.539 454.139L338.086 458.617C338.086 458.617 359.645 374.819 365.386 366.427C371.129 358.034 432.085 301.154 432.085 301.154L402.196 276.207Z" fill="#263238"/>
<path opacity="0.1" d="M432.096 301.154C432.096 301.154 429.801 303.298 426.049 306.815C421.008 311.555 413.337 318.773 405.113 326.627C388.012 342.923 368.519 361.849 365.387 366.421C359.643 374.811 338.087 458.621 338.087 458.621L319.547 454.132C319.547 454.132 330.5 368.198 343.078 347.881C355.656 327.549 402.2 276.215 402.2 276.215L432.096 301.154Z" fill="white"/>
<path opacity="0.2" d="M426.045 306.815C421.004 311.555 413.333 318.774 405.109 326.628C410.553 311.856 423.717 302.293 423.717 302.293L426.045 306.815Z" fill="black"/>
<path d="M418.414 279.887C418.414 279.887 430.383 367.274 436.165 396.607C442.495 428.727 470.673 488.322 470.673 488.322L488.936 484.481C488.936 484.481 469.735 429.402 465.488 397.153C460.737 361.09 453.607 279.627 453.607 279.627L418.414 279.887Z" fill="#263238"/>
<g opacity="0.1">
<path d="M418.414 279.887C418.414 279.887 430.383 367.274 436.165 396.607C442.495 428.727 470.673 488.322 470.673 488.322L488.936 484.481C488.936 484.481 469.735 429.402 465.488 397.153C460.737 361.09 453.607 279.627 453.607 279.627L418.414 279.887Z" fill="white"/>
</g>
<path d="M347.426 170.643L346.625 160.289L357.37 164.441C357.37 164.441 357.527 173.723 352.74 173.603L347.426 170.643Z" fill="#E4897B"/>
<path d="M350.805 154.314L360.953 154.953L357.37 164.442L346.625 160.29L350.805 154.314Z" fill="#E4897B"/>
<path d="M347.062 172.465L347.35 169.598L356.022 171.369L355.338 174.391L347.062 172.465Z" fill="#0A5840"/>
<path opacity="0.7" d="M347.062 172.465L347.35 169.598L356.022 171.369L355.338 174.391L347.062 172.465Z" fill="white"/>
<path d="M388.462 157.084H365.997C365.205 157.084 364.562 158.798 364.562 160.91C364.562 163.023 365.205 164.736 365.997 164.736H388.462C389.254 164.736 389.897 163.023 389.897 160.91C389.897 158.798 389.254 157.084 388.462 157.084Z" fill="#0A5840"/>
<path opacity="0.4" d="M388.462 157.084H365.997C365.205 157.084 364.562 158.798 364.562 160.91C364.562 163.023 365.205 164.736 365.997 164.736H388.462C389.254 164.736 389.897 163.023 389.897 160.91C389.897 158.798 389.254 157.084 388.462 157.084Z" fill="white"/>
<path d="M365.667 156.031H338.861C337.85 156.031 337.031 158.215 337.031 160.91C337.031 163.605 337.85 165.789 338.861 165.789H365.667C366.678 165.789 367.497 163.605 367.497 160.91C367.498 158.217 366.678 156.031 365.667 156.031Z" fill="#0A5840"/>
<path opacity="0.2" d="M365.667 156.031H338.861C337.85 156.031 337.031 158.215 337.031 160.91C337.031 163.605 337.85 165.789 338.861 165.789H365.667C366.678 165.789 367.497 163.605 367.497 160.91C367.498 158.217 366.678 156.031 365.667 156.031Z" fill="white"/>
<path d="M339.226 155.047H311.215C310 155.047 309.016 157.672 309.016 160.911C309.016 164.15 310.001 166.776 311.215 166.776H339.226C340.441 166.776 341.426 164.151 341.426 160.911C341.426 157.672 340.441 155.047 339.226 155.047Z" fill="#0A5840"/>
<path opacity="0.4" d="M339.226 155.047H311.215C310 155.047 309.016 157.672 309.016 160.911C309.016 164.15 310.001 166.776 311.215 166.776H339.226C340.441 166.776 341.426 164.151 341.426 160.911C341.426 157.672 340.441 155.047 339.226 155.047Z" fill="white"/>
<path opacity="0.2" d="M313.414 160.911C313.414 164.15 312.43 166.776 311.215 166.776C310 166.776 309.016 164.151 309.016 160.911C309.016 157.672 310.001 155.047 311.215 155.047C312.429 155.047 313.414 157.672 313.414 160.911Z" fill="white"/>
<path d="M311.211 166.108C310.672 166.108 309.68 164.134 309.68 160.91C309.68 157.687 310.672 155.713 311.211 155.713C311.752 155.713 312.744 157.687 312.744 160.91C312.746 164.134 311.753 166.108 311.211 166.108Z" fill="black"/>
<path d="M475.884 490.387H488.306C488.723 490.387 489.086 490.677 489.181 491.083L491.285 500.139C491.503 501.079 490.774 501.968 489.811 501.951C485.814 501.882 482.895 501.648 477.86 501.648C474.764 501.648 465.427 501.97 461.15 501.97C456.967 501.97 456.272 497.741 458.02 497.359C465.853 495.641 471.745 493.274 474.236 491.014C474.685 490.605 475.273 490.387 475.884 490.387Z" fill="#263238"/>
<path d="M384.512 196.594C384.512 196.594 378.985 197.925 373.133 198.811C370.2 199.234 367.28 199.643 364.466 199.933C363.06 200.076 361.684 200.165 360.432 200.225C360.172 200.237 359.927 200.241 359.688 200.245C359.361 199.353 359.058 198.305 358.79 197.218C358.134 194.555 357.583 191.663 357.113 188.743C356.176 182.893 355.892 172.957 355.892 172.957L346.879 170.754C346.033 177.05 345.564 183.263 345.578 189.662C345.604 192.863 345.699 196.085 346.106 199.473C346.322 201.176 346.588 202.909 347.1 204.85C347.368 205.827 347.678 206.859 348.245 208.063C348.56 208.694 348.875 209.32 349.445 210.101C350.012 210.858 350.739 211.749 352.086 212.632C352.451 212.858 352.825 213.065 353.218 213.248C353.649 213.436 354.128 213.605 354.558 213.727L355.532 213.966C356.186 214.116 356.687 214.185 357.254 214.277C358.286 214.414 359.249 214.503 360.157 214.554C361.975 214.666 363.671 214.655 365.331 214.613C368.648 214.533 371.838 214.301 375.004 213.98C381.343 213.347 387.462 212.412 393.703 211.161L384.512 196.594Z" fill="#263238"/>
<path d="M442.825 193.272C442.461 204.646 443.219 214.438 444.472 225.178C445.396 233.059 446.602 240.534 447.855 247.294C450.794 263.173 453.983 275.104 454.501 279.273C446.797 280.407 416.871 284.803 399.932 287.284C378.212 229.17 385.786 196.368 385.786 196.368C385.786 196.368 391.686 194.264 398.704 192.833C399.621 192.64 400.559 192.473 401.514 192.316C407.653 191.304 417.797 190.796 424.739 190.626C426.189 190.593 427.66 190.596 429.094 190.621C436.345 190.765 442.825 193.272 442.825 193.272Z" fill="#0A5840"/>
<path opacity="0.7" d="M442.825 193.272C442.461 204.646 443.219 214.438 444.472 225.178C445.396 233.059 446.602 240.534 447.855 247.294C450.794 263.173 453.983 275.104 454.501 279.273C446.797 280.407 416.871 284.803 399.932 287.284C378.212 229.17 385.786 196.368 385.786 196.368C385.786 196.368 391.686 194.264 398.704 192.833C399.621 192.64 400.559 192.473 401.514 192.316C407.653 191.304 417.797 190.796 424.739 190.626C426.189 190.593 427.66 190.596 429.094 190.621C436.345 190.765 442.825 193.272 442.825 193.272Z" fill="white"/>
<path d="M406.347 205.505C405.667 209.739 403.509 220.615 403.605 231.335C404.613 233.416 405.969 238.483 407.194 240.541C408.09 238.195 409.646 233.362 410.71 230.996C409.762 220.808 407.956 210.593 408.513 205.246L406.347 205.505Z" fill="#0A5840"/>
<path d="M406.985 208.727L404.312 203.966L407.705 201.812L410.702 203.061L406.985 208.727Z" fill="#0A5840"/>
<path d="M417.941 166.703C417.693 174.276 418.446 187.966 424.406 192.082C421.256 196.544 416.192 200.705 407.88 201.791C401.513 202.624 401.73 197.292 402.745 194.626C409.371 191.811 408.188 186.321 405.825 180.828L417.941 166.703Z" fill="#E4897B"/>
<path d="M407.703 201.812C407.703 201.812 410.573 204.516 413.852 207.124C417.701 204.303 426.616 196.957 425.437 191.518C424.661 189.995 422.4 189.33 422.4 189.33C422.4 189.33 417.072 196.091 407.703 201.812Z" fill="white"/>
<path d="M407.708 201.813C407.708 201.813 404.819 204.949 403.156 208.649C399.845 206.983 401.022 196.087 401.995 194.793C404.714 191.562 407.228 190.602 407.228 190.602C407.228 190.602 405.085 196.449 407.708 201.813Z" fill="white"/>
<path opacity="0.2" d="M413 172.465L405.828 180.82C406.392 182.119 406.884 183.449 407.196 184.768C410.263 183.836 414.018 179.738 413.817 176.407C413.717 174.747 413.391 173.186 413 172.465Z" fill="black"/>
<path d="M391.767 149.211C390.205 153.015 390.196 161.1 395.879 158.955C401.56 156.809 394.453 142.673 391.767 149.211Z" fill="#263238"/>
<path d="M419.48 156.886C419.226 166.981 419.592 172.909 414.68 178.216C407.293 186.202 394.66 181.915 391.886 171.918C389.388 162.92 390.221 147.922 399.959 143.649C409.552 139.439 419.733 146.79 419.48 156.886Z" fill="#E4897B"/>
<path d="M413.371 139.744C413.018 139.761 412.73 139.899 412.438 139.909C412.438 139.909 413.307 159.649 417.846 163.961C429.443 160.684 435.406 138.69 413.371 139.744Z" fill="#263238"/>
<path d="M423.673 165.14C422.962 167.762 421.1 169.801 419.137 170.866C416.186 172.468 413.933 170 414.103 166.816C414.255 163.95 415.976 159.663 419.252 159.372C422.479 159.085 424.487 162.141 423.673 165.14Z" fill="#E4897B"/>
<path d="M394.979 160.353C395.008 161.173 394.597 161.851 394.06 161.865C393.523 161.879 393.064 161.225 393.033 160.405C393.003 159.584 393.415 158.907 393.953 158.893C394.489 158.879 394.949 159.533 394.979 160.353Z" fill="#263238"/>
<path d="M397.942 160.684C397.942 160.684 396.192 165.292 394.195 167.56C395.677 168.804 398.126 168.118 398.126 168.118L397.942 160.684Z" fill="#DE5753"/>
<path d="M402.647 171.14C402.311 171.194 401.956 171.229 401.579 171.238C401.446 171.242 401.333 171.137 401.328 171.004C401.323 170.87 401.431 170.76 401.561 170.756C405.173 170.657 406.763 168.1 406.779 168.074C406.847 167.96 406.996 167.925 407.11 167.994C407.225 168.064 407.262 168.212 407.193 168.326C407.131 168.431 405.759 170.636 402.647 171.14Z" fill="#263238"/>
<path d="M404.933 157.941C404.791 158.03 404.604 158.041 404.445 157.954C402.545 156.921 400.964 157.736 400.949 157.744C400.714 157.869 400.42 157.78 400.292 157.547C400.165 157.313 400.255 157.021 400.488 156.897C400.571 156.852 402.552 155.83 404.908 157.113C405.143 157.24 405.23 157.533 405.103 157.765C405.059 157.839 405.002 157.899 404.933 157.941Z" fill="#263238"/>
<path d="M390.337 156.663C390.248 156.645 390.161 156.601 390.091 156.531C389.9 156.344 389.896 156.037 390.082 155.847C391.944 153.943 394.12 154.386 394.219 154.393C394.48 154.448 394.649 154.704 394.599 154.965C394.547 155.225 394.296 155.393 394.037 155.341C393.948 155.319 392.268 155 390.773 156.527C390.655 156.649 390.49 156.692 390.337 156.663Z" fill="#263238"/>
<path d="M402 160.379C402 160.379 403.033 159.373 404.283 159.98" stroke="#263238" stroke-width="0.2991" stroke-miterlimit="10" stroke-linecap="round" stroke-linejoin="round"/>
<path d="M416.08 152.824C416.08 152.824 411.631 152.603 409.825 148.296C408.019 143.99 406.474 147.498 406.474 147.498C406.474 147.498 405.88 146.198 401.996 145.425C398.113 144.652 395.541 155.089 391.345 153.405C387.149 151.719 388.367 147.498 388.367 147.498C388.367 147.498 390.207 146.598 392.276 140.897C394.607 134.477 405.811 131.621 415.529 136.48C425.246 141.34 416.08 152.824 416.08 152.824Z" fill="#263238"/>
<path d="M462.128 292.661L421.38 301.152L410.709 285.705L404.346 300.081L386.593 290.015L396.039 276.214C378.537 233.69 384.517 196.593 384.517 196.593C392.271 192.824 402.203 192.206 402.203 192.206C392.036 207.648 407.194 240.541 407.194 240.541C416.305 215.133 427.208 190.597 427.208 190.597C436.471 189.91 444.459 192.389 444.459 192.389C444.459 192.389 448.428 250.338 453.688 265.06C458.929 279.766 462.128 292.661 462.128 292.661Z" fill="#263238"/>
<path opacity="0.1" d="M421.254 211.6L429.762 222.319C429.762 222.319 409.882 236.555 404.037 260.187L406.13 246.386L389.783 223.425L397.303 214.029L388.359 207.398C388.359 207.398 396.047 194.452 402.194 192.206C392.027 207.648 407.185 240.541 407.185 240.541C416.296 215.134 427.2 190.598 427.2 190.598C427.2 190.598 434.401 195.706 438.271 206.408L421.254 211.6Z" fill="white"/>
<path d="M508.421 283.089C509.099 285.873 504.049 289.495 497.142 291.178C490.233 292.861 484.084 291.966 483.405 289.181C482.727 286.397 487.777 282.775 494.685 281.092C501.592 279.409 507.742 280.303 508.421 283.089Z" stroke="#263238" stroke-width="1.1963" stroke-miterlimit="10"/>
<path d="M527.701 279.659L538.481 323.92C538.834 325.369 537.952 326.841 536.487 327.198L471.918 342.925C470.469 343.277 468.992 342.379 468.639 340.931L457.859 296.67C457.502 295.206 458.405 293.744 459.853 293.391L524.422 277.665C525.888 277.308 527.344 278.194 527.701 279.659Z" fill="#263238"/>
<path opacity="0.1" d="M527.701 279.659L538.481 323.92C538.834 325.369 537.952 326.841 536.487 327.198L471.918 342.925C470.469 343.277 468.992 342.379 468.639 340.931L457.859 296.67C457.502 295.206 458.405 293.744 459.853 293.391L524.422 277.665C525.888 277.308 527.344 278.194 527.701 279.659Z" fill="white"/>
<path d="M464.205 295.123L474.985 339.383C475.338 340.831 474.439 342.31 472.992 342.662L471.918 342.924C470.469 343.277 468.992 342.378 468.639 340.931L457.859 296.67C457.502 295.205 458.405 293.744 459.853 293.391L460.927 293.129C462.376 292.775 463.848 293.657 464.205 295.123Z" fill="#263238"/>
<path d="M461.644 292.993C463 292.663 464.424 293.669 464.754 295.026L469.752 315.547C470.034 316.701 471.197 317.409 472.351 317.128L531.666 302.681C532.82 302.4 533.528 301.236 533.247 300.083L528.232 279.494C527.88 278.052 526.427 277.169 524.987 277.52L460.391 293.252L461.644 292.993Z" fill="#263238"/>
<path opacity="0.2" d="M461.644 292.993C463 292.663 464.424 293.669 464.754 295.026L469.752 315.547C470.034 316.701 471.197 317.409 472.351 317.128L531.666 302.681C532.82 302.4 533.528 301.236 533.247 300.083L528.232 279.494C527.88 278.052 526.427 277.169 524.987 277.52L460.391 293.252L461.644 292.993Z" fill="white"/>
<path d="M507.812 318.948L503.01 320.117C502.58 320.222 502.147 319.959 502.042 319.529L499.148 307.646L505.506 306.098L508.4 317.979C508.505 318.411 508.241 318.843 507.812 318.948Z" fill="#263238"/>
<path d="M507.376 315.531L501.824 316.883C501.157 317.046 500.485 316.637 500.323 315.97L499.676 313.315C499.514 312.648 499.923 311.976 500.589 311.814L506.141 310.461C506.808 310.299 507.48 310.708 507.642 311.374L508.289 314.03C508.451 314.696 508.043 315.368 507.376 315.531Z" stroke="white" stroke-width="0.5982" stroke-miterlimit="10"/>
<path d="M489.003 269.234L487.227 279.412L499.845 275.993C499.845 275.993 499.425 267.01 494.613 266.74L489.003 269.234Z" fill="#E4897B"/>
<path d="M491.21 286.886L501.509 283.575L499.845 275.992L487.227 279.411L491.21 286.886Z" fill="#E4897B"/>
<path d="M488.211 265.142L488.534 269.71L496.891 267.987L496.234 263.697L488.211 265.142Z" fill="#0A5840"/>
<path opacity="0.7" d="M488.211 265.142L488.534 269.71L496.891 267.987L496.234 263.697L488.211 265.142Z" fill="white"/>
<path d="M444.244 192.258C451.675 195.201 458.652 198.45 465.647 202.289C469.124 204.218 472.579 206.27 475.982 208.659C477.687 209.852 479.387 211.14 481.085 212.59C482.775 214.075 484.466 215.666 486.146 217.973C486.566 218.595 486.972 219.136 487.375 219.923C487.567 220.283 487.781 220.682 487.938 221.017L488.259 221.817L488.89 223.42L489.397 224.923C489.747 225.929 490.027 226.913 490.294 227.877C490.577 228.852 490.843 229.818 491.08 230.773C492.095 234.605 492.88 238.405 493.639 242.196C495.11 249.794 496.242 257.37 497.037 265.065L488.042 266.738C488.042 266.738 484.666 252.314 482.263 245.202C481.085 241.639 479.834 238.106 478.582 234.678C478.271 233.81 477.946 232.971 477.613 232.147C477.291 231.304 476.95 230.489 476.612 229.723L476.114 228.556L475.61 227.542L475.362 227.035C475.302 226.947 475.271 226.937 475.233 226.881C475.209 226.814 475.009 226.617 474.887 226.458C474.266 225.73 473.126 224.735 471.884 223.81C470.634 222.86 469.248 221.917 467.782 221.011C464.837 219.209 461.687 217.472 458.447 215.832C451.995 212.561 445.136 209.44 438.5 206.595L444.244 192.258Z" fill="#263238"/>
<path d="M526.736 196.19C563.412 196.19 593.143 166.459 593.143 129.783C593.143 93.1067 563.412 63.375 526.736 63.375C490.06 63.375 460.328 93.1067 460.328 129.783C460.328 166.459 490.06 196.19 526.736 196.19Z" fill="#0A5840"/>
<path opacity="0.7" d="M526.736 196.19C563.412 196.19 593.143 166.459 593.143 129.783C593.143 93.1067 563.412 63.375 526.736 63.375C490.06 63.375 460.328 93.1067 460.328 129.783C460.328 166.459 490.06 196.19 526.736 196.19Z" fill="white"/>
<path d="M458.481 162.06C462.354 162.06 465.494 158.921 465.494 155.048C465.494 151.175 462.354 148.035 458.481 148.035C454.608 148.035 451.469 151.175 451.469 155.048C451.469 158.921 454.608 162.06 458.481 162.06Z" fill="#0A5840"/>
<path opacity="0.7" d="M458.481 162.06C462.354 162.06 465.494 158.921 465.494 155.048C465.494 151.175 462.354 148.035 458.481 148.035C454.608 148.035 451.469 151.175 451.469 155.048C451.469 158.921 454.608 162.06 458.481 162.06Z" fill="white"/>
<path d="M447.486 159.867C447.333 162.083 445.414 163.755 443.199 163.603C440.983 163.451 439.311 161.531 439.463 159.317C439.615 157.1 441.535 155.427 443.749 155.58C445.966 155.733 447.639 157.652 447.486 159.867Z" fill="#0A5840"/>
<path opacity="0.7" d="M447.486 159.867C447.333 162.083 445.414 163.755 443.199 163.603C440.983 163.451 439.311 161.531 439.463 159.317C439.615 157.1 441.535 155.427 443.749 155.58C445.966 155.733 447.639 157.652 447.486 159.867Z" fill="white"/>
<path d="M435.391 158.791C435.315 159.898 434.355 160.735 433.248 160.658C432.14 160.581 431.303 159.622 431.38 158.515C431.456 157.408 432.416 156.57 433.523 156.647C434.631 156.724 435.468 157.683 435.391 158.791Z" fill="#0A5840"/>
<path opacity="0.7" d="M435.391 158.791C435.315 159.898 434.355 160.735 433.248 160.658C432.14 160.581 431.303 159.622 431.38 158.515C431.456 157.408 432.416 156.57 433.523 156.647C434.631 156.724 435.468 157.683 435.391 158.791Z" fill="white"/>
<path d="M536.03 161.418C549.471 156.61 555.524 139.17 549.548 122.465C543.573 105.761 527.833 96.1159 514.392 100.924C500.951 105.731 494.899 123.171 500.874 139.876C506.849 156.581 522.589 166.225 536.03 161.418Z" fill="#0A5840"/>
<path d="M535.858 154.895C546.707 151.015 551.592 136.939 546.769 123.455C541.946 109.972 529.242 102.187 518.393 106.068C507.545 109.948 502.66 124.024 507.483 137.508C512.305 150.991 525.01 158.776 535.858 154.895Z" fill="white"/>
<path d="M544.491 124.283C548.354 135.081 544.441 146.354 535.753 149.462C527.064 152.57 516.89 146.334 513.028 135.536C509.165 124.738 513.078 113.465 521.767 110.357C530.455 107.25 540.63 113.485 544.491 124.283Z" fill="#0A5840"/>
<path d="M541.537 125.339C544.504 133.631 541.712 142.213 535.301 144.505C528.892 146.797 521.292 141.933 518.326 133.641C515.36 125.349 518.151 116.767 524.562 114.475C530.97 112.183 538.57 117.047 541.537 125.339Z" fill="white"/>
<path d="M539.358 126.631C541.474 132.544 539.647 138.605 535.277 140.167C530.908 141.73 525.652 138.203 523.537 132.29C521.421 126.376 523.248 120.315 527.618 118.753C531.986 117.191 537.243 120.717 539.358 126.631Z" fill="#0A5840"/>
<path d="M537.827 127.177C539.355 131.449 538.194 135.769 535.235 136.827C532.275 137.886 528.638 135.282 527.11 131.01C525.583 126.74 526.744 122.42 529.703 121.36C532.661 120.303 536.3 122.907 537.827 127.177Z" fill="white"/>
<path d="M573.085 107.879L565.132 110.724L563.602 117.956L569.371 122.577L577.324 119.733L571.423 115.159L573.085 107.879Z" fill="#0A5840"/>
<path d="M533.703 128.65L572.641 114.725" stroke="#263238" stroke-width="2" stroke-miterlimit="10" stroke-linecap="round" stroke-linejoin="round"/>
</svg>
