<svg width="406" height="234" viewBox="0 0 406 234" fill="none" xmlns="http://www.w3.org/2000/svg">
<path d="M148.824 62.8923C148.561 61.232 147.003 60.0985 145.343 60.361C143.682 60.6235 142.549 62.182 142.811 63.843C143.074 65.5033 144.633 66.6368 146.293 66.3743C147.953 66.1111 149.086 64.5527 148.824 62.8923Z" fill="white"/>
<path d="M28.7535 11.9109C28.491 10.2505 26.9326 9.11706 25.2722 9.37958C23.6119 9.6421 22.4784 11.2005 22.7409 12.8609C23.0034 14.5213 24.5625 15.6547 26.2222 15.3922C27.8832 15.1297 29.0161 13.5712 28.7535 11.9109Z" stroke="white" stroke-width="1.3235" stroke-miterlimit="10"/>
<path d="M33.9145 140.308C33.6007 138.32 31.7347 136.964 29.7469 137.278C27.7592 137.592 26.4027 139.457 26.7172 141.445C27.0309 143.433 28.8976 144.789 30.8847 144.476C32.8725 144.162 34.2289 142.296 33.9145 140.308Z" fill="white"/>
<path d="M15.132 194.646C12.337 193.38 9.04406 194.619 7.77778 197.414C6.51151 200.21 7.75061 203.502 10.5463 204.769C13.3414 206.035 16.6343 204.796 17.9006 202C19.1668 199.205 17.9277 195.913 15.132 194.646Z" stroke="white" stroke-width="1.3235" stroke-miterlimit="10"/>
<path d="M345.929 1.64106C343.134 0.374792 339.841 1.61389 338.575 4.40957C337.308 7.20463 338.547 10.4976 341.343 11.7638C344.138 13.0301 347.431 11.791 348.697 8.99533C349.964 6.20026 348.725 2.90796 345.929 1.64106Z" stroke="white" stroke-width="1.3235" stroke-miterlimit="10"/>
<path d="M211.945 41.2126C210.718 37.937 207.068 36.2767 203.793 37.504C200.517 38.7314 198.857 42.3813 200.084 45.657C201.311 48.9326 204.961 50.5923 208.236 49.3656C211.512 48.1376 213.172 44.4877 211.945 41.2126Z" fill="#0A5840"/>
<path d="M353.253 206.857C352.156 208.924 352.942 211.489 355.009 212.586C357.076 213.683 359.641 212.897 360.738 210.83C361.835 208.763 361.049 206.198 358.982 205.101C356.915 204.004 354.35 204.79 353.253 206.857Z" fill="white"/>
<path d="M158.314 9.5052H106.726C105.587 9.5052 104.664 8.58175 104.664 7.44334C104.664 6.30431 105.588 5.38086 106.726 5.38086H158.314C159.453 5.38086 160.377 6.30431 160.377 7.44334C160.377 8.58237 159.453 9.5052 158.314 9.5052Z" fill="#0A5840"/>
<path d="M403.273 181.422H372.289C371.15 181.422 370.227 180.499 370.227 179.36C370.227 178.221 371.15 177.298 372.289 177.298H403.273C404.412 177.298 405.334 178.221 405.334 179.36C405.334 180.499 404.411 181.422 403.273 181.422Z" fill="#0A5840"/>
<path d="M333.43 50.6494H383.411" stroke="white" stroke-width="1.3235" stroke-miterlimit="10"/>
<path d="M0.796875 112.937H51.2927" stroke="white" stroke-width="1.3235" stroke-miterlimit="10"/>
<path d="M324.736 203.087C324.736 203.087 285.638 266.613 129.934 208.514C13.9746 165.244 77.5106 62.4791 139.418 98.9008C201.325 135.322 262.034 100.302 262.034 100.302C262.034 100.302 308.473 80.5967 333.144 114.918C333.144 114.918 361.715 162.115 324.736 203.087Z" stroke="white" stroke-width="1.3695" stroke-miterlimit="10"/>
<path d="M91.8951 87.9183H39.1694C38.1916 87.9183 37.3984 87.1258 37.3984 86.1474V36.3477H91.8951V87.9183Z" fill="#0A5840"/>
<path d="M56.2422 60.9684L70.1335 56.0713L64.5236 69.4283L62.7613 62.7498L56.2422 60.9684Z" fill="white"/>
<path d="M77.229 49.291H51.8047V74.7153H77.229V49.291Z" stroke="white" stroke-width="1.6615" stroke-miterlimit="10"/>
<path d="M54.6681 46.9443H49.4609V52.1515H54.6681V46.9443Z" fill="white"/>
<path d="M79.8322 46.9443H74.625V52.1515H79.8322V46.9443Z" fill="white"/>
<path d="M54.6681 72.1133H49.4609V77.3204H54.6681V72.1133Z" fill="white"/>
<path d="M79.8322 72.1133H74.625V77.3204H79.8322V72.1133Z" fill="white"/>
<path d="M369.319 154.089H321.814C320.933 154.089 320.219 153.375 320.219 152.493V107.626H369.318L369.319 154.089Z" fill="#0A5840"/>
<path d="M354.273 118.983V126.685H354.205L351.266 120.233C351.153 119.962 351.047 119.788 350.945 119.71C350.844 119.631 350.659 119.591 350.389 119.591H346.537V140.4C346.537 140.603 346.559 140.744 346.605 140.823C346.649 140.902 346.774 140.986 346.976 141.076L350.05 142.664V142.731H339.51V142.665L342.585 141.077C342.877 140.92 343.024 140.694 343.024 140.401V119.592H339.174C338.903 119.592 338.722 119.626 338.633 119.694C338.543 119.761 338.43 119.941 338.295 120.234L335.356 126.687H335.289V118.985H354.273V118.983Z" fill="white"/>
<path d="M283.827 68.3086C297.224 68.3086 308.084 57.4484 308.084 44.0518C308.084 30.6551 297.224 19.7949 283.827 19.7949C270.43 19.7949 259.57 30.6551 259.57 44.0518C259.57 57.4484 270.43 68.3086 283.827 68.3086Z" fill="white"/>
<path d="M287.908 31.4551L271.375 47.9883V53.9515H293.419V51.7469H279.542L293.871 37.4183L287.908 31.4551ZM290.763 37.4177L289.01 39.1701L286.155 36.3151L287.908 34.5627L290.763 37.4177ZM273.58 51.7463V48.8913L284.602 37.8692L287.457 40.7242L276.435 51.7463H273.58Z" fill="#0A5840"/>
<path d="M185.786 164.85L178.056 207.334L133.914 220L139.77 229.932H199.487L197.011 183.501L185.786 164.85Z" fill="#D99789"/>
<path d="M194.758 143.572C194.758 143.572 181.337 147.902 174.797 186.054L196.758 190.713L194.758 143.572Z" fill="white"/>
<path d="M272.331 145.902C266.919 143.887 252.211 138.814 234.167 135.895C234.167 135.895 213.513 136.357 213.108 136.531C212.702 136.706 194.763 143.573 194.763 143.573C194.763 143.573 184.272 158.581 193.272 231.109H265.27L258.721 162.372L272.865 148.437C273.667 147.647 273.386 146.295 272.331 145.902Z" fill="white"/>
<path d="M189.623 189.198C189.623 189.198 188.796 174.8 189.605 165.906" stroke="black" stroke-width="1.3031" stroke-miterlimit="10" stroke-linecap="round" stroke-linejoin="round"/>
<path d="M272.114 208.644L208.328 212.085V224.634C208.328 224.634 245.005 233.253 276.901 230.976L272.114 208.644Z" fill="#EBB3A2"/>
<path d="M208.333 212.084C208.333 212.084 192.293 203.682 182.554 211.149C182.554 211.149 174.89 216.958 169.289 224.632H216.168L208.333 212.084Z" fill="#EBB3A2"/>
<path d="M254.172 181.014L262.779 219.932C263.813 226.298 270.454 230.975 276.904 230.975C285.173 230.975 291.39 223.433 289.814 215.316L282.708 178.731L254.172 181.014Z" fill="#EBB3A2"/>
<path d="M246.828 167.335L250.88 190.713L287.351 189.467C287.351 189.467 283.439 148.975 272.336 145.901L246.828 167.335Z" fill="white"/>
<path d="M256.318 190.713H250.88L246.828 167.335" stroke="black" stroke-width="1.3031" stroke-miterlimit="10" stroke-linecap="round" stroke-linejoin="round"/>
<path d="M256.318 190.713H250.88L246.828 167.335" stroke="black" stroke-width="1.3031" stroke-miterlimit="10" stroke-linecap="round" stroke-linejoin="round"/>
<path d="M204.59 108.158C207.409 105.339 207.409 100.767 204.59 97.9473C201.77 95.1277 197.199 95.1277 194.379 97.9473C191.559 100.767 191.559 105.339 194.379 108.158C197.199 110.978 201.77 110.978 204.59 108.158Z" fill="#D99789"/>
<path d="M218.539 113.994C231.664 113.994 242.304 104.1 242.304 91.8962C242.304 79.6922 231.664 69.7988 218.539 69.7988C205.413 69.7988 194.773 79.6922 194.773 91.8962C194.773 104.1 205.413 113.994 218.539 113.994Z" fill="#2A2A2A"/>
<path d="M212.414 118.367L213.311 143.83L235.734 142.011L233.838 105.055L212.414 118.367Z" fill="#EBB3A2"/>
<path d="M212.929 132.951C212.929 132.951 229.172 132.065 230.398 112.205L212.547 120.918L212.929 132.951Z" fill="#D99789"/>
<path d="M199.966 84.1759C198.775 84.2135 197.723 84.9572 197.306 86.0722C196.086 89.3311 194.165 96.8633 196.552 108.173C199.457 121.942 202.923 128.208 217.769 125.084C223.009 123.982 227.798 119.016 231.075 114.783C232.861 112.476 234.261 111.884 234.17 109.028C233.728 95.1665 232.033 83.1523 232.033 83.1523L199.966 84.1759Z" fill="#EBB3A2"/>
<path d="M229.673 103.683C229.673 103.683 224.611 105.374 225.669 99.1777C226.727 92.981 227.684 85.2425 221.916 85.5446C216.147 85.8466 204.287 91.4003 196.766 84.4593C196.766 84.4593 196.65 76.8085 224.006 77.7153C251.362 78.6227 229.673 103.683 229.673 103.683Z" fill="#2A2A2A"/>
<path d="M244.095 105.362C245.018 101.431 242.579 97.4955 238.648 96.5724C234.717 95.6493 230.782 98.0878 229.859 102.019C228.936 105.95 231.374 109.885 235.305 110.808C239.236 111.731 243.172 109.293 244.095 105.362Z" fill="#EBB3A2"/>
<path d="M240.182 101.447C240.182 101.447 235.058 100.084 234.164 106.464" stroke="black" stroke-width="1.3031" stroke-miterlimit="10" stroke-linecap="round" stroke-linejoin="round"/>
<path d="M197.008 110.273C197.008 110.273 205.75 105.758 218.529 111.504C224.064 113.993 225.667 99.1758 225.667 99.1758L230.395 99.6137C230.395 99.6137 233.321 109.101 231.069 114.781C228.262 121.862 221.775 128.091 208.52 125.871C196.764 123.904 197.008 110.273 197.008 110.273Z" fill="#2A2A2A"/>
<path d="M203.723 102.764L203.238 105.155C203.083 105.916 203.611 106.647 204.382 106.739L205.959 106.929" stroke="black" stroke-width="1.3031" stroke-miterlimit="10" stroke-linecap="round" stroke-linejoin="round"/>
<path d="M213.531 101.781C214.446 101.781 215.187 101.039 215.187 100.125C215.187 99.2102 214.446 98.4688 213.531 98.4688C212.616 98.4688 211.875 99.2102 211.875 100.125C211.875 101.039 212.616 101.781 213.531 101.781Z" fill="black"/>
<path d="M201.062 100.123C201.062 100.996 200.354 101.705 199.48 101.705C198.606 101.705 197.898 100.996 197.898 100.123C197.898 99.2495 198.606 98.541 199.48 98.541C200.354 98.541 201.062 99.2495 201.062 100.123Z" fill="black"/>
<path d="M209.836 92.7803H217.468" stroke="black" stroke-width="3.475" stroke-miterlimit="10" stroke-linecap="round" stroke-linejoin="round"/>
<path d="M197.695 92.7803H201.514" stroke="black" stroke-width="3.475" stroke-miterlimit="10" stroke-linecap="round" stroke-linejoin="round"/>
<path d="M202.68 112.024H211.184C211.184 112.024 211.006 114.391 206.932 114.391C203.538 114.391 202.68 112.024 202.68 112.024Z" fill="white"/>
<path d="M234.17 135.896L244.296 137.757C244.296 137.757 237.83 150.594 217.642 149.809C201.787 149.193 207.242 138.838 207.242 138.838L213.111 136.532L234.17 135.896Z" fill="#EBB3A2"/>
<path opacity="0.59" d="M41.4766 167.378L186.724 65.0811L265.279 231.108L151.473 226.575L41.4766 167.378Z" fill="url(#paint0_linear_185_3994)"/>
<path d="M147.734 223.938H201.265C204.575 223.938 207.259 226.622 207.259 229.933H147.735V223.938H147.734Z" fill="#364556"/>
<path d="M152.641 229.933H61.2919L46.1868 174.243C45.2016 170.611 47.9367 167.035 51.7003 167.035H131.211C133.79 167.035 136.05 168.763 136.724 171.252L152.641 229.933Z" fill="#364556"/>
<path d="M147.74 229.933H53.0263L37.9212 174.243C36.936 170.611 39.6711 167.035 43.4347 167.035H126.31C128.889 167.035 131.148 168.763 131.824 171.252L147.74 229.933Z" fill="#0A5840"/>
<path d="M91.4788 205.575C94.8703 204.181 96.4895 200.301 95.0953 196.91C93.7012 193.518 89.8216 191.899 86.43 193.293C83.0385 194.687 81.4193 198.567 82.8134 201.958C84.2076 205.35 88.0872 206.969 91.4788 205.575Z" fill="white"/>
<path d="M381.96 231.108H15.7109" stroke="#2A2A2A" stroke-width="3" stroke-miterlimit="10" stroke-linecap="round" stroke-linejoin="round"/>
<defs>
<linearGradient id="paint0_linear_185_3994" x1="93.7693" y1="230.48" x2="208.749" y2="158.844" gradientUnits="userSpaceOnUse">
<stop stop-color="white"/>
<stop offset="1" stop-color="white" stop-opacity="0"/>
</linearGradient>
</defs>
</svg>
