<svg width="500" height="500" viewBox="0 0 500 500" fill="none" xmlns="http://www.w3.org/2000/svg">
<path d="M220.795 468.831C219.299 467.548 215.961 463.483 218.535 458.754C219.479 457.02 221.482 456.163 223.297 455.399C225.111 454.635 227.017 453.971 228.518 452.694C231.349 450.286 232.13 446.285 234.009 443.072C236.166 439.384 240.193 436.621 244.447 436.814C249.319 437.035 253.381 441.014 255.223 445.551C257.065 450.087 257.129 455.125 257.167 460.024C257.188 462.733 257.068 465.787 255.079 467.616C253.245 469.303 250.485 469.324 248 469.247C239.126 468.974 230.252 468.702 221.378 468.429" fill="#F5F5F5"/>
<path d="M271.71 395.626H201.699L214.31 470.825C214.861 474.109 217.238 476.641 220.287 477.52C220.368 477.545 220.451 477.564 220.532 477.587C220.74 477.64 220.941 477.711 221.155 477.748C221.617 477.843 222.094 477.892 222.579 477.912C222.583 477.935 222.587 477.961 222.59 477.984L222.931 477.93H222.933H254.136C254.723 477.93 255.296 477.87 255.851 477.759C259.536 477.189 262.485 474.232 262.934 470.409L269.013 418.596L269.287 416.536H269.255L271.663 396.016L271.71 395.626ZM258.502 443.594H251.317L252.042 421.77H260.366L258.502 443.594ZM261.064 421.769H267.942L265.381 443.593H259.199L261.064 421.769ZM240.538 467.787L240.101 448.827H250.447L249.817 467.787H240.538ZM229.353 448.827H239.406L239.843 467.787H230.826L229.353 448.827ZM230.13 467.787H221.701C220.9 462.668 219.858 456.015 218.729 448.827H228.656L230.13 467.787ZM228.946 443.594L227.25 421.77H238.783L239.286 443.594H228.946ZM239.981 443.594L239.478 421.77H251.347L250.622 443.594H239.981ZM239.358 416.535L238.893 396.324H252.193L251.522 416.535H239.358ZM238.663 416.535H226.843L225.272 396.324H238.196L238.663 416.535ZM226.147 416.535H213.642C213.199 413.744 212.779 411.101 212.4 408.724C211.095 400.552 210.605 397.48 210.333 396.324H224.576L226.147 416.535ZM226.553 421.769L228.249 443.593H217.908C217.56 441.379 217.208 439.139 216.855 436.897C216.044 431.745 215.233 426.595 214.47 421.769H226.553ZM217.204 443.594H210.448L206.787 421.77H213.765C214.832 428.514 216.014 436.021 217.204 443.594ZM218.026 448.827C219.056 455.388 220.069 461.857 220.997 467.787H214.506L211.326 448.827H218.026ZM250.514 467.787L251.144 448.827H258.055L256.435 467.787H250.514ZM252.216 416.535L252.887 396.324H262.54L260.813 416.535H252.216ZM209.67 396.324C209.948 397.785 211.225 405.738 212.937 416.535H205.91L202.52 396.324H209.67ZM262.544 467.787H257.133L258.753 448.827H264.769L262.544 467.787ZM268.557 416.535H261.512L263.239 396.324H270.929L268.557 416.535Z" fill="#E0E0E0"/>
<path d="M275.116 321.299L237.349 333.07C234.739 333.883 231.964 332.427 231.151 329.817L214.858 277.543C214.045 274.933 215.501 272.158 218.111 271.345L242.063 263.88L266.56 277.211L278.37 315.101C279.182 317.71 277.726 320.485 275.116 321.299Z" fill="#EBEBEB"/>
<path d="M242.062 263.879L246.647 278.591C247.404 281.018 249.984 282.373 252.411 281.617L266.558 277.21L242.062 263.879Z" fill="#E0E0E0"/>
<path d="M243.293 278.978C243.352 279.167 239.488 280.539 234.664 282.043C229.838 283.547 225.88 284.613 225.821 284.424C225.762 284.235 229.625 282.863 234.451 281.359C239.275 279.855 243.234 278.789 243.293 278.978Z" fill="#FAFAFA"/>
<path d="M257.171 283.779C257.23 283.968 250.84 286.128 242.9 288.602C234.957 291.078 228.473 292.931 228.414 292.742C228.355 292.553 234.744 290.393 242.687 287.918C250.627 285.443 257.112 283.59 257.171 283.779Z" fill="#FAFAFA"/>
<path d="M261.925 289.918C261.984 290.107 255.015 292.448 246.36 295.145C237.702 297.843 230.637 299.877 230.578 299.688C230.519 299.499 237.489 297.159 246.147 294.461C254.802 291.763 261.866 289.729 261.925 289.918Z" fill="#FAFAFA"/>
<path d="M263.968 296.471C264.027 296.66 257.057 299.001 248.402 301.698C239.744 304.397 232.68 306.43 232.621 306.241C232.562 306.052 239.531 303.712 248.189 301.013C256.843 298.316 263.909 296.282 263.968 296.471Z" fill="#FAFAFA"/>
<path d="M266.011 303.025C266.07 303.214 259.1 305.555 250.445 308.252C241.787 310.951 234.723 312.984 234.664 312.795C234.605 312.606 241.574 310.266 250.232 307.567C258.887 304.87 265.952 302.836 266.011 303.025Z" fill="#FAFAFA"/>
<path d="M268.054 309.578C268.113 309.767 261.143 312.108 252.488 314.805C243.83 317.503 236.766 319.537 236.707 319.348C236.648 319.159 243.617 316.819 252.275 314.12C260.929 311.423 267.995 309.389 268.054 309.578Z" fill="#FAFAFA"/>
<path d="M435.384 117.311L398.516 102.969C395.969 101.978 394.706 99.109 395.698 96.562L415.549 45.532C416.54 42.984 419.409 41.722 421.956 42.713L445.338 51.808L456.18 77.503L441.792 114.491C440.8 117.04 437.931 118.301 435.384 117.311Z" fill="#EBEBEB"/>
<path d="M445.335 51.808L439.748 66.17C438.826 68.539 440 71.207 442.369 72.129L456.177 77.503L445.335 51.808Z" fill="#E0E0E0"/>
<path d="M436.886 64.3821C436.814 64.5661 432.937 63.2311 428.228 61.3991C423.517 59.5661 419.758 57.9321 419.829 57.7471C419.901 57.5621 423.777 58.8981 428.488 60.7301C433.197 62.5621 436.958 64.1971 436.886 64.3821Z" fill="#FAFAFA"/>
<path d="M444.744 76.787C444.672 76.971 438.329 74.676 430.579 71.661C422.825 68.645 416.6 66.051 416.672 65.866C416.744 65.681 423.085 67.976 430.839 70.992C438.589 74.008 444.816 76.602 444.744 76.787Z" fill="#FAFAFA"/>
<path d="M444.633 84.551C444.561 84.736 437.652 82.22 429.203 78.934C420.751 75.646 413.96 72.832 414.032 72.648C414.104 72.464 421.011 74.978 429.463 78.266C437.912 81.552 444.705 84.367 444.633 84.551Z" fill="#FAFAFA"/>
<path d="M442.147 90.948C442.075 91.133 435.166 88.617 426.718 85.331C418.266 82.043 411.475 79.229 411.547 79.045C411.619 78.861 418.526 81.375 426.978 84.663C435.426 87.949 442.218 90.764 442.147 90.948Z" fill="#FAFAFA"/>
<path d="M439.656 97.3459C439.584 97.5309 432.675 95.0149 424.226 91.7289C415.774 88.4409 408.983 85.6269 409.055 85.4429C409.127 85.2579 416.034 87.7729 424.486 91.0609C432.935 94.3469 439.728 97.1609 439.656 97.3459Z" fill="#FAFAFA"/>
<path d="M437.167 103.743C437.095 103.928 430.186 101.412 421.738 98.126C413.286 94.838 406.495 92.024 406.567 91.84C406.639 91.655 413.546 94.17 421.998 97.458C430.447 100.744 437.239 103.559 437.167 103.743Z" fill="#FAFAFA"/>
<path d="M88.9969 263.298C90.6009 263.531 91.7109 265.032 91.4769 266.653C91.3289 267.68 91.1819 268.688 91.1149 269.133L87.7219 291.443C87.5589 292.512 86.5699 293.248 85.5119 293.087L34.4449 285.319C33.4329 285.165 32.7159 284.242 32.8089 283.212L35.4159 254.297C35.5169 253.173 36.5359 252.366 37.6409 252.534L49.1919 254.291C50.2829 254.457 51.2799 255.006 52.0069 255.842L54.0819 258.229L88.9969 263.298Z" fill="#E0E0E0"/>
<path d="M92.3386 266.881L36.543 258.392L31.4202 292.065L87.2158 300.553L92.3386 266.881Z" fill="#F5F5F5"/>
<path d="M31.6519 260.746L30.5709 296.51C30.5519 297.145 31.0049 297.694 31.6279 297.789L86.0049 306.06C86.6479 306.158 87.2589 305.74 87.4079 305.1L95.4869 270.401C95.6529 269.686 95.1819 268.982 94.4629 268.872L33.0879 259.536C32.3479 259.424 31.6749 259.991 31.6519 260.746Z" fill="#EBEBEB"/>
<path d="M162.303 266.263C151.272 271.977 142.814 281.815 136.732 292.647C130.65 303.479 126.73 315.365 122.847 327.165L119.449 388.024C132.284 366.189 142.586 340.52 145.369 315.345C142.522 315.091 139.675 314.838 136.828 314.584C142.555 313.71 147.362 309.56 150.42 304.64C153.478 299.72 155.053 294.046 156.589 288.461C153.115 288.977 149.642 289.494 146.168 290.01C154.33 284.564 160.246 275.856 162.303 266.263Z" fill="#455A64"/>
<g opacity="0.3">
<path d="M162.303 266.263C151.272 271.977 142.814 281.815 136.732 292.647C130.65 303.479 126.73 315.365 122.847 327.165L119.449 388.024C132.284 366.189 142.586 340.52 145.369 315.345C142.522 315.091 139.675 314.838 136.828 314.584C142.555 313.71 147.362 309.56 150.42 304.64C153.478 299.72 155.053 294.046 156.589 288.461C153.115 288.977 149.642 289.494 146.168 290.01C154.33 284.564 160.246 275.856 162.303 266.263Z" fill="black"/>
</g>
<path d="M117.551 402.284C117.551 402.284 89.6916 368.939 90.0136 337.108H101.268C101.268 337.108 89.0436 329.07 90.0116 324.568C90.9786 320.066 91.3006 303.025 91.3006 303.025L101.59 305.597C101.59 305.597 93.8726 301.739 92.9086 295.63C91.9436 289.521 95.1596 261.226 95.1596 261.226C95.1596 261.226 107.7 274.409 111.558 287.913C115.416 301.417 125.544 317.172 122.57 358.329C119.595 399.485 117.551 402.284 117.551 402.284Z" fill="#455A64"/>
<path d="M131.671 405.431C131.671 405.431 161.853 385.324 168.559 359.662L159.511 357.2C159.511 357.2 171.097 353.412 171.304 349.581C171.511 345.75 174.981 331.979 174.981 331.979L166.146 331.796C166.146 331.796 173.194 330.382 175.306 325.682C177.418 320.981 181.024 297.53 181.024 297.53C181.024 297.53 168.058 305.385 162.001 315.398C155.944 325.411 144.355 335.862 137.741 369.601C131.13 403.34 131.671 405.431 131.671 405.431Z" fill="#455A64"/>
<path d="M102.768 290.298C102.777 290.296 102.811 290.413 102.868 290.644C102.929 290.901 103.009 291.24 103.111 291.67C103.32 292.605 103.616 293.933 103.995 295.627C104.381 297.345 104.83 299.451 105.317 301.904C105.812 304.355 106.39 307.144 106.955 310.241C108.148 316.423 109.407 323.815 110.703 332.038C111.959 340.267 113.213 349.335 114.328 358.877C115.42 368.425 116.268 377.542 116.923 385.842C117.537 394.145 117.998 401.63 118.247 407.921C118.404 411.065 118.477 413.912 118.554 416.412C118.64 418.911 118.683 421.065 118.699 422.825C118.717 424.561 118.731 425.92 118.741 426.879C118.74 427.321 118.739 427.669 118.739 427.933C118.736 428.171 118.729 428.292 118.72 428.292C118.711 428.292 118.699 428.171 118.685 427.934C118.673 427.67 118.656 427.322 118.636 426.881C118.603 425.924 118.556 424.565 118.496 422.83C118.449 421.071 118.376 418.919 118.263 416.422C118.159 413.924 118.059 411.08 117.879 407.938C117.583 401.652 117.084 394.175 116.444 385.879C115.763 377.586 114.902 368.478 113.81 358.936C112.696 349.4 111.457 340.338 110.228 332.109C108.959 323.887 107.739 316.494 106.593 310.306C106.051 307.206 105.499 304.414 105.031 301.958C104.571 299.501 104.151 297.389 103.796 295.665C103.459 293.962 103.194 292.629 103.008 291.689C102.927 291.255 102.864 290.912 102.816 290.652C102.776 290.421 102.76 290.3 102.768 290.298Z" fill="#263238"/>
<path d="M113.685 422.703C113.685 422.703 88.1908 393.776 80.2748 376.29L86.2508 373.737C81.9188 374.452 77.4818 372.59 74.1228 369.763C70.7638 366.936 68.2978 363.217 65.8788 359.553L73.7508 358.223C66.5918 356.214 60.2848 351.328 56.5508 344.899C65.8408 346.427 74.2448 351.529 81.1698 357.907C86.7788 363.072 91.5278 369.067 96.0888 375.193C98.3138 378.181 100.261 381.365 101.883 384.719C106.166 393.575 113.699 412.08 113.685 422.703Z" fill="#455A64"/>
<path d="M168.959 314.367C168.967 314.371 168.927 314.471 168.841 314.661C168.741 314.876 168.611 315.153 168.449 315.502C168.079 316.267 167.559 317.342 166.897 318.711C165.53 321.488 163.594 325.527 161.251 330.541C158.9 335.551 156.196 341.56 153.29 348.274C150.408 354.998 147.339 362.433 144.285 370.304C141.249 378.184 138.517 385.752 136.125 392.667C133.758 399.591 131.716 405.856 130.086 411.144C128.447 416.429 127.162 420.72 126.305 423.694C125.874 425.152 125.535 426.297 125.294 427.112C125.18 427.479 125.089 427.771 125.019 427.997C124.954 428.196 124.917 428.296 124.908 428.294C124.899 428.292 124.92 428.186 124.968 427.983C125.026 427.753 125.1 427.456 125.194 427.084C125.413 426.262 125.72 425.108 126.111 423.639C126.908 420.647 128.14 416.339 129.735 411.036C131.322 405.731 133.329 399.449 135.672 392.511C138.041 385.582 140.761 378.003 143.8 370.115C146.856 362.238 149.942 354.801 152.85 348.082C155.783 341.373 158.523 335.376 160.918 330.383C163.305 325.387 165.292 321.37 166.716 318.62C167.415 317.269 167.965 316.209 168.356 315.454C168.537 315.115 168.682 314.846 168.794 314.637C168.895 314.454 168.951 314.363 168.959 314.367Z" fill="#263238"/>
<path d="M115.847 435.098C115.829 435.1 115.788 434.917 115.725 434.566C115.659 434.157 115.576 433.65 115.476 433.031C115.282 431.696 114.95 429.77 114.483 427.405C114.025 425.037 113.37 422.241 112.535 419.166C111.673 416.099 110.616 412.757 109.327 409.313C108.018 405.875 106.603 402.668 105.222 399.796C103.816 396.936 102.459 394.404 101.238 392.325C100.025 390.242 99.0022 388.577 98.2652 387.447C97.9312 386.916 97.6582 386.481 97.4372 386.13C97.2532 385.825 97.1632 385.661 97.1772 385.65C97.1922 385.64 97.3102 385.785 97.5232 386.07C97.7652 386.406 98.0662 386.824 98.4332 387.334C99.2232 388.432 100.297 390.07 101.554 392.137C102.82 394.199 104.216 396.723 105.652 399.584C107.062 402.457 108.498 405.675 109.814 409.129C111.109 412.589 112.158 415.952 112.998 419.04C113.811 422.136 114.432 424.952 114.845 427.337C115.267 429.719 115.545 431.658 115.677 433.005C115.738 433.63 115.789 434.142 115.829 434.555C115.859 434.909 115.865 435.096 115.847 435.098Z" fill="#263238"/>
<path d="M149.489 428.294H93.6914V439.676H149.489V428.294Z" fill="#0A5840"/>
<path d="M99.0039 439.676L105.04 477.96H138.756L144.382 439.676H99.0039Z" fill="#0A5840"/>
<path d="M146.062 439.676C146.062 439.82 135.507 439.936 122.489 439.936C109.467 439.936 98.9141 439.82 98.9141 439.676C98.9141 439.532 109.467 439.416 122.489 439.416C135.507 439.416 146.062 439.532 146.062 439.676Z" fill="#263238"/>
<path d="M331.834 57.191H82.668V213.265H331.834V57.191Z" fill="white"/>
<path d="M331.834 57.191H82.668V71.494H331.834V57.191Z" fill="#455A64"/>
<path d="M331.834 210.165H82.5742V238.304H331.834V210.165Z" fill="#F5F5F5"/>
<path d="M133.815 223.784H136.044L136.747 225.243H137.226L134.996 220.585H134.873L132.637 225.243H133.121L133.815 223.784ZM134.932 221.461L135.834 223.349H134.027L134.932 221.461Z" fill="#263238"/>
<path d="M137.555 226.235H132.277V226.607H137.555V226.235Z" fill="#263238"/>
<path d="M101.019 220.324C101.014 220.324 101.009 220.324 101.004 220.324H100.678C100.673 220.324 100.668 220.324 100.663 220.324C99.6386 220.324 98.8086 221.27 98.8086 222.325C98.8086 223.381 99.9456 225.555 100.663 226.295C100.663 226.295 100.802 226.539 101.02 226.295C101.737 225.556 102.874 223.381 102.874 222.325C102.872 221.27 102.043 220.324 101.019 220.324ZM100.841 223.493C100.235 223.493 99.7436 223.002 99.7436 222.396C99.7436 221.79 100.235 221.299 100.841 221.299C101.447 221.299 101.937 221.79 101.937 222.396C101.937 223.002 101.446 223.493 100.841 223.493Z" fill="#263238"/>
<path d="M125.735 224.979C125.735 225.602 125.228 226.108 124.606 226.108C123.983 226.108 123.477 225.601 123.477 224.979V221.329C123.477 220.926 123.805 220.598 124.208 220.598C124.611 220.598 124.939 220.926 124.939 221.329V224.424H124.942C124.894 224.61 124.732 224.748 124.537 224.748C124.341 224.748 124.177 224.607 124.131 224.418V222.034H123.858V224.312V224.314V224.424H123.869C123.922 224.754 124.2 225.008 124.537 225.008C124.874 225.008 125.153 224.754 125.206 224.424H125.212V224.363C125.213 224.346 125.217 224.33 125.217 224.312H125.212V221.295H125.21C125.192 220.757 124.75 220.324 124.207 220.324C123.665 220.324 123.223 220.756 123.205 221.295H123.203V225.107H123.21C123.275 225.821 123.876 226.382 124.606 226.382C125.336 226.382 125.937 225.821 126.002 225.107H126.008V222.035H125.735V224.979Z" fill="#263238"/>
<path d="M113.72 222.216L112.675 220.1L111.63 222.216L109.293 222.556L110.984 224.205L110.585 226.533L112.676 225.434L114.767 226.533L114.368 224.205L116.059 222.556L113.72 222.216ZM114.312 225.911L112.674 225.048L111.036 225.911L111.334 224.176L111.351 224.088L110.024 222.796L111.857 222.529L112.674 220.869L113.495 222.529L115.324 222.796L114.063 224.025L114 224.088L114.312 225.911Z" fill="#263238"/>
<path d="M154.867 217.498H154.527V228.345H154.867V217.498Z" fill="#263238"/>
<path d="M148.232 221.337H143.914V225.939H148.232V221.337Z" fill="#263238"/>
<path d="M145.278 220.259V220.613H146.869V220.259H148.232V220.967H143.914V220.259H145.278Z" fill="#263238"/>
<path d="M146.868 219.905H145.277V220.259H146.868V219.905Z" fill="#263238"/>
<path d="M146.868 220.259H145.277V220.613H146.868V220.259Z" fill="#263238"/>
<path d="M164.643 223.802L165.969 222.476L166.13 222.637L164.643 224.123L163.156 222.637L163.317 222.476L164.643 223.802Z" fill="#263238"/>
<path d="M318.095 112.021C317.302 112.021 316.655 112.654 316.628 113.441H316.625V119.019H316.635C316.73 120.063 317.609 120.884 318.677 120.884C319.745 120.884 320.625 120.063 320.72 119.019H320.729V114.524H320.329V118.832C320.329 119.743 319.588 120.484 318.676 120.484C317.765 120.484 317.024 119.743 317.024 118.832V113.491C317.024 112.901 317.504 112.421 318.094 112.421C318.684 112.421 319.164 112.901 319.164 113.491V118.02H319.169C319.099 118.292 318.861 118.494 318.577 118.494C318.29 118.494 318.05 118.288 317.982 118.011V114.523H317.582V117.856V117.858V118.02H317.598C317.675 118.503 318.083 118.874 318.576 118.874C319.07 118.874 319.477 118.503 319.554 118.02H319.563V117.93C319.565 117.905 319.57 117.881 319.57 117.856H319.563V113.441H319.561C319.536 112.654 318.889 112.021 318.095 112.021Z" fill="#263238"/>
<path d="M90.8671 79.4581H89.1641V78.8411H93.2721V79.4581H91.5691V83.8081H90.8671V79.4581Z" fill="#263238"/>
<path d="M93.2031 81.927C93.2031 80.806 94.0331 80.012 95.1611 80.012C96.2891 80.012 97.1121 80.806 97.1121 81.927C97.1121 83.048 96.2891 83.85 95.1611 83.85C94.0331 83.85 93.2031 83.048 93.2031 81.927ZM96.4241 81.927C96.4241 81.125 95.8851 80.607 95.1611 80.607C94.4371 80.607 93.8911 81.125 93.8911 81.927C93.8911 82.729 94.4371 83.254 95.1611 83.254C95.8851 83.255 96.4241 82.729 96.4241 81.927Z" fill="#263238"/>
<path d="M99.6406 80.494C99.6406 80.21 99.8606 80.012 100.124 80.012C100.379 80.012 100.592 80.211 100.592 80.494C100.592 80.777 100.379 80.984 100.124 80.984C99.8616 80.984 99.6406 80.778 99.6406 80.494ZM99.6406 83.361C99.6406 83.077 99.8606 82.878 100.124 82.878C100.379 82.878 100.592 83.077 100.592 83.361C100.592 83.645 100.379 83.85 100.124 83.85C99.8616 83.85 99.6406 83.645 99.6406 83.361Z" fill="#263238"/>
<path d="M90.1758 98.031C90.1758 96.562 91.2968 95.491 92.8088 95.491C93.5748 95.491 94.2418 95.754 94.6958 96.264L94.2348 96.711C93.8518 96.307 93.3838 96.122 92.8378 96.122C91.7168 96.122 90.8868 96.931 90.8868 98.031C90.8868 99.131 91.7168 99.94 92.8378 99.94C93.3838 99.94 93.8528 99.749 94.2348 99.344L94.6958 99.791C94.2418 100.302 93.5748 100.571 92.8008 100.571C91.2968 100.571 90.1758 99.5 90.1758 98.031Z" fill="#263238"/>
<path d="M95.1016 98.634C95.1016 97.513 95.9316 96.718 97.0886 96.718C97.7626 96.718 98.3226 96.994 98.6216 97.52L98.1036 97.854C97.8626 97.485 97.4936 97.314 97.0816 97.314C96.3436 97.314 95.7906 97.832 95.7906 98.634C95.7906 99.45 96.3436 99.961 97.0816 99.961C97.4926 99.961 97.8616 99.791 98.1036 99.421L98.6216 99.748C98.3236 100.273 97.7636 100.557 97.0886 100.557C95.9316 100.557 95.1016 99.756 95.1016 98.634Z" fill="#263238"/>
<path d="M101.082 97.201C101.082 96.917 101.302 96.719 101.565 96.719C101.82 96.719 102.033 96.918 102.033 97.201C102.033 97.485 101.82 97.691 101.565 97.691C101.302 97.691 101.082 97.485 101.082 97.201ZM101.082 100.068C101.082 99.784 101.302 99.585 101.565 99.585C101.82 99.585 102.033 99.784 102.033 100.068C102.033 100.352 101.82 100.557 101.565 100.557C101.302 100.557 101.082 100.352 101.082 100.068Z" fill="#263238"/>
<path d="M89.4258 116.872L89.6878 116.318C90.0568 116.652 90.6888 116.893 91.3268 116.893C92.1848 116.893 92.5548 116.56 92.5548 116.127C92.5548 114.914 89.5468 115.68 89.5468 113.835C89.5468 113.069 90.1428 112.416 91.4478 112.416C92.0298 112.416 92.6328 112.572 93.0448 112.856L92.8108 113.423C92.3778 113.147 91.8878 113.019 91.4488 113.019C90.6048 113.019 90.2428 113.374 90.2428 113.807C90.2428 115.02 93.2508 114.261 93.2508 116.085C93.2508 116.844 92.6408 117.497 91.3278 117.497C90.5688 117.496 89.8238 117.241 89.4258 116.872Z" fill="#263238"/>
<path d="M97.6894 113.679V117.44H97.0434V116.873C96.7674 117.263 96.2984 117.483 95.7664 117.483C94.7944 117.483 94.1484 116.951 94.1484 115.844V113.68H94.8294V115.766C94.8294 116.504 95.1984 116.873 95.8444 116.873C96.5534 116.873 97.0084 116.433 97.0084 115.624V113.68L97.6894 113.679Z" fill="#263238"/>
<path d="M102.875 115.559C102.875 116.708 102.073 117.482 100.974 117.482C100.42 117.482 99.9385 117.269 99.6335 116.843V117.439H98.9805V112.174H99.6615V114.246C99.9735 113.842 100.442 113.643 100.974 113.643C102.073 113.644 102.875 114.41 102.875 115.559ZM102.187 115.559C102.187 114.757 101.641 114.239 100.917 114.239C100.201 114.239 99.6545 114.757 99.6545 115.559C99.6545 116.361 100.2 116.886 100.917 116.886C101.641 116.886 102.187 116.361 102.187 115.559Z" fill="#263238"/>
<path d="M102.516 118.631L102.736 118.106C102.871 118.219 103.069 118.283 103.289 118.283C103.651 118.283 103.849 118.056 103.849 117.623V113.678H104.53V117.609C104.53 118.375 104.104 118.858 103.331 118.858C103.02 118.858 102.708 118.788 102.516 118.631ZM103.73 112.515C103.73 112.267 103.929 112.068 104.191 112.068C104.454 112.068 104.652 112.259 104.652 112.501C104.652 112.756 104.461 112.955 104.191 112.955C103.928 112.955 103.73 112.764 103.73 112.515Z" fill="#263238"/>
<path d="M109.212 115.786H106.161C106.246 116.446 106.779 116.886 107.523 116.886C107.963 116.886 108.332 116.737 108.609 116.432L108.985 116.872C108.644 117.269 108.126 117.482 107.502 117.482C106.289 117.482 105.48 116.68 105.48 115.559C105.48 114.445 106.282 113.643 107.368 113.643C108.453 113.643 109.227 114.423 109.227 115.58C109.226 115.637 109.219 115.722 109.212 115.786ZM106.161 115.297H108.574C108.503 114.665 108.028 114.218 107.368 114.218C106.715 114.218 106.232 114.658 106.161 115.297Z" fill="#263238"/>
<path d="M109.816 115.559C109.816 114.438 110.646 113.643 111.803 113.643C112.477 113.643 113.038 113.919 113.336 114.445L112.818 114.779C112.577 114.41 112.208 114.239 111.797 114.239C111.059 114.239 110.505 114.757 110.505 115.559C110.505 116.375 111.058 116.886 111.797 116.886C112.208 116.886 112.577 116.716 112.818 116.347L113.336 116.674C113.038 117.199 112.478 117.483 111.803 117.483C110.646 117.482 109.816 116.68 109.816 115.559Z" fill="#263238"/>
<path d="M116.377 117.22C116.171 117.397 115.859 117.482 115.554 117.482C114.795 117.482 114.362 117.064 114.362 116.304V114.239H113.723V113.678H114.362V112.855H115.043V113.678H116.122V114.239H115.043V116.276C115.043 116.68 115.256 116.907 115.632 116.907C115.831 116.907 116.022 116.843 116.164 116.73L116.377 117.22Z" fill="#263238"/>
<path d="M118.785 114.126C118.785 113.842 119.005 113.644 119.268 113.644C119.523 113.644 119.736 113.843 119.736 114.126C119.736 114.41 119.523 114.616 119.268 114.616C119.006 114.616 118.785 114.41 118.785 114.126ZM118.785 116.993C118.785 116.709 119.005 116.51 119.268 116.51C119.523 116.51 119.736 116.709 119.736 116.993C119.736 117.277 119.523 117.482 119.268 117.482C119.006 117.482 118.785 117.276 118.785 116.993Z" fill="#263238"/>
<path d="M181.049 82.916C181.049 83.06 165.125 83.176 145.487 83.176C125.842 83.176 109.922 83.059 109.922 82.916C109.922 82.773 125.842 82.656 145.487 82.656C165.126 82.656 181.049 82.772 181.049 82.916Z" fill="#263238"/>
<path d="M212.808 99.144C212.808 99.288 189.774 99.405 161.367 99.405C132.95 99.405 109.922 99.288 109.922 99.144C109.922 99 132.951 98.884 161.367 98.884C189.775 98.884 212.808 99 212.808 99.144Z" fill="#263238"/>
<path d="M174.765 115.246C174.765 115.264 174.603 115.282 174.293 115.298C173.923 115.311 173.476 115.328 172.94 115.347C171.681 115.368 170.001 115.396 167.963 115.43C163.761 115.477 157.955 115.506 151.544 115.506C145.13 115.506 139.324 115.477 135.122 115.43C133.084 115.396 131.404 115.368 130.145 115.347C129.608 115.328 129.162 115.311 128.792 115.298C128.483 115.281 128.32 115.263 128.32 115.246C128.32 115.228 128.483 115.211 128.792 115.194C129.162 115.181 129.608 115.164 130.145 115.145C131.404 115.124 133.084 115.096 135.122 115.062C139.324 115.015 145.13 114.986 151.544 114.986C157.956 114.986 163.761 115.015 167.963 115.062C170.001 115.096 171.681 115.124 172.94 115.145C173.477 115.164 173.923 115.18 174.293 115.194C174.602 115.211 174.765 115.228 174.765 115.246Z" fill="#263238"/>
<path d="M329.144 124.007C329.144 124.151 273.964 124.267 205.912 124.267C137.836 124.267 82.668 124.15 82.668 124.007C82.668 123.864 137.836 123.747 205.912 123.747C273.964 123.746 329.144 123.863 329.144 124.007Z" fill="#E0E0E0"/>
<path d="M329.144 106.442C329.144 106.586 273.943 106.702 205.865 106.702C137.763 106.702 82.5742 106.585 82.5742 106.442C82.5742 106.298 137.763 106.182 205.865 106.182C273.942 106.181 329.144 106.298 329.144 106.442Z" fill="#E0E0E0"/>
<path d="M329.144 91.03C329.144 91.174 273.964 91.29 205.912 91.29C137.836 91.29 82.668 91.173 82.668 91.03C82.668 90.887 137.836 90.77 205.912 90.77C273.964 90.77 329.144 90.886 329.144 91.03Z" fill="#E0E0E0"/>
<path d="M115.76 145.431C115.76 145.575 111.965 145.691 107.285 145.691C102.603 145.691 98.8086 145.574 98.8086 145.431C98.8086 145.287 102.603 145.171 107.285 145.171C111.965 145.171 115.76 145.287 115.76 145.431Z" fill="#263238"/>
<path d="M212.266 155.241C212.266 155.385 186.612 155.501 154.974 155.501C123.325 155.501 97.6758 155.384 97.6758 155.241C97.6758 155.098 123.324 154.981 154.974 154.981C186.612 154.981 212.266 155.097 212.266 155.241Z" fill="#263238"/>
<path d="M193.258 162.095C193.258 162.217 171.859 162.315 145.469 162.315C119.07 162.315 97.6758 162.216 97.6758 162.095C97.6758 161.973 119.07 161.875 145.469 161.875C171.859 161.875 193.258 161.974 193.258 162.095Z" fill="#263238"/>
<path d="M89.6467 65.891C90.5021 65.891 91.1957 65.1975 91.1957 64.342C91.1957 63.4865 90.5021 62.793 89.6467 62.793C88.7912 62.793 88.0977 63.4865 88.0977 64.342C88.0977 65.1975 88.7912 65.891 89.6467 65.891Z" fill="white"/>
<path d="M95.1584 65.891C96.0139 65.891 96.7074 65.1975 96.7074 64.342C96.7074 63.4865 96.0139 62.793 95.1584 62.793C94.3029 62.793 93.6094 63.4865 93.6094 64.342C93.6094 65.1975 94.3029 65.891 95.1584 65.891Z" fill="white"/>
<path d="M100.67 65.891C101.526 65.891 102.219 65.1975 102.219 64.342C102.219 63.4865 101.526 62.793 100.67 62.793C99.8146 62.793 99.1211 63.4865 99.1211 64.342C99.1211 65.1975 99.8146 65.891 100.67 65.891Z" fill="white"/>
<path d="M332.835 238.304C332.833 236.558 332.752 167.017 332.623 57.191L332.835 57.403C262.784 57.417 176.211 57.433 82.6912 57.452H82.6702L82.9302 57.192C82.9212 122.124 82.9132 183.7 82.9062 238.305L82.6702 238.069C230.616 238.208 330.743 238.302 332.835 238.304C330.745 238.306 230.615 238.4 82.6702 238.54H82.4342V238.304C82.4272 183.698 82.4182 122.123 82.4102 57.191V56.931H82.6702H82.6912C176.211 56.949 262.784 56.966 332.835 56.98H333.047V57.192C332.919 167.017 332.837 236.559 332.835 238.304Z" fill="#263238"/>
<path d="M409.447 420.126H403.664V423.24H409.447V420.126Z" fill="#E0E0E0"/>
<path d="M407.464 341.747H394.117V407.96H407.464V341.747Z" fill="#EBEBEB"/>
<path d="M431.092 345.239H368.428C361.76 345.239 356.355 339.834 356.355 333.167C356.355 326.499 361.76 321.094 368.428 321.094H431.092C437.759 321.094 443.164 326.499 443.164 333.167C443.164 339.834 437.759 345.239 431.092 345.239Z" fill="#455A64"/>
<path d="M405.067 407.96H396.609V454.957H405.067V407.96Z" fill="#E0E0E0"/>
<path d="M366.911 477.866C365.247 478.078 438.197 477.866 438.197 477.866C438.197 477.866 407.075 474.385 405.067 454.957H396.609C396.609 454.957 394.482 474.357 366.911 477.866Z" fill="#E0E0E0"/>
<path d="M433.572 345.239C433.572 345.383 419.083 345.499 401.214 345.499C383.339 345.499 368.852 345.382 368.852 345.239C368.852 345.096 383.338 344.979 401.214 344.979C419.083 344.978 433.572 345.095 433.572 345.239Z" fill="#263238"/>
<path d="M407.465 407.96C407.465 408.104 404.45 408.22 400.731 408.22C397.011 408.22 393.996 408.103 393.996 407.96C393.996 407.817 397.011 407.7 400.731 407.7C404.449 407.7 407.465 407.816 407.465 407.96Z" fill="#263238"/>
<path d="M409.449 426.724C408.506 426.724 407.742 425.96 407.742 425.017V418.349C407.742 417.406 408.506 416.642 409.449 416.642C410.392 416.642 411.156 417.406 411.156 418.349V425.017C411.156 425.96 410.392 426.724 409.449 426.724Z" fill="#E0E0E0"/>
<path d="M276.117 152.698C276.117 152.698 279.05 149.492 279.937 149.424C280.824 149.356 289.964 152.084 289.964 152.084C289.964 152.084 292.01 152.493 292.829 153.448C293.648 154.403 302.658 164.203 302.658 164.203L292.633 173.021C292.633 173.021 280.892 170.91 279.869 169.682C278.846 168.454 278.027 166.476 278.778 165.862C278.778 165.862 277.823 164.157 278.096 162.997C278.369 161.838 278.71 160.916 278.71 160.916C278.71 160.916 276.937 159.655 276.868 158.768C276.8 157.881 276.527 157.404 276.527 157.404L276.118 156.722V152.698H276.117Z" fill="#FFBE9D"/>
<path d="M280.205 154.61C280.257 154.63 280.216 154.923 280.045 155.37C279.873 155.809 279.553 156.433 278.94 156.906C278.315 157.381 277.56 157.47 277.073 157.342C276.572 157.215 276.371 156.943 276.406 156.91C276.445 156.854 276.692 157.013 277.122 157.046C277.545 157.085 278.164 156.963 278.683 156.569C279.207 156.167 279.543 155.63 279.775 155.24C280.007 154.845 280.148 154.588 280.205 154.61Z" fill="#EB996E"/>
<path d="M240.1 131.71C237.089 131.686 234.629 134.108 234.605 137.119L234.129 197.431C234.105 200.442 236.527 202.902 239.538 202.926L283.112 203.27C286.123 203.294 288.583 200.872 288.607 197.861L288.903 137.516C288.918 134.429 286.427 131.915 283.34 131.901L240.1 131.71Z" fill="#E0E0E0"/>
<path d="M263.952 150.031C263.95 150.249 259.436 150.39 253.87 150.346C248.302 150.302 243.792 150.09 243.793 149.872C243.795 149.654 248.308 149.513 253.876 149.556C259.442 149.6 263.954 149.813 263.952 150.031Z" fill="#E0E0E0"/>
<path d="M276.898 157.881C276.896 158.099 269.467 158.217 260.306 158.145C251.142 158.073 243.718 157.837 243.719 157.619C243.721 157.401 251.148 157.283 260.312 157.355C269.473 157.427 276.899 157.663 276.898 157.881Z" fill="#E0E0E0"/>
<path d="M279.819 165.918C279.817 166.136 271.719 166.249 261.733 166.17C251.744 166.091 243.65 165.851 243.652 165.632C243.654 165.414 251.75 165.301 261.739 165.38C271.726 165.46 279.821 165.7 279.819 165.918Z" fill="#E0E0E0"/>
<path d="M279.76 173.479C279.758 173.697 271.66 173.81 261.675 173.732C251.686 173.653 243.592 173.412 243.594 173.194C243.596 172.976 251.692 172.863 261.681 172.942C271.666 173.02 279.761 173.261 279.76 173.479Z" fill="#E0E0E0"/>
<path d="M279.701 181.04C279.699 181.258 271.601 181.371 261.616 181.293C251.627 181.214 243.533 180.973 243.535 180.755C243.537 180.537 251.633 180.424 261.622 180.503C271.607 180.581 279.703 180.822 279.701 181.04Z" fill="#E0E0E0"/>
<path d="M279.643 188.601C279.641 188.819 271.543 188.932 261.558 188.853C251.569 188.774 243.475 188.533 243.477 188.315C243.479 188.097 251.575 187.984 261.564 188.063C271.55 188.143 279.645 188.383 279.643 188.601Z" fill="#E0E0E0"/>
<path d="M238.084 129.91C235.073 129.886 232.613 132.308 232.589 135.319L232.113 195.631C232.089 198.642 234.511 201.102 237.522 201.126L281.096 201.47C284.107 201.494 286.567 199.072 286.591 196.061L286.887 135.716C286.902 132.629 284.411 130.115 281.325 130.101L238.084 129.91Z" fill="white"/>
<path d="M238.085 129.91C238.085 129.91 238.297 129.893 238.71 129.886C239.142 129.882 239.751 129.876 240.543 129.868C242.174 129.864 244.546 129.858 247.592 129.85C253.732 129.858 262.585 129.868 273.517 129.882C274.885 129.885 276.286 129.889 277.718 129.892C278.434 129.894 279.158 129.896 279.89 129.898C280.622 129.912 281.353 129.865 282.132 129.966C283.666 130.175 285.131 131.054 286.054 132.378C286.517 133.036 286.849 133.799 286.997 134.607C287.156 135.427 287.085 136.238 287.097 137.034C287.073 143.47 287.047 150.346 287.02 157.581C286.989 164.817 286.957 172.413 286.924 180.286C286.906 184.223 286.888 188.23 286.869 192.296C286.864 193.313 286.859 194.333 286.855 195.357C286.885 196.356 286.788 197.511 286.295 198.469C285.387 200.44 283.256 201.783 281.058 201.731C272.706 201.663 264.551 201.597 256.675 201.533C252.737 201.5 248.869 201.467 245.081 201.435C243.187 201.419 241.313 201.402 239.46 201.387C238.527 201.356 237.632 201.427 236.665 201.291C235.718 201.147 234.822 200.749 234.079 200.166C232.564 199.023 231.764 197.083 231.883 195.277C231.899 193.514 231.915 191.775 231.93 190.061C231.961 186.633 231.992 183.305 232.022 180.087C232.084 173.653 232.142 167.659 232.195 162.184C232.316 151.253 232.414 142.401 232.482 136.262C232.493 135.504 232.479 134.761 232.653 134.088C232.814 133.417 233.086 132.822 233.424 132.329C234.094 131.334 234.949 130.726 235.686 130.393C236.427 130.053 237.049 129.957 237.46 129.916C237.873 129.894 238.085 129.91 238.085 129.91C238.102 129.971 237.193 129.812 235.73 130.488C235.014 130.83 234.19 131.437 233.552 132.414C233.231 132.897 232.974 133.478 232.826 134.129C232.666 134.779 232.686 135.495 232.683 136.263C232.654 142.402 232.613 151.254 232.561 162.186C232.528 167.66 232.491 173.655 232.452 180.089C232.431 183.307 232.409 186.635 232.386 190.063C232.374 191.777 232.363 193.516 232.351 195.279C232.246 196.995 232.982 198.726 234.373 199.785C235.054 200.318 235.874 200.681 236.74 200.81C237.589 200.932 238.546 200.868 239.463 200.895C241.316 200.908 243.19 200.922 245.084 200.935C248.872 200.963 252.74 200.991 256.678 201.02C264.554 201.08 272.708 201.143 281.061 201.207C283.066 201.254 284.997 200.034 285.825 198.242C286.273 197.344 286.36 196.387 286.335 195.35C286.34 194.326 286.345 193.306 286.351 192.289C286.372 188.223 286.393 184.216 286.414 180.28C286.458 172.407 286.5 164.811 286.541 157.575C286.585 150.34 286.627 143.465 286.666 137.028C286.658 136.219 286.725 135.421 286.58 134.682C286.445 133.933 286.14 133.225 285.712 132.613C284.859 131.382 283.501 130.56 282.075 130.36C281.372 130.263 280.617 130.304 279.889 130.288C279.157 130.283 278.434 130.279 277.718 130.274C276.286 130.265 274.885 130.256 273.517 130.247C262.585 130.164 253.732 130.097 247.593 130.05C244.547 130.015 242.175 129.989 240.544 129.97C239.752 129.955 239.143 129.944 238.711 129.936C238.296 129.929 238.085 129.91 238.085 129.91Z" fill="#263238"/>
<path d="M261.936 148.23C261.934 148.448 257.42 148.589 251.854 148.545C246.286 148.501 241.776 148.289 241.777 148.071C241.779 147.853 246.292 147.712 251.86 147.755C257.426 147.799 261.938 148.012 261.936 148.23Z" fill="#263238"/>
<path d="M274.882 156.08C274.88 156.298 267.451 156.416 258.29 156.344C249.126 156.272 241.701 156.036 241.703 155.818C241.705 155.6 249.132 155.481 258.296 155.554C267.457 155.626 274.883 155.862 274.882 156.08Z" fill="#263238"/>
<path d="M277.807 164.118C277.805 164.336 269.707 164.449 259.722 164.37C249.733 164.291 241.639 164.051 241.641 163.832C241.643 163.614 249.739 163.501 259.728 163.58C269.714 163.659 277.809 163.9 277.807 164.118Z" fill="#263238"/>
<path d="M277.744 171.679C277.742 171.897 269.644 172.01 259.659 171.932C249.67 171.853 241.576 171.612 241.578 171.394C241.58 171.176 249.676 171.063 259.665 171.142C269.65 171.22 277.745 171.461 277.744 171.679Z" fill="#263238"/>
<path d="M277.686 179.24C277.684 179.458 269.586 179.571 259.601 179.493C249.612 179.414 241.518 179.174 241.52 178.955C241.522 178.737 249.618 178.624 259.607 178.703C269.592 178.781 277.688 179.022 277.686 179.24Z" fill="#263238"/>
<path d="M277.627 186.801C277.625 187.019 269.527 187.132 259.542 187.053C249.553 186.974 241.459 186.734 241.461 186.515C241.463 186.297 249.559 186.184 259.548 186.263C269.534 186.342 277.629 186.583 277.627 186.801Z" fill="#263238"/>
<path d="M244.153 136.341V131.321C244.153 130.483 243.474 129.804 242.636 129.804C241.798 129.804 241.119 130.483 241.119 131.321V138.354C241.119 139.698 242.209 140.789 243.554 140.789C244.898 140.789 245.988 139.699 245.988 138.354V130.279C245.988 128.408 244.472 126.892 242.601 126.892C241.129 126.892 239.877 127.83 239.41 129.142V129.537" stroke="#263238" stroke-width="0.75" stroke-miterlimit="10" stroke-linecap="round" stroke-linejoin="round"/>
<path d="M296.776 159.617L291.998 156.648L279.762 150.191C279.762 150.191 277.33 152.552 281.436 155.949L286.498 159.958C286.498 159.958 290.995 168.207 291.959 168.813C292.923 169.419 297.339 171.02 297.339 171.02L296.776 159.617Z" fill="#FFBE9D"/>
<path d="M297.81 171.212C297.806 171.226 297.635 171.19 297.316 171.103C296.997 171.015 296.529 170.875 295.933 170.673C295.338 170.469 294.612 170.21 293.792 169.844C293.382 169.663 292.95 169.448 292.507 169.187C292.063 168.939 291.614 168.564 291.272 168.11C289.87 166.316 288.595 163.955 287.141 161.37C286.958 161.05 286.772 160.726 286.585 160.399C286.408 160.071 286.159 159.853 285.862 159.589C285.286 159.087 284.655 158.606 284.017 158.113C282.743 157.121 281.382 156.149 280.126 154.934C278.805 153.635 278.414 151.471 279.431 149.945L279.532 149.793L279.7 149.888C284.595 152.65 288.809 155.175 292 156.649C293.547 157.498 294.728 158.256 295.545 158.773C295.92 159.02 296.225 159.221 296.471 159.383C296.679 159.526 296.784 159.607 296.778 159.618C296.771 159.629 296.653 159.569 296.432 159.447C296.176 159.301 295.859 159.12 295.469 158.897C294.631 158.42 293.424 157.696 291.874 156.887C288.654 155.481 284.392 152.99 279.495 150.249L279.764 150.192C279.357 150.817 279.185 151.669 279.317 152.462C279.461 153.259 279.818 154.055 280.428 154.635C281.636 155.804 283.002 156.789 284.271 157.783C284.91 158.279 285.539 158.763 286.131 159.285C286.281 159.412 286.423 159.555 286.564 159.696C286.708 159.852 286.834 160.027 286.926 160.192C287.114 160.525 287.299 160.854 287.483 161.179C288.915 163.773 290.168 166.15 291.505 167.921C292.144 168.819 293.114 169.224 293.891 169.628C294.691 170.01 295.405 170.291 295.988 170.517C296.541 170.723 296.989 170.89 297.341 171.021C297.653 171.135 297.815 171.198 297.81 171.212Z" fill="#EB996E"/>
<path d="M429.834 136.339C429.665 133.37 429.294 118.92 429.123 116.724C428.892 113.759 427.667 110.802 425.488 108.777C423.31 106.752 419.921 105.885 417.247 107.187C415.478 107.634 414.095 109.001 413.601 110.757C407.519 132.381 408.479 155.404 405.793 177.767C413.73 179.058 424.412 178.53 432.442 178.11C432.442 160.253 430.931 155.616 429.834 136.339Z" fill="#263238"/>
<path d="M426.486 166.826C426.468 166.826 426.447 166.627 426.424 166.249C426.404 165.813 426.378 165.264 426.347 164.591C426.301 163.08 426.237 161.013 426.16 158.492C426.051 153.277 425.902 146.193 425.739 138.366C425.679 134.437 425.622 130.697 425.569 127.283C425.548 125.583 425.529 123.965 425.51 122.447C425.497 120.935 425.459 119.531 425.223 118.283C424.814 115.75 423.362 114.067 422.128 113.394C420.88 112.695 420.018 112.828 420.035 112.756C420.035 112.747 420.084 112.739 420.182 112.733C420.28 112.728 420.427 112.715 420.618 112.737C421 112.764 421.57 112.878 422.226 113.216C422.877 113.554 423.602 114.125 424.224 114.967C424.855 115.804 425.327 116.931 425.584 118.212C425.851 119.495 425.91 120.926 425.942 122.439C425.976 123.957 426.011 125.575 426.049 127.274C426.114 130.688 426.185 134.427 426.26 138.356C426.365 146.184 426.459 153.269 426.529 158.485C426.538 161.008 426.546 163.075 426.551 164.587C426.543 165.261 426.536 165.81 426.531 166.247C426.518 166.626 426.503 166.825 426.486 166.826Z" fill="#455A64"/>
<path d="M419.27 158.628C419.234 158.628 419.201 158.164 419.173 157.325C419.145 156.486 419.126 155.272 419.126 153.772C419.119 150.772 419.185 146.629 419.299 142.055C419.425 137.535 419.537 133.448 419.624 130.344C419.671 128.927 419.712 127.738 419.743 126.795C419.777 125.957 419.812 125.493 419.848 125.493C419.884 125.493 419.918 125.957 419.946 126.796C419.973 127.635 419.992 128.849 419.993 130.349C420 133.349 419.934 137.493 419.82 142.068C419.694 146.586 419.581 150.673 419.494 153.777C419.447 155.194 419.407 156.384 419.376 157.326C419.342 158.164 419.306 158.628 419.27 158.628Z" fill="#455A64"/>
<path d="M392.753 90.556C398.709 89.94 403.74 92.548 408.491 96.194C413.242 99.84 416.656 105.098 418.452 110.811C420.343 116.829 420.366 125.358 418.221 131.29C416.076 137.222 411.524 141.364 405.881 142.958C397.591 145.3 388.249 144.35 381.732 138.717C375.215 133.084 371.856 124.256 372.089 115.645C372.25 109.712 374.06 103.751 377.689 99.054C381.319 94.358 386.837 91.033 392.753 90.556Z" fill="#263238"/>
<path d="M408.197 111.688C407.483 109.377 407.982 106.883 407.797 104.472C407.39 99.162 403.428 94.667 398.66 92.295C394.225 90.089 388.628 90.14 383.018 91.556C379.173 92.527 375.489 94.418 372.779 97.312C369.181 101.154 367.632 106.813 368.77 111.951L395.942 109.793C398.325 112.043 400.766 114.332 403.747 115.694C404.622 116.094 405.57 116.414 406.527 116.326C407.484 116.238 408.448 115.654 408.734 114.736C409.045 113.733 408.507 112.692 408.197 111.688Z" fill="#263238"/>
<path d="M381.957 98.949L405.129 105.465C407.392 105.765 409.049 107.748 408.944 110.028L405.333 160.862C405.087 164.335 403.702 167.629 401.393 170.235L398.963 172.979C393.422 179.234 383.116 177.893 379.695 170.269C379.456 169.736 379.297 169.273 379.241 168.902C379.192 168.439 379.091 168.129 379.095 167.739C378.683 163.757 379.191 160.012 379.191 160.012C379.259 155.469 379.309 153.606 379.305 153.649C379.305 153.649 369.768 151.804 368.115 139.253C367.293 133.011 367.876 122.828 368.622 114.512C369.294 107.028 374.506 97.96 381.957 98.949Z" fill="#FFBE9D"/>
<path d="M371.573 124.291C371.52 125.137 372.193 125.879 373.076 125.949C373.956 126.02 374.714 125.394 374.767 124.548C374.819 123.702 374.146 122.96 373.266 122.889C372.383 122.818 371.625 123.445 371.573 124.291Z" fill="#263238"/>
<path d="M370.691 119.874C370.884 120.088 372.122 119.222 373.847 119.272C375.57 119.298 376.813 120.219 377.005 120.012C377.1 119.921 376.907 119.539 376.367 119.122C375.835 118.708 374.92 118.295 373.845 118.271C372.77 118.248 371.856 118.62 371.326 119.011C370.786 119.404 370.596 119.777 370.691 119.874Z" fill="#263238"/>
<path d="M387.019 124.914C386.966 125.76 387.639 126.501 388.521 126.572C389.401 126.643 390.159 126.017 390.212 125.171C390.265 124.325 389.592 123.582 388.711 123.512C387.829 123.441 387.071 124.068 387.019 124.914Z" fill="#263238"/>
<path d="M387.055 120.524C387.249 120.738 388.488 119.872 390.212 119.923C391.935 119.948 393.178 120.869 393.371 120.663C393.465 120.572 393.275 120.189 392.732 119.773C392.2 119.359 391.285 118.946 390.211 118.921C389.136 118.899 388.222 119.27 387.692 119.661C387.151 120.054 386.96 120.428 387.055 120.524Z" fill="#263238"/>
<path d="M381.038 133.271C381.049 133.173 379.982 132.96 378.25 132.691C377.811 132.634 377.396 132.535 377.33 132.233C377.235 131.911 377.432 131.442 377.659 130.935C378.101 129.88 378.564 128.774 379.051 127.616C380.986 122.889 382.4 118.997 382.209 118.921C382.018 118.845 380.294 122.614 378.358 127.341C377.892 128.507 377.445 129.618 377.021 130.682C376.841 131.178 376.539 131.738 376.746 132.405C376.856 132.737 377.173 132.985 377.453 133.068C377.733 133.162 377.981 133.173 378.198 133.192C379.944 133.332 381.029 133.369 381.038 133.271Z" fill="#263238"/>
<path d="M379.306 153.65C379.306 153.65 387.699 154.416 396.163 149.63C396.163 149.63 391.725 158.17 379.246 156.668L379.306 153.65Z" fill="#EB996E"/>
<path d="M381.659 137.447C382.301 136.643 383.4 136.222 384.476 136.367C385.222 136.468 385.969 136.848 386.407 137.47C386.846 138.091 386.918 138.959 386.489 139.529C386.006 140.171 385.029 140.297 384.213 140.041C383.396 139.785 382.702 139.224 382.043 138.667C381.861 138.513 381.675 138.352 381.564 138.144C381.453 137.936 381.435 137.668 381.584 137.502" fill="#EB996E"/>
<path d="M386.083 134.599C385.803 134.575 385.75 136.447 384.112 137.734C382.477 139.025 380.487 138.762 380.466 139.023C380.437 139.14 380.901 139.399 381.742 139.444C382.568 139.494 383.781 139.261 384.783 138.474C385.783 137.685 386.232 136.609 386.316 135.843C386.408 135.061 386.211 134.592 386.083 134.599Z" fill="#263238"/>
<path d="M387.488 115.423C387.645 115.896 389.374 115.72 391.39 116.018C393.414 116.275 395.03 116.911 395.31 116.497C395.435 116.299 395.162 115.85 394.514 115.379C393.872 114.908 392.84 114.45 391.629 114.282C390.418 114.117 389.3 114.28 388.555 114.56C387.805 114.84 387.421 115.199 387.488 115.423Z" fill="#263238"/>
<path d="M371.392 112.344C371.685 112.743 372.884 112.369 374.313 112.387C375.743 112.356 376.945 112.72 377.234 112.318C377.362 112.122 377.181 111.725 376.662 111.34C376.151 110.957 375.287 110.631 374.305 110.635C373.323 110.64 372.462 110.973 371.955 111.36C371.44 111.75 371.264 112.149 371.392 112.344Z" fill="#263238"/>
<path d="M412.742 108.341C410.774 101.026 400.776 90.5801 393.203 90.7641L380.82 97.4461C381.363 101.587 384.372 105.308 388.308 106.704C390.41 107.45 392.968 107.745 394.152 109.636C395.361 111.566 394.481 114.257 395.597 116.242C397.145 118.993 401.714 119.074 402.835 122.025C403.325 123.314 402.97 124.812 403.483 126.092C404.166 127.798 408.3 130.109 410.075 129.634C411.85 129.159 411.991 126.18 412.634 124.644C413.733 122.021 413.393 120.62 413.139 119.115C412.538 115.552 413.681 111.831 412.742 108.341Z" fill="#263238"/>
<path d="M404.847 130.874C404.874 129.943 406.008 127.778 406.931 127.658C409.396 127.341 413.815 127.655 413.69 133.89C413.52 142.413 404.998 140.484 404.988 140.239C404.98 140.049 404.754 134.088 404.847 130.874Z" fill="#FFBE9D"/>
<path d="M407.657 137.063C407.695 137.037 407.803 137.17 408.052 137.29C408.295 137.407 408.714 137.493 409.162 137.335C410.069 137.023 410.856 135.608 410.928 134.073C410.965 133.297 410.817 132.556 410.555 131.938C410.307 131.309 409.913 130.866 409.461 130.777C409.012 130.663 408.686 130.928 408.577 131.166C408.458 131.402 408.509 131.574 408.463 131.587C408.439 131.608 408.283 131.441 408.359 131.091C408.398 130.922 408.502 130.723 408.705 130.563C408.913 130.401 409.215 130.322 409.531 130.362C410.187 130.421 410.767 131.037 411.055 131.714C411.38 132.395 411.564 133.23 411.522 134.1C411.433 135.816 410.522 137.406 409.282 137.737C408.68 137.881 408.183 137.691 407.929 137.484C407.668 137.27 407.627 137.078 407.657 137.063Z" fill="#EB996E"/>
<path d="M419.72 120.158C419.78 120.172 420.07 119.222 420.205 117.628C420.343 116.039 420.253 113.8 419.628 111.431C418.995 109.063 417.963 107.074 417.054 105.763C416.147 104.446 415.424 103.766 415.378 103.807C415.214 103.907 417.88 106.917 419.082 111.575C420.349 116.216 419.528 120.152 419.72 120.158Z" fill="#0A5840"/>
<path d="M383.456 95.038C382.447 98.447 376.898 102.539 374.414 105.082C369.674 109.933 368.793 110.636 367.835 126.124C366.015 122.02 364.827 114.978 365.28 110.512C365.733 106.045 367.675 101.668 370.999 98.65C374.321 95.631 379.064 94.105 383.456 95.038Z" fill="#263238"/>
<path d="M417.081 108.513C417.086 108.548 416.564 108.64 415.613 108.777C415.138 108.852 414.555 108.928 413.873 108.965C413.192 109.009 412.417 109.092 411.557 109.081C409.838 109.132 407.786 109.026 405.527 108.749C403.273 108.437 400.814 107.935 398.302 107.16C395.796 106.36 393.491 105.368 391.462 104.336C389.45 103.272 387.705 102.187 386.323 101.163C385.611 100.681 385.022 100.17 384.488 99.745C383.95 99.325 383.514 98.93 383.168 98.597C382.466 97.941 382.091 97.568 382.114 97.542C382.138 97.517 382.559 97.841 383.297 98.448C383.662 98.756 384.113 99.127 384.664 99.523C385.211 99.924 385.81 100.411 386.53 100.871C387.927 101.849 389.673 102.891 391.675 103.92C393.693 104.918 395.977 105.885 398.454 106.676C400.938 107.442 403.364 107.952 405.591 108.286C407.822 108.584 409.85 108.727 411.556 108.722C412.409 108.756 413.179 108.698 413.857 108.682C414.536 108.672 415.118 108.626 415.594 108.581C416.546 108.505 417.076 108.479 417.081 108.513Z" fill="#455A64"/>
<path d="M417.567 114.665C417.571 114.7 417.215 114.761 416.566 114.842C415.918 114.931 414.972 114.993 413.803 115.011C411.465 115.052 408.211 114.787 404.746 113.875C401.283 112.953 398.323 111.573 396.312 110.381C395.304 109.787 394.514 109.264 393.995 108.867C393.471 108.476 393.192 108.247 393.212 108.218C393.263 108.145 394.447 108.969 396.487 110.068C398.523 111.169 401.461 112.476 404.876 113.385C408.292 114.284 411.491 114.602 413.806 114.652C416.122 114.708 417.559 114.577 417.567 114.665Z" fill="#455A64"/>
<path d="M419.704 115.016C419.733 115.012 419.829 115.472 419.908 116.314C419.996 117.156 420.043 118.379 420.028 119.89C420.009 121.401 419.918 123.201 419.686 125.188C419.44 127.171 419.11 129.358 418.4 131.575C416.915 136.046 413.804 139.248 411.183 140.772C409.873 141.554 408.72 141.998 407.919 142.267C407.117 142.537 406.658 142.634 406.649 142.606C406.636 142.566 407.073 142.403 407.847 142.078C408.619 141.754 409.734 141.264 410.989 140.46C412.25 139.671 413.612 138.51 414.842 136.976C416.033 135.416 417.266 133.596 417.904 131.417C418.598 129.254 418.941 127.09 419.21 125.13C419.465 123.164 419.594 121.38 419.66 119.881C419.722 118.382 419.73 117.166 419.705 116.326C419.689 115.485 419.662 115.02 419.704 115.016Z" fill="#455A64"/>
<path d="M302.659 164.202L327.378 189.23C330.631 188.48 370.52 164.634 370.52 164.634L376.825 195.316C376.825 195.316 336.001 214.084 324.766 211.807C322.932 211.435 319.914 211.201 318.023 208.77C309.036 197.22 291.961 172.895 291.961 172.895L302.659 164.202Z" fill="#FFBE9D"/>
<path d="M335.078 393.594L347.28 420.04L366.97 410.943L354.349 378.213L335.078 393.594Z" fill="#FFBE9D"/>
<path d="M344.977 418.275L352.106 431.87C352.106 431.87 333.857 450.739 335.571 454.957L378.471 434.388L366.685 407.119L344.977 418.275Z" fill="#455A64"/>
<path d="M364.481 423.651C365.42 423.48 366.441 424.138 366.651 425.069C366.86 426 366.2 427.045 365.264 427.232C364.328 427.42 363.078 426.667 362.974 425.718C362.87 424.769 363.713 423.585 364.666 423.628" fill="#E0E0E0"/>
<g opacity="0.6">
<path d="M378.47 434.388L376.685 430.969L336.221 451.969C336.221 451.969 334.709 453.716 335.57 454.958L378.47 434.388Z" fill="white"/>
</g>
<path d="M351.304 431.985C351.411 432.192 352.504 431.784 353.858 431.964C355.216 432.108 356.183 432.761 356.336 432.585C356.509 432.452 355.597 431.349 353.954 431.161C352.313 430.957 351.166 431.815 351.304 431.985Z" fill="#263238"/>
<path d="M347.696 436.004C347.745 436.23 348.823 436.151 349.96 436.696C351.112 437.208 351.751 438.08 351.955 437.97C352.168 437.909 351.724 436.612 350.299 435.962C348.879 435.298 347.605 435.802 347.696 436.004Z" fill="#263238"/>
<path d="M347.723 442.614C347.935 442.567 347.724 441.381 346.637 440.492C345.555 439.595 344.35 439.616 344.345 439.833C344.309 440.062 345.24 440.373 346.122 441.116C347.022 441.839 347.505 442.693 347.723 442.614Z" fill="#263238"/>
<path d="M349.26 426.748C349.439 426.897 350.262 426.147 351.484 425.66C352.697 425.148 353.809 425.104 353.832 424.871C353.881 424.661 352.609 424.317 351.177 424.912C349.741 425.495 349.078 426.633 349.26 426.748Z" fill="#263238"/>
<path d="M334.109 407.96L303.719 325.331C303.719 325.331 304.442 311.597 306.972 307.26C309.502 302.923 386.123 277.623 386.123 277.623C386.123 277.623 405.64 272.924 418.651 277.623C431.662 282.321 444.883 288.122 443.585 297.244C443.4 298.541 443.053 299.921 442.585 301.343C438.244 314.544 425.839 323.424 411.949 323.836L401.823 324.969L350.173 334.828C347.865 335.268 346.445 337.609 347.12 339.86L363.805 395.447C363.805 395.447 345.579 404.34 334.109 407.96Z" fill="#263238"/>
<path d="M307.277 350.821L306.551 379.937L328.235 380.467L331.359 345.527L307.277 350.821Z" fill="#FFBE9D"/>
<path d="M306.549 376.061L305.654 392.681C305.654 392.681 280.95 401.556 280.625 406.097L328.199 406.579L329.662 376.908L306.549 376.061Z" fill="#455A64"/>
<path d="M305.43 383.309C305.396 383.308 305.363 383.003 305.458 382.459C305.557 381.92 305.804 381.131 306.416 380.296C306.573 380.092 306.73 379.872 306.987 379.671C307.231 379.472 307.653 379.319 308.06 379.454C308.262 379.513 308.464 379.678 308.534 379.881C308.61 380.088 308.572 380.291 308.512 380.458C308.379 380.8 308.18 381.044 308.013 381.326C307.641 381.888 307.334 382.447 306.859 383.079C306.618 383.402 306.079 383.669 305.586 383.593C305.101 383.538 304.709 383.327 304.356 383.104C303.671 382.658 303.068 382.151 302.549 381.61C302.29 381.34 302.053 381.061 301.837 380.778C301.633 380.498 301.392 380.213 301.302 379.823C301.21 379.447 301.369 378.953 301.845 378.782C302.328 378.626 302.721 378.843 302.99 379.014C303.536 379.42 303.864 379.837 304.197 380.241C304.832 381.047 305.182 381.785 305.38 382.3C305.574 382.819 305.62 383.119 305.586 383.128C305.488 383.165 305.163 381.967 303.875 380.454C303.555 380.095 303.159 379.659 302.715 379.355C302.489 379.21 302.206 379.117 302.035 379.194C301.854 379.252 301.754 379.495 301.813 379.729C301.869 379.971 302.072 380.231 302.281 380.5C302.49 380.766 302.719 381.028 302.967 381.282C303.464 381.79 304.041 382.27 304.686 382.69C304.996 382.89 305.334 383.055 305.649 383.089C305.965 383.124 306.213 383.012 306.421 382.77C306.816 382.255 307.195 381.618 307.56 381.089C307.735 380.813 307.946 380.545 308.038 380.314C308.134 380.071 308.081 379.914 307.892 379.846C307.458 379.685 307.036 380.125 306.743 380.498C305.525 382.052 305.541 383.341 305.43 383.309Z" fill="#263238"/>
<path d="M320.387 390.769C321.305 391.03 321.931 392.072 321.708 393C321.485 393.928 320.431 394.574 319.508 394.329C318.586 394.084 317.796 392.857 318.121 391.959C318.447 391.062 319.726 390.372 320.562 390.831" fill="#E0E0E0"/>
<g opacity="0.6">
<path d="M328.2 406.579L328.108 402.723L282.529 403.703C282.529 403.703 280.402 404.603 280.626 406.097L328.2 406.579Z" fill="white"/>
</g>
<path d="M304.884 392.431C304.889 392.664 306.05 392.78 307.185 393.539C308.34 394.268 308.92 395.28 309.134 395.19C309.349 395.147 309.016 393.755 307.625 392.861C306.243 391.955 304.836 392.217 304.884 392.431Z" fill="#263238"/>
<path d="M299.873 394.444C299.818 394.668 300.82 395.074 301.599 396.064C302.407 397.032 302.595 398.096 302.827 398.088C303.045 398.127 303.22 396.768 302.227 395.555C301.246 394.334 299.881 394.223 299.873 394.444Z" fill="#263238"/>
<path d="M296.98 400.388C297.19 400.44 297.526 399.282 296.942 398.004C296.367 396.721 295.277 396.208 295.177 396.401C295.044 396.591 295.742 397.28 296.205 398.337C296.693 399.382 296.749 400.362 296.98 400.388Z" fill="#263238"/>
<path d="M305.363 386.829C305.458 387.042 306.527 386.732 307.839 386.835C309.153 386.911 310.171 387.362 310.294 387.164C310.43 386.997 309.442 386.128 307.894 386.029C306.348 385.917 305.251 386.645 305.363 386.829Z" fill="#263238"/>
<path d="M319.937 269.986C319.937 269.986 306.946 268.947 305.5 283.043C304.054 297.139 297.27 362.472 297.27 362.472L332.995 365.449L337.693 298.225L386.124 277.624C386.124 277.624 328.611 268.179 319.937 269.986Z" fill="#263238"/>
<path d="M373.483 250.965C373.483 250.965 365.598 273.071 367.1 275.535C368.602 277.999 388.877 288.136 388.877 288.136L439.611 307.621C439.611 307.621 444.822 299.332 444.822 286.6C444.822 273.868 427.175 250.965 427.175 250.965H373.483Z" fill="#263238"/>
<path d="M388.523 276.495C388.526 276.503 388.446 276.546 388.285 276.623C388.1 276.709 387.862 276.819 387.565 276.956C386.896 277.254 385.957 277.671 384.755 278.206C382.264 279.291 378.687 280.849 374.209 282.8C365.16 286.695 352.476 292.155 337.799 298.473L337.963 298.242C337.502 304.882 337.005 312.054 336.49 319.474C335.256 336.819 334.118 352.811 333.218 365.463L333.202 365.692L332.974 365.672C323.74 364.862 316.163 364.197 310.857 363.731C308.248 363.487 306.199 363.296 304.767 363.162C304.093 363.092 303.565 363.037 303.175 362.997C302.816 362.956 302.632 362.929 302.633 362.918C302.634 362.906 302.82 362.911 303.181 362.929C303.572 362.954 304.102 362.987 304.778 363.029C306.213 363.134 308.265 363.285 310.878 363.476C316.188 363.895 323.771 364.493 333.012 365.223L332.768 365.432C333.637 352.777 334.734 336.782 335.925 319.435C336.447 312.016 336.952 304.844 337.42 298.205L337.432 298.039L337.585 297.974C352.294 291.731 365.005 286.335 374.073 282.486C378.578 280.597 382.176 279.088 384.681 278.038C385.898 277.539 386.849 277.149 387.526 276.871C387.831 276.751 388.075 276.655 388.265 276.581C388.433 276.517 388.52 276.488 388.523 276.495Z" fill="#455A64"/>
<path d="M428.872 278.707C428.859 278.744 428.352 278.603 427.448 278.318C426.44 277.993 425.159 277.58 423.628 277.086C420.405 276.063 415.933 274.638 410.844 273.856C405.755 273.071 401.046 273.313 397.757 274.024C394.453 274.707 392.554 275.65 392.512 275.543C392.498 275.513 392.957 275.254 393.832 274.875C394.705 274.493 396.01 274.03 397.671 273.632C400.984 272.809 405.777 272.499 410.929 273.295C416.079 274.088 420.56 275.585 423.757 276.706C425.357 277.274 426.64 277.761 427.523 278.109C428.404 278.459 428.885 278.67 428.872 278.707Z" fill="#455A64"/>
<path d="M421.698 267.054C421.684 267.144 419.999 266.815 417.263 267.029C415.897 267.124 414.271 267.334 412.461 267.543C410.654 267.758 408.669 268.001 406.616 268.39C402.494 269.124 398.947 270.561 396.675 272.078C394.381 273.571 393.306 274.932 393.228 274.855C393.206 274.837 393.438 274.472 393.965 273.901C394.491 273.332 395.306 272.542 396.451 271.746C398.711 270.109 402.337 268.575 406.51 267.834C408.59 267.44 410.589 267.211 412.404 267.024C414.217 266.843 415.854 266.674 417.243 266.628C418.63 266.578 419.758 266.658 420.526 266.774C421.294 266.892 421.705 267.021 421.698 267.054Z" fill="#455A64"/>
<path d="M347.995 424.031C347.964 424.044 347.784 423.754 347.602 423.168C347.426 422.585 347.26 421.687 347.397 420.582C347.437 420.309 347.469 420.019 347.602 419.705C347.723 419.398 348.027 419.059 348.458 419.015C348.668 418.985 348.93 419.061 349.094 419.233C349.264 419.406 349.33 419.627 349.358 419.82C349.407 420.221 349.349 420.553 349.337 420.909C349.28 421.635 349.279 422.33 349.164 423.172C349.107 423.602 348.755 424.107 348.275 424.248C347.812 424.407 347.357 424.369 346.931 424.302C346.097 424.158 345.306 423.917 344.575 423.606C344.21 423.45 343.86 423.275 343.527 423.088C343.206 422.898 342.85 422.719 342.576 422.369C342.308 422.033 342.208 421.469 342.551 421.088C342.907 420.718 343.367 420.762 343.693 420.815C344.383 420.98 344.882 421.253 345.379 421.509C346.345 422.035 347.023 422.619 347.454 423.047C347.883 423.48 348.073 423.761 348.047 423.784C347.977 423.864 347.096 422.81 345.195 421.865C344.732 421.648 344.161 421.387 343.614 421.278C343.339 421.233 343.04 421.264 342.925 421.417C342.792 421.555 342.821 421.842 342.99 422.05C343.159 422.268 343.47 422.437 343.79 422.615C344.109 422.788 344.443 422.95 344.791 423.095C345.487 423.384 346.241 423.609 347.026 423.744C347.403 423.807 347.788 423.823 348.087 423.718C348.388 423.614 348.555 423.392 348.623 423.058C348.724 422.368 348.751 421.564 348.818 420.873C348.839 420.519 348.897 420.158 348.865 419.887C348.832 419.602 348.707 419.468 348.504 419.483C348.036 419.514 347.874 420.14 347.794 420.642C347.462 422.731 348.11 424.013 347.995 424.031Z" fill="#263238"/>
<path d="M372.229 163.869C372.229 163.869 366.994 165.538 363.803 171.192C360.64 176.795 361.484 179.562 362.312 182.872C363.139 186.182 364.597 192.754 364.679 192.331C364.76 191.907 372.229 163.869 372.229 163.869Z" fill="#FFBE9D"/>
<path d="M425.712 173.862C425.712 173.862 421.574 163.869 420.741 162.942L405.458 159.081L395.906 163.758C393.139 165.113 390.059 165.819 386.991 165.529C383.567 165.205 380.568 163.827 379.059 161.304L373.089 162.917C373.089 162.917 363.608 191.534 363.804 199.455C364 207.376 367.287 229.87 366.911 234.306C366.535 238.742 368.078 250.966 373.484 250.966C378.89 250.966 427.176 250.966 427.176 250.966C427.176 250.966 439.302 247.613 439.828 240.326C440.355 233.038 425.712 173.862 425.712 173.862Z" fill="#0A5840"/>
<path d="M408.599 217.277C408.62 217.305 408.31 217.588 407.699 218.038C407.087 218.486 406.156 219.08 404.92 219.657C403.688 220.237 402.13 220.761 400.337 221.032C398.547 221.284 396.517 221.27 394.478 220.779C390.358 219.822 387.259 217.393 385.363 215.491C384.405 214.526 383.72 213.664 383.268 213.057C382.828 212.44 382.609 212.083 382.639 212.061C382.72 211.997 383.694 213.365 385.642 215.202C387.579 217.003 390.634 219.306 394.607 220.227C398.574 221.187 402.337 220.339 404.758 219.291C407.219 218.245 408.536 217.183 408.599 217.277Z" fill="#263238"/>
<g opacity="0.3">
<path d="M383.536 213.298C383.944 217.351 385.883 221.289 389.052 223.849C392.221 226.409 396.625 227.473 400.542 226.353C404.459 225.233 407.711 221.844 408.389 217.827C405.628 219.085 402.822 220.356 399.821 220.81C393.425 221.778 386.595 218.553 383.277 213.001C383.423 213.155 383.569 213.309 383.714 213.463" fill="black"/>
</g>
<g opacity="0.3">
<path d="M428.724 222.005C423.051 211.002 417.054 199.609 407.133 192.205C409.331 199.734 411.301 206.798 413.736 214.253C414.425 216.364 415.508 218.816 417.701 219.166C418.508 219.295 419.344 219.097 420.145 219.257C421.517 219.531 422.466 220.763 423.204 221.952C423.942 223.141 424.677 224.448 425.934 225.062C427.192 225.676 429.11 225.089 429.227 223.695C429.278 223.101 428.997 222.535 428.724 222.005Z" fill="black"/>
</g>
<path d="M444.822 201.038L417.765 213.723C417.765 213.723 405.79 189.728 404.842 186.393C403.894 183.058 401.862 177.372 404.913 170.416C407.964 163.46 416.052 161.282 421.157 163.074C433.086 167.261 444.822 201.038 444.822 201.038Z" fill="#0A5840"/>
<path d="M366.38 200.953C365.117 200.953 350.611 208.541 350.611 208.541L340.965 180.717C353.433 173.957 367.286 164.417 374.504 162.478L368.232 184.245L366.38 200.953Z" fill="#0A5840"/>
<path d="M420.421 212.001C425.545 220.42 429.12 225.263 429.12 225.263L383.168 253.249L388.523 265.687L444.38 242.697C448.16 241.141 451.112 237.938 452.051 233.959C452.455 232.244 452.527 230.338 451.922 228.373L442.419 202.146L420.421 212.001Z" fill="#FFBE9D"/>
<path d="M440.299 229.539C440.191 229.682 438.02 227.857 434.799 226.682C431.59 225.471 428.755 225.438 428.766 225.259C428.739 225.125 431.67 224.899 434.996 226.15C438.332 227.372 440.407 229.456 440.299 229.539Z" fill="#EB996E"/>
<path d="M368.047 176.206C368.007 176.191 367.734 176.647 367.272 177.491C366.837 178.342 366.283 179.604 365.778 181.201C364.717 184.389 363.894 188.913 363.506 193.929C363.155 198.95 363.287 203.511 363.66 206.792C363.832 208.433 364.063 209.755 364.256 210.662C364.465 211.568 364.6 212.065 364.644 212.058C364.687 212.052 364.634 211.544 364.502 210.633C364.385 209.721 364.223 208.401 364.11 206.764C363.852 203.493 363.793 198.955 364.142 193.96C364.529 188.97 365.275 184.471 366.215 181.289C366.661 179.694 367.143 178.428 367.504 177.562C367.891 176.706 368.087 176.221 368.047 176.206Z" fill="#263238"/>
<path d="M347.516 261.771L358.977 256.288L381.344 254.514L383.168 253.248L388.523 265.686C388.523 265.686 382.66 268.489 379.589 268.739L360.784 268.169L350.952 269.202L347.516 261.771Z" fill="#FFBE9D"/>
<path d="M444.823 201.038C444.815 201.022 444.631 201.087 444.286 201.227C443.89 201.395 443.395 201.605 442.788 201.863C441.431 202.466 439.579 203.287 437.32 204.29C432.664 206.413 426.345 209.294 419.362 212.477C418.612 212.823 417.869 213.165 417.172 213.487L417.514 213.609C414.392 207.174 411.655 201.417 409.718 197.262C408.782 195.229 408.018 193.569 407.456 192.348C407.21 191.812 407.009 191.372 406.846 191.018C406.703 190.716 406.62 190.561 406.604 190.567C406.588 190.573 406.64 190.741 406.754 191.056C406.87 191.37 407.039 191.834 407.278 192.424C407.751 193.607 408.471 195.309 409.396 197.408C411.251 201.606 413.933 207.392 417.047 213.836L417.158 214.065L417.389 213.958C418.087 213.637 418.83 213.295 419.58 212.95C426.538 209.713 432.835 206.783 437.474 204.625C439.704 203.56 441.533 202.687 442.873 202.047C443.463 201.753 443.945 201.514 444.33 201.322C444.661 201.152 444.831 201.054 444.823 201.038Z" fill="#263238"/>
<path d="M419.925 163.074C419.928 163.17 418.657 163.135 416.699 163.605C414.755 164.06 412.114 165.146 409.854 167.213C407.595 169.282 406.28 171.818 405.655 173.714C405.014 175.623 404.937 176.892 404.841 176.88C404.809 176.878 404.796 176.56 404.844 175.989C404.89 175.418 405.021 174.594 405.304 173.604C405.852 171.635 407.159 168.976 409.503 166.829C411.848 164.684 414.611 163.618 416.621 163.245C417.632 163.051 418.465 162.993 419.038 162.998C419.61 163.001 419.925 163.042 419.925 163.074Z" fill="#263238"/>
<path d="M435.481 180.501C435.515 180.511 435.387 180.935 435.122 181.699C434.907 182.483 434.366 183.529 433.581 184.752C433.351 185.038 433.113 185.335 432.866 185.643C432.741 185.798 432.613 185.956 432.483 186.117C432.339 186.265 432.177 186.4 432.02 186.545C431.7 186.833 431.371 187.13 431.033 187.435C430.663 187.7 430.268 187.955 429.87 188.226C428.243 189.247 426.284 190.094 424.163 190.682C419.918 191.866 415.991 192.429 413.265 193.277C410.52 194.064 409 195.001 408.946 194.906C408.928 194.875 409.303 194.641 410.005 194.24C410.349 194.022 410.801 193.826 411.331 193.607C411.6 193.493 411.883 193.374 412.178 193.25C412.49 193.146 412.815 193.038 413.154 192.926C415.887 191.978 419.828 191.351 424.015 190.182C426.11 189.602 428.02 188.787 429.613 187.819C430.002 187.564 430.382 187.314 430.753 187.071C431.085 186.783 431.409 186.503 431.723 186.23C431.878 186.093 432.039 185.966 432.182 185.826C432.311 185.674 432.438 185.524 432.562 185.377C432.81 185.086 433.05 184.805 433.282 184.534C434.08 183.373 434.663 182.374 434.932 181.622C435.252 180.893 435.447 180.49 435.481 180.501Z" fill="white"/>
<path d="M431.915 174.128C431.916 174.181 431.477 174.11 430.789 174.395C430.098 174.67 429.249 175.374 428.543 176.523C428.175 177.087 427.816 177.743 427.336 178.41C426.847 179.069 426.241 179.713 425.516 180.283C424.069 181.435 422.195 182.266 420.191 182.869C418.181 183.481 416.221 183.83 414.482 184.261C412.737 184.678 411.201 185.171 409.973 185.725C407.498 186.836 406.392 188.184 406.322 188.101C406.309 188.089 406.37 188.002 406.5 187.847C406.628 187.689 406.826 187.466 407.112 187.208C407.674 186.684 408.576 186.002 409.815 185.392C411.053 184.781 412.61 184.242 414.365 183.795C416.118 183.334 418.067 182.971 420.04 182.37C422.01 181.777 423.825 180.984 425.222 179.904C425.922 179.369 426.509 178.768 426.99 178.151C427.463 177.527 427.842 176.881 428.238 176.317C429.002 175.161 429.963 174.431 430.719 174.205C431.094 174.082 431.404 174.06 431.608 174.07C431.813 174.079 431.917 174.114 431.915 174.128Z" fill="white"/>
<path d="M410.102 198.177C410.109 198.194 409.962 198.276 409.676 198.417C409.332 198.578 408.915 198.774 408.412 199.009C407.308 199.509 405.702 200.217 403.678 201.001C401.652 201.772 399.206 202.647 396.389 203.259C393.582 203.875 390.376 204.234 387.053 203.809C383.714 203.41 380.747 202.195 378.063 201.239C375.383 200.245 372.924 199.498 370.79 199.23C368.661 198.943 366.908 199.085 365.737 199.341C364.562 199.592 363.945 199.865 363.926 199.818C363.919 199.802 364.068 199.725 364.361 199.594C364.654 199.464 365.099 199.295 365.69 199.144C366.867 198.822 368.658 198.619 370.833 198.865C373.012 199.09 375.529 199.816 378.223 200.788C380.924 201.724 383.864 202.907 387.116 203.293C390.362 203.709 393.509 203.373 396.286 202.791C399.073 202.212 401.514 201.381 403.547 200.657C405.578 199.92 407.203 199.266 408.33 198.823C408.848 198.623 409.277 198.457 409.631 198.321C409.934 198.21 410.095 198.161 410.102 198.177Z" fill="white"/>
<path d="M365.708 188.976C365.698 188.961 365.819 188.868 366.062 188.703C366.302 188.537 366.682 188.319 367.203 188.117C368.231 187.683 369.882 187.384 371.871 187.641C373.863 187.869 376.142 188.714 378.422 190.004C380.723 191.251 383.104 192.882 385.884 193.942C388.676 194.971 391.546 195.264 394.127 195.181C396.716 195.108 399.034 194.732 400.963 194.361C402.894 193.986 404.447 193.62 405.523 193.375C406.598 193.13 407.196 193.005 407.206 193.04C407.215 193.074 406.635 193.265 405.574 193.571C404.513 193.876 402.97 194.298 401.038 194.721C399.107 195.141 396.774 195.56 394.143 195.66C391.522 195.77 388.576 195.488 385.702 194.429C382.839 193.335 380.455 191.678 378.19 190.423C375.944 189.123 373.756 188.276 371.822 188.006C369.896 187.711 368.296 187.943 367.274 188.307C366.241 188.661 365.737 189.023 365.708 188.976Z" fill="white"/>
<path d="M360.558 203.224C360.554 203.241 360.448 203.229 360.249 203.189C360.046 203.159 359.76 203.069 359.396 202.932C358.675 202.651 357.688 202.037 356.77 200.984C355.852 199.934 355.031 198.452 354.529 196.682C354.026 194.906 353.888 192.891 353.809 190.809C353.732 188.726 353.682 186.745 353.347 184.997C353.014 183.25 352.422 181.737 351.713 180.6C350.283 178.275 348.53 177.7 348.612 177.606C348.619 177.59 348.721 177.62 348.91 177.695C349.104 177.761 349.37 177.898 349.706 178.094C350.37 178.491 351.246 179.242 352.023 180.4C352.8 181.556 353.449 183.108 353.818 184.903C354.189 186.704 354.252 188.71 354.329 190.788C354.407 192.862 354.532 194.84 354.991 196.554C355.45 198.266 356.206 199.71 357.051 200.746C357.897 201.785 358.805 202.418 359.479 202.746C360.155 203.08 360.572 203.172 360.558 203.224Z" fill="white"/>
<path d="M363.298 196.118C363.228 196.143 362.706 194.888 361.856 192.864C360.943 190.713 359.786 187.985 358.506 184.968C357.17 181.896 355.93 179.13 354.977 177.155C354.037 175.174 353.365 173.998 353.43 173.956C353.46 173.937 353.663 174.211 354.003 174.727C354.335 175.247 354.786 176.017 355.305 176.989C356.347 178.931 357.644 181.682 358.983 184.761C360.313 187.842 361.437 190.665 362.198 192.729C362.579 193.761 362.871 194.602 363.059 195.188C363.246 195.775 363.332 196.105 363.298 196.118Z" fill="white"/>
<path d="M283.039 217.623L347.517 218.147C349.609 218.147 351.607 219.152 351.921 221.22L358.968 268.215H392.18C393.249 268.215 394.116 269.082 394.116 270.151C394.116 271.22 393.249 272.087 392.18 272.087H359.549H353.355H286.106L278.857 222.488C278.469 219.928 280.45 217.623 283.039 217.623Z" fill="#E0E0E0"/>
<path d="M283.04 217.623C283.04 217.623 282.689 217.578 282.024 217.718C281.379 217.868 280.362 218.267 279.561 219.351C279.162 219.882 278.858 220.591 278.764 221.409C278.659 222.239 278.897 223.115 279.001 224.061C279.271 225.96 279.582 228.148 279.931 230.606C281.35 240.459 283.395 254.658 285.91 272.115L285.935 272.285H286.107C313.555 272.301 349.626 272.323 389.015 272.346C389.94 272.346 390.863 272.346 391.785 272.346C392.212 272.364 392.807 272.339 393.25 272.067C393.708 271.815 394.064 271.392 394.242 270.903C394.628 269.919 394.167 268.714 393.241 268.225C392.799 267.958 392.21 267.935 391.788 267.952H390.424C386.791 267.953 383.195 267.953 379.646 267.954C372.547 267.956 365.633 267.959 358.97 267.961L359.218 268.175C356.682 251.345 354.316 235.645 352.193 221.56C352.12 220.668 351.716 219.703 351 219.105C350.3 218.484 349.414 218.154 348.535 218.017C347.638 217.881 346.785 217.954 345.935 217.925C345.084 217.919 344.24 217.913 343.403 217.908C340.055 217.886 336.817 217.864 333.696 217.843C327.456 217.803 321.685 217.767 316.444 217.734C305.975 217.68 297.63 217.637 291.884 217.608C289.029 217.603 286.823 217.599 285.314 217.596C284.577 217.599 284.013 217.602 283.617 217.604C283.235 217.609 283.04 217.623 283.04 217.623C283.04 217.623 283.234 217.639 283.616 217.65C284.012 217.658 284.575 217.67 285.312 217.685C286.821 217.707 289.027 217.739 291.882 217.78C297.628 217.844 305.973 217.937 316.441 218.053C321.681 218.105 327.452 218.162 333.692 218.224C336.813 218.254 340.051 218.285 343.399 218.316C344.236 218.324 345.08 218.332 345.931 218.34C346.779 218.369 347.652 218.303 348.467 218.433C349.287 218.562 350.099 218.872 350.716 219.425C351.35 219.977 351.685 220.746 351.765 221.626C353.867 235.714 356.209 251.417 358.721 268.251L358.753 268.465H358.97C365.633 268.467 372.547 268.47 379.646 268.472C383.195 268.473 386.791 268.473 390.424 268.474H391.788C392.269 268.461 392.628 268.48 392.989 268.682C393.696 269.056 394.048 269.975 393.753 270.725C393.617 271.097 393.346 271.422 392.996 271.613C392.633 271.819 392.271 271.839 391.785 271.825C390.864 271.825 389.94 271.825 389.015 271.825C349.626 271.848 313.555 271.87 286.107 271.886L286.304 272.056C283.717 254.61 281.612 240.419 280.152 230.572C279.783 228.116 279.455 225.932 279.17 224.035C279.056 223.085 278.812 222.214 278.907 221.423C278.989 220.631 279.274 219.94 279.655 219.418C280.42 218.351 281.406 217.941 282.038 217.774C282.69 217.618 283.043 217.648 283.04 217.623Z" fill="#263238"/>
<path d="M315.162 248.294C317.392 248.294 319.199 246.487 319.199 244.257C319.199 242.027 317.392 240.22 315.162 240.22C312.932 240.22 311.125 242.027 311.125 244.257C311.125 246.487 312.932 248.294 315.162 248.294Z" fill="white"/>
<path d="M356.356 271.653C356.265 271.668 354.212 259.701 351.773 244.928C349.332 230.15 347.428 218.161 347.519 218.146C347.61 218.131 349.662 230.095 352.103 244.873C354.543 259.647 356.447 271.638 356.356 271.653Z" fill="#263238"/>
<path d="M33.957 477.961C33.957 477.817 130.69 477.701 249.99 477.701C369.331 477.701 466.043 477.818 466.043 477.961C466.043 478.105 369.33 478.221 249.99 478.221C130.691 478.221 33.957 478.104 33.957 477.961Z" fill="#263238"/>
</svg>
