<svg xmlns="http://www.w3.org/2000/svg" width="2049" height="2049" style="shape-rendering:geometricPrecision;text-rendering:geometricPrecision;image-rendering:optimizeQuality;fill-rule:evenodd;clip-rule:evenodd"><path style="opacity:.983" fill="#1c74bc" d="M239.5 485.5h459c2.545 50.316 4.878 100.65 7 151h-48a9158.86 9158.86 0 0 1-19-108h-130c-1.332 159-1.332 318 0 477 29.037 2.67 58.037 5.67 87 9v35h-253v-35c28.974-3.22 57.974-6.22 87-9 1.33-159 1.33-318 0-477-43.001-.167-86.001 0-129 .5a30337.746 30337.746 0 0 0-20 106.5 576.95 576.95 0 0 1-48 1 25159.068 25159.068 0 0 0 7-151Z"/><path style="opacity:.664" fill="#1c74bc" d="M839.5 632.5a170.067 170.067 0 0 1 30 2c-70.543-3.538-130.043 20.462-178.5 72-34.46 41.186-52.293 88.853-53.5 143-.542-74.749 29.124-134.249 89-178.5 34.09-23.436 71.757-36.27 113-38.5Z"/><path style="opacity:.818" fill="#eae0e8" d="M867.5 669.5a6.547 6.547 0 0 0-3 3c-1.901 2.296-4.234 4.129-7 5.5.88 1.356 1.214 2.856 1 4.5a297.301 297.301 0 0 0 3 15 347.406 347.406 0 0 1 5.5 25c.436 2.898 1.603 5.231 3.5 7v2c-2.281.423-3.948-.244-5-2v-1a884.665 884.665 0 0 0-7-31c-.109-5.21-1.109-10.21-3-15-1.114-2.677-1.114-5.344 0-8 1.761-.535 3.094-1.535 4-3 1.527.073 2.527-.594 3-2 6.102-9.563 4.768-18.063-4-25.5-11.296-5.5-19.963-2.667-26 8.5-1.635 5.987-.969 11.654 2 17 .473 1.406 1.473 2.073 3 2 1.981 1.644 3.981 3.31 6 5a11.988 11.988 0 0 0-1 6c-.617.111-1.117.444-1.5 1a308.077 308.077 0 0 0-2.5 14 769.465 769.465 0 0 0-6 29c-.904.709-1.237 1.709-1 3-1.052 1.756-2.719 2.423-5 2 .321-1.548 1.321-2.215 3-2a270.615 270.615 0 0 1 6-32 80.855 80.855 0 0 0 3-15c.315-1.726.481-3.393.5-5a48.558 48.558 0 0 1-6.5-5c.073-1.527-.594-2.527-2-3a56.004 56.004 0 0 1-3-10c1.125-1.152 1.125-2.152 0-3 3.201-13.773 11.868-19.939 26-18.5 14.971 5.707 19.638 16.207 14 31.5Zm-5 0a102.405 102.405 0 0 0-28 0c-2.969-5.346-3.635-11.013-2-17 6.037-11.167 14.704-14 26-8.5 8.768 7.437 10.102 15.937 4 25.5Zm-25 2h22c-.906 1.465-2.239 2.465-4 3-1.114 2.656-1.114 5.323 0 8h-13a11.988 11.988 0 0 1 1-6c-2.019-1.69-4.019-3.356-6-5Z"/><path style="opacity:.98" fill="#1c74bc" d="M1145.5 649.5c69.02-.455 138.02.045 207 1.5 84.24 9.582 137.74 55.082 160.5 136.5 11.95 51.04 9.62 101.374-7 151-24.23 57.89-66.73 94.72-127.5 110.5a276.388 276.388 0 0 1-42 7c-63.66 1.41-127.32 1.91-191 1.5v-26l56-6c1.33-114.667 1.33-229.333 0-344a4618.659 4618.659 0 0 0-55-6.5 166.506 166.506 0 0 1-1-25.5Zm114 29c130.79-14.877 196.12 43.457 196 175-1.02 130.008-66.35 188.34-196 175a15351.376 15351.376 0 0 1 0-350Z"/><path style="opacity:.617" fill="#1c74bc" d="M838.5 655.5c11.88.39 11.88 1.39 0 3v-3Z"/><path style="opacity:.61" fill="#1c74bc" d="M855.5 655.5c11.859 1.588 11.859 2.588 0 3v-3Z"/><path style="opacity:.583" fill="#2578bd" d="M827.5 656.5c1.125.848 1.125 1.848 0 3-7.797-.551-7.797-1.551 0-3Z"/><path style="opacity:.624" fill="#1c74bc" d="M871.5 657.5c3.513-.193 6.846.474 10 2-2.265 1.147-4.598 1.314-7 .5-1.619-.236-2.619-1.069-3-2.5Z"/><path style="opacity:.556" fill="#1c74bc" d="M810.5 658.5c1.478-.262 2.811.071 4 1a3.647 3.647 0 0 1-1 1.5 168.167 168.167 0 0 1-8 1.5v-3c1.915.284 3.581-.049 5-1Z"/><path style="opacity:.613" fill="#1c74bc" d="M888.5 660.5c3.462-.059 6.462.941 9 3-2.639.856-5.306.69-8-.5-.752-.671-1.086-1.504-1-2.5Z"/><path style="opacity:.633" fill="#1c74bc" d="M952.5 660.5c33.964 18.128 60.63 43.961 80 77.5-.92 1.489-1.92 1.656-3 .5-18.91-32.074-44.574-57.241-77-75.5-1.098-.77-1.098-1.603 0-2.5Z"/><path style="opacity:.599" fill="#1c74bc" d="M904.5 664.5c3.417.576 6.417 1.909 9 4l-2 1a28.741 28.741 0 0 0-7-2v-3Z"/><path style="opacity:.692" fill="#2176bc" d="M862.5 669.5c-.473 1.406-1.473 2.073-3 2h-22c-1.527.073-2.527-.594-3-2a102.405 102.405 0 0 1 28 0Z"/><path style="opacity:.649" fill="#1c75bc" d="M830.5 669.5c1.406.473 2.073 1.473 2 3-30.156 2.714-57.489 12.714-82 30-2.174.25-3.841 1.25-5 3-20.393 14.979-36.726 33.479-49 55.5-1 .667-2 .667-3 0 30.463-52.922 76.129-83.422 137-91.5Z"/><path style="opacity:.651" fill="#1c75bc" d="M867.5 669.5c35.511 4.181 67.011 17.514 94.5 40 .749 1.135.583 2.135-.5 3a836.956 836.956 0 0 0-9-6c-.629-2.497-2.296-3.83-5-4-24.824-17.5-52.491-27.5-83-30a6.547 6.547 0 0 1 3-3Z"/><path style="opacity:.951" fill="#2ba7dc" d="M838.5 682.5a80.855 80.855 0 0 1-3 15h-26v6a400.456 400.456 0 0 1-40-1c21.544-11.472 44.544-18.138 69-20Z"/><path style="opacity:.97" fill="#35aade" d="M842.5 682.5h13c1.891 4.79 2.891 9.79 3 15h-20c.723-4.673 1.557-9.34 2.5-14 .383-.556.883-.889 1.5-1Z"/><path style="opacity:.951" fill="#2da7dc" d="M858.5 682.5c24.443 1.816 47.443 8.482 69 20a380.934 380.934 0 0 1-39 1c-.961-1.765-1.295-3.765-1-6h-26a297.301 297.301 0 0 1-3-15Z"/><path style="opacity:.564" fill="#1c74bc" d="M734.5 691.5c1.725.343 2.225 1.343 1.5 3-1.71 1.445-3.544 2.278-5.5 2.5l-1-1a208.311 208.311 0 0 0 5-4.5Z"/><path style="opacity:1" fill="#f76132" d="M835.5 697.5a270.615 270.615 0 0 0-6 32c-1.679-.215-2.679.452-3 2-5.475.989-11.142 1.322-17 1v-35h26Z"/><path style="opacity:1" fill="#f66132" d="M838.5 697.5h20a884.665 884.665 0 0 1 7 31c-11.384.644-22.384-.023-33-2a769.465 769.465 0 0 1 6-29Z"/><path style="opacity:1" fill="#f56132" d="M861.5 697.5h26c-.295 2.235.039 4.235 1 6v22c-.961 1.765-1.295 3.765-1 6-5.963.545-11.63-.121-17-2-1.897-1.769-3.064-4.102-3.5-7a347.406 347.406 0 0 0-5.5-25Z"/><path style="opacity:.581" fill="#1c74bc" d="M723.5 700.5c1.585.502 2.085 1.502 1.5 3a47.05 47.05 0 0 0-6.5 5c-1.083-.865-1.249-1.865-.5-3 2.191-1.333 4.024-3 5.5-5Z"/><path style="opacity:.998" fill="#161d21" d="M750.5 702.5h19a400.456 400.456 0 0 0 40 1v10h-56v241h63c.327-10.823 5.327-18.656 15-23.5l11-5.5 12-6a284.116 284.116 0 0 1 18-6 31.686 31.686 0 0 1 6-2 1501.986 1501.986 0 0 1-22 47 653.686 653.686 0 0 0 25 15.5 228.87 228.87 0 0 1-19.5 16.5 50.624 50.624 0 0 0 5.5 16c-17.601 2.22-35.268 1.55-53-2v-39c-22.336.167-44.669 0-67-.5l-1.5-1.5c-.5-81.333-.667-162.666-.5-244v-14c1.159-1.75 2.826-2.75 5-3Z"/><path style="opacity:.997" fill="#171e22" d="M927.5 702.5h20c2.704.17 4.371 1.503 5 4v13a421.042 421.042 0 0 0 1 41c8.006 3.173 13.506 8.84 16.5 17a189.807 189.807 0 0 1 3.5 47c-2.284 1.861-4.118 4.195-5.5 7a576.545 576.545 0 0 1-5-38l-2.5-2.5c-12.485-3.519-23.818-1.352-34 6.5a71.363 71.363 0 0 1-16 4c-7.065-.247-13.565-2.247-19.5-6a1666.251 1666.251 0 0 0-5.5 33c-1.922-2.082-4.255-3.416-7-4v-6a41.541 41.541 0 0 0-1-8v-3a104.618 104.618 0 0 0-1-9c-.166-6.342 0-12.675.5-19 4.885-10.931 12.052-20.097 21.5-27.5a11.596 11.596 0 0 1 7 .5c2.635 1.828 5.635 2.995 9 3.5a245.946 245.946 0 0 0 30 2.5c.202-2.45-.131-4.783-1-7v-37a361.608 361.608 0 0 0-38-1h-17v-10a380.934 380.934 0 0 0 39-1Z"/><path style="opacity:.566" fill="#1c74bc" d="M710.5 712.5c1.175-.219 2.175.114 3 1a64.292 64.292 0 0 1-6.5 7 4.457 4.457 0 0 1-1.5-2c1.69-2.019 3.356-4.019 5-6Z"/><path style="opacity:1" fill="#fed11c" d="M809.5 714.5v10h-55v-10h55Z"/><path style="opacity:1" fill="#fed228" d="M888.5 713.5h17v12h-17v-12Z"/><path style="opacity:1" fill="#fefefe" d="M943.5 714.5v37a1906.505 1906.505 0 0 1-37-36.5c12.329-.5 24.662-.667 37-.5Z"/><path style="opacity:1" fill="#e6e7e7" d="M905.5 713.5a361.608 361.608 0 0 1 38 1c-12.338-.167-24.671 0-37 .5a1906.505 1906.505 0 0 0 37 36.5c.869 2.217 1.202 4.55 1 7a245.946 245.946 0 0 1-30-2.5c-3.365-.505-6.365-1.672-9-3.5v-39Z"/><path style="opacity:.986" fill="#26a9e0" d="M745.5 719.5c-.167 81.334 0 162.667.5 244l1.5 1.5c22.331.5 44.664.667 67 .5v39c-54.779-13.145-93.612-45.478-116.5-97-22.612-62.664-12.945-119.664 29-171a147.622 147.622 0 0 1 18.5-17Z"/><path style="opacity:.984" fill="#28a9e0" d="M952.5 719.5c51.83 46.625 69.33 103.958 52.5 172-2.98 9.796-6.814 19.13-11.5 28a186.735 186.735 0 0 0-25-9 140.22 140.22 0 0 0-10.5-9 24.935 24.935 0 0 1-.5-7 89.306 89.306 0 0 1 2-17c3.943-7.4 6.943-15.234 9-23.5 9.6-5.831 13.1-14.331 10.5-25.5-.875-2.715-2.708-4.048-5.5-4 .784-15.834-.382-31.5-3.5-47-2.994-8.16-8.494-13.827-16.5-17a421.042 421.042 0 0 1-1-41Z"/><path style="opacity:.559" fill="#1c74bc" d="M986.5 719.5c3.659.815 6.326 2.981 8 6.5a4.457 4.457 0 0 1-2 1.5c-2.434-2.421-4.434-5.088-6-8Z"/><path style="opacity:.537" fill="#1c74bc" d="M699.5 724.5c1.256-.039 2.256.461 3 1.5a64.603 64.603 0 0 1-6 7.5 4.457 4.457 0 0 1-2-1.5c1.915-2.4 3.581-4.9 5-7.5Z"/><path style="opacity:1" fill="#fddb54" d="M809.5 713.5v1h-55v10h55v1h-56v-12h56Z"/><path style="opacity:1" fill="#fbfbfa" d="M753.5 725.5h56v7c5.858.322 11.525-.011 17-1 2.281.423 3.948-.244 5-2h34c1.052 1.756 2.719 2.423 5 2 5.81.99 11.81 1.323 18 1v-7h17v27a11.596 11.596 0 0 0-7-.5c-9.448 7.403-16.615 16.569-21.5 27.5-.5 6.325-.666 12.658-.5 19h-45v5h45c-.268 1.599.066 2.932 1 4v3h-46v6c15.907-.627 31.574.04 47 2v4h-47v6h44a19.22 19.22 0 0 0-1 6h-43v6h44a31.686 31.686 0 0 1 2 6h-46v6h53c2.072 1.85 3.405 4.183 4 7h-57v5h59a32.508 32.508 0 0 1 3 7h-62v5h64c1.238 1.714 1.905 3.714 2 6a1089.684 1089.684 0 0 1-66 1v5h67c.961 1.765 1.295 3.765 1 6a1156.835 1156.835 0 0 1-68 1v5h68c-2.213 2.36-4.879 4.194-8 5.5-20.171.168-40.171.668-60 1.5v5c13.844-.329 27.51.004 41 1a284.116 284.116 0 0 0-18 6h-23v5c3.871-.315 7.538.018 11 1l-11 5.5c-9.673 4.844-14.673 12.677-15 23.5h-63v-229Z"/><path style="opacity:1" fill="#f88866" d="M832.5 726.5c10.616 1.977 21.616 2.644 33 2v1h-34c-.237-1.291.096-2.291 1-3Z"/><path style="opacity:1" fill="#f99170" d="M888.5 725.5v7c-6.19.323-12.19-.01-18-1v-2c5.37 1.879 11.037 2.545 17 2-.295-2.235.039-4.235 1-6Z"/><path style="opacity:.601" fill="#1c74bc" d="M997.5 732.5c3.05 1.213 5.39 3.38 7 6.5a4.473 4.473 0 0 1-2 1.5c-2.512-2.17-4.179-4.837-5-8Z"/><path style="opacity:.579" fill="#1c74bc" d="M689.5 738.5c1.175-.219 2.175.114 3 1a21.671 21.671 0 0 1-5.5 7l-1.5-1a701.521 701.521 0 0 0 4-7Z"/><path style="opacity:.594" fill="#1c74bc" d="M1007.5 745.5c3.31 2.267 4.64 5.267 4 9a39.194 39.194 0 0 1-5-7c.36-.683.7-1.35 1-2Z"/><path style="opacity:.652" fill="#1c74bc" d="M996.5 751.5c3.337 2.028 5.67 5.028 7 9l-1.5 1c-2.909-2.742-4.742-6.075-5.5-10Z"/><path style="opacity:.571" fill="#1c74bc" d="M680.5 752.5c1.175-.219 2.175.114 3 1-1.18 3.04-2.847 5.706-5 8l-1-1.5a71.042 71.042 0 0 0 3-7.5Z"/><path style="opacity:.576" fill="#1c74bc" d="M1014.5 760.5c1.18-.219 2.18.114 3 1a46.79 46.79 0 0 1 3 7c-.82.886-1.82 1.219-3 1a49.32 49.32 0 0 0-3-9Z"/><path style="opacity:.599" fill="#1c74bc" d="M673.5 767.5c1.086.12 1.753.787 2 2-.574 2.821-1.908 5.154-4 7l-1-1.5a106.129 106.129 0 0 0 3-7.5Z"/><path style="opacity:.99" fill="#01718b" d="M1787.5 1019.5c.17-7.67 0-15.34-.5-23-1.44-9.069-6.61-14.569-15.5-16.5-11.36-.32-22.69-.986-34-2a31.488 31.488 0 0 1-9-2.5c-4.53-2.863-7.53-6.863-9-12 10.05-7.42 16.05-17.42 18-30 .24-4.077.9-8.077 2-12 10.73-3.78 15.07-11.447 13-23 .17-13.337 0-26.671-.5-40-5.5-36.169-26.5-53.169-63-51-33.88-2.401-54.54 12.932-62 46-1.72 15.469-1.89 30.802-.5 46-1.51 7.726.49 14.226 6 19.5 2.18 1.202 4.51 1.702 7 1.5.33 4 .67 8 1 12 1.74 13.495 8.07 24.162 19 32-1.9 4.563-4.9 8.23-9 11a47.993 47.993 0 0 1-12 2.5c-11 .628-22 1.294-33 2-8.98 3.329-13.82 9.829-14.5 19.5-.5 6.66-.67 13.33-.5 20-25.71-24.427-40.55-54.427-44.5-90-3.52-62.818 21.65-109.985 75.5-141.5 48.89-23.367 96.89-21.7 144 5 54.76 38.236 75.93 90.402 63.5 156.5-7.1 26.72-20.27 49.886-39.5 69.5-.59.46-1.26.63-2 .5Z"/><path style="opacity:1" fill="#f56639" d="M798.5 797.5a2968.346 2968.346 0 0 0-7 6c-4-3.333-7.667-7-11-11a10.756 10.756 0 0 1 2.5-3 96.005 96.005 0 0 0 8.5 8 34.807 34.807 0 0 0 7-7 371.68 371.68 0 0 0 16.5-16 10.756 10.756 0 0 1 2.5 3 86391.215 86391.215 0 0 0-19 20Z"/><path style="opacity:.619" fill="#1c74bc" d="M1022.5 775.5c1.88 2.263 3.22 4.93 4 8a4.486 4.486 0 0 1-1.5 2c-2.23-3.144-3.06-6.478-2.5-10Z"/><path style="opacity:1" fill="#b3b3b3" d="M831.5 776.5h42v6h-42v-6Z"/><path style="opacity:.614" fill="#1c74bc" d="M667.5 782.5c1.195.366 1.861 1.199 2 2.5a34.307 34.307 0 0 1-3 7.5 4.457 4.457 0 0 1-2-1.5 42.91 42.91 0 0 0 3-8.5Z"/><path style="opacity:1" fill="#b3b1b1" d="M798.5 790.5a34.807 34.807 0 0 1-7 7 96.005 96.005 0 0 1-8.5-8 10.756 10.756 0 0 0-2.5 3c3.333 4 7 7.667 11 11 2.353-2.023 4.686-4.023 7-6v9h-22v-21h22v5Z"/><path style="opacity:1" fill="#ebbca8" d="M973.5 824.5c2.792-.048 4.625 1.285 5.5 4 2.6 11.169-.9 19.669-10.5 25.5-2.057 8.266-5.057 16.1-9 23.5-8.772 9.054-19.439 13.721-32 14 .332-31.504-.002-62.838-1-94 10.182-7.852 21.515-10.019 34-6.5l2.5 2.5a576.545 576.545 0 0 0 5 38c1.382-2.805 3.216-5.139 5.5-7Z"/><path style="opacity:.545" fill="#1c74bc" d="M1026.5 791.5h3a35.229 35.229 0 0 0 2 8c-.33 1-1 1.667-2 2a56.678 56.678 0 0 1-3-10Z"/><path style="opacity:1" fill="#fdc3a8" d="M926.5 797.5a2209.105 2209.105 0 0 1 1 94c-8.599.368-16.265-2.132-23-7.5a105.468 105.468 0 0 0-9-8.5c-.489-1.495-1.155-2.829-2-4a32.508 32.508 0 0 0-3-7 16.339 16.339 0 0 1-2-5c-.595-2.817-1.928-5.15-4-7-2.932-1.3-5.266-3.3-7-6a31.686 31.686 0 0 0-2-6l-1-6a19.22 19.22 0 0 1 1-6c.526-1.73 1.526-3.064 3-4 2.745.584 5.078 1.918 7 4 1.725-11.03 3.558-22.03 5.5-33 5.935 3.753 12.435 5.753 19.5 6a71.363 71.363 0 0 0 16-4Z"/><path style="opacity:.584" fill="#1c74bc" d="m662.5 798.5 3 1.5a22.684 22.684 0 0 0-2 8.5c-1.175.219-2.175-.114-3-1a54.293 54.293 0 0 0 2-9Z"/><path style="opacity:1" fill="#afafaf" d="M876.5 798.5c.463 2.982.796 5.982 1 9-.934-1.068-1.268-2.401-1-4h-45v-5h45Z"/><path style="opacity:.584" fill="#1c74bc" d="M1031.5 807.5c1.19.47 1.86 1.47 2 3 .87 2.409.87 4.742 0 7a3.595 3.595 0 0 1-1.5-1c-.87-3.115-1.04-6.115-.5-9Z"/><path style="opacity:1" fill="#414042" d="M1752.5 898.5a29.153 29.153 0 0 1-3-4.5 28.118 28.118 0 0 1-5-1.5c-.71-11.013-1.55-22.013-2.5-33-2.53-4.389-6.36-6.055-11.5-5a840.483 840.483 0 0 1-43 3 526.872 526.872 0 0 0-47-2.5 6.97 6.97 0 0 0-3.5 2.5 255.672 255.672 0 0 0-1.5 35c-5.06-.272-8.06 2.061-9 7-1.39-15.198-1.22-30.531.5-46 7.46-33.068 28.12-48.401 62-46 36.5-2.169 57.5 14.831 63 51 .5 13.329.67 26.663.5 40Z"/><path style="opacity:1" fill="#b2b2b2" d="M877.5 810.5a41.541 41.541 0 0 1 1 8c-15.426-1.96-31.093-2.627-47-2v-6h46Z"/><path style="opacity:.657" fill="#1c74bc" d="M1057.5 817.5c9.93 77.699-15.07 142.199-75 193.5-58.588 44.58-123.588 57.25-195 38-55.008-17.69-96.842-51.521-125.5-101.5a55.361 55.361 0 0 1-5.5-13c1.175-.219 2.175.114 3 1 35.076 68.74 91.076 108.24 168 118.5 83.78 5.36 149.613-26.14 197.5-94.5 27.08-43.533 37.91-90.866 32.5-142Z"/><path style="opacity:1" fill="#b5b5b5" d="M878.5 822.5v2c-1.474.936-2.474 2.27-3 4h-44v-6h47Z"/><path style="opacity:.626" fill="#1c74bc" d="M1033.5 824.5c2.35 2.341 3.35 5.341 3 9h-3v-9Z"/><path style="opacity:1" fill="#f5693c" d="M798.5 852.5a2968.346 2968.346 0 0 0-7 6c-4-3.333-7.667-7-11-11a10.756 10.756 0 0 1 2.5-3 96.005 96.005 0 0 0 8.5 8 45.408 45.408 0 0 0 8-8 326.819 326.819 0 0 0 15.5-15 10.756 10.756 0 0 1 2.5 3 86391.215 86391.215 0 0 0-19 20Z"/><path style="opacity:.655" fill="#1c74bc" d="M672.5 834.5h3c-2.356 52.594 14.811 97.594 51.5 135 .749 1.135.583 2.135-.5 3-38.185-37.853-56.185-83.853-54-138Z"/><path style="opacity:.654" fill="#1c74bc" d="M1022.5 834.5c1.09.12 1.75.787 2 2 1.56 67.04-25.102 119.54-80 157.5-49.656 29.81-101.989 35.48-157 17a152.599 152.599 0 0 1-18-8c.608-.87 1.441-1.37 2.5-1.5 68.505 29.69 132.005 21.52 190.5-24.5 41.81-38.147 61.81-85.647 60-142.5Z"/><path style="opacity:1" fill="#b5b5b5" d="m874.5 834.5 1 6h-44v-6h43Z"/><path style="opacity:1" fill="#b1aead" d="M799.5 844.5a45.408 45.408 0 0 1-8 8 96.005 96.005 0 0 1-8.5-8 10.756 10.756 0 0 0-2.5 3c3.333 4 7 7.667 11 11 2.353-2.023 4.686-4.023 7-6v8h-21v-21h21c-.284 1.915.049 3.581 1 5Z"/><path style="opacity:.725" fill="#1c74bc" d="M1034.5 841.5c1.26 1.014 1.93 2.514 2 4.5-.33 1.5-.67 3-1 4.5a21.143 21.143 0 0 1-1-9Z"/><path style="opacity:1" fill="#b6b5b5" d="M877.5 846.5c1.734 2.7 4.068 4.7 7 6h-53v-6h46Z"/><path style="opacity:1" fill="#ecd2b9" d="M1752.5 898.5c2.07 11.553-2.27 19.22-13 23a56.634 56.634 0 0 0-2 12c-3.5 9.02-9.17 16.52-17 22.5-8.87 2.944-17.71 3.111-26.5.5a58.787 58.787 0 0 0-5-9 44.614 44.614 0 0 1-5.5 9.5c-9.53 2.38-18.87 1.714-28-2-6.91-6.343-11.91-13.843-15-22.5-.33-4-.67-8-1-12-2.49.202-4.82-.298-7-1.5-5.51-5.274-7.51-11.774-6-19.5.94-4.939 3.94-7.272 9-7-.3-11.706.2-23.373 1.5-35a6.97 6.97 0 0 1 3.5-2.5c15.7.133 31.36.966 47 2.5a840.483 840.483 0 0 0 43-3c5.14-1.055 8.97.611 11.5 5 .95 10.987 1.79 21.987 2.5 33 1.62.654 3.28 1.154 5 1.5.9 1.652 1.9 3.152 3 4.5Z"/><path style="opacity:.566" fill="#1c74bc" d="M1033.5 857.5h3c-1.61 13.214-2.61 13.214-3 0Z"/><path style="opacity:1" fill="#b0b0af" d="M888.5 859.5a16.339 16.339 0 0 0 2 5h-59v-5h57ZM893.5 871.5c.845 1.171 1.511 2.505 2 4v1h-64v-5h62Z"/><path style="opacity:.611" fill="#1c74bc" d="M1031.5 874.5h3a41.792 41.792 0 0 0-1 9h-3c.66-2.955.99-5.955 1-9Z"/><path style="opacity:1" fill="#e3ac91" d="M895.5 876.5v-1a105.468 105.468 0 0 1 9 8.5c6.735 5.368 14.401 7.868 23 7.5 12.561-.279 23.228-4.946 32-14a89.306 89.306 0 0 0-2 17 246.697 246.697 0 0 0-2 7c-9.399 6.356-18.732 12.69-28 19h-1a390.054 390.054 0 0 1-26-20c.295-2.235-.039-4.235-1-6 .295-2.235-.039-4.235-1-6 .295-2.235-.039-4.235-1-6-.095-2.286-.762-4.286-2-6Z"/><path style="opacity:1" fill="#404041" d="M1702.5 878.5h24v7h-24v-7Z"/><path style="opacity:1" fill="#b0b0af" d="M897.5 882.5c.961 1.765 1.295 3.765 1 6h-67v-5c22.173.331 44.173-.003 66-1Z"/><path style="opacity:1" fill="#f5683b" d="M798.5 906.5a2968.346 2968.346 0 0 0-7 6c-4-3.333-7.667-7-11-11a10.756 10.756 0 0 1 2.5-3 96.005 96.005 0 0 0 8.5 8 45.408 45.408 0 0 0 8-8 326.819 326.819 0 0 0 15.5-15 10.756 10.756 0 0 1 2.5 3 86391.215 86391.215 0 0 0-19 20Z"/><path style="opacity:1" fill="#8a7f75" d="M1652.5 878.5v7h23v-7c.97 2.448 1.31 5.115 1 8h-25c-.31-2.885.03-5.552 1-8Z"/><path style="opacity:1" fill="#404041" d="M1652.5 878.5h23v7h-23v-7Z"/><path style="opacity:.571" fill="#1c74bc" d="M1028.5 890.5c1.18-.219 2.18.114 3 1a89.794 89.794 0 0 1-3.5 9c-.87-.608-1.37-1.441-1.5-2.5a31.342 31.342 0 0 0 2-7.5Z"/><path style="opacity:1" fill="#494647" d="M1661.5 891.5c8.04-.497 9.71 2.336 5 8.5-4.27 1.513-6.6.013-7-4.5.25-1.573.92-2.906 2-4Z"/><path style="opacity:1" fill="#464445" d="M1712.5 891.5c7.18-.515 8.84 2.318 5 8.5-7.08.475-8.75-2.358-5-8.5Z"/><path style="opacity:1" fill="#b1aead" d="M799.5 898.5a45.408 45.408 0 0 1-8 8 96.005 96.005 0 0 1-8.5-8 10.756 10.756 0 0 0-2.5 3c3.333 4 7 7.667 11 11 2.353-2.023 4.686-4.023 7-6v9h-21v-21h21c-.268 1.599.066 2.932 1 4Z"/><path style="opacity:1" fill="#b0b0af" d="M899.5 894.5c.961 1.765 1.295 3.765 1 6h-69v-5c22.839.331 45.506-.003 68-1Z"/><path style="opacity:.532" fill="#1c74bc" d="M665.5 897.5c1.98 1.348 3.147 3.348 3.5 6 .781 1.444.614 2.777-.5 4-1.888-2.294-3.222-4.961-4-8 .363-.683.696-1.35 1-2Z"/><path style="opacity:1" fill="#e4dfdf" d="M899.5 900.5h1a390.054 390.054 0 0 0 26 20 124.394 124.394 0 0 0-11 18c-1.385 1.074-2.551 2.407-3.5 4a372.076 372.076 0 0 0-24.5-31c-.17-1.322.163-2.489 1-3.5-18.997-.5-37.997-.667-57-.5a1786.024 1786.024 0 0 1 60-1.5c3.121-1.306 5.787-3.14 8-5.5ZM957.5 894.5c-.163 2.357.003 4.69.5 7a140.22 140.22 0 0 1 10.5 9 999.463 999.463 0 0 1-25 29.5c-1.566.3-2.899-.2-4-1.5a129.055 129.055 0 0 0-12-18c9.268-6.31 18.601-12.644 28-19a246.697 246.697 0 0 1 2-7Z"/><path style="opacity:.592" fill="#1c74bc" d="M1023.5 906.5c1.18-.219 2.18.114 3 1-.78 3.039-2.11 5.706-4 8-.33-.667-.67-1.333-1-2a28.786 28.786 0 0 0 2-7Z"/><path style="opacity:1" fill="#afafaf" d="M831.5 907.5c19.003-.167 38.003 0 57 .5-.837 1.011-1.17 2.178-1 3.5v1c-.904-.709-1.237-1.709-1-3-2.841.06-5.507.726-8 2a31.686 31.686 0 0 0-6 2 420.766 420.766 0 0 0-41-1v-5Z"/><path style="opacity:1" fill="#0b0e0f" d="M887.5 912.5a2643.577 2643.577 0 0 0 11 88 127.761 127.761 0 0 1-31 6 50.624 50.624 0 0 1-5.5-16 228.87 228.87 0 0 0 19.5-16.5 653.686 653.686 0 0 1-25-15.5 1501.986 1501.986 0 0 0 22-47c2.493-1.274 5.159-1.94 8-2-.237 1.291.096 2.291 1 3Z"/><path style="opacity:1" fill="#111518" d="M968.5 910.5a186.735 186.735 0 0 1 25 9c-7.896 15.788-18.229 29.788-31 42a804.205 804.205 0 0 0 6-51Z"/><path style="opacity:1" fill="#fcfcfc" d="M887.5 911.5a372.076 372.076 0 0 1 24.5 31c.949-1.593 2.115-2.926 3.5-4a46.081 46.081 0 0 0 5.5 6 494.234 494.234 0 0 1-4.5 46.5c.07.765.403 1.265 1 1.5-5.936 3.429-12.269 6.095-19 8a2643.577 2643.577 0 0 1-11-88v-1Z"/><path style="opacity:1" fill="#fbfcfc" d="M968.5 910.5a804.205 804.205 0 0 1-6 51 152.676 152.676 0 0 1-26 21 487.936 487.936 0 0 0-3-34l.5-4a46.081 46.081 0 0 0 5.5-6c1.101 1.3 2.434 1.8 4 1.5a999.463 999.463 0 0 0 25-29.5Z"/><path style="opacity:.596" fill="#1c74bc" d="M670.5 913.5c.996-.086 1.829.248 2.5 1a54.237 54.237 0 0 0 2.5 6.5l-1 1.5c-2.68-2.363-4.013-5.363-4-9Z"/><path style="opacity:1" fill="#abacac" d="m854.5 919.5-12 6c-3.462-.982-7.129-1.315-11-1v-5h23Z"/><path style="opacity:1" fill="#f66336" d="M926.5 920.5h1a129.055 129.055 0 0 1 12 18 46.081 46.081 0 0 1-5.5 6l-.5 4a487.936 487.936 0 0 1 3 34 86.067 86.067 0 0 1-19 10c-.597-.235-.93-.735-1-1.5a494.234 494.234 0 0 0 4.5-46.5 46.081 46.081 0 0 1-5.5-6 124.394 124.394 0 0 1 11-18Z"/><path style="opacity:.616" fill="#1c74bc" d="M1017.5 922.5a4.939 4.939 0 0 1 3 .5 101.579 101.579 0 0 0-4.5 8.5c-.87-.608-1.37-1.441-1.5-2.5a58.963 58.963 0 0 1 3-6.5Z"/><path style="opacity:1" fill="#d2a47c" d="M1667.5 928.5c14.49-1.161 29.16-1.328 44-.5-11.05 8.101-23.05 10.101-36 6a50.554 50.554 0 0 1-8-5.5Z"/><path style="opacity:.55" fill="#1c74bc" d="M677.5 928.5c2.276 1.831 4.109 4.164 5.5 7-.081 2.138-1.081 2.471-3 1a60.631 60.631 0 0 0-3.5-6.5c.556-.383.889-.883 1-1.5Z"/><path style="opacity:.604" fill="#1c74bc" d="M1010.5 936.5c.98.311 1.64.978 2 2a26.73 26.73 0 0 1-5 7c-.33-.5-.67-1-1-1.5a52.387 52.387 0 0 1 4-7.5Z"/><path style="opacity:1" fill="#444344" d="M1640.5 932.5c3.09 8.657 8.09 16.157 15 22.5 9.13 3.714 18.47 4.38 28 2a44.614 44.614 0 0 0 5.5-9.5 58.787 58.787 0 0 1 5 9c8.79 2.611 17.63 2.444 26.5-.5 7.83-5.98 13.5-13.48 17-22.5-1.95 12.58-7.95 22.58-18 30-19.75 11.611-39.75 11.944-60 1-10.93-7.838-17.26-18.505-19-32Z"/><path style="opacity:.604" fill="#1c74bc" d="M685.5 943.5c2.663 1.589 4.663 3.922 6 7a4.457 4.457 0 0 1-1.5 2c-2.571-2.476-4.071-5.476-4.5-9Z"/><path style="opacity:.562" fill="#1c74bc" d="M1001.5 950.5c.98.311 1.64.978 2 2-1.38 3.758-3.711 5.758-7 6 1.693-2.684 3.36-5.351 5-8Z"/><path style="opacity:.578" fill="#1c74bc" d="M694.5 957.5c1.322-.17 2.489.163 3.5 1a8.905 8.905 0 0 0 3 4c.749 1.135.583 2.135-.5 3-2.98-1.973-4.98-4.64-6-8ZM990.5 964.5c1.175-.219 2.175.114 3 1-1.281 2.947-3.281 5.281-6 7-1.083-.865-1.249-1.865-.5-3 1.802-1.289 2.969-2.956 3.5-5Z"/><path style="opacity:1" fill="#e2bf9c" d="M1719.5 963.5c1.47 5.137 4.47 9.137 9 12-10.34 12.579-23.84 18.579-40.5 18-6.81.534-13.31-.633-19.5-3.5a96.877 96.877 0 0 1-14-9c-1.96-1.451-3.3-3.284-4-5.5 4.1-2.77 7.1-6.437 9-11 20.25 10.944 40.25 10.611 60-1Z"/><path style="opacity:.583" fill="#1c74bc" d="M705.5 969.5a2.428 2.428 0 0 1 2 .5 74.242 74.242 0 0 0 5 6.5c-.865 1.083-1.865 1.249-3 .5-2.04-2.185-3.374-4.685-4-7.5Z"/><path style="opacity:.573" fill="#1c74bc" d="M979.5 976.5c1.256-.039 2.256.461 3 1.5-8.535 8.832-9.535 8.332-3-1.5Z"/><path style="opacity:1" fill="#0aaeae" d="M1650.5 975.5c.7 2.216 2.04 4.049 4 5.5a96.877 96.877 0 0 0 14 9c6.19 2.867 12.69 4.034 19.5 3.5 16.66.579 30.16-5.421 40.5-18a31.488 31.488 0 0 0 9 2.5 555.895 555.895 0 0 0 34 2c8.89 1.931 14.06 7.431 15.5 16.5.5 7.66.67 15.33.5 23-18.97 18.66-41.64 30.82-68 36.5-41.8 8.2-80.13.2-115-24-4.93-3.95-9.59-8.12-14-12.5-.17-6.67 0-13.34.5-20 .68-9.671 5.52-16.171 14.5-19.5 11-.706 22-1.372 33-2a47.993 47.993 0 0 0 12-2.5Z"/><path style="opacity:.555" fill="#1c74bc" d="M717.5 981.5c4.16 1.439 6.16 4.106 6 8l-7-6c.363-.683.696-1.35 1-2Z"/><path style="opacity:.539" fill="#1c74bc" d="M968.5 987.5c.978.311 1.645.978 2 2a46.607 46.607 0 0 0-6 5.5c-1.225.563-2.225.23-3-1a62.957 62.957 0 0 1 7-6.5Z"/><path style="opacity:.597" fill="#1c74bc" d="M730.5 992.5c3.732 1.357 5.732 3.69 6 7-3.796-1.41-5.796-3.743-6-7Z"/><path style="opacity:.632" fill="#1c74bc" d="M953.5 998.5c1.855-.228 2.688.439 2.5 2-1.94 2.9-4.44 3.9-7.5 3a26.483 26.483 0 0 0 5-5Z"/><path style="opacity:.629" fill="#1c74bc" d="M743.5 1002.5c3.32.66 5.987 2.32 8 5-.5.33-1 .67-1.5 1-3.263-1.01-5.429-3.01-6.5-6Z"/><path style="opacity:.574" fill="#1c74bc" d="M939.5 1007.5c3.635.16 3.968 1.32 1 3.5-1.667.83-3.333 1.67-5 2.5a4.486 4.486 0 0 1-2-1.5 42.23 42.23 0 0 0 6-4.5Z"/><path style="opacity:.599" fill="#1c74bc" d="M758.5 1010.5a24.851 24.851 0 0 1 8 5c-2.807.64-5.473-.03-8-2-1.062-.92-1.062-1.92 0-3Z"/><path style="opacity:.557" fill="#1c74bc" d="M926.5 1014.5c1.832.64 2.165 1.64 1 3a46.79 46.79 0 0 1-7 3 4.486 4.486 0 0 1-2-1.5c2.691-1.6 5.358-3.1 8-4.5Z"/><path style="opacity:.548" fill="#1c74bc" d="M773.5 1017.5a11.332 11.332 0 0 0 6 2v3a11.224 11.224 0 0 1-6-2c-1.062-.92-1.062-1.92 0-3Z"/><path style="opacity:.614" fill="#1c74bc" d="M909.5 1021.5c1.855-.23 2.688.44 2.5 2a103.874 103.874 0 0 1-7.5 3c-.886-.82-1.219-1.82-1-3 2.286-.09 4.286-.76 6-2Z"/><path style="opacity:.611" fill="#1c74bc" d="M892.5 1026.5c1.478-.26 2.811.07 4 1-1.906 1.74-4.24 2.74-7 3-.667-.33-1.333-.67-2-1 1.447-1.43 3.114-2.43 5-3Z"/><path style="opacity:.603" fill="#1c74bc" d="M878.5 1029.5c1.548.32 2.215 1.32 2 3-2.384-.06-4.718.28-7 1-1.237-.06-2.237-.56-3-1.5 2.751-.94 5.417-1.78 8-2.5Z"/><path style="opacity:.769" fill="#1c74bc" d="M854.5 1032.5c3.072-.32 6.072.02 9 1-1.5.33-3 .67-4.5 1-1.986-.07-3.486-.74-4.5-2Z"/><path style="opacity:.966" fill="#1c74bc" d="M107.5 1100.5h1834v29h-1834v-29Z"/><path style="opacity:1" fill="#1b72b7" d="M653.5 1164.5c21.669-.17 43.336 0 65 .5 21.792 3.46 34.626 15.96 38.5 37.5 3.379 21.41-3.788 38.07-21.5 50 6.56 14.79 13.393 29.45 20.5 44a36.54 36.54 0 0 1 3.5 11c-9.672.17-19.339 0-29-.5a974.304 974.304 0 0 1-20.5-45.5 7.014 7.014 0 0 0-3.5-2.5c-4.833-.17-9.667-.33-14.5-.5-5.25.03-10.25.7-15 2 .134 15.99.301 31.99.5 48a293.867 293.867 0 0 0-28-1c.782-25 1.449-50 2-75-.319-22.35-.986-44.68-2-67 1.599.27 2.932-.07 4-1Zm24 73a589.432 589.432 0 0 1-1-48c.558-1.29 1.558-2.12 3-2.5 12.786-1.12 25.453-.46 38 2 9.806 5.51 14.472 14.01 14 25.5-.117 10.26-4.784 17.42-14 21.5a290.097 290.097 0 0 1-40 1.5ZM942.5 1164.5c17.377-2.09 33.543 1.24 48.5 10 .667 1 .667 2 0 3a101.07 101.07 0 0 0-8.5 17c-1.921 1.14-3.921 1.31-6 .5-9.48-4.83-19.48-6.49-30-5-10.179 4.19-13.012 11.36-8.5 21.5 1.833 1.83 3.667 3.67 5.5 5.5l32 18c13.212 16.55 14.379 34.05 3.5 52.5-9.508 12.18-22.008 19.34-37.5 21.5-8 .67-16 .67-24 0l-1.5-1.5a318.062 318.062 0 0 0-4.5-24c11.064.41 22.064-.09 33-1.5 13.366-4.88 17.199-13.72 11.5-26.5a45.397 45.397 0 0 0-8.5-7.5c-8.925-4.6-17.592-9.6-26-15-9.926-10.19-13.426-22.35-10.5-36.5 3.975-17.14 14.475-27.81 31.5-32Z"/><path style="opacity:1" fill="#1b72b8" d="M1171.5 1225.5c-.06-.54-.39-.88-1-1-1.33 14.49-1.33 28.83 0 43v38c-8.58.97-17.25 1.3-26 1v-22c.97-39.58.97-79.08 0-118.5 8.21-1.53 16.37-1.69 24.5-.5 16.55 35.76 32.55 71.76 48 108 15.11-34.88 29.11-70.22 42-106l1.5-1.5c8.33-.67 16.67-.67 25 0 .65 4.59.99 9.25 1 14-.56 19.34-1.23 38.67-2 58 1.17 23.15 1.84 46.32 2 69.5h-28c.16-25.85.83-51.69 2-77.5-.33-1.17-.67-2.33-1-3.5-12.3 26.89-23.63 54.23-34 82a48.802 48.802 0 0 1-17 .5c-.81-.31-1.47-.81-2-1.5-11.68-27.35-23.35-54.69-35-82ZM862.5 1227.5c-.321-20.74.012-41.41 1-62h26a4175.23 4175.23 0 0 0-2.5 111c-.176 14.15-6.676 23.98-19.5 29.5-12.021 3.88-24.355 5.38-37 4.5a118.13 118.13 0 0 1-35-3.5c-12.987-4.44-19.82-13.6-20.5-27.5-.5-38.01-1.334-76.01-2.5-114h28a3185.11 3185.11 0 0 0-.5 104c1.487 10.82 7.653 16.99 18.5 18.5 8.333.67 16.667.67 25 0 10.833-1.5 17-7.67 18.5-18.5.5-14 .667-28 .5-42ZM1096.5 1227.5c-.32-20.74.01-41.41 1-62h26a4149.94 4149.94 0 0 0-2.5 111c-.18 14.15-6.68 23.98-19.5 29.5-12.02 3.88-24.35 5.38-37 4.5-11.86.58-23.52-.59-35-3.5-12.99-4.44-19.82-13.6-20.5-27.5-.5-38.01-1.33-76.01-2.5-114h28c-.73 34.66-.9 69.33-.5 104 1.49 10.82 7.65 16.99 18.5 18.5 8.33.67 16.67.67 25 0 10.83-1.5 17-7.67 18.5-18.5.5-14 .67-28 .5-42Z"/><path style="opacity:1" fill="#1b72b7" d="M1307.5 1165.5c30.24-.33 60.41 0 90.5 1 1.65 5.88 2.82 11.88 3.5 18-.11.94-.44 1.78-1 2.5-15.17.45-30.34.29-45.5-.5-5.5.17-11 .33-16.5.5-.92.37-1.75.87-2.5 1.5-3.05 11.47-3.22 22.97-.5 34.5 16 .67 32 .67 48 0 4.39-.23 8.72-.73 13-1.5.59.21 1.09.54 1.5 1 .41 7.93-.09 15.76-1.5 23.5-19.98-.56-39.98-.56-60 0-1.2.9-2.03 2.07-2.5 3.5-1.01 11.45-.34 22.79 2 34 .9 1.2 2.07 2.03 3.5 2.5 20.96 1.04 41.8.2 62.5-2.5 1.46.96 2.3 2.29 2.5 4-1.41 7.29-3.07 14.46-5 21.5-30.61-1.36-61.28-1.86-92-1.5.4-24.51 1.07-49.01 2-73.5-.53-22.84-1.2-45.67-2-68.5Z"/><path style="opacity:.753" fill="#134f7f" d="M863.5 1165.5a977.683 977.683 0 0 0-1 62 473.1 473.1 0 0 1-1-31c.001-10.69.668-21.02 2-31ZM1097.5 1165.5c-.99 20.59-1.32 41.26-1 62-.67-10.16-1-20.49-1-31 0-10.69.67-21.02 2-31Z"/><path style="opacity:.439" fill="#104671" d="M676.5 1189.5c-.317 16.08.016 32.08 1 48-1.331-7.64-1.998-15.64-2-24 0-8.17.334-16.17 1-24Z"/><path style="opacity:.439" fill="#10456f" d="M1171.5 1225.5c-1 13.82-1.33 27.82-1 42-1.33-14.17-1.33-28.51 0-43 .61.12.94.46 1 1Z"/><path style="opacity:.753" fill="#124c7a" d="M1144.5 1284.5v22c8.75.3 17.42-.03 26-1-8.6 1.97-17.6 2.64-27 2-.33-7.85.01-15.52 1-23Z"/></svg>