<svg width="409" height="415" viewBox="0 0 409 415" fill="none" xmlns="http://www.w3.org/2000/svg">
<g opacity="0.53">
<path d="M43.5658 216.664H0V393.202H43.5658V216.664Z" fill="white"/>
</g>
<g opacity="0.53">
<path d="M100.089 216.664H56.5234V393.202H100.089V216.664Z" fill="white"/>
</g>
<g opacity="0.53">
<path d="M160.355 216.664H116.789V393.202H160.355V216.664Z" fill="white"/>
</g>
<g opacity="0.53">
<path d="M220.495 216.664H176.93V393.202H220.495V216.664Z" fill="white"/>
</g>
<g opacity="0.53">
<path d="M280.62 216.664H237.055V393.202H280.62V216.664Z" fill="white"/>
</g>
<g opacity="0.53">
<path d="M341.535 216.664H297.969V393.202H341.535V216.664Z" fill="white"/>
</g>
<g opacity="0.53">
<path d="M401.441 216.664H357.875V393.202H401.441V216.664Z" fill="white"/>
</g>
<path d="M43.2973 349.902H0V393.2H43.2973V349.902Z" fill="#63A18E"/>
<path d="M99.9535 332.414H56.6562V393.199H99.9535V332.414Z" fill="#63A18E"/>
<path d="M160.375 315.045H117.078V393.325H160.375V315.045Z" fill="#63A18E"/>
<path d="M221.337 297.936H176.305V393.326H221.337V297.936Z" fill="#63A18E"/>
<path d="M281.431 272.352H236.398V393.325H281.431V272.352Z" fill="#63A18E"/>
<path d="M342.275 244.18H297.242V393.933H342.275V244.18Z" fill="#63A18E"/>
<path d="M401.525 227.852H356.492V393.933H401.525V227.852Z" fill="#63A18E"/>
<path d="M378.353 173.054C372.939 181.824 352.464 218.324 346.144 229.613C345.312 231.099 346.404 232.926 348.107 232.903L406.715 232.11C407.982 232.093 408.799 230.763 408.243 229.625L380.65 173.17C380.195 172.241 378.896 172.174 378.353 173.054Z" fill="#63A18E"/>
<path d="M258.368 238.597C257.676 238.851 256.889 238.547 256.557 237.871C255.831 236.392 255.158 234.859 254.557 233.316C254.265 232.565 254.637 231.719 255.387 231.427C255.396 231.424 255.405 231.42 255.414 231.417C256.158 231.144 256.987 231.515 257.276 232.257C257.846 233.724 258.486 235.179 259.176 236.584C259.531 237.307 259.232 238.182 258.509 238.537C258.463 238.56 258.415 238.58 258.368 238.597ZM254.073 226.637C254.02 226.657 253.964 226.673 253.907 226.687C253.124 226.874 252.337 226.391 252.15 225.607C251.766 223.998 251.446 222.356 251.201 220.727C251.081 219.93 251.627 219.19 252.426 219.067C253.223 218.948 253.966 219.497 254.086 220.293C254.319 221.84 254.622 223.4 254.987 224.93C255.161 225.656 254.758 226.385 254.073 226.637ZM252.519 214.029C252.367 214.085 252.202 214.116 252.031 214.118C251.225 214.126 250.566 213.479 250.558 212.674C250.541 211.022 250.596 209.35 250.722 207.702C250.784 206.899 251.485 206.299 252.287 206.359C253.09 206.42 253.692 207.121 253.631 207.924C253.511 209.489 253.459 211.076 253.475 212.645C253.481 213.278 253.082 213.822 252.519 214.029ZM253.824 201.387C253.572 201.479 253.292 201.504 253.01 201.442C252.223 201.27 251.725 200.492 251.897 199.705C252.251 198.091 252.679 196.473 253.168 194.895C253.408 194.127 254.225 193.697 254.994 193.935C255.763 194.174 256.193 194.991 255.954 195.761C255.489 197.258 255.083 198.796 254.747 200.33C254.636 200.835 254.276 201.221 253.824 201.387ZM257.915 189.354C257.561 189.483 257.159 189.477 256.791 189.304C256.062 188.962 255.749 188.093 256.092 187.364C256.793 185.872 257.568 184.389 258.395 182.957C258.798 182.259 259.69 182.02 260.388 182.424C261.085 182.827 261.324 183.719 260.921 184.417C260.135 185.778 259.398 187.187 258.732 188.605C258.562 188.967 258.262 189.226 257.915 189.354ZM264.565 178.526C264.108 178.694 263.576 178.629 263.164 178.307C262.529 177.812 262.415 176.896 262.91 176.26C263.926 174.958 265.01 173.683 266.132 172.472C266.68 171.881 267.603 171.846 268.194 172.394C268.785 172.941 268.82 173.864 268.272 174.455C267.206 175.607 266.176 176.817 265.211 178.054C265.037 178.277 264.812 178.435 264.565 178.526ZM313.539 156.832C313.35 156.901 313.143 156.932 312.928 156.916C311.365 156.8 309.777 156.75 308.206 156.769C307.4 156.778 306.74 156.133 306.73 155.328C306.72 154.522 307.366 153.861 308.171 153.852C309.826 153.832 311.499 153.884 313.145 154.007C313.949 154.067 314.551 154.767 314.491 155.57C314.448 156.159 314.059 156.64 313.539 156.832ZM273.444 169.447C272.876 169.656 272.214 169.494 271.811 168.999C271.301 168.375 271.395 167.456 272.019 166.947C273.298 165.903 274.639 164.902 276.003 163.973C276.671 163.522 277.576 163.69 278.03 164.356C278.484 165.022 278.312 165.93 277.646 166.384C276.351 167.266 275.078 168.217 273.863 169.208C273.733 169.313 273.592 169.393 273.444 169.447ZM300.842 157.322C300.751 157.355 300.656 157.38 300.557 157.395C299.007 157.632 297.447 157.939 295.919 158.306C295.136 158.494 294.348 158.012 294.159 157.229C293.971 156.446 294.451 155.655 295.236 155.47C296.844 155.083 298.486 154.76 300.117 154.511C300.913 154.39 301.658 154.937 301.779 155.733C301.886 156.43 301.479 157.088 300.842 157.322ZM284.128 162.579C283.437 162.833 282.652 162.53 282.319 161.855C281.962 161.132 282.259 160.258 282.981 159.901C284.46 159.171 285.991 158.495 287.531 157.893C287.54 157.889 287.55 157.885 287.56 157.881C288.303 157.609 289.131 157.979 289.421 158.719C289.714 159.47 289.344 160.316 288.594 160.609C287.131 161.181 285.678 161.824 284.272 162.517C284.225 162.54 284.177 162.561 284.128 162.579Z" fill="url(#paint0_linear_4224_12612)"/>
<path d="M323.643 158.513C323.373 158.612 323.072 158.633 322.773 158.555C322.045 158.364 321.301 158.187 320.562 158.025C319.775 157.853 319.276 157.076 319.448 156.289C319.619 155.502 320.397 155.002 321.184 155.175C321.962 155.345 322.744 155.532 323.51 155.732C324.289 155.935 324.756 156.733 324.553 157.512C324.427 157.992 324.076 158.354 323.643 158.513Z" fill="url(#paint1_linear_4224_12612)"/>
<path d="M358.87 185.665C358.209 185.908 357.451 185.642 357.096 185.008C356.728 184.353 356.341 183.693 355.944 183.049C355.521 182.363 355.734 181.465 356.42 181.042C357.109 180.618 358.005 180.833 358.427 181.519C358.845 182.197 359.253 182.891 359.641 183.582C360.034 184.284 359.784 185.173 359.082 185.567C359.013 185.606 358.942 185.638 358.87 185.665Z" fill="url(#paint2_linear_4224_12612)"/>
<path d="M328.985 266.792C328.355 267.023 327.719 267.245 327.076 267.457C326.311 267.708 325.486 267.293 325.234 266.528C324.982 265.763 325.4 264.934 326.163 264.685C327.645 264.197 329.105 263.649 330.517 263.05C331.26 262.736 332.114 263.081 332.429 263.823C332.744 264.565 332.398 265.421 331.656 265.735C330.783 266.106 329.884 266.461 328.985 266.792ZM319.615 269.362C319.538 269.39 319.458 269.412 319.375 269.428C317.775 269.724 316.144 269.955 314.528 270.115C313.727 270.195 313.013 269.609 312.933 268.808C312.854 268.006 313.44 267.289 314.241 267.213C315.775 267.06 317.324 266.84 318.845 266.559C319.637 266.413 320.398 266.936 320.544 267.728C320.676 268.438 320.27 269.122 319.615 269.362ZM338.498 262.255C337.852 262.492 337.109 262.245 336.744 261.633C336.331 260.941 336.557 260.046 337.249 259.633C338.572 258.843 339.879 257.986 341.135 257.084C341.79 256.615 342.701 256.763 343.171 257.418C343.64 258.072 343.491 258.984 342.837 259.454C341.515 260.403 340.137 261.306 338.744 262.138C338.664 262.185 338.582 262.224 338.498 262.255ZM307.139 270.268C306.966 270.332 306.777 270.363 306.58 270.355C304.956 270.293 303.314 270.16 301.701 269.96C300.902 269.861 300.334 269.133 300.433 268.333C300.532 267.533 301.26 266.965 302.06 267.065C303.591 267.254 305.15 267.381 306.693 267.44C307.498 267.471 308.126 268.149 308.094 268.954C308.071 269.563 307.678 270.07 307.139 270.268ZM348.453 254.7C347.924 254.895 347.306 254.771 346.892 254.336C346.337 253.752 346.361 252.828 346.945 252.273C348.061 251.212 349.148 250.088 350.175 248.933C350.71 248.331 351.632 248.276 352.234 248.812C352.836 249.347 352.89 250.268 352.355 250.871C351.274 252.087 350.13 253.271 348.954 254.388C348.806 254.529 348.635 254.634 348.453 254.7ZM356.51 245.143C356.087 245.299 355.597 245.256 355.194 244.987C354.525 244.538 354.346 243.632 354.794 242.963C355.654 241.679 356.47 240.344 357.219 238.996C357.61 238.291 358.497 238.037 359.203 238.429C359.907 238.82 360.161 239.708 359.77 240.412C358.981 241.832 358.123 243.236 357.218 244.587C357.039 244.852 356.789 245.041 356.51 245.143ZM362.292 234.057C361.97 234.176 361.605 234.182 361.26 234.047C360.51 233.755 360.138 232.91 360.43 232.159C360.99 230.718 361.496 229.238 361.933 227.759C362.161 226.987 362.972 226.545 363.746 226.774C364.518 227.002 364.959 227.813 364.731 228.586C364.271 230.142 363.738 231.701 363.149 233.217C362.991 233.623 362.671 233.918 362.292 234.057ZM365.518 221.975C365.295 222.057 365.049 222.086 364.797 222.048C364 221.927 363.453 221.184 363.574 220.387C363.806 218.859 363.975 217.304 364.076 215.765C364.129 214.961 364.825 214.352 365.627 214.405C366.431 214.458 367.04 215.153 366.987 215.957C366.88 217.578 366.702 219.216 366.458 220.824C366.375 221.369 366.001 221.798 365.518 221.975ZM366.013 209.475C365.887 209.521 365.753 209.55 365.613 209.56C364.81 209.618 364.112 209.013 364.054 208.21C363.944 206.672 363.766 205.119 363.526 203.593C363.4 202.797 363.947 202.05 364.74 201.925C365.536 201.8 366.282 202.344 366.408 203.14C366.66 204.746 366.848 206.382 366.964 208C367.012 208.664 366.607 209.256 366.013 209.475ZM363.751 197.179C363.723 197.19 363.694 197.199 363.665 197.208C362.894 197.439 362.081 197.001 361.849 196.229C361.523 195.14 361.159 194.048 360.768 192.983C360.626 192.597 360.48 192.214 360.331 191.833C360.037 191.083 360.406 190.237 361.156 189.943C361.91 189.63 362.752 190.018 363.046 190.768C363.204 191.168 363.357 191.571 363.506 191.977C363.918 193.097 364.3 194.246 364.644 195.392C364.867 196.134 364.469 196.916 363.751 197.179Z" fill="url(#paint3_linear_4224_12612)"/>
<path d="M294.733 268.394C294.46 268.494 294.156 268.514 293.855 268.434C293.092 268.231 292.319 268.007 291.557 267.77C290.788 267.53 290.358 266.713 290.598 265.944C290.837 265.175 291.654 264.745 292.424 264.984C293.147 265.21 293.882 265.422 294.606 265.615C295.384 265.822 295.847 266.621 295.64 267.4C295.513 267.877 295.163 268.236 294.733 268.394Z" fill="url(#paint4_linear_4224_12612)"/>
<path d="M290.744 251.834C290.995 251.982 291.311 251.955 291.533 251.767L297.855 246.393C301.552 247.553 305.461 248.133 309.448 248.049L314.015 254.97C314.175 255.213 314.471 255.327 314.753 255.255L324.394 252.782C324.676 252.709 324.88 252.466 324.904 252.176L325.574 243.911C329.109 242.065 332.256 239.676 334.937 236.878L343.066 238.544C343.351 238.603 343.642 238.474 343.79 238.224L348.858 229.658C349.006 229.407 348.979 229.091 348.79 228.869L343.416 222.547C344.577 218.85 345.156 214.941 345.072 210.954L351.994 206.387C352.236 206.227 352.351 205.931 352.279 205.649L349.805 196.008C349.733 195.726 349.49 195.521 349.2 195.498L340.935 194.828C339.089 191.293 336.699 188.146 333.902 185.464L335.568 177.336C335.626 177.051 335.497 176.76 335.247 176.612L326.681 171.544C326.431 171.396 326.114 171.423 325.892 171.611L319.57 176.986C315.873 175.825 311.964 175.245 307.977 175.33L303.41 168.408C303.25 168.165 302.954 168.051 302.672 168.123L293.031 170.597C292.749 170.669 292.545 170.912 292.521 171.202L291.851 179.467C288.316 181.313 285.169 183.703 282.488 186.5L274.359 184.834C274.074 184.775 273.783 184.904 273.635 185.154L268.568 193.72C268.42 193.971 268.447 194.287 268.635 194.509L274.009 200.831C272.848 204.528 272.269 208.437 272.353 212.424L265.431 216.991C265.189 217.151 265.074 217.448 265.147 217.729L267.62 227.37C267.692 227.652 267.935 227.857 268.225 227.88L276.49 228.55C278.336 232.085 280.726 235.232 283.523 237.914L281.857 246.043C281.799 246.328 281.927 246.618 282.178 246.766L290.744 251.834Z" fill="#0A5840" fill-opacity="0.2"/>
<path opacity="0.56" d="M312.158 221.083C307.581 222.765 302.326 220.88 299.927 216.472C297.289 211.626 299.086 205.539 303.931 202.902C306.278 201.624 308.983 201.337 311.545 202.094C314.108 202.85 316.223 204.559 317.501 206.906C320.138 211.752 318.341 217.839 313.497 220.476C313.059 220.714 312.612 220.916 312.158 221.083ZM306.083 204.482C305.729 204.612 305.384 204.769 305.047 204.952C301.332 206.974 299.954 211.641 301.976 215.356C303.998 219.071 308.665 220.45 312.381 218.427C316.096 216.405 317.473 211.737 315.451 208.023C314.471 206.223 312.85 204.912 310.885 204.332C309.287 203.861 307.618 203.918 306.083 204.482Z" fill="white"/>
<path opacity="0.56" d="M317.333 234.577C316.547 234.866 315.741 235.117 314.919 235.328C314.66 235.395 314.4 235.457 314.139 235.515C312.853 235.802 311.546 235.985 310.238 236.063C310.22 236.064 310.202 236.065 310.184 236.066C310.134 236.069 310.083 236.072 310.033 236.074C309.934 236.079 309.835 236.083 309.737 236.087C309.478 236.098 309.252 235.937 309.167 235.706C309.146 235.65 309.134 235.59 309.131 235.527C309.119 235.205 309.37 234.935 309.692 234.921C311.349 234.857 313.009 234.613 314.628 234.198C322.672 232.135 328.671 226.114 331.08 218.753C332.421 214.659 332.65 210.15 331.502 205.677C331.301 204.892 331.062 204.124 330.786 203.374C328.931 198.327 325.426 194.108 320.737 191.333C315.35 188.146 309.044 187.247 302.982 188.803C290.461 192.017 282.897 204.809 286.108 217.324C286.306 218.096 286.542 218.854 286.815 219.597C287.999 222.816 289.873 225.741 292.315 228.154C292.378 228.216 292.424 228.289 292.452 228.367C292.528 228.573 292.484 228.813 292.32 228.979C292.092 229.207 291.724 229.211 291.494 228.983C288.931 226.45 286.963 223.38 285.72 220C285.434 219.221 285.186 218.424 284.978 217.614C281.606 204.475 289.557 191.043 302.692 187.673C309.056 186.039 315.676 186.983 321.331 190.329C326.255 193.241 329.934 197.671 331.881 202.969C332.17 203.756 332.422 204.563 332.633 205.386C334.266 211.751 333.323 218.371 329.977 224.026C327.064 228.951 322.632 232.63 317.333 234.577Z" fill="white"/>
<path d="M224.903 291.846C224.537 291.98 224.113 291.866 223.869 291.536C223.414 290.922 222.97 290.285 222.553 289.644C222.281 289.227 222.398 288.669 222.815 288.397C223.232 288.123 223.79 288.243 224.062 288.66C224.46 289.271 224.882 289.878 225.317 290.464C225.613 290.864 225.529 291.428 225.129 291.725C225.058 291.777 224.982 291.817 224.903 291.846Z" fill="url(#paint5_linear_4224_12612)"/>
<path d="M221.305 285.921C220.876 286.079 220.389 285.889 220.185 285.47C219.608 284.287 219.085 283.06 218.631 281.824C218.535 281.564 218.442 281.302 218.352 281.039C218.19 280.567 218.472 280.064 218.911 279.893C219.381 279.731 219.894 279.982 220.056 280.452C220.142 280.704 220.231 280.955 220.322 281.203C220.755 282.382 221.254 283.552 221.804 284.681C222.023 285.128 221.837 285.667 221.39 285.885C221.362 285.899 221.333 285.911 221.305 285.921ZM218.265 277.075C218.225 277.089 218.183 277.102 218.141 277.111C217.654 277.214 217.175 276.903 217.072 276.416C216.74 274.855 216.502 273.259 216.365 271.673C216.322 271.178 216.692 270.742 217.185 270.698C217.681 270.656 218.117 271.022 218.161 271.518C218.291 273.031 218.518 274.553 218.834 276.043C218.928 276.486 218.679 276.923 218.265 277.075ZM217.461 267.755C217.354 267.794 217.237 267.814 217.116 267.809C216.619 267.791 216.232 267.371 216.251 266.874C216.312 265.282 216.473 263.675 216.732 262.1C216.812 261.608 217.274 261.276 217.767 261.357C218.258 261.437 218.591 261.901 218.51 262.391C218.264 263.893 218.109 265.424 218.051 266.944C218.037 267.319 217.794 267.633 217.461 267.755ZM218.974 258.522C218.799 258.587 218.602 258.597 218.41 258.541C217.933 258.401 217.659 257.899 217.799 257.422C218.25 255.89 218.8 254.373 219.434 252.912C219.632 252.456 220.163 252.247 220.619 252.445C221.075 252.643 221.285 253.173 221.087 253.63C220.482 255.022 219.958 256.47 219.528 257.93C219.444 258.215 219.233 258.427 218.974 258.522ZM222.695 249.94C222.45 250.03 222.169 250.013 221.927 249.87C221.498 249.618 221.355 249.066 221.607 248.637C222.416 247.263 223.318 245.925 224.287 244.662C224.589 244.265 225.155 244.192 225.55 244.495C225.945 244.798 226.02 245.363 225.717 245.758C224.792 246.964 223.932 248.239 223.161 249.551C223.051 249.738 222.884 249.87 222.695 249.94ZM228.386 242.521C228.069 242.637 227.699 242.57 227.443 242.317C227.088 241.969 227.084 241.398 227.433 241.044C228.551 239.907 229.752 238.83 231 237.842C231.392 237.534 231.957 237.6 232.266 237.99C232.574 238.38 232.508 238.947 232.118 239.255C230.927 240.197 229.783 241.224 228.717 242.307C228.62 242.406 228.507 242.477 228.386 242.521ZM235.716 236.72C235.319 236.866 234.863 236.716 234.636 236.342C234.378 235.917 234.513 235.363 234.939 235.104C236.298 234.28 237.726 233.53 239.185 232.875C239.643 232.678 240.173 232.875 240.376 233.328C240.58 233.782 240.377 234.315 239.923 234.519C238.531 235.143 237.169 235.858 235.873 236.645C235.822 236.676 235.77 236.701 235.716 236.72ZM248.806 231.789C248.757 231.807 248.706 231.821 248.652 231.83C247.359 232.061 246.056 232.366 244.779 232.738C244.585 232.794 244.395 232.85 244.207 232.909C243.731 233.056 243.227 232.79 243.08 232.315C242.932 231.839 243.197 231.319 243.674 231.187C243.875 231.125 244.076 231.065 244.279 231.007C245.614 230.619 246.98 230.299 248.336 230.057C248.826 229.97 249.294 230.296 249.381 230.786C249.459 231.222 249.208 231.641 248.806 231.789Z" fill="url(#paint6_linear_4224_12612)"/>
<path d="M269.063 304.709C268.601 304.878 268.087 304.645 267.911 304.184C267.733 303.72 267.966 303.199 268.43 303.021C269.83 302.486 271.208 301.862 272.528 301.164C272.967 300.937 273.513 301.099 273.745 301.54C273.978 301.98 273.809 302.525 273.37 302.758C271.986 303.488 270.541 304.144 269.074 304.704C269.071 304.706 269.066 304.707 269.063 304.709ZM264.666 306.092C264.636 306.104 264.605 306.113 264.573 306.121C263.051 306.502 261.491 306.794 259.936 306.99C259.442 307.051 258.992 306.702 258.93 306.208C258.867 305.714 259.22 305.265 259.711 305.202C261.195 305.015 262.684 304.736 264.136 304.373C264.618 304.252 265.107 304.546 265.228 305.028C265.341 305.48 265.092 305.936 264.666 306.092ZM277.195 300.408C276.82 300.546 276.385 300.421 276.145 300.078C275.861 299.671 275.961 299.109 276.369 298.824C277.598 297.966 278.785 297.026 279.897 296.03C280.269 295.699 280.837 295.73 281.169 296.101C281.501 296.471 281.469 297.041 281.099 297.373C279.933 298.417 278.688 299.402 277.4 300.301C277.335 300.347 277.266 300.382 277.195 300.408ZM255.533 307.234C255.437 307.27 255.333 307.289 255.224 307.29C253.655 307.294 252.069 307.2 250.512 307.012C250.018 306.953 249.666 306.504 249.725 306.01C249.785 305.517 250.234 305.165 250.728 305.224C252.212 305.403 253.724 305.491 255.22 305.488C255.718 305.487 256.122 305.889 256.123 306.387C256.124 306.775 255.878 307.107 255.533 307.234ZM284.045 294.27C283.746 294.38 283.397 294.328 283.141 294.103C282.766 293.775 282.728 293.206 283.056 292.832C284.04 291.707 284.966 290.51 285.808 289.273C286.088 288.861 286.648 288.755 287.06 289.035C287.471 289.315 287.578 289.876 287.298 290.287C286.415 291.583 285.444 292.839 284.412 294.019C284.309 294.136 284.182 294.22 284.045 294.27ZM289.224 286.668C288.995 286.752 288.733 286.743 288.499 286.623C288.057 286.395 287.884 285.851 288.112 285.409C288.8 284.077 289.413 282.693 289.935 281.294C290.109 280.827 290.628 280.59 291.094 280.764C291.56 280.937 291.797 281.456 291.623 281.922C291.077 283.389 290.434 284.841 289.714 286.236C289.606 286.444 289.428 286.593 289.224 286.668ZM292.433 278.043C292.271 278.102 292.092 278.116 291.913 278.073C291.428 277.957 291.13 277.471 291.246 276.987C291.596 275.53 291.859 274.038 292.028 272.555C292.085 272.061 292.531 271.705 293.025 271.762C293.519 271.818 293.874 272.264 293.818 272.759C293.641 274.315 293.366 275.879 292.999 277.407C292.926 277.712 292.706 277.942 292.433 278.043Z" fill="url(#paint7_linear_4224_12612)"/>
<path d="M246.355 306.125C246.192 306.185 246.01 306.199 245.829 306.154C245.08 305.968 244.334 305.76 243.61 305.535C243.135 305.387 242.87 304.882 243.017 304.406C243.166 303.933 243.67 303.667 244.146 303.814C244.836 304.029 245.548 304.227 246.262 304.405C246.746 304.524 247.04 305.013 246.92 305.496C246.845 305.797 246.627 306.025 246.355 306.125Z" fill="url(#paint8_linear_4224_12612)"/>
<path d="M243.041 294.944C243.209 295.043 243.421 295.025 243.569 294.899L247.8 291.303C250.274 292.08 252.889 292.467 255.557 292.411L258.613 297.043C258.72 297.205 258.919 297.282 259.107 297.233L265.558 295.578C265.747 295.53 265.884 295.367 265.9 295.173L266.348 289.643C268.713 288.407 270.819 286.808 272.614 284.936L278.053 286.051C278.243 286.09 278.438 286.004 278.537 285.837L281.928 280.105C282.027 279.937 282.009 279.725 281.883 279.577L278.287 275.346C279.064 272.872 279.452 270.257 279.395 267.589L284.027 264.533C284.189 264.426 284.266 264.228 284.218 264.039L282.562 257.588C282.514 257.399 282.351 257.262 282.157 257.247L276.627 256.798C275.391 254.433 273.792 252.327 271.921 250.533L273.035 245.093C273.074 244.902 272.988 244.708 272.821 244.609L267.089 241.218C266.921 241.119 266.709 241.137 266.561 241.263L262.331 244.859C259.857 244.082 257.241 243.695 254.573 243.751L251.517 239.119C251.41 238.957 251.212 238.88 251.023 238.928L244.572 240.584C244.383 240.632 244.246 240.795 244.231 240.989L243.782 246.519C241.417 247.754 239.311 249.354 237.517 251.225L232.077 250.111C231.887 250.071 231.692 250.158 231.593 250.325L228.202 256.057C228.103 256.225 228.121 256.437 228.247 256.585L231.843 260.815C231.066 263.289 230.679 265.905 230.735 268.573L226.103 271.629C225.941 271.736 225.864 271.934 225.913 272.123L227.568 278.574C227.616 278.762 227.779 278.899 227.973 278.915L233.504 279.364C234.739 281.729 236.338 283.835 238.21 285.629L237.095 291.069C237.056 291.259 237.142 291.454 237.309 291.553L243.041 294.944Z" fill="#0A5840" fill-opacity="0.2"/>
<path opacity="0.56" d="M257.401 274.484C256.037 274.985 254.554 275.036 253.135 274.618C251.389 274.103 249.948 272.938 249.078 271.339C247.282 268.04 248.505 263.893 251.805 262.096C255.113 260.303 259.253 261.524 261.049 264.824C261.92 266.423 262.115 268.265 261.6 270.01C261.085 271.757 259.92 273.197 258.321 274.067C258.022 274.23 257.714 274.369 257.401 274.484ZM253.337 263.375C253.11 263.459 252.886 263.56 252.667 263.679C250.239 265.001 249.339 268.05 250.661 270.478C251.301 271.654 252.361 272.511 253.644 272.889C254.929 273.268 256.283 273.123 257.46 272.485C258.636 271.845 259.493 270.785 259.872 269.501C260.251 268.216 260.107 266.861 259.466 265.685C258.265 263.477 255.631 262.532 253.337 263.375Z" fill="white"/>
<path opacity="0.56" d="M260.992 283.879C260.457 284.076 259.908 284.247 259.345 284.392C258.226 284.679 257.076 284.853 255.926 284.908C255.874 284.911 255.822 284.913 255.77 284.915C255.37 284.931 255.021 284.683 254.89 284.326C254.858 284.24 254.839 284.146 254.835 284.049C254.816 283.552 255.204 283.136 255.7 283.115C256.775 283.073 257.85 282.915 258.896 282.646L258.897 282.646C258.954 282.632 259.011 282.616 259.068 282.601C261.537 281.942 263.749 280.693 265.555 278.979C266.535 278.049 267.396 276.981 268.112 275.795C268.118 275.785 268.124 275.775 268.13 275.766C268.148 275.736 268.166 275.707 268.183 275.677C270.246 272.19 270.828 268.107 269.82 264.183C269.69 263.675 269.536 263.178 269.357 262.692C268.156 259.425 265.887 256.693 262.851 254.897C259.363 252.834 255.282 252.253 251.357 253.26C247.435 254.267 244.135 256.742 242.071 260.229C240.008 263.716 239.426 267.798 240.433 271.723C240.561 272.223 240.714 272.714 240.891 273.194C241.657 275.279 242.871 277.171 244.451 278.733C244.549 278.83 244.619 278.942 244.663 279.063C244.78 279.38 244.712 279.751 244.459 280.007C244.108 280.36 243.539 280.365 243.184 280.014C241.416 278.267 240.058 276.148 239.2 273.818C239.003 273.279 238.831 272.73 238.688 272.172C237.561 267.78 238.212 263.213 240.521 259.311C242.829 255.41 246.515 252.638 250.909 251.514C255.3 250.387 259.867 251.038 263.769 253.347C267.166 255.356 269.704 258.412 271.047 262.067C271.247 262.61 271.42 263.167 271.566 263.735C273.747 272.236 269.06 280.915 260.992 283.879Z" fill="white"/>
<path d="M69.5078 151.264C75.4514 162.533 84.7152 172.203 96.8053 178.646C119.006 190.476 144.924 188.329 164.482 175.282L127.824 120.438L69.5078 151.264Z" fill="#0A5840" fill-opacity="0.6"/>
<path d="M164.477 175.282C173.24 169.436 180.727 161.404 186.029 151.456C188.172 147.435 189.856 143.291 191.1 139.085L127.82 120.438L164.477 175.282Z" fill="#0A5840" fill-opacity="0.2"/>
<path d="M191.1 139.086C195.416 124.497 194.43 109.162 188.912 95.5801L127.82 120.439L191.1 139.086Z" fill="#0A5840" fill-opacity="0.6"/>
<path d="M122.735 117.732L127.118 51.9043C102.033 50.2487 77.1177 63.0857 64.5272 86.7125C53.8387 106.77 54.5588 129.864 64.419 148.558L122.735 117.732Z" fill="url(#paint9_linear_4224_12612)"/>
<path d="M188.912 95.5794C186.442 89.498 183.062 83.7688 178.841 78.6152C159.79 94.9239 127.82 120.438 127.82 120.438L188.912 95.5794Z" fill="#0A5840" fill-opacity="0.2"/>
<path d="M178.841 78.6141C173.482 72.0708 166.77 66.4544 158.839 62.2283C150.319 57.6877 141.25 55.2064 132.203 54.6094L127.82 120.437C127.82 120.437 159.79 94.9228 178.841 78.6141Z" fill="#0A5840" fill-opacity="0.6"/>
<path d="M221.269 353.458C221.141 352.022 219.662 350.791 217.168 349.815C219.856 348.303 221.337 346.694 221.197 345.129C220.774 340.395 205.749 337.869 187.638 339.487C169.527 341.105 155.188 346.254 155.611 350.988C155.739 352.424 157.217 353.655 159.711 354.631C157.023 356.143 155.543 357.752 155.683 359.317C155.811 360.752 157.289 361.983 159.783 362.959C157.095 364.471 155.615 366.081 155.755 367.645C155.883 369.081 157.361 370.312 159.855 371.287C157.167 372.8 155.687 374.409 155.827 375.974C156.014 378.067 159.06 379.728 163.964 380.79C163.914 382.339 163.964 384.036 164.132 385.908C164.916 394.631 174.794 401.39 187.78 401.278C200.767 401.165 211.926 391.737 211.978 382.979C211.991 380.832 211.883 378.944 211.674 377.267C217.87 375.139 221.632 372.571 221.413 370.115C221.285 368.679 219.806 367.448 217.312 366.472C220 364.96 221.48 363.35 221.341 361.786C221.213 360.35 219.734 359.119 217.24 358.144C219.928 356.631 221.409 355.022 221.269 353.458Z" fill="url(#paint10_linear_4224_12612)"/>
<path d="M179.619 382.539C174.237 382.586 169.308 382.233 165.232 381.488C164.996 381.445 164.839 381.219 164.882 380.982C164.925 380.746 165.151 380.589 165.388 380.632C171.766 381.796 180.273 381.992 189.342 381.181C196.763 380.518 203.698 379.261 209.396 377.544C209.627 377.475 209.869 377.605 209.938 377.835C210.008 378.066 209.878 378.308 209.647 378.378C203.893 380.111 196.899 381.38 189.42 382.048C186.051 382.349 182.758 382.512 179.619 382.539Z" fill="#0A5840" fill-opacity="0.6"/>
<path d="M179.636 374.202C172.643 374.263 166.388 373.659 161.968 372.442C161.737 372.378 161.601 372.138 161.664 371.907C161.728 371.675 161.967 371.539 162.199 371.603C168.496 373.337 178.616 373.804 189.269 372.853C199.807 371.911 209.623 369.686 215.527 366.901C215.745 366.799 216.004 366.892 216.107 367.109C216.209 367.327 216.116 367.586 215.899 367.688C209.907 370.515 199.98 372.77 189.346 373.72C186.028 374.016 182.758 374.175 179.636 374.202Z" fill="#0A5840" fill-opacity="0.6"/>
<path d="M179.475 365.881C171.924 365.947 165.31 365.231 160.85 363.803C160.62 363.73 160.494 363.485 160.568 363.256C160.641 363.027 160.885 362.901 161.115 362.974C167.322 364.961 177.82 365.541 189.197 364.525C199.734 363.583 209.551 361.358 215.456 358.573C215.674 358.471 215.933 358.563 216.035 358.781C216.138 358.998 216.045 359.258 215.827 359.36C209.835 362.187 199.908 364.442 189.275 365.392C185.905 365.693 182.609 365.854 179.475 365.881Z" fill="#0A5840" fill-opacity="0.6"/>
<path d="M179.467 357.548C173.478 357.6 168.026 357.163 163.782 356.258C163.547 356.208 163.397 355.977 163.447 355.742C163.497 355.507 163.729 355.356 163.964 355.407C170.344 356.767 179.518 357.054 189.131 356.195C199.575 355.263 209.341 353.061 215.256 350.307C215.474 350.205 215.733 350.3 215.834 350.518C215.936 350.735 215.842 350.994 215.624 351.096C209.622 353.891 199.747 356.121 189.209 357.063C185.879 357.36 182.599 357.521 179.467 357.548Z" fill="#0A5840" fill-opacity="0.6"/>
<path d="M143.108 312.089C140.839 304.311 137.038 297.057 131.947 290.755C121.04 277.25 103.2 249.748 100.707 212.024C97.0818 157.153 145.533 129.246 189.995 132.594C234.456 135.941 278.583 168.643 274.225 219.757C271.543 251.208 254.16 275.196 241.182 288.998C232.942 297.763 227.102 308.461 223.991 320.082C220.183 334.306 210.983 352.07 188.762 353.34C160.008 354.983 147.829 328.274 143.108 312.089Z" fill="url(#paint11_linear_4224_12612)"/>
<path d="M196.015 342.329L210.687 241.083C210.99 238.992 212.006 237.58 212.956 237.93C213.906 238.281 214.431 240.26 214.128 242.352C214.12 242.408 214.109 242.476 214.1 242.531L197.258 342.856C197.131 343.61 196.752 344.089 196.412 343.926C196.082 343.767 195.91 343.059 196.015 342.329Z" fill="url(#paint12_linear_4224_12612)"/>
<path d="M179.89 343.27L163.471 242.293C163.132 240.207 162.091 238.813 161.148 239.18C160.204 239.546 159.714 241.535 160.053 243.621C160.062 243.676 160.074 243.745 160.084 243.8L178.657 343.818C178.797 344.57 179.184 345.043 179.521 344.874C179.848 344.709 180.008 343.998 179.89 343.27Z" fill="url(#paint13_linear_4224_12612)"/>
<path opacity="0.78" d="M210.502 232.402C210.102 231.771 209.187 231.542 208.457 231.89L199.836 236.01L196.757 227.474C196.594 227.029 196.222 226.636 195.695 226.424C194.696 226.022 193.508 226.4 193.042 227.267L193.027 227.295L186.021 240.336L179.255 221.916L179.244 221.885C179.078 221.436 178.734 221.033 178.234 220.766C177.121 220.171 175.661 220.472 174.971 221.438L165.138 235.225C164.738 235.79 164.883 236.541 165.503 236.951C166.165 237.388 167.111 237.277 167.618 236.703L176.296 226.852L184.337 244.361L184.343 244.375C184.472 244.655 184.712 244.898 185.044 245.05C185.788 245.39 186.71 245.143 187.104 244.498L194.612 232.214L197.531 238.369L197.557 238.424C197.578 238.468 197.602 238.512 197.629 238.554C198.029 239.185 198.944 239.414 199.673 239.066L209.907 234.176C210.636 233.828 210.903 233.034 210.502 232.402Z" fill="white"/>
<path opacity="0.49" d="M241.417 276.774C240.84 276.779 240.256 276.605 239.754 276.24C238.511 275.334 238.238 273.592 239.144 272.348C241.743 268.783 244.12 265.103 246.211 261.41C246.968 260.071 248.667 259.6 250.006 260.358C251.346 261.115 251.816 262.815 251.058 264.153C248.863 268.032 246.369 271.893 243.646 275.629C243.106 276.371 242.269 276.767 241.417 276.774Z" fill="white"/>
<path opacity="0.49" d="M254.012 254.715C253.642 254.719 253.265 254.647 252.902 254.494C251.486 253.893 250.824 252.258 251.425 250.841C267.385 213.198 253.094 181.896 252.947 181.583C252.294 180.191 252.894 178.532 254.287 177.878C255.683 177.227 257.34 177.826 257.992 179.218C258.631 180.583 273.474 213.107 256.554 253.016C256.107 254.07 255.088 254.706 254.012 254.715Z" fill="white"/>
<path d="M66.6473 190.207C66.6473 190.207 61.6206 192.652 60.6965 195.461C59.955 197.714 54.3968 198.005 53.8478 202.437C53.5644 204.725 51.8709 206.558 49.5918 206.907C43.9153 207.777 35.167 210.725 33.7672 220.581C32.6987 228.104 36.5338 230.957 40.5586 231.944C43.5147 232.669 45.4792 235.544 44.8812 238.529C44.3078 241.391 45.1629 244.701 50.1221 247.317C61.2351 253.181 72.3334 233.425 72.3334 233.425L74.6078 198.93L66.6473 190.207Z" fill="url(#paint14_linear_4224_12612)"/>
<path d="M127.121 182.027C127.121 182.027 104.932 217.124 78.5469 223.903C78.5469 223.903 83.688 238.546 87.6564 240.222C87.6564 240.222 120.117 213.137 128.459 187.014L127.121 182.027Z" fill="url(#paint15_linear_4224_12612)"/>
<path d="M20.9719 406.506L20.2528 412.418C20.1163 413.54 19.2333 414.427 18.1109 414.555C16.2156 414.771 13.1744 414.993 10.1987 414.679C8.8926 414.541 8.04462 413.218 8.44255 411.967C9.16799 409.684 10.495 406.258 12.4084 404.242H18.9665C20.1788 404.242 21.1183 405.303 20.9719 406.506Z" fill="url(#paint16_linear_4224_12612)"/>
<path d="M72.3349 337.25L73.4419 343.761C73.4419 343.761 69.735 381.308 69.0756 396.327C68.9723 398.682 69.5815 401.009 70.8173 403.016L77.2628 413.483L60.8815 403.816L60.5554 401.817L63.237 398.13L59.7244 356.068C59.5182 353.597 60.0279 351.119 61.193 348.93L64.5814 342.565L72.3349 337.25Z" fill="url(#paint17_linear_4224_12612)"/>
<path d="M78.3409 414.999H73.1133C72.1349 414.999 71.212 414.55 70.6152 413.774C68.9856 411.657 65.609 407.525 63.9946 407.418C61.8212 407.272 62.0993 414.999 62.0993 414.999H60.881L59.3379 405.398C58.9497 402.982 60.1511 400.589 62.3203 399.457C62.3203 399.457 62.8172 403.131 65.5111 404.756C68.205 406.382 76.4736 412.202 76.4736 412.202C76.4736 412.202 77.4863 412.058 78.5983 412.258C80.2474 412.556 80.0169 414.999 78.3409 414.999Z" fill="url(#paint18_linear_4224_12612)"/>
<path d="M49.9009 340.343C49.9009 340.343 28.1852 381.535 24.7332 390.94C21.2813 400.345 20.072 408.191 20.0257 408.934C19.9534 410.095 18.5094 411.208 14.5291 411.208C12.475 411.208 11.4689 410.385 10.9764 409.588C10.5561 408.908 10.5344 408.057 10.8886 407.34C12.1447 404.798 16.1311 396.674 17.6074 392.989C19.3701 388.59 23.1617 368.653 25.2413 361.72C27.3207 354.788 29.6712 347.269 38.7269 340.343C38.7269 340.343 44.9432 334.254 49.9009 340.343Z" fill="url(#paint19_linear_4224_12612)"/>
<path d="M63.6124 272.847C69.214 249.111 55.0234 235.686 55.0234 235.686C63.9774 227.091 80.2917 223.18 80.2917 223.18C80.2917 223.18 95.8589 234.561 94.0122 243.469C92.9298 248.69 83.0698 274.743 83.0698 274.743C83.0698 274.743 73.9524 279.057 63.6124 272.847Z" fill="url(#paint20_linear_4224_12612)"/>
<path d="M51.1932 284.599C53.4729 277.731 63.6129 272.848 63.6129 272.848C73.9529 279.058 83.0703 274.743 83.0703 274.743C83.0703 274.743 85.115 282.558 83.7038 289.822C82.2926 297.085 73.4386 343.763 73.4386 343.763C59.4877 346.589 38.0312 340.918 38.0312 340.918C46.9175 325.142 48.9135 291.467 51.1932 284.599Z" fill="url(#paint21_linear_4224_12612)"/>
<path d="M70.1174 207.494L65.5631 227.951C65.1271 229.752 66.7697 229.457 68.5915 229.114C71.575 228.552 75.42 227.393 76.7055 225.072C76.8363 224.835 76.9016 224.568 76.9385 224.301L78.8951 210.115C79.0503 208.99 78.442 207.898 77.4034 207.437L73.6277 205.763C72.1739 205.119 70.4914 205.948 70.1174 207.494Z" fill="url(#paint22_linear_4224_12612)"/>
<path d="M55.0285 235.686C55.0285 235.686 11.07 279.201 74.8209 261.831C74.8209 261.831 75.5479 256.33 74.5991 256.425C53.9259 258.487 45.2792 263.22 62.0844 246.925C62.6785 246.349 62.4949 244.174 62.1128 243.44C60.949 241.205 58.2878 236.766 55.0285 235.686Z" fill="url(#paint23_linear_4224_12612)"/>
<path d="M78.8403 188.846C78.8403 188.846 83.6888 192.128 85.7723 200.486C87.8558 208.844 84.4699 211.843 80.9993 211.659C77.5288 211.475 72.4966 210.402 68.1366 204.406C63.7767 198.409 72.4868 184.836 78.8403 188.846Z" fill="url(#paint24_linear_4224_12612)"/>
<path d="M72.5362 201.036C72.5362 201.036 70.7597 189.059 80.7032 190.891L82.7138 192.984C82.7138 192.984 87.5809 187.503 82.1948 183.36C76.8087 179.216 69.3344 180.277 65.1992 187.82C61.064 195.363 59.5634 200.664 63.0294 205.351C66.4954 210.038 69.1025 206.018 69.1025 206.018C69.1025 206.018 67.513 201.961 68.8318 200.221C70.1507 198.48 71.8523 201.233 71.8523 201.233L72.5362 201.036Z" fill="url(#paint25_linear_4224_12612)"/>
<path d="M71.1794 202.061C71.1794 202.061 70.3023 195.899 67.1553 197.66C64.0084 199.422 68.2895 203.416 70.006 204.776L71.1794 202.061Z" fill="url(#paint26_linear_4224_12612)"/>
<path d="M126.966 189.253C127.033 189.977 124.341 190.478 123.484 187.391C123.72 186.052 124.138 180.184 125.166 179.272C130.637 174.417 140.395 168.955 140.395 168.955C141.486 170.621 140.055 171.718 140.055 171.718L135.184 175.006C135.692 176.688 136.434 178.176 136.518 180.098C136.581 181.553 136.044 182.977 135.078 184.08C134.109 185.188 132.804 186.618 131.628 187.704C129.401 189.759 126.966 189.253 126.966 189.253Z" fill="url(#paint27_linear_4224_12612)"/>
<path d="M129.608 186.86L128.863 186.553C128.962 186.312 131.299 180.633 132.43 179.451C132.86 179.003 133.067 178.619 133.048 178.309C133.038 178.142 132.955 177.976 132.798 177.808L128.857 179.916L127.116 182.641L126.438 182.207L128.291 179.304L132.908 176.836L133.116 177.006C133.583 177.387 133.824 177.797 133.852 178.26C133.886 178.811 133.611 179.383 133.013 180.008C132.161 180.898 130.266 185.255 129.608 186.86Z" fill="url(#paint28_linear_4224_12612)"/>
<path d="M72.2458 270.809L82.8842 233.657C83.005 233.235 83.3647 232.928 83.8004 232.877C85.7279 232.652 91.313 232.021 97.7617 231.475C105.529 230.818 114.55 230.286 119.94 230.739C120.706 230.803 121.169 231.614 120.829 232.303C117.763 238.505 105.155 263.731 98.8407 271.994C98.6315 272.268 98.3081 272.428 97.9636 272.425L73.2806 272.195C72.5625 272.189 72.048 271.5 72.2458 270.809Z" fill="url(#paint29_linear_4224_12612)"/>
<path d="M98.8653 228.254L106.578 226.969C106.989 226.9 107.326 227.293 107.195 227.688L106.432 230.002C106.365 230.203 106.189 230.349 105.979 230.377L98.5568 231.369C98.1728 231.42 97.8563 231.071 97.9446 230.694L98.4173 228.674C98.4681 228.456 98.6448 228.291 98.8653 228.254Z" fill="#0A5840" fill-opacity="0.6"/>
<path d="M93.0921 234.783L93.7275 231.473C93.7912 231.141 94.0653 230.891 94.4016 230.856L109.98 229.276C110.505 229.222 110.924 229.703 110.801 230.215L109.811 234.34C109.732 234.67 109.444 234.908 109.105 234.925L93.882 235.691C93.3864 235.716 92.9986 235.27 93.0921 234.783Z" fill="#0A5840" fill-opacity="0.6"/>
<path d="M74.8153 261.831C74.8153 261.831 73.3334 255.738 73.9311 253.576C74.5289 251.414 75.6871 248.634 79.5477 249.252C83.4082 249.869 87.9622 251.496 87.9622 251.496C87.9622 251.496 87.7322 254.312 84.7981 253.403L86.6174 254.811C86.6174 254.811 86.3574 257.066 83.8791 255.861L85.5714 257.728C85.5714 257.728 84.507 259.58 82.6837 258.392C80.8604 257.204 79.9863 262.565 74.8153 261.831Z" fill="url(#paint30_linear_4224_12612)"/>
<path d="M350.563 173.218C382.452 141.33 382.452 89.6275 350.563 57.7387C318.674 25.8499 266.972 25.8499 235.084 57.7387C203.195 89.6275 203.195 141.33 235.084 173.218C266.972 205.107 318.674 205.107 350.563 173.218Z" fill="#63A18E"/>
<path d="M292.824 185.17C331.314 185.17 362.516 153.968 362.516 115.478C362.516 76.989 331.314 45.7871 292.824 45.7871C254.335 45.7871 223.133 76.989 223.133 115.478C223.133 153.968 254.335 185.17 292.824 185.17Z" fill="url(#paint31_linear_4224_12612)"/>
<path d="M292.822 188.661C252.47 188.661 219.641 155.832 219.641 115.479C219.641 75.126 252.47 42.2969 292.822 42.2969C333.175 42.2969 366.004 75.1259 366.004 115.479C366.004 155.832 333.175 188.661 292.822 188.661ZM292.822 45.7876C254.394 45.7876 223.131 77.0507 223.131 115.479C223.131 153.907 254.394 185.17 292.822 185.17C331.25 185.17 362.513 153.907 362.513 115.479C362.513 77.0507 331.25 45.7876 292.822 45.7876Z" fill="white"/>
<path d="M292.823 157.964C316.288 157.964 335.31 138.942 335.31 115.477C335.31 92.0124 316.288 72.9902 292.823 72.9902C269.358 72.9902 250.336 92.0124 250.336 115.477C250.336 138.942 269.358 157.964 292.823 157.964Z" fill="url(#paint32_linear_4224_12612)"/>
<path d="M292.821 161.455C267.469 161.455 246.844 140.829 246.844 115.477C246.844 90.1253 267.469 69.5 292.821 69.5C318.174 69.5 338.799 90.1253 338.799 115.477C338.799 140.829 318.174 161.455 292.821 161.455ZM292.821 76.481C271.319 76.481 253.825 93.9746 253.825 115.477C253.825 136.98 271.319 154.474 292.821 154.474C314.324 154.474 331.818 136.98 331.818 115.477C331.818 93.9747 314.324 76.481 292.821 76.481Z" fill="white"/>
<path d="M292.828 131.937C301.919 131.937 309.289 124.567 309.289 115.476C309.289 106.385 301.919 99.0156 292.828 99.0156C283.737 99.0156 276.367 106.385 276.367 115.476C276.367 124.567 283.737 131.937 292.828 131.937Z" fill="url(#paint33_linear_4224_12612)"/>
<path d="M292.826 135.428C281.825 135.428 272.875 126.478 272.875 115.477C272.875 104.475 281.825 95.5254 292.826 95.5254C303.827 95.5254 312.778 104.475 312.778 115.477C312.778 126.478 303.827 135.428 292.826 135.428ZM292.826 102.506C285.674 102.506 279.856 108.325 279.856 115.477C279.856 122.629 285.674 128.447 292.826 128.447C299.978 128.447 305.797 122.629 305.797 115.477C305.797 108.325 299.978 102.506 292.826 102.506Z" fill="white"/>
<path d="M391.822 16.2305L394.022 18.4312L310.685 101.768L308.484 99.5677L391.822 16.2305Z" fill="url(#paint34_linear_4224_12612)"/>
<path d="M310.037 94.2567C311.3 92.9941 317.252 98.9464 315.989 100.209L293.913 117.564C293.097 118.205 292.041 117.149 292.682 116.333L310.037 94.2567Z" fill="url(#paint35_linear_4224_12612)"/>
<path d="M393.975 18.4785L405.187 19.5928L389.795 34.9839C384.753 40.0267 377.714 42.5417 370.617 41.8363L393.975 18.4785Z" fill="#0A5840" fill-opacity="0.6"/>
<path d="M391.771 16.2778L390.657 5.06641L375.266 20.4575C370.223 25.5003 367.708 32.539 368.414 39.6357L391.771 16.2778Z" fill="#0A5840" fill-opacity="0.6"/>
<defs>
<linearGradient id="paint0_linear_4224_12612" x1="245.391" y1="208.371" x2="323.488" y2="179.674" gradientUnits="userSpaceOnUse">
<stop stop-color="#DAE3FE"/>
<stop offset="1" stop-color="#E9EFFD"/>
</linearGradient>
<linearGradient id="paint1_linear_4224_12612" x1="319.727" y1="157.709" x2="324.288" y2="156.033" gradientUnits="userSpaceOnUse">
<stop stop-color="#DAE3FE"/>
<stop offset="1" stop-color="#E9EFFD"/>
</linearGradient>
<linearGradient id="paint2_linear_4224_12612" x1="356.212" y1="183.864" x2="359.342" y2="182.714" gradientUnits="userSpaceOnUse">
<stop stop-color="#DAE3FE"/>
<stop offset="1" stop-color="#E9EFFD"/>
</linearGradient>
<linearGradient id="paint3_linear_4224_12612" x1="292.652" y1="247.628" x2="373.094" y2="218.069" gradientUnits="userSpaceOnUse">
<stop stop-color="#DAE3FE"/>
<stop offset="1" stop-color="#E9EFFD"/>
</linearGradient>
<linearGradient id="paint4_linear_4224_12612" x1="290.859" y1="267.528" x2="295.362" y2="265.873" gradientUnits="userSpaceOnUse">
<stop stop-color="#DAE3FE"/>
<stop offset="1" stop-color="#E9EFFD"/>
</linearGradient>
<linearGradient id="paint5_linear_4224_12612" x1="222.837" y1="290.485" x2="225.063" y2="289.667" gradientUnits="userSpaceOnUse">
<stop stop-color="#DAE3FE"/>
<stop offset="1" stop-color="#E9EFFD"/>
</linearGradient>
<linearGradient id="paint6_linear_4224_12612" x1="212.745" y1="265.808" x2="256.374" y2="249.776" gradientUnits="userSpaceOnUse">
<stop stop-color="#DAE3FE"/>
<stop offset="1" stop-color="#E9EFFD"/>
</linearGradient>
<linearGradient id="paint7_linear_4224_12612" x1="247.587" y1="300.478" x2="297.382" y2="282.18" gradientUnits="userSpaceOnUse">
<stop stop-color="#DAE3FE"/>
<stop offset="1" stop-color="#E9EFFD"/>
</linearGradient>
<linearGradient id="paint8_linear_4224_12612" x1="243.259" y1="305.603" x2="246.665" y2="304.351" gradientUnits="userSpaceOnUse">
<stop stop-color="#DAE3FE"/>
<stop offset="1" stop-color="#E9EFFD"/>
</linearGradient>
<linearGradient id="paint9_linear_4224_12612" x1="53.8023" y1="138.09" x2="213.24" y2="-14.6609" gradientUnits="userSpaceOnUse">
<stop stop-color="#074733"/>
<stop offset="1" stop-color="#0A5840"/>
</linearGradient>
<linearGradient id="paint10_linear_4224_12612" x1="188.421" y1="334.813" x2="188.608" y2="387.819" gradientUnits="userSpaceOnUse">
<stop stop-color="#0A5840"/>
<stop offset="1" stop-color="#074733"/>
</linearGradient>
<linearGradient id="paint11_linear_4224_12612" x1="200.856" y1="359.859" x2="183.078" y2="159.851" gradientUnits="userSpaceOnUse">
<stop stop-color="#FF928E"/>
<stop offset="1" stop-color="#FE7062"/>
</linearGradient>
<linearGradient id="paint12_linear_4224_12612" x1="204.226" y1="270.13" x2="212.354" y2="472.916" gradientUnits="userSpaceOnUse">
<stop stop-color="#E1473D"/>
<stop offset="1" stop-color="#E9605A"/>
</linearGradient>
<linearGradient id="paint13_linear_4224_12612" x1="169.074" y1="271.54" x2="177.202" y2="474.324" gradientUnits="userSpaceOnUse">
<stop stop-color="#E1473D"/>
<stop offset="1" stop-color="#E9605A"/>
</linearGradient>
<linearGradient id="paint14_linear_4224_12612" x1="75.4881" y1="170.088" x2="60.5779" y2="207.49" gradientUnits="userSpaceOnUse">
<stop stop-color="#0A5840"/>
<stop offset="1" stop-color="#074733"/>
</linearGradient>
<linearGradient id="paint15_linear_4224_12612" x1="110.551" y1="198.59" x2="70.4244" y2="254.057" gradientUnits="userSpaceOnUse">
<stop stop-color="#FEBBBA"/>
<stop offset="1" stop-color="#FF928E"/>
</linearGradient>
<linearGradient id="paint16_linear_4224_12612" x1="20.9869" y1="409.539" x2="8.34367" y2="409.539" gradientUnits="userSpaceOnUse">
<stop stop-color="#074733"/>
<stop offset="1" stop-color="#0A5840"/>
</linearGradient>
<linearGradient id="paint17_linear_4224_12612" x1="74.4087" y1="459.394" x2="56.2141" y2="246.745" gradientUnits="userSpaceOnUse">
<stop stop-color="#FEBBBA"/>
<stop offset="1" stop-color="#FF928E"/>
</linearGradient>
<linearGradient id="paint18_linear_4224_12612" x1="79.7232" y1="407.228" x2="59.2654" y2="407.228" gradientUnits="userSpaceOnUse">
<stop stop-color="#0A5840"/>
<stop offset="1" stop-color="#074733"/>
</linearGradient>
<linearGradient id="paint19_linear_4224_12612" x1="37.8121" y1="462.559" x2="19.6127" y2="249.854" gradientUnits="userSpaceOnUse">
<stop stop-color="#FEBBBA"/>
<stop offset="1" stop-color="#FF928E"/>
</linearGradient>
<linearGradient id="paint20_linear_4224_12612" x1="73.9555" y1="244.952" x2="64.8578" y2="329.358" gradientUnits="userSpaceOnUse">
<stop stop-color="#074733"/>
<stop offset="1" stop-color="#0A5840"/>
</linearGradient>
<linearGradient id="paint21_linear_4224_12612" x1="131.415" y1="240.503" x2="-87.8643" y2="471.634" gradientUnits="userSpaceOnUse">
<stop stop-color="#074733"/>
<stop offset="1" stop-color="#0A5840"/>
</linearGradient>
<linearGradient id="paint22_linear_4224_12612" x1="76.4031" y1="249.787" x2="72.9853" y2="224.783" gradientUnits="userSpaceOnUse">
<stop stop-color="#FEBBBA"/>
<stop offset="1" stop-color="#FF928E"/>
</linearGradient>
<linearGradient id="paint23_linear_4224_12612" x1="5.66703" y1="273.548" x2="82.8327" y2="241.266" gradientUnits="userSpaceOnUse">
<stop stop-color="#FEBBBA"/>
<stop offset="1" stop-color="#FF928E"/>
</linearGradient>
<linearGradient id="paint24_linear_4224_12612" x1="82.4886" y1="219.676" x2="63.5486" y2="161.822" gradientUnits="userSpaceOnUse">
<stop stop-color="#FEBBBA"/>
<stop offset="1" stop-color="#FF928E"/>
</linearGradient>
<linearGradient id="paint25_linear_4224_12612" x1="85.1805" y1="173.096" x2="63.2871" y2="206.888" gradientUnits="userSpaceOnUse">
<stop stop-color="#074733"/>
<stop offset="1" stop-color="#0A5840"/>
</linearGradient>
<linearGradient id="paint26_linear_4224_12612" x1="75.5739" y1="221.942" x2="56.6338" y2="164.089" gradientUnits="userSpaceOnUse">
<stop stop-color="#FEBBBA"/>
<stop offset="1" stop-color="#FF928E"/>
</linearGradient>
<linearGradient id="paint27_linear_4224_12612" x1="115.367" y1="202.077" x2="75.24" y2="257.544" gradientUnits="userSpaceOnUse">
<stop stop-color="#FEBBBA"/>
<stop offset="1" stop-color="#FF928E"/>
</linearGradient>
<linearGradient id="paint28_linear_4224_12612" x1="126.438" y1="181.848" x2="133.855" y2="181.848" gradientUnits="userSpaceOnUse">
<stop stop-color="#FEBBBA"/>
<stop offset="1" stop-color="#FF928E"/>
</linearGradient>
<linearGradient id="paint29_linear_4224_12612" x1="90.9311" y1="227.96" x2="115.947" y2="332.191" gradientUnits="userSpaceOnUse">
<stop stop-color="#0A5840"/>
<stop offset="1" stop-color="#074733"/>
</linearGradient>
<linearGradient id="paint30_linear_4224_12612" x1="73.7891" y1="255.532" x2="87.9623" y2="255.532" gradientUnits="userSpaceOnUse">
<stop stop-color="#FEBBBA"/>
<stop offset="1" stop-color="#FF928E"/>
</linearGradient>
<linearGradient id="paint31_linear_4224_12612" x1="353.538" y1="34.8708" x2="196.62" y2="243.205" gradientUnits="userSpaceOnUse">
<stop stop-color="#074733"/>
<stop offset="1" stop-color="#0A5840"/>
</linearGradient>
<linearGradient id="paint32_linear_4224_12612" x1="353.537" y1="34.8698" x2="196.619" y2="243.204" gradientUnits="userSpaceOnUse">
<stop stop-color="#0A5840"/>
<stop offset="1" stop-color="#074733"/>
</linearGradient>
<linearGradient id="paint33_linear_4224_12612" x1="353.542" y1="34.8687" x2="196.624" y2="243.203" gradientUnits="userSpaceOnUse">
<stop stop-color="#074733"/>
<stop offset="1" stop-color="#0A5840"/>
</linearGradient>
<linearGradient id="paint34_linear_4224_12612" x1="269.384" y1="108.525" x2="358.515" y2="54.6068" gradientUnits="userSpaceOnUse">
<stop stop-color="#074733"/>
<stop offset="1" stop-color="#0A5840"/>
</linearGradient>
<linearGradient id="paint35_linear_4224_12612" x1="299.425" y1="108.503" x2="362.516" y2="56.1708" gradientUnits="userSpaceOnUse">
<stop stop-color="#FF928E"/>
<stop offset="1" stop-color="#FE7062"/>
</linearGradient>
</defs>
</svg>
