<svg width="335" height="350" viewBox="0 0 335 350" fill="none" xmlns="http://www.w3.org/2000/svg">
<path d="M139.279 218.744C117.745 223.78 94.7925 223.912 73.7844 217.001C52.7772 210.091 33.891 195.802 23.3405 176.365C7.64089 147.443 12.7142 109.47 33.1405 83.6675C45.576 67.9585 62.8149 56.5929 81.1125 48.4292C99.4093 40.2663 118.873 35.0984 138.24 29.9646C165.7 22.6851 193.787 17.1526 222.022 14.0196C232.3 12.8791 242.774 12.0571 252.922 14.0512C263.069 16.0444 272.988 21.1952 278.694 29.8198C284.399 38.4452 284.92 50.8236 278.289 58.7599C274.996 62.7012 270.37 65.2361 265.936 67.8299C261.504 70.4236 257.007 73.3095 254.264 77.6521C251.521 81.9946 251.049 88.188 254.505 91.9871C258.367 96.2325 264.972 95.8475 270.701 96.2018C287.575 97.2453 303.439 108.355 310.189 123.855C316.941 139.355 314.27 158.537 303.541 171.603C293.556 183.762 278.155 189.992 263.08 194.498C237.225 202.229 210.282 206.31 183.298 206.585C167.866 206.743 150.199 207.84 139.279 218.744Z" fill="#0A5840" fill-opacity="0.2"/>
<path d="M167.305 349.998C259.705 349.998 334.61 347.221 334.61 343.796C334.61 340.37 259.705 337.594 167.305 337.594C74.9049 337.594 0 340.37 0 343.796C0 347.221 74.9049 349.998 167.305 349.998Z" fill="#0A5840" fill-opacity="0.2"/>
<path d="M84.3448 317.125H35.1445V342.604H84.3448V317.125Z" fill="#0A5840"/>
<path d="M38.4766 320.303V339.115" stroke="white" stroke-width="0.8" stroke-miterlimit="10" stroke-linecap="round" stroke-linejoin="round"/>
<path d="M160.485 290.553H111.285V342.603H160.485V290.553Z" fill="#0A5840"/>
<path d="M114.727 293.43V340.356" stroke="white" stroke-width="0.8" stroke-miterlimit="10" stroke-linecap="round" stroke-linejoin="round"/>
<path d="M236.63 247.762H187.43V342.604H236.63V247.762Z" fill="#0A5840"/>
<path d="M191.16 250.639V340.357" stroke="white" stroke-width="0.8" stroke-miterlimit="10" stroke-linecap="round" stroke-linejoin="round"/>
<path d="M312.774 202.91H263.574V342.604H312.774V202.91Z" fill="#0A5840"/>
<path d="M267.113 204.951V340.356" stroke="white" stroke-width="0.8" stroke-miterlimit="10" stroke-linecap="round" stroke-linejoin="round"/>
<path d="M185.096 11.0716C185.096 10.586 184.703 10.1934 184.218 10.1934C183.733 10.1934 183.34 10.5869 183.34 11.0716C183.34 11.5571 183.733 11.9498 184.218 11.9498C184.703 11.9498 185.096 11.5571 185.096 11.0716Z" fill="#0A5840"/>
<path d="M289.049 147.197C289.049 146.711 288.656 146.318 288.171 146.318C287.686 146.318 287.293 146.712 287.293 147.197C287.293 147.682 287.686 148.076 288.171 148.076C288.656 148.076 289.049 147.682 289.049 147.197Z" fill="white"/>
<path d="M261.995 32.3118C261.995 31.8263 261.601 31.4336 261.116 31.4336C260.631 31.4336 260.238 31.8271 260.238 32.3118C260.238 32.7973 260.632 33.19 261.116 33.19C261.601 33.19 261.995 32.7965 261.995 32.3118Z" fill="white"/>
<path d="M273.366 164.277C273.366 163.791 272.972 163.398 272.488 163.398C272.002 163.398 271.609 163.792 271.609 164.277C271.609 164.762 272.003 165.155 272.488 165.155C272.973 165.156 273.366 164.762 273.366 164.277Z" fill="white"/>
<path d="M204.026 42.1185C204.026 41.6329 203.632 41.2402 203.148 41.2402C202.662 41.2402 202.27 41.6338 202.27 42.1185C202.27 42.604 202.663 42.9967 203.148 42.9967C203.632 42.9975 204.026 42.604 204.026 42.1185Z" fill="white"/>
<path d="M19.8196 207.692C20.3046 207.692 20.6978 207.299 20.6978 206.814C20.6978 206.329 20.3046 205.936 19.8196 205.936C19.3346 205.936 18.9414 206.329 18.9414 206.814C18.9414 207.299 19.3346 207.692 19.8196 207.692Z" fill="#0A5840"/>
<path d="M51.397 139.95C51.397 139.465 51.0035 139.072 50.5188 139.072C50.0333 139.072 49.6406 139.466 49.6406 139.95C49.6406 140.436 50.0342 140.83 50.5188 140.83C51.0044 140.83 51.397 140.436 51.397 139.95Z" fill="#0A5840"/>
<path d="M62.1674 32.4212C62.1674 31.9356 61.7739 31.543 61.2884 31.543C60.8028 31.543 60.4102 31.9365 60.4102 32.4212C60.4102 32.9067 60.8037 33.2994 61.2884 33.2994C61.7739 33.2994 62.1674 32.9059 62.1674 32.4212Z" fill="white"/>
<path d="M34.3033 232.898C34.3033 232.412 33.9098 232.02 33.4251 232.02C32.9396 232.02 32.5469 232.413 32.5469 232.898C32.5469 233.382 32.9404 233.776 33.4251 233.776C33.9106 233.776 34.3033 233.383 34.3033 232.898Z" fill="white"/>
<path d="M236.344 37.2578H232.391V41.211H236.344V37.2578Z" fill="#0A5840"/>
<path d="M253.762 142.258H249.809V146.211H253.762V142.258Z" fill="white"/>
<path d="M317.387 173.258H313.434V177.211H317.387V173.258Z" stroke="#060305" stroke-width="0.8" stroke-miterlimit="10" stroke-linecap="round" stroke-linejoin="round"/>
<path d="M33.422 26.2441H29.4688V30.1974H33.422V26.2441Z" stroke="#060305" stroke-width="0.8" stroke-miterlimit="10" stroke-linecap="round" stroke-linejoin="round"/>
<path d="M71.59 160.957H67.6367V164.91H71.59V160.957Z" fill="white"/>
<path d="M263.574 126.738L260.41 129.901" stroke="#060305" stroke-width="0.8" stroke-miterlimit="10" stroke-linecap="round" stroke-linejoin="round"/>
<path d="M58.0339 105.707L54.8711 108.87" stroke="#060305" stroke-width="0.8" stroke-miterlimit="10" stroke-linecap="round" stroke-linejoin="round"/>
<path d="M52.9761 220.791L49.8125 223.955" stroke="#060305" stroke-width="0.8" stroke-miterlimit="10" stroke-linecap="round" stroke-linejoin="round"/>
<path d="M93.3776 21.541L90.2148 24.7038" stroke="#060305" stroke-width="0.8" stroke-miterlimit="10" stroke-linecap="round" stroke-linejoin="round"/>
<path d="M250.203 45.2148L253.366 48.3776" stroke="#060305" stroke-width="0.8" stroke-miterlimit="10" stroke-linecap="round" stroke-linejoin="round"/>
<path d="M12.543 62.9004L15.7057 66.064" stroke="#060305" stroke-width="0.8" stroke-miterlimit="10" stroke-linecap="round" stroke-linejoin="round"/>
<path d="M236.68 116.025L239.842 119.189" stroke="#060305" stroke-width="0.8" stroke-miterlimit="10" stroke-linecap="round" stroke-linejoin="round"/>
<path d="M32.7227 157.795L35.8854 160.958" stroke="#060305" stroke-width="0.8" stroke-miterlimit="10" stroke-linecap="round" stroke-linejoin="round"/>
<path d="M81.2344 243.164L201.969 213.051L203.449 152.649L151.203 137.418L81.2344 243.164Z" fill="#2A2A59"/>
<path d="M244.261 244.401C243.226 243.63 241.686 243.447 240.487 242.973C236.007 241.204 232.167 237.86 229.798 233.668C227.429 229.474 226.836 224.116 227.633 219.366C215.299 218.899 203.375 219.874 191.171 221.714C190.579 230.395 189.987 239.076 189.395 247.757L245.609 247.765C246.003 246.537 245.296 245.171 244.261 244.401Z" fill="#2A2A59"/>
<path d="M190.434 243.145C208.413 244.083 226.392 245.022 244.371 245.961" stroke="#060305" stroke-width="0.8" stroke-miterlimit="10" stroke-linecap="round" stroke-linejoin="round"/>
<path d="M158.812 266.926C145.888 267.508 133.499 268.23 120.575 268.813C121.314 272.368 120.852 276.163 119.28 279.436C117.708 282.711 115.035 285.443 111.798 287.09C110.523 287.737 109.602 289.106 109.646 290.534L158.861 290.999C158.815 282.937 158.857 274.987 158.812 266.926Z" fill="#2A2A59"/>
<path d="M111.66 289.335C127.07 288.334 142.479 287.332 157.889 286.33" stroke="#060305" stroke-width="0.8" stroke-miterlimit="10" stroke-linecap="round" stroke-linejoin="round"/>
<path d="M169.496 46.6078C163.092 45.348 157.183 44.2373 150.778 42.9775C149.34 44.5891 147.205 45.555 145.046 45.5729C142.887 45.5899 140.865 44.4988 139.402 42.9102C135.614 44.0482 131.826 45.1862 128.038 46.3242C126.736 70.0274 125.603 93.9282 125.391 117.666L184.711 108.512C181.505 87.4545 176.318 66.7854 169.496 46.6078Z" fill="white"/>
<path d="M131.254 52.794C134.172 56.3988 137.091 60.0045 140.01 63.6102C141.42 58.3758 142.97 53.1543 144.381 47.9199" stroke="#060305" stroke-width="0.8" stroke-miterlimit="10" stroke-linecap="round" stroke-linejoin="round"/>
<path d="M147.715 47.7435C150.236 52.5647 152.758 57.385 155.281 62.2063C158.191 56.6917 161.512 51.3398 164.828 46.0586" stroke="#060305" stroke-width="0.8" stroke-miterlimit="10" stroke-linecap="round" stroke-linejoin="round"/>
<path d="M128.43 108.678C145.264 106.006 162.098 103.334 178.932 100.662" stroke="#060305" stroke-width="0.8" stroke-miterlimit="10" stroke-linecap="round" stroke-linejoin="round"/>
<path d="M148.246 63.2422C149.28 63.9654 150.313 64.6894 151.347 65.4126" stroke="#060305" stroke-width="0.8" stroke-miterlimit="10" stroke-linecap="round" stroke-linejoin="round"/>
<path d="M140.185 71.9258C140.082 73.373 139.978 74.8202 139.875 76.2666" stroke="#060305" stroke-width="0.8" stroke-miterlimit="10" stroke-linecap="round" stroke-linejoin="round"/>
<path d="M154.141 74.7148C155.484 74.7148 156.828 74.7148 158.171 74.7148" stroke="#060305" stroke-width="0.8" stroke-miterlimit="10" stroke-linecap="round" stroke-linejoin="round"/>
<path d="M168.758 73.4668C168.978 74.7045 169.196 75.943 169.416 77.1815" stroke="#060305" stroke-width="0.8" stroke-miterlimit="10" stroke-linecap="round" stroke-linejoin="round"/>
<path d="M147.628 86.8086C147.111 87.6357 146.594 88.4619 146.078 89.289" stroke="#060305" stroke-width="0.8" stroke-miterlimit="10" stroke-linecap="round" stroke-linejoin="round"/>
<path d="M160.652 90.5312C162.513 90.6343 164.373 90.7382 166.234 90.8413" stroke="#060305" stroke-width="0.8" stroke-miterlimit="10" stroke-linecap="round" stroke-linejoin="round"/>
<path d="M135.262 95.7832C135.79 96.8113 136.317 97.8395 136.845 98.8667" stroke="#060305" stroke-width="0.8" stroke-miterlimit="10" stroke-linecap="round" stroke-linejoin="round"/>
<path d="M152.242 98.332C152.964 98.8516 153.686 99.3704 154.407 99.89" stroke="#060305" stroke-width="0.8" stroke-miterlimit="10" stroke-linecap="round" stroke-linejoin="round"/>
<path d="M165.672 57.0234C166.089 58.469 166.507 59.9153 166.924 61.3617" stroke="#060305" stroke-width="0.8" stroke-miterlimit="10" stroke-linecap="round" stroke-linejoin="round"/>
<path d="M133.781 80.8887C134.098 82.0241 134.415 83.1587 134.732 84.2942" stroke="#060305" stroke-width="0.8" stroke-miterlimit="10" stroke-linecap="round" stroke-linejoin="round"/>
<path d="M133.672 66.3428C134.499 65.7227 135.326 65.1025 136.152 64.4824" stroke="#060305" stroke-width="0.8" stroke-miterlimit="10" stroke-linecap="round" stroke-linejoin="round"/>
<path d="M192.479 112.108C194.969 108.135 197.875 104.548 200.364 100.574C205.379 105.95 210.038 110.952 215.053 116.329C217.032 106.911 219.012 97.4929 220.992 88.0754C221.83 84.094 222.671 80.0496 222.384 75.9908C222.049 71.2548 220.13 66.6456 217.004 63.0715C213.879 59.4981 209.3 57.2596 204.853 55.5977C192.678 51.0491 180.108 47.5558 167.332 45.1699C167.332 45.1699 173.727 80.7021 177.526 100.099C179.024 107.744 182.326 115.411 187.309 121.398C192.292 127.384 198.711 132.053 205.553 135.775C211.778 139.16 218.215 141.603 224.794 144.233C214.981 132.596 204.219 121.803 192.479 112.108Z" fill="#0A5840"/>
<path d="M186.418 86.8311C190.935 80.7101 195.453 74.589 199.97 68.4688" stroke="#060305" stroke-width="0.8" stroke-miterlimit="10" stroke-linecap="round" stroke-linejoin="round"/>
<path d="M220.085 140.907C214.241 136.626 205.822 130.08 200.362 125.156C196.525 121.695 184.715 120.604 184.715 120.604C184.715 120.604 185.305 110.275 182.036 107.289L105.426 119.703C106.497 146.993 106.932 175.065 109.739 202.23C112.066 224.747 115.223 248.04 117.55 270.555C132.021 270.462 146.195 270.781 160.665 270.688C158.729 247.309 152.694 224.676 153.681 201.236C154.39 184.388 155.1 167.539 155.808 150.69C167.252 158.333 177.954 165.508 189.398 173.151C188.517 190.513 188.224 207.435 187.342 224.797C201.295 224.591 215.223 224.326 229.176 224.12C231.261 208.928 232.841 194.074 234.927 178.883C236.938 164.242 232.007 149.642 220.085 140.907Z" fill="#060305"/>
<path d="M155.874 146.502C155.83 148.414 155.786 150.327 155.742 152.239" stroke="white" stroke-width="0.8" stroke-miterlimit="10" stroke-linecap="round" stroke-linejoin="round"/>
<path d="M188.566 172.523C190.634 172.989 192.701 173.454 194.768 173.92" stroke="white" stroke-width="0.8" stroke-miterlimit="10" stroke-linecap="round" stroke-linejoin="round"/>
<path d="M117.254 261.301C130.995 260.385 144.737 259.47 158.478 258.555" stroke="white" stroke-width="0.8" stroke-miterlimit="10" stroke-linecap="round" stroke-linejoin="round"/>
<path d="M188.254 212.633C201.176 213.536 214.099 214.438 227.02 215.34" stroke="#060305" stroke-width="0.8" stroke-miterlimit="10" stroke-linecap="round" stroke-linejoin="round"/>
<path d="M154.944 258.502C153.889 245.751 152.832 232.998 151.777 220.247C150.923 209.938 152.362 198.954 152.833 188.621" stroke="white" stroke-width="0.8" stroke-miterlimit="10" stroke-linecap="round" stroke-linejoin="round"/>
<path d="M194.181 212.601C194.321 201.094 194.461 189.587 194.601 178.08C195.86 178.861 197.728 177.311 198.259 175.928C198.791 174.544 198.272 172.935 197.331 171.791C196.388 170.647 195.083 169.874 193.804 169.124C181.335 161.815 168.864 154.507 156.395 147.197" stroke="white" stroke-width="0.8" stroke-miterlimit="10" stroke-linecap="round" stroke-linejoin="round"/>
<path d="M131.777 44.0508C126.149 45.774 120.521 47.498 114.894 49.2212C103.592 52.683 92.1933 56.9829 81.8482 62.7002C77.3557 65.1824 73.9468 69.3801 72.2918 74.2379C70.6367 79.0966 70.635 84.3957 71.4936 89.4554C72.3522 94.516 74.0405 99.3926 75.7211 104.242C77.5218 109.437 79.3217 114.632 81.1224 119.828C90.9531 109.608 100.524 99.7572 110.355 89.5372L81.2323 243.165L125.902 193.786L131.777 44.0508Z" fill="#0A5840"/>
<path d="M113.039 78.4609C113.898 84.2967 114.755 90.1315 115.614 95.9672" stroke="#060305" stroke-width="0.8" stroke-miterlimit="10" stroke-linecap="round" stroke-linejoin="round"/>
<path d="M94.6953 71.8301C100.029 76.8855 105.364 81.9419 110.698 86.9973" stroke="#060305" stroke-width="0.8" stroke-miterlimit="10" stroke-linecap="round" stroke-linejoin="round"/>
<path d="M125.582 46.7969C126.459 71.8638 127.336 96.9316 128.212 121.999" stroke="#060305" stroke-width="0.8" stroke-miterlimit="10" stroke-linecap="round" stroke-linejoin="round"/>
<path d="M199.779 111.643C199.304 111.454 198.769 111.544 198.266 111.637C197.092 111.854 195.917 112.071 194.743 112.288C197.629 108.761 200.304 105.285 203.19 101.758L186.985 87.3105C184.253 91.7919 182.119 96.637 180.654 101.677C180.145 103.427 179.622 105.135 179.86 106.942C180.098 108.749 180.912 110.475 182.153 111.809C184.763 114.615 188.84 116.169 192.052 118.259C194.808 116.536 197.67 114.652 200.427 112.929C200.861 112.659 200.255 111.833 199.779 111.643Z" fill="#C14F4F"/>
<path d="M195.096 111.943C194.422 112.769 193.748 113.594 193.074 114.42" stroke="#060305" stroke-width="0.8" stroke-miterlimit="10" stroke-linecap="round" stroke-linejoin="round"/>
<path d="M110.436 87.6191L93.7383 105.264C94.3737 105.69 95.0083 106.115 95.6438 106.541C97.6685 111.418 100.243 115.824 103.612 119.889C102.442 120.17 101.454 120.413 100.284 120.694C99.453 120.893 98.804 121.833 98.9845 122.667C102.675 123.294 106.216 124.071 109.908 124.698C114.459 122.065 118.399 118.822 121.663 114.7C121.235 104.763 117.171 94.9396 110.436 87.6191Z" fill="#C14F4F"/>
<path d="M103.27 119.537C104.094 120.315 104.918 121.093 105.742 121.871" stroke="#060305" stroke-width="0.8" stroke-miterlimit="10" stroke-linecap="round" stroke-linejoin="round"/>
<path d="M182.98 72.6484C182.977 73.2668 183.793 106.14 183.793 106.14L187.131 117.883L201.966 125.42L182.98 124.845L178.109 102.713L182.98 72.6484Z" fill="#0A5840"/>
<path d="M183.066 72.5488C183.234 79.422 183.402 86.2953 183.57 93.1685" stroke="#060305" stroke-width="0.8" stroke-miterlimit="10" stroke-linecap="round" stroke-linejoin="round"/>
<path d="M172.316 47.0039C176.211 72.1773 180.106 97.3516 184.001 122.525" stroke="#060305" stroke-width="0.8" stroke-miterlimit="10" stroke-linecap="round" stroke-linejoin="round"/>
<path d="M186.184 114.547C190.497 117.228 194.81 119.908 199.123 122.589" stroke="#060305" stroke-width="0.8" stroke-miterlimit="10" stroke-linecap="round" stroke-linejoin="round"/>
<path d="M147.195 16.0787C149.671 15.9492 152.146 15.8189 154.622 15.6894C155.908 15.6221 157.216 15.5566 158.467 15.8607C159.719 16.1656 160.928 16.899 161.497 18.0541" stroke="#060305" stroke-width="0.8" stroke-miterlimit="10" stroke-linecap="round" stroke-linejoin="round"/>
<path d="M134.226 23.5859C131.059 26.592 129.396 31.1099 129.857 35.4516" stroke="#060305" stroke-width="0.8" stroke-miterlimit="10" stroke-linecap="round" stroke-linejoin="round"/>
<path d="M160.362 18.1009C159.229 16.5821 157.157 16.1639 155.27 15.9893C152.679 15.7491 150.157 15.928 147.558 16.0608C141.989 16.3453 136.646 19.5115 133.722 24.2595C132.419 26.3762 131.44 28.6275 130.968 31.0679C130.496 33.5084 130.823 36.2256 132.413 38.1371C134.253 40.3492 137.699 41.0272 140.239 39.6771L153.23 30.0194C154.914 30.7562 157.059 30.2417 158.226 28.8209C159.393 27.4001 159.691 25.3038 158.641 23.7952C159.726 23.4077 160.604 22.4852 160.938 21.3821C161.271 20.2798 161.051 19.0243 160.362 18.1009Z" fill="#060305"/>
<path d="M151.437 44.4273C151.363 43.3941 151.306 42.3753 151.231 41.3421C154.008 40.3872 156.098 37.5993 156.095 34.6622C156.093 32.8573 155.942 30.9424 155.557 29.1792C155.116 27.1664 153.807 25.4065 152.073 24.2949C148.625 24.5488 145.13 24.938 141.683 25.1919C141.225 27.0028 140.681 28.7848 140.223 30.5949C139.657 30.0923 139.037 29.5719 138.472 29.0693C136.87 28.9313 135.223 29.7788 134.404 31.1622C133.584 32.5455 133.632 34.3965 134.523 35.7355C135.414 37.0746 137.102 37.8344 138.695 37.6138C138.729 39.7501 138.725 41.9324 138.76 44.0679C140.238 45.987 142.849 47.2477 145.271 47.2962C147.692 47.3439 149.885 46.286 151.437 44.4273Z" fill="#C14F4F"/>
<path d="M153.287 31.6012C153.663 31.6012 153.968 31.2961 153.968 30.9197C153.968 30.5434 153.663 30.2383 153.287 30.2383C152.911 30.2383 152.605 30.5434 152.605 30.9197C152.605 31.2961 152.911 31.6012 153.287 31.6012Z" fill="#060305"/>
<path d="M144.638 32.15C145.015 32.15 145.32 31.8449 145.32 31.4685C145.32 31.0922 145.015 30.7871 144.638 30.7871C144.262 30.7871 143.957 31.0922 143.957 31.4685C143.957 31.8449 144.262 32.15 144.638 32.15Z" fill="#060305"/>
<path d="M143.172 28.1436C143.455 27.7245 143.931 27.4425 144.433 27.3957C144.936 27.3488 145.456 27.5388 145.811 27.8991" stroke="#060305" stroke-width="0.8" stroke-miterlimit="10" stroke-linecap="round" stroke-linejoin="round"/>
<path d="M149.331 30.6836C149.512 31.5644 149.693 32.4443 149.873 33.325C149.597 33.325 149.143 33.5261 148.867 33.5261" stroke="#060305" stroke-width="0.8" stroke-miterlimit="10" stroke-linecap="round" stroke-linejoin="round"/>
<path d="M151.453 26.2812C152.003 26.2079 152.555 26.1347 153.105 26.0605" stroke="#060305" stroke-width="0.8" stroke-miterlimit="10" stroke-linecap="round" stroke-linejoin="round"/>
<path d="M136.426 31.623C137.107 31.853 137.789 32.0822 138.47 32.3122" stroke="#060305" stroke-width="0.8" stroke-miterlimit="10" stroke-linecap="round" stroke-linejoin="round"/>
<path d="M138.531 37.6914C138.825 37.7178 139.118 37.7442 139.412 37.7715" stroke="#060305" stroke-width="0.8" stroke-miterlimit="10" stroke-linecap="round" stroke-linejoin="round"/>
<path d="M142.875 40.6035C145.48 42.256 148.879 42.584 151.752 41.4596" stroke="#060305" stroke-width="0.8" stroke-miterlimit="10" stroke-linecap="round" stroke-linejoin="round"/>
<path d="M146.231 34.0938C146.226 34.4737 146.455 34.8467 146.796 35.0146C147.137 35.1824 147.572 35.1372 147.871 34.903" stroke="#060305" stroke-width="0.8" stroke-miterlimit="10" stroke-linecap="round" stroke-linejoin="round"/>
<path d="M157.052 -0.00195312L130.441 12.9923L122.016 26.9764L132.263 21.7617L135.12 25.1876L148.215 18.1151L147.348 14.0844L151.203 12.1226L157.052 -0.00195312Z" fill="#0A5840"/>
<path d="M132.258 21.7613L147.343 14.084" stroke="#060305" stroke-width="0.8" stroke-miterlimit="10" stroke-linecap="round" stroke-linejoin="round"/>
<path d="M122.016 26.9766V37.2238" stroke="#060305" stroke-width="0.8" stroke-miterlimit="10" stroke-linecap="round" stroke-linejoin="round"/>
<path d="M120.852 40.0058L122.015 37.2246L122.956 40.0058" stroke="#060305" stroke-width="0.8" stroke-miterlimit="10" stroke-linecap="round" stroke-linejoin="round"/>
</svg>
