<svg width="411" height="400" viewBox="0 0 411 400" fill="none" xmlns="http://www.w3.org/2000/svg">
<path d="M364.019 335.01C356.519 342.906 349.422 347.998 343.815 352.021C277.906 399.311 199.918 385.527 183.343 382.16C158.868 377.189 111.557 367.58 77.3522 327.356C25.6032 266.5 33.6612 170.624 73.8012 107.334C81.1435 95.7577 119.927 31.5042 198.755 21.1999C246.461 14.9639 302.071 27.5412 342.342 61.2803C426.874 132.102 420.856 275.173 364.019 335.01Z" fill="url(#paint0_linear_4224_12732)"/>
<path d="M300 299.998C355.229 244.77 355.229 155.227 300 99.998C244.772 44.7696 155.229 44.7695 100 99.998C44.7715 155.227 44.7715 244.77 100 299.998C155.229 355.227 244.772 355.227 300 299.998Z" fill="#0A5840" fill-opacity="0.2"/>
<path d="M200 320.697C266.66 320.697 320.699 266.658 320.699 199.998C320.699 133.338 266.66 79.2988 200 79.2988C133.34 79.2988 79.3008 133.338 79.3008 199.998C79.3008 266.658 133.34 320.697 200 320.697Z" fill="url(#paint1_linear_4224_12732)"/>
<path d="M200.002 326.743C130.115 326.743 73.2578 269.886 73.2578 199.998C73.2578 130.111 130.115 73.2539 200.002 73.2539C269.888 73.2539 326.746 130.111 326.746 199.998C326.746 269.886 269.888 326.743 200.002 326.743ZM200.002 79.2995C133.448 79.2995 79.3035 133.444 79.3035 199.998C79.3035 266.552 133.448 320.697 200.002 320.697C266.555 320.697 320.7 266.552 320.7 199.998C320.7 133.444 266.555 79.2995 200.002 79.2995Z" fill="white"/>
<path d="M199.998 273.582C240.637 273.582 273.582 240.637 273.582 199.998C273.582 159.359 240.637 126.414 199.998 126.414C159.359 126.414 126.414 159.359 126.414 199.998C126.414 240.637 159.359 273.582 199.998 273.582Z" fill="url(#paint2_linear_4224_12732)"/>
<path d="M200 279.627C156.093 279.627 120.371 243.905 120.371 199.998C120.371 156.09 156.093 120.369 200 120.369C243.908 120.369 279.629 156.09 279.629 199.998C279.629 243.905 243.908 279.627 200 279.627ZM200 132.46C162.759 132.46 132.462 162.757 132.462 199.998C132.462 237.239 162.759 267.537 200 267.537C237.241 267.537 267.539 237.239 267.539 199.998C267.539 162.757 237.241 132.46 200 132.46Z" fill="white"/>
<path d="M200.001 228.505C215.746 228.505 228.509 215.742 228.509 199.997C228.509 184.252 215.746 171.488 200.001 171.488C184.256 171.488 171.492 184.252 171.492 199.997C171.492 215.742 184.256 228.505 200.001 228.505Z" fill="url(#paint3_linear_4224_12732)"/>
<path d="M200.003 234.552C180.95 234.552 165.449 219.051 165.449 199.998C165.449 180.944 180.95 165.443 200.003 165.443C219.056 165.443 234.557 180.944 234.557 199.998C234.557 219.051 219.056 234.552 200.003 234.552ZM200.003 177.534C187.617 177.534 177.54 187.611 177.54 199.998C177.54 212.385 187.617 222.461 200.003 222.461C212.389 222.461 222.467 212.385 222.467 199.998C222.467 187.611 212.389 177.534 200.003 177.534Z" fill="white"/>
<path d="M334.945 65.4199L337.947 68.4227L224.241 182.129L221.238 179.126L334.945 65.4199Z" fill="url(#paint4_linear_4224_12732)"/>
<path d="M223.367 171.881C225.09 170.158 233.211 178.279 231.489 180.002L201.367 203.682C200.254 204.557 198.812 203.115 199.687 202.002L223.367 171.881Z" fill="url(#paint5_linear_4224_12732)"/>
<path d="M337.885 68.4863L353.182 70.0067L332.183 91.0067C325.302 97.887 315.698 101.319 306.016 100.356L337.885 68.4863Z" fill="#0A5840"/>
<path d="M334.881 65.4846L333.36 50.1875L312.36 71.1874C305.48 78.0678 302.049 87.6716 303.011 97.3543L334.881 65.4846Z" fill="#0A5840"/>
<g opacity="0.3">
<path d="M124.953 44.3123C124.525 44.7397 123.832 44.7393 123.405 44.3119C122.575 43.4815 121.697 42.6747 120.794 41.914C120.338 41.5291 120.275 40.8505 120.649 40.3885C120.654 40.383 120.658 40.3776 120.663 40.3719C121.052 39.9099 121.743 39.8512 122.205 40.2407C123.155 41.0415 124.08 41.8907 124.953 42.765C125.353 43.1646 125.378 43.7969 125.03 44.2265C125.006 44.2562 124.98 44.285 124.953 44.3123ZM116.147 38.5129C115.15 37.8826 114.116 37.2891 113.074 36.7482C112.538 36.47 112.328 35.8096 112.606 35.273C112.888 34.7355 113.545 34.5274 114.082 34.8058C115.178 35.3746 116.267 35.9994 117.316 36.6624C117.827 36.9852 117.979 37.6613 117.657 38.1722C117.633 38.2093 117.608 38.2446 117.581 38.2778C117.236 38.7026 116.621 38.8122 116.147 38.5129ZM107.793 34.4596C106.683 34.0682 105.543 33.7204 104.404 33.4257C103.819 33.2744 103.467 32.6773 103.618 32.0922C103.77 31.5079 104.367 31.1559 104.952 31.3069C106.152 31.6173 107.353 31.9836 108.521 32.3958C109.091 32.5968 109.39 33.2219 109.189 33.7919C109.146 33.9134 109.084 34.0225 109.007 34.1172C108.724 34.4663 108.241 34.6178 107.793 34.4596ZM98.7417 32.3766C97.5713 32.2428 96.3816 32.1587 95.2054 32.1257C94.6013 32.1086 94.1251 31.605 94.1421 31.0012C94.1596 30.3972 94.663 29.9216 95.2666 29.9379C96.5051 29.9728 97.7577 30.0617 98.9893 30.2019C99.5896 30.2704 100.021 30.8127 99.9526 31.4131C99.9281 31.6279 99.8429 31.8212 99.7161 31.9776C99.4885 32.2582 99.1272 32.4203 98.7417 32.3766ZM89.4521 32.362C88.2841 32.4913 87.1049 32.6724 85.9478 32.9009C85.3547 33.0177 84.7794 32.6318 84.6624 32.0389C84.5452 31.4456 84.9314 30.8703 85.5243 30.7538C86.7415 30.5136 87.9824 30.323 89.2114 30.187C89.812 30.1204 90.3529 30.5533 90.4192 31.1542C90.4528 31.4568 90.3595 31.7443 90.1818 31.9636C90.0068 32.1794 89.7501 32.3289 89.4521 32.362ZM80.3909 34.4031C79.2788 34.788 78.1696 35.2255 77.0937 35.7036C76.5414 35.949 75.8945 35.7002 75.6494 35.1482C75.4039 34.5958 75.6523 33.9493 76.2048 33.7037C77.3369 33.2004 78.5049 32.7401 79.6752 32.335C80.2464 32.1375 80.8693 32.4402 81.0672 33.0113C81.1957 33.3822 81.1127 33.775 80.8823 34.0591C80.7581 34.2122 80.5913 34.3339 80.3909 34.4031ZM52.479 63.9349C51.8943 63.7827 51.5434 63.1851 51.6957 62.6002C52.0079 61.4021 52.3766 60.2014 52.7917 59.0317C52.9939 58.4621 53.6194 58.1642 54.1889 58.3665C54.7583 58.5683 55.0561 59.194 54.8541 59.7634C54.46 60.8739 54.1101 62.0141 53.8137 63.1519C53.7731 63.308 53.7009 63.4472 53.6055 63.565C53.3435 63.8879 52.9078 64.0467 52.479 63.9349ZM72.0126 38.3995C71.0145 39.0218 70.0313 39.6949 69.0903 40.4008C68.6065 40.7632 67.9206 40.6653 67.5581 40.1817C67.1953 39.6979 67.2956 39.0144 67.7773 38.6497C68.7683 37.9065 69.8038 37.1976 70.855 36.5423C71.3678 36.2227 72.0426 36.3791 72.3625 36.8921C72.6161 37.2987 72.57 37.8077 72.2842 38.1602C72.2097 38.2522 72.1186 38.3333 72.0126 38.3995ZM55.6773 54.95C55.1415 54.6708 54.9335 54.0097 55.2128 53.4737C55.7852 52.3762 56.4126 51.2887 57.0769 50.2414C57.3988 49.7291 58.0769 49.5801 58.5873 49.9036C59.0974 50.2273 59.2486 50.9034 58.9249 51.4139C58.2934 52.4091 57.6972 53.4425 57.1535 54.4858C57.1189 54.5524 57.078 54.6136 57.0325 54.6697C56.7116 55.0656 56.1465 55.1947 55.6773 54.95ZM64.7391 44.1672C63.9059 44.9967 63.0975 45.8729 62.3364 46.7723C61.9461 47.234 61.2558 47.2914 60.7943 46.9009C60.339 46.5156 60.277 45.838 60.6509 45.3769C60.6558 45.371 60.6608 45.3648 60.6659 45.3591C61.4668 44.4121 62.3178 43.4894 63.1945 42.6163C63.6231 42.1902 64.3158 42.1917 64.7424 42.6199C65.1406 43.0198 65.1655 43.6511 64.8177 44.0799C64.7932 44.1098 64.7669 44.139 64.7391 44.1672Z" fill="#0A5840"/>
<path d="M52.3472 71.1457C52.483 70.9784 52.571 70.7694 52.588 70.5381C52.6293 69.9753 52.6834 69.4044 52.748 68.8401C52.8169 68.2399 52.3859 67.6971 51.7858 67.6284C51.1853 67.5593 50.6419 67.99 50.574 68.5908C50.5058 69.184 50.4491 69.7847 50.4054 70.3768C50.3609 70.9794 50.8136 71.5043 51.416 71.5486C51.7875 71.5762 52.1292 71.4147 52.3472 71.1457Z" fill="#0A5840"/>
</g>
<g opacity="0.3">
<path d="M63.0827 102.733C63.4154 102.323 63.4106 101.72 63.0469 101.314C62.6704 100.894 62.2963 100.459 61.9354 100.021C61.5509 99.5549 60.8612 99.4886 60.3949 99.873C59.9267 100.259 59.8623 100.947 60.2466 101.413C60.6268 101.874 61.0206 102.333 61.4169 102.775C61.8202 103.225 62.512 103.263 62.9622 102.86C63.0063 102.82 63.0465 102.777 63.0827 102.733Z" fill="#0A5840"/>
<path d="M126.525 102.83C126.122 103.281 125.43 103.319 124.98 102.915C124.53 102.512 124.492 101.822 124.895 101.37C125.662 100.513 126.405 99.6099 127.112 98.6758C127.473 98.1949 128.163 98.0989 128.645 98.4635C129.127 98.8281 129.222 99.5144 128.857 99.9964C128.551 100.401 128.24 100.799 127.922 101.19C127.47 101.748 127 102.3 126.525 102.83ZM130.634 95.4253C130.108 95.1293 129.921 94.4622 130.217 93.9355C130.785 92.9238 131.317 91.8776 131.797 90.8251C132.046 90.2753 132.697 90.0329 133.247 90.2837C133.796 90.5345 134.039 91.1836 133.788 91.7332C133.282 92.8412 132.723 93.943 132.124 95.0072C132.093 95.0623 132.058 95.1139 132.02 95.1615C131.69 95.5681 131.106 95.6904 130.634 95.4253ZM122.253 106.99C121.324 107.777 120.349 108.536 119.355 109.244C118.862 109.595 118.179 109.48 117.828 108.987C117.478 108.495 117.593 107.812 118.085 107.461C119.029 106.789 119.955 106.068 120.837 105.321C121.298 104.93 121.988 104.986 122.379 105.447C122.725 105.855 122.72 106.443 122.395 106.843C122.353 106.895 122.306 106.945 122.253 106.99ZM134.524 86.8843C133.945 86.7113 133.616 86.1014 133.789 85.5224C134.121 84.4125 134.409 83.2751 134.646 82.1421C134.77 81.5499 135.349 81.1711 135.941 81.2949C136.533 81.4186 136.912 81.9981 136.788 82.5895C136.539 83.7829 136.235 84.9807 135.886 86.1493C135.843 86.2904 135.775 86.4171 135.688 86.5249C135.417 86.8591 134.962 87.0151 134.524 86.8843ZM114.275 112.359C113.197 112.922 112.079 113.447 110.953 113.92C110.396 114.154 109.755 113.892 109.521 113.335C109.287 112.777 109.549 112.136 110.106 111.902C111.176 111.453 112.237 110.954 113.261 110.419C113.797 110.139 114.458 110.346 114.738 110.882C114.946 111.281 114.884 111.75 114.618 112.079C114.527 112.191 114.411 112.287 114.275 112.359ZM105.313 115.848C104.135 116.163 102.929 116.432 101.731 116.647C101.136 116.754 100.567 116.359 100.46 115.764C100.353 115.168 100.748 114.599 101.343 114.493C102.482 114.289 103.628 114.033 104.748 113.734C105.331 113.578 105.931 113.924 106.088 114.508C106.181 114.86 106.093 115.218 105.88 115.481C105.739 115.654 105.545 115.786 105.313 115.848ZM95.8033 117.301C94.5837 117.352 93.3484 117.352 92.1322 117.301C91.528 117.276 91.0594 116.766 91.0844 116.162C91.1097 115.558 91.6198 115.089 92.2233 115.115C93.3792 115.163 94.5525 115.163 95.7118 115.114C96.3156 115.089 96.8256 115.558 96.8508 116.162C96.8625 116.439 96.7699 116.697 96.6079 116.897C96.4169 117.132 96.1298 117.287 95.8033 117.301ZM86.2032 116.645C85.0022 116.429 83.7965 116.158 82.6196 115.84C82.0362 115.683 81.6905 115.083 81.8478 114.499C82.0048 113.917 82.6058 113.57 83.1892 113.727C84.3065 114.029 85.4513 114.286 86.5923 114.492C87.187 114.599 87.582 115.168 87.4746 115.763C87.4407 115.95 87.3608 116.118 87.2485 116.257C87.0052 116.557 86.6103 116.719 86.2032 116.645ZM76.977 113.895C75.856 113.42 74.7405 112.89 73.6612 112.321C73.1266 112.039 72.9215 111.377 73.2036 110.843C73.4848 110.31 74.1471 110.103 74.6818 110.385C75.707 110.926 76.7666 111.428 77.8314 111.88C78.3877 112.116 78.6475 112.758 78.4118 113.314C78.3707 113.411 78.3175 113.499 78.2543 113.577C77.9548 113.946 77.4364 114.089 76.977 113.895ZM68.5887 109.19C67.8586 108.669 67.1356 108.118 66.44 107.554C66.188 107.35 65.9394 107.144 65.6931 106.935C65.2323 106.544 65.1614 105.852 65.566 105.393C65.9565 104.931 66.6471 104.875 67.1084 105.265C67.3423 105.463 67.579 105.66 67.8184 105.854C68.4798 106.39 69.1667 106.913 69.8609 107.409C70.3526 107.76 70.4664 108.444 70.1152 108.936C70.1019 108.954 70.0884 108.972 70.0743 108.99C69.7127 109.436 69.0618 109.528 68.5887 109.19Z" fill="#0A5840"/>
<path d="M137.367 77.2664C137.504 77.0973 137.592 76.8863 137.608 76.653C137.649 76.062 137.677 75.4589 137.694 74.8606C137.71 74.2563 137.234 73.7532 136.63 73.7367C136.026 73.7204 135.523 74.1959 135.506 74.8005C135.49 75.369 135.463 75.9418 135.425 76.503C135.383 77.1055 135.838 77.6281 136.441 77.6696C136.811 77.6949 137.15 77.5336 137.367 77.2664Z" fill="#0A5840"/>
</g>
<path d="M125.058 63.1105C125.014 62.8968 124.839 62.7349 124.622 62.7074L118.448 61.919C117.222 59.2829 115.568 56.8233 113.506 54.6557L115.035 48.6258C115.088 48.4142 115.002 48.192 114.819 48.0723L108.575 43.9786C108.393 43.8588 108.154 43.8682 107.982 44.0017L103.061 47.8079C100.251 46.7814 97.3361 46.2447 94.43 46.1721L91.2451 40.8239C91.1334 40.6365 90.915 40.5405 90.7015 40.585L83.3915 42.1053C83.178 42.1497 83.0159 42.3248 82.9884 42.5413L82.2001 48.7159C79.564 49.9413 77.1043 51.5958 74.9368 53.6577L68.9069 52.1291C68.6954 52.0753 68.4732 52.1618 68.3536 52.3443L64.2597 58.5884C64.14 58.7709 64.1495 59.0091 64.2828 59.1817L68.089 64.1021C67.0625 66.9121 66.5259 69.8274 66.4534 72.7335L61.1052 75.9184C60.9178 76.0301 60.8217 76.2483 60.8663 76.462L62.3866 83.772C62.431 83.9855 62.6062 84.1475 62.8225 84.1751L68.9972 84.9635C70.2224 87.5997 71.8771 90.0592 73.9389 92.2268L72.4103 98.2567C72.3566 98.4683 72.4431 98.6905 72.6256 98.81L78.8697 102.904C79.0521 103.024 79.2904 103.014 79.463 102.881L84.3834 99.0745C87.1934 100.101 90.1087 100.638 93.0147 100.71L96.1997 106.058C96.3112 106.246 96.5295 106.342 96.7433 106.297L104.053 104.777C104.267 104.732 104.429 104.558 104.456 104.341L105.245 98.1665C107.881 96.9412 110.34 95.2867 112.508 93.2249L118.538 94.7535C118.749 94.807 118.971 94.7206 119.091 94.5382L123.185 88.2941C123.305 88.1116 123.295 87.8733 123.162 87.7008L119.356 82.7805C120.382 79.9705 120.919 77.0552 120.991 74.1491L126.34 70.9642C126.527 70.8525 126.623 70.6341 126.579 70.4206L125.058 63.1105Z" fill="#0A5840"/>
<path d="M98.7985 78.9672C95.7514 81.7672 90.9945 81.5665 88.194 78.5192C86.8374 77.0432 86.137 75.1272 86.2217 73.1242C86.3061 71.1217 87.1653 69.2713 88.642 67.915C91.6893 65.1149 96.4461 65.3157 99.2465 68.3629C101.794 71.1352 101.858 75.3224 99.5535 78.1642C99.3252 78.446 99.0733 78.7147 98.7985 78.9672ZM87.9711 73.1983C87.9062 74.7341 88.4432 76.2029 89.4834 77.3349C91.6303 79.671 95.2779 79.8252 97.614 77.6783C99.9516 75.5314 100.104 71.8839 97.9573 69.5475C95.8105 67.2115 92.1629 67.0572 89.8268 69.2041C89.615 69.3988 89.4201 69.6066 89.2421 69.826C88.4694 70.7791 88.0239 71.9502 87.9711 73.1983Z" fill="#0A5840" fill-opacity="0.2"/>
<path d="M107.88 85.1095C108.276 84.6215 108.649 84.1106 108.998 83.5781C109.108 83.4105 109.216 83.241 109.32 83.07C109.835 82.2261 110.283 81.3427 110.655 80.4333C110.66 80.4209 110.665 80.4085 110.67 80.3962C110.685 80.361 110.699 80.3257 110.713 80.2902C110.74 80.2215 110.767 80.1525 110.794 80.0835C110.864 79.9021 110.805 79.7027 110.662 79.5862C110.627 79.5579 110.587 79.5346 110.543 79.5176C110.317 79.4306 110.064 79.5435 109.977 79.7686C109.53 80.9293 108.954 82.0493 108.266 83.0979C104.852 88.3078 99.1223 91.1064 93.3125 91.0318C90.0809 90.9907 86.8244 90.0601 83.9272 88.1604C83.4191 87.8274 82.9315 87.4711 82.4661 87.0935C79.3334 84.5531 77.1876 81.0416 76.3554 77.0397C75.3991 72.4427 76.2904 67.7483 78.8648 63.8218C84.1825 55.7128 95.0982 53.4449 103.204 58.7593C103.704 59.087 104.185 59.4387 104.646 59.8128C106.644 61.4335 108.265 63.4734 109.387 65.7918C109.416 65.8517 109.456 65.902 109.505 65.9411C109.632 66.0444 109.813 66.0715 109.971 65.9952C110.189 65.8892 110.281 65.6286 110.175 65.4104C108.998 62.9765 107.295 60.8345 105.198 59.1332C104.714 58.7405 104.208 58.3713 103.684 58.0272C95.1739 52.4475 83.7103 54.8345 78.1326 63.3415C75.4298 67.4638 74.4943 72.3917 75.4983 77.2178C76.3718 81.4193 78.6247 85.1054 81.9132 87.7727C82.402 88.1689 82.9137 88.5429 83.4469 88.8926C87.5695 91.5953 92.4975 92.531 97.3234 91.5273C101.526 90.6531 105.213 88.3993 107.88 85.1095Z" fill="#0A5840" fill-opacity="0.2"/>
<g opacity="0.3">
<path d="M170.948 33.382C171.132 33.1549 171.154 32.8256 170.979 32.5727C170.653 32.1005 170.309 31.6316 169.955 31.1792C169.725 30.8854 169.3 30.8335 169.006 31.0634C168.71 31.2926 168.66 31.7182 168.89 32.0121C169.227 32.4431 169.556 32.8899 169.867 33.3406C170.078 33.6476 170.499 33.7247 170.807 33.513C170.861 33.4754 170.908 33.431 170.948 33.382Z" fill="#0A5840"/>
<path d="M167.568 29.443C167.305 29.7073 166.877 29.7085 166.613 29.4449C165.945 28.7807 165.235 28.1427 164.503 27.5495C164.349 27.4245 164.193 27.3007 164.035 27.178C163.74 26.9491 163.687 26.5246 163.916 26.2297C164.143 25.9595 164.569 25.8817 164.864 26.1105C165.03 26.239 165.193 26.3686 165.355 26.4994C166.122 27.1213 166.866 27.79 167.566 28.487C167.814 28.7334 167.83 29.1249 167.615 29.391C167.6 29.4089 167.585 29.426 167.568 29.443ZM161.201 25.2418C160.22 24.6561 159.194 24.1259 158.152 23.6663C157.811 23.5155 157.656 23.1171 157.807 22.7752C157.957 22.4357 158.356 22.2788 158.698 22.4297C159.79 22.9112 160.865 23.467 161.894 24.0814C162.214 24.2728 162.319 24.6879 162.127 25.0086C162.111 25.0366 162.092 25.0632 162.071 25.0881C161.863 25.3449 161.493 25.4163 161.201 25.2418ZM154.931 22.4797C153.839 22.1526 152.714 21.8909 151.588 21.7014C151.22 21.6394 150.972 21.2907 151.034 20.9229C151.096 20.5536 151.444 20.3061 151.813 20.3684C152.993 20.5669 154.173 20.8419 155.319 21.1845C155.676 21.2916 155.88 21.6682 155.772 22.0258C155.746 22.1128 155.704 22.1909 155.65 22.2575C155.483 22.4639 155.201 22.5604 154.931 22.4797ZM148.175 21.3423C147.033 21.2931 145.879 21.3143 144.744 21.4059C144.371 21.4356 144.046 21.1584 144.016 20.7864C143.986 20.4153 144.263 20.0887 144.635 20.0584C145.826 19.9625 147.036 19.9403 148.233 19.9919C148.606 20.0078 148.895 20.3236 148.879 20.6966C148.872 20.8468 148.817 20.9836 148.729 21.0923C148.599 21.2529 148.397 21.352 148.175 21.3423ZM141.345 21.889C140.227 22.1187 139.113 22.4198 138.032 22.7837C137.679 22.9029 137.296 22.7127 137.176 22.3588C137.057 22.0051 137.246 21.6214 137.601 21.5026C138.733 21.1211 139.901 20.8057 141.073 20.5645C141.439 20.4898 141.796 20.725 141.871 21.0905C141.913 21.297 141.857 21.5009 141.734 21.6527C141.639 21.7697 141.504 21.8561 141.345 21.889ZM134.855 24.0769C133.828 24.5712 132.821 25.1344 131.864 25.7513C131.551 25.9534 131.132 25.8629 130.93 25.5493C130.728 25.2356 130.818 24.8187 131.132 24.6148C132.136 23.9679 133.192 23.3771 134.27 22.8586C134.606 22.6972 135.01 22.8384 135.172 23.1746C135.288 23.4182 135.247 23.6971 135.087 23.8937C135.026 23.9687 134.949 24.0322 134.855 24.0769ZM129.1 27.784C128.228 28.5132 127.39 29.3068 126.609 30.1437C126.354 30.4162 125.927 30.4311 125.654 30.1763C125.381 29.922 125.37 29.4984 125.621 29.2207C126.44 28.3441 127.318 27.5118 128.233 26.747C128.52 26.5078 128.946 26.5459 129.185 26.8322C129.396 27.084 129.392 27.4446 129.192 27.6907C129.165 27.7238 129.134 27.7553 129.1 27.784ZM121.665 35.9523C121.338 35.7716 121.22 35.3606 121.401 35.0338C121.901 34.1297 122.46 33.2374 123.059 32.3841C123.15 32.2539 123.241 32.1257 123.334 31.9979C123.544 31.6912 123.976 31.629 124.279 31.8497C124.58 32.0694 124.647 32.4918 124.427 32.7939C124.34 32.9133 124.254 33.0343 124.167 33.1585C123.594 33.975 123.061 34.8261 122.584 35.6882C122.564 35.7238 122.541 35.757 122.517 35.7872C122.314 36.0372 121.956 36.1135 121.665 35.9523Z" fill="#0A5840"/>
</g>
<g opacity="0.3">
<path d="M169.366 67.8538C168.612 68.7591 167.797 69.6258 166.942 70.4312C166.671 70.6867 166.243 70.6744 165.987 70.4025C165.73 70.1305 165.748 69.7037 166.015 69.4469C166.831 68.6794 167.608 67.8523 168.327 66.9886C168.566 66.7016 168.992 66.6629 169.279 66.9016C169.563 67.1385 169.604 67.5599 169.372 67.8465C169.37 67.8489 169.368 67.8514 169.366 67.8538ZM170.529 65.2019C170.216 64.9993 170.126 64.5807 170.329 64.2677C170.938 63.3248 171.497 62.3357 171.99 61.3273C172.153 60.9944 172.558 60.8526 172.894 61.017C173.229 61.1806 173.368 61.5849 173.205 61.9206C172.689 62.9773 172.103 64.014 171.463 65.0017C171.45 65.0226 171.436 65.0421 171.42 65.0611C171.206 65.3257 170.822 65.3915 170.529 65.2019ZM164.221 72.6964C163.271 73.393 162.27 74.0377 161.246 74.6121C160.92 74.7947 160.508 74.6785 160.325 74.3533C160.142 74.0277 160.258 73.6175 160.584 73.4331C161.561 72.8853 162.515 72.2705 163.423 71.6063C163.724 71.3856 164.147 71.451 164.367 71.7516C164.552 72.0049 164.536 72.344 164.347 72.5767C164.311 72.6208 164.269 72.6611 164.221 72.6964ZM173.701 59.0678C173.348 58.9464 173.16 58.5616 173.282 58.2088C173.647 57.1472 173.951 56.0529 174.184 54.9554C174.262 54.5908 174.621 54.3577 174.985 54.4346C175.35 54.5124 175.583 54.8711 175.506 55.2363C175.262 56.3872 174.943 57.5356 174.56 58.6487C174.533 58.7256 174.494 58.7947 174.446 58.8544C174.272 59.0686 173.977 59.1625 173.701 59.0678ZM158.061 76.151C156.973 76.5976 155.846 76.982 154.712 77.2944C154.352 77.3935 153.98 77.1817 153.881 76.822C153.782 76.462 153.993 76.0898 154.353 75.9908C155.436 75.6935 156.51 75.3265 157.547 74.9001C157.892 74.7584 158.287 74.9231 158.429 75.269C158.526 75.5054 158.479 75.7658 158.329 75.9517C158.26 76.0364 158.169 76.1063 158.061 76.151ZM151.25 78.027C150.085 78.2004 148.899 78.3044 147.725 78.3366C147.352 78.3469 147.041 78.0531 147.031 77.6799C147.021 77.3072 147.315 76.9959 147.688 76.9857C148.808 76.9549 149.939 76.8554 151.052 76.6899C151.421 76.6349 151.765 76.8899 151.82 77.259C151.848 77.454 151.791 77.6421 151.676 77.7844C151.573 77.9109 151.424 78.0011 151.25 78.027ZM144.186 78.2186C143.012 78.108 141.835 77.9242 140.688 77.6729C140.323 77.5927 140.092 77.2326 140.172 76.8679C140.252 76.5034 140.613 76.273 140.977 76.3524C142.071 76.5925 143.193 76.7676 144.312 76.8724C144.684 76.9074 144.957 77.2372 144.922 77.6088C144.909 77.7469 144.856 77.8708 144.775 77.9707C144.637 78.1401 144.42 78.2403 144.186 78.2186Z" fill="#0A5840"/>
<path d="M175.885 52.0699C175.967 51.9687 176.021 51.8427 176.033 51.703C176.083 51.1267 176.116 50.5464 176.132 49.9778C176.142 49.6049 175.848 49.2938 175.474 49.2834C175.102 49.2743 174.791 49.5676 174.78 49.9407C174.765 50.4828 174.734 51.0365 174.686 51.5865C174.654 51.9584 174.93 52.2861 175.301 52.318C175.533 52.3379 175.748 52.2384 175.885 52.0699Z" fill="#0A5840"/>
</g>
<path d="M167.731 42.1173C167.702 41.9744 167.584 41.866 167.44 41.8476L163.308 41.32C162.488 39.5561 161.381 37.9103 160.001 36.4598L161.024 32.4248C161.06 32.2833 161.002 32.1347 160.88 32.0545L156.702 29.3152C156.58 29.235 156.42 29.2413 156.305 29.3306L153.012 31.8776C151.132 31.1907 149.181 30.8316 147.236 30.783L145.105 27.2043C145.03 27.0788 144.884 27.0146 144.741 27.0443L139.85 28.0616C139.707 28.0914 139.599 28.2086 139.58 28.3534L139.053 32.485C137.289 33.305 135.643 34.4121 134.192 35.7919L130.157 34.769C130.016 34.7332 129.867 34.791 129.787 34.913L127.048 39.0914C126.968 39.2135 126.974 39.373 127.063 39.4884L129.61 42.7809C128.923 44.6612 128.564 46.612 128.516 48.5567L124.937 50.6878C124.811 50.7625 124.747 50.9086 124.777 51.0516L125.794 55.9432C125.824 56.086 125.941 56.1943 126.086 56.2129L130.218 56.7405C131.038 58.5044 132.145 60.1503 133.524 61.6008L132.502 65.6358C132.466 65.7773 132.524 65.9259 132.646 66.0061L136.824 68.7456C136.946 68.8256 137.105 68.8194 137.221 68.7301L140.513 66.1832C142.394 66.8701 144.345 67.2292 146.289 67.2778L148.42 70.8565C148.495 70.9819 148.641 71.0462 148.784 71.0164L153.675 69.9991C153.818 69.9693 153.927 69.8522 153.945 69.7074L154.473 65.5756C156.237 64.7558 157.883 63.6485 159.333 62.2689L163.368 63.2917C163.51 63.3276 163.658 63.2698 163.738 63.1476L166.478 58.9694C166.558 58.8473 166.552 58.6878 166.462 58.5723L163.915 55.2798C164.602 53.3995 164.961 51.4486 165.01 49.5041L168.589 47.3728C168.714 47.2981 168.778 47.152 168.748 47.0091L167.731 42.1173Z" fill="#0A5840"/>
<path d="M150.221 52.7936C149.216 53.7182 147.911 54.1954 146.546 54.1374C145.182 54.08 143.922 53.4946 142.998 52.4889C141.091 50.4135 141.228 47.1788 143.303 45.2652C145.379 43.3582 148.619 43.4953 150.526 45.5705C151.45 46.5759 151.927 47.881 151.87 49.2453C151.823 50.3543 151.427 51.3947 150.74 52.2415C150.583 52.4361 150.409 52.6208 150.221 52.7936ZM143.993 51.5741C144.673 52.3139 145.6 52.7446 146.603 52.7872C147.607 52.8294 148.567 52.4783 149.307 51.7988C150.045 51.1182 150.477 50.1921 150.519 49.1882C150.562 48.1849 150.21 47.2247 149.531 46.4854C148.128 44.9587 145.745 44.8579 144.217 46.2606C144.08 46.3873 143.954 46.5217 143.839 46.663C142.685 48.0868 142.717 50.1854 143.993 51.5741Z" fill="#0A5840" fill-opacity="0.2"/>
<path d="M156.541 57.0685C156.811 56.7363 157.065 56.3878 157.305 56.023C157.78 55.2983 158.182 54.5245 158.501 53.721C158.515 53.6848 158.529 53.6486 158.543 53.6124C158.651 53.3322 158.56 53.0243 158.339 52.8445C158.285 52.8009 158.223 52.7648 158.155 52.7386C157.807 52.6042 157.417 52.7792 157.282 53.1262C156.992 53.8792 156.619 54.6042 156.174 55.2813L156.174 55.2816C156.15 55.3189 156.125 55.3558 156.1 55.3926C155.034 56.9856 153.611 58.2525 151.956 59.1193C151.058 59.5896 150.091 59.9418 149.075 60.1627C149.067 60.1645 149.059 60.1662 149.051 60.1681C149.025 60.1733 149 60.179 148.975 60.184C145.999 60.8027 142.96 60.226 140.418 58.5592C140.089 58.3437 139.773 58.1132 139.472 57.8688C137.444 56.2242 136.055 53.9508 135.516 51.3597C134.897 48.3836 135.474 45.345 137.141 42.8033C138.807 40.2636 141.364 38.5205 144.34 37.901C147.316 37.2823 150.355 37.859 152.897 39.5257C153.221 39.7376 153.532 39.9656 153.831 40.2074C155.124 41.2569 156.174 42.5771 156.9 44.078C156.944 44.1704 157.007 44.248 157.082 44.3085C157.279 44.4682 157.559 44.51 157.802 44.3921C158.138 44.2287 158.279 43.8257 158.116 43.489C157.304 41.8098 156.13 40.3321 154.683 39.1582C154.349 38.8871 154 38.6324 153.639 38.3952C150.794 36.5305 147.394 35.885 144.065 36.5776C140.736 37.2703 137.874 39.2149 136.011 42.0616C134.146 44.9055 133.5 48.305 134.193 51.6349C134.796 54.5336 136.35 57.0768 138.619 58.9168C138.956 59.1898 139.309 59.4481 139.677 59.6893C145.183 63.2992 152.481 62.0768 156.541 57.0685Z" fill="#0A5840" fill-opacity="0.2"/>
<path d="M88.4871 376.312C88.4871 376.312 87.7261 380.393 87.3335 384.436C87.18 386.016 88.386 387.401 89.9715 387.482C95.3578 387.758 106.88 388.304 111.018 388.159C111.64 388.137 112.052 387.505 111.828 386.924C111.639 386.438 111.271 386.043 110.799 385.82L91.8437 376.888L88.4871 376.312Z" fill="url(#paint6_linear_4224_12732)"/>
<path d="M87.9219 373.905L88.4553 378.799C88.4553 378.799 91.7756 380.384 94.07 378.657L92.7409 373.195L87.9219 373.905Z" fill="url(#paint7_linear_4224_12732)"/>
<path d="M89.2336 281.989C88.971 283.264 87.2808 345.692 93.688 373.737C93.7925 374.195 93.5566 374.663 93.1205 374.837C92.0928 375.245 90.0802 375.832 87.6743 375.89C86.9293 375.908 86.2661 375.417 86.0627 374.7C84.2168 368.19 75.3851 335.576 74.489 304.492C73.4876 269.759 74.5004 303.31 74.5004 303.31L75.4866 281.855L89.2336 281.989Z" fill="url(#paint8_linear_4224_12732)"/>
<path d="M66.5636 378.236C66.5636 378.236 65.3945 380.289 64.2296 385.762C64.0192 386.75 64.702 387.704 65.7067 387.813C67.4844 388.005 70.2213 388.256 72.4157 388.262C73.4271 388.265 74.2248 387.391 74.1127 386.386C73.8887 384.382 73.1629 381.091 70.8483 378.509L66.5636 378.236Z" fill="url(#paint9_linear_4224_12732)"/>
<path d="M65.6172 371.938L66.902 379.345C66.902 379.345 68.2328 380.354 70.891 379.657L70.3197 371.695L65.6172 371.938Z" fill="url(#paint10_linear_4224_12732)"/>
<path d="M62.7945 283.652C57.0216 316.543 63.2018 365.086 65.3517 374.596C65.4834 375.178 65.9479 375.627 66.5358 375.731C67.5342 375.906 69.1794 376.057 70.807 375.601C71.3678 375.444 71.7655 374.943 71.7938 374.361C72.1675 366.693 72.0759 319.594 77.3397 301.031C77.6064 300.09 78.1902 299.273 78.9926 298.714L88.9315 291.79L89.7967 280.453L62.7945 283.652Z" fill="url(#paint11_linear_4224_12732)"/>
<path d="M98.1762 221.562C81.8202 221.136 63.7268 225.529 63.7268 225.529C58.5791 253.935 62.2896 286.791 62.2896 286.791C74.9224 290.233 89.2596 285.017 89.2596 285.017C91.4781 273.145 101.618 239.77 101.618 239.77C109.621 238.854 116.227 236.611 121.678 233.614C117.588 228.78 115.696 222.661 114.884 219.047C109.083 220.789 103.221 221.693 98.1762 221.562Z" fill="url(#paint12_linear_4224_12732)"/>
<path d="M146.726 197.928C145.137 195.971 143.094 196.87 143.094 196.87C140.59 207.016 127.889 215.141 114.883 219.047C115.695 222.661 117.587 228.78 121.677 233.614C143.314 221.719 146.726 197.928 146.726 197.928Z" fill="url(#paint13_linear_4224_12732)"/>
<path d="M146.332 198.418C146.495 198.954 144.54 199.749 143.414 197.552C143.384 196.504 142.79 192.009 143.424 191.161C146.802 186.647 153.322 181.01 153.322 181.01C154.404 182.098 153.494 183.149 153.494 183.149L150.326 186.386C150.971 187.578 151.762 188.586 152.123 190.024C152.397 191.112 152.212 192.271 151.654 193.254C151.094 194.241 150.331 195.523 149.611 196.525C148.249 198.422 146.332 198.418 146.332 198.418Z" fill="url(#paint14_linear_4224_12732)"/>
<path d="M148.934 188.492L146.053 190.888L145.133 193.292L147.654 196.143C147.654 196.143 148.556 191.365 149.203 190.335C149.85 189.305 149.524 188.801 148.934 188.492Z" fill="url(#paint15_linear_4224_12732)"/>
<path d="M69.8478 241.429L63.7245 225.529C63.7245 225.529 48.3454 235.765 45.707 248.905C48.5921 249.145 53.8386 249.946 58.9563 252.592C60.1455 246.387 69.8478 241.429 69.8478 241.429Z" fill="url(#paint16_linear_4224_12732)"/>
<path d="M83.0592 256.461C83.0592 256.461 65.8112 265.993 60.1017 257.659C58.9164 255.928 58.6452 254.217 58.9569 252.591C53.8393 249.946 48.5929 249.145 45.7077 248.904C44.9123 252.865 45.2725 257.09 47.5636 261.378C57.5262 280.023 85.2893 260.712 85.2893 260.712L83.0592 256.461Z" fill="url(#paint17_linear_4224_12732)"/>
<path d="M81.7323 208.123L76.3836 223.126C76.295 223.375 76.3948 223.652 76.6247 223.782C78.036 224.58 83.1261 226.896 89.3236 223.049C89.9693 222.648 90.4124 221.989 90.5171 221.236L92.3269 208.224L81.7323 208.123Z" fill="url(#paint18_linear_4224_12732)"/>
<path d="M93.1882 194.293C93.1882 194.293 98.8013 205.107 98.0272 209.446C97.2532 213.785 90.1723 213.405 84.0203 209.817L79.8086 198.158L93.1882 194.293Z" fill="url(#paint19_linear_4224_12732)"/>
<path d="M84.3506 204.113C84.6031 204.004 84.6987 203.697 84.5504 203.466C84.099 202.762 83.2544 201.326 82.9923 200.074C82.9923 200.074 81.9711 199.406 85.6221 198.569C89.2733 197.732 94.7184 196.431 95.8898 193.341C97.0318 190.328 94.1795 182.698 89.4551 188.711C89.2754 188.94 88.9276 188.942 88.7523 188.709C87.997 187.706 86.0053 185.62 83.2011 186.847C80.5769 187.994 80.2643 189.906 80.291 190.872C80.2989 191.156 80.0428 191.374 79.7643 191.318C78.4456 191.053 75.2772 190.807 73.7663 194.045C72.5219 196.712 73.2998 198.236 74.0141 198.985C74.2455 199.227 74.1393 199.622 73.8178 199.717C72.947 199.974 71.8188 200.7 71.9116 202.735C72.04 205.549 75.1866 205.331 76.083 205.211C76.2299 205.192 76.3772 205.244 76.4754 205.355C77.2349 206.211 80.6588 209.851 84.3977 210.321C84.7214 210.362 84.9758 210.045 84.8726 209.735L83.2976 205.011C83.2244 204.791 83.3314 204.553 83.5436 204.461L84.3506 204.113Z" fill="url(#paint20_linear_4224_12732)"/>
<path d="M84.9943 204.787C84.9943 204.787 80.9513 201.956 80.6316 204.305C80.3119 206.653 84.2637 207.746 86.2347 206.888L84.9943 204.787Z" fill="url(#paint21_linear_4224_12732)"/>
<path d="M79.5338 271.526L88.9294 238.715C89.0361 238.342 89.3538 238.07 89.7386 238.026C91.4409 237.827 96.3737 237.269 102.069 236.788C108.929 236.207 116.896 235.737 121.657 236.137C122.333 236.194 122.742 236.91 122.441 237.519C119.734 242.996 108.599 265.275 103.022 272.573C102.837 272.815 102.552 272.957 102.247 272.954L80.4478 272.751C79.8134 272.745 79.3591 272.136 79.5338 271.526Z" fill="url(#paint22_linear_4224_12732)"/>
<path d="M81.8048 263.599C81.8048 263.599 80.4959 258.218 81.0239 256.308C81.552 254.399 82.5748 251.944 85.9844 252.489C89.3941 253.035 93.416 254.471 93.416 254.471C93.416 254.471 93.2129 256.958 90.6215 256.156L92.2285 257.399C92.2285 257.399 91.9988 259.391 89.8099 258.327L91.3045 259.976C91.3045 259.976 90.3644 261.611 88.754 260.562C87.1436 259.513 86.3717 264.248 81.8048 263.599Z" fill="url(#paint23_linear_4224_12732)"/>
<path d="M101.441 246.582C101.441 248.106 102.676 249.34 104.199 249.34C105.723 249.34 106.958 248.106 106.958 246.582C106.958 245.059 105.723 243.824 104.199 243.824C102.676 243.824 101.441 245.059 101.441 246.582Z" fill="#0A5840"/>
<path d="M89.9927 248.4L91.9056 241.911C92.1403 241.114 92.781 240.516 93.5775 240.349C99.5733 239.099 115.984 238.833 116.149 238.831L116.138 238.098C115.461 238.108 99.4917 238.367 93.4277 239.632C92.3665 239.853 91.5137 240.647 91.202 241.704L89.2891 248.193L89.9927 248.4Z" fill="#0A5840" fill-opacity="0.2"/>
<path d="M334.184 199.602C334.445 199.104 335.182 199.182 335.332 199.724C335.89 201.73 337.238 205.23 340.068 206.472C340.211 206.535 340.346 206.598 340.476 206.662C340.604 206.277 340.606 205.83 340.299 205.36C339.419 204.016 341.007 202.18 341.007 202.18C341.007 202.18 341.112 203.797 342.342 204.815C343.401 205.692 343.909 207.644 343.185 209.245C341.654 215.194 339.36 223.062 348.294 228.81C357.227 234.558 369.808 217.962 369.808 217.962L363.564 237.757C363.564 237.757 353.926 244.87 342.716 234.869C331.505 224.868 338.936 210.315 338.936 210.315C338.936 210.315 330.385 206.866 334.184 199.602Z" fill="url(#paint24_linear_4224_12732)"/>
<path d="M371.372 188.878C371.372 188.878 368.784 177.269 382.082 180.342C382.082 180.342 388.538 179.287 388.866 185.38C388.866 185.38 393.027 188.122 389.98 193.395C389.98 193.395 402.347 188.618 407.735 199.457C413.122 210.296 408.17 216.261 402.978 217.814C402.978 217.814 407.184 219.926 405.193 224.695C403.202 229.464 393.119 232.826 387.163 227.026C387.163 227.026 370.214 229.266 370.553 217.294C370.553 217.294 362.67 212.204 370.95 202.31C379.229 192.416 371.372 188.878 371.372 188.878Z" fill="url(#paint25_linear_4224_12732)"/>
<path d="M370.646 215.788C373.318 214.987 381.099 213.508 388.5 220.338C389.755 221.496 390.268 223.256 389.82 224.904C387.832 232.223 382.587 253.844 387.186 263.199C387.186 263.199 379.082 272.133 370.241 264.933C370.241 264.933 366.274 247.644 361.079 240.054C357.491 234.815 366.798 220.378 369.153 216.89C369.51 216.362 370.035 215.971 370.646 215.788Z" fill="url(#paint26_linear_4224_12732)"/>
<path d="M378.021 201.248C378.021 201.248 381.973 212.427 382.27 217.359C382.27 217.359 377.902 219.345 373.786 215.992C373.786 215.992 373.354 204.827 372.73 202.827L378.021 201.248Z" fill="url(#paint27_linear_4224_12732)"/>
<path d="M372.529 186.006C372.529 186.006 362.192 200.472 368.372 204.674C374.551 208.876 381.909 198.596 381.909 198.596C381.909 198.596 384.308 190.678 381.8 187.992C379.292 185.306 372.529 186.006 372.529 186.006Z" fill="url(#paint28_linear_4224_12732)"/>
<path d="M377.316 182.55C377.316 182.55 372.567 183.676 371.902 185.824C371.236 187.973 378.636 189.965 380.709 190.063L382.38 198.733C382.38 198.733 387.318 190.577 385.362 185.866C383.406 181.156 377.316 182.55 377.316 182.55Z" fill="url(#paint29_linear_4224_12732)"/>
<path d="M379.91 197.531C379.91 197.531 383.934 192.872 385.534 195.909C387.134 198.947 381.912 201.228 380.105 199.736L379.91 197.531Z" fill="url(#paint30_linear_4224_12732)"/>
<path d="M359.916 301.232C359.946 302.017 358.568 308.243 357.818 311.563C357.516 312.9 357.727 314.298 358.407 315.487L384.379 359.2C384.694 359.729 384.922 360.301 385.061 360.9C385.537 362.952 386.525 367.979 386.009 372.553L384.665 375.343L390.476 374.024L391.741 358.419L390.095 357.416C388.674 356.549 387.568 355.254 386.934 353.715C384.586 348.01 378.754 333.488 377.25 326.411C375.542 318.369 366.61 311.836 366.61 311.836L368.179 308.126L359.916 301.232Z" fill="url(#paint31_linear_4224_12732)"/>
<path d="M396.934 368.654C396.934 368.654 393.796 363.679 393.427 361.742C393.058 359.806 392.03 356.386 390.095 357.416C390.095 357.416 389.184 366.823 389.498 370.499C389.812 374.175 385.343 374.056 385.343 374.056C385.343 374.056 384.111 374.229 383.209 375.131C382.586 375.754 383.031 376.835 383.91 376.891C385.373 376.986 387.696 377.01 390.136 376.539C390.988 376.374 391.62 375.649 391.672 374.782L392.316 363.955L396.274 368.953L396.934 368.654Z" fill="url(#paint32_linear_4224_12732)"/>
<path d="M375.431 308.195C375.431 308.195 376.347 347.297 376.471 352.85C376.595 358.403 375.594 370.71 370.027 374.389L372.45 376.182C372.45 376.182 375.477 373.609 378.435 368.657C381.757 363.094 382.762 362.078 382.762 362.078L381.659 359.82C381.177 358.831 381.035 357.713 381.257 356.636C382.458 350.813 386.472 331.446 387.567 327.275C388.859 322.352 388.951 315.778 384.455 310.274C379.959 304.771 375.431 308.195 375.431 308.195Z" fill="url(#paint33_linear_4224_12732)"/>
<path d="M380.575 377.945C380.748 377.947 380.894 377.823 380.919 377.652C381.104 376.349 381.875 371.122 382.506 369.769C383.229 368.219 385.591 361.697 382.505 361.143C382.505 361.143 374.834 372.35 373.361 373.862C371.889 375.373 370.03 374.389 370.03 374.389C370.03 374.389 368.595 374.813 367.514 376.196C366.999 376.854 367.478 377.82 368.314 377.828L373.481 377.877C374.981 377.892 376.331 376.98 376.889 375.587C377.799 373.315 379.361 369.983 381.182 368.505L380.236 377.565C380.215 377.767 380.372 377.943 380.575 377.945Z" fill="url(#paint34_linear_4224_12732)"/>
<path d="M369.018 260.718C369.018 260.718 370.182 264.429 368.393 270.542L357.297 309.292C357.122 309.901 357.451 310.538 358.047 310.752C361.366 311.943 372.278 315.311 387.173 314.284C387.923 314.232 388.551 313.701 388.714 312.967C389.696 308.55 393.045 293.477 393.734 290.38C396.361 278.579 399.295 265.853 386.39 258.158C380.443 260.705 374.896 262.207 369.018 260.718Z" fill="url(#paint35_linear_4224_12732)"/>
<path d="M389.554 221.797C389.554 221.797 402.179 232.29 405.312 246.628C408.446 260.965 386.863 262.489 386.863 262.489C386.863 262.489 383.933 259.217 380.455 260.384C376.977 261.551 380.186 254.674 384.255 254.692C388.325 254.71 386.44 257.928 392.197 255.32C397.805 252.78 401.272 244.923 386.963 233.014C386.133 232.323 385.471 231.443 385.073 230.44C382.293 223.442 384.498 218.855 389.554 221.797Z" fill="url(#paint36_linear_4224_12732)"/>
<path d="M310.546 328.924H306.043V377.626H310.546V328.924Z" fill="#0A5840"/>
<path d="M328.022 378.564H288.578V375.958C288.578 375.779 288.724 375.633 288.904 375.633H327.696C327.876 375.633 328.022 375.779 328.022 375.958V378.564Z" fill="#0A5840"/>
<path d="M335.479 327.127C335.479 329.958 333.163 332.274 330.332 332.274H287.92C285.09 332.274 282.773 329.958 282.773 327.127V322.473C282.773 319.642 285.09 317.326 287.92 317.326H330.332C333.163 317.326 335.479 319.642 335.479 322.473V327.127Z" fill="#0A5840"/>
<path d="M268.381 362.835C268.381 362.835 253.822 369.106 254.656 375.669C254.656 375.669 269.705 372.782 272.399 368.481C275.092 364.179 273.608 361.688 273.608 361.688L268.381 362.835Z" fill="url(#paint37_linear_4224_12732)"/>
<path d="M271.946 355.668L272.685 362.058C272.796 363.022 272.261 363.973 271.347 364.302C270.89 364.467 270.29 364.58 269.503 364.584C268.392 364.59 267.408 363.859 267.112 362.789L265.68 357.621L271.946 355.668Z" fill="url(#paint38_linear_4224_12732)"/>
<path d="M303.75 306.668C303.75 306.668 276.971 305.429 263.646 313.2C250.322 320.97 264.322 358.266 264.322 358.266C264.322 358.266 267.803 359.014 272.815 356.335C272.815 356.335 265.662 329.034 278.086 324.284C292.054 318.944 306.502 320.243 306.502 320.243L303.825 307.511L303.75 306.668Z" fill="url(#paint39_linear_4224_12732)"/>
<path d="M257.579 372.788C260.623 372.121 269.653 368.38 271.024 368.43C272.396 368.48 274.339 370.535 274.339 370.535C274.339 370.535 274.673 371.658 273.693 373.271C271.366 375.085 266.354 378.416 260.528 378.781C256.241 379.049 253.663 377.344 252.188 375.689C253.479 374.432 255.551 373.233 257.579 372.788Z" fill="url(#paint40_linear_4224_12732)"/>
<path d="M260.53 378.781C266.356 378.416 271.368 375.086 273.695 373.271C273.032 374.361 271.769 375.674 269.395 377.016C263.506 380.342 253.774 379.857 251.845 379.109C250.299 378.509 250.777 377.065 252.189 375.69C253.665 377.344 256.244 379.05 260.53 378.781Z" fill="url(#paint41_linear_4224_12732)"/>
<path d="M277.539 367.191C277.34 367.945 275.207 370.21 273.974 371.473C273.388 372.073 272.538 372.33 271.718 372.151C271.199 372.038 270.611 371.86 270.104 371.585C269.342 371.171 269.076 370.203 269.494 369.443L272.613 363.771L277.539 367.191Z" fill="url(#paint42_linear_4224_12732)"/>
<path d="M330.29 304.422C330.29 304.422 332.628 321.004 325.869 324.394C319.111 327.783 304.287 330.002 299.182 338.603C294.076 347.203 284.906 364.084 276.561 368.935C276.561 368.935 271.795 367.385 270.402 365.041C270.402 365.041 280.308 339.002 284.44 332.673C288.018 327.192 293.251 319.295 300.686 315.88C302.814 314.902 302.98 312.645 302.606 310.333L301.924 306.123L330.29 304.422Z" fill="url(#paint43_linear_4224_12732)"/>
<path d="M267.649 285.624C277.124 288.328 281.365 261.662 281.327 261.014L295.854 277.999C295.854 277.999 287.198 293.23 274.128 294.852C270.821 295.262 268.008 294.69 265.648 293.609C267.387 290.762 267.784 287.95 267.649 285.624Z" fill="url(#paint44_linear_4224_12732)"/>
<path d="M250.103 276.896C254.233 275.199 257.736 278.585 257.736 278.585C261.828 282.774 265.073 284.888 267.649 285.624C267.784 287.95 267.387 290.762 265.649 293.609C260.544 291.27 257.568 286.542 256.342 284.183C255.9 283.333 254.866 282.973 254.004 283.39C253.129 283.813 252.227 284.459 252.17 285.336C252.059 287.066 250 287.168 249.988 286.529C249.976 285.89 251.582 282.474 251.582 282.474C251.582 282.474 246.837 285.518 244.99 286.682C243.143 287.846 241.57 285.925 241.57 285.925C241.57 285.925 245.974 278.593 250.103 276.896Z" fill="url(#paint45_linear_4224_12732)"/>
<path d="M326.638 250.042C326.638 250.042 313.905 241.355 283.153 257.066C283.153 257.066 279.986 261.08 281.47 265.606C282.953 270.132 301.212 294.625 301.921 306.123C301.921 306.123 314.403 313.471 330.605 306.187C330.605 306.187 336.039 275.824 326.638 250.042Z" fill="url(#paint46_linear_4224_12732)"/>
<path d="M300.122 238.936L305.154 248.796C305.653 249.775 305.549 250.959 304.863 251.818C303.478 253.555 300.585 255.888 295.648 254.384C294.18 253.937 293.056 252.742 292.702 251.248L290.094 240.242L300.122 238.936Z" fill="url(#paint47_linear_4224_12732)"/>
<path d="M336.07 284.471C336.932 278.478 321.094 266.861 321.094 266.861L326.641 250.041C326.641 250.041 356.864 271.609 350.508 289.222C349.596 291.747 348.238 293.587 346.581 294.89C343.38 288.327 339.04 285.599 336.07 284.471Z" fill="url(#paint48_linear_4224_12732)"/>
<path d="M313.971 286.136C313.971 286.136 331.887 291.14 335.604 285.686C335.856 285.316 336.004 284.909 336.067 284.473C339.036 285.6 343.377 288.328 346.577 294.892C338.071 301.584 321.669 294.082 317.213 291.834C316.48 291.464 315.637 291.392 314.853 291.636C313.268 292.131 310.521 292.899 308.991 292.815C306.752 292.692 304.349 300.782 300.539 298.734C300.539 298.734 302.271 284.911 313.971 286.136Z" fill="url(#paint49_linear_4224_12732)"/>
<path d="M293.674 222.822C293.514 222.96 286.877 234.553 283.498 240.462C282.467 242.266 283.239 244.563 285.149 245.382L286.613 246.009C288.613 246.866 292.914 247.584 294.606 246.217L305.276 234.954C305.276 234.954 297.263 219.716 293.674 222.822Z" fill="url(#paint50_linear_4224_12732)"/>
<path d="M308.285 231.881C309.593 231.146 311.167 229.657 309.942 227.024C308.697 224.348 306.236 224.116 304.651 224.286C304.01 224.355 303.43 223.948 303.244 223.331C303.138 222.979 302.878 222.669 302.316 222.58C301.559 222.46 301.089 221.687 301.286 220.947C301.666 219.524 301.601 217.591 299.313 216.205C295.252 213.747 291.455 217.318 290.398 220.423C289.341 223.527 293.896 225.943 296.803 226.436C299.014 226.81 300.093 229.361 300.484 230.562C300.607 230.942 300.548 231.357 300.328 231.691L297.084 236.62C297.976 237.743 298.767 238.929 299.546 240.129C299.838 239.814 300.093 239.553 300.293 239.37C301.702 238.079 304.207 238.745 305.239 239.1C305.578 239.216 305.946 239.189 306.263 239.025C307.387 238.444 309.655 236.813 307.796 233.728C307.407 233.082 307.628 232.251 308.285 231.881Z" fill="url(#paint51_linear_4224_12732)"/>
<path d="M298.367 242.235C298.367 242.235 300.441 236.904 302.799 237.201C305.156 237.499 306.92 239.933 303.877 242.46C300.093 245.604 298.367 242.235 298.367 242.235Z" fill="url(#paint52_linear_4224_12732)"/>
<path d="M291.093 297.542C291.061 297.544 291.029 297.545 290.997 297.545L249.141 297.499C248.106 297.498 247.268 296.658 247.27 295.624C247.271 294.589 248.113 293.734 249.145 293.752L291.001 293.798C292.036 293.799 292.874 294.638 292.872 295.673C292.871 296.675 292.083 297.493 291.093 297.542Z" fill="url(#paint53_linear_4224_12732)"/>
<path d="M211.513 259.539H246.371C248.942 259.539 251.283 261.023 252.38 263.349L268.494 297.519H225.176C223.518 297.519 222.03 296.507 221.42 294.966L208.924 263.346C208.202 261.519 209.549 259.539 211.513 259.539Z" fill="url(#paint54_linear_4224_12732)"/>
<path d="M236.069 277.06C236.824 279.406 236.266 281.686 234.822 282.15C233.379 282.615 231.596 281.089 230.841 278.742C230.085 276.396 230.643 274.116 232.087 273.652C233.531 273.187 235.314 274.713 236.069 277.06Z" fill="#0A5840"/>
<path d="M217.169 387.315C216.937 387.315 216.701 387.27 216.474 387.176C215.582 386.804 215.17 385.803 215.554 384.939L252.442 301.919C252.826 301.055 253.86 300.656 254.753 301.027C255.645 301.399 256.057 302.401 255.673 303.265L218.785 386.285C218.499 386.929 217.85 387.315 217.169 387.315Z" fill="#0A5840"/>
<path d="M258.723 387.316C258.041 387.316 257.393 386.93 257.106 386.285L220.218 303.265C219.834 302.401 220.246 301.399 221.139 301.028C222.03 300.656 223.065 301.055 223.449 301.919L260.338 384.939C260.721 385.803 260.309 386.805 259.417 387.176C259.191 387.271 258.955 387.316 258.723 387.316Z" fill="#0A5840"/>
<path d="M331.356 387.315C331.124 387.315 330.889 387.27 330.662 387.176C329.77 386.804 329.357 385.803 329.741 384.939L366.63 301.919C367.013 301.055 368.047 300.656 368.94 301.027C369.833 301.399 370.245 302.401 369.861 303.265L332.973 386.285C332.686 386.929 332.038 387.315 331.356 387.315Z" fill="#0A5840"/>
<path d="M372.91 387.316C372.229 387.316 371.58 386.93 371.294 386.285L334.405 303.265C334.021 302.401 334.434 301.399 335.326 301.028C336.218 300.656 337.253 301.055 337.637 301.919L374.525 384.939C374.909 385.803 374.497 386.805 373.604 387.176C373.378 387.271 373.142 387.316 372.91 387.316Z" fill="#0A5840"/>
<path d="M377.233 299.356C377.327 298.811 377.199 298.248 376.884 297.82C376.569 297.392 376.099 297.145 375.604 297.145H207.789C207.137 297.145 206.531 297.516 206.18 298.131C205.829 298.745 205.782 299.518 206.055 300.18L207.874 304.586C208.29 305.595 209.192 306.241 210.185 306.241H374.452C375.376 306.241 376.17 305.508 376.345 304.493L377.233 299.356Z" fill="#0A5840"/>
<defs>
<linearGradient id="paint0_linear_4224_12732" x1="453.85" y1="494.937" x2="127.318" y2="89.4046" gradientUnits="userSpaceOnUse">
<stop stop-color="#0A5840" stop-opacity="0.6"/>
<stop offset="1" stop-color="#0A5840" stop-opacity="0.2"/>
</linearGradient>
<linearGradient id="paint1_linear_4224_12732" x1="305.151" y1="60.3928" x2="33.3824" y2="421.209" gradientUnits="userSpaceOnUse">
<stop stop-color="#053526"/>
<stop offset="1" stop-color="#0A5840"/>
</linearGradient>
<linearGradient id="paint2_linear_4224_12732" x1="305.149" y1="60.3929" x2="33.3812" y2="421.209" gradientUnits="userSpaceOnUse">
<stop stop-color="#053526"/>
<stop offset="1" stop-color="#0A5840"/>
</linearGradient>
<linearGradient id="paint3_linear_4224_12732" x1="224.645" y1="5.73716" x2="209.517" y2="124.982" gradientUnits="userSpaceOnUse">
<stop stop-color="#FF928E"/>
<stop offset="1" stop-color="#FE7062"/>
</linearGradient>
<linearGradient id="paint4_linear_4224_12732" x1="167.889" y1="191.348" x2="289.5" y2="117.781" gradientUnits="userSpaceOnUse">
<stop stop-color="#053526"/>
<stop offset="1" stop-color="#0A5840"/>
</linearGradient>
<linearGradient id="paint5_linear_4224_12732" x1="208.887" y1="191.318" x2="294.97" y2="119.916" gradientUnits="userSpaceOnUse">
<stop stop-color="#053526"/>
<stop offset="1" stop-color="#0A5840"/>
</linearGradient>
<linearGradient id="paint6_linear_4224_12732" x1="110.579" y1="370.874" x2="40.1405" y2="446.045" gradientUnits="userSpaceOnUse">
<stop stop-color="#053526"/>
<stop offset="1" stop-color="#0A5840"/>
</linearGradient>
<linearGradient id="paint7_linear_4224_12732" x1="87.8993" y1="376.29" x2="94.0919" y2="376.348" gradientUnits="userSpaceOnUse">
<stop stop-color="#FEBBBA"/>
<stop offset="1" stop-color="#FF928E"/>
</linearGradient>
<linearGradient id="paint8_linear_4224_12732" x1="116.889" y1="285.161" x2="56.7979" y2="365.008" gradientUnits="userSpaceOnUse">
<stop stop-color="#053526"/>
<stop offset="1" stop-color="#0A5840"/>
</linearGradient>
<linearGradient id="paint9_linear_4224_12732" x1="95.0735" y1="356.344" x2="24.6323" y2="431.518" gradientUnits="userSpaceOnUse">
<stop stop-color="#053526"/>
<stop offset="1" stop-color="#0A5840"/>
</linearGradient>
<linearGradient id="paint10_linear_4224_12732" x1="65.5809" y1="375.76" x2="70.9276" y2="375.811" gradientUnits="userSpaceOnUse">
<stop stop-color="#FEBBBA"/>
<stop offset="1" stop-color="#FF928E"/>
</linearGradient>
<linearGradient id="paint11_linear_4224_12732" x1="106.386" y1="277.258" x2="46.2953" y2="357.104" gradientUnits="userSpaceOnUse">
<stop stop-color="#053526"/>
<stop offset="1" stop-color="#0A5840"/>
</linearGradient>
<linearGradient id="paint12_linear_4224_12732" x1="-1780.77" y1="-1129.36" x2="-1717.59" y2="-1082.64" gradientUnits="userSpaceOnUse">
<stop stop-color="#FF928E"/>
<stop offset="1" stop-color="#FE7062"/>
</linearGradient>
<linearGradient id="paint13_linear_4224_12732" x1="114.921" y1="214.968" x2="146.561" y2="215.268" gradientUnits="userSpaceOnUse">
<stop stop-color="#FEBBBA"/>
<stop offset="1" stop-color="#FF928E"/>
</linearGradient>
<linearGradient id="paint14_linear_4224_12732" x1="139.565" y1="209.899" x2="117.875" y2="258.001" gradientUnits="userSpaceOnUse">
<stop stop-color="#FEBBBA"/>
<stop offset="1" stop-color="#FF928E"/>
</linearGradient>
<linearGradient id="paint15_linear_4224_12732" x1="146.613" y1="193.877" x2="155.602" y2="180.341" gradientUnits="userSpaceOnUse">
<stop stop-color="#FEBBBA"/>
<stop offset="1" stop-color="#FF928E"/>
</linearGradient>
<linearGradient id="paint16_linear_4224_12732" x1="-1785.24" y1="-1123.32" x2="-1722.06" y2="-1076.6" gradientUnits="userSpaceOnUse">
<stop stop-color="#FF928E"/>
<stop offset="1" stop-color="#FE7062"/>
</linearGradient>
<linearGradient id="paint17_linear_4224_12732" x1="45.2622" y1="259.122" x2="85.3007" y2="259.502" gradientUnits="userSpaceOnUse">
<stop stop-color="#FEBBBA"/>
<stop offset="1" stop-color="#FF928E"/>
</linearGradient>
<linearGradient id="paint18_linear_4224_12732" x1="74.6989" y1="237.012" x2="89.827" y2="207.646" gradientUnits="userSpaceOnUse">
<stop stop-color="#FEBBBA"/>
<stop offset="1" stop-color="#FF928E"/>
</linearGradient>
<linearGradient id="paint19_linear_4224_12732" x1="96.1041" y1="206.727" x2="78.7997" y2="195.946" gradientUnits="userSpaceOnUse">
<stop stop-color="#FEBBBA"/>
<stop offset="1" stop-color="#FF928E"/>
</linearGradient>
<linearGradient id="paint20_linear_4224_12732" x1="69.6955" y1="184.667" x2="92.0121" y2="202.64" gradientUnits="userSpaceOnUse">
<stop stop-color="#053526"/>
<stop offset="1" stop-color="#0A5840"/>
</linearGradient>
<linearGradient id="paint21_linear_4224_12732" x1="91.4963" y1="210.642" x2="75.9272" y2="200.942" gradientUnits="userSpaceOnUse">
<stop stop-color="#FEBBBA"/>
<stop offset="1" stop-color="#FF928E"/>
</linearGradient>
<linearGradient id="paint22_linear_4224_12732" x1="96.0364" y1="233.683" x2="118.13" y2="325.738" gradientUnits="userSpaceOnUse">
<stop stop-color="#053526"/>
<stop offset="1" stop-color="#0A5840"/>
</linearGradient>
<linearGradient id="paint23_linear_4224_12732" x1="80.8985" y1="258.036" x2="93.416" y2="258.036" gradientUnits="userSpaceOnUse">
<stop stop-color="#FEBBBA"/>
<stop offset="1" stop-color="#FF928E"/>
</linearGradient>
<linearGradient id="paint24_linear_4224_12732" x1="330.369" y1="185.666" x2="363.955" y2="239.492" gradientUnits="userSpaceOnUse">
<stop stop-color="#FEBBBA"/>
<stop offset="1" stop-color="#FF928E"/>
</linearGradient>
<linearGradient id="paint25_linear_4224_12732" x1="423.603" y1="180.712" x2="389.679" y2="203.331" gradientUnits="userSpaceOnUse">
<stop stop-color="#053526"/>
<stop offset="1" stop-color="#0A5840"/>
</linearGradient>
<linearGradient id="paint26_linear_4224_12732" x1="414.095" y1="184.509" x2="389.624" y2="222.329" gradientUnits="userSpaceOnUse">
<stop stop-color="#FF928E"/>
<stop offset="1" stop-color="#FE7062"/>
</linearGradient>
<linearGradient id="paint27_linear_4224_12732" x1="371.734" y1="222.9" x2="378.031" y2="208.916" gradientUnits="userSpaceOnUse">
<stop stop-color="#FEBBBA"/>
<stop offset="1" stop-color="#FF928E"/>
</linearGradient>
<linearGradient id="paint28_linear_4224_12732" x1="371.408" y1="188.916" x2="384.187" y2="216.582" gradientUnits="userSpaceOnUse">
<stop stop-color="#FEBBBA"/>
<stop offset="1" stop-color="#FF928E"/>
</linearGradient>
<linearGradient id="paint29_linear_4224_12732" x1="414.486" y1="167.039" x2="380.562" y2="189.658" gradientUnits="userSpaceOnUse">
<stop stop-color="#053526"/>
<stop offset="1" stop-color="#0A5840"/>
</linearGradient>
<linearGradient id="paint30_linear_4224_12732" x1="377.425" y1="186.139" x2="390.203" y2="213.804" gradientUnits="userSpaceOnUse">
<stop stop-color="#FEBBBA"/>
<stop offset="1" stop-color="#FF928E"/>
</linearGradient>
<linearGradient id="paint31_linear_4224_12732" x1="407.067" y1="397.047" x2="360.153" y2="312.37" gradientUnits="userSpaceOnUse">
<stop stop-color="#FEBBBA"/>
<stop offset="1" stop-color="#FF928E"/>
</linearGradient>
<linearGradient id="paint32_linear_4224_12732" x1="396.948" y1="367.17" x2="383.002" y2="367.038" gradientUnits="userSpaceOnUse">
<stop stop-color="#053526"/>
<stop offset="1" stop-color="#0A5840"/>
</linearGradient>
<linearGradient id="paint33_linear_4224_12732" x1="353.588" y1="334.226" x2="424.728" y2="357.722" gradientUnits="userSpaceOnUse">
<stop stop-color="#FEBBBA"/>
<stop offset="1" stop-color="#FF928E"/>
</linearGradient>
<linearGradient id="paint34_linear_4224_12732" x1="383.997" y1="369.567" x2="367.371" y2="369.409" gradientUnits="userSpaceOnUse">
<stop stop-color="#053526"/>
<stop offset="1" stop-color="#0A5840"/>
</linearGradient>
<linearGradient id="paint35_linear_4224_12732" x1="433.549" y1="245.166" x2="393.504" y2="275.868" gradientUnits="userSpaceOnUse">
<stop stop-color="#053526"/>
<stop offset="1" stop-color="#0A5840"/>
</linearGradient>
<linearGradient id="paint36_linear_4224_12732" x1="402.561" y1="266.406" x2="335.317" y2="166.706" gradientUnits="userSpaceOnUse">
<stop stop-color="#FEBBBA"/>
<stop offset="1" stop-color="#FF928E"/>
</linearGradient>
<linearGradient id="paint37_linear_4224_12732" x1="259.698" y1="351.345" x2="264.081" y2="368.327" gradientUnits="userSpaceOnUse">
<stop stop-color="#053526"/>
<stop offset="1" stop-color="#0A5840"/>
</linearGradient>
<linearGradient id="paint38_linear_4224_12732" x1="273.112" y1="360.686" x2="265.38" y2="358.975" gradientUnits="userSpaceOnUse">
<stop stop-color="#FEBBBA"/>
<stop offset="1" stop-color="#FF928E"/>
</linearGradient>
<linearGradient id="paint39_linear_4224_12732" x1="288.341" y1="342.595" x2="265.675" y2="289.268" gradientUnits="userSpaceOnUse">
<stop stop-color="#053526"/>
<stop offset="1" stop-color="#0A5840"/>
</linearGradient>
<linearGradient id="paint40_linear_4224_12732" x1="260.783" y1="367.775" x2="279.904" y2="408.92" gradientUnits="userSpaceOnUse">
<stop stop-color="#053526"/>
<stop offset="1" stop-color="#0A5840"/>
</linearGradient>
<linearGradient id="paint41_linear_4224_12732" x1="272.565" y1="378.377" x2="251.772" y2="373.775" gradientUnits="userSpaceOnUse">
<stop stop-color="#053526"/>
<stop offset="1" stop-color="#0A5840"/>
</linearGradient>
<linearGradient id="paint42_linear_4224_12732" x1="277.126" y1="369.059" x2="269.869" y2="367.453" gradientUnits="userSpaceOnUse">
<stop stop-color="#FEBBBA"/>
<stop offset="1" stop-color="#FF928E"/>
</linearGradient>
<linearGradient id="paint43_linear_4224_12732" x1="295.107" y1="368.166" x2="306.925" y2="306.187" gradientUnits="userSpaceOnUse">
<stop stop-color="#053526"/>
<stop offset="1" stop-color="#0A5840"/>
</linearGradient>
<linearGradient id="paint44_linear_4224_12732" x1="318.203" y1="248.428" x2="246.793" y2="303.821" gradientUnits="userSpaceOnUse">
<stop stop-color="#FF928E"/>
<stop offset="1" stop-color="#FE7062"/>
</linearGradient>
<linearGradient id="paint45_linear_4224_12732" x1="267.911" y1="286.893" x2="242.596" y2="281.29" gradientUnits="userSpaceOnUse">
<stop stop-color="#FEBBBA"/>
<stop offset="1" stop-color="#FF928E"/>
</linearGradient>
<linearGradient id="paint46_linear_4224_12732" x1="236.106" y1="325.339" x2="304.179" y2="283.294" gradientUnits="userSpaceOnUse">
<stop stop-color="#FF928E"/>
<stop offset="1" stop-color="#FE7062"/>
</linearGradient>
<linearGradient id="paint47_linear_4224_12732" x1="305.896" y1="248.452" x2="289.099" y2="244.735" gradientUnits="userSpaceOnUse">
<stop stop-color="#FEBBBA"/>
<stop offset="1" stop-color="#FF928E"/>
</linearGradient>
<linearGradient id="paint48_linear_4224_12732" x1="240.223" y1="331.999" x2="308.297" y2="289.954" gradientUnits="userSpaceOnUse">
<stop stop-color="#FF928E"/>
<stop offset="1" stop-color="#FE7062"/>
</linearGradient>
<linearGradient id="paint49_linear_4224_12732" x1="319.236" y1="290.437" x2="385.94" y2="383.843" gradientUnits="userSpaceOnUse">
<stop stop-color="#FEBBBA"/>
<stop offset="1" stop-color="#FF928E"/>
</linearGradient>
<linearGradient id="paint50_linear_4224_12732" x1="296.601" y1="226.925" x2="288.163" y2="266.508" gradientUnits="userSpaceOnUse">
<stop stop-color="#FEBBBA"/>
<stop offset="1" stop-color="#FF928E"/>
</linearGradient>
<linearGradient id="paint51_linear_4224_12732" x1="308.272" y1="237.492" x2="291.459" y2="218.069" gradientUnits="userSpaceOnUse">
<stop stop-color="#053526"/>
<stop offset="1" stop-color="#0A5840"/>
</linearGradient>
<linearGradient id="paint52_linear_4224_12732" x1="299.925" y1="264.655" x2="302.016" y2="240.03" gradientUnits="userSpaceOnUse">
<stop stop-color="#FEBBBA"/>
<stop offset="1" stop-color="#FF928E"/>
</linearGradient>
<linearGradient id="paint53_linear_4224_12732" x1="298.194" y1="286.421" x2="264.968" y2="297.319" gradientUnits="userSpaceOnUse">
<stop stop-color="#053526"/>
<stop offset="1" stop-color="#0A5840"/>
</linearGradient>
<linearGradient id="paint54_linear_4224_12732" x1="252.55" y1="264.635" x2="228.622" y2="289.926" gradientUnits="userSpaceOnUse">
<stop stop-color="#0A5840"/>
<stop offset="1" stop-color="#0A5840" stop-opacity="0.6"/>
</linearGradient>
</defs>
</svg>
