<svg width="429" height="332" viewBox="0 0 429 332" fill="none" xmlns="http://www.w3.org/2000/svg">
<path d="M211.881 331.901C326.816 331.901 419.989 323.855 419.989 313.929C419.989 304.003 326.816 295.957 211.881 295.957C96.9466 295.957 3.77344 304.003 3.77344 313.929C3.77344 323.855 96.9466 331.901 211.881 331.901Z" fill="url(#paint0_linear_4224_12974)"/>
<path d="M84.4685 306.343C60.1445 300.201 52.7395 272.829 46.4115 253.113C13.1225 156.422 115.656 44.3592 224.934 83.0822C250.316 93.0112 265.763 116.035 287.575 130.62C297.438 135.756 309.342 135.782 320.497 137.621C373.156 146.386 415.642 201.623 401.542 249.949C391.857 270.031 370.115 289.324 350.45 301.558C334.198 310.149 318.85 306.549 301.434 306.534C229.113 306.47 156.791 306.407 84.4685 306.343Z" fill="url(#paint1_linear_4224_12974)"/>
<path d="M354.42 156.565C351.428 163.188 348.73 167.517 345.345 173.102C343.527 175.817 341.51 178.831 339.042 182.517C337.74 184.314 336.318 186.275 334.745 188.446C333.961 189.535 333.138 190.677 332.274 191.877C331.396 193.067 330.419 194.27 329.425 195.562C325.491 200.766 320.643 206.457 315.57 212.037C312.962 214.758 310.4 217.556 307.779 220.159C305.112 222.72 302.513 225.215 300.061 227.569C294.953 232.054 290.492 236.052 287.078 238.647C283.726 241.319 281.705 242.929 281.705 242.929L279.484 240.005C279.484 240.005 280.518 239.204 282.342 237.789C283.254 237.082 284.364 236.222 285.641 235.231C286.28 234.736 286.96 234.208 287.678 233.652C288.037 233.373 288.406 233.088 288.783 232.795C289.148 232.486 289.522 232.17 289.903 231.847C291.429 230.553 293.087 229.148 294.847 227.655C295.727 226.909 296.633 226.141 297.561 225.354C298.473 224.549 299.373 223.689 300.309 222.831C302.172 221.108 304.106 219.319 306.081 217.491C308.008 215.614 309.921 213.639 311.878 211.681C312.852 210.699 313.83 209.713 314.807 208.727C315.742 207.701 316.676 206.674 317.608 205.652C319.462 203.6 321.338 201.592 323.11 199.573C324.833 197.511 326.519 195.493 328.142 193.55C328.948 192.574 329.76 191.634 330.514 190.685C331.251 189.722 331.97 188.783 332.669 187.87C334.064 186.043 335.377 184.324 336.584 182.744C336.885 182.348 337.18 181.962 337.468 181.584C337.74 181.195 338.005 180.815 338.263 180.445C338.778 179.704 339.266 179.004 339.723 178.347C341.55 175.718 342.882 173.782 343.539 172.792C346.079 168.772 348.769 164.513 350.827 161.258C352.806 157.955 354.176 155.67 354.176 155.67L354.42 156.565Z" fill="#FFB290"/>
<path d="M293.084 231.72C294.93 229.783 296.482 227.364 297.689 224.571C298.833 221.707 299.659 218.5 300.175 215.102C300.724 211.738 300.829 208.042 300.668 204.313C300.498 200.574 300.092 196.831 299.357 193.075C298.599 189.296 297.604 185.593 296.428 182.074C295.238 178.54 293.934 175.252 292.39 172.124C289.358 165.916 285.911 160.849 282.668 157.584C285.266 165.876 286.954 176.249 287.861 186.005C288.274 190.822 288.587 195.543 288.817 199.651C288.994 203.7 289.16 207.207 289.464 209.731C289.765 212.251 290.18 214.907 290.589 217.442C290.973 219.948 291.381 222.369 291.751 224.485C292.489 228.716 293.084 231.72 293.084 231.72Z" fill="url(#paint2_linear_4224_12974)"/>
<path d="M283.536 158.5C283.246 158.182 282.955 157.874 282.668 157.584C282.768 157.921 282.87 158.264 282.971 158.606C286.39 164.551 289.136 170.641 291.034 176.435C292.007 179.353 292.822 182.244 293.5 185.081C293.839 186.499 294.143 187.904 294.415 189.292C294.668 190.66 294.875 191.998 295.062 193.322C295.786 198.597 296.11 203.605 296.067 207.914C295.996 212.194 295.682 215.902 295.353 218.795C295.201 220.074 295.055 221.317 294.856 222.45C294.655 223.58 294.443 224.648 294.227 225.652C293.795 227.66 293.345 229.411 292.923 230.895C293.027 231.428 293.085 231.722 293.085 231.722L293.504 231.261C293.937 229.757 294.4 227.972 294.845 225.92C295.068 224.894 295.286 223.802 295.493 222.644C295.677 221.461 295.843 220.204 295.995 218.888C296.326 215.985 296.642 212.266 296.714 207.975C296.732 203.627 296.428 198.626 295.696 193.332C294.132 182.617 290.502 170.487 283.536 158.5Z" fill="#FFB290"/>
<path d="M299.305 227.46C301.435 225.836 303.989 224.523 306.944 223.52C308.417 223.013 309.993 222.587 311.635 222.206C313.245 221.792 314.937 221.441 316.699 221.145C320.21 220.542 324.053 220.206 327.969 219.951C331.855 219.67 335.91 219.559 340.008 219.588C342.05 219.597 344.131 219.665 346.153 219.723C348.168 219.774 350.178 219.859 352.165 219.978C356.138 220.215 360.02 220.583 363.661 221.085C365.482 221.336 367.242 221.621 368.922 221.941C370.585 222.247 372.162 222.585 373.648 222.965C376.617 223.724 379.201 224.64 381.244 225.732C376.111 226.549 370.499 227.443 364.782 228.354C361.912 228.812 359.052 229.291 356.191 229.717C353.313 230.093 350.457 230.467 347.672 230.831C344.908 231.173 342.236 231.482 339.705 231.744C337.144 231.98 334.685 232.133 332.438 232.256C327.933 232.493 324.189 232.525 321.551 232.308C316.189 231.793 310.587 230.599 306.381 229.516C304.275 228.975 302.509 228.464 301.27 228.088C300.038 227.718 299.305 227.46 299.305 227.46Z" fill="url(#paint3_linear_4224_12974)"/>
<path d="M380.1 225.17C380.496 225.353 380.882 225.539 381.244 225.733C380.831 225.797 380.41 225.862 379.991 225.927C372.706 225.012 365.442 224.451 358.705 224.271C355.315 224.165 352.092 224.186 348.897 224.18C345.702 224.174 342.637 224.228 339.724 224.324C336.808 224.419 334.051 224.564 331.449 224.723C328.8 224.839 326.321 224.984 324.031 225.145C321.741 225.306 319.638 225.482 317.74 225.66C316.792 225.755 315.895 225.844 315.049 225.928C314.187 226.001 313.378 226.07 312.625 226.134C307.279 226.609 303.129 227.195 300.11 227.729C299.591 227.556 299.305 227.461 299.305 227.461C299.474 227.343 299.646 227.223 299.817 227.103C302.87 226.559 307.106 225.958 312.584 225.473C314.109 225.355 315.799 225.167 317.7 224.987C319.602 224.808 321.71 224.632 324.006 224.471C326.298 224.306 328.797 224.173 331.432 224.038C334.033 223.87 336.803 223.729 339.725 223.632C342.646 223.534 345.72 223.478 348.925 223.482C352.099 223.46 355.355 223.455 358.749 223.553C365.524 223.738 372.779 224.263 380.1 225.17Z" fill="#FFB290"/>
<path d="M310.686 215.283C312.354 213.193 313.707 210.667 314.649 207.764C315.544 204.816 316.094 201.554 316.319 198.127C316.582 194.732 316.352 191.025 315.886 187.333C315.396 183.621 314.692 179.939 313.621 176.243C312.548 172.543 311.246 168.939 309.779 165.533C308.306 162.121 306.709 158.936 304.91 155.953C301.368 150.025 297.509 145.267 294.004 142.287C294.803 144.29 295.579 146.433 296.324 148.681C296.697 149.805 297.062 150.955 297.419 152.126C297.75 153.278 298.065 154.445 298.375 155.631C298.993 158 299.574 160.432 300.118 162.882C300.658 165.329 301.189 167.816 301.574 170.181C302.394 174.951 303.088 179.613 303.684 183.704C304.203 187.723 304.665 191.202 305.183 193.69C305.701 196.177 306.328 198.774 306.969 201.28C307.569 203.747 308.182 206.12 308.732 208.195C309.834 212.344 310.686 215.283 310.686 215.283Z" fill="url(#paint4_linear_4224_12974)"/>
<path d="M294.946 143.127C294.63 142.835 294.315 142.552 294.004 142.287C294.132 142.614 294.262 142.948 294.392 143.28C302.307 154.604 306.92 166.349 309.371 176.86C310.541 182.058 311.27 187.003 311.614 191.317C311.907 195.586 311.909 199.305 311.827 202.213C311.79 203.503 311.735 204.739 311.654 205.903C311.55 207.046 311.431 208.127 311.302 209.145C311.044 211.181 310.747 212.963 310.454 214.475C310.604 214.997 310.687 215.284 310.687 215.284C310.812 215.121 310.938 214.955 311.065 214.789C311.367 213.255 311.674 211.439 311.942 209.359C312.072 208.315 312.207 207.219 312.299 206.034C312.377 204.837 312.439 203.574 312.476 202.25C312.559 199.332 312.557 195.602 312.265 191.323C311.894 186.973 311.184 182.033 310.005 176.817C307.532 166.267 302.893 154.483 294.946 143.127Z" fill="#FFB290"/>
<path d="M316.516 210.513C318.479 208.696 320.927 207.187 323.781 205.935C325.2 205.302 326.75 204.758 328.333 204.222C329.902 203.675 331.559 203.183 333.289 202.74C336.732 201.841 340.548 201.196 344.407 200.598C348.256 199.993 352.288 199.545 356.373 199.232C360.491 198.944 364.531 198.696 368.509 198.599C372.489 198.504 376.388 198.547 380.058 198.744C383.747 198.954 387.142 199.274 390.157 199.777C393.18 200.285 395.832 200.981 397.96 201.898C392.918 203.141 387.405 204.5 381.788 205.884C378.986 206.575 376.159 207.272 373.354 207.963C370.518 208.577 367.705 209.186 364.962 209.779C362.237 210.35 359.601 210.879 357.102 211.351C354.593 211.816 352.14 212.161 349.918 212.476C345.451 213.088 341.723 213.434 339.077 213.439C333.713 213.396 328.014 212.666 323.736 211.949C319.446 211.227 316.516 210.513 316.516 210.513Z" fill="url(#paint5_linear_4224_12974)"/>
<path d="M396.773 201.434C397.183 201.583 397.582 201.736 397.96 201.899C397.554 201.997 397.14 202.097 396.728 202.197C389.387 201.893 382.126 201.953 375.388 202.327C372.006 202.507 368.779 202.785 365.618 203.061C362.434 203.321 359.385 203.63 356.49 203.969C353.595 204.308 350.854 204.678 348.283 205.06C345.667 205.407 343.201 205.752 340.935 206.106C338.666 206.458 336.586 206.81 334.711 207.147C332.839 207.487 331.169 207.811 329.665 208.058C324.38 208.982 320.294 209.916 317.331 210.703C316.805 210.581 316.516 210.514 316.516 210.514L316.985 210.105C319.982 209.304 324.152 208.348 329.567 207.403C332.546 206.876 336.289 206.129 340.852 205.436C343.117 205.076 345.61 204.747 348.203 204.375C350.781 203.991 353.529 203.62 356.432 203.279C359.335 202.938 362.392 202.627 365.586 202.364C368.724 202.061 371.985 201.797 375.37 201.608C378.754 201.419 382.255 201.299 385.852 201.277C389.461 201.259 393.046 201.26 396.773 201.434Z" fill="#FFB290"/>
<path d="M326.801 197.409C328.282 195.184 329.431 192.568 330.103 189.582C330.747 186.573 331.021 183.279 330.956 179.847C330.935 176.447 330.372 172.758 329.609 169.129C329.218 167.308 328.756 165.485 328.23 163.676C327.707 161.869 327.119 160.076 326.413 158.268C325.034 154.675 323.435 151.195 321.688 147.927C319.945 144.66 318.063 141.607 316.023 138.79C311.997 133.185 307.752 128.772 304.008 126.098C304.972 128.024 305.925 130.093 306.856 132.267C307.322 133.354 307.782 134.468 308.235 135.603C308.684 136.736 309.079 137.861 309.492 139.019C310.306 141.326 311.088 143.699 311.834 146.092C312.567 148.476 313.327 150.924 313.906 153.246C315.125 157.93 316.195 162.506 317.146 166.54C318.007 170.505 318.754 173.927 319.481 176.362C320.206 178.795 321.05 181.328 321.9 183.769C322.728 186.192 323.523 188.491 324.253 190.515C325.702 194.555 326.801 197.409 326.801 197.409Z" fill="url(#paint6_linear_4224_12974)"/>
<path d="M305.017 126.857C304.677 126.593 304.34 126.337 304.008 126.1C304.163 126.415 304.321 126.736 304.478 127.056C313.319 137.665 318.904 148.979 322.238 159.248C323.844 164.329 324.969 169.18 325.695 173.463C326.344 177.689 326.659 181.392 326.823 184.294C326.896 185.582 326.941 186.814 326.963 187.984C326.972 189.143 326.933 190.221 326.894 191.248C326.809 193.297 326.664 195.096 326.5 196.626C326.694 197.132 326.801 197.411 326.801 197.411C326.911 197.238 327.024 197.062 327.135 196.887C327.45 193.765 327.82 189.607 327.471 184.277C327.308 181.365 326.993 177.652 326.342 173.415C325.585 169.099 324.48 164.252 322.864 159.153C322.087 156.624 321.027 153.928 319.901 151.254C318.756 148.568 317.467 145.851 316.017 143.133C315.288 141.772 314.538 140.421 313.71 139.053C312.872 137.678 311.993 136.307 311.071 134.943C309.228 132.212 307.213 129.51 305.017 126.857Z" fill="#FFB290"/>
<path d="M332.199 192.165C333.996 190.187 336.314 188.484 339.051 186.997C340.408 186.245 341.922 185.585 343.432 184.904C344.95 184.228 346.56 183.601 348.248 183.016C349.936 182.431 351.701 181.889 353.53 181.385C355.359 180.881 357.264 180.425 359.138 179.95C362.924 179.027 366.905 178.245 370.951 177.593C375.033 176.964 379.016 176.365 382.984 175.942C386.943 175.515 390.833 175.232 394.509 175.121C398.206 175.023 401.592 175.043 404.651 175.296C407.707 175.547 410.409 176.018 412.607 176.753C407.688 178.416 402.309 180.234 396.83 182.086C394.095 183.009 391.336 183.939 388.598 184.863C385.827 185.744 383.06 186.579 380.396 187.377C377.728 188.172 375.145 188.919 372.693 189.597C370.254 190.284 367.823 190.821 365.64 191.322C361.24 192.303 357.553 192.958 354.917 193.183C349.59 193.603 343.834 193.341 339.515 192.988C335.177 192.629 332.199 192.165 332.199 192.165Z" fill="url(#paint7_linear_4224_12974)"/>
<path d="M411.385 176.389C411.806 176.503 412.218 176.622 412.608 176.752C412.211 176.884 411.807 177.018 411.404 177.152C407.686 177.283 404.136 177.583 400.539 177.887C396.968 178.205 393.499 178.611 390.153 179.078C386.802 179.542 383.592 180.079 380.487 180.632C377.335 181.156 374.322 181.717 371.465 182.296C368.608 182.875 365.906 183.471 363.376 184.066C360.82 184.644 358.375 185.182 356.152 185.727C351.672 186.793 348.016 187.85 345.094 188.618C339.905 189.979 335.911 191.251 333.024 192.283C332.492 192.207 332.199 192.165 332.199 192.165L332.629 191.716C335.549 190.667 339.625 189.366 344.942 187.973C347.844 187.183 351.529 186.14 356.013 185.067C358.248 184.549 360.661 183.989 363.239 183.391C365.776 182.794 368.484 182.195 371.349 181.614C374.21 181.031 377.242 180.473 380.388 179.936C383.482 179.367 386.717 178.835 390.075 178.363C393.432 177.891 396.912 177.48 400.497 177.156C404.068 176.824 407.66 176.532 411.385 176.389Z" fill="#FFB290"/>
<path d="M338.792 180.949C340.514 178.923 341.908 176.401 342.985 173.546C343.252 172.83 343.51 172.101 343.728 171.34C343.932 170.569 344.115 169.78 344.28 168.975C344.608 167.364 344.858 165.69 345.033 163.971C345.207 162.252 345.307 160.489 345.332 158.699C345.302 156.875 345.2 155.025 345.03 153.168C344.86 151.31 344.622 149.445 344.321 147.589C344.171 146.661 344.004 145.735 343.823 144.812C343.624 143.881 343.393 142.944 343.158 142.018C342.208 138.311 341.034 134.706 339.693 131.313C338.347 127.916 336.68 124.655 335.012 121.743C333.323 118.821 331.545 116.204 329.751 113.967C327.915 111.712 326.047 109.829 324.273 108.406C324.66 109.394 325.042 110.418 325.417 111.474C325.782 112.525 326.093 113.588 326.423 114.688C327.07 116.882 327.688 119.182 328.276 121.547C328.563 122.726 328.872 123.935 329.119 125.129C329.349 126.328 329.579 127.527 329.807 128.722C330.251 131.13 330.665 133.558 331.053 135.955C331.148 136.556 331.244 137.154 331.338 137.746C331.412 138.332 331.484 138.914 331.557 139.49C331.698 140.653 331.836 141.796 331.972 142.912C332.24 145.178 332.495 147.338 332.733 149.351C333.003 151.397 333.134 153.226 333.335 154.904C333.523 156.575 333.722 158.057 333.945 159.295C334.379 161.764 334.973 164.38 335.503 166.855C336.019 169.321 336.56 171.706 337.047 173.793C338.022 177.971 338.792 180.949 338.792 180.949Z" fill="url(#paint8_linear_4224_12974)"/>
<path d="M325.227 109.212C324.907 108.931 324.588 108.659 324.273 108.406C324.397 108.729 324.523 109.058 324.648 109.386C326.641 112.157 328.297 114.921 329.817 117.728C331.334 120.533 332.681 123.367 333.873 126.197C335.05 129.02 335.951 131.78 336.783 134.537C337.589 137.279 338.308 140.012 338.824 142.624C339.782 147.806 340.366 152.753 340.547 157.054C340.676 161.324 340.558 165.042 340.389 167.946C340.012 173.054 339.228 177.112 338.583 180.132C338.718 180.66 338.793 180.951 338.793 180.951L339.181 180.469C339.523 178.942 339.881 177.132 340.214 175.054C340.38 174.015 340.541 172.909 340.688 171.739C340.842 170.572 340.976 169.337 341.038 168.004C341.209 165.088 341.33 161.357 341.203 157.072C341 152.741 340.436 147.789 339.473 142.586C338.929 139.95 338.23 137.22 337.417 134.465C337.008 133.086 336.566 131.698 336.087 130.305C335.61 128.913 335.102 127.518 334.488 126.09C333.294 123.25 331.946 120.407 330.425 117.592C329.665 116.185 328.862 114.784 328.014 113.394C327.16 111.999 326.199 110.592 325.227 109.212Z" fill="#FFB290"/>
<path d="M351.223 161.341C354.068 159.481 356.629 157.152 358.956 154.527C361.249 151.884 363.146 148.855 364.945 145.745C365.389 144.965 365.824 144.177 366.244 143.381C366.634 142.57 367.013 141.753 367.382 140.933C368.122 139.293 368.823 137.64 369.497 135.992C370.9 132.722 371.954 129.37 373.027 126.204C373.573 124.587 374.125 122.954 374.681 121.309C375.19 119.647 375.654 117.958 376.13 116.269C377.055 112.882 378.027 109.494 378.592 106.006C378.906 104.273 379.189 102.541 379.432 100.813C379.676 99.0863 379.895 97.3693 379.947 95.6273C380.11 92.1613 380.075 88.7373 379.766 85.4043C375.738 94.2103 371.281 103.105 366.802 111.823C362.529 120.634 358.29 129.259 355.68 138.339C354.515 141.92 353.631 145.699 352.971 149.599C352.184 153.426 351.606 157.366 351.223 161.341Z" fill="url(#paint9_linear_4224_12974)"/>
<path d="M379.893 86.6943C379.858 86.2513 379.818 85.8173 379.766 85.4023C379.597 85.7673 379.424 86.1403 379.252 86.5113C378.725 89.2193 378.199 91.9253 377.674 94.6293L377.264 96.6613L376.768 98.6703L375.746 102.687C374.468 108.079 372.691 113.323 370.997 118.613C370.095 121.236 369.068 123.815 368.091 126.417L366.595 130.311L364.925 134.132C363.793 136.672 362.696 139.234 361.507 141.751L357.743 149.213C356.559 151.641 355.307 153.73 354.22 155.601C353.128 157.468 352.155 159.09 351.311 160.46C351.254 161.027 351.223 161.34 351.223 161.34L351.758 160.998C352.613 159.612 353.604 157.962 354.719 156.056C355.827 154.147 357.113 152.011 358.324 149.525L362.095 142.048C363.286 139.525 364.386 136.958 365.52 134.413L367.193 130.584L368.693 126.682C369.672 124.075 370.701 121.491 371.606 118.863C373.305 113.562 375.086 108.307 376.369 102.904L377.395 98.8793L377.893 96.8663L378.304 94.8293C378.835 92.1193 379.364 89.4073 379.893 86.6943Z" fill="#FFB290"/>
<path d="M343.719 174.014C344.064 173.445 344.445 172.887 344.859 172.339C345.251 171.776 345.674 171.22 346.13 170.674C347.042 169.582 348.08 168.527 349.233 167.504C350.386 166.481 351.653 165.491 353.021 164.53C354.401 163.577 355.767 162.582 357.283 161.653C360.266 159.766 363.676 158.028 367.172 156.307C370.639 154.57 374.339 152.93 378.144 151.399C380.024 150.651 381.92 149.896 383.819 149.14C385.707 148.407 387.606 147.706 389.499 147.042C393.265 145.704 397.103 144.559 400.584 143.522C407.63 141.492 414.075 140.28 418.779 140.513C416.542 141.869 414.217 143.327 411.846 144.84C410.665 145.599 409.468 146.368 408.26 147.144C407.659 147.533 407.056 147.923 406.451 148.316C405.829 148.699 405.204 149.083 404.579 149.467C402.091 150.994 399.582 152.535 397.091 154.064C395.858 154.816 394.629 155.565 393.41 156.309C392.202 157.05 390.927 157.737 389.715 158.432C387.271 159.81 384.904 161.125 382.652 162.346C381.529 162.947 380.432 163.534 379.366 164.104C378.29 164.657 377.213 165.164 376.195 165.654C372.104 167.6 368.648 169.079 366.124 169.905C361.025 171.535 355.337 172.566 351.067 173.206C346.803 173.86 343.719 174.014 343.719 174.014Z" fill="url(#paint10_linear_4224_12974)"/>
<path d="M417.485 140.489C417.929 140.487 418.365 140.492 418.783 140.513C418.419 140.735 418.049 140.962 417.681 141.188C403.194 145.51 390.434 150.936 379.755 155.73C377.09 156.935 374.588 158.122 372.256 159.272C369.924 160.421 367.639 161.464 365.605 162.49C361.483 164.511 358.192 166.379 355.479 167.735C353.115 168.966 351.04 170.114 349.236 171.162C347.434 172.239 345.878 173.169 344.566 173.953C344.022 173.992 343.723 174.013 343.723 174.013L344.058 173.492C345.425 172.702 346.951 171.714 348.798 170.649C350.638 169.579 352.759 168.406 355.181 167.146C355.85 166.802 356.568 166.432 357.334 166.039C358.081 165.638 358.873 165.212 359.71 164.762C361.391 163.872 363.262 162.908 365.316 161.889C366.348 161.386 367.42 160.864 368.533 160.322C369.659 159.792 370.812 159.241 371.967 158.658C374.304 157.507 376.812 156.318 379.482 155.11C390.17 150.298 402.949 144.849 417.485 140.489Z" fill="#FFB290"/>
<path d="M131.13 196.804C127.22 193.494 121.557 191.215 114.87 189.492C108.188 187.787 100.489 186.662 92.7319 186.109C84.9759 185.558 77.1779 185.616 70.3179 186.336C63.4699 187.06 57.5629 188.448 53.5859 190.438C62.7439 191.583 74.0279 194.142 84.4129 196.237C94.8019 198.363 104.197 199.846 109.374 199.813C114.557 199.816 120.034 199.126 124.172 198.357C128.32 197.588 131.13 196.804 131.13 196.804Z" fill="url(#paint11_linear_4224_12974)"/>
<path d="M126.839 191.014C123.77 186.91 122.36 180.934 122.371 174.306C122.37 167.665 123.769 160.356 125.993 153.248C128.217 146.139 131.238 139.202 134.495 133.278C137.761 127.364 141.249 122.432 144.57 119.482C143.352 123.826 142.198 128.663 141.075 133.542C139.956 138.423 138.898 143.391 137.936 148.103C135.99 157.495 134.559 165.971 133.301 170.655C132.011 175.336 130.344 180.381 129.06 184.312C127.762 188.228 126.839 191.014 126.839 191.014Z" fill="url(#paint12_linear_4224_12974)"/>
<path d="M116.002 179.283C112.49 175.539 107.057 172.712 100.565 170.583C94.0777 168.462 86.5457 167.07 78.9607 166.465C71.3827 165.867 63.7307 166.031 56.9307 166.753C50.1377 167.488 44.2237 168.828 40.2227 170.773C44.8017 171.401 49.8187 172.25 54.9107 173.167C60.0067 174.088 65.1557 175.051 70.1307 176.077C80.0547 178.112 89.1307 180.029 94.1967 180.326C99.2727 180.651 104.745 180.437 108.926 180.083C113.097 179.743 116.002 179.283 116.002 179.283Z" fill="url(#paint13_linear_4224_12974)"/>
<path d="M112.327 173.06C106.967 164.225 108.633 149 113.097 134.515C115.344 127.287 118.378 120.314 121.723 114.461C125.065 108.604 128.721 103.869 132.097 100.99C129.298 109.292 127.063 119.914 125.237 129.758C123.413 139.627 121.725 148.314 120.236 153.033C118.735 157.738 116.721 162.727 115.129 166.554C113.525 170.392 112.327 173.06 112.327 173.06Z" fill="url(#paint14_linear_4224_12974)"/>
<path d="M102.387 160.519C95.787 152.585 81.07 148.568 65.814 147.016C58.189 146.238 50.423 146.063 43.521 146.458C36.621 146.862 30.588 147.87 26.5 149.636C35.842 151.607 46.947 154.384 56.902 156.57C66.863 158.774 75.707 160.523 80.701 160.879C85.693 161.229 91.121 161.153 95.293 160.976C99.472 160.8 102.387 160.519 102.387 160.519Z" fill="url(#paint15_linear_4224_12974)"/>
<path d="M99.0069 154.124C94.0359 145.145 95.5139 129.769 100.499 115.661C102.98 108.605 106.336 101.885 109.991 96.3131C113.642 90.7351 117.592 86.3001 121.117 83.6211C119.428 87.5181 117.844 91.9811 116.43 96.6771C115.019 101.373 113.777 106.3 112.675 111.056C110.47 120.566 108.828 129.38 107.29 134.12C105.758 138.863 103.696 143.872 102.007 147.686C100.317 151.499 99.0069 154.124 99.0069 154.124Z" fill="url(#paint16_linear_4224_12974)"/>
<path d="M90.8653 144.597C85.9563 135.528 72.4083 128.651 57.7823 123.36C50.4753 120.748 42.8323 118.41 36.0053 117.018C29.1713 115.623 23.0983 115.174 18.6953 115.876C22.9083 117.753 27.5483 120.151 32.3653 122.757C37.1903 125.389 42.1713 128.112 46.8583 130.49C56.2543 135.284 64.6383 139.036 69.4933 140.488C79.2093 143.389 90.8653 144.597 90.8653 144.597Z" fill="url(#paint17_linear_4224_12974)"/>
<path d="M78.1862 126.037C77.4892 119.444 74.9322 113.191 71.7732 107.182C68.6112 101.188 64.8392 95.358 61.4392 89.937C57.9682 84.4039 54.3852 78.5779 50.2712 73.1919C46.1832 67.8009 41.5062 62.875 36.1992 59.252C40.1502 67.555 43.3082 76.573 46.9642 85.448C50.6162 94.31 54.8492 103.12 60.8402 110.64C65.6362 116.655 71.7472 121.858 78.1862 126.037Z" fill="url(#paint18_linear_4224_12974)"/>
<path d="M86.3689 137.714C80.1599 129.523 79.6409 113.941 83.3249 99.6181C85.1509 92.4691 87.8959 85.5131 90.8919 79.4671C93.8979 73.4361 97.1639 68.3361 100.329 65.2051C99.3499 69.6851 98.4119 74.5761 97.5129 79.4721C96.6209 84.3851 95.7589 89.2441 95.0529 93.9211C93.6369 103.281 92.9559 112.071 91.9879 116.901C90.0359 126.559 86.3689 137.714 86.3689 137.714Z" fill="url(#paint19_linear_4224_12974)"/>
<path d="M75.5351 121.138C83.9891 132.345 86.7361 137.275 101.384 157.602C105.056 162.672 109.247 168.476 113.626 174.195C118.006 179.913 122.61 185.516 126.943 190.298C129.12 192.662 131.211 194.907 133.129 196.772C135.031 198.622 136.916 200.128 138.625 201.138C140.331 202.165 141.857 202.692 142.922 202.944C143.457 203.07 143.874 203.146 144.161 203.176C144.445 203.216 144.594 203.236 144.594 203.236L142.831 206.254C142.831 206.254 142.511 206.2 141.91 206.098C141.315 205.967 140.436 205.767 139.373 205.327C137.226 204.498 134.416 202.683 131.546 199.891C125.906 194.317 119.136 186.316 112.727 177.632C106.307 168.976 100.207 159.781 95.2511 152.388C90.2841 144.992 86.4921 139.344 85.2071 137.43C82.5781 133.639 79.9211 129.527 77.9461 126.348C75.9671 123.171 74.6641 120.932 74.6641 120.932L75.5351 121.138Z" fill="url(#paint20_linear_4224_12974)"/>
<path d="M54.6959 189.925C54.3129 190.092 53.9389 190.262 53.5859 190.438C53.9599 190.488 54.3409 190.539 54.7199 190.59C68.4249 188.695 81.4909 189.407 92.5639 190.636C103.636 191.898 112.707 193.59 118.412 194.611C123.466 195.548 127.461 196.35 130.348 197.013C130.852 196.88 131.13 196.806 131.13 196.806C130.976 196.683 130.82 196.557 130.664 196.433C127.753 195.756 123.673 194.938 118.504 193.974C112.787 192.948 103.719 191.246 92.6229 189.977C81.5359 188.738 68.4429 188.027 54.6959 189.925Z" fill="url(#paint21_linear_4224_12974)"/>
<path d="M143.684 120.32C143.981 120.028 144.277 119.744 144.571 119.482C144.473 119.835 144.374 120.196 144.275 120.554C137.361 132.377 132.826 144.016 130.113 154.145C127.381 164.259 126.567 172.916 126.446 178.452C126.309 183.379 126.677 187.326 127.096 190.252C126.931 190.744 126.84 191.015 126.84 191.015C126.726 190.855 126.611 190.692 126.495 190.53C126.064 187.557 125.676 183.516 125.819 178.46C125.944 172.899 126.766 164.205 129.502 154.058C132.223 143.888 136.76 132.199 143.684 120.32Z" fill="url(#paint22_linear_4224_12974)"/>
<path d="M41.3377 170.27C40.9537 170.433 40.5777 170.6 40.2227 170.773C40.5947 170.825 40.9747 170.879 41.3527 170.933C55.0797 169.18 67.7527 169.465 78.5027 170.816C89.2617 172.184 98.0797 174.421 103.615 175.884C108.542 177.196 112.386 178.432 115.201 179.399C115.717 179.325 116.002 179.284 116.002 179.284L115.582 178.858C112.739 177.874 108.811 176.61 103.77 175.263C98.2237 173.798 89.3867 171.551 78.6097 170.185C67.8377 168.835 55.1217 168.537 41.3377 170.27Z" fill="url(#paint23_linear_4224_12974)"/>
<path d="M131.193 101.807C131.497 101.523 131.799 101.248 132.099 100.992C131.989 101.332 131.876 101.679 131.764 102.024C124.45 113.396 120.013 125.227 117.285 135.635C114.556 146.057 113.367 154.801 112.904 160.404C112.483 165.369 112.491 169.376 112.657 172.325C112.445 172.8 112.328 173.063 112.328 173.063C112.231 172.892 112.131 172.717 112.033 172.544C111.859 169.552 111.841 165.454 112.276 160.36C112.743 154.738 113.93 145.962 116.664 135.511C119.398 125.078 123.852 113.216 131.193 101.807Z" fill="url(#paint24_linear_4224_12974)"/>
<path d="M27.639 149.186C27.246 149.331 26.863 149.48 26.5 149.638C26.88 149.719 27.267 149.801 27.652 149.884C55.629 148.078 79.305 153.477 90.213 156.666C95.047 158.071 98.836 159.471 101.58 160.591C102.099 160.546 102.386 160.521 102.386 160.521C102.255 160.373 102.122 160.222 101.99 160.072C99.213 158.932 95.344 157.496 90.39 156.056C79.446 152.856 55.729 147.44 27.639 149.186Z" fill="url(#paint25_linear_4224_12974)"/>
<path d="M120.165 84.382C120.484 84.117 120.802 83.861 121.115 83.623C120.98 83.942 120.843 84.267 120.707 84.59C112.659 95.232 107.638 106.617 104.605 116.773C101.556 126.926 100.407 135.783 99.8616 141.407C99.3866 146.408 99.3066 150.435 99.3616 153.398C99.1326 153.866 99.0056 154.125 99.0056 154.125C98.9146 153.949 98.8216 153.771 98.7296 153.594C98.6676 150.592 98.7416 146.474 99.2306 141.349C99.7786 135.709 100.932 126.83 103.993 116.651C107.038 106.469 112.082 95.055 120.165 84.382Z" fill="url(#paint26_linear_4224_12974)"/>
<path d="M19.9083 115.719C19.4923 115.765 19.0853 115.816 18.6953 115.88C19.0373 116.035 19.3863 116.193 19.7323 116.349C26.5723 117.465 33.1343 119.25 39.3013 121.279C45.4723 123.321 51.1893 125.472 56.3293 127.542C66.6123 131.687 74.6673 135.67 79.6983 138.367C84.1633 140.75 87.5953 142.857 90.0623 144.508C90.5803 144.567 90.8663 144.6 90.8663 144.6L90.5683 144.081C88.0743 142.404 84.5693 140.246 79.9953 137.804C74.9503 135.1 66.8803 131.108 56.5793 126.946C46.2883 122.882 33.6053 117.963 19.9083 115.719Z" fill="url(#paint27_linear_4224_12974)"/>
<path d="M37.2252 59.9579C36.8792 59.7109 36.5352 59.4719 36.1992 59.2539C36.3602 59.6009 36.5242 59.9559 36.6872 60.3089C43.3512 68.4159 49.0992 77.4729 54.5412 86.7559C59.9872 96.0399 65.2062 105.576 70.9152 114.812C73.6582 119.289 75.8762 122.882 77.4742 125.571C77.9332 125.872 78.1872 126.038 78.1872 126.038L78.1292 125.423C76.5172 122.709 74.2582 119.052 71.4602 114.485C65.7632 105.269 60.5542 95.7539 55.1062 86.4639C49.6632 77.1779 43.9082 68.1009 37.2252 59.9579Z" fill="url(#paint28_linear_4224_12974)"/>
<path d="M99.4869 66.095C99.7709 65.79 100.049 65.485 100.33 65.207C100.252 65.571 100.172 65.943 100.093 66.313C93.7829 78.591 89.6249 90.118 87.5229 100.292C85.4309 110.511 85.3459 119.405 85.5149 125.022C85.6739 130.02 86.1459 134.021 86.6189 136.946C86.4569 137.442 86.3689 137.715 86.3689 137.715L86.0209 137.227C85.5349 134.263 85.0429 130.171 84.8809 125.045C84.7109 119.408 84.8029 110.485 86.8999 100.234C89.0179 90.035 93.1689 78.427 99.4869 66.095Z" fill="url(#paint29_linear_4224_12974)"/>
<path d="M31.1426 246.228C-17.1674 223.253 -3.84539 299.412 34.1936 292.218C36.5846 290.992 42.3936 293.926 41.9806 293.758C43.2406 290.743 46.1326 286.785 42.9176 284.085C41.9216 283.249 40.6746 282.775 39.4346 282.384C37.2836 281.707 35.0696 281.235 32.8296 280.975C31.3456 280.803 29.5896 280.835 28.6856 282.025C28.3956 282.406 28.2306 282.87 27.9376 283.249C25.0036 287.047 16.7326 280.212 14.5706 277.792C9.63961 272.272 5.68561 263.18 7.77761 255.694C10.4636 246.078 21.5316 249.611 27.8966 253.029L31.1426 246.228Z" fill="url(#paint30_linear_4224_12974)"/>
<path d="M73.9475 224.469H51.3385H25.7715C23.7585 224.469 22.1425 226.118 22.1925 228.13C22.5145 241.109 24.6195 285.409 38.4045 309.018C39.1565 310.305 40.5215 311.107 42.0115 311.107H51.3385H73.9485H83.2755C84.7655 311.107 86.1305 310.305 86.8825 309.018C100.669 285.409 102.774 241.109 103.095 228.13C103.145 226.118 101.528 224.469 99.5155 224.469H73.9475Z" fill="url(#paint31_linear_4224_12974)"/>
<path d="M428.201 292.629C428.201 297.28 427.345 301.95 425.695 306.583C425.244 307.854 424.73 309.125 424.163 310.396L423.442 311.992H380.398L381.119 310.396C381.687 309.125 382.201 307.854 382.651 306.583C384.301 301.949 385.157 297.28 385.157 292.629C385.157 288.113 384.346 283.624 382.723 279.197C382.254 277.899 381.704 276.61 381.091 275.33L380.352 273.789H423.396L424.135 275.33C426.849 280.991 428.201 286.796 428.201 292.629Z" fill="url(#paint32_linear_4224_12974)"/>
<path d="M382.65 306.582C382.199 307.853 381.686 309.124 381.118 310.395L380.397 311.991H315.547V306.582H382.65Z" fill="url(#paint33_linear_4224_12974)"/>
<path d="M315.543 279.196V273.787H380.348L381.087 275.328C381.7 276.608 382.25 277.897 382.719 279.195H315.543V279.196Z" fill="url(#paint34_linear_4224_12974)"/>
<path d="M385.154 292.628C385.154 297.279 384.298 301.949 382.648 306.582C382.197 307.853 381.684 309.124 381.116 310.395L380.395 311.991H272.5V306.582H376.852C376.87 306.546 376.888 306.501 376.897 306.465C378.799 301.759 379.746 297.171 379.746 292.628C379.746 288.139 378.818 283.686 376.897 279.196H272.5V273.787H380.35L381.089 275.328C381.702 276.608 382.252 277.897 382.721 279.195C384.343 283.622 385.154 288.111 385.154 292.628Z" fill="url(#paint35_linear_4224_12974)"/>
<path d="M376.895 279.201H278.105V306.583H376.895V279.201Z" fill="url(#paint36_linear_4224_12974)"/>
<path d="M376.895 279.201H278.105V284.408H376.895V279.201Z" fill="#0A5840" fill-opacity="0.6"/>
<path d="M379.744 292.627C379.744 297.17 378.797 301.759 376.895 306.464V279.195C378.815 283.684 379.744 288.137 379.744 292.627Z" fill="#0A5840" fill-opacity="0.6"/>
<path d="M416.592 254.424C416.592 259.075 415.736 263.745 414.086 268.378C413.635 269.649 413.122 270.92 412.554 272.191L411.833 273.787H368.788L369.509 272.191C370.077 270.92 370.591 269.649 371.041 268.378C372.691 263.744 373.547 259.075 373.547 254.424C373.547 249.908 372.736 245.418 371.113 240.992C370.644 239.694 370.094 238.405 369.481 237.125L368.742 235.584H411.786L412.525 237.125C415.239 242.786 416.592 248.592 416.592 254.424Z" fill="url(#paint37_linear_4224_12974)"/>
<path d="M371.044 268.379C370.593 269.65 370.079 270.921 369.512 272.192L368.791 273.788H303.941V268.379H371.044Z" fill="url(#paint38_linear_4224_12974)"/>
<path d="M303.938 240.993V235.584H368.743L369.482 237.125C370.095 238.405 370.645 239.694 371.114 240.992L303.938 240.993Z" fill="url(#paint39_linear_4224_12974)"/>
<path d="M373.549 254.423C373.549 259.074 372.693 263.744 371.043 268.377C370.592 269.648 370.078 270.919 369.511 272.19L368.79 273.786H260.895V268.377H365.247C365.265 268.341 365.283 268.296 365.292 268.26C367.194 263.554 368.141 258.966 368.141 254.423C368.141 249.934 367.213 245.481 365.292 240.991H260.895V235.582H368.744L369.483 237.123C370.096 238.403 370.646 239.692 371.115 240.99C372.738 245.418 373.549 249.907 373.549 254.423Z" fill="url(#paint40_linear_4224_12974)"/>
<path d="M365.29 240.996H266.5V268.378H365.29V240.996Z" fill="url(#paint41_linear_4224_12974)"/>
<path d="M365.29 240.996H266.5V246.203H365.29V240.996Z" fill="#0A5840" fill-opacity="0.6"/>
<path d="M368.138 254.423C368.138 258.966 367.191 263.555 365.289 268.26V240.992C367.209 245.481 368.138 249.934 368.138 254.423Z" fill="#0A5840" fill-opacity="0.6"/>
<path d="M330.645 125.633H92.7244C86.6074 125.633 81.6484 130.592 81.6484 136.709V298.503H341.722V136.71C341.722 130.593 336.763 125.633 330.645 125.633Z" fill="url(#paint42_linear_4224_12974)"/>
<path d="M335.219 138.766H88.543V284.228H335.219V138.766Z" fill="url(#paint43_linear_4224_12974)"/>
<path d="M335.223 157.951H157.105V284.229H335.223V157.951Z" fill="white"/>
<path d="M335.219 138.766H88.543V157.952H335.219V138.766Z" fill="url(#paint44_linear_4224_12974)"/>
<path d="M328.145 168.43H217.824V172.191H328.145V168.43Z" fill="#0A5840"/>
<path d="M278.25 175.951H217.824V179.712H278.25V175.951Z" fill="#0A5840"/>
<path d="M328.145 200.773H217.824V204.534H328.145V200.773Z" fill="#0A5840"/>
<path d="M278.25 208.295H217.824V212.056H278.25V208.295Z" fill="#0A5840"/>
<path d="M328.145 233.117H217.824V236.878H328.145V233.117Z" fill="#0A5840"/>
<path d="M278.25 240.641H217.824V244.402H278.25V240.641Z" fill="#0A5840"/>
<path d="M237.13 192.124H221.585C219.508 192.124 217.824 190.44 217.824 188.363C217.824 186.286 219.508 184.602 221.585 184.602H237.13C239.207 184.602 240.891 186.286 240.891 188.363C240.891 190.44 239.207 192.124 237.13 192.124Z" fill="#FF863E"/>
<path d="M274.49 192.124H258.945C256.868 192.124 255.184 190.44 255.184 188.363C255.184 186.286 256.868 184.602 258.945 184.602H274.49C276.567 184.602 278.251 186.286 278.251 188.363C278.25 190.44 276.567 192.124 274.49 192.124Z" fill="#FF863E"/>
<path d="M311.849 192.124H296.304C294.227 192.124 292.543 190.44 292.543 188.363C292.543 186.286 294.227 184.602 296.304 184.602H311.849C313.926 184.602 315.61 186.286 315.61 188.363C315.61 190.44 313.926 192.124 311.849 192.124Z" fill="#FF863E"/>
<path d="M237.13 224.592H221.585C219.508 224.592 217.824 222.908 217.824 220.831C217.824 218.754 219.508 217.07 221.585 217.07H237.13C239.207 217.07 240.891 218.754 240.891 220.831C240.891 222.909 239.207 224.592 237.13 224.592Z" fill="#FF863E"/>
<path d="M274.49 224.592H258.945C256.868 224.592 255.184 222.908 255.184 220.831C255.184 218.754 256.868 217.07 258.945 217.07H274.49C276.567 217.07 278.251 218.754 278.251 220.831C278.25 222.909 276.567 224.592 274.49 224.592Z" fill="#FF863E"/>
<path d="M311.849 224.467H296.304C294.227 224.467 292.543 222.783 292.543 220.706C292.543 218.629 294.227 216.945 296.304 216.945H311.849C313.926 216.945 315.61 218.629 315.61 220.706C315.61 222.783 313.926 224.467 311.849 224.467Z" fill="#FF863E"/>
<path d="M237.13 256.938H221.585C219.508 256.938 217.824 255.254 217.824 253.177C217.824 251.1 219.508 249.416 221.585 249.416H237.13C239.207 249.416 240.891 251.1 240.891 253.177C240.891 255.254 239.207 256.938 237.13 256.938Z" fill="#FF863E"/>
<path d="M274.49 256.938H258.945C256.868 256.938 255.184 255.254 255.184 253.177C255.184 251.1 256.868 249.416 258.945 249.416H274.49C276.567 249.416 278.251 251.1 278.251 253.177C278.25 255.254 276.567 256.938 274.49 256.938Z" fill="#FF863E"/>
<path d="M311.849 256.938H296.304C294.227 256.938 292.543 255.254 292.543 253.177C292.543 251.1 294.227 249.416 296.304 249.416H311.849C313.926 249.416 315.61 251.1 315.61 253.177C315.61 255.254 313.926 256.938 311.849 256.938Z" fill="#FF863E"/>
<path d="M328.145 264.826H217.824V268.587H328.145V264.826Z" fill="#0A5840"/>
<path d="M278.25 272.348H217.824V276.109H278.25V272.348Z" fill="#0A5840"/>
<path d="M240.879 284.231H217.836C217.976 282.496 219.432 281.121 221.204 281.121H237.505C239.276 281.12 240.739 282.495 240.879 284.231Z" fill="#FF863E"/>
<path d="M278.231 284.231H255.195C255.335 282.496 256.791 281.121 258.562 281.121H274.863C276.636 281.12 278.092 282.495 278.231 284.231Z" fill="#FF863E"/>
<path d="M315.591 284.231H292.555C292.695 282.496 294.151 281.121 295.923 281.121H312.224C313.996 281.12 315.451 282.495 315.591 284.231Z" fill="#FF863E"/>
<path d="M235.626 187.191H222.391V189.535H235.626V187.191Z" fill="white"/>
<path d="M272.637 187.191H259.402V189.535H272.637V187.191Z" fill="white"/>
<path d="M310.34 187.191H297.105V189.535H310.34V187.191Z" fill="white"/>
<path d="M235.626 219.535H222.391V221.879H235.626V219.535Z" fill="white"/>
<path d="M272.637 219.535H259.402V221.879H272.637V219.535Z" fill="white"/>
<path d="M310.34 219.535H297.105V221.879H310.34V219.535Z" fill="white"/>
<path d="M235.626 251.879H222.391V254.223H235.626V251.879Z" fill="white"/>
<path d="M272.637 251.879H259.402V254.223H272.637V251.879Z" fill="white"/>
<path d="M310.34 251.879H297.105V254.223H310.34V251.879Z" fill="white"/>
<path d="M197.475 168.43H163.785V171.814H197.475V168.43Z" fill="#0A5840"/>
<path d="M206.184 173.802C208.114 173.802 209.677 172.239 209.677 170.309C209.677 168.38 208.114 166.816 206.184 166.816C204.255 166.816 202.691 168.38 202.691 170.309C202.691 172.239 204.255 173.802 206.184 173.802Z" fill="url(#paint45_linear_4224_12974)"/>
<path d="M197.475 179.443H163.785V182.827H197.475V179.443Z" fill="#0A5840"/>
<path d="M206.184 184.818C208.114 184.818 209.677 183.254 209.677 181.325C209.677 179.396 208.114 177.832 206.184 177.832C204.255 177.832 202.691 179.396 202.691 181.325C202.691 183.254 204.255 184.818 206.184 184.818Z" fill="url(#paint46_linear_4224_12974)"/>
<path d="M197.475 190.459H163.785V193.843H197.475V190.459Z" fill="#0A5840"/>
<path d="M197.475 201.473H163.785V204.857H197.475V201.473Z" fill="#0A5840"/>
<path d="M197.475 212.486H163.785V215.87H197.475V212.486Z" fill="#0A5840"/>
<path d="M197.475 223.502H163.785V226.886H197.475V223.502Z" fill="#0A5840"/>
<path d="M197.475 234.516H163.785V237.9H197.475V234.516Z" fill="#0A5840"/>
<path d="M204.223 170.506L205.76 172.044L208.567 169.237L208.047 168.717L205.76 171.004L204.743 169.987L204.223 170.506Z" fill="white"/>
<path d="M204.223 181.451L205.76 182.988L208.567 180.181L208.047 179.662L205.76 181.948L204.743 180.931L204.223 181.451Z" fill="white"/>
<path d="M121.042 185.785H120.531V188.04H121.042V185.785Z" fill="white"/>
<path d="M121.042 215.312H120.531V217.568H121.042V215.312Z" fill="white"/>
<path d="M118.269 185.984L117.766 186.072L118.157 188.293L118.66 188.204L118.269 185.984Z" fill="white"/>
<path d="M123.398 215.058L122.895 215.146L123.286 217.367L123.789 217.279L123.398 215.058Z" fill="white"/>
<path d="M115.59 186.655L115.109 186.83L115.881 188.949L116.361 188.774L115.59 186.655Z" fill="white"/>
<path d="M125.691 214.403L125.211 214.578L125.982 216.697L126.462 216.522L125.691 214.403Z" fill="white"/>
<path d="M113.056 187.782L112.613 188.037L113.741 189.99L114.183 189.734L113.056 187.782Z" fill="white"/>
<path d="M127.818 213.354L127.375 213.609L128.503 215.562L128.945 215.307L127.818 213.354Z" fill="white"/>
<path d="M110.755 189.345L110.363 189.674L111.813 191.401L112.204 191.073L110.755 189.345Z" fill="white"/>
<path d="M129.763 211.968L129.371 212.297L130.821 214.024L131.212 213.696L129.763 211.968Z" fill="white"/>
<path d="M108.793 191.267L108.465 191.658L110.192 193.108L110.521 192.716L108.793 191.267Z" fill="white"/>
<path d="M131.387 210.253L131.059 210.645L132.786 212.094L133.114 211.703L131.387 210.253Z" fill="white"/>
<path d="M107.142 193.518L106.887 193.961L108.84 195.088L109.095 194.646L107.142 193.518Z" fill="white"/>
<path d="M132.744 208.28L132.488 208.723L134.441 209.85L134.697 209.408L132.744 208.28Z" fill="white"/>
<path d="M105.936 195.989L105.762 196.469L107.881 197.24L108.056 196.76L105.936 195.989Z" fill="white"/>
<path d="M133.683 206.086L133.508 206.566L135.627 207.338L135.802 206.857L133.683 206.086Z" fill="white"/>
<path d="M105.175 198.665L105.086 199.168L107.307 199.559L107.395 199.056L105.175 198.665Z" fill="white"/>
<path d="M134.253 203.792L134.164 204.295L136.385 204.686L136.474 204.183L134.253 203.792Z" fill="white"/>
<path d="M107.15 201.422H104.895V201.933H107.15V201.422Z" fill="white"/>
<path d="M136.677 201.422H134.422V201.933H136.677V201.422Z" fill="white"/>
<path d="M107.307 203.79L105.086 204.182L105.175 204.685L107.395 204.293L107.307 203.79Z" fill="white"/>
<path d="M136.385 198.665L134.164 199.057L134.253 199.56L136.473 199.168L136.385 198.665Z" fill="white"/>
<path d="M107.877 206.11L105.758 206.881L105.933 207.361L108.052 206.59L107.877 206.11Z" fill="white"/>
<path d="M135.623 196.012L133.504 196.783L133.679 197.263L135.798 196.492L135.623 196.012Z" fill="white"/>
<path d="M108.847 208.261L106.895 209.389L107.15 209.831L109.103 208.704L108.847 208.261Z" fill="white"/>
<path d="M134.418 193.497L132.465 194.625L132.72 195.068L134.673 193.94L134.418 193.497Z" fill="white"/>
<path d="M110.188 210.256L108.461 211.705L108.789 212.097L110.517 210.647L110.188 210.256Z" fill="white"/>
<path d="M132.79 191.256L131.062 192.705L131.391 193.096L133.118 191.647L132.79 191.256Z" fill="white"/>
<path d="M111.844 211.956L110.395 213.684L110.786 214.012L112.236 212.285L111.844 211.956Z" fill="white"/>
<path d="M130.817 189.341L129.367 191.068L129.759 191.397L131.208 189.67L130.817 189.341Z" fill="white"/>
<path d="M113.768 213.365L112.641 215.318L113.083 215.574L114.211 213.621L113.768 213.365Z" fill="white"/>
<path d="M128.502 187.78L127.375 189.732L127.818 189.988L128.945 188.035L128.502 187.78Z" fill="white"/>
<path d="M115.893 214.412L115.121 216.531L115.601 216.706L116.373 214.587L115.893 214.412Z" fill="white"/>
<path d="M125.994 186.666L125.223 188.785L125.703 188.96L126.474 186.841L125.994 186.666Z" fill="white"/>
<path d="M118.177 215.074L117.785 217.295L118.288 217.384L118.68 215.163L118.177 215.074Z" fill="white"/>
<path d="M123.29 185.986L122.898 188.207L123.402 188.296L123.793 186.075L123.29 185.986Z" fill="white"/>
<path d="M113.543 200.995C113.781 200.995 113.987 201.035 114.163 201.115C114.339 201.196 114.475 201.313 114.572 201.467C114.668 201.62 114.717 201.806 114.717 202.025C114.717 202.264 114.665 202.471 114.562 202.644C114.458 202.818 114.309 202.951 114.114 203.044C113.919 203.137 113.686 203.184 113.415 203.184C113.233 203.184 113.063 203.168 112.907 203.136C112.75 203.105 112.619 203.057 112.512 202.992V202.614C112.628 202.684 112.77 202.74 112.936 202.781C113.102 202.823 113.263 202.844 113.42 202.844C113.597 202.844 113.753 202.816 113.886 202.759C114.019 202.702 114.123 202.616 114.197 202.5C114.272 202.385 114.309 202.238 114.309 202.062C114.309 201.83 114.237 201.649 114.095 201.522C113.952 201.395 113.726 201.332 113.418 201.332C113.319 201.332 113.21 201.341 113.092 201.356C112.974 201.371 112.876 201.389 112.8 201.409L112.599 201.277L112.733 199.633H114.474V199.997H113.073L112.985 201.054C113.046 201.041 113.124 201.028 113.22 201.014C113.314 201.002 113.422 200.995 113.543 200.995Z" fill="white"/>
<path d="M117.537 203.134H115.242V202.801L116.179 201.851C116.353 201.675 116.5 201.519 116.619 201.381C116.738 201.243 116.828 201.109 116.89 200.975C116.953 200.842 116.984 200.696 116.984 200.536C116.984 200.338 116.925 200.186 116.808 200.082C116.691 199.978 116.536 199.926 116.345 199.926C116.178 199.926 116.029 199.954 115.9 200.012C115.771 200.07 115.638 200.151 115.502 200.256L115.289 199.987C115.381 199.909 115.482 199.84 115.592 199.779C115.702 199.718 115.819 199.671 115.944 199.635C116.069 199.599 116.203 199.582 116.345 199.582C116.56 199.582 116.746 199.619 116.903 199.694C117.059 199.769 117.18 199.877 117.266 200.015C117.352 200.153 117.394 200.319 117.394 200.511C117.394 200.696 117.357 200.867 117.284 201.027C117.21 201.186 117.107 201.343 116.975 201.499C116.843 201.655 116.687 201.82 116.51 201.994L115.748 202.753V202.77H117.538L117.537 203.134Z" fill="white"/>
<path d="M118.164 202.884C118.164 202.773 118.191 202.693 118.246 202.646C118.3 202.599 118.366 202.576 118.445 202.576C118.527 202.576 118.595 202.599 118.651 202.646C118.707 202.693 118.734 202.773 118.734 202.884C118.734 202.994 118.706 203.074 118.651 203.125C118.595 203.175 118.526 203.2 118.445 203.2C118.366 203.2 118.3 203.175 118.246 203.125C118.19 203.075 118.164 202.995 118.164 202.884Z" fill="white"/>
<path d="M120.814 203.134H120.426V200.653C120.426 200.559 120.426 200.478 120.427 200.41C120.427 200.343 120.429 200.28 120.432 200.223C120.434 200.166 120.438 200.109 120.443 200.049C120.393 200.101 120.347 200.144 120.304 200.18C120.261 200.216 120.207 200.26 120.143 200.313L119.743 200.634L119.535 200.363L120.484 199.633H120.815V203.134H120.814Z" fill="white"/>
<path d="M124.436 203.134H122.141V202.801L123.078 201.851C123.252 201.675 123.399 201.519 123.518 201.381C123.637 201.243 123.727 201.109 123.789 200.975C123.852 200.842 123.883 200.696 123.883 200.536C123.883 200.338 123.824 200.186 123.707 200.082C123.59 199.978 123.435 199.926 123.244 199.926C123.077 199.926 122.928 199.954 122.799 200.012C122.67 200.07 122.537 200.151 122.401 200.256L122.188 199.987C122.28 199.909 122.381 199.84 122.491 199.779C122.601 199.718 122.718 199.671 122.843 199.635C122.968 199.599 123.102 199.582 123.244 199.582C123.459 199.582 123.645 199.619 123.802 199.694C123.958 199.769 124.079 199.877 124.165 200.015C124.251 200.153 124.293 200.319 124.293 200.511C124.293 200.696 124.256 200.867 124.183 201.027C124.109 201.186 124.006 201.343 123.874 201.499C123.742 201.655 123.586 201.82 123.409 201.994L122.647 202.753V202.77H124.437L124.436 203.134Z" fill="white"/>
<path d="M125.062 202.884C125.062 202.773 125.09 202.693 125.145 202.646C125.199 202.599 125.264 202.576 125.343 202.576C125.425 202.576 125.493 202.599 125.549 202.646C125.605 202.693 125.632 202.773 125.632 202.884C125.632 202.994 125.604 203.074 125.549 203.125C125.493 203.175 125.424 203.2 125.343 203.2C125.264 203.2 125.199 203.175 125.145 203.125C125.09 203.075 125.062 202.995 125.062 202.884Z" fill="white"/>
<path d="M128.547 201.379C128.547 201.663 128.526 201.917 128.483 202.141C128.44 202.365 128.372 202.554 128.279 202.709C128.186 202.863 128.067 202.981 127.92 203.062C127.773 203.143 127.597 203.183 127.391 203.183C127.131 203.183 126.915 203.113 126.745 202.97C126.575 202.828 126.448 202.622 126.364 202.353C126.28 202.084 126.238 201.76 126.238 201.379C126.238 201.006 126.276 200.685 126.352 200.415C126.428 200.146 126.551 199.939 126.72 199.795C126.889 199.65 127.113 199.578 127.391 199.578C127.654 199.578 127.871 199.649 128.042 199.793C128.213 199.936 128.34 200.142 128.423 200.41C128.505 200.679 128.547 201.003 128.547 201.379ZM126.638 201.379C126.638 201.705 126.663 201.977 126.713 202.193C126.762 202.411 126.842 202.573 126.954 202.68C127.065 202.788 127.21 202.842 127.391 202.842C127.571 202.842 127.717 202.788 127.828 202.682C127.939 202.575 128.019 202.412 128.07 202.196C128.12 201.978 128.146 201.707 128.146 201.379C128.146 201.059 128.121 200.79 128.072 200.573C128.022 200.357 127.943 200.194 127.832 200.085C127.722 199.976 127.575 199.921 127.392 199.921C127.209 199.921 127.061 199.976 126.951 200.085C126.841 200.194 126.762 200.357 126.713 200.573C126.662 200.79 126.638 201.058 126.638 201.379Z" fill="white"/>
<path d="M131.352 201.379C131.352 201.663 131.331 201.917 131.288 202.141C131.245 202.365 131.177 202.554 131.084 202.709C130.991 202.863 130.872 202.981 130.725 203.062C130.578 203.143 130.402 203.183 130.196 203.183C129.936 203.183 129.72 203.113 129.55 202.97C129.38 202.828 129.253 202.622 129.169 202.353C129.085 202.084 129.043 201.76 129.043 201.379C129.043 201.006 129.081 200.685 129.157 200.415C129.233 200.146 129.356 199.939 129.525 199.795C129.694 199.65 129.918 199.578 130.196 199.578C130.459 199.578 130.676 199.649 130.847 199.793C131.018 199.936 131.145 200.142 131.228 200.41C131.31 200.679 131.352 201.003 131.352 201.379ZM129.442 201.379C129.442 201.705 129.467 201.977 129.517 202.193C129.566 202.411 129.646 202.573 129.758 202.68C129.869 202.788 130.014 202.842 130.195 202.842C130.375 202.842 130.521 202.788 130.632 202.682C130.743 202.575 130.823 202.412 130.874 202.196C130.924 201.978 130.95 201.707 130.95 201.379C130.95 201.059 130.925 200.79 130.876 200.573C130.826 200.357 130.747 200.194 130.636 200.085C130.526 199.976 130.379 199.921 130.196 199.921C130.013 199.921 129.865 199.976 129.755 200.085C129.645 200.194 129.566 200.357 129.517 200.573C129.467 200.79 129.442 201.058 129.442 201.379Z" fill="white"/>
<path d="M120.784 241.33C112.387 241.33 105.586 248.131 105.586 256.528C105.586 264.925 112.387 271.733 120.784 271.733C129.181 271.733 135.989 264.924 135.989 256.528C135.99 248.131 129.181 241.33 120.784 241.33ZM120.784 265.859C115.63 265.859 111.454 261.683 111.454 256.528C111.454 251.381 115.63 247.197 120.784 247.197C125.938 247.197 130.115 251.381 130.115 256.528C130.115 261.682 125.939 265.859 120.784 265.859Z" fill="url(#paint47_linear_4224_12974)"/>
<path d="M119.604 258.575H117.309V258.242L118.246 257.292C118.42 257.116 118.567 256.96 118.686 256.822C118.805 256.684 118.895 256.55 118.957 256.416C119.02 256.283 119.051 256.137 119.051 255.977C119.051 255.779 118.992 255.627 118.875 255.523C118.758 255.419 118.603 255.367 118.412 255.367C118.245 255.367 118.096 255.395 117.967 255.453C117.838 255.511 117.705 255.592 117.569 255.697L117.356 255.428C117.448 255.35 117.549 255.281 117.659 255.22C117.769 255.159 117.886 255.112 118.011 255.076C118.136 255.04 118.27 255.023 118.412 255.023C118.627 255.023 118.813 255.06 118.97 255.135C119.126 255.21 119.247 255.318 119.333 255.456C119.419 255.594 119.461 255.76 119.461 255.952C119.461 256.137 119.424 256.308 119.351 256.468C119.277 256.627 119.174 256.784 119.042 256.94C118.91 257.096 118.754 257.261 118.577 257.435L117.815 258.194V258.211H119.605V258.575H119.604Z" fill="white"/>
<path d="M121.222 256.434C121.46 256.434 121.666 256.474 121.842 256.554C122.018 256.635 122.154 256.752 122.251 256.906C122.347 257.059 122.396 257.245 122.396 257.464C122.396 257.703 122.344 257.91 122.241 258.083C122.137 258.257 121.988 258.39 121.793 258.483C121.598 258.576 121.365 258.623 121.094 258.623C120.912 258.623 120.742 258.607 120.586 258.575C120.429 258.544 120.298 258.496 120.191 258.431V258.053C120.307 258.123 120.449 258.179 120.615 258.22C120.781 258.262 120.942 258.283 121.099 258.283C121.276 258.283 121.432 258.255 121.565 258.198C121.698 258.141 121.802 258.055 121.876 257.939C121.951 257.824 121.988 257.677 121.988 257.501C121.988 257.269 121.916 257.088 121.774 256.961C121.631 256.834 121.405 256.771 121.097 256.771C120.998 256.771 120.889 256.78 120.771 256.795C120.653 256.81 120.555 256.828 120.479 256.848L120.278 256.716L120.412 255.072H122.153V255.436H120.752L120.664 256.493C120.725 256.48 120.803 256.467 120.899 256.453C120.992 256.441 121.1 256.434 121.222 256.434Z" fill="white"/>
<path d="M123.63 255.023C123.87 255.023 124.051 255.119 124.175 255.309C124.299 255.499 124.361 255.769 124.361 256.118C124.361 256.466 124.301 256.737 124.181 256.931C124.061 257.125 123.878 257.222 123.63 257.222C123.4 257.222 123.224 257.125 123.102 256.931C122.979 256.738 122.918 256.466 122.918 256.118C122.918 255.769 122.977 255.5 123.093 255.309C123.21 255.119 123.389 255.023 123.63 255.023ZM123.63 255.308C123.501 255.308 123.406 255.375 123.345 255.51C123.284 255.645 123.254 255.847 123.254 256.117C123.254 256.387 123.284 256.591 123.345 256.727C123.406 256.865 123.5 256.933 123.63 256.933C123.764 256.933 123.864 256.865 123.929 256.727C123.994 256.59 124.028 256.386 124.028 256.117C124.028 255.848 123.995 255.646 123.931 255.511C123.866 255.376 123.766 255.308 123.63 255.308ZM125.849 255.073L123.906 258.575H123.556L125.498 255.073H125.849ZM125.755 256.426C125.993 256.426 126.174 256.522 126.299 256.712C126.424 256.903 126.486 257.173 126.486 257.521C126.486 257.868 126.426 258.138 126.307 258.332C126.187 258.526 126.003 258.623 125.756 258.623C125.525 258.623 125.348 258.526 125.227 258.332C125.106 258.139 125.045 257.868 125.045 257.521C125.045 257.173 125.103 256.904 125.219 256.712C125.333 256.522 125.512 256.426 125.755 256.426ZM125.755 256.715C125.626 256.715 125.531 256.781 125.47 256.916C125.409 257.05 125.379 257.252 125.379 257.521C125.379 257.79 125.409 257.994 125.47 258.13C125.531 258.267 125.625 258.335 125.755 258.335C125.889 258.335 125.989 258.268 126.054 258.133C126.12 257.998 126.153 257.794 126.153 257.521C126.153 257.252 126.12 257.051 126.056 256.917C125.991 256.782 125.891 256.715 125.755 256.715Z" fill="white"/>
<path d="M120.783 241.33V247.197C115.629 247.197 111.453 251.381 111.453 256.528H105.586C105.586 248.131 112.387 241.33 120.783 241.33Z" fill="white"/>
<path d="M133.872 225.76H107.699V229.207H133.872V225.76Z" fill="white"/>
<path d="M133.872 178.654H107.699V182.101H133.872V178.654Z" fill="white"/>
<path d="M133.872 231.348H107.699V234.795H133.872V231.348Z" fill="white"/>
<path d="M137.432 165.225H103.879V172.469H137.432V165.225Z" fill="white"/>
<path d="M282.811 147.712C282.811 149.009 282.346 150.205 281.576 151.127C280.593 152.305 279.12 153.051 277.472 153.051C275.824 153.051 274.347 152.305 273.368 151.127C272.598 150.205 272.133 149.009 272.133 147.712C272.133 144.762 274.522 142.373 277.472 142.373C280.417 142.373 282.811 144.762 282.811 147.712Z" fill="url(#paint48_linear_4224_12974)"/>
<path d="M277.469 143.732C275.937 143.732 275.75 144.992 275.75 145.785C275.75 146.577 276.086 148.017 277.469 148.017C278.852 148.017 279.188 146.578 279.188 145.785C279.188 144.992 279.001 143.732 277.469 143.732Z" fill="white"/>
<path d="M281.575 150.291V151.127C280.592 152.305 279.119 153.051 277.471 153.051C275.823 153.051 274.346 152.305 273.367 151.127V150.291C273.367 149.123 274.436 148.686 276.212 148.016C276.212 148.016 276.611 148.534 277.471 148.534C278.331 148.534 278.73 148.016 278.73 148.016C280.507 148.685 281.575 149.122 281.575 150.291Z" fill="white"/>
<path d="M312.949 145.826H285.082V149.356H312.949V145.826Z" fill="white"/>
<path d="M328.146 145.451H322.586V146.297H328.146V145.451Z" fill="white"/>
<path d="M328.146 147.594H322.586V148.44H328.146V147.594Z" fill="white"/>
<path d="M328.146 149.734H322.586V150.58H328.146V149.734Z" fill="white"/>
<path d="M105.144 147.439C105.144 147.833 105.094 148.19 104.994 148.513C104.894 148.836 104.745 149.113 104.549 149.345C104.352 149.576 104.109 149.756 103.818 149.882C103.526 150.007 103.189 150.069 102.805 150.069C102.409 150.069 102.064 150.007 101.769 149.882C101.474 149.756 101.23 149.576 101.035 149.343C100.841 149.11 100.695 148.832 100.598 148.508C100.501 148.184 100.453 147.826 100.453 147.432C100.453 146.91 100.539 146.453 100.712 146.059C100.885 145.665 101.146 145.359 101.496 145.141C101.846 144.922 102.286 144.812 102.814 144.812C103.319 144.812 103.745 144.92 104.091 145.137C104.437 145.353 104.699 145.658 104.877 146.05C105.055 146.443 105.144 146.905 105.144 147.439ZM101.078 147.439C101.078 147.872 101.14 148.247 101.263 148.564C101.387 148.88 101.576 149.126 101.831 149.298C102.086 149.47 102.41 149.555 102.804 149.555C103.2 149.555 103.524 149.47 103.777 149.298C104.03 149.126 104.216 148.88 104.338 148.564C104.459 148.247 104.52 147.872 104.52 147.439C104.52 146.78 104.382 146.265 104.106 145.893C103.83 145.522 103.399 145.337 102.815 145.337C102.419 145.337 102.093 145.421 101.837 145.591C101.581 145.761 101.391 146.003 101.266 146.316C101.14 146.629 101.078 147.003 101.078 147.439Z" fill="white"/>
<path d="M110.271 149.999H109.586L106.802 145.709H106.774C106.781 145.823 106.789 145.953 106.798 146.099C106.807 146.245 106.815 146.399 106.82 146.563C106.825 146.727 106.829 146.895 106.829 147.064V149.998H106.277V144.891H106.958L109.731 149.166H109.755C109.751 149.084 109.745 148.969 109.737 148.819C109.73 148.669 109.724 148.506 109.718 148.333C109.712 148.16 109.709 147.999 109.709 147.849V144.891H110.268V149.999H110.271Z" fill="white"/>
<path d="M111.668 150V144.893H112.262V149.469H114.529V150H111.668Z" fill="white"/>
<path d="M115.398 150V144.893H115.992V150H115.398Z" fill="white"/>
<path d="M121.392 149.999H120.707L117.923 145.709H117.895C117.902 145.823 117.91 145.953 117.919 146.099C117.928 146.245 117.936 146.399 117.941 146.563C117.946 146.727 117.95 146.895 117.95 147.064V149.998H117.398V144.891H118.079L120.852 149.166H120.876C120.872 149.084 120.866 148.969 120.858 148.819C120.851 148.669 120.845 148.506 120.839 148.333C120.833 148.16 120.83 147.999 120.83 147.849V144.891H121.389V149.999H121.392Z" fill="white"/>
<path d="M125.628 150H122.785V144.893H125.628V145.417H123.378V147.069H125.498V147.586H123.378V149.476H125.628V150Z" fill="white"/>
<path d="M130.8 145.343C130.518 145.343 130.265 145.391 130.04 145.488C129.815 145.585 129.624 145.724 129.467 145.907C129.31 146.09 129.189 146.31 129.105 146.569C129.022 146.827 128.98 147.118 128.98 147.442C128.98 147.871 129.047 148.243 129.181 148.558C129.315 148.873 129.515 149.118 129.782 149.29C130.049 149.462 130.382 149.548 130.782 149.548C131.011 149.548 131.225 149.529 131.427 149.49C131.629 149.451 131.825 149.403 132.016 149.345V149.862C131.829 149.932 131.634 149.984 131.429 150.017C131.224 150.051 130.981 150.068 130.699 150.068C130.179 150.068 129.746 149.961 129.398 149.745C129.05 149.53 128.789 149.225 128.615 148.832C128.441 148.439 128.355 147.974 128.355 147.438C128.355 147.051 128.409 146.698 128.518 146.378C128.627 146.058 128.785 145.781 128.993 145.548C129.201 145.315 129.457 145.135 129.762 145.008C130.066 144.882 130.414 144.818 130.808 144.818C131.067 144.818 131.316 144.843 131.556 144.895C131.796 144.946 132.013 145.02 132.206 145.115L131.969 145.618C131.806 145.543 131.627 145.479 131.432 145.424C131.236 145.37 131.026 145.343 130.8 145.343Z" fill="white"/>
<path d="M135.968 150H133.125V144.893H135.968V145.417H133.718V147.069H135.838V147.586H133.718V149.476H135.968V150Z" fill="white"/>
<path d="M138.481 144.893C138.9 144.893 139.246 144.945 139.52 145.048C139.793 145.152 139.998 145.31 140.133 145.522C140.268 145.734 140.335 146.004 140.335 146.332C140.335 146.603 140.286 146.828 140.189 147.008C140.091 147.188 139.963 147.334 139.805 147.446C139.647 147.558 139.478 147.644 139.299 147.705L140.699 150H140.008L138.758 147.869H137.696V150H137.102V144.893H138.481ZM138.446 145.406H137.695V147.366H138.506C138.923 147.366 139.23 147.281 139.426 147.111C139.622 146.941 139.721 146.691 139.721 146.36C139.721 146.013 139.617 145.767 139.408 145.623C139.199 145.479 138.879 145.406 138.446 145.406Z" fill="white"/>
<path d="M143.083 150H142.486V145.417H140.879V144.893H144.683V145.417H143.083V150Z" fill="white"/>
<path d="M145.457 150V144.893H146.051V150H145.457Z" fill="white"/>
<path d="M148.047 150H147.453V144.893H150.296V145.417H148.046V147.289H150.159V147.81H148.046V150H148.047Z" fill="white"/>
<path d="M151.145 150V144.893H151.739V150H151.145Z" fill="white"/>
<path d="M155.328 145.343C155.046 145.343 154.793 145.391 154.568 145.488C154.343 145.585 154.152 145.724 153.995 145.907C153.838 146.09 153.717 146.31 153.633 146.569C153.55 146.827 153.508 147.118 153.508 147.442C153.508 147.871 153.575 148.243 153.709 148.558C153.843 148.873 154.043 149.118 154.31 149.29C154.577 149.462 154.91 149.548 155.31 149.548C155.539 149.548 155.753 149.529 155.955 149.49C156.157 149.451 156.353 149.403 156.544 149.345V149.862C156.357 149.932 156.162 149.984 155.957 150.017C155.752 150.051 155.509 150.068 155.227 150.068C154.707 150.068 154.274 149.961 153.926 149.745C153.578 149.53 153.317 149.225 153.143 148.832C152.969 148.439 152.883 147.974 152.883 147.438C152.883 147.051 152.937 146.698 153.046 146.378C153.155 146.058 153.313 145.781 153.521 145.548C153.729 145.315 153.985 145.135 154.29 145.008C154.594 144.882 154.942 144.818 155.336 144.818C155.595 144.818 155.844 144.843 156.084 144.895C156.324 144.946 156.541 145.02 156.734 145.115L156.497 145.618C156.334 145.543 156.155 145.479 155.96 145.424C155.764 145.37 155.554 145.343 155.328 145.343Z" fill="white"/>
<path d="M160.851 149.999L160.222 148.378H158.175L157.55 149.999H156.949L158.947 144.871H159.482L161.466 149.999H160.851ZM160.043 147.851L159.446 146.241C159.432 146.199 159.409 146.131 159.378 146.035C159.346 145.94 159.315 145.841 159.282 145.738C159.249 145.635 159.222 145.553 159.201 145.49C159.178 145.586 159.153 145.68 159.126 145.775C159.099 145.869 159.073 145.957 159.047 146.037C159.021 146.117 158.999 146.185 158.981 146.241L158.373 147.851H160.043Z" fill="white"/>
<path d="M163.743 150H163.146V145.417H161.539V144.893H165.343V145.417H163.743V150Z" fill="white"/>
<path d="M166.113 150V144.893H166.707V150H166.113Z" fill="white"/>
<path d="M172.543 147.439C172.543 147.833 172.493 148.19 172.393 148.513C172.293 148.836 172.144 149.113 171.948 149.345C171.751 149.576 171.508 149.756 171.217 149.882C170.925 150.007 170.588 150.069 170.204 150.069C169.808 150.069 169.463 150.007 169.168 149.882C168.873 149.756 168.629 149.576 168.434 149.343C168.24 149.11 168.094 148.832 167.997 148.508C167.9 148.184 167.852 147.826 167.852 147.432C167.852 146.91 167.938 146.453 168.111 146.059C168.284 145.665 168.545 145.359 168.895 145.141C169.245 144.922 169.685 144.812 170.213 144.812C170.718 144.812 171.144 144.92 171.49 145.137C171.836 145.353 172.098 145.658 172.276 146.05C172.454 146.443 172.543 146.905 172.543 147.439ZM168.477 147.439C168.477 147.872 168.539 148.247 168.662 148.564C168.786 148.88 168.975 149.126 169.23 149.298C169.485 149.47 169.809 149.555 170.203 149.555C170.599 149.555 170.923 149.47 171.176 149.298C171.429 149.126 171.615 148.88 171.737 148.564C171.858 148.247 171.919 147.872 171.919 147.439C171.919 146.78 171.781 146.265 171.505 145.893C171.229 145.522 170.798 145.337 170.214 145.337C169.818 145.337 169.492 145.421 169.236 145.591C168.98 145.761 168.79 146.003 168.665 146.316C168.539 146.629 168.477 147.003 168.477 147.439Z" fill="white"/>
<path d="M177.67 149.999H176.985L174.201 145.709H174.173C174.18 145.823 174.188 145.953 174.197 146.099C174.206 146.245 174.214 146.399 174.219 146.563C174.224 146.727 174.228 146.895 174.228 147.064V149.998H173.676V144.891H174.357L177.13 149.166H177.154C177.15 149.084 177.144 148.969 177.136 148.819C177.129 148.669 177.123 148.506 177.117 148.333C177.111 148.16 177.108 147.999 177.108 147.849V144.891H177.667V149.999H177.67Z" fill="white"/>
<path d="M351.052 311.845H69.9476C63.1746 311.845 57.6836 306.354 57.6836 299.58V297.271H363.317V299.58C363.316 306.354 357.825 311.845 351.052 311.845Z" fill="url(#paint49_linear_4224_12974)"/>
<path d="M228.784 302.682H194.981C191.992 302.682 189.57 300.259 189.57 297.271H234.196C234.195 300.259 231.772 302.682 228.784 302.682Z" fill="url(#paint50_linear_4224_12974)"/>
<path d="M209.91 132.65C209.91 131.562 210.792 130.68 211.88 130.68C212.968 130.68 213.85 131.562 213.85 132.65C213.85 133.738 212.968 134.62 211.88 134.62C210.792 134.62 209.91 133.738 209.91 132.65Z" fill="url(#paint51_linear_4224_12974)"/>
<path d="M210.762 132.649C210.762 132.03 211.264 131.529 211.882 131.529C212.501 131.529 213.002 132.031 213.002 132.649C213.002 133.268 212.5 133.769 211.882 133.769C211.263 133.769 210.762 133.268 210.762 132.649Z" fill="url(#paint52_linear_4224_12974)"/>
<path d="M172.197 297.272H122.73L205.447 125.633H254.914L172.197 297.272Z" fill="url(#paint53_linear_4224_12974)"/>
<path d="M277.137 125.635L194.419 297.275H180.633L263.35 125.635H277.137Z" fill="url(#paint54_linear_4224_12974)"/>
<path d="M240.853 31.7389C240.853 42.1109 235.869 51.3179 228.168 57.0939C222.867 61.0709 216.291 63.4329 209.159 63.4329C202.028 63.4329 195.451 61.0719 190.151 57.0939C182.449 51.3179 177.465 42.1109 177.465 31.7389C177.465 14.2359 191.656 0.0449219 209.159 0.0449219C226.662 0.0449219 240.853 14.2359 240.853 31.7389Z" fill="url(#paint55_linear_4224_12974)"/>
<path d="M228.165 14.7031V57.0941C222.864 61.0711 216.288 63.4331 209.156 63.4331C202.025 63.4331 195.448 61.0721 190.148 57.0941V14.7031H228.165Z" fill="url(#paint56_linear_4224_12974)"/>
<path d="M231.571 63.2154C236.617 63.2154 240.708 59.1246 240.708 54.0784C240.708 49.0322 236.617 44.9414 231.571 44.9414C226.524 44.9414 222.434 49.0322 222.434 54.0784C222.434 59.1246 226.524 63.2154 231.571 63.2154Z" fill="url(#paint57_linear_4224_12974)"/>
<path d="M226.441 54.4066L230.462 58.4286L237.805 51.0866L236.445 49.7266L230.462 55.7086L227.801 53.0466L226.441 54.4066Z" fill="white"/>
<path d="M143.912 31.7389C143.912 42.1109 138.928 51.3179 131.226 57.0939C125.925 61.0709 119.349 63.4329 112.217 63.4329C105.086 63.4329 98.5094 61.0719 93.2094 57.0939C85.5074 51.3179 80.5234 42.1109 80.5234 31.7389C80.5234 14.2359 94.7144 0.0449219 112.217 0.0449219C129.721 0.0449219 143.912 14.2359 143.912 31.7389Z" fill="url(#paint58_linear_4224_12974)"/>
<path d="M131.228 14.7031V57.0941C125.927 61.0711 119.351 63.4331 112.219 63.4331C105.088 63.4331 98.5109 61.0721 93.2109 57.0941V14.7031H131.228Z" fill="url(#paint59_linear_4224_12974)"/>
<path d="M107.201 24.8252C107.201 26.0402 106.765 27.1612 106.044 28.0242C105.123 29.1272 103.744 29.8262 102.2 29.8262C100.656 29.8262 99.2732 29.1272 98.3562 28.0242C97.6352 27.1612 97.1992 26.0402 97.1992 24.8252C97.1992 22.0622 99.4372 19.8242 102.2 19.8242C104.959 19.8252 107.201 22.0632 107.201 24.8252Z" fill="url(#paint60_linear_4224_12974)"/>
<path d="M102.2 21.0977C100.765 21.0977 100.59 22.2777 100.59 23.0207C100.59 23.7627 100.904 25.1107 102.2 25.1107C103.496 25.1107 103.81 23.7627 103.81 23.0207C103.81 22.2777 103.635 21.0977 102.2 21.0977Z" fill="white"/>
<path d="M106.043 27.2404V28.0234C105.122 29.1264 103.743 29.8254 102.199 29.8254C100.655 29.8254 99.2725 29.1264 98.3555 28.0234V27.2404C98.3555 26.1464 99.3565 25.7364 101.02 25.1094C101.02 25.1094 101.394 25.5944 102.199 25.5944C103.004 25.5944 103.378 25.1094 103.378 25.1094C105.042 25.7364 106.043 26.1464 106.043 27.2404Z" fill="white"/>
<path d="M121.93 20.9082H111.371V22.1812H121.93V20.9082Z" fill="#0A5840"/>
<path d="M121.93 24.1895H111.371V25.4624H121.93V24.1895Z" fill="#0A5840"/>
<path d="M121.93 27.4688H111.371V28.7417H121.93V27.4688Z" fill="#0A5840"/>
<path d="M126.533 31.7383H97.1992V33.0113H126.533V31.7383Z" fill="#0A5840"/>
<path d="M126.533 35.7148H97.1992V36.9878H126.533V35.7148Z" fill="#0A5840"/>
<path d="M126.533 39.6914H97.1992V40.9644H126.533V39.6914Z" fill="#0A5840"/>
<path d="M126.533 43.668H97.1992V44.941H126.533V43.668Z" fill="#0A5840"/>
<path d="M126.533 47.6445H97.1992V48.9175H126.533V47.6445Z" fill="#0A5840"/>
<path d="M126.533 51.6191H97.1992V52.8921H126.533V51.6191Z" fill="#0A5840"/>
<path d="M126.533 55.5957H97.1992V56.8687H126.533V55.5957Z" fill="#0A5840"/>
<path d="M134.301 26.6426L111.453 49.4896L113.824 51.8596L136.671 29.0126L134.301 26.6426Z" fill="url(#paint61_linear_4224_12974)"/>
<path d="M108.117 55.5586L108.896 54.1406C109.081 54.3256 109.265 54.5096 109.45 54.6946L108.117 55.5586Z" fill="url(#paint62_linear_4224_12974)"/>
<path d="M113.823 51.8602L109.452 54.6942C109.267 54.5092 109.083 54.3252 108.898 54.1402L111.453 49.4902L113.823 51.8602Z" fill="url(#paint63_linear_4224_12974)"/>
<path d="M135.024 25.9293L134.312 26.6406L136.683 29.0112L137.394 28.2998L135.024 25.9293Z" fill="white"/>
<path d="M136.277 24.6665L135.012 25.9315L137.382 28.3015L138.647 27.0365C139.257 26.4265 139.257 25.4365 138.647 24.8265L138.487 24.6665C137.877 24.0565 136.887 24.0565 136.277 24.6665Z" fill="url(#paint64_linear_4224_12974)"/>
<path d="M134.633 63.2154C139.679 63.2154 143.77 59.1246 143.77 54.0784C143.77 49.0322 139.679 44.9414 134.633 44.9414C129.587 44.9414 125.496 49.0322 125.496 54.0784C125.496 59.1246 129.587 63.2154 134.633 63.2154Z" fill="url(#paint65_linear_4224_12974)"/>
<path d="M129.504 54.4066L133.525 58.4286L140.868 51.0866L139.508 49.7266L133.525 55.7086L130.864 53.0466L129.504 54.4066Z" fill="white"/>
<path d="M171.78 29.9805C170.946 29.9805 170.251 30.5625 170.071 31.3425H147.836V32.1345H170.071C170.251 32.9135 170.946 33.4955 171.78 33.4955C172.751 33.4955 173.538 32.7085 173.538 31.7375C173.538 30.7685 172.751 29.9805 171.78 29.9805Z" fill="url(#paint66_linear_4224_12974)"/>
<path d="M271.452 29.9805C270.618 29.9805 269.923 30.5625 269.743 31.3425H247.508V32.1345H269.743C269.923 32.9135 270.618 33.4955 271.452 33.4955C272.423 33.4955 273.21 32.7085 273.21 31.7375C273.21 30.7685 272.423 29.9805 271.452 29.9805Z" fill="url(#paint67_linear_4224_12974)"/>
<path d="M217.405 21.3711H194.27V22.6441H217.405V21.3711Z" fill="#0A5840"/>
<path d="M210.498 24.041H194.27V25.314H210.498V24.041Z" fill="#0A5840"/>
<path d="M224.399 22.0574L223.838 21.4975L222.153 23.1824L221.332 22.3615L220.772 22.9224L222.153 24.3035L222.988 23.4675V24.5214H220.698V22.2315H222.362L223.154 21.4395H219.906V25.3134H223.78V22.6755L224.399 22.0574Z" fill="url(#paint68_linear_4224_12974)"/>
<path d="M217.405 28.8809H194.27V30.1539H217.405V28.8809Z" fill="#0A5840"/>
<path d="M210.498 31.5508H194.27V32.8238H210.498V31.5508Z" fill="#0A5840"/>
<path d="M224.399 29.5672L223.838 29.0072L222.153 30.6932L221.332 29.8722L220.772 30.4322L222.153 31.8132L222.988 30.9782V32.0312H220.698V29.7412H222.362L223.154 28.9492H219.906V32.8242H223.78V30.1862L224.399 29.5672Z" fill="url(#paint69_linear_4224_12974)"/>
<path d="M217.405 36.3926H194.27V37.6656H217.405V36.3926Z" fill="#0A5840"/>
<path d="M210.498 39.0625H194.27V40.3355H210.498V39.0625Z" fill="#0A5840"/>
<path d="M224.399 37.078L223.838 36.517L222.153 38.203L221.332 37.382L220.772 37.942L222.153 39.324L222.988 38.488V39.542H220.698V37.252H222.362L223.154 36.459H219.906V40.334H223.78V37.696L224.399 37.078Z" fill="url(#paint70_linear_4224_12974)"/>
<path d="M217.405 43.9023H194.27V45.1753H217.405V43.9023Z" fill="#0A5840"/>
<path d="M210.498 46.5723H194.27V47.8453H210.498V46.5723Z" fill="#0A5840"/>
<path d="M224.399 44.5887L223.838 44.0287L222.153 45.7137L221.332 44.8927L220.772 45.4537L222.153 46.8347L222.988 45.9997V47.0527H220.698V44.7627H222.362L223.154 43.9707H219.906V47.8447H223.78V45.2067L224.399 44.5887Z" fill="url(#paint71_linear_4224_12974)"/>
<path d="M217.405 51.4121H194.27V52.6851H217.405V51.4121Z" fill="#0A5840"/>
<path d="M210.498 54.082H194.27V55.355H210.498V54.082Z" fill="#0A5840"/>
<path d="M343.237 31.7389C343.237 42.1109 338.253 51.3179 330.552 57.0939C325.251 61.0709 318.675 63.4329 311.543 63.4329C304.411 63.4329 297.835 61.0719 292.534 57.0939C284.832 51.3179 279.848 42.1109 279.848 31.7389C279.848 14.2359 294.039 0.0449219 311.542 0.0449219C329.046 0.0449219 343.237 14.2359 343.237 31.7389Z" fill="url(#paint72_linear_4224_12974)"/>
<path d="M330.548 14.7031V57.0941C329.51 57.8701 328.424 58.5911 327.291 59.2331C327.03 59.3911 326.768 59.5341 326.499 59.6771C322.046 62.0701 316.951 63.4331 311.539 63.4331C306.048 63.4331 300.89 62.0311 296.389 59.5661C296.119 59.4311 295.858 59.2811 295.597 59.1221C294.535 58.5121 293.513 57.8301 292.531 57.0941V14.7031H330.548Z" fill="url(#paint73_linear_4224_12974)"/>
<path d="M327.291 18.9092V59.2322C327.03 59.3902 326.768 59.5332 326.499 59.6762V19.7012H296.39V59.5642C296.12 59.4292 295.859 59.2792 295.598 59.1202V18.9082H327.291V18.9092Z" fill="url(#paint74_linear_4224_12974)"/>
<path d="M295.564 23.8887L298.405 24.6927L296.65 30.8887L296.37 30.4077L296.234 30.1757L295.616 29.1187L294.536 29.6947L294.298 29.8217L293.809 30.0837L295.564 23.8887Z" fill="url(#paint75_linear_4224_12974)"/>
<path d="M301.16 23.6289L298.406 24.6919L300.725 30.6989L300.96 30.1939L301.074 29.9509L301.591 28.8409L302.72 29.3149L302.968 29.4199L303.48 29.6349L301.16 23.6289Z" fill="url(#paint76_linear_4224_12974)"/>
<path d="M303.726 21.1005L302.66 22.2815L303.136 23.7985L301.622 24.2865L301.277 25.8395L299.722 25.5055L298.645 26.6755L297.465 25.6095L295.947 26.0855L295.46 24.5715L293.907 24.2265L294.24 22.6715L293.07 21.5945L294.136 20.4145L293.66 18.8965L295.174 18.4095L295.52 16.8565L297.075 17.1895L298.151 16.0195L299.332 17.0855L300.849 16.6095L301.337 18.1235L302.89 18.4695L302.556 20.0245L303.726 21.1005Z" fill="url(#paint77_linear_4224_12974)"/>
<path d="M302.172 21.1205C302.265 23.1315 300.711 24.8365 298.7 24.9295C296.689 25.0225 294.984 23.4685 294.891 21.4575C294.798 19.4465 296.352 17.7415 298.363 17.6485C300.373 17.5555 302.079 19.1095 302.172 21.1205Z" fill="url(#paint78_linear_4224_12974)"/>
<path d="M296.504 21.392L297.949 22.837L300.559 20.227L299.999 19.666L297.949 21.716L297.064 20.831L296.504 21.392Z" fill="url(#paint79_linear_4224_12974)"/>
<path d="M320.436 24.4785H304.539V26.5965H320.436V24.4785Z" fill="#0A5840"/>
<path d="M324.259 32.7969H300.711V33.8559H324.259V32.7969Z" fill="#0A5840"/>
<path d="M324.259 39.8047H300.711V40.8637H324.259V39.8047Z" fill="#0A5840"/>
<path d="M324.259 47.0469H300.711V48.1059H324.259V47.0469Z" fill="#0A5840"/>
<path d="M324.259 49.5352H300.711V50.5941H324.259V49.5352Z" fill="#0A5840"/>
<path d="M324.259 52.0234H300.711V53.0824H324.259V52.0234Z" fill="#0A5840"/>
<path d="M324.259 54.5117H300.711V55.5707H324.259V54.5117Z" fill="#0A5840"/>
<path d="M324.259 57H300.711V58.059H324.259V57Z" fill="#0A5840"/>
<path d="M320.843 42.4277H304.129V43.4867H320.843V42.4277Z" fill="#0A5840"/>
<path d="M320.436 36.1211H304.539V38.2391H320.436V36.1211Z" fill="#0A5840"/>
<path d="M333.957 63.2154C339.004 63.2154 343.094 59.1246 343.094 54.0784C343.094 49.0322 339.004 44.9414 333.957 44.9414C328.911 44.9414 324.82 49.0322 324.82 54.0784C324.82 59.1246 328.911 63.2154 333.957 63.2154Z" fill="url(#paint80_linear_4224_12974)"/>
<path d="M328.828 54.4066L332.849 58.4286L340.193 51.0866L338.832 49.7266L332.849 55.7086L330.189 53.0466L328.828 54.4066Z" fill="white"/>
<path d="M57.9927 134.735C50.9377 144.187 46.2547 156.463 47.9067 168.379C48.7507 174.47 51.4987 179.674 55.1287 184.555C58.6637 189.306 62.5887 193.96 63.7477 199.934C64.9447 206.102 63.1077 212.534 59.4597 217.541C58.3127 219.115 60.8077 220.958 62.1257 219.597C66.2467 215.341 68.4417 209.359 68.3897 203.464C68.3347 197.179 65.7087 191.802 62.0077 186.864C58.3827 182.027 54.2887 177.484 52.5037 171.58C50.8377 166.071 50.9527 160.179 52.2467 154.607C53.7807 148.003 56.8087 141.843 60.7177 136.327C61.2137 135.626 60.8367 134.579 60.1517 134.168C59.3517 133.69 58.4997 134.056 57.9927 134.735Z" fill="url(#paint81_linear_4224_12974)"/>
<path d="M47.2728 216.317C50.0748 211.603 51.2198 205.837 50.9218 200.393C50.7738 197.684 50.2878 194.985 49.4158 192.414C48.5198 189.774 47.3238 187.003 45.4308 184.918C44.1708 183.531 42.1578 185.295 42.9418 186.838C44.0418 189.004 45.2978 191.014 46.0788 193.333C46.8658 195.668 47.3698 198.107 47.5258 200.567C47.8408 205.539 46.8108 210.314 44.6698 214.795C43.8438 216.525 46.2678 218.008 47.2728 216.317Z" fill="url(#paint82_linear_4224_12974)"/>
<path d="M211.686 119.476C214.119 119.476 216.091 117.504 216.091 115.071C216.091 112.638 214.119 110.666 211.686 110.666C209.253 110.666 207.281 112.638 207.281 115.071C207.281 117.504 209.253 119.476 211.686 119.476Z" fill="white"/>
<path d="M219.139 110.244C218.823 110.244 218.506 110.123 218.265 109.882C216.507 108.125 214.171 107.157 211.686 107.157C209.201 107.157 206.864 108.125 205.106 109.882C204.623 110.365 203.841 110.365 203.358 109.882C202.875 109.399 202.875 108.616 203.358 108.134C205.583 105.909 208.541 104.684 211.687 104.684C214.832 104.684 217.789 105.909 220.014 108.134C220.497 108.616 220.497 109.399 220.014 109.882C219.771 110.123 219.455 110.244 219.139 110.244Z" fill="white"/>
<path d="M223.167 106.215C222.851 106.215 222.534 106.094 222.293 105.853C219.459 103.019 215.692 101.459 211.685 101.459C207.678 101.459 203.909 103.02 201.075 105.853C200.592 106.336 199.81 106.336 199.327 105.853C198.844 105.37 198.844 104.588 199.327 104.105C202.628 100.804 207.017 98.9863 211.685 98.9863C216.353 98.9863 220.741 100.804 224.042 104.105C224.525 104.588 224.525 105.37 224.042 105.853C223.8 106.094 223.483 106.215 223.167 106.215Z" fill="white"/>
<path d="M226.928 102.454C226.612 102.454 226.295 102.333 226.054 102.092C222.216 98.254 217.113 96.14 211.686 96.14C206.258 96.14 201.155 98.254 197.317 102.092C196.834 102.575 196.052 102.575 195.569 102.092C195.086 101.609 195.086 100.827 195.569 100.344C199.875 96.038 205.598 93.668 211.687 93.668C217.775 93.668 223.498 96.039 227.803 100.344C228.286 100.827 228.286 101.609 227.803 102.092C227.561 102.333 227.244 102.454 226.928 102.454Z" fill="white"/>
<defs>
<linearGradient id="paint0_linear_4224_12974" x1="212.074" y1="305.082" x2="211.398" y2="336.182" gradientUnits="userSpaceOnUse">
<stop stop-color="#053526"/>
<stop offset="1" stop-color="#0A5840"/>
</linearGradient>
<linearGradient id="paint1_linear_4224_12974" x1="222.154" y1="313.373" x2="222.154" y2="101.129" gradientUnits="userSpaceOnUse">
<stop stop-color="#D8E8FF"/>
<stop offset="1" stop-color="#0A5840" stop-opacity="0.1"/>
</linearGradient>
<linearGradient id="paint2_linear_4224_12974" x1="282.668" y1="194.652" x2="300.736" y2="194.652" gradientUnits="userSpaceOnUse">
<stop stop-color="#F59F7C"/>
<stop offset="1" stop-color="#F56D25"/>
</linearGradient>
<linearGradient id="paint3_linear_4224_12974" x1="299.305" y1="226.019" x2="381.244" y2="226.019" gradientUnits="userSpaceOnUse">
<stop stop-color="#F59F7C"/>
<stop offset="1" stop-color="#F56D25"/>
</linearGradient>
<linearGradient id="paint4_linear_4224_12974" x1="294.005" y1="178.785" x2="316.43" y2="178.785" gradientUnits="userSpaceOnUse">
<stop stop-color="#F59F7C"/>
<stop offset="1" stop-color="#F56D25"/>
</linearGradient>
<linearGradient id="paint5_linear_4224_12974" x1="316.516" y1="205.995" x2="397.96" y2="205.995" gradientUnits="userSpaceOnUse">
<stop stop-color="#F59F7C"/>
<stop offset="1" stop-color="#F56D25"/>
</linearGradient>
<linearGradient id="paint6_linear_4224_12974" x1="304.009" y1="161.754" x2="330.966" y2="161.754" gradientUnits="userSpaceOnUse">
<stop stop-color="#F59F7C"/>
<stop offset="1" stop-color="#F56D25"/>
</linearGradient>
<linearGradient id="paint7_linear_4224_12974" x1="332.199" y1="184.233" x2="412.607" y2="184.233" gradientUnits="userSpaceOnUse">
<stop stop-color="#F59F7C"/>
<stop offset="1" stop-color="#F56D25"/>
</linearGradient>
<linearGradient id="paint8_linear_4224_12974" x1="324.273" y1="144.678" x2="345.332" y2="144.678" gradientUnits="userSpaceOnUse">
<stop stop-color="#F59F7C"/>
<stop offset="1" stop-color="#F56D25"/>
</linearGradient>
<linearGradient id="paint9_linear_4224_12974" x1="351.222" y1="123.372" x2="380.042" y2="123.372" gradientUnits="userSpaceOnUse">
<stop stop-color="#F59F7C"/>
<stop offset="1" stop-color="#F56D25"/>
</linearGradient>
<linearGradient id="paint10_linear_4224_12974" x1="343.719" y1="157.25" x2="418.78" y2="157.25" gradientUnits="userSpaceOnUse">
<stop stop-color="#F59F7C"/>
<stop offset="1" stop-color="#F56D25"/>
</linearGradient>
<linearGradient id="paint11_linear_4224_12974" x1="53.5858" y1="192.776" x2="131.13" y2="192.776" gradientUnits="userSpaceOnUse">
<stop stop-color="#053526"/>
<stop offset="1" stop-color="#0A5840"/>
</linearGradient>
<linearGradient id="paint12_linear_4224_12974" x1="122.371" y1="155.248" x2="144.571" y2="155.248" gradientUnits="userSpaceOnUse">
<stop stop-color="#053526"/>
<stop offset="1" stop-color="#0A5840"/>
</linearGradient>
<linearGradient id="paint13_linear_4224_12974" x1="40.2231" y1="173.293" x2="116.002" y2="173.293" gradientUnits="userSpaceOnUse">
<stop stop-color="#053526"/>
<stop offset="1" stop-color="#0A5840"/>
</linearGradient>
<linearGradient id="paint14_linear_4224_12974" x1="108.973" y1="137.026" x2="132.098" y2="137.026" gradientUnits="userSpaceOnUse">
<stop stop-color="#053526"/>
<stop offset="1" stop-color="#0A5840"/>
</linearGradient>
<linearGradient id="paint15_linear_4224_12974" x1="26.5011" y1="153.69" x2="102.387" y2="153.69" gradientUnits="userSpaceOnUse">
<stop stop-color="#053526"/>
<stop offset="1" stop-color="#0A5840"/>
</linearGradient>
<linearGradient id="paint16_linear_4224_12974" x1="95.9375" y1="118.873" x2="121.116" y2="118.873" gradientUnits="userSpaceOnUse">
<stop stop-color="#053526"/>
<stop offset="1" stop-color="#0A5840"/>
</linearGradient>
<linearGradient id="paint17_linear_4224_12974" x1="18.6951" y1="130.073" x2="90.8657" y2="130.073" gradientUnits="userSpaceOnUse">
<stop stop-color="#053526"/>
<stop offset="1" stop-color="#0A5840"/>
</linearGradient>
<linearGradient id="paint18_linear_4224_12974" x1="36.1992" y1="92.6449" x2="78.1867" y2="92.6449" gradientUnits="userSpaceOnUse">
<stop stop-color="#053526"/>
<stop offset="1" stop-color="#0A5840"/>
</linearGradient>
<linearGradient id="paint19_linear_4224_12974" x1="81.0152" y1="101.459" x2="100.329" y2="101.459" gradientUnits="userSpaceOnUse">
<stop stop-color="#053526"/>
<stop offset="1" stop-color="#0A5840"/>
</linearGradient>
<linearGradient id="paint20_linear_4224_12974" x1="74.6656" y1="163.593" x2="144.595" y2="163.593" gradientUnits="userSpaceOnUse">
<stop stop-color="#343B97"/>
<stop offset="1" stop-color="#8688ED"/>
</linearGradient>
<linearGradient id="paint21_linear_4224_12974" x1="53.5858" y1="192.885" x2="131.13" y2="192.885" gradientUnits="userSpaceOnUse">
<stop stop-color="#343B97"/>
<stop offset="1" stop-color="#8688ED"/>
</linearGradient>
<linearGradient id="paint22_linear_4224_12974" x1="125.789" y1="155.249" x2="144.572" y2="155.249" gradientUnits="userSpaceOnUse">
<stop stop-color="#343B97"/>
<stop offset="1" stop-color="#8688ED"/>
</linearGradient>
<linearGradient id="paint23_linear_4224_12974" x1="40.2231" y1="174.234" x2="116.002" y2="174.234" gradientUnits="userSpaceOnUse">
<stop stop-color="#343B97"/>
<stop offset="1" stop-color="#8688ED"/>
</linearGradient>
<linearGradient id="paint24_linear_4224_12974" x1="111.918" y1="137.027" x2="132.099" y2="137.027" gradientUnits="userSpaceOnUse">
<stop stop-color="#343B97"/>
<stop offset="1" stop-color="#8688ED"/>
</linearGradient>
<linearGradient id="paint25_linear_4224_12974" x1="26.5001" y1="154.72" x2="102.386" y2="154.72" gradientUnits="userSpaceOnUse">
<stop stop-color="#343B97"/>
<stop offset="1" stop-color="#8688ED"/>
</linearGradient>
<linearGradient id="paint26_linear_4224_12974" x1="98.7109" y1="118.875" x2="121.115" y2="118.875" gradientUnits="userSpaceOnUse">
<stop stop-color="#343B97"/>
<stop offset="1" stop-color="#8688ED"/>
</linearGradient>
<linearGradient id="paint27_linear_4224_12974" x1="18.6961" y1="130.159" x2="90.8667" y2="130.159" gradientUnits="userSpaceOnUse">
<stop stop-color="#343B97"/>
<stop offset="1" stop-color="#8688ED"/>
</linearGradient>
<linearGradient id="paint28_linear_4224_12974" x1="36.1992" y1="92.6459" x2="78.1867" y2="92.6459" gradientUnits="userSpaceOnUse">
<stop stop-color="#343B97"/>
<stop offset="1" stop-color="#8688ED"/>
</linearGradient>
<linearGradient id="paint29_linear_4224_12974" x1="84.8255" y1="101.461" x2="100.33" y2="101.461" gradientUnits="userSpaceOnUse">
<stop stop-color="#343B97"/>
<stop offset="1" stop-color="#8688ED"/>
</linearGradient>
<linearGradient id="paint30_linear_4224_12974" x1="44.3824" y1="267.828" x2="0.00105813" y2="267.828" gradientUnits="userSpaceOnUse">
<stop stop-color="#F59F7C"/>
<stop offset="1" stop-color="#F56D25"/>
</linearGradient>
<linearGradient id="paint31_linear_4224_12974" x1="111.092" y1="267.787" x2="21.0424" y2="267.787" gradientUnits="userSpaceOnUse">
<stop stop-color="#F59F7C"/>
<stop offset="1" stop-color="#F56D25"/>
</linearGradient>
<linearGradient id="paint32_linear_4224_12974" x1="404.276" y1="209.506" x2="404.276" y2="284.148" gradientUnits="userSpaceOnUse">
<stop stop-color="#F59F7C"/>
<stop offset="1" stop-color="#F56D25"/>
</linearGradient>
<linearGradient id="paint33_linear_4224_12974" x1="349.098" y1="312.055" x2="349.098" y2="306.757" gradientUnits="userSpaceOnUse">
<stop stop-color="#343B97"/>
<stop offset="0.0196" stop-color="#343B97"/>
<stop offset="1" stop-color="#5457D4"/>
</linearGradient>
<linearGradient id="paint34_linear_4224_12974" x1="349.131" y1="279.26" x2="349.131" y2="273.962" gradientUnits="userSpaceOnUse">
<stop stop-color="#343B97"/>
<stop offset="0.0196" stop-color="#343B97"/>
<stop offset="1" stop-color="#5457D4"/>
</linearGradient>
<linearGradient id="paint35_linear_4224_12974" x1="328.827" y1="282.523" x2="328.827" y2="338.87" gradientUnits="userSpaceOnUse">
<stop stop-color="#F59F7C"/>
<stop offset="1" stop-color="#F56D25"/>
</linearGradient>
<linearGradient id="paint36_linear_4224_12974" x1="327.5" y1="298.92" x2="327.5" y2="246.496" gradientUnits="userSpaceOnUse">
<stop stop-color="#D8E8FF"/>
<stop offset="1" stop-color="#90BDFF"/>
</linearGradient>
<linearGradient id="paint37_linear_4224_12974" x1="392.667" y1="264.322" x2="392.667" y2="202.215" gradientUnits="userSpaceOnUse">
<stop stop-color="#053526"/>
<stop offset="1" stop-color="#0A5840"/>
</linearGradient>
<linearGradient id="paint38_linear_4224_12974" x1="337.493" y1="273.851" x2="337.493" y2="268.553" gradientUnits="userSpaceOnUse">
<stop stop-color="#343B97"/>
<stop offset="0.0196" stop-color="#343B97"/>
<stop offset="1" stop-color="#5457D4"/>
</linearGradient>
<linearGradient id="paint39_linear_4224_12974" x1="337.526" y1="241.056" x2="337.526" y2="235.758" gradientUnits="userSpaceOnUse">
<stop stop-color="#343B97"/>
<stop offset="0.0196" stop-color="#343B97"/>
<stop offset="1" stop-color="#5457D4"/>
</linearGradient>
<linearGradient id="paint40_linear_4224_12974" x1="317.222" y1="274.237" x2="317.222" y2="236.816" gradientUnits="userSpaceOnUse">
<stop stop-color="#343B97"/>
<stop offset="0.0196" stop-color="#343B97"/>
<stop offset="1" stop-color="#5457D4"/>
</linearGradient>
<linearGradient id="paint41_linear_4224_12974" x1="315.895" y1="260.715" x2="315.895" y2="208.291" gradientUnits="userSpaceOnUse">
<stop stop-color="#D8E8FF"/>
<stop offset="1" stop-color="#90BDFF"/>
</linearGradient>
<linearGradient id="paint42_linear_4224_12974" x1="563.266" y1="150.265" x2="-226.199" y2="291.061" gradientUnits="userSpaceOnUse">
<stop stop-color="#053526"/>
<stop offset="1" stop-color="#0A5840"/>
</linearGradient>
<linearGradient id="paint43_linear_4224_12974" x1="544.087" y1="152.25" x2="-200.357" y2="285.017" gradientUnits="userSpaceOnUse">
<stop stop-color="#053526"/>
<stop offset="1" stop-color="#0A5840"/>
</linearGradient>
<linearGradient id="paint44_linear_4224_12974" x1="323.006" y1="149.755" x2="103.529" y2="146.998" gradientUnits="userSpaceOnUse">
<stop stop-color="#F59F7C"/>
<stop offset="1" stop-color="#F56D25"/>
</linearGradient>
<linearGradient id="paint45_linear_4224_12974" x1="206.184" y1="153.448" x2="206.184" y2="172.692" gradientUnits="userSpaceOnUse">
<stop stop-color="#343B97"/>
<stop offset="0.0196" stop-color="#343B97"/>
<stop offset="1" stop-color="#5457D4"/>
</linearGradient>
<linearGradient id="paint46_linear_4224_12974" x1="206.184" y1="164.463" x2="206.184" y2="183.707" gradientUnits="userSpaceOnUse">
<stop stop-color="#343B97"/>
<stop offset="0.0196" stop-color="#343B97"/>
<stop offset="1" stop-color="#5457D4"/>
</linearGradient>
<linearGradient id="paint47_linear_4224_12974" x1="134.472" y1="256.704" x2="107.446" y2="256.364" gradientUnits="userSpaceOnUse">
<stop stop-color="#F59F7C"/>
<stop offset="1" stop-color="#F56D25"/>
</linearGradient>
<linearGradient id="paint48_linear_4224_12974" x1="272.134" y1="147.712" x2="282.811" y2="147.712" gradientUnits="userSpaceOnUse">
<stop stop-color="#053526"/>
<stop offset="1" stop-color="#0A5840"/>
</linearGradient>
<linearGradient id="paint49_linear_4224_12974" x1="210.499" y1="295.886" x2="210.499" y2="315.394" gradientUnits="userSpaceOnUse">
<stop stop-color="#D8E8FF"/>
<stop offset="1" stop-color="#90BDFF"/>
</linearGradient>
<linearGradient id="paint50_linear_4224_12974" x1="211.882" y1="327.212" x2="211.882" y2="296.475" gradientUnits="userSpaceOnUse">
<stop stop-color="#C6DDFF"/>
<stop offset="1" stop-color="#779FFF"/>
</linearGradient>
<linearGradient id="paint51_linear_4224_12974" x1="211.88" y1="152.482" x2="211.88" y2="130.099" gradientUnits="userSpaceOnUse">
<stop stop-color="#C6DDFF"/>
<stop offset="1" stop-color="#779FFF"/>
</linearGradient>
<linearGradient id="paint52_linear_4224_12974" x1="211.882" y1="143.926" x2="211.882" y2="131.199" gradientUnits="userSpaceOnUse">
<stop stop-color="#053526"/>
<stop offset="1" stop-color="#0A5840"/>
</linearGradient>
<linearGradient id="paint53_linear_4224_12974" x1="170.175" y1="249.617" x2="347.741" y2="-113.787" gradientUnits="userSpaceOnUse">
<stop stop-color="white" stop-opacity="0"/>
<stop offset="1" stop-color="white"/>
</linearGradient>
<linearGradient id="paint54_linear_4224_12974" x1="202.516" y1="265.421" x2="380.083" y2="-97.9852" gradientUnits="userSpaceOnUse">
<stop stop-color="white" stop-opacity="0"/>
<stop offset="1" stop-color="white"/>
</linearGradient>
<linearGradient id="paint55_linear_4224_12974" x1="287.633" y1="17.743" x2="111.778" y2="49.1057" gradientUnits="userSpaceOnUse">
<stop stop-color="#F59F7C"/>
<stop offset="1" stop-color="#F56D25"/>
</linearGradient>
<linearGradient id="paint56_linear_4224_12974" x1="209.157" y1="18.6645" x2="209.157" y2="60.7567" gradientUnits="userSpaceOnUse">
<stop stop-color="white"/>
<stop offset="1" stop-color="#C9DEFF"/>
</linearGradient>
<linearGradient id="paint57_linear_4224_12974" x1="231.57" y1="9.9651" x2="231.57" y2="60.3108" gradientUnits="userSpaceOnUse">
<stop stop-color="#343B97"/>
<stop offset="0.0196" stop-color="#343B97"/>
<stop offset="1" stop-color="#5457D4"/>
</linearGradient>
<linearGradient id="paint58_linear_4224_12974" x1="190.694" y1="17.743" x2="14.838" y2="49.1057" gradientUnits="userSpaceOnUse">
<stop stop-color="#F59F7C"/>
<stop offset="1" stop-color="#F56D25"/>
</linearGradient>
<linearGradient id="paint59_linear_4224_12974" x1="112.219" y1="18.6645" x2="112.219" y2="60.7567" gradientUnits="userSpaceOnUse">
<stop stop-color="white"/>
<stop offset="1" stop-color="#C9DEFF"/>
</linearGradient>
<linearGradient id="paint60_linear_4224_12974" x1="102.201" y1="27.2329" x2="102.201" y2="20.8351" gradientUnits="userSpaceOnUse">
<stop stop-color="#053526"/>
<stop offset="1" stop-color="#0A5840"/>
</linearGradient>
<linearGradient id="paint61_linear_4224_12974" x1="125.055" y1="40.2432" x2="123.007" y2="38.1959" gradientUnits="userSpaceOnUse">
<stop stop-color="#053526"/>
<stop offset="1" stop-color="#0A5840"/>
</linearGradient>
<linearGradient id="paint62_linear_4224_12974" x1="108.856" y1="55.1985" x2="108.377" y2="54.72" gradientUnits="userSpaceOnUse">
<stop stop-color="#053526"/>
<stop offset="1" stop-color="#0A5840"/>
</linearGradient>
<linearGradient id="paint63_linear_4224_12974" x1="109.036" y1="54.2777" x2="112.638" y2="50.6752" gradientUnits="userSpaceOnUse">
<stop stop-color="#F59F7C"/>
<stop offset="1" stop-color="#F56D25"/>
</linearGradient>
<linearGradient id="paint64_linear_4224_12974" x1="136.197" y1="27.1172" x2="138.567" y2="24.747" gradientUnits="userSpaceOnUse">
<stop stop-color="#053526"/>
<stop offset="1" stop-color="#0A5840"/>
</linearGradient>
<linearGradient id="paint65_linear_4224_12974" x1="134.633" y1="9.9651" x2="134.633" y2="60.3108" gradientUnits="userSpaceOnUse">
<stop stop-color="#343B97"/>
<stop offset="0.0196" stop-color="#343B97"/>
<stop offset="1" stop-color="#5457D4"/>
</linearGradient>
<linearGradient id="paint66_linear_4224_12974" x1="147.529" y1="31.7387" x2="333.515" y2="31.7387" gradientUnits="userSpaceOnUse">
<stop stop-color="#343B97"/>
<stop offset="0.0196" stop-color="#343B97"/>
<stop offset="1" stop-color="#5457D4"/>
</linearGradient>
<linearGradient id="paint67_linear_4224_12974" x1="247.201" y1="31.7387" x2="433.187" y2="31.7387" gradientUnits="userSpaceOnUse">
<stop stop-color="#343B97"/>
<stop offset="0.0196" stop-color="#343B97"/>
<stop offset="1" stop-color="#5457D4"/>
</linearGradient>
<linearGradient id="paint68_linear_4224_12974" x1="219.906" y1="23.3763" x2="224.399" y2="23.3763" gradientUnits="userSpaceOnUse">
<stop stop-color="#353595"/>
<stop offset="1" stop-color="#3C3B97"/>
</linearGradient>
<linearGradient id="paint69_linear_4224_12974" x1="219.906" y1="30.8865" x2="224.399" y2="30.8865" gradientUnits="userSpaceOnUse">
<stop stop-color="#353595"/>
<stop offset="1" stop-color="#3C3B97"/>
</linearGradient>
<linearGradient id="paint70_linear_4224_12974" x1="219.906" y1="38.3967" x2="224.399" y2="38.3967" gradientUnits="userSpaceOnUse">
<stop stop-color="#353595"/>
<stop offset="1" stop-color="#3C3B97"/>
</linearGradient>
<linearGradient id="paint71_linear_4224_12974" x1="219.906" y1="45.9078" x2="224.399" y2="45.9078" gradientUnits="userSpaceOnUse">
<stop stop-color="#353595"/>
<stop offset="1" stop-color="#3C3B97"/>
</linearGradient>
<linearGradient id="paint72_linear_4224_12974" x1="390.017" y1="17.743" x2="214.162" y2="49.1057" gradientUnits="userSpaceOnUse">
<stop stop-color="#F59F7C"/>
<stop offset="1" stop-color="#F56D25"/>
</linearGradient>
<linearGradient id="paint73_linear_4224_12974" x1="311.54" y1="18.6645" x2="311.54" y2="60.7567" gradientUnits="userSpaceOnUse">
<stop stop-color="white"/>
<stop offset="1" stop-color="#C9DEFF"/>
</linearGradient>
<linearGradient id="paint74_linear_4224_12974" x1="295.597" y1="39.2925" x2="327.291" y2="39.2925" gradientUnits="userSpaceOnUse">
<stop stop-color="#F59F7C"/>
<stop offset="1" stop-color="#F56D25"/>
</linearGradient>
<linearGradient id="paint75_linear_4224_12974" x1="296.551" y1="25.2718" x2="295.66" y2="29.5131" gradientUnits="userSpaceOnUse">
<stop stop-color="#F56D25"/>
<stop offset="1" stop-color="#F59F7C"/>
</linearGradient>
<linearGradient id="paint76_linear_4224_12974" x1="300.304" y1="25.0973" x2="301.584" y2="29.2379" gradientUnits="userSpaceOnUse">
<stop stop-color="#F56D25"/>
<stop offset="1" stop-color="#F59F7C"/>
</linearGradient>
<linearGradient id="paint77_linear_4224_12974" x1="298.038" y1="14.8379" x2="298.578" y2="24.5964" gradientUnits="userSpaceOnUse">
<stop stop-color="#343B97"/>
<stop offset="0.0196" stop-color="#343B97"/>
<stop offset="1" stop-color="#5457D4"/>
</linearGradient>
<linearGradient id="paint78_linear_4224_12974" x1="298.408" y1="19.0682" x2="298.936" y2="28.6037" gradientUnits="userSpaceOnUse">
<stop stop-color="white"/>
<stop offset="1" stop-color="#C9DEFF"/>
</linearGradient>
<linearGradient id="paint79_linear_4224_12974" x1="298.531" y1="19.6663" x2="298.531" y2="22.8366" gradientUnits="userSpaceOnUse">
<stop stop-color="#343B97"/>
<stop offset="0.0196" stop-color="#343B97"/>
<stop offset="1" stop-color="#5457D4"/>
</linearGradient>
<linearGradient id="paint80_linear_4224_12974" x1="333.957" y1="9.9651" x2="333.957" y2="60.3108" gradientUnits="userSpaceOnUse">
<stop stop-color="#343B97"/>
<stop offset="0.0196" stop-color="#343B97"/>
<stop offset="1" stop-color="#5457D4"/>
</linearGradient>
<linearGradient id="paint81_linear_4224_12974" x1="57.9841" y1="135.264" x2="57.9841" y2="218.695" gradientUnits="userSpaceOnUse">
<stop stop-color="white" stop-opacity="0"/>
<stop offset="1" stop-color="white"/>
</linearGradient>
<linearGradient id="paint82_linear_4224_12974" x1="46.8673" y1="185.781" x2="46.8673" y2="215.773" gradientUnits="userSpaceOnUse">
<stop stop-color="white" stop-opacity="0"/>
<stop offset="1" stop-color="white"/>
</linearGradient>
</defs>
</svg>
