<svg width="25" height="25" viewBox="0 0 25 25" fill="none" xmlns="http://www.w3.org/2000/svg">
<path d="M2.12891 18.533V22.0453C2.12891 22.5017 2.49894 22.8718 2.95525 22.8718H22.0462C22.5026 22.8718 22.8726 22.5016 22.8726 22.0453V18.533L2.12891 18.533Z" fill="#FACC37"/>
<path d="M22.9161 17.376C23.0784 15.9427 23.6591 12.7757 24.1146 10.4629C24.636 10.2251 25 9.70024 25 9.09081C25 8.25907 24.3234 7.58256 23.4918 7.58256C22.66 7.58256 21.9834 8.25907 21.9834 9.09081C21.9834 9.36059 22.0555 9.61345 22.1801 9.8329L20.819 11.194C20.4131 10.2386 20.2141 8.76556 20.1604 7.63929C20.5846 7.37212 20.8678 6.90083 20.8678 6.36354C20.8678 5.53197 20.1912 4.85529 19.3595 4.85529C18.5278 4.85529 17.8512 5.53197 17.8512 6.36354C17.8512 6.73837 17.9895 7.08096 18.2165 7.34502C17.3357 8.86211 16.1058 10.3224 15.3425 11.1689C14.6716 9.76918 13.9153 6.98382 13.4464 4.80907C13.7886 4.53239 14.0082 4.10966 14.0082 3.63635C14.0082 2.80461 13.3317 2.12793 12.5 2.12793C11.6683 2.12793 10.9918 2.80461 10.9918 3.63635C10.9918 4.10966 11.2114 4.53248 11.5538 4.80907C11.0849 6.98399 10.3286 9.76968 9.65741 11.1694C8.89453 10.3237 7.66524 8.86463 6.78342 7.34502C7.01052 7.08096 7.14874 6.73837 7.14874 6.36354C7.14874 5.53197 6.47222 4.85529 5.64049 4.85529C4.80884 4.85529 4.13224 5.53197 4.13224 6.36354C4.13224 6.90116 4.41566 7.37246 4.84007 7.63963C4.78712 8.76581 4.58838 10.2387 4.18148 11.1945L2.81987 9.8329C2.94444 9.61345 3.0165 9.36059 3.0165 9.09081C3.0165 8.25907 2.33998 7.58256 1.50825 7.58256C0.676599 7.58256 0 8.25907 0 9.09081C0 9.70024 0.363973 10.2251 0.885438 10.4629C1.34091 12.7755 1.92163 15.9426 2.08392 17.376H22.9161ZM12.5 13.0372C13.3317 13.0372 14.0082 13.7137 14.0082 14.5454C14.0082 15.3772 13.3317 16.0537 12.5 16.0537C11.6683 16.0537 10.9918 15.3772 10.9918 14.5454C10.9918 13.7137 11.6683 13.0372 12.5 13.0372Z" fill="#FACC37"/>
</svg>
