<svg width="706" height="561" viewBox="0 0 706 561" fill="none" xmlns="http://www.w3.org/2000/svg">
<g clip-path="url(#clip0_201_6131)">
<rect width="706" height="561" rx="27" fill="white"/>
<path d="M724.407 507.852H-19V508.223H724.407V507.852Z" fill="#EBEBEB"/>
<path d="M649.919 531.783H600.673V532.155H649.919V531.783Z" fill="#EBEBEB"/>
<path d="M473.462 535.818H460.537V536.19H473.462V535.818Z" fill="#EBEBEB"/>
<path d="M599.184 517.977H570.649V518.348H599.184V517.977Z" fill="#EBEBEB"/>
<path d="M123.217 520.475H58.9971V520.846H123.217V520.475Z" fill="#EBEBEB"/>
<path d="M145.871 520.475H136.455V520.846H145.871V520.475Z" fill="#EBEBEB"/>
<path d="M315.751 526.754H176.473V527.126H315.751V526.754Z" fill="#EBEBEB"/>
<path d="M333.396 441.542H46.2934C41.6144 441.542 37.8066 437.735 37.8066 433.056V29.4867C37.8066 24.8077 41.6144 21 46.2934 21H333.396C338.073 21 341.881 24.8077 341.881 29.4867V433.056C341.881 437.735 338.073 441.542 333.396 441.542ZM46.2934 21.3732C41.8181 21.3732 38.1783 25.0129 38.1783 29.4882V433.057C38.1783 437.532 41.8181 441.172 46.2934 441.172H333.396C337.869 441.172 341.509 437.532 341.509 433.057V29.4867C341.509 25.0129 337.869 21.3717 333.396 21.3717L46.2934 21.3732Z" fill="#EBEBEB"/>
<path d="M654.987 441.542H367.887C363.208 441.542 359.401 437.735 359.401 433.056V29.4867C359.401 24.8077 363.209 21 367.887 21H654.987C659.668 21 663.474 24.8077 663.474 29.4867V433.056C663.476 437.735 659.668 441.542 654.987 441.542ZM367.887 21.3732C363.413 21.3732 359.773 25.0129 359.773 29.4882V433.057C359.773 437.532 363.413 441.172 367.887 441.172H654.987C659.463 441.172 663.102 437.532 663.102 433.057V29.4867C663.102 25.0129 659.463 21.3717 654.987 21.3717L367.887 21.3732Z" fill="#EBEBEB"/>
<path d="M636.758 508.222V437.16H630.681V403.299H621.799L621.801 285.57H608.96V270.38L581.545 257.593V242.277H577.746V285.57H572.429V403.299H567.113V341.397H552.682V309.496H548.655V403.299H537.694V367.601H530.479V358.487H513.769V327.345H504.619V305.318H493.37V273.228H489.355V305.318H478.106V327.345H468.956V358.487H452.246V367.601H445.03V403.299H436.472V358.487H419.762V262.025H414.445V251.392H378.747V262.025H371.152V331.903H340.77V338.737H329.377V344.056H340.77V371.398H308.869V280.254H302.033V260.885H287.223V192.146H283.045V260.885H272.411V280.254H210.072V273.878H206.273V317.173H200.956V317.932H197.763V361.225H192.447V372.998H181.209V341.098H177.182V417.052H172.698V385.151H168.672V434.902H166.221V399.203H159.006V390.089H142.296V358.948H133.144V336.921H121.897V304.829H117.882V336.921H106.633V358.948H97.4831V390.089H80.7728V399.203H73.5573V434.142H72.2623V434.902H68.6895V508.222H636.758Z" fill="#F0F0F0"/>
<path d="M249.16 284.516H244.855V288.82H249.16V284.516Z" fill="#FAFAFA"/>
<path d="M249.16 291.73H244.855V296.035H249.16V291.73Z" fill="#FAFAFA"/>
<path d="M249.16 320.592H244.855V324.896H249.16V320.592Z" fill="#FAFAFA"/>
<path d="M249.16 327.807H244.855V332.111H249.16V327.807Z" fill="#FAFAFA"/>
<path d="M249.16 335.023H244.855V339.328H249.16V335.023Z" fill="#FAFAFA"/>
<path d="M249.16 356.67H244.855V360.974H249.16V356.67Z" fill="#FAFAFA"/>
<path d="M249.16 363.885H244.855V368.189H249.16V363.885Z" fill="#FAFAFA"/>
<path d="M255.996 313.377H251.691V317.681H255.996V313.377Z" fill="#FAFAFA"/>
<path d="M255.996 320.592H251.691V324.896H255.996V320.592Z" fill="#FAFAFA"/>
<path d="M255.996 327.807H251.691V332.111H255.996V327.807Z" fill="#FAFAFA"/>
<path d="M255.996 335.023H251.691V339.328H255.996V335.023Z" fill="#FAFAFA"/>
<path d="M255.996 342.238H251.691V346.543H255.996V342.238Z" fill="#FAFAFA"/>
<path d="M255.996 356.67H251.691V360.974H255.996V356.67Z" fill="#FAFAFA"/>
<path d="M255.996 363.885H251.691V368.189H255.996V363.885Z" fill="#FAFAFA"/>
<path d="M262.833 284.516H258.528V288.82H262.833V284.516Z" fill="#FAFAFA"/>
<path d="M262.833 291.73H258.528V296.035H262.833V291.73Z" fill="#FAFAFA"/>
<path d="M262.833 298.945H258.528V303.25H262.833V298.945Z" fill="#FAFAFA"/>
<path d="M262.831 306.162H258.526V310.466H262.831V306.162Z" fill="#FAFAFA"/>
<path d="M262.831 313.377H258.526V317.681H262.831V313.377Z" fill="#FAFAFA"/>
<path d="M262.831 320.592H258.526V324.896H262.831V320.592Z" fill="#FAFAFA"/>
<path d="M262.831 327.807H258.526V332.111H262.831V327.807Z" fill="#FAFAFA"/>
<path d="M262.831 335.023H258.526V339.328H262.831V335.023Z" fill="#FAFAFA"/>
<path d="M262.831 342.238H258.526V346.543H262.831V342.238Z" fill="#FAFAFA"/>
<path d="M262.831 349.455H258.526V353.759H262.831V349.455Z" fill="#FAFAFA"/>
<path d="M262.831 363.885H258.526V368.189H262.831V363.885Z" fill="#FAFAFA"/>
<path d="M269.667 284.516H265.362V288.82H269.667V284.516Z" fill="#FAFAFA"/>
<path d="M269.667 291.73H265.362V296.035H269.667V291.73Z" fill="#FAFAFA"/>
<path d="M269.667 298.945H265.362V303.25H269.667V298.945Z" fill="#FAFAFA"/>
<path d="M269.667 306.162H265.362V310.466H269.667V306.162Z" fill="#FAFAFA"/>
<path d="M269.667 313.377H265.362V317.681H269.667V313.377Z" fill="#FAFAFA"/>
<path d="M269.667 320.592H265.362V324.896H269.667V320.592Z" fill="#FAFAFA"/>
<path d="M269.667 327.807H265.362V332.111H269.667V327.807Z" fill="#FAFAFA"/>
<path d="M269.667 392.748H265.362V397.052H269.667V392.748Z" fill="#FAFAFA"/>
<path d="M276.504 284.516H272.199V288.82H276.504V284.516Z" fill="#FAFAFA"/>
<path d="M276.504 291.73H272.199V296.035H276.504V291.73Z" fill="#FAFAFA"/>
<path d="M276.504 298.945H272.199V303.25H276.504V298.945Z" fill="#FAFAFA"/>
<path d="M276.504 306.162H272.199V310.466H276.504V306.162Z" fill="#FAFAFA"/>
<path d="M276.504 313.377H272.199V317.681H276.504V313.377Z" fill="#FAFAFA"/>
<path d="M276.504 320.592H272.199V324.896H276.504V320.592Z" fill="#FAFAFA"/>
<path d="M276.504 327.807H272.199V332.111H276.504V327.807Z" fill="#FAFAFA"/>
<path d="M276.504 335.023H272.199V339.328H276.504V335.023Z" fill="#FAFAFA"/>
<path d="M276.504 378.318H272.199V382.623H276.504V378.318Z" fill="#FAFAFA"/>
<path d="M276.504 385.533H272.199V389.838H276.504V385.533Z" fill="#FAFAFA"/>
<path d="M276.504 392.748H272.199V397.052H276.504V392.748Z" fill="#FAFAFA"/>
<path d="M276.504 399.965H272.199V404.269H276.504V399.965Z" fill="#FAFAFA"/>
<path d="M276.504 428.826H272.199V433.13H276.504V428.826Z" fill="#FAFAFA"/>
<path d="M283.339 284.516H279.035V288.82H283.339V284.516Z" fill="#FAFAFA"/>
<path d="M283.339 291.73H279.035V296.035H283.339V291.73Z" fill="#FAFAFA"/>
<path d="M283.339 298.945H279.035V303.25H283.339V298.945Z" fill="#FAFAFA"/>
<path d="M283.339 306.162H279.035V310.466H283.339V306.162Z" fill="#FAFAFA"/>
<path d="M283.339 313.377H279.035V317.681H283.339V313.377Z" fill="#FAFAFA"/>
<path d="M283.339 320.592H279.035V324.896H283.339V320.592Z" fill="#FAFAFA"/>
<path d="M283.339 327.807H279.035V332.111H283.339V327.807Z" fill="#FAFAFA"/>
<path d="M283.339 335.023H279.035V339.328H283.339V335.023Z" fill="#FAFAFA"/>
<path d="M283.339 342.238H279.035V346.543H283.339V342.238Z" fill="#FAFAFA"/>
<path d="M283.339 349.455H279.035V353.759H283.339V349.455Z" fill="#FAFAFA"/>
<path d="M283.339 371.102H279.035V375.406H283.339V371.102Z" fill="#FAFAFA"/>
<path d="M283.339 378.318H279.035V382.623H283.339V378.318Z" fill="#FAFAFA"/>
<path d="M283.339 385.533H279.035V389.838H283.339V385.533Z" fill="#FAFAFA"/>
<path d="M283.339 392.748H279.035V397.052H283.339V392.748Z" fill="#FAFAFA"/>
<path d="M283.339 399.965H279.035V404.269H283.339V399.965Z" fill="#FAFAFA"/>
<path d="M283.339 428.826H279.035V433.13H283.339V428.826Z" fill="#FAFAFA"/>
<path d="M290.174 284.516H285.87V288.82H290.174V284.516Z" fill="#FAFAFA"/>
<path d="M290.174 291.73H285.87V296.035H290.174V291.73Z" fill="#FAFAFA"/>
<path d="M290.174 298.945H285.87V303.25H290.174V298.945Z" fill="#FAFAFA"/>
<path d="M290.174 306.162H285.87V310.466H290.174V306.162Z" fill="#FAFAFA"/>
<path d="M290.174 313.377H285.87V317.681H290.174V313.377Z" fill="#FAFAFA"/>
<path d="M290.174 320.592H285.87V324.896H290.174V320.592Z" fill="#FAFAFA"/>
<path d="M290.174 327.807H285.87V332.111H290.174V327.807Z" fill="#FAFAFA"/>
<path d="M290.174 335.023H285.87V339.328H290.174V335.023Z" fill="#FAFAFA"/>
<path d="M290.174 342.238H285.87V346.543H290.174V342.238Z" fill="#FAFAFA"/>
<path d="M290.174 349.455H285.87V353.759H290.174V349.455Z" fill="#FAFAFA"/>
<path d="M290.174 356.67H285.87V360.974H290.174V356.67Z" fill="#FAFAFA"/>
<path d="M290.174 363.885H285.87V368.189H290.174V363.885Z" fill="#FAFAFA"/>
<path d="M290.174 371.102H285.87V375.406H290.174V371.102Z" fill="#FAFAFA"/>
<path d="M290.174 378.318H285.87V382.623H290.174V378.318Z" fill="#FAFAFA"/>
<path d="M290.174 385.533H285.87V389.838H290.174V385.533Z" fill="#FAFAFA"/>
<path d="M290.174 392.748H285.87V397.052H290.174V392.748Z" fill="#FAFAFA"/>
<path d="M290.174 399.965H285.87V404.269H290.174V399.965Z" fill="#FAFAFA"/>
<path d="M290.174 407.18H285.87V411.484H290.174V407.18Z" fill="#FAFAFA"/>
<path d="M297.011 284.516H292.707V288.82H297.011V284.516Z" fill="#FAFAFA"/>
<path d="M297.011 291.73H292.707V296.035H297.011V291.73Z" fill="#FAFAFA"/>
<path d="M297.011 298.945H292.707V303.25H297.011V298.945Z" fill="#FAFAFA"/>
<path d="M297.011 306.162H292.707V310.466H297.011V306.162Z" fill="#FAFAFA"/>
<path d="M297.011 313.377H292.707V317.681H297.011V313.377Z" fill="#FAFAFA"/>
<path d="M297.011 320.592H292.707V324.896H297.011V320.592Z" fill="#FAFAFA"/>
<path d="M297.011 327.807H292.707V332.111H297.011V327.807Z" fill="#FAFAFA"/>
<path d="M297.011 335.023H292.707V339.328H297.011V335.023Z" fill="#FAFAFA"/>
<path d="M297.011 342.238H292.707V346.543H297.011V342.238Z" fill="#FAFAFA"/>
<path d="M297.011 349.455H292.707V353.759H297.011V349.455Z" fill="#FAFAFA"/>
<path d="M297.011 371.102H292.707V375.406H297.011V371.102Z" fill="#FAFAFA"/>
<path d="M297.011 378.318H292.707V382.623H297.011V378.318Z" fill="#FAFAFA"/>
<path d="M297.011 385.533H292.707V389.838H297.011V385.533Z" fill="#FAFAFA"/>
<path d="M297.011 392.748H292.707V397.052H297.011V392.748Z" fill="#FAFAFA"/>
<path d="M303.847 284.516H299.543V288.82H303.847V284.516Z" fill="#FAFAFA"/>
<path d="M303.847 291.73H299.543V296.035H303.847V291.73Z" fill="#FAFAFA"/>
<path d="M303.846 298.945H299.542V303.25H303.846V298.945Z" fill="#FAFAFA"/>
<path d="M303.846 306.162H299.542V310.466H303.846V306.162Z" fill="#FAFAFA"/>
<path d="M303.846 313.377H299.542V317.681H303.846V313.377Z" fill="#FAFAFA"/>
<path d="M303.846 320.592H299.542V324.896H303.846V320.592Z" fill="#FAFAFA"/>
<path d="M303.846 327.807H299.542V332.111H303.846V327.807Z" fill="#FAFAFA"/>
<path d="M303.846 335.023H299.542V339.328H303.846V335.023Z" fill="#FAFAFA"/>
<path d="M303.846 342.238H299.542V346.543H303.846V342.238Z" fill="#FAFAFA"/>
<path d="M303.846 349.455H299.542V353.759H303.846V349.455Z" fill="#FAFAFA"/>
<path d="M303.846 371.102H299.542V375.406H303.846V371.102Z" fill="#FAFAFA"/>
<path d="M303.846 378.318H299.542V382.623H303.846V378.318Z" fill="#FAFAFA"/>
<path d="M303.846 385.533H299.542V389.838H303.846V385.533Z" fill="#FAFAFA"/>
<path d="M380.812 265.779H376.508V270.084H380.812V265.779Z" fill="#FAFAFA"/>
<path d="M380.812 272.994H376.508V277.298H380.812V272.994Z" fill="#FAFAFA"/>
<path d="M380.812 280.211H376.508V284.515H380.812V280.211Z" fill="#FAFAFA"/>
<path d="M380.812 287.426H376.508V291.73H380.812V287.426Z" fill="#FAFAFA"/>
<path d="M380.812 294.641H376.508V298.945H380.812V294.641Z" fill="#FAFAFA"/>
<path d="M380.812 301.857H376.508V306.162H380.812V301.857Z" fill="#FAFAFA"/>
<path d="M380.812 309.072H376.508V313.377H380.812V309.072Z" fill="#FAFAFA"/>
<path d="M380.812 316.289H376.508V320.593H380.812V316.289Z" fill="#FAFAFA"/>
<path d="M380.812 337.936H376.508V342.24H380.812V337.936Z" fill="#FAFAFA"/>
<path d="M380.812 345.15H376.508V349.455H380.812V345.15Z" fill="#FAFAFA"/>
<path d="M387.649 265.779H383.345V270.084H387.649V265.779Z" fill="#FAFAFA"/>
<path d="M387.649 272.994H383.345V277.298H387.649V272.994Z" fill="#FAFAFA"/>
<path d="M387.649 280.211H383.345V284.515H387.649V280.211Z" fill="#FAFAFA"/>
<path d="M387.649 287.426H383.345V291.73H387.649V287.426Z" fill="#FAFAFA"/>
<path d="M387.649 294.641H383.345V298.945H387.649V294.641Z" fill="#FAFAFA"/>
<path d="M387.649 301.857H383.345V306.162H387.649V301.857Z" fill="#FAFAFA"/>
<path d="M387.649 309.072H383.345V313.377H387.649V309.072Z" fill="#FAFAFA"/>
<path d="M387.649 316.289H383.345V320.593H387.649V316.289Z" fill="#FAFAFA"/>
<path d="M387.649 345.15H383.345V349.455H387.649V345.15Z" fill="#FAFAFA"/>
<path d="M394.485 265.779H390.181V270.084H394.485V265.779Z" fill="#FAFAFA"/>
<path d="M394.485 272.994H390.181V277.298H394.485V272.994Z" fill="#FAFAFA"/>
<path d="M394.485 280.211H390.181V284.515H394.485V280.211Z" fill="#FAFAFA"/>
<path d="M394.485 287.426H390.181V291.73H394.485V287.426Z" fill="#FAFAFA"/>
<path d="M394.485 294.641H390.181V298.945H394.485V294.641Z" fill="#FAFAFA"/>
<path d="M394.485 301.857H390.181V306.162H394.485V301.857Z" fill="#FAFAFA"/>
<path d="M394.485 309.072H390.181V313.377H394.485V309.072Z" fill="#FAFAFA"/>
<path d="M394.485 316.289H390.181V320.593H394.485V316.289Z" fill="#FAFAFA"/>
<path d="M401.32 265.779H397.016V270.084H401.32V265.779Z" fill="#FAFAFA"/>
<path d="M401.32 272.994H397.016V277.298H401.32V272.994Z" fill="#FAFAFA"/>
<path d="M401.32 280.211H397.016V284.515H401.32V280.211Z" fill="#FAFAFA"/>
<path d="M401.32 287.426H397.016V291.73H401.32V287.426Z" fill="#FAFAFA"/>
<path d="M401.32 294.641H397.016V298.945H401.32V294.641Z" fill="#FAFAFA"/>
<path d="M401.32 301.857H397.016V306.162H401.32V301.857Z" fill="#FAFAFA"/>
<path d="M401.32 316.289H397.016V320.593H401.32V316.289Z" fill="#FAFAFA"/>
<path d="M401.32 323.504H397.016V327.808H401.32V323.504Z" fill="#FAFAFA"/>
<path d="M401.32 345.15H397.016V349.455H401.32V345.15Z" fill="#FAFAFA"/>
<path d="M401.32 352.367H397.016V356.672H401.32V352.367Z" fill="#FAFAFA"/>
<path d="M401.32 359.582H397.016V363.886H401.32V359.582Z" fill="#FAFAFA"/>
<path d="M401.32 366.797H397.016V371.101H401.32V366.797Z" fill="#FAFAFA"/>
<path d="M401.32 374.014H397.016V378.318H401.32V374.014Z" fill="#FAFAFA"/>
<path d="M401.32 381.229H397.016V385.533H401.32V381.229Z" fill="#FAFAFA"/>
<path d="M401.32 388.443H397.016V392.748H401.32V388.443Z" fill="#FAFAFA"/>
<path d="M408.156 265.779H403.852V270.084H408.156V265.779Z" fill="#FAFAFA"/>
<path d="M408.156 272.994H403.852V277.298H408.156V272.994Z" fill="#FAFAFA"/>
<path d="M408.156 280.211H403.852V284.515H408.156V280.211Z" fill="#FAFAFA"/>
<path d="M408.156 287.426H403.852V291.73H408.156V287.426Z" fill="#FAFAFA"/>
<path d="M408.156 294.641H403.852V298.945H408.156V294.641Z" fill="#FAFAFA"/>
<path d="M408.156 301.857H403.852V306.162H408.156V301.857Z" fill="#FAFAFA"/>
<path d="M408.156 323.504H403.852V327.808H408.156V323.504Z" fill="#FAFAFA"/>
<path d="M408.156 330.719H403.852V335.023H408.156V330.719Z" fill="#FAFAFA"/>
<path d="M408.156 337.936H403.852V342.24H408.156V337.936Z" fill="#FAFAFA"/>
<path d="M408.156 345.15H403.852V349.455H408.156V345.15Z" fill="#FAFAFA"/>
<path d="M408.156 352.367H403.852V356.672H408.156V352.367Z" fill="#FAFAFA"/>
<path d="M408.156 359.582H403.852V363.886H408.156V359.582Z" fill="#FAFAFA"/>
<path d="M408.156 366.797H403.852V371.101H408.156V366.797Z" fill="#FAFAFA"/>
<path d="M408.156 374.014H403.852V378.318H408.156V374.014Z" fill="#FAFAFA"/>
<path d="M408.156 381.229H403.852V385.533H408.156V381.229Z" fill="#FAFAFA"/>
<path d="M408.156 388.443H403.852V392.748H408.156V388.443Z" fill="#FAFAFA"/>
<path d="M408.156 395.66H403.852V399.964H408.156V395.66Z" fill="#FAFAFA"/>
<path d="M408.156 410.094H403.852V414.398H408.156V410.094Z" fill="#FAFAFA"/>
<path d="M414.993 265.779H410.688V270.084H414.993V265.779Z" fill="#FAFAFA"/>
<path d="M414.993 272.994H410.688V277.298H414.993V272.994Z" fill="#FAFAFA"/>
<path d="M414.993 280.211H410.688V284.515H414.993V280.211Z" fill="#FAFAFA"/>
<path d="M414.993 287.426H410.688V291.73H414.993V287.426Z" fill="#FAFAFA"/>
<path d="M414.993 294.641H410.688V298.945H414.993V294.641Z" fill="#FAFAFA"/>
<path d="M414.993 301.857H410.688V306.162H414.993V301.857Z" fill="#FAFAFA"/>
<path d="M414.993 323.504H410.688V327.808H414.993V323.504Z" fill="#FAFAFA"/>
<path d="M414.993 330.719H410.688V335.023H414.993V330.719Z" fill="#FAFAFA"/>
<path d="M414.993 337.936H410.688V342.24H414.993V337.936Z" fill="#FAFAFA"/>
<path d="M414.993 345.15H410.688V349.455H414.993V345.15Z" fill="#FAFAFA"/>
<path d="M414.993 366.797H410.688V371.101H414.993V366.797Z" fill="#FAFAFA"/>
<path d="M414.993 374.014H410.688V378.318H414.993V374.014Z" fill="#FAFAFA"/>
<path d="M414.993 381.229H410.688V385.533H414.993V381.229Z" fill="#FAFAFA"/>
<path d="M414.993 388.443H410.688V392.748H414.993V388.443Z" fill="#FAFAFA"/>
<path d="M414.993 395.66H410.688V399.964H414.993V395.66Z" fill="#FAFAFA"/>
<path d="M414.993 410.094H410.688V414.398H414.993V410.094Z" fill="#FAFAFA"/>
<path d="M414.993 417.309H410.688V421.613H414.993V417.309Z" fill="#FAFAFA"/>
<path d="M477.021 332.871H472.717V337.175H477.021V332.871Z" fill="#FAFAFA"/>
<path d="M477.021 340.088H472.717V344.392H477.021V340.088Z" fill="#FAFAFA"/>
<path d="M477.021 347.303H472.717V351.607H477.021V347.303Z" fill="#FAFAFA"/>
<path d="M477.021 354.52H472.717V358.824H477.021V354.52Z" fill="#FAFAFA"/>
<path d="M477.021 361.734H472.717V366.039H477.021V361.734Z" fill="#FAFAFA"/>
<path d="M477.021 368.949H472.717V373.254H477.021V368.949Z" fill="#FAFAFA"/>
<path d="M477.021 376.166H472.717V380.47H477.021V376.166Z" fill="#FAFAFA"/>
<path d="M477.021 397.812H472.717V402.117H477.021V397.812Z" fill="#FAFAFA"/>
<path d="M477.021 405.029H472.717V409.334H477.021V405.029Z" fill="#FAFAFA"/>
<path d="M477.021 412.242H472.717V416.547H477.021V412.242Z" fill="#FAFAFA"/>
<path d="M483.857 332.871H479.553V337.175H483.857V332.871Z" fill="#FAFAFA"/>
<path d="M483.857 340.088H479.553V344.392H483.857V340.088Z" fill="#FAFAFA"/>
<path d="M483.857 347.303H479.553V351.607H483.857V347.303Z" fill="#FAFAFA"/>
<path d="M483.857 354.52H479.553V358.824H483.857V354.52Z" fill="#FAFAFA"/>
<path d="M483.857 361.734H479.553V366.039H483.857V361.734Z" fill="#FAFAFA"/>
<path d="M483.857 368.949H479.553V373.254H483.857V368.949Z" fill="#FAFAFA"/>
<path d="M483.857 376.166H479.553V380.47H483.857V376.166Z" fill="#FAFAFA"/>
<path d="M490.694 332.871H486.39V337.175H490.694V332.871Z" fill="#FAFAFA"/>
<path d="M490.694 340.088H486.39V344.392H490.694V340.088Z" fill="#FAFAFA"/>
<path d="M490.694 347.303H486.39V351.607H490.694V347.303Z" fill="#FAFAFA"/>
<path d="M490.694 354.52H486.39V358.824H490.694V354.52Z" fill="#FAFAFA"/>
<path d="M490.694 361.734H486.39V366.039H490.694V361.734Z" fill="#FAFAFA"/>
<path d="M490.694 368.949H486.39V373.254H490.694V368.949Z" fill="#FAFAFA"/>
<path d="M490.694 376.166H486.39V380.47H490.694V376.166Z" fill="#FAFAFA"/>
<path d="M497.529 332.871H493.225V337.175H497.529V332.871Z" fill="#FAFAFA"/>
<path d="M497.529 340.088H493.225V344.392H497.529V340.088Z" fill="#FAFAFA"/>
<path d="M497.529 347.303H493.225V351.607H497.529V347.303Z" fill="#FAFAFA"/>
<path d="M497.529 354.52H493.225V358.824H497.529V354.52Z" fill="#FAFAFA"/>
<path d="M497.529 361.734H493.225V366.039H497.529V361.734Z" fill="#FAFAFA"/>
<path d="M497.529 368.949H493.225V373.254H497.529V368.949Z" fill="#FAFAFA"/>
<path d="M497.529 376.166H493.225V380.47H497.529V376.166Z" fill="#FAFAFA"/>
<path d="M497.529 383.381H493.225V387.685H497.529V383.381Z" fill="#FAFAFA"/>
<path d="M497.529 390.596H493.225V394.9H497.529V390.596Z" fill="#FAFAFA"/>
<path d="M497.529 397.812H493.225V402.117H497.529V397.812Z" fill="#FAFAFA"/>
<path d="M497.529 405.029H493.225V409.334H497.529V405.029Z" fill="#FAFAFA"/>
<path d="M504.365 332.871H500.061V337.175H504.365V332.871Z" fill="#FAFAFA"/>
<path d="M504.365 340.088H500.061V344.392H504.365V340.088Z" fill="#FAFAFA"/>
<path d="M504.365 347.303H500.061V351.607H504.365V347.303Z" fill="#FAFAFA"/>
<path d="M504.365 354.52H500.061V358.824H504.365V354.52Z" fill="#FAFAFA"/>
<path d="M504.365 361.734H500.061V366.039H504.365V361.734Z" fill="#FAFAFA"/>
<path d="M504.365 368.949H500.061V373.254H504.365V368.949Z" fill="#FAFAFA"/>
<path d="M504.365 376.166H500.061V380.47H504.365V376.166Z" fill="#FAFAFA"/>
<path d="M504.365 383.381H500.061V387.685H504.365V383.381Z" fill="#FAFAFA"/>
<path d="M504.365 390.596H500.061V394.9H504.365V390.596Z" fill="#FAFAFA"/>
<path d="M504.365 397.812H500.061V402.117H504.365V397.812Z" fill="#FAFAFA"/>
<path d="M504.365 405.029H500.061V409.334H504.365V405.029Z" fill="#FAFAFA"/>
<path d="M504.365 412.242H500.061V416.547H504.365V412.242Z" fill="#FAFAFA"/>
<path d="M504.365 433.891H500.061V438.195H504.365V433.891Z" fill="#FAFAFA"/>
<path d="M504.365 441.105H500.061V445.41H504.365V441.105Z" fill="#FAFAFA"/>
<path d="M511.202 332.871H506.897V337.175H511.202V332.871Z" fill="#FAFAFA"/>
<path d="M511.202 340.088H506.897V344.392H511.202V340.088Z" fill="#FAFAFA"/>
<path d="M511.202 347.303H506.897V351.607H511.202V347.303Z" fill="#FAFAFA"/>
<path d="M511.202 368.949H506.897V373.254H511.202V368.949Z" fill="#FAFAFA"/>
<path d="M511.202 376.166H506.897V380.47H511.202V376.166Z" fill="#FAFAFA"/>
<path d="M511.202 383.381H506.897V387.685H511.202V383.381Z" fill="#FAFAFA"/>
<path d="M511.202 390.596H506.897V394.9H511.202V390.596Z" fill="#FAFAFA"/>
<path d="M511.202 397.812H506.897V402.117H511.202V397.812Z" fill="#FAFAFA"/>
<path d="M511.202 405.029H506.897V409.334H511.202V405.029Z" fill="#FAFAFA"/>
<path d="M511.202 412.242H506.897V416.547H511.202V412.242Z" fill="#FAFAFA"/>
<path d="M511.202 433.891H506.897V438.195H511.202V433.891Z" fill="#FAFAFA"/>
<path d="M511.202 441.105H506.897V445.41H511.202V441.105Z" fill="#FAFAFA"/>
<path d="M511.202 448.32H506.897V452.625H511.202V448.32Z" fill="#FAFAFA"/>
<path d="M582.851 289.578H578.546V293.882H582.851V289.578Z" fill="#FAFAFA"/>
<path d="M582.851 296.793H578.546V301.097H582.851V296.793Z" fill="#FAFAFA"/>
<path d="M582.851 304.01H578.546V308.314H582.851V304.01Z" fill="#FAFAFA"/>
<path d="M582.851 311.225H578.546V315.529H582.851V311.225Z" fill="#FAFAFA"/>
<path d="M582.851 318.441H578.546V322.746H582.851V318.441Z" fill="#FAFAFA"/>
<path d="M582.851 325.656H578.546V329.961H582.851V325.656Z" fill="#FAFAFA"/>
<path d="M582.851 332.871H578.546V337.175H582.851V332.871Z" fill="#FAFAFA"/>
<path d="M582.851 340.088H578.546V344.392H582.851V340.088Z" fill="#FAFAFA"/>
<path d="M582.851 347.303H578.546V351.607H582.851V347.303Z" fill="#FAFAFA"/>
<path d="M582.851 354.52H578.546V358.824H582.851V354.52Z" fill="#FAFAFA"/>
<path d="M582.851 361.734H578.546V366.039H582.851V361.734Z" fill="#FAFAFA"/>
<path d="M582.851 368.949H578.546V373.254H582.851V368.949Z" fill="#FAFAFA"/>
<path d="M582.851 376.166H578.546V380.47H582.851V376.166Z" fill="#FAFAFA"/>
<path d="M582.851 383.381H578.546V387.685H582.851V383.381Z" fill="#FAFAFA"/>
<path d="M582.851 390.596H578.546V394.9H582.851V390.596Z" fill="#FAFAFA"/>
<path d="M582.851 397.812H578.546V402.117H582.851V397.812Z" fill="#FAFAFA"/>
<path d="M582.851 405.029H578.546V409.334H582.851V405.029Z" fill="#FAFAFA"/>
<path d="M582.851 412.242H578.546V416.547H582.851V412.242Z" fill="#FAFAFA"/>
<path d="M582.851 419.459H578.546V423.763H582.851V419.459Z" fill="#FAFAFA"/>
<path d="M582.851 426.676H578.546V430.98H582.851V426.676Z" fill="#FAFAFA"/>
<path d="M582.851 433.891H578.546V438.195H582.851V433.891Z" fill="#FAFAFA"/>
<path d="M582.851 441.105H578.546V445.41H582.851V441.105Z" fill="#FAFAFA"/>
<path d="M582.851 448.32H578.546V452.625H582.851V448.32Z" fill="#FAFAFA"/>
<path d="M589.687 289.578H585.383V293.882H589.687V289.578Z" fill="#FAFAFA"/>
<path d="M589.687 296.793H585.383V301.097H589.687V296.793Z" fill="#FAFAFA"/>
<path d="M589.686 304.01H585.382V308.314H589.686V304.01Z" fill="#FAFAFA"/>
<path d="M589.686 311.225H585.382V315.529H589.686V311.225Z" fill="#FAFAFA"/>
<path d="M589.686 318.441H585.382V322.746H589.686V318.441Z" fill="#FAFAFA"/>
<path d="M589.686 325.656H585.382V329.961H589.686V325.656Z" fill="#FAFAFA"/>
<path d="M589.686 332.871H585.382V337.175H589.686V332.871Z" fill="#FAFAFA"/>
<path d="M589.686 340.088H585.382V344.392H589.686V340.088Z" fill="#FAFAFA"/>
<path d="M589.686 347.303H585.382V351.607H589.686V347.303Z" fill="#FAFAFA"/>
<path d="M589.686 354.52H585.382V358.824H589.686V354.52Z" fill="#FAFAFA"/>
<path d="M589.686 361.734H585.382V366.039H589.686V361.734Z" fill="#FAFAFA"/>
<path d="M589.686 368.949H585.382V373.254H589.686V368.949Z" fill="#FAFAFA"/>
<path d="M589.686 376.166H585.382V380.47H589.686V376.166Z" fill="#FAFAFA"/>
<path d="M589.686 383.381H585.382V387.685H589.686V383.381Z" fill="#FAFAFA"/>
<path d="M589.686 390.596H585.382V394.9H589.686V390.596Z" fill="#FAFAFA"/>
<path d="M589.686 397.812H585.382V402.117H589.686V397.812Z" fill="#FAFAFA"/>
<path d="M589.686 405.029H585.382V409.334H589.686V405.029Z" fill="#FAFAFA"/>
<path d="M589.686 412.242H585.382V416.547H589.686V412.242Z" fill="#FAFAFA"/>
<path d="M589.686 419.459H585.382V423.763H589.686V419.459Z" fill="#FAFAFA"/>
<path d="M596.523 289.578H592.218V293.882H596.523V289.578Z" fill="#FAFAFA"/>
<path d="M596.523 296.793H592.218V301.097H596.523V296.793Z" fill="#FAFAFA"/>
<path d="M596.523 304.01H592.218V308.314H596.523V304.01Z" fill="#FAFAFA"/>
<path d="M596.523 311.225H592.218V315.529H596.523V311.225Z" fill="#FAFAFA"/>
<path d="M596.523 318.441H592.218V322.746H596.523V318.441Z" fill="#FAFAFA"/>
<path d="M596.523 325.656H592.218V329.961H596.523V325.656Z" fill="#FAFAFA"/>
<path d="M596.523 332.871H592.218V337.175H596.523V332.871Z" fill="#FAFAFA"/>
<path d="M596.523 340.088H592.218V344.392H596.523V340.088Z" fill="#FAFAFA"/>
<path d="M596.523 347.303H592.218V351.607H596.523V347.303Z" fill="#FAFAFA"/>
<path d="M596.523 354.52H592.218V358.824H596.523V354.52Z" fill="#FAFAFA"/>
<path d="M596.523 361.734H592.218V366.039H596.523V361.734Z" fill="#FAFAFA"/>
<path d="M596.523 368.949H592.218V373.254H596.523V368.949Z" fill="#FAFAFA"/>
<path d="M596.523 376.166H592.218V380.47H596.523V376.166Z" fill="#FAFAFA"/>
<path d="M596.523 383.381H592.218V387.685H596.523V383.381Z" fill="#FAFAFA"/>
<path d="M596.523 390.596H592.218V394.9H596.523V390.596Z" fill="#FAFAFA"/>
<path d="M596.523 397.812H592.218V402.117H596.523V397.812Z" fill="#FAFAFA"/>
<path d="M596.523 405.029H592.218V409.334H596.523V405.029Z" fill="#FAFAFA"/>
<path d="M596.523 412.242H592.218V416.547H596.523V412.242Z" fill="#FAFAFA"/>
<path d="M596.523 419.459H592.218V423.763H596.523V419.459Z" fill="#FAFAFA"/>
<path d="M603.359 289.578H599.054V293.882H603.359V289.578Z" fill="#FAFAFA"/>
<path d="M603.359 296.793H599.054V301.097H603.359V296.793Z" fill="#FAFAFA"/>
<path d="M603.359 304.01H599.054V308.314H603.359V304.01Z" fill="#FAFAFA"/>
<path d="M603.359 311.225H599.054V315.529H603.359V311.225Z" fill="#FAFAFA"/>
<path d="M603.359 318.441H599.054V322.746H603.359V318.441Z" fill="#FAFAFA"/>
<path d="M603.359 325.656H599.054V329.961H603.359V325.656Z" fill="#FAFAFA"/>
<path d="M603.359 332.871H599.054V337.175H603.359V332.871Z" fill="#FAFAFA"/>
<path d="M603.359 340.088H599.054V344.392H603.359V340.088Z" fill="#FAFAFA"/>
<path d="M603.359 347.303H599.054V351.607H603.359V347.303Z" fill="#FAFAFA"/>
<path d="M603.359 354.52H599.054V358.824H603.359V354.52Z" fill="#FAFAFA"/>
<path d="M603.359 361.734H599.054V366.039H603.359V361.734Z" fill="#FAFAFA"/>
<path d="M603.359 368.949H599.054V373.254H603.359V368.949Z" fill="#FAFAFA"/>
<path d="M603.359 376.166H599.054V380.47H603.359V376.166Z" fill="#FAFAFA"/>
<path d="M603.359 383.381H599.054V387.685H603.359V383.381Z" fill="#FAFAFA"/>
<path d="M603.359 390.596H599.054V394.9H603.359V390.596Z" fill="#FAFAFA"/>
<path d="M610.194 289.578H605.889V293.882H610.194V289.578Z" fill="#FAFAFA"/>
<path d="M610.194 296.793H605.889V301.097H610.194V296.793Z" fill="#FAFAFA"/>
<path d="M610.194 304.01H605.889V308.314H610.194V304.01Z" fill="#FAFAFA"/>
<path d="M610.194 311.225H605.889V315.529H610.194V311.225Z" fill="#FAFAFA"/>
<path d="M610.194 318.441H605.889V322.746H610.194V318.441Z" fill="#FAFAFA"/>
<path d="M610.194 325.656H605.889V329.961H610.194V325.656Z" fill="#FAFAFA"/>
<path d="M610.194 332.871H605.889V337.175H610.194V332.871Z" fill="#FAFAFA"/>
<path d="M610.194 340.088H605.889V344.392H610.194V340.088Z" fill="#FAFAFA"/>
<path d="M610.194 347.303H605.889V351.607H610.194V347.303Z" fill="#FAFAFA"/>
<path d="M610.194 354.52H605.889V358.824H610.194V354.52Z" fill="#FAFAFA"/>
<path d="M610.194 361.734H605.889V366.039H610.194V361.734Z" fill="#FAFAFA"/>
<path d="M610.194 368.949H605.889V373.254H610.194V368.949Z" fill="#FAFAFA"/>
<path d="M610.194 376.166H605.889V380.47H610.194V376.166Z" fill="#FAFAFA"/>
<path d="M617.03 289.578H612.726V293.882H617.03V289.578Z" fill="#FAFAFA"/>
<path d="M617.03 296.793H612.726V301.097H617.03V296.793Z" fill="#FAFAFA"/>
<path d="M617.03 304.01H612.726V308.314H617.03V304.01Z" fill="#FAFAFA"/>
<path d="M617.03 311.225H612.726V315.529H617.03V311.225Z" fill="#FAFAFA"/>
<path d="M617.03 318.441H612.726V322.746H617.03V318.441Z" fill="#FAFAFA"/>
<path d="M617.03 325.656H612.726V329.961H617.03V325.656Z" fill="#FAFAFA"/>
<path d="M617.03 332.871H612.726V337.175H617.03V332.871Z" fill="#FAFAFA"/>
<path d="M617.03 340.088H612.726V344.392H617.03V340.088Z" fill="#FAFAFA"/>
<path d="M617.03 347.303H612.726V351.607H617.03V347.303Z" fill="#FAFAFA"/>
<path d="M617.03 354.52H612.726V358.824H617.03V354.52Z" fill="#FAFAFA"/>
<path d="M617.03 361.734H612.726V366.039H617.03V361.734Z" fill="#FAFAFA"/>
<path d="M617.03 368.949H612.726V373.254H617.03V368.949Z" fill="#FAFAFA"/>
<path d="M114.721 342.238H110.417V346.543H114.721V342.238Z" fill="#FAFAFA"/>
<path d="M114.721 349.455H110.417V353.759H114.721V349.455Z" fill="#FAFAFA"/>
<path d="M114.721 356.67H110.417V360.974H114.721V356.67Z" fill="#FAFAFA"/>
<path d="M114.721 363.885H110.417V368.189H114.721V363.885Z" fill="#FAFAFA"/>
<path d="M114.721 371.102H110.417V375.406H114.721V371.102Z" fill="#FAFAFA"/>
<path d="M114.721 378.318H110.417V382.623H114.721V378.318Z" fill="#FAFAFA"/>
<path d="M114.721 385.533H110.417V389.838H114.721V385.533Z" fill="#FAFAFA"/>
<path d="M114.721 392.748H110.417V397.052H114.721V392.748Z" fill="#FAFAFA"/>
<path d="M114.721 399.965H110.417V404.269H114.721V399.965Z" fill="#FAFAFA"/>
<path d="M114.721 407.18H110.417V411.484H114.721V407.18Z" fill="#FAFAFA"/>
<path d="M114.721 414.395H110.417V418.699H114.721V414.395Z" fill="#FAFAFA"/>
<path d="M114.721 421.611H110.417V425.916H114.721V421.611Z" fill="#FAFAFA"/>
<path d="M114.721 428.826H110.417V433.13H114.721V428.826Z" fill="#FAFAFA"/>
<path d="M114.721 436.043H110.417V440.347H114.721V436.043Z" fill="#FAFAFA"/>
<path d="M114.721 443.258H110.417V447.562H114.721V443.258Z" fill="#FAFAFA"/>
<path d="M114.721 450.473H110.417V454.777H114.721V450.473Z" fill="#FAFAFA"/>
<path d="M114.721 457.689H110.417V461.994H114.721V457.689Z" fill="#FAFAFA"/>
<path d="M114.721 464.906H110.417V469.211H114.721V464.906Z" fill="#FAFAFA"/>
<path d="M114.721 472.121H110.417V476.425H114.721V472.121Z" fill="#FAFAFA"/>
<path d="M114.721 479.336H110.417V483.64H114.721V479.336Z" fill="#FAFAFA"/>
<path d="M121.556 342.238H117.252V346.543H121.556V342.238Z" fill="#FAFAFA"/>
<path d="M121.556 349.455H117.252V353.759H121.556V349.455Z" fill="#FAFAFA"/>
<path d="M121.556 356.67H117.252V360.974H121.556V356.67Z" fill="#FAFAFA"/>
<path d="M121.556 363.885H117.252V368.189H121.556V363.885Z" fill="#FAFAFA"/>
<path d="M121.556 371.102H117.252V375.406H121.556V371.102Z" fill="#FAFAFA"/>
<path d="M121.556 378.318H117.252V382.623H121.556V378.318Z" fill="#FAFAFA"/>
<path d="M121.556 385.533H117.252V389.838H121.556V385.533Z" fill="#FAFAFA"/>
<path d="M121.556 392.748H117.252V397.052H121.556V392.748Z" fill="#FAFAFA"/>
<path d="M121.556 399.965H117.252V404.269H121.556V399.965Z" fill="#FAFAFA"/>
<path d="M121.556 407.18H117.252V411.484H121.556V407.18Z" fill="#FAFAFA"/>
<path d="M121.556 414.395H117.252V418.699H121.556V414.395Z" fill="#FAFAFA"/>
<path d="M121.556 421.611H117.252V425.916H121.556V421.611Z" fill="#FAFAFA"/>
<path d="M121.556 428.826H117.252V433.13H121.556V428.826Z" fill="#FAFAFA"/>
<path d="M121.556 436.043H117.252V440.347H121.556V436.043Z" fill="#FAFAFA"/>
<path d="M121.556 443.258H117.252V447.562H121.556V443.258Z" fill="#FAFAFA"/>
<path d="M121.556 450.473H117.252V454.777H121.556V450.473Z" fill="#FAFAFA"/>
<path d="M121.556 457.689H117.252V461.994H121.556V457.689Z" fill="#FAFAFA"/>
<path d="M121.556 464.906H117.252V469.211H121.556V464.906Z" fill="#FAFAFA"/>
<path d="M128.393 342.238H124.089V346.543H128.393V342.238Z" fill="#FAFAFA"/>
<path d="M128.393 349.455H124.089V353.759H128.393V349.455Z" fill="#FAFAFA"/>
<path d="M128.393 356.67H124.089V360.974H128.393V356.67Z" fill="#FAFAFA"/>
<path d="M128.393 363.885H124.089V368.189H128.393V363.885Z" fill="#FAFAFA"/>
<path d="M128.393 371.102H124.089V375.406H128.393V371.102Z" fill="#FAFAFA"/>
<path d="M128.393 378.318H124.089V382.623H128.393V378.318Z" fill="#FAFAFA"/>
<path d="M128.393 385.533H124.089V389.838H128.393V385.533Z" fill="#FAFAFA"/>
<path d="M128.393 392.748H124.089V397.052H128.393V392.748Z" fill="#FAFAFA"/>
<path d="M128.393 399.965H124.089V404.269H128.393V399.965Z" fill="#FAFAFA"/>
<path d="M128.393 407.18H124.089V411.484H128.393V407.18Z" fill="#FAFAFA"/>
<path d="M128.393 414.395H124.089V418.699H128.393V414.395Z" fill="#FAFAFA"/>
<path d="M128.393 421.611H124.089V425.916H128.393V421.611Z" fill="#FAFAFA"/>
<path d="M128.393 428.826H124.089V433.13H128.393V428.826Z" fill="#FAFAFA"/>
<path d="M128.393 436.043H124.089V440.347H128.393V436.043Z" fill="#FAFAFA"/>
<path d="M128.393 443.258H124.089V447.562H128.393V443.258Z" fill="#FAFAFA"/>
<path d="M128.393 450.473H124.089V454.777H128.393V450.473Z" fill="#FAFAFA"/>
<path d="M128.393 457.689H124.089V461.994H128.393V457.689Z" fill="#FAFAFA"/>
<path d="M128.393 464.906H124.089V469.211H128.393V464.906Z" fill="#FAFAFA"/>
<path d="M89.15 394.9H84.8457V399.205H89.15V394.9Z" fill="#FAFAFA"/>
<path d="M89.15 402.115H84.8457V406.42H89.15V402.115Z" fill="#FAFAFA"/>
<path d="M89.15 409.33H84.8457V413.634H89.15V409.33Z" fill="#FAFAFA"/>
<path d="M89.15 416.547H84.8457V420.851H89.15V416.547Z" fill="#FAFAFA"/>
<path d="M89.15 423.764H84.8457V428.068H89.15V423.764Z" fill="#FAFAFA"/>
<path d="M89.15 430.98H84.8457V435.285H89.15V430.98Z" fill="#FAFAFA"/>
<path d="M89.15 438.195H84.8457V442.5H89.15V438.195Z" fill="#FAFAFA"/>
<path d="M89.15 445.41H84.8457V449.714H89.15V445.41Z" fill="#FAFAFA"/>
<path d="M89.15 452.625H84.8457V456.929H89.15V452.625Z" fill="#FAFAFA"/>
<path d="M89.15 459.842H84.8457V464.146H89.15V459.842Z" fill="#FAFAFA"/>
<path d="M89.15 467.057H84.8457V471.361H89.15V467.057Z" fill="#FAFAFA"/>
<path d="M89.15 474.273H84.8457V478.578H89.15V474.273Z" fill="#FAFAFA"/>
<path d="M89.15 481.488H84.8457V485.793H89.15V481.488Z" fill="#FAFAFA"/>
<path d="M95.985 394.9H91.6807V399.205H95.985V394.9Z" fill="#FAFAFA"/>
<path d="M95.985 402.115H91.6807V406.42H95.985V402.115Z" fill="#FAFAFA"/>
<path d="M95.985 409.33H91.6807V413.634H95.985V409.33Z" fill="#FAFAFA"/>
<path d="M95.985 416.547H91.6807V420.851H95.985V416.547Z" fill="#FAFAFA"/>
<path d="M95.985 423.764H91.6807V428.068H95.985V423.764Z" fill="#FAFAFA"/>
<path d="M95.985 430.98H91.6807V435.285H95.985V430.98Z" fill="#FAFAFA"/>
<path d="M95.985 438.195H91.6807V442.5H95.985V438.195Z" fill="#FAFAFA"/>
<path d="M95.985 445.41H91.6807V449.714H95.985V445.41Z" fill="#FAFAFA"/>
<path d="M95.985 452.625H91.6807V456.929H95.985V452.625Z" fill="#FAFAFA"/>
<path d="M95.985 459.842H91.6807V464.146H95.985V459.842Z" fill="#FAFAFA"/>
<path d="M95.985 467.057H91.6807V471.361H95.985V467.057Z" fill="#FAFAFA"/>
<path d="M95.985 474.273H91.6807V478.578H95.985V474.273Z" fill="#FAFAFA"/>
<path d="M95.985 481.488H91.6807V485.793H95.985V481.488Z" fill="#FAFAFA"/>
<path d="M102.821 394.9H98.5166V399.205H102.821V394.9Z" fill="#FAFAFA"/>
<path d="M102.821 402.115H98.5166V406.42H102.821V402.115Z" fill="#FAFAFA"/>
<path d="M102.821 409.33H98.5166V413.634H102.821V409.33Z" fill="#FAFAFA"/>
<path d="M102.821 416.547H98.5166V420.851H102.821V416.547Z" fill="#FAFAFA"/>
<path d="M102.821 423.764H98.5166V428.068H102.821V423.764Z" fill="#FAFAFA"/>
<path d="M102.821 430.98H98.5166V435.285H102.821V430.98Z" fill="#FAFAFA"/>
<path d="M102.821 438.195H98.5166V442.5H102.821V438.195Z" fill="#FAFAFA"/>
<path d="M102.821 445.41H98.5166V449.714H102.821V445.41Z" fill="#FAFAFA"/>
<path d="M102.821 452.625H98.5166V456.929H102.821V452.625Z" fill="#FAFAFA"/>
<path d="M102.821 459.842H98.5166V464.146H102.821V459.842Z" fill="#FAFAFA"/>
<path d="M102.821 467.057H98.5166V471.361H102.821V467.057Z" fill="#FAFAFA"/>
<path d="M102.821 474.273H98.5166V478.578H102.821V474.273Z" fill="#FAFAFA"/>
<path d="M102.821 481.488H98.5166V485.793H102.821V481.488Z" fill="#FAFAFA"/>
<path d="M102.821 488.705H98.5166V493.009H102.821V488.705Z" fill="#FAFAFA"/>
<path d="M140.798 397.053H136.494V401.357H140.798V397.053Z" fill="#FAFAFA"/>
<path d="M140.798 404.27H136.494V408.574H140.798V404.27Z" fill="#FAFAFA"/>
<path d="M140.798 411.484H136.494V415.789H140.798V411.484Z" fill="#FAFAFA"/>
<path d="M140.798 418.699H136.494V423.004H140.798V418.699Z" fill="#FAFAFA"/>
<path d="M140.798 425.916H136.494V430.22H140.798V425.916Z" fill="#FAFAFA"/>
<path d="M140.798 433.131H136.494V437.435H140.798V433.131Z" fill="#FAFAFA"/>
<path d="M140.798 440.346H136.494V444.65H140.798V440.346Z" fill="#FAFAFA"/>
<path d="M140.798 447.562H136.494V451.867H140.798V447.562Z" fill="#FAFAFA"/>
<path d="M140.798 454.777H136.494V459.082H140.798V454.777Z" fill="#FAFAFA"/>
<path d="M140.798 461.994H136.494V466.298H140.798V461.994Z" fill="#FAFAFA"/>
<path d="M140.798 483.641H136.494V487.945H140.798V483.641Z" fill="#FAFAFA"/>
<path d="M147.633 397.053H143.329V401.357H147.633V397.053Z" fill="#FAFAFA"/>
<path d="M147.633 404.27H143.329V408.574H147.633V404.27Z" fill="#FAFAFA"/>
<path d="M147.633 411.484H143.329V415.789H147.633V411.484Z" fill="#FAFAFA"/>
<path d="M147.633 418.699H143.329V423.004H147.633V418.699Z" fill="#FAFAFA"/>
<path d="M147.633 425.916H143.329V430.22H147.633V425.916Z" fill="#FAFAFA"/>
<path d="M147.633 433.131H143.329V437.435H147.633V433.131Z" fill="#FAFAFA"/>
<path d="M147.633 440.346H143.329V444.65H147.633V440.346Z" fill="#FAFAFA"/>
<path d="M147.633 447.562H143.329V451.867H147.633V447.562Z" fill="#FAFAFA"/>
<path d="M147.633 454.777H143.329V459.082H147.633V454.777Z" fill="#FAFAFA"/>
<path d="M147.633 476.424H143.329V480.728H147.633V476.424Z" fill="#FAFAFA"/>
<path d="M147.633 483.641H143.329V487.945H147.633V483.641Z" fill="#FAFAFA"/>
<path d="M154.47 397.053H150.166V401.357H154.47V397.053Z" fill="#FAFAFA"/>
<path d="M154.47 404.27H150.166V408.574H154.47V404.27Z" fill="#FAFAFA"/>
<path d="M154.47 411.484H150.166V415.789H154.47V411.484Z" fill="#FAFAFA"/>
<path d="M154.47 418.699H150.166V423.004H154.47V418.699Z" fill="#FAFAFA"/>
<path d="M154.47 425.916H150.166V430.22H154.47V425.916Z" fill="#FAFAFA"/>
<path d="M154.47 433.131H150.166V437.435H154.47V433.131Z" fill="#FAFAFA"/>
<path d="M154.47 440.346H150.166V444.65H154.47V440.346Z" fill="#FAFAFA"/>
<path d="M154.47 447.562H150.166V451.867H154.47V447.562Z" fill="#FAFAFA"/>
<path d="M154.47 469.209H150.166V473.513H154.47V469.209Z" fill="#FAFAFA"/>
<path d="M154.47 476.424H150.166V480.728H154.47V476.424Z" fill="#FAFAFA"/>
<path d="M154.47 483.641H150.166V487.945H154.47V483.641Z" fill="#FAFAFA"/>
<path d="M218.018 287.426H213.714V291.73H218.018V287.426Z" fill="#FAFAFA"/>
<path d="M218.018 294.641H213.714V298.945H218.018V294.641Z" fill="#FAFAFA"/>
<path d="M218.018 301.857H213.714V306.162H218.018V301.857Z" fill="#FAFAFA"/>
<path d="M218.018 309.072H213.714V313.377H218.018V309.072Z" fill="#FAFAFA"/>
<path d="M218.018 316.289H213.714V320.593H218.018V316.289Z" fill="#FAFAFA"/>
<path d="M218.018 323.504H213.714V327.808H218.018V323.504Z" fill="#FAFAFA"/>
<path d="M218.018 330.719H213.714V335.023H218.018V330.719Z" fill="#FAFAFA"/>
<path d="M218.018 337.936H213.714V342.24H218.018V337.936Z" fill="#FAFAFA"/>
<path d="M218.018 345.15H213.714V349.455H218.018V345.15Z" fill="#FAFAFA"/>
<path d="M218.018 352.367H213.714V356.672H218.018V352.367Z" fill="#FAFAFA"/>
<path d="M218.018 359.582H213.714V363.886H218.018V359.582Z" fill="#FAFAFA"/>
<path d="M218.018 366.797H213.714V371.101H218.018V366.797Z" fill="#FAFAFA"/>
<path d="M218.018 374.014H213.714V378.318H218.018V374.014Z" fill="#FAFAFA"/>
<path d="M218.018 381.229H213.714V385.533H218.018V381.229Z" fill="#FAFAFA"/>
<path d="M218.018 388.443H213.714V392.748H218.018V388.443Z" fill="#FAFAFA"/>
<path d="M218.018 395.66H213.714V399.964H218.018V395.66Z" fill="#FAFAFA"/>
<path d="M218.018 402.875H213.714V407.179H218.018V402.875Z" fill="#FAFAFA"/>
<path d="M218.018 417.309H213.714V421.613H218.018V417.309Z" fill="#FAFAFA"/>
<path d="M218.018 424.523H213.714V428.828H218.018V424.523Z" fill="#FAFAFA"/>
<path d="M218.018 431.738H213.714V436.043H218.018V431.738Z" fill="#FAFAFA"/>
<path d="M218.018 438.955H213.714V443.259H218.018V438.955Z" fill="#FAFAFA"/>
<path d="M218.018 446.17H213.714V450.474H218.018V446.17Z" fill="#FAFAFA"/>
<path d="M224.854 287.426H220.55V291.73H224.854V287.426Z" fill="#FAFAFA"/>
<path d="M224.854 294.641H220.55V298.945H224.854V294.641Z" fill="#FAFAFA"/>
<path d="M224.854 301.857H220.55V306.162H224.854V301.857Z" fill="#FAFAFA"/>
<path d="M224.854 309.072H220.55V313.377H224.854V309.072Z" fill="#FAFAFA"/>
<path d="M224.854 316.289H220.55V320.593H224.854V316.289Z" fill="#FAFAFA"/>
<path d="M224.854 323.504H220.55V327.808H224.854V323.504Z" fill="#FAFAFA"/>
<path d="M224.854 330.719H220.55V335.023H224.854V330.719Z" fill="#FAFAFA"/>
<path d="M224.854 337.936H220.55V342.24H224.854V337.936Z" fill="#FAFAFA"/>
<path d="M224.854 345.15H220.55V349.455H224.854V345.15Z" fill="#FAFAFA"/>
<path d="M224.854 352.367H220.55V356.672H224.854V352.367Z" fill="#FAFAFA"/>
<path d="M224.854 359.582H220.55V363.886H224.854V359.582Z" fill="#FAFAFA"/>
<path d="M224.854 366.797H220.55V371.101H224.854V366.797Z" fill="#FAFAFA"/>
<path d="M224.854 374.014H220.55V378.318H224.854V374.014Z" fill="#FAFAFA"/>
<path d="M224.854 381.229H220.55V385.533H224.854V381.229Z" fill="#FAFAFA"/>
<path d="M224.854 388.443H220.55V392.748H224.854V388.443Z" fill="#FAFAFA"/>
<path d="M224.854 395.66H220.55V399.964H224.854V395.66Z" fill="#FAFAFA"/>
<path d="M224.854 438.955H220.55V443.259H224.854V438.955Z" fill="#FAFAFA"/>
<path d="M224.854 446.17H220.55V450.474H224.854V446.17Z" fill="#FAFAFA"/>
<path d="M231.691 287.426H227.387V291.73H231.691V287.426Z" fill="#FAFAFA"/>
<path d="M231.691 294.641H227.387V298.945H231.691V294.641Z" fill="#FAFAFA"/>
<path d="M231.691 301.857H227.387V306.162H231.691V301.857Z" fill="#FAFAFA"/>
<path d="M231.691 309.072H227.387V313.377H231.691V309.072Z" fill="#FAFAFA"/>
<path d="M231.691 316.289H227.387V320.593H231.691V316.289Z" fill="#FAFAFA"/>
<path d="M231.691 323.504H227.387V327.808H231.691V323.504Z" fill="#FAFAFA"/>
<path d="M231.691 330.719H227.387V335.023H231.691V330.719Z" fill="#FAFAFA"/>
<path d="M231.691 337.936H227.387V342.24H231.691V337.936Z" fill="#FAFAFA"/>
<path d="M231.691 345.15H227.387V349.455H231.691V345.15Z" fill="#FAFAFA"/>
<path d="M231.691 352.367H227.387V356.672H231.691V352.367Z" fill="#FAFAFA"/>
<path d="M231.691 359.582H227.387V363.886H231.691V359.582Z" fill="#FAFAFA"/>
<path d="M231.691 366.797H227.387V371.101H231.691V366.797Z" fill="#FAFAFA"/>
<path d="M231.691 374.014H227.387V378.318H231.691V374.014Z" fill="#FAFAFA"/>
<path d="M231.691 381.229H227.387V385.533H231.691V381.229Z" fill="#FAFAFA"/>
<path d="M231.691 388.443H227.387V392.748H231.691V388.443Z" fill="#FAFAFA"/>
<path d="M231.691 395.66H227.387V399.964H231.691V395.66Z" fill="#FAFAFA"/>
<path d="M231.691 410.094H227.387V414.398H231.691V410.094Z" fill="#FAFAFA"/>
<path d="M231.691 417.309H227.387V421.613H231.691V417.309Z" fill="#FAFAFA"/>
<path d="M231.691 424.523H227.387V428.828H231.691V424.523Z" fill="#FAFAFA"/>
<path d="M231.691 431.738H227.387V436.043H231.691V431.738Z" fill="#FAFAFA"/>
<path d="M231.691 446.17H227.387V450.474H231.691V446.17Z" fill="#FAFAFA"/>
<path d="M193.206 378.318H188.901V382.623H193.206V378.318Z" fill="#FAFAFA"/>
<path d="M193.206 385.533H188.901V389.838H193.206V385.533Z" fill="#FAFAFA"/>
<path d="M193.206 392.748H188.901V397.052H193.206V392.748Z" fill="#FAFAFA"/>
<path d="M193.206 399.965H188.901V404.269H193.206V399.965Z" fill="#FAFAFA"/>
<path d="M193.206 407.18H188.901V411.484H193.206V407.18Z" fill="#FAFAFA"/>
<path d="M193.206 414.395H188.901V418.699H193.206V414.395Z" fill="#FAFAFA"/>
<path d="M193.206 421.611H188.901V425.916H193.206V421.611Z" fill="#FAFAFA"/>
<path d="M193.206 436.043H188.901V440.347H193.206V436.043Z" fill="#FAFAFA"/>
<path d="M193.206 443.258H188.901V447.562H193.206V443.258Z" fill="#FAFAFA"/>
<path d="M193.206 450.473H188.901V454.777H193.206V450.473Z" fill="#FAFAFA"/>
<path d="M193.206 457.689H188.901V461.994H193.206V457.689Z" fill="#FAFAFA"/>
<path d="M193.206 464.906H188.901V469.211H193.206V464.906Z" fill="#FAFAFA"/>
<path d="M193.206 472.121H188.901V476.425H193.206V472.121Z" fill="#FAFAFA"/>
<path d="M193.206 479.336H188.901V483.64H193.206V479.336Z" fill="#FAFAFA"/>
<path d="M193.206 486.551H188.901V490.855H193.206V486.551Z" fill="#FAFAFA"/>
<path d="M200.043 378.318H195.738V382.623H200.043V378.318Z" fill="#FAFAFA"/>
<path d="M200.043 385.533H195.738V389.838H200.043V385.533Z" fill="#FAFAFA"/>
<path d="M200.043 392.748H195.738V397.052H200.043V392.748Z" fill="#FAFAFA"/>
<path d="M200.043 399.965H195.738V404.269H200.043V399.965Z" fill="#FAFAFA"/>
<path d="M200.043 407.18H195.738V411.484H200.043V407.18Z" fill="#FAFAFA"/>
<path d="M200.043 414.395H195.738V418.699H200.043V414.395Z" fill="#FAFAFA"/>
<path d="M200.043 436.043H195.738V440.347H200.043V436.043Z" fill="#FAFAFA"/>
<path d="M200.043 443.258H195.738V447.562H200.043V443.258Z" fill="#FAFAFA"/>
<path d="M200.043 450.473H195.738V454.777H200.043V450.473Z" fill="#FAFAFA"/>
<path d="M200.043 457.689H195.738V461.994H200.043V457.689Z" fill="#FAFAFA"/>
<path d="M200.043 464.906H195.738V469.211H200.043V464.906Z" fill="#FAFAFA"/>
<path d="M200.043 472.121H195.738V476.425H200.043V472.121Z" fill="#FAFAFA"/>
<path d="M200.043 479.336H195.738V483.64H200.043V479.336Z" fill="#FAFAFA"/>
<path d="M200.043 486.551H195.738V490.855H200.043V486.551Z" fill="#FAFAFA"/>
<path d="M206.879 378.318H202.574V382.623H206.879V378.318Z" fill="#FAFAFA"/>
<path d="M206.879 385.533H202.574V389.838H206.879V385.533Z" fill="#FAFAFA"/>
<path d="M206.879 392.748H202.574V397.052H206.879V392.748Z" fill="#FAFAFA"/>
<path d="M206.879 399.965H202.574V404.269H206.879V399.965Z" fill="#FAFAFA"/>
<path d="M206.879 407.18H202.574V411.484H206.879V407.18Z" fill="#FAFAFA"/>
<path d="M206.879 414.395H202.574V418.699H206.879V414.395Z" fill="#FAFAFA"/>
<path d="M206.879 428.826H202.574V433.13H206.879V428.826Z" fill="#FAFAFA"/>
<path d="M206.879 436.043H202.574V440.347H206.879V436.043Z" fill="#FAFAFA"/>
<path d="M206.879 443.258H202.574V447.562H206.879V443.258Z" fill="#FAFAFA"/>
<path d="M206.879 450.473H202.574V454.777H206.879V450.473Z" fill="#FAFAFA"/>
<path d="M206.879 457.689H202.574V461.994H206.879V457.689Z" fill="#FAFAFA"/>
<path d="M206.879 464.906H202.574V469.211H206.879V464.906Z" fill="#FAFAFA"/>
<path d="M206.879 472.121H202.574V476.425H206.879V472.121Z" fill="#FAFAFA"/>
<path d="M206.879 479.336H202.574V483.64H206.879V479.336Z" fill="#FAFAFA"/>
<path d="M206.879 486.551H202.574V490.855H206.879V486.551Z" fill="#FAFAFA"/>
<path d="M350.938 337.936H346.634V342.24H350.938V337.936Z" fill="#FAFAFA"/>
<path d="M350.938 345.15H346.634V349.455H350.938V345.15Z" fill="#FAFAFA"/>
<path d="M350.938 352.367H346.634V356.672H350.938V352.367Z" fill="#FAFAFA"/>
<path d="M350.938 359.582H346.634V363.886H350.938V359.582Z" fill="#FAFAFA"/>
<path d="M350.938 366.797H346.634V371.101H350.938V366.797Z" fill="#FAFAFA"/>
<path d="M350.938 374.014H346.634V378.318H350.938V374.014Z" fill="#FAFAFA"/>
<path d="M350.938 381.229H346.634V385.533H350.938V381.229Z" fill="#FAFAFA"/>
<path d="M350.938 388.443H346.634V392.748H350.938V388.443Z" fill="#FAFAFA"/>
<path d="M350.938 395.66H346.634V399.964H350.938V395.66Z" fill="#FAFAFA"/>
<path d="M350.938 402.875H346.634V407.179H350.938V402.875Z" fill="#FAFAFA"/>
<path d="M350.938 410.094H346.634V414.398H350.938V410.094Z" fill="#FAFAFA"/>
<path d="M350.938 417.309H346.634V421.613H350.938V417.309Z" fill="#FAFAFA"/>
<path d="M350.938 424.523H346.634V428.828H350.938V424.523Z" fill="#FAFAFA"/>
<path d="M350.938 438.955H346.634V443.259H350.938V438.955Z" fill="#FAFAFA"/>
<path d="M350.938 446.17H346.634V450.474H350.938V446.17Z" fill="#FAFAFA"/>
<path d="M350.938 453.387H346.634V457.691H350.938V453.387Z" fill="#FAFAFA"/>
<path d="M350.938 460.602H346.634V464.904H350.938V460.602Z" fill="#FAFAFA"/>
<path d="M350.938 475.031H346.634V479.336H350.938V475.031Z" fill="#FAFAFA"/>
<path d="M350.938 482.246H346.634V486.55H350.938V482.246Z" fill="#FAFAFA"/>
<path d="M350.938 489.463H346.634V493.767H350.938V489.463Z" fill="#FAFAFA"/>
<path d="M357.774 337.936H353.47V342.24H357.774V337.936Z" fill="#FAFAFA"/>
<path d="M357.774 345.15H353.47V349.455H357.774V345.15Z" fill="#FAFAFA"/>
<path d="M357.774 352.367H353.47V356.672H357.774V352.367Z" fill="#FAFAFA"/>
<path d="M357.774 359.582H353.47V363.886H357.774V359.582Z" fill="#FAFAFA"/>
<path d="M357.774 366.797H353.47V371.101H357.774V366.797Z" fill="#FAFAFA"/>
<path d="M357.774 374.014H353.47V378.318H357.774V374.014Z" fill="#FAFAFA"/>
<path d="M357.774 381.229H353.47V385.533H357.774V381.229Z" fill="#FAFAFA"/>
<path d="M357.774 388.443H353.47V392.748H357.774V388.443Z" fill="#FAFAFA"/>
<path d="M357.774 395.66H353.47V399.964H357.774V395.66Z" fill="#FAFAFA"/>
<path d="M357.774 402.875H353.47V407.179H357.774V402.875Z" fill="#FAFAFA"/>
<path d="M357.774 410.094H353.47V414.398H357.774V410.094Z" fill="#FAFAFA"/>
<path d="M357.774 417.309H353.47V421.613H357.774V417.309Z" fill="#FAFAFA"/>
<path d="M357.774 424.523H353.47V428.828H357.774V424.523Z" fill="#FAFAFA"/>
<path d="M357.774 446.17H353.47V450.474H357.774V446.17Z" fill="#FAFAFA"/>
<path d="M357.774 453.387H353.47V457.691H357.774V453.387Z" fill="#FAFAFA"/>
<path d="M357.774 467.816H353.47V472.121H357.774V467.816Z" fill="#FAFAFA"/>
<path d="M357.774 475.031H353.47V479.336H357.774V475.031Z" fill="#FAFAFA"/>
<path d="M357.774 482.246H353.47V486.55H357.774V482.246Z" fill="#FAFAFA"/>
<path d="M357.774 489.463H353.47V493.767H357.774V489.463Z" fill="#FAFAFA"/>
<path d="M364.609 337.936H360.305V342.24H364.609V337.936Z" fill="#FAFAFA"/>
<path d="M364.609 345.15H360.305V349.455H364.609V345.15Z" fill="#FAFAFA"/>
<path d="M364.609 352.367H360.305V356.672H364.609V352.367Z" fill="#FAFAFA"/>
<path d="M364.609 359.582H360.305V363.886H364.609V359.582Z" fill="#FAFAFA"/>
<path d="M364.609 366.797H360.305V371.101H364.609V366.797Z" fill="#FAFAFA"/>
<path d="M364.609 374.014H360.305V378.318H364.609V374.014Z" fill="#FAFAFA"/>
<path d="M364.609 381.229H360.305V385.533H364.609V381.229Z" fill="#FAFAFA"/>
<path d="M364.609 388.443H360.305V392.748H364.609V388.443Z" fill="#FAFAFA"/>
<path d="M364.609 395.66H360.305V399.964H364.609V395.66Z" fill="#FAFAFA"/>
<path d="M364.609 402.875H360.305V407.179H364.609V402.875Z" fill="#FAFAFA"/>
<path d="M364.609 410.094H360.305V414.398H364.609V410.094Z" fill="#FAFAFA"/>
<path d="M364.609 417.309H360.305V421.613H364.609V417.309Z" fill="#FAFAFA"/>
<path d="M364.609 424.523H360.305V428.828H364.609V424.523Z" fill="#FAFAFA"/>
<path d="M364.609 431.738H360.305V436.043H364.609V431.738Z" fill="#FAFAFA"/>
<path d="M364.609 446.17H360.305V450.474H364.609V446.17Z" fill="#FAFAFA"/>
<path d="M364.609 460.602H360.305V464.904H364.609V460.602Z" fill="#FAFAFA"/>
<path d="M364.609 467.816H360.305V472.121H364.609V467.816Z" fill="#FAFAFA"/>
<path d="M364.609 475.031H360.305V479.336H364.609V475.031Z" fill="#FAFAFA"/>
<path d="M364.609 482.246H360.305V486.55H364.609V482.246Z" fill="#FAFAFA"/>
<path d="M364.609 489.463H360.305V493.767H364.609V489.463Z" fill="#FAFAFA"/>
<path d="M323.088 379.078H318.784V383.382H323.088V379.078Z" fill="#FAFAFA"/>
<path d="M323.088 386.293H318.784V390.597H323.088V386.293Z" fill="#FAFAFA"/>
<path d="M323.088 393.508H318.784V397.812H323.088V393.508Z" fill="#FAFAFA"/>
<path d="M323.088 400.725H318.784V405.029H323.088V400.725Z" fill="#FAFAFA"/>
<path d="M323.088 407.938H318.784V412.242H323.088V407.938Z" fill="#FAFAFA"/>
<path d="M323.088 415.154H318.784V419.459H323.088V415.154Z" fill="#FAFAFA"/>
<path d="M323.088 436.803H318.784V441.107H323.088V436.803Z" fill="#FAFAFA"/>
<path d="M323.088 444.018H318.784V448.322H323.088V444.018Z" fill="#FAFAFA"/>
<path d="M323.088 451.234H318.784V455.539H323.088V451.234Z" fill="#FAFAFA"/>
<path d="M323.088 458.449H318.784V462.754H323.088V458.449Z" fill="#FAFAFA"/>
<path d="M323.088 465.664H318.784V469.968H323.088V465.664Z" fill="#FAFAFA"/>
<path d="M323.088 472.881H318.784V477.185H323.088V472.881Z" fill="#FAFAFA"/>
<path d="M323.088 480.096H318.784V484.4H323.088V480.096Z" fill="#FAFAFA"/>
<path d="M329.923 379.078H325.619V383.382H329.923V379.078Z" fill="#FAFAFA"/>
<path d="M329.923 386.293H325.619V390.597H329.923V386.293Z" fill="#FAFAFA"/>
<path d="M329.923 393.508H325.619V397.812H329.923V393.508Z" fill="#FAFAFA"/>
<path d="M329.923 400.725H325.619V405.029H329.923V400.725Z" fill="#FAFAFA"/>
<path d="M329.923 407.938H325.619V412.242H329.923V407.938Z" fill="#FAFAFA"/>
<path d="M329.923 415.154H325.619V419.459H329.923V415.154Z" fill="#FAFAFA"/>
<path d="M329.923 436.803H325.619V441.107H329.923V436.803Z" fill="#FAFAFA"/>
<path d="M329.923 444.018H325.619V448.322H329.923V444.018Z" fill="#FAFAFA"/>
<path d="M329.923 451.234H325.619V455.539H329.923V451.234Z" fill="#FAFAFA"/>
<path d="M329.923 458.449H325.619V462.754H329.923V458.449Z" fill="#FAFAFA"/>
<path d="M329.923 465.664H325.619V469.968H329.923V465.664Z" fill="#FAFAFA"/>
<path d="M329.923 472.881H325.619V477.185H329.923V472.881Z" fill="#FAFAFA"/>
<path d="M329.923 487.312H325.619V491.617H329.923V487.312Z" fill="#FAFAFA"/>
<path d="M557.026 347.303H552.722V351.607H557.026V347.303Z" fill="#FAFAFA"/>
<path d="M557.026 354.52H552.722V358.824H557.026V354.52Z" fill="#FAFAFA"/>
<path d="M557.026 361.734H552.722V366.039H557.026V361.734Z" fill="#FAFAFA"/>
<path d="M557.026 368.949H552.722V373.254H557.026V368.949Z" fill="#FAFAFA"/>
<path d="M557.026 376.166H552.722V380.47H557.026V376.166Z" fill="#FAFAFA"/>
<path d="M557.026 383.381H552.722V387.685H557.026V383.381Z" fill="#FAFAFA"/>
<path d="M557.026 390.596H552.722V394.9H557.026V390.596Z" fill="#FAFAFA"/>
<path d="M557.026 397.812H552.722V402.117H557.026V397.812Z" fill="#FAFAFA"/>
<path d="M557.026 405.029H552.722V409.334H557.026V405.029Z" fill="#FAFAFA"/>
<path d="M557.026 412.242H552.722V416.547H557.026V412.242Z" fill="#FAFAFA"/>
<path d="M557.026 419.459H552.722V423.763H557.026V419.459Z" fill="#FAFAFA"/>
<path d="M557.026 433.891H552.722V438.195H557.026V433.891Z" fill="#FAFAFA"/>
<path d="M557.026 441.105H552.722V445.41H557.026V441.105Z" fill="#FAFAFA"/>
<path d="M557.026 448.32H552.722V452.625H557.026V448.32Z" fill="#FAFAFA"/>
<path d="M557.026 455.537H552.722V459.841H557.026V455.537Z" fill="#FAFAFA"/>
<path d="M557.026 462.752H552.722V467.056H557.026V462.752Z" fill="#FAFAFA"/>
<path d="M557.026 469.969H552.722V474.273H557.026V469.969Z" fill="#FAFAFA"/>
<path d="M557.026 477.186H552.722V481.49H557.026V477.186Z" fill="#FAFAFA"/>
<path d="M557.026 484.4H552.722V488.705H557.026V484.4Z" fill="#FAFAFA"/>
<path d="M563.861 347.303H559.557V351.607H563.861V347.303Z" fill="#FAFAFA"/>
<path d="M563.861 354.52H559.557V358.824H563.861V354.52Z" fill="#FAFAFA"/>
<path d="M563.861 361.734H559.557V366.039H563.861V361.734Z" fill="#FAFAFA"/>
<path d="M563.861 368.949H559.557V373.254H563.861V368.949Z" fill="#FAFAFA"/>
<path d="M563.861 376.166H559.557V380.47H563.861V376.166Z" fill="#FAFAFA"/>
<path d="M563.861 383.381H559.557V387.685H563.861V383.381Z" fill="#FAFAFA"/>
<path d="M563.861 390.596H559.557V394.9H563.861V390.596Z" fill="#FAFAFA"/>
<path d="M563.861 397.812H559.557V402.117H563.861V397.812Z" fill="#FAFAFA"/>
<path d="M563.861 405.029H559.557V409.334H563.861V405.029Z" fill="#FAFAFA"/>
<path d="M563.861 412.242H559.557V416.547H563.861V412.242Z" fill="#FAFAFA"/>
<path d="M563.861 419.459H559.557V423.763H563.861V419.459Z" fill="#FAFAFA"/>
<path d="M563.861 426.676H559.557V430.98H563.861V426.676Z" fill="#FAFAFA"/>
<path d="M563.861 433.891H559.557V438.195H563.861V433.891Z" fill="#FAFAFA"/>
<path d="M563.861 441.105H559.557V445.41H563.861V441.105Z" fill="#FAFAFA"/>
<path d="M563.861 448.32H559.557V452.625H563.861V448.32Z" fill="#FAFAFA"/>
<path d="M563.861 455.537H559.557V459.841H563.861V455.537Z" fill="#FAFAFA"/>
<path d="M563.861 462.752H559.557V467.056H563.861V462.752Z" fill="#FAFAFA"/>
<path d="M563.861 469.969H559.557V474.273H563.861V469.969Z" fill="#FAFAFA"/>
<path d="M563.861 477.186H559.557V481.49H563.861V477.186Z" fill="#FAFAFA"/>
<path d="M563.861 484.4H559.557V488.705H563.861V484.4Z" fill="#FAFAFA"/>
<path d="M523.353 375.406H519.049V379.711H523.353V375.406Z" fill="#FAFAFA"/>
<path d="M523.353 382.621H519.049V386.925H523.353V382.621Z" fill="#FAFAFA"/>
<path d="M523.353 389.838H519.049V394.142H523.353V389.838Z" fill="#FAFAFA"/>
<path d="M523.353 397.053H519.049V401.357H523.353V397.053Z" fill="#FAFAFA"/>
<path d="M523.353 404.27H519.049V408.574H523.353V404.27Z" fill="#FAFAFA"/>
<path d="M523.353 411.484H519.049V415.789H523.353V411.484Z" fill="#FAFAFA"/>
<path d="M523.353 418.699H519.049V423.004H523.353V418.699Z" fill="#FAFAFA"/>
<path d="M523.353 425.916H519.049V430.22H523.353V425.916Z" fill="#FAFAFA"/>
<path d="M523.353 433.131H519.049V437.435H523.353V433.131Z" fill="#FAFAFA"/>
<path d="M523.353 440.346H519.049V444.65H523.353V440.346Z" fill="#FAFAFA"/>
<path d="M530.189 375.406H525.885V379.711H530.189V375.406Z" fill="#FAFAFA"/>
<path d="M530.189 382.621H525.885V386.925H530.189V382.621Z" fill="#FAFAFA"/>
<path d="M530.189 389.838H525.885V394.142H530.189V389.838Z" fill="#FAFAFA"/>
<path d="M530.189 397.053H525.885V401.357H530.189V397.053Z" fill="#FAFAFA"/>
<path d="M530.189 404.27H525.885V408.574H530.189V404.27Z" fill="#FAFAFA"/>
<path d="M530.189 411.484H525.885V415.789H530.189V411.484Z" fill="#FAFAFA"/>
<path d="M530.189 418.699H525.885V423.004H530.189V418.699Z" fill="#FAFAFA"/>
<path d="M530.189 425.916H525.885V430.22H530.189V425.916Z" fill="#FAFAFA"/>
<path d="M530.189 433.131H525.885V437.435H530.189V433.131Z" fill="#FAFAFA"/>
<path d="M540.14 185.747C540.14 181.429 543.642 177.928 547.959 177.928C548.74 177.928 549.494 178.045 550.204 178.26C550.09 177.476 550.029 176.675 550.029 175.858C550.029 166.714 557.442 159.301 566.586 159.301C567.628 159.301 568.647 159.402 569.636 159.587C572.179 155.422 576.754 152.633 581.992 152.633C589.92 152.633 596.352 159.004 596.47 166.903C596.55 166.902 596.629 166.891 596.71 166.891C604.076 166.891 610.049 172.862 610.049 180.23C610.049 187.595 604.078 193.568 596.71 193.568H547.727L547.738 193.556C543.523 193.437 540.14 189.99 540.14 185.747Z" fill="#F5F5F5"/>
<path d="M215.012 149.711H181.451C181.54 148.906 181.593 148.092 181.593 147.263C181.593 135.063 171.703 125.172 159.502 125.172C159.23 125.172 158.967 125.204 158.698 125.213C155.929 117.783 148.793 112.482 140.398 112.482C129.604 112.482 120.854 121.232 120.854 132.027C120.854 132.041 120.855 132.056 120.855 132.071C111.285 132.519 103.617 140.155 103.119 149.711H102.23C96.8285 149.711 92.4082 154.131 92.4082 159.533C92.4082 164.934 96.8285 169.355 102.23 169.355H215.011C220.412 169.355 224.833 164.934 224.833 159.533C224.834 154.13 220.414 149.711 215.012 149.711Z" fill="#F5F5F5"/>
<path d="M352.704 575C511.914 575 640.98 567.463 640.98 558.165C640.98 548.867 511.914 541.33 352.704 541.33C193.493 541.33 64.4268 548.867 64.4268 558.165C64.4268 567.463 193.493 575 352.704 575Z" fill="#F5F5F5"/>
<path d="M183.394 433.684H142.972V440.425H183.394V433.684Z" fill="#263238"/>
<path opacity="0.3" d="M183.394 440.425H146.583L147.435 433.684H183.394V440.425Z" fill="white"/>
<path d="M100.968 561.306H108.026L163.085 306.059H156.027L100.968 561.306Z" fill="#263238"/>
<path opacity="0.2" d="M102.977 561.306H108.026L163.085 306.059H158.036L102.977 561.306Z" fill="white"/>
<path d="M201.328 561.007H194.27L163.451 306.059H170.509L201.328 561.007Z" fill="#263238"/>
<path opacity="0.4" d="M201.328 561.007H196.279L165.46 306.059H170.509L201.328 561.007Z" fill="white"/>
<path d="M127.323 561.007H134.381L158.622 306.059H151.564L127.323 561.007Z" fill="#263238"/>
<path opacity="0.4" d="M129.332 561.007H134.381L158.622 306.059H153.573L129.332 561.007Z" fill="white"/>
<path d="M177.679 348.331C197.17 338.27 202.833 310.475 190.328 286.25C177.823 262.025 151.885 250.543 132.394 260.605C112.903 270.666 107.24 298.461 119.745 322.686C132.25 346.911 158.188 358.393 177.679 348.331Z" fill="#0A5840"/>
<path d="M180.653 346.843C200.144 336.782 205.808 308.987 193.302 284.762C180.797 260.537 154.859 249.055 135.369 259.116C115.878 269.178 110.215 296.972 122.72 321.197C135.225 345.422 161.163 356.904 180.653 346.843Z" fill="#0A5840"/>
<g opacity="0.7">
<path d="M180.653 346.843C200.144 336.782 205.808 308.987 193.302 284.762C180.797 260.537 154.859 249.055 135.369 259.116C115.878 269.178 110.215 296.972 122.72 321.197C135.225 345.422 161.163 356.904 180.653 346.843Z" fill="white"/>
</g>
<path opacity="0.3" d="M193.313 284.739C180.806 260.514 154.87 249.035 135.378 259.097C115.888 269.16 110.221 296.956 122.73 321.181C135.238 345.406 161.173 356.885 180.665 346.822C200.156 336.76 205.817 308.964 193.313 284.739ZM179.07 336.929C163.338 345.052 142.405 335.786 132.308 316.233C122.217 296.684 126.787 274.245 142.516 266.127C158.248 258.005 179.186 267.27 189.283 286.824C199.374 306.377 194.802 328.811 179.07 336.929Z" fill="#0A5840"/>
<path opacity="0.5" d="M186.003 288.515C177.917 272.858 161.149 265.435 148.55 271.937C135.951 278.443 132.292 296.41 140.377 312.068C148.459 327.73 165.227 335.152 177.825 328.646C190.424 322.144 194.085 304.173 186.003 288.515ZM176.127 321.189C166.836 325.989 154.265 320.128 148.058 308.105C141.849 296.079 144.353 282.439 153.648 277.639C162.941 272.844 175.51 278.701 181.718 290.728C187.927 302.751 185.423 316.391 176.127 321.189Z" fill="#0A5840"/>
<path opacity="0.7" d="M158.334 283.949C151.997 287.218 150.451 296.822 154.877 305.401C159.304 313.975 168.028 318.273 174.365 315.002C180.702 311.733 182.248 302.13 177.822 293.555C173.396 284.981 164.671 280.678 158.334 283.949ZM173.208 309.925C168.914 312.137 162.844 308.914 159.649 302.721C156.453 296.526 157.34 289.712 161.629 287.495C165.923 285.278 171.994 288.501 175.189 294.699C178.39 300.891 177.502 307.708 173.208 309.925Z" fill="#0A5840"/>
<path d="M164.954 291.973C162.59 293.194 162.101 296.949 163.863 300.362C165.625 303.774 168.968 305.551 171.334 304.33C173.698 303.109 174.187 299.354 172.425 295.941C170.663 292.529 167.318 290.752 164.954 291.973Z" fill="#0A5840"/>
<path d="M225.792 257.289L214.259 263.244L213.402 274.57L223.134 280.431L234.665 274.478L224.747 268.714L225.792 257.289Z" fill="#0A5840"/>
<path d="M170.33 299.086C169.455 299.204 168.561 298.77 168.133 297.94C167.587 296.884 168.002 295.586 169.058 295.041L225.524 265.89C226.58 265.346 227.878 265.759 228.422 266.815C228.967 267.871 228.553 269.169 227.497 269.713L171.031 298.863C170.805 298.982 170.568 299.055 170.33 299.086Z" fill="#263238"/>
<g opacity="0.6">
<path d="M170.33 299.086C169.455 299.204 168.561 298.77 168.133 297.94C167.587 296.884 168.002 295.586 169.058 295.041L225.524 265.89C226.58 265.346 227.878 265.759 228.422 266.815C228.967 267.871 228.553 269.169 227.497 269.713L171.031 298.863C170.805 298.982 170.568 299.055 170.33 299.086Z" fill="white"/>
</g>
<path d="M558.093 528.137V530.596L566.595 533.981H558.093V539.786H565.42L573.159 544.849H567.354L575.095 549.346H567.354V560.873L430.496 560.927V554.489L425.352 549.346H431.639V534.949H420.42V530.113H414.831V528.137H558.093Z" fill="#0A5840"/>
<path opacity="0.7" d="M558.093 528.137V530.596L566.595 533.981H558.093V539.786H565.42L573.159 544.849H567.354L575.095 549.346H567.354V560.873L430.496 560.927V554.489L425.352 549.346H431.639V534.949H420.42V530.113H414.831V528.137H558.093Z" fill="white"/>
<path opacity="0.1" d="M558.093 528.137V530.596L566.595 533.981H558.093V539.786H565.42L573.159 544.849H567.354L575.095 549.346H567.354V560.873L492.85 560.927V554.489L487.707 549.346H493.995V534.949H482.775V530.113H477.187V528.137H558.093Z" fill="black"/>
<path opacity="0.1" d="M431.64 534.949H493.995L494.267 539.303L431.64 534.949Z" fill="black"/>
<path opacity="0.1" d="M420.42 530.113H482.775L420.42 532.29V530.113Z" fill="black"/>
<path opacity="0.1" d="M431.64 549.346H493.995L431.64 547.041V549.346Z" fill="black"/>
<path opacity="0.1" d="M430.494 554.488H492.85V556.867L430.494 554.488Z" fill="black"/>
<path opacity="0.1" d="M558.095 530.596L493.995 530.113L558.095 528.662V530.596Z" fill="black"/>
<path opacity="0.1" d="M558.094 533.98H492.85L558.094 536.157V533.98Z" fill="black"/>
<path opacity="0.1" d="M567.354 544.848H494.963V547.041L567.354 544.848Z" fill="black"/>
<path opacity="0.1" d="M567.355 549.346H514.898L567.355 550.789V549.346Z" fill="black"/>
<path d="M570.904 495.875V498.333L579.404 501.72H570.904V507.523H578.231L585.969 512.585H580.163L587.904 517.083H580.163V528.612L443.305 528.664V522.226L438.161 517.083H444.45V502.686H433.229V497.849H427.642V495.875H570.904Z" fill="#0A5840"/>
<path opacity="0.7" d="M570.904 495.875V498.333L579.404 501.72H570.904V507.523H578.231L585.969 512.585H580.163L587.904 517.083H580.163V528.612L443.305 528.664V522.226L438.161 517.083H444.45V502.686H433.229V497.849H427.642V495.875H570.904Z" fill="white"/>
<path opacity="0.1" d="M570.904 495.875V498.333L579.404 501.72H570.904V507.523H578.231L585.969 512.585H580.163L587.904 517.083H580.163V528.612L505.661 528.664V522.226L500.518 517.083H506.805V502.686H495.586V497.849H489.997V495.875H570.904Z" fill="black"/>
<path opacity="0.1" d="M444.45 502.688H506.806L507.076 507.041L444.45 502.688Z" fill="black"/>
<path opacity="0.1" d="M433.229 497.85H495.586L433.229 500.026V497.85Z" fill="black"/>
<path opacity="0.1" d="M444.45 517.084H506.806L444.45 514.779V517.084Z" fill="black"/>
<path opacity="0.1" d="M443.306 522.227H505.661V524.605L443.306 522.227Z" fill="black"/>
<path opacity="0.1" d="M570.904 498.333L506.806 497.85L570.904 496.398V498.333Z" fill="black"/>
<path opacity="0.1" d="M570.904 501.721H505.661L570.904 503.896V501.721Z" fill="black"/>
<path opacity="0.1" d="M580.164 512.586H507.771V514.779L580.164 512.586Z" fill="black"/>
<path opacity="0.1" d="M580.165 517.084H527.707L580.165 518.528V517.084Z" fill="black"/>
<path d="M595.954 466.693L584.339 542.725L594.329 544.251L605.943 468.219L595.954 466.693Z" fill="#263238"/>
<g opacity="0.7">
<path d="M595.954 466.693L584.339 542.725L594.329 544.251L605.943 468.219L595.954 466.693Z" fill="white"/>
</g>
<g opacity="0.2">
<path d="M602.833 469.599L602.712 470.389L605.561 470.824L605.681 470.035L602.833 469.599Z" fill="black"/>
<path d="M602.489 471.834L602.368 472.623L605.216 473.059L605.337 472.27L602.489 471.834Z" fill="black"/>
<path d="M602.12 474.132L601.999 474.924L604.847 475.359L604.968 474.567L602.12 474.132Z" fill="black"/>
<path d="M601.738 476.422L601.617 477.211L604.466 477.646L604.586 476.856L601.738 476.422Z" fill="black"/>
<path d="M601.389 478.707L601.268 479.496L604.118 479.931L604.238 479.142L601.389 478.707Z" fill="black"/>
<path d="M601.045 480.999L600.924 481.791L603.772 482.226L603.893 481.434L601.045 480.999Z" fill="black"/>
<path d="M600.738 483.316L600.617 484.105L603.467 484.541L603.588 483.752L600.738 483.316Z" fill="black"/>
<path d="M600.374 485.585L600.253 486.373L603.102 486.808L603.222 486.02L600.374 485.585Z" fill="black"/>
<path d="M599.996 487.856L599.875 488.648L602.725 489.083L602.846 488.291L599.996 487.856Z" fill="black"/>
<path d="M599.696 490.121L599.575 490.91L602.423 491.346L602.544 490.557L599.696 490.121Z" fill="black"/>
<path d="M599.341 492.459L599.22 493.248L602.069 493.683L602.189 492.894L599.341 492.459Z" fill="black"/>
<path d="M598.965 494.731L598.844 495.523L601.692 495.958L601.813 495.166L598.965 494.731Z" fill="black"/>
<path d="M598.643 497.031L598.522 497.82L601.372 498.256L601.492 497.466L598.643 497.031Z" fill="black"/>
<path d="M598.245 499.279L598.125 500.068L600.973 500.503L601.093 499.714L598.245 499.279Z" fill="black"/>
<path d="M597.901 501.571L597.78 502.363L600.63 502.798L600.751 502.006L597.901 501.571Z" fill="black"/>
<path d="M597.547 503.851L597.427 504.641L600.275 505.075L600.396 504.286L597.547 503.851Z" fill="black"/>
<path d="M597.238 506.103L597.117 506.893L599.965 507.329L600.086 506.539L597.238 506.103Z" fill="black"/>
<path d="M596.854 508.429L596.733 509.221L599.582 509.656L599.703 508.863L596.854 508.429Z" fill="black"/>
<path d="M596.499 510.709L596.378 511.498L599.227 511.933L599.347 511.144L596.499 510.709Z" fill="black"/>
<path d="M596.197 513.035L596.076 513.824L598.926 514.26L599.047 513.47L596.197 513.035Z" fill="black"/>
<path d="M595.806 515.288L595.685 516.08L598.533 516.515L598.654 515.723L595.806 515.288Z" fill="black"/>
<path d="M595.452 517.566L595.332 518.355L598.181 518.791L598.302 518.001L595.452 517.566Z" fill="black"/>
<path d="M595.103 519.851L594.982 520.641L597.831 521.075L597.951 520.286L595.103 519.851Z" fill="black"/>
<path d="M594.786 522.138L594.665 522.93L597.513 523.365L597.634 522.573L594.786 522.138Z" fill="black"/>
</g>
<path d="M581.554 530.078H585.422V478.872H581.554V530.078Z" fill="#0A5840"/>
<path d="M581.87 473.068H585.107L585.422 478.871H581.555L581.87 473.068Z" fill="#0A5840"/>
<g opacity="0.8">
<path d="M581.87 473.068H585.107L585.422 478.871H581.555L581.87 473.068Z" fill="white"/>
</g>
<g opacity="0.3">
<path d="M581.554 530.078H585.422V478.872H581.554V530.078Z" fill="black"/>
</g>
<path d="M568.428 536.02L571.801 535.59L565.247 484.234L561.874 484.664L568.428 536.02Z" fill="#263238"/>
<path d="M560.104 480.481L561.097 479.316L560.884 472.399L563.007 472.139L565.682 484.122L565.502 486.705L562.129 487.136L561.648 485.78L562.38 494.877L561.947 494.932C560.564 489.34 560.104 480.481 560.104 480.481Z" fill="#263238"/>
<g opacity="0.1">
<path d="M560.104 480.481L561.097 479.316L560.884 472.399L563.007 472.139L565.682 484.122L565.502 486.705L562.129 487.136L561.648 485.78L562.38 494.877L561.947 494.932C560.564 489.34 560.104 480.481 560.104 480.481Z" fill="white"/>
</g>
<path d="M567.613 496.618L578.192 497.174L577.804 486.546L569.113 486.09L567.613 496.618Z" fill="#263238"/>
<path d="M567.613 496.617L578.192 497.173L575.736 525.906L567.045 525.448L567.613 496.617Z" fill="#0A5840"/>
<path d="M563.618 511.23H602.863L599.709 561.306H566.772L563.618 511.23Z" fill="#263238"/>
<path d="M563.057 514.445H603.423V509.34H563.057V514.445Z" fill="#263238"/>
<g opacity="0.2">
<path d="M563.057 514.445H603.423V509.34H563.057V514.445Z" fill="white"/>
</g>
<path d="M319.578 147.16H279.504C271.895 147.16 265.725 153.329 265.725 160.94V199.886C265.725 207.495 271.893 213.665 279.504 213.665H304.101L319.134 228.214L313.37 213.665H319.578C327.188 213.665 333.357 207.497 333.357 199.886V160.94C333.357 153.33 327.188 147.16 319.578 147.16Z" fill="#0A5840"/>
<path opacity="0.7" d="M319.578 147.16H279.504C271.895 147.16 265.725 153.329 265.725 160.94V199.886C265.725 207.495 271.893 213.665 279.504 213.665H304.101L319.134 228.214L313.37 213.665H319.578C327.188 213.665 333.357 207.497 333.357 199.886V160.94C333.357 153.33 327.188 147.16 319.578 147.16Z" fill="white"/>
<path d="M285.621 172.61C289.1 166.793 295.917 168.922 299.484 173.36C302.934 168.831 309.694 166.527 313.322 172.251C319.439 181.904 307.208 191.077 301.423 194.683C300.767 195.098 300.225 195.438 299.773 195.706C299.313 195.448 298.762 195.123 298.097 194.726C292.22 191.272 279.756 182.417 285.621 172.61Z" fill="#0A5840"/>
<path d="M540.503 206.432H556.867L537.317 191.613L523.15 200.307L540.503 206.432Z" fill="#0A5840"/>
<path opacity="0.4" d="M540.503 206.432H556.867L537.317 191.613L523.15 200.307L540.503 206.432Z" fill="black"/>
<path d="M543.09 142.303H528.213L468.001 181.617L484.604 187.682L377.897 386.803L258.915 399.834L161.462 561.303H215.747H237.866H292.153L342.566 448.563L452.576 436.36L539.51 200.311L556.868 206.441L543.09 142.303Z" fill="#0A5840"/>
<path opacity="0.25" d="M486.571 181.619L503.743 187.685L415.769 386.799L298.01 399.838L215.745 561.306H161.461L258.922 399.838L377.899 386.799L484.608 187.685L468 181.619L528.216 142.307L543.09 142.303L486.571 181.619Z" fill="white"/>
<path opacity="0.4" d="M468 181.617H486.57L503.743 187.683H484.608L468 181.617Z" fill="#0A5840"/>
<path d="M556.867 206.433L539.516 200.307L452.582 436.354L342.569 448.561L292.151 561.306H215.744L298.01 399.838L415.768 386.798L503.743 187.684L486.57 181.618L543.084 142.307L556.867 206.433Z" fill="#0A5840"/>
<path opacity="0.4" d="M258.922 399.838H298.01L415.769 386.799H377.9L258.922 399.838Z" fill="white"/>
<path d="M356.903 230.102C356.903 230.102 341.547 233.637 340.637 245.074C339.959 253.589 345.217 267.44 341.842 285.622C340.286 294.001 340.358 311.969 363.866 306.14C392.166 299.124 387.21 236.045 375.473 233.035C363.736 230.026 356.903 230.102 356.903 230.102Z" fill="#263238"/>
<path d="M384.936 279.395C384.917 279.395 384.897 279.394 384.876 279.389C384.713 279.357 384.606 279.197 384.639 279.032C388.477 259.766 383.016 238.34 377.419 234.562C376.433 233.896 375.501 233.844 374.65 234.401C374.509 234.49 374.323 234.453 374.229 234.314C374.137 234.174 374.177 233.985 374.317 233.893C375.377 233.197 376.568 233.255 377.758 234.058C383.465 237.91 389.248 259.01 385.233 279.151C385.205 279.296 385.079 279.395 384.936 279.395Z" fill="#263238"/>
<path d="M427.778 472.308L419.496 470.732L423.318 437.814L429.874 381.329L375.769 379.753L372.29 356.857L371.101 349.051C371.101 349.051 381.464 349.839 394.667 351.43C407.676 353.006 423.436 355.34 434.766 358.492C434.781 358.492 434.781 358.492 434.781 358.492C439.881 359.905 444.073 361.481 446.72 363.205C461.246 372.706 427.778 472.308 427.778 472.308Z" fill="#E4897B"/>
<path opacity="0.2" d="M423.317 437.814L429.874 381.329L375.769 379.753L372.29 356.857L394.667 351.43C407.676 353.006 423.436 355.34 434.766 358.492C434.231 358.492 421.295 358.73 412.375 364.93C412.375 364.93 428.938 369.747 439.078 379.739C445.753 386.325 432.863 417.429 423.317 437.814Z" fill="black"/>
<path d="M389.443 272.546C397.766 272.589 406.345 272.729 414.632 272.189C418.085 271.843 421.536 271.874 424.393 269.971C432.601 264.726 440.012 258.09 447.741 252.04C449.13 250.889 451.201 251.098 452.329 252.507C453.275 253.686 453.258 255.325 452.39 256.48C448.817 261.223 445.05 265.7 440.958 270.026C436.413 274.558 431.894 279.632 425.798 282.282C419.505 284.548 413.309 284.908 406.862 285.357C400.875 285.706 395.038 285.775 389.037 285.519C380.577 284.909 380.952 272.628 389.443 272.546Z" fill="#DC897C"/>
<path d="M388.079 272.117C398.142 271.027 412.26 272.117 412.26 272.117L409.319 287.402L386.437 291.947L388.079 272.117Z" fill="#0A5840"/>
<path opacity="0.6" d="M412.252 272.113L409.323 287.396L393.652 290.517L386.441 291.951L387.244 282.271L388.077 272.115C398.143 271.031 412.252 272.113 412.252 272.113Z" fill="white"/>
<path opacity="0.2" d="M398.064 289.638L386.441 291.95L388.196 276.764C391.895 278.529 396.309 284.862 398.064 289.638Z" fill="black"/>
<path d="M411.574 271.357L408.535 288.616L411.77 287.739L413.926 271.357H411.574Z" fill="#0A5840"/>
<path d="M361.674 353.752C361.674 353.752 424.734 365.621 436.321 378.531C447.908 391.441 386.973 480.571 386.973 480.571L379.376 476.926L412.398 393.197L354.833 393.376L361.674 353.752Z" fill="#E4897B"/>
<path d="M420.87 354.442C405.686 363.363 386.544 394.946 386.544 394.946C386.544 394.946 310.472 418.364 348.967 341.685L387.808 338.688L390.162 349.772C407.623 351.983 420.87 354.442 420.87 354.442Z" fill="#263238"/>
<path d="M349.213 336.404L348.566 342.233L388.715 343.6L389.481 336.708L349.213 336.404Z" fill="#263238"/>
<path opacity="0.2" d="M349.213 336.404L348.566 342.233L388.715 343.6L389.481 336.708L349.213 336.404Z" fill="white"/>
<path d="M362.846 335.415L360.86 335.297L360.258 345.413L362.244 345.531L362.846 335.415Z" fill="#263238"/>
<path d="M380.124 336.738L371.333 336.551L371.191 343.218L379.982 343.405L380.124 336.738Z" fill="white"/>
<path d="M387.449 335.466L385.463 335.348L384.859 345.462L386.845 345.581L387.449 335.466Z" fill="#263238"/>
<path d="M389.447 337.083L348.991 336.384C348.991 336.384 349.021 334.289 348.679 326.84C348.47 322.082 348.114 316.358 347.519 310.366C346.553 300.895 344.991 290.77 342.404 282.8C342.404 282.8 355.503 276.444 388.079 272.119C388.079 272.119 395.663 293.068 389.447 337.083Z" fill="#0A5840"/>
<path opacity="0.6" d="M379.324 306.224C379.278 306.855 378.729 307.329 378.099 307.283C377.468 307.237 376.994 306.688 377.04 306.058C377.086 305.427 377.635 304.953 378.265 304.999C378.897 305.045 379.37 305.592 379.324 306.224Z" fill="white"/>
<path opacity="0.6" d="M379.46 318.593C379.414 319.224 378.865 319.698 378.235 319.652C377.604 319.606 377.13 319.057 377.176 318.427C377.222 317.797 377.771 317.322 378.401 317.368C379.031 317.414 379.506 317.962 379.46 318.593Z" fill="white"/>
<path opacity="0.6" d="M378.505 330.191C378.459 330.822 377.91 331.296 377.279 331.25C376.649 331.204 376.175 330.655 376.221 330.025C376.267 329.394 376.816 328.92 377.446 328.966C378.076 329.012 378.551 329.559 378.505 330.191Z" fill="white"/>
<path d="M356.124 290.124C356.124 290.124 349.384 277.04 366.46 273.951C383.537 270.862 387.911 281.292 387.911 281.292L379.663 279.247L377.157 299.124C377.157 299.124 372.964 288.466 360.586 283.149L356.124 290.124Z" fill="#0A5840"/>
<path opacity="0.6" d="M356.124 290.124C356.124 290.124 349.384 277.04 366.46 273.951C383.537 270.862 387.911 281.292 387.911 281.292L379.663 279.247L377.157 299.124C377.157 299.124 372.964 288.466 360.586 283.149L356.124 290.124Z" fill="white"/>
<path d="M375.313 289.118C367.34 284.842 359.878 278.691 359.878 278.691C364.083 275.275 363.767 269.75 363.012 266.263C362.605 264.335 362.056 263.029 362.056 263.029L373.482 266.042C373.041 267.931 372.789 269.533 372.678 270.887C372.546 272.374 372.593 273.559 372.743 274.494C373.277 278.013 375.247 278.207 375.247 278.207C377.005 282.157 375.313 289.118 375.313 289.118Z" fill="#E4897B"/>
<path opacity="0.2" d="M372.679 270.889C372.547 272.375 372.595 273.56 372.745 274.496C368.189 273.554 364.972 269.619 363.014 266.263C362.606 264.335 362.058 263.029 362.058 263.029L373.484 266.042C373.041 267.933 372.789 269.534 372.679 270.889Z" fill="black"/>
<path d="M412.373 472.63L414.014 473.987L416.148 472.341L419.542 479.289L433.288 490.689C433.288 490.689 437.297 490.304 432.201 483.124C431.969 482.797 431.757 482.426 431.568 482C429.434 477.468 429.051 467.821 429.051 467.821L421.508 461.566C421.508 461.566 420.931 461.726 419.989 462.142C417.79 463.117 413.478 465.419 412.373 472.63Z" fill="#263238"/>
<path d="M419.989 462.14C419.98 462.152 419.97 462.163 419.97 462.163C421.886 461.879 422.375 470.513 424.319 474.924C426.058 478.858 428.847 482.273 431.568 481.998C429.435 477.466 429.872 465.768 429.872 465.768L423.807 460.738C423.807 460.738 420.933 461.726 419.989 462.14Z" fill="#E4897B"/>
<path d="M369.715 480.101L370.995 481.803L373.453 480.698L375.136 488.245L385.851 502.529C385.851 502.529 389.839 503.088 386.556 494.92C386.407 494.548 386.285 494.138 386.202 493.68C385.182 488.776 387.054 479.305 387.054 479.305L381.175 471.467C381.175 471.467 380.577 471.488 379.563 471.672C377.195 472.109 372.467 473.346 369.715 480.101Z" fill="#263238"/>
<path d="M379.562 471.672C379.55 471.68 379.538 471.689 379.538 471.689C381.468 471.859 379.935 480.369 380.797 485.112C381.574 489.344 383.493 493.314 386.202 493.679C385.182 488.776 388.328 477.5 388.328 477.5L383.6 471.197C383.6 471.197 380.576 471.487 379.562 471.672Z" fill="#E4897B"/>
<path d="M446.496 253.326L452.531 241.812L461.626 248.63C461.626 248.63 458.538 257.271 450.971 257.484L446.496 253.326Z" fill="#E4897B"/>
<path d="M460.172 236.592L465.734 243.294L461.626 248.628L452.531 241.812L460.172 236.592Z" fill="#E4897B"/>
<path d="M368.855 343.598L381.811 344.671L379.075 355.702C379.075 355.702 369.914 356.224 366.771 349.338L368.855 343.598Z" fill="#E4897B"/>
<path d="M389.594 349.677L385.587 357.411L379.075 355.704L381.811 344.672L389.594 349.677Z" fill="#E4897B"/>
<path d="M444.231 353.967V357.74C444.231 358.71 443.09 359.105 442.134 359.105H366.71C365.742 359.105 364.576 358.708 364.576 357.74V353.967H444.231Z" fill="#263238"/>
<path opacity="0.4" d="M444.231 353.967V357.74C444.231 358.71 443.09 359.105 442.134 359.105H366.71C365.742 359.105 364.576 358.708 364.576 357.74V353.967H444.231Z" fill="white"/>
<path opacity="0.2" d="M444.23 353.967V357.74C444.23 358.71 443.09 359.105 442.134 359.105H392.387C391.419 359.105 390.27 358.708 390.27 357.74V353.967H444.23Z" fill="black"/>
<path d="M456.85 314.781L447.871 355.506C447.578 356.847 446.272 357.821 444.955 357.821H395.908C394.601 357.821 393.763 356.603 394.066 355.262L403.033 314.848C403.336 313.517 404.63 312.855 405.947 312.855H454.997C456.314 312.854 457.143 313.45 456.85 314.781Z" fill="#263238"/>
<path opacity="0.4" d="M456.85 314.781L447.871 355.506C447.578 356.847 446.273 357.821 444.955 357.821H397.576C396.259 357.821 395.431 356.603 395.722 355.262L404.701 314.848C404.993 313.517 406.298 312.855 407.617 312.855H454.997C456.315 312.854 457.143 313.45 456.85 314.781Z" fill="white"/>
<path opacity="0.2" d="M432.667 335.48V335.492C432.667 338.978 428.928 341.811 426.188 341.811C423.448 341.811 421.823 338.978 422.605 335.492C423.387 332.073 426.114 329.287 428.796 329.182C428.015 332.668 429.688 335.492 432.418 335.492C432.474 335.492 432.667 335.492 432.667 335.48Z" fill="black"/>
<path opacity="0.2" d="M348.679 326.841C348.471 322.083 348.114 316.359 347.52 310.367C349.913 306.427 351.876 303.498 351.876 303.498C351.876 303.498 358.002 318.024 348.679 326.841Z" fill="black"/>
<path d="M350.749 293.143C350.895 303.03 350.481 318.181 351.476 327.854L351.58 328.521C351.58 328.597 351.66 328.747 351.378 328.24C357.333 333.734 368.338 340.686 376.105 346.521C377.571 347.564 377.906 349.609 376.846 351.064C375.958 352.284 374.377 352.698 373.038 352.169C367.349 349.92 361.838 347.425 356.383 344.626C351.696 342.085 346.904 339.785 342.79 336.061C341.113 334.553 340.178 332.079 339.806 330.164C337.568 317.804 337.68 305.465 337.772 292.992C338.221 284.534 350.493 284.662 350.749 293.143Z" fill="#DC897C"/>
<path d="M342.409 282.795C335.663 286.231 334.586 297.896 335.904 315.682L352.078 314.645C352.078 314.645 354.834 299.878 352.621 293.02C349.32 282.795 342.409 282.795 342.409 282.795Z" fill="#0A5840"/>
<path opacity="0.6" d="M342.409 282.795C335.663 286.231 334.586 297.896 335.904 315.682L352.078 314.645C352.078 314.645 354.834 299.878 352.621 293.02C349.32 282.795 342.409 282.795 342.409 282.795Z" fill="white"/>
<path d="M334.769 314.675L352.708 314.086L352.316 316.685L334.769 317.616V314.675Z" fill="#0A5840"/>
<path d="M363.669 234.475C375.886 231.793 378.209 237.473 381.144 247.495C384.81 260.02 383.952 269.67 371.013 269.636C353.438 269.588 347.274 238.075 363.669 234.475Z" fill="#E4897B"/>
<path d="M374.639 248.33C374.639 248.33 376.567 250.612 378.402 251.802C378.402 251.802 377.849 253.329 376.041 253.485L374.639 248.33Z" fill="#DE5753"/>
<path d="M368.419 248.837C368.613 249.645 368.335 250.404 367.797 250.535C367.259 250.666 366.664 250.116 366.469 249.309C366.275 248.501 366.553 247.742 367.091 247.611C367.628 247.481 368.222 248.03 368.419 248.837Z" fill="#263238"/>
<path d="M366.875 247.703L368.464 246.59C368.464 246.59 367.947 248.279 366.875 247.703Z" fill="#263238"/>
<path d="M378.413 246.24C378.607 247.047 378.329 247.807 377.791 247.938C377.253 248.067 376.658 247.518 376.464 246.711C376.269 245.904 376.547 245.144 377.085 245.013C377.623 244.884 378.218 245.432 378.413 246.24Z" fill="#263238"/>
<path d="M376.869 245.108L378.459 243.994C378.459 243.994 377.943 245.683 376.869 245.108Z" fill="#263238"/>
<path d="M362.877 244.891C362.811 244.891 362.744 244.876 362.683 244.845C362.471 244.738 362.386 244.479 362.495 244.268C363.694 241.899 366.674 241.62 366.8 241.609C367.041 241.606 367.243 241.766 367.264 242C367.285 242.237 367.11 242.445 366.873 242.466C366.846 242.469 364.242 242.719 363.26 244.656C363.184 244.805 363.033 244.891 362.877 244.891Z" fill="#263238"/>
<path d="M373.927 240.487C373.784 240.487 373.645 240.417 373.563 240.286C373.437 240.087 373.495 239.824 373.694 239.696C373.767 239.651 375.511 238.567 378.194 239.615C378.414 239.702 378.524 239.951 378.438 240.173C378.352 240.393 378.101 240.505 377.881 240.417C375.628 239.537 374.211 240.387 374.153 240.423C374.085 240.466 374.006 240.487 373.927 240.487Z" fill="#263238"/>
<path d="M356.824 254.014C356.824 254.014 359.68 244.895 357.62 238.781C357.62 238.781 363.005 230.075 373.942 235.11C373.942 235.11 379.343 240.998 380.74 246.192C380.74 246.192 378.82 228.134 361.754 231.429C344.716 234.718 350.156 259.549 360.532 265.047C360.532 265.047 355.07 259.71 356.824 254.014Z" fill="#263238"/>
<path d="M358.89 255.747C358.478 254.171 356.253 251.836 353.365 252.801C350.377 253.8 350.283 260.4 358.224 260.257C359.365 260.238 359.748 259.036 358.89 255.747Z" fill="#E4897B"/>
<path d="M373.385 260.055C372.018 260.055 370.375 259.608 369.081 257.908C368.937 257.719 368.974 257.45 369.163 257.305C369.352 257.16 369.621 257.198 369.765 257.387C372.043 260.386 375.55 258.804 375.697 258.736C375.91 258.638 376.167 258.728 376.268 258.944C376.368 259.159 376.276 259.414 376.062 259.515C376.041 259.524 374.877 260.055 373.385 260.055Z" fill="#263238"/>
<path d="M357.62 238.782C357.62 238.782 367.802 231.297 376.721 236.272C376.721 236.272 377.742 226.922 367.085 226.149C356.427 225.374 348.449 237.613 348.449 237.613L357.62 238.782Z" fill="#263238"/>
<path d="M361.58 235.675C361.58 235.675 353.553 242.36 355.539 255.494C357.587 269.027 355.742 275.223 354.87 283.877C353.705 295.436 361.182 297.351 361.182 297.351C361.182 297.351 353.769 298.075 351.375 289.86C350.142 285.632 350.866 268.206 344.261 257.506C336.755 245.348 351.684 233.681 361.58 235.675Z" fill="#263238"/>
</g>
<defs>
<clipPath id="clip0_201_6131">
<rect width="706" height="561" rx="27" fill="white"/>
</clipPath>
</defs>
</svg>
