<svg width="486" height="481" viewBox="0 0 486 481" fill="none" xmlns="http://www.w3.org/2000/svg">
<path d="M180.44 267.585C180.44 278.603 171.509 287.533 160.49 287.533H21.9463C10.9285 287.533 1.99609 278.603 1.99609 267.585V110.195C1.99609 99.1756 10.9285 90.2461 21.9463 90.2461H160.49C171.51 90.2461 180.44 99.1771 180.44 110.195V267.585Z" fill="#CCCDD2"/>
<path d="M178.445 265.075C178.445 276.092 169.512 285.028 158.494 285.028H19.953C8.93383 285.028 0 276.092 0 265.075V107.691C0 96.6721 8.93383 87.7383 19.953 87.7383H158.495C169.513 87.7383 178.447 96.6735 178.447 107.691L178.445 265.075Z" fill="white"/>
<path d="M178.445 117.664V107.691C178.445 96.6721 169.511 87.7383 158.494 87.7383H19.953C8.93383 87.7383 0 96.6735 0 107.691V117.664H178.445Z" fill="#004A7C"/>
<path d="M140.206 109.248C140.206 110.146 139.476 110.882 138.575 110.882H127.703C126.805 110.882 126.074 110.146 126.074 109.248V98.3743C126.074 97.4765 126.805 96.75 127.703 96.75H138.575C139.476 96.75 140.206 97.4765 140.206 98.3743V109.248Z" fill="white"/>
<path d="M160.709 109.248C160.709 110.146 159.979 110.882 159.075 110.882H148.207C147.308 110.882 146.574 110.146 146.574 109.248V98.3743C146.574 97.4765 147.308 96.75 148.207 96.75H159.075C159.979 96.75 160.709 97.4765 160.709 98.3743V109.248Z" fill="white"/>
<path d="M116.652 103.817C116.652 107.716 113.493 110.882 109.591 110.882H18.1514C14.2475 110.882 11.0859 107.716 11.0859 103.817C11.0859 99.9116 14.2475 96.75 18.1514 96.75H109.591C113.493 96.75 116.652 99.9102 116.652 103.817Z" fill="white"/>
<path d="M99.1996 178.723C99.1996 202.37 80.0316 221.539 56.3917 221.539C32.7461 221.539 13.5781 202.37 13.5781 178.723C13.5781 155.082 32.7461 135.912 56.3917 135.912C80.033 135.912 99.1996 155.083 99.1996 178.723Z" fill="#D8DADE"/>
<mask id="mask0_72_3697" style="mask-type:luminance" maskUnits="userSpaceOnUse" x="13" y="135" width="87" height="87">
<path d="M99.1996 178.723C99.1996 202.37 80.0316 221.539 56.3917 221.539C32.7461 221.539 13.5781 202.37 13.5781 178.723C13.5781 155.082 32.7461 135.912 56.3917 135.912C80.033 135.912 99.1996 155.083 99.1996 178.723Z" fill="white"/>
</mask>
<g mask="url(#mask0_72_3697)">
<path d="M77.814 203.33C79.1643 209.646 34.6379 208.959 34.6379 203.33C41.592 191.324 34.8648 183.304 34.0541 167.483C33.2462 151.662 76.6636 155.936 77.5714 167.483C78.4706 179.033 71.7449 194.917 77.814 203.33Z" fill="#732313"/>
<path d="M70.0283 232.9H76.4214L76.2558 230.64C76.2558 230.64 75.5607 210.811 74.7985 205.245C74.0334 199.676 69.6457 199.736 69.6457 199.736L66.457 209.07C66.457 209.07 69.2846 226.693 69.6329 230.465C69.6843 231.004 69.8227 231.852 70.0283 232.9Z" fill="#F5BA93"/>
<path d="M40.165 232.897C40.3977 231.745 40.5547 230.822 40.6103 230.248C40.9557 226.478 43.7876 208.853 43.7876 208.853L40.5989 199.516C40.5989 199.516 36.2112 199.46 35.4462 205.03C34.6825 210.593 33.9888 230.421 33.9888 230.421L33.8047 232.897H40.165Z" fill="#F5BA93"/>
<path d="M41.3317 225.179L43.0517 232.895H67.2254L69.7889 225.179C69.7889 225.179 73.8398 222.18 73.8012 219.397C73.7641 216.621 68.6399 209.06 68.6399 209.06L70.4241 199.528L62.7863 195.924H47.9361L40.4667 199.359L42.0126 209.06C42.0126 209.06 37.8532 216.385 37.7976 219.397C37.7391 222.416 41.3317 225.179 41.3317 225.179Z" fill="#E55747"/>
<path d="M62.7814 195.926C62.7814 195.926 65.4762 206.479 64.0175 209.179C62.3803 212.217 49.1044 211.963 47.3202 209.179C45.536 206.397 47.934 195.926 47.934 195.926L50.2206 195.809V184.676H60.4248V195.342L62.7814 195.926Z" fill="#F5BA93"/>
<path d="M58.7169 194.285C59.3121 194.116 59.8787 193.906 60.4268 193.68V184.676H50.2227V192.797C52.9275 194.071 55.5638 195.173 58.7169 194.285Z" fill="#DA9B7E"/>
<path d="M77.6449 178.544C76.2461 179.131 74.626 178.132 74.626 178.132C74.626 178.132 67.4336 178.504 67.4336 176.63C67.4336 174.749 67.4336 173.697 67.4336 170.356C67.4336 165.884 74.626 166.33 74.626 166.33C74.626 166.33 76.249 164.057 78.4257 165.608C81.8599 168.059 80.3398 177.411 77.6449 178.544Z" fill="#F5BA93"/>
<path d="M35.1563 178.544C36.558 179.131 38.178 178.132 38.178 178.132C38.178 178.132 45.3676 178.504 45.3676 176.63C45.3676 174.749 45.3676 173.697 45.3676 170.356C45.3676 165.884 38.178 166.33 38.178 166.33C38.178 166.33 36.5551 164.057 34.3784 165.608C30.9428 168.059 32.4615 177.411 35.1563 178.544Z" fill="#F5BA93"/>
<path d="M74.8022 175.983C74.8022 184.303 62.7496 193.528 56.2894 193.528C49.1883 193.528 37.7852 183.712 37.7852 175.46C37.7852 165.722 37.7852 165.722 37.7852 158.062C37.7852 133.488 74.8022 131.859 74.8022 158.062C74.8022 174.762 74.8022 164.036 74.8022 175.983Z" fill="#F5BA93"/>
<path d="M38.9039 166.586C38.7783 164.245 42.6593 162.367 43.0475 153.825C46.2691 155.614 61.8801 164.77 73.6586 166.537C73.5273 171.489 74.7006 173.097 75.0418 174.532C75.0418 174.532 75.0703 170.251 75.0418 168.047C75.0132 165.848 77.8123 165.067 77.8123 165.067V157.485C77.8123 153.411 73.6415 134.503 56.1935 138.931C39.5676 135.084 32.0369 152.526 32.3866 156.821C32.7306 161.115 33.2016 166.933 33.2016 166.933C33.2016 166.933 37.007 163.396 37.5251 168.269C37.8092 170.889 37.5851 173.66 39.4792 174.097C39.2365 171.749 39.0724 169.573 38.9039 166.586Z" fill="#732313"/>
<path d="M55.9453 167.859V180.045L58.0892 178.363L55.9453 167.859Z" fill="#DA9B7E"/>
<path d="M52.7272 165.464C52.7272 165.464 49.4515 163.264 47.3604 163.958C45.275 164.653 42.6687 166.91 42.6687 166.91L42.3789 165.832C42.3789 165.832 44.333 163.469 47.1663 163.243C50.0067 163.003 52.7272 165.464 52.7272 165.464Z" fill="#732313"/>
<path d="M50.9102 184.327C50.9102 184.327 52.6401 185.988 53.6221 186.055C54.607 186.121 58.2011 186.279 59.4115 185.871C59.8197 185.734 61.2599 184.362 61.2599 184.362C61.2599 184.362 57.1163 184.158 56.3698 184.125C55.6233 184.087 50.9102 184.327 50.9102 184.327Z" fill="#CB4639"/>
<path d="M48.168 183.046C48.168 183.046 50.7101 183.966 51.7278 183.853C52.7441 183.736 54.4469 182.304 54.8551 182.48C55.2591 182.648 56.2754 183.075 56.2754 183.075C56.2754 183.075 57.6014 182.408 58.0082 182.48C58.4121 182.545 60.5232 183.95 61.2611 183.853C61.9948 183.747 63.7148 183.046 63.7148 183.046C63.7148 183.046 61.588 184.454 60.7401 184.709C59.1758 185.173 57.4986 184.685 56.3824 184.615C55.0436 184.528 53.0981 185.471 51.5708 184.664C50.0464 183.863 48.168 183.046 48.168 183.046Z" fill="#E44E40"/>
<path d="M60.0664 165.26C60.0664 165.26 63.3422 163.052 65.4276 163.749C67.5172 164.448 70.1307 166.705 70.1307 166.705L70.4147 165.622C70.4147 165.622 68.4678 163.258 65.626 163.03C62.7884 162.794 60.0664 165.26 60.0664 165.26Z" fill="#732313"/>
<path d="M64.6182 167.297C67.0076 167.297 66.6408 169.071 67.403 169.55C67.6142 169.417 68.9231 168.98 68.9231 168.98C68.9231 168.98 67.6613 166.863 64.6168 166.863C61.5751 166.863 60.4375 168.939 60.4375 168.939C60.4375 168.939 60.9114 168.939 61.1198 169.07C61.8863 168.589 62.236 167.297 64.6182 167.297Z" fill="#2D120E"/>
<path d="M68.3479 168.981C68.3479 168.981 67.8555 170.781 64.8081 170.781C61.7649 170.781 60.5117 168.939 60.5117 168.939C60.5117 168.939 61.7649 167.184 64.8081 167.184C67.8555 167.184 68.3479 168.981 68.3479 168.981Z" fill="white"/>
<path d="M62.7227 168.945C62.7227 169.661 63.0738 170.298 63.6119 170.683C64.0001 170.745 64.3998 170.781 64.808 170.781C65.2234 170.781 65.6216 170.745 66.007 170.683C66.5451 170.298 66.8977 169.663 66.8977 168.945C66.8977 168.223 66.5451 167.592 66.007 167.201C65.6216 167.144 65.2234 167.109 64.808 167.109C64.3998 167.109 64.0001 167.145 63.6119 167.201C63.0738 167.592 62.7227 168.223 62.7227 168.945Z" fill="#2D120E"/>
<path d="M65.6634 168.982C65.6634 169.45 65.2809 169.831 64.8127 169.831C64.3474 169.831 63.9648 169.448 63.9648 168.982C63.9648 168.513 64.3474 168.131 64.8127 168.131C65.2823 168.131 65.6634 168.513 65.6634 168.982Z" fill="#170000"/>
<path d="M64.5829 168.177C64.5829 168.385 64.4059 168.554 64.1961 168.554C63.9848 168.554 63.8164 168.385 63.8164 168.177C63.8164 167.961 63.9834 167.793 64.1961 167.793C64.4059 167.793 64.5829 167.961 64.5829 168.177Z" fill="white"/>
<path d="M64.8293 169.005C64.8293 169.117 64.7423 169.206 64.6281 169.206C64.5196 169.206 64.4297 169.117 64.4297 169.005C64.4297 168.897 64.5196 168.805 64.6281 168.805C64.7437 168.805 64.8293 168.897 64.8293 169.005Z" fill="white"/>
<path d="M48.1785 167.297C45.7905 167.297 46.1573 169.071 45.3994 169.55C45.1867 169.417 43.875 168.98 43.875 168.98C43.875 168.98 45.1368 166.863 48.1799 166.863C51.2188 166.863 52.3621 168.939 52.3621 168.939C52.3621 168.939 51.8853 168.939 51.6812 169.07C50.9119 168.589 50.5679 167.297 48.1785 167.297Z" fill="#2D120E"/>
<path d="M44.4531 168.981C44.4531 168.981 44.9441 170.781 47.9887 170.781C51.0304 170.781 52.2879 168.939 52.2879 168.939C52.2879 168.939 51.0304 167.184 47.9887 167.184C44.9441 167.184 44.4531 168.981 44.4531 168.981Z" fill="white"/>
<path d="M50.0759 168.945C50.0759 169.661 49.7248 170.298 49.1867 170.683C48.7999 170.745 48.3974 170.781 47.9877 170.781C47.5752 170.781 47.177 170.745 46.7902 170.683C46.2506 170.298 45.9023 169.663 45.9023 168.945C45.9023 168.223 46.2506 167.592 46.7902 167.201C47.177 167.144 47.5752 167.109 47.9877 167.109C48.3974 167.109 48.7985 167.145 49.1867 167.201C49.7248 167.592 50.0759 168.223 50.0759 168.945Z" fill="#2D120E"/>
<path d="M47.1406 168.982C47.1406 169.45 47.5174 169.831 47.9885 169.831C48.4623 169.831 48.8349 169.448 48.8349 168.982C48.8349 168.513 48.4623 168.131 47.9885 168.131C47.516 168.131 47.1406 168.513 47.1406 168.982Z" fill="#170000"/>
<path d="M48.2109 168.177C48.2109 168.385 48.3822 168.554 48.5963 168.554C48.8047 168.554 48.976 168.385 48.976 168.177C48.976 167.961 48.8047 167.793 48.5963 167.793C48.3822 167.793 48.2109 167.961 48.2109 168.177Z" fill="white"/>
<path d="M47.9727 169.005C47.9727 169.117 48.0626 169.206 48.1739 169.206C48.2795 169.206 48.3752 169.117 48.3752 169.005C48.3752 168.897 48.281 168.805 48.1739 168.805C48.0612 168.805 47.9727 168.897 47.9727 169.005Z" fill="white"/>
</g>
<path d="M163.756 139.08H106.273V149.955H163.756V139.08Z" fill="#B0AFB5"/>
<path d="M163.756 157.719H106.273V163.156H163.756V157.719Z" fill="#D8DADE"/>
<path d="M163.756 168.852H106.273V174.287H163.756V168.852Z" fill="#D8DADE"/>
<path d="M163.756 179.984H106.273V185.424H163.756V179.984Z" fill="#D8DADE"/>
<path d="M163.756 191.111H106.273V196.552H163.756V191.111Z" fill="#D8DADE"/>
<path d="M163.756 202.254H106.273V207.686H163.756V202.254Z" fill="#D8DADE"/>
<path d="M163.756 213.381H106.273V218.823H163.756V213.381Z" fill="#D8DADE"/>
<path d="M163.758 236.172H21.3477V241.609H163.758V236.172Z" fill="#D8DADE"/>
<path d="M163.758 249.641H21.3477V255.075H163.758V249.641Z" fill="#D8DADE"/>
<path d="M473.926 166.955C470.968 162.523 465.922 159.6 460.193 159.6H345.606C336.49 159.6 329.102 166.989 329.102 176.104V184.351V306.275C329.102 310.614 330.792 314.551 333.529 317.494C336.487 321.924 341.53 324.845 347.256 324.845H461.846C470.959 324.845 478.35 317.46 478.35 308.347V178.17C478.349 173.833 476.663 169.899 473.926 166.955Z" fill="#C3C5CA"/>
<path d="M485.011 304.538C485.011 313.65 477.62 321.035 468.506 321.035H353.92C344.806 321.035 337.418 313.65 337.418 304.538V174.36C337.418 165.248 344.806 157.861 353.92 157.861H468.506C477.62 157.861 485.011 165.248 485.011 174.36V304.538Z" fill="#CCCDD2"/>
<path d="M483.363 302.466C483.363 311.583 475.975 318.968 466.858 318.968H352.274C343.158 318.968 335.77 311.581 335.77 302.466V172.296C335.77 163.18 343.158 155.791 352.274 155.791H466.858C475.975 155.791 483.363 163.18 483.363 172.296V302.466Z" fill="white"/>
<path d="M483.363 180.543V172.296C483.363 163.18 475.975 155.791 466.858 155.791H352.274C343.158 155.791 335.77 163.18 335.77 172.296V180.543H483.363Z" fill="#004A7C"/>
<path d="M451.739 173.576C451.739 174.321 451.137 174.929 450.391 174.929H441.397C440.652 174.929 440.051 174.321 440.051 173.576V164.585C440.051 163.843 440.653 163.242 441.397 163.242H450.391C451.137 163.242 451.739 163.845 451.739 164.585V173.576Z" fill="white"/>
<path d="M468.694 173.576C468.694 174.321 468.088 174.929 467.345 174.929H458.354C457.61 174.929 457.008 174.321 457.008 173.576V164.585C457.008 163.843 457.61 163.242 458.354 163.242H467.345C468.09 163.242 468.694 163.845 468.694 164.585V173.576Z" fill="white"/>
<path d="M432.255 169.087C432.255 172.313 429.64 174.931 426.411 174.931H350.784C347.552 174.931 344.938 172.313 344.938 169.087C344.938 165.854 347.552 163.242 350.784 163.242H426.411C429.64 163.242 432.255 165.854 432.255 169.087Z" fill="white"/>
<path d="M417.82 231.047C417.82 250.603 401.969 266.458 382.411 266.458C362.849 266.458 347 250.605 347 231.047C347 211.495 362.849 195.639 382.411 195.639C401.969 195.639 417.82 211.495 417.82 231.047Z" fill="#D8DADE"/>
<mask id="mask1_72_3697" style="mask-type:luminance" maskUnits="userSpaceOnUse" x="347" y="195" width="71" height="72">
<path d="M417.82 231.047C417.82 250.603 401.969 266.458 382.411 266.458C362.849 266.458 347 250.605 347 231.047C347 211.495 362.849 195.639 382.411 195.639C401.969 195.639 417.82 211.495 417.82 231.047Z" fill="white"/>
</mask>
<g mask="url(#mask1_72_3697)">
<path d="M389.267 263.698C390.489 269.429 371.565 265.33 371.565 260.227C377.879 249.329 362.603 248.501 362.134 224.874C361.85 210.504 401.498 214.363 401.612 224.874C401.838 245.801 383.756 256.066 389.267 263.698Z" fill="#51361D"/>
<path d="M394.775 284.23H400.575L400.422 282.177C400.422 282.177 399.792 264.187 399.097 259.134C398.406 254.083 394.426 254.137 394.426 254.137L391.535 262.607C391.535 262.607 394.1 278.592 394.418 282.017C394.457 282.507 394.588 283.278 394.775 284.23Z" fill="#9D6B3F"/>
<path d="M367.676 284.229C367.883 283.186 368.028 282.344 368.075 281.82C368.387 278.4 370.955 262.409 370.955 262.409L368.062 253.939C368.062 253.939 364.081 253.887 363.39 258.94C362.696 263.988 362.065 281.978 362.065 281.978L361.898 284.229H367.676Z" fill="#9D6B3F"/>
<path d="M368.731 277.223L370.29 284.226H392.224L394.552 277.223C394.552 277.223 398.223 274.504 398.193 271.978C398.158 269.456 393.507 262.601 393.507 262.601L395.127 253.952L388.196 250.676H374.728L367.942 253.797L369.349 262.601C369.349 262.601 365.574 269.244 365.524 271.978C365.473 274.711 368.731 277.223 368.731 277.223Z" fill="#5AB9BD"/>
<path d="M388.196 250.678C388.196 250.678 390.644 260.255 389.313 262.708C387.83 265.463 375.785 265.235 374.168 262.708C372.551 260.182 374.729 250.678 374.729 250.678L376.8 250.576V240.479H386.058V250.152L388.196 250.678Z" fill="#9D6B3F"/>
<path d="M384.505 249.192C385.043 249.041 385.558 248.851 386.055 248.642V240.477H376.797V247.849C379.249 248.998 381.641 249.996 384.505 249.192Z" fill="#815931"/>
<path d="M401.671 234.911C400.399 235.439 398.933 234.53 398.933 234.53C398.933 234.53 392.41 234.868 392.41 233.169C392.41 231.469 392.41 230.507 392.41 227.48C392.41 223.423 398.933 223.822 398.933 223.822C398.933 223.822 400.405 221.765 402.382 223.172C405.499 225.394 404.119 233.884 401.671 234.911Z" fill="#9D6B3F"/>
<path d="M363.129 234.911C364.401 235.439 365.872 234.53 365.872 234.53C365.872 234.53 372.392 234.868 372.392 233.169C372.392 231.469 372.392 230.507 372.392 227.48C372.392 223.423 365.872 223.822 365.872 223.822C365.872 223.822 364.395 221.765 362.421 223.172C359.303 225.394 360.681 233.884 363.129 234.911Z" fill="#9D6B3F"/>
<path d="M399.095 232.581C399.095 240.135 388.161 248.503 382.303 248.503C375.857 248.503 365.512 239.6 365.512 232.113C365.512 223.276 365.512 223.276 365.512 216.331C365.512 194.021 399.093 192.551 399.093 216.331C399.095 231.478 399.095 221.746 399.095 232.581Z" fill="#9D6B3F"/>
<path d="M366.529 224.062C366.412 221.936 378.378 219.009 381.636 209.72C384.798 217.719 387.379 222.409 398.065 224.014C397.945 228.503 399.007 229.964 399.317 231.268C399.317 231.268 399.341 227.385 399.317 225.39C399.291 223.391 401.835 222.681 401.835 222.681V215.802C401.835 212.112 398.05 194.953 382.215 198.968C367.133 195.478 360.606 210.038 360.617 215.203C360.623 219.108 361.355 224.378 361.355 224.378C361.355 224.378 364.809 221.172 365.28 225.588C365.537 227.968 365.333 230.483 367.053 230.875C366.83 228.744 366.681 226.771 366.529 224.062Z" fill="#51361D"/>
<path d="M381.984 225.219V236.278L383.93 234.745L381.984 225.219Z" fill="#815931"/>
<path d="M379.077 223.04C379.077 223.04 376.105 221.043 374.209 221.673C372.32 222.301 369.947 224.357 369.947 224.357L369.688 223.37C369.688 223.37 371.457 221.232 374.028 221.022C376.609 220.812 379.077 223.04 379.077 223.04Z" fill="#51361D"/>
<path d="M377.422 240.155C377.422 240.155 378.995 241.662 379.884 241.725C380.779 241.787 384.041 241.926 385.14 241.552C385.511 241.433 386.812 240.187 386.812 240.187C386.812 240.187 383.051 240.002 382.375 239.972C381.701 239.938 377.422 240.155 377.422 240.155Z" fill="#843921"/>
<path d="M374.938 238.992C374.938 238.992 377.243 239.824 378.169 239.722C379.09 239.62 380.637 238.322 381.007 238.478C381.372 238.633 382.294 239.023 382.294 239.023C382.294 239.023 383.496 238.415 383.864 238.478C384.232 238.543 386.148 239.817 386.816 239.722C387.485 239.631 389.044 238.992 389.044 238.992C389.044 238.992 387.117 240.268 386.342 240.497C384.926 240.923 383.4 240.483 382.388 240.415C381.175 240.335 379.411 241.188 378.028 240.459C376.64 239.731 374.938 238.992 374.938 238.992Z" fill="#843921"/>
<path d="M385.734 222.854C385.734 222.854 388.709 220.855 390.602 221.488C392.497 222.117 394.864 224.171 394.864 224.171L395.126 223.183C395.126 223.183 393.359 221.047 390.783 220.837C388.207 220.623 385.734 222.854 385.734 222.854Z" fill="#51361D"/>
<path d="M389.871 224.703C392.035 224.703 391.702 226.318 392.394 226.749C392.584 226.633 393.774 226.233 393.774 226.233C393.774 226.233 392.631 224.316 389.872 224.316C387.109 224.316 386.078 226.199 386.078 226.199C386.078 226.199 386.508 226.199 386.695 226.318C387.39 225.887 387.704 224.703 389.871 224.703Z" fill="#2D120E"/>
<path d="M393.25 226.232C393.25 226.232 392.802 227.862 390.041 227.862C387.279 227.862 386.145 226.199 386.145 226.199C386.145 226.199 387.279 224.604 390.041 224.604C392.802 224.602 393.25 226.232 393.25 226.232Z" fill="white"/>
<path d="M388.145 226.194C388.145 226.848 388.469 227.425 388.955 227.774C389.304 227.828 389.666 227.858 390.04 227.858C390.414 227.858 390.777 227.83 391.128 227.774C391.616 227.426 391.936 226.849 391.936 226.194C391.936 225.542 391.614 224.969 391.128 224.618C390.777 224.564 390.414 224.531 390.04 224.531C389.666 224.531 389.304 224.563 388.955 224.618C388.469 224.969 388.145 225.542 388.145 226.194Z" fill="#2D120E"/>
<path d="M390.808 226.231C390.808 226.656 390.466 227.004 390.039 227.004C389.612 227.004 389.27 226.656 389.27 226.231C389.27 225.808 389.612 225.463 390.039 225.463C390.466 225.463 390.808 225.808 390.808 226.231Z" fill="#170000"/>
<path d="M389.838 225.495C389.838 225.691 389.683 225.841 389.49 225.841C389.297 225.841 389.145 225.691 389.145 225.495C389.145 225.307 389.297 225.154 389.49 225.154C389.681 225.154 389.838 225.307 389.838 225.495Z" fill="white"/>
<path d="M390.061 226.255C390.061 226.353 389.977 226.438 389.877 226.438C389.777 226.438 389.695 226.353 389.695 226.255C389.695 226.155 389.777 226.072 389.877 226.072C389.977 226.072 390.061 226.155 390.061 226.255Z" fill="white"/>
<path d="M374.943 224.703C372.779 224.703 373.114 226.318 372.416 226.749C372.227 226.633 371.039 226.233 371.039 226.233C371.039 226.233 372.182 224.316 374.941 224.316C377.705 224.316 378.735 226.199 378.735 226.199C378.735 226.199 378.309 226.199 378.116 226.318C377.424 225.887 377.111 224.703 374.943 224.703Z" fill="#2D120E"/>
<path d="M371.562 226.232C371.562 226.232 372.011 227.862 374.771 227.862C377.532 227.862 378.668 226.199 378.668 226.199C378.668 226.199 377.53 224.604 374.771 224.604C372.011 224.602 371.562 226.232 371.562 226.232Z" fill="white"/>
<path d="M376.66 226.194C376.66 226.848 376.339 227.425 375.855 227.774C375.504 227.828 375.142 227.858 374.768 227.858C374.397 227.858 374.028 227.83 373.683 227.774C373.189 227.426 372.875 226.849 372.875 226.194C372.875 225.542 373.19 224.969 373.683 224.618C374.028 224.564 374.397 224.531 374.768 224.531C375.142 224.531 375.504 224.563 375.855 224.618C376.339 224.969 376.66 225.542 376.66 226.194Z" fill="#2D120E"/>
<path d="M374.004 226.231C374.004 226.656 374.344 227.004 374.77 227.004C375.194 227.004 375.54 226.656 375.54 226.231C375.54 225.808 375.194 225.463 374.77 225.463C374.344 225.463 374.004 225.808 374.004 226.231Z" fill="#170000"/>
<path d="M374.98 225.495C374.98 225.691 375.136 225.841 375.329 225.841C375.519 225.841 375.668 225.691 375.668 225.495C375.668 225.307 375.519 225.154 375.329 225.154C375.137 225.154 374.98 225.307 374.98 225.495Z" fill="white"/>
<path d="M374.758 226.255C374.758 226.353 374.842 226.438 374.936 226.438C375.042 226.438 375.12 226.353 375.12 226.255C375.12 226.155 375.042 226.072 374.936 226.072C374.842 226.072 374.758 226.155 374.758 226.255Z" fill="white"/>
</g>
<path d="M471.212 198.252H423.668V207.246H471.212V198.252Z" fill="#B0AFB5"/>
<path d="M471.212 213.672H423.668V218.168H471.212V213.672Z" fill="#D8DADE"/>
<path d="M471.21 227.374H457.496H423.668V222.881H471.21V227.374Z" fill="#D8DADE"/>
<path d="M471.212 232.09H423.668V236.589H471.212V232.09Z" fill="#D8DADE"/>
<path d="M471.212 241.293H423.668V245.792H471.212V241.293Z" fill="#D8DADE"/>
<path d="M471.212 250.504H423.668V254.999H471.212V250.504Z" fill="#D8DADE"/>
<path d="M471.212 259.709H423.668V264.207H471.212V259.709Z" fill="#D8DADE"/>
<path d="M471.213 278.562H353.426V283.057H471.213V278.562Z" fill="#D8DADE"/>
<path d="M471.213 289.699H353.426V294.195H471.213V289.699Z" fill="#D8DADE"/>
<path d="M377.616 11.4461C375.173 7.77784 370.999 5.36133 366.264 5.36133H271.556C264.026 5.36133 257.918 11.4647 257.918 18.9954V25.8168V126.584C257.918 130.167 259.311 133.417 261.572 135.849C264.018 139.514 268.185 141.929 272.921 141.929H367.629C375.158 141.929 381.267 135.826 381.267 128.29V20.7083C381.267 17.1285 379.873 13.8798 377.616 11.4461Z" fill="#D8DADE"/>
<path d="M386.628 122.93C386.628 130.466 380.522 136.569 372.99 136.569H278.283C270.751 136.569 264.645 130.466 264.645 122.93V15.3469C264.645 7.81612 270.749 1.70703 278.283 1.70703H372.99C380.52 1.70703 386.628 7.81612 386.628 15.3469V122.93Z" fill="#CCCDD2"/>
<path d="M385.262 121.223C385.262 128.753 379.156 134.86 371.624 134.86H276.916C269.386 134.86 263.277 128.755 263.277 121.223V13.6341C263.277 6.10338 269.385 0 276.916 0H371.624C379.154 0 385.262 6.10338 385.262 13.6341V121.223Z" fill="white"/>
<path d="M385.262 20.4569V13.6341C385.262 6.10338 379.156 0 371.624 0H276.916C269.386 0 263.277 6.10338 263.277 13.6341V20.4569H385.262Z" fill="#004A7C"/>
<path d="M359.124 14.7008C359.124 15.3174 358.624 15.8141 358.009 15.8141H350.58C349.963 15.8141 349.465 15.3174 349.465 14.7008V7.26711C349.465 6.65192 349.964 6.15234 350.58 6.15234H358.009C358.626 6.15234 359.124 6.65335 359.124 7.26711V14.7008Z" fill="white"/>
<path d="M373.143 14.7008C373.143 15.3174 372.644 15.8141 372.03 15.8141H364.598C363.983 15.8141 363.484 15.3174 363.484 14.7008V7.26711C363.484 6.65192 363.984 6.15234 364.598 6.15234H372.03C372.645 6.15234 373.143 6.65335 373.143 7.26711V14.7008Z" fill="white"/>
<path d="M343.028 10.9839C343.028 13.6517 340.864 15.8141 338.197 15.8141H275.693C273.024 15.8141 270.863 13.6517 270.863 10.9839C270.863 8.31622 273.024 6.15234 275.693 6.15234H338.197C340.864 6.15234 343.028 8.31622 343.028 10.9839Z" fill="white"/>
<path d="M331.093 62.1909C331.093 78.3571 317.991 91.4588 301.826 91.4588C285.667 91.4588 272.562 78.3571 272.562 62.1909C272.562 46.0303 285.667 32.9258 301.826 32.9258C317.992 32.9272 331.093 46.0303 331.093 62.1909Z" fill="#D8DADE"/>
<mask id="mask2_72_3697" style="mask-type:luminance" maskUnits="userSpaceOnUse" x="272" y="32" width="60" height="60">
<path d="M331.093 62.1909C331.093 78.3571 317.991 91.4588 301.826 91.4588C285.667 91.4588 272.562 78.3571 272.562 62.1909C272.562 46.0303 285.667 32.9258 301.826 32.9258C317.992 32.9272 331.093 46.0303 331.093 62.1909Z" fill="white"/>
</mask>
<g mask="url(#mask2_72_3697)">
<path d="M311.518 73.3699C306.741 77.7233 296.056 76.9768 292.848 74.5318C289.645 72.0853 283.622 68.4955 285.927 56.6784C288.217 44.974 316.257 47.9858 316.899 56.6784C317.542 65.3767 316.087 69.2106 311.518 73.3699Z" fill="#DE8021"/>
<path d="M311.533 102.817H316.084L315.961 101.211C315.961 101.211 315.47 87.0948 314.925 83.1339C314.384 79.1729 311.258 79.2129 311.258 79.2129L308.988 85.8573C308.988 85.8573 311.002 98.3994 311.251 101.086C311.285 101.468 311.386 102.078 311.533 102.817Z" fill="#F2D4B6"/>
<path d="M290.28 102.817C290.44 102.005 290.556 101.343 290.596 100.933C290.839 98.248 292.853 85.7044 292.853 85.7044L290.584 79.0586C290.584 79.0586 287.461 79.0186 286.916 82.9824C286.372 86.939 285.88 101.057 285.88 101.057L285.75 102.817H290.28Z" fill="#F2D4B6"/>
<path d="M291.105 97.3257L292.329 102.817H309.534L311.358 97.3257C311.358 97.3257 314.244 95.1932 314.217 93.2134C314.189 91.2309 310.542 85.8554 310.542 85.8554L311.811 79.0698L306.372 76.502H295.806L290.487 78.9513L291.591 85.8554C291.591 85.8554 288.632 91.0653 288.59 93.2134C288.546 95.3588 291.105 97.3257 291.105 97.3257Z" fill="#B3211B"/>
<path d="M306.381 76.5007C306.381 76.5007 308.301 84.0143 307.264 85.937C306.096 88.0966 296.645 87.9196 295.374 85.937C294.108 83.9587 295.815 76.5007 295.815 76.5007L297.442 75.7299V68.4961H304.707V75.3988L306.381 76.5007Z" fill="#F2D4B6"/>
<path d="M303.481 75.3317C303.902 75.2132 304.308 75.0662 304.699 74.9021V68.4961H297.434V74.2769C299.362 75.1818 301.236 75.9669 303.481 75.3317Z" fill="#DA9B7E"/>
<path d="M316.955 64.1301C315.957 64.5455 314.805 63.8332 314.805 63.8332C314.805 63.8332 309.684 64.0987 309.684 62.7641C309.684 61.4296 309.684 60.6802 309.684 58.3008C309.684 55.1164 314.805 55.4361 314.805 55.4361C314.805 55.4361 315.96 53.8146 317.51 54.9223C319.953 56.6665 318.873 63.328 316.955 64.1301Z" fill="#F2D4B6"/>
<path d="M286.71 64.1301C287.708 64.5455 288.859 63.8332 288.859 63.8332C288.859 63.8332 293.978 64.0987 293.978 62.7641C293.978 61.4296 293.978 60.6802 293.978 58.3008C293.978 55.1164 288.859 55.4361 288.859 55.4361C288.859 55.4361 287.703 53.8146 286.155 54.9223C283.707 56.6665 284.789 63.328 286.71 64.1301Z" fill="#F2D4B6"/>
<path d="M314.936 62.3043C314.936 68.2264 306.359 74.7937 301.763 74.7937C296.706 74.7937 288.586 67.8096 288.586 61.9346C288.586 55.0005 288.586 55.0005 288.586 49.5537C288.586 32.0529 314.938 30.8996 314.938 49.5537C314.936 61.4393 314.936 53.8044 314.936 62.3043Z" fill="#F2D4B6"/>
<path d="M289.384 55.6177C289.291 53.9491 292.053 52.6117 292.33 46.534C294.627 47.8072 305.737 54.3231 314.123 55.582C314.03 59.1047 314.865 60.248 315.105 61.2686C315.105 61.2686 315.128 58.224 315.105 56.6596C315.088 55.0896 317.085 54.5315 317.085 54.5315V49.1403C317.085 46.2385 314.11 32.7814 301.688 35.9316C289.858 33.1896 284.498 45.6105 284.747 48.665C284.993 51.7224 285.325 55.8603 285.325 55.8603C285.325 55.8603 288.037 53.3439 288.406 56.811C288.605 58.6779 288.443 60.6477 289.795 60.9617C289.618 59.2931 289.5 57.7473 289.384 55.6177Z" fill="#DE8021"/>
<path d="M301.504 56.5273V65.2L303.033 64.0024L301.504 56.5273Z" fill="#DA9B7E"/>
<path d="M299.215 54.8175C299.215 54.8175 296.884 53.2503 295.397 53.7456C293.91 54.2409 292.054 55.8495 292.054 55.8495L291.852 55.0745C291.852 55.0745 293.233 53.3959 295.257 53.2317C297.283 53.0662 299.215 54.8175 299.215 54.8175Z" fill="#DE8021"/>
<path d="M297.926 68.2481C297.926 68.2481 299.158 69.4314 299.856 69.4771C300.558 69.5256 303.119 69.6384 303.978 69.3472C304.27 69.2516 305.294 68.271 305.294 68.271C305.294 68.271 302.346 68.1282 301.811 68.104C301.28 68.0797 297.926 68.2481 297.926 68.2481Z" fill="#E24E70"/>
<path d="M295.977 67.3332C295.977 67.3332 297.785 67.9912 298.507 67.9056C299.23 67.8271 300.444 66.8094 300.733 66.9321C301.022 67.052 301.745 67.3561 301.745 67.3561C301.745 67.3561 302.687 66.8808 302.976 66.9321C303.266 66.9849 304.766 67.9798 305.294 67.9056C305.817 67.8371 307.039 67.3332 307.039 67.3332C307.039 67.3332 305.527 68.3367 304.922 68.5179C303.811 68.8491 302.615 68.5037 301.819 68.4508C300.87 68.388 299.484 69.056 298.399 68.4894C297.313 67.9184 295.977 67.3332 295.977 67.3332Z" fill="#E56681"/>
<path d="M304.449 54.6702C304.449 54.6702 306.782 53.1058 308.267 53.6011C309.753 54.0949 311.61 55.7036 311.61 55.7036L311.814 54.9328C311.814 54.9328 310.431 53.2528 308.407 53.0872C306.383 52.9217 304.449 54.6702 304.449 54.6702Z" fill="#DE8021"/>
<path d="M307.688 56.127C309.388 56.127 309.127 57.3888 309.671 57.7271C309.819 57.6329 310.753 57.3232 310.753 57.3232C310.753 57.3232 309.852 55.8145 307.688 55.8145C305.522 55.8145 304.711 57.2946 304.711 57.2946C304.711 57.2946 305.046 57.2946 305.196 57.386C305.741 57.0448 305.988 56.127 307.688 56.127Z" fill="#2D120E"/>
<path d="M310.34 57.3228C310.34 57.3228 309.987 58.6017 307.821 58.6017C305.655 58.6017 304.762 57.2942 304.762 57.2942C304.762 57.2942 305.655 56.041 307.821 56.041C309.987 56.041 310.34 57.3228 310.34 57.3228Z" fill="white"/>
<path d="M306.344 57.2954C306.344 57.8064 306.591 58.2603 306.973 58.5329C307.249 58.5743 307.533 58.6028 307.827 58.6028C308.119 58.6028 308.405 58.5757 308.68 58.5329C309.063 58.2617 309.313 57.8078 309.313 57.2954C309.313 56.7844 309.061 56.3305 308.68 56.055C308.406 56.0165 308.119 55.9922 307.827 55.9922C307.533 55.9922 307.25 56.0165 306.973 56.055C306.589 56.3305 306.344 56.7844 306.344 57.2954Z" fill="#2D120E"/>
<path d="M308.422 57.324C308.422 57.6537 308.154 57.9263 307.82 57.9263C307.489 57.9263 307.215 57.6537 307.215 57.324C307.215 56.9885 307.487 56.7188 307.82 56.7188C308.155 56.7188 308.422 56.9885 308.422 57.324Z" fill="#170000"/>
<path d="M307.663 56.7469C307.663 56.8967 307.541 57.0195 307.392 57.0195C307.242 57.0195 307.121 56.8982 307.121 56.7469C307.121 56.597 307.242 56.4785 307.392 56.4785C307.541 56.4785 307.663 56.597 307.663 56.7469Z" fill="white"/>
<path d="M307.836 57.3414C307.836 57.4214 307.772 57.4842 307.691 57.4842C307.615 57.4842 307.551 57.4214 307.551 57.3414C307.551 57.2601 307.615 57.1973 307.691 57.1973C307.772 57.1973 307.836 57.2601 307.836 57.3414Z" fill="white"/>
<path d="M295.976 56.127C294.28 56.127 294.542 57.3888 293.998 57.7271C293.848 57.6329 292.91 57.3232 292.91 57.3232C292.91 57.3232 293.811 55.8145 295.975 55.8145C298.143 55.8145 298.951 57.2946 298.951 57.2946C298.951 57.2946 298.617 57.2946 298.465 57.386C297.923 57.0448 297.675 56.127 295.976 56.127Z" fill="#2D120E"/>
<path d="M293.328 57.3228C293.328 57.3228 293.678 58.6017 295.846 58.6017C298.01 58.6017 298.902 57.2942 298.902 57.2942C298.902 57.2942 298.01 56.041 295.846 56.041C293.678 56.041 293.328 57.3228 293.328 57.3228Z" fill="white"/>
<path d="M297.333 57.2954C297.333 57.8064 297.081 58.2603 296.697 58.5329C296.426 58.5743 296.139 58.6028 295.847 58.6028C295.554 58.6028 295.27 58.5757 294.995 58.5329C294.611 58.2617 294.359 57.8078 294.359 57.2954C294.359 56.7844 294.612 56.3305 294.995 56.055C295.269 56.0165 295.554 55.9922 295.847 55.9922C296.139 55.9922 296.425 56.0165 296.697 56.055C297.081 56.3305 297.333 56.7844 297.333 57.2954Z" fill="#2D120E"/>
<path d="M295.246 57.324C295.246 57.6537 295.519 57.9263 295.851 57.9263C296.182 57.9263 296.455 57.6537 296.455 57.324C296.455 56.9885 296.184 56.7188 295.851 56.7188C295.519 56.7188 295.246 56.9885 295.246 57.324Z" fill="#170000"/>
<path d="M296.008 56.7469C296.008 56.8967 296.129 57.0195 296.279 57.0195C296.429 57.0195 296.552 56.8982 296.552 56.7469C296.552 56.597 296.429 56.4785 296.279 56.4785C296.129 56.4785 296.008 56.597 296.008 56.7469Z" fill="white"/>
<path d="M295.832 57.3414C295.832 57.4214 295.893 57.4842 295.975 57.4842C296.053 57.4842 296.119 57.4214 296.119 57.3414C296.119 57.2601 296.053 57.1973 295.975 57.1973C295.893 57.1973 295.832 57.2601 295.832 57.3414Z" fill="white"/>
</g>
<path d="M375.223 35.0918H335.93V42.5255H375.223V35.0918Z" fill="#B0AFB5"/>
<path d="M375.223 47.834H335.93V51.5522H375.223V47.834Z" fill="#D8DADE"/>
<path d="M375.223 55.4453H335.93V59.1636H375.223V55.4453Z" fill="#D8DADE"/>
<path d="M375.223 63.0547H335.93V66.7701H375.223V63.0547Z" fill="#D8DADE"/>
<path d="M375.223 70.666H335.93V74.3843H375.223V70.666Z" fill="#D8DADE"/>
<path d="M375.223 78.2754H335.93V81.9894H375.223V78.2754Z" fill="#D8DADE"/>
<path d="M375.223 85.8887H335.93V89.6041H375.223V85.8887Z" fill="#D8DADE"/>
<path d="M375.225 101.465H277.875V105.179H375.225V101.465Z" fill="#D8DADE"/>
<path d="M375.225 110.668H277.875V114.385H375.225V110.668Z" fill="#D8DADE"/>
<path opacity="0.07" d="M353.458 463.606C353.458 470.559 299.608 476.194 233.18 476.194C166.752 476.194 112.902 470.559 112.902 463.606C112.902 456.655 166.752 451.02 233.18 451.02C299.609 451.02 353.458 456.655 353.458 463.606Z" fill="#737277"/>
<path opacity="0.07" d="M343.936 463.604C343.936 470.006 294.35 475.195 233.179 475.195C172.01 475.195 122.422 470.006 122.422 463.604C122.422 457.204 172.008 452.014 233.179 452.014C294.35 452.014 343.936 457.204 343.936 463.604Z" fill="#737277"/>
<path opacity="0.07" d="M399.376 463.605C399.376 473.211 324.967 481 233.178 481C141.389 481 66.9805 473.213 66.9805 463.605C66.9805 454.001 141.39 446.213 233.178 446.213C324.967 446.214 399.376 454.001 399.376 463.605Z" fill="#737277"/>
<path opacity="0.07" d="M386.226 463.606C386.226 472.452 317.705 479.624 233.181 479.624C148.657 479.624 80.1367 472.452 80.1367 463.606C80.1367 454.762 148.657 447.59 233.181 447.59C317.705 447.59 386.226 454.762 386.226 463.606Z" fill="#737277"/>
<path opacity="0.07" d="M375.093 463.606C375.093 471.809 311.555 478.458 233.179 478.458C154.803 478.458 91.2656 471.809 91.2656 463.606C91.2656 455.404 154.803 448.756 233.179 448.756C311.557 448.756 375.093 455.404 375.093 463.606Z" fill="#737277"/>
<path opacity="0.07" d="M233.183 477.188C304.854 477.188 362.955 471.107 362.955 463.607C362.955 456.106 304.854 450.025 233.183 450.025C161.511 450.025 103.41 456.106 103.41 463.607C103.41 471.107 161.511 477.188 233.183 477.188Z" fill="#737277"/>
<path opacity="0.07" d="M286.901 463.605C286.901 466.711 262.85 469.228 233.181 469.228C203.512 469.228 179.461 466.71 179.461 463.605C179.461 460.501 203.512 457.984 233.181 457.984C262.851 457.984 286.901 460.502 286.901 463.605Z" fill="#737277"/>
<path opacity="0.07" d="M282.647 463.607C282.647 466.467 260.498 468.784 233.179 468.784C205.858 468.784 183.711 466.467 183.711 463.607C183.711 460.748 205.859 458.43 233.179 458.43C260.498 458.431 282.647 460.749 282.647 463.607Z" fill="#737277"/>
<path opacity="0.07" d="M279.054 463.605C279.054 466.256 258.516 468.406 233.183 468.406C207.851 468.406 187.312 466.256 187.312 463.605C187.312 460.955 207.851 458.807 233.183 458.807C258.518 458.807 279.054 460.955 279.054 463.605Z" fill="#737277"/>
<path opacity="0.07" d="M275.126 463.604C275.126 466.029 256.348 467.995 233.18 467.995C210.014 467.995 191.234 466.029 191.234 463.604C191.234 461.18 210.013 459.215 233.18 459.215C256.348 459.215 275.126 461.18 275.126 463.604Z" fill="#737277"/>
<path opacity="0.07" d="M306.852 463.604C306.852 467.861 273.87 471.313 233.182 471.313C192.495 471.313 159.512 467.861 159.512 463.604C159.512 459.347 192.495 455.895 233.182 455.895C273.87 455.895 306.852 459.347 306.852 463.604Z" fill="#737277"/>
<path opacity="0.07" d="M301.027 463.606C301.027 467.526 270.654 470.707 233.187 470.707C195.72 470.707 165.348 467.526 165.348 463.606C165.348 459.685 195.72 456.506 233.187 456.506C270.654 456.507 301.027 459.685 301.027 463.606Z" fill="#737277"/>
<path opacity="0.07" d="M233.184 470.187C267.926 470.187 296.09 467.24 296.09 463.604C296.09 459.969 267.926 457.021 233.184 457.021C198.442 457.021 170.277 459.969 170.277 463.604C170.277 467.24 198.442 470.187 233.184 470.187Z" fill="#737277"/>
<path opacity="0.07" d="M290.704 463.607C290.704 466.933 264.95 469.628 233.18 469.628C201.41 469.628 175.656 466.933 175.656 463.607C175.656 460.283 201.41 457.588 233.18 457.588C264.952 457.589 290.704 460.283 290.704 463.607Z" fill="#737277"/>
<path opacity="0.07" d="M233.18 474.259C289.402 474.259 334.978 469.489 334.978 463.605C334.978 457.721 289.402 452.951 233.18 452.951C176.959 452.951 131.383 457.721 131.383 463.605C131.383 469.489 176.959 474.259 233.18 474.259Z" fill="#737277"/>
<path opacity="0.07" d="M326.914 463.604C326.914 469.022 284.947 473.414 233.174 473.414C181.402 473.414 139.434 469.022 139.434 463.604C139.434 458.187 181.401 453.795 233.174 453.795C284.947 453.795 326.914 458.188 326.914 463.604Z" fill="#737277"/>
<path opacity="0.07" d="M320.104 463.606C320.104 468.632 281.186 472.704 233.181 472.704C185.175 472.704 146.258 468.631 146.258 463.606C146.258 458.582 185.176 454.51 233.181 454.51C281.187 454.51 320.104 458.583 320.104 463.606Z" fill="#737277"/>
<path opacity="0.07" d="M312.673 463.606C312.673 468.201 277.086 471.925 233.186 471.925C189.286 471.925 153.699 468.201 153.699 463.606C153.699 459.013 189.286 455.289 233.186 455.289C277.087 455.289 312.673 459.014 312.673 463.606Z" fill="#737277"/>
<path opacity="0.07" d="M270.219 463.605C270.219 465.746 253.637 467.482 233.181 467.482C212.724 467.482 196.141 465.746 196.141 463.605C196.141 461.466 212.724 459.729 233.181 459.729C253.637 459.73 270.219 461.466 270.219 463.605Z" fill="#737277"/>
<path opacity="0.07" d="M266.955 463.606C266.955 465.559 251.836 467.142 233.186 467.142C214.537 467.142 199.418 465.56 199.418 463.606C199.418 461.655 214.537 460.072 233.186 460.072C251.836 460.074 266.955 461.655 266.955 463.606Z" fill="#737277"/>
<path opacity="0.07" d="M264.664 463.607C264.664 465.427 250.57 466.903 233.183 466.903C215.797 466.903 201.703 465.428 201.703 463.607C201.703 461.788 215.797 460.312 233.183 460.312C250.57 460.314 264.664 461.788 264.664 463.607Z" fill="#737277"/>
<path opacity="0.07" d="M262.172 463.605C262.172 465.281 249.194 466.64 233.184 466.64C217.173 466.64 204.195 465.281 204.195 463.605C204.195 461.931 217.173 460.572 233.184 460.572C249.196 460.572 262.172 461.933 262.172 463.605Z" fill="#737277"/>
<path opacity="0.07" d="M260.061 463.606C260.061 465.161 248.025 466.421 233.181 466.421C218.336 466.421 206.301 465.161 206.301 463.606C206.301 462.053 218.336 460.793 233.181 460.793C248.025 460.794 260.061 462.055 260.061 463.606Z" fill="#737277"/>
<path opacity="0.07" d="M257.759 463.605C257.759 465.027 246.754 466.179 233.178 466.179C219.603 466.179 208.598 465.027 208.598 463.605C208.598 462.185 219.603 461.033 233.178 461.033C246.754 461.035 257.759 462.185 257.759 463.605Z" fill="#737277"/>
<path opacity="0.07" d="M254.892 463.607C254.892 464.862 245.173 465.879 233.186 465.879C221.199 465.879 211.48 464.862 211.48 463.607C211.48 462.354 221.199 461.336 233.186 461.336C245.173 461.337 254.892 462.355 254.892 463.607Z" fill="#737277"/>
<path opacity="0.07" d="M252.969 463.603C252.969 464.748 244.11 465.674 233.182 465.674C222.254 465.674 213.395 464.746 213.395 463.603C213.395 462.46 222.254 461.533 233.182 461.533C244.11 461.533 252.969 462.461 252.969 463.603Z" fill="#737277"/>
<path opacity="0.07" d="M252.969 463.603C252.969 464.748 244.11 465.674 233.182 465.674C222.254 465.674 213.395 464.746 213.395 463.603C213.395 462.46 222.254 461.533 233.182 461.533C244.11 461.533 252.969 462.461 252.969 463.603Z" fill="#737277"/>
<path opacity="0.07" d="M251.407 463.606C251.407 464.66 243.248 465.515 233.184 465.515C223.12 465.515 214.961 464.66 214.961 463.606C214.961 462.554 223.12 461.699 233.184 461.699C243.248 461.699 251.407 462.554 251.407 463.606Z" fill="#737277"/>
<path opacity="0.07" d="M250.083 463.607C250.083 464.585 242.518 465.375 233.186 465.375C223.854 465.375 216.289 464.583 216.289 463.607C216.289 462.631 223.854 461.84 233.186 461.84C242.518 461.84 250.083 462.632 250.083 463.607Z" fill="#737277"/>
<path opacity="0.07" d="M248.637 463.607C248.637 464.501 241.718 465.226 233.186 465.226C224.651 465.226 217.734 464.501 217.734 463.607C217.734 462.715 224.653 461.99 233.186 461.99C241.718 461.992 248.637 462.715 248.637 463.607Z" fill="#737277"/>
<path opacity="0.07" d="M246.827 463.607C246.827 464.396 240.72 465.036 233.183 465.036C225.648 465.036 219.539 464.396 219.539 463.607C219.539 462.819 225.647 462.18 233.183 462.18C240.72 462.18 246.827 462.821 246.827 463.607Z" fill="#737277"/>
<path opacity="0.07" d="M245.621 463.605C245.621 464.324 240.053 464.907 233.182 464.907C226.312 464.907 220.742 464.324 220.742 463.605C220.742 462.887 226.31 462.305 233.182 462.305C240.051 462.305 245.621 462.888 245.621 463.605Z" fill="#737277"/>
<path opacity="0.07" d="M244.778 463.608C244.778 464.279 239.585 464.822 233.182 464.822C226.779 464.822 221.586 464.279 221.586 463.608C221.586 462.937 226.779 462.395 233.182 462.395C239.585 462.396 244.778 462.938 244.778 463.608Z" fill="#737277"/>
<path opacity="0.07" d="M243.864 463.606C243.864 464.224 239.082 464.724 233.186 464.724C227.288 464.724 222.508 464.223 222.508 463.606C222.508 462.99 227.289 462.49 233.186 462.49C239.082 462.49 243.864 462.991 243.864 463.606Z" fill="#737277"/>
<path opacity="0.07" d="M243.086 463.605C243.086 464.177 238.652 464.642 233.183 464.642C227.715 464.642 223.281 464.178 223.281 463.605C223.281 463.034 227.713 462.568 233.183 462.568C238.652 462.57 243.086 463.034 243.086 463.605Z" fill="#737277"/>
<path opacity="0.07" d="M242.239 463.606C242.239 464.13 238.186 464.554 233.184 464.554C228.183 464.554 224.129 464.13 224.129 463.606C224.129 463.084 228.183 462.66 233.184 462.66C238.187 462.66 242.239 463.084 242.239 463.606Z" fill="#737277"/>
<path opacity="0.07" d="M241.176 463.606C241.176 464.068 237.596 464.444 233.18 464.444C228.763 464.444 225.184 464.068 225.184 463.606C225.184 463.145 228.763 462.77 233.18 462.77C237.596 462.77 241.176 463.145 241.176 463.606Z" fill="#737277"/>
<path opacity="0.07" d="M240.471 463.604C240.471 464.026 237.208 464.368 233.183 464.368C229.157 464.368 225.895 464.026 225.895 463.604C225.895 463.183 229.157 462.842 233.183 462.842C237.208 462.842 240.471 463.184 240.471 463.604Z" fill="#737277"/>
<path opacity="0.07" d="M239.434 463.607C239.434 463.969 236.632 464.262 233.178 464.262C229.724 464.262 226.922 463.969 226.922 463.607C226.922 463.246 229.724 462.953 233.178 462.953C236.632 462.955 239.434 463.247 239.434 463.607Z" fill="#737277"/>
<path opacity="0.07" d="M238.332 463.606C238.332 463.905 236.026 464.146 233.181 464.146C230.336 464.146 228.031 463.905 228.031 463.606C228.031 463.31 230.336 463.068 233.181 463.068C236.026 463.07 238.332 463.311 238.332 463.606Z" fill="#737277"/>
<path opacity="0.07" d="M236.735 463.605C236.735 463.812 235.142 463.978 233.178 463.978C231.214 463.978 229.621 463.812 229.621 463.605C229.621 463.399 231.214 463.232 233.178 463.232C235.142 463.234 236.735 463.401 236.735 463.605Z" fill="#737277"/>
<path opacity="0.07" d="M235.595 463.604C235.595 463.746 234.516 463.857 233.184 463.857C231.851 463.857 230.773 463.746 230.773 463.604C230.773 463.464 231.853 463.352 233.184 463.352C234.516 463.353 235.595 463.466 235.595 463.604Z" fill="#737277"/>
<path d="M106.893 412.39C110.47 420.149 117.216 426.275 124.103 430.427C125.667 431.371 127.23 432.313 128.795 433.258C131.864 435.109 134.931 436.96 138 438.813C139.807 439.898 141.61 440.987 143.414 442.076C144.853 442.944 147.23 442.651 147.657 440.734C148.111 438.669 146.495 437.249 145.101 436.111C143.852 435.089 142.709 433.92 141.483 432.865C138.918 430.654 136.47 428.309 133.913 426.088C133.348 425.597 132.813 425.043 132.22 424.578C132.89 425.062 133.559 425.547 134.23 426.031C135.869 427.216 137.509 428.4 139.145 429.588C141.207 431.084 143.277 432.574 145.336 434.076C147.288 435.494 149.242 436.915 151.204 438.325C152.626 439.348 154.018 440.436 155.498 441.378C156.764 442.184 158.923 442.634 160.045 441.308C160.648 440.594 160.586 439.605 160.489 438.722C160.384 437.767 159.544 436.376 158.833 435.724C158.114 435.065 157.439 434.402 156.768 433.692C154.967 431.78 152.873 430.012 150.877 428.306C148.666 426.421 146.473 424.524 144.234 422.67C142.369 421.128 140.505 419.589 138.648 418.038C137.779 417.308 136.905 416.559 136 415.875C135.98 415.863 135.964 415.853 135.944 415.843C135.944 415.843 162.049 436.338 162.134 436.402C163.882 437.774 168.164 440.07 169.995 437.08C170.642 436.027 170.261 433.753 169.72 432.735C169.12 431.609 168.081 430.818 167.155 429.978C165.222 428.228 163.391 426.414 161.39 424.731C157.289 421.284 153.221 417.802 149 414.498C148.067 413.767 147.166 412.985 146.207 412.29C149.193 414.935 152.779 417.337 156.079 419.585C159.995 422.25 162.485 424.474 165.563 426.279C166.367 426.75 167.45 427.587 168.401 427.595C169.776 427.611 171.568 427.27 172.259 426.232C173.241 424.759 172.186 422.016 170.858 420.864C163.15 414.202 157.722 409.736 150.632 405.331C150.632 405.331 144.596 401.666 144.092 401.051C144.092 401.051 155.7 407.405 163.3 405.995C163.3 405.995 173.311 400.957 157.041 397.564C157.041 397.564 147.857 393.466 142.148 390.677C142.148 390.677 131.138 384.749 117.918 388.707C117.918 388.707 107.299 382.164 104.545 379.857L94.3555 393.048C94.3555 393.048 104.256 406.666 106.893 412.39Z" fill="#E1AB81"/>
<path d="M363.857 399.427C364.573 407.939 361.727 416.594 357.785 423.605C356.89 425.198 355.992 426.788 355.1 428.38C353.344 431.504 351.59 434.629 349.833 437.752C348.795 439.588 347.767 441.426 346.733 443.262C345.91 444.729 343.697 445.647 342.381 444.188C340.965 442.615 341.673 440.581 342.322 438.905C342.904 437.399 343.323 435.818 343.867 434.295C345.007 431.109 345.979 427.86 347.108 424.669C347.359 423.964 347.549 423.214 347.836 422.519C347.493 423.271 347.148 424.022 346.804 424.773C345.959 426.613 345.123 428.453 344.283 430.293C343.227 432.612 342.162 434.929 341.11 437.248C340.11 439.449 339.115 441.646 338.103 443.84C337.369 445.433 336.698 447.065 335.876 448.614C335.174 449.94 333.515 451.396 331.884 450.795C331.009 450.471 330.574 449.582 330.222 448.767C329.84 447.882 329.888 446.26 330.187 445.343C330.488 444.415 330.748 443.506 330.979 442.556C331.604 440.006 332.553 437.432 333.448 434.966C334.44 432.237 335.411 429.502 336.446 426.787C337.306 424.526 338.169 422.265 339.022 420.001C339.415 418.939 339.809 417.855 340.26 416.814C340.268 416.796 340.28 416.778 340.291 416.758C340.291 416.758 327.696 447.467 327.653 447.562C326.808 449.618 324.219 453.726 321.149 452.03C320.064 451.432 319.279 449.265 319.245 448.116C319.212 446.841 319.724 445.641 320.117 444.452C320.93 441.978 321.631 439.493 322.542 437.044C324.407 432.023 326.23 426.987 328.271 422.031C328.722 420.935 329.119 419.809 329.613 418.731C328.32 422.506 326.387 426.363 324.623 429.946C322.529 434.198 321.461 437.359 319.674 440.448C319.212 441.255 318.679 442.516 317.859 442.993C316.668 443.684 314.94 444.274 313.825 443.713C312.248 442.913 311.81 440.007 312.398 438.351C315.818 428.752 318.335 422.191 322.328 414.861C322.328 414.861 325.773 408.695 325.908 407.91C325.908 407.91 318.943 419.166 311.64 421.688C311.64 421.688 300.443 422.244 312.924 411.264C312.924 411.264 318.891 403.171 322.478 397.929C322.478 397.929 329.129 387.339 342.583 384.262C342.583 384.262 348.591 373.331 349.849 369.967L371.906 379.216C371.906 379.216 363.323 393.146 363.857 399.427Z" fill="#E1AB81"/>
<path d="M207.502 215.27C207.502 215.27 212.729 230.021 197.742 241.18C197.742 241.18 231.999 276.367 276.961 241.18C276.961 241.18 259.832 239.461 266.255 205.988L207.502 215.27Z" fill="#CE966D"/>
<path d="M381.866 365.85L350.76 284.546C343.845 264.288 326.14 252.046 307.635 244.468C297.579 240.35 287.512 236.255 277.443 232.158C243.684 269.034 201.375 232.158 201.375 232.158C195.119 235.598 188.894 239.094 182.653 242.565C165.276 252.23 144.758 259.436 133.985 277.231L84.4961 363.947C84.4961 363.947 89.018 396.538 101.8 404.8C101.8 404.8 105.433 384.883 131.997 387.677L127.794 367.113L171.565 322.554L178.506 398.204H295.17L304.311 322.593L341.185 365.137L324.717 394.636C352.311 383.217 363.953 402.015 363.953 402.015C363.953 402.015 377.769 385.322 381.866 365.85Z" fill="#434041"/>
<path d="M288.169 160.09C288.102 116.479 264.253 92.7461 234.845 92.7461C205.438 92.7461 181.589 116.479 181.523 160.09C179.839 160.116 171.035 160.713 176.042 170.727C176.042 170.727 181.412 177.27 181.796 185.656C181.796 185.656 183.7 190.167 186.522 188.104C193.09 205.721 205.174 219.17 216.9 227.586C216.9 227.586 236.799 240.635 251.561 229.033C265.656 220.349 277.838 207.349 283.96 188.526C286.341 189.331 287.897 185.656 287.897 185.656C288.282 177.27 293.648 170.727 293.648 170.727C298.652 160.714 289.857 160.116 288.169 160.09Z" fill="#E1AB81"/>
<path d="M288.733 160.31C286.987 164.018 278.943 169.117 279.812 173.921C279.812 174.185 279.812 174.185 279.812 173.921C278.733 172.234 279.973 167.011 279.812 164.949C279.528 161.375 278.856 158.086 278.028 154.59C276.293 147.295 274.152 140.756 269.917 134.526C264.925 127.178 259.257 122.351 249.481 122.842C243.598 123.139 234.76 124.555 233.788 131.657C228.772 119.737 207.344 119.913 200.237 129.782C196.072 135.564 194.366 142.052 193.384 148.972C192.793 153.137 192.553 157.368 191.75 161.462C191.264 163.924 190.89 169.004 189.53 170.66C189.53 170.66 188.15 163.447 181.524 160.094C174.99 156.79 180.897 124.639 182.302 119.861C189.038 96.9095 209.104 83.508 232.114 81.0729C243.678 79.8497 255.119 76.8151 266.941 77.6658C264.371 79.5328 261.714 82.0492 259.506 84.57C266.225 83.4923 272.584 81.3798 279.752 81.9122C275.955 84.6956 277.702 88.9491 275.798 93.1184C284.123 92.6131 290.289 102.914 294.582 108.838C290.596 107.782 286.832 105.731 282.876 104.594C300.402 109.627 294.001 149.106 288.733 160.31Z" fill="#40290F"/>
<path d="M201.375 232.158L187.844 239.673C187.844 239.673 211.843 261.537 236.547 261.657C236.815 261.659 237.079 261.657 237.347 261.653C262.326 261.296 279.658 254.182 289.011 236.864L277.443 232.158C277.443 232.158 258.469 248.994 242.2 248.544C242.2 248.544 224.857 249.404 201.375 232.158Z" fill="#EDEEF0"/>
<path d="M332.566 434.636C332.566 439.316 328.769 443.11 324.09 443.11H145.004C140.324 443.11 136.531 439.317 136.531 434.636V304.017C136.531 299.336 140.322 295.541 145.004 295.541H324.09C328.768 295.541 332.566 299.335 332.566 304.017V434.636Z" fill="black"/>
<path d="M138.859 305.812V378.882C138.859 412.155 142.559 439.128 147.125 439.128H321.827C326.393 439.128 330.092 412.155 330.092 378.882V305.812H138.859Z" fill="#89878C"/>
<path d="M192.954 440.914H165.879V447.301H192.954V440.914Z" fill="#89878C"/>
<path d="M298.405 440.914H271.332V447.301H298.405V440.914Z" fill="#89878C"/>
<path d="M116.605 449.883H353.084C353.084 449.883 349.823 460.234 343.909 464.176H138.013C138.013 464.176 118.671 462.204 116.605 449.883Z" fill="black"/>
<path d="M260.874 156.728C257.947 156.957 255.156 157.452 252.62 158.226C251.956 158.428 251.306 158.651 250.677 158.894C238.486 162.83 228.81 160.719 224.168 159.131C223.223 158.67 222.225 158.26 221.174 157.902L221.168 157.899L221.171 157.9C218.403 156.96 215.291 156.37 212.016 156.115C189.084 154.325 185.367 163.914 189.225 175.247C192.645 185.297 198.082 190.442 210.75 190.442C223.414 190.442 229.846 187.021 232.274 175.247C232.678 173.297 232.757 171.51 232.558 169.877C235.608 167.177 238.653 168.483 240.439 169.769C240.117 171.594 240.152 173.621 240.614 175.862C243.042 187.635 249.474 191.056 262.139 191.056C274.801 191.056 280.243 185.911 283.66 175.862C287.523 164.529 283.803 154.938 260.874 156.728ZM229.232 175.407C227.22 184.592 221.897 187.261 211.416 187.261C200.934 187.261 196.432 183.244 193.6 175.407C190.408 166.563 193.486 159.081 212.465 160.479C222.918 161.247 231.326 165.835 229.232 175.407ZM279.29 176.02C276.461 183.861 271.955 187.875 261.474 187.875C250.991 187.875 245.67 185.206 243.657 176.02C241.563 166.449 249.972 161.863 260.426 161.093C279.407 159.696 282.483 167.178 279.29 176.02Z" fill="black"/>
<path d="M191.853 172.356L186.302 173.785L184.164 159.43H193.015L191.853 172.356Z" fill="black"/>
<path d="M281.233 172.356L286.782 173.785L288.916 159.43H280.066L281.233 172.356Z" fill="black"/>
</svg>
