<svg width="652" height="415" viewBox="0 0 652 415" fill="none" xmlns="http://www.w3.org/2000/svg">
<path d="M252.068 328.944C246.306 309.043 229.825 293.739 208.566 293.225C196.205 292.926 184.215 298.23 173.69 304.273C159.479 312.433 142.725 322.286 125.723 319.809C114.832 318.223 101.928 312.111 99.3734 299.484C96.6684 286.121 107.466 276.956 119.007 271.581C128.895 266.976 142.769 255.962 147.212 245.419C164.833 203.608 115.56 155.889 129.466 108.238C144.019 58.3699 211.405 49.9399 245.279 83.7999C248.526 87.0459 251.563 90.5099 254.325 94.1789C261.238 103.359 265.305 115.861 274.914 122.75C287.358 131.666 303.479 128.813 316.88 123.518C342.492 113.398 349.265 106.721 374.307 95.8219C392.318 87.9829 414.503 80.9889 434.74 87.9549C449.241 92.9469 465.257 101.921 473.367 114.914C488.448 139.076 481.676 165.105 505.517 199.464C516.319 215.031 533.488 219.395 547.166 230.644C582.629 259.806 570.773 321.281 532.097 342.319C500.339 359.594 461.236 355.647 426.797 351.221C424.157 350.882 421.521 350.517 418.887 350.131" stroke="#0A5840" stroke-opacity="0.6" stroke-miterlimit="10" stroke-linejoin="round" stroke-dasharray="3.5 3.5"/>
<path d="M503.494 102.314C506.475 98.9154 509.12 95.1294 511.323 90.9574C513.526 86.7844 515.162 82.4664 516.289 78.0874L504.467 73.8964C505.413 69.8124 505.778 65.6724 505.608 61.5804L518.017 59.6504C517.41 50.4204 514.636 41.4364 509.933 33.4704L498.596 38.8724C496.429 35.3974 493.794 32.1844 490.71 29.3444L498.111 19.2174C494.712 16.2364 490.926 13.5914 486.754 11.3874C482.582 9.18436 478.263 7.54836 473.885 6.42136L469.694 18.2434C465.61 17.2974 461.47 16.9324 457.378 17.1024L455.448 4.69336C446.218 5.30036 437.234 8.07436 429.268 12.7774L434.67 24.1144C431.195 26.2814 427.982 28.9174 425.142 32.0014L415.015 24.6004C412.034 27.9994 409.389 31.7854 407.186 35.9574C404.982 40.1294 403.347 44.4484 402.22 48.8274L414.042 53.0184C413.096 57.1024 412.731 61.2434 412.901 65.3344L400.492 67.2644C401.099 76.4944 403.873 85.4784 408.576 93.4444L419.913 88.0424C422.08 91.5174 424.715 94.7304 427.799 97.5704L420.398 107.697C423.797 110.678 427.583 113.323 431.755 115.526C435.927 117.73 440.246 119.365 444.624 120.492L448.815 108.67C452.899 109.616 457.04 109.981 461.131 109.811L463.061 122.22C472.291 121.613 481.275 118.839 489.241 114.136L483.839 102.799C487.314 100.632 490.527 97.9974 493.367 94.9134L503.494 102.314ZM445.515 89.4714C431.148 81.8834 425.652 64.0854 433.24 49.7174C440.828 35.3504 458.626 29.8544 472.994 37.4424C487.361 45.0304 492.857 62.8284 485.269 77.1964C477.681 91.5634 459.882 97.0594 445.515 89.4714ZM449.491 81.9424C439.282 76.5504 435.377 63.9034 440.769 53.6944C446.161 43.4854 458.808 39.5804 469.017 44.9724C479.226 50.3644 483.131 63.0104 477.739 73.2194C472.347 83.4284 459.7 87.3334 449.491 81.9424Z" fill="#E4E9F9"/>
<path d="M234.89 130.774C236.517 128.496 237.913 126 239.013 123.294C240.113 120.587 240.855 117.826 241.279 115.059L233.737 113.206C234.068 110.631 234.038 108.058 233.681 105.548L241.207 103.594C240.264 97.9455 238.001 92.5805 234.612 87.9635L227.96 91.9905C226.411 89.9835 224.589 88.1665 222.513 86.6065L226.448 79.9105C224.17 78.2835 221.675 76.8875 218.968 75.7875C216.261 74.6875 213.5 73.9455 210.733 73.5215L208.88 81.0635C206.305 80.7325 203.732 80.7625 201.222 81.1195L199.268 73.5935C193.619 74.5365 188.254 76.7995 183.637 80.1885L187.664 86.8405C185.657 88.3895 183.839 90.2115 182.28 92.2875L175.584 88.3525C173.957 90.6305 172.561 93.1255 171.461 95.8325C170.361 98.5395 169.619 101.3 169.195 104.067L176.737 105.92C176.406 108.495 176.436 111.068 176.793 113.578L169.267 115.532C170.21 121.181 172.473 126.546 175.862 131.163L182.514 127.136C184.063 129.143 185.885 130.961 187.96 132.52L184.025 139.216C186.303 140.843 188.799 142.239 191.505 143.339C194.211 144.44 196.973 145.181 199.74 145.605L201.593 138.063C204.168 138.394 206.741 138.364 209.251 138.007L211.205 145.533C216.854 144.59 222.219 142.327 226.836 138.938L222.809 132.287C224.816 130.738 226.634 128.916 228.193 126.84L234.89 130.774ZM198.377 126.436C189.057 122.647 184.574 112.02 188.363 102.7C192.152 93.3805 202.779 88.8975 212.099 92.6865C221.419 96.4755 225.902 107.102 222.113 116.422C218.324 125.742 207.697 130.225 198.377 126.436ZM200.363 121.552C193.741 118.86 190.555 111.308 193.247 104.686C195.939 98.0645 203.491 94.8785 210.113 97.5715C216.735 100.263 219.921 107.814 217.229 114.437C214.536 121.058 206.985 124.244 200.363 121.552Z" fill="#E4E9F9"/>
<path d="M264.831 61.4166C266.123 59.9436 267.27 58.3016 268.225 56.4936C269.18 54.6846 269.889 52.8126 270.378 50.9146L265.253 49.0976C265.663 47.3276 265.821 45.5326 265.748 43.7586L271.127 42.9216C270.864 38.9206 269.661 35.0266 267.623 31.5736L262.709 33.9156C261.77 32.4096 260.627 31.0166 259.29 29.7856L262.498 25.3956C261.025 24.1036 259.384 22.9566 257.575 22.0016C255.766 21.0466 253.894 20.3376 251.996 19.8496L250.179 24.9736C248.409 24.5636 246.614 24.4056 244.84 24.4786L244.003 19.0996C240.002 19.3626 236.108 20.5656 232.655 22.6036L234.997 27.5176C233.491 28.4566 232.098 29.5996 230.867 30.9366L226.477 27.7286C225.185 29.2016 224.038 30.8436 223.083 32.6516C222.128 34.4606 221.419 36.3326 220.93 38.2306L226.054 40.0476C225.644 41.8176 225.486 43.6126 225.559 45.3866L220.18 46.2236C220.443 50.2246 221.645 54.1186 223.684 57.5716L228.598 55.2296C229.537 56.7356 230.68 58.1286 232.016 59.3596L228.808 63.7496C230.281 65.0416 231.923 66.1886 233.731 67.1436C235.54 68.0986 237.412 68.8076 239.31 69.2966L241.127 64.1716C242.897 64.5816 244.692 64.7396 246.466 64.6666L247.303 70.0456C251.304 69.7826 255.198 68.5806 258.651 66.5416L256.309 61.6276C257.815 60.6886 259.208 59.5456 260.439 58.2086L264.831 61.4166ZM241.366 52.6926C236.882 50.3246 235.167 44.7696 237.535 40.2856C239.903 35.8016 245.458 34.0866 249.942 36.4546C254.426 38.8226 256.141 44.3776 253.773 48.8616C251.405 53.3456 245.85 55.0606 241.366 52.6926Z" fill="#E4E9F9"/>
<path d="M143.999 141.171C143.966 140.504 143.91 139.795 143.826 139.037C143.14 132.828 138.886 133.398 136.239 133.587C133.592 133.776 130.301 133.875 129.035 130.987C128.484 129.73 128.508 128.213 128.146 126.855C127.344 123.844 124.666 122.04 122.108 122.034C119.55 122.028 117.129 123.495 115.033 125.312C113.944 126.256 112.717 127.362 111.42 127.006C110.589 126.778 109.94 125.981 109.423 125.143C106.391 120.221 106.41 113.064 103.09 108.436C99.4253 103.326 92.5803 103.223 87.9463 106.932C83.3123 110.641 80.6513 117.25 79.4373 123.919C79.0423 126.087 78.7013 128.464 77.3643 129.944C75.4523 132.058 72.5253 131.359 69.9743 131.072C67.0133 130.74 63.8543 131.223 61.4513 133.393C59.4913 135.162 58.2163 138.259 58.4593 141.172L143.999 141.171Z" fill="white" stroke="#0A5840" stroke-opacity="0.6" stroke-miterlimit="10" stroke-linejoin="round"/>
<path d="M315.29 33.6177H399.466C399.466 33.6177 396.091 29.6937 392.274 28.3557C387.469 26.6717 385.47 31.4007 382.438 25.2857C380.737 21.8547 379.544 17.3377 375.067 16.1647C368.065 14.3307 366.283 20.1167 362.947 18.5527C360.018 17.1797 360.109 11.6867 357.153 7.09469C354.264 2.60669 347.221 -0.155313 342.417 2.18569C333.64 6.46269 334.78 13.2667 331.905 15.5097C329.068 17.7237 322.561 9.92969 315.29 18.3567C310.277 24.1677 315.29 33.6177 315.29 33.6177Z" fill="white" stroke="#0A5840" stroke-opacity="0.6" stroke-miterlimit="10" stroke-linejoin="round"/>
<path d="M403.156 4.695C403.156 6.736 401.502 8.39 399.461 8.39C397.421 8.39 395.766 6.736 395.766 4.695C395.766 2.655 397.42 1 399.461 1C401.501 1 403.156 2.654 403.156 4.695Z" stroke="#0A5840" stroke-opacity="0.6" stroke-miterlimit="10" stroke-linejoin="round"/>
<path d="M646.585 302.386C646.585 304.426 644.931 306.081 642.89 306.081C640.849 306.081 639.195 304.427 639.195 302.386C639.195 300.345 640.849 298.691 642.89 298.691C644.93 298.691 646.585 300.345 646.585 302.386Z" stroke="#0A5840" stroke-opacity="0.6" stroke-miterlimit="10" stroke-linejoin="round"/>
<path d="M470.171 149.332C470.171 151.372 468.517 153.027 466.476 153.027C464.436 153.027 462.781 151.373 462.781 149.332C462.781 147.291 464.435 145.637 466.476 145.637C468.517 145.637 470.171 147.292 470.171 149.332Z" stroke="#0A5840" stroke-opacity="0.6" stroke-miterlimit="10" stroke-linejoin="round"/>
<path d="M13.3119 193.134C13.3119 195.174 11.6579 196.829 9.61687 196.829C7.57587 196.829 5.92188 195.175 5.92188 193.134C5.92188 191.093 7.57587 189.439 9.61687 189.439C11.6579 189.439 13.3119 191.093 13.3119 193.134Z" stroke="#0A5840" stroke-opacity="0.6" stroke-miterlimit="10" stroke-linejoin="round"/>
<path d="M163.999 54.6598C163.999 56.7008 162.345 58.3548 160.304 58.3548C158.263 58.3548 156.609 56.7008 156.609 54.6598C156.609 52.6188 158.263 50.9648 160.304 50.9648C162.344 50.9648 163.999 52.6188 163.999 54.6598Z" stroke="#0A5840" stroke-opacity="0.6" stroke-miterlimit="10" stroke-linejoin="round"/>
<path d="M207.751 37.8597C207.751 39.2467 206.626 40.3707 205.239 40.3707C203.852 40.3707 202.727 39.2467 202.727 37.8597C202.727 36.4727 203.851 35.3477 205.239 35.3477C206.627 35.3477 207.751 36.4727 207.751 37.8597Z" stroke="#0A5840" stroke-opacity="0.6" stroke-miterlimit="10" stroke-linejoin="round"/>
<path d="M616.703 215.61C616.703 216.997 615.579 218.122 614.192 218.122C612.805 218.122 611.68 216.998 611.68 215.61C611.68 214.223 612.804 213.098 614.192 213.098C615.578 213.098 616.703 214.223 616.703 215.61Z" stroke="#0A5840" stroke-opacity="0.6" stroke-miterlimit="10" stroke-linejoin="round"/>
<path d="M434.27 135.01C435.657 135.01 436.782 133.886 436.782 132.498C436.782 131.111 435.657 129.986 434.27 129.986C432.882 129.986 431.758 131.111 431.758 132.498C431.758 133.886 432.882 135.01 434.27 135.01Z" stroke="#0A5840" stroke-opacity="0.6" stroke-miterlimit="10" stroke-linejoin="round"/>
<path d="M535.547 69.3206C535.547 70.7076 534.422 71.8326 533.035 71.8326C531.648 71.8326 530.523 70.7086 530.523 69.3206C530.523 67.9326 531.647 66.8086 533.035 66.8086C534.422 66.8096 535.547 67.9336 535.547 69.3206Z" stroke="#0A5840" stroke-opacity="0.6" stroke-miterlimit="10" stroke-linejoin="round"/>
<path d="M530.204 253.266C530.204 254.653 529.079 255.778 527.692 255.778C526.305 255.778 525.18 254.654 525.18 253.266C525.18 251.879 526.304 250.754 527.692 250.754C529.079 250.755 530.204 251.879 530.204 253.266Z" stroke="#0A5840" stroke-opacity="0.6" stroke-miterlimit="10" stroke-linejoin="round"/>
<path d="M140.485 277.305C140.485 278.692 139.36 279.817 137.973 279.817C136.586 279.817 135.461 278.693 135.461 277.305C135.461 275.918 136.585 274.793 137.973 274.793C139.361 274.793 140.485 275.918 140.485 277.305Z" stroke="#0A5840" stroke-opacity="0.6" stroke-miterlimit="10" stroke-linejoin="round"/>
<path d="M148.024 162.592C148.024 163.979 146.9 165.104 145.512 165.104C144.124 165.104 143 163.98 143 162.592C143 161.205 144.124 160.08 145.512 160.08C146.9 160.08 148.024 161.205 148.024 162.592Z" stroke="#0A5840" stroke-opacity="0.6" stroke-miterlimit="10" stroke-linejoin="round"/>
<path d="M632.146 179.69H628.781C628.177 179.69 627.688 179.2 627.688 178.596V175.231C627.688 174.627 628.177 174.137 628.781 174.137H632.146C632.75 174.137 633.24 174.627 633.24 175.231V178.596C633.24 179.201 632.75 179.69 632.146 179.69Z" fill="#E4E9F9"/>
<path d="M115.021 295.274H111.656C111.052 295.274 110.562 294.784 110.562 294.18V290.815C110.562 290.211 111.052 289.721 111.656 289.721H115.021C115.625 289.721 116.115 290.211 116.115 290.815V294.18C116.115 294.785 115.626 295.274 115.021 295.274Z" fill="#E4E9F9"/>
<path d="M109.17 90.7307H105.805C105.201 90.7307 104.711 90.2407 104.711 89.6367V86.2717C104.711 85.6677 105.201 85.1777 105.805 85.1777H109.17C109.774 85.1777 110.264 85.6677 110.264 86.2717V89.6367C110.264 90.2417 109.774 90.7307 109.17 90.7307Z" fill="#E4E9F9"/>
<path d="M540.836 51.0251H534.38C533.221 51.0251 532.281 50.0851 532.281 48.9261V42.4701C532.281 41.3111 533.221 40.3711 534.38 40.3711H540.836C541.995 40.3711 542.935 41.3111 542.935 42.4701V48.9261C542.935 50.0851 541.995 51.0251 540.836 51.0251Z" fill="#E4E9F9"/>
<path d="M480.584 211.996H477.219C476.615 211.996 476.125 211.506 476.125 210.902V207.537C476.125 206.933 476.615 206.443 477.219 206.443H480.584C481.188 206.443 481.678 206.933 481.678 207.537V210.902C481.678 211.506 481.188 211.996 480.584 211.996Z" fill="#E4E9F9"/>
<path d="M404.062 172.16C404.09 171.682 404.135 171.172 404.204 170.629C404.767 166.174 408.259 166.583 410.432 166.718C412.605 166.853 415.307 166.925 416.346 164.853C416.798 163.951 416.779 162.863 417.076 161.888C417.735 159.727 419.933 158.433 422.033 158.428C424.131 158.424 426.115 159.474 427.835 160.776C433.417 165.004 435.017 153.872 437.66 150.651C440.668 146.985 446.27 144.93 450.074 147.591C453.878 150.252 456.063 154.995 457.059 159.78C457.383 161.335 457.498 163.243 458.76 164.103C462.451 166.619 467.202 161.738 471.662 165.528C473.223 166.855 473.519 170.069 473.32 172.159H404.062V172.16Z" fill="white" stroke="#0A5840" stroke-opacity="0.6" stroke-miterlimit="10" stroke-linejoin="round"/>
<path d="M128.6 400.756C116.063 381.843 89.8145 334.058 112.565 317.612C125.058 308.581 141.619 316.798 149.626 336.714C157.23 355.627 160.139 377.969 163.308 400.489" fill="white"/>
<path d="M128.864 400.599C122.863 391.408 117.464 381.772 112.988 371.746C108.14 360.885 103.676 348.791 104.002 336.718C104.294 325.906 110.866 314.84 122.762 314.372C137.79 313.781 146.732 329.457 151.02 341.624C157.702 360.585 160.113 380.792 162.899 400.6C162.974 401.135 163.787 400.908 163.713 400.376C161.006 381.12 158.638 361.534 152.401 343.027C148.259 330.737 140.651 315.916 126.316 313.775C115.699 312.19 106.443 319.997 104.057 330.026C101.311 341.569 105.167 354.227 109.326 364.943C114.228 377.574 120.799 389.659 128.331 400.91C128.55 401.238 129.082 400.934 128.864 400.599Z" fill="#0A5840" fill-opacity="0.6"/>
<path d="M119.016 314.775L148.571 400.813" stroke="#0A5840" stroke-opacity="0.6" stroke-miterlimit="10" stroke-linejoin="round"/>
<path d="M78.3359 400.77C67.5199 386.779 43.8759 351.433 63.5029 339.268C74.2799 332.588 87.5669 338.666 94.4749 353.398C101.035 367.388 103.544 383.914 106.278 400.572" fill="white"/>
<path d="M78.5997 400.614C73.5867 394.012 68.9117 387.119 64.9317 379.841C60.6947 372.093 56.5457 363.298 56.3537 354.297C56.1627 345.356 62.1047 337.789 71.3417 337.022C82.9307 336.06 91.0687 346.426 95.1617 355.966C101.229 370.108 103.397 385.61 105.869 400.683C105.957 401.218 106.77 400.991 106.683 400.459C104.251 385.617 102.096 370.411 96.2747 356.433C92.3627 347.04 85.2487 337.153 74.2107 336.226C65.9827 335.535 57.8617 340.91 56.0507 349.073C54.1407 357.682 57.7637 366.98 61.4077 374.631C65.8797 384.02 71.7127 392.81 78.1147 400.987C78.3287 401.261 78.8117 400.894 78.5997 400.614Z" fill="#0A5840" fill-opacity="0.6"/>
<path d="M69.0625 337.17L94.5585 400.813" stroke="#0A5840" stroke-opacity="0.6" stroke-miterlimit="10" stroke-linejoin="round"/>
<path d="M204.81 400.572C175.175 346.814 156.035 293.517 179.947 268.198C203.642 243.111 228.426 272.839 234.456 299.183C241.841 331.447 242.912 366.372 242.766 400.572" fill="white"/>
<path d="M204.81 400.572C175.175 346.814 156.035 293.517 179.947 268.198C203.642 243.111 228.426 272.839 234.456 299.183C241.841 331.447 242.912 366.372 242.766 400.572" stroke="#0A5840" stroke-opacity="0.6" stroke-miterlimit="10" stroke-linejoin="round"/>
<path d="M188.719 261.666L224.318 400.493" stroke="#0A5840" stroke-opacity="0.6" stroke-miterlimit="10" stroke-linejoin="round"/>
<path d="M160.343 400.739C148.57 372.301 122.09 314.774 140.765 296.993C152.708 285.622 174.273 299.561 185.37 324.412C195.908 348.011 199.073 372.306 205.39 400.406" fill="white"/>
<path d="M160.642 400.658C155.053 386.992 149.16 373.457 144.248 359.524C139.318 345.539 134.389 330.404 134.69 315.402C134.801 309.891 135.765 304.024 139.102 299.48C142.938 294.256 149.117 292.394 155.311 293.975C162.583 295.831 168.752 301.042 173.604 306.566C180.212 314.09 184.648 323.034 188.183 332.335C196.522 354.278 199.878 377.712 204.986 400.519C205.105 401.049 205.918 400.825 205.8 400.295C200.935 378.565 197.666 356.297 190.161 335.253C184.542 319.496 175.556 301.476 159.238 294.478C153.988 292.227 147.839 291.657 142.843 294.863C138.351 297.746 135.828 302.697 134.736 307.791C133.377 314.126 133.833 320.771 134.772 327.13C135.956 335.146 138.07 343.014 140.505 350.731C145.905 367.847 153.109 384.296 160.05 400.823C160.198 401.182 160.793 401.027 160.642 400.658Z" fill="#0A5840" fill-opacity="0.6"/>
<path d="M390.026 400.581C380.038 286.135 404.349 244.324 430.943 242.448C443.542 241.559 480.445 248.813 435.889 400.511" fill="white"/>
<path d="M390.223 400.581C387.763 362.897 385.244 323.74 394.959 286.78C399.171 270.757 407.067 250.089 424.334 244.176C431.144 241.844 438.884 242.273 444.653 246.879C454.849 255.018 456.432 270.857 456.818 282.865C457.251 296.336 455.786 309.855 453.71 323.145C450.585 343.155 445.885 362.908 440.577 382.441C438.945 388.445 437.25 394.432 435.599 400.431C435.496 400.806 436.064 400.96 436.179 400.591C442.942 378.878 448.477 356.632 452.609 334.266C455.326 319.56 457.43 304.622 457.648 289.646C457.781 280.536 457.282 271.179 454.74 262.379C453.243 257.196 450.943 252.039 447.145 248.12C442.254 243.073 435.423 241.255 428.589 242.338C411.892 244.985 402.446 262.041 397.329 276.497C392.523 290.075 390.19 304.48 388.838 318.776C386.858 339.715 387.107 360.845 388.347 381.82C388.717 388.082 389.158 394.342 389.831 400.579C389.858 400.825 390.239 400.835 390.223 400.581Z" fill="#0A5840" fill-opacity="0.6"/>
<path d="M436.124 242.713L412.625 400.512" stroke="#0A5840" stroke-opacity="0.6" stroke-miterlimit="10" stroke-linejoin="round"/>
<path d="M468.641 400.589C476.788 332.566 504.23 293.363 529.022 304.004C549.302 312.709 538.838 350.576 507.246 400.548" fill="white"/>
<path d="M468.829 400.641C471.901 380.598 475.475 360.757 483.214 341.897C488.341 329.4 495.338 315.925 506.544 307.807C514.132 302.31 524.891 300.31 532.707 306.641C541.823 314.025 539.337 328.599 536.779 338.412C530.964 360.727 518.682 380.782 506.987 400.395C506.787 400.731 507.294 401.018 507.506 400.699C514.3 390.5 520.349 379.712 525.761 368.72C529.98 360.151 533.808 351.32 536.544 342.157C539.582 331.983 542.944 317.403 535.422 308.264C529.396 300.942 518.491 300.483 510.504 304.499C499.068 310.249 491.515 322.502 486.124 333.618C481.556 343.035 478.13 352.991 475.41 363.087C472.115 375.317 469.575 387.964 468.446 400.588C468.426 400.806 468.795 400.859 468.829 400.641Z" fill="#0A5840" fill-opacity="0.6"/>
<path d="M529.02 304.004L488.453 400.548" stroke="#0A5840" stroke-opacity="0.6" stroke-miterlimit="10" stroke-linejoin="round"/>
<path d="M147.219 293.457L183.457 400.814" stroke="#0A5840" stroke-opacity="0.6" stroke-miterlimit="10" stroke-linejoin="round"/>
<path d="M471.662 400.715C487.686 366.747 520 289.187 495.664 261.687C482.301 246.586 457.843 265.128 444.871 298.43C432.553 330.054 423.332 362.612 415.688 400.269" fill="white"/>
<path d="M471.932 400.872C480.325 383.225 487.867 365.105 493.955 346.529C500.227 327.391 505.957 306.628 504.681 286.292C503.898 273.822 497.978 253.601 481.669 256.196C472.839 257.601 465.436 264.541 459.963 271.153C451.926 280.863 446.731 292.204 442.322 303.91C430.552 335.16 421.939 367.459 415.283 400.158C415.175 400.688 415.988 400.915 416.097 400.382C421.785 372.445 428.866 344.781 438.196 317.826C442.542 305.27 446.895 292.47 453.896 281.102C459.181 272.521 466.132 263.782 475.323 259.163C482.453 255.58 490.269 256.015 495.675 262.295C500.75 268.19 502.912 276.06 503.686 283.654C505.654 302.958 500.516 322.919 494.853 341.211C488.558 361.545 480.398 381.285 471.399 400.561C471.232 400.917 471.761 401.232 471.932 400.872Z" fill="#0A5840" fill-opacity="0.6"/>
<path d="M488.457 256.945L445.609 400.812" stroke="#0A5840" stroke-opacity="0.6" stroke-miterlimit="10" stroke-linejoin="round"/>
<path d="M499.953 400.588C521.077 357.767 539.409 346.441 556.63 349.863C570.018 352.524 572.113 372.302 543.814 400.562" fill="white"/>
<path d="M500.122 400.686C506.663 389.034 512.574 377.195 521.272 366.927C526.644 360.586 533.074 354.556 540.961 351.551C546.458 349.456 553.706 348.611 559.25 351.078C565.427 353.827 566.458 360.866 565.236 366.853C562.526 380.13 552.422 390.731 543.601 400.349C543.339 400.635 543.742 401.038 544.026 400.774C553.016 392.445 561.979 381.405 565.413 369.408C567.09 363.551 567.325 356.099 562.099 351.913C557.549 348.268 550.264 348.382 544.865 349.585C537.011 351.335 530.299 356.341 524.765 361.993C520.308 366.544 516.449 371.673 512.932 376.973C508.007 384.395 503.327 392.308 499.784 400.489C499.688 400.713 499.996 400.911 500.122 400.686Z" fill="#0A5840" fill-opacity="0.6"/>
<path d="M554.976 350.15L522.703 400.56" stroke="#0A5840" stroke-opacity="0.6" stroke-miterlimit="10" stroke-linejoin="round"/>
<path d="M237.142 400.363C231.997 400.363 227.812 396.177 227.812 391.032V60.5634C227.812 55.4184 231.997 51.2324 237.142 51.2324H412.647C417.792 51.2324 421.978 55.4184 421.978 60.5634V391.031C421.978 396.177 417.792 400.362 412.647 400.362H237.142V400.363Z" fill="#1E5947"/>
<path d="M412.648 51.7324C417.517 51.7324 421.479 55.6944 421.479 60.5634V391.031C421.479 395.9 417.517 399.862 412.648 399.862H237.143C232.274 399.862 228.312 395.901 228.312 391.031V60.5634C228.312 55.6944 232.273 51.7324 237.143 51.7324H412.648ZM412.648 50.7324H237.143C231.714 50.7324 227.312 55.1334 227.312 60.5634V391.031C227.312 396.46 231.713 400.862 237.143 400.862H412.648C418.077 400.862 422.479 396.461 422.479 391.031V60.5634C422.479 55.1344 418.077 50.7324 412.648 50.7324Z" fill="#1E5947"/>
<path d="M333.809 384.803C333.809 389.727 329.817 393.719 324.893 393.719C319.969 393.719 315.977 389.727 315.977 384.803C315.977 379.879 319.969 375.887 324.893 375.887C329.817 375.887 333.809 379.879 333.809 384.803Z" stroke="#073124" stroke-miterlimit="10"/>
<mask id="mask0_4224_17467" style="mask-type:luminance" maskUnits="userSpaceOnUse" x="227" y="50" width="196" height="351">
<path d="M412.648 400.862H237.143C231.714 400.862 227.312 396.461 227.312 391.031V60.5634C227.312 55.1344 231.713 50.7324 237.143 50.7324H412.648C418.078 50.7324 422.479 55.1334 422.479 60.5634V391.031C422.479 396.461 418.077 400.862 412.648 400.862Z" fill="white"/>
</mask>
<g mask="url(#mask0_4224_17467)">
<path d="M371.127 12.7969L225.078 409.692H267.53L413.578 12.7969H371.127Z" fill="url(#paint0_linear_4224_17467)"/>
<path d="M426.705 12.7969L280.656 409.692H298.655L444.703 12.7969H426.705Z" fill="url(#paint1_linear_4224_17467)"/>
</g>
<path d="M420.921 83.3418H228.867V368.253H420.921V83.3418Z" fill="white"/>
<path d="M313.911 65.2578H340.958C341.556 65.2578 342.041 65.7428 342.041 66.3408C342.041 66.9388 341.556 67.4238 340.958 67.4238H313.911C313.313 67.4238 312.828 66.9388 312.828 66.3408C312.828 65.7428 313.313 65.2578 313.911 65.2578Z" stroke="#073124" stroke-miterlimit="10"/>
<path d="M307.859 67.4586C308.476 67.4586 308.976 66.9585 308.976 66.3416C308.976 65.7247 308.476 65.2246 307.859 65.2246C307.242 65.2246 306.742 65.7247 306.742 66.3416C306.742 66.9585 307.242 67.4586 307.859 67.4586Z" stroke="#073124" stroke-miterlimit="10"/>
<path d="M324.896 193.676H241.992V277.453H324.896V193.676Z" fill="#D3DBF4"/>
<path d="M300.373 226.259C301.883 216.9 295.521 208.09 286.163 206.58C276.805 205.07 267.994 211.432 266.484 220.79C264.974 230.148 271.336 238.959 280.694 240.469C290.052 241.979 298.863 235.617 300.373 226.259Z" stroke="white" stroke-miterlimit="10"/>
<path d="M283.449 240.687C289.979 240.687 295.273 233.003 295.273 223.523C295.273 214.044 289.979 206.359 283.449 206.359C276.919 206.359 271.625 214.044 271.625 223.523C271.625 233.003 276.919 240.687 283.449 240.687Z" stroke="white" stroke-miterlimit="10"/>
<path d="M283.45 240.687C285.994 240.687 288.056 233.003 288.056 223.523C288.056 214.044 285.994 206.359 283.45 206.359C280.906 206.359 278.844 214.044 278.844 223.523C278.844 233.003 280.906 240.687 283.45 240.687Z" stroke="white" stroke-miterlimit="10"/>
<path d="M266.281 223.523H300.608" stroke="white" stroke-miterlimit="10"/>
<path d="M268.078 231.175C271.358 230.079 277.015 229.355 283.444 229.355C289.871 229.355 295.527 230.078 298.807 231.174" stroke="white" stroke-miterlimit="10"/>
<path d="M273.062 237.187C276.016 236.065 279.593 235.408 283.449 235.408C287.252 235.408 290.785 236.047 293.715 237.142" stroke="white" stroke-miterlimit="10"/>
<path d="M268.078 215.967C271.358 217.063 277.015 217.787 283.444 217.787C289.871 217.787 295.527 217.064 298.807 215.968" stroke="white" stroke-miterlimit="10"/>
<path d="M273.062 209.953C276.016 211.076 279.593 211.732 283.449 211.732C287.252 211.732 290.785 211.093 293.715 209.998" stroke="white" stroke-miterlimit="10"/>
<path d="M249.044 262.475H317.844V258.044H249.044V262.475Z" fill="#E3EAFC"/>
<path d="M276.728 254.236H317.844V249.805H276.728V254.236Z" fill="#E3EAFC"/>
<path d="M272.05 249.805H249.039V254.236H272.05V249.805Z" fill="#E3EAFC"/>
<path d="M249.044 270.715H317.844V266.284H249.044V270.715Z" fill="#E3EAFC"/>
<path d="M407.716 193.676H324.812V277.453H407.716V193.676Z" fill="#F0F1FF"/>
<path d="M331.864 213.039H400.664V208.608H331.864V213.039Z" fill="#E4E9F9"/>
<path d="M331.864 221.279H400.664V216.848H331.864V221.279Z" fill="#E4E9F9"/>
<path d="M331.865 229.518H353.289V225.087H331.865V229.518Z" fill="#E4E9F9"/>
<path d="M359.018 229.518H400.57V225.087H359.018V229.518Z" fill="#E4E9F9"/>
<path d="M331.864 237.758H400.664V233.327H331.864V237.758Z" fill="#E4E9F9"/>
<path d="M331.864 245.998H400.664V241.567H331.864V245.998Z" fill="#E4E9F9"/>
<path d="M331.864 254.236H400.664V249.805H331.864V254.236Z" fill="#E4E9F9"/>
<path d="M380.797 262.477H400.664V258.046H380.797V262.477Z" fill="#E4E9F9"/>
<path d="M331.865 262.477H376.055V258.046H331.865V262.477Z" fill="#E4E9F9"/>
<path d="M331.864 270.715H400.664V266.284H331.864V270.715Z" fill="#E4E9F9"/>
<path d="M382.442 204.801H400.664V200.37H382.442V204.801Z" fill="#E4E9F9"/>
<path d="M377.765 200.369H331.859V204.8H377.765V200.369Z" fill="#E4E9F9"/>
<path d="M324.896 277.451H241.992V361.228H324.896V277.451Z" fill="#F0F1FF"/>
<path d="M317.847 341.842H249.047V346.273H317.847V341.842Z" fill="#E4E9F9"/>
<path d="M317.847 333.602H249.047V338.033H317.847V333.602Z" fill="#E4E9F9"/>
<path d="M317.849 325.363H300.156V329.794H317.849V325.363Z" fill="#E4E9F9"/>
<path d="M294.424 325.363H249.141V329.794H294.424V325.363Z" fill="#E4E9F9"/>
<path d="M317.847 317.125H249.047V321.556H317.847V317.125Z" fill="#E4E9F9"/>
<path d="M317.847 308.885H249.047V313.316H317.847V308.885Z" fill="#E4E9F9"/>
<path d="M317.847 300.645H249.047V305.076H317.847V300.645Z" fill="#E4E9F9"/>
<path d="M281.015 292.404H249.047V296.835H281.015V292.404Z" fill="#E4E9F9"/>
<path d="M317.847 292.404H285.758V296.835H317.847V292.404Z" fill="#E4E9F9"/>
<path d="M317.847 284.166H249.047V288.597H317.847V284.166Z" fill="#E4E9F9"/>
<path d="M281.111 350.08H249.047V354.511H281.111V350.08Z" fill="#E4E9F9"/>
<path d="M285.78 354.512H317.844V350.081H285.78V354.512Z" fill="#E4E9F9"/>
<path d="M407.716 277.451H324.812V361.228H407.716V277.451Z" fill="#D3DBF4"/>
<path d="M383.128 335.11L349.871 334.716L346.148 310.817L386.338 310.746L383.128 335.11Z" fill="#0A5840" fill-opacity="0.6"/>
<path d="M386.338 310.746L346.148 310.817L366.214 294.26L386.338 310.746Z" fill="#0A5840" fill-opacity="0.6"/>
<path d="M379.671 308.382L352.242 308.432L352.284 331.601L379.713 331.551L379.671 308.382Z" fill="white"/>
<path d="M346.148 310.816L346.194 336.946L366.267 324.768L346.148 310.816Z" fill="#E3EAFC"/>
<path d="M386.337 310.746L386.384 336.876L366.266 324.769L386.337 310.746Z" fill="#E3EAFC"/>
<path d="M386.386 336.877L346.195 336.948L366.261 320.391L386.386 336.877Z" fill="#E3EAFC"/>
<path d="M346.195 336.948L366.261 320.391L386.386 336.877" stroke="#D3DBF4" stroke-miterlimit="10"/>
<path d="M369.148 322.756L386.337 310.746" stroke="#D3DBF4" stroke-miterlimit="10"/>
<path d="M363.382 322.768L346.148 310.816" stroke="#D3DBF4" stroke-miterlimit="10"/>
<path d="M350.233 351.361H382.297V346.93H350.233V351.361Z" fill="#E3EAFC"/>
<path d="M407.801 102.656H241.992V186.244H407.801V102.656Z" fill="#D3DBF4"/>
<path d="M322.562 120.459L400.664 120.459V114.676L322.562 114.676V120.459Z" fill="#E3EAFC"/>
<path d="M322.562 131.213H400.664V125.43L322.562 125.43V131.213Z" fill="#E3EAFC"/>
<path d="M322.562 141.965H400.664V136.182H322.562V141.965Z" fill="#E3EAFC"/>
<path d="M322.562 152.719H400.664V146.936H322.562V152.719Z" fill="#E3EAFC"/>
<path d="M322.562 174.225H400.664V168.442H322.562V174.225Z" fill="#E3EAFC"/>
<path d="M353.989 163.473H400.664V157.69H353.989V163.473Z" fill="#E3EAFC"/>
<path d="M348.685 157.689H322.562V163.472H348.685V157.689Z" fill="#E3EAFC"/>
<path d="M310.577 114.912H251.5V173.989H310.577V114.912Z" fill="#E3EAFC"/>
<path d="M286.517 133.381L304.495 164.128H268.539L286.517 133.381Z" fill="white"/>
<path d="M268.302 143.484L272.14 150.879L265.263 164.127H257.586L268.302 143.484Z" fill="white"/>
<path d="M259.094 131.601C259.094 133.44 260.585 134.931 262.424 134.931C264.263 134.931 265.754 133.44 265.754 131.601C265.754 129.762 264.263 128.271 262.424 128.271C260.584 128.271 259.094 129.762 259.094 131.601Z" fill="white"/>
<path d="M278.137 95.82H371.66C373.129 95.82 374.32 94.629 374.32 93.16C374.32 91.691 373.129 90.5 371.66 90.5H278.137C276.668 90.5 275.477 91.691 275.477 93.16C275.477 94.629 276.668 95.82 278.137 95.82Z" fill="#D3DBF4"/>
<path d="M324.898 193.676V361.229" stroke="white" stroke-miterlimit="10"/>
<path d="M241.992 277.451H407.8" stroke="white" stroke-miterlimit="10"/>
<path d="M46.1172 400.863H603.665" stroke="#1E5947" stroke-miterlimit="10"/>
<path d="M572.947 373.03L574.684 401.572L573.756 410.549L539.728 410.369C538.869 410.365 538.176 409.664 538.18 408.805C538.183 408.161 538.583 407.586 539.184 407.358L554.364 400.378L550.937 370.68" fill="#FFCBBD"/>
<path d="M536.64 409.989C537 408.862 537.66 407.595 538.326 407.309L554.421 400.377C563.292 403.973 574.776 401.225 574.776 401.225L575.656 413.343C575.654 413.744 575.327 414.067 574.926 414.065L536.909 413.865C536.121 413.86 536.628 410.024 536.64 409.989Z" fill="#F7471E"/>
<path d="M550.938 401.072C551.84 402.247 552.602 403.529 553.206 404.882" stroke="#B22B19" stroke-width="0.75" stroke-miterlimit="10"/>
<path d="M548.914 402.283C549.848 403.577 550.221 404.323 550.779 405.523" stroke="#B22B19" stroke-width="0.75" stroke-miterlimit="10"/>
<path d="M547.195 403.166C547.829 404.019 548.452 405.198 548.944 406.139" stroke="#B22B19" stroke-width="0.75" stroke-miterlimit="10"/>
<path d="M575.452 411.45L536.477 411.244" stroke="#B22B19" stroke-width="0.75" stroke-miterlimit="10"/>
<path d="M575.094 405.65C575.094 405.65 566.069 405.713 565.258 411.395" stroke="#B22B19" stroke-width="0.75" stroke-miterlimit="10"/>
<path d="M541.625 405.889C541.625 405.889 544.225 409.584 544.738 411.288" stroke="#B22B19" stroke-width="0.75" stroke-miterlimit="10"/>
<path d="M546.212 263.346C546.212 263.346 541.322 303.514 543.192 332.684C545.063 361.854 547.763 395.7 547.763 395.7H577.341C577.341 395.7 573.507 345.615 573.93 322.166C574.398 296.188 582.339 263.347 582.339 263.347" fill="#0A5840"/>
<path d="M571.342 395.701C571.342 395.701 567.508 345.616 567.931 322.167C568.399 296.189 576.34 263.348 576.34 263.348" stroke="#0A5840" stroke-width="0.75" stroke-miterlimit="10"/>
<path d="M611.813 334.805L639.246 343.629L647.522 347.229L637.058 379.609C636.794 380.427 635.917 380.875 635.099 380.611C634.486 380.413 634.059 379.858 634.023 379.216L631.961 362.636L603.477 353.381" fill="#FFCBBD"/>
<path d="M635.761 382.438C634.795 381.754 633.788 380.742 633.716 380.021L631.977 362.582C638.088 355.214 638.942 343.438 638.942 343.438L650.758 346.263C651.139 346.386 651.349 346.796 651.226 347.177L639.536 383.353C639.294 384.103 635.791 382.459 635.761 382.438Z" fill="#F7471E"/>
<path d="M631.586 366.112C632.979 365.608 634.432 365.269 635.904 365.102" stroke="#B22B19" stroke-width="0.75" stroke-miterlimit="10"/>
<path d="M632.125 368.409C633.641 367.91 634.465 367.78 635.777 367.611" stroke="#B22B19" stroke-width="0.75" stroke-miterlimit="10"/>
<path d="M632.453 370.309C633.457 369.962 634.77 369.726 635.816 369.541" stroke="#B22B19" stroke-width="0.75" stroke-miterlimit="10"/>
<path d="M648.891 345.887L636.906 382.974" stroke="#B22B19" stroke-width="0.75" stroke-miterlimit="10"/>
<path d="M643.259 344.467C643.259 344.467 640.589 353.089 645.76 355.58" stroke="#B22B19" stroke-width="0.75" stroke-miterlimit="10"/>
<path d="M633.359 376.444C633.359 376.444 637.667 375.083 639.446 375.11" stroke="#B22B19" stroke-width="0.75" stroke-miterlimit="10"/>
<path d="M594.368 264.643C594.368 264.643 597.024 276.061 597.024 280.961C597.024 284.56 595.591 287.007 594.83 289.646C594.505 290.773 594.318 291.922 594.267 293.094C594.039 298.346 593.733 313.088 597.024 320.092C601.069 328.7 634.709 340.128 634.709 340.128L626.178 365.817C626.178 365.817 574.682 352.877 568.26 337.115C559.299 315.122 561.863 264.644 561.863 264.644" fill="#0A5840"/>
<path d="M574.471 344.471C571.5 342.12 569.295 339.653 568.26 337.114C559.299 315.121 561.863 264.643 561.863 264.643" stroke="#0A5840" stroke-width="0.75" stroke-miterlimit="10"/>
<path d="M590 263.688C590 263.688 593.023 278.061 593.023 282.961C593.023 286.626 591.537 289.208 590.788 291.788C590.485 292.832 590.305 293.901 590.238 294.986C589.916 300.171 589.351 315.209 593.023 322.091C598.115 331.633 633.357 344.194 633.357 344.194" stroke="#0A5840" stroke-width="0.75" stroke-miterlimit="10"/>
<path d="M557.66 267.451C557.66 267.451 557.209 277.818 558.66 279.062C560.111 280.306 561.525 281.136 561.525 281.136" stroke="#0A5840" stroke-width="0.75" stroke-miterlimit="10"/>
<path d="M630.466 338.605L621.078 364.429" stroke="#0A5840" stroke-width="0.75" stroke-miterlimit="10"/>
<path d="M547.359 390.613H576.964" stroke="#0A5840" stroke-width="0.75" stroke-miterlimit="10"/>
<path d="M581.891 265.436C581.891 265.436 583.736 272.053 591.951 274.003" stroke="#0A5840" stroke-width="0.75" stroke-miterlimit="10"/>
<path d="M545.258 272.847C545.258 272.847 552.68 270.678 554.961 265.436" stroke="#0A5840" stroke-width="0.75" stroke-miterlimit="10"/>
<path d="M563.155 185.326L561.828 194.634C561.828 194.634 561.711 197.213 566.725 199.008C572.8 201.183 576.488 196.507 576.488 196.507L576.084 187.092" fill="#FFCBBB"/>
<path d="M562.412 172.987C562.412 172.987 555.963 183.768 560.442 188.077C564.504 191.985 573.436 189.536 574.249 188.171C575.062 186.806 580.146 174.757 577.364 173.1C572.419 170.154 565.174 168.351 562.412 172.987Z" fill="#FFCBBB"/>
<path d="M562.477 190.091C562.477 190.091 566.848 191.493 570.886 189.729" stroke="#EF977F" stroke-miterlimit="10"/>
<path d="M561.336 165.982C562.183 159.614 569.901 164.378 573.042 167.287C573.985 168.16 579.492 169.778 580.388 170.7C581.284 171.621 582.008 172.753 582.244 174.016C582.45 175.123 582.273 176.267 582.004 177.36C581.521 179.326 580.746 181.207 579.974 183.079C579.133 185.12 577.627 189.18 574.717 188.755C574.154 188.673 573.539 188.563 573.169 188.131C572.804 187.704 572.786 187.083 572.849 186.524C572.952 185.613 573.23 184.725 573.649 183.91C573.045 184.072 572.426 184.435 571.848 184.206C571.657 184.13 571.563 183.944 571.456 183.769C571.073 183.147 571.537 179.031 573.454 177.409C570.685 176.098 568.518 175.978 565.694 174.79C563.422 173.834 562.443 172.671 561.63 171.581C560.468 170.021 561.08 167.91 561.336 165.982Z" fill="#4A1A1A"/>
<path d="M572.963 183.536C573.668 182.546 574.758 181.411 575.795 182.444C576.162 182.809 576.267 183.428 576.305 184.012C576.43 185.954 574.468 188.434 572.753 187.753C571.917 187.421 571.682 186.279 571.531 185.348" fill="#FFCBBB"/>
<path d="M563.84 177.746C563.84 177.746 561.048 180.485 561.047 181.419C561.046 182.353 563.141 182.929 563.141 182.929" stroke="#F7A794" stroke-width="0.5" stroke-miterlimit="10"/>
<path d="M559.992 183.258L564.993 185.126C564.993 185.126 563.829 188.09 560.832 186.73C558.693 185.76 559.992 183.258 559.992 183.258Z" fill="white"/>
<path d="M561.721 176.216C561.568 176.434 561.43 176.661 561.302 176.895C561.057 177.342 561.75 177.743 561.983 177.293C562.12 177.028 562.242 176.759 562.35 176.481C562.499 176.095 561.93 175.919 561.721 176.216Z" fill="#212237"/>
<path d="M563.863 175.266C563.863 175.266 563.24 173.875 561.75 174.528" stroke="#212237" stroke-width="0.5" stroke-miterlimit="10" stroke-linecap="round" stroke-linejoin="round"/>
<path d="M567.96 179.219C567.82 179.445 567.696 179.678 567.581 179.918C567.363 180.377 568.057 180.776 568.262 180.316C568.384 180.043 568.496 179.768 568.588 179.483C568.71 179.104 568.161 178.895 567.96 179.219Z" fill="#212237"/>
<path d="M568.164 176.918C568.164 176.918 569.685 176.748 570.783 178.745" stroke="#212237" stroke-width="0.5" stroke-miterlimit="10" stroke-linecap="round" stroke-linejoin="round"/>
<path d="M541.528 144.583C541.116 139.174 541.846 123.865 540.897 123.461C539.948 123.058 539.558 128.244 538.841 127.767C538.124 127.291 538.183 119.271 537.128 119.121C535.698 118.918 536.076 127.135 536.076 127.135C536.076 127.135 535.212 118.156 533.921 118.339C533.006 118.469 533.35 125.352 533.152 127.999C533.002 125.103 532.153 119.714 531.206 119.868C530.267 120.022 530.451 125.438 530.362 129.038C530.207 126.786 529.755 121.867 528.874 121.969C527.995 122.07 527.728 134.859 527.711 145.637" fill="#FFCBBD"/>
<path d="M540.164 198.738C540.164 198.738 534.359 186.582 530.726 172.404C527.093 158.226 527.731 139.795 527.731 139.795L541.371 142.09C541.371 142.09 541.992 167.816 557.522 193.364" fill="#FFCBBD"/>
<path d="M530.547 129.648C531.668 131.355 533.159 133.365 533.086 136.708" stroke="#F7A794" stroke-miterlimit="10"/>
<path d="M538.726 128.998C537.413 130.167 535.993 133.319 536.679 134.937" stroke="#F7A794" stroke-miterlimit="10"/>
<path d="M585.427 141.972C587.421 139.631 589.183 137.031 590.642 134.172C592.1 131.313 593.171 128.359 593.895 125.371L585.814 122.635C586.418 119.848 586.626 117.028 586.471 114.247L594.892 112.814C594.39 106.542 592.416 100.459 589.14 95.087L581.482 98.871C579.975 96.529 578.151 94.369 576.026 92.467L580.961 85.508C578.62 83.514 576.02 81.751 573.161 80.293C570.302 78.835 567.348 77.764 564.36 77.04L561.624 85.121C558.837 84.517 556.018 84.309 553.236 84.464L551.803 76.043C545.531 76.545 539.448 78.519 534.076 81.795L537.86 89.453C535.518 90.96 533.358 92.784 531.456 94.909L524.496 89.974C522.502 92.315 520.739 94.915 519.281 97.775C517.823 100.634 516.752 103.588 516.028 106.576L524.109 109.312C523.506 112.099 523.297 114.919 523.452 117.7L515.031 119.133C515.533 125.405 517.507 131.488 520.783 136.86L528.441 133.076C529.949 135.418 531.772 137.579 533.897 139.48L528.962 146.44C531.303 148.434 533.903 150.197 536.762 151.655C539.621 153.113 542.575 154.184 545.563 154.908L548.299 146.827C551.086 147.431 553.906 147.639 556.687 147.484L558.12 155.905C564.392 155.403 570.476 153.429 575.847 150.153L572.063 142.495C574.405 140.988 576.566 139.164 578.467 137.039L585.427 141.972ZM547.979 129.662C540.419 125.806 537.416 116.552 541.272 108.991C545.128 101.431 554.383 98.428 561.943 102.284C569.503 106.14 572.506 115.395 568.65 122.955C564.794 130.515 555.539 133.518 547.979 129.662Z" fill="#0A5840" fill-opacity="0.6"/>
<path d="M562.015 193.317C557.955 193.317 551.625 180.338 551.625 180.338L535.328 192.456C535.328 192.456 540.539 208.662 549.373 218.939" fill="#F7471E"/>
<path d="M552.985 182.93L536.375 195.404" stroke="#B22B19" stroke-width="0.75" stroke-miterlimit="10"/>
<path d="M604.179 137.96C603.308 132.009 601.044 117.991 600.039 117.76C599.034 117.53 598.624 120.871 599.03 122.232C598.393 119.684 596.633 114.11 595.568 114.147C594.124 114.198 595.936 122.221 595.936 122.221C595.936 122.221 593.513 113.532 592.273 113.938C591.395 114.226 592.939 120.942 593.207 123.583C592.553 120.758 590.773 115.601 589.867 115.918C588.969 116.234 590.099 121.534 590.642 125.094C590.095 122.904 588.789 118.14 587.939 118.395C587.091 118.648 589.301 129.647 590.615 140.616" fill="#FFCBBD"/>
<path d="M601.362 193.909C601.362 193.909 604.971 180.931 606.091 166.337C607.211 151.744 603.387 133.703 603.387 133.703L590.352 138.328C590.352 138.328 594.201 163.772 583.336 191.626" fill="#FFCBBD"/>
<path d="M562.016 193.316C562.016 193.316 562.806 195.599 567.303 195.829C573.093 196.125 576.314 193.316 576.314 193.316C576.314 193.316 593.576 195.607 594.971 214.466C596.577 236.186 597.021 266.696 597.021 266.696H543.188C543.188 266.696 543.548 231.854 544.682 215.231C545.769 199.3 562.016 193.316 562.016 193.316Z" fill="#F7471E"/>
<path d="M594.933 216.847C601.421 199.972 603.731 187.088 603.731 187.088L586.446 178.723C586.446 178.723 582.332 190.194 576.312 193.317" fill="#F7471E"/>
<path d="M585.055 182.035L602.992 190.618" stroke="#B22B19" stroke-width="0.75" stroke-miterlimit="10"/>
<path d="M543.188 263.717H596.969" stroke="#B22B19" stroke-width="0.75" stroke-miterlimit="10"/>
<path d="M595.407 215.609C595.407 215.609 593.219 220.298 592.984 222.655" stroke="#B22B19" stroke-width="0.75" stroke-miterlimit="10"/>
<path d="M548.671 203.211C548.671 203.211 545.405 208.75 544.68 215.231" stroke="#B22B19" stroke-width="0.75" stroke-miterlimit="10"/>
<path d="M559.969 192.455C559.969 192.455 560.893 198.737 567.893 198.737C576.489 198.737 578.191 192.455 578.191 192.455" stroke="#B22B19" stroke-width="0.75" stroke-miterlimit="10"/>
<path d="M599.025 122.232C599.02 122.174 599.102 122.333 599.131 122.391L599.259 122.631L599.477 123.121C599.623 123.447 599.733 123.784 599.845 124.12C600.05 124.799 600.219 125.483 600.285 126.214C600.06 125.919 599.901 125.594 599.75 125.269C599.595 124.945 599.48 124.607 599.368 124.269C599.267 123.927 599.169 123.585 599.11 123.231L599.024 122.7L599.003 122.428L598.994 122.291C598.987 122.267 599.006 122.123 599.025 122.232Z" fill="#EF977F"/>
<path d="M471.692 371.479L472.631 401.098L471.668 410.414L436.356 410.228C435.464 410.224 434.745 409.496 434.75 408.605C434.753 407.937 435.168 407.34 435.792 407.103L451.545 399.86L449.166 369.041" fill="#FFCBBD"/>
<path d="M433.154 409.834C433.527 408.664 434.213 407.35 434.903 407.053L451.606 399.859C460.812 403.591 472.729 400.739 472.729 400.739L473.642 413.314C473.64 413.73 473.301 414.066 472.884 414.064L433.433 413.856C432.616 413.851 433.142 409.871 433.154 409.834Z" fill="#032B1F"/>
<path d="M447.992 400.578C448.928 401.798 449.72 403.128 450.347 404.532" stroke="#0A5840" stroke-width="0.75" stroke-miterlimit="10"/>
<path d="M445.891 401.836C446.861 403.178 447.248 403.953 447.827 405.198" stroke="#0A5840" stroke-width="0.75" stroke-miterlimit="10"/>
<path d="M444.109 402.754C444.767 403.639 445.413 404.862 445.924 405.839" stroke="#0A5840" stroke-width="0.75" stroke-miterlimit="10"/>
<path d="M473.43 411.35L432.984 411.137" stroke="#0A5840" stroke-width="0.75" stroke-miterlimit="10"/>
<path d="M473.06 405.332C473.06 405.332 463.694 405.398 462.852 411.294" stroke="#0A5840" stroke-width="0.75" stroke-miterlimit="10"/>
<path d="M438.328 405.578C438.328 405.578 441.026 409.413 441.558 411.181" stroke="#0A5840" stroke-width="0.75" stroke-miterlimit="10"/>
<path d="M467.599 255.097C467.599 255.097 471.896 262.332 473.138 267.73C475.109 276.305 473.134 285.091 473.134 285.091L473.047 388.632H446.832C446.832 388.632 441.015 269.308 443.6 253.881" fill="#062F22"/>
<path d="M450.832 388.63C450.832 388.63 445.015 269.306 447.6 253.879" stroke="#0A5840" stroke-width="0.75" stroke-miterlimit="10"/>
<path d="M442.74 359.816L454.651 386.951L457.23 395.954L424.393 408.943C423.564 409.271 422.626 408.865 422.298 408.035C422.052 407.414 422.214 406.705 422.706 406.253L434.624 393.66L420.93 365.949" fill="#FFCBBD"/>
<path d="M421.275 409.773C421.185 408.548 421.332 407.074 421.862 406.54L434.68 393.639C444.614 393.671 454.609 386.582 454.609 386.582L460.144 397.911C460.297 398.298 460.107 398.736 459.72 398.889L423.034 413.401C422.273 413.701 421.278 409.811 421.275 409.773Z" fill="#0A5840"/>
<path d="M431.594 395.656C432.917 396.439 434.148 397.379 435.253 398.447" stroke="#0A5840" stroke-width="0.75" stroke-miterlimit="10"/>
<path d="M430.109 397.605C431.509 398.489 432.157 399.064 433.158 400.003" stroke="#0A5840" stroke-width="0.75" stroke-miterlimit="10"/>
<path d="M428.797 399.119C429.738 399.695 430.793 400.589 431.631 401.305" stroke="#0A5840" stroke-width="0.75" stroke-miterlimit="10"/>
<path d="M459.213 396.168L421.602 411.045" stroke="#0A5840" stroke-width="0.75" stroke-miterlimit="10"/>
<path d="M456.625 390.721C456.625 390.721 447.958 394.273 449.375 400.058" stroke="#0A5840" stroke-width="0.75" stroke-miterlimit="10"/>
<path d="M424.484 403.896C424.484 403.896 428.417 406.448 429.57 407.891" stroke="#0A5840" stroke-width="0.75" stroke-miterlimit="10"/>
<path d="M422.398 271.97C408.927 305.076 408.686 308.582 406.467 324.738C404.191 341.315 429.101 390.125 429.101 390.125L453.001 379.572C453.001 379.572 437.147 334.911 438.173 327.231C440.06 313.104 456.367 288.997 456.367 288.997C456.367 288.997 464.109 282.867 465.792 274.726C467.475 266.584 463.772 258.057 463.772 258.057" fill="#0A5840"/>
<path d="M446.969 275.873C447.319 275.756 457.7 272.49 457.7 272.49" stroke="#0A5840" stroke-width="0.75" stroke-miterlimit="10"/>
<path d="M469.859 269.458L473.273 268.373" stroke="#0A5840" stroke-width="0.75" stroke-miterlimit="10"/>
<path d="M430.394 270.971C430.394 270.971 413.74 307.162 411.463 323.739C409.187 340.316 433.415 387.769 433.415 387.769" stroke="#0A5840" stroke-width="0.75" stroke-miterlimit="10"/>
<path d="M443.719 311.321C448.893 299.943 456.369 288.998 456.369 288.998C456.369 288.998 464.111 282.868 465.794 274.727" stroke="#0A5840" stroke-width="0.75" stroke-miterlimit="10"/>
<path d="M420.133 190.043L426.986 201.969C426.986 201.969 422.878 210.855 411.775 206.638L408.93 200.337L420.133 190.043Z" fill="#FFCBBD"/>
<path d="M401.925 181.974C401.925 181.974 398.552 197.837 404.425 200.666C407.478 202.136 416.018 201.227 418.034 197.971C419.53 195.555 418.943 184.116 417.111 182.729C410.113 177.425 401.925 181.974 401.925 181.974Z" fill="#FFCBBD"/>
<path d="M416.795 177.275C414.228 172.791 409 173.685 400.503 178.521C399.366 179.168 396.888 179.401 396.86 180.709C396.823 182.429 398.062 185.261 400.051 185.83C401.379 186.21 402.082 186.087 403.427 185.774C405.196 185.363 407.557 186.077 407.532 188.154C407.525 188.698 407.366 189.694 407.874 189.889C408.131 189.988 408.794 189.91 409.07 189.919C409.866 189.946 410.298 190.923 410.2 191.714C410.102 192.505 410.604 193.08 410.502 193.87C410.261 195.741 412.652 197.793 414.533 197.938C416.197 198.066 421.05 197.258 423.352 194.13C425.349 191.417 425.095 186.839 421.763 180.024C420.485 177.411 417.683 176.617 416.795 177.275Z" fill="#212237"/>
<path d="M407.375 190.601C407.917 188.061 409.228 187.776 410.36 188.466C411.87 189.386 411.537 193.01 410.977 193.877C409.843 195.633 408.49 196.174 407.722 194.928" fill="#FFCBBD"/>
<path d="M409.469 201.327C411.219 199.872 410.956 197.1 410.956 197.1" stroke="#E88872" stroke-width="0.5" stroke-miterlimit="10" stroke-linejoin="round"/>
<path d="M402.438 189.555C402.195 190.102 402.115 190.916 402.569 191.262C402.697 191.36 402.853 191.36 402.988 191.277C403.869 190.729 402.947 188.412 402.438 189.555Z" fill="#28364C"/>
<path d="M401.719 187.8C402.398 187.72 403.593 187.783 404.295 188.344" stroke="#28364C" stroke-width="0.75" stroke-miterlimit="10"/>
<path d="M404.644 195.394L402.08 195.309C402.08 195.309 401.976 198.458 403.18 198.518C404.511 198.585 404.644 195.394 404.644 195.394Z" fill="white"/>
<path d="M425.398 199.213C425.398 199.213 431.37 197.681 439.819 200.144C446.945 202.221 456.023 207.56 462.85 214.821C474.673 227.394 469.221 258.638 469.221 258.638L453.849 258.056C453.849 258.056 456.261 237.979 448.21 229.929C440.159 221.878 428.797 219.989 428.797 219.989" fill="#0A5840" fill-opacity="0.6"/>
<path d="M360.178 243.104C355.361 244.442 340.77 246.027 340.535 247.023C340.3 248.019 345.44 247.529 345.094 248.311C344.748 249.093 336.891 250.382 336.922 251.44C336.964 252.874 344.94 251.122 344.94 251.122C344.94 251.122 341.625 251.715 342.021 252.948C342.302 253.822 343.653 254.09 346.276 253.839C344.838 254.164 344.274 254.856 344.584 255.758C344.892 256.651 346.285 256.593 347.761 256.395C346.746 256.624 345.963 257.298 346.618 257.888C347.475 258.659 353.432 258.329 363.981 256.536" fill="#FFCBBD"/>
<path d="M410.215 203.204C410.215 203.204 414.328 204.972 418.879 203.204C423.43 201.435 425.397 199.212 425.397 199.212C425.397 199.212 435.73 198.503 448.306 211.079C461.008 223.781 470.881 259.805 470.881 259.805L418.819 277.304C418.819 277.304 409.914 245.762 406.411 231.4C402.908 217.037 410.215 203.204 410.215 203.204Z" fill="#0A5840" fill-opacity="0.6"/>
<path d="M447.625 207.775C458.031 219.927 470.881 259.806 470.881 259.806" stroke="#0A5840" stroke-width="0.75" stroke-miterlimit="10"/>
<path d="M410.221 203.205C403.363 205.831 397.476 212.487 393.859 219.342C387.935 230.572 384.329 238.719 384.329 238.719L354.477 243.193L355.958 259.116C355.958 259.116 376.222 258.515 392.374 256.087C403.85 254.362 412.736 230.573 412.736 230.573" fill="#0A5840" fill-opacity="0.6"/>
<path d="M408.203 204.107C408.203 204.107 411.507 208.515 419.424 205.546C427.341 202.577 427.627 198.908 427.627 198.908" stroke="#0A5840" stroke-width="0.75" stroke-miterlimit="10"/>
<path d="M408.93 238.756L412.174 231.9" stroke="#0A5840" stroke-width="0.75" stroke-miterlimit="10"/>
<path d="M359.141 242.492L360.263 258.89" stroke="#0A5840" stroke-width="0.75" stroke-miterlimit="10"/>
<path d="M417.867 273.903L469.858 256.717" stroke="#0A5840" stroke-width="0.75" stroke-miterlimit="10"/>
<path d="M213.102 230.322C213.336 230.477 213.573 230.627 213.811 230.777C216.145 232.254 218.517 233.748 221.166 234.529C222.702 234.982 224.372 235.217 225.624 236.215C226.13 236.619 226.565 237.046 227.128 237.372C227.277 237.458 228.753 238.008 228.689 237.853C228.905 238.38 229.486 238.642 230.015 238.853C230.077 238.878 230.143 238.903 230.209 238.89C230.275 238.877 230.334 238.81 230.312 238.747C230.503 239.119 231.175 239.283 231.388 239.082C231.601 238.881 231.069 237.941 231.069 237.941C231.069 237.941 231.429 237.966 231.534 237.846C231.706 237.651 231.743 237.377 231.76 237.12C231.922 234.709 230.976 232.246 229.232 230.538" fill="#FFCBBD"/>
<path d="M229.719 235.303C229.714 235.716 229.959 236.134 230.116 236.508C230.289 236.921 230.464 237.313 230.68 237.705C230.778 237.883 231.03 237.757 230.994 237.573C230.901 237.099 230.744 236.67 230.533 236.236C230.358 235.878 230.183 235.459 229.844 235.233C229.789 235.197 229.719 235.244 229.719 235.303Z" fill="#F49C8E"/>
<path d="M227.213 235.39C228.103 236.362 228.996 237.275 229.773 238.344C229.856 238.459 230.06 238.396 230.015 238.242C229.633 236.929 228.325 236.127 227.385 235.219C227.272 235.11 227.108 235.275 227.213 235.39Z" fill="#F49C8E"/>
<path d="M211.095 414.065L193.328 232.713" stroke="#0A5840" stroke-miterlimit="10"/>
<path d="M280.272 414.065L262.505 232.713H193.328" stroke="#0A5840" stroke-miterlimit="10"/>
<path d="M244.742 414.065L262.51 232.713" stroke="#0A5840" stroke-miterlimit="10"/>
<path d="M175.562 414.065L193.329 232.713H262.507" stroke="#0A5840" stroke-miterlimit="10"/>
<path d="M277.428 388.373H178.078" stroke="#0A5840" stroke-miterlimit="10"/>
<path d="M275.122 366.166H180.258" stroke="#0A5840" stroke-miterlimit="10"/>
<path d="M273.347 343.35H182.492" stroke="#0A5840" stroke-miterlimit="10"/>
<path d="M271.133 321.602H184.625" stroke="#0A5840" stroke-miterlimit="10"/>
<path d="M268.986 298.883H186.75" stroke="#0A5840" stroke-miterlimit="10"/>
<path d="M266.782 276.369H188.977" stroke="#0A5840" stroke-miterlimit="10"/>
<path d="M264.194 255.107H191.133" stroke="#0A5840" stroke-miterlimit="10"/>
<path d="M209.242 232.255C216.34 232.278 223.437 232.262 230.534 232.207C229.869 231.006 229.444 230.252 228.684 229.501C227.746 228.572 227.028 228.025 226.04 227.518C222.739 225.826 219.041 224.914 215.331 224.879" fill="#FFCBBD"/>
<path d="M184.465 183.326C184.465 183.326 194.173 208.631 196.599 210.752C199.025 212.873 222.15 224.371 222.15 224.371L215.062 239.37C215.062 239.37 187.241 228.257 183.255 224.371C179.269 220.485 166.587 205.425 165.312 190.309" fill="#E23917"/>
<path d="M165.927 348.732L164.93 375.967L165.773 384.539L198.249 384.527C199.069 384.527 199.734 383.861 199.733 383.041C199.733 382.427 199.354 381.876 198.781 381.655L184.327 374.922L186.654 346.59" fill="#FFCBBD"/>
<path d="M201.196 384.179C200.858 383.101 200.234 381.89 199.6 381.613L184.272 374.922C175.788 378.313 164.842 375.635 164.842 375.635L163.945 387.196C163.945 387.578 164.256 387.889 164.638 387.889L200.92 387.876C201.673 387.876 201.207 384.213 201.196 384.179Z" fill="#F7471E"/>
<path d="M187.597 375.602C186.731 376.719 185.997 377.939 185.414 379.228" stroke="#B22B19" stroke-width="0.75" stroke-miterlimit="10"/>
<path d="M189.522 376.768C188.624 377.998 188.265 378.709 187.727 379.851" stroke="#B22B19" stroke-width="0.75" stroke-miterlimit="10"/>
<path d="M191.152 377.619C190.543 378.43 189.943 379.552 189.469 380.448" stroke="#B22B19" stroke-width="0.75" stroke-miterlimit="10"/>
<path d="M164.148 385.39L201.345 385.377" stroke="#B22B19" stroke-width="0.75" stroke-miterlimit="10"/>
<path d="M164.516 379.857C164.516 379.857 173.129 379.96 173.877 385.386" stroke="#B22B19" stroke-width="0.75" stroke-miterlimit="10"/>
<path d="M196.457 380.242C196.457 380.242 193.958 383.756 193.461 385.38" stroke="#B22B19" stroke-width="0.75" stroke-miterlimit="10"/>
<path d="M158.75 246.351C158.75 246.351 155.619 260.23 162.352 277.046C162.352 277.046 165.612 294.625 165.875 314.723C166.143 335.225 163.414 361.347 163.414 371.103H190.131C190.131 371.103 193.406 343.322 193.697 315.322C194.023 283.959 191.369 248.559 191.369 239.42" fill="#0A5840" fill-opacity="0.6"/>
<path d="M186.133 371.102C186.133 371.102 189.414 342.809 189.709 314.457C190.032 283.311 187.372 248.474 187.372 239.418" stroke="#0A5840" stroke-width="0.75" stroke-miterlimit="10"/>
<path d="M211.099 326.567L210.102 353.802L210.945 362.373L243.421 362.361C244.241 362.361 244.906 361.696 244.905 360.875C244.905 360.26 244.526 359.71 243.953 359.489L229.499 352.756L231.826 324.424" fill="#FFCBBD"/>
<path d="M246.368 362.015C246.03 360.937 245.406 359.726 244.772 359.449L229.444 352.758C220.961 356.149 210.014 353.471 210.014 353.471L209.117 365.032C209.117 365.415 209.428 365.725 209.811 365.725L246.093 365.712C246.845 365.712 246.379 362.049 246.368 362.015Z" fill="#F7471E"/>
<path d="M232.769 353.436C231.903 354.554 231.169 355.773 230.586 357.062" stroke="#B22B19" stroke-width="0.75" stroke-miterlimit="10"/>
<path d="M234.694 354.602C233.796 355.832 233.437 356.543 232.898 357.685" stroke="#B22B19" stroke-width="0.75" stroke-miterlimit="10"/>
<path d="M236.324 355.453C235.715 356.264 235.115 357.386 234.641 358.282" stroke="#B22B19" stroke-width="0.75" stroke-miterlimit="10"/>
<path d="M209.32 363.225L246.517 363.211" stroke="#B22B19" stroke-width="0.75" stroke-miterlimit="10"/>
<path d="M209.688 357.693C209.688 357.693 218.301 357.796 219.048 363.222" stroke="#B22B19" stroke-width="0.75" stroke-miterlimit="10"/>
<path d="M241.629 358.076C241.629 358.076 239.13 361.59 238.633 363.214" stroke="#B22B19" stroke-width="0.75" stroke-miterlimit="10"/>
<path d="M203.761 247.867C203.761 247.867 229.434 272.201 235.218 288.048C239.251 299.097 233.39 349.519 233.39 349.519H207.82C207.82 349.519 210.936 303.621 209.323 298.884C207.426 293.313 185.411 274.32 185.411 274.32C185.411 274.32 176.022 272.216 171.589 262.231C167.594 253.231 169.443 242.311 169.443 242.311" fill="#0A5840" fill-opacity="0.6"/>
<path d="M197.758 247.865C197.758 247.865 224.371 275.995 229.215 288.046C232.895 297.2 227.387 349.517 227.387 349.517" stroke="#0A5840" stroke-width="0.75" stroke-miterlimit="10"/>
<path d="M193.152 281.245C191.135 279.414 187.643 276.272 186.579 275.339C185.896 274.74 185.115 274.269 184.256 273.972C181.612 273.055 175.069 270.075 171.586 262.23" stroke="#0A5840" stroke-width="0.75" stroke-miterlimit="10"/>
<path d="M178.664 256.625C178.664 256.625 186.32 256.892 189.521 256.625" stroke="#0A5840" stroke-width="0.75" stroke-miterlimit="10"/>
<path d="M158.023 256.623H164.196" stroke="#0A5840" stroke-width="0.75" stroke-miterlimit="10"/>
<path d="M249.641 186.247C252.325 185.023 264.543 179.68 264.831 180.422C265.107 181.136 261.246 183.711 261.674 183.833C261.91 183.9 265.367 183.004 267.095 182.157C268.637 181.401 271.236 180.439 271.651 181.067C272.442 182.262 263.932 186.302 263.932 186.302C263.932 186.302 265.437 185.61 266.202 186.541C267.305 187.883 264.971 189.126 264.971 189.126C264.971 189.126 266.308 188.446 266.75 189.603C267.209 190.804 265.206 191.781 265.206 191.781C265.206 191.781 266.794 191.019 266.996 192.469C267.26 194.374 254.56 198.854 254.56 198.854" fill="#FFCBBD"/>
<path d="M187.729 173.888C187.729 173.888 185.178 175.914 181.099 175.22C177.02 174.525 176.03 172.557 176.03 172.557C176.03 172.557 165.183 174.067 159.968 207.519C156.304 231.024 157.522 250.139 157.522 250.139H206.975C206.975 250.139 208.485 199.031 205.97 189.532" fill="#F7471E"/>
<path d="M191.618 198.473C191.618 198.473 206.268 214.657 219.936 214.657C233.604 214.657 259.333 200.15 259.333 200.15L253.186 183.28L223.291 194.003C223.291 194.003 207.546 179.293 200.282 176.582C193.018 173.87 187.727 173.889 187.727 173.889" fill="#F7471E"/>
<path d="M207.37 210.933C207.37 210.933 198.168 203.916 193.727 200.619" stroke="#B22B19" stroke-width="0.75" stroke-miterlimit="10"/>
<path d="M250.336 184.303L255.965 201.966" stroke="#B22B19" stroke-width="0.75" stroke-miterlimit="10"/>
<path d="M157.375 246.023H207.086" stroke="#B22B19" stroke-width="0.75" stroke-miterlimit="10"/>
<path d="M198.641 204.309C199.125 218.524 198.641 250.14 198.641 250.14" stroke="#B22B19" stroke-width="0.75" stroke-miterlimit="10"/>
<path d="M176.209 165.268L175.086 174.293C175.086 174.293 183.799 178.862 189.577 174.006V168.742L176.209 165.268Z" fill="#FFCBBD"/>
<path d="M188.035 151.104C188.035 151.104 198.217 163.94 194.494 168.696C192.559 171.168 186.246 170.576 183.237 168.696C181.004 167.301 174.77 159.854 175.724 157.95C179.367 150.677 188.035 151.104 188.035 151.104Z" fill="#FFCBBD"/>
<path d="M186.721 153.455C186.888 158.657 186.224 163.308 186.224 163.308L185.444 180.202C185.444 180.202 172.007 181.634 163.414 175.667C163.414 175.667 166.295 157.916 172.7 152.537C178.792 147.421 186.722 147.791 190.75 151.1C190.75 151.1 190.19 152.65 189.438 153.007C188.686 153.363 186.721 153.455 186.721 153.455Z" fill="#4A1A1A"/>
<path d="M187.6 161.604C186.357 160.028 185.35 160.278 184.801 161.144C184.068 162.298 185.538 164.697 186.222 165.107C187.608 165.937 188.731 165.849 188.838 164.723" fill="#FFCBBD"/>
<path d="M189.687 170.277C188.221 170.277 187.75 169.047 187.75 169.047" stroke="#E88872" stroke-width="0.5" stroke-miterlimit="10" stroke-linejoin="round"/>
<path d="M190.71 157.613C191.136 157.968 191.536 158.612 191.3 159.085C191.233 159.219 191.104 159.283 190.958 159.269C190.002 159.175 189.82 156.872 190.71 157.613Z" fill="#28364C"/>
<path d="M190.59 155.861C189.631 155.861 189.025 156.614 188.672 157.368" stroke="#28364C" stroke-width="0.5" stroke-miterlimit="10" stroke-linecap="round"/>
<path d="M191.484 164.242L193.747 163.516C193.747 163.516 194.638 166.296 193.58 166.655C192.412 167.052 191.484 164.242 191.484 164.242Z" fill="white"/>
<path d="M179.157 149.51C180.055 149.281 180.682 148.343 180.657 147.417C180.632 146.49 180.022 145.632 179.204 145.196C178.386 144.76 177.392 144.719 176.499 144.967C176.158 145.062 175.825 145.198 175.541 145.409C174.381 146.267 174.412 148.121 175.233 149.306C175.569 149.79 176.037 150.216 176.611 150.351C177.185 150.486 178.376 150.281 179.049 149.882" fill="#4A1A1A"/>
<path d="M191.797 157.467C192.052 157.606 194.733 158.767 194.751 159.848C194.761 160.458 193.274 161.121 193.274 161.121" fill="#FFCBBD"/>
<path d="M227.045 230.137C228.644 231.861 229.178 233.562 229.825 234.943C229.854 235.005 229.884 235.07 229.886 235.139C229.895 235.457 229.417 235.485 229.12 235.373C228.44 235.116 227.806 234.738 227.255 234.263C227.036 234.075 226.829 233.869 226.578 233.726C226.121 233.464 225.574 233.434 225.052 233.369C222.903 233.104 220.738 232.035 219.695 230.137" fill="#FFCBBD"/>
<path d="M227.045 230.136C228.144 231.151 228.934 232.479 229.545 233.836L230.016 234.841C230.048 234.966 230.125 235.068 230.095 235.243C230.063 235.428 229.899 235.56 229.776 235.599C229.519 235.688 229.303 235.662 229.077 235.596C228.338 235.331 227.671 234.94 227.078 234.439C226.788 234.181 226.553 233.946 226.25 233.832C225.945 233.707 225.591 233.662 225.223 233.616C224.473 233.526 223.718 233.358 223.016 233.068C221.614 232.505 220.328 231.504 219.695 230.135C220.509 231.392 221.785 232.237 223.151 232.708C223.843 232.929 224.547 233.1 225.275 233.164C225.643 233.203 226.036 233.239 226.426 233.387C226.829 233.532 227.14 233.833 227.405 234.061C227.936 234.532 228.566 234.915 229.221 235.165C229.347 235.21 229.522 235.22 229.617 235.184C229.668 235.164 229.665 235.155 229.665 235.155C229.674 235.144 229.631 235.074 229.624 235.021C229.465 234.679 229.33 234.331 229.193 233.987C228.658 232.611 227.991 231.294 227.045 230.136Z" fill="#E88872"/>
<path d="M56.7253 373.03L55.8203 401.572L56.7483 410.549L90.7763 410.369C91.6353 410.365 92.3283 409.664 92.3243 408.805C92.3213 408.161 91.9213 407.586 91.3193 407.358L76.1393 400.378L78.4313 370.68" fill="#FFCBBD"/>
<path d="M93.8598 409.989C93.4998 408.862 92.8398 407.596 92.1738 407.309L76.0788 400.377C67.2068 403.973 55.7238 401.225 55.7238 401.225L54.8438 413.343C54.8458 413.744 55.1728 414.067 55.5738 414.065L93.5908 413.865C94.3788 413.86 93.8718 410.024 93.8598 409.989Z" fill="#032B1F"/>
<path d="M79.5659 401.072C78.6639 402.247 77.9009 403.529 77.2969 404.882" stroke="#0A5840" stroke-width="0.75" stroke-miterlimit="10"/>
<path d="M81.5916 402.283C80.6576 403.577 80.2846 404.323 79.7266 405.523" stroke="#0A5840" stroke-width="0.75" stroke-miterlimit="10"/>
<path d="M83.3037 403.166C82.6697 404.019 82.0467 405.198 81.5547 406.139" stroke="#0A5840" stroke-width="0.75" stroke-miterlimit="10"/>
<path d="M55.0469 411.45L94.0219 411.244" stroke="#0A5840" stroke-width="0.75" stroke-miterlimit="10"/>
<path d="M55.4062 405.65C55.4062 405.65 64.4312 405.713 65.2422 411.395" stroke="#0A5840" stroke-width="0.75" stroke-miterlimit="10"/>
<path d="M88.8786 405.889C88.8786 405.889 86.2786 409.584 85.7656 411.288" stroke="#0A5840" stroke-width="0.75" stroke-miterlimit="10"/>
<path d="M59.8719 270.889C59.8719 270.889 77.9569 304.78 83.6949 326.095C89.4339 347.41 81.8009 395.413 81.8009 395.413H53.6609C53.6609 395.413 59.2739 343.31 52.6289 326.095C45.9849 308.879 22.2109 263.574 22.2109 263.574" fill="#0A5840" fill-opacity="0.6"/>
<path d="M57.5107 395.413C57.5107 395.413 62.1237 341.212 59.3167 327.823C56.5107 314.434 37.0547 283.27 37.0547 283.27" stroke="#0A5840" stroke-width="0.75" stroke-miterlimit="10"/>
<path d="M24.4823 357.156L7.85032 380.079L3.32031 387.884L30.9443 407.756C31.6423 408.258 32.6143 408.099 33.1163 407.402C33.4923 406.879 33.5073 406.179 33.1553 405.641L24.9863 391.067L43.4203 367.025" fill="#FFCBBD"/>
<path d="M33.6596 409.267C34.0316 408.144 34.2426 406.731 33.8736 406.108L24.9356 391.034C15.6456 388.724 7.97657 379.746 7.97657 379.746L0.136575 389.028C-0.0974251 389.354 -0.0234247 389.807 0.302575 390.042L31.1636 412.243C31.8026 412.703 33.6486 409.303 33.6596 409.267Z" fill="#032B1F"/>
<path d="M27.3416 393.645C25.9206 394.065 24.5496 394.653 23.2656 395.391" stroke="#0A5840" stroke-width="0.75" stroke-miterlimit="10"/>
<path d="M28.2744 395.816C26.7574 396.312 26.0164 396.697 24.8594 397.339" stroke="#0A5840" stroke-width="0.75" stroke-miterlimit="10"/>
<path d="M29.1317 397.539C28.1177 397.855 26.9208 398.443 25.9688 398.914" stroke="#0A5840" stroke-width="0.75" stroke-miterlimit="10"/>
<path d="M1.41406 387.619L33.0531 410.379" stroke="#0A5840" stroke-width="0.75" stroke-miterlimit="10"/>
<path d="M5.10938 383.135C5.10938 383.135 12.3704 388.495 9.68437 393.567" stroke="#0A5840" stroke-width="0.75" stroke-miterlimit="10"/>
<path d="M32.0446 403.018C32.0446 403.018 27.7686 404.477 26.3516 405.553" stroke="#0A5840" stroke-width="0.75" stroke-miterlimit="10"/>
<path d="M14.7862 263.573C9.42819 278.759 14.7862 290.711 14.7862 290.711C14.7862 290.711 33.0532 324.099 33.0532 330.883C33.0532 337.107 9.61719 372.566 9.61719 372.566L31.0482 389.791C31.0482 389.791 64.7112 353.564 64.0732 328.492C63.2842 297.492 46.4162 263.572 46.4162 263.572" fill="#0A5840" fill-opacity="0.6"/>
<path d="M18.7871 264.574C13.4291 279.76 19.8981 289.995 19.8981 289.995C19.8981 289.995 37.0541 325.1 37.0541 331.884C37.0541 338.108 12.7031 375.047 12.7031 375.047" stroke="#0A5840" stroke-width="0.75" stroke-miterlimit="10"/>
<path d="M55.5559 355.98C60.5729 346.766 64.2949 336.989 64.0789 328.494C63.2899 297.494 46.4219 263.574 46.4219 263.574" stroke="#0A5840" stroke-width="0.75" stroke-miterlimit="10"/>
<path d="M17.0312 276.484C17.0312 276.484 26.5943 277.047 30.3443 269.359" stroke="#0A5840" stroke-width="0.75" stroke-miterlimit="10"/>
<path d="M53.6797 280.871C53.6797 280.871 56.2997 281.161 56.0487 279.864C55.7977 278.567 53.6797 271.582 53.6797 271.582" stroke="#0A5840" stroke-width="0.75" stroke-miterlimit="10"/>
<path fill-rule="evenodd" clip-rule="evenodd" d="M65.8301 183.005C66.8111 189.128 66.0371 194.539 60.8091 195.351C55.5811 196.164 48.3221 194.675 46.8981 185.946C45.9001 179.825 49.3591 174.2 54.5871 173.387C59.8151 172.576 64.8491 176.881 65.8301 183.005Z" fill="#FFCBBB"/>
<path d="M61.5938 183.06C61.4858 183.622 61.5868 184.397 62.0838 184.621C62.2248 184.685 62.3698 184.651 62.4768 184.544C63.1798 183.845 61.8218 181.887 61.5938 183.06Z" fill="#28364C"/>
<path d="M59.8516 181.672C61.1436 180.976 62.3726 181.04 63.4596 181.425" stroke="#28364C" stroke-width="0.5" stroke-miterlimit="10" stroke-linecap="round" stroke-linejoin="round"/>
<path d="M64.9929 189.406L61.5859 189.416C61.5859 189.416 61.3809 192.25 63.0749 192.541C64.4909 192.785 64.9929 189.406 64.9929 189.406Z" fill="white"/>
<path fill-rule="evenodd" clip-rule="evenodd" d="M58.0397 202.056C58.0397 202.056 53.9657 202.755 50.1427 201.711C45.6277 200.478 44.3438 198.643 44.3438 198.643L50.6048 185.578L60.2647 189.959L58.0397 202.056Z" fill="#FFCBBB"/>
<path d="M59.2456 195.509C59.2456 195.509 55.0326 195.645 52.8516 193.578" stroke="#EF977F" stroke-miterlimit="10"/>
<path fill-rule="evenodd" clip-rule="evenodd" d="M64.7266 182.818C64.7266 182.818 67.3396 186.654 67.2066 187.339C67.0736 188.024 65.1796 188.323 65.1796 188.323" fill="#FFCBBB"/>
<path d="M50.6529 191.475C50.0849 191.722 49.3999 191.821 48.8549 191.883C47.6269 192.023 46.3539 191.835 45.2529 191.26C43.2419 190.21 41.9489 187.815 42.4039 185.592C42.4779 185.228 42.5949 184.873 42.6539 184.507C42.9269 182.797 41.9239 181.163 41.6429 179.455C41.3699 177.798 41.8059 176.055 42.7399 174.659C43.6739 173.263 45.0829 172.212 46.6519 171.612C47.9039 171.133 49.2769 170.961 50.3159 170.06C50.7989 169.641 51.2399 169.167 51.7809 168.826C54.3819 167.189 58.0899 168.086 60.4129 169.812C60.6889 170.017 60.9639 170.243 61.2949 170.332C61.8659 170.485 62.4619 170.247 63.0419 170.363C65.2709 170.812 66.2499 174.105 66.2269 176.075C66.2199 176.658 66.0769 177.253 65.7279 177.72C65.2269 178.389 64.3739 178.706 63.5439 178.808C62.3849 178.95 61.1809 178.714 60.0479 179.061C59.2519 179.305 58.5659 179.818 57.7929 180.128C56.5999 180.605 55.2079 180.56 54.0479 180.007C54.2799 180.822 54.4509 181.676 54.3249 182.513C54.0879 184.088 52.7579 184.86 51.3409 185.251C51.8069 186.838 52.1879 188.831 51.6919 190.448C51.5389 190.944 51.1389 191.264 50.6529 191.475Z" fill="#14122D"/>
<path d="M52.5848 183.964C52.5848 183.964 51.3358 182.441 49.8678 183.665C47.9698 185.247 50.4418 188.653 51.9448 189.211C53.4488 189.769 53.8908 188.103 53.8908 188.103" fill="#FFCBBB"/>
<path d="M123.634 250.636C125.61 248.969 127.43 247.054 129.033 244.884C130.636 242.713 131.93 240.411 132.942 238.031L126.615 234.649C127.499 232.42 128.06 230.111 128.314 227.782L135.496 227.752C135.943 222.481 135.143 217.163 133.165 212.256L126.292 214.341C125.364 212.191 124.149 210.148 122.648 208.278L127.7 203.185C126.033 201.209 124.119 199.389 121.948 197.786C119.777 196.183 117.475 194.889 115.095 193.877L111.713 200.203C109.484 199.319 107.174 198.758 104.846 198.504L104.816 191.322C99.5452 190.875 94.2272 191.675 89.3202 193.653L91.4052 200.526C89.2552 201.454 87.2122 202.67 85.3422 204.17L80.2492 199.118C78.2732 200.785 76.4532 202.699 74.8502 204.87C73.2472 207.041 71.9522 209.343 70.9412 211.723L77.2672 215.105C76.3832 217.334 75.8222 219.644 75.5682 221.972L68.3862 222.002C67.9392 227.273 68.7392 232.591 70.7172 237.498L77.5902 235.413C78.5182 237.563 79.7332 239.606 81.2342 241.476L76.1822 246.569C77.8492 248.545 79.7642 250.365 81.9342 251.968C84.1052 253.571 86.4072 254.866 88.7872 255.877L92.1692 249.55C94.3982 250.434 96.7082 250.995 99.0362 251.249L99.0662 258.431C104.337 258.878 109.655 258.078 114.562 256.1L112.477 249.227C114.627 248.299 116.67 247.084 118.54 245.583L123.634 250.636ZM94.3992 235.092C88.7582 230.926 87.5622 222.976 91.7282 217.334C95.8942 211.693 103.844 210.497 109.486 214.663C115.127 218.829 116.323 226.779 112.157 232.421C107.991 238.062 100.04 239.258 94.3992 235.092Z" fill="#0A5840" fill-opacity="0.6"/>
<path d="M103.853 249.088C106.792 249.34 120.059 250.686 119.946 251.473C119.836 252.231 115.35 252.483 115.52 252.893C115.763 253.476 119.144 253.985 121.066 254.095C122.78 254.194 125.516 254.632 125.57 255.383C125.672 256.812 116.275 256.153 116.275 256.153C116.306 256.585 126.513 254.972 126.722 256.159C127.024 257.87 116.141 258.712 115.792 259.122C115.792 259.122 125.025 255.772 125.248 257.038C125.471 258.304 117.301 261.5 114.694 261.55C116.825 261.107 123.104 257.572 123.266 258.496C123.428 259.419 117.878 261.831 116.973 261.981C109.545 263.21 101.945 262.483 101.945 262.483" fill="#FFCBBD"/>
<path d="M58.2022 201.219C58.2022 201.219 55.3502 202.57 51.0362 200.696C46.3502 198.66 45.3612 196.316 45.3612 196.316C45.3612 196.316 19.9232 198.569 10.6172 269.15L62.7062 275.61C62.7062 275.61 66.8992 250.382 66.2292 229.966C65.8012 216.967 60.7512 206.852 58.2022 201.219Z" fill="#0A5840"/>
<path d="M42.9219 229.475C42.9219 229.475 50.9319 256.314 72.5719 262.12C91.8499 267.292 106.883 267.269 106.883 267.269L108.979 249.174C108.979 249.174 85.4169 244.946 75.7219 238.533C68.3399 233.65 66.8999 218.008 65.0319 212.474C62.4369 204.79 58.2039 201.219 58.2039 201.219" fill="#0A5840"/>
<path d="M43.2812 196.863C43.2812 196.863 44.8773 201.786 52.3023 203.398C57.7253 204.575 59.8483 202.959 59.8483 202.959" stroke="#0A5840" stroke-width="0.75" stroke-miterlimit="10"/>
<path d="M64.0713 259.077C64.0713 259.077 44.3422 249.963 43.2812 224.15" stroke="#0A5840" stroke-width="0.75" stroke-miterlimit="10"/>
<path d="M104.6 248.297L101.945 267.061" stroke="#0A5840" stroke-width="0.75" stroke-miterlimit="10"/>
<defs>
<linearGradient id="paint0_linear_4224_17467" x1="172.98" y1="357.593" x2="465.677" y2="64.8959" gradientUnits="userSpaceOnUse">
<stop offset="0.2704" stop-color="white" stop-opacity="0.1"/>
<stop offset="1" stop-color="white" stop-opacity="0.3"/>
</linearGradient>
<linearGradient id="paint1_linear_4224_17467" x1="222.445" y1="351.48" x2="502.915" y2="71.0093" gradientUnits="userSpaceOnUse">
<stop offset="0.2704" stop-color="white" stop-opacity="0.1"/>
<stop offset="1" stop-color="white" stop-opacity="0.3"/>
</linearGradient>
</defs>
</svg>
