<svg width="500" height="414" viewBox="0 0 500 414" fill="none" xmlns="http://www.w3.org/2000/svg">
<path d="M292.657 404.936L269.594 350.627H250.995H232.396L209.333 404.936H180.039V413.12H250.995H321.951V404.936H292.657Z" fill="#B5B5B5"/>
<path d="M396.078 368.482H105.93C101.205 368.482 97.375 364.651 97.375 359.927V157.475C97.375 152.75 101.206 148.92 105.93 148.92H396.078C400.803 148.92 404.633 152.751 404.633 157.475V359.926C404.633 364.651 400.802 368.482 396.078 368.482Z" fill="#CCCCCC"/>
<path d="M396.078 148.92H105.93C101.205 148.92 97.375 152.751 97.375 157.475V334.259H404.634V157.475C404.633 152.75 400.802 148.92 396.078 148.92Z" fill="#232323"/>
<path d="M250.997 358.811C254.387 358.811 257.135 356.063 257.135 352.673C257.135 349.283 254.387 346.535 250.997 346.535C247.607 346.535 244.859 349.283 244.859 352.673C244.859 356.063 247.607 358.811 250.997 358.811Z" fill="#B5B5B5"/>
<path d="M393.01 160.172H109V323.008H393.01V160.172Z" fill="white"/>
<path d="M393.01 160.172H109V176.088H393.01V160.172Z" fill="#0A5840"/>
<path d="M208.861 170.795H141.413C140.9 170.795 140.484 170.379 140.484 169.867V166.393C140.484 165.88 140.901 165.465 141.413 165.465H208.861C209.374 165.465 209.789 165.881 209.789 166.393V169.867C209.789 170.38 209.374 170.795 208.861 170.795Z" fill="white"/>
<path d="M128.768 170.745H125.039C124.625 170.745 124.289 170.409 124.289 169.995V166.265C124.289 165.851 124.625 165.516 125.039 165.516H128.768C129.182 165.516 129.518 165.851 129.518 166.265V169.995C129.518 170.41 129.182 170.745 128.768 170.745Z" fill="white"/>
<path d="M328.238 171.822C330.277 171.822 331.929 170.169 331.929 168.131C331.929 166.092 330.277 164.439 328.238 164.439C326.2 164.439 324.547 166.092 324.547 168.131C324.547 170.169 326.2 171.822 328.238 171.822Z" fill="#0A5840"/>
<path d="M343.824 171.822C345.863 171.822 347.515 170.169 347.515 168.131C347.515 166.092 345.863 164.439 343.824 164.439C341.785 164.439 340.133 166.092 340.133 168.131C340.133 170.169 341.785 171.822 343.824 171.822Z" fill="#0A5840"/>
<path d="M359.41 171.822C361.449 171.822 363.101 170.169 363.101 168.131C363.101 166.092 361.449 164.439 359.41 164.439C357.371 164.439 355.719 166.092 355.719 168.131C355.719 170.169 357.371 171.822 359.41 171.822Z" fill="#0A5840"/>
<path d="M378.687 168.131C378.687 170.169 377.035 171.822 374.996 171.822C372.958 171.822 371.305 170.17 371.305 168.131C371.305 166.093 372.957 164.439 374.996 164.439C377.035 164.439 378.687 166.092 378.687 168.131Z" fill="#0A5840"/>
<path d="M392.896 176.088H109V323.007H392.896V176.088Z" fill="#BED0E5"/>
<path d="M308.41 189.264H187.023V202.181H308.41V189.264Z" fill="white"/>
<path d="M308.41 213.961H187.023V316.024H308.41V213.961Z" fill="white"/>
<path d="M300.624 231.545H194.82V309.364H300.624V231.545Z" fill="#BED0E5"/>
<path d="M199.942 227.965C202.547 227.965 204.658 225.853 204.658 223.249C204.658 220.644 202.547 218.533 199.942 218.533C197.338 218.533 195.227 220.644 195.227 223.249C195.227 225.853 197.338 227.965 199.942 227.965Z" fill="#0A5840"/>
<path d="M249.98 220.326H208.766V226.17H249.98V220.326Z" fill="#0A5840"/>
<path d="M293.132 221.763C293.529 221.763 293.85 221.441 293.85 221.044C293.85 220.648 293.529 220.326 293.132 220.326C292.736 220.326 292.414 220.648 292.414 221.044C292.414 221.441 292.736 221.763 293.132 221.763Z" fill="#BED0E5"/>
<path d="M296.515 221.763C296.912 221.763 297.233 221.441 297.233 221.044C297.233 220.648 296.912 220.326 296.515 220.326C296.118 220.326 295.797 220.648 295.797 221.044C295.797 221.441 296.118 221.763 296.515 221.763Z" fill="#BED0E5"/>
<path d="M299.898 221.763C300.295 221.763 300.616 221.441 300.616 221.044C300.616 220.648 300.295 220.326 299.898 220.326C299.501 220.326 299.18 220.648 299.18 221.044C299.18 221.441 299.501 221.763 299.898 221.763Z" fill="#BED0E5"/>
<path d="M164.614 189.264H132.422V195.107H164.614V189.264Z" fill="#0A5840"/>
<path d="M151.401 199.26H132.422V205.103H151.401V199.26Z" fill="#0A5840"/>
<path d="M164.614 209.256H132.422V215.1H164.614V209.256Z" fill="#0A5840"/>
<path d="M158.047 234.014H132.422V239.857H158.047V234.014Z" fill="#0A5840"/>
<path d="M158.047 244.01H132.422V249.853H158.047V244.01Z" fill="#0A5840"/>
<path d="M150.84 264.004H132.422V269.848H150.84V264.004Z" fill="#0A5840"/>
<path d="M164.614 273.998H132.422V279.842H164.614V273.998Z" fill="#0A5840"/>
<path d="M160.29 283.994H132.422V289.838H160.29V283.994Z" fill="#0A5840"/>
<path d="M164.614 293.99H132.422V299.834H164.614V293.99Z" fill="#0A5840"/>
<path d="M157.887 303.986H132.422V309.83H157.887V303.986Z" fill="#0A5840"/>
<path d="M164.614 254.008H132.422V259.851H164.614V254.008Z" fill="#0A5840"/>
<path d="M126.02 195.004C127.576 195.004 128.838 193.742 128.838 192.186C128.838 190.63 127.576 189.369 126.02 189.369C124.464 189.369 123.203 190.63 123.203 192.186C123.203 193.742 124.464 195.004 126.02 195.004Z" fill="#0A5840"/>
<path d="M126.02 204.998C127.576 204.998 128.838 203.736 128.838 202.18C128.838 200.625 127.576 199.363 126.02 199.363C124.464 199.363 123.203 200.625 123.203 202.18C123.203 203.736 124.464 204.998 126.02 204.998Z" fill="#0A5840"/>
<path d="M126.02 214.994C127.576 214.994 128.838 213.732 128.838 212.177C128.838 210.621 127.576 209.359 126.02 209.359C124.464 209.359 123.203 210.621 123.203 212.177C123.203 213.732 124.464 214.994 126.02 214.994Z" fill="#0A5840"/>
<path d="M126.02 239.754C127.576 239.754 128.838 238.492 128.838 236.936C128.838 235.38 127.576 234.119 126.02 234.119C124.464 234.119 123.203 235.38 123.203 236.936C123.203 238.492 124.464 239.754 126.02 239.754Z" fill="#0A5840"/>
<path d="M126.02 249.75C127.576 249.75 128.838 248.488 128.838 246.932C128.838 245.377 127.576 244.115 126.02 244.115C124.464 244.115 123.203 245.377 123.203 246.932C123.203 248.488 124.464 249.75 126.02 249.75Z" fill="#0A5840"/>
<path d="M126.02 259.746C127.576 259.746 128.838 258.484 128.838 256.929C128.838 255.373 127.576 254.111 126.02 254.111C124.464 254.111 123.203 255.373 123.203 256.929C123.203 258.484 124.464 259.746 126.02 259.746Z" fill="#0A5840"/>
<path d="M126.02 269.742C127.576 269.742 128.838 268.481 128.838 266.925C128.838 265.369 127.576 264.107 126.02 264.107C124.464 264.107 123.203 265.369 123.203 266.925C123.203 268.481 124.464 269.742 126.02 269.742Z" fill="#0A5840"/>
<path d="M126.02 279.738C127.576 279.738 128.838 278.477 128.838 276.921C128.838 275.365 127.576 274.104 126.02 274.104C124.464 274.104 123.203 275.365 123.203 276.921C123.203 278.477 124.464 279.738 126.02 279.738Z" fill="#0A5840"/>
<path d="M126.02 289.734C127.576 289.734 128.838 288.473 128.838 286.917C128.838 285.361 127.576 284.1 126.02 284.1C124.464 284.1 123.203 285.361 123.203 286.917C123.203 288.473 124.464 289.734 126.02 289.734Z" fill="#0A5840"/>
<path d="M126.02 299.73C127.576 299.73 128.838 298.469 128.838 296.913C128.838 295.357 127.576 294.096 126.02 294.096C124.464 294.096 123.203 295.357 123.203 296.913C123.203 298.469 124.464 299.73 126.02 299.73Z" fill="#0A5840"/>
<path d="M126.02 309.726C127.576 309.726 128.838 308.465 128.838 306.909C128.838 305.353 127.576 304.092 126.02 304.092C124.464 304.092 123.203 305.353 123.203 306.909C123.203 308.465 124.464 309.726 126.02 309.726Z" fill="#0A5840"/>
<path d="M378.68 189.264H331.93V241.589H378.68V189.264Z" fill="white"/>
<path d="M372.12 194.131H338.492V199.979H372.12V194.131Z" fill="#BED0E5"/>
<path d="M372.367 207.764H348.844V212.69H372.367V207.764Z" fill="#0A5840"/>
<path d="M372.367 218.58H348.844V223.506H372.367V218.58Z" fill="#0A5840"/>
<path d="M372.367 229.396H348.844V234.322H372.367V229.396Z" fill="#0A5840"/>
<path d="M346.034 221.042C346.034 222.741 344.656 224.118 342.958 224.118C341.259 224.118 339.883 222.74 339.883 221.042C339.883 219.343 341.26 217.967 342.958 217.967C344.657 217.967 346.034 219.344 346.034 221.042Z" fill="#BED0E5"/>
<path d="M346.855 221.043C346.855 223.194 345.111 224.939 342.959 224.939C340.807 224.939 339.062 223.195 339.062 221.043C339.062 218.89 340.806 217.146 342.959 217.146C345.11 217.146 346.855 218.891 346.855 221.043Z" stroke="#0A5840" stroke-opacity="0.6" stroke-width="0.4714" stroke-miterlimit="10"/>
<path d="M342.962 214.073C345.086 214.073 346.807 212.351 346.807 210.228C346.807 208.104 345.086 206.383 342.962 206.383C340.839 206.383 339.117 208.104 339.117 210.228C339.117 212.351 340.839 214.073 342.962 214.073Z" fill="#BED0E5"/>
<path d="M342.961 208.523V211.932" stroke="#0A5840" stroke-width="0.8139" stroke-miterlimit="10" stroke-linecap="round" stroke-linejoin="round"/>
<path d="M344.659 210.229H341.25" stroke="#0A5840" stroke-width="0.8139" stroke-miterlimit="10" stroke-linecap="round" stroke-linejoin="round"/>
<path d="M346.034 231.962C346.034 233.661 344.656 235.038 342.958 235.038C341.259 235.038 339.883 233.66 339.883 231.962C339.883 230.263 341.26 228.887 342.958 228.887C344.657 228.887 346.034 230.263 346.034 231.962Z" fill="#BED0E5"/>
<path d="M346.855 231.963C346.855 234.114 345.111 235.859 342.959 235.859C340.807 235.859 339.062 234.115 339.062 231.963C339.062 229.811 340.806 228.066 342.959 228.066C345.11 228.066 346.855 229.811 346.855 231.963Z" stroke="#0A5840" stroke-opacity="0.6" stroke-width="0.4714" stroke-miterlimit="10"/>
<path d="M378.68 248.059H331.93V255.338H378.68V248.059Z" fill="white"/>
<path d="M378.68 262.104H331.93V303.721H378.68V262.104Z" fill="white"/>
<path d="M373.974 267.23H336.656V289.273H373.974V267.23Z" fill="#BED0E5"/>
<path d="M360.179 292.961H336.656V297.887H360.179V292.961Z" fill="#0A5840"/>
<path d="M373.975 292.961H363.883V295.936H373.975V292.961Z" fill="#BED0E5"/>
<path d="M256.813 282.674H238.618C236.511 282.674 234.797 280.961 234.797 278.854V266.002C234.797 263.895 236.51 262.182 238.618 262.182H239.071C239.646 262.182 240.134 261.79 240.257 261.229C240.641 259.493 242.209 258.232 243.987 258.232H251.442C253.221 258.232 254.789 259.492 255.172 261.228C255.297 261.79 255.784 262.182 256.359 262.182H256.813C258.919 262.182 260.634 263.896 260.634 266.002V278.854C260.634 280.961 258.92 282.674 256.813 282.674ZM238.619 264.788C237.949 264.788 237.404 265.333 237.404 266.003V278.855C237.404 279.525 237.949 280.07 238.619 280.07H256.814C257.484 280.07 258.029 279.525 258.029 278.855V266.003C258.029 265.333 257.484 264.788 256.814 264.788H256.36C254.553 264.788 253.019 263.555 252.63 261.791C252.508 261.239 252.01 260.838 251.444 260.838H243.99C243.424 260.838 242.925 261.239 242.804 261.791C242.415 263.555 240.88 264.787 239.073 264.787L238.619 264.788Z" fill="#0A5840" fill-opacity="0.6"/>
<path d="M247.72 277.463C244.751 277.463 242.336 275.048 242.336 272.079C242.336 269.11 244.751 266.695 247.72 266.695C250.688 266.695 253.104 269.11 253.104 272.079C253.104 275.048 250.688 277.463 247.72 277.463ZM247.72 269.101C246.076 269.101 244.741 270.437 244.741 272.079C244.741 273.721 246.077 275.058 247.72 275.058C249.362 275.058 250.698 273.721 250.698 272.079C250.698 270.437 249.362 269.101 247.72 269.101Z" fill="#0A5840" fill-opacity="0.6"/>
<path d="M256.022 267.55C256.022 268.32 255.398 268.944 254.628 268.944C253.859 268.944 253.234 268.32 253.234 267.55C253.234 266.781 253.859 266.156 254.628 266.156C255.399 266.156 256.022 266.78 256.022 267.55Z" fill="#0A5840" fill-opacity="0.6"/>
<path d="M421.982 301.067H306.773V239.615H421.982C423.91 239.615 425.473 241.178 425.473 243.107V297.577C425.473 299.503 423.91 301.067 421.982 301.067Z" fill="#0A5840"/>
<path d="M414.397 301.067H287.555V239.615H414.396C416.324 239.615 417.887 241.178 417.887 243.107V297.577C417.888 299.503 416.325 301.067 414.397 301.067Z" fill="#0A5840"/>
<path d="M425.469 247.967H431.197L441.477 232.77C445.186 227.288 447.167 222.72 447.167 216.101V204.417C447.167 202.386 448.805 200.445 450.811 200.118C455.95 199.28 464.094 201.996 464.094 216.003C464.094 223.487 464.094 231.736 464.094 231.736C464.094 231.736 477.981 231.736 483.709 231.736C489.438 231.736 499.203 234.991 494.256 249.052C494.256 249.052 501.416 259.599 492.042 267.149C492.042 267.149 497.251 277.695 485.272 283.033C485.272 283.033 489.178 298.526 467.435 298.526H440.42C438.425 298.526 436.474 297.934 434.815 296.826L425.469 290.584V247.967Z" fill="#CAFFEF" fill-opacity="0.6"/>
<path d="M456.069 216.001C456.069 223.485 456.069 231.734 456.069 231.734C456.069 231.734 459.749 231.734 464.101 231.734C464.101 231.734 464.101 223.485 464.101 216.001C464.101 201.994 455.959 199.278 450.818 200.116C450.138 200.227 449.507 200.535 448.961 200.957C452.719 202.695 456.069 207.019 456.069 216.001Z" fill="#BED0E5"/>
<path d="M494.258 249.051C499.206 234.99 489.441 231.734 483.713 231.734C481.715 231.734 478.727 231.734 475.681 231.734C481.409 231.734 491.174 234.99 486.227 249.051C486.227 249.051 493.388 259.597 484.014 267.147C484.014 267.147 489.222 277.694 477.244 283.032C477.244 283.032 481.15 298.525 459.406 298.525H467.438C489.182 298.525 485.276 283.032 485.276 283.032C497.254 277.694 492.046 267.147 492.046 267.147C501.419 259.597 494.258 249.051 494.258 249.051Z" fill="#BED0E5"/>
<path d="M401.248 291.021C403.602 291.021 405.511 289.112 405.511 286.758C405.511 284.403 403.602 282.494 401.248 282.494C398.893 282.494 396.984 284.403 396.984 286.758C396.984 289.112 398.893 291.021 401.248 291.021Z" fill="white"/>
<path d="M286.305 235.039V306.024" stroke="#0A5840" stroke-width="2.2867" stroke-miterlimit="10"/>
<path d="M395.055 55.4199V104.731" stroke="#0A5840" stroke-opacity="0.6" stroke-width="2.0405" stroke-miterlimit="10"/>
<path d="M104.898 55.4199V104.731" stroke="#0A5840" stroke-opacity="0.6" stroke-width="2.0405" stroke-miterlimit="10"/>
<path d="M290.145 92.8518C295.428 70.8527 281.876 48.7366 259.877 43.4541C237.878 38.1715 215.762 51.7228 210.479 73.7219C205.196 95.7209 218.748 117.837 240.747 123.12C262.746 128.402 284.862 114.851 290.145 92.8518Z" stroke="#0A5840" stroke-opacity="0.6" stroke-width="2.0405" stroke-miterlimit="10"/>
<path d="M285.976 91.8338C290.697 72.1358 278.556 52.34 258.858 47.6186C239.16 42.8971 219.364 55.038 214.643 74.736C209.921 94.434 222.062 114.23 241.76 118.951C261.458 123.673 281.254 111.532 285.976 91.8338Z" fill="#BED0E5"/>
<path d="M237.444 96.4021C231.373 98.5643 226.973 104.003 225.719 110.504C232.224 116.388 240.849 119.974 250.311 119.974C259.774 119.974 268.398 116.388 274.903 110.504C273.649 104.001 269.249 98.5643 263.177 96.4021C258.692 94.8044 258.007 93.1544 257.922 92.5179C257.81 91.6875 258.414 90.9409 259.016 90.5203C262.351 88.1858 264.043 83.1683 264.043 75.607C264.043 66.5506 256.805 60.2383 250.31 60.2383C243.814 60.2383 236.577 66.5506 236.577 75.607C236.577 83.1694 238.268 88.1869 241.603 90.5203C242.206 90.942 242.81 91.6886 242.697 92.519C242.612 93.1544 241.929 94.8044 237.444 96.4021Z" fill="#0A5840"/>
<path d="M290.719 79.2379L370.96 36.8828" stroke="#0A5840" stroke-opacity="0.6" stroke-width="2.0405" stroke-miterlimit="10"/>
<path d="M290.719 87.3574L370.96 129.713" stroke="#0A5840" stroke-opacity="0.6" stroke-width="2.0405" stroke-miterlimit="10"/>
<path d="M343.023 65.166C348.654 59.5353 348.654 50.4061 343.023 44.7754C337.393 39.1447 328.264 39.1448 322.633 44.7754C317.002 50.4061 317.002 59.5353 322.633 65.166C328.264 70.7967 337.393 70.7967 343.023 65.166Z" fill="#F25353"/>
<path d="M336.667 48.8223C334.907 48.8223 333.42 49.9372 332.838 51.4934C332.256 49.9372 330.768 48.8223 329.008 48.8223C326.742 48.8223 325.027 50.6619 324.905 52.9255C324.637 57.8733 332.838 62.2827 332.838 62.2827C332.838 62.2827 341.039 57.8733 340.771 52.9255C340.648 50.6619 338.933 48.8223 336.667 48.8223Z" fill="white"/>
<path d="M420.132 34.2825C422.507 20.4294 413.203 7.27364 399.349 4.89826C385.496 2.52289 372.34 11.8274 369.965 25.6805C367.59 39.5336 376.894 52.6893 390.747 55.0647C404.601 57.44 417.756 48.1355 420.132 34.2825Z" stroke="#0A5840" stroke-opacity="0.6" stroke-width="2.0405" stroke-miterlimit="10"/>
<path d="M417.099 35.5876C420.215 23.3951 412.857 10.9853 400.664 7.86958C388.472 4.75383 376.062 12.112 372.946 24.3044C369.831 36.4969 377.189 48.9067 389.381 52.0224C401.574 55.1382 413.984 47.7801 417.099 35.5876Z" fill="#BED0E5"/>
<path d="M387.05 38.1124C383.278 39.4562 380.545 42.8336 379.766 46.8736C383.807 50.5289 389.165 52.7565 395.044 52.7565C400.923 52.7565 406.281 50.5289 410.322 46.8736C409.543 42.8336 406.81 39.4551 403.038 38.1124C400.251 37.1196 399.826 36.0941 399.773 35.6996C399.703 35.1841 400.078 34.7198 400.453 34.4582C402.525 33.0077 403.575 29.8908 403.575 25.1925C403.575 19.5657 399.079 15.6445 395.044 15.6445C391.008 15.6445 386.513 19.5657 386.513 25.1925C386.513 29.8908 387.563 33.0077 389.635 34.4582C390.009 34.7198 390.385 35.1841 390.315 35.7006C390.262 36.0952 389.837 37.1207 387.05 38.1124Z" fill="#0A5840"/>
<path d="M421.524 134.21C423.759 120.333 414.322 107.272 400.445 105.038C386.569 102.803 373.508 112.241 371.273 126.118C369.038 139.995 378.476 153.056 392.352 155.29C406.229 157.525 419.289 148.087 421.524 134.21Z" stroke="#0A5840" stroke-opacity="0.6" stroke-width="2.0405" stroke-miterlimit="10"/>
<path d="M405.221 151.183C416.821 146.305 422.27 132.948 417.393 121.348C412.515 109.748 399.158 104.299 387.558 109.176C375.958 114.054 370.509 127.411 375.386 139.011C380.264 150.611 393.621 156.06 405.221 151.183Z" fill="#BED0E5"/>
<path d="M388.409 138.32C384.638 139.664 381.904 143.043 381.125 147.083C385.166 150.738 390.525 152.965 396.403 152.965C402.282 152.965 407.641 150.738 411.682 147.083C410.903 143.043 408.169 139.664 404.397 138.321C401.611 137.329 401.186 136.303 401.132 135.909C401.062 135.393 401.437 134.929 401.812 134.667C403.884 133.217 404.935 130.1 404.935 125.402C404.935 119.775 400.438 115.854 396.403 115.854C392.369 115.854 387.872 119.775 387.872 125.402C387.872 130.1 388.923 133.217 390.995 134.667C391.368 134.929 391.744 135.393 391.675 135.91C391.62 136.302 391.195 137.327 388.409 138.32Z" fill="#0A5840"/>
<path d="M209.241 79.2379L129 36.8828" stroke="#0A5840" stroke-opacity="0.6" stroke-width="2.0405" stroke-miterlimit="10"/>
<path d="M209.241 87.3574L129 129.713" stroke="#0A5840" stroke-opacity="0.6" stroke-width="2.0405" stroke-miterlimit="10"/>
<path d="M108.925 55.108C122.805 52.8888 132.257 39.8379 130.038 25.9582C127.818 12.0784 114.768 2.62569 100.888 4.84495C87.0092 7.06421 77.557 20.1151 79.7763 33.9948C81.9957 47.8746 95.0462 57.3273 108.925 55.108Z" stroke="#0A5840" stroke-opacity="0.6" stroke-width="2.0405" stroke-miterlimit="10"/>
<path d="M125.851 38.937C130.8 27.3675 125.433 13.9763 113.864 9.02712C102.294 4.0779 88.9028 9.44476 83.9536 21.0143C79.0043 32.5839 84.3712 45.975 95.9409 50.9242C107.511 55.8735 120.902 50.5066 125.851 38.937Z" fill="#BED0E5"/>
<path d="M112.897 38.1124C116.669 39.4562 119.403 42.8336 120.182 46.8736C116.141 50.5289 110.782 52.7565 104.903 52.7565C99.0248 52.7565 93.6661 50.5289 89.625 46.8736C90.4042 42.8336 93.1375 39.4551 96.9094 38.1124C99.6962 37.1196 100.121 36.0941 100.175 35.6996C100.244 35.1841 99.8694 34.7198 99.4945 34.4582C97.4228 33.0077 96.3722 29.8908 96.3722 25.1925C96.3722 19.5657 100.869 15.6445 104.903 15.6445C108.938 15.6445 113.435 19.5657 113.435 25.1925C113.435 29.8908 112.384 33.0077 110.312 34.4582C109.938 34.7198 109.562 35.1841 109.632 35.7006C109.686 36.0952 110.111 37.1207 112.897 38.1124Z" fill="#0A5840"/>
<path d="M107.558 155.325C121.438 153.106 130.89 140.055 128.67 126.175C126.451 112.295 113.4 102.842 99.5212 105.062C85.642 107.281 76.1898 120.332 78.4092 134.212C80.6285 148.091 93.679 157.544 107.558 155.325Z" stroke="#0A5840" stroke-opacity="0.6" stroke-width="2.0405" stroke-miterlimit="10"/>
<path d="M119.281 146.65C128.375 137.953 128.698 123.53 120.001 114.436C111.304 105.342 96.8815 105.019 87.7871 113.716C78.6928 122.413 78.3704 136.835 87.0671 145.93C95.7639 155.024 110.186 155.346 119.281 146.65Z" fill="#BED0E5"/>
<path d="M111.53 138.322C115.302 139.666 118.035 143.045 118.815 147.084C114.772 150.74 109.415 152.967 103.536 152.967C97.6576 152.967 92.2989 150.74 88.2578 147.084C89.037 143.045 91.7703 139.666 95.5423 138.323C98.329 137.331 98.754 136.305 98.8074 135.91C98.8772 135.395 98.5023 134.931 98.1273 134.669C96.0556 133.219 95.005 130.102 95.005 125.403C95.005 119.777 99.5016 115.855 103.536 115.855C107.572 115.855 112.067 119.777 112.067 125.403C112.067 130.102 111.017 133.219 108.945 134.669C108.571 134.931 108.195 135.395 108.265 135.912C108.319 136.304 108.745 137.329 111.53 138.322Z" fill="#0A5840"/>
<path d="M170.512 115.855C170.512 123.269 164.502 129.28 157.088 129.28C149.673 129.28 143.664 123.269 143.664 115.855C143.664 108.441 149.674 102.432 157.088 102.432C164.502 102.431 170.512 108.441 170.512 115.855Z" fill="#0A5840"/>
<path d="M154.352 120.415C154.352 120.415 158.371 121.579 162.539 120.96C163.892 120.734 165.638 115.663 164.568 112.622C164.076 111.227 159.51 111.946 159.51 111.946C159.51 111.946 160.003 110.368 159.779 109.298C159.553 108.228 158.709 107.213 157.779 107.298C156.849 107.382 156.793 107.89 156.963 108.819C157.132 109.749 156.963 111.016 156.597 111.468C156.335 111.789 155.96 112.296 155.766 112.806C155.627 113.171 155.277 113.412 154.886 113.412H154.353V120.415H154.352Z" fill="white"/>
<path d="M150.012 121.14H152.829C153.15 121.14 153.411 120.88 153.411 120.558V113.371C153.411 113.05 153.15 112.789 152.829 112.789H150.012C149.69 112.789 149.43 113.05 149.43 113.371V120.558C149.43 120.88 149.69 121.14 150.012 121.14Z" fill="white"/>
<path d="M178.147 57.5648C179.247 50.7888 174.645 44.4042 167.869 43.3045C161.093 42.2048 154.708 46.8063 153.608 53.5824C152.509 60.3585 157.11 66.7431 163.886 67.8428C170.663 68.9425 177.047 64.3409 178.147 57.5648Z" fill="#FFC840"/>
<path d="M165.875 43.1445V68.0035C172.74 68.0035 178.305 62.4389 178.305 55.574C178.305 48.7092 172.74 43.1445 165.875 43.1445Z" fill="#F9B826"/>
<path d="M171.212 54.2841C172.024 54.2841 172.683 53.6259 172.683 52.8139C172.683 52.002 172.024 51.3438 171.212 51.3438C170.4 51.3438 169.742 52.002 169.742 52.8139C169.742 53.6259 170.4 54.2841 171.212 54.2841Z" fill="#212121"/>
<path d="M160.533 54.2841C161.345 54.2841 162.003 53.6259 162.003 52.8139C162.003 52.002 161.345 51.3438 160.533 51.3438C159.721 51.3438 159.062 52.002 159.062 52.8139C159.062 53.6259 159.721 54.2841 160.533 54.2841Z" fill="#212121"/>
<path d="M165.882 63.7411C169.444 63.7411 172.367 61.0078 172.668 57.5236C172.695 57.2054 172.447 56.9297 172.128 56.9297H159.635C159.316 56.9297 159.069 57.2065 159.096 57.5236C159.398 61.0078 162.321 63.7411 165.882 63.7411Z" fill="#212121"/>
<path d="M162.164 62.6373C163.232 63.3326 164.504 63.7402 165.874 63.7402C167.243 63.7402 168.516 63.3326 169.584 62.6373C169.108 61.0374 167.628 59.8691 165.874 59.8691C164.119 59.8702 162.639 61.0374 162.164 62.6373Z" fill="#F65066"/>
<path d="M165.875 59.8691V63.7402C167.244 63.7402 168.517 63.3326 169.585 62.6373C169.11 61.0363 167.63 59.8691 165.875 59.8691Z" fill="#DD2C4A"/>
<path d="M344.925 111.402C346.51 104.723 342.38 98.0231 335.701 96.438C329.022 94.853 322.322 98.9827 320.737 105.662C319.152 112.341 323.282 119.041 329.961 120.626C336.64 122.211 343.34 118.081 344.925 111.402Z" fill="#FFC840"/>
<path d="M332.828 96.1055V120.964C339.693 120.964 345.258 115.4 345.258 108.535C345.258 101.67 339.693 96.1055 332.828 96.1055Z" fill="#F9B826"/>
<path d="M332.82 116.702C336.381 116.702 339.304 113.969 339.605 110.485C339.632 110.166 339.385 109.891 339.066 109.891H326.573C326.253 109.891 326.006 110.166 326.033 110.485C326.335 113.969 329.258 116.702 332.82 116.702Z" fill="#212121"/>
<path d="M329.117 115.598C330.185 116.294 331.457 116.701 332.827 116.701C334.197 116.701 335.469 116.294 336.537 115.598C336.062 113.998 334.582 112.83 332.827 112.83C331.071 112.83 329.592 113.998 329.117 115.598Z" fill="#F65066"/>
<path d="M332.828 112.83V116.701C334.197 116.701 335.47 116.294 336.538 115.598C336.063 113.998 334.583 112.83 332.828 112.83Z" fill="#DD2C4A"/>
<path d="M339.782 106.578L336.367 105.177L339.31 102.658" stroke="#212121" stroke-width="0.8211" stroke-miterlimit="10" stroke-linecap="round" stroke-linejoin="round"/>
<path d="M325.875 106.578L329.289 105.177L326.347 102.658" stroke="#212121" stroke-width="0.8211" stroke-miterlimit="10" stroke-linecap="round" stroke-linejoin="round"/>
<path d="M420.484 30.2617L464.231 61.8264" stroke="#0A5840" stroke-opacity="0.6" stroke-width="2.0405" stroke-miterlimit="10"/>
<path d="M421.852 128.906L464.292 98.3535" stroke="#0A5840" stroke-opacity="0.6" stroke-width="2.0405" stroke-miterlimit="10"/>
<path d="M492.109 87.9884C496.467 77.6098 491.585 65.6636 481.206 61.3059C470.827 56.9483 458.88 61.8292 454.523 72.2078C450.165 82.5865 455.047 94.5326 465.426 98.8903C475.805 103.248 487.752 98.367 492.109 87.9884Z" stroke="#0A5840" stroke-opacity="0.6" stroke-width="2.0405" stroke-miterlimit="10"/>
<path d="M490.128 87.1461C494.025 77.8515 489.649 67.158 480.354 63.2616C471.059 59.3651 460.366 63.7412 456.469 73.0358C452.573 82.3304 456.949 93.0239 466.244 96.9204C475.538 100.817 486.232 96.4407 490.128 87.1461Z" fill="#BED0E5"/>
<path d="M479.724 86.5938C482.745 87.6694 484.935 90.3755 485.559 93.6112C482.322 96.5385 478.031 98.3225 473.323 98.3225C468.615 98.3225 464.323 96.5385 461.086 93.6112C461.71 90.3755 463.899 87.6705 466.92 86.5938C469.152 85.7993 469.492 84.9775 469.534 84.6615C469.59 84.2485 469.29 83.8768 468.989 83.6676C467.33 82.5058 466.488 80.009 466.488 76.2469C466.488 71.7405 470.089 68.5996 473.322 68.5996C476.553 68.5996 480.155 71.7405 480.155 76.2469C480.155 80.0101 479.313 82.5069 477.654 83.6676C477.354 83.8779 477.053 84.2485 477.109 84.6626C477.152 84.9776 477.492 85.7993 479.724 86.5938Z" fill="#0A5840"/>
<path d="M79.4658 30.2637L35.7188 61.8284" stroke="#0A5840" stroke-opacity="0.6" stroke-width="2.0405" stroke-miterlimit="10"/>
<path d="M78.0809 128.908L35.6406 98.3555" stroke="#0A5840" stroke-opacity="0.6" stroke-width="2.0405" stroke-miterlimit="10"/>
<path d="M34.4324 98.912C44.8331 94.6038 49.7722 82.6805 45.4642 72.2805C41.1563 61.8805 29.2326 56.942 18.832 61.2502C8.43138 65.5583 3.49228 77.4817 7.80022 87.8817C12.1082 98.2817 24.0318 103.22 34.4324 98.912Z" stroke="#0A5840" stroke-opacity="0.6" stroke-width="2.0405" stroke-miterlimit="10"/>
<path d="M33.6176 96.94C42.9294 93.0828 47.3512 82.4074 43.4941 73.0956C39.6369 63.7839 28.9614 59.362 19.6496 63.2192C10.3378 67.0763 5.9159 77.7518 9.77306 87.0635C13.6302 96.3753 24.3058 100.797 33.6176 96.94Z" fill="#BED0E5"/>
<path d="M20.2245 86.5977C17.2035 87.6733 15.014 90.3794 14.3906 93.6151C17.6274 96.5424 21.9192 98.3264 26.6273 98.3264C31.3354 98.3264 35.6271 96.5424 38.8639 93.6151C38.2395 90.3794 36.0511 87.6744 33.029 86.5977C30.797 85.8032 30.457 84.9815 30.4145 84.6654C30.3589 84.2524 30.6586 83.8807 30.9594 83.6715C32.6192 82.5097 33.4605 80.0129 33.4605 76.2508C33.4605 71.7444 29.8597 68.6035 26.6273 68.6035C23.3948 68.6035 19.794 71.7444 19.794 76.2508C19.794 80.014 20.6354 82.5108 22.2952 83.6715C22.5949 83.8818 22.8957 84.2524 22.8401 84.6665C22.7965 84.9815 22.4565 85.8032 20.2245 86.5977Z" fill="#0A5840"/>
</svg>
