<svg width="557" height="401" viewBox="0 0 557 401" fill="none" xmlns="http://www.w3.org/2000/svg">
<path d="M34.3846 363.425C34.3846 363.425 -1.51554 315.147 10.8743 250.79C24.1193 181.993 109.936 172.588 152.328 106.22C194.719 39.85 265.656 14.2956 339.409 26.3755C430.042 41.2192 440.657 163.766 473.326 195.904C505.994 228.041 561.544 310.621 496.925 363.427L34.3846 363.425Z" fill="#D8DCE5"/>
<path d="M494.886 364.172H35.9139C35.2971 364.172 34.7175 363.875 34.357 363.373L33.8594 362.682H497.83L496.819 363.492C496.27 363.932 495.588 364.172 494.886 364.172Z" fill="#A6AAAD"/>
<path d="M243.469 36.1211H7.4494C3.33584 36.1211 0 39.4569 0 43.5705V391.095C0 395.209 3.33584 398.545 7.4494 398.545H243.467C247.581 398.545 250.917 395.209 250.917 391.095V43.5705C250.918 39.4554 247.582 36.1211 243.469 36.1211Z" fill="#F0F0F0"/>
<path d="M151.899 97.9297H12.9766V299.913H151.899V97.9297Z" fill="white"/>
<path d="M243.469 36.1211H7.4494C3.33584 36.1211 0 39.4569 0 43.5705V86.4358H250.917V43.5705C250.918 39.4554 247.582 36.1211 243.469 36.1211Z" fill="#0A5840"/>
<path d="M32.6237 130.723V117.58H27.9038V113.929H42.2461V117.58H37.5262V130.723H32.6237Z" fill="#0A5840"/>
<path d="M137.253 117.828H55.2422V122.003H137.253V117.828Z" fill="#455A64"/>
<path d="M110.488 126.398H55.2422V130.573H110.488V126.398Z" fill="#455A64"/>
<path d="M137.253 135.387H55.2422V139.561H137.253V135.387Z" fill="#455A64"/>
<path d="M137.25 144.41H27.6172V148.585H137.25V144.41Z" fill="#455A64"/>
<path d="M121.14 153.291H27.6172V157.466H121.14V153.291Z" fill="#455A64"/>
<path d="M129.951 162.174H27.6172V166.348H129.951V162.174Z" fill="#455A64"/>
<path d="M137.25 225.846H27.6172V230.02H137.25V225.846Z" fill="#455A64"/>
<path d="M121.14 234.729H27.6172V238.903H121.14V234.729Z" fill="#455A64"/>
<path d="M129.951 243.611H27.6172V247.786H129.951V243.611Z" fill="#455A64"/>
<path d="M121.14 260.996H27.6172V265.171H121.14V260.996Z" fill="#455A64"/>
<path d="M129.951 269.879H27.6172V274.054H129.951V269.879Z" fill="#455A64"/>
<path d="M137.254 172.523H27.7578V218.906H137.254V172.523Z" fill="#0A5840"/>
<path d="M240.967 97.9297H160.852V117.829H240.967V97.9297Z" fill="#0A5840"/>
<path d="M240.967 246.17H160.852V266.069H240.967V246.17Z" fill="#0A5840"/>
<path d="M240.968 308.232H12.9766V328.131H240.968V308.232Z" fill="#0A5840"/>
<path d="M240.967 122.115H160.852V240.392H240.967V122.115Z" fill="#AFAFAF"/>
<path d="M227.704 382.376H26.241C18.9152 382.376 12.9766 376.437 12.9766 369.111V328.131H240.968V369.113C240.968 376.437 235.03 382.376 227.704 382.376Z" fill="#AFAFAF"/>
<path d="M20.1281 64.2871V55.074H25.1925C26.1271 55.074 26.8377 55.2934 27.3241 55.7321C27.8105 56.1708 28.0537 56.8003 28.0537 57.6205C28.0537 58.0974 27.9631 58.4979 27.7819 58.8222C27.6102 59.1465 27.3813 59.404 27.0952 59.5947C27.4862 59.7473 27.7962 59.9715 28.0251 60.2671C28.2635 60.5532 28.3827 60.9824 28.3827 61.5547C28.3827 62.4226 28.1157 63.0949 27.5816 63.5718C27.0475 64.0487 26.2893 64.2871 25.3069 64.2871H20.1281ZM22.7175 58.7507H24.4629C25.1209 58.7507 25.45 58.455 25.45 57.8637C25.45 57.5681 25.3689 57.3439 25.2068 57.1913C25.0542 57.0387 24.7824 56.9624 24.3913 56.9624H22.7175V58.7507ZM22.7175 62.413H24.5773C24.9397 62.413 25.2068 62.3367 25.3784 62.1841C25.5501 62.0315 25.636 61.7788 25.636 61.4259C25.636 61.1303 25.5501 60.9061 25.3784 60.7535C25.2068 60.6009 24.9207 60.5246 24.5201 60.5246H22.7175V62.413ZM29.3907 64.2871V55.074H32.0802V62.227H36.229V64.2871H29.3907ZM41.2297 64.4302C39.7037 64.4302 38.5354 64.0582 37.7247 63.3143C36.9236 62.5704 36.523 61.3687 36.523 59.7092C36.523 58.5647 36.7043 57.6444 37.0667 56.9481C37.4291 56.2424 37.9584 55.7321 38.6546 55.4174C39.3604 55.0931 40.2188 54.931 41.2297 54.931C42.2407 54.931 43.0943 55.0931 43.7905 55.4174C44.4963 55.7321 45.0303 56.2424 45.3928 56.9481C45.7552 57.6444 45.9364 58.5647 45.9364 59.7092C45.9364 61.3687 45.5311 62.5704 44.7204 63.3143C43.9097 64.0582 42.7462 64.4302 41.2297 64.4302ZM41.2297 62.1412C41.9164 62.1412 42.4123 61.9505 42.7175 61.569C43.0323 61.1779 43.1896 60.558 43.1896 59.7092C43.1896 58.8031 43.0323 58.1641 42.7175 57.7922C42.4123 57.4107 41.9164 57.2199 41.2297 57.2199C40.543 57.2199 40.0423 57.4107 39.7276 57.7922C39.4224 58.1641 39.2698 58.8031 39.2698 59.7092C39.2698 60.558 39.4224 61.1779 39.7276 61.569C40.0423 61.9505 40.543 62.1412 41.2297 62.1412ZM51.6875 64.4302C50.0471 64.4302 48.7977 64.0296 47.9393 63.2285C47.081 62.4178 46.6518 61.2638 46.6518 59.7664C46.6518 58.2214 47.0953 57.0292 47.9823 56.1899C48.8692 55.3506 50.1663 54.931 51.8735 54.931C52.4457 54.931 52.9607 54.9644 53.4185 55.0311C53.8859 55.0979 54.3246 55.198 54.7347 55.3316V57.6348C54.3151 57.4727 53.8811 57.363 53.4328 57.3058C52.9846 57.2486 52.5268 57.2199 52.0595 57.2199C51.1725 57.2199 50.5049 57.4202 50.0566 57.8208C49.6179 58.2214 49.3986 58.8699 49.3986 59.7664C49.3986 60.6057 49.5893 61.2113 49.9708 61.5833C50.3618 61.9552 50.9341 62.1412 51.6875 62.1412C51.9355 62.1412 52.1692 62.1269 52.3885 62.0983C52.6079 62.0601 52.8129 62.0125 53.0037 61.9552V60.6105H51.1725V58.951H55.2497V63.5861C54.8968 63.8055 54.4247 64.001 53.8334 64.1727C53.2516 64.3443 52.5363 64.4302 51.6875 64.4302Z" fill="white"/>
<path d="M533.587 170.518V166.503C535.391 166.117 538.781 165.197 538.346 163.807C537.756 161.924 533.627 162.423 533.627 162.423C533.627 162.423 539.037 161.811 538.271 159.566C537.732 157.985 535.102 157.671 533.587 157.621V157.11C537.258 156.471 538.375 154.238 537.736 152.641C537.097 151.045 533.587 151.364 533.587 151.364C533.587 151.364 529.117 169.56 529.117 170.04C529.117 170.519 531.671 176.585 533.587 176.264C535.501 175.945 539.493 173.392 537.906 171.157C536.319 168.921 533.587 170.518 533.587 170.518Z" fill="#DD8762"/>
<path d="M510.164 190.859C510.154 191.374 510.568 191.798 511.084 191.798H531.917C533.074 191.798 534.02 190.874 534.047 189.716L534.518 137.979C534.527 136.955 534.02 135.997 533.168 135.429C532.989 135.31 532.776 135.258 532.563 135.28L512.042 137.408C511.58 137.456 511.227 137.84 511.218 138.305L510.164 190.859Z" fill="#455A64"/>
<path d="M529.675 140.169V186.899C529.675 187.424 529.249 187.85 528.725 187.85L514.06 187.66C513.535 187.66 513.109 187.234 513.109 186.71L513.585 141.304C513.585 140.819 513.95 140.412 514.432 140.36L528.622 139.224C529.184 139.163 529.675 139.603 529.675 140.169Z" fill="#9FC2FF"/>
<path d="M533.173 135.427C532.994 135.308 532.781 135.256 532.568 135.278L532.373 135.299L531.781 191.797H531.921C533.079 191.797 534.025 190.873 534.052 189.716L534.523 137.978C534.532 136.953 534.024 135.995 533.173 135.427Z" fill="#263238"/>
<path d="M514.737 138.766C514.737 139.171 514.474 139.499 514.15 139.499C513.825 139.499 513.562 139.171 513.562 138.766C513.562 138.361 513.825 138.033 514.15 138.033C514.473 138.033 514.737 138.362 514.737 138.766Z" fill="#263238"/>
<path d="M517.317 139.004C517.029 139.004 516.785 138.783 516.76 138.491C516.734 138.184 516.964 137.915 517.271 137.889L525.48 137.209C525.812 137.186 526.058 137.413 526.083 137.72C526.109 138.026 525.879 138.296 525.572 138.321L517.363 139.002C517.347 139.002 517.332 139.004 517.317 139.004Z" fill="#263238"/>
<path d="M514.734 191.789C517.235 186.932 516.431 182.086 516.516 179.642C516.605 177.093 521.225 171.545 521.825 166.296C522.426 161.047 519.276 158.797 517.477 162.247C515.677 165.696 510.878 171.394 510.878 171.394V155.797C510.878 155.797 509.428 157.428 508.229 158.328C507.029 159.228 501.547 164.385 501.702 171.993C501.855 179.604 500.231 194.637 498.881 198.686C497.532 202.736 495.133 205.584 495.133 205.584L508.516 212.183C508.516 212.183 514.328 209.483 516.516 207.534C518.704 205.586 519.726 197.637 519.726 197.637L521.901 191.789H514.734Z" fill="#FFBE9D"/>
<path d="M521.893 191.789H514.727L520.747 194.87L521.893 191.789Z" fill="#DD8762"/>
<path d="M507.41 180.019C507.182 178.399 507.505 176.783 508.068 175.28C508.652 173.788 509.554 172.36 510.869 171.393C510.26 172.897 509.644 174.25 509.108 175.683C508.545 177.1 508.053 178.534 507.41 180.019Z" fill="#DD8762"/>
<path d="M516.553 182.227C517.363 184.923 516.982 187.878 516.066 190.528C515.552 191.842 514.959 193.134 514.135 194.278C513.364 195.454 512.39 196.479 511.352 197.398C512.061 196.194 512.768 195.034 513.387 193.83C514.029 192.641 514.543 191.4 515.015 190.15C515.48 188.894 515.82 187.599 516.091 186.282C516.338 184.96 516.539 183.617 516.553 182.227Z" fill="#DD8762"/>
<path d="M514.162 213.076L497.435 204.004C496.318 203.398 494.925 203.74 494.214 204.794L470.43 240.108C468.392 243.283 467.453 243.693 464.298 241.623L439.819 229.164C424.913 222.253 414.951 215.469 400.425 215.473L382.961 215.479C382.961 215.479 382.178 215.452 380.778 215.478C352.212 216.008 327.205 234.819 318.428 262.009L287.617 357.466H314.195L346.584 264.936L345.708 357.466H422.688V257.449L442.62 266.212C455.169 272.759 475.038 280.621 485.861 261.65C486.33 260.826 486.796 260.003 487.313 259.207L515.049 216.587C515.838 215.382 515.429 213.763 514.162 213.076Z" fill="#0A5840"/>
<path d="M360 188.387V220.522H360.046C360.536 232.778 370.599 242.571 382.975 242.571C395.352 242.571 405.415 232.778 405.905 220.522H405.951V188.387H360Z" fill="#EB996E"/>
<path d="M328.882 153.012C328.882 153.012 319.289 142.684 319.289 115.175C319.289 87.6658 342.956 68.9932 364.696 67.2187C386.438 65.4443 389.987 57.0131 394.868 61.0074C399.749 65.0018 385.386 73.874 385.386 73.874C385.386 73.874 426.37 58.345 431.251 63.6683C436.131 68.9932 415.278 76.5349 415.278 76.5349C415.278 76.5349 440.251 82.9057 444.688 96.2162C449.125 109.527 437.462 109.971 437.462 109.971C437.462 109.971 445.695 131.233 435.37 160.108C424.13 191.543 353.145 195.019 351.813 194.133C350.483 193.248 328.882 153.012 328.882 153.012Z" fill="#263238"/>
<path d="M430.138 146.505C430.099 146.505 430.062 146.508 430.023 146.511C429.944 147.941 429.882 148.828 429.882 148.828L428.022 163.767C427.754 165.927 424.858 166.486 423.836 164.565C421.316 159.835 418.949 151.279 422.475 137.906C420.476 134.674 418.998 131.122 418.153 127.368L417.644 125.1C407.582 127.706 407.107 125.143 400.41 122.107C400.36 122.084 400.298 122.141 400.34 122.178C402.842 124.424 409.61 131.203 404.773 134.953C399.437 139.088 382.141 125.069 378.764 122.718C378.628 122.624 378.454 122.758 378.51 122.911C379.299 125.03 381.739 132.377 378.195 133.625C372.757 135.541 362.816 120.513 359.99 116.019C359.839 115.781 359.474 115.924 359.525 116.201C360.07 119.166 360.842 125.849 357.104 127.485C353.604 129.017 349.79 121.697 347.943 117.518C347.645 116.843 346.667 117.011 346.579 117.744C345.827 124.091 343.537 130.185 341.156 135.105C345.812 150.097 343.293 159.512 340.602 164.564C339.578 166.486 336.684 165.926 336.415 163.765L334.556 148.826C334.556 148.826 334.493 147.941 334.415 146.516C324.927 146.644 317.273 154.363 317.273 163.88C317.273 173.478 325.054 181.258 334.651 181.258C334.866 181.258 335.073 181.234 335.285 181.227C339.198 203.684 358.77 222.251 382.345 222.251C405.924 222.251 425.5 203.681 429.412 181.222C429.655 181.233 429.893 181.26 430.139 181.26C439.737 181.26 447.517 173.479 447.517 163.882C447.516 154.285 439.736 146.505 430.138 146.505Z" fill="#FFBE9D"/>
<path d="M366.594 186.033C369.466 188.733 372.377 191.115 375.676 192.738C377.299 193.602 379.054 194.122 380.853 194.497C382.671 194.922 384.542 194.855 386.542 194.899C384.754 195.701 382.728 196.266 380.678 196.12C378.635 196.056 376.579 195.54 374.751 194.612C372.926 193.679 371.264 192.464 369.883 190.999C368.505 189.542 367.324 187.891 366.594 186.033Z" fill="#263238"/>
<path d="M361.31 158.909C361.31 161.155 359.487 162.978 357.241 162.978C354.994 162.978 353.172 161.155 353.172 158.909C353.172 156.662 354.994 154.84 357.241 154.84C359.487 154.84 361.31 156.662 361.31 158.909Z" fill="#263238"/>
<path d="M353.192 154.841C353.01 153.122 354.098 151.377 355.573 150.309C357.083 149.251 358.902 148.81 360.619 148.74C361.468 148.669 362.435 148.781 363.326 148.998C364.223 149.268 365.088 149.671 365.818 150.253C367.261 151.425 368.166 153.128 368.15 154.841C367.037 153.579 365.844 152.693 364.624 152.149C363.377 151.632 362.137 151.456 360.717 151.517C359.279 151.553 357.898 151.717 356.614 152.18C355.348 152.651 354.123 153.451 353.192 154.841Z" fill="#263238"/>
<path d="M351.133 145.176C353.844 144.681 359.284 143.944 366.941 144.119C367.857 144.14 368.463 143.4 367.997 142.817C366.824 141.35 364.219 139.268 358.999 139.609C353.1 139.994 350.725 142.334 349.78 143.97C349.394 144.636 350.179 145.348 351.133 145.176Z" fill="#263238"/>
<path d="M395.961 158.909C395.961 161.155 397.783 162.978 400.03 162.978C402.277 162.978 404.099 161.155 404.099 158.909C404.099 156.662 402.277 154.84 400.03 154.84C397.782 154.84 395.961 156.662 395.961 158.909Z" fill="#263238"/>
<path d="M410.929 154.841C411.111 153.122 410.023 151.377 408.548 150.309C407.039 149.251 405.218 148.81 403.502 148.74C402.653 148.669 401.686 148.781 400.795 148.998C399.898 149.268 399.032 149.671 398.302 150.253C396.86 151.425 395.954 153.128 395.969 154.841C397.083 153.579 398.275 152.693 399.495 152.149C400.743 151.632 401.982 151.456 403.402 151.517C404.84 151.553 406.221 151.717 407.505 152.18C408.774 152.651 409.998 153.451 410.929 154.841Z" fill="#263238"/>
<path d="M411.251 145.176C408.54 144.681 403.1 143.944 395.444 144.119C394.528 144.14 393.921 143.4 394.388 142.817C395.56 141.35 398.166 139.268 403.385 139.609C409.285 139.994 411.66 142.334 412.604 143.97C412.989 144.636 412.205 145.348 411.251 145.176Z" fill="#263238"/>
<path d="M383.391 155.822C384.835 158.882 386.082 162.007 387.26 165.152C388.451 168.294 389.525 171.473 390.577 174.66L391.329 177.062C391.646 178.013 391.678 179.155 391.348 180.143C390.709 182.144 388.696 183.597 386.649 183.494C383.27 183.348 379.931 183.115 376.57 182.682C379.921 182.245 383.294 182.022 386.627 181.862C387.968 181.763 389.142 180.808 389.456 179.562C389.61 178.944 389.613 178.33 389.385 177.692L388.589 175.304C387.578 172.104 386.587 168.897 385.714 165.653C384.827 162.412 384.011 159.149 383.391 155.822Z" fill="#263238"/>
<path d="M330.528 153.539C328.242 154.472 326.235 155.96 324.858 157.845C323.447 159.721 322.874 162.063 322.871 164.391C322.826 166.742 323.432 169.074 324.757 170.983C326.104 172.875 328.176 174.301 330.528 175.05C328.066 174.835 325.575 173.672 323.899 171.652C322.205 169.64 321.446 166.952 321.477 164.39C321.495 161.826 322.245 159.116 324.01 157.168C325.698 155.188 328.088 153.953 330.528 153.539Z" fill="#DD8762"/>
<path d="M433.578 175.052C435.865 174.119 437.872 172.631 439.249 170.746C440.66 168.87 441.233 166.528 441.236 164.2C441.281 161.849 440.674 159.517 439.35 157.608C438.003 155.716 435.931 154.29 433.578 153.541C436.041 153.756 438.532 154.919 440.21 156.939C441.904 158.951 442.66 161.639 442.631 164.201C442.613 166.765 441.863 169.475 440.098 171.423C438.408 173.404 436.019 174.639 433.578 175.052Z" fill="#DD8762"/>
<path d="M381.014 124.371C383.408 125.976 385.787 127.58 388.264 129.018C390.711 130.492 393.216 131.867 395.781 133.009C397.067 133.57 398.378 134.054 399.686 134.392C400.986 134.723 402.335 134.846 403.39 134.538C403.888 134.346 404.327 134.118 404.63 133.713C404.938 133.285 405.171 132.84 405.195 132.315C405.305 131.265 404.864 129.998 404.247 128.833C403.018 126.454 401.188 124.261 399.301 122.176C397.423 120.062 395.36 118.093 393.299 116.119C389.123 112.224 384.803 108.441 380.398 104.729C385.315 107.74 390.029 111.089 394.458 114.815C396.689 116.662 398.816 118.637 400.85 120.734C402.852 122.86 404.78 125.1 406.234 127.814C406.909 129.18 407.543 130.73 407.361 132.564C407.289 133.48 406.854 134.38 406.296 135.079C405.712 135.825 404.835 136.311 403.98 136.563C402.236 136.987 400.633 136.683 399.177 136.275C397.712 135.852 396.349 135.25 395.041 134.578C389.82 131.873 385.251 128.275 381.014 124.371Z" fill="#455A64"/>
<path d="M399.977 121.334C401.837 122.471 403.724 123.372 405.668 124.004C407.612 124.609 409.592 125.018 411.592 124.978C412.089 125.041 412.587 124.939 413.086 124.931C413.587 124.919 414.084 124.865 414.577 124.761C415.074 124.679 415.577 124.619 416.075 124.521C416.56 124.373 417.054 124.247 417.554 124.126C418.062 124.028 418.545 123.847 419.029 123.661L420.515 123.146C421.496 122.763 422.447 122.289 423.499 121.928C422.733 122.696 421.914 123.435 421.039 124.11C420.097 124.665 419.208 125.376 418.155 125.763C416.14 126.769 413.841 127.159 411.566 127.212C409.276 127.207 407.001 126.626 404.996 125.607C402.995 124.6 401.209 123.155 399.977 121.334Z" fill="#455A64"/>
<path d="M370.82 111.287C372.465 112.574 373.879 114.094 375.162 115.714C376.458 117.327 377.575 119.082 378.55 120.933C379.474 122.805 380.277 124.785 380.588 126.929C380.755 127.992 380.785 129.099 380.588 130.18C380.376 131.251 379.923 132.314 379.144 133.027C379.856 131.05 379.456 129.145 378.888 127.315C378.286 125.487 377.468 123.702 376.561 121.949C374.772 118.41 372.677 114.998 370.82 111.287Z" fill="#455A64"/>
<path d="M399.383 74.6115C401.163 74.3702 402.964 74.3925 404.763 74.4059C406.557 74.5028 408.352 74.6592 410.137 74.911C413.705 75.4101 417.23 76.2698 420.634 77.4721C424.024 78.7012 427.36 80.1285 430.439 82.0088C432.014 82.8833 433.483 83.9307 434.967 84.9409C436.418 86.0002 437.783 87.1757 439.142 88.3333C436.083 86.462 433.087 84.5565 429.891 83.0174C426.74 81.4054 423.47 80.0525 420.143 78.88C416.825 77.6687 413.395 76.7927 409.939 76.0373C406.475 75.3118 402.956 74.8022 399.383 74.6115Z" fill="#455A64"/>
<path d="M437.455 109.974C434.92 111.031 432.125 111.325 429.391 111.359C426.64 111.387 423.907 111.006 421.227 110.443C418.553 109.842 415.951 108.974 413.447 107.898C412.189 107.375 410.988 106.721 409.779 106.11C408.605 105.419 407.443 104.713 406.328 103.934C407.659 104.267 408.931 104.699 410.209 105.102L414.041 106.259C415.333 106.583 416.577 107.04 417.872 107.319C419.143 107.679 420.424 107.989 421.713 108.262C424.28 108.846 426.869 109.302 429.485 109.623C432.106 109.908 434.745 110.12 437.455 109.974Z" fill="#455A64"/>
<path d="M353.168 126.118C351.533 124.866 350.244 123.198 349.154 121.459C348.05 119.713 347.195 117.831 346.451 115.918C345.715 113.998 345.171 112.016 344.742 110.015C344.535 109.014 344.391 107.999 344.236 106.992C344.16 105.969 344.036 104.957 344.008 103.934C344.66 105.875 345.264 107.801 345.867 109.719C346.515 111.621 347.105 113.534 347.844 115.389C348.54 117.259 349.307 119.101 350.168 120.899C351.061 122.679 351.958 124.475 353.168 126.118Z" fill="#455A64"/>
<path d="M466.467 400.121H294.345C288.828 400.121 284.196 395.967 283.595 390.483L274.042 303.176C273.342 296.777 278.354 291.186 284.791 291.186H476.019C482.457 291.186 487.469 296.776 486.769 303.176L477.215 390.483C476.618 395.967 471.984 400.121 466.467 400.121Z" fill="#455A64"/>
<path d="M486.381 298.937C485.067 294.498 480.972 291.186 476.019 291.186H284.792C279.839 291.186 275.742 294.499 274.43 298.937H486.381Z" fill="#263238"/>
<path d="M389.794 350.592C389.794 355.779 385.59 359.982 380.405 359.982C375.22 359.982 371.016 355.777 371.016 350.592C371.016 345.408 375.22 341.203 380.405 341.203C385.59 341.203 389.794 345.408 389.794 350.592Z" fill="#E0E0E0"/>
<path d="M366.589 0.121094H270.344V54.7311H366.589V0.121094Z" fill="#0A5840"/>
<path d="M324.188 39.878C331.492 36.7123 334.846 28.2254 331.68 20.9219C328.514 13.6185 320.027 10.2643 312.724 13.43C305.421 16.5958 302.066 25.0827 305.232 32.3861C308.398 39.6895 316.885 43.0438 324.188 39.878Z" fill="#0A5840"/>
<path d="M315.867 23.5669V30.2922C315.867 31.4677 317.216 32.1322 318.148 31.417L322.615 27.9903C323.363 27.4167 323.354 26.2844 322.594 25.7242L318.127 22.4256C317.192 21.7358 315.867 22.4033 315.867 23.5669Z" fill="#F0F0F0"/>
<path d="M357.12 48.148H276.99C276.379 48.148 275.883 47.6534 275.883 47.041C275.883 46.4302 276.379 45.9355 276.99 45.9355H357.12C357.731 45.9355 358.226 46.4302 358.226 47.041C358.226 47.6519 357.731 48.148 357.12 48.148Z" fill="#0A5840"/>
<path d="M357.123 45.9355H301.273V48.148H357.123C357.734 48.148 358.229 47.6534 358.229 47.0425C358.229 46.4302 357.734 45.9355 357.123 45.9355Z" fill="#F0F0F0"/>
<path d="M301.151 45.9355H276.99C276.379 45.9355 275.883 46.4302 275.883 47.041C275.883 47.6519 276.379 48.1465 276.99 48.1465H301.151V45.9355Z" fill="#0A5840"/>
<path d="M304.059 47.0414C304.059 48.5641 302.824 49.7977 301.303 49.7977C299.781 49.7977 298.547 48.5626 298.547 47.0414C298.547 45.5203 299.781 44.2852 301.303 44.2852C302.824 44.2852 304.059 45.5188 304.059 47.0414Z" fill="#0A5840"/>
<path d="M302.617 47.0411C302.617 47.7667 302.029 48.3537 301.305 48.3537C300.579 48.3537 299.992 47.7652 299.992 47.0411C299.992 46.3155 300.581 45.7285 301.305 45.7285C302.029 45.7285 302.617 46.317 302.617 47.0411Z" fill="#8CB0FF"/>
<path d="M438.141 336.001V367.336C438.141 370.045 440.337 372.241 443.045 372.241H500.038C501.115 372.241 502.161 372.595 503.016 373.249L515.534 382.819C518.761 385.286 523.417 382.984 523.417 378.923V372.242V349.255V336.002C523.417 333.294 521.221 331.098 518.512 331.098H443.045C440.337 331.098 438.141 333.292 438.141 336.001Z" fill="#0A5840"/>
<path d="M467.703 355.553C469.507 355.553 470.969 354.091 470.969 352.287C470.969 350.484 469.507 349.021 467.703 349.021C465.9 349.021 464.438 350.484 464.438 352.287C464.438 354.091 465.9 355.553 467.703 355.553Z" fill="#F0F0F0"/>
<path d="M485.157 352.287C485.157 354.092 483.695 355.553 481.891 355.553C480.087 355.553 478.625 354.092 478.625 352.287C478.625 350.483 480.088 349.021 481.891 349.021C483.695 349.021 485.157 350.483 485.157 352.287Z" fill="#F0F0F0"/>
<path d="M499.344 352.287C499.344 354.092 497.881 355.553 496.078 355.553C494.274 355.553 492.812 354.092 492.812 352.287C492.812 350.483 494.274 349.021 496.078 349.021C497.881 349.021 499.344 350.483 499.344 352.287Z" fill="#F0F0F0"/>
<path d="M556.192 88.9201V121.449C556.192 123.828 554.264 125.756 551.885 125.756H487.263C486.316 125.756 485.397 126.067 484.646 126.641L471.009 137.067C468.176 139.233 464.086 137.213 464.086 133.645V125.756V102.769V88.9186C464.086 86.5392 466.014 84.6113 468.393 84.6113H551.885C554.262 84.6128 556.192 86.5422 556.192 88.9201Z" fill="#0A5840"/>
<path d="M489.232 105.03C489.232 109.702 485.444 113.489 480.772 113.489C476.1 113.489 472.312 109.702 472.312 105.03C472.312 100.358 476.1 96.5703 480.772 96.5703C485.444 96.5703 489.232 100.358 489.232 105.03Z" fill="#0A5840" fill-opacity="0.6"/>
<path d="M495.359 102.327L496.754 98.2148H499.007L497.898 102.327H495.359ZM498.524 102.327L499.92 98.2148H502.173L501.064 102.327H498.524Z" fill="white"/>
<path d="M537.594 112.673L538.99 108.561H541.242L540.134 112.673H537.594ZM540.758 112.673L542.153 108.561H544.406L543.297 112.673H540.758Z" fill="white"/>
<path d="M547.417 99.623H503.742V101.573H547.417V99.623Z" fill="#0A5840"/>
<path d="M544.977 104.359H495.359V106.31H544.977V104.359Z" fill="#0A5840"/>
<path d="M536.257 109.098H495.359V111.048H536.257V109.098Z" fill="#0A5840"/>
<path d="M286.934 163.443H180.25V223.977H286.934V163.443Z" fill="#0A5840"/>
<path d="M281.084 168.867H185.281V218.289H281.084V168.867Z" fill="#0A5840" fill-opacity="0.6"/>
<path d="M185.281 218.289L212.428 181.851C215.38 177.89 221.304 177.86 224.297 181.79L244.221 207.965L255.2 197.641C258.421 194.612 263.557 195.05 266.219 198.58L281.084 218.288H185.281V218.289Z" fill="#0A5840"/>
<path d="M253 184.023C253 188.387 249.461 191.926 245.098 191.926C240.734 191.926 237.195 188.387 237.195 184.023C237.195 179.66 240.734 176.121 245.098 176.121C249.463 176.121 253 179.658 253 184.023Z" fill="white"/>
</svg>
