<svg width="63" height="52" viewBox="0 0 63 52" fill="none" xmlns="http://www.w3.org/2000/svg">
<path d="M31.3348 34.9085C33.4197 34.9085 35.1156 33.2125 35.1156 31.1275C35.1156 29.0428 33.4197 27.3467 31.3348 27.3467C29.2498 27.3467 27.554 29.0428 27.554 31.1275C27.554 33.2125 29.2498 34.9085 31.3348 34.9085Z" fill="#333333"/>
<path d="M62.6692 17.4541C62.6692 15.3691 60.9731 13.6733 58.8883 13.6733C56.8034 13.6733 55.1073 15.3691 55.1073 17.4541C55.1073 18.1304 55.2879 18.7642 55.6004 19.3141L52.1884 22.7261C51.171 20.3314 50.6721 16.6388 50.5375 13.8155C51.6008 13.1455 52.3106 11.9643 52.3106 10.6175C52.3106 8.53271 50.6145 6.83664 48.5298 6.83664C46.4448 6.83664 44.7487 8.53271 44.7487 10.6175C44.7487 11.5571 45.0954 12.4157 45.6645 13.0778C43.4565 16.8808 40.3735 20.5414 38.4601 22.6632C36.7784 19.1544 34.8825 12.1722 33.7067 6.72079C34.5649 6.02721 35.1154 4.96753 35.1154 3.78083C35.1154 1.69587 33.4195 0 31.3346 0C29.2496 0 27.5538 1.69587 27.5538 3.78083C27.5538 4.96753 28.1043 6.02721 28.9624 6.72079C27.7873 12.1726 25.8914 19.1559 24.2089 22.6645C22.2965 20.5445 19.215 16.8869 17.0044 13.0778C17.5737 12.4157 17.9202 11.5571 17.9202 10.6175C17.9202 8.53271 16.2244 6.83664 14.1394 6.83664C12.0546 6.83664 10.3586 8.53271 10.3586 10.6175C10.3586 11.9652 11.069 13.1464 12.1329 13.8161C12.0002 16.6392 11.502 20.3316 10.482 22.7274L7.06874 19.3143C7.38104 18.7645 7.56166 18.1306 7.56166 17.4543C7.56166 15.3694 5.86579 13.6735 3.78083 13.6735C1.69608 13.6733 0 15.3693 0 17.4541C0 18.9818 0.912396 20.2974 2.21959 20.8935C3.5599 27.7 5.3349 37.4637 5.3349 39.6732V49.9283C5.3349 51.0724 6.26249 52 7.40636 52H55.2628C56.4071 52 57.3345 51.0724 57.3345 49.9283V39.6732C57.3345 37.4641 59.1091 27.7002 60.4502 20.8935C61.7568 20.2974 62.6692 18.982 62.6692 17.4541ZM9.35965 27.4651C10.1689 28.2739 11.4803 28.2739 12.2897 27.4651C14.2561 25.4983 15.2626 21.9709 15.7774 18.8046C19.1291 23.5393 22.8221 27.2541 23.0329 27.4651C23.8421 28.2739 25.1535 28.2739 25.963 27.4651C28.0498 25.3781 29.9624 19.6621 31.3346 14.569C32.7068 19.6621 34.6193 25.3783 36.7062 27.4651C37.0949 27.8534 37.6218 28.0718 38.1712 28.0718C38.7207 28.0718 39.2476 27.8534 39.636 27.4651C39.8468 27.2541 43.5399 23.5393 46.8915 18.8046C47.4066 21.9709 48.4129 25.4983 50.3793 27.4651C51.1887 28.2739 52.5001 28.2739 53.3093 27.4651L55.3652 25.4091C54.596 29.5252 53.7087 34.5476 53.3519 37.6017H9.31703C8.96021 34.5474 8.07293 29.5252 7.30402 25.4091L9.35965 27.4651ZM53.1911 47.8565H9.47803V41.7448H53.1911V47.8565Z" fill="black" fill-opacity="0.8"/>
</svg>
