<svg width="750" height="500" fill="none" xmlns="http://www.w3.org/2000/svg"><path d="M679 184.999s-92-137-211-157-173 33-235 80-179 82-193 157-2 133 62 169 110 21 236 8 142 39 252 25 123-131 118-189-29-93-29-93z" fill="#0A5840"/><path opacity=".7" d="M679 184.999s-92-137-211-157-173 33-235 80-179 82-193 157-2 133 62 169 110 21 236 8 142 39 252 25 123-131 118-189-29-93-29-93z" fill="#fff"/><path opacity=".2" d="M406.235 275.234h-36.791v14.892h36.791v-14.892zM392.22 222.238h-36.791v14.892h36.791v-14.892zM259.072 274.797h-36.791v14.892h36.791v-14.892zM312.507 171.178h-36.791v14.892h36.791v-14.892zM352.801 171.178H316.01v14.892h36.791v-14.892zM196.003 384.916h-36.791v14.892h36.791v-14.892zM176.73 403.311h-36.791v14.892h36.791v-14.892z" fill="#000"/><path opacity=".1" d="M372.072 242.824h-36.791v14.892h36.791v-14.892zM427.259 326.479h-36.791v14.892h36.791v-14.892zM211.77 349.254h-36.791v14.892h36.791v-14.892zM253.816 349.254h-36.791v14.892h36.791v-14.892zM257.32 328.23h-36.791v14.892h36.791V328.23zM414.118 242.824h-36.791v14.892h36.791v-14.892z" fill="#000"/><path opacity=".2" d="M304.623 401.812h-36.791v14.892h36.791v-14.892z" fill="#000"/><path opacity=".1" d="M284.476 422.398h-36.791v14.892h36.791v-14.892zM326.521 422.398H289.73v14.892h36.791v-14.892z" fill="#000"/><path opacity=".2" d="M126.269 216.467H89.478v14.892h36.791v-14.892z" fill="#000"/><path opacity=".1" d="M106.121 237.051h-36.79v14.892h36.79v-14.892zM148.168 237.051h-36.791v14.892h36.791v-14.892z" fill="#000"/><path opacity=".2" d="M111.908 327.355h-36.79v14.892h36.79v-14.892z" fill="#000"/><path opacity=".1" d="M274.84 256.148h-36.791v14.892h36.791v-14.892zM219.653 402.436h-36.791v14.892h36.791v-14.892zM333.529 152.783h-36.791v14.892h36.791v-14.892z" fill="#000"/><path opacity=".2" d="M90.886 278.047H54.095v14.892h36.79v-14.892z" fill="#000"/><path opacity=".1" d="M111.908 259.652h-36.79v14.892h36.79v-14.892zM205.638 170.117h-36.791v14.892h36.791v-14.892z" fill="#000"/><path opacity=".2" d="M333.529 275.234h-36.791v14.892h36.791v-14.892zM121.013 74.559H84.222V89.45h36.791V74.559z" fill="#000"/><path opacity=".1" d="M49.183 163.908H12.392V178.8h36.79v-14.892zM91.23 163.908H54.438V178.8H91.23v-14.892zM94.733 142.885h-36.79v14.892h36.79v-14.892zM67.234 202.713h-36.79v14.892h36.79v-14.892z" fill="#000"/><path opacity=".2" d="M170.942 89.889h-36.791v14.892h36.791V89.889zM318.305 237.131h36.791v-14.892h-36.791v14.892zM451.452 289.688h36.791v-14.892h-36.791v14.892zM398.018 186.07h36.791v-14.892h-36.791v14.892zM357.723 186.07h36.791v-14.892h-36.791v14.892zM514.522 399.807h36.791v-14.892h-36.791v14.892zM533.793 418.203h36.791v-14.892h-36.791v14.892z" fill="#000"/><path opacity=".1" d="M338.452 257.715h36.791v-14.892h-36.791v14.892zM283.266 341.371h36.791v-14.892h-36.791v14.892zM498.754 364.146h36.791v-14.892h-36.791v14.892zM456.708 364.146h36.791v-14.892h-36.791v14.892zM453.204 343.123h36.791v-14.892h-36.791v14.892zM296.404 257.715h36.791v-14.892h-36.791v14.892z" fill="#000"/><path opacity=".2" d="M405.901 416.703h36.791v-14.892h-36.791v14.892z" fill="#000"/><path opacity=".1" d="M426.049 437.289h36.791v-14.892h-36.791v14.892zM384.002 437.289h36.791v-14.892h-36.791v14.892z" fill="#000"/><path opacity=".2" d="M584.256 231.357h36.791v-14.892h-36.791v14.892z" fill="#000"/><path opacity=".1" d="M604.403 251.943h36.791v-14.892h-36.791v14.892zM562.356 251.943h36.791v-14.892h-36.791v14.892z" fill="#000"/><path opacity=".2" d="M598.614 342.246h36.791v-14.892h-36.791v14.892z" fill="#000"/><path opacity=".1" d="M435.685 271.039h36.791v-14.892h-36.791v14.892zM490.871 417.326h36.791v-14.892h-36.791v14.892zM376.994 167.676h36.791v-14.892h-36.791v14.892z" fill="#000"/><path opacity=".2" d="M619.638 292.939h36.791v-14.892h-36.791v14.892z" fill="#000"/><path opacity=".1" d="M598.614 274.543h36.791v-14.892h-36.791v14.892zM504.886 185.01h36.791v-14.892h-36.791v14.892z" fill="#000"/><path opacity=".2" d="M589.512 89.451h36.791V74.56h-36.791v14.892z" fill="#000"/><path opacity=".1" d="M661.341 178.801h36.791v-14.892h-36.791v14.892zM619.295 178.801h36.791v-14.892h-36.791v14.892zM615.79 157.777h36.791v-14.892H615.79v14.892zM643.289 217.605h36.791v-14.892h-36.791v14.892z" fill="#000"/><path opacity=".2" d="M539.581 104.781h36.791V89.889h-36.791v14.892z" fill="#000"/><path d="M652.148 364.237V253.898M638.418 366.466V214.078M669.553 367.21v-53.521" stroke="#5E5E5E" stroke-width="4" stroke-miterlimit="10"/><path d="M633.086 229.106s-2.755-5.05-11.937-16.069c-9.182-11.019-47.29-40.862-47.29-40.862s21.579 11.478 28.466 17.447c6.887 5.969 16.069 13.315 16.069 13.315s-25.711-28.007-28.466-29.843c-2.755-1.836 26.17 22.038 26.17 22.038s-11.019-22.038-16.529-29.384-16.069-24.793-16.069-24.793 29.843 39.944 31.22 42.239a4820.033 4820.033 0 0 1 7.346 12.396l-10.56-27.548 12.855 22.497s-18.365-38.107-19.283-39.944c-.918-1.836 12.856 17.906 12.856 17.906l-11.937-35.812 27.548 56.472-1.837-22.038 5.05 22.956 1.377-56.472 3.214 56.013s5.05-35.812 5.969-43.158c.918-7.346 1.377-15.151 1.377-15.151s-.918 48.667-.918 50.045c0 1.377-.918 12.396-.918 12.396l8.723-26.17c1.836-5.51 3.673-24.334 4.591-27.088.918-2.755-4.591 42.239-5.05 44.076-.459 1.837-1.837 5.969-3.214 8.723-1.377 2.755 10.101-16.529 14.233-24.793l11.937-23.875s-6.887 22.956-8.723 27.088c-1.836 4.132-13.774 26.17-13.774 26.17s17.906-21.12 25.711-26.629c7.805-5.51 22.038-16.069 22.038-16.069s-22.956 24.793-27.547 29.384c-4.591 4.591-17.906 20.661-17.906 20.661s22.956-14.692 24.334-16.069c1.377-1.377 17.906-11.937 17.906-11.937s-33.325 26.33-34.893 28.007c-13.315 14.233-17.906 21.12-20.661 23.875-2.755 2.754-7.346 4.132-11.478 0z" fill="#0A5840"/><path d="M648.931 269.352s-1.949-3.572-8.444-11.366c-6.495-7.794-33.45-28.903-33.45-28.903s15.263 8.119 20.135 12.341c4.871 4.222 11.366 9.418 11.366 9.418s-18.186-19.81-20.135-21.109c-1.949-1.299 18.511 15.588 18.511 15.588s-7.794-15.588-11.691-20.784C621.326 219.341 613.857 207 613.857 207s21.109 28.254 22.083 29.878c.974 1.624 5.196 8.768 5.196 8.768l-7.469-19.485 9.093 15.913s-12.99-26.955-13.64-28.254c-.649-1.299 9.093 12.665 9.093 12.665l-8.444-25.331 19.485 39.945-1.299-15.588 3.572 16.238.974-39.945 2.273 39.62s3.572-25.331 4.222-30.527c.65-5.196.974-10.717.974-10.717s-.65 34.424-.65 35.398c0 .974-.649 8.768-.649 8.768l6.17-18.511c1.299-3.897 2.598-17.212 3.248-19.16.649-1.949-3.248 29.877-3.572 31.176-.325 1.299-1.299 4.222-2.273 6.17-.974 1.948 7.145-11.691 10.067-17.537l8.444-16.887s-4.871 16.238-6.17 19.161c-1.299 2.923-9.743 18.511-9.743 18.511s12.666-14.939 18.186-18.836c5.521-3.897 15.588-11.366 15.588-11.366s-16.238 17.537-19.485 20.784c-3.248 3.248-12.666 14.614-12.666 14.614s16.238-10.392 17.212-11.366c.974-.974 12.665-8.444 12.665-8.444s-23.572 18.624-24.681 19.81c-9.418 10.067-12.665 14.939-14.614 16.887-1.946 1.949-5.193 2.923-8.116 0z" fill="#0A5840"/><path d="M665.459 315.725s-1.948-3.572-8.444-11.366c-6.495-7.794-33.45-28.903-33.45-28.903s15.263 8.119 20.135 12.341c4.871 4.222 11.366 9.418 11.366 9.418s-18.186-19.81-20.135-21.109c-1.949-1.299 18.511 15.588 18.511 15.588s-7.794-15.588-11.691-20.784c-3.897-5.196-11.366-17.537-11.366-17.537s21.109 28.254 22.083 29.877c.974 1.624 5.196 8.768 5.196 8.768l-7.469-19.485 9.093 15.913s-12.99-26.955-13.64-28.254c-.649-1.299 9.093 12.666 9.093 12.666l-8.444-25.331 19.485 39.945-1.299-15.588 3.572 16.238.974-39.945 2.273 39.62s3.572-25.331 4.222-30.527c.649-5.196.974-10.717.974-10.717s-.65 34.424-.65 35.398c0 .974-.649 8.768-.649 8.768l6.17-18.511c1.299-3.897 2.598-17.212 3.248-19.161.649-1.949-3.248 29.878-3.572 31.177-.325 1.299-1.299 4.222-2.273 6.17-.974 1.949 7.145-11.691 10.067-17.537l8.444-16.887s-4.871 16.238-6.17 19.161c-1.299 2.923-9.743 18.511-9.743 18.511s12.665-14.939 18.186-18.836c5.521-3.897 15.588-11.366 15.588-11.366s-16.238 17.537-19.485 20.784-12.665 14.614-12.665 14.614 16.238-10.392 17.212-11.366c.974-.974 12.665-8.444 12.665-8.444s-23.572 18.624-24.681 19.81c-9.418 10.067-12.665 14.939-14.614 16.887-1.946 1.948-5.194 2.923-8.117 0z" fill="#0A5840"/><path d="M686.011 402.92c0 21.68-5.7 40.82-14.41 52.38h-38.64c-8.71-11.56-14.41-30.7-14.41-52.38 0-1.89.04-3.77.13-5.62.22-4.84.73-9.53 1.49-14 .29-1.7.61-3.37.97-5 .3-1.36.62-2.69.97-4 1.64-6.19 3.79-11.81 6.36-16.65h47.62c2.57 4.84 4.72 10.46 6.36 16.65.35 1.31.67 2.64.97 4 .36 1.63.68 3.3.97 5 .76 4.47 1.27 9.16 1.49 14 .09 1.851.13 3.731.13 5.62z" fill="#fff" stroke="#263238" stroke-miterlimit="10"/><path d="M682.451 374.301h-60.34c-.35 1.31-.67 2.64-.97 4h62.28c-.3-1.359-.62-2.69-.97-4zm1.94 9h-64.22c-.76 4.47-1.27 9.16-1.49 14h67.2c-.22-4.839-.73-9.529-1.49-14zM583.709 100.605H209.722v285.386h373.987V100.605z" fill="#263238" stroke="#263238" stroke-miterlimit="10"/><path d="M579.308 94.74H205.322v285.386h373.986V94.74z" fill="#fff" stroke="#263238" stroke-miterlimit="10" stroke-linecap="round" stroke-linejoin="round"/><path d="M579.308 94.74H205.322v54.069h373.986V94.74z" fill="#0A5840" stroke="#263238" stroke-miterlimit="10" stroke-linecap="round" stroke-linejoin="round"/><path d="M579.308 94.74H205.322v14.485h373.986V94.74z" fill="#BFBFBF" stroke="#263238" stroke-miterlimit="10" stroke-linecap="round" stroke-linejoin="round"/><path d="M351.581 98.682H219.59v6.999h131.991v-7zM549.107 101.682a2.5 2.5 0 1 0-5 0 2.5 2.5 0 0 0 5 0zM560.107 101.682a2.5 2.5 0 1 0-5 0 2.5 2.5 0 0 0 5 0zM568.606 104.182a2.5 2.5 0 1 0 0-5 2.5 2.5 0 0 0 0 5z" fill="#fff" stroke="#263238" stroke-miterlimit="10" stroke-linecap="round" stroke-linejoin="round"/><path d="M336.035 169.873h-98.122v181.744h98.122V169.873z" fill="#0A5840" stroke="#263238" stroke-miterlimit="10" stroke-linecap="round" stroke-linejoin="round"/><path d="M336.035 169.873h-98.122v36h98.122v-36z" fill="#fff" stroke="#263238" stroke-miterlimit="10" stroke-linecap="round" stroke-linejoin="round"/><path d="M312.629 332.994H261.32a9.5 9.5 0 0 1-9.499-9.499v-3.006a9.5 9.5 0 0 1 9.499-9.499h51.309a9.5 9.5 0 0 1 9.499 9.499v3.006c-.001 5.247-4.253 9.499-9.499 9.499z" fill="#263238" stroke="#263238" stroke-miterlimit="10" stroke-linecap="round" stroke-linejoin="round"/><path d="M259.396 247.689h53.997M259.396 258.141h53.997M259.396 268.592h53.997" stroke="#263238" stroke-miterlimit="10" stroke-linecap="round" stroke-linejoin="round"/><path d="M264.372 187.45c-.584 0-1.072-.114-1.464-.342a2.154 2.154 0 0 1-.888-1.002c-.2-.44-.312-.98-.336-1.62l1.524-.3c.016.376.061.708.138.996.076.288.192.51.348.666.156.156.362.234.618.234.288 0 .492-.086.612-.258.12-.172.18-.39.18-.654 0-.424-.096-.772-.288-1.044a4.493 4.493 0 0 0-.768-.816l-1.224-1.08a3.678 3.678 0 0 1-.822-.99c-.204-.364-.306-.814-.306-1.35 0-.768.224-1.36.672-1.776.448-.416 1.06-.624 1.836-.624.456 0 .835.07 1.14.21.304.14.546.335.726.582.18.248.314.53.402.846.088.316.144.65.168 1.002l-1.512.264a5.156 5.156 0 0 0-.102-.816 1.135 1.135 0 0 0-.276-.564c-.132-.136-.326-.204-.582-.204-.264 0-.466.086-.606.258a.984.984 0 0 0-.21.642c0 .328.068.598.204.81.136.212.332.43.588.654l1.212 1.068c.4.336.742.73 1.026 1.182.284.452.426.998.426 1.638 0 .464-.102.876-.306 1.236-.204.36-.488.642-.852.846-.365.204-.791.306-1.278.306zM268.822 187.319v-8.412h-1.548v-1.309h4.848v1.308h-1.524v8.412l-1.776.001zM272.279 187.32l1.944-9.72h1.896l1.944 9.72h-1.644l-.384-2.244h-1.692l-.396 2.244h-1.668zm2.243-3.372h1.32l-.66-4.08-.66 4.08zM278.986 187.319v-9.72h1.236l2.364 5.544v-5.545h1.464v9.72h-1.176l-2.376-5.808v5.808l-1.512.001zM285.526 187.32v-9.72h2.292c.792 0 1.41.108 1.854.324.444.216.76.548.948.996.188.448.282 1.016.282 1.704v3.552c0 .704-.094 1.29-.282 1.758-.188.468-.5.816-.936 1.044-.436.228-1.034.342-1.794.342h-2.364zm1.776-1.236h.54c.408 0 .7-.072.876-.216.176-.144.284-.354.324-.63.04-.276.06-.614.06-1.014v-3.72c0-.392-.028-.708-.084-.948-.056-.24-.172-.416-.348-.528-.176-.112-.46-.168-.852-.168h-.516v7.224zM291.646 187.32l1.944-9.72h1.896l1.944 9.72h-1.644l-.384-2.244h-1.692l-.396 2.244h-1.668zm2.244-3.372h1.32l-.66-4.08-.66 4.08zM298.354 187.32v-9.72h2.328c.656 0 1.21.078 1.662.234a1.91 1.91 0 0 1 1.032.798c.236.376.354.888.354 1.536 0 .392-.036.744-.108 1.056a2.01 2.01 0 0 1-.366.798c-.172.22-.41.39-.714.51l1.356 4.788h-1.776l-1.176-4.452h-.816v4.452h-1.776zm1.776-5.568h.552c.344 0 .618-.05.822-.15.204-.1.35-.26.438-.48.088-.22.132-.501.132-.846 0-.488-.09-.854-.27-1.098-.18-.244-.522-.366-1.026-.366h-.648v2.94zM305.062 187.32v-9.72h2.293c.792 0 1.41.108 1.854.324.444.216.76.548.948.996.188.448.282 1.016.282 1.704v3.552c0 .704-.094 1.29-.282 1.758-.189.468-.5.816-.936 1.044-.436.228-1.034.342-1.794.342h-2.365zm1.777-1.236h.54c.408 0 .7-.072.876-.216.176-.144.284-.354.324-.63.04-.276.06-.614.06-1.014v-3.72c0-.392-.028-.708-.084-.948-.056-.24-.172-.416-.348-.528-.176-.112-.46-.168-.852-.168h-.516v7.224z" fill="#263238"/><path d="M272.069 326.274c-.585 0-1.072-.114-1.464-.342a2.164 2.164 0 0 1-.888-1.002c-.2-.44-.312-.98-.336-1.62l1.524-.3c.016.376.062.708.138.995.076.288.192.511.348.666.156.156.362.234.618.234.288 0 .492-.086.612-.258.12-.172.18-.39.18-.654 0-.424-.096-.772-.288-1.044a4.49 4.49 0 0 0-.768-.815l-1.224-1.08a3.678 3.678 0 0 1-.822-.99c-.204-.364-.306-.814-.306-1.351 0-.767.224-1.359.672-1.775.448-.416 1.06-.624 1.836-.624.456 0 .836.07 1.14.21.304.14.546.334.726.582.18.248.314.53.402.846.088.316.144.65.168 1.002l-1.512.265a5.141 5.141 0 0 0-.102-.816 1.135 1.135 0 0 0-.276-.564c-.132-.136-.326-.203-.582-.203-.264 0-.466.086-.606.258a.984.984 0 0 0-.21.642c0 .328.068.599.204.811.136.212.332.43.588.653l1.212 1.068c.4.336.742.73 1.026 1.182.284.452.426.998.426 1.639 0 .464-.102.876-.306 1.235-.204.36-.488.643-.852.847-.364.201-.79.303-1.278.303zM275.393 318.102v-1.356h1.632v1.356h-1.632zm0 8.04v-6.937h1.632v6.937h-1.632zM280.361 328.423c-.472 0-.888-.048-1.248-.143-.36-.096-.64-.244-.84-.444-.2-.2-.3-.46-.3-.779 0-.217.046-.41.138-.582.092-.173.218-.322.378-.45s.332-.236.516-.324c-.264-.072-.466-.188-.606-.348a.847.847 0 0 1-.21-.576c0-.272.068-.504.204-.696.136-.191.324-.395.564-.611a1.86 1.86 0 0 1-.558-.75c-.124-.301-.186-.694-.186-1.183 0-.528.086-.974.258-1.338a1.78 1.78 0 0 1 .756-.822c.332-.184.738-.275 1.218-.275.368 0 .676.054.924.162.248.107.452.27.612.485a2.08 2.08 0 0 1 .336-.359c.16-.145.344-.265.552-.36l.216-.096.396.876a3.815 3.815 0 0 0-.354.12 7.594 7.594 0 0 0-.438.18c-.144.064-.256.12-.336.168.072.16.132.36.18.6.048.24.072.469.072.685 0 .488-.076.912-.228 1.271-.152.36-.386.639-.702.834-.316.196-.726.294-1.23.294a2.85 2.85 0 0 1-.492-.042 3.637 3.637 0 0 1-.444-.102 3.13 3.13 0 0 0-.138.228.516.516 0 0 0-.066.252c0 .089.048.16.144.217.096.056.256.096.48.119l1.464.145c.568.056.988.234 1.26.534.272.3.408.706.408 1.218 0 .416-.094.764-.282 1.044-.188.28-.48.492-.876.636-.396.141-.91.212-1.542.212zm.18-1.224c.448 0 .784-.044 1.008-.132.224-.088.336-.248.336-.48a.53.53 0 0 0-.084-.311c-.056-.08-.156-.146-.3-.198a2.571 2.571 0 0 0-.612-.114l-1.188-.107a1.996 1.996 0 0 0-.234.222.97.97 0 0 0-.162.246.66.66 0 0 0-.06.276c0 .199.096.35.288.449.192.099.528.149 1.008.149zm-.096-4.284a.67.67 0 0 0 .348-.078.503.503 0 0 0 .204-.252c.048-.115.08-.262.096-.438s.024-.38.024-.612c0-.231-.008-.436-.024-.612a1.76 1.76 0 0 0-.09-.443.512.512 0 0 0-.198-.265.666.666 0 0 0-.36-.084.672.672 0 0 0-.354.084.501.501 0 0 0-.204.259 1.839 1.839 0 0 0-.096.438c-.021.176-.03.384-.03.624 0 .225.008.422.024.594.016.173.048.316.096.433a.56.56 0 0 0 .21.264c.092.059.21.088.354.088zM283.949 326.143v-6.937h1.632v.696c.248-.24.51-.434.786-.582.276-.147.574-.222.894-.222.288 0 .516.07.684.21.168.14.292.326.372.558.079.232.12.484.12.756v5.521h-1.632v-5.196c0-.208-.032-.368-.096-.48-.064-.112-.188-.169-.372-.169a.835.835 0 0 0-.366.097 2.386 2.386 0 0 0-.39.24v5.508h-1.632zM293.669 326.251c-.273 0-.497-.069-.672-.21a1.188 1.188 0 0 1-.384-.564 2.32 2.32 0 0 1-.12-.75v-5.521h1.632v5.221c0 .208.034.37.102.485.068.116.194.174.378.174.12 0 .242-.031.366-.096a2.76 2.76 0 0 0 .366-.228v-5.557h1.632v6.937h-1.632v-.66a3.224 3.224 0 0 1-.768.552c-.28.146-.58.217-.9.217zM298.229 328.422v-9.216h1.632v.528c.2-.192.42-.346.66-.462.24-.116.492-.174.756-.174.312 0 .568.071.768.216.2.144.356.334.468.57.112.235.19.487.234.756.044.268.065.525.065.773v2.353c0 .456-.053.872-.161 1.248-.108.376-.28.676-.516.899-.236.225-.55.336-.942.336-.248 0-.482-.06-.702-.18-.22-.12-.43-.272-.63-.456v2.808h-1.632v.001zm2.352-3.312c.176 0 .306-.058.39-.174.084-.116.14-.272.168-.468.028-.196.042-.41.042-.643v-2.483c0-.217-.016-.41-.048-.582a.872.872 0 0 0-.18-.414c-.088-.104-.216-.156-.384-.156a.86.86 0 0 0-.378.09c-.124.061-.234.13-.33.21v4.38c.104.072.216.13.336.174.119.045.247.066.384.066z" fill="#fff"/><path d="m286.974 191.111 1.185 3.647h3.835l-3.103 2.254 1.185 3.647-3.102-2.254-3.102 2.254 1.185-3.647-3.103-2.254h3.835l1.185-3.647z" fill="#0A5840"/><path d="M549.396 169.873h-98.122v181.744h98.122V169.873z" fill="#0A5840" stroke="#263238" stroke-miterlimit="10" stroke-linecap="round" stroke-linejoin="round"/><path d="M549.396 169.873h-98.122v36h98.122v-36z" fill="#fff" stroke="#263238" stroke-miterlimit="10" stroke-linecap="round" stroke-linejoin="round"/><path d="M525.991 332.994h-51.31a9.5 9.5 0 0 1-9.499-9.499v-3.006a9.5 9.5 0 0 1 9.499-9.499h51.309a9.5 9.5 0 0 1 9.499 9.499v3.006c0 5.247-4.253 9.499-9.498 9.499z" fill="#263238" stroke="#263238" stroke-miterlimit="10" stroke-linecap="round" stroke-linejoin="round"/><path d="M478.094 187.32v-9.72h2.389c.432 0 .821.041 1.17.12.348.08.647.214.899.402.252.188.446.442.582.762.136.32.204.724.204 1.212 0 .392-.054.728-.162 1.008-.108.28-.266.502-.474.666a1.73 1.73 0 0 1-.78.33c.384.064.702.198.954.402.252.204.44.47.564.798.124.328.186.724.186 1.188 0 .464-.058.874-.174 1.23a2.265 2.265 0 0 1-.516.888 2.172 2.172 0 0 1-.852.534c-.34.12-.738.18-1.194.18h-2.796zm1.776-5.748h.6c.353 0 .624-.052.816-.156a.842.842 0 0 0 .402-.48c.075-.216.113-.488.113-.816 0-.344-.058-.61-.174-.798a.877.877 0 0 0-.522-.384 3.227 3.227 0 0 0-.889-.102h-.348v2.736h.002zm0 4.5h.672c.536 0 .9-.13 1.092-.39.192-.26.288-.662.288-1.206 0-.392-.046-.71-.138-.954a1.015 1.015 0 0 0-.456-.546c-.212-.12-.494-.18-.846-.18h-.612v3.276zM487.442 187.45c-.721 0-1.28-.132-1.681-.396a2.023 2.023 0 0 1-.827-1.128c-.152-.488-.229-1.072-.229-1.752v-6.576h1.729v6.78c0 .304.02.59.06.858.04.268.134.484.282.648.147.164.37.246.666.246.311 0 .538-.082.678-.246.14-.163.232-.38.276-.648.044-.268.065-.554.065-.858v-6.78h1.716v6.576c0 .68-.076 1.264-.228 1.752-.152.488-.426.864-.822 1.128-.395.265-.957.396-1.685.396zM494.018 187.45c-.584 0-1.072-.114-1.464-.342a2.144 2.144 0 0 1-.888-1.002c-.2-.44-.313-.98-.336-1.62l1.523-.3c.016.376.061.708.138.996.076.288.192.51.349.666.156.156.361.234.618.234.288 0 .491-.086.611-.258.12-.172.181-.39.181-.654 0-.424-.097-.772-.288-1.044a4.466 4.466 0 0 0-.769-.816l-1.224-1.08a3.678 3.678 0 0 1-.822-.99c-.204-.364-.306-.814-.306-1.35 0-.768.224-1.36.672-1.776.448-.416 1.06-.624 1.836-.624.456 0 .836.07 1.14.21.305.14.547.335.727.582.18.248.313.53.401.846.089.316.145.65.169 1.002l-1.513.264a5.156 5.156 0 0 0-.102-.816 1.151 1.151 0 0 0-.276-.564c-.132-.136-.326-.204-.582-.204-.264 0-.466.086-.605.258a.978.978 0 0 0-.21.642c0 .328.067.598.203.81.137.212.332.43.589.654l1.212 1.068c.399.336.741.73 1.025 1.182.284.452.427.998.427 1.638 0 .464-.103.876-.307 1.236-.204.36-.488.642-.851.846-.364.204-.79.306-1.278.306zM497.449 187.32v-9.72h1.753v9.72h-1.753zM500.701 187.319v-9.72h1.236l2.364 5.544v-5.545h1.464v9.72h-1.176l-2.376-5.808v5.808l-1.512.001zM507.241 187.32v-9.72h4.08v1.248h-2.304v2.796h1.811v1.236h-1.811v3.216h2.328v1.224h-4.104zM514.826 187.45c-.585 0-1.072-.114-1.465-.342a2.154 2.154 0 0 1-.888-1.002c-.2-.44-.312-.98-.336-1.62l1.524-.3c.016.376.062.708.138.996.076.288.192.51.348.666.156.156.362.234.618.234.288 0 .492-.086.612-.258.12-.172.18-.39.18-.654 0-.424-.096-.772-.288-1.044a4.458 4.458 0 0 0-.768-.816l-1.225-1.08a3.674 3.674 0 0 1-.821-.99c-.204-.364-.307-.814-.307-1.35 0-.768.225-1.36.672-1.776.448-.416 1.061-.624 1.837-.624.455 0 .835.07 1.14.21.304.14.546.335.726.582.181.248.315.53.402.846.088.316.144.65.168 1.002l-1.512.264a5.269 5.269 0 0 0-.103-.816 1.142 1.142 0 0 0-.275-.564c-.133-.136-.326-.204-.582-.204-.265 0-.467.086-.607.258a.984.984 0 0 0-.21.642c0 .328.068.598.204.81.136.212.332.43.588.654l1.212 1.068c.4.336.742.73 1.026 1.182.283.452.426.998.426 1.638 0 .464-.102.876-.306 1.236-.204.36-.488.642-.852.846-.363.204-.788.306-1.276.306zM520.657 187.45c-.584 0-1.072-.114-1.464-.342a2.149 2.149 0 0 1-.888-1.002c-.2-.44-.313-.98-.336-1.62l1.523-.3c.016.376.061.708.138.996.076.288.192.51.349.666.156.156.361.234.618.234.288 0 .491-.086.611-.258.12-.172.181-.39.181-.654 0-.424-.097-.772-.288-1.044a4.466 4.466 0 0 0-.769-.816l-1.224-1.08a3.678 3.678 0 0 1-.822-.99c-.204-.364-.306-.814-.306-1.35 0-.768.224-1.36.672-1.776.448-.416 1.06-.624 1.836-.624.456 0 .836.07 1.14.21.305.14.547.335.727.582.18.248.313.53.401.846.089.316.145.65.169 1.002l-1.513.264a5.156 5.156 0 0 0-.102-.816 1.151 1.151 0 0 0-.276-.564c-.132-.136-.326-.204-.582-.204-.264 0-.466.086-.606.258a.978.978 0 0 0-.21.642c0 .328.067.598.203.81.137.212.332.43.589.654l1.212 1.068c.399.336.741.73 1.025 1.182.284.452.427.998.427 1.638 0 .464-.102.876-.307 1.236-.204.36-.488.642-.852.846-.362.204-.787.306-1.276.306z" fill="#263238"/><path d="M486.301 326.274c-.584 0-1.072-.114-1.464-.342a2.153 2.153 0 0 1-.888-1.002c-.2-.44-.313-.98-.336-1.62l1.523-.3c.016.376.062.708.138.995.076.288.192.511.349.666.156.156.361.234.618.234.288 0 .491-.086.611-.258.12-.172.181-.39.181-.654 0-.424-.097-.772-.288-1.044a4.463 4.463 0 0 0-.769-.815l-1.224-1.08a3.678 3.678 0 0 1-.822-.99c-.204-.364-.306-.814-.306-1.351 0-.767.224-1.359.672-1.775.448-.416 1.06-.624 1.836-.624.456 0 .836.07 1.14.21.305.14.547.334.727.582.18.248.314.53.401.846.089.316.145.65.169 1.002l-1.513.265a5.141 5.141 0 0 0-.102-.816 1.151 1.151 0 0 0-.276-.564c-.132-.136-.326-.203-.582-.203-.264 0-.466.086-.605.258a.978.978 0 0 0-.21.642c0 .328.067.599.203.811.137.212.332.43.589.653l1.212 1.068c.399.336.741.73 1.025 1.182.284.452.427.998.427 1.639 0 .464-.103.876-.307 1.235-.204.36-.488.643-.852.847-.363.201-.789.303-1.277.303zM489.625 318.102v-1.356h1.632v1.356h-1.632zm0 8.04v-6.937h1.632v6.937h-1.632zM494.593 328.423c-.473 0-.889-.048-1.248-.143-.36-.096-.641-.244-.84-.444-.2-.2-.301-.46-.301-.779 0-.217.046-.41.139-.582.092-.173.218-.322.378-.45s.332-.236.516-.324c-.264-.072-.466-.188-.605-.348a.842.842 0 0 1-.21-.576c0-.272.067-.504.203-.696a3.91 3.91 0 0 1 .564-.611 1.86 1.86 0 0 1-.558-.75c-.125-.301-.186-.694-.186-1.183 0-.528.086-.974.258-1.338a1.78 1.78 0 0 1 .756-.822c.332-.184.738-.275 1.219-.275.367 0 .676.054.924.162.248.107.452.27.612.485a2.04 2.04 0 0 1 .336-.359c.159-.145.344-.265.552-.36l.216-.096.397.876a3.817 3.817 0 0 0-.355.12 7.594 7.594 0 0 0-.438.18c-.145.064-.257.12-.337.168.072.16.133.36.181.6.048.24.072.469.072.685 0 .488-.076.912-.229 1.271-.152.36-.386.639-.702.834-.315.196-.726.294-1.229.294a2.85 2.85 0 0 1-.492-.042 3.594 3.594 0 0 1-.444-.102 3.13 3.13 0 0 0-.138.228.516.516 0 0 0-.066.252c0 .089.048.16.145.217.096.056.256.096.479.119l1.464.145c.568.056.988.234 1.261.534.271.3.407.706.407 1.218 0 .416-.094.764-.281 1.044-.189.28-.48.492-.876.636-.399.141-.912.212-1.544.212zm.179-1.224c.448 0 .784-.044 1.008-.132.224-.088.336-.248.336-.48a.53.53 0 0 0-.084-.311c-.056-.08-.155-.146-.3-.198a2.571 2.571 0 0 0-.612-.114l-1.188-.107a1.996 1.996 0 0 0-.234.222.997.997 0 0 0-.162.246.66.66 0 0 0-.06.276c0 .199.096.35.288.449.192.099.528.149 1.008.149zm-.095-4.284a.67.67 0 0 0 .348-.078.503.503 0 0 0 .204-.252c.048-.115.08-.262.096-.438.017-.176.024-.38.024-.612 0-.231-.008-.436-.024-.612a1.76 1.76 0 0 0-.09-.443.512.512 0 0 0-.198-.265.665.665 0 0 0-.359-.084.667.667 0 0 0-.354.084.501.501 0 0 0-.204.259 1.839 1.839 0 0 0-.096.438c-.02.176-.03.384-.03.624 0 .225.008.422.024.594.016.173.048.316.096.433a.56.56 0 0 0 .21.264c.09.059.208.088.353.088zM498.182 326.143v-6.937h1.632v.696c.248-.24.51-.434.786-.582.275-.147.573-.222.894-.222.288 0 .517.07.685.21.168.14.292.326.372.558.079.232.119.484.119.756v5.521h-1.632v-5.196c0-.208-.032-.368-.096-.48-.064-.112-.188-.169-.372-.169a.835.835 0 0 0-.366.097 2.386 2.386 0 0 0-.39.24v5.508h-1.632zM507.901 326.251c-.272 0-.496-.069-.672-.21a1.18 1.18 0 0 1-.384-.564 2.32 2.32 0 0 1-.12-.75v-5.521h1.632v5.221c0 .208.034.37.102.485.068.116.194.174.378.174.12 0 .242-.031.366-.096a2.76 2.76 0 0 0 .366-.228v-5.557h1.632v6.937h-1.632v-.66a3.224 3.224 0 0 1-.768.552 1.91 1.91 0 0 1-.9.217zM512.46 328.422v-9.216h1.632v.528c.2-.192.42-.346.66-.462.24-.116.492-.174.756-.174.313 0 .568.071.768.216.199.144.356.334.468.57.112.235.19.487.234.756.044.268.065.525.065.773v2.353c0 .456-.054.872-.162 1.248-.107.376-.279.676-.516.899-.236.225-.55.336-.942.336-.248 0-.482-.06-.701-.18a3.16 3.16 0 0 1-.631-.456v2.808h-1.631v.001zm2.353-3.312c.176 0 .306-.058.39-.174.084-.116.14-.272.168-.468.028-.196.042-.41.042-.643v-2.483c0-.217-.016-.41-.048-.582a.872.872 0 0 0-.18-.414c-.089-.104-.217-.156-.385-.156a.86.86 0 0 0-.378.09c-.124.061-.233.13-.33.21v4.38c.104.072.217.13.336.174.12.045.248.066.385.066z" fill="#fff"/><path d="M473.338 247.689h53.996M473.338 258.141h53.996M473.338 268.592h53.996M473.338 279.043h53.996M473.338 289.492h53.996" stroke="#263238" stroke-miterlimit="10" stroke-linecap="round" stroke-linejoin="round"/><path d="m475.098 191.111 1.185 3.647h3.834l-3.102 2.254 1.185 3.647-3.102-2.254-3.103 2.254 1.185-3.647-3.102-2.254h3.835l1.185-3.647zM487.716 191.111l1.185 3.647h3.835l-3.102 2.254 1.184 3.647-3.102-2.254-3.102 2.254 1.185-3.647-3.102-2.254h3.834l1.185-3.647zM500.335 191.111l1.185 3.647h3.835l-3.103 2.254 1.185 3.647-3.102-2.254-3.103 2.254 1.185-3.647-3.102-2.254h3.835l1.185-3.647zM512.955 191.111l1.184 3.647h3.835l-3.102 2.254 1.185 3.647-3.102-2.254-3.103 2.254 1.185-3.647-3.102-2.254h3.835l1.185-3.647zM525.572 191.111l1.185 3.647h3.835l-3.102 2.254 1.185 3.647-3.103-2.254-3.102 2.254 1.185-3.647-3.103-2.254h3.835l1.185-3.647z" fill="#0A5840"/><path d="M442.312 169.873H344.19v181.744h98.122V169.873z" fill="#0A5840" stroke="#263238" stroke-miterlimit="10" stroke-linecap="round" stroke-linejoin="round"/><path d="M442.312 169.873H344.19v36h98.122v-36z" fill="#fff" stroke="#263238" stroke-miterlimit="10" stroke-linecap="round" stroke-linejoin="round"/><path d="M418.906 332.994h-51.309a9.5 9.5 0 0 1-9.499-9.499v-3.006a9.5 9.5 0 0 1 9.499-9.499h51.309a9.5 9.5 0 0 1 9.499 9.499v3.006a9.499 9.499 0 0 1-9.499 9.499z" fill="#263238" stroke="#263238" stroke-miterlimit="10" stroke-linecap="round" stroke-linejoin="round"/><path d="M371.754 187.322v-9.72h2.855c.584 0 1.059.108 1.422.324.364.216.633.53.805.942.172.412.258.91.258 1.494 0 .632-.108 1.142-.324 1.53-.216.388-.518.67-.906.846-.388.176-.846.264-1.374.264h-.96v4.32h-1.776zm1.775-5.568h.673c.319 0 .569-.046.75-.138a.733.733 0 0 0 .371-.444c.068-.204.103-.478.103-.822 0-.352-.026-.638-.078-.858a.737.737 0 0 0-.336-.486c-.172-.104-.442-.156-.81-.156h-.673v2.904zM378.029 187.322v-9.72h2.328c.656 0 1.21.078 1.662.234a1.91 1.91 0 0 1 1.032.798c.235.376.354.888.354 1.536 0 .392-.036.744-.107 1.056a2.01 2.01 0 0 1-.366.798c-.172.22-.41.39-.714.51l1.355 4.788h-1.775l-1.176-4.452h-.816v4.452h-1.777zm1.777-5.568h.552c.344 0 .618-.05.822-.15.204-.1.35-.26.438-.48.088-.22.133-.501.133-.846 0-.488-.091-.854-.27-1.098-.18-.244-.522-.366-1.026-.366h-.647v2.94h-.002zM384.737 187.322v-9.72h4.08v1.248h-2.304v2.796h1.811v1.236h-1.811v3.216h2.328v1.224h-4.104zM389.85 187.322l.168-9.72h1.836l1.38 6.732 1.44-6.732h1.775l.18 9.72h-1.319l-.145-6.756-1.38 6.756h-1.067l-1.404-6.78-.132 6.78h-1.332zM398.045 187.322v-9.72h1.753v9.72h-1.753zM403.961 187.452c-.72 0-1.28-.132-1.68-.396-.4-.264-.676-.64-.828-1.128-.152-.488-.227-1.072-.227-1.752V177.6h1.727v6.78c0 .304.02.59.061.858.039.268.134.484.281.648.148.164.37.246.666.246.313 0 .538-.082.679-.246.14-.163.231-.38.275-.648.044-.268.066-.554.066-.858v-6.78h1.716v6.576c0 .68-.076 1.264-.229 1.752a2.032 2.032 0 0 1-.821 1.128c-.396.265-.957.396-1.686.396zM408.064 187.322l.168-9.72h1.836l1.38 6.732 1.44-6.732h1.775l.18 9.72h-1.319l-.145-6.756-1.38 6.756h-1.067l-1.404-6.78-.132 6.78h-1.332z" fill="#263238"/><path d="M379.217 326.274c-.584 0-1.072-.114-1.464-.342a2.153 2.153 0 0 1-.888-1.002c-.2-.44-.313-.98-.336-1.62l1.523-.3c.016.376.061.708.138.995.076.288.192.511.349.666.156.156.361.234.618.234.288 0 .491-.086.611-.258.12-.172.181-.39.181-.654 0-.424-.097-.772-.288-1.044a4.463 4.463 0 0 0-.769-.815l-1.224-1.08a3.678 3.678 0 0 1-.822-.99c-.204-.364-.306-.814-.306-1.351 0-.767.224-1.359.672-1.775.448-.416 1.059-.624 1.836-.624.456 0 .836.07 1.14.21.305.14.547.334.727.582.18.248.314.53.401.846.089.316.145.65.169 1.002l-1.513.265a5.141 5.141 0 0 0-.102-.816 1.151 1.151 0 0 0-.276-.564c-.132-.136-.326-.203-.582-.203-.264 0-.466.086-.605.258a.978.978 0 0 0-.21.642c0 .328.067.599.203.811.137.212.332.43.589.653l1.212 1.068c.4.336.741.73 1.025 1.182.284.452.427.998.427 1.639 0 .464-.103.876-.307 1.235a2.2 2.2 0 0 1-.851.847c-.364.201-.79.303-1.278.303zM382.541 318.102v-1.356h1.632v1.356h-1.632zm0 8.04v-6.937h1.632v6.937h-1.632zM387.509 328.423c-.473 0-.889-.048-1.248-.143-.36-.096-.641-.244-.84-.444-.2-.2-.301-.46-.301-.779 0-.217.046-.41.139-.582.092-.173.218-.322.378-.45s.332-.236.516-.324c-.264-.072-.466-.188-.605-.348a.842.842 0 0 1-.21-.576c0-.272.067-.504.203-.696a3.91 3.91 0 0 1 .564-.611 1.86 1.86 0 0 1-.558-.75c-.125-.301-.187-.694-.187-1.183 0-.528.086-.974.258-1.338a1.78 1.78 0 0 1 .756-.822c.332-.184.738-.275 1.219-.275.367 0 .676.054.924.162.248.107.452.27.612.485a2.04 2.04 0 0 1 .336-.359c.159-.145.344-.265.552-.36l.216-.096.397.876a3.718 3.718 0 0 0-.354.12 7.594 7.594 0 0 0-.438.18c-.145.064-.257.12-.337.168.072.16.133.36.181.6.048.24.072.469.072.685 0 .488-.076.912-.228 1.271-.152.36-.386.639-.702.834-.315.196-.726.294-1.229.294a2.85 2.85 0 0 1-.492-.042 3.594 3.594 0 0 1-.444-.102 3.13 3.13 0 0 0-.138.228.516.516 0 0 0-.066.252c0 .089.048.16.145.217.096.056.256.096.48.119l1.464.145c.568.056.988.234 1.261.534.272.3.407.706.407 1.218 0 .416-.094.764-.281 1.044-.189.28-.48.492-.876.636-.401.141-.914.212-1.546.212zm.18-1.224c.448 0 .784-.044 1.008-.132.224-.088.336-.248.336-.48a.53.53 0 0 0-.084-.311c-.056-.08-.155-.146-.3-.198a2.571 2.571 0 0 0-.612-.114l-1.188-.107a1.996 1.996 0 0 0-.234.222.997.997 0 0 0-.162.246.66.66 0 0 0-.06.276c0 .199.096.35.288.449.191.099.527.149 1.008.149zm-.096-4.284a.67.67 0 0 0 .348-.078.503.503 0 0 0 .204-.252c.048-.115.08-.262.096-.438.017-.176.024-.38.024-.612 0-.231-.008-.436-.024-.612a1.76 1.76 0 0 0-.09-.443.512.512 0 0 0-.198-.265.665.665 0 0 0-.359-.084.674.674 0 0 0-.355.084.501.501 0 0 0-.204.259 1.839 1.839 0 0 0-.096.438c-.021.176-.03.384-.03.624 0 .225.008.422.024.594.016.173.048.316.096.433a.56.56 0 0 0 .21.264.64.64 0 0 0 .354.088zM391.098 326.143v-6.937h1.632v.696c.248-.24.51-.434.786-.582.275-.147.573-.222.894-.222.288 0 .517.07.685.21.168.14.292.326.372.558.079.232.119.484.119.756v5.521h-1.632v-5.196c0-.208-.032-.368-.096-.48-.064-.112-.189-.169-.372-.169a.835.835 0 0 0-.366.097 2.386 2.386 0 0 0-.39.24v5.508h-1.632zM400.817 326.251c-.272 0-.496-.069-.672-.21a1.18 1.18 0 0 1-.384-.564 2.32 2.32 0 0 1-.12-.75v-5.521h1.632v5.221c0 .208.034.37.102.485.068.116.194.174.378.174.12 0 .242-.031.366-.096a2.76 2.76 0 0 0 .366-.228v-5.557h1.632v6.937h-1.632v-.66a3.224 3.224 0 0 1-.768.552 1.91 1.91 0 0 1-.9.217zM405.376 328.422v-9.216h1.632v.528c.2-.192.42-.346.66-.462.24-.116.492-.174.756-.174.313 0 .568.071.768.216.199.144.355.334.468.57.112.235.191.487.234.756.044.268.065.525.065.773v2.353c0 .456-.054.872-.162 1.248-.107.376-.279.676-.516.899-.236.225-.55.336-.942.336a1.44 1.44 0 0 1-.701-.18 3.16 3.16 0 0 1-.631-.456v2.808h-1.631v.001zm2.353-3.312c.176 0 .306-.058.39-.174.084-.116.14-.272.168-.468.028-.196.042-.41.042-.643v-2.483c0-.217-.016-.41-.048-.582a.872.872 0 0 0-.18-.414c-.089-.104-.217-.156-.385-.156a.86.86 0 0 0-.378.09c-.124.061-.233.13-.33.21v4.38c.104.072.217.13.336.174.12.045.248.066.385.066z" fill="#fff"/><path d="M366.254 247.689h53.996M366.254 258.141h53.996M366.254 268.592h53.996M366.254 279.043h53.996" stroke="#263238" stroke-miterlimit="10" stroke-linecap="round" stroke-linejoin="round"/><path d="m380.817 191.111 1.185 3.647h3.834l-3.102 2.254 1.185 3.647-3.102-2.254-3.103 2.254 1.185-3.647-3.102-2.254h3.835l1.185-3.647zM393.251 191.111l1.185 3.647h3.834l-3.102 2.254 1.185 3.647-3.102-2.254-3.103 2.254 1.185-3.647-3.102-2.254h3.835l1.185-3.647zM405.687 191.111l1.185 3.647h3.835l-3.103 2.254 1.185 3.647-3.102-2.254-3.103 2.254 1.185-3.647-3.102-2.254h3.835l1.185-3.647z" fill="#0A5840"/><path d="M235.463 142.245v-15.997h4.701c.961 0 1.741.178 2.34.533.6.355 1.04.873 1.323 1.55.283.679.425 1.498.425 2.459 0 1.04-.178 1.879-.533 2.518a3.173 3.173 0 0 1-1.491 1.392c-.639.29-1.393.435-2.261.435h-1.58v7.11h-2.924zm2.923-9.164h1.105c.526 0 .938-.076 1.234-.227.296-.151.5-.395.612-.731.111-.335.168-.787.168-1.352 0-.58-.043-1.05-.129-1.412-.085-.362-.27-.629-.553-.8-.283-.171-.727-.257-1.333-.257h-1.105v4.779h.001zM245.792 142.245v-15.997h3.831c1.079 0 1.991.128 2.735.385.743.257 1.31.695 1.698 1.313.389.619.583 1.461.583 2.528 0 .645-.059 1.225-.178 1.738-.119.514-.319.952-.603 1.313-.283.362-.675.642-1.175.839l2.231 7.88h-2.923l-1.936-7.327h-1.343v7.327l-2.92.001zm2.923-9.164h.908c.566 0 1.017-.082 1.353-.247.336-.165.576-.428.721-.79.146-.362.218-.826.218-1.392 0-.803-.148-1.405-.444-1.807-.297-.401-.859-.603-1.689-.603h-1.066v4.839h-.001zM256.911 142.245v-15.997h2.883v15.997h-2.883zM266.567 142.461c-1.172 0-2.09-.23-2.755-.691a3.607 3.607 0 0 1-1.393-1.886c-.263-.796-.395-1.715-.395-2.755v-5.708c0-1.093.132-2.04.395-2.844.264-.803.728-1.422 1.393-1.857.665-.435 1.583-.652 2.755-.652 1.106 0 1.972.188 2.598.563a3.1 3.1 0 0 1 1.333 1.609c.263.698.395 1.508.395 2.429v1.343h-2.805v-1.383c0-.447-.023-.855-.068-1.224-.047-.369-.172-.662-.376-.879-.204-.217-.556-.326-1.056-.326-.501 0-.866.115-1.097.345-.23.23-.379.54-.444.928a7.901 7.901 0 0 0-.099 1.314v6.952c0 .579.046 1.057.139 1.432.092.375.26.658.503.849.244.191.576.286.998.286.486 0 .832-.115 1.036-.346.204-.23.333-.536.386-.918a9.58 9.58 0 0 0 .078-1.284v-1.442h2.805v1.284c0 .948-.125 1.787-.375 2.518a3.275 3.275 0 0 1-1.314 1.718c-.625.418-1.504.625-2.637.625zM273.006 142.245v-15.997h2.883v15.997h-2.883zM278.357 142.245v-15.997h2.034l3.891 9.125v-9.125h2.409v15.997h-1.936l-3.91-9.559v9.559h-2.488zM293.13 142.462c-1.054 0-1.89-.224-2.508-.671-.619-.448-1.064-1.083-1.333-1.906-.271-.823-.405-1.794-.405-2.913V131.6c0-1.146.132-2.133.395-2.962.264-.829.727-1.464 1.393-1.906.665-.441 1.583-.662 2.755-.662 1.093 0 1.962.185 2.607.553a3.164 3.164 0 0 1 1.392 1.59c.283.691.425 1.53.425 2.518v.829h-2.784v-.908c0-.514-.036-.955-.108-1.323-.073-.369-.218-.648-.434-.839-.218-.191-.57-.286-1.057-.286-.514 0-.886.125-1.116.375-.23.25-.375.58-.435.987a9.417 9.417 0 0 0-.089 1.343v6.695c0 .553.046 1.034.139 1.442.092.408.263.721.514.938.25.217.605.326 1.066.326.474 0 .836-.118 1.086-.355.25-.237.425-.566.523-.987.099-.421.147-.921.147-1.501v-1.501h-1.718v-1.837h4.345v8.117h-1.876l-.217-1.58c-.211.527-.53.958-.958 1.294-.429.334-1.011.502-1.749.502zM304.961 142.245v-15.997h4.7c.961 0 1.741.178 2.34.533.6.355 1.04.873 1.323 1.55.283.679.425 1.498.425 2.459 0 1.04-.178 1.879-.533 2.518a3.173 3.173 0 0 1-1.491 1.392c-.639.29-1.393.435-2.261.435h-1.58v7.11h-2.923zm2.922-9.164h1.105c.526 0 .938-.076 1.234-.227.296-.151.5-.395.612-.731.111-.335.168-.787.168-1.352 0-.58-.043-1.05-.129-1.412-.085-.362-.269-.629-.553-.8-.283-.171-.728-.257-1.333-.257h-1.105v4.779h.001zM315.289 142.245v-15.997h2.923v13.982h3.87v2.015h-6.793zM322.792 142.245l3.2-15.997h3.12l3.199 15.997h-2.706l-.632-3.693h-2.784l-.652 3.693h-2.745zm3.694-5.549h2.173l-1.087-6.715-1.086 6.715zM333.832 142.245v-15.997h2.034l3.891 9.125v-9.125h2.409v15.997h-1.936l-3.91-9.559v9.559h-2.488zM348.624 142.461c-.961 0-1.765-.188-2.409-.563-.646-.375-1.133-.925-1.462-1.649-.329-.724-.513-1.613-.553-2.666l2.509-.494c.025.619.102 1.166.227 1.64s.316.839.573 1.096c.256.257.595.385 1.017.385.474 0 .81-.141 1.007-.425.198-.283.297-.642.297-1.076 0-.698-.158-1.27-.475-1.718-.315-.447-.737-.895-1.264-1.343l-2.015-1.777a6.078 6.078 0 0 1-1.353-1.629c-.336-.599-.504-1.34-.504-2.222 0-1.264.369-2.238 1.107-2.923.737-.685 1.744-1.027 3.021-1.027.751 0 1.376.116 1.876.346.5.23.898.55 1.195.958.296.408.517.872.661 1.392.145.52.237 1.07.276 1.649l-2.488.434a8.404 8.404 0 0 0-.168-1.343c-.086-.395-.236-.704-.454-.928-.217-.224-.536-.336-.958-.336-.435 0-.767.142-.997.425-.23.283-.346.635-.346 1.057 0 .54.112.984.336 1.333.224.349.546.708.968 1.076l1.994 1.758a8.28 8.28 0 0 1 1.689 1.945c.467.744.7 1.643.7 2.696 0 .764-.167 1.442-.503 2.034a3.624 3.624 0 0 1-1.402 1.393c-.598.334-1.299.502-2.102.502z" fill="#fff"/><path d="M236.657 115.773h15.885M271.697 115.773h15.885M306.737 115.773h15.885M341.777 115.773h15.885M376.817 115.773h15.885M536.133 115.773h8.409M536.133 119.512h8.409M536.133 123.248h8.409" stroke="#263238" stroke-miterlimit="10"/><path d="M46.022 455.299h667.52" stroke="#263238" stroke-miterlimit="10" stroke-linecap="round" stroke-linejoin="round"/><path d="M157.39 157.274s2.591 4.256 3.886 8.512.555 7.772 1.11 8.697c.555.925 5.736 2.776 5.736 4.071s-3.886 5.181-3.886 5.181-1.665 12.028-3.331 13.139c-1.665 1.11-10.178 0-10.733.185-.555.185-3.701 8.882-3.701 8.882l-16.655-4.441 1.11-6.107s-.555-4.626-3.146-14.249c-2.591-9.623.185-18.505 12.213-22.761 12.031-4.255 17.397-1.109 17.397-1.109z" fill="#fff" stroke="#263238" stroke-miterlimit="10" stroke-linecap="round" stroke-linejoin="round"/><path d="M160.536 185.955s-4.071-.185-5.737-2.961" stroke="#263238" stroke-miterlimit="10" stroke-linecap="round" stroke-linejoin="round"/><path d="M159.056 172.911c0 1.277-.456 2.313-1.018 2.313s-1.018-1.036-1.018-2.313c0-1.277.456-2.313 1.018-2.313s1.018 1.036 1.018 2.313z" fill="#263238"/><path d="M154.43 168.747s.925-3.516 5.181-1.295" stroke="#263238" stroke-miterlimit="10" stroke-linecap="round" stroke-linejoin="round"/><path d="M158.927 301.132s3.775 29.753 1.11 53.51c-2.664 23.758-5.107 28.642-12.212 40.854-7.105 12.212-9.77 40.41-9.992 45.961-.222 5.551 1.776 7.549 3.33 8.881 1.554 1.332 6.416 4.178 7.886 4.729 2.988 1.12 9.656 3.009 7.657 5.229-1.998 2.22-10.437.033-12.213.921-1.776.888-9.992-.666-9.992-.666l-6.439-11.99s5.107-54.621 6.883-62.614c1.776-7.993-.888-58.173-.888-58.173l-1.554-31.085 26.424 4.443z" fill="#263238" stroke="#263238" stroke-miterlimit="10" stroke-linecap="round" stroke-linejoin="round"/><path d="M109.832 292.916s-4.638 4.22-4.86 20.207c-.222 15.987 16.875 39.966 17.763 46.405.888 6.439 2.664 18.207-.444 25.978-3.108 7.771-3.997 24.646-1.998 33.083 1.998 8.437 2.664 29.975 3.108 31.307.444 1.332-1.11 7.771.444 9.326 1.554 1.554 16.209 2.886 18.873 2.886 2.664 0 8.215-.222 10.658-1.332 2.442-1.11 3.997-1.776 2.22-2.887-1.776-1.11-15.764-4.441-18.429-7.771-2.664-3.33-2.664-9.991-2.22-11.99.444-1.998 2.664-25.312 6.217-33.749 3.553-8.437 8.659-32.417 8.215-45.739-.444-13.322.444-44.407-.444-49.07-.888-4.663-1.332-6.661-1.332-6.661l-36.192-11.768-1.579 1.775z" fill="#fff" stroke="#263238" stroke-miterlimit="10" stroke-linecap="round" stroke-linejoin="round"/><path d="M135.778 431.837c1.021-8.041 2.869-21.48 5.386-27.458 3.553-8.437 8.659-32.417 8.215-45.739-.444-13.322.444-44.407-.444-49.07-.888-4.663-1.332-6.661-1.332-6.661l-36.192-11.768-1.579 1.774s-4.638 4.221-4.86 20.207c-.222 15.986 16.875 39.966 17.763 46.405.888 6.439 2.664 18.207-.444 25.978-3.109 7.771-3.997 24.646-1.998 33.083.753 3.18 1.317 8.219 1.751 13.337 3.447.954 8.039 1.339 13.734-.088z" fill="#263238" stroke="#263238" stroke-miterlimit="10" stroke-linecap="round" stroke-linejoin="round"/><path d="M137.776 415.52c-.552 2.954-.879 5.163-.879 5.541M149.559 328.805c.577 10.737 1.226 25.481.938 33.245-.486 13.113-8.985 37.64-10.685 44.197a123.195 123.195 0 0 0-1.117 4.72M152.44 312.025l-3.643 3.885s.278 4.203.614 10.206" stroke="#7D7D7D" stroke-miterlimit="10" stroke-linecap="round" stroke-linejoin="round"/><path d="M123.441 451.667c-.174 2.444-.766 6.383.404 7.553 1.554 1.554 16.209 2.886 18.873 2.886 2.664 0 8.215-.222 10.658-1.332 2.442-1.11 3.997-1.776 2.22-2.886-1.776-1.11-15.765-4.441-18.429-7.771l-1.209 4.543-12.517-2.993zM178.449 254.041s3.756-10.266 4.382-12.394c.626-2.128 3.005-.626 4.257-.25 1.252.376 4.382-.501 4.257.501s-1.002 2.128-1.628 2.379c-.626.25-4.257.125-4.257.125s-.501 2.128-.125 2.629c.376.501 11.518-3.255 11.017-1.878-.501 1.377-6.761 8.513-8.638 10.141-1.878 1.627-4.507 2.504-4.507 2.504s-12.645 15.149-14.523 17.778c-1.878 2.629-4.006 4.131-4.006 4.131l.876-18.153s11.894-5.385 12.895-7.513z" fill="#fff" stroke="#263238" stroke-miterlimit="10" stroke-linecap="round" stroke-linejoin="round"/><path d="M174.264 257.162c-3.779 2.158-8.71 4.39-8.71 4.39l-.876 18.153s2.128-1.502 4.006-4.132c.87-1.218 4.051-5.123 7.215-8.964-2.77-2.94-2.282-7.034-1.635-9.447z" fill="#0A5840" stroke="#263238" stroke-miterlimit="10" stroke-linecap="round" stroke-linejoin="round"/><path d="m170.249 262.888 3.3-1.716M171.173 267.113l3.036-1.98M171.313 258.674s-3.13 6.26 1.502 11.017" stroke="#263238" stroke-miterlimit="10" stroke-linecap="round" stroke-linejoin="round"/><path d="m196.477 236.389-13.521 19.405 1.002.751 13.771-19.405-1.252-.751z" fill="#263238"/><path d="M196.227 239.77s.376 2.629.25 4.006c-.125 1.377-.501 2.754-1.252 3.005-.751.25-1.127-3.38-.876-4.257.251-.876 1.878-2.754 1.878-2.754z" fill="#fff" stroke="#263238" stroke-miterlimit="10" stroke-linecap="round" stroke-linejoin="round"/><path d="M194.349 242.523s-2.379 2.254-2.504 3.005c-.125.751.501 4.507 1.252 4.382s2.629-2.504 2.128-3.13c-.5-.626-.876-4.257-.876-4.257z" fill="#fff" stroke="#263238" stroke-miterlimit="10" stroke-linecap="round" stroke-linejoin="round"/><path d="M191.845 245.527s-1.878 2.128-1.878 3.255c0 1.127 0 3.005.501 3.631.501.626 1.002.501 1.628-.501a12.69 12.69 0 0 0 1.002-2.003l-1.253-4.382z" fill="#fff" stroke="#263238" stroke-miterlimit="10" stroke-linecap="round" stroke-linejoin="round"/><path d="M190.468 252.413s-1.377-3.38-1.753-3.005c-.376.376-.876 1.377-.751 2.128.125.751.501 2.629 1.127 3.13.626.501 1.127-1.377 1.377-2.253z" fill="#fff" stroke="#263238" stroke-miterlimit="10" stroke-linecap="round" stroke-linejoin="round"/><path d="M110.757 289.215s-1.851 1.85-.925 3.701c.925 1.85 12.213 8.512 25.722 11.288 13.509 2.776 23.131 1.851 24.797.37 1.665-1.48 2.036-6.847 2.036-6.847s-15.359.74-30.348-4.626c-14.989-5.366-17.765-6.292-18.69-6.477-.926-.185-2.592 2.591-2.592 2.591z" fill="#0A5840" stroke="#263238" stroke-miterlimit="10" stroke-linecap="round" stroke-linejoin="round"/><path d="m113.889 291.133-1.188 2.244M115.473 296.543l1.188-2.508M121.677 295.225l-.924 2.772M126.955 297.203l-.923 3.036M150.054 302.615l-.396 1.716M154.805 302.748l-.528 2.112" stroke="#263238" stroke-miterlimit="10" stroke-linecap="round" stroke-linejoin="round"/><path d="M126.117 209.458s-9.623 12.028-9.993 20.541c-.37 8.512 2.591 43.117 2.591 43.117s-8.882 13.324-7.957 16.099c.925 2.776 25.722 11.288 34.049 12.398 8.327 1.11 16.655 1.48 18.32-1.48 1.665-2.961 2.776-15.174 4.256-29.238 1.48-14.064-1.11-33.494-4.626-39.786-3.516-6.292-12.769-12.213-12.769-12.213s-21.466-9.993-23.871-9.438z" fill="#0A5840" stroke="#263238" stroke-miterlimit="10" stroke-linecap="round" stroke-linejoin="round"/><path d="M125.376 211.493s1.48-12.583 2.591-12.768c1.11-.185 23.501 6.107 23.872 7.772.37 1.665-.925 12.213-1.85 12.398-.926.186-24.613-7.402-24.613-7.402z" fill="#0A5840" stroke="#263238" stroke-miterlimit="10" stroke-linecap="round" stroke-linejoin="round"/><path d="m129.818 201.5-1.099 8.229M133.034 204.053l-1.136 7.948M138.938 202.008l-1.362 8.63M141.663 216.316l.909-6.359" stroke="#263238" stroke-miterlimit="10" stroke-linecap="round" stroke-linejoin="round"/><path d="M162.075 151.478s.925 4.071-.37 6.477c-1.295 2.406-12.396 11.244-15.727 14.76-3.331 3.516-8.7 9.112-2.593 16.144 6.107 7.032 7.217 1.85 7.217 1.85s-3.146 7.957-8.882 9.623c-5.737 1.665-16.469 2.406-22.576-3.146-6.107-5.551-11.658-14.989-8.512-26.462 3.146-11.473 9.067-24.242 18.32-26.092 9.253-1.85 16.284-1.295 21.466 0 5.18 1.295 11.472 4.255 11.657 6.846z" fill="#263238" stroke="#263238" stroke-miterlimit="10" stroke-linecap="round" stroke-linejoin="round"/><path d="M124.451 213.898s-6.662 1.851-8.882 8.327c-2.221 6.477.925 54.96 3.331 57.551 2.406 2.591 42.007-28.128 42.007-28.128s2.221-.185 4.811-2.036c2.591-1.851 5.181-4.626 5.181-4.626s-1.295 3.886.925 2.591c2.221-1.295 4.441-4.071 3.701-6.477-.74-2.406-4.441-5.737-4.441-5.737s-.925-1.666 2.221-1.295c3.146.37 3.701 3.701 5.367 2.961 1.665-.74 1.48-2.036-1.665-4.256-3.146-2.221-8.512-2.961-10.363-.37-1.85 2.591-10.733 14.989-10.733 14.989l-22.946 9.067-1.11-30.533" fill="#0A5840"/><path d="M124.451 213.898s-6.662 1.851-8.882 8.327c-2.221 6.477.925 54.96 3.331 57.551 2.406 2.591 42.007-28.128 42.007-28.128s2.221-.185 4.811-2.036c2.591-1.851 5.181-4.626 5.181-4.626s-1.295 3.886.925 2.591c2.221-1.295 4.441-4.071 3.701-6.477-.74-2.406-4.441-5.737-4.441-5.737s-.925-1.666 2.221-1.295c3.146.37 3.701 3.701 5.367 2.961 1.665-.74 1.48-2.036-1.665-4.256-3.146-2.221-8.512-2.961-10.363-.37-1.85 2.591-10.733 14.989-10.733 14.989l-22.946 9.067-1.11-30.533M148.734 252.592l2.639-1.188M149.263 256.156l3.563-1.32" stroke="#263238" stroke-miterlimit="10" stroke-linecap="round" stroke-linejoin="round"/><path d="M153.844 257.041a766.954 766.954 0 0 0 7.061-5.391s2.221-.185 4.811-2.035c2.591-1.851 5.181-4.626 5.181-4.626s-1.295 3.886.925 2.591c2.221-1.295 4.441-4.071 3.701-6.477-.74-2.406-4.441-5.736-4.441-5.736s-.925-1.665 2.221-1.295c3.146.37 3.701 3.701 5.367 2.961 1.665-.74 1.48-2.035-1.665-4.256-3.146-2.221-8.512-2.961-10.363-.37-1.85 2.591-10.733 14.989-10.733 14.989l-4.718 1.865 2.653 7.78z" fill="#fff" stroke="#263238" stroke-miterlimit="10" stroke-linecap="round" stroke-linejoin="round"/><path d="m147.212 250.723 3.331 8.142" stroke="#263238" stroke-miterlimit="10" stroke-linecap="round" stroke-linejoin="round"/></svg>