<svg width="600" height="561" viewBox="0 0 600 561" fill="none" xmlns="http://www.w3.org/2000/svg">
<path d="M600 438.879H0V439.179H600V438.879Z" fill="#EBEBEB"/>
<path d="M539.879 458.193H500.133V458.493H539.879V458.193Z" fill="#EBEBEB"/>
<path d="M397.463 461.451H387.031V461.751H397.463V461.451Z" fill="#EBEBEB"/>
<path d="M498.937 447.051H475.906V447.351H498.937V447.051Z" fill="#EBEBEB"/>
<path d="M114.785 449.066H62.9531V449.366H114.785V449.066Z" fill="#EBEBEB"/>
<path d="M133.068 449.066H125.469V449.366H133.068V449.066Z" fill="#EBEBEB"/>
<path d="M270.177 454.135H157.766V454.435H270.177V454.135Z" fill="#EBEBEB"/>
<path d="M284.42 385.361H52.7012C48.9248 385.361 45.8516 382.288 45.8516 378.511V52.793C45.8516 49.0166 48.9248 45.9434 52.7012 45.9434H284.42C288.195 45.9434 291.268 49.0166 291.268 52.793V378.511C291.268 382.288 288.195 385.361 284.42 385.361ZM52.7012 46.2446C49.0892 46.2446 46.1516 49.1822 46.1516 52.7942V378.513C46.1516 382.125 49.0892 385.062 52.7012 385.062H284.42C288.031 385.062 290.968 382.125 290.968 378.513V52.793C290.968 49.1822 288.031 46.2434 284.42 46.2434L52.7012 46.2446Z" fill="#EBEBEB"/>
<path d="M543.972 385.361H312.255C308.478 385.361 305.406 382.288 305.406 378.511V52.793C305.406 49.0166 308.479 45.9434 312.255 45.9434H543.972C547.75 45.9434 550.822 49.0166 550.822 52.793V378.511C550.823 382.288 547.75 385.361 543.972 385.361ZM312.255 46.2446C308.644 46.2446 305.706 49.1822 305.706 52.7942V378.513C305.706 382.125 308.644 385.062 312.255 385.062H543.972C547.584 385.062 550.522 382.125 550.522 378.513V52.793C550.522 49.1822 547.584 46.2434 543.972 46.2434L312.255 46.2446Z" fill="#EBEBEB"/>
<path d="M361.314 310.492H491.883L491.883 74.5506L361.314 74.5506V310.492Z" fill="#E6E6E6"/>
<path d="M355.293 310.492H489.07L489.07 74.5506L355.293 74.5506V310.492Z" fill="#F0F0F0"/>
<path d="M361.314 316.09H491.883V310.492H361.314V316.09Z" fill="#E6E6E6"/>
<path d="M353.121 316.09H486.898V310.492H353.121V316.09Z" fill="#F0F0F0"/>
<path d="M480.633 302.058L480.633 82.9844L363.724 82.9844L363.724 302.058H480.633Z" fill="#FAFAFA"/>
<path d="M396.789 302.056L429.701 82.9844H453.07L420.158 302.056H396.789Z" fill="white"/>
<path d="M400.5 302.056L433.411 82.9844H456.78L423.869 302.056H400.5Z" fill="white"/>
<path d="M425.18 302.056L458.092 82.9844H467.203L434.291 302.056H425.18Z" fill="white"/>
<path d="M364.797 302.06L364.797 82.9863H363.726L363.726 302.06H364.797Z" fill="#E6E6E6"/>
<path opacity="0.6" d="M353.297 89.3417H483.864L484.64 86.2637H354.073L353.297 89.3417Z" fill="#EBEBEB"/>
<path opacity="0.6" d="M353.297 94.3917H483.864L484.64 91.3125H354.073L353.297 94.3917Z" fill="#EBEBEB"/>
<path opacity="0.6" d="M353.297 99.4386H483.864L484.64 96.3594H354.073L353.297 99.4386Z" fill="#EBEBEB"/>
<path opacity="0.6" d="M353.297 104.488H483.864L484.64 101.41H354.073L353.297 104.488Z" fill="#EBEBEB"/>
<path opacity="0.6" d="M353.297 109.537H483.864L484.64 106.459H354.073L353.297 109.537Z" fill="#EBEBEB"/>
<path opacity="0.6" d="M353.297 114.584H483.864L484.64 111.506H354.073L353.297 114.584Z" fill="#EBEBEB"/>
<path d="M517.737 60.4004H329.438V64.9496H517.737V60.4004Z" fill="#F0F0F0"/>
<path opacity="0.8" d="M514.336 56.5703H504.438V347.974H514.336V56.5703Z" fill="#FAFAFA"/>
<path opacity="0.8" d="M507.001 56.5703H504.438V347.974H507.001V56.5703Z" fill="#F0F0F0"/>
<path opacity="0.8" d="M504.438 56.5703H494.539V347.974H504.438V56.5703Z" fill="#FAFAFA"/>
<path opacity="0.8" d="M497.102 56.5703H494.539V347.974H497.102V56.5703Z" fill="#F0F0F0"/>
<path opacity="0.8" d="M494.539 56.5703H484.641V347.974H494.539V56.5703Z" fill="#FAFAFA"/>
<path opacity="0.8" d="M361.313 56.5703H351.414V347.974H361.313V56.5703Z" fill="#FAFAFA"/>
<path opacity="0.8" d="M353.976 56.5703H351.414V347.974H353.976V56.5703Z" fill="#F0F0F0"/>
<path opacity="0.8" d="M351.414 56.5703H341.516V347.974H351.414V56.5703Z" fill="#FAFAFA"/>
<path opacity="0.8" d="M344.078 56.5703H341.516V347.974H344.078V56.5703Z" fill="#F0F0F0"/>
<path opacity="0.8" d="M341.516 56.5703H331.617V347.974H341.516V56.5703Z" fill="#FAFAFA"/>
<path d="M102.408 310.492H232.977L232.977 74.5506L102.408 74.5506L102.408 310.492Z" fill="#E6E6E6"/>
<path d="M96.3869 310.492H230.164L230.164 74.5506L96.3869 74.5506L96.3869 310.492Z" fill="#F0F0F0"/>
<path d="M102.408 316.09H232.977V310.492H102.408V316.09Z" fill="#E6E6E6"/>
<path d="M94.215 316.09H227.992V310.492H94.215V316.09Z" fill="#F0F0F0"/>
<path d="M221.727 302.06L221.727 82.9863L104.818 82.9863L104.818 302.06H221.727Z" fill="#FAFAFA"/>
<path d="M137.883 302.056L170.795 82.9844H194.164L161.252 302.056H137.883Z" fill="white"/>
<path d="M141.594 302.056L174.506 82.9844H197.875L164.963 302.056H141.594Z" fill="white"/>
<path d="M166.273 302.056L199.186 82.9844H208.296L175.384 302.056H166.273Z" fill="white"/>
<path d="M105.891 302.058L105.891 82.9844H104.82L104.82 302.058H105.891Z" fill="#E6E6E6"/>
<path opacity="0.6" d="M94.3906 89.3417H224.959L225.734 86.2637H95.167L94.3906 89.3417Z" fill="#EBEBEB"/>
<path opacity="0.6" d="M94.3906 94.3917H224.959L225.734 91.3125H95.167L94.3906 94.3917Z" fill="#EBEBEB"/>
<path opacity="0.6" d="M94.3906 99.4386H224.959L225.734 96.3594H95.167L94.3906 99.4386Z" fill="#EBEBEB"/>
<path opacity="0.6" d="M94.3906 104.488H224.959L225.734 101.41H95.167L94.3906 104.488Z" fill="#EBEBEB"/>
<path opacity="0.6" d="M94.3906 109.537H224.959L225.734 106.459H95.167L94.3906 109.537Z" fill="#EBEBEB"/>
<path opacity="0.6" d="M94.3906 114.584H224.959L225.734 111.506H95.167L94.3906 114.584Z" fill="#EBEBEB"/>
<path d="M258.83 60.4004H70.5312V64.9496H258.83V60.4004Z" fill="#F0F0F0"/>
<path opacity="0.8" d="M255.43 56.5703H245.531V347.974H255.43V56.5703Z" fill="#FAFAFA"/>
<path opacity="0.8" d="M248.093 56.5703H245.531V347.974H248.093V56.5703Z" fill="#F0F0F0"/>
<path opacity="0.8" d="M245.532 56.5703H235.633V347.974H245.532V56.5703Z" fill="#FAFAFA"/>
<path opacity="0.8" d="M238.195 56.5703H235.633V347.974H238.195V56.5703Z" fill="#F0F0F0"/>
<path opacity="0.8" d="M235.633 56.5703H225.734V347.974H235.633V56.5703Z" fill="#FAFAFA"/>
<path opacity="0.8" d="M102.407 56.5703H92.5078V347.974H102.407V56.5703Z" fill="#FAFAFA"/>
<path opacity="0.8" d="M95.0698 56.5703H92.5078V347.974H95.0698V56.5703Z" fill="#F0F0F0"/>
<path opacity="0.8" d="M92.5082 56.5703H82.6094V347.974H92.5082V56.5703Z" fill="#FAFAFA"/>
<path opacity="0.8" d="M85.1714 56.5703H82.6094V347.974H85.1714V56.5703Z" fill="#F0F0F0"/>
<path opacity="0.8" d="M82.6097 56.5703H72.7109V347.974H82.6097V56.5703Z" fill="#FAFAFA"/>
<path d="M450.917 430.732H471.094V329.936H450.917V430.732Z" fill="#F0F0F0"/>
<path d="M292.776 438.879H463.727V430.732H292.776V438.879Z" fill="#F0F0F0"/>
<path d="M450.914 329.936H285.414V430.732H450.914V329.936Z" fill="#F5F5F5"/>
<path d="M435.838 340.611H300.492V374.135H435.838V340.611Z" fill="#F0F0F0"/>
<path d="M435.838 381.826H300.492V415.349H435.838V381.826Z" fill="#F0F0F0"/>
<path d="M352.119 345.233H384.204C385.794 345.233 387.096 343.932 387.096 342.341C387.096 340.751 385.795 339.449 384.204 339.449H352.119C350.529 339.449 349.227 340.75 349.227 342.341C349.228 343.932 350.529 345.233 352.119 345.233Z" fill="#F5F5F5"/>
<path d="M352.119 386.448H384.204C385.794 386.448 387.096 385.147 387.096 383.556C387.096 381.966 385.795 380.664 384.204 380.664H352.119C350.529 380.664 349.227 381.965 349.227 383.556C349.228 385.146 350.529 386.448 352.119 386.448Z" fill="#F5F5F5"/>
<path d="M280.304 329.936H450.914V326.001H280.304V329.936Z" fill="#F0F0F0"/>
<path d="M476.45 326H450.914V329.935H476.45V326Z" fill="#E6E6E6"/>
<path d="M130.001 432.195C125.231 432.195 121.328 428.292 121.328 423.522V338.608C121.328 333.838 125.231 329.936 130.001 329.936C134.771 329.936 138.673 333.838 138.673 338.608V423.522C138.673 428.292 134.771 432.195 130.001 432.195Z" fill="#F5F5F5"/>
<path d="M134.962 428.779C131.739 428.779 129.102 426.142 129.102 422.918V339.212C129.102 335.989 131.739 333.352 134.962 333.352C138.186 333.352 140.823 335.989 140.823 339.212V422.918C140.823 426.142 138.187 428.779 134.962 428.779Z" fill="#EBEBEB"/>
<path d="M142.594 432.195C137.824 432.195 133.922 428.292 133.922 423.522V338.608C133.922 333.838 137.824 329.936 142.594 329.936C147.364 329.936 151.267 333.838 151.267 338.608V423.522C151.267 428.292 147.364 432.195 142.594 432.195Z" fill="#F5F5F5"/>
<path d="M147.556 428.779C144.333 428.779 141.695 426.142 141.695 422.918V339.212C141.695 335.989 144.333 333.352 147.556 333.352C150.779 333.352 153.417 335.989 153.417 339.212V422.918C153.417 426.142 150.779 428.779 147.556 428.779Z" fill="#EBEBEB"/>
<path d="M155.196 432.195C150.426 432.195 146.523 428.292 146.523 423.522V338.608C146.523 333.838 150.426 329.936 155.196 329.936C159.966 329.936 163.868 333.838 163.868 338.608V423.522C163.868 428.292 159.966 432.195 155.196 432.195Z" fill="#F5F5F5"/>
<path d="M160.158 428.779C156.934 428.779 154.297 426.142 154.297 422.918V339.212C154.297 335.989 156.934 333.352 160.158 333.352C163.381 333.352 166.018 335.989 166.018 339.212V422.918C166.018 426.142 163.381 428.779 160.158 428.779Z" fill="#EBEBEB"/>
<path d="M167.797 432.195C163.027 432.195 159.125 428.292 159.125 423.522V338.608C159.125 333.838 163.027 329.936 167.797 329.936C172.567 329.936 176.47 333.838 176.47 338.608V423.522C176.47 428.292 172.567 432.195 167.797 432.195Z" fill="#F5F5F5"/>
<path d="M172.759 428.779C169.536 428.779 166.898 426.142 166.898 422.918V339.212C166.898 335.989 169.536 333.352 172.759 333.352C175.982 333.352 178.62 335.989 178.62 339.212V422.918C178.621 426.142 175.984 428.779 172.759 428.779Z" fill="#EBEBEB"/>
<path d="M180.391 432.195C175.621 432.195 171.719 428.292 171.719 423.522V338.608C171.719 333.838 175.621 329.936 180.391 329.936C185.161 329.936 189.064 333.838 189.064 338.608V423.522C189.064 428.292 185.16 432.195 180.391 432.195Z" fill="#F5F5F5"/>
<path d="M185.353 428.779C182.13 428.779 179.492 426.142 179.492 422.918V339.212C179.492 335.989 182.13 333.352 185.353 333.352C188.576 333.352 191.214 335.989 191.214 339.212V422.918C191.214 426.142 188.576 428.779 185.353 428.779Z" fill="#EBEBEB"/>
<path d="M192.993 432.195C188.223 432.195 184.32 428.292 184.32 423.522V338.608C184.32 333.838 188.223 329.936 192.993 329.936C197.763 329.936 201.665 333.838 201.665 338.608V423.522C201.665 428.292 197.763 432.195 192.993 432.195Z" fill="#F5F5F5"/>
<path d="M197.955 428.779C194.731 428.779 192.094 426.142 192.094 422.918V339.212C192.094 335.989 194.731 333.352 197.955 333.352C201.178 333.352 203.815 335.989 203.815 339.212V422.918C203.815 426.142 201.178 428.779 197.955 428.779Z" fill="#EBEBEB"/>
<path d="M205.586 432.195C200.816 432.195 196.914 428.292 196.914 423.522V338.608C196.914 333.838 200.816 329.936 205.586 329.936C210.356 329.936 214.259 333.838 214.259 338.608V423.522C214.259 428.292 210.356 432.195 205.586 432.195Z" fill="#F5F5F5"/>
<path d="M216.218 420.827H190.781C189.723 420.827 188.859 419.962 188.859 418.906C188.859 417.848 189.723 416.984 190.781 416.984H216.218C217.275 416.984 218.139 417.848 218.139 418.906C218.139 419.962 217.274 420.827 216.218 420.827Z" fill="#F5F5F5"/>
<path d="M216.218 347.655H190.781C189.723 347.655 188.859 346.79 188.859 345.734C188.859 344.677 189.723 343.812 190.781 343.812H216.218C217.275 343.812 218.139 344.677 218.139 345.734C218.139 346.791 217.274 347.655 216.218 347.655Z" fill="#F5F5F5"/>
<path d="M300.003 493.074C428.501 493.074 532.67 486.99 532.67 479.486C532.67 471.982 428.501 465.898 300.003 465.898C171.504 465.898 67.3359 471.982 67.3359 479.486C67.3359 486.99 171.504 493.074 300.003 493.074Z" fill="#F5F5F5"/>
<path d="M491.804 278.395H204.973C198.415 278.395 193.382 273.03 193.789 266.472L204.299 97.1771C204.706 90.6191 210.405 85.2539 216.963 85.2539H503.793C510.351 85.2539 515.384 90.6191 514.976 97.1771L504.465 266.472C504.061 273.03 498.362 278.395 491.804 278.395Z" fill="#0A5840"/>
<path opacity="0.8" d="M491.804 278.395H204.973C198.415 278.395 193.382 273.03 193.789 266.472L204.299 97.1771C204.706 90.6191 210.405 85.2539 216.963 85.2539H503.793C510.351 85.2539 515.384 90.6191 514.976 97.1771L504.465 266.472C504.061 273.03 498.362 278.395 491.804 278.395Z" fill="white"/>
<path opacity="0.4" d="M241.756 134.037H207.601C205.733 134.037 204.313 132.522 204.428 130.654L205.399 115.016C205.516 113.147 207.124 111.633 208.992 111.633H243.148L241.756 134.037Z" fill="white"/>
<path d="M503.608 88.2344H253.542C248.603 88.2344 244.35 92.2388 244.044 97.1768L241.632 136.023H207.478C205.609 136.023 204.001 137.538 203.885 139.406L202.975 154.051C202.859 155.919 204.28 157.434 206.148 157.434H240.304L233.535 266.472C233.227 271.411 236.983 275.414 241.923 275.414H491.988C496.927 275.414 501.179 271.41 501.486 266.472L511.997 97.1768C512.302 92.2376 508.547 88.2344 503.608 88.2344Z" fill="white"/>
<path opacity="0.4" d="M238.849 180.832H204.695C202.827 180.832 201.407 179.318 201.522 177.449L202.432 162.805C202.548 160.936 204.156 159.422 206.025 159.422H240.18L238.849 180.832Z" fill="white"/>
<path opacity="0.4" d="M237.397 204.229H203.242C201.373 204.229 199.954 202.714 200.069 200.846L200.979 186.201C201.095 184.333 202.703 182.818 204.571 182.818H238.727L237.397 204.229Z" fill="white"/>
<path opacity="0.4" d="M235.944 227.625H201.789C199.92 227.625 198.501 226.111 198.616 224.242L199.526 209.598C199.642 207.729 201.25 206.215 203.118 206.215H237.274L235.944 227.625Z" fill="white"/>
<path opacity="0.4" d="M234.49 251.024H200.336C198.467 251.024 197.048 249.509 197.163 247.641L198.072 232.996C198.189 231.128 199.797 229.613 201.665 229.613H235.821L234.49 251.024Z" fill="white"/>
<path opacity="0.2" d="M207.155 154.705C206.757 154.705 206.397 154.554 206.139 154.28C205.881 154.004 205.751 153.632 205.777 153.231L206.576 140.373C206.63 139.495 207.418 138.752 208.295 138.752H237.248C237.646 138.752 238.006 138.903 238.264 139.177C238.522 139.452 238.651 139.824 238.627 140.224L237.827 153.082C237.773 153.961 236.986 154.704 236.108 154.704H207.155V154.705Z" fill="#0A5840"/>
<path opacity="0.3" d="M303.577 108.405H262.286C259.129 108.405 256.705 105.822 256.902 102.665C257.097 99.5074 259.842 96.9238 262.999 96.9238H304.29C307.447 96.9238 309.87 99.5074 309.674 102.665C309.479 105.822 306.734 108.405 303.577 108.405Z" fill="#0A5840"/>
<path d="M500.352 102.665C500.155 105.835 497.425 108.405 494.255 108.405C491.085 108.405 488.674 105.835 488.871 102.665C489.067 99.4942 491.797 96.9238 494.968 96.9238C498.138 96.9238 500.549 99.4942 500.352 102.665Z" fill="#0A5840"/>
<path opacity="0.4" d="M383.446 206.607H261.579C255.303 206.607 250.515 201.501 250.905 195.226L254.582 136.014C254.972 129.738 260.393 124.633 266.669 124.633H388.537C394.813 124.633 399.602 129.739 399.212 136.014L395.535 195.226C395.145 201.501 389.722 206.607 383.446 206.607ZM266.638 125.13C260.637 125.13 255.451 130.012 255.079 136.014L251.402 195.226C251.029 201.228 255.609 206.11 261.61 206.11H383.477C389.48 206.11 394.665 201.228 395.038 195.226L398.715 136.014C399.087 130.012 394.508 125.13 388.505 125.13H266.638Z" fill="#0A5840"/>
<path d="M276.406 164.013L293.888 175.318C297.381 170.219 302.061 165.976 307.481 163.005L298.087 144.375C289.442 149.115 281.978 155.881 276.406 164.013Z" fill="#0A5840"/>
<path opacity="0.8" d="M276.406 164.013L293.888 175.318C297.381 170.219 302.061 165.976 307.481 163.005L298.087 144.375C289.442 149.115 281.978 155.881 276.406 164.013Z" fill="white"/>
<path d="M265.867 194.324H287.28C287.713 187.346 290.11 180.835 293.89 175.319L276.408 164.014C270.379 172.812 266.558 183.194 265.867 194.324Z" fill="#263238"/>
<path d="M326.84 136.914C316.55 136.914 306.733 139.634 298.086 144.376L307.481 163.006C312.902 160.033 319.058 158.327 325.511 158.327C345.392 158.327 360.508 174.444 359.274 194.324H380.687C382.655 162.618 358.547 136.914 326.84 136.914Z" fill="#0A5840"/>
<path d="M312.937 228.383H250.181C249.578 228.383 249.121 227.894 249.158 227.292L249.432 222.876C249.469 222.274 249.988 221.785 250.59 221.785H313.346L312.937 228.383Z" fill="#0A5840"/>
<path opacity="0.2" d="M312.938 228.383H392.133C392.735 228.383 393.253 227.894 393.291 227.292L393.564 222.876C393.601 222.274 393.144 221.785 392.542 221.785H313.347L312.938 228.383Z" fill="#0A5840"/>
<path d="M355.567 245.814H249.103C248.5 245.814 248.043 245.326 248.08 244.724L248.354 240.308C248.391 239.705 248.909 239.217 249.512 239.217H355.976L355.567 245.814Z" fill="#0A5840"/>
<path opacity="0.2" d="M355.562 245.814H391.051C391.654 245.814 392.172 245.326 392.209 244.724L392.483 240.308C392.52 239.705 392.063 239.217 391.461 239.217H355.972L355.562 245.814Z" fill="#0A5840"/>
<path d="M260.522 263.247H248.017C247.414 263.247 246.957 262.758 246.994 262.157L247.269 257.741C247.306 257.139 247.825 256.65 248.427 256.65H260.932L260.522 263.247Z" fill="#0A5840"/>
<path opacity="0.2" d="M260.523 263.247H389.971C390.573 263.247 391.092 262.758 391.129 262.157L391.404 257.741C391.441 257.139 390.984 256.65 390.381 256.65H260.933L260.523 263.247Z" fill="#0A5840"/>
<path d="M418.521 263.744C418.247 263.744 418.038 263.522 418.056 263.247L426.647 124.88C426.663 124.605 426.9 124.383 427.175 124.383C427.449 124.383 427.657 124.605 427.64 124.88L419.049 263.247C419.033 263.522 418.796 263.744 418.521 263.744Z" fill="#0A5840"/>
<path d="M428.21 161.123C428.096 162.951 426.521 164.435 424.691 164.435C422.863 164.435 421.472 162.951 421.585 161.123C421.699 159.294 423.273 157.811 425.102 157.811C426.932 157.811 428.324 159.293 428.21 161.123Z" fill="white"/>
<path d="M424.658 164.932C422.558 164.932 420.955 163.223 421.086 161.123C421.216 159.023 423.031 157.314 425.131 157.314C427.231 157.314 428.834 159.023 428.703 161.123C428.572 163.223 426.758 164.932 424.658 164.932ZM425.068 158.308C423.516 158.308 422.174 159.57 422.078 161.123C421.982 162.676 423.166 163.938 424.719 163.938C426.272 163.938 427.614 162.676 427.71 161.123C427.806 159.57 426.621 158.308 425.068 158.308Z" fill="#0A5840"/>
<path d="M426.357 190.933C426.243 192.762 424.669 194.245 422.84 194.245C421.011 194.245 419.62 192.762 419.733 190.933C419.847 189.104 421.421 187.621 423.25 187.621C425.079 187.621 426.47 189.103 426.357 190.933Z" fill="white"/>
<path d="M422.806 194.742C420.706 194.742 419.103 193.033 419.234 190.933C419.365 188.832 421.179 187.123 423.279 187.123C425.379 187.123 426.982 188.832 426.852 190.933C426.722 193.033 424.908 194.742 422.806 194.742ZM423.218 188.117C421.665 188.117 420.324 189.38 420.228 190.933C420.132 192.486 421.316 193.748 422.869 193.748C424.422 193.748 425.762 192.486 425.859 190.933C425.955 189.38 424.771 188.117 423.218 188.117Z" fill="#0A5840"/>
<path d="M422.143 205.428L417.758 212.283H425.675L422.143 205.428Z" fill="white"/>
<path d="M425.643 212.78H417.725C417.547 212.78 417.389 212.685 417.31 212.531C417.231 212.378 417.243 212.188 417.341 212.034L421.726 205.178C421.923 204.87 422.428 204.87 422.586 205.178L426.119 212.034C426.198 212.188 426.186 212.378 426.088 212.531C425.989 212.685 425.82 212.78 425.643 212.78ZM418.648 211.786H424.843L422.079 206.42L418.648 211.786Z" fill="#0A5840"/>
<path d="M478.138 263.744C477.864 263.744 477.656 263.522 477.673 263.247L486.264 124.88C486.28 124.605 486.517 124.383 486.792 124.383C487.066 124.383 487.274 124.605 487.257 124.88L478.666 263.247C478.65 263.522 478.413 263.744 478.138 263.744Z" fill="#0A5840"/>
<path d="M484.412 216.05C484.526 214.221 483.135 212.738 481.305 212.738C479.476 212.738 477.901 214.221 477.788 216.05C477.674 217.879 479.065 219.362 480.895 219.362C482.723 219.362 484.298 217.879 484.412 216.05Z" fill="white"/>
<path d="M480.861 219.859C478.761 219.859 477.158 218.15 477.289 216.05C477.42 213.949 479.234 212.24 481.334 212.24C483.434 212.24 485.037 213.949 484.906 216.05C484.776 218.15 482.961 219.859 480.861 219.859ZM481.272 213.234C479.719 213.234 478.377 214.497 478.281 216.05C478.185 217.603 479.37 218.865 480.922 218.865C482.475 218.865 483.817 217.603 483.913 216.05C484.009 214.497 482.824 213.234 481.272 213.234Z" fill="#0A5840"/>
<path d="M489.046 141.515C489.16 139.686 487.769 138.203 485.939 138.203C484.11 138.203 482.535 139.686 482.421 141.515C482.307 143.344 483.697 144.827 485.527 144.827C487.357 144.827 488.933 143.345 489.046 141.515Z" fill="white"/>
<path d="M485.494 145.325C483.394 145.325 481.791 143.616 481.922 141.516C482.052 139.416 483.867 137.707 485.967 137.707C488.067 137.707 489.67 139.416 489.539 141.516C489.41 143.616 487.594 145.325 485.494 145.325ZM485.906 138.701C484.353 138.701 483.012 139.963 482.915 141.516C482.819 143.069 484.004 144.331 485.556 144.331C487.109 144.331 488.451 143.069 488.547 141.516C488.643 139.964 487.458 138.701 485.906 138.701Z" fill="#0A5840"/>
<path d="M483.173 182.699L479.641 175.842H487.558L483.173 182.699Z" fill="white"/>
<path d="M483.141 183.196C482.963 183.196 482.805 183.101 482.725 182.948L479.193 176.091C479.113 175.937 479.125 175.748 479.224 175.594C479.322 175.441 479.493 175.346 479.669 175.346H487.587C487.764 175.346 487.923 175.441 488.002 175.594C488.081 175.748 488.069 175.937 487.971 176.091L483.586 182.948C483.487 183.101 483.318 183.196 483.141 183.196ZM480.468 176.339L483.233 181.706L486.664 176.339H480.468Z" fill="#0A5840"/>
<path d="M448.326 263.744C448.051 263.744 447.844 263.522 447.86 263.247L456.451 124.88C456.468 124.605 456.704 124.383 456.979 124.383C457.254 124.383 457.463 124.605 457.445 124.88L448.854 263.247C448.837 263.522 448.601 263.744 448.326 263.744Z" fill="#0A5840"/>
<path d="M457.49 169.623C457.376 171.451 455.801 172.935 453.973 172.935C452.144 172.935 450.753 171.451 450.866 169.623C450.98 167.794 452.554 166.311 454.383 166.311C456.213 166.311 457.604 167.794 457.49 169.623Z" fill="white"/>
<path d="M453.939 173.432C451.839 173.432 450.236 171.723 450.367 169.623C450.498 167.523 452.312 165.814 454.412 165.814C456.512 165.814 458.115 167.523 457.984 169.623C457.855 171.723 456.039 173.432 453.939 173.432ZM454.351 166.808C452.798 166.808 451.456 168.07 451.36 169.623C451.264 171.176 452.449 172.438 454.002 172.438C455.554 172.438 456.896 171.176 456.992 169.623C457.087 168.07 455.902 166.808 454.351 166.808Z" fill="#0A5840"/>
<path d="M453.374 235.906C453.26 237.735 451.685 239.218 449.855 239.218C448.027 239.218 446.636 237.735 446.749 235.906C446.863 234.077 448.437 232.594 450.266 232.594C452.096 232.594 453.487 234.077 453.374 235.906Z" fill="white"/>
<path d="M449.822 239.716C447.722 239.716 446.119 238.008 446.25 235.906C446.38 233.806 448.195 232.098 450.295 232.098C452.395 232.098 453.998 233.806 453.867 235.906C453.738 238.008 451.923 239.716 449.822 239.716ZM450.234 233.091C448.681 233.091 447.339 234.354 447.243 235.906C447.147 237.459 448.332 238.723 449.884 238.723C451.437 238.723 452.779 237.459 452.875 235.906C452.971 234.354 451.786 233.091 450.234 233.091Z" fill="#0A5840"/>
<path d="M456.548 131.346L452.164 138.203H460.08L456.548 131.346Z" fill="white"/>
<path d="M460.049 138.7H452.131C451.954 138.7 451.795 138.605 451.716 138.451C451.637 138.298 451.649 138.108 451.747 137.954L456.132 131.098C456.329 130.79 456.834 130.79 456.992 131.098L460.525 137.954C460.604 138.108 460.592 138.298 460.494 138.451C460.396 138.606 460.226 138.7 460.049 138.7ZM453.054 137.706H459.25L456.485 132.34L453.054 137.706Z" fill="#0A5840"/>
<path d="M133.842 166.969L132.625 172.818L131.429 178.81C130.642 182.8 129.965 186.787 129.35 190.696C129.048 192.655 128.806 194.588 128.598 196.494C128.365 198.398 128.21 200.252 128.116 202.034C128.01 203.815 128.04 205.51 128.099 206.935C128.143 208.339 128.402 209.538 128.346 209.672L127.544 208.291C127.178 207.927 126.524 207.598 126.414 207.753C126.288 207.871 126.725 208.185 127.49 208.386C128.25 208.588 129.326 208.736 130.506 208.8C131.699 208.857 133.004 208.798 134.372 208.702C137.117 208.516 140.06 208.056 143.052 207.502C144.548 207.217 146.07 206.926 147.584 206.584L152.074 205.611L152.671 205.482C156.068 204.745 159.42 206.902 160.157 210.3C160.697 212.792 159.676 215.26 157.754 216.69L155.519 218.348L153.301 219.854C151.8 220.813 150.272 221.749 148.692 222.613C145.529 224.349 142.198 225.886 138.533 227.152C136.696 227.779 134.764 228.297 132.691 228.718C130.606 229.126 128.386 229.431 125.869 229.374C123.367 229.317 120.532 228.99 117.401 227.76C114.289 226.585 110.97 224.128 108.767 221.031C108.532 220.7 108.323 220.357 108.143 220.005L107.965 219.65C106.074 215.893 105.43 212.84 104.898 210.003C104.393 207.174 104.23 204.571 104.131 202.062C104.046 199.552 104.052 197.116 104.137 194.74C104.251 192.367 104.413 190.027 104.632 187.725C105.044 183.115 105.725 178.622 106.502 174.174C106.914 171.954 107.324 169.74 107.824 167.541C108.072 166.441 108.312 165.34 108.584 164.239L109.464 160.839C111.202 154.122 118.056 150.084 124.774 151.821C131.286 153.506 135.28 159.998 133.934 166.514L133.842 166.969Z" fill="#0A5840"/>
<path opacity="0.2" d="M133.842 166.969L132.625 172.818L131.429 178.81C130.642 182.8 129.965 186.787 129.35 190.696C129.048 192.655 128.806 194.588 128.598 196.494C128.365 198.398 128.21 200.252 128.116 202.034C128.01 203.815 128.04 205.51 128.099 206.935C128.143 208.339 128.402 209.538 128.346 209.672L127.544 208.291C127.178 207.927 126.524 207.598 126.414 207.753C126.288 207.871 126.725 208.185 127.49 208.386C128.25 208.588 129.326 208.736 130.506 208.8C131.699 208.857 133.004 208.798 134.372 208.702C137.117 208.516 140.06 208.056 143.052 207.502C144.548 207.217 146.07 206.926 147.584 206.584L152.074 205.611L152.671 205.482C156.068 204.745 159.42 206.902 160.157 210.3C160.697 212.792 159.676 215.26 157.754 216.69L155.519 218.348L153.301 219.854C151.8 220.813 150.272 221.749 148.692 222.613C145.529 224.349 142.198 225.886 138.533 227.152C136.696 227.779 134.764 228.297 132.691 228.718C130.606 229.126 128.386 229.431 125.869 229.374C123.367 229.317 120.532 228.99 117.401 227.76C114.289 226.585 110.97 224.128 108.767 221.031C108.532 220.7 108.323 220.357 108.143 220.005L107.965 219.65C106.074 215.893 105.43 212.84 104.898 210.003C104.393 207.174 104.23 204.571 104.131 202.062C104.046 199.552 104.052 197.116 104.137 194.74C104.251 192.367 104.413 190.027 104.632 187.725C105.044 183.115 105.725 178.622 106.502 174.174C106.914 171.954 107.324 169.74 107.824 167.541C108.072 166.441 108.312 165.34 108.584 164.239L109.464 160.839C111.202 154.122 118.056 150.084 124.774 151.821C131.286 153.506 135.28 159.998 133.934 166.514L133.842 166.969Z" fill="black"/>
<path d="M103.479 473.891C103.479 473.891 92.1193 463.588 92.3665 460.334L82.9261 455.5L77.3125 465.197L82.5277 468.114L83.9449 467.681L84.8953 469.326C89.6029 471.737 99.8713 476.418 103.464 476.286C104.156 474.729 103.479 473.891 103.479 473.891Z" fill="#263238"/>
<path d="M104.284 352.748C111.15 303.588 108.909 273.704 116.117 249.474L160.758 245.883C160.758 245.883 140.974 323.876 131.902 356.351C122.795 388.953 94.426 462.456 94.426 462.456L82 456.094C82 456.094 92.1964 390.778 104.284 352.748Z" fill="#263238"/>
<path opacity="0.2" d="M140.699 282.24C137.659 289.266 131.734 334.353 131.758 356.867C131.806 356.699 131.854 356.52 131.902 356.352C135.088 344.941 139.603 327.899 144.117 310.596L140.699 282.24Z" fill="black"/>
<path d="M175.197 475.509C175.197 475.509 156.681 471.306 155.833 468.297H144.085L143.109 479.487H149.639L150.845 478.456L152.298 479.487C157.587 479.487 172.849 479.531 176.133 477.572C176.16 475.878 175.197 475.509 175.197 475.509Z" fill="#263238"/>
<path d="M143.845 354.127C134.039 287.508 134.039 246.269 134.039 246.269L177.724 245.564C177.724 245.564 172.479 325.006 170.655 358.279C168.762 392.876 157.961 469.018 157.961 469.018H142.734C142.734 469.018 139.248 396.9 143.845 354.127Z" fill="#263238"/>
<path d="M139.106 121.209C137.033 134.267 133.26 141.285 130.734 147.776C135.142 151.873 144.575 156.957 154.096 156.819C163.617 156.681 161.876 150.242 159.322 146.925C152.5 143.483 152.235 140.003 153.903 136.945L139.106 121.209Z" fill="#7F3E3B"/>
<path d="M122.781 149.626C122.781 149.626 128.857 142.482 131.251 141.286C133.645 140.089 151.806 142.545 156.094 143.343C160.383 144.141 165.597 150.523 165.597 150.523L122.781 149.626Z" fill="#263238"/>
<path d="M169.176 120.111C168.982 120.972 169.284 121.767 169.848 121.888C170.412 122.01 171.026 121.411 171.219 120.55C171.412 119.69 171.111 118.894 170.547 118.773C169.982 118.653 169.369 119.252 169.176 120.111Z" fill="#263238"/>
<path d="M168.85 121.303C168.85 121.303 169.697 126.687 171.319 129.547C169.474 130.639 167.023 129.43 167.023 129.43L168.85 121.303Z" fill="#630F0F"/>
<path d="M172.153 115.158C172.012 115.249 171.83 115.271 171.665 115.199C169.579 114.287 168.003 115.285 167.937 115.327C167.698 115.483 167.379 115.416 167.224 115.176C167.069 114.936 167.135 114.617 167.373 114.459C167.461 114.403 169.466 113.1 172.079 114.244C172.34 114.358 172.459 114.664 172.345 114.928C172.304 115.026 172.235 115.104 172.153 115.158Z" fill="#263238"/>
<path d="M140.618 111.351C138.896 122.055 137.342 128.237 141.476 134.812C147.696 144.701 161.866 142.681 166.764 132.679C171.173 123.677 173.249 107.684 163.818 101.246C154.529 94.905 142.342 100.646 140.618 111.351Z" fill="#7F3E3B"/>
<path d="M160.067 121.601C168.734 123.468 166.209 112.763 164.142 111.697C169.342 114.822 172.8 111.202 172.487 107.935C176.466 107.269 176.267 100.669 173.534 100.535C171.801 96.0013 163.725 92.2021 162.23 95.0017C157.868 89.9353 146.211 90.8017 147.905 94.4689C143.468 93.6025 134.042 94.0021 137.2 100.669C130.467 101.536 130.784 113.06 135.183 114.26C130.583 116.804 135.034 125.491 137.013 130.939C138.953 136.279 158.769 131.534 160.067 121.601Z" fill="#263238"/>
<path d="M155.128 120.507C154.732 123.068 155.429 125.478 156.552 127.054C158.242 129.424 160.858 127.949 161.87 125.062C162.782 122.463 163.002 118.098 160.592 116.79C158.218 115.502 155.58 117.578 155.128 120.507Z" fill="#7F3E3B"/>
<path d="M123.39 148.422C138.149 146.603 159.083 146.77 172.98 149.194C180.056 150.427 185.358 156.336 185.941 163.497C187.667 184.695 182.977 221.757 178.928 259.059C146.227 270.03 113.033 258.911 113.033 258.911C112.303 251.383 116.358 226.728 118.884 213.562C117.026 199.969 112.315 184.405 109.654 166.355C108.364 157.589 114.598 149.506 123.39 148.422Z" fill="#0A5840"/>
<path opacity="0.2" d="M167.805 178.109C170.031 190.88 177.105 206.092 183.568 216.159C184.453 207.338 185.196 198.935 185.674 191.192L167.805 178.109Z" fill="black"/>
<path d="M275.915 148.525C265.783 142.501 252.685 145.83 246.66 155.961C240.854 165.723 243.755 178.222 253.038 184.512C250.901 187.393 244.661 195.862 242.724 199.119C240.376 203.07 239.123 206.619 240.78 207.604C242.436 208.59 244.958 205.794 247.307 201.844C249.242 198.589 253.704 189.062 255.215 185.808C265.174 190.965 277.538 187.542 283.345 177.777C289.368 167.643 286.046 154.549 275.915 148.525ZM281.038 176.403C275.771 185.262 264.324 188.164 255.473 182.902C246.614 177.636 243.7 166.191 248.966 157.333C254.233 148.474 265.68 145.57 274.538 150.838C283.39 156.102 286.304 167.546 281.038 176.403Z" fill="#0A5840"/>
<path opacity="0.2" d="M281.91 176.923C276.356 186.262 264.286 189.325 254.954 183.775C245.614 178.221 242.54 166.154 248.094 156.814C253.647 147.475 265.718 144.412 275.058 149.966C284.39 155.515 287.463 167.582 281.91 176.923Z" fill="#0A5840"/>
<path d="M251.308 195.597L248.71 193.292C247.734 192.425 246.398 192.083 245.125 192.376L239.175 193.742C236.797 194.288 234.83 195.952 233.898 198.207L233.32 199.603C237.368 203.72 244.775 205.187 244.775 205.187L246.841 205.84C248.68 206.42 250.549 205.504 251.133 203.734L252.48 199.659C252.945 198.251 252.479 196.635 251.308 195.597Z" fill="#7F3E3B"/>
<path d="M185.361 159.149L187.783 164.413L190.315 169.787C192.009 173.358 193.793 176.857 195.582 180.253C196.485 181.946 197.412 183.599 198.361 185.184C199.287 186.786 200.239 188.322 201.201 189.737C202.151 191.154 203.154 192.434 204.017 193.478C204.858 194.516 205.728 195.253 205.743 195.371L204.264 194.767C205.228 195.3 207.192 195.89 209.496 196.083C211.798 196.292 214.432 196.349 217.141 196.182C219.867 196.062 222.694 195.776 225.567 195.435C227.002 195.259 228.457 195.086 229.906 194.871L234.193 194.293L234.79 194.213C238.243 193.747 241.421 196.17 241.887 199.623C242.22 202.1 241.062 204.438 239.11 205.733L236.925 207.175L234.774 208.475C233.323 209.298 231.856 210.102 230.349 210.837C228.839 211.562 227.308 212.281 225.733 212.927C224.155 213.561 222.543 214.159 220.888 214.718C217.559 215.761 214.074 216.699 210.215 217.119C206.376 217.535 202.101 217.656 197.178 216.325C196.864 216.24 196.564 216.129 196.278 215.996L195.7 215.72C191.962 213.945 189.592 211.935 187.469 210.027C185.367 208.109 183.684 206.157 182.099 204.241C178.953 200.406 176.374 196.561 174.005 192.672C171.616 188.802 169.519 184.868 167.533 180.911C166.561 178.921 165.592 176.939 164.705 174.914C164.259 173.904 163.808 172.893 163.382 171.866L162.095 168.661C159.51 162.222 162.635 154.907 169.074 152.322C175.309 149.819 182.367 152.67 185.154 158.7L185.361 159.149Z" fill="#0A5840"/>
<path d="M435.428 434.608C433.573 420.105 441.664 408.398 449.488 397.078C458.693 383.758 468.211 369.987 462.583 351.094C460.962 345.654 458.326 340.936 455.01 336.968C451.688 345.45 446.086 352.896 438.514 358.532C428.075 366.3 415.747 368.753 407.106 364.781C402.239 362.544 396.257 357.287 395.399 344.945C394.522 332.318 401.851 323.354 415.004 320.967C428.11 318.592 444.124 323.351 454.576 334.665C457.171 327.149 457.978 318.872 456.784 310.366L457.972 310.199C459.227 319.136 458.32 327.83 455.489 335.687C459.113 339.879 461.99 344.91 463.73 350.753C469.523 370.198 459.839 384.21 450.473 397.762C442.423 409.409 434.82 420.411 436.618 434.458L435.428 434.608ZM421.825 321.566C419.569 321.566 417.355 321.758 415.219 322.145C402.727 324.412 395.765 332.902 396.596 344.86C397.243 354.165 401.05 360.676 407.608 363.689C415.852 367.479 427.704 365.075 437.797 357.566C445.358 351.939 450.907 344.458 454.117 335.934C445.649 326.47 433.217 321.566 421.825 321.566Z" fill="#263238"/>
<path d="M457.886 314.406C448.381 305.917 447.29 294.722 452.856 292.362C460.57 289.088 463.45 302.712 457.886 314.406Z" fill="#0A5840"/>
<path d="M450.678 396.408C443.888 385.623 443.515 372.146 451.764 371.187C459.312 370.31 460.975 383.108 450.678 396.408Z" fill="#0A5840"/>
<path d="M458.107 317.962C456.798 309.92 460.758 303.917 464.473 304.982C469.625 306.459 465.576 314.389 458.107 317.962Z" fill="#0A5840"/>
<path d="M439.417 356.888C435.255 347.908 437.926 339.588 442.621 339.619C449.131 339.661 446.987 350.263 439.417 356.888Z" fill="#0A5840"/>
<path d="M423.438 321.094C414.864 322.54 408.433 318.349 409.548 314.377C411.092 308.872 419.578 313.145 423.438 321.094Z" fill="#0A5840"/>
<path d="M423.438 321.095C418.171 318.283 417.399 314.106 420.124 312.992C423.901 311.447 425.707 316.466 423.438 321.095Z" fill="#0A5840"/>
<path d="M464.735 356.797C462.659 351.2 464.851 347.56 467.631 348.535C471.483 349.885 469.504 354.838 464.735 356.797Z" fill="#0A5840"/>
<path d="M397.336 352.88C391.402 353.525 388.408 350.511 390.031 348.054C392.281 344.649 396.601 347.777 397.336 352.88Z" fill="#0A5840"/>
<path d="M473.496 434.466L470.664 455.295L471.853 455.457L474.685 434.627L473.496 434.466Z" fill="#0A5840"/>
<path d="M469.933 460.641L468.562 470.715L469.752 470.877L471.122 460.803L469.933 460.641Z" fill="#0A5840"/>
<path d="M412.761 425.478L419.708 476.282C419.959 478.118 421.527 479.486 423.38 479.486H460.887C462.74 479.486 464.309 478.118 464.559 476.282L471.506 425.478C471.811 423.252 470.081 421.27 467.834 421.27H416.435C414.187 421.27 412.457 423.252 412.761 425.478Z" fill="#0A5840"/>
</svg>
