<svg width="581" height="370" viewBox="0 0 581 370" fill="none" xmlns="http://www.w3.org/2000/svg">
<path d="M79.8906 253.254H64.1406V329.195H79.8906V253.254Z" fill="#0A5840" fill-opacity="0.6"/>
<path d="M201.516 222.156H185.766V329.195H201.516V222.156Z" fill="#0A5840" fill-opacity="0.6"/>
<path d="M142.015 228.865H126.266V329.196H142.015V228.865Z" fill="#0A5840" fill-opacity="0.6"/>
<path d="M93.4609 215.973V328.275V329.196H94.8859H109.211H110.636V328.275V215.973H93.4609ZM94.8869 328.275V217.101H109.212V328.275H94.8869Z" fill="white"/>
<path d="M155.883 186.152V328.031V329.195H157.308H171.633H173.058V328.031V186.152H155.883ZM157.308 328.031V187.578H171.633V328.031H157.308Z" fill="white"/>
<path d="M313.862 55.6348H290.375V222.651H313.862V55.6348Z" fill="#0A5840" fill-opacity="0.6"/>
<path d="M495.229 63.0273H471.742V222.649H495.229V63.0273Z" fill="#0A5840" fill-opacity="0.6"/>
<path d="M406.502 73.0312H383.016V222.649H406.502V73.0312Z" fill="#0A5840" fill-opacity="0.6"/>
<path d="M334.102 9.33789V220.915V222.651H336.227H357.589H359.715V220.915V9.33789H334.102ZM336.227 220.915V11.4639H357.589V220.915H336.227Z" fill="white"/>
<path d="M427.188 9.33789V220.915V222.651H429.313H450.676H452.801V220.915V9.33789H427.188ZM429.314 220.915V11.4639H450.676V220.915H429.314Z" fill="white"/>
<path d="M508.352 143.094V218.615V220.779H510.477H531.839H533.965V218.615V143.094H508.352ZM510.478 218.615V145.219H531.84V218.615H510.478Z" fill="white"/>
<path d="M536.612 97.7903C536.612 99.1063 535.545 100.174 534.228 100.174C532.911 100.174 531.844 99.1073 531.844 97.7903C531.844 96.4743 532.911 95.4062 534.228 95.4062C535.545 95.4062 536.612 96.4743 536.612 97.7903Z" fill="#0A5840" fill-opacity="0.6"/>
<path d="M562.135 18.0539C562.135 19.3699 561.068 20.4379 559.751 20.4379C558.434 20.4379 557.367 19.3709 557.367 18.0539C557.367 16.7379 558.434 15.6699 559.751 15.6699C561.068 15.6699 562.135 16.7369 562.135 18.0539Z" fill="#0A5840" fill-opacity="0.6"/>
<path d="M502.623 36.5831C500.405 36.5831 498.602 34.7791 498.602 32.5611C498.602 30.3431 500.406 28.5391 502.623 28.5391C504.841 28.5391 506.646 30.3431 506.646 32.5611C506.646 34.7781 504.841 36.5831 502.623 36.5831ZM502.623 29.5391C500.957 29.5391 499.602 30.8941 499.602 32.5611C499.602 34.2281 500.957 35.5831 502.623 35.5831C504.29 35.5831 505.646 34.2281 505.646 32.5611C505.646 30.8941 504.29 29.5391 502.623 29.5391Z" fill="white"/>
<path d="M576.491 73.5479C574.273 73.5479 572.469 71.7439 572.469 69.5259C572.469 67.3079 574.274 65.5039 576.491 65.5039C578.709 65.5039 580.512 67.3079 580.512 69.5259C580.513 71.7439 578.709 73.5479 576.491 73.5479ZM576.491 66.5039C574.824 66.5039 573.469 67.8589 573.469 69.5259C573.469 71.1929 574.824 72.5479 576.491 72.5479C578.157 72.5479 579.512 71.1929 579.512 69.5259C579.513 67.8599 578.157 66.5039 576.491 66.5039Z" fill="white"/>
<path d="M38.0102 303.503C38.0102 304.819 36.9432 305.887 35.6262 305.887C34.3102 305.887 33.2422 304.82 33.2422 303.503C33.2422 302.187 34.3092 301.119 35.6262 301.119C36.9432 301.119 38.0102 302.186 38.0102 303.503Z" fill="#0A5840" fill-opacity="0.6"/>
<path d="M61.1496 226.151C62.4663 226.151 63.5336 225.083 63.5336 223.767C63.5336 222.45 62.4663 221.383 61.1496 221.383C59.833 221.383 58.7656 222.45 58.7656 223.767C58.7656 225.083 59.833 226.151 61.1496 226.151Z" fill="#0A5840" fill-opacity="0.6"/>
<path d="M4.021 242.294C1.803 242.294 0 240.49 0 238.272C0 236.054 1.804 234.25 4.021 234.25C6.239 234.25 8.043 236.055 8.043 238.272C8.043 240.489 6.238 242.294 4.021 242.294ZM4.021 235.25C2.355 235.25 1 236.605 1 238.272C1 239.938 2.355 241.294 4.021 241.294C5.688 241.294 7.043 239.939 7.043 238.272C7.043 236.606 5.687 235.25 4.021 235.25Z" fill="white"/>
<path d="M7.544 170.926C7.544 172.871 5.967 174.448 4.022 174.448C2.077 174.448 0.5 172.871 0.5 170.926C0.5 168.981 2.077 167.404 4.022 167.404C5.967 167.404 7.544 168.981 7.544 170.926Z" fill="white"/>
<path d="M505.004 222.194C509.901 217.906 510.316 210.013 503.092 201.763L419.553 106.358C412.329 98.1079 402.503 94.8959 397.606 99.1839C392.709 103.472 394.596 113.636 401.82 121.887L485.359 217.291C492.583 225.541 500.107 226.482 505.004 222.194Z" fill="#576184"/>
<path d="M498.446 225.206C497.632 225.206 496.798 225.115 495.949 224.933C492.271 224.141 488.479 221.613 484.983 217.62L401.444 122.217C394.051 113.772 392.181 103.271 397.277 98.8093C402.374 94.3463 412.537 97.5873 419.929 106.03L503.468 201.435C506.943 205.403 508.887 209.553 509.093 213.439C509.283 217.039 507.948 220.282 505.333 222.571C503.342 224.314 500.995 225.206 498.446 225.206ZM403.17 97.7743C401.128 97.7743 399.32 98.3483 397.936 99.5603C393.255 103.66 395.166 113.527 402.197 121.557L485.736 216.961C489.089 220.791 492.694 223.209 496.161 223.955C499.354 224.64 502.297 223.901 504.677 221.817C507.056 219.734 508.27 216.777 508.096 213.49C507.903 209.831 506.043 205.889 502.718 202.092L419.179 106.688C414.226 101.032 408.033 97.7743 403.17 97.7743Z" fill="#353148"/>
<path d="M406.89 125.782L423.438 111.292C425.671 109.337 425.896 105.942 423.94 103.71L417.838 96.7439C415.882 94.5109 412.487 94.2858 410.254 96.2418L393.709 110.729C391.476 112.684 391.251 116.079 393.206 118.312L399.306 125.28C401.262 127.512 404.657 127.737 406.89 125.782Z" fill="#9DD3FF"/>
<path d="M403.355 127.613C403.223 127.613 403.09 127.609 402.957 127.6C401.392 127.496 399.96 126.789 398.927 125.608L392.826 118.64C390.693 116.202 390.94 112.485 393.377 110.352L409.922 95.865C411.102 94.831 412.619 94.321 414.181 94.423C415.746 94.527 417.178 95.234 418.211 96.414L424.313 103.38C425.347 104.56 425.86 106.072 425.755 107.638C425.652 109.203 424.945 110.634 423.764 111.668L407.216 126.158C406.136 127.104 404.777 127.613 403.355 127.613ZM413.785 95.409C412.604 95.409 411.476 95.831 410.58 96.617L394.035 111.104C392.013 112.874 391.808 115.959 393.578 117.982L399.679 124.95C400.537 125.93 401.725 126.517 403.024 126.603C404.331 126.69 405.58 126.264 406.558 125.407L423.106 110.917C424.086 110.059 424.671 108.872 424.757 107.573C424.844 106.274 424.418 105.02 423.561 104.041L417.459 97.075C416.602 96.095 415.413 95.509 414.114 95.423C414.004 95.413 413.895 95.409 413.785 95.409Z" fill="#06261C"/>
<path d="M421.623 112.639C421.483 112.639 421.344 112.58 421.245 112.466L410.497 100.058C410.316 99.8495 410.339 99.5335 410.548 99.3525C410.757 99.1715 411.072 99.1945 411.253 99.4035L422.001 111.812C422.182 112.02 422.159 112.336 421.95 112.517C421.856 112.599 421.739 112.639 421.623 112.639Z" fill="#06261C"/>
<path d="M417.257 117.263C417.117 117.263 416.978 117.204 416.879 117.09L411.505 110.886C411.324 110.678 411.347 110.362 411.556 110.181C411.765 110 412.08 110.023 412.261 110.232L417.635 116.436C417.816 116.644 417.793 116.96 417.584 117.141C417.489 117.223 417.373 117.263 417.257 117.263Z" fill="#06261C"/>
<path d="M318.413 102.965C340.997 128.758 380.213 131.357 406.004 108.773C431.795 86.1895 434.396 46.9735 411.812 21.1815C389.228 -4.6095 350.012 -7.2105 324.221 15.3735C298.43 37.9585 295.829 77.1735 318.413 102.965ZM332.973 24.8045C353.433 6.8885 384.544 8.9515 402.46 29.4115C420.376 49.8725 418.313 80.9825 397.853 98.8995C377.392 116.816 346.282 114.753 328.366 94.2915C310.449 73.8315 312.512 42.7205 332.973 24.8045Z" fill="#06261C"/>
<path opacity="0.47" d="M327.073 95.2575C345.693 116.522 378.025 118.664 399.29 100.045C420.555 81.4255 422.697 49.0935 404.078 27.8295C385.459 6.56446 353.127 4.42045 331.862 23.0405C310.599 41.6595 308.454 73.9925 327.073 95.2575Z" fill="white"/>
<path opacity="0.69" d="M349.342 40.2298C354.206 45.7848 362.652 46.3438 368.206 41.4808C373.761 36.6168 374.32 28.1708 369.457 22.6168C364.593 17.0618 356.148 16.5018 350.593 21.3658C345.038 26.2288 344.478 34.6748 349.342 40.2298Z" fill="white"/>
<path d="M483.831 188.278C483.684 187.697 426.123 181.957 426.123 181.957L407.089 248.86C405.55 254.27 404.619 259.835 404.313 265.451L398.724 346.978C398.632 348.32 399.705 349.454 401.049 349.437L426.979 349.117C428.36 349.1 429.511 348.056 429.663 346.684L436.641 283.672L445.419 262.129L448.192 346.944C448.239 348.37 449.419 349.497 450.846 349.477L478.229 349.468C479.126 349.468 479.874 348.783 479.953 347.889C481.513 316.73 483.072 285.572 484.632 254.413C485.346 240.15 487.209 225.937 487.041 211.636C486.945 203.37 485.741 195.834 483.831 188.278Z" fill="#06261C"/>
<path d="M444.164 267.269C444.103 267.269 444.041 267.258 443.98 267.234C443.723 267.132 443.597 266.842 443.699 266.586L456.589 233.948C456.691 233.691 456.981 233.562 457.237 233.667C457.494 233.769 457.62 234.059 457.518 234.315L444.628 266.953C444.552 267.149 444.363 267.269 444.164 267.269Z" fill="white"/>
<path d="M452.921 349.275L451.659 350.362L433.83 366.477C432.65 367.544 433.42 369.504 435.011 369.482L474.94 368.929C476.006 368.914 476.853 368.027 476.818 366.961L476.747 349.284L452.921 349.275Z" fill="#0A5840" fill-opacity="0.6"/>
<path d="M433.83 366.479L434.45 365.918C434.749 366.192 435.14 366.377 435.618 366.37L475.547 365.817C476.039 365.81 476.478 365.612 476.812 365.303L476.817 366.962C476.853 368.028 476.006 368.916 474.94 368.93L435.011 369.483C433.42 369.506 432.65 367.546 433.83 366.479Z" fill="#06261C"/>
<path d="M439.625 366.688C439.351 366.688 439.127 366.467 439.125 366.192C439.123 365.917 439.345 365.69 439.621 365.688L476.779 365.363H476.783C477.057 365.363 477.281 365.584 477.283 365.859C477.285 366.134 477.063 366.361 476.787 366.363L439.629 366.688H439.625Z" fill="white"/>
<path d="M455.001 354.512C454.866 354.512 454.729 354.457 454.631 354.35L451.288 350.701C451.101 350.497 451.116 350.181 451.319 349.994C451.521 349.809 451.838 349.822 452.025 350.025L455.369 353.674C455.556 353.878 455.541 354.194 455.338 354.38C455.242 354.469 455.122 354.512 455.001 354.512Z" fill="white"/>
<path d="M452.257 357.1C452.122 357.1 451.986 357.045 451.888 356.938L448.545 353.289C448.359 353.085 448.373 352.768 448.576 352.582C448.779 352.396 449.096 352.41 449.283 352.613L452.626 356.262C452.813 356.466 452.798 356.783 452.595 356.969C452.499 357.057 452.378 357.1 452.257 357.1Z" fill="white"/>
<path d="M449.679 359.645C449.544 359.645 449.409 359.59 449.31 359.483L445.967 355.834C445.78 355.63 445.795 355.314 445.998 355.127C446.201 354.941 446.518 354.955 446.705 355.158L450.048 358.807C450.235 359.011 450.22 359.328 450.017 359.514C449.921 359.602 449.8 359.645 449.679 359.645Z" fill="white"/>
<path d="M454.937 350.012L454.623 349.905C453.287 349.226 453.714 343.653 453.783 343.282C453.89 342.702 454.218 342.198 454.704 341.864C455.189 341.53 455.777 341.405 456.357 341.512C456.938 341.619 457.441 341.946 457.776 342.433C458.11 342.919 458.235 343.506 458.128 344.086C457.995 344.807 456.034 349.47 455.162 349.899L454.937 350.012ZM455.953 342.475C455.711 342.475 455.475 342.548 455.27 342.689C455.003 342.872 454.825 343.147 454.765 343.464C454.583 344.449 454.615 347.613 454.944 348.704C455.627 347.668 457.009 344.634 457.145 343.905C457.204 343.588 457.135 343.266 456.952 343C456.769 342.733 456.493 342.555 456.176 342.495C456.102 342.482 456.027 342.475 455.953 342.475Z" fill="white"/>
<path d="M454.341 349.976C452.628 349.976 449.047 348.649 448.863 348.54C447.812 347.921 447.461 346.565 448.078 345.515C448.694 344.465 450.055 344.112 451.102 344.731H451.103C451.672 345.066 454.929 347.633 455.268 348.991C455.352 349.328 455.269 349.564 455.184 349.703C455.065 349.898 454.759 349.976 454.341 349.976ZM449.984 345.425C449.882 345.425 449.78 345.438 449.678 345.464C449.365 345.545 449.103 345.743 448.939 346.022C448.601 346.597 448.795 347.34 449.37 347.679C450.038 348.072 453.203 348.907 454.266 349.005C453.842 348.228 451.469 346.107 450.595 345.592C450.407 345.482 450.197 345.425 449.984 345.425Z" fill="white"/>
<path d="M401.796 349.275L400.534 350.362L382.705 366.477C381.525 367.544 382.295 369.504 383.886 369.482L423.815 368.929C424.881 368.914 425.728 368.027 425.692 366.961L425.621 349.284L401.796 349.275Z" fill="#0A5840" fill-opacity="0.6"/>
<path d="M382.705 366.477L383.325 365.916C383.624 366.19 384.015 366.375 384.493 366.368L424.422 365.815C424.913 365.808 425.353 365.61 425.686 365.301L425.691 366.96C425.727 368.026 424.88 368.914 423.814 368.928L383.884 369.481C382.295 369.504 381.525 367.544 382.705 366.477Z" fill="#06261C"/>
<path d="M388.5 366.688C388.226 366.688 388.002 366.467 388 366.192C387.998 365.917 388.22 365.69 388.496 365.688L425.654 365.363H425.658C425.932 365.363 426.156 365.584 426.158 365.859C426.16 366.134 425.938 366.361 425.662 366.363L388.504 366.688H388.5Z" fill="white"/>
<path d="M417.201 360.609C416.447 360.609 415.711 360.383 415.074 359.95C414.236 359.38 413.671 358.516 413.481 357.521C413.091 355.466 414.447 353.475 416.501 353.084C417.498 352.898 418.507 353.104 419.345 353.676C420.183 354.246 420.748 355.109 420.938 356.104C421.126 357.101 420.916 358.111 420.346 358.949C419.776 359.787 418.912 360.352 417.916 360.541C417.679 360.586 417.439 360.609 417.201 360.609ZM414.464 357.334C414.604 358.067 415.02 358.702 415.637 359.122C416.255 359.543 417 359.695 417.731 359.557C419.246 359.27 420.244 357.804 419.957 356.289C419.817 355.557 419.401 354.921 418.784 354.501C418.165 354.08 417.421 353.928 416.69 354.065C415.175 354.355 414.177 355.82 414.464 357.334Z" fill="white"/>
<path d="M403.875 354.512C403.74 354.512 403.604 354.457 403.506 354.35L400.163 350.701C399.976 350.497 399.991 350.181 400.194 349.994C400.397 349.809 400.714 349.822 400.901 350.025L404.245 353.674C404.431 353.878 404.417 354.194 404.214 354.38C404.118 354.469 403.996 354.512 403.875 354.512Z" fill="white"/>
<path d="M401.133 357.1C400.998 357.1 400.863 357.045 400.764 356.938L397.42 353.289C397.234 353.085 397.248 352.769 397.451 352.583C397.654 352.395 397.972 352.41 398.158 352.613L401.502 356.262C401.689 356.466 401.674 356.782 401.471 356.969C401.375 357.057 401.254 357.1 401.133 357.1Z" fill="white"/>
<path d="M398.554 359.645C398.419 359.645 398.284 359.59 398.185 359.483L394.842 355.834C394.655 355.63 394.67 355.314 394.873 355.127C395.075 354.941 395.394 354.955 395.58 355.158L398.923 358.807C399.109 359.011 399.095 359.328 398.892 359.514C398.796 359.602 398.675 359.645 398.554 359.645Z" fill="white"/>
<path d="M403.813 350.011L403.499 349.904C402.162 349.225 402.589 343.652 402.658 343.281C402.879 342.083 404.031 341.283 405.233 341.511C405.813 341.618 406.317 341.946 406.651 342.432C406.986 342.918 407.11 343.505 407.003 344.085C406.87 344.806 404.909 349.469 404.038 349.898L403.813 350.011ZM404.83 342.475C404.259 342.475 403.749 342.882 403.641 343.463C403.459 344.447 403.492 347.612 403.821 348.703C404.503 347.667 405.885 344.633 406.021 343.904C406.08 343.587 406.011 343.264 405.828 342.999C405.645 342.732 405.37 342.554 405.053 342.494C404.977 342.481 404.903 342.475 404.83 342.475Z" fill="white"/>
<path d="M403.216 349.977C401.503 349.977 397.923 348.649 397.738 348.54C396.687 347.922 396.335 346.565 396.953 345.515C397.57 344.465 398.928 344.112 399.977 344.731C400.547 345.066 403.804 347.632 404.143 348.991C404.228 349.328 404.144 349.564 404.059 349.704C403.939 349.898 403.633 349.977 403.216 349.977ZM398.86 345.426C398.445 345.426 398.04 345.639 397.814 346.023C397.476 346.597 397.669 347.34 398.246 347.679C398.914 348.072 402.078 348.908 403.142 349.006C402.719 348.227 400.346 346.106 399.472 345.592H399.471C399.279 345.48 399.068 345.426 398.86 345.426Z" fill="white"/>
<path d="M368.709 106.447C367.097 105.514 365.256 105.019 364.223 107.095C363.021 108.835 364.335 110.18 365.894 111.252C364.826 110.735 363.742 110.609 362.986 111.802C361.386 113.776 362.882 115.635 364.615 116.764C362.663 116.191 362.128 119.571 363.913 121.546L373.05 132.746C374.964 135.216 381.267 136.228 383.266 136.599C383.684 136.677 384.116 136.615 384.487 136.407C388.703 134.043 390.384 125.828 388.942 118.912C388.942 118.912 385.749 108.565 384.016 105.298C383.83 104.948 383.632 104.594 383.34 104.326C383.048 104.058 382.641 103.885 382.253 103.965C381.748 104.068 381.417 104.55 381.195 105.016C380.508 106.463 380.364 108.087 380.228 109.694C379.253 108.693 378.217 107.616 377.099 106.422C374.561 104.076 370.852 99.6937 367.977 103.193C367.083 104.493 367.727 105.591 368.709 106.447Z" fill="#FFA386"/>
<path opacity="0.36" d="M380.227 109.694L385.21 115.767C385.21 115.767 381.605 107.81 380.605 106.795L380.227 109.694Z" fill="#FF6A48"/>
<path d="M372.017 110.198C371.885 110.198 371.754 110.146 371.656 110.044C370.441 108.774 368.351 106.664 367.918 106.409C367.681 106.269 367.601 105.963 367.741 105.725C367.881 105.486 368.188 105.408 368.426 105.548C369.107 105.948 371.838 108.788 372.379 109.353C372.569 109.553 372.563 109.869 372.363 110.06C372.266 110.152 372.141 110.198 372.017 110.198Z" fill="#FF6A48"/>
<path d="M368.576 114.541C368.447 114.541 368.318 114.492 368.221 114.393L365.222 111.366C365.028 111.17 365.03 110.853 365.226 110.659C365.421 110.464 365.74 110.466 365.933 110.662L368.932 113.689C369.126 113.885 369.124 114.202 368.928 114.396C368.831 114.493 368.703 114.541 368.576 114.541Z" fill="#FF6A48"/>
<path d="M366.27 118.858C366.145 118.858 366.02 118.812 365.922 118.718L364.27 117.123C364.072 116.931 364.066 116.615 364.258 116.416C364.449 116.218 364.766 116.212 364.965 116.403L366.616 117.998C366.814 118.19 366.821 118.506 366.629 118.705C366.531 118.807 366.401 118.858 366.27 118.858Z" fill="#FF6A48"/>
<path d="M461.723 81.5794C460.036 81.0264 458.596 79.9774 457.511 78.6344L462.743 78.8024C463.173 78.8164 463.594 78.7824 464.002 78.7094C464.33 78.6504 464.647 78.5614 464.955 78.4524C464.98 78.4434 465.005 78.4364 465.03 78.4274C465.322 78.3194 465.603 78.1864 465.873 78.0364C465.912 78.0144 465.951 77.9934 465.989 77.9704C466.252 77.8164 466.502 77.6454 466.738 77.4554C466.769 77.4304 466.798 77.4044 466.828 77.3794C467.069 77.1774 467.298 76.9614 467.505 76.7254L467.508 76.7224C467.714 76.4874 467.897 76.2334 468.065 75.9684C468.086 75.9344 468.11 75.9024 468.13 75.8684C468.285 75.6124 468.42 75.3434 468.537 75.0644C468.558 75.0134 468.579 74.9624 468.599 74.9114C468.708 74.6304 468.798 74.3404 468.865 74.0414C468.875 73.9954 468.882 73.9474 468.891 73.9004C468.953 73.5834 468.998 73.2594 469.009 72.9274L469.014 72.7884C469.022 72.5464 469.011 72.3084 468.991 72.0724C468.985 72.0014 468.974 71.9314 468.965 71.8604C468.944 71.6924 468.918 71.5264 468.884 71.3634C468.869 71.2914 468.853 71.2184 468.835 71.1474C468.791 70.9724 468.74 70.8004 468.682 70.6314C468.666 70.5834 468.652 70.5344 468.634 70.4874C468.551 70.2664 468.458 70.0494 468.35 69.8414C468.347 69.8354 468.343 69.8294 468.34 69.8234C468.236 69.6234 468.12 69.4304 467.996 69.2444C467.971 69.2064 467.944 69.1694 467.917 69.1324C467.805 68.9724 467.687 68.8184 467.561 68.6704C467.534 68.6394 467.509 68.6074 467.482 68.5774C467.165 68.2204 466.809 67.8974 466.417 67.6224C465.483 66.9664 464.358 66.5614 463.138 66.5224L455.454 66.2754C455.651 64.9064 455.958 63.5304 456.317 62.2434C457.095 59.4524 454.582 56.8454 451.762 57.5114C443.525 59.4594 440.317 59.5524 438.405 59.2264C438.153 59.1834 437.923 59.1334 437.707 59.0794L433.805 79.3824C432.309 86.2504 436.777 89.6474 443.468 91.3514L443.555 99.5854C443.615 105.226 447.654 109.784 452.532 109.715L452.734 109.712C457.612 109.643 462.297 106.361 462.238 100.72L461.712 88.3464C461.473 88.4014 461.232 88.4514 460.983 88.4694L461.723 81.5794Z" fill="#FFA386"/>
<path d="M463.576 74.8327C463.482 74.8327 463.388 74.8068 463.305 74.7518L460.828 73.1467L463.33 70.3477C463.515 70.1417 463.834 70.1257 464.036 70.3087C464.242 70.4927 464.26 70.8088 464.076 71.0148L462.351 72.9427L463.847 73.9127C464.079 74.0627 464.145 74.3727 463.995 74.6037C463.901 74.7517 463.739 74.8327 463.576 74.8327Z" fill="#FF6A48"/>
<path d="M439.188 69.1695C439.164 69.8805 439.721 70.4765 440.431 70.5005C441.142 70.5245 441.738 69.9675 441.762 69.2575C441.786 68.5465 441.23 67.9505 440.519 67.9265C439.808 67.9025 439.212 68.4595 439.188 69.1695Z" fill="#06261C"/>
<path d="M442.429 77.8426C441.781 77.8426 441.065 77.6426 440.288 77.2446C440.043 77.1186 439.945 76.8176 440.071 76.5716C440.198 76.3256 440.499 76.2296 440.745 76.3546C441.723 76.8566 442.562 76.9716 443.168 76.6876C443.611 76.4796 443.793 76.1336 443.8 76.1186C443.925 75.8746 444.225 75.7736 444.469 75.8956C444.714 76.0176 444.818 76.3106 444.698 76.5576C444.659 76.6406 444.28 77.3786 443.326 77.6996C443.044 77.7956 442.744 77.8426 442.429 77.8426Z" fill="#FF6A48"/>
<path d="M447.861 66.413C447.425 66.39 447.002 66.097 446.577 65.84C446.154 65.571 445.723 65.313 445.339 65.104C444.955 64.894 444.505 64.669 444.051 64.459C443.605 64.239 443.129 64.04 442.878 63.688C442.632 63.353 442.738 62.837 443.424 62.506C444.078 62.176 445.35 62.124 446.623 62.816C447.891 63.514 448.521 64.606 448.586 65.329C448.665 66.078 448.279 66.441 447.861 66.413Z" fill="#06261C"/>
<path d="M441.65 71.1993C441.532 71.1993 441.414 71.1573 441.319 71.0733C441.238 71.0033 440.522 70.4153 439.67 71.0183C439.446 71.1773 439.132 71.1233 438.974 70.8983C438.815 70.6723 438.869 70.3603 439.094 70.2013C440.314 69.3403 441.519 69.9073 441.985 70.3273C442.191 70.5123 442.208 70.8283 442.023 71.0333C441.924 71.1443 441.787 71.1993 441.65 71.1993Z" fill="#FF6A48"/>
<path d="M443.453 91.8553C443.453 91.8553 451.567 93.0184 453.181 90.0404C453.181 90.0404 453.618 94.9203 443.504 96.6433L443.453 91.8553Z" fill="#FF6A48"/>
<path d="M436.991 66.1211L436.288 68.2501C436.02 69.0621 435.144 69.5031 434.332 69.2351C433.926 69.1011 433.488 69.3211 433.354 69.7271C432.92 71.0401 433.633 72.4561 434.946 72.8901L435.808 73.1751" fill="#FFA386"/>
<path d="M435.808 73.6758C435.756 73.6758 435.704 73.6678 435.651 73.6508L434.788 73.3658C433.216 72.8458 432.359 71.1438 432.879 69.5718C432.985 69.2488 433.211 68.9868 433.516 68.8328C433.821 68.6798 434.164 68.6548 434.489 68.7618C434.754 68.8488 435.039 68.8278 435.29 68.7018C435.54 68.5758 435.725 68.3608 435.813 68.0948L436.516 65.9658C436.602 65.7028 436.88 65.5578 437.148 65.6478C437.41 65.7348 437.552 66.0168 437.465 66.2788L436.762 68.4078C436.591 68.9278 436.228 69.3488 435.739 69.5958C435.252 69.8418 434.696 69.8838 434.175 69.7108C434.104 69.6878 434.031 69.6928 433.965 69.7268C433.9 69.7598 433.852 69.8158 433.828 69.8848C433.481 70.9348 434.053 72.0708 435.102 72.4168L435.965 72.7018C436.227 72.7888 436.369 73.0708 436.282 73.3328C436.213 73.5428 436.018 73.6758 435.808 73.6758Z" fill="#FF6A48"/>
<path d="M441.871 74.0223C439.22 74.0223 437.062 71.8653 437.062 69.2133C437.062 66.5623 439.219 64.4043 441.871 64.4043C444.522 64.4043 446.68 66.5613 446.68 69.2133C446.68 71.8653 444.523 74.0223 441.871 74.0223ZM441.871 65.4043C439.771 65.4043 438.062 67.1133 438.062 69.2133C438.062 71.3133 439.771 73.0223 441.871 73.0223C443.971 73.0223 445.68 71.3133 445.68 69.2133C445.68 67.1133 443.971 65.4043 441.871 65.4043Z" fill="white"/>
<path d="M446.179 68.5539C445.937 68.5539 445.724 68.3769 445.686 68.1299C445.644 67.8569 445.831 67.6019 446.104 67.5599L458.599 65.6289C458.866 65.5869 459.127 65.7749 459.169 66.0469C459.211 66.3199 459.025 66.5749 458.751 66.6169L446.256 68.5479C446.231 68.5519 446.204 68.5539 446.179 68.5539Z" fill="white"/>
<path d="M437.72 68.5526C437.641 68.5526 437.562 68.5336 437.487 68.4946C436.923 68.1986 436.047 68.2746 435.757 68.3276C435.489 68.3756 435.225 68.2006 435.173 67.9286C435.122 67.6576 435.3 67.3966 435.571 67.3456C435.629 67.3356 436.963 67.0906 437.953 67.6106C438.198 67.7386 438.292 68.0416 438.163 68.2856C438.073 68.4556 437.9 68.5526 437.72 68.5526Z" fill="white"/>
<path d="M460.799 42.7482L453.277 41.7582C452.129 39.7252 449.897 38.4112 447.414 38.5882C444.945 38.7642 442.933 40.3642 442.075 42.5192C441.837 42.6242 441.605 42.7442 441.371 42.8612C440.567 42.4322 439.643 42.2052 438.667 42.2752C435.909 42.4712 433.832 44.8662 434.029 47.6252C434.069 48.1952 434.224 48.7262 434.436 49.2242C433.823 50.2262 433.297 51.2942 432.903 52.4372C432.522 55.3322 434.299 58.0702 437.096 58.9122C437.287 58.9702 437.486 59.0262 437.698 59.0782C437.915 59.1322 438.144 59.1822 438.396 59.2252C440.308 59.5512 443.516 59.4582 451.753 57.5102C454.573 56.8432 457.086 59.4512 456.308 62.2422C455.949 63.5292 455.642 64.9052 455.445 66.2742L463.129 66.5212C464.349 66.5602 465.474 66.9642 466.408 67.6212C466.8 67.8972 467.156 68.2182 467.473 68.5762C467.5 68.6072 467.526 68.6382 467.552 68.6692C467.678 68.8172 467.797 68.9712 467.908 69.1312C467.934 69.1682 467.961 69.2052 467.987 69.2432C468.111 69.4302 468.228 69.6222 468.331 69.8222C468.334 69.8282 468.338 69.8342 468.341 69.8402C468.448 70.0492 468.542 70.2652 468.625 70.4862C468.643 70.5332 468.656 70.5822 468.673 70.6302C468.731 70.7992 468.783 70.9712 468.826 71.1462C468.844 71.2182 468.859 71.2902 468.875 71.3622C468.909 71.5262 468.935 71.6912 468.956 71.8592C468.965 71.9302 468.975 71.9992 468.982 72.0712C469.002 72.3072 469.013 72.5452 469.005 72.7872L469 72.9262C468.989 73.2592 468.945 73.5822 468.882 73.8992C468.873 73.9462 468.866 73.9932 468.856 74.0402C468.79 74.3402 468.699 74.6292 468.59 74.9102C468.57 74.9622 468.549 75.0132 468.528 75.0632C468.411 75.3422 468.276 75.6112 468.121 75.8672C468.1 75.9012 468.077 75.9332 468.056 75.9672C467.888 76.2322 467.704 76.4862 467.499 76.7212L467.496 76.7242C467.289 76.9602 467.06 77.1762 466.819 77.3782C466.789 77.4032 466.76 77.4302 466.729 77.4542C466.493 77.6442 466.242 77.8162 465.98 77.9692C465.941 77.9922 465.902 78.0132 465.864 78.0352C465.594 78.1852 465.314 78.3182 465.021 78.4262C464.996 78.4352 464.971 78.4422 464.946 78.4512C464.638 78.5612 464.321 78.6502 463.993 78.7082C463.585 78.7812 463.164 78.8152 462.734 78.8012L457.502 78.6332C458.587 79.9762 460.027 81.0252 461.714 81.5782L460.972 88.4682C461.222 88.4502 461.463 88.4012 461.701 88.3452C462.042 88.2662 462.375 88.1632 462.69 88.0192C463.803 87.5122 464.719 86.6162 465.223 85.4562L466.834 81.7422C470.594 80.7622 473.44 77.4232 473.611 73.3382C473.66 72.1692 473.478 71.0452 473.117 70.0012C474.708 68.9352 475.797 67.1652 475.883 65.1062C483.033 53.0152 467.647 43.6492 460.799 42.7482Z" fill="#06261C"/>
<path d="M517.858 160.686C517.858 160.686 491.516 112.556 489.979 110.558C485.207 104.352 477.782 100.498 469.684 100.385L454.606 100.175L437.409 99.7305C434.739 99.7305 426.956 101.136 424.963 102.913C418.73 108.468 414.451 118.227 412.01 125.742L406.915 141.427L391.81 123.872C391.21 123.175 390.189 123.026 389.415 123.522L371.632 134.922C370.806 135.451 370.601 136.569 371.185 137.358L395.733 170.489C401.583 179.616 414.223 180.298 421.164 172.819L416.753 208.168H489.749L492.11 178.014L509.879 177.087C518.062 176.659 522.572 167.389 517.858 160.686Z" fill="#0A5840"/>
<path d="M409.706 146.119C409.556 146.119 409.406 146.051 409.309 145.922L404.649 139.801C404.481 139.581 404.524 139.268 404.744 139.1C404.965 138.933 405.278 138.976 405.444 139.195L410.104 145.316C410.272 145.536 410.229 145.849 410.009 146.017C409.918 146.086 409.812 146.119 409.706 146.119Z" fill="#06261C"/>
<path d="M491.806 182.435C491.788 182.435 491.77 182.434 491.751 182.432C491.477 182.402 491.278 182.156 491.308 181.881L495.759 140.771C495.788 140.496 496.042 140.303 496.31 140.328C496.584 140.358 496.783 140.604 496.753 140.879L492.302 181.989C492.275 182.245 492.058 182.435 491.806 182.435Z" fill="#06261C"/>
<path d="M421.164 173.324C421.069 173.324 420.974 173.297 420.889 173.241C420.659 173.089 420.595 172.779 420.747 172.548L436.411 148.822C436.562 148.591 436.872 148.528 437.103 148.68C437.334 148.832 437.397 149.142 437.245 149.373L421.581 173.099C421.485 173.245 421.326 173.324 421.164 173.324Z" fill="#06261C"/>
<path d="M264.629 202.614H37.0443C33.5853 202.614 30.7812 199.81 30.7812 196.351V41.2239C30.7812 37.7649 33.5853 34.9609 37.0443 34.9609H264.63C268.089 34.9609 270.893 37.7649 270.893 41.2239V196.352C270.892 199.81 268.088 202.614 264.629 202.614Z" fill="white"/>
<path d="M264.629 34.9609H37.0443C33.5853 34.9609 30.7812 37.7649 30.7812 41.2239V59.7669H270.892V41.2239C270.892 37.7649 268.088 34.9609 264.629 34.9609Z" fill="#0A5840" fill-opacity="0.6"/>
<path d="M270.891 60.2669H30.7812C30.5053 60.2669 30.2812 60.0429 30.2812 59.7669V41.2239C30.2812 37.4949 33.3153 34.4609 37.0443 34.4609H264.629C268.357 34.4609 271.392 37.4949 271.392 41.2239V59.7669C271.391 60.0439 271.167 60.2669 270.891 60.2669ZM31.2803 59.2669H270.39V41.2239C270.39 38.0459 267.805 35.4609 264.627 35.4609H37.0433C33.8653 35.4609 31.2803 38.0459 31.2803 41.2239V59.2669Z" fill="#353148"/>
<path d="M229.635 50.7222C227.48 50.7222 225.727 48.9692 225.727 46.8142C225.727 44.6592 227.48 42.9062 229.635 42.9062C231.789 42.9062 233.542 44.6592 233.542 46.8142C233.542 48.9692 231.789 50.7222 229.635 50.7222ZM229.635 43.9072C228.031 43.9072 226.727 45.2112 226.727 46.8152C226.727 48.4192 228.032 49.7232 229.635 49.7232C231.238 49.7232 232.542 48.4192 232.542 46.8152C232.542 45.2112 231.238 43.9072 229.635 43.9072Z" fill="white"/>
<path d="M243.533 50.7222C241.378 50.7222 239.625 48.9692 239.625 46.8142C239.625 44.6592 241.378 42.9062 243.533 42.9062C245.687 42.9062 247.44 44.6592 247.44 46.8142C247.44 48.9692 245.687 50.7222 243.533 50.7222ZM243.533 43.9072C241.929 43.9072 240.625 45.2112 240.625 46.8152C240.625 48.4192 241.93 49.7232 243.533 49.7232C245.136 49.7232 246.44 48.4192 246.44 46.8152C246.44 45.2112 245.137 43.9072 243.533 43.9072Z" fill="white"/>
<path d="M257.861 50.7222C255.706 50.7222 253.953 48.9692 253.953 46.8142C253.953 44.6592 255.706 42.9062 257.861 42.9062C260.016 42.9062 261.769 44.6592 261.769 46.8142C261.769 48.9692 260.016 50.7222 257.861 50.7222ZM257.861 43.9072C256.257 43.9072 254.953 45.2112 254.953 46.8152C254.953 48.4192 256.258 49.7232 257.861 49.7232C259.465 49.7232 260.769 48.4192 260.769 46.8152C260.769 45.2112 259.464 43.9072 257.861 43.9072Z" fill="white"/>
<path d="M254.734 191.173H46.9349C44.1189 191.173 41.8359 188.89 41.8359 186.074V73.8724C41.8359 71.0564 44.1189 68.7734 46.9349 68.7734H254.733C257.549 68.7734 259.832 71.0564 259.832 73.8724V186.074C259.833 188.89 257.55 191.173 254.734 191.173Z" fill="white"/>
<path d="M254.732 191.673H46.9349C43.8479 191.673 41.3359 189.161 41.3359 186.073V73.8724C41.3359 70.7854 43.8479 68.2734 46.9349 68.2734H254.733C257.82 68.2734 260.332 70.7854 260.332 73.8724V186.074C260.331 189.162 257.819 191.673 254.732 191.673ZM46.9349 69.2734C44.3989 69.2734 42.3359 71.3364 42.3359 73.8724V186.074C42.3359 188.61 44.3989 190.674 46.9349 190.674H254.733C257.269 190.674 259.332 188.61 259.332 186.074V73.8724C259.332 71.3364 257.269 69.2734 254.733 69.2734H46.9349Z" fill="#353148"/>
<path d="M103.41 180.385C76.6261 180.385 54.9141 158.673 54.9141 131.889C54.9141 105.105 76.6261 83.3926 103.41 83.3926C104.019 83.3926 103.69 180.385 103.41 180.385Z" fill="#9DD3FF"/>
<path d="M155.981 131.889C155.981 105.105 134.268 83.3926 107.485 83.3926C107.171 83.3926 107.106 107.068 107.156 132.089C107.156 132.271 155.981 132.097 155.981 131.889Z" fill="#0A5840"/>
<path d="M108.266 172.322C107.631 172.322 107.631 172.322 107.582 153.838C107.57 149.347 107.568 144.856 107.574 141.488C107.586 135.381 107.586 135.381 108.116 135.378C143.866 135.308 144.095 135.538 144.318 135.762C144.413 135.856 144.467 135.987 144.467 136.12C144.468 156.082 128.228 172.322 108.266 172.322ZM108.597 136.377C108.506 140.343 108.61 167.631 108.729 171.319C127.784 171.073 143.235 155.612 143.465 136.554C141.088 136.407 128.064 136.339 108.597 136.377Z" fill="#06261C"/>
<path d="M236.782 108.268H170.984C170.708 108.268 170.484 108.044 170.484 107.768C170.484 107.492 170.708 107.268 170.984 107.268H236.782C237.058 107.268 237.282 107.492 237.282 107.768C237.282 108.045 237.058 108.268 236.782 108.268Z" fill="#06261C"/>
<path d="M202.689 123.025H170.984C170.708 123.025 170.484 122.801 170.484 122.525C170.484 122.249 170.708 122.025 170.984 122.025H202.689C202.965 122.025 203.189 122.249 203.189 122.525C203.189 122.801 202.966 123.025 202.689 123.025Z" fill="#06261C"/>
<path d="M236.682 123.025H208.062C207.787 123.025 207.562 122.801 207.562 122.525C207.562 122.249 207.787 122.025 208.062 122.025H236.682C236.958 122.025 237.182 122.249 237.182 122.525C237.182 122.801 236.958 123.025 236.682 123.025Z" fill="#06261C"/>
<path d="M287.006 140.467C284.802 140.415 283.049 140.462 283.049 140.462L166.536 140.328C153.655 140.408 143.028 149.849 141.051 162.16H140.945L140.949 162.854C140.792 164.037 140.708 165.243 140.716 166.47L140.777 176.404C140.825 184.114 137.744 191.63 131.938 196.702C128.546 199.664 124.404 201.772 119.863 202.663C119.569 202.721 121.192 202.748 122.752 202.785C124.957 202.837 126.709 202.79 126.709 202.79L243.222 202.924C256.102 202.844 266.729 193.403 268.707 181.092H268.813L268.809 180.397C268.966 179.214 269.05 178.009 269.042 176.782L268.957 163.028C270.394 151.872 278.997 142.728 289.895 140.588C290.19 140.531 288.567 140.504 287.006 140.467Z" fill="#06261C"/>
<path d="M316.002 140.33H166.992C184.905 140.33 199.425 155.461 199.425 174.126V314.83C199.425 326.886 208.805 336.66 220.375 336.66H362.646V188.933C364.467 163.516 350.258 140.33 316.002 140.33Z" fill="white"/>
<path d="M362.652 192.054C362.445 192.054 362.277 191.886 362.277 191.679V180.943C362.277 159.029 344.449 141.201 322.535 141.201H166.594C166.387 141.201 166.219 141.033 166.219 140.826C166.219 140.619 166.387 140.451 166.594 140.451H322.536C344.863 140.451 363.028 158.616 363.028 180.943V191.679C363.027 191.886 362.859 192.054 362.652 192.054Z" fill="#06261C"/>
<path d="M396.378 295.02L241.181 295.215L241.275 310.32C241.356 323.42 231.801 334.62 219.403 337.054C219.099 337.114 220.775 337.142 222.387 337.18C224.664 337.233 226.474 337.185 226.474 337.185L346.831 337.323C347.103 337.321 347.371 337.307 347.641 337.298L369.8 337.323C384.622 337.231 396.564 325.141 396.472 310.319L396.378 295.02Z" fill="#06261C"/>
<path d="M340.646 202.1H226.094C225.818 202.1 225.594 201.876 225.594 201.6C225.594 201.324 225.818 201.1 226.094 201.1H340.646C340.922 201.1 341.146 201.324 341.146 201.6C341.146 201.877 340.922 202.1 340.646 202.1Z" fill="#06261C"/>
<path d="M288.83 178.232H228.367C227.814 178.232 227.367 177.784 227.367 177.232C227.367 176.68 227.814 176.232 228.367 176.232H288.83C289.383 176.232 289.83 176.68 289.83 177.232C289.83 177.784 289.383 178.232 288.83 178.232Z" fill="#0A5840"/>
<path d="M281.177 249.906H226.094C225.818 249.906 225.594 249.682 225.594 249.406C225.594 249.13 225.818 248.906 226.094 248.906H281.177C281.453 248.906 281.677 249.13 281.677 249.406C281.677 249.682 281.453 249.906 281.177 249.906Z" fill="#06261C"/>
<path d="M263.517 224.52H226.094C225.818 224.52 225.594 224.296 225.594 224.02C225.594 223.744 225.818 223.52 226.094 223.52H263.517C263.793 223.52 264.017 223.744 264.017 224.02C264.017 224.296 263.793 224.52 263.517 224.52Z" fill="#06261C"/>
<path d="M340.643 224.52H276.578C276.302 224.52 276.078 224.296 276.078 224.02C276.078 223.744 276.302 223.52 276.578 223.52H340.642C340.918 223.52 341.142 223.744 341.142 224.02C341.143 224.296 340.919 224.52 340.643 224.52Z" fill="#06261C"/>
<path d="M263.517 277.061H226.094C225.818 277.061 225.594 276.837 225.594 276.561C225.594 276.285 225.818 276.061 226.094 276.061H263.517C263.793 276.061 264.017 276.285 264.017 276.561C264.017 276.837 263.793 277.061 263.517 277.061Z" fill="#06261C"/>
<path d="M281.176 277.061H271.984C271.708 277.061 271.484 276.837 271.484 276.561C271.484 276.285 271.708 276.061 271.984 276.061H281.176C281.452 276.061 281.676 276.285 281.676 276.561C281.676 276.837 281.452 277.061 281.176 277.061Z" fill="#06261C"/>
<path d="M305.441 242.418H293.422V280.601H305.441V242.418Z" fill="#9DD3FF"/>
<path d="M323.166 281.101H311.148C310.872 281.101 310.648 280.877 310.648 280.601V257.748C310.648 257.472 310.872 257.248 311.148 257.248H323.166C323.442 257.248 323.666 257.472 323.666 257.748V280.601C323.666 280.878 323.443 281.101 323.166 281.101ZM311.648 280.101H322.666V258.248H311.648V280.101Z" fill="#0A5840" fill-opacity="0.6"/>
<path d="M340.644 238.492H328.625V280.6H340.644V238.492Z" fill="#0A5840"/>
<path d="M261.081 119.758L231.828 89.5821C231.637 89.3841 231.641 89.0671 231.84 88.8751C232.038 88.6821 232.355 88.6891 232.547 88.8861L261.114 118.356L292.854 88.5781L330.474 117.75C330.692 117.919 330.732 118.233 330.563 118.451C330.392 118.67 330.08 118.708 329.861 118.54L292.917 89.8911L261.081 119.758Z" fill="#06261C"/>
<path d="M232.189 97.1504C236.561 97.1504 240.105 93.6062 240.105 89.2344C240.105 84.8625 236.561 81.3184 232.189 81.3184C227.818 81.3184 224.273 84.8625 224.273 89.2344C224.273 93.6062 227.818 97.1504 232.189 97.1504Z" fill="#0A5840"/>
<path d="M300.801 89.2344C300.801 93.6064 297.257 97.1504 292.885 97.1504C288.513 97.1504 284.969 93.6064 284.969 89.2344C284.969 84.8624 288.513 81.3184 292.885 81.3184C297.257 81.3184 300.801 84.8624 300.801 89.2344Z" fill="#0A5840"/>
<path d="M268.919 119.412C269.62 115.096 266.689 111.03 262.374 110.33C258.058 109.629 253.992 112.56 253.292 116.876C252.591 121.191 255.522 125.257 259.837 125.958C264.153 126.658 268.219 123.727 268.919 119.412Z" fill="#0A5840" fill-opacity="0.6"/>
<path d="M338.032 119.119C338.566 114.78 335.482 110.829 331.143 110.295C326.804 109.761 322.853 112.845 322.319 117.184C321.785 121.523 324.869 125.474 329.208 126.008C333.547 126.543 337.498 123.458 338.032 119.119Z" fill="#0A5840" fill-opacity="0.6"/>
</svg>
