<svg width="551" height="409" viewBox="0 0 551 409" fill="none" xmlns="http://www.w3.org/2000/svg">
<path d="M64.34 77.1456C64.34 77.1456 114.53 33.2296 176.221 54.1416C237.912 75.0536 286.011 170.205 345.611 173.342C405.211 176.479 460.629 144.065 507.681 172.296C554.734 200.528 563.099 322.865 473.176 335.412C383.253 347.959 333.064 302.998 294.376 305.089C255.688 307.18 161.583 354.233 87.344 333.321C13.105 312.409 -53.814 168.114 64.34 77.1456Z" fill="#E8F4FF"/>
<g opacity="0.46">
<path d="M399.669 84.3234H185.127C182.872 84.3234 181.225 82.1924 181.793 80.0104L201.821 3.06042C202.216 1.54242 203.587 0.482422 205.155 0.482422H419.697C421.952 0.482422 423.599 2.61342 423.031 4.79542L403.003 81.7454C402.608 83.2634 401.238 84.3234 399.669 84.3234Z" fill="#BFD9FF"/>
<path d="M214.555 16.9453H289.207" stroke="#A9C2FF" stroke-width="3.4455" stroke-miterlimit="10" stroke-linecap="round" stroke-linejoin="round"/>
<path d="M208.812 51.4004H283.465" stroke="#A9C2FF" stroke-width="3.4455" stroke-miterlimit="10" stroke-linecap="round" stroke-linejoin="round"/>
<path d="M240.203 38.3848H314.857" stroke="#A9C2FF" stroke-width="3.4455" stroke-miterlimit="10" stroke-linecap="round" stroke-linejoin="round"/>
<path d="M212.641 28.4297H235.037" stroke="#A9C2FF" stroke-width="3.4455" stroke-miterlimit="10" stroke-linecap="round" stroke-linejoin="round"/>
<path d="M209.578 38.3848H231.974" stroke="#A9C2FF" stroke-width="3.4455" stroke-miterlimit="10" stroke-linecap="round" stroke-linejoin="round"/>
<path d="M301.078 16.9453H327.686" stroke="#A9C2FF" stroke-width="3.4455" stroke-miterlimit="10" stroke-linecap="round" stroke-linejoin="round"/>
<path d="M314.116 67.5651H274.384C274.184 67.5651 274.038 67.3761 274.088 67.1821L275.866 60.3501C275.901 60.2151 276.023 60.1211 276.162 60.1211H315.894C316.094 60.1211 316.24 60.3101 316.19 60.5041L314.412 67.3361C314.377 67.4711 314.255 67.5651 314.116 67.5651Z" stroke="#84AEE5" stroke-width="1.1485" stroke-miterlimit="10"/>
<path d="M264.725 67.5651H224.993C224.793 67.5651 224.647 67.3761 224.697 67.1821L226.475 60.3501C226.51 60.2151 226.632 60.1211 226.771 60.1211H266.503C266.703 60.1211 266.849 60.3101 266.799 60.5041L265.021 67.3361C264.986 67.4711 264.865 67.5651 264.725 67.5651Z" stroke="#84AEE5" stroke-width="1.1485" stroke-miterlimit="10"/>
<path d="M383.945 57.6583C381.909 54.9453 373.646 52.9723 371.363 50.2603C370.197 48.8743 370.197 46.2993 370.475 44.1103C371.288 43.5923 371.963 43.0723 372.365 42.5893C373.051 41.5873 373.825 40.1863 374.599 38.6493C374.833 38.8783 375.147 39.0573 375.551 39.0453C376.635 39.0133 380.764 33.3923 379.699 32.0893C379.09 31.3443 378.107 31.9903 377.376 32.6803C378.469 30.1773 379.238 28.2583 379.238 28.2583H379.197C379.301 27.9423 379.396 27.6253 379.477 27.3033C381.115 20.7313 377.116 15.4043 370.544 15.4043C363.973 15.4043 357.318 20.7313 355.68 27.3033C355.6 27.6253 355.536 27.9433 355.482 28.2583H355.44C355.44 28.2583 355.253 30.1773 355.098 32.6803C354.711 31.9903 354.049 31.3443 353.069 32.0893C351.354 33.3923 352.681 39.0133 353.75 39.0453C354.148 39.0573 354.55 38.8783 354.898 38.6493C354.907 40.1863 354.982 41.5873 355.168 42.5893C355.365 43.1793 355.941 43.8253 356.69 44.4563C355.872 46.5653 354.627 48.9473 352.867 50.2603C349.232 52.9733 339.985 54.9453 336.596 57.6583C333.548 60.0983 330.828 67.2243 330.312 68.6323H384.757C384.944 67.2243 385.777 60.0983 383.945 57.6583Z" fill="#8DBCF8"/>
</g>
<path d="M362.341 145.577H147.799C145.544 145.577 143.897 143.446 144.464 141.264L164.492 64.3143C164.887 62.7963 166.258 61.7363 167.826 61.7363H382.368C384.623 61.7363 386.27 63.8673 385.703 66.0493L365.675 142.999C365.28 144.517 363.909 145.577 362.341 145.577Z" stroke="#7094D8" stroke-width="1.1485" stroke-miterlimit="10"/>
<path d="M358.325 139.835H143.783C141.528 139.835 139.881 137.704 140.449 135.522L160.477 58.5721C160.872 57.0541 162.243 55.9941 163.811 55.9941H378.353C380.608 55.9941 382.256 58.1251 381.688 60.3071L361.66 137.257C361.264 138.776 359.893 139.835 358.325 139.835Z" fill="#A5C5FF"/>
<path d="M211.109 139.836H318.495" stroke="#7094D8" stroke-width="1.1485" stroke-miterlimit="10"/>
<path d="M181.25 55.9941H271.982" stroke="#7094D8" stroke-width="1.1485" stroke-miterlimit="10"/>
<path d="M341.003 128.35H292.766C290.546 128.35 289.195 126.55 289.749 124.33L301.919 75.518C302.472 73.298 304.721 71.498 306.941 71.498H355.178C357.398 71.498 358.749 73.298 358.195 75.518L346.025 124.33C345.472 126.55 343.223 128.35 341.003 128.35Z" fill="#B7DEFF"/>
<path d="M317.331 128.541L321.552 111.61L314.631 108.68C314.631 108.68 301.733 113.401 300.635 114.541C299.714 115.496 295.083 125.372 293.609 128.541H317.331Z" fill="#0A5840"/>
<path d="M341.213 128.541C341.32 125.372 341.613 115.496 341.169 114.541C340.639 113.401 330.095 108.68 330.095 108.68L321.713 111.61L317.492 128.541H341.213Z" fill="#0A5840"/>
<path d="M321.699 128.542L328.311 113.891L314.108 114.705L312.719 128.542H321.699Z" fill="#BEBECF"/>
<path d="M317.195 105.587L314.103 107.541L312.072 112.425L311.547 119.099L315.901 117.309L319.281 121.378L323.796 117.634L326.566 120.239L330.752 111.285L330.015 105.75L328.265 104.936L317.195 105.587Z" fill="#DEE0E8"/>
<path d="M318.142 92.7707C318.142 92.7707 317.103 90.4097 314.973 91.9807C312.843 93.5507 315.336 99.6157 316.879 97.7907C318.422 95.9657 318.142 92.7707 318.142 92.7707Z" fill="#FB8E74"/>
<path d="M333.325 92.6458C333.325 92.6458 335.349 90.1438 336.877 91.5458C338.404 92.9478 333.383 99.3578 332.558 97.6428C331.733 95.9278 333.325 92.6458 333.325 92.6458Z" fill="#FB8E74"/>
<path d="M328.575 110.316L330.754 98.7578L318.143 99.8508L315.359 110.706C315.359 110.706 317.564 115.844 319.926 118.123C319.926 118.123 327.26 111.788 328.575 110.316Z" fill="#FB8877"/>
<path d="M338.801 87.9792C338.332 89.3852 337.173 89.7362 337.087 90.5562C337.002 91.3762 336.476 93.4842 335.676 94.3042C334.876 95.1242 334.461 95.3582 334.461 95.3582C334.461 95.3582 323.641 98.4042 318.147 94.1862C318.147 94.1862 317.787 92.5852 318.164 90.6722C318.537 88.7782 317.618 88.4462 318.685 87.5092C319.752 86.5722 320.075 85.7522 320.1 84.6982C320.125 83.6442 320.208 82.3552 321.304 81.3012C322.4 80.2472 323.383 80.5982 324.45 79.6612C324.45 79.6612 326.028 77.0122 328.112 76.7112C330.196 76.4102 334.59 75.3052 337.203 78.5192C339.817 81.7332 338.613 84.5462 339.367 85.5502C340.123 86.5562 338.801 87.9792 338.801 87.9792Z" fill="#0A5840"/>
<path d="M318.057 90.7805C318.057 90.7805 312.952 104.843 322.567 105.897C331.063 106.094 334.08 95.7265 335.296 90.4095C336.512 85.0925 335.761 79.5255 328.96 79.7075C322.159 79.8895 318.805 87.6305 318.057 90.7805Z" fill="#FBA990"/>
<path d="M320.724 85.7376C320.724 85.7376 321.353 86.8646 320.77 88.0016C320.187 89.1386 318.605 89.5756 318.368 91.0756C318.131 92.5756 317.437 95.6956 317.012 95.8316C316.587 95.9686 316.888 92.7856 316.959 91.6946C317.031 90.6036 317.844 86.0926 320.112 83.2276C322.38 80.3626 323.781 79.1526 327.819 78.4956C331.856 77.8386 334.917 79.5376 336.04 82.0016C337.164 84.4656 335.366 90.7406 335.366 90.7406C335.366 90.7406 335.635 87.7576 334.636 87.0586C333.637 86.3586 332.811 85.8406 332.977 85.4316C333.142 85.0226 329.781 86.5056 326.422 85.4256C323.062 84.3456 321.976 84.8366 321.417 85.1826C320.858 85.5276 320.724 85.7376 320.724 85.7376Z" fill="#0A5840"/>
<path d="M311.216 112.588C311.135 112.914 306.523 123.902 306.523 123.902L310.574 125.937L309.436 128.216" stroke="#0A5840" stroke-width="0.4884" stroke-miterlimit="10"/>
<path d="M331.156 112.588C331.075 112.914 330.207 123.902 330.207 123.902L325.141 125.937L325.142 128.216" stroke="#0A5840" stroke-width="0.4884" stroke-miterlimit="10"/>
<path d="M341.003 128.35H292.766C290.546 128.35 289.195 126.55 289.749 124.33L301.919 75.518C302.472 73.298 304.721 71.498 306.941 71.498H355.178C357.398 71.498 358.749 73.298 358.195 75.518L346.025 124.33C345.472 126.55 343.223 128.35 341.003 128.35Z" stroke="white" stroke-width="1.1485" stroke-miterlimit="10"/>
<path d="M173.203 74.3711H247.856" stroke="#73A5FF" stroke-width="3.4455" stroke-miterlimit="10" stroke-linecap="round" stroke-linejoin="round"/>
<path d="M167.461 108.824H242.114" stroke="#73A5FF" stroke-width="3.4455" stroke-miterlimit="10" stroke-linecap="round" stroke-linejoin="round"/>
<path d="M198.859 95.8086H273.512" stroke="#73A5FF" stroke-width="3.4455" stroke-miterlimit="10" stroke-linecap="round" stroke-linejoin="round"/>
<path d="M171.289 85.8555H193.685" stroke="#73A5FF" stroke-width="3.4455" stroke-miterlimit="10" stroke-linecap="round" stroke-linejoin="round"/>
<path d="M168.227 95.8086H190.623" stroke="#73A5FF" stroke-width="3.4455" stroke-miterlimit="10" stroke-linecap="round" stroke-linejoin="round"/>
<path d="M259.727 74.3711H286.334" stroke="#73A5FF" stroke-width="3.4455" stroke-miterlimit="10" stroke-linecap="round" stroke-linejoin="round"/>
<path d="M272.764 124.991H233.032C232.832 124.991 232.686 124.802 232.736 124.608L234.514 117.776C234.549 117.641 234.671 117.547 234.81 117.547H274.542C274.742 117.547 274.888 117.736 274.838 117.93L273.06 124.762C273.025 124.896 272.903 124.991 272.764 124.991Z" stroke="#7094D8" stroke-width="1.1485" stroke-miterlimit="10"/>
<path d="M223.382 124.991H183.65C183.45 124.991 183.304 124.802 183.354 124.608L185.132 117.776C185.167 117.641 185.289 117.547 185.428 117.547H225.16C225.36 117.547 225.506 117.736 225.456 117.93L223.678 124.762C223.643 124.896 223.521 124.991 223.382 124.991Z" stroke="#7094D8" stroke-width="1.1485" stroke-miterlimit="10"/>
<path d="M269.109 47.3789H315.623" stroke="#7094D8" stroke-width="1.1485" stroke-miterlimit="10"/>
<path d="M360.622 249.708H146.08C143.825 249.708 142.177 247.577 142.746 245.395L162.774 168.445C163.169 166.927 164.54 165.867 166.108 165.867H380.65C382.905 165.867 384.552 167.998 383.984 170.18L363.956 247.13C363.561 248.649 362.19 249.708 360.622 249.708Z" fill="#BFD9FF"/>
<path d="M175.508 182.33H250.161" stroke="#A9C2FF" stroke-width="3.4455" stroke-miterlimit="10" stroke-linecap="round" stroke-linejoin="round"/>
<path d="M169.766 216.785H244.419" stroke="#A9C2FF" stroke-width="3.4455" stroke-miterlimit="10" stroke-linecap="round" stroke-linejoin="round"/>
<path d="M201.156 203.77H275.809" stroke="#A9C2FF" stroke-width="3.4455" stroke-miterlimit="10" stroke-linecap="round" stroke-linejoin="round"/>
<path d="M173.594 193.814H195.99" stroke="#A9C2FF" stroke-width="3.4455" stroke-miterlimit="10" stroke-linecap="round" stroke-linejoin="round"/>
<path d="M170.531 203.77H192.927" stroke="#A9C2FF" stroke-width="3.4455" stroke-miterlimit="10" stroke-linecap="round" stroke-linejoin="round"/>
<path d="M262.031 182.33H288.638" stroke="#A9C2FF" stroke-width="3.4455" stroke-miterlimit="10" stroke-linecap="round" stroke-linejoin="round"/>
<path d="M275.069 232.95H235.337C235.137 232.95 234.991 232.761 235.041 232.567L236.819 225.735C236.854 225.6 236.976 225.506 237.115 225.506H276.847C277.047 225.506 277.193 225.695 277.143 225.889L275.365 232.721C275.33 232.856 275.208 232.95 275.069 232.95Z" stroke="#84AEE5" stroke-width="1.1485" stroke-miterlimit="10"/>
<path d="M225.679 232.95H185.947C185.747 232.95 185.6 232.761 185.651 232.567L187.429 225.735C187.464 225.6 187.586 225.506 187.725 225.506H227.457C227.657 225.506 227.803 225.695 227.753 225.889L225.975 232.721C225.94 232.856 225.818 232.95 225.679 232.95Z" stroke="#84AEE5" stroke-width="1.1485" stroke-miterlimit="10"/>
<path d="M344.899 223.044C342.863 220.331 334.6 218.358 332.317 215.646C331.151 214.26 331.151 211.685 331.429 209.496C332.242 208.978 332.917 208.458 333.319 207.975C334.005 206.973 334.779 205.572 335.553 204.035C335.787 204.264 336.1 204.443 336.504 204.431C337.588 204.398 341.718 198.777 340.653 197.475C340.044 196.73 339.061 197.376 338.33 198.066C339.423 195.563 340.192 193.644 340.192 193.644H340.15C340.254 193.328 340.349 193.011 340.43 192.689C342.068 186.118 338.07 180.791 331.498 180.791C324.927 180.791 318.271 186.118 316.633 192.689C316.553 193.011 316.49 193.329 316.436 193.644H316.394C316.394 193.644 316.206 195.563 316.051 198.066C315.664 197.376 315.003 196.73 314.023 197.475C312.308 198.778 313.635 204.399 314.704 204.431C315.102 204.443 315.504 204.264 315.852 204.035C315.861 205.572 315.936 206.973 316.122 207.975C316.319 208.565 316.895 209.211 317.644 209.842C316.826 211.951 315.581 214.333 313.821 215.646C310.186 218.359 300.939 220.332 297.55 223.044C294.502 225.484 291.782 232.61 291.266 234.018H345.71C345.897 232.609 346.731 225.484 344.899 223.044Z" fill="#8DBCF8"/>
<g opacity="0.46">
<path d="M338.418 352.308H123.877C121.622 352.308 119.975 350.177 120.543 347.995L140.571 271.045C140.966 269.527 142.337 268.467 143.905 268.467H358.447C360.702 268.467 362.349 270.598 361.781 272.78L341.753 349.73C341.358 351.249 339.987 352.308 338.418 352.308Z" fill="#BFD9FF"/>
<path d="M153.297 284.93H227.95" stroke="#A9C2FF" stroke-width="3.4455" stroke-miterlimit="10" stroke-linecap="round" stroke-linejoin="round"/>
<path d="M147.555 319.385H222.208" stroke="#A9C2FF" stroke-width="3.4455" stroke-miterlimit="10" stroke-linecap="round" stroke-linejoin="round"/>
<path d="M178.945 306.369H253.598" stroke="#A9C2FF" stroke-width="3.4455" stroke-miterlimit="10" stroke-linecap="round" stroke-linejoin="round"/>
<path d="M151.383 296.414H173.779" stroke="#A9C2FF" stroke-width="3.4455" stroke-miterlimit="10" stroke-linecap="round" stroke-linejoin="round"/>
<path d="M148.32 306.369H170.716" stroke="#A9C2FF" stroke-width="3.4455" stroke-miterlimit="10" stroke-linecap="round" stroke-linejoin="round"/>
<path d="M239.82 284.93H266.427" stroke="#A9C2FF" stroke-width="3.4455" stroke-miterlimit="10" stroke-linecap="round" stroke-linejoin="round"/>
<path d="M252.858 335.549H213.126C212.926 335.549 212.78 335.36 212.83 335.166L214.608 328.334C214.643 328.199 214.765 328.105 214.904 328.105H254.636C254.836 328.105 254.982 328.294 254.932 328.488L253.154 335.32C253.119 335.455 252.998 335.549 252.858 335.549Z" stroke="#84AEE5" stroke-width="1.1485" stroke-miterlimit="10"/>
<path d="M203.468 335.549H163.736C163.536 335.549 163.39 335.36 163.44 335.166L165.218 328.334C165.253 328.199 165.375 328.105 165.514 328.105H205.246C205.446 328.105 205.592 328.294 205.542 328.488L203.764 335.32C203.728 335.455 203.607 335.549 203.468 335.549Z" stroke="#84AEE5" stroke-width="1.1485" stroke-miterlimit="10"/>
<path d="M322.695 325.643C320.659 322.93 312.396 320.957 310.113 318.245C308.947 316.859 308.947 314.284 309.225 312.095C310.038 311.577 310.713 311.057 311.115 310.574C311.801 309.572 312.575 308.171 313.349 306.634C313.583 306.863 313.896 307.042 314.299 307.03C315.383 306.997 319.513 301.376 318.449 300.074C317.84 299.329 316.857 299.975 316.126 300.665C317.219 298.162 317.988 296.243 317.988 296.243H317.947C318.051 295.927 318.146 295.609 318.227 295.288C319.865 288.716 315.866 283.389 309.294 283.389C302.723 283.389 296.068 288.716 294.43 295.288C294.35 295.61 294.287 295.928 294.233 296.243H294.191C294.191 296.243 294.003 298.162 293.848 300.665C293.461 299.975 292.8 299.329 291.82 300.074C290.105 301.377 291.432 306.998 292.501 307.03C292.899 307.042 293.3 306.863 293.648 306.634C293.657 308.171 293.733 309.572 293.919 310.574C294.116 311.164 294.692 311.81 295.441 312.441C294.623 314.55 293.377 316.932 291.617 318.245C287.982 320.958 278.735 322.93 275.346 325.643C272.298 328.083 269.578 335.209 269.062 336.617H323.507C323.693 335.209 324.526 328.083 322.695 325.643Z" fill="#8DBCF8"/>
</g>
<path d="M295.523 352.691H333.807" stroke="#7094D8" stroke-width="1.1485" stroke-miterlimit="10"/>
<path d="M165.359 250.092H256.474" stroke="#7094D8" stroke-width="1.1485" stroke-miterlimit="10"/>
<path d="M277.336 250.092H299.54" stroke="#7094D8" stroke-width="1.1485" stroke-miterlimit="10"/>
<path d="M373.242 166.25H380.938C383.201 166.25 384.819 168.44 384.153 170.603L380.898 181.181" stroke="#7094D8" stroke-width="1.1485" stroke-miterlimit="10"/>
<path d="M129.485 30.9472H125.559C124.573 30.9472 123.974 30.1482 124.219 29.1622L125.198 25.2362C125.444 24.2502 126.442 23.4512 127.428 23.4512H131.354C132.34 23.4512 132.939 24.2502 132.694 25.2362L131.715 29.1622C131.469 30.1482 130.471 30.9472 129.485 30.9472Z" fill="#BFD9FF"/>
<path d="M126.61 42.4589H122.684C121.698 42.4589 121.099 41.6599 121.344 40.6739L122.323 36.7479C122.569 35.7619 123.567 34.9629 124.553 34.9629H128.479C129.465 34.9629 130.064 35.7619 129.819 36.7479L128.84 40.6739C128.594 41.6599 127.596 42.4589 126.61 42.4589Z" fill="#EDF4FF"/>
<path d="M139.102 42.4589H135.176C134.19 42.4589 133.591 41.6599 133.836 40.6739L134.815 36.7479C135.061 35.7619 136.059 34.9629 137.045 34.9629H140.971C141.957 34.9629 142.556 35.7619 142.311 36.7479L141.332 40.6739C141.086 41.6599 140.088 42.4589 139.102 42.4589Z" fill="#BFD9FF"/>
<path d="M151.594 42.4589H147.668C146.682 42.4589 146.083 41.6599 146.328 40.6739L147.307 36.7479C147.553 35.7619 148.551 34.9629 149.537 34.9629H153.463C154.449 34.9629 155.048 35.7619 154.803 36.7479L153.824 40.6739C153.578 41.6599 152.58 42.4589 151.594 42.4589Z" fill="#EDF4FF"/>
<path d="M123.68 54.2362H119.754C118.768 54.2362 118.169 53.4372 118.414 52.4512L119.393 48.5252C119.639 47.5392 120.637 46.7402 121.623 46.7402H125.549C126.535 46.7402 127.134 47.5392 126.889 48.5252L125.91 52.4512C125.664 53.4372 124.665 54.2362 123.68 54.2362Z" fill="#EDF4FF"/>
<path d="M120.54 66.8163H116.614C115.628 66.8163 115.029 66.0173 115.274 65.0313L116.253 61.1053C116.499 60.1193 117.497 59.3203 118.483 59.3203H122.409C123.395 59.3203 123.994 60.1193 123.749 61.1053L122.77 65.0313C122.524 66.0173 121.525 66.8163 120.54 66.8163Z" fill="#EDF4FF"/>
<path d="M136.165 54.2362H132.239C131.253 54.2362 130.653 53.4372 130.899 52.4512L131.878 48.5252C132.124 47.5392 133.122 46.7402 134.108 46.7402H138.034C139.02 46.7402 139.619 47.5392 139.374 48.5252L138.395 52.4512C138.149 53.4372 137.151 54.2362 136.165 54.2362Z" fill="#EDF4FF"/>
<path d="M130.696 76.1874H126.77C125.784 76.1874 125.185 75.3884 125.43 74.4024L126.409 70.4764C126.655 69.4904 127.653 68.6914 128.639 68.6914H132.565C133.551 68.6914 134.15 69.4904 133.905 70.4764L132.926 74.4024C132.68 75.3884 131.682 76.1874 130.696 76.1874Z" fill="#BFD9FF"/>
<path d="M192.459 8.0922V8.0902C192.439 8.0892 192.42 8.0882 192.4 8.0872C192.34 8.0832 192.282 8.0752 192.221 8.0722L192.22 8.0772C191.816 8.0522 191.408 8.0332 190.991 8.0332C179.35 8.0332 167.567 17.3662 164.466 28.9572L164.328 29.5112H164.322C164.308 29.5692 164.298 29.6262 164.284 29.6842L164.196 30.0392H164.208C161.653 41.7872 169.191 51.1382 181.26 50.6502C192.265 50.2042 203.363 41.4212 206.666 30.5352C210.249 18.7282 203.729 8.8802 192.459 8.0922ZM200.488 30.1352C198.165 37.8742 190.232 44.1222 182.425 44.3702C174.031 44.6362 168.794 38.1222 170.525 29.9302L170.767 28.9572H170.758C172.991 20.8402 181.256 14.3242 189.423 14.3242C189.846 14.3242 190.258 14.3462 190.664 14.3812C198.465 15.0402 202.957 21.9072 200.488 30.1352Z" fill="#EBEDFC"/>
<path d="M191.312 11.7183C190.951 13.1653 191.627 14.4213 192.944 14.7703C199.309 16.4543 202.705 22.7463 200.487 30.1353C198.164 37.8743 190.231 44.1213 182.424 44.3693C174.768 44.6123 169.734 39.2163 170.221 32.0503C170.322 30.5713 169.272 29.5113 167.769 29.5113C165.82 29.5113 163.879 31.2693 163.749 33.1863C163.057 43.4113 170.29 51.0943 181.26 50.6503C192.265 50.2043 203.363 41.4213 206.666 30.5353C209.854 20.0263 205.041 11.0653 195.997 8.66626C194.129 8.16926 191.824 9.66525 191.312 11.7183Z" fill="#A5C5FF"/>
<path d="M245.484 5.94377L245.485 5.94177C245.466 5.94077 245.447 5.93977 245.429 5.93877C245.355 5.93377 245.28 5.93077 245.206 5.92577C244.815 5.90177 244.421 5.88477 244.017 5.88477C232.244 5.88477 220.319 15.4288 217.384 27.2028C214.449 38.9758 221.613 48.5208 233.387 48.5208C233.789 48.5208 234.191 48.5038 234.593 48.4798C234.669 48.4758 234.744 48.4718 234.82 48.4678C234.841 48.4668 234.862 48.4658 234.883 48.4638V48.4618C246.092 47.7048 257.082 38.5778 259.968 27.3888C259.984 27.3268 260.003 27.2658 260.019 27.2038C262.831 15.9278 256.375 6.70477 245.484 5.94377ZM236.014 42.1878C235.994 42.1888 235.975 42.1908 235.955 42.1918C235.707 42.2078 235.459 42.2178 235.211 42.2228C235.126 42.2238 235.04 42.2288 234.955 42.2288C226.656 42.2288 221.606 35.5008 223.675 27.2018C225.744 18.9028 234.149 12.1748 242.448 12.1748C242.533 12.1748 242.616 12.1798 242.7 12.1808C242.947 12.1848 243.191 12.1958 243.432 12.2118C243.453 12.2128 243.473 12.2148 243.494 12.2168C251.164 12.7598 255.708 19.2588 253.727 27.2018C253.711 27.2638 253.692 27.3248 253.676 27.3868C251.622 35.2498 243.895 41.6538 236.014 42.1878Z" fill="white"/>
<path d="M252.761 30.0137C250.118 36.0397 244.196 40.7917 237.887 41.9537C236.312 42.2437 234.886 43.5217 234.504 45.0517C234.01 47.0327 235.449 48.5097 237.488 48.1397C246.479 46.5067 254.929 39.7277 258.673 31.1327C259.52 29.1897 258.493 27.3887 256.516 27.3887C254.981 27.3887 253.423 28.5037 252.761 30.0137Z" fill="#BFD9FF"/>
<path d="M188.929 80.9616H149.197C148.997 80.9616 148.85 80.7726 148.901 80.5786L150.679 73.7466C150.714 73.6116 150.836 73.5176 150.975 73.5176H190.707C190.907 73.5176 191.053 73.7066 191.003 73.9006L189.225 80.7326C189.19 80.8676 189.068 80.9616 188.929 80.9616Z" fill="#EDF4FF"/>
<path d="M373.221 112.671C381.491 105.369 383.579 94.2213 377.884 87.7721C372.189 81.3229 360.869 82.0146 352.599 89.317C344.329 96.6193 342.241 107.767 347.936 114.216C353.631 120.666 364.951 119.974 373.221 112.671Z" fill="#73A5FF"/>
<path d="M388.977 119.928C388.312 122.594 385.612 124.756 382.945 124.756C380.279 124.756 378.656 122.595 379.321 119.928C379.986 117.262 382.686 115.1 385.353 115.1C388.019 115.1 389.642 117.261 388.977 119.928Z" fill="#73A5FF"/>
<path d="M358.348 109.941C357.793 109.941 357.291 109.729 356.973 109.306L352.414 103.233C351.778 102.386 352.12 101.013 353.179 100.166C354.238 99.3194 355.61 99.3194 356.246 100.166L359.654 104.705L371.828 94.9614C372.886 94.1144 374.259 94.1144 374.895 94.9614C375.531 95.8084 375.189 97.1814 374.13 98.0284L360.04 109.306C359.511 109.729 358.903 109.941 358.348 109.941Z" fill="white"/>
<path d="M474.883 408.587C516.43 408.587 550.11 405.759 550.11 402.27C550.11 398.781 516.43 395.953 474.883 395.953C433.337 395.953 399.656 398.781 399.656 402.27C399.656 405.759 433.337 408.587 474.883 408.587Z" fill="#BFD9FF"/>
<path d="M477.75 65.9473C477.75 65.9473 475.836 69.7753 474.687 78.1983C473.539 86.6203 476.601 135.241 476.601 135.241L509.525 131.796L494.594 68.2453L477.75 65.9473Z" fill="#072F22"/>
<path d="M458.227 271.338L446.742 328.189L469.138 328.763C469.138 328.763 474.88 278.229 472.583 278.229C470.286 278.229 458.227 271.338 458.227 271.338Z" fill="#45242C"/>
<path d="M510.298 394.036C510.298 394.036 501.876 402.841 498.43 404.755C499.196 406.286 511.446 406.286 516.041 403.989C520.635 401.692 524.081 396.332 524.081 396.332L523.698 402.075H525.995C525.995 402.075 528.292 394.035 528.292 392.121C528.292 390.207 525.995 387.527 525.995 387.527L510.298 394.036Z" fill="#0A5840"/>
<path d="M506.852 280.718L515.274 384.084L525.228 383.318C525.228 383.318 536.713 307.516 532.119 281.483C527.525 255.45 506.852 280.718 506.852 280.718Z" fill="#FF8D68"/>
<path d="M515.274 384.083C515.274 384.083 512.211 392.123 508 395.951C503.789 399.779 514.508 399.779 519.102 395.951C523.696 392.123 524.079 389.826 525.61 389.06C527.141 388.294 525.227 383.318 525.227 383.318L515.274 384.083Z" fill="#FF8D68"/>
<path d="M441.169 392.301C441.169 392.301 431.383 399.56 427.664 400.867C428.161 402.506 440.236 404.57 445.151 403.081C450.067 401.591 454.366 396.889 454.366 396.889L453.021 402.485L455.285 402.872C455.285 402.872 458.904 395.335 459.227 393.448C459.55 391.561 457.737 388.533 457.737 388.533L441.169 392.301Z" fill="#0A5840"/>
<path d="M456.871 280.023L447.75 383.329L457.69 384.252C457.69 384.252 481.788 311.471 481.648 285.036C481.507 258.602 456.871 280.023 456.871 280.023Z" fill="#FF8D68"/>
<path d="M447.755 383.33C447.755 383.33 443.381 390.738 438.585 393.802C433.789 396.866 444.355 398.673 449.528 395.673C454.702 392.674 455.466 390.474 457.105 389.978C458.743 389.481 457.696 384.253 457.696 384.253L447.755 383.33Z" fill="#FF8D68"/>
<path d="M421.599 115.789L401.808 111.891C401.808 111.891 401.508 114.59 403.307 115.19C405.106 115.79 405.106 115.79 405.106 115.79C405.106 115.79 409.604 126.585 411.703 127.785C413.802 128.984 426.401 134.183 426.401 134.183L429.695 121.488L421.599 115.789Z" fill="#FF7759"/>
<path d="M435.836 131.794C435.836 131.794 435.645 130.454 432.997 125.084C430.061 119.131 429.399 116.688 429.399 116.688C429.399 116.688 420.103 113.09 418.604 111.29C417.105 109.491 416.205 109.191 416.205 109.191C416.205 109.191 414.406 112.489 417.105 114.888C419.804 117.287 422.203 119.086 422.203 119.086C422.203 119.086 421.903 125.983 422.803 129.282C423.703 132.581 426.406 134.181 426.406 134.181L435.836 131.794Z" fill="#FF8D68"/>
<path d="M466.648 142.897C466.648 142.897 453.249 164.336 452.866 162.422C452.483 160.508 435.638 131.029 435.638 131.029L426.398 134.182C426.398 134.182 440.232 177.352 449.038 184.243C449.038 184.243 449.804 185.391 452.484 185.009C455.164 184.626 475.837 163.187 475.837 163.187L466.648 142.897Z" fill="#FF8D68"/>
<path d="M479.187 117.438C479.187 117.438 472.009 120.309 468.563 125.286C465.118 130.263 455.164 152.85 455.164 152.85C455.164 152.85 460.524 162.42 472.775 165.865L489.62 134.855L479.187 117.438Z" fill="#E86D5E"/>
<path d="M470.287 190.944C470.287 190.944 470.861 200.132 470.861 203.578C470.861 203.578 457.079 270.191 456.505 285.696C455.931 301.201 467.416 332.785 467.416 332.785C467.416 332.785 516.802 331.637 532.881 328.191L534.604 294.884C534.604 294.884 536.901 236.884 534.604 220.231C532.307 203.578 522.545 194.964 522.545 194.964L519.674 186.924L470.287 190.944Z" fill="#0A5840"/>
<path d="M512.5 113.418C512.5 113.418 525.421 119.448 529.44 125.764C533.46 132.081 545.519 166.249 545.519 166.249C545.519 166.249 532.024 171.13 520.252 171.13C520.252 171.13 521.4 182.041 522.549 185.486C523.697 188.931 519.678 190.367 519.678 190.367C519.678 190.367 491.54 198.12 470.579 193.525C470.579 193.525 467.995 192.951 467.995 191.802C467.995 190.653 468.282 187.782 468.282 187.782C468.282 187.782 466.272 168.257 465.698 164.812C465.124 161.366 458.807 151.987 459.381 148.254C459.955 144.521 469.718 127.198 469.718 127.198C469.718 127.198 476.322 119.446 479.193 117.436C482.064 115.426 489.242 115.426 489.242 115.426L512.5 113.418Z" fill="#E86D5E"/>
<path d="M488.008 103.085C488.018 103.535 489.658 113.28 484.261 120.177C478.863 127.224 500.154 126.924 505.102 119.727C509.6 113.28 509.15 112.23 509.15 112.23C509.15 112.23 505.552 100.535 506.601 92.8884C506.301 85.9924 487.708 90.1904 488.008 103.085Z" fill="#FF8D68"/>
<path d="M487.876 62.4088C487.876 62.4088 481.669 63.9978 478.152 73.5288C474.636 83.0598 476.98 103.314 479.324 105.697C481.668 108.08 488.789 107.169 498.664 103.91C509.097 100.466 512.623 89.6188 514.487 82.4648C518.058 68.7628 506.144 54.6648 487.876 62.4088Z" fill="#FF8D68"/>
<path d="M475.84 73.2212C475.84 73.2212 481.582 87.0032 503.404 87.7692L508.477 112.127C508.477 112.127 517.767 116.59 521.398 118.587C521.398 118.587 525.609 74.3692 515.656 63.6502C505.702 52.9312 488.092 55.6102 481.201 61.7362C474.31 67.8622 475.84 73.2212 475.84 73.2212Z" fill="#072F22"/>
<path d="M512.493 113.418L507.612 108.824C507.612 108.824 503.305 121.17 488.087 122.032C488.087 122.032 486.077 118.874 487.226 114.28L484.642 116.29C484.642 116.29 479.187 124.042 479.761 126.339C480.335 128.636 487.609 124.616 487.609 124.616C487.609 124.616 496.223 129.784 499.668 130.071C503.113 130.359 511.919 114.28 512.493 113.418Z" fill="white"/>
<path d="M503.742 87.4126C503.742 87.4126 506.044 83.6156 508.346 85.0146C510.648 86.4136 506.881 95.0056 503.742 95.2056C500.602 95.4056 502.277 89.6106 503.742 87.4126Z" fill="#FF7759"/>
<path d="M509.148 138.303L517.953 169.695" stroke="#BB524F" stroke-width="1.1485" stroke-miterlimit="10"/>
<path d="M503.695 140.121C503.695 140.121 505.705 146.151 512.309 150.17" stroke="#BB524F" stroke-width="1.1485" stroke-miterlimit="10"/>
<path d="M513.742 132.657C513.742 132.657 514.89 124.617 524.079 124.043" stroke="#BB524F" stroke-width="1.1485" stroke-miterlimit="10"/>
<path d="M468.66 129.211C468.66 129.211 459.28 144.62 459.376 148.257C459.472 151.894 465.501 162.231 465.501 162.231L472.966 181.756" stroke="#BB524F" stroke-width="1.1485" stroke-miterlimit="10"/>
<path d="M501.109 193.241L511.158 181.756" stroke="#BB524F" stroke-width="1.1485" stroke-miterlimit="10"/>
<path d="M416.886 119.161L405.109 115.789C405.109 115.789 406.166 118.395 406.932 119.161C407.698 119.927 415.929 122.798 415.929 122.798" stroke="#E66657" stroke-width="1.026" stroke-miterlimit="10"/>
<path d="M406.93 119.16C406.93 119.16 408.078 122.605 408.653 123.18C409.227 123.754 416.501 125.86 416.501 125.86" stroke="#E66657" stroke-width="1.026" stroke-miterlimit="10"/>
<path d="M418.609 116.291L422.202 119.089L424.926 118.396" stroke="#E66657" stroke-width="1.026" stroke-miterlimit="10"/>
<path d="M489.242 106.338C489.242 106.338 496.516 104.807 500.344 97.916" stroke="#E66657" stroke-width="1.026" stroke-miterlimit="10"/>
<path d="M482.926 89.4922L481.586 96.7662L484.074 97.3402" stroke="#E66657" stroke-width="1.026" stroke-miterlimit="10"/>
<path d="M482.539 100.594C482.539 100.594 486.176 101.36 490.004 99.2539" stroke="#E66657" stroke-width="1.026" stroke-miterlimit="10"/>
<path d="M496.129 93.2246C496.129 95.1806 494.543 96.7656 492.588 96.7656C490.632 96.7656 489.047 95.1806 489.047 93.2246C489.047 91.2686 490.633 89.6836 492.588 89.6836C494.543 89.6836 496.129 91.2686 496.129 93.2246Z" fill="#FA6157"/>
<path d="M489.238 88.4391C489.238 88.9151 488.852 89.3001 488.377 89.3001C487.902 89.3001 487.516 88.9141 487.516 88.4391C487.516 87.9631 487.902 87.5781 488.377 87.5781C488.852 87.5781 489.238 87.9641 489.238 88.4391Z" fill="#072F22"/>
<path d="M479.956 88.4391C479.956 88.9151 479.57 89.3001 479.095 89.3001C478.62 89.3001 478.234 88.9141 478.234 88.4391C478.234 87.9631 478.62 87.5781 479.095 87.5781C479.57 87.5781 479.956 87.9641 479.956 88.4391Z" fill="#072F22"/>
<path d="M473.828 201.567C473.828 201.567 489.62 206.448 504.551 200.131" stroke="#562525" stroke-width="1.1485" stroke-miterlimit="10"/>
<path d="M478.523 207.213C478.523 207.213 486.563 209.893 499.579 204.916" stroke="#562525" stroke-width="1.1485" stroke-miterlimit="10"/>
<path d="M475.063 203.096L444.727 220.611L467.984 260.893L498.32 243.378L475.063 203.096Z" fill="white"/>
<path d="M503.789 218.698C503.789 218.698 499.004 223.962 497.568 225.111C496.132 226.259 486.37 227.121 486.37 227.121C486.37 227.121 482.063 234.299 480.915 234.012C479.767 233.725 480.054 232.864 480.054 232.864C480.054 232.864 479.767 219.943 480.628 218.508C481.489 217.072 495.559 213.053 495.559 213.053L497.282 211.043L503.789 218.698Z" fill="#FF8D68"/>
<path d="M541.307 167.59C541.69 168.739 544.752 177.735 546.284 182.329C547.815 186.923 513.36 211.042 508 215.253L503.789 218.698L497.281 211.041L527.525 180.797L523.122 170.843L541.307 167.59Z" fill="#FF8D68"/>
<path d="M480.914 234.013L482.732 225.973" stroke="#E66657" stroke-width="1.026" stroke-miterlimit="10"/>
<path d="M479.859 226.739L481.965 222.145" stroke="#E66657" stroke-width="1.026" stroke-miterlimit="10"/>
<path d="M480.625 218.508L479.859 234.013H482.347L486.367 227.122" stroke="#E66657" stroke-width="1.026" stroke-miterlimit="10"/>
<path d="M90.5161 408.587C132.063 408.587 165.743 405.759 165.743 402.27C165.743 398.781 132.063 395.953 90.5161 395.953C48.9693 395.953 15.2891 398.781 15.2891 402.27C15.2891 405.759 48.9693 408.587 90.5161 408.587Z" fill="#BFD9FF"/>
<path d="M60.2299 381.948C60.2299 381.948 61.8259 378.528 67.7539 379.44C73.6819 380.352 74.3659 381.492 75.0499 384.456C75.7339 387.42 77.7859 390.612 79.1539 391.296C80.5219 391.98 85.5379 395.4 89.6419 396.084C93.7459 396.768 94.2019 399.276 93.2899 400.416C92.3779 401.556 76.8749 402.468 73.4549 402.012C73.4549 402.012 61.8269 401.784 59.0919 400.872C56.3549 399.96 60.0019 383.088 60.2299 381.948Z" fill="#2D2737"/>
<path d="M53.6457 301.805C53.6457 301.805 51.9117 292.363 61.8827 289.194C71.8537 286.025 73.7407 290.633 76.7597 299.245C79.7787 307.857 74.1657 381.424 74.1657 381.424C74.1657 381.424 62.6837 383.384 59.7387 381.646C59.7387 381.646 50.9917 333.755 51.6007 320.613C52.2097 307.469 53.6457 301.805 53.6457 301.805Z" fill="#0A5840"/>
<path d="M58.5234 378.756C58.5234 378.756 71.5194 377.616 75.6234 376.932L75.3954 382.86C75.3954 382.86 65.1354 384.684 58.7514 383.772L58.5234 378.756Z" fill="#51598D"/>
<path d="M55.3297 117.477C55.3297 117.477 47.1217 117.933 42.1057 136.628C37.0897 155.323 33.8977 178.123 35.7217 184.051C37.5457 189.979 57.1527 205.938 64.4487 205.938C71.7447 205.938 72.2007 200.466 70.8327 195.906C69.4647 191.346 55.3297 179.035 55.3297 179.035C55.3297 179.035 66.7297 142.556 66.2737 132.98C65.8167 123.405 60.3447 117.477 55.3297 117.477Z" fill="#081B15"/>
<path d="M158.103 111.898L156.742 112.037L159.793 105.997C159.793 105.997 167.548 105.508 168.792 108.783L165.235 116.672L158.103 111.898Z" fill="#FF8D68"/>
<path d="M162.459 94.734C162.459 94.734 162.156 88.561 164.353 87.684C166.549 86.807 169.009 88.515 169.009 88.515C169.009 88.515 172.564 88.153 173.698 89.67C174.832 91.187 174.74 93.482 174.74 93.482C174.74 93.482 176.745 93.931 177.266 95.837C177.787 97.743 176.856 101.429 176.856 101.429C176.856 101.429 174.534 104.278 171.85 103.572C169.166 102.866 162.459 94.734 162.459 94.734Z" fill="#FF7759"/>
<path d="M158.399 99.7194C158.399 99.7194 157.576 91.6404 158.446 90.5724C159.317 89.5044 168.218 77.1914 168.218 77.1914C168.218 77.1914 170.064 79.2884 169.002 81.6824C167.94 84.0764 163.748 91.3384 163.748 91.3384L163.727 97.5444C163.727 97.5444 160.985 99.4564 158.399 99.7194Z" fill="#FF7759"/>
<path d="M159.058 106.182C159.058 106.182 156.931 93.2073 158.382 91.4273C159.833 89.6463 166.947 90.6853 168.306 91.1993C169.664 91.7143 173.423 96.5553 173.944 98.4613C174.465 100.367 170.922 107.258 168.792 108.782C166.662 110.305 160.291 108.669 159.058 106.182Z" fill="#FF8D68"/>
<path d="M154.047 114.741L156.783 109.725C156.783 109.725 163.167 108.585 166.359 113.601C167.271 115.425 166.815 115.425 166.815 115.425L164.763 119.529L154.047 114.741Z" fill="#DEE0E8"/>
<path d="M89.0982 59.8501C89.0982 59.8501 95.8442 61.5761 99.6652 71.9341C103.486 82.2921 100.939 104.302 98.3912 106.891C95.8432 109.48 88.1052 108.491 77.3742 104.949C66.0362 101.207 62.2052 89.4191 60.1792 81.6441C56.2992 66.7551 69.2462 51.4341 89.0982 59.8501Z" fill="#FF8D68"/>
<path d="M64.9062 117.021L70.3783 97.4139C70.3783 97.4139 81.3222 94.2219 88.1612 101.518L90.4413 104.71V117.478C90.4413 117.478 79.0422 119.757 64.9062 117.021Z" fill="#FF8D68"/>
<path d="M49.6287 222.582C49.6287 222.582 45.5247 246.521 49.6287 273.88C53.7327 301.239 61.9407 303.975 69.4637 303.975C76.9877 303.975 79.0397 282.088 80.4077 272.512C81.7757 262.936 87.2477 230.105 76.9877 222.581C66.7277 215.058 55.1007 214.374 49.6287 222.582Z" fill="#0A5840"/>
<path d="M78.3582 254.729C78.3582 254.729 70.1502 232.842 84.5142 223.266C98.8782 213.69 109.821 215.058 113.241 230.79C116.661 246.522 117.345 300.556 112.557 311.5C107.769 322.443 90.6692 305.344 78.3582 254.729Z" fill="#0A5840"/>
<path d="M102.258 60.7854C102.258 60.7854 105.495 64.9934 103.553 69.8484C101.611 74.7034 94.4904 76.6454 94.4904 76.6454C94.4904 76.6454 96.7564 79.8824 94.4904 84.4134L92.8724 87.0024C92.8724 87.0024 95.1384 92.1814 94.4904 93.4764C93.8434 94.7714 91.5774 94.4474 91.5774 94.4474C91.5774 94.4474 88.9884 87.3264 88.0164 87.9734C87.0454 88.6204 84.4564 91.8574 84.4564 94.7704C84.4564 97.6834 85.4274 99.9494 84.7804 101.891C84.1334 103.833 74.0994 103.833 69.8914 103.186C65.6834 102.539 59.2104 89.5924 57.5914 83.7654C57.5914 83.7654 55.3254 75.6734 58.5624 68.8764C58.5624 68.8764 57.9154 63.0504 63.4174 57.2244C68.9204 51.3984 86.3984 53.3404 89.3114 55.6064C89.3114 55.6064 88.9874 52.3694 92.2244 53.0174C95.4614 53.6644 100.316 56.5774 102.258 60.7854Z" fill="#C53A45"/>
<path d="M92.5516 90.2409C92.5516 90.2409 91.5806 86.0329 88.0196 87.9749C84.4596 89.9169 88.6666 99.9509 91.5806 99.3039C94.4936 98.6559 93.1986 91.8589 92.5516 90.2409Z" fill="#FF7759"/>
<path d="M62.0078 116.918C62.0078 116.918 63.5348 111.55 64.9028 111.094C66.2708 110.638 83.1418 108.814 92.2618 114.286C96.3658 117.478 95.9098 119.758 95.9098 119.758C95.9098 119.758 68.6878 114.534 62.0078 116.918Z" fill="#DEE0E8"/>
<path d="M58.5188 115.653C58.5188 115.653 86.7898 113.829 106.854 122.493C115.974 127.053 136.835 147.686 136.835 147.686L153.25 113.487C153.25 113.487 162.484 110.181 166.132 118.845C166.132 118.845 155.758 159.2 147.095 171.967C141.623 176.527 115.518 161.707 115.518 161.707C115.518 161.707 119.622 214.601 118.254 238.313C116.43 242.873 80.8628 245.153 74.4788 244.697C68.0948 244.241 45.7518 236.945 45.2958 235.577C44.8398 234.209 48.4878 179.491 47.5758 173.107C46.6638 166.723 43.9278 135.26 44.8398 130.7C45.7518 126.141 49.8558 117.477 58.5188 115.653Z" fill="#081B15"/>
<path d="M88.6137 383.315C88.6137 383.315 90.2097 379.895 96.1377 380.807C102.066 381.719 102.75 382.859 103.434 385.823C104.118 388.787 106.17 391.979 107.538 392.663C108.906 393.347 113.922 396.767 118.026 397.451C122.13 398.135 122.586 400.643 121.674 401.783C120.762 402.923 105.259 403.835 101.839 403.379C101.839 403.379 90.2107 403.151 87.4747 402.239C84.7377 401.326 88.3847 384.455 88.6137 383.315Z" fill="#3E3343"/>
<path d="M91.3524 303.291C91.3524 303.291 90.6684 293.715 100.928 291.663C111.188 289.611 112.556 294.399 114.608 303.291C116.66 312.183 102.98 384.684 102.98 384.684C102.98 384.684 91.3524 385.368 88.6174 383.316C88.6174 383.316 85.1974 334.753 87.2494 321.758C89.3004 308.762 91.3524 303.291 91.3524 303.291Z" fill="#0A5840"/>
<path d="M87.7046 384.455C87.7046 384.455 96.5966 386.963 104.12 385.595L104.804 380.351L87.4766 379.211L87.7046 384.455Z" fill="#51598D"/>
<path d="M75.6172 249.598C75.6172 249.598 85.1932 280.377 92.3742 295.425" stroke="#0A5840" stroke-width="1.026" stroke-miterlimit="10"/>
<path d="M95.1172 301.581C95.1172 301.581 100.931 298.161 106.745 301.581" stroke="#0A5840" stroke-width="1.026" stroke-miterlimit="10"/>
<path d="M94.0859 305.344C94.0859 305.344 98.8739 302.608 107.082 308.422" stroke="#0A5840" stroke-width="1.026" stroke-miterlimit="10"/>
<path d="M58.1797 297.478C58.1797 297.478 61.9417 294.058 70.4917 297.82" stroke="#0A5840" stroke-width="1.026" stroke-miterlimit="10"/>
<path d="M60.9141 300.897C60.9141 300.897 66.3861 298.161 71.5161 302.265" stroke="#0A5840" stroke-width="1.026" stroke-miterlimit="10"/>
<path d="M73.5676 306.369L71.5156 376.135" stroke="#0A5840" stroke-width="1.026" stroke-miterlimit="10"/>
<path d="M101.836 247.888C101.836 247.888 109.588 252.448 112.78 245.152" stroke="#0A5840" stroke-width="1.026" stroke-miterlimit="10"/>
<path d="M109.594 248.801C109.594 248.801 113.242 277.072 112.33 295.768" stroke="#0A5840" stroke-width="1.026" stroke-miterlimit="10"/>
<path d="M44.8438 142.557L48.4917 181.771" stroke="#524B81" stroke-width="1.026" stroke-miterlimit="10"/>
<path d="M107.422 156.236C107.422 156.236 134.439 175.729 147.093 171.968" stroke="#524B81" stroke-width="1.026" stroke-miterlimit="10"/>
<path d="M139.57 151.447C139.57 151.447 145.042 154.525 144.7 161.707" stroke="#524B81" stroke-width="1.026" stroke-miterlimit="10"/>
<path d="M138.203 148.711C138.203 148.711 144.017 147.001 147.437 152.815" stroke="#524B81" stroke-width="1.026" stroke-miterlimit="10"/>
<path d="M106.4 125.115C106.4 125.115 92.0366 132.639 101.612 150.08" stroke="#524B81" stroke-width="1.026" stroke-miterlimit="10"/>
<path d="M86.0547 102.373C86.0547 102.373 88.4487 108.529 96.4857 107.503" stroke="#E66657" stroke-width="1.026" stroke-miterlimit="10"/>
<path d="M163.453 89.7182L166.132 87.3242C166.132 87.3242 168.012 87.3142 169.01 88.5162" stroke="#E66657" stroke-width="1.026" stroke-miterlimit="10"/>
<path d="M166.648 90.1175C166.648 89.9465 170.467 87.8945 170.467 87.8945C170.467 87.8945 173.944 88.7495 174.457 90.5735C174.97 92.3975 174.571 93.3665 174.571 93.3665" stroke="#E66657" stroke-width="1.026" stroke-miterlimit="10"/>
<path d="M171.148 93.4236C171.319 93.3666 175.993 93.6516 175.993 93.6516C175.993 93.6516 177.703 94.7916 177.646 97.0146C177.589 99.2376 176.857 101.431 176.857 101.431C176.857 101.431 175.195 103.797 172.345 103.74" stroke="#E66657" stroke-width="1.026" stroke-miterlimit="10"/>
<path d="M173.826 98.2109C173.826 98.2109 174.396 99.1229 173.655 100.776C172.914 102.429 172.017 106.758 168.789 108.783" stroke="#E66657" stroke-width="1.026" stroke-miterlimit="10"/>
<path d="M76.8206 68.5158C70.1516 65.2668 61.6016 69.1998 61.6016 69.1998C61.6016 69.1998 62.6276 64.7538 67.4156 63.2148" stroke="#A03A45" stroke-width="1.368" stroke-miterlimit="10"/>
<path d="M61.9375 71.935C61.9375 71.935 63.6475 71.764 65.8705 75.184" stroke="#A03A45" stroke-width="1.368" stroke-miterlimit="10"/>
<path d="M91.3516 56.6016C91.3516 56.6016 99.7876 57.9696 100.016 66.4056" stroke="#A03A45" stroke-width="1.368" stroke-miterlimit="10"/>
</svg>
