<svg width="444" height="401" viewBox="0 0 444 401" fill="none" xmlns="http://www.w3.org/2000/svg">
<path d="M322.748 349.561C317.451 325.346 328.9 319.304 339.972 313.461C349.02 308.686 357.566 304.176 357.111 289.905C356.507 270.987 369.394 264.104 380.764 258.032C389.223 253.514 397.212 249.247 398.404 240.639C401.272 219.926 420.376 194.183 420.569 193.926L421.755 194.813C421.565 195.067 402.687 220.51 399.872 240.843C398.576 250.198 390.263 254.638 381.462 259.339C369.936 265.494 358.017 271.86 358.591 289.858C359.077 305.053 349.716 309.994 340.663 314.772C329.594 320.613 319.14 326.13 324.196 349.244L322.748 349.561Z" fill="url(#paint0_linear_4291_10502)"/>
<path d="M328.571 343.39C328.317 343.39 328.063 343.381 327.806 343.362C323.018 343.007 318.324 339.369 313.035 331.914L312.703 331.447L313.073 331.007C313.159 330.905 321.638 320.572 318.525 301.173C317.798 296.644 316.827 293.182 316.047 290.4C314.909 286.341 314.157 283.659 315.417 281.518C317.015 278.802 321.337 277.378 333.51 274.479C346.475 271.392 350.809 256.786 354.633 243.9C358.234 231.763 361.645 220.316 371.732 220.671C381.001 221.024 395.078 206.5 407.497 193.697C419.021 181.817 429.898 170.624 436.852 170.845C438.523 170.905 439.932 171.605 441.04 172.925C447.24 180.309 441.456 191.51 435.863 202.341C431.092 211.582 426.584 220.311 429.485 226.068C433.131 233.302 433.641 239.847 430.961 244.995C427.789 251.087 420.395 255.015 408.984 256.668C398.55 258.18 397.423 269.56 396.228 281.609C394.835 295.667 393.256 311.601 375.748 313.116C362.746 314.24 353.982 323.368 346.25 331.421C340.101 337.825 334.757 343.39 328.571 343.39ZM314.564 331.505C319.382 338.179 323.753 341.576 327.916 341.884C333.735 342.316 339.039 336.792 345.181 330.395C353.094 322.154 362.063 312.813 375.62 311.64C391.903 310.231 393.352 295.606 394.754 281.462C396.007 268.821 397.191 256.881 408.772 255.202C419.684 253.621 426.707 249.957 429.646 244.311C432.097 239.603 431.584 233.525 428.162 226.735C424.921 220.303 429.596 211.249 434.546 201.662C439.917 191.261 445.471 180.506 439.905 173.878C439.066 172.879 438.05 172.371 436.798 172.326C430.512 172.116 419.848 183.092 408.56 194.729C395.476 208.217 381.952 222.157 372.055 222.159C371.928 222.159 371.803 222.156 371.677 222.152C362.733 221.819 359.635 232.25 356.052 244.322C352.114 257.593 347.65 272.635 333.853 275.921C322.843 278.543 318.026 280.004 316.693 282.27C315.753 283.867 316.401 286.176 317.473 290C318.263 292.819 319.247 296.326 319.987 300.938C322.88 318.967 316.239 329.251 314.564 331.505Z" fill="url(#paint1_linear_4291_10502)"/>
<path d="M329.109 338.317C328.936 338.317 328.763 338.309 328.589 338.293C320.736 337.578 314.697 320.374 308.857 303.735C306.086 295.844 303.469 288.389 300.921 283.604C298.945 279.893 296.433 276.023 294.004 272.28C287.534 262.311 280.844 252.003 283.021 242.959C284.166 238.201 287.581 234.241 293.462 230.852C306.332 223.435 304.352 219.246 300.014 210.069C296.831 203.333 292.47 194.109 292.302 179.594C292.23 173.356 292.085 167.962 291.958 163.202C291.547 147.905 291.341 140.227 294.608 137.448C295.96 136.298 297.853 136.003 300.562 136.517C305.194 137.398 307.198 141.139 309.319 145.099C312.024 150.151 315.091 155.877 324.348 157.814C333.033 159.632 341.388 162.11 343.694 167.881C345.316 171.94 343.781 177.278 339.002 184.199C337.843 185.878 337.445 187.305 337.786 188.562C338.543 191.35 342.871 193.369 347.883 195.708C355.015 199.035 363.891 203.176 366.403 211.752C368.429 218.663 366.085 227.284 359.238 238.107C343.039 263.71 343.69 281.074 344.264 296.393C344.69 307.746 345.092 318.468 338.247 330.447C335.226 335.735 332.231 338.316 329.109 338.317ZM298.242 137.755C297.086 137.755 296.215 138.026 295.568 138.577C292.841 140.896 293.053 148.805 293.439 163.163C293.567 167.928 293.712 173.327 293.784 179.577C293.948 193.768 298.228 202.824 301.354 209.436C305.657 218.541 308.255 224.037 294.202 232.135C288.692 235.31 285.506 238.964 284.461 243.305C282.433 251.731 288.947 261.767 295.247 271.473C297.693 275.243 300.223 279.14 302.229 282.907C304.83 287.792 307.465 295.298 310.255 303.245C315.675 318.687 321.819 336.189 328.723 336.818C331.359 337.054 334.13 334.667 336.961 329.712C343.596 318.101 343.22 308.067 342.784 296.449C342.202 280.914 341.541 263.307 357.986 237.315C364.593 226.873 366.881 218.647 364.982 212.168C362.657 204.236 354.476 200.418 347.257 197.051C341.911 194.556 337.293 192.402 336.357 188.951C335.895 187.246 336.361 185.417 337.783 183.357C342.258 176.876 343.742 171.994 342.318 168.431C340.266 163.295 331.929 160.916 324.045 159.265C314.112 157.186 310.73 150.872 308.013 145.799C305.979 142.001 304.223 138.722 300.285 137.973C299.521 137.828 298.843 137.755 298.242 137.755Z" fill="url(#paint2_linear_4291_10502)"/>
<path d="M329.267 347.498L327.855 347.05C335.773 322.026 321.452 265.884 317.183 252.22C315.084 245.5 317.024 235.386 318.9 225.605C321.323 212.972 323.828 199.91 317.44 195.012C305.444 185.815 306.076 164.54 306.109 163.639L307.589 163.692C307.582 163.905 306.955 185.108 318.341 193.837C325.455 199.29 322.863 212.81 320.355 225.884C318.514 235.486 316.61 245.414 318.598 251.778C323.876 268.676 337.167 322.533 329.267 347.498Z" fill="url(#paint3_linear_4291_10502)"/>
<path d="M269.384 184.961C266.088 176.595 253.215 177.863 254.398 189.693C255.582 201.524 263.863 214.142 251.244 234.254C238.625 254.366 267.412 258.309 277.665 270.928C287.918 283.547 291.467 300.898 300.142 311.94C308.818 322.982 314.733 349.403 321.831 339.544C328.929 329.686 322.249 316.865 323.037 299.12C323.826 281.374 339.621 270.139 323.825 258.703C308.029 247.268 292.145 243.761 297.36 217.968C299.661 206.59 279.637 210.988 269.384 184.961Z" fill="url(#paint4_linear_4291_10502)"/>
<path d="M333.324 341.827C333.237 341.304 324.467 289.321 304.832 275.077C284.809 260.55 281.173 247.13 274.18 215.486L275.626 215.166C282.534 246.419 286.117 259.669 305.703 273.877C325.829 288.479 334.43 339.425 334.786 341.586L333.324 341.827Z" fill="white"/>
<path d="M315.606 339.964C315.606 339.964 321.441 325.537 310.823 305.028C300.205 284.519 291.61 287.674 317.206 271.898C342.801 256.122 317.366 206.427 339.155 200.117C360.943 193.806 379.875 113.373 396.44 123.615C413.005 133.857 390.918 173.297 402.75 185.129C414.582 196.961 416.16 212.019 391.707 224.21C367.254 236.402 409.061 282.942 375.931 297.14C342.801 311.338 352.304 367.012 315.606 339.964Z" fill="url(#paint5_linear_4291_10502)"/>
<path d="M325.728 355.267C325.691 355.084 322.128 336.61 333.384 312.739C344.851 288.422 350.339 261.838 348.065 241.626C346.834 230.681 353.846 226.4 360.627 222.26C367.303 218.184 374.207 213.969 373.827 203.185C373.483 193.442 377.606 170.604 377.781 169.637L379.239 169.901C379.196 170.137 374.969 193.55 375.307 203.132C375.718 214.782 368.439 219.226 361.399 223.524C354.72 227.602 348.412 231.454 349.538 241.46C351.841 261.934 346.304 288.816 334.725 313.37C323.692 336.769 327.144 354.794 327.18 354.973L325.728 355.267Z" fill="white"/>
<path d="M352.501 253.33C359.94 246.42 369.78 245.423 367.73 255.674C365.68 265.925 358.651 268.853 362.165 275.296C365.68 281.74 371.538 288.183 361.58 296.091C351.622 303.999 346.057 304.878 343.128 319.814C340.199 334.751 340.785 344.952 327.898 345.588C315.012 346.224 319.991 327.429 324.091 318.936C324.091 318.936 330.242 309.243 326.141 296.517C322.041 283.79 314.133 276.917 330.827 272.592C347.521 268.267 347.485 257.989 352.501 253.33Z" fill="white"/>
<path d="M328.829 355.137C328.788 353.309 327.903 310.282 335.95 303.039C344.169 295.641 345.749 282.57 345.958 275.437C346.232 266.142 358.24 260.625 358.751 260.395L359.36 261.745C359.243 261.798 347.685 267.113 347.439 275.48C347.174 284.482 345.138 296.763 336.941 304.14C329.394 310.933 330.3 354.662 330.311 355.103L328.829 355.137Z" fill="url(#paint6_linear_4291_10502)"/>
<path d="M359.055 337.574L345.706 388.221H315.873L302.523 337.574H359.055Z" fill="url(#paint7_linear_4291_10502)"/>
<path d="M359.055 337.574C359.055 337.574 329.667 343.093 329.667 388.221H315.873L302.523 337.574H359.055Z" fill="url(#paint8_linear_4291_10502)"/>
<path d="M292.493 125.736H286.719V388.221H292.493V125.736Z" fill="#706865"/>
<path d="M158.751 125.736H152.977V388.221H158.751V125.736Z" fill="#706865"/>
<path d="M300.405 344.899H145.059C135.487 344.899 127.727 337.138 127.727 327.566V33.413C127.727 23.8405 135.487 16.0801 145.059 16.0801H300.405C309.978 16.0801 317.738 23.8405 317.738 33.413V327.566C317.738 337.139 309.978 344.899 300.405 344.899Z" fill="#BDAFAA"/>
<path d="M295.395 332.051H150.063C140.605 332.051 132.938 324.384 132.938 314.925V38.501C132.938 29.0425 140.605 21.375 150.063 21.375H295.395C304.854 21.375 312.521 29.0425 312.521 38.501V314.925C312.521 324.384 304.854 332.051 295.395 332.051Z" fill="white"/>
<path d="M251.043 13.5859H194.422V26.3719H251.043V13.5859Z" fill="#706865"/>
<path d="M152.583 120.641H169.778C172.905 120.641 175.439 118.106 175.439 114.979V97.7849C175.439 94.6578 172.905 92.123 169.778 92.123H152.583C149.456 92.123 146.922 94.6578 146.922 97.7849V114.979C146.922 118.106 149.456 120.641 152.583 120.641Z" fill="#73B6F0"/>
<path opacity="0.72" d="M281.841 63.2105H189.054C187.428 63.2105 186.109 61.8921 186.109 60.266V57.298C186.109 55.672 187.428 54.3535 189.054 54.3535H281.841C283.467 54.3535 284.786 55.672 284.786 57.298V60.266C284.786 61.8921 283.467 63.2105 281.841 63.2105Z" fill="#D9D9D9"/>
<path opacity="0.72" d="M295.598 77.5309H189.054C187.428 77.5309 186.109 76.2124 186.109 74.5864V71.6183C186.109 69.992 187.428 68.6738 189.054 68.6738H295.598C297.225 68.6738 298.543 69.992 298.543 71.6183V74.5864C298.543 76.2124 297.225 77.5309 295.598 77.5309Z" fill="#D9D9D9"/>
<path d="M152.583 80.2014H169.778C172.905 80.2014 175.439 77.6666 175.439 74.5399V57.3451C175.439 54.2184 172.905 51.6836 169.778 51.6836H152.583C149.456 51.6836 146.922 54.2184 146.922 57.3451V74.5399C146.922 77.6666 149.456 80.2014 152.583 80.2014Z" fill="#0A5840"/>
<path opacity="0.72" d="M257.723 103.652H188.662C187.252 103.652 186.109 102.509 186.109 101.099V97.3476C186.109 95.938 187.252 94.7949 188.662 94.7949H257.723C259.133 94.7949 260.276 95.938 260.276 97.3476V101.099C260.276 102.509 259.133 103.652 257.723 103.652Z" fill="#D9D9D9"/>
<path opacity="0.72" d="M274.681 117.97H188.761C187.297 117.97 186.109 116.783 186.109 115.318V111.765C186.109 110.301 187.297 109.113 188.761 109.113H274.681C276.146 109.113 277.334 110.301 277.334 111.765V115.318C277.334 116.783 276.146 117.97 274.681 117.97Z" fill="#D9D9D9"/>
<path opacity="0.72" d="M290.641 144.093H189.184C187.486 144.093 186.109 142.716 186.109 141.018V138.311C186.109 136.613 187.486 135.236 189.184 135.236H290.641C292.339 135.236 293.716 136.613 293.716 138.311V141.018C293.716 142.716 292.34 144.093 290.641 144.093Z" fill="#D9D9D9"/>
<path opacity="0.72" d="M282.027 158.412H188.868C187.344 158.412 186.109 157.177 186.109 155.653V152.313C186.109 150.79 187.344 149.555 188.868 149.555H282.027C283.55 149.555 284.786 150.789 284.786 152.313V155.653C284.786 157.176 283.55 158.412 282.027 158.412Z" fill="#D9D9D9"/>
<path d="M152.583 161.082H169.778C172.905 161.082 175.439 158.547 175.439 155.42V138.226C175.439 135.099 172.905 132.564 169.778 132.564H152.583C149.456 132.564 146.922 135.099 146.922 138.226V155.42C146.922 158.548 149.456 161.082 152.583 161.082Z" fill="#73B6F0"/>
<path d="M152.583 244.016H169.778C172.905 244.016 175.439 241.481 175.439 238.354V221.16C175.439 218.033 172.905 215.498 169.778 215.498H152.583C149.456 215.498 146.922 218.033 146.922 221.16V238.354C146.922 241.481 149.456 244.016 152.583 244.016Z" fill="#73B6F0"/>
<path opacity="0.72" d="M281.841 186.585H189.054C187.428 186.585 186.109 185.267 186.109 183.641V180.673C186.109 179.047 187.428 177.729 189.054 177.729H281.841C283.467 177.729 284.786 179.047 284.786 180.673V183.641C284.786 185.267 283.467 186.585 281.841 186.585Z" fill="#D9D9D9"/>
<path opacity="0.72" d="M295.598 200.904H189.054C187.428 200.904 186.109 199.586 186.109 197.959V194.991C186.109 193.365 187.428 192.047 189.054 192.047H295.598C297.225 192.047 298.543 193.365 298.543 194.991V197.959C298.543 199.586 297.225 200.904 295.598 200.904Z" fill="#D9D9D9"/>
<path d="M152.583 203.574H169.778C172.905 203.574 175.439 201.04 175.439 197.913V180.718C175.439 177.591 172.905 175.057 169.778 175.057H152.583C149.456 175.057 146.922 177.591 146.922 180.718V197.913C146.922 201.04 149.456 203.574 152.583 203.574Z" fill="#73B6F0"/>
<path opacity="0.72" d="M257.723 227.025H188.662C187.252 227.025 186.109 225.882 186.109 224.472V220.721C186.109 219.311 187.252 218.168 188.662 218.168H257.723C259.133 218.168 260.276 219.311 260.276 220.721V224.472C260.276 225.882 259.133 227.025 257.723 227.025Z" fill="#D9D9D9"/>
<path opacity="0.72" d="M274.681 241.345H188.761C187.297 241.345 186.109 240.158 186.109 238.693V235.14C186.109 233.675 187.297 232.488 188.761 232.488H274.681C276.146 232.488 277.334 233.675 277.334 235.14V238.693C277.334 240.158 276.146 241.345 274.681 241.345Z" fill="#D9D9D9"/>
<path opacity="0.72" d="M290.641 267.466H189.184C187.486 267.466 186.109 266.09 186.109 264.391V261.684C186.109 259.986 187.486 258.609 189.184 258.609H290.641C292.339 258.609 293.716 259.986 293.716 261.684V264.391C293.716 266.089 292.34 267.466 290.641 267.466Z" fill="#D9D9D9"/>
<path opacity="0.72" d="M282.027 281.785H188.868C187.344 281.785 186.109 280.55 186.109 279.026V275.686C186.109 274.163 187.344 272.928 188.868 272.928H282.027C283.55 272.928 284.786 274.163 284.786 275.686V279.026C284.786 280.55 283.55 281.785 282.027 281.785Z" fill="#D9D9D9"/>
<path d="M152.583 284.457H169.778C172.905 284.457 175.439 281.923 175.439 278.796V261.601C175.439 258.474 172.905 255.939 169.778 255.939H152.583C149.456 255.939 146.922 258.474 146.922 261.601V278.796C146.922 281.923 149.456 284.457 152.583 284.457Z" fill="#73B6F0"/>
<path d="M331.312 63.2111H329.509V2.38884H299.25V0.585938H331.312V63.2111Z" fill="#BDAFAA"/>
<path d="M162.022 190.707C162.022 190.707 164.358 196.035 166.595 195.367C168.832 194.699 172.154 194.895 173.195 195.01C174.588 195.163 179.122 194.099 178.855 195.794C178.588 197.488 171.453 197.888 169.96 198.258C168.467 198.627 173.832 202.42 174.206 203.879C174.58 205.338 167.091 213.79 163.744 210.765C160.397 207.739 159.012 202.296 158.308 201.881C157.604 201.465 154.531 197.129 154.531 197.129L162.022 190.707Z" fill="#EEA886"/>
<path d="M173.613 202.988C173.613 202.988 183.185 212.932 183.218 214.133C183.25 215.333 182.632 215.823 181.695 214.931C180.758 214.039 172.143 205.593 172.143 205.593C172.143 205.593 181.315 219.279 181.567 220.246C181.715 220.813 180.573 221.828 180.023 221.396C179.473 220.966 169.547 207.935 169.547 207.935C169.547 207.935 178.086 220.729 178.041 221.61C178.002 222.381 176.723 223.071 176.019 222.167C175.316 221.263 166.667 209.849 166.667 209.849C166.667 209.849 172.252 219.563 171.756 220.307C171.453 220.762 170.507 221.681 169.149 219.128C167.792 216.575 163.914 210.903 163.914 210.903L173.613 202.988Z" fill="#EEA886"/>
<path d="M0 26.373H47.7534V60.9853V68.2756L40.4632 60.9853H0V26.373Z" fill="#FFC655"/>
<path d="M42.0271 379.182C42.0271 379.182 38.3578 381.801 36.3247 383.635C34.2917 385.47 31.5258 387.466 29.8319 392.148C28.1177 396.886 30.8186 400.29 35.4068 400.571C39.9943 400.851 47.0258 397.387 47.7109 393.187C48.3892 389.028 53.7783 389.518 54.4807 386.558C55.1834 383.599 54.2443 379.958 54.2443 379.958L42.0271 379.182Z" fill="#C4C6D1"/>
<path d="M42.6422 375.74L42.0312 379.18C42.0312 379.18 43.9208 382.677 54.2485 379.956L53.7161 376.567L42.6422 375.74Z" fill="#EEA886"/>
<path d="M54.2485 379.957C54.2485 379.957 51.9221 380.263 50.2651 380.523C48.6081 380.783 45.3259 378.666 42.0312 379.18L43.0448 383.364C43.0448 383.364 54.0177 381.309 54.2485 379.957Z" fill="#C4C6D1"/>
<path d="M107.933 379.182C107.933 379.182 111.603 381.801 113.636 383.635C115.669 385.47 118.435 387.466 120.129 392.148C121.843 396.886 119.142 400.29 114.554 400.571C109.966 400.851 102.935 397.387 102.25 393.187C101.571 389.028 96.1822 389.518 95.4795 386.558C94.7771 383.599 95.7162 379.958 95.7162 379.958L107.933 379.182Z" fill="#C4C6D1"/>
<path d="M107.325 375.74L107.936 379.18C107.936 379.18 106.046 382.677 95.7188 379.956L96.2511 376.567L107.325 375.74Z" fill="#EEA886"/>
<path d="M111.726 295.558C111.726 303.118 108.734 375.014 108.734 375.014C107.978 377.534 97.7392 377.403 95.2193 376.143C92.6994 374.883 93.1401 304.157 92.6747 296.536C92.2093 288.912 86.083 232.834 83.8739 233.086C81.6649 233.338 69.1731 286.164 67.4092 291.96C65.645 297.756 55.4776 376.101 55.4776 376.101C46.8605 379.099 41.2734 376.101 41.2734 376.101C41.2734 376.101 44.5678 297.12 44.5708 287.742C44.572 284.262 45.5986 281.628 46.5845 263.123C47.3357 249.019 51.2611 220.114 53.8884 200.227C53.9825 199.52 54.0716 198.84 54.1588 198.189C54.673 194.319 55.0592 191.475 55.2444 190.11C55.3251 189.52 55.3686 189.207 55.3686 189.207C56.0758 188.881 56.8166 188.58 57.5878 188.303C76.0432 181.672 111.639 188.691 111.639 188.691C111.639 188.691 111.66 188.866 111.7 189.195C111.747 189.595 111.821 190.221 111.917 191.033C112.122 192.787 112.427 195.397 112.779 198.428C112.78 198.45 112.784 198.471 112.785 198.494C112.795 198.584 112.807 198.678 112.817 198.771C114.059 209.556 114.674 215.481 115.649 226.99C115.864 229.513 111.726 287.999 111.726 295.558Z" fill="#292C47"/>
<path d="M95.0411 87.0565C95.0411 87.0565 125.266 93.4734 127.786 101.873C130.306 110.273 135.198 130 142.004 151.456C146.076 164.291 166.764 193.525 166.764 193.525C166.764 193.525 154.927 202.25 154.927 201.074C154.927 199.898 127.05 162.699 126.714 158.163C126.378 153.628 117.93 130.432 117.93 130.432C117.93 130.432 113.929 175.028 113.929 181.915C113.929 188.803 114.383 202.751 114.383 202.751C114.383 202.751 103.184 207.042 81.4358 205.908C81.4358 205.908 46.8223 204.719 52.7301 194.169C57.1973 186.192 54.4594 132.526 53.7874 132.19C53.1154 131.854 41.0485 146.968 42.2247 149.877C43.4005 152.787 74.6294 163.223 74.6294 163.223C74.6294 163.223 75.5426 166.586 70.6907 174.206C70.6907 174.206 24.0443 160.576 23.8761 157.72C23.7081 154.864 43.2781 99.4009 49.6691 96.4977C58.8707 92.3179 82.932 85.7461 82.932 85.7461L95.0411 87.0565Z" fill="#0A5840"/>
<path d="M95.7188 379.957C95.7188 379.957 98.0451 380.263 99.7021 380.523C101.359 380.783 104.641 378.666 107.936 379.18L106.922 383.364C106.922 383.364 95.9492 381.309 95.7188 379.957Z" fill="#C4C6D1"/>
<path d="M94.5533 76.5461C94.5533 76.5461 93.3078 83.3709 95.4502 88.0326C95.4502 88.0326 97.6306 98.8959 86.5095 99.383C75.3883 99.8701 75.1328 89.9055 75.1328 89.9055C75.1328 89.9055 77.7936 86.3333 76.0177 76.6131C74.2413 66.8925 94.5533 76.5461 94.5533 76.5461Z" fill="#EEA886"/>
<path d="M87.7944 37.0727C87.7944 37.0727 102.025 39.3684 99.8583 62.1691C97.6915 84.97 85.1316 83.101 84.2922 83.078C83.4529 83.0551 71.6838 83.4937 70.7664 55.6554C70.7664 55.6554 70.3656 35.07 87.7944 37.0727Z" fill="#EEA886"/>
<path d="M100.077 55.7299C100.077 55.7299 101.635 54.0253 102.207 55.7511C102.779 57.4765 100.177 64.9088 99.9847 65.5329C99.9847 65.5329 99.7 66.2023 99.326 65.834C98.9524 65.4653 100.077 55.7299 100.077 55.7299Z" fill="#EEA886"/>
<path d="M71.106 55.4416C71.106 55.4416 69.58 53.7063 68.9762 55.4205C68.3723 57.1347 70.8899 64.9531 71.0134 65.2443C71.0134 65.2443 71.2853 65.9193 71.6661 65.5582C72.0469 65.1973 71.106 55.4416 71.106 55.4416Z" fill="#EEA886"/>
<path d="M100.068 59.2267L98.0304 62.0158C98.0304 62.0158 98.0878 55.9011 97.7612 54.9423C97.4343 53.9832 98.1474 50.6442 97.8741 49.9537C97.6007 49.2632 88.141 51.8334 72.6265 50.2529C72.6265 50.2529 74.352 55.7617 73.3405 56.153C72.329 56.5445 72.8248 63.3143 72.8248 63.3143L71.1496 61.3789C71.1496 61.3789 69.2583 49.8134 69.4423 47.8828C69.687 45.3135 68.8155 33.3136 90.6464 35.3732C93.1454 35.609 95.5453 36.5255 97.5415 38.0834C99.7845 39.8345 102.091 42.5673 101.88 46.3208C101.601 51.2829 100.068 59.2267 100.068 59.2267Z" fill="#434343"/>
<path d="M77.8047 80.0586C77.8047 80.0586 83.6758 86.9135 92.9959 80.0586C92.9959 80.0586 90.3834 85.2586 84.9038 85.3804C79.4242 85.5025 77.8047 80.0586 77.8047 80.0586Z" fill="#A77860"/>
<path d="M94.9085 126.535L50.9375 113.77L31.7133 179.985L75.6843 192.751L94.9085 126.535Z" fill="#6E6760"/>
<path d="M82.8203 162.751C82.8203 162.751 85.6907 162.672 86.57 162.545C87.4489 162.418 86.8683 164.287 85.8479 164.64C84.8275 164.993 82.8203 162.751 82.8203 162.751Z" fill="#C98462"/>
<path d="M84.4969 176.461C84.4969 176.461 83.2436 176.765 82.6308 176.63C82.6308 176.63 81.5342 176.301 80.741 176.113C80.4888 176.055 80.2679 176.009 80.1223 175.995C79.5133 175.934 78.1589 175.983 76.7377 175.426C75.3177 174.871 70.5 172.401 70.5 172.401L71.8777 167.921L72.9157 164.373C72.9157 164.373 81.0587 162.206 82.4418 162.571C82.577 162.607 82.7089 162.648 82.8298 162.696C83.9711 163.118 84.6428 163.912 85.2166 164.202C85.4265 164.31 87.4426 165.521 87.5477 166.216C87.6948 167.18 87.4051 167.909 86.9087 168.356C86.9087 168.356 87.1136 170.257 86.4085 171.334C86.4085 171.334 86.6535 173.082 85.3955 174.172C85.3958 174.171 85.4458 175.972 84.4969 176.461Z" fill="#EEA886"/>
<path d="M74.6307 163.224C74.6307 163.224 75.0398 168.942 70.692 174.207C70.692 174.207 36.4376 163.519 32.358 161.914C28.2779 160.31 47.1827 110.074 47.1827 110.074L61.0917 114.809L53.6192 128.94C53.6192 128.94 49.9199 136.856 42.2256 149.878C42.2256 149.878 46.9605 154.375 74.6307 163.224Z" fill="#0A5840"/>
<path d="M67.5263 150.617C67.5263 154.376 64.9423 157.423 61.7555 157.423C58.5683 157.423 55.9844 154.376 55.9844 150.617C55.9844 146.858 58.5683 143.811 61.7555 143.811C64.9426 143.811 67.5263 146.858 67.5263 150.617Z" fill="#807066"/>
<path d="M98.7523 94.982L95.5908 85.0215C95.5908 85.0215 90.5045 87.3875 75.7623 85.7471L72.4141 95.2783C72.4141 95.2783 85.0654 106.302 98.7523 94.982Z" fill="#0A5840"/>
<defs>
<linearGradient id="paint0_linear_4291_10502" x1="321.414" y1="271.743" x2="421.755" y2="271.743" gradientUnits="userSpaceOnUse">
<stop stop-color="#3076A1"/>
<stop offset="1" stop-color="#639C38"/>
</linearGradient>
<linearGradient id="paint1_linear_4291_10502" x1="312.703" y1="257.116" x2="443.714" y2="257.116" gradientUnits="userSpaceOnUse">
<stop stop-color="#3076A1"/>
<stop offset="1" stop-color="#639C38"/>
</linearGradient>
<linearGradient id="paint2_linear_4291_10502" x1="282.602" y1="237.295" x2="367.106" y2="237.295" gradientUnits="userSpaceOnUse">
<stop stop-color="#3076A1"/>
<stop offset="1" stop-color="#639C38"/>
</linearGradient>
<linearGradient id="paint3_linear_4291_10502" x1="306.093" y1="255.568" x2="331.715" y2="255.568" gradientUnits="userSpaceOnUse">
<stop stop-color="#3076A1"/>
<stop offset="1" stop-color="#639C38"/>
</linearGradient>
<linearGradient id="paint4_linear_4291_10502" x1="248.102" y1="260.646" x2="330.817" y2="260.646" gradientUnits="userSpaceOnUse">
<stop stop-color="#3076A1"/>
<stop offset="1" stop-color="#639C38"/>
</linearGradient>
<linearGradient id="paint5_linear_4291_10502" x1="303.483" y1="448.057" x2="373.075" y2="177.42" gradientUnits="userSpaceOnUse">
<stop stop-color="#3076A1"/>
<stop offset="1" stop-color="#639C38"/>
</linearGradient>
<linearGradient id="paint6_linear_4291_10502" x1="328.781" y1="307.766" x2="359.36" y2="307.766" gradientUnits="userSpaceOnUse">
<stop stop-color="#3076A1"/>
<stop offset="1" stop-color="#639C38"/>
</linearGradient>
<linearGradient id="paint7_linear_4291_10502" x1="302.523" y1="362.897" x2="359.055" y2="362.897" gradientUnits="userSpaceOnUse">
<stop stop-color="#BAD0DE"/>
<stop offset="1" stop-color="#F5F2FF"/>
</linearGradient>
<linearGradient id="paint8_linear_4291_10502" x1="302.523" y1="362.897" x2="359.055" y2="362.897" gradientUnits="userSpaceOnUse">
<stop stop-color="#9FA0AD"/>
<stop offset="0.9948" stop-color="#55B5FF"/>
</linearGradient>
</defs>
</svg>
