<svg xmlns="http://www.w3.org/2000/svg" width="800" height="470" fill="none" viewBox="0 0 800 470"><path fill="#dce6ff" d="M79.192 349.339a328 328 0 0 1-4.5-10.204l3.587-.754a325 325 0 0 0 4.471 10.137zm641.887-4.279-3.715-.324a560 560 0 0 0 1.741-10.558l3.721.288a556 556 0 0 1-1.747 10.594m-650.52-16.203a342 342 0 0 1-3.777-10.346l3.636-.629a341 341 0 0 0 3.754 10.283zm653.799-5.003-3.726-.248c.473-3.542.912-7.104 1.304-10.588l3.731.209a507 507 0 0 1-1.309 10.627M63.362 308.105a324 324 0 0 1-3.058-10.463l3.675-.502a323 323 0 0 0 3.039 10.398zm663.379-5.52-3.735-.166c.316-3.539.595-7.109.825-10.61l3.739.123a454 454 0 0 1-.829 10.653m-669.12-15.458a293 293 0 0 1-2.29-10.562l3.707-.365a291 291 0 0 0 2.276 10.492zm670.521-5.858-3.742-.077c.146-3.554.247-7.128.299-10.621l3.744.028c-.053 3.51-.154 7.099-.301 10.67M53.452 265.96c-.558-3.56-1.043-7.14-1.443-10.64l3.73-.213c.398 3.475.88 7.028 1.434 10.562zm671.263-6.011c-.044-3.557-.14-7.129-.285-10.617l3.742-.078c.145 3.507.242 7.097.286 10.672zM51.027 244.651a228 228 0 0 1-.49-10.684l3.744-.041c.075 3.48.239 7.045.485 10.596zm672.802-5.928a328 328 0 0 0-.94-10.594l3.733-.196c.369 3.498.686 7.083.945 10.655zM54.316 223.326l-3.743-.054c.105-3.59.306-7.186.598-10.687l3.737.155c-.29 3.468-.49 7.03-.592 10.586m667.275-5.77c-.5-3.552-1.066-7.1-1.683-10.544l3.714-.332a289 289 0 0 1 1.694 10.614zM56.095 202.182l-3.725-.264a176 176 0 0 1 1.843-10.624l3.704.38a174 174 0 0 0-1.822 10.508m661.718-5.674a249 249 0 0 0-2.542-10.451l3.679-.489a251 251 0 0 1 2.561 10.533zm-442.714-.373c-5.202-.58-8.964-2.252-14.175-5.141l2.366-2.05c4.565 2.525 7.863 4.039 12.208 4.561zm12.987-6.293-3.334-1.202c1.714-2.371 3.229-5.661 4.503-9.778l3.657.564c-1.362 4.4-2.94 7.807-4.826 10.416m-38.149-6.434c-2.982-2.346-6.168-5.046-9.742-8.255l2.941-1.635c3.524 3.163 6.659 5.82 9.586 8.123zm-189.52-2.169-3.674-.504c.97-3.53 2.067-7.05 3.261-10.461l3.634.634a158 158 0 0 0-3.22 10.331m651.829-5.564a215 215 0 0 0-3.554-10.292l3.619-.677a216 216 0 0 1 3.587 10.391zm-416.815-6.893-3.713-.337c.575-3.157 1.09-6.614 1.575-10.568l3.73.228c-.49 3.991-1.011 7.484-1.592 10.677m-64.404-2.149a1246 1246 0 0 1-8.919-8.621l3.03-1.553c2.715 2.644 5.864 5.706 8.897 8.6zm274.056-.218c-2.915 0-5.776-.615-8.501-1.829l1.996-2.237c4.094 1.826 8.122 1.83 12.472.373l1.61 2.388c-2.571.866-5.12 1.305-7.577 1.305M67.62 160.717l-3.58-.774a153 153 0 0 1 4.85-10.158l3.51.918a151 151 0 0 0-4.78 10.014m457.281-2.521-2.75-1.795c2.838-2.171 5.88-4.85 9.301-8.19l3.033 1.551c-3.509 3.425-6.644 6.184-9.584 8.434m-38.963-1.819c-2.422-2.64-4.823-5.75-7.339-9.506l3.383-1.131c2.445 3.649 4.766 6.657 7.097 9.198zm218.618-1.171a180 180 0 0 0-4.783-10.026l3.517-.906a182 182 0 0 1 4.841 10.147zm-491.319-5.817a724 724 0 0 0-8.982-8.543l2.984-1.597a716 716 0 0 1 9.019 8.579zm84.912-1.965-3.736-.171c.284-3.099.573-6.581.883-10.647l3.738.143a719 719 0 0 1-.885 10.675m-220.138-6.51-3.424-1.068a153 153 0 0 1 6.572-9.675l3.319 1.223a150 150 0 0 0-6.467 9.52m465.049-.001-3.127-1.453c2.66-2.857 5.408-5.885 8.189-8.943l3.149 1.43c-2.788 3.066-5.539 6.096-8.211 8.966m-70.487-3.911a273 273 0 0 1-5.356-10.022l3.521-.898a270 270 0 0 0 5.313 9.94zm221.694-1.65a147 147 0 0 0-6.328-9.562l3.336-1.2a149 149 0 0 1 6.431 9.719zm-499.255-2.886a264 264 0 0 0-9.665-8.105l2.8-1.755a268 268 0 0 1 9.78 8.201zm104.8-6.386-3.738-.133c.252-3.533.502-7.068.77-10.665l3.738.138c-.267 3.595-.518 7.129-.77 10.66m259.666-3.066-3.123-1.458c3.127-3.343 5.924-6.236 8.552-8.842l3.049 1.534a325 325 0 0 0-8.478 8.766m-467.577-.746-3.155-1.424c2.942-3.254 5.975-6.194 9.015-8.737l2.86 1.707c-2.934 2.453-5.867 5.297-8.72 8.454m370.318-5.381c-1.717-3.554-3.401-7.11-4.822-10.12l3.551-.837c1.419 3.006 3.1 6.556 4.814 10.103zm-287.165-.185c-3.825-2.632-7.587-4.957-11.181-6.91l2.283-2.096c3.708 2.016 7.58 4.408 11.51 7.111zm505.618-.113a116 116 0 0 0-8.359-8.693l2.985-1.595a118 118 0 0 1 8.565 8.906zm-569.552-9.97-2.27-2.103c4.47-2.41 9.122-4.147 13.828-5.164l1.095 2.529c-4.28.925-8.537 2.519-12.653 4.738m465.864-.809-2.908-1.666c3.511-3.06 6.837-5.693 10.17-8.05l2.648 1.87c-3.24 2.291-6.482 4.857-9.91 7.846m-275.563-1.04-3.737-.158c.324-3.844.646-7.335.984-10.672l3.733.188a640 640 0 0 0-.98 10.642m-149.924-.554c-4.671-1.642-9.265-2.69-13.655-3.115l.508-2.62c4.794.464 9.779 1.597 14.815 3.367zm511.186-4.275a86.6 86.6 0 0 0-11.09-6.844l2.204-2.137a90 90 0 0 1 11.565 7.134zm-210.061-3.294a1143 1143 0 0 0-4.83-10.098l3.541-.857a1146 1146 0 0 1 4.839 10.116zm145.475-5.435-2.146-2.167c4.604-2.275 9.254-3.96 13.821-5.008l1.156 2.515c-4.214.967-8.531 2.535-12.831 4.66m40.844-3.24c-4.636-1.382-9.329-2.237-13.948-2.541l.348-2.634c5 .33 10.065 1.251 15.055 2.738zm-335.342-4.461-3.729-.234c.467-3.71.974-7.295 1.509-10.652l3.72.296a329 329 0 0 0-1.5 10.59m139.213-7.02a425 425 0 0 0-5.211-9.969l3.497-.944a429 429 0 0 1 5.238 10.02zM307.005 62.374l-3.705-.378a187 187 0 0 1 2.473-10.584l3.679.489a185 185 0 0 0-2.447 10.473m125.035-5.727a238 238 0 0 0-6.027-9.721l3.397-1.111a241 241 0 0 1 6.087 9.816zM312.631 41.553l-3.632-.641c1.306-3.693 2.745-7.172 4.278-10.34l3.542.856c-1.499 3.097-2.908 6.504-4.188 10.125m106.735-4.117a138 138 0 0 0-7.476-9.141l3.163-1.414a141 141 0 0 1 7.619 9.314zm-96.925-15.698-3.357-1.17c2.458-3.519 5.183-6.63 8.101-9.247l2.941 1.636c-2.757 2.473-5.342 5.428-7.685 8.781m80.87-2.021c-3.271-2.897-6.647-5.463-10.034-7.627l2.511-1.962c3.536 2.26 7.052 4.931 10.449 7.94zM340.569 6.102l-2.018-2.227C342.986 1.87 347.871.566 353.073 0l.569 2.614c-4.682.51-9.08 1.683-13.073 3.488m40.897-.001a58.5 58.5 0 0 0-13.5-3.375l.656-2.604a63.3 63.3 0 0 1 14.62 3.65z"/><path fill="#e3fff6" d="M101.547 365.513S43.678 191.106 112.371 152.27c45.914-25.958 94.581 31.265 152.668.993 51.714-26.951 35.274-108.947 117.751-120.28 92.73-12.743 113.148 140.19 189.248 119.287 92.341-25.365 178.905 24.072 124.612 213.576z"/><path fill="#eef7ff" d="M754.049 303.889c-31.872-3.675-26.671 29.531-72.102 29.531-41.537 0-54.826-126.454-85.048-90.307-154.937 185.315-64.968-78.808-188.187-82.165-55.715-1.517-92.842 44.703-106.533 126.539-19.846 73.982-65.87-56.427-113.235-44.302-30.102 7.706-26.655 90.235-68.193 90.235-45.43 0-40.23-33.206-72.102-29.531-34.315 3.958-44.565 62.731-44.565 62.731h794.53s-10.25-58.773-44.565-62.731"/><path fill="#dce6ff" d="M725.824 339.83c-29.321-1.569-24.536 12.61-66.332 12.61-38.213 0-37.163-31.777-62.735-38.531-47.093-12.437-85.916 50.509-104.174 18.917-34.676-83.825-135.811-125.863-182.468 0-18.258 31.592-60.953-24.778-104.174-18.917-26.604 3.608-24.522 38.531-62.735 38.531-41.796 0-37.011-14.179-66.332-12.61-31.57 1.69-40.999 26.787-40.999 26.787h730.948s-9.429-25.097-40.999-26.787"/><path fill="#c3f3e4" d="M4.084 366.619s-17.681 28.364 20.534 45.19c35.66 15.701 214.573 14.433 169.531 30.788-25.427 9.232 12.98 21.769 136.826 26.385 123.847 4.616 338.256-14.569 264.871-35.499-80.993-23.101 227.219 7.415 202.768-66.864z"/><path fill="#9358e0" d="M571.045 216.128c2.537-4.06 4.93-8.069 7.183-12.007.848 2.761 13.666 9.73 15.145 7.148 1.367-2.636-11.389-9.603-14.182-8.849a350 350 0 0 0 2.843-5.124c.774 2.693 15.091 8.105 16.18 5.274 1.001-2.813-12.775-7.997-15.37-6.777a370 370 0 0 0 2.539-4.798c1.41 2.577 14.767 7.558 15.868 4.831.953-2.724-11.925-7.66-14.827-6.862a362 362 0 0 0 2.208-4.391c1.25 2.544 15.772 6.295 16.563 3.392.664-2.851-13.01-6.425-15.689-5.18a360 360 0 0 0 2.231-4.664c1.649 2.421 15.515 5.955 16.318 3.12.651-2.779-12.449-6.272-15.322-5.257a368 368 0 0 0 2.019-4.462c1.887 2.334 15.324 5.714 16.118 2.929.65-2.728-12.097-6.177-15.074-5.3a343 343 0 0 0 1.546-3.598c1.815 2.226 16.451 3.563 16.783.596.199-2.827-13.146-4.184-15.872-2.771.696-1.679 1.349-3.27 1.991-4.901 1.626 2.318 16.586 3.701 16.901.705.196-2.88-13.537-4.224-16.12-2.683a339 339 0 0 0 1.687-4.421c1.876 2.196 16.4 3.515 16.735.559.199-2.838-13.223-4.193-15.922-2.753a344 344 0 0 0 1.476-4.101c2.294 1.809 16.627.871 16.51-2.079-.191-2.714-12.868-2.155-15.603-.532.505-1.472.988-2.911 1.446-4.307 2.532 1.474 16.568-1.303 16.071-4.208-.473-2.577-12.444-.587-15.121 1.26q.717-2.266 1.352-4.373c2.598 1.304 16.473-2.765 15.708-5.627-.673-2.491-12.226.481-14.79 2.524a279 279 0 0 0 1.222-4.35c2.539 1.287 16.429-4.098 15.388-6.913-.898-2.434-12.213 1.564-14.567 3.833q.625-2.414 1.095-4.378c2.578 1.057 15.498-7.494 13.818-10.034-1.259-2.112-10.963 3.735-12.98 6.398.685-4.182 2.398-5.045 2.792-10.71.439-4.795-.292-8.781-1.632-8.904-2.882-.195-4.226 13.549-2.681 16.128-.121.623-.315 1.578-.594 2.856-1.131-3.129-8.87-11.634-10.721-9.96-2.23 1.95 7.05 13.053 9.931 13.409a228 228 0 0 1-1.193 4.777c-.853-3.12-8.998-12.361-11.032-10.65-2.297 1.963 7.459 13.569 10.273 13.499a269 269 0 0 1-1.024 3.661c-1.266-3.052-9.674-11.223-11.462-9.417-2.053 2.062 7.571 12.204 10.518 12.642a328 328 0 0 1-1.342 4.365c-15.634-15.444-17.914-3.756-1.045 3.254a318 318 0 0 1-1.594 4.751c-1.064-2.872-11.984-10.775-13.727-8.525-1.735 2.437 10.15 11.205 12.968 10.707a330 330 0 0 1-1.673 4.644c-.946-2.872-12.039-10.939-13.806-8.667-1.749 2.442 10.271 11.299 13.049 10.705a334 334 0 0 1-1.493 3.909c-1.626-2.585-14.036-7.997-15.262-5.42-1.112 2.655 11.388 8.337 14.348 7.741a304 304 0 0 1-2.125 5.22c-1.372-2.636-14.218-8.306-15.475-5.673-1.132 2.701 11.764 8.512 14.61 7.726a331 331 0 0 1-1.649 3.828c-1.659-2.418-15.508-5.946-16.311-3.113-.652 2.788 12.51 6.289 15.364 5.25a362 362 0 0 1-2.347 5.145c-1.516-2.464-15.614-6.079-16.417-3.218-.654 2.81 12.675 6.333 15.476 5.229-.687 1.452-1.4 2.927-2.129 4.417-.904-2.633-15.945-6.54-16.709-3.589-.687 2.899 13.482 6.556 15.967 5.101-.763 1.539-1.554 3.1-2.363 4.675-1.845-2.212-16.428-3.54-16.762-.579-.213 2.765 12.72 4.143 15.579 2.861a359 359 0 0 1-2.531 4.754c-1.516-2.368-16.662-3.777-16.967-.766-.2 2.827 13.144 4.185 15.87 2.772a346 346 0 0 1-2.13 3.814c-1.858-2.108-17.048-1.169-16.885 1.853.179 2.691 12.718 2.164 15.498.578a358 358 0 0 1-6.625 11.025z"/><path fill="#0e2820" d="M532.051 223.55c-.485-2.856-28.188-1.422-31.728.458 1.702-3.263 3.384-7.276 4.705-12.056 2.676 1.578 32.318-4.853 31.771-7.758-.961-2.747-28.387 3.619-31.338 6.111.941-3.774 1.646-7.996 1.966-12.676 1.965 1.829 31.694-10.577 30.351-13.228-1.296-2.654-28.849 9.267-30.286 12.135.18-3.289.172-6.794-.083-10.526 3.275.56 29.658-13.016 28.456-15.706-1.646-2.389-26.265 10.731-28.597 13.923-.264-3.14-.756-6.595-1.363-9.941 3.416-.065 27.216-17.323 25.648-19.81-1.989-2.079-23.907 14.275-25.98 17.865a346 346 0 0 1-1.533-9.993c3.585-.293 26.967-17.252 25.446-19.755-1.971-2.045-23.39 13.898-25.74 17.572a271 271 0 0 1-1.179-10.553c3.493-.168 27.107-17.292 25.562-19.788-1.973-2.047-23.415 13.915-25.753 17.587-.298-3.629-.48-6.911-.576-9.872 2.985.497 27.753-17.474 26.052-19.896-1.99-2.1-24.198 14.488-26.103 18.024-.086-4.026-.008-7.397.151-10.177 2.984.229 25.719-20.424 23.749-22.634-2.171-1.807-21.545 16.206-23.576 20.156.442-8.843 3.588-9.752 6.446-20.192 6.485-20.608 2.037-22.004-4.356-1.359-3.317 10.608-2.921 12.989-3.854 20.202-.643-4.849-10.358-27.728-12.92-26.925-2.817.946 9.96 30.677 12.631 30.626-.154 2.657-.231 5.843-.164 9.61-1.236-4.425-15.663-25.968-18.134-24.699-2.567 1.497 15.562 28.091 18.213 27.647.102 2.868.286 6.034.574 9.515-2.264-4.162-20.366-22.027-22.49-20.301-1.945 2.222 19.527 23.04 22.76 23.329.296 3.1.672 6.43 1.143 10.001-2.314-3.68-23.631-19.789-25.594-17.745-1.709 2.417 22.923 20.57 25.913 20.09.441 3.158.954 6.496 1.549 10.022-3.175-3.318-26.064-15.513-27.645-13.227-1.112 2.712 24.469 16.004 28.083 15.78a100 100 0 0 1 1.258 9.645c-1.587-3.057-27.394-16.965-28.961-14.478-1.525 2.547 26.836 17.347 29.06 15.794.232 3.538.242 6.865.075 9.99-1.92-3.121-27.182-16.728-28.787-14.285-1.302 2.657 25.772 16.731 28.69 15.83-.337 4.606-1.056 8.749-2.003 12.437-1.39-3.189-25.916-19.07-27.684-16.725-1.509 2.546 24.33 18.735 27.32 18.081-1.297 4.631-2.94 8.504-4.591 11.645-1.895-3.546-23.958-20.276-25.942-18.18-1.467 2.516 21.224 19.245 25.025 19.854-5.227 9.152-11.146 13.386-11.218 13.437l1.055 1.507c.267-.186 6.436-4.575 11.915-14.302 2.414 2.002 32.628.869 32.611-2.086"/><path fill="#ce4abf" d="M636.545 177.469c1.767 5.043 2.928 9.571 3.182 12.093a241 241 0 0 1 3.983-7.697c-2.168-1.738-7.528-26.961-5.068-27.598 2.352-.192 6.702 21.221 6.328 25.304a175 175 0 0 1 4.158-7.075c-2.109-.951-2.3-28.669.254-28.502 1.085-.001 1.973 6.414 1.984 14.328.008 5.043-.343 9.474-.88 12.029a110 110 0 0 1 4.73-6.79c-1.934-1.242 3.206-28.632 5.674-27.951 2.212.677-1.821 21.648-3.691 25.445 4.116-4.697 4.998-6.608 12.451-12.589 14.474-11.682 16.992-8.557 2.461 3.063-7.062 6.096-9.729 5.221-14.298 11.337 3.322-1.846 25.863-5.425 26.524-3.089.332 2.527-25.8 6.37-27.838 4.777-1.448 1.91-3.122 4.282-4.993 7.2 3.033-1.612 26.916-2.808 27.307-.351.038 2.548-26.257 3.501-28.169 1.714a174 174 0 0 0-4.327 7.332c3.408-1.502 26.443-2.618 26.847-.208-.114 2.527-25.167 3.427-27.766 1.873a234 234 0 0 0-4.223 8.108c3.417-1.499 26.427-2.612 26.831-.203-.137 2.52-24.942 3.413-27.669 1.904a297 297 0 0 0-3.7 7.878c3.179-1.571 26.742-2.738 27.142-.298-.094 2.532-25.345 3.438-27.839 1.847-1.163 2.659-2.438 5.308-3.796 7.759 3.176-1.165 27.112 1.282 27.119 3.777-.452 2.497-25.781-.461-27.875-2.434a74 74 0 0 1-4.966 7.554c2.432-1.34 27.795 3.356 27.442 5.873-.337 2.534-27.43-2.853-28.029-5.099-2.278 2.947-4.744 5.641-7.47 8.101 3.306-.354 25.947 8.258 25.298 10.673-1.026 2.329-25.207-7.269-26.416-9.691a53 53 0 0 1-9.165 6.343c3.411.34 23.941 12.642 22.897 14.902-1.42 2.111-23.529-11.562-24.307-14.162-8.584 4.322-15.1 4.497-15.38 4.503l-.031-1.584c.065-.002 6.331-.183 14.467-4.219-2.416-2.235-10.618-25.129-8.355-26.202 2.433-.523 10.152 21.978 9.814 25.446 2.688-1.452 5.721-3.432 8.87-6.119-2.444-.952-13.152-24.954-10.846-26.036 2.398-.808 12.285 22.275 11.757 25.242 2.448-2.182 4.95-4.798 7.401-7.928-2.51-.742-15.119-23.824-12.905-25.085 2.33-.956 13.831 20.855 13.717 24.027a72 72 0 0 0 4.741-7.176c-2.333.048-15.504-24.154-13.187-25.237 2.323-1.007 14.071 21.285 13.748 24.25a86 86 0 0 0 3.731-7.498c-2.68-1.552-14.603-23.372-12.496-24.758 2.238-.854 12.719 18.807 13.408 22.724a305 305 0 0 1 3.704-7.906c-2.362-1.075-11.264-25.905-8.877-26.797 1.024-.358 3.975 5.407 6.592 12.876"/><path fill="#9358e0" d="M193.359 199.57a353 353 0 0 1-21.993-13.454c3.195.179 14.652-4.943 13.613-7.431-1.202-2.778-15.217 3.158-15.939 5.874a347 347 0 0 1-3.608-2.464c3.07.048 14.407-7.119 12.967-9.56-1.616-2.559-14.543 5.459-14.843 8.254a358 358 0 0 1-4.387-3.126c3.132-.127 14.091-7.13 12.667-9.509-1.62-2.502-14.079 5.192-14.743 7.994a354 354 0 0 1-4.2-3.129c2.873.193 13.923-9.4 12.015-11.688-2-2.301-13.719 7.906-13.353 10.666a357 357 0 0 1-3.876-3.004c2.999-.261 13.357-9.36 11.518-11.584-1.995-2.202-13 7.323-13.258 10.204a353 353 0 0 1-4.395-3.558c3.018-.343 13.235-9.348 11.408-11.552-1.982-2.178-12.803 7.158-13.209 10.062a348 348 0 0 1-3.184-2.69c2.898-.566 11.848-11.52 9.63-13.433-2.3-1.796-11.267 9.009-11.319 11.981a294 294 0 0 1-4.231-3.724c2.915-.786 11.567-11.449 9.388-13.328-2.247-1.76-10.94 8.62-11.242 11.658a342 342 0 0 1-3.079-2.832c2.751-.707 9.558-13.997 6.903-15.402-2.595-1.246-8.925 10.923-8.49 13.916a344 344 0 0 1-3.569-3.41c2.744-.812 9.47-13.961 6.83-15.368-2.563-1.236-8.811 10.708-8.483 13.753a321 321 0 0 1-3.545-3.54c11.97-13.8 4.716-23.244-2.387-2.447a305 305 0 0 1-3.148-3.308c2.441-1.707 6.531-15.076 3.774-16.006-2.406-.819-6.286 10.245-6.058 13.541q-1.347-1.471-2.549-2.819c2.55-1.193 6.104-15.932 3.172-16.664-2.583-.624-5.751 11.279-5.123 14.452a240 240 0 0 1-3.198-3.743c2.42-1.603 5.773-15.681 2.907-16.431-2.403-.673-5.536 10.392-5.152 13.697-.82-1.019-1.42-1.788-1.806-2.291.232-2.998-7.101-14.699-9.594-13.239-1.144.708-.02 4.602 2.511 8.698 2.88 4.894 4.798 4.903 7.277 8.339-2.994-1.483-14.287-2.387-14.471.064-.37 3.023 15.007 4.913 16.843 2.816a235 235 0 0 0 2.933 3.43c-3.12-.98-15.029.489-14.747 3.068.324 2.984 15.157 1.607 16.855-.677a301 301 0 0 0 3.034 3.348c-3.205-.685-14.87 1.809-14.362 4.339.592 2.903 14.825.355 16.568-1.971a310 310 0 0 0 3.162 3.31c-3.221-.459-14.823 3.1-14.097 5.618.852 2.821 14.653-.954 16.261-3.403a337 337 0 0 0 3.215 3.21c-3.172-.233-14.767 4.922-13.727 7.437 1.211 2.692 14.458-2.863 15.704-5.505 1.019.988 2.072 1.993 3.15 3.012-3.057-.085-14.466 7.115-13.022 9.567 1.619 2.496 14.029-5.163 14.728-7.966a347 347 0 0 0 3.482 3.204c-3-.227-14.69 7.103-13.23 9.593 1.618 2.54 14.39-5.371 14.812-8.171a284 284 0 0 0 3.967 3.498c-3.07-.049-14.409 7.119-12.968 9.561 1.62 2.507 14.123-5.218 14.754-8.021q1.46 1.25 2.988 2.531c-3.056.543-12.925 9.316-11.126 11.468 1.953 2.138 12.471-6.881 13.119-9.812 1.236 1.02 2.498 2.05 3.798 3.093-3.025.373-13.191 9.343-11.369 11.54 1.983 2.18 12.817-7.169 13.213-10.071q1.992 1.575 4.077 3.179c-2.953.08-13.596 9.379-11.731 11.634 2.004 2.246 13.328-7.59 13.312-10.424 1.284.976 2.599 1.958 3.934 2.945-2.953.58-12.277 10.742-10.209 12.755 2.202 1.949 11.935-8.466 12.047-11.402 1.44 1.05 2.916 2.105 4.413 3.162-2.867.065-12.884 10.85-10.733 12.922 2.237 2.048 12.637-9.183 12.128-11.938a357 357 0 0 0 4.831 3.317c-2.837.571-11.146 12.497-8.746 14.246 2.475 1.651 10.838-10.304 10.366-13.153a355 355 0 0 0 22.202 13.681c13.18 7.464 14.869 5.835 2.023-1.389"/><path fill="#f4d4be" d="M216.257 191.914a293 293 0 0 1-8.344-13.973c2.278 1.338 12.626 1.902 12.801-.318.166-2.494-12.366-3.425-13.921-1.703a301 301 0 0 1-1.72-3.171c2.237 1.194 13.267.211 13.131-2.126-.22-2.489-12.74-1.481-14.016.458q-1.05-1.994-2.041-3.951c2.347 1.088 13.039.084 12.892-2.201-.245-2.449-12.299-1.502-13.845.305a298 298 0 0 1-1.903-3.884c2.037 1.227 13.773-1.648 13.235-4.047-.6-2.445-13.058.627-13.832 2.791a300 300 0 0 1-1.712-3.668c2.3.94 13.342-1.832 12.831-4.158-.634-2.371-12.311.469-13.588 2.488a292 292 0 0 1-1.884-4.272c2.345.887 13.248-1.868 12.738-4.177-.633-2.347-12.104.424-13.499 2.403a293 293 0 0 1-1.322-3.177c2.342.678 13.049-3.988 12.142-6.229-1.01-2.187-11.675 2.362-12.834 4.524a268 268 0 0 1-1.703-4.331c2.437.524 12.818-4.041 11.927-6.244-.986-2.14-11.288 2.201-12.657 4.318a285 285 0 0 1-1.193-3.242c2.286.521 12.304-6.671 10.885-8.705-1.436-1.894-10.68 4.654-11.49 7.016a294 294 0 0 1-1.333-3.853c2.321.441 12.225-6.678 10.818-8.707-1.416-1.876-10.514 4.538-11.422 6.898a274 274 0 0 1-1.267-3.939c2.579-.312 11.146-6.678 9.84-8.545-1.159-1.727-9.153 3.568-10.669 5.848a256 256 0 0 1-1.062-3.618c2.437-.332 10.487-8.606 8.813-10.33-1.458-1.51-8.485 5.152-9.561 7.659q-.433-1.59-.807-3.034c2.322.087 10.497-9.396 8.62-11.04-1.661-1.434-8.482 6.113-9.218 8.68-.363-1.47-.673-2.793-.936-3.958 2.383-.263 10.159-9.335 8.337-10.968-1.51-1.402-7.987 5.54-8.953 8.113a105 105 0 0 1-.461-2.364c1.302-2.114.333-13.475-2.048-13.343-1.108.088-1.753 3.371-1.439 7.335.267 4.681 1.672 5.411 2.195 8.87-1.638-2.219-9.59-7.146-10.651-5.415-1.413 2.08 9.165 9.271 11.305 8.426.245 1.082.531 2.295.859 3.625-1.921-1.898-11.22-5.313-11.987-3.313-.888 2.313 10.522 6.901 12.632 5.865q.442 1.704.966 3.604c-2.096-1.713-11.603-4.285-12.185-2.235-.661 2.354 10.751 5.855 12.91 4.806q.502 1.746 1.071 3.623c-2.192-1.552-12.053-3.317-12.47-1.194-.44 2.393 11.119 4.83 13.225 3.638q.546 1.739 1.148 3.571c-2.241-1.368-12.7-1.959-12.886.28-.127 2.434 11.696 3.355 13.609 1.886q.564 1.667 1.174 3.399c-2.214-1.214-13.305-.234-13.17 2.111.246 2.444 12.248 1.504 13.82-.289q.649 1.802 1.349 3.666c-2.117-1.298-13.468-.329-13.336 2.05.23 2.476 12.591 1.489 13.96-.407a257 257 0 0 0 1.594 4.065c-2.236-1.195-13.268-.211-13.132 2.125.243 2.453 12.341 1.5 13.862-.32q.6 1.47 1.239 2.986c-2.449-.755-13.008 1.962-12.499 4.221.627 2.308 11.755-.345 13.338-2.253.522 1.216 1.06 2.448 1.621 3.705-2.362-.867-13.213 1.882-12.704 4.183.633 2.349 12.117-.426 13.504-2.408a294 294 0 0 0 1.794 3.873c-2.2-1.055-13.525 1.756-13.006 4.115.623 2.406 12.651-.542 13.709-2.629a308 308 0 0 0 1.777 3.647c-2.387-.688-13.07 3.254-12.311 5.513.881 2.263 11.96-1.712 13.151-3.825a299 299 0 0 0 2.046 3.987c-2.129-1.034-13.556 3.104-12.759 5.438.87 2.348 12.746-1.973 13.412-4.188a300 300 0 0 0 2.296 4.259c-2.299-.651-12.902 4.97-11.8 7.16 1.194 2.147 11.849-3.475 12.577-5.745a295 295 0 0 0 8.665 14.589z"/><path fill="#0a5840" d="M277.414 296.905v-41.829a2.42 2.42 0 0 0-2.417-2.418h-67.7v-31.432h79.547a2.42 2.42 0 0 0 2.418-2.418v-44.73a2.42 2.42 0 0 0-2.418-2.418H149.026a2.42 2.42 0 0 0-2.418 2.418v207.694a2.42 2.42 0 0 0 2.418 2.418h55.853a2.42 2.42 0 0 0 2.418-2.418v-82.449h67.7a2.417 2.417 0 0 0 2.417-2.418M405.94 173.33a2.42 2.42 0 0 0-2.299-1.67h-61.179a2.42 2.42 0 0 0-2.299 1.67l-67.545 207.694a2.417 2.417 0 0 0 2.299 3.165h56.959a2.42 2.42 0 0 0 2.342-1.817l8.344-32.516h59.497l8.541 32.529a2.42 2.42 0 0 0 2.339 1.804h58.308a2.416 2.416 0 0 0 2.299-3.166zm-50.007 126.718 16.557-62.749 16.731 62.749zm274.304 61.276c6.419-6.898 11.758-14.984 15.96-24.193 7.208-15.794 10.861-36.239 10.861-60.766 0-16.896-2.086-32.148-6.201-45.33-4.142-13.272-10.455-24.814-18.761-34.314-8.336-9.531-18.581-16.782-30.448-21.548-11.801-4.736-25.515-7.14-40.765-7.14-14.891 0-28.359 2.447-40.022 7.273-11.72 4.85-21.925 12.225-30.337 21.918-8.385 9.661-14.759 21.391-18.942 34.863-4.153 13.38-6.259 28.85-6.259 45.983 0 24.57 4.27 45.359 12.691 61.786 8.47 16.521 19.703 28.784 33.391 36.451 13.629 7.638 31.023 11.509 51.693 11.509 9.606 0 18.528-.998 26.713-2.979l26.571 26.571-5.117 5.423h12.089c.958 0 1.916-.366 2.647-1.096l26.676-26.678a3.74 3.74 0 0 0 0-5.293zm-41.423-41.423a28 28 0 0 1-1.615 2.486c-6.156 8.397-14.645 12.478-25.949 12.478-10.977 0-19.408-4.178-25.772-12.773l-.058-.08c-6.404-8.702-9.652-23.405-9.652-43.7 0-20.54 3.286-35.366 9.766-44.066 6.41-8.598 14.659-12.778 25.225-12.778 11.072 0 19.587 4.117 26.036 12.587 6.514 8.555 9.816 22.489 9.816 41.418.001 20.573-2.62 35.492-7.797 44.428"/><path fill="#0b3a2b" d="M265.325 296.905v-41.829a2.42 2.42 0 0 0-2.418-2.418h-67.699v-31.432h79.547a2.42 2.42 0 0 0 2.418-2.418v-44.73a2.42 2.42 0 0 0-2.418-2.418H136.937a2.42 2.42 0 0 0-2.417 2.418v207.694a2.42 2.42 0 0 0 2.417 2.418h55.853a2.42 2.42 0 0 0 2.418-2.418v-82.449h67.7a2.417 2.417 0 0 0 2.417-2.418M393.851 173.33a2.42 2.42 0 0 0-2.299-1.67h-61.179a2.42 2.42 0 0 0-2.299 1.67l-67.545 207.694a2.417 2.417 0 0 0 2.299 3.165h56.959a2.42 2.42 0 0 0 2.342-1.817l8.344-32.516h59.498l8.54 32.529a2.42 2.42 0 0 0 2.339 1.804h58.308a2.416 2.416 0 0 0 2.299-3.166zm-16.719 126.718h-33.288l16.557-62.749zm241.015 61.276c6.419-6.898 11.758-14.984 15.96-24.193 7.208-15.794 10.861-36.239 10.861-60.766 0-16.896-2.086-32.148-6.201-45.33-4.142-13.272-10.455-24.814-18.76-34.314-8.337-9.531-18.581-16.782-30.448-21.548-11.802-4.736-25.516-7.14-40.765-7.14-14.892 0-28.36 2.447-40.023 7.273-11.719 4.85-21.925 12.225-30.337 21.918-8.385 9.661-14.758 21.391-18.941 34.863-4.154 13.38-6.26 28.85-6.26 45.983 0 24.57 4.27 45.359 12.691 61.786 8.47 16.521 19.703 28.784 33.391 36.451 13.629 7.638 31.023 11.509 51.694 11.509 9.606 0 18.527-.998 26.712-2.979l30.898 30.898a3.744 3.744 0 0 0 5.293 0l26.676-26.678a3.74 3.74 0 0 0 0-5.293zm-94.702-127.078c6.409-8.598 14.659-12.778 25.225-12.778 11.071 0 19.587 4.117 26.035 12.587 6.514 8.555 9.817 22.489 9.817 41.418 0 20.574-2.621 35.492-7.798 44.428a27 27 0 0 1-1.615 2.486c-6.155 8.397-14.645 12.478-25.948 12.478-10.977 0-19.408-4.178-25.772-12.773l-.058-.08c-6.405-8.701-9.652-23.404-9.652-43.7 0-20.54 3.285-35.366 9.766-44.066"/><path fill="#f99370" d="M157.934 355.773c-1.352 20.462-3.894 40.879-6.693 61.192-.652 4.811-6.389 5.729-6.92.479-.478-5.217-.331-10.111-.746-15.354-.956-15.289-2.314-30.603-4.008-45.83-1.164-13.212 18.83-13.768 18.367-.487"/><path fill="#f99370" d="m143.179 357.609-16.748 60.675c-.539 2.028-1.882 2.759-3.904 2.218-1.805-.482-2.971-.603-2.813-2.407l5.367-63.666c1.512-13.121 21.118-9.693 18.098 3.18"/><path fill="#1d3f70" d="M151.241 416.965c7.803.374 10.075 3.037 10.714 4.821l.01.028c.277.78-.318 1.597-1.144 1.6l-16.978.055a4.3 4.3 0 0 1-.516-1.622c-.289-2.311.874-4.859.874-4.859s3.517 1.541 7.04-.023"/><path fill="#395b96" d="m161.955 421.787-18.628.061c.07.569.229 1.123.516 1.622l16.978-.056c.826-.002 1.421-.819 1.144-1.599z"/><path fill="#1d3f70" d="M128.048 421.669v1.524h-9.859v-1.524c0-2.731 2.207-4.944 4.928-4.944a4.937 4.937 0 0 1 4.931 4.944"/><path fill="#395b96" d="M128.048 421.668h-9.859v1.524h9.859z"/><path fill="#662948" d="M134.102 274.763c1.879-3.256 1.117-7.215-1.703-8.843s-6.63-.309-8.51 2.947c-1.88 3.255-1.117 7.215 1.703 8.843s6.63.309 8.51-2.947"/><path fill="#662948" d="M131.74 272.271s-6.644-2.617-7.275-12.12c-.663-9.973 9.097-11.978 13.029-9.143z"/><path fill="#7640cc" d="M143.59 279.688s16.459 3.539 22.734 26.294l-15.901 3.62z"/><path fill="#662948" d="M135.633 250.156c9.616-2.708 16.012 11.266 11.398 18.547z"/><path fill="#f99370" d="M125.096 329.836h30.019c.154-11.87-1.216-23.87-4.004-35.397-1.664-6.727-2.62-12.106-9.031-15.701.457-3.983-.166-9.728-.722-12.095-.292-1.278-1.207-2.245-2.235-2.566-2.629-.913-5.742 1.328-4.933 4.292.238-.15 1.001 8.3.475 10.647-13.029 4.158-6.388 18.96-7.278 28.892-.069 7.297-.773 14.794-2.291 21.928"/><path fill="#e57d61" d="M134.119 267.983q.027.193.07.384c.172-.114.654 4.549.658 7.933 3.18 1.446 6.713.857 7.362.723.161-4.842.371-11.686-3.086-12.947-2.482-1.062-5.441 1.201-5.004 3.907"/><path fill="#f99370" d="M129.122 264.869c.534 3.313 1.652 7.048 4.269 9.239h.005c1.057.879 2.345 1.438 3.711 1.707 7.731 2.162 16.798-6.826 10.756-13.373-2.196-2.028-2.661-5.622-4.411-7.64-2.545-3.693-8.13-3.502-11.146-.49-2.725 2.723-3.657 6.476-3.184 10.557"/><path fill="#0a5840" d="M141.767 262.824c.303-.576-.608-1.039-.895-.454-.303.576.609 1.038.895.454m4.216-.709c.303-.576-.608-1.039-.894-.454-.304.575.608 1.039.894.454m-1.594 4.361c.918-.011 2.346-.63 1.185-1.446-.947-.513-1.645-2.478-1.651-2.497-.98-.74.415 2.319 1.47 2.831.743.455-.805.896-1.445.671a.19.19 0 0 0-.239.122c-.054.341.442.293.68.319"/><path fill="#9358e0" d="M163.283 392.642s-22.379 12.344-47.804.104c0 0 .171-2.429.473-6.425 1.323-17.72 5.126-66.258 7.354-70.675 3.444.897 6.979 1.506 10.503 1.908 7.729.899 17.009.847 24.302.028.985 5.105 4.776 52.732 5.142 72.287q.03 1.505.03 2.773"/><path fill="#9358e0" d="M123.627 314.527s14.726 13.052 34.486 3.054c-.015-.02-6.143-7.146-3.155-17.062 2.072-6.879-5.744-17.553-11.367-20.831 0 0-1.659 5.765-10.671 0-11.118 3.65-5.183 20.89-9.293 34.839"/><path fill="#7640cc" d="M158.113 317.579s-17.741 7.199-34.486-3.054l-1.825 4.516s13.675 11.657 36.875 3.9z"/><path fill="#e57d61" d="M129.121 264.867c.534 3.313 1.653 7.047 4.27 9.239h.004c-1.45-1.801-2.355-5.829-2.355-5.829l.686-1.792c11.504-3.713 10.504-13.002 10.504-13.002-1.716-1.5-4.019-1.754-6.224-1.206-5.401 1.396-7.564 7.23-6.885 12.59"/><path fill="#662948" d="M141.043 252.611s.904 9.21-9.392 12.95l-3.695-2.04c-3.603-7.07 2.942-17.552 13.087-10.91"/><path fill="#f99370" d="M129.288 281.817c-8.17 6.043-15.948 17.293-16.754 27.277-.845 18.941 16.786 20.452 30.22 13.153 2.833-1.439.478-5.792-2.561-4.986-2.213.569-3.778 1.066-5.96 1.127-19.371.542-9.601-15.033-2.09-22.053 0 0 2.609-18.35-2.855-14.518"/><path fill="#7640cc" d="M115.657 323.17c1.878 1.106 4.196 1.942 7.008 2.435 0 0 .034-6.191 4.266-8.216 0 0-3.586-6.68 1.468-12.811 3.151-3.825 4.968-6.353 5.599-11.629.381-3.184-1.495-13.062-1.495-13.062-3.296.863-11.708 3.861-17.558 12.98-6.767 10.55-9.397 24.349.712 30.303"/><path fill="#1d3f70" d="m144.479 329.44 21.72-1.67 6.677-37.18-21.72 1.669z"/><path fill="#f99370" d="M167.806 314.767c.952.186 2.845-.869 1.398-1.722-.55-.296-1.066-.032-1.512.148l.046.002c-1.47-.067-1.23 1.503.068 1.572"/><path fill="#f99370" d="M168.331 313.332c.649-.075 1.374-.316 1.682-.938.414-1.001-1.648-1.568-2.013-.683.005-.02.024-.021-.018.001a.7.7 0 0 1-.175.051c-.001 0-.027.003.009 0-1.482.21-.642 1.73.515 1.569"/><path fill="#f99370" d="m168.938 311.843.9-.334c1.292-.604-.229-1.863-1.133-1.433l-.9.333c-1.292.605.229 1.863 1.133 1.434"/><path fill="#f99370" d="m169.227 310.468.9-.334c1.292-.604-.229-1.863-1.133-1.433l-.9.333c-1.292.605.229 1.863 1.133 1.434m-29.252 9.194c.005-.213.07-.41.178-.577-1.004-1.253.205-2.111 1.218-2.743 1.916-1.244 4.083-2.111 6.346-2.433.9-.129 1.811-.16 2.711-.107.876.033.891 1.409.002 1.446-.962.06-1.907.228-2.822.517a26 26 0 0 1 3.506-.14c.855-.008.959 1.325.1 1.44-1.63.232-3.245.652-4.799 1.192a45 45 0 0 0 4.559-.79c.874-.208 1.234 1.156.362 1.4a47 47 0 0 1-5.009 1.246 40 40 0 0 0 2.59-.253c.859-.123 1.127 1.213.27 1.42-.313.083-.626.17-.94.25-2.227.551-4.504.972-6.807 1.004-1.098.122-1.867-1.213-1.148-2.072a1.1 1.1 0 0 1-.317-.8m-12.958-53.121c.816 3.766 5.414 2.794 4.635-.979-.815-3.766-5.413-2.794-4.635.979"/><path fill="#0a5840" d="M128.212 267.32a.192.192 0 0 0 .182-.246c-.718-2.003.17-2.845 1.521-2.288.226.093.369-.268.138-.354-1.581-.646-2.879.355-2.022 2.754a.19.19 0 0 0 .181.134"/><path fill="#0a5840" d="M129.984 267.053c.59-.047-.534-1.865-1.974-1.963a.19.19 0 0 0-.202.177.19.19 0 0 0 .177.202c1.473.152 1.651 1.535 1.999 1.584"/><path fill="#f4d4be" d="M129.092 268.278c-.009.553.86.553.852 0 .008-.553-.861-.553-.852 0"/><path fill="#0a5840" d="M139.054 261.893a.17.17 0 0 0 .143-.08c1.087-1.793 2.627-1.922 2.642-1.923a.167.167 0 0 0 .155-.178.166.166 0 0 0-.177-.155c-.07.004-1.724.134-2.906 2.083a.166.166 0 0 0 .143.253m6.754-1.683a.167.167 0 0 0 .088-.309c-.048-.03-1.202-.736-2.489-.447a.167.167 0 1 0 .073.326c1.156-.26 2.23.398 2.24.405a.2.2 0 0 0 .088.025"/><path fill="#1d3f70" d="M139.368 317.488s-.538 3.097 1.768 5.607c0 0-.196.608-1.286.584 0 0-1.932-2.614-1.719-5.871 0 0 .492-.608 1.237-.32"/><path fill="#7640cc" d="M163.283 392.639s-22.379 12.344-47.804.104c0 0 .171-2.429.473-6.425 2.24.387 4.983 1.515 8.18 4.02 9.652 7.562 15.589 1.168 21.877 0 5.727-1.063 7.625 4.066 17.244-.472q.03 1.506.03 2.773"/><path fill="#0a5840" d="M144.24 268.939q.284 0 .58-.028a.22.22 0 0 0-.042-.436c-1.985.194-3.604-.788-3.62-.798a.22.22 0 0 0-.302.071.22.22 0 0 0 .071.302c.064.04 1.458.889 3.313.889"/><path fill="#f99370" d="M478.947 366.429a7 7 0 0 1-.384-.234q-.004-.002-.007-.006c4.349 4.278 7.078 9.783 10.04 15.191 2.007 3.51 5.612 9.825-.153 11.549-3.091-.005-3.108 4.719-.012 4.734.595.047 1.225.102 1.818.066 11.026-.667 11.226-13.28 8.197-21.292-2.806-7.412-6.556-14.838-13.095-19.896-7.314-4.972-14.013 5.354-6.404 9.888m-10.827-.001c.116-.065.279-.164.383-.234l.008-.006c-4.35 4.277-7.079 9.783-10.04 15.191-2.008 3.51-5.612 9.825.153 11.549 3.09-.005 3.107 4.719.011 4.733-.594.048-1.224.103-1.817.067-11.026-.668-11.226-13.28-8.197-21.292 2.805-7.412 5.934-14.675 12.473-19.733 7.314-4.973 14.634 5.19 7.026 9.725"/><path fill="#3a72aa" d="M467.033 353.76s-9.314 1.608-15.219 8.725c-5.537 6.674-16.478 29.057 1.123 34.269l8.727-9.603s-2.605-2.198-1.221-9.606 8.823-18.664 6.59-23.785m13.746.109s8.884 1.496 14.903 8.614c5.599 6.621 16.478 29.056-1.123 34.268l-8.727-9.603s2.605-2.198 1.221-9.606-8.508-18.552-6.274-23.673"/><path fill="#3a72aa" d="M494.473 396.636c-13.039 5.84-28.477 5.924-41.537.116-.572-6.605 1.697-8.734 2.793-16.095 2.379-15.982 8.656-26.077 8.656-26.077 5.093-2.024 13.694-2.258 18.625.13 0 0 7.155 10.611 8.08 25.16.452 7.116 3.383 10.365 3.383 16.766"/><path fill="#23659b" d="M468.715 353.417s.693 4.41 5.034 4.278 4.862-4.319 4.862-4.319-4.401-1.392-9.896.041"/><path fill="#f99370" d="M473.704 356.022a3.134 3.134 0 0 1-3.134-3.133v-4.268h6.268v4.268a3.134 3.134 0 0 1-3.134 3.133m10.901-16.059c-.791 3.654-5.252 2.711-4.497-.951.791-3.653 5.253-2.71 4.497.951m-21.801 0c.791 3.654 5.252 2.711 4.496-.951-.791-3.653-5.252-2.71-4.496.951"/><path fill="#f99370" d="M482.875 343.911c-.509 12.235-20.131 10.442-18.195-1.845.268-2.437 1.14-4.058 1.55-7.942.947-8.991 13.723-9.469 14.872-.067.451 3.709 1.802 6.443 1.773 9.854"/><path fill="#0a5840" d="M473.278 342.231c-.891-.01-2.276-.611-1.15-1.403.92-.498 1.595-2.404 1.602-2.423.074-.225.43-.103.348.122-.03.083-.731 2.06-1.774 2.625-.722.442.782.87 1.402.651.097-.031.2.023.231.119.053.331-.429.285-.659.309"/><path fill="#e57d61" d="M467.695 333.552c4.414 2.05 9.478-4.625 12.181-1.564l.331-1.87-5.147-2.415-8.215 2.86z"/><path fill="#8c4225" d="M481.642 336.889s-1.539-2.952-1.765-4.9-2.843-2.288-4.992-.762-4.831 2.218-7.649 1.178-4.642-5.313-1.775-7.834c2.839-2.495 5.791-.55 8.345.416 3.296 1.248 11.576-1.269 7.836 11.902m-15.786-.142s2.305-2.611 2.443-6.077l-2.467-.971s-1.006 3.373.024 7.048"/><path fill="#0a5840" d="M483.671 340.69a.18.18 0 0 1-.172-.232c.63-1.795-.023-2.713-1.441-2.169-.215.089-.351-.254-.131-.335 1.498-.613 2.728.336 1.916 2.609a.18.18 0 0 1-.172.127"/><path fill="#0a5840" d="M482.199 340.254c-.559-.044.299-1.583 1.664-1.676.098-.005.104.075.111.174.006.099.012.179-.088.185-1.396.145-1.357 1.271-1.687 1.317"/><path fill="#23659b" d="M460.026 363.973s-3.844 5.647-5.472 14.005h1.618s1.285-6.079 3.854-14.005m27.538 0s3.813 5.484 5.73 14.005h-2.362s-.099-4.043-3.368-14.005"/><path fill="#0a5840" d="M463.851 340.691a.18.18 0 0 1-.172-.128c-.813-2.274.421-3.222 1.917-2.609.217.082.085.422-.132.335-1.283-.527-2.12.271-1.441 2.169a.182.182 0 0 1-.172.233"/><path fill="#0a5840" d="M465.53 340.439c-.326-.043-.507-1.36-1.895-1.502-.099-.006-.076-.086-.069-.185s-.004-.18.093-.174c1.364.093 2.429 1.814 1.871 1.861"/><path fill="#8c4225" d="M482.876 342.185c-.603-3.703-1.195-5.243-2.028-7.554.316 2.682 3.501 12.191-2.161 9.176-3.5-1.861-7.253-1.028-10.388.457-1.475.553-2.992.451-2.799-1.751.148-1.682.312-4.295.929-7.271-.741 1.157-1.053 4.295-1.749 6.824-2.077 13.741 19.726 14.039 18.196.119m-6.277 7.278c-1.81.053-1.517-2.426-2.883-2.391-1.098.028-.923 3.743-4.354 2.287-1.647-.684-1.822-2.95-.344-3.947 1.279-.864 3.002-1.531 4.719-1.599a9.1 9.1 0 0 1 4.543 1.044c2.544 1.535.641 4.525-1.681 4.606"/><path fill="#0a5840" d="M473.312 345.547c-.515 0-.881-.073-.915-.08a.169.169 0 0 1 .068-.33c.018.004 1.771.351 3-.539a.169.169 0 0 1 .198.273c-.764.553-1.682.676-2.351.676m5.313-9.134a.2.2 0 0 1-.058-.011c-1.497-.548-3.114-.455-3.13-.454a.169.169 0 1 1-.021-.336c.069-.004 1.704-.099 3.267.474a.169.169 0 0 1-.058.327m-9.747-.001a.169.169 0 0 1-.058-.326c1.563-.573 3.199-.478 3.268-.474a.17.17 0 0 1 .157.178.17.17 0 0 1-.179.158c-.016-.001-1.635-.094-3.13.454a.2.2 0 0 1-.058.01"/><path fill="#f99370" d="M456.596 421.134s-3.424 3.657-5.503 4.57c-2.787 1.225-9.524 3.255-10.902 3.678-3.764 1.154-3.43 4.743 1.555 4.234 6.323-.327 15.341-.677 19.574-4.805 5.685-3.06.586-11.365-4.724-7.677m33.818 0s3.424 3.657 5.503 4.57c2.787 1.225 9.524 3.255 10.902 3.678 3.764 1.154 3.429 4.743-1.555 4.234-6.324-.327-15.342-.677-19.574-4.805-5.685-3.06-.586-11.365 4.724-7.677"/><path fill="#d1a68f" d="M438.002 395.357s7.489-.394 14.452 1.267c9.939 2.371 21.257 3.842 42.686-.37 6.846-1.346 14.936-.807 14.936-.807-3.937 2.78-7.709 5.274-11.369 7.423-20.727 12.171-37.841 13.262-60.705-7.513"/><path fill="#163260" d="M452.453 402.494h42.758v-24.833c0-.659-.534-1.192-1.192-1.192h-40.374c-.658 0-1.192.533-1.192 1.192z"/><path fill="#e8c0a6" d="M487.897 431.378c-95.901-17.031-64.983-64.949 4.828-11.349 1.091 7.049-4.828 11.349-4.828 11.349"/><path fill="#d1a68f" d="M487.897 431.375c-.107.004-1.173-.184-2.952-.549 0 0 6.436-4.328 5.643-12.279 1.37.933 2.137 1.479 2.137 1.479 1.091 7.049-4.828 11.349-4.828 11.349"/><path fill="#d1a68f" d="m491.831 420.949-2.364 4.337-12.826 3.827s-2.172-.472-3.269-.753z"/><path fill="#e8c0a6" d="M462.073 430.892c-1.583.322-2.527.486-2.627.483 0 0-5.92-4.299-4.829-11.349 68.995-53.146 99.81-6.278 7.456 10.866"/><path fill="#d1a68f" d="M462.073 430.892c-1.583.322-2.527.487-2.627.483 0 0-5.92-4.299-4.829-11.349 0 0 .762-.658 2.183-1.51 0 0-.442 7.4 5.273 12.376"/><path fill="#d1a68f" d="M455.759 420.103a.323.323 0 0 1-.209-.571c.106-.09 10.666-8.986 19.241-13.71a.323.323 0 1 1 .313.567c-8.519 4.694-19.031 13.549-19.135 13.638a.33.33 0 0 1-.21.076"/><path fill="#0a5840" d="M476.117 338.78a.48.48 0 1 1 .857-.435.48.48 0 0 1-.857.435m-5.759.008a.481.481 0 1 1 .858-.435.481.481 0 0 1-.858.435"/><path fill="#1d3f70" d="M437.144 432.862a4.8 4.8 0 0 1 3.322-5.917l12.91-2.779s.186 3.994 3.363 7.327l-13.678 4.692a4.8 4.8 0 0 1-5.917-3.323"/><path fill="#e8c0a6" d="M443.451 434.533a.455.455 0 0 1-.416-.543c.572-2.873-1.533-4.76-1.623-4.839a.455.455 0 0 1 .598-.686c.106.092 2.594 2.302 1.918 5.703a.456.456 0 0 1-.477.365m3.3-1.333-.058-.007a.455.455 0 0 1-.357-.536c.564-2.835-1.312-4.221-1.392-4.279a.456.456 0 0 1 .526-.742c.1.07 2.441 1.768 1.758 5.199a.454.454 0 0 1-.477.365m3.465-1.316-.043-.005a.455.455 0 0 1-.375-.523c.456-2.778-1.124-3.776-1.192-3.817a.457.457 0 0 1-.155-.623.45.45 0 0 1 .619-.16c.09.053 2.187 1.328 1.626 4.747a.457.457 0 0 1-.48.381"/><path fill="#1d3f70" d="M509.359 433.059a4.8 4.8 0 0 0-3.212-5.978l-12.779-3.134s.164 4.284-3.074 7.557l13.088 4.766a4.797 4.797 0 0 0 5.977-3.211"/><path fill="#e8c0a6" d="M503.024 434.61q.028-.002.058-.007a.456.456 0 0 0 .367-.529c-.518-2.883 1.622-4.731 1.714-4.808a.455.455 0 0 0-.585-.697c-.108.09-2.638 2.253-2.024 5.666.04.228.244.386.47.375m-3.277-1.394q.03-.002.059-.007a.456.456 0 0 0 .367-.529c-.511-2.845 1.39-4.196 1.471-4.252a.454.454 0 0 0-.512-.752c-.102.069-2.474 1.722-1.855 5.165a.456.456 0 0 0 .47.375m-3.44-1.38q.022 0 .044-.004a.455.455 0 0 0 .385-.516c-.405-2.786 1.194-3.754 1.262-3.794a.454.454 0 0 0-.449-.792c-.091.051-2.212 1.287-1.714 4.717a.455.455 0 0 0 .472.389"/><path fill="#163260" d="M357.622 73.57s2.958-5.736 12.003-4.057 11.197 13.15 14.273 18.368c6.518 11.055 8.483 22.808 5.114 28.461-3.742 6.277-12.029 3.837-24.128 2.73-12.911-1.181-18.335-12.377-10.327-27.795z"/><path fill="#3a72aa" d="M361.413 100.205c-3.528 5.19-5.749 30.475-5.82 32.439l-18.418-1.334c-1.217-9.252 11.026-28.25 22.215-30.515v-.003c1.259-.43 2.023-.587 2.023-.587"/><path fill="#f99370" d="m309.178 239.656 17.98-.224c-.05-2.874-.824-8.675-.258-11.955l-7.761 1.012c.218 1.576.701 4.991-1.912 5.813-3.386 1.064-7.075.743-9.185 3.353-.548.877.103 2.014 1.136 2.001"/><path fill="#1d3f70" d="M327.663 237.697a4.55 4.55 0 0 1-.524 1.738l-18.155.226c-.883.011-1.533-.85-1.251-1.687.665-1.954 2.899-4.801 11.262-5.342 0 0 3.064.483 7.735-.423 0 0 1.204 3.019.933 5.488"/><path fill="#e8c0a6" d="M313.09 237.267a.37.37 0 0 1-.34-.226c-.685-1.633-1.892-2.12-1.943-2.14-.965-1.463 1.784-.448 2.621 1.856.106.235-.083.514-.338.51m2.854-.382a.37.37 0 0 1-.351-.255c-.612-1.893-2.278-2.751-2.295-2.759-.881-1.705 2.319.091 2.995 2.533a.37.37 0 0 1-.349.481m3.248-.441a.37.37 0 0 1-.347-.243c-.711-1.966-2.311-3.021-2.327-3.031-.684-1.789 2.228.354 3.019 2.781a.37.37 0 0 1-.345.493"/><path fill="#395b96" d="m307.764 237.943 19.92-.248c-.066.609-.227 1.202-.525 1.738l-18.155.226c-.895.013-1.548-.875-1.24-1.716"/><path fill="#ce4abf" d="M366.04 170.927c-8.851-.359-24.275-5.21-30.908 6.058-7.262 12.307-5.442 38.391-4.687 50.996-9.711 3.143-14.938.022-14.938.022-4.177-25.8-17.895-84.561 27.698-76.472-.001-.002 30.568-.046 30.568-.046 5.128 10.414.569 19.255-7.733 19.442"/><path fill="#f99370" d="m330.74 239.624 17.981-.223c-.051-2.875-.825-8.676-.259-11.956l-7.76 1.014c.217 1.575.761 4.991-1.913 5.811-3.394 1.041-7.075.744-9.185 3.354-.548.876.102 2.013 1.136 2"/><path fill="#1d3f70" d="M349.246 237.665c-.066.609-.227 1.202-.525 1.738l-18.155.226c-.883.011-1.533-.85-1.251-1.686.666-1.955 2.926-4.85 11.289-5.392 0 0 3.02.605 7.69-.301 0 0 1.222 2.947.952 5.415"/><path fill="#e8c0a6" d="M334.651 237.236a.37.37 0 0 1-.34-.226c-.686-1.633-1.892-2.12-1.943-2.14-.965-1.464 1.784-.448 2.621 1.855.106.235-.082.515-.338.511m2.855-.382a.37.37 0 0 1-.351-.255c-.612-1.893-2.278-2.751-2.295-2.76-.881-1.704 2.319.092 2.995 2.534a.37.37 0 0 1-.349.481m3.247-.441a.37.37 0 0 1-.346-.243c-.711-1.966-2.311-3.021-2.327-3.031-.684-1.789 2.228.354 3.018 2.78a.37.37 0 0 1-.345.494"/><path fill="#395b96" d="m329.326 237.912 19.92-.248c-.066.609-.227 1.202-.525 1.738l-18.155.226c-.896.012-1.548-.876-1.24-1.716"/><path fill="#a523a2" d="m345.694 151.527-2.586 19.062c-11.423 4.518-12.228 16.545-13.251 30.084-5.324-20.907-4.896-42.05 15.837-49.146"/><path fill="#ce4abf" d="M380.326 172.708c-9.715 4.89-21.279-1.407-27.774 11.752-5.24 11.521-2.259 33.518-.801 43.49-9.711 3.143-14.939.022-14.939.022-5.793-22.252-19.044-73.967 18.182-76.459 10.194-.339 23.59-.269 32.599-.825 0 0 4.746 15.974-7.267 22.02"/><path fill="#23659b" d="M345.853 124.897a.306.306 0 0 1-.305-.331c.601-5.053 5.943-11.608 6.647-11.26.481.617-5.683 6.05-6.037 11.311a.306.306 0 0 1-.305.28"/><path fill="#3a72aa" d="M387.766 145.423c.798 5.637.407 8.02.407 8.02-15.011 1.889-24.477 1.99-42.762-.537 11.495-34.599-14.461-12.325 16.003-52.701l7.557.671c8.591 6.442 14.132 14.992 18.795 44.547"/><path fill="#163260" d="m313.902 153.551 40.457-.06-8.098-29.643-40.213.059z"/><path fill="#234270" d="m354.365 153.332-40.457.061.003 2.013 40.457-.06z"/><path fill="#0b274f" d="m345.652 123.848 1.448-.002 7.933 29.497 19.2-.029.002 2.014-20.547.03-.003-1.801z"/><path fill="#f99370" d="M382.282 106.599c9.337 6.976 14.337 19.549 11.89 30.992-.934 6.427-4.98 12.544-11.319 14.372-3.13 1.257-17.734 3.293-17.061-1.893.23-1.244 1.332-1.704 2.4-2.038 1.761-.623 3.574-1.312 5.252-2.078 3.005-1.565 6.869-3.033 7.518-6.41 1.383-7.885-1.859-15.588-7.757-20.725.011.006-.028-.024.059.039-7.991-5.934.979-18.118 9.018-12.259"/><path fill="#3a72aa" d="M387.936 150.548c-4.745 2.127-9.241 2.785-12.698 2.915 0 0 .79-5.16-2.941-7.28 20.978-15.991-9.027-22.664-3.301-46.124 22.519.368 45.819 34.466 18.94 50.489"/><path fill="#f99370" d="M356.885 153.34s1.793-6.303 12.551-5.593l2.26 5.571z"/><path fill="#23659b" d="M377.733 153.283c-1.538.173-2.495.178-2.495.178s.791-5.16-2.94-7.28c0 0 .916-.598 2.114-1.658 0 0 4.089 2.994 3.321 8.76"/><path fill="#23659b" d="M374.22 145.406c-.271.007-.417-.36-.201-.537 9.314-8.324 4.733-17.113-.823-22.803-.272-.279.182-.716.449-.416 5.907 5.888 10.397 15.626.575 23.756m3.312 7.907c-1.745-1.013 4.897-.516 9.945-2.911a.305.305 0 1 1 .233.565c-5.216 2.148-10.11 2.345-10.178 2.346"/><path fill="#f4d4be" d="M371.091 109.493c-.213 1.612-1.753 2.117-2.139 2.032-5.42-2.307-1.556 4.998-3.783 5.745-1.873.629-2.1-1.815-3.733-1.946-2.373-.191-2.853 1.101-3.687.317-1.161-1.091 1.644-3.004 1.281-4.96-.255-1.373-2.983.012-2.952-2.815.039-2.777 3.211-6.942 3.312-7.07v-.003c3.009-1.601 9.607-.735 9.607-.735s.871-.193 1.711.124c.416 2.257.809 6.89.383 9.311"/><path fill="#f99370" d="m361.592 97.519-.179 2.687s-.247 2.584-.24 7.388c.01 6.754 1.677 5.965 3.984 1.244 1.267-2.595 3.84-8.779 3.84-8.779l.35-4.726z"/><path fill="#e57d61" d="M370.581 89.814a4 4 0 0 1-.109.381c-.162-.131-.981 4.222-1.31 7.63-3.229 1.898-7.065 1.771-7.706 1.575.165-5.044.578-12.59 4.459-14.002 2.603-.83 5.366 1.733 4.666 4.416"/><path fill="#163260" d="M360.765 73.217c-9.759-1.156-11.284 14.249-4.645 19.906z"/><path fill="#f99370" d="M372.285 84.054c.475 3.362.512 7.307-1.362 10.21h-.004c-5.122 8.404-22.116 3.016-17.477-6.946.682-1.272 1.065-2.817 1.114-4.128.134-13.749 16.353-10.887 17.729.864"/><path fill="#0a5840" d="M359.45 85.861c-.466-.466.277-1.186.728-.707.466.466-.277 1.187-.728.707m-4.288.579c-.465-.467.277-1.187.729-.708.465.466-.277 1.187-.729.707m2.56 3.811c-.857.137-2.102-.084-1.291-1.114.762-.779.847-2.887.848-2.907.005-.247.397-.237.384.013-.003.093-.092 2.278-.958 3.163-.098.1-.2.239-.127.324.204.241 1.17.28 1.725-.108a.19.19 0 0 1 .267.048c.144.4-.549.488-.848.58"/><path fill="#e57d61" d="M372.284 84.05c.476 3.363.513 7.308-1.361 10.21l-.005.001c.864-2.175.532-6.34.532-6.34l-1.199-1.527c-12.232-.146-14.044-9.373-14.044-9.373 5.195-7.383 15.428-.722 16.077 7.03"/><path fill="#163260" d="M357.143 75.863s1.832 9.084 12.904 9.618l2.961-3.078c1.368-7.912-8.047-15.997-15.865-6.54"/><path fill="#f99370" d="M374.82 85.042c.399 3.846-4.461 4.294-4.772.44-.399-3.847 4.461-4.295 4.772-.44"/><path fill="#0a5840" d="M373.674 84.048c-.497-1.524-3.43.109-2.181.164.005-.067 1.304-.848 1.71-.173-1.28.607-1.704 2.996-.963 2.223.001-.014.154-1.375 1.161-1.89.506 3.474.957 1.062.273-.324"/><path fill="#f4d4be" d="M373.334 87.342c.174.532-.666.791-.823.255-.174-.532.666-.792.823-.255"/><path fill="#23659b" d="M361.189 119.043c.019 1.114-1.732 1.116-1.717.002-.018-1.114 1.732-1.117 1.717-.002m-1.677 6.049c.018 1.115-1.732 1.117-1.717.003-.019-1.115 1.732-1.117 1.717-.003m.008 5.446c.018 1.114-1.732 1.116-1.718.002-.018-1.114 1.733-1.117 1.718-.002"/><path fill="#a523a2" d="M330.188 223.652c.163 2.7.258 4.33.258 4.33-9.711 3.143-14.939.022-14.939.022s-.193-1.341-.615-3.677c.115.058 6.2 3.039 15.296-.675m21.564 4.3c-9.711 3.142-14.939.022-14.939.022s-.328-1.25-.882-3.409c0 0 5.361 2.779 15.308-.022.296 2.134.513 3.409.513 3.409"/><path fill="#e57d61" d="M357.473 153.276c-1.912.062 5.039-4.722 7.117-3.558a.306.306 0 0 1-.273.336c-3.915.415-6.515 3.209-6.844 3.222m2.947.104c-1.451-.617 3.053-1.684 5.283-2.291a.306.306 0 0 1 .125.598c-2.376.493-5.168 1.667-5.408 1.693"/><path fill="#0a5840" d="M361.041 84.301a.22.22 0 0 1-.134-.046c-1.222-.953-2.333-.641-2.379-.627a.217.217 0 0 1-.27-.147.216.216 0 0 1 .145-.27c.054-.017 1.364-.397 2.772.7a.217.217 0 0 1-.134.39m-2.978 7.471a.22.22 0 0 1 .121-.074c1.516-.327 1.988-1.38 2.007-1.424a.217.217 0 0 1 .4.17c-.022.053-.569 1.303-2.315 1.68a.217.217 0 0 1-.213-.352m-3.411-6.937a.217.217 0 0 1-.18-.339c.028-.042.705-1.032 1.836-.99a.218.218 0 0 1-.017.435c-.888-.027-1.452.79-1.458.798a.22.22 0 0 1-.181.096"/><path fill="#f99370" d="M621.353 263.396s.545 1.698 2.076 2.407c1.53.708 1.254-2.224 1.254-2.224z"/><path fill="#9358e0" d="M675.253 276.284c-9.563 8.358-23.881 11.063-34.559 3.026v-.011c-3.177-2.3-6.394-6.053-8.637-9.938l2.589-4.202c20.801 12.681 28.895-9.188 45.748-10.975l-3.349 4.944s-1.5 16.813-1.792 17.156"/><path fill="#f99370" d="m695.107 421.91.316-.166c.001.221.279.989.5.988l9.357.144c.222-.002.356-.419.355-.641l.796-.232c-.007-1.401-.125-1.909-.75-2.99-2.29-3.011.355-16.546.258-20.078.556-.968-9.853-.156-10-.384a.4.4 0 0 0-.397.436l1.306 15.442c.565 2.931-1.677 4.716-1.741 7.481m-40.549 1.558 18.636-.097c1.626-.074 1.605-1.733 1.299-3.018-1.051-4.632.708-15.291 1.019-20.062a1.48 1.48 0 0 0-1.482-1.625l-8.225.043a1.48 1.48 0 0 0-1.461 1.673l1.558 11.919c.839 5.178-5.336 6.198-8.857 6.789-2.319.18-6.182 3.366-2.487 4.378"/><path fill="#103663" d="M675.208 421.428c-.046.914-.493 1.959-1.552 1.942l-19.331.101c-4.568-1.668 2.009-7.832 10.934-7.842 4.097 1.101 8.91.034 8.91.034.837.594 1.099 2.575 1.039 5.765m29.747 1.777-8.262.043c-4.029-.528-1.194-7.657 4.09-7.738 5.311-.081 8.193 7.132 4.172 7.695"/><path fill="#e8c0a6" d="M658.92 420.829a.413.413 0 0 0 .378-.567c-.893-2.17-2.543-2.831-2.613-2.859-.493-.199-.797.579-.299.766.065.026 1.402.582 2.152 2.405a.41.41 0 0 0 .382.255m3.19-.401a.413.413 0 0 0 .39-.535c-.735-2.731-4.291-4.763-3.324-2.853.032.017 1.879 1.001 2.541 3.1a.41.41 0 0 0 .393.288m3.63-.465a.412.412 0 0 0 .385-.548c-.864-2.716-4.097-5.133-3.349-3.129.018.011 1.796 1.203 2.575 3.403a.41.41 0 0 0 .389.274m38.019-2.012c.401.013.567-.573.204-.766-2.78-1.607-6.231-.054-6.376.013-.485.216-.139.977.343.747.032-.103 3.512-1.372 5.829.006"/><path fill="#0f2e54" d="m652.963 421.544 22.245-.116a5.5 5.5 0 0 1-.361 1.444.8.8 0 0 1-.734.495l-19.788.103c-.999.007-1.712-.991-1.362-1.926m51.992 1.661-8.262.043a1.83 1.83 0 0 1-1.842-1.924l11.926-.062a1.83 1.83 0 0 1-1.822 1.943"/><path fill="#662948" d="M676.14 233.956s-1.078-5.944 4.135-7.89l3.307 2.465z"/><path fill="#1d3f70" d="M707.314 412.651s-8.8 2.186-13.352-.09c-2.44-14.805-9.214-56.028-11.646-84.289-.079 1.649-4.532 68.161-5.361 84.378-3.128 1.065-9.424 2.363-12.964-.159-1.673-17.059-7.054-73.223.37-119.155 0 0 21.011 2.226 37.385-2.815 4.59 14.534 6.255 104.657 5.568 122.13"/><path fill="#163356" d="M667.373 411.056c-2.409-49.039 2.312-91.25 1.568-91.749-1.295.111-6.04 42.699-1.568 91.749m32.998-.171c-1.118-50.398-8.857-98.1-9.989-98.276-.844.639 6.764 47.792 9.989 98.276"/><path fill="#f99370" d="M680.241 254.017c-.48-3.994.116-9.762.661-12.137.98-4.684 8.408-2.912 7.199 1.693-.239-.149-.961 8.333-.42 10.683 6.973 2.053-13.931 9.03-7.44-.239"/><path fill="#e57d61" d="M688.17 243.189q-.026.195-.069.386c-.173-.113-.631 4.567-.618 7.962-3.182 1.467-6.732.851-7.384.721-.185-4.323.272-8.223.891-10.687 1.272-4.17 7.818-2.687 7.18 1.618"/><path fill="#f99370" d="M692.698 239.907c-.522 3.326-1.629 7.077-4.246 9.286h-.004c-1.064.89-2.344 1.449-3.716 1.726-7.579 2.323-16.954-6.971-10.844-13.371 1.015-1.009 1.825-2.363 2.251-3.591 4.241-13.007 18.534-5.703 16.559 5.95"/><path fill="#f9f8f3" d="m676.724 243.818 4.35-2.244c.453 2.596-2.409 4.356-4.35 2.244"/><path fill="#7640cc" d="m666.699 270.99-3.172 11.883c-6.916 2.165-15.194 1.696-20.897-2.245 7.183 4.008 17.072 1.677 18.612-.707 1.621-2.525 5.235-8.565 5.457-8.931"/><path fill="#0a5840" d="M680.006 237.906c-.306-.576.606-1.044.896-.459.306.577-.606 1.045-.896.459m-4.232-.693c-.307-.576.606-1.045.895-.459.307.576-.606 1.044-.895.459"/><path fill="#e57d61" d="M692.698 239.906c-.522 3.326-1.629 7.077-4.246 9.286h-.004a7 7 0 0 1-.681.505c1.99-1.991 3.131-6.249 3.131-6.249l-.485-3.6c-3.237-3.255-1.864-6.936-1.864-6.936-5.387 1.535-7.217-1.786-7.217-1.786-1.704.227-3.501-.626-3.501-.626 6.306-8.817 16.774.569 14.867 9.406"/><path fill="#0a5840" d="M676.755 244.007c.084-.135 4.784-2.197 4.488-2.519.019-.474-4.502 2.212-4.606 2.161-.191.092-.087.399.118.358m.961-2.45c.339.047.54-.449.115-.418-.64.233-2.195-.209-1.453-.667 1.078-.578 2.429-3.485 1.464-2.845-.007.019-.698 1.993-1.646 2.511-1.266.91.566 1.578 1.52 1.419"/><path fill="#9358e0" d="M661.41 313.079c1.555.823 11.138 3.833 19.312 3.708 6.266-.096 14.118-2.011 19.146-3.563 2.948-.907 4.926-1.692 5.049-1.911 2.711-4.85-3.592-22.208-8.636-35.89-2.862-7.762-5.318-14.339-5.495-16.78.17-1.47-2.657-4.2-3.105-4.386-8.845 5.722-7.496-.016-7.445-.236 0 0-7.997 3.572-11.509 9.385-5.259 8.702-12.246 47.063-7.317 49.673"/><path fill="#662948" d="M674.266 225.54s2.45-1.13 5.252-.53c.137-1.048.6-2.07 1.479-2.964.629 1.142 1.43 2.206 2.304 3.177-.138-2.32.963-4.401.963-4.401.736 2.123 4.014 3.197 5.828 5.327 0 0 8.508 1.434 3.924 9.451.195 2.655-.646 5.512-.646 5.512-4.863-3.164-4.717-7.953-2.995-9.476-3.244 1.789-6.551.847-8.66-1.154-2.632-.003-5.994-.881-7.449-4.942"/><path fill="#f99370" d="M694.817 241.578c-.736 3.763-5.473 2.781-4.653-.964.736-3.762 5.473-2.78 4.653.964"/><path fill="#0a5840" d="M693.651 242.36c.674-.987.437-2.418.001-2.755-.791-.583-2.06-.289-1.996.114.24.379 1-.43 1.739.168.759.417-.304 2.343.256 2.473"/><path fill="#0a5840" d="M691.873 242.102c.283-.068.535-1.446 1.968-1.595a.19.19 0 0 0 .177-.203c-1.08-.785-2.98 1.954-2.145 1.798"/><path fill="#163356" d="M676.955 412.649c.007-.013-1.136.428-2.717.738 0 0 4.084-66.003 4.697-74.811s3.38-10.305 3.38-10.305-5.441 82.954-5.36 84.378"/><path fill="#7640cc" d="M696.547 291.223c4.556 7.332 4.717 15.947 3.32 22 2.948-.908 4.927-1.693 5.049-1.912 2.711-4.85-3.592-22.207-8.636-35.89l-7.647-3.052s2.392 9.964 7.914 18.854"/><path fill="#163356" d="M677.113 409.449c-.109 1.904-.168 3.043-.158 3.2-3.129 1.065-9.425 2.363-12.965-.159 0 0-.095-1.045-.288-2.971 0 0 6.17 2.809 13.411-.07m30.201 3.201s-8.801 2.186-13.352-.09c0 0-.194-1.146-.532-3.196 0 0 6.216 1.707 13.973-.073.045 2-.118 3.193-.089 3.359"/><path fill="#9358e0" d="M690.412 254.729c20.991 3.824 33.05 34.36 23.103 54.05-1.481 2.932-4.532 7.522-7.854 10.536l-4.699-1.632c7.997-23.013-10.091-29.405-15.649-56.495z"/><path fill="#7640cc" d="M701.754 315.161c2.644-.574 5.555 2.513 5.555 2.513-.519.537-1.078 1.117-1.648 1.641l-4.699-1.632c.255-.864.536-1.82.792-2.522"/><path fill="#f99370" d="M694.361 323.073c.854.845 2.448-1.206 3.538-1.319-.383 1.802-1.29 3.506-1.285 3.517a69 69 0 0 1-4.521 5.131c-.714 3.329 5.067-2.982 5.829-3.53l.028.019c-1.062 2.14-2.244 4.225-3.593 6.197.044 3.557 4.778-4.684 5.384-5.472l.017.003a30 30 0 0 1-2.722 6.26c.363 3.578 4.528-5.16 4.866-6.103l.027-.001c.131 1.519-1.924 5.161-1.048 5.989 1.701.592 4.793-10.805 4.781-14.451-.003-.877-3.484-2.381-4.694-1.628-1.044.65-2.349 1.668-2.812 2.06-1.119.705-4.019 1.859-3.795 3.328"/><path fill="#0a5840" d="M682.513 237.042a.242.242 0 0 0 .169-.364c-.035-.059-.884-1.435-2.593-1.599a.24.24 0 0 0-.264.219.24.24 0 0 0 .218.264c1.46.14 2.216 1.354 2.223 1.367a.24.24 0 0 0 .247.113m-6.589-1.44a.24.24 0 0 0 .118-.055c.654-.56 1.617-.263 1.626-.26a.242.242 0 0 0 .15-.461c-.05-.016-1.229-.387-2.091.353a.24.24 0 0 0-.026.341.24.24 0 0 0 .223.082"/><path fill="#ffd2d2" d="M690.413 254.73c.065 3.385-8.603 6.419-9.096 6.425l-1.057-3.074c-1.335.336-2.502 2.214-2.502 2.214-3.871-3.65-.265-6.869 2.481-6.277l-.002.004c-.053.219-.632 5.245 7.41.061 1.037-.486 2.766.647 2.766.647"/><path fill="#7640cc" d="M637.868 266.902c.003 2.705-4.088 5.224-4.088 5.224-.416-.622-1.432-2.152-1.723-2.764l2.589-4.202c.79.431 2.48 1.382 3.222 1.742"/><path fill="#f99370" d="M634.501 263.659c-.601-.913-1.353-1.871-2.136-3.007l-7.21 6.546 7.476 3.118s2.592-1.161 3.262-4.431c0 0-1.125-1.821-1.392-2.226"/><path fill="#163356" d="m629.754 252.921-8.9-.003 3.317 16.597 8.9.004z"/><path fill="#e9edf4" d="m629.249 253.858-7.288-.003 2.716 13.59 7.287.003z"/><path fill="#2e619e" d="m623.429 270.318.742-.803-3.317-16.597-.742.802zm8.9.003.742-.802-8.9-.003-.742.802z"/><path fill="#f99370" d="M623.18 264.212c-2.607.257-2.409-2.726.079-1.603l-.045.003c1.411-.119 1.289 1.517-.034 1.6"/><path fill="#f99370" d="M622.625 262.757c-2.966-.197-1.498-3.233.295-1.653-.048-.024.233.072.186.051 1.408.135.75 1.749-.481 1.602"/><path fill="#f99370" d="m621.988 261.25-.904-.328c-1.242-.499.08-1.916 1.099-1.472l.904.328c1.241.499-.081 1.916-1.099 1.472"/><path fill="#f99370" d="m621.67 259.854-.904-.328c-1.242-.499.08-1.916 1.099-1.472l.904.328c1.241.499-.081 1.916-1.099 1.472m10.818 6.032s2.075-4.489-2.141-7.465c-2.267-1.6-2.542.449-1.123 1.563 1.42 1.114 2.689 4.684 2.689 4.684z"/></svg>