<svg width="607" height="840" viewBox="0 0 607 840" fill="none" xmlns="http://www.w3.org/2000/svg">
<rect width="607" height="840" fill="white"/>
<path d="M191.523 505.182V527H188.007L177.727 512.138H177.546V527H173.593V505.182H177.13L187.4 520.054H187.592V505.182H191.523ZM202.797 527.32C201.199 527.32 199.814 526.968 198.642 526.265C197.47 525.562 196.561 524.578 195.915 523.314C195.276 522.05 194.956 520.572 194.956 518.882C194.956 517.192 195.276 515.711 195.915 514.44C196.561 513.168 197.47 512.181 198.642 511.478C199.814 510.775 201.199 510.423 202.797 510.423C204.395 510.423 205.78 510.775 206.952 511.478C208.124 512.181 209.029 513.168 209.669 514.44C210.315 515.711 210.638 517.192 210.638 518.882C210.638 520.572 210.315 522.05 209.669 523.314C209.029 524.578 208.124 525.562 206.952 526.265C205.78 526.968 204.395 527.32 202.797 527.32ZM202.818 524.23C203.685 524.23 204.409 523.992 204.992 523.516C205.574 523.033 206.007 522.387 206.291 521.577C206.583 520.768 206.728 519.866 206.728 518.871C206.728 517.87 206.583 516.964 206.291 516.155C206.007 515.338 205.574 514.688 204.992 514.205C204.409 513.722 203.685 513.481 202.818 513.481C201.931 513.481 201.192 513.722 200.602 514.205C200.02 514.688 199.583 515.338 199.292 516.155C199.008 516.964 198.866 517.87 198.866 518.871C198.866 519.866 199.008 520.768 199.292 521.577C199.583 522.387 200.02 523.033 200.602 523.516C201.192 523.992 201.931 524.23 202.818 524.23ZM221.353 527V510.636H225.209V527H221.353ZM223.292 508.314C222.681 508.314 222.155 508.112 221.715 507.707C221.275 507.295 221.054 506.801 221.054 506.226C221.054 505.643 221.275 505.15 221.715 504.745C222.155 504.333 222.681 504.127 223.292 504.127C223.909 504.127 224.435 504.333 224.868 504.745C225.309 505.15 225.529 505.643 225.529 506.226C225.529 506.801 225.309 507.295 224.868 507.707C224.435 508.112 223.909 508.314 223.292 508.314ZM229.175 527V510.636H232.861V513.417H233.053C233.394 512.479 233.958 511.748 234.747 511.222C235.535 510.69 236.476 510.423 237.57 510.423C238.678 510.423 239.612 510.693 240.372 511.233C241.139 511.766 241.678 512.494 241.991 513.417H242.161C242.524 512.508 243.134 511.783 243.994 511.244C244.86 510.697 245.887 510.423 247.073 510.423C248.578 510.423 249.807 510.899 250.759 511.851C251.71 512.803 252.186 514.191 252.186 516.016V527H248.319V516.613C248.319 515.597 248.049 514.855 247.509 514.386C246.97 513.911 246.309 513.673 245.528 513.673C244.597 513.673 243.869 513.964 243.344 514.546C242.825 515.121 242.566 515.871 242.566 516.794V527H238.784V516.453C238.784 515.608 238.529 514.933 238.017 514.429C237.513 513.925 236.852 513.673 236.036 513.673C235.482 513.673 234.977 513.815 234.523 514.099C234.068 514.376 233.706 514.77 233.436 515.281C233.166 515.786 233.031 516.375 233.031 517.05V527H229.175ZM260.808 527.33C259.771 527.33 258.837 527.146 258.006 526.776C257.182 526.4 256.528 525.846 256.045 525.114C255.57 524.383 255.332 523.481 255.332 522.408C255.332 521.485 255.502 520.722 255.843 520.118C256.184 519.514 256.649 519.031 257.239 518.669C257.828 518.307 258.492 518.033 259.231 517.849C259.977 517.657 260.747 517.518 261.543 517.433C262.501 517.334 263.279 517.245 263.876 517.167C264.472 517.082 264.906 516.954 265.175 516.783C265.452 516.606 265.591 516.332 265.591 515.963V515.899C265.591 515.097 265.353 514.475 264.877 514.035C264.401 513.594 263.716 513.374 262.821 513.374C261.876 513.374 261.127 513.58 260.573 513.992C260.026 514.404 259.657 514.891 259.465 515.452L255.864 514.94C256.148 513.946 256.617 513.115 257.271 512.447C257.924 511.773 258.723 511.268 259.668 510.935C260.612 510.594 261.656 510.423 262.8 510.423C263.588 510.423 264.373 510.516 265.154 510.7C265.935 510.885 266.649 511.19 267.295 511.616C267.942 512.036 268.46 512.607 268.851 513.332C269.249 514.056 269.447 514.962 269.447 516.048V527H265.74V524.752H265.612C265.378 525.207 265.048 525.633 264.621 526.031C264.202 526.421 263.673 526.737 263.034 526.979C262.402 527.213 261.66 527.33 260.808 527.33ZM261.809 524.496C262.583 524.496 263.254 524.344 263.822 524.038C264.391 523.726 264.827 523.314 265.133 522.803C265.445 522.291 265.602 521.734 265.602 521.13V519.202C265.481 519.301 265.275 519.393 264.984 519.479C264.7 519.564 264.38 519.638 264.025 519.702C263.67 519.766 263.318 519.823 262.97 519.873C262.622 519.923 262.32 519.965 262.065 520.001C261.489 520.079 260.974 520.207 260.52 520.384C260.065 520.562 259.707 520.81 259.444 521.13C259.181 521.442 259.05 521.847 259.05 522.344C259.05 523.055 259.309 523.591 259.827 523.953C260.346 524.315 261.006 524.496 261.809 524.496ZM280.442 533.477C279.057 533.477 277.867 533.289 276.873 532.913C275.879 532.543 275.08 532.046 274.476 531.421C273.872 530.796 273.453 530.104 273.219 529.344L276.692 528.502C276.848 528.822 277.075 529.138 277.374 529.45C277.672 529.77 278.073 530.033 278.577 530.239C279.089 530.452 279.732 530.558 280.506 530.558C281.599 530.558 282.505 530.292 283.222 529.759C283.94 529.234 284.298 528.367 284.298 527.16V524.06H284.107C283.908 524.457 283.616 524.866 283.233 525.285C282.857 525.704 282.356 526.055 281.731 526.339C281.113 526.624 280.335 526.766 279.398 526.766C278.141 526.766 277.001 526.471 275.978 525.881C274.962 525.285 274.153 524.397 273.549 523.218C272.952 522.032 272.654 520.548 272.654 518.765C272.654 516.968 272.952 515.452 273.549 514.216C274.153 512.973 274.966 512.032 275.989 511.393C277.011 510.746 278.151 510.423 279.408 510.423C280.367 510.423 281.156 510.587 281.773 510.913C282.398 511.233 282.896 511.62 283.265 512.075C283.634 512.522 283.915 512.945 284.107 513.342H284.32V510.636H288.123V527.266C288.123 528.665 287.789 529.823 287.121 530.739C286.454 531.656 285.541 532.341 284.384 532.795C283.226 533.25 281.912 533.477 280.442 533.477ZM280.474 523.74C281.29 523.74 281.987 523.541 282.562 523.143C283.137 522.746 283.574 522.174 283.872 521.428C284.17 520.683 284.32 519.788 284.32 518.744C284.32 517.714 284.17 516.812 283.872 516.038C283.581 515.263 283.148 514.663 282.572 514.237C282.004 513.804 281.305 513.587 280.474 513.587C279.614 513.587 278.897 513.811 278.322 514.259C277.746 514.706 277.313 515.32 277.022 516.102C276.731 516.876 276.585 517.756 276.585 518.744C276.585 519.745 276.731 520.622 277.022 521.375C277.32 522.121 277.757 522.703 278.332 523.122C278.915 523.534 279.629 523.74 280.474 523.74ZM299.32 527.32C297.679 527.32 296.262 526.979 295.069 526.297C293.883 525.608 292.97 524.635 292.331 523.378C291.692 522.114 291.372 520.626 291.372 518.914C291.372 517.231 291.692 515.754 292.331 514.482C292.977 513.204 293.879 512.21 295.037 511.499C296.195 510.782 297.555 510.423 299.117 510.423C300.126 510.423 301.077 510.587 301.972 510.913C302.874 511.233 303.67 511.73 304.359 512.405C305.055 513.08 305.602 513.939 305.999 514.983C306.397 516.02 306.596 517.256 306.596 518.69V519.873H293.183V517.273H302.899C302.892 516.535 302.732 515.878 302.42 515.303C302.107 514.72 301.67 514.262 301.109 513.928C300.555 513.594 299.909 513.428 299.17 513.428C298.382 513.428 297.69 513.619 297.093 514.003C296.496 514.379 296.031 514.876 295.697 515.494C295.371 516.105 295.204 516.776 295.197 517.508V519.777C295.197 520.729 295.371 521.545 295.719 522.227C296.067 522.902 296.553 523.42 297.178 523.783C297.803 524.138 298.535 524.315 299.373 524.315C299.934 524.315 300.442 524.237 300.896 524.081C301.351 523.918 301.745 523.68 302.079 523.367C302.413 523.055 302.665 522.668 302.835 522.206L306.436 522.611C306.209 523.562 305.776 524.393 305.136 525.104C304.504 525.807 303.695 526.354 302.707 526.744C301.72 527.128 300.591 527.32 299.32 527.32ZM320.272 527H316.053L323.735 505.182H328.614L336.306 527H332.087L326.259 509.656H326.089L320.272 527ZM320.411 518.445H331.916V521.62H320.411V518.445ZM351.575 510.636L345.747 527H341.486L335.658 510.636H339.771L343.531 522.792H343.702L347.473 510.636H351.575ZM358.483 527.33C357.446 527.33 356.512 527.146 355.681 526.776C354.858 526.4 354.204 525.846 353.721 525.114C353.245 524.383 353.007 523.481 353.007 522.408C353.007 521.485 353.178 520.722 353.519 520.118C353.86 519.514 354.325 519.031 354.914 518.669C355.504 518.307 356.168 518.033 356.907 517.849C357.652 517.657 358.423 517.518 359.218 517.433C360.177 517.334 360.955 517.245 361.551 517.167C362.148 517.082 362.581 516.954 362.851 516.783C363.128 516.606 363.267 516.332 363.267 515.963V515.899C363.267 515.097 363.029 514.475 362.553 514.035C362.077 513.594 361.392 513.374 360.497 513.374C359.552 513.374 358.803 513.58 358.249 513.992C357.702 514.404 357.333 514.891 357.141 515.452L353.54 514.94C353.824 513.946 354.293 513.115 354.946 512.447C355.6 511.773 356.399 511.268 357.343 510.935C358.288 510.594 359.332 510.423 360.475 510.423C361.264 510.423 362.049 510.516 362.83 510.7C363.611 510.885 364.325 511.19 364.971 511.616C365.618 512.036 366.136 512.607 366.527 513.332C366.924 514.056 367.123 514.962 367.123 516.048V527H363.416V524.752H363.288C363.054 525.207 362.723 525.633 362.297 526.031C361.878 526.421 361.349 526.737 360.71 526.979C360.078 527.213 359.336 527.33 358.483 527.33ZM359.485 524.496C360.259 524.496 360.93 524.344 361.498 524.038C362.066 523.726 362.503 523.314 362.809 522.803C363.121 522.291 363.277 521.734 363.277 521.13V519.202C363.157 519.301 362.951 519.393 362.659 519.479C362.375 519.564 362.056 519.638 361.701 519.702C361.346 519.766 360.994 519.823 360.646 519.873C360.298 519.923 359.996 519.965 359.74 520.001C359.165 520.079 358.65 520.207 358.196 520.384C357.741 520.562 357.382 520.81 357.12 521.13C356.857 521.442 356.725 521.847 356.725 522.344C356.725 523.055 356.985 523.591 357.503 523.953C358.022 524.315 358.682 524.496 359.485 524.496ZM371.001 527V510.636H374.858V527H371.001ZM372.94 508.314C372.329 508.314 371.804 508.112 371.363 507.707C370.923 507.295 370.703 506.801 370.703 506.226C370.703 505.643 370.923 505.15 371.363 504.745C371.804 504.333 372.329 504.127 372.94 504.127C373.558 504.127 374.083 504.333 374.517 504.745C374.957 505.15 375.177 505.643 375.177 506.226C375.177 506.801 374.957 507.295 374.517 507.707C374.083 508.112 373.558 508.314 372.94 508.314ZM382.68 505.182V527H378.823V505.182H382.68ZM391.354 527.33C390.317 527.33 389.384 527.146 388.553 526.776C387.729 526.4 387.075 525.846 386.592 525.114C386.116 524.383 385.879 523.481 385.879 522.408C385.879 521.485 386.049 520.722 386.39 520.118C386.731 519.514 387.196 519.031 387.786 518.669C388.375 518.307 389.039 518.033 389.778 517.849C390.523 517.657 391.294 517.518 392.089 517.433C393.048 517.334 393.826 517.245 394.423 517.167C395.019 517.082 395.452 516.954 395.722 516.783C395.999 516.606 396.138 516.332 396.138 515.963V515.899C396.138 515.097 395.9 514.475 395.424 514.035C394.948 513.594 394.263 513.374 393.368 513.374C392.423 513.374 391.674 513.58 391.12 513.992C390.573 514.404 390.204 514.891 390.012 515.452L386.411 514.94C386.695 513.946 387.164 513.115 387.817 512.447C388.471 511.773 389.27 511.268 390.214 510.935C391.159 510.594 392.203 510.423 393.347 510.423C394.135 510.423 394.92 510.516 395.701 510.7C396.482 510.885 397.196 511.19 397.842 511.616C398.489 512.036 399.007 512.607 399.398 513.332C399.795 514.056 399.994 514.962 399.994 516.048V527H396.287V524.752H396.159C395.925 525.207 395.594 525.633 395.168 526.031C394.749 526.421 394.22 526.737 393.581 526.979C392.949 527.213 392.207 527.33 391.354 527.33ZM392.356 524.496C393.13 524.496 393.801 524.344 394.369 524.038C394.938 523.726 395.374 523.314 395.68 522.803C395.992 522.291 396.148 521.734 396.148 521.13V519.202C396.028 519.301 395.822 519.393 395.531 519.479C395.246 519.564 394.927 519.638 394.572 519.702C394.217 519.766 393.865 519.823 393.517 519.873C393.169 519.923 392.867 519.965 392.612 520.001C392.036 520.079 391.521 520.207 391.067 520.384C390.612 520.562 390.254 520.81 389.991 521.13C389.728 521.442 389.597 521.847 389.597 522.344C389.597 523.055 389.856 523.591 390.374 523.953C390.893 524.315 391.553 524.496 392.356 524.496ZM404.043 527V505.182H407.899V513.342H408.059C408.258 512.945 408.538 512.522 408.901 512.075C409.263 511.62 409.753 511.233 410.371 510.913C410.989 510.587 411.777 510.423 412.736 510.423C414 510.423 415.14 510.746 416.156 511.393C417.178 512.032 417.988 512.98 418.585 514.237C419.188 515.487 419.49 517.021 419.49 518.839C419.49 520.636 419.195 522.163 418.606 523.42C418.016 524.678 417.214 525.636 416.198 526.297C415.183 526.957 414.032 527.288 412.746 527.288C411.809 527.288 411.031 527.131 410.413 526.819C409.795 526.506 409.298 526.13 408.922 525.69C408.553 525.242 408.265 524.82 408.059 524.422H407.835V527H404.043ZM407.825 518.818C407.825 519.876 407.974 520.803 408.272 521.599C408.577 522.394 409.014 523.016 409.582 523.463C410.158 523.903 410.854 524.124 411.67 524.124C412.523 524.124 413.237 523.896 413.812 523.442C414.387 522.98 414.82 522.352 415.112 521.556C415.41 520.754 415.559 519.841 415.559 518.818C415.559 517.803 415.413 516.901 415.122 516.112C414.831 515.324 414.398 514.706 413.822 514.259C413.247 513.811 412.53 513.587 411.67 513.587C410.847 513.587 410.147 513.804 409.572 514.237C408.996 514.67 408.56 515.278 408.261 516.059C407.97 516.84 407.825 517.76 407.825 518.818ZM426.625 505.182V527H422.769V505.182H426.625ZM437.835 527.32C436.195 527.32 434.778 526.979 433.585 526.297C432.398 525.608 431.486 524.635 430.847 523.378C430.207 522.114 429.888 520.626 429.888 518.914C429.888 517.231 430.207 515.754 430.847 514.482C431.493 513.204 432.395 512.21 433.553 511.499C434.71 510.782 436.07 510.423 437.633 510.423C438.641 510.423 439.593 510.587 440.488 510.913C441.39 511.233 442.185 511.73 442.874 512.405C443.57 513.08 444.117 513.939 444.515 514.983C444.913 516.02 445.112 517.256 445.112 518.69V519.873H431.699V517.273H441.415C441.408 516.535 441.248 515.878 440.935 515.303C440.623 514.72 440.186 514.262 439.625 513.928C439.071 513.594 438.425 513.428 437.686 513.428C436.898 513.428 436.205 513.619 435.609 514.003C435.012 514.379 434.547 514.876 434.213 515.494C433.886 516.105 433.719 516.776 433.712 517.508V519.777C433.712 520.729 433.886 521.545 434.234 522.227C434.582 522.902 435.069 523.42 435.694 523.783C436.319 524.138 437.05 524.315 437.888 524.315C438.45 524.315 438.957 524.237 439.412 524.081C439.866 523.918 440.261 523.68 440.594 523.367C440.928 523.055 441.18 522.668 441.351 522.206L444.952 522.611C444.724 523.562 444.291 524.393 443.652 525.104C443.02 525.807 442.21 526.354 441.223 526.744C440.236 527.128 439.107 527.32 437.835 527.32Z" fill="#514C4C"/>
<g clip-path="url(#clip0_1573_1614)">
<path d="M269.212 320.666L260.879 312.333H387.312V438.766L378.979 430.433V424.683L353.012 398.708L349.72 401.175L343.77 395.225L350.887 389.891C351.693 389.286 352.69 388.992 353.696 389.062C354.701 389.133 355.648 389.563 356.362 390.275L378.979 412.891V320.666H269.212ZM228.979 445.666V441.341L253.537 416.783C255.286 417.67 257.218 418.135 259.179 418.141C260.723 418.142 262.253 417.837 263.679 417.244C265.105 416.65 266.399 415.78 267.487 414.683L291.787 390.383L285.904 384.491L261.604 408.791C261.21 409.143 260.749 409.412 260.25 409.583C259.75 409.753 259.221 409.822 258.694 409.785C258.167 409.747 257.653 409.605 257.183 409.366C256.712 409.126 256.294 408.795 255.954 408.391C255.163 407.631 254.105 407.212 253.008 407.223C251.912 407.234 250.863 407.674 250.087 408.45L228.979 429.558V327.566L220.645 319.233V454H355.412L347.079 445.666H228.979ZM345.645 349.833C345.645 352.305 344.912 354.722 343.539 356.778C342.165 358.833 340.213 360.435 337.929 361.381C335.645 362.328 333.131 362.575 330.707 362.093C328.282 361.61 326.055 360.42 324.306 358.672C322.558 356.924 321.368 354.696 320.885 352.272C320.403 349.847 320.651 347.333 321.597 345.049C322.543 342.765 324.145 340.813 326.201 339.44C328.256 338.066 330.673 337.333 333.145 337.333C336.46 337.333 339.64 338.65 341.984 340.994C344.328 343.338 345.645 346.518 345.645 349.833ZM337.312 349.833C337.312 349.009 337.068 348.203 336.61 347.518C336.152 346.833 335.501 346.299 334.74 345.983C333.978 345.668 333.141 345.586 332.332 345.746C331.524 345.907 330.782 346.304 330.199 346.887C329.616 347.469 329.219 348.212 329.059 349.02C328.898 349.828 328.98 350.666 329.296 351.427C329.611 352.189 330.145 352.84 330.83 353.297C331.516 353.755 332.321 354 333.145 354C334.25 354 335.31 353.561 336.092 352.779C336.873 351.998 337.312 350.938 337.312 349.833ZM384.362 465.283L390.254 459.391L223.587 292.725L217.695 298.616L384.362 465.283Z" fill="#514C4C"/>
</g>
<defs>
<clipPath id="clip0_1573_1614">
<rect width="200" height="200" fill="white" transform="translate(204 279)"/>
</clipPath>
</defs>
</svg>
