<svg width="600" height="343" viewBox="0 0 600 343" fill="none" xmlns="http://www.w3.org/2000/svg">
<path d="M362.298 57.0958C361.937 60.0781 361.792 63.0486 361.888 65.9579C362.252 76.9973 367.358 90.1718 377.722 95.5303C390.636 102.208 406.861 95.2747 420.422 99.6923C441.426 106.535 458.888 134.32 482.75 119.042C500.344 107.777 506.725 80.7902 502.996 61.3698C496.446 27.2543 465.535 1.33866 430.958 0.0566015C408.778 -0.765697 386.915 7.35002 374.143 25.8198C367.993 34.7142 363.642 45.9868 362.298 57.0958Z" fill="#F4F7FD"/>
<path d="M31.4439 342.15H561.007H561.861C578.048 305.254 584.482 264.13 579.206 224.186C576.486 203.595 570.384 182.524 556.132 167.415C547.099 157.838 535.301 151.238 523.016 146.505C492.88 134.893 458.724 134.038 428.045 144.129C407.878 150.763 387.572 162.12 366.759 157.935C357.691 156.111 349.462 151.417 341.822 146.202C300.987 118.329 269.727 72.7067 221.413 62.206C190.168 55.4151 156.869 65.4603 130.86 84.0598C104.852 102.659 85.3904 129.097 69.7416 156.98C38.1385 213.292 22.0726 278.26 31.4439 342.15Z" fill="#F4F7FD"/>
<mask id="mask0_4291_20397" style="mask-type:luminance" maskUnits="userSpaceOnUse" x="28" y="60" width="554" height="283">
<path d="M31.4439 342.15H561.007H561.861C578.048 305.254 584.482 264.13 579.206 224.186C576.486 203.595 570.384 182.524 556.132 167.415C547.099 157.838 535.301 151.238 523.016 146.505C492.88 134.893 458.724 134.038 428.045 144.129C407.878 150.763 387.572 162.12 366.759 157.935C357.691 156.111 349.462 151.417 341.822 146.202C300.987 118.329 269.727 72.7067 221.413 62.206C190.168 55.4151 156.869 65.4603 130.86 84.0598C104.852 102.659 85.3904 129.097 69.7416 156.98C38.1385 213.292 22.0726 278.26 31.4439 342.15Z" fill="white"/>
</mask>
<g mask="url(#mask0_4291_20397)">
<path opacity="0.1" d="M477.338 194.01C450.568 210.571 428.501 233.559 406.283 255.858C392.568 269.623 378.063 283.615 359.754 290.122C346.168 294.951 331.411 295.292 317.013 294.528C292.072 293.204 267.301 288.71 243.485 281.186C214.424 272.007 186.862 258.37 157.491 250.241C114.184 238.255 67.4996 238.748 24.4555 251.645C23.1194 285.482 21.5861 319.397 20.25 353.234C57.9198 356.133 95.7269 352.166 133.44 349.899C267.553 341.835 401.78 355.243 535.947 350.587C553.44 349.98 571.367 349.868 588.749 347.707C589.368 344.809 589.072 341.435 589.153 338.462C589.245 335.108 589.312 331.754 589.355 328.399C589.441 321.69 589.431 314.98 589.325 308.271C589.113 294.854 588.517 281.442 587.537 268.058C585.911 245.842 583.23 223.702 579.499 201.741C578.478 195.727 577.328 189.677 575.164 183.953C573.783 180.299 572.018 175.453 567.919 174.131C564.273 172.954 559.635 173.318 555.841 172.946C549.963 172.369 544.035 172.35 538.149 172.819C516.529 174.542 495.679 182.664 477.338 194.01Z" fill="#0A5840" fill-opacity="0.6"/>
</g>
<path d="M380.719 200.663H135.882C133.229 200.663 131.078 198.513 131.078 195.859V33.7337C131.078 31.0804 133.229 28.9297 135.882 28.9297H380.719C383.372 28.9297 385.523 31.0804 385.523 33.7337V195.859C385.523 198.513 383.372 200.663 380.719 200.663Z" fill="#CCE6FF"/>
<mask id="mask1_4291_20397" style="mask-type:luminance" maskUnits="userSpaceOnUse" x="131" y="28" width="255" height="173">
<path d="M380.719 200.663H135.882C133.229 200.663 131.078 198.513 131.078 195.859V33.7337C131.078 31.0804 133.229 28.9297 135.882 28.9297H380.719C383.372 28.9297 385.523 31.0804 385.523 33.7337V195.859C385.523 198.513 383.372 200.663 380.719 200.663Z" fill="white"/>
</mask>
<g mask="url(#mask1_4291_20397)">
<path d="M397.051 19.168H118.555V47.6766H397.051V19.168Z" fill="#0A5840"/>
</g>
<path d="M144.543 42.578C146.465 42.578 148.023 41.0198 148.023 39.0976C148.023 37.1754 146.465 35.6172 144.543 35.6172C142.621 35.6172 141.062 37.1754 141.062 39.0976C141.062 41.0198 142.621 42.578 144.543 42.578Z" fill="#0A5840" fill-opacity="0.6"/>
<path d="M157.184 42.578C159.106 42.578 160.664 41.0198 160.664 39.0976C160.664 37.1754 159.106 35.6172 157.184 35.6172C155.261 35.6172 153.703 37.1754 153.703 39.0976C153.703 41.0198 155.261 42.578 157.184 42.578Z" fill="white"/>
<path d="M169.824 42.578C171.746 42.578 173.305 41.0198 173.305 39.0976C173.305 37.1754 171.746 35.6172 169.824 35.6172C167.902 35.6172 166.344 37.1754 166.344 39.0976C166.344 41.0198 167.902 42.578 169.824 42.578Z" fill="white"/>
<path d="M377.423 199.02H135.108C131.598 199.02 128.742 196.164 128.742 192.654V33.0493C128.742 29.5391 131.598 26.6836 135.108 26.6836H377.423C380.934 26.6836 383.789 29.5391 383.789 33.0493V192.654C383.789 196.164 380.934 199.02 377.423 199.02ZM135.108 27.2862C131.93 27.2862 129.345 29.8716 129.345 33.0493V192.654C129.345 195.832 131.93 198.417 135.108 198.417H377.423C380.601 198.417 383.187 195.832 383.187 192.654V33.0493C383.187 29.8716 380.601 27.2862 377.423 27.2862H135.108Z" fill="#0A5840"/>
<path d="M208.419 184.04H144.866C143.499 184.04 142.391 182.932 142.391 181.565V65.5181C142.391 64.1511 143.499 63.043 144.866 63.043H208.419C209.786 63.043 210.894 64.1511 210.894 65.5181V181.565C210.894 182.932 209.786 184.04 208.419 184.04Z" fill="#F4F7FD"/>
<path d="M172.02 102.581H147.659C147.032 102.581 146.523 102.073 146.523 101.445V69.7493C146.523 69.1218 147.032 68.6133 147.659 68.6133H172.02C172.647 68.6133 173.156 69.1218 173.156 69.7493V101.445C173.156 102.073 172.647 102.581 172.02 102.581Z" fill="#CCE6FF"/>
<path d="M179.963 72.8678C181.138 72.8678 182.09 71.9154 182.09 70.7405C182.09 69.5657 181.138 68.6133 179.963 68.6133C178.788 68.6133 177.836 69.5657 177.836 70.7405C177.836 71.9154 178.788 72.8678 179.963 72.8678Z" fill="#CCE6FF"/>
<path d="M206.802 69.9774H186.384C186.133 69.9774 185.93 69.774 185.93 69.5229C185.93 69.2718 186.133 69.0684 186.384 69.0684H206.802C207.053 69.0684 207.257 69.2718 207.257 69.5229C207.257 69.774 207.053 69.9774 206.802 69.9774Z" fill="#CCE6FF"/>
<path d="M206.802 72.413H186.384C186.133 72.413 185.93 72.2095 185.93 71.9584C185.93 71.7074 186.133 71.5039 186.384 71.5039H206.802C207.053 71.5039 207.257 71.7074 207.257 71.9584C207.257 72.2095 207.053 72.413 206.802 72.413Z" fill="#CCE6FF"/>
<path d="M206.802 74.8505H186.384C186.133 74.8505 185.93 74.647 185.93 74.3959C185.93 74.1449 186.133 73.9414 186.384 73.9414H206.802C207.053 73.9414 207.257 74.1449 207.257 74.3959C207.257 74.647 207.053 74.8505 206.802 74.8505Z" fill="#CCE6FF"/>
<path d="M182.052 79.9924C182.27 78.838 181.511 77.7254 180.356 77.5073C179.202 77.2893 178.089 78.0483 177.871 79.2027C177.653 80.3571 178.412 81.4697 179.567 81.6878C180.721 81.9058 181.834 81.1468 182.052 79.9924Z" fill="#CCE6FF"/>
<path d="M206.802 78.8251H186.384C186.133 78.8251 185.93 78.6216 185.93 78.3705C185.93 78.1195 186.133 77.916 186.384 77.916H206.802C207.053 77.916 207.257 78.1195 207.257 78.3705C207.257 78.6214 207.053 78.8251 206.802 78.8251Z" fill="#CCE6FF"/>
<path d="M206.802 81.2626H186.384C186.133 81.2626 185.93 81.0591 185.93 80.808C185.93 80.557 186.133 80.3535 186.384 80.3535H206.802C207.053 80.3535 207.257 80.557 207.257 80.808C207.257 81.0591 207.053 81.2626 206.802 81.2626Z" fill="#CCE6FF"/>
<path d="M206.802 83.6981H186.384C186.133 83.6981 185.93 83.4947 185.93 83.2436C185.93 82.9925 186.133 82.7891 186.384 82.7891H206.802C207.053 82.7891 207.257 82.9925 207.257 83.2436C207.257 83.4945 207.053 83.6981 206.802 83.6981Z" fill="#CCE6FF"/>
<path d="M182.052 88.842C182.27 87.6876 181.511 86.575 180.356 86.3569C179.202 86.1389 178.089 86.8979 177.871 88.0524C177.653 89.2068 178.412 90.3193 179.567 90.5374C180.721 90.7554 181.834 89.9964 182.052 88.842Z" fill="#CCE6FF"/>
<path d="M206.802 87.6747H186.384C186.133 87.6747 185.93 87.4712 185.93 87.2202C185.93 86.9691 186.133 86.7656 186.384 86.7656H206.802C207.053 86.7656 207.257 86.9691 207.257 87.2202C207.257 87.4712 207.053 87.6747 206.802 87.6747Z" fill="#CCE6FF"/>
<path d="M206.802 90.1122H186.384C186.133 90.1122 185.93 89.9087 185.93 89.6577C185.93 89.4066 186.133 89.2031 186.384 89.2031H206.802C207.053 89.2031 207.257 89.4066 207.257 89.6577C207.257 89.9087 207.053 90.1122 206.802 90.1122Z" fill="#CCE6FF"/>
<path d="M206.802 92.5477H186.384C186.133 92.5477 185.93 92.3443 185.93 92.0932C185.93 91.8421 186.133 91.6387 186.384 91.6387H206.802C207.053 91.6387 207.257 91.8421 207.257 92.0932C207.257 92.3443 207.053 92.5477 206.802 92.5477Z" fill="#CCE6FF"/>
<path d="M181.056 99.1213C182.068 98.5245 182.405 97.2203 181.808 96.2082C181.211 95.1962 179.907 94.8597 178.895 95.4565C177.883 96.0533 177.546 97.3575 178.143 98.3695C178.74 99.3815 180.044 99.7181 181.056 99.1213Z" fill="#CCE6FF"/>
<path d="M206.802 96.5223H186.384C186.133 96.5223 185.93 96.3189 185.93 96.0678C185.93 95.8167 186.133 95.6133 186.384 95.6133H206.802C207.053 95.6133 207.257 95.8167 207.257 96.0678C207.257 96.3189 207.053 96.5223 206.802 96.5223Z" fill="#CCE6FF"/>
<path d="M206.802 98.9598H186.384C186.133 98.9598 185.93 98.7564 185.93 98.5053C185.93 98.2542 186.133 98.0508 186.384 98.0508H206.802C207.053 98.0508 207.257 98.2542 207.257 98.5053C207.257 98.7564 207.053 98.9598 206.802 98.9598Z" fill="#CCE6FF"/>
<path d="M206.802 101.395H186.384C186.133 101.395 185.93 101.192 185.93 100.941C185.93 100.69 186.133 100.486 186.384 100.486H206.802C207.053 100.486 207.257 100.69 207.257 100.941C207.257 101.192 207.053 101.395 206.802 101.395Z" fill="#CCE6FF"/>
<path d="M171.77 140.116H147.409C146.782 140.116 146.273 139.608 146.273 138.98V107.284C146.273 106.657 146.782 106.148 147.409 106.148H171.77C172.397 106.148 172.906 106.657 172.906 107.284V138.98C172.906 139.608 172.397 140.116 171.77 140.116Z" fill="#CCE6FF"/>
<path d="M179.705 110.403C180.88 110.403 181.833 109.451 181.833 108.276C181.833 107.101 180.88 106.148 179.705 106.148C178.531 106.148 177.578 107.101 177.578 108.276C177.578 109.451 178.531 110.403 179.705 110.403Z" fill="#CCE6FF"/>
<path d="M206.552 107.513H186.134C185.883 107.513 185.68 107.309 185.68 107.058C185.68 106.807 185.883 106.604 186.134 106.604H206.552C206.803 106.604 207.007 106.807 207.007 107.058C207.007 107.309 206.803 107.513 206.552 107.513Z" fill="#CCE6FF"/>
<path d="M206.552 109.948H186.134C185.883 109.948 185.68 109.745 185.68 109.494C185.68 109.243 185.883 109.039 186.134 109.039H206.552C206.803 109.039 207.007 109.243 207.007 109.494C207.007 109.745 206.803 109.948 206.552 109.948Z" fill="#CCE6FF"/>
<path d="M206.552 112.386H186.134C185.883 112.386 185.68 112.182 185.68 111.931C185.68 111.68 185.883 111.477 186.134 111.477H206.552C206.803 111.477 207.007 111.68 207.007 111.931C207.007 112.182 206.803 112.386 206.552 112.386Z" fill="#CCE6FF"/>
<path d="M181.777 117.607C182.045 116.464 181.336 115.319 180.192 115.05C179.049 114.781 177.904 115.49 177.635 116.634C177.366 117.778 178.076 118.923 179.219 119.192C180.363 119.46 181.508 118.751 181.777 117.607Z" fill="#CCE6FF"/>
<path d="M206.552 116.36H186.134C185.883 116.36 185.68 116.157 185.68 115.906C185.68 115.655 185.883 115.451 186.134 115.451H206.552C206.803 115.451 207.007 115.655 207.007 115.906C207.007 116.157 206.803 116.36 206.552 116.36Z" fill="#CCE6FF"/>
<path d="M206.552 118.798H186.134C185.883 118.798 185.68 118.594 185.68 118.343C185.68 118.092 185.883 117.889 186.134 117.889H206.552C206.803 117.889 207.007 118.092 207.007 118.343C207.007 118.594 206.803 118.798 206.552 118.798Z" fill="#CCE6FF"/>
<path d="M206.552 121.233H186.134C185.883 121.233 185.68 121.03 185.68 120.779C185.68 120.528 185.883 120.324 186.134 120.324H206.552C206.803 120.324 207.007 120.528 207.007 120.779C207.007 121.03 206.803 121.233 206.552 121.233Z" fill="#CCE6FF"/>
<path d="M181.777 126.455C182.045 125.311 181.336 124.166 180.192 123.897C179.049 123.629 177.904 124.338 177.635 125.482C177.366 126.626 178.076 127.771 179.219 128.039C180.363 128.308 181.508 127.599 181.777 126.455Z" fill="#CCE6FF"/>
<path d="M206.552 125.208H186.134C185.883 125.208 185.68 125.004 185.68 124.753C185.68 124.502 185.883 124.299 186.134 124.299H206.552C206.803 124.299 207.007 124.502 207.007 124.753C207.007 125.004 206.803 125.208 206.552 125.208Z" fill="#CCE6FF"/>
<path d="M206.552 127.645H186.134C185.883 127.645 185.68 127.442 185.68 127.191C185.68 126.94 185.883 126.736 186.134 126.736H206.552C206.803 126.736 207.007 126.94 207.007 127.191C207.007 127.442 206.803 127.645 206.552 127.645Z" fill="#CCE6FF"/>
<path d="M206.552 130.081H186.134C185.883 130.081 185.68 129.877 185.68 129.626C185.68 129.375 185.883 129.172 186.134 129.172H206.552C206.803 129.172 207.007 129.375 207.007 129.626C207.007 129.877 206.803 130.081 206.552 130.081Z" fill="#CCE6FF"/>
<path d="M181.208 136.326C182.039 135.496 182.039 134.149 181.208 133.318C180.377 132.487 179.03 132.487 178.199 133.318C177.369 134.149 177.369 135.496 178.199 136.326C179.03 137.157 180.377 137.157 181.208 136.326Z" fill="#CCE6FF"/>
<path d="M206.552 134.059H186.134C185.883 134.059 185.68 133.856 185.68 133.605C185.68 133.354 185.883 133.15 186.134 133.15H206.552C206.803 133.15 207.007 133.354 207.007 133.605C207.007 133.856 206.803 134.059 206.552 134.059Z" fill="#CCE6FF"/>
<path d="M206.552 136.495H186.134C185.883 136.495 185.68 136.292 185.68 136.04C185.68 135.789 185.883 135.586 186.134 135.586H206.552C206.803 135.586 207.007 135.789 207.007 136.04C207.007 136.292 206.803 136.495 206.552 136.495Z" fill="#CCE6FF"/>
<path d="M206.552 138.933H186.134C185.883 138.933 185.68 138.729 185.68 138.478C185.68 138.227 185.883 138.023 186.134 138.023H206.552C206.803 138.023 207.007 138.227 207.007 138.478C207.007 138.729 206.803 138.933 206.552 138.933Z" fill="#CCE6FF"/>
<path d="M171.52 177.651H147.159C146.532 177.651 146.023 177.143 146.023 176.515V144.82C146.023 144.192 146.532 143.684 147.159 143.684H171.52C172.147 143.684 172.656 144.192 172.656 144.82V176.515C172.656 177.143 172.147 177.651 171.52 177.651Z" fill="#CCE6FF"/>
<path d="M179.455 147.938C180.63 147.938 181.583 146.986 181.583 145.811C181.583 144.636 180.63 143.684 179.455 143.684C178.281 143.684 177.328 144.636 177.328 145.811C177.328 146.986 178.281 147.938 179.455 147.938Z" fill="#CCE6FF"/>
<path d="M206.294 145.048H185.876C185.625 145.048 185.422 144.844 185.422 144.593C185.422 144.342 185.625 144.139 185.876 144.139H206.294C206.546 144.139 206.749 144.342 206.749 144.593C206.749 144.844 206.546 145.048 206.294 145.048Z" fill="#CCE6FF"/>
<path d="M206.294 147.483H185.876C185.625 147.483 185.422 147.28 185.422 147.029C185.422 146.778 185.625 146.574 185.876 146.574H206.294C206.546 146.574 206.749 146.778 206.749 147.029C206.749 147.28 206.546 147.483 206.294 147.483Z" fill="#CCE6FF"/>
<path d="M206.294 149.921H185.876C185.625 149.921 185.422 149.717 185.422 149.466C185.422 149.215 185.625 149.012 185.876 149.012H206.294C206.546 149.012 206.749 149.215 206.749 149.466C206.749 149.717 206.546 149.921 206.294 149.921Z" fill="#CCE6FF"/>
<path d="M181.527 155.142C181.795 153.999 181.086 152.854 179.942 152.585C178.799 152.316 177.654 153.026 177.385 154.169C177.116 155.313 177.826 156.458 178.969 156.727C180.113 156.995 181.258 156.286 181.527 155.142Z" fill="#CCE6FF"/>
<path d="M206.294 153.897H185.876C185.625 153.897 185.422 153.694 185.422 153.443C185.422 153.192 185.625 152.988 185.876 152.988H206.294C206.546 152.988 206.749 153.192 206.749 153.443C206.749 153.694 206.546 153.897 206.294 153.897Z" fill="#CCE6FF"/>
<path d="M206.294 156.333H185.876C185.625 156.333 185.422 156.129 185.422 155.878C185.422 155.627 185.625 155.424 185.876 155.424H206.294C206.546 155.424 206.749 155.627 206.749 155.878C206.749 156.129 206.546 156.333 206.294 156.333Z" fill="#CCE6FF"/>
<path d="M206.294 158.768H185.876C185.625 158.768 185.422 158.565 185.422 158.314C185.422 158.063 185.625 157.859 185.876 157.859H206.294C206.546 157.859 206.749 158.063 206.749 158.314C206.749 158.565 206.546 158.768 206.294 158.768Z" fill="#CCE6FF"/>
<path d="M181.527 163.99C181.795 162.846 181.086 161.701 179.942 161.433C178.799 161.164 177.654 161.873 177.385 163.017C177.116 164.161 177.826 165.306 178.969 165.574C180.113 165.843 181.258 165.134 181.527 163.99Z" fill="#CCE6FF"/>
<path d="M206.294 162.745H185.876C185.625 162.745 185.422 162.542 185.422 162.29C185.422 162.039 185.625 161.836 185.876 161.836H206.294C206.546 161.836 206.749 162.039 206.749 162.29C206.749 162.542 206.546 162.745 206.294 162.745Z" fill="#CCE6FF"/>
<path d="M206.294 165.181H185.876C185.625 165.181 185.422 164.977 185.422 164.726C185.422 164.475 185.625 164.271 185.876 164.271H206.294C206.546 164.271 206.749 164.475 206.749 164.726C206.749 164.977 206.546 165.181 206.294 165.181Z" fill="#CCE6FF"/>
<path d="M206.294 167.618H185.876C185.625 167.618 185.422 167.415 185.422 167.164C185.422 166.912 185.625 166.709 185.876 166.709H206.294C206.546 166.709 206.749 166.912 206.749 167.164C206.749 167.415 206.546 167.618 206.294 167.618Z" fill="#CCE6FF"/>
<path d="M180.958 173.864C181.789 173.033 181.789 171.686 180.958 170.855C180.127 170.024 178.78 170.024 177.949 170.855C177.119 171.686 177.119 173.033 177.949 173.864C178.78 174.694 180.127 174.694 180.958 173.864Z" fill="#CCE6FF"/>
<path d="M206.294 171.595H185.876C185.625 171.595 185.422 171.391 185.422 171.14C185.422 170.889 185.625 170.686 185.876 170.686H206.294C206.546 170.686 206.749 170.889 206.749 171.14C206.749 171.391 206.546 171.595 206.294 171.595Z" fill="#CCE6FF"/>
<path d="M206.294 174.03H185.876C185.625 174.03 185.422 173.827 185.422 173.576C185.422 173.325 185.625 173.121 185.876 173.121H206.294C206.546 173.121 206.749 173.325 206.749 173.576C206.749 173.827 206.546 174.03 206.294 174.03Z" fill="#CCE6FF"/>
<path d="M206.294 176.468H185.876C185.625 176.468 185.422 176.264 185.422 176.013C185.422 175.762 185.625 175.559 185.876 175.559H206.294C206.546 175.559 206.749 175.762 206.749 176.013C206.749 176.264 206.546 176.468 206.294 176.468Z" fill="#CCE6FF"/>
<path d="M167.878 86.2291H151.409C150.885 86.2291 150.461 85.8047 150.461 85.281V72.3699C150.461 71.8463 150.885 71.4219 151.409 71.4219H167.878C168.401 71.4219 168.826 71.8463 168.826 72.3699V85.2812C168.825 85.8047 168.401 86.2291 167.878 86.2291Z" fill="#F4F7FD"/>
<path d="M168.261 89.6559H151.026C150.714 89.6559 150.461 89.403 150.461 89.0911V89.0023C150.461 88.6904 150.714 88.4375 151.026 88.4375H168.261C168.573 88.4375 168.826 88.6904 168.826 89.0023V89.0911C168.826 89.403 168.573 89.6559 168.261 89.6559Z" fill="#F4F7FD"/>
<path d="M168.261 92.2477H151.026C150.714 92.2477 150.461 91.9948 150.461 91.6829V91.5941C150.461 91.2822 150.714 91.0293 151.026 91.0293H168.261C168.573 91.0293 168.826 91.2822 168.826 91.5941V91.6829C168.826 91.9948 168.573 92.2477 168.261 92.2477Z" fill="#F4F7FD"/>
<path d="M168.261 94.8395H151.026C150.714 94.8395 150.461 94.5866 150.461 94.2747V94.1859C150.461 93.874 150.714 93.6211 151.026 93.6211H168.261C168.573 93.6211 168.826 93.874 168.826 94.1859V94.2747C168.826 94.5868 168.573 94.8395 168.261 94.8395Z" fill="#F4F7FD"/>
<path d="M168.261 97.4293H151.026C150.714 97.4293 150.461 97.1764 150.461 96.8645V96.7757C150.461 96.4638 150.714 96.2109 151.026 96.2109H168.261C168.573 96.2109 168.826 96.4638 168.826 96.7757V96.8645C168.826 97.1764 168.573 97.4293 168.261 97.4293Z" fill="#F4F7FD"/>
<path d="M168.261 100.021H151.026C150.714 100.021 150.461 99.7682 150.461 99.4563V99.3675C150.461 99.0556 150.714 98.8027 151.026 98.8027H168.261C168.573 98.8027 168.826 99.0556 168.826 99.3675V99.4563C168.826 99.7682 168.573 100.021 168.261 100.021Z" fill="#F4F7FD"/>
<path d="M167.878 123.641H151.409C150.885 123.641 150.461 123.217 150.461 122.693V109.782C150.461 109.258 150.885 108.834 151.409 108.834H167.878C168.401 108.834 168.826 109.258 168.826 109.782V122.693C168.825 123.217 168.401 123.641 167.878 123.641Z" fill="#F4F7FD"/>
<path d="M168.261 127.068H151.026C150.714 127.068 150.461 126.815 150.461 126.503V126.414C150.461 126.102 150.714 125.85 151.026 125.85H168.261C168.573 125.85 168.826 126.102 168.826 126.414V126.503C168.826 126.815 168.573 127.068 168.261 127.068Z" fill="#F4F7FD"/>
<path d="M168.261 129.66H151.026C150.714 129.66 150.461 129.407 150.461 129.095V129.006C150.461 128.694 150.714 128.441 151.026 128.441H168.261C168.573 128.441 168.826 128.694 168.826 129.006V129.095C168.826 129.407 168.573 129.66 168.261 129.66Z" fill="#F4F7FD"/>
<path d="M168.261 132.252H151.026C150.714 132.252 150.461 131.999 150.461 131.687V131.598C150.461 131.286 150.714 131.033 151.026 131.033H168.261C168.573 131.033 168.826 131.286 168.826 131.598V131.687C168.826 131.999 168.573 132.252 168.261 132.252Z" fill="#F4F7FD"/>
<path d="M168.261 134.841H151.026C150.714 134.841 150.461 134.589 150.461 134.277V134.188C150.461 133.876 150.714 133.623 151.026 133.623H168.261C168.573 133.623 168.826 133.876 168.826 134.188V134.277C168.826 134.589 168.573 134.841 168.261 134.841Z" fill="#F4F7FD"/>
<path d="M168.261 137.433H151.026C150.714 137.433 150.461 137.18 150.461 136.868V136.78C150.461 136.468 150.714 136.215 151.026 136.215H168.261C168.573 136.215 168.826 136.468 168.826 136.78V136.868C168.826 137.18 168.573 137.433 168.261 137.433Z" fill="#F4F7FD"/>
<path d="M167.878 161.051H151.409C150.885 161.051 150.461 160.627 150.461 160.103V147.192C150.461 146.669 150.885 146.244 151.409 146.244H167.878C168.401 146.244 168.826 146.669 168.826 147.192V160.103C168.825 160.627 168.401 161.051 167.878 161.051Z" fill="#F4F7FD"/>
<path d="M168.261 164.478H151.026C150.714 164.478 150.461 164.225 150.461 163.913V163.825C150.461 163.513 150.714 163.26 151.026 163.26H168.261C168.573 163.26 168.826 163.513 168.826 163.825V163.913C168.826 164.225 168.573 164.478 168.261 164.478Z" fill="#F4F7FD"/>
<path d="M168.261 167.07H151.026C150.714 167.07 150.461 166.817 150.461 166.505V166.416C150.461 166.104 150.714 165.852 151.026 165.852H168.261C168.573 165.852 168.826 166.104 168.826 166.416V166.505C168.826 166.817 168.573 167.07 168.261 167.07Z" fill="#F4F7FD"/>
<path d="M168.261 169.662H151.026C150.714 169.662 150.461 169.409 150.461 169.097V169.008C150.461 168.696 150.714 168.443 151.026 168.443H168.261C168.573 168.443 168.826 168.696 168.826 169.008V169.097C168.826 169.409 168.573 169.662 168.261 169.662Z" fill="#F4F7FD"/>
<path d="M168.261 172.252H151.026C150.714 172.252 150.461 171.999 150.461 171.687V171.598C150.461 171.286 150.714 171.033 151.026 171.033H168.261C168.573 171.033 168.826 171.286 168.826 171.598V171.687C168.826 171.999 168.573 172.252 168.261 172.252Z" fill="#F4F7FD"/>
<path d="M168.261 174.843H151.026C150.714 174.843 150.461 174.591 150.461 174.279V174.19C150.461 173.878 150.714 173.625 151.026 173.625H168.261C168.573 173.625 168.826 173.878 168.826 174.19V174.279C168.826 174.591 168.573 174.843 168.261 174.843Z" fill="#F4F7FD"/>
<path d="M367.676 184.04H304.124C302.757 184.04 301.648 182.932 301.648 181.565V65.5181C301.648 64.1511 302.757 63.043 304.124 63.043H367.676C369.043 63.043 370.151 64.1511 370.151 65.5181V181.565C370.151 182.932 369.043 184.04 367.676 184.04Z" fill="#F4F7FD"/>
<path d="M364.094 68.6187H344.212C343.849 68.6187 343.555 68.3246 343.555 67.9617C343.555 67.5989 343.849 67.3047 344.212 67.3047H364.094C364.457 67.3047 364.751 67.5987 364.751 67.9617C364.751 68.3244 364.457 68.6187 364.094 68.6187Z" fill="#CCE6FF"/>
<path d="M364.094 71.6226H344.212C343.849 71.6226 343.555 71.3285 343.555 70.9656C343.555 70.6028 343.849 70.3086 344.212 70.3086H364.094C364.457 70.3086 364.751 70.6026 364.751 70.9656C364.751 71.3285 364.457 71.6226 364.094 71.6226Z" fill="#CCE6FF"/>
<path d="M364.094 74.6284H344.212C343.849 74.6284 343.555 74.3344 343.555 73.9714C343.555 73.6087 343.849 73.3145 344.212 73.3145H364.094C364.457 73.3145 364.751 73.6085 364.751 73.9714C364.751 74.3344 364.457 74.6284 364.094 74.6284Z" fill="#CCE6FF"/>
<path d="M364.094 77.6323H344.212C343.849 77.6323 343.555 77.3383 343.555 76.9754C343.555 76.6126 343.849 76.3184 344.212 76.3184H364.094C364.457 76.3184 364.751 76.6124 364.751 76.9754C364.751 77.3383 364.457 77.6323 364.094 77.6323Z" fill="#CCE6FF"/>
<path d="M364.094 80.6382H344.212C343.849 80.6382 343.555 80.3442 343.555 79.9812C343.555 79.6185 343.849 79.3242 344.212 79.3242H364.094C364.457 79.3242 364.751 79.6183 364.751 79.9812C364.751 80.3442 364.457 80.6382 364.094 80.6382Z" fill="#CCE6FF"/>
<path d="M364.094 83.6421H344.212C343.849 83.6421 343.555 83.3481 343.555 82.9851C343.555 82.6224 343.849 82.3281 344.212 82.3281H364.094C364.457 82.3281 364.751 82.6222 364.751 82.9851C364.751 83.3479 364.457 83.6421 364.094 83.6421Z" fill="#CCE6FF"/>
<path d="M364.094 86.646H344.212C343.849 86.646 343.555 86.352 343.555 85.989C343.555 85.6263 343.849 85.332 344.212 85.332H364.094C364.457 85.332 364.751 85.6261 364.751 85.989C364.751 86.352 364.457 86.646 364.094 86.646Z" fill="#CCE6FF"/>
<path d="M364.094 143.775H344.212C343.849 143.775 343.555 143.481 343.555 143.118C343.555 142.755 343.849 142.461 344.212 142.461H364.094C364.457 142.461 364.751 142.755 364.751 143.118C364.751 143.481 364.457 143.775 364.094 143.775Z" fill="#CCE6FF"/>
<path d="M364.094 146.781H344.212C343.849 146.781 343.555 146.487 343.555 146.124C343.555 145.761 343.849 145.467 344.212 145.467H364.094C364.457 145.467 364.751 145.761 364.751 146.124C364.751 146.487 364.457 146.781 364.094 146.781Z" fill="#CCE6FF"/>
<path d="M364.094 149.785H344.212C343.849 149.785 343.555 149.491 343.555 149.128C343.555 148.765 343.849 148.471 344.212 148.471H364.094C364.457 148.471 364.751 148.765 364.751 149.128C364.751 149.491 364.457 149.785 364.094 149.785Z" fill="#CCE6FF"/>
<path d="M364.094 152.791H344.212C343.849 152.791 343.555 152.497 343.555 152.134C343.555 151.771 343.849 151.477 344.212 151.477H364.094C364.457 151.477 364.751 151.771 364.751 152.134C364.751 152.497 364.457 152.791 364.094 152.791Z" fill="#CCE6FF"/>
<path d="M364.094 155.794H344.212C343.849 155.794 343.555 155.5 343.555 155.137C343.555 154.775 343.849 154.48 344.212 154.48H364.094C364.457 154.48 364.751 154.775 364.751 155.137C364.751 155.5 364.457 155.794 364.094 155.794Z" fill="#CCE6FF"/>
<path d="M364.094 158.798H344.212C343.849 158.798 343.555 158.504 343.555 158.141C343.555 157.779 343.849 157.484 344.212 157.484H364.094C364.457 157.484 364.751 157.778 364.751 158.141C364.751 158.504 364.457 158.798 364.094 158.798Z" fill="#CCE6FF"/>
<path d="M364.094 161.804H344.212C343.849 161.804 343.555 161.51 343.555 161.147C343.555 160.784 343.849 160.49 344.212 160.49H364.094C364.457 160.49 364.751 160.784 364.751 161.147C364.751 161.51 364.457 161.804 364.094 161.804Z" fill="#CCE6FF"/>
<path d="M364.094 165.177H344.212C343.849 165.177 343.555 164.883 343.555 164.52C343.555 164.158 343.849 163.863 344.212 163.863H364.094C364.457 163.863 364.751 164.157 364.751 164.52C364.751 164.883 364.457 165.177 364.094 165.177Z" fill="#CCE6FF"/>
<path d="M364.094 168.181H344.212C343.849 168.181 343.555 167.887 343.555 167.524C343.555 167.161 343.849 166.867 344.212 166.867H364.094C364.457 166.867 364.751 167.161 364.751 167.524C364.751 167.887 364.457 168.181 364.094 168.181Z" fill="#CCE6FF"/>
<path d="M364.094 171.185H344.212C343.849 171.185 343.555 170.891 343.555 170.528C343.555 170.165 343.849 169.871 344.212 169.871H364.094C364.457 169.871 364.751 170.165 364.751 170.528C364.751 170.891 364.457 171.185 364.094 171.185Z" fill="#CCE6FF"/>
<path d="M364.094 174.191H344.212C343.849 174.191 343.555 173.897 343.555 173.534C343.555 173.171 343.849 172.877 344.212 172.877H364.094C364.457 172.877 364.751 173.171 364.751 173.534C364.751 173.897 364.457 174.191 364.094 174.191Z" fill="#CCE6FF"/>
<path d="M364.094 177.195H344.212C343.849 177.195 343.555 176.901 343.555 176.538C343.555 176.175 343.849 175.881 344.212 175.881H364.094C364.457 175.881 364.751 176.175 364.751 176.538C364.751 176.901 364.457 177.195 364.094 177.195Z" fill="#CCE6FF"/>
<path d="M364.094 180.201H344.212C343.849 180.201 343.555 179.907 343.555 179.544C343.555 179.181 343.849 178.887 344.212 178.887H364.094C364.457 178.887 364.751 179.181 364.751 179.544C364.751 179.906 364.457 180.201 364.094 180.201Z" fill="#CCE6FF"/>
<path d="M364.094 89.6519H344.212C343.849 89.6519 343.555 89.3578 343.555 88.9949C343.555 88.6321 343.849 88.3379 344.212 88.3379H364.094C364.457 88.3379 364.751 88.6319 364.751 88.9949C364.751 89.3576 364.457 89.6519 364.094 89.6519Z" fill="#CCE6FF"/>
<path d="M364.094 92.6558H344.212C343.849 92.6558 343.555 92.3617 343.555 91.9988C343.555 91.636 343.849 91.3418 344.212 91.3418H364.094C364.457 91.3418 364.751 91.6358 364.751 91.9988C364.751 92.3617 364.457 92.6558 364.094 92.6558Z" fill="#CCE6FF"/>
<path d="M364.094 95.6616H344.212C343.849 95.6616 343.555 95.3676 343.555 95.0047C343.555 94.6419 343.849 94.3477 344.212 94.3477H364.094C364.457 94.3477 364.751 94.6417 364.751 95.0047C364.751 95.3674 364.457 95.6616 364.094 95.6616Z" fill="#CCE6FF"/>
<path d="M364.094 98.6656H344.212C343.849 98.6656 343.555 98.3715 343.555 98.0086C343.555 97.6458 343.849 97.3516 344.212 97.3516H364.094C364.457 97.3516 364.751 97.6456 364.751 98.0086C364.751 98.3715 364.457 98.6656 364.094 98.6656Z" fill="#CCE6FF"/>
<path d="M364.094 101.669H344.212C343.849 101.669 343.555 101.375 343.555 101.012C343.555 100.65 343.849 100.355 344.212 100.355H364.094C364.457 100.355 364.751 100.65 364.751 101.012C364.751 101.375 364.457 101.669 364.094 101.669Z" fill="#CCE6FF"/>
<path d="M364.094 104.675H344.212C343.849 104.675 343.555 104.381 343.555 104.018C343.555 103.656 343.849 103.361 344.212 103.361H364.094C364.457 103.361 364.751 103.655 364.751 104.018C364.751 104.381 364.457 104.675 364.094 104.675Z" fill="#CCE6FF"/>
<path d="M364.094 107.679H344.212C343.849 107.679 343.555 107.385 343.555 107.022C343.555 106.659 343.849 106.365 344.212 106.365H364.094C364.457 106.365 364.751 106.659 364.751 107.022C364.751 107.385 364.457 107.679 364.094 107.679Z" fill="#CCE6FF"/>
<path d="M364.094 110.685H344.212C343.849 110.685 343.555 110.391 343.555 110.028C343.555 109.665 343.849 109.371 344.212 109.371H364.094C364.457 109.371 364.751 109.665 364.751 110.028C364.751 110.391 364.457 110.685 364.094 110.685Z" fill="#CCE6FF"/>
<path d="M364.094 113.689H344.212C343.849 113.689 343.555 113.395 343.555 113.032C343.555 112.669 343.849 112.375 344.212 112.375H364.094C364.457 112.375 364.751 112.669 364.751 113.032C364.751 113.395 364.457 113.689 364.094 113.689Z" fill="#CCE6FF"/>
<path d="M337.22 120.494H307.696C307.333 120.494 307.039 120.2 307.039 119.837C307.039 119.474 307.333 119.18 307.696 119.18H337.22C337.583 119.18 337.877 119.474 337.877 119.837C337.877 120.2 337.583 120.494 337.22 120.494Z" fill="#CCE6FF"/>
<path d="M337.22 123.5H307.696C307.333 123.5 307.039 123.205 307.039 122.843C307.039 122.48 307.333 122.186 307.696 122.186H337.22C337.583 122.186 337.877 122.48 337.877 122.843C337.877 123.205 337.583 123.5 337.22 123.5Z" fill="#CCE6FF"/>
<path d="M337.22 126.503H307.696C307.333 126.503 307.039 126.209 307.039 125.846C307.039 125.484 307.333 125.189 307.696 125.189H337.22C337.583 125.189 337.877 125.484 337.877 125.846C337.877 126.209 337.583 126.503 337.22 126.503Z" fill="#CCE6FF"/>
<path d="M337.22 129.509H307.696C307.333 129.509 307.039 129.215 307.039 128.852C307.039 128.49 307.333 128.195 307.696 128.195H337.22C337.583 128.195 337.877 128.489 337.877 128.852C337.877 129.215 337.583 129.509 337.22 129.509Z" fill="#CCE6FF"/>
<path d="M337.22 132.513H307.696C307.333 132.513 307.039 132.219 307.039 131.856C307.039 131.493 307.333 131.199 307.696 131.199H337.22C337.583 131.199 337.877 131.493 337.877 131.856C337.877 132.219 337.583 132.513 337.22 132.513Z" fill="#CCE6FF"/>
<path d="M337.22 135.517H307.696C307.333 135.517 307.039 135.223 307.039 134.86C307.039 134.497 307.333 134.203 307.696 134.203H337.22C337.583 134.203 337.877 134.497 337.877 134.86C337.877 135.223 337.583 135.517 337.22 135.517Z" fill="#CCE6FF"/>
<path d="M337.22 138.523H307.696C307.333 138.523 307.039 138.229 307.039 137.866C307.039 137.503 307.333 137.209 307.696 137.209H337.22C337.583 137.209 337.877 137.503 337.877 137.866C337.877 138.229 337.583 138.523 337.22 138.523Z" fill="#CCE6FF"/>
<path d="M337.22 141.527H307.696C307.333 141.527 307.039 141.233 307.039 140.87C307.039 140.507 307.333 140.213 307.696 140.213H337.22C337.583 140.213 337.877 140.507 337.877 140.87C337.877 141.233 337.583 141.527 337.22 141.527Z" fill="#CCE6FF"/>
<path d="M337.22 144.533H307.696C307.333 144.533 307.039 144.239 307.039 143.876C307.039 143.513 307.333 143.219 307.696 143.219H337.22C337.583 143.219 337.877 143.513 337.877 143.876C337.877 144.239 337.583 144.533 337.22 144.533Z" fill="#CCE6FF"/>
<path d="M337.22 147.537H307.696C307.333 147.537 307.039 147.243 307.039 146.88C307.039 146.517 307.333 146.223 307.696 146.223H337.22C337.583 146.223 337.877 146.517 337.877 146.88C337.877 147.242 337.583 147.537 337.22 147.537Z" fill="#CCE6FF"/>
<path d="M337.22 150.541H307.696C307.333 150.541 307.039 150.247 307.039 149.884C307.039 149.521 307.333 149.227 307.696 149.227H337.22C337.583 149.227 337.877 149.521 337.877 149.884C337.877 150.247 337.583 150.541 337.22 150.541Z" fill="#CCE6FF"/>
<path d="M337.22 153.546H307.696C307.333 153.546 307.039 153.252 307.039 152.889C307.039 152.527 307.333 152.232 307.696 152.232H337.22C337.583 152.232 337.877 152.526 337.877 152.889C337.877 153.252 337.583 153.546 337.22 153.546Z" fill="#CCE6FF"/>
<path d="M337.22 156.55H307.696C307.333 156.55 307.039 156.256 307.039 155.893C307.039 155.531 307.333 155.236 307.696 155.236H337.22C337.583 155.236 337.877 155.53 337.877 155.893C337.877 156.256 337.583 156.55 337.22 156.55Z" fill="#CCE6FF"/>
<path d="M337.22 159.554H307.696C307.333 159.554 307.039 159.26 307.039 158.897C307.039 158.534 307.333 158.24 307.696 158.24H337.22C337.583 158.24 337.877 158.534 337.877 158.897C337.877 159.26 337.583 159.554 337.22 159.554Z" fill="#CCE6FF"/>
<path d="M337.22 162.56H307.696C307.333 162.56 307.039 162.266 307.039 161.903C307.039 161.54 307.333 161.246 307.696 161.246H337.22C337.583 161.246 337.877 161.54 337.877 161.903C337.877 162.266 337.583 162.56 337.22 162.56Z" fill="#CCE6FF"/>
<path d="M337.22 165.564H307.696C307.333 165.564 307.039 165.27 307.039 164.907C307.039 164.544 307.333 164.25 307.696 164.25H337.22C337.583 164.25 337.877 164.544 337.877 164.907C337.877 165.27 337.583 165.564 337.22 165.564Z" fill="#CCE6FF"/>
<path d="M337.22 168.371H307.696C307.333 168.371 307.039 168.077 307.039 167.714C307.039 167.351 307.333 167.057 307.696 167.057H337.22C337.583 167.057 337.877 167.351 337.877 167.714C337.877 168.077 337.583 168.371 337.22 168.371Z" fill="#CCE6FF"/>
<path d="M337.22 171.375H307.696C307.333 171.375 307.039 171.08 307.039 170.718C307.039 170.355 307.333 170.061 307.696 170.061H337.22C337.583 170.061 337.877 170.355 337.877 170.718C337.877 171.08 337.583 171.375 337.22 171.375Z" fill="#CCE6FF"/>
<path d="M337.22 174.38H307.696C307.333 174.38 307.039 174.086 307.039 173.723C307.039 173.361 307.333 173.066 307.696 173.066H337.22C337.583 173.066 337.877 173.36 337.877 173.723C337.877 174.086 337.583 174.38 337.22 174.38Z" fill="#CCE6FF"/>
<path d="M337.22 177.384H307.696C307.333 177.384 307.039 177.09 307.039 176.727C307.039 176.365 307.333 176.07 307.696 176.07H337.22C337.583 176.07 337.877 176.364 337.877 176.727C337.877 177.09 337.583 177.384 337.22 177.384Z" fill="#CCE6FF"/>
<path d="M337.22 180.39H307.696C307.333 180.39 307.039 180.096 307.039 179.733C307.039 179.37 307.333 179.076 307.696 179.076H337.22C337.583 179.076 337.877 179.37 337.877 179.733C337.877 180.096 337.583 180.39 337.22 180.39Z" fill="#CCE6FF"/>
<path d="M364.188 138.684H344.118C343.807 138.684 343.555 138.432 343.555 138.121V119.579C343.555 119.268 343.807 119.016 344.118 119.016H364.188C364.499 119.016 364.751 119.268 364.751 119.579V138.121C364.751 138.432 364.499 138.684 364.188 138.684Z" fill="#CCE6FF"/>
<path d="M337.117 113.689H307.799C307.379 113.689 307.039 113.348 307.039 112.929V68.0647C307.039 67.6449 307.379 67.3047 307.799 67.3047H337.117C337.537 67.3047 337.877 67.6449 337.877 68.0647V112.929C337.877 113.348 337.537 113.689 337.117 113.689Z" fill="#CCE6FF"/>
<path d="M334.518 83.6415H310.396C310.143 83.6415 309.938 83.436 309.938 83.1828V70.6541C309.938 70.4008 310.143 70.1953 310.396 70.1953H334.518C334.771 70.1953 334.976 70.4008 334.976 70.6541V83.1828C334.976 83.436 334.771 83.6415 334.518 83.6415Z" fill="#F4F7FD"/>
<path d="M334.518 98.7216H310.396C310.143 98.7216 309.938 98.5161 309.938 98.2628V85.7341C309.938 85.4809 310.143 85.2754 310.396 85.2754H334.518C334.771 85.2754 334.976 85.4809 334.976 85.7341V98.2628C334.976 98.5161 334.771 98.7216 334.518 98.7216Z" fill="#F4F7FD"/>
<path d="M321.325 111.518H310.335C310.116 111.518 309.938 111.34 309.938 111.12V100.753C309.938 100.534 310.116 100.355 310.335 100.355H321.325C321.545 100.355 321.723 100.534 321.723 100.753V111.12C321.723 111.34 321.545 111.518 321.325 111.518Z" fill="#F4F7FD"/>
<path d="M334.576 111.518H323.309C323.086 111.518 322.906 111.338 322.906 111.115V100.758C322.906 100.536 323.087 100.355 323.309 100.355H334.576C334.799 100.355 334.979 100.536 334.979 100.758V111.115C334.979 111.338 334.799 111.518 334.576 111.518Z" fill="#F4F7FD"/>
<path d="M288.044 184.04H224.491C223.124 184.04 222.016 182.932 222.016 181.565V65.5181C222.016 64.1511 223.124 63.043 224.491 63.043H288.044C289.411 63.043 290.519 64.1511 290.519 65.5181V181.565C290.519 182.932 289.411 184.04 288.044 184.04Z" fill="#F4F7FD"/>
<path d="M253.302 95.6142H228.586C227.956 95.6142 227.445 95.1037 227.445 94.4738V69.7576C227.445 69.1278 227.956 68.6172 228.586 68.6172H253.302C253.932 68.6172 254.442 69.1278 254.442 69.7576V94.4738C254.442 95.1037 253.932 95.6142 253.302 95.6142Z" fill="#CCE6FF"/>
<path d="M285.223 70.2593H266.064C265.735 70.2593 265.469 69.9926 265.469 69.6636V69.2149C265.469 68.8859 265.735 68.6191 266.064 68.6191H285.223C285.552 68.6191 285.819 68.8859 285.819 69.2149V69.6636C285.819 69.9926 285.552 70.2593 285.223 70.2593Z" fill="#CCE6FF"/>
<path d="M285.223 73.1187H266.064C265.735 73.1187 265.469 72.852 265.469 72.523V72.0743C265.469 71.7453 265.735 71.4785 266.064 71.4785H285.223C285.552 71.4785 285.819 71.7453 285.819 72.0743V72.523C285.819 72.852 285.552 73.1187 285.223 73.1187Z" fill="#CCE6FF"/>
<path d="M285.223 75.98H266.064C265.735 75.98 265.469 75.7133 265.469 75.3843V74.9356C265.469 74.6066 265.735 74.3398 266.064 74.3398H285.223C285.552 74.3398 285.819 74.6066 285.819 74.9356V75.3843C285.819 75.7133 285.552 75.98 285.223 75.98Z" fill="#CCE6FF"/>
<path d="M285.223 78.8414H266.064C265.735 78.8414 265.469 78.5746 265.469 78.2456V77.7969C265.469 77.4679 265.735 77.2012 266.064 77.2012H285.223C285.552 77.2012 285.819 77.4679 285.819 77.7969V78.2456C285.819 78.5746 285.552 78.8414 285.223 78.8414Z" fill="#CCE6FF"/>
<path d="M285.223 81.7027H266.064C265.735 81.7027 265.469 81.4359 265.469 81.1069V80.6582C265.469 80.3292 265.735 80.0625 266.064 80.0625H285.223C285.552 80.0625 285.819 80.3292 285.819 80.6582V81.1069C285.819 81.4361 285.552 81.7027 285.223 81.7027Z" fill="#CCE6FF"/>
<path d="M285.223 84.564H266.064C265.735 84.564 265.469 84.2973 265.469 83.9683V83.5196C265.469 83.1906 265.735 82.9238 266.064 82.9238H285.223C285.552 82.9238 285.819 83.1906 285.819 83.5196V83.9683C285.819 84.2975 285.552 84.564 285.223 84.564Z" fill="#CCE6FF"/>
<path d="M285.223 87.4253H266.064C265.735 87.4253 265.469 87.1586 265.469 86.8296V86.3809C265.469 86.0519 265.735 85.7852 266.064 85.7852H285.223C285.552 85.7852 285.819 86.0519 285.819 86.3809V86.8296C285.819 87.1586 285.552 87.4253 285.223 87.4253Z" fill="#CCE6FF"/>
<path d="M285.223 90.2847H266.064C265.735 90.2847 265.469 90.018 265.469 89.689V89.2403C265.469 88.9113 265.735 88.6445 266.064 88.6445H285.223C285.552 88.6445 285.819 88.9113 285.819 89.2403V89.689C285.819 90.018 285.552 90.2847 285.223 90.2847Z" fill="#CCE6FF"/>
<path d="M285.223 93.146H266.064C265.735 93.146 265.469 92.8793 265.469 92.5503V92.1016C265.469 91.7726 265.735 91.5059 266.064 91.5059H285.223C285.552 91.5059 285.819 91.7726 285.819 92.1016V92.5503C285.819 92.8793 285.552 93.146 285.223 93.146Z" fill="#CCE6FF"/>
<path d="M285.223 96.0074H266.064C265.735 96.0074 265.469 95.7406 265.469 95.4116V94.9629C265.469 94.6339 265.735 94.3672 266.064 94.3672H285.223C285.552 94.3672 285.819 94.6339 285.819 94.9629V95.4116C285.819 95.7406 285.552 96.0074 285.223 96.0074Z" fill="#CCE6FF"/>
<path d="M259.595 72.691C260.385 72.691 261.025 72.0506 261.025 71.2606C261.025 70.4705 260.385 69.8301 259.595 69.8301C258.805 69.8301 258.164 70.4705 258.164 71.2606C258.164 72.0506 258.805 72.691 259.595 72.691Z" fill="#CCE6FF"/>
<path d="M259.595 83.9391C260.385 83.9391 261.025 83.2986 261.025 82.5086C261.025 81.7186 260.385 81.0781 259.595 81.0781C258.805 81.0781 258.164 81.7186 258.164 82.5086C258.164 83.2986 258.805 83.9391 259.595 83.9391Z" fill="#CCE6FF"/>
<path d="M261.025 93.7567C261.025 94.5466 260.385 95.1871 259.595 95.1871C258.805 95.1871 258.164 94.5466 258.164 93.7567C258.164 92.9665 258.805 92.3262 259.595 92.3262C260.385 92.3262 261.025 92.9667 261.025 93.7567Z" fill="#CCE6FF"/>
<path d="M285.816 100.021H227.445V103.36H285.816V100.021Z" fill="#CCE6FF"/>
<path d="M285.816 105.811H227.445V109.149H285.816V105.811Z" fill="#CCE6FF"/>
<path d="M258.166 111.602H227.445V114.94H258.166V111.602Z" fill="#CCE6FF"/>
<path d="M285.372 121.234H227.889C227.644 121.234 227.445 121.035 227.445 120.79V119.696C227.445 119.451 227.644 119.252 227.889 119.252H285.372C285.617 119.252 285.816 119.451 285.816 119.696V120.79C285.816 121.035 285.617 121.234 285.372 121.234Z" fill="#CCE6FF"/>
<path d="M285.372 125.292H227.889C227.644 125.292 227.445 125.094 227.445 124.848V123.755C227.445 123.509 227.644 123.311 227.889 123.311H285.372C285.617 123.311 285.816 123.509 285.816 123.755V124.848C285.816 125.094 285.617 125.292 285.372 125.292Z" fill="#CCE6FF"/>
<path d="M285.372 129.351H227.889C227.644 129.351 227.445 129.152 227.445 128.907V127.813C227.445 127.568 227.644 127.369 227.889 127.369H285.372C285.617 127.369 285.816 127.568 285.816 127.813V128.907C285.816 129.152 285.617 129.351 285.372 129.351Z" fill="#CCE6FF"/>
<path d="M285.372 133.408H227.889C227.644 133.408 227.445 133.209 227.445 132.964V131.87C227.445 131.625 227.644 131.426 227.889 131.426H285.372C285.617 131.426 285.816 131.625 285.816 131.87V132.964C285.816 133.209 285.617 133.408 285.372 133.408Z" fill="#CCE6FF"/>
<path d="M285.372 137.466H227.889C227.644 137.466 227.445 137.267 227.445 137.022V135.928C227.445 135.683 227.644 135.484 227.889 135.484H285.372C285.617 135.484 285.816 135.683 285.816 135.928V137.022C285.816 137.267 285.617 137.466 285.372 137.466Z" fill="#CCE6FF"/>
<path d="M285.372 141.525H227.889C227.644 141.525 227.445 141.326 227.445 141.081V139.987C227.445 139.742 227.644 139.543 227.889 139.543H285.372C285.617 139.543 285.816 139.742 285.816 139.987V141.081C285.816 141.326 285.617 141.525 285.372 141.525Z" fill="#CCE6FF"/>
<path d="M256.663 145.582H227.761C227.587 145.582 227.445 145.44 227.445 145.266V143.916C227.445 143.741 227.587 143.6 227.761 143.6H256.663C256.838 143.6 256.979 143.741 256.979 143.916V145.266C256.979 145.44 256.838 145.582 256.663 145.582Z" fill="#CCE6FF"/>
<path d="M243.129 169.66H229.037C228.158 169.66 227.445 168.947 227.445 168.068V153.066C227.445 152.187 228.158 151.475 229.037 151.475H243.129C244.009 151.475 244.721 152.187 244.721 153.066V168.068C244.721 168.947 244.009 169.66 243.129 169.66Z" fill="#CCE6FF"/>
<path d="M263.676 169.582H249.584C248.705 169.582 247.992 168.869 247.992 167.99V152.988C247.992 152.109 248.705 151.396 249.584 151.396H263.676C264.555 151.396 265.268 152.109 265.268 152.988V167.99C265.268 168.869 264.556 169.582 263.676 169.582Z" fill="#CCE6FF"/>
<path d="M284.223 169.504H270.131C269.252 169.504 268.539 168.791 268.539 167.912V152.91C268.539 152.031 269.252 151.318 270.131 151.318H284.223C285.103 151.318 285.815 152.031 285.815 152.91V167.912C285.815 168.791 285.103 169.504 284.223 169.504Z" fill="#CCE6FF"/>
<path d="M285.554 174.842H227.707C227.562 174.842 227.445 174.725 227.445 174.581V173.383C227.445 173.238 227.562 173.121 227.707 173.121H285.554C285.699 173.121 285.816 173.238 285.816 173.383V174.581C285.816 174.725 285.699 174.842 285.554 174.842Z" fill="#CCE6FF"/>
<path d="M285.554 178.055H227.707C227.562 178.055 227.445 177.938 227.445 177.793V176.596C227.445 176.451 227.562 176.334 227.707 176.334H285.554C285.699 176.334 285.816 176.451 285.816 176.596V177.793C285.816 177.938 285.699 178.055 285.554 178.055Z" fill="#CCE6FF"/>
<path d="M262.156 181.268H227.648C227.536 181.268 227.445 181.177 227.445 181.066V179.749C227.445 179.637 227.536 179.547 227.648 179.547H262.156C262.268 179.547 262.359 179.637 262.359 179.749V181.066C262.359 181.177 262.268 181.268 262.156 181.268Z" fill="#CCE6FF"/>
<path d="M153.808 113.251H108.342C107.079 113.251 106.055 112.227 106.055 110.963V81.1723C106.055 79.9089 107.079 78.8848 108.342 78.8848H153.808C155.071 78.8848 156.096 79.9089 156.096 81.1723V110.963C156.096 112.227 155.071 113.251 153.808 113.251Z" fill="#0A5840" fill-opacity="0.6"/>
<path d="M118.949 99.0746C118.949 100.278 118.771 101.213 118.414 101.88C117.753 103.097 116.496 103.705 114.644 103.705C113.574 103.705 112.661 103.415 111.903 102.836C111.145 102.257 110.766 101.226 110.766 99.7442V98.7249H112.581V99.7442C112.581 100.521 112.754 101.105 113.101 101.496C113.448 101.888 113.989 102.084 114.721 102.084C115.752 102.084 116.427 101.731 116.745 101.026C116.939 100.592 117.037 99.7736 117.037 98.5698V89.0664H118.949L118.949 99.0746Z" fill="#0A5840"/>
<path d="M133.624 91.1047C134.569 92.3666 135.041 93.9813 135.041 95.9487C135.041 98.0779 134.501 99.8478 133.42 101.258C132.152 102.915 130.343 103.743 127.994 103.743C125.8 103.743 124.076 103.019 122.82 101.569C121.7 100.171 121.141 98.4043 121.141 96.2688C121.141 94.3404 121.619 92.6902 122.577 91.3182C123.807 89.5579 125.625 88.6777 128.033 88.6777C130.55 88.6779 132.414 89.487 133.624 91.1047ZM131.92 100.194C132.681 98.9731 133.061 97.5692 133.061 95.9824C133.061 94.3049 132.623 92.9545 131.746 91.9312C130.869 90.9078 129.67 90.396 128.149 90.396C126.674 90.396 125.47 90.903 124.538 91.9165C123.606 92.9302 123.14 94.4246 123.14 96.4C123.14 97.9805 123.54 99.313 124.339 100.398C125.138 101.483 126.434 102.025 128.227 102.025C129.929 102.025 131.16 101.415 131.92 100.194Z" fill="#0A5840"/>
<path d="M137.289 89.0664H143.455C145.136 89.0664 146.331 89.5647 147.041 90.5614C147.458 91.1503 147.666 91.8298 147.666 92.5998C147.666 93.4995 147.411 94.2372 146.9 94.813C146.634 95.1173 146.252 95.3955 145.754 95.6478C146.485 95.9262 147.032 96.2399 147.395 96.5894C148.035 97.2107 148.356 98.0683 148.356 99.1617C148.356 100.081 148.066 100.912 147.486 101.657C146.62 102.77 145.243 103.326 143.355 103.326H137.289V89.0664H137.289ZM142.733 95.0947C143.557 95.0947 144.198 94.9816 144.656 94.7548C145.375 94.3989 145.735 93.7584 145.735 92.8328C145.735 91.9009 145.352 91.2734 144.587 90.9496C144.156 90.7684 143.515 90.6779 142.665 90.6779H139.183V95.0947H142.733ZM143.386 101.676C144.582 101.676 145.434 101.333 145.944 100.647C146.264 100.214 146.424 99.6894 146.424 99.0744C146.424 98.039 145.957 97.3336 145.023 96.9582C144.526 96.7577 143.869 96.6573 143.053 96.6573H139.183V101.676H143.386Z" fill="#0A5840"/>
<path d="M149.81 121.746C149.524 121.746 149.252 121.615 149.069 121.375L142.135 112.322H107.018C105.591 112.322 104.43 111.161 104.43 109.734V79.9423C104.43 78.5149 105.591 77.3535 107.018 77.3535H152.484C153.912 77.3535 155.073 78.5149 155.073 79.9423V109.733C155.073 111.161 153.912 112.322 152.484 112.322H150.757V120.803C150.757 121.213 150.507 121.563 150.118 121.695C150.016 121.729 149.912 121.746 149.81 121.746ZM107.018 77.9563C105.923 77.9563 105.032 78.8473 105.032 79.9425V109.734C105.032 110.829 105.923 111.72 107.018 111.72H142.432L149.547 121.009C149.684 121.188 149.871 121.142 149.925 121.124C149.979 121.106 150.155 121.028 150.155 120.803V111.72H152.484C153.58 111.72 154.471 110.829 154.471 109.734V79.9423C154.471 78.8471 153.58 77.9561 152.484 77.9561L107.018 77.9563Z" fill="#0A5840"/>
<path d="M259.48 52.7998H214.014C212.751 52.7998 211.727 51.7756 211.727 50.5123V20.7211C211.727 19.4577 212.751 18.4336 214.014 18.4336H259.48C260.743 18.4336 261.767 19.4577 261.767 20.7211V50.5123C261.767 51.7756 260.743 52.7998 259.48 52.7998Z" fill="#0A5840" fill-opacity="0.6"/>
<path d="M224.613 38.6236C224.613 39.8273 224.435 40.7625 224.078 41.4289C223.417 42.6457 222.16 43.2539 220.308 43.2539C219.238 43.2539 218.325 42.9643 217.567 42.385C216.809 41.8059 216.43 40.7754 216.43 39.2933V38.2739H218.245V39.2933C218.245 40.0698 218.418 40.6541 218.765 41.0455C219.113 41.4372 219.653 41.6328 220.385 41.6328C221.416 41.6328 222.091 41.2801 222.409 40.5747C222.603 40.1413 222.701 39.3224 222.701 38.1187V28.6152H224.613V38.6236H224.613Z" fill="#0A5840"/>
<path d="M239.288 30.6535C240.233 31.9155 240.705 33.5301 240.705 35.4975C240.705 37.6267 240.165 39.3967 239.084 40.8073C237.816 42.4641 236.007 43.2923 233.658 43.2923C231.464 43.2923 229.74 42.5676 228.484 41.1178C227.364 39.7199 226.805 37.9531 226.805 35.8177C226.805 33.8892 227.284 32.239 228.241 30.867C229.471 29.1067 231.289 28.2266 233.697 28.2266C236.214 28.2266 238.078 29.0356 239.288 30.6535ZM237.585 39.7428C238.345 38.522 238.725 37.118 238.725 35.5312C238.725 33.8537 238.287 32.5034 237.41 31.48C236.533 30.4566 235.334 29.9449 233.813 29.9449C232.338 29.9449 231.134 30.4518 230.202 31.4653C229.27 32.4791 228.804 33.9734 228.804 35.9488C228.804 37.5293 229.204 38.8618 230.003 39.9466C230.802 41.0316 232.098 41.5739 233.891 41.5739C235.593 41.5741 236.824 40.9637 237.585 39.7428Z" fill="#0A5840"/>
<path d="M242.961 28.6152H249.127C250.808 28.6152 252.003 29.1138 252.713 30.1102C253.13 30.6991 253.338 31.3786 253.338 32.1487C253.338 33.0483 253.083 33.786 252.571 34.3619C252.306 34.6662 251.924 34.9444 251.426 35.1966C252.157 35.475 252.704 35.7888 253.067 36.1382C253.707 36.7595 254.027 37.6171 254.027 38.7106C254.027 39.6297 253.738 40.4612 253.158 41.2054C252.292 42.3185 250.915 42.8751 249.027 42.8751H242.961V28.6152H242.961ZM248.405 34.6435C249.229 34.6435 249.87 34.5304 250.328 34.3038C251.047 33.9479 251.407 33.3074 251.407 32.3819C251.407 31.4499 251.024 30.8224 250.259 30.4986C249.828 30.3175 249.187 30.2269 248.337 30.2269H244.854V34.6437H248.405V34.6435ZM249.058 41.2251C250.254 41.2251 251.106 40.8822 251.616 40.1961C251.936 39.7627 252.096 39.2384 252.096 38.6236C252.096 37.5882 251.629 36.8828 250.694 36.5074C250.198 36.307 249.541 36.2065 248.725 36.2065H244.854V41.2253H249.058V41.2251Z" fill="#0A5840"/>
<path d="M255.481 61.2946C255.196 61.2946 254.924 61.1636 254.741 60.924L247.807 51.8711H212.69C211.263 51.8711 210.102 50.7098 210.102 49.2823V19.4912C210.102 18.0637 211.263 16.9023 212.69 16.9023H258.156C259.584 16.9023 260.745 18.0637 260.745 19.4912V49.2823C260.745 50.7098 259.584 51.8711 258.156 51.8711H256.429V60.3518C256.429 60.7617 256.178 61.1116 255.79 61.2432C255.688 61.2777 255.583 61.2946 255.481 61.2946ZM212.69 17.5051C211.595 17.5051 210.704 18.3961 210.704 19.4914V49.2823C210.704 50.3775 211.595 51.2685 212.69 51.2685H248.104L255.219 60.5576C255.356 60.7366 255.543 60.6906 255.597 60.6725C255.651 60.6543 255.827 60.5769 255.827 60.3518V51.2685H258.156C259.251 51.2685 260.142 50.3775 260.142 49.2823V19.4912C260.142 18.3959 259.251 17.5049 258.156 17.5049L212.69 17.5051Z" fill="#0A5840"/>
<path d="M357.952 71.8017H403.417C404.681 71.8017 405.705 70.7776 405.705 69.5142V39.7231C405.705 38.4597 404.681 37.4355 403.417 37.4355H357.952C356.688 37.4355 355.664 38.4597 355.664 39.7231V69.5142C355.664 70.7776 356.688 71.8017 357.952 71.8017Z" fill="#0A5840" fill-opacity="0.6"/>
<path d="M371.582 57.6254C371.582 58.8291 371.404 59.7643 371.047 60.4307C370.386 61.6475 369.129 62.2557 367.276 62.2557C366.207 62.2557 365.294 61.966 364.536 61.3868C363.778 60.8077 363.398 59.7771 363.398 58.295V57.2757H365.214V58.295C365.214 59.0715 365.387 59.6558 365.734 60.0473C366.081 60.4389 366.621 60.6346 367.354 60.6346C368.385 60.6346 369.06 60.2819 369.378 59.5765C369.572 59.143 369.669 58.3243 369.669 57.1206V47.6172H371.582L371.582 57.6254Z" fill="#0A5840"/>
<path d="M386.265 49.6554C387.21 50.9174 387.682 52.5321 387.682 54.4994C387.682 56.6287 387.142 58.3986 386.061 59.8092C384.792 61.4661 382.984 62.2942 380.635 62.2942C378.441 62.2942 376.716 61.5695 375.461 60.1198C374.341 58.7218 373.781 56.9551 373.781 54.8196C373.781 52.8912 374.26 51.241 375.218 49.869C376.447 48.1087 378.266 47.2285 380.673 47.2285C383.191 47.2285 385.054 48.0376 386.265 49.6554ZM384.561 58.7447C385.322 57.5239 385.702 56.1199 385.702 54.5332C385.702 52.8557 385.263 51.5053 384.386 50.482C383.509 49.4586 382.311 48.9468 380.79 48.9468C379.314 48.9468 378.111 49.4538 377.179 50.4673C376.247 51.481 375.781 52.9754 375.781 54.9508C375.781 56.5313 376.18 57.864 376.98 58.9486C377.779 60.0336 379.075 60.5759 380.868 60.5759C382.569 60.5761 383.801 59.9657 384.561 58.7447Z" fill="#0A5840"/>
<path d="M389.93 47.6172H396.096C397.776 47.6172 398.972 48.1155 399.682 49.1121C400.098 49.7011 400.307 50.3805 400.307 51.1506C400.307 52.0502 400.051 52.788 399.54 53.3638C399.274 53.6681 398.893 53.9463 398.395 54.1986C399.126 54.477 399.673 54.7907 400.035 55.1402C400.676 55.7614 400.996 56.6191 400.996 57.7125C400.996 58.6316 400.706 59.4632 400.127 60.2073C399.261 61.3205 397.884 61.877 395.995 61.877H389.93L389.93 47.6172ZM395.374 53.6454C396.198 53.6454 396.839 53.5324 397.296 53.3056C398.016 52.9497 398.376 52.3091 398.376 51.3836C398.376 50.4516 397.993 49.8242 397.228 49.5004C396.796 49.3192 396.155 49.2286 395.305 49.2286H391.823V53.6454H395.374ZM396.027 60.227C397.222 60.227 398.075 59.8842 398.584 59.1981C398.904 58.7646 399.065 58.2404 399.065 57.6256C399.065 56.5902 398.597 55.8848 397.663 55.5094C397.167 55.3089 396.51 55.2085 395.694 55.2085H391.823V60.2272H396.027V60.227Z" fill="#0A5840"/>
<path d="M361.951 80.2965C361.849 80.2965 361.745 80.2797 361.643 80.2449C361.254 80.1134 361.003 79.7635 361.003 79.3535V70.8729H359.276C357.849 70.8729 356.688 69.7115 356.688 68.284V38.4931C356.688 37.0656 357.849 35.9043 359.276 35.9043H404.742C406.169 35.9043 407.331 37.0656 407.331 38.4931V68.2842C407.331 69.7117 406.17 70.8731 404.742 70.8731H369.626L362.692 79.9262C362.509 80.1656 362.237 80.2965 361.951 80.2965ZM359.277 36.5069C358.181 36.5069 357.29 37.3979 357.29 38.4931V68.2842C357.29 69.3795 358.181 70.2705 359.277 70.2705H361.606V79.3537C361.606 79.5789 361.782 79.6562 361.836 79.6745C361.89 79.693 362.077 79.7388 362.214 79.5598L369.329 70.2707H404.743C405.838 70.2707 406.729 69.3797 406.729 68.2844V38.4931C406.729 37.3979 405.838 36.5069 404.743 36.5069H359.277Z" fill="#0A5840"/>
<path d="M278.004 214.667C285.35 201.971 287.312 187.174 283.529 173.002C279.746 158.83 270.67 146.979 257.974 139.633C245.278 132.287 230.481 130.325 216.309 134.108C202.137 137.891 190.287 146.967 182.94 159.663C175.594 172.359 173.632 187.156 177.415 201.328C180.518 212.952 187.184 223.012 196.485 230.308C195.556 230.361 194.671 230.864 194.17 231.729L154.564 300.179C153.774 301.545 154.241 303.293 155.606 304.083L166.418 310.339C167.784 311.13 169.532 310.663 170.322 309.297L209.928 240.847C210.429 239.982 210.424 238.963 210.006 238.132C220.967 242.56 233.011 243.325 244.635 240.222C258.807 236.438 270.658 227.363 278.004 214.667ZM206.692 228.264C195.714 221.912 187.867 211.665 184.596 199.411C181.324 187.157 183.021 174.363 189.373 163.384C195.725 152.407 205.972 144.559 218.226 141.288C230.48 138.017 243.274 139.714 254.252 146.066C265.231 152.418 273.078 162.664 276.349 174.919C279.62 187.172 277.924 199.967 271.572 210.945C265.219 221.923 254.973 229.77 242.719 233.042C230.464 236.313 217.67 234.616 206.692 228.264Z" fill="#0A5840"/>
<path d="M262.555 221.594C280.751 203.398 280.751 173.895 262.555 155.699C244.358 137.502 214.855 137.502 196.659 155.699C178.462 173.895 178.462 203.398 196.659 221.594C214.855 239.791 244.358 239.791 262.555 221.594Z" fill="white"/>
<path opacity="0.61" d="M262.555 221.594C280.751 203.398 280.751 173.895 262.555 155.699C244.358 137.502 214.855 137.502 196.659 155.699C178.462 173.895 178.462 203.398 196.659 221.594C214.855 239.791 244.358 239.791 262.555 221.594Z" fill="#CCE6FF"/>
<mask id="mask2_4291_20397" style="mask-type:luminance" maskUnits="userSpaceOnUse" x="183" y="142" width="94" height="94">
<path d="M262.555 221.592C280.751 203.396 280.751 173.893 262.555 155.697C244.358 137.5 214.855 137.5 196.659 155.697C178.462 173.893 178.462 203.396 196.659 221.592C214.855 239.789 244.358 239.789 262.555 221.592Z" fill="white"/>
</mask>
<g mask="url(#mask2_4291_20397)">
<path opacity="0.26" d="M252.057 142.438L173.977 175.153L175.22 197.7L272.061 159.734L252.057 142.438Z" fill="#0A5840" fill-opacity="0.6"/>
</g>
<mask id="mask3_4291_20397" style="mask-type:luminance" maskUnits="userSpaceOnUse" x="183" y="142" width="94" height="94">
<path d="M262.555 221.592C280.751 203.396 280.751 173.893 262.555 155.697C244.358 137.5 214.855 137.5 196.659 155.697C178.462 173.893 178.462 203.396 196.659 221.592C214.855 239.789 244.358 239.789 262.555 221.592Z" fill="white"/>
</mask>
<g mask="url(#mask3_4291_20397)">
<path opacity="0.18" d="M285.103 162.738L180.406 204.661L189.814 223.633L292.363 183.429L285.103 162.738Z" fill="#0A5840" fill-opacity="0.6"/>
</g>
<mask id="mask4_4291_20397" style="mask-type:luminance" maskUnits="userSpaceOnUse" x="183" y="142" width="94" height="94">
<path d="M262.555 221.592C280.751 203.396 280.751 173.893 262.555 155.697C244.358 137.5 214.855 137.5 196.659 155.697C178.462 173.893 178.462 203.396 196.659 221.592C214.855 239.789 244.358 239.789 262.555 221.592Z" fill="white"/>
</mask>
<g mask="url(#mask4_4291_20397)">
<path opacity="0.1" d="M293.494 189.566L188.797 231.489L197.453 241.447L297.886 202.082L293.494 189.566Z" fill="#0A5840" fill-opacity="0.6"/>
</g>
<path opacity="0.14" d="M282.449 219.487C289.795 206.791 291.757 191.994 287.974 177.822C284.191 163.65 275.116 151.8 262.42 144.453C249.723 137.107 234.926 135.145 220.754 138.928C206.582 142.711 194.732 151.787 187.386 164.483C180.04 177.179 178.078 191.976 181.86 206.149C184.963 217.773 191.629 227.833 200.93 235.129C200.001 235.181 199.116 235.684 198.616 236.549L159.01 305C158.219 306.366 158.686 308.113 160.052 308.904L170.864 315.16C172.229 315.95 173.978 315.484 174.768 314.118L214.374 245.667C214.874 244.802 214.869 243.784 214.452 242.952C225.413 247.38 237.456 248.146 249.08 245.043C263.253 241.259 275.103 232.183 282.449 219.487ZM211.137 233.084C200.159 226.732 192.312 216.486 189.041 204.231C185.77 191.977 187.466 179.183 193.818 168.205C200.17 157.227 210.417 149.379 222.671 146.108C234.925 142.837 247.72 144.534 258.698 150.886C269.676 157.238 277.523 167.484 280.794 179.739C284.065 191.993 282.369 204.787 276.017 215.765C269.665 226.743 259.418 234.591 247.164 237.862C234.91 241.133 222.115 239.436 211.137 233.084Z" fill="#0A5840" fill-opacity="0.6"/>
<path d="M466.827 146.588H311.28C300.412 146.588 291.602 137.778 291.602 126.909C291.602 116.041 300.412 107.23 311.28 107.23H466.827C477.695 107.23 486.506 116.041 486.506 126.909C486.506 137.778 477.695 146.588 466.827 146.588Z" fill="#F4F7FD"/>
<path d="M464.078 146.29H308.532C297.348 146.29 288.25 137.192 288.25 126.008C288.25 114.825 297.348 105.727 308.532 105.727H464.078C475.261 105.727 484.36 114.825 484.36 126.008C484.359 137.192 475.261 146.29 464.078 146.29ZM308.532 106.932C298.013 106.932 289.455 115.49 289.455 126.008C289.455 136.527 298.013 145.085 308.532 145.085H464.078C474.597 145.085 483.155 136.527 483.155 126.008C483.155 115.49 474.597 106.932 464.078 106.932H308.532Z" fill="#0A5840"/>
<path d="M311.813 127.203H309.931C309.339 127.203 308.859 126.723 308.859 126.131V124.249C308.859 123.658 309.339 123.178 309.931 123.178H311.813C312.404 123.178 312.884 123.658 312.884 124.249V126.131C312.884 126.723 312.404 127.203 311.813 127.203Z" fill="#0A5840"/>
<path d="M318.867 127.203H316.986C316.394 127.203 315.914 126.723 315.914 126.131V124.249C315.914 123.658 316.394 123.178 316.986 123.178H318.867C319.459 123.178 319.939 123.658 319.939 124.249V126.131C319.939 126.723 319.459 127.203 318.867 127.203Z" fill="#0A5840"/>
<path d="M325.922 127.203H324.04C323.449 127.203 322.969 126.723 322.969 126.131V124.249C322.969 123.658 323.449 123.178 324.04 123.178H325.922C326.514 123.178 326.994 123.658 326.994 124.249V126.131C326.994 126.723 326.514 127.203 325.922 127.203Z" fill="#0A5840"/>
<path d="M332.984 127.203H331.103C330.511 127.203 330.031 126.723 330.031 126.131V124.249C330.031 123.658 330.511 123.178 331.103 123.178H332.984C333.576 123.178 334.056 123.658 334.056 124.249V126.131C334.056 126.723 333.576 127.203 332.984 127.203Z" fill="#0A5840"/>
<path d="M340.039 127.203H338.158C337.566 127.203 337.086 126.723 337.086 126.131V124.249C337.086 123.658 337.566 123.178 338.158 123.178H340.039C340.631 123.178 341.111 123.658 341.111 124.249V126.131C341.111 126.723 340.631 127.203 340.039 127.203Z" fill="#0A5840"/>
<path d="M347.094 127.203H345.212C344.62 127.203 344.141 126.723 344.141 126.131V124.249C344.141 123.658 344.62 123.178 345.212 123.178H347.094C347.686 123.178 348.166 123.658 348.166 124.249V126.131C348.166 126.723 347.686 127.203 347.094 127.203Z" fill="#0A5840"/>
<path d="M354.156 127.203H352.275C351.683 127.203 351.203 126.723 351.203 126.131V124.249C351.203 123.658 351.683 123.178 352.275 123.178H354.156C354.748 123.178 355.228 123.658 355.228 124.249V126.131C355.228 126.723 354.748 127.203 354.156 127.203Z" fill="#0A5840"/>
<path d="M361.211 127.203H359.33C358.738 127.203 358.258 126.723 358.258 126.131V124.249C358.258 123.658 358.738 123.178 359.33 123.178H361.211C361.803 123.178 362.283 123.658 362.283 124.249V126.131C362.283 126.723 361.803 127.203 361.211 127.203Z" fill="#0A5840"/>
<path d="M368.266 127.203H366.384C365.792 127.203 365.312 126.723 365.312 126.131V124.249C365.312 123.658 365.792 123.178 366.384 123.178H368.266C368.858 123.178 369.337 123.658 369.337 124.249V126.131C369.337 126.723 368.858 127.203 368.266 127.203Z" fill="#0A5840"/>
<path d="M375.32 127.203H373.439C372.847 127.203 372.367 126.723 372.367 126.131V124.249C372.367 123.658 372.847 123.178 373.439 123.178H375.32C375.912 123.178 376.392 123.658 376.392 124.249V126.131C376.392 126.723 375.912 127.203 375.32 127.203Z" fill="#0A5840"/>
<path d="M382.383 127.203H380.501C379.91 127.203 379.43 126.723 379.43 126.131V124.249C379.43 123.658 379.91 123.178 380.501 123.178H382.383C382.975 123.178 383.455 123.658 383.455 124.249V126.131C383.455 126.723 382.975 127.203 382.383 127.203Z" fill="#0A5840"/>
<path d="M389.438 127.203H387.556C386.964 127.203 386.484 126.723 386.484 126.131V124.249C386.484 123.658 386.964 123.178 387.556 123.178H389.438C390.029 123.178 390.509 123.658 390.509 124.249V126.131C390.509 126.723 390.029 127.203 389.438 127.203Z" fill="#0A5840"/>
<path d="M396.492 127.203H394.611C394.019 127.203 393.539 126.723 393.539 126.131V124.249C393.539 123.658 394.019 123.178 394.611 123.178H396.492C397.084 123.178 397.564 123.658 397.564 124.249V126.131C397.564 126.723 397.084 127.203 396.492 127.203Z" fill="#0A5840"/>
<path d="M403.555 127.203H401.673C401.081 127.203 400.602 126.723 400.602 126.131V124.249C400.602 123.658 401.081 123.178 401.673 123.178H403.555C404.147 123.178 404.626 123.658 404.626 124.249V126.131C404.626 126.723 404.147 127.203 403.555 127.203Z" fill="#0A5840"/>
<path d="M410.609 127.203H408.728C408.136 127.203 407.656 126.723 407.656 126.131V124.249C407.656 123.658 408.136 123.178 408.728 123.178H410.609C411.201 123.178 411.681 123.658 411.681 124.249V126.131C411.681 126.723 411.201 127.203 410.609 127.203Z" fill="#0A5840"/>
<path d="M417.664 127.203H415.783C415.191 127.203 414.711 126.723 414.711 126.131V124.249C414.711 123.658 415.191 123.178 415.783 123.178H417.664C418.256 123.178 418.736 123.658 418.736 124.249V126.131C418.736 126.723 418.256 127.203 417.664 127.203Z" fill="#0A5840"/>
<path d="M424.719 127.203H422.837C422.245 127.203 421.766 126.723 421.766 126.131V124.249C421.766 123.658 422.245 123.178 422.837 123.178H424.719C425.311 123.178 425.791 123.658 425.791 124.249V126.131C425.791 126.723 425.311 127.203 424.719 127.203Z" fill="#0A5840"/>
<path d="M431.781 127.203H429.9C429.308 127.203 428.828 126.723 428.828 126.131V124.249C428.828 123.658 429.308 123.178 429.9 123.178H431.781C432.373 123.178 432.853 123.658 432.853 124.249V126.131C432.853 126.723 432.373 127.203 431.781 127.203Z" fill="#0A5840"/>
<path d="M438.836 127.203H436.955C436.363 127.203 435.883 126.723 435.883 126.131V124.249C435.883 123.658 436.363 123.178 436.955 123.178H438.836C439.428 123.178 439.908 123.658 439.908 124.249V126.131C439.908 126.723 439.428 127.203 438.836 127.203Z" fill="#0A5840"/>
<path d="M445.891 127.203H444.009C443.417 127.203 442.938 126.723 442.938 126.131V124.249C442.938 123.658 443.417 123.178 444.009 123.178H445.891C446.483 123.178 446.962 123.658 446.962 124.249V126.131C446.962 126.723 446.483 127.203 445.891 127.203Z" fill="#0A5840"/>
<path d="M452.953 127.203H451.072C450.48 127.203 450 126.723 450 126.131V124.249C450 123.658 450.48 123.178 451.072 123.178H452.953C453.545 123.178 454.025 123.658 454.025 124.249V126.131C454.025 126.723 453.545 127.203 452.953 127.203Z" fill="#0A5840"/>
<path d="M460.008 127.203H458.126C457.535 127.203 457.055 126.723 457.055 126.131V124.249C457.055 123.658 457.535 123.178 458.126 123.178H460.008C460.6 123.178 461.08 123.658 461.08 124.249V126.131C461.08 126.723 460.6 127.203 460.008 127.203Z" fill="#0A5840"/>
<path d="M467.063 127.203H465.181C464.589 127.203 464.109 126.723 464.109 126.131V124.249C464.109 123.658 464.589 123.178 465.181 123.178H467.063C467.654 123.178 468.134 123.658 468.134 124.249V126.131C468.134 126.723 467.654 127.203 467.063 127.203Z" fill="#0A5840"/>
<path d="M100.985 316.523H96.6412H85.4146C84.7188 316.523 84.2197 317.194 84.4194 317.86L91.2311 340.61C91.3629 341.05 91.7674 341.351 92.2264 341.351H96.6412H100.985H105.4C105.859 341.351 106.264 341.05 106.395 340.61L113.207 317.86C113.407 317.194 112.908 316.523 112.212 316.523H100.985Z" fill="#0A5840"/>
<path d="M109.784 305.437C110.213 304.305 110.767 303.175 111.694 302.397C112.62 301.619 113.998 301.274 115.069 301.838C115.855 302.252 116.671 303.129 117.447 302.696C117.931 302.426 118.038 301.788 118.071 301.235C118.178 299.434 118.156 297.405 119.439 296.137C120.704 294.888 122.751 294.913 124.473 295.352C125.285 295.56 126.184 295.832 126.925 295.438C127.32 295.227 127.602 294.853 127.836 294.47C128.661 293.122 129.186 291.394 130.629 290.75C132.952 289.714 135.662 292.335 138.051 291.462C138.986 291.121 139.786 290.261 140.776 290.355C141.266 290.401 141.706 290.687 142.046 291.043C143.198 292.25 143.21 294.37 142.063 295.582C140.538 297.193 137.74 296.968 136.197 298.562C134.716 300.094 134.838 302.873 133.03 304.001C131.507 304.952 129.453 304.172 127.76 304.772C126.403 305.253 125.516 306.522 124.637 307.663C123.758 308.803 122.64 309.965 121.203 310.055C120.448 310.101 119.697 309.838 118.944 309.907C116.777 310.105 115.57 312.843 113.419 313.168C111.975 313.385 110.739 312.424 109.739 311.507C109.343 311.143 108.972 310.732 108.829 310.2C108.657 309.56 108.8 308.868 108.942 308.238C109.156 307.286 109.439 306.349 109.784 305.437Z" fill="#6CB597"/>
<path d="M94.2436 300.947C93.0636 300.07 92.3481 298.378 93.0459 297.084C93.3857 296.453 93.9919 296.018 94.4706 295.486C94.9494 294.953 95.3154 294.19 95.0319 293.533C94.8916 293.207 94.6142 292.964 94.346 292.731C93.3789 291.894 92.3987 291.023 91.79 289.898C91.1814 288.773 91.0094 287.324 91.6827 286.236C92.1909 285.415 93.0794 284.927 93.8507 284.346C94.622 283.765 95.3539 282.936 95.2896 281.972C95.2097 280.771 93.9144 279.679 94.3956 278.575C94.8944 277.432 96.886 277.495 97.2118 276.291C97.3737 275.693 97.013 275.094 96.8643 274.492C96.5335 273.152 97.441 271.63 98.7779 271.284C100.115 270.938 101.646 271.828 102.008 273.161C102.258 274.084 102.004 275.109 102.369 275.992C102.843 277.139 104.201 277.687 104.796 278.776C105.89 280.778 103.902 283.15 104.069 285.426C104.245 287.833 106.816 289.88 106.154 292.201C105.894 293.11 105.164 293.828 104.911 294.739C104.61 295.825 105.033 296.961 105.336 298.047C105.639 299.132 105.784 300.419 105.056 301.279C104.517 301.916 103.641 302.14 102.816 302.268C100.531 302.624 98.2601 302.52 96.0491 301.828C95.4072 301.627 94.7853 301.35 94.2436 300.947Z" fill="#6CB597"/>
<path d="M98.7598 322.244C98.7072 322.244 98.6541 322.23 98.6061 322.2C98.4696 322.115 98.4278 321.936 98.5128 321.799C100.611 318.428 103.216 315.422 106.253 312.863C109.6 310.044 113.428 307.819 117.13 305.666L142.271 291.048C142.41 290.966 142.588 291.014 142.669 291.153C142.75 291.292 142.703 291.47 142.564 291.551L117.423 306.17C113.742 308.31 109.937 310.522 106.629 313.309C103.638 315.828 101.074 318.788 99.0074 322.107C98.9524 322.196 98.8572 322.244 98.7598 322.244Z" fill="#0A5840"/>
<path d="M99.5683 321.004C99.4114 321.004 99.2819 320.879 99.2773 320.721C98.8468 306.1 99.1682 286.029 99.5135 271.767C99.5175 271.606 99.648 271.48 99.8117 271.482C99.9726 271.486 100.1 271.62 100.096 271.781C99.7507 286.037 99.4295 306.096 99.8595 320.704C99.8644 320.865 99.7378 320.999 99.5769 321.004C99.5743 321.004 99.5713 321.004 99.5683 321.004Z" fill="#0A5840"/>
<path d="M85.0701 313.12C83.3725 312.936 81.65 311.811 81.3449 310.131C81.1014 308.791 81.6502 307.065 80.5376 306.279C80.1472 306.003 79.6467 305.945 79.169 305.922C77.4423 305.84 75.549 306.066 74.1384 305.067C72.0857 303.614 72.291 300.598 72.1239 298.089C72.0811 297.445 71.9732 296.748 71.5072 296.301C71.0097 295.824 70.2587 295.771 69.5863 295.619C67.1356 295.065 65.2217 292.696 65.1956 290.184C65.1875 289.416 65.3573 288.609 65.8684 288.036C66.2161 287.646 66.6966 287.394 67.1959 287.241C68.7881 286.751 70.6456 287.283 71.7376 288.541C72.4197 289.326 72.8124 290.349 73.5813 291.05C75.7541 293.031 79.3245 291.404 82.1192 292.318C83.6824 292.83 84.9319 294.204 85.2921 295.809C85.6046 297.201 85.3017 298.75 85.9826 300.003C87.1524 302.157 90.22 302.035 92.4805 302.983C93.0242 303.21 93.557 303.533 93.8649 304.036C94.1032 304.425 94.1863 304.888 94.2239 305.343C94.3759 307.18 93.7946 309.046 92.706 310.524C92.2181 311.187 91.5666 311.954 90.7953 312.291C90.2098 312.547 89.5211 312.454 88.9048 312.603C87.6274 312.911 86.4018 313.264 85.0701 313.12Z" fill="#6CB597"/>
<path d="M98.0325 322.663C97.9284 322.663 97.8278 322.607 97.7752 322.508C93.7533 314.986 85.0468 305.051 80.8628 300.277C79.6087 298.846 78.3118 297.366 76.8012 296.172C75.5591 295.191 74.1272 294.365 72.7423 293.566C70.2015 292.1 67.5739 290.585 66.0121 288.048C65.9277 287.91 65.9703 287.731 66.1075 287.647C66.2445 287.563 66.4238 287.605 66.5082 287.742C67.9929 290.154 70.4413 291.566 73.0333 293.061C74.4363 293.87 75.8871 294.707 77.1625 295.715C78.7149 296.941 80.0297 298.442 81.3011 299.893C85.4994 304.684 94.2355 314.652 98.2892 322.233C98.3649 322.375 98.3115 322.552 98.1697 322.628C98.1259 322.651 98.0787 322.663 98.0325 322.663Z" fill="#0A5840"/>
<path d="M452.114 179.404C452.114 179.404 438.882 204.21 436.758 206.211C434.634 208.211 404.648 216.464 404.648 216.464L405.833 220.809C405.833 220.809 442.976 221.67 444.868 220.809C446.759 219.947 457.663 210.268 457.663 210.268L452.114 179.404Z" fill="#0A5840" fill-opacity="0.6"/>
<path d="M433.836 328.202L434.743 333.652H441.639L441.241 327.41L433.836 328.202Z" fill="#FFC0B1"/>
<path d="M409.039 327.104L409.417 334.525L415.572 334.05L416.486 327.159L409.039 327.104Z" fill="#FFC0B1"/>
<path d="M462.359 237.388C462.359 237.388 418.565 252.048 412.037 258.576C405.508 265.105 408.102 327.362 408.102 327.362H417.469L430.656 276.132C430.656 276.132 483.737 274.952 489.475 264.873C497.044 251.577 491.265 234.266 491.265 234.266L462.359 237.388Z" fill="#0A5840"/>
<path d="M465.047 240.839C465.047 240.839 428.627 262.051 424.003 269.093C419.379 276.136 433.17 328.274 433.17 328.274L441.702 327.362L443.893 281.332C443.893 281.332 491.108 270.447 494.368 260.378C498.669 247.094 490.299 232.695 490.299 232.695L465.047 240.839Z" fill="#0A5840"/>
<path d="M416.599 332.607C416.599 332.607 411.023 334.156 408.442 332.607L397.273 338.441C395.761 339.231 394.812 340.796 394.812 342.503V342.623H416.788C417.451 342.623 417.96 342.036 417.865 341.38L416.599 332.607Z" fill="#0A5840"/>
<path d="M441.943 332.607C441.943 332.607 436.367 334.156 433.786 332.607L422.617 338.441C421.104 339.231 420.156 340.796 420.156 342.503V342.623H442.132C442.795 342.623 443.303 342.036 443.209 341.38L441.943 332.607Z" fill="#0A5840"/>
<path d="M462.847 172.772L458.642 155.64L458.641 155.641C458.636 152.411 458.004 148.55 456.396 144.024C455.331 141.025 451.911 139.595 449.018 140.92L440.865 144.654C438.646 145.67 437.457 148.119 438.037 150.491C438.724 153.302 439.543 156.963 439.805 159.412C440.034 161.552 440.625 164.046 442.037 165.899C444.506 169.142 448.856 170.244 452.436 168.603L453.452 179.72L462.847 172.772Z" fill="#FFC0B1"/>
<path d="M442.694 158.339C442.436 158.339 442.188 158.242 441.995 158.063C441.756 157.841 441.637 157.529 441.669 157.205L442.318 150.55C442.331 150.421 442.447 150.326 442.575 150.339C442.703 150.352 442.798 150.466 442.785 150.595L442.136 157.25C442.119 157.427 442.183 157.598 442.314 157.719C442.444 157.84 442.62 157.891 442.795 157.861L444.821 157.507C444.951 157.485 445.071 157.57 445.093 157.697C445.115 157.825 445.03 157.946 444.902 157.969L442.875 158.323C442.815 158.333 442.754 158.339 442.694 158.339Z" fill="#0A5840"/>
<path d="M447.644 158.324C447.644 158.324 445.168 160.579 442 161.38C442 161.38 446.601 164.189 447.644 158.324Z" fill="white"/>
<path d="M443.766 161.005C443.674 161.005 443.586 160.951 443.549 160.86C443.5 160.74 443.557 160.603 443.676 160.554C446.148 159.535 447.638 157.851 447.653 157.834C447.739 157.737 447.887 157.727 447.984 157.812C448.081 157.897 448.091 158.045 448.006 158.142C447.943 158.215 446.433 159.925 443.855 160.987C443.826 160.999 443.796 161.005 443.766 161.005Z" fill="#0A5840"/>
<path d="M440.995 151.825C440.995 152.383 440.631 152.835 440.181 152.835C439.732 152.835 439.367 152.383 439.367 151.825C439.367 151.267 439.732 150.814 440.181 150.814C440.63 150.814 440.995 151.267 440.995 151.825Z" fill="#0A5840"/>
<path d="M445.634 151.179C446.084 151.179 446.448 150.726 446.448 150.168C446.448 149.611 446.084 149.158 445.634 149.158C445.185 149.158 444.82 149.611 444.82 150.168C444.82 150.726 445.185 151.179 445.634 151.179Z" fill="#0A5840"/>
<path d="M437.892 148.163C437.892 148.163 446.903 148.918 450.845 145.898C450.845 145.898 450.929 151.889 452.355 152.836C453.781 153.783 458.154 152.82 459.518 158.874C459.518 158.874 461.918 152.273 460.827 144.556C459.737 136.839 454.871 133.148 450.174 133.567C445.477 133.987 428.153 140.423 437.892 148.163Z" fill="#0A5840"/>
<path d="M457.354 151.369C457.892 149.119 457.259 147.04 455.94 146.724C454.62 146.408 453.114 147.976 452.576 150.226C452.038 152.475 452.671 154.555 453.991 154.87C455.31 155.186 456.816 153.618 457.354 151.369Z" fill="#FFC0B1"/>
<path d="M453.841 152.541C453.717 152.541 453.613 152.444 453.607 152.318C453.48 149.664 455.603 147.493 455.693 147.401C455.784 147.31 455.932 147.309 456.024 147.4C456.116 147.491 456.117 147.64 456.026 147.732C456.005 147.752 453.958 149.851 454.075 152.296C454.082 152.425 453.982 152.535 453.852 152.541C453.849 152.541 453.845 152.541 453.841 152.541Z" fill="#0A5840"/>
<path d="M462.85 170.23C462.85 170.23 488.946 181.24 493.715 238.094C493.715 238.094 482.465 244.916 454.939 240.955C454.939 240.955 455.676 234.814 455.419 232.29C455.161 229.767 446.982 191.215 452.106 179.404L462.85 170.23Z" fill="#0A5840" fill-opacity="0.6"/>
<path d="M452.438 168.836C452.346 168.836 452.259 168.783 452.222 168.693C452.171 168.574 452.227 168.436 452.346 168.386C452.383 168.37 454.981 167.215 456.472 163.156C456.517 163.034 456.652 162.972 456.774 163.016C456.895 163.061 456.958 163.196 456.913 163.318C455.343 167.59 452.643 168.77 452.529 168.818C452.499 168.831 452.468 168.836 452.438 168.836Z" fill="#0A5840"/>
<path d="M462.179 183.486C462.179 183.486 453.98 204.466 451.551 207.665C449.121 210.864 412.07 216.887 412.07 216.887L414.261 222.91C414.261 222.91 452.26 225.1 456.897 222.91C461.533 220.72 471.936 213.237 474.856 202.65C477.776 192.064 471.405 178.741 462.179 183.486Z" fill="#0A5840" fill-opacity="0.6"/>
<path d="M443.69 224.122C431.427 224.122 415.274 223.203 414.252 223.144C414.123 223.137 414.024 223.026 414.032 222.897C414.039 222.767 414.145 222.67 414.279 222.676C414.658 222.698 452.272 224.838 456.801 222.698C460.731 220.842 471.595 213.61 474.635 202.588C474.67 202.463 474.801 202.39 474.924 202.424C475.049 202.459 475.122 202.588 475.088 202.713C472 213.905 460.985 221.24 457.002 223.122C455.414 223.872 450.08 224.122 443.69 224.122Z" fill="#0A5840"/>
<path d="M412.07 217.122C411.957 217.122 411.858 217.04 411.839 216.925C411.818 216.797 411.905 216.677 412.033 216.656C424.816 214.578 449.487 209.995 451.364 207.523C453.746 204.387 461.879 183.611 461.961 183.401C462.009 183.281 462.145 183.221 462.265 183.268C462.386 183.315 462.445 183.451 462.398 183.572C462.063 184.43 454.159 204.619 451.738 207.807C449.28 211.043 413.625 216.872 412.108 217.119C412.095 217.121 412.082 217.122 412.07 217.122Z" fill="#0A5840"/>
<path d="M452.439 206.456C452.315 206.456 452.211 206.358 452.205 206.232C452.197 206.068 451.43 189.726 452.206 183.458C452.223 183.329 452.339 183.239 452.468 183.254C452.597 183.269 452.688 183.386 452.672 183.515C451.901 189.744 452.666 206.046 452.674 206.21C452.68 206.34 452.58 206.449 452.451 206.456C452.447 206.456 452.443 206.456 452.439 206.456Z" fill="#0A5840"/>
<path d="M412.759 217.899C412.759 217.899 408.285 216.862 406.337 217.627C405.635 217.903 397.742 224.273 397.742 224.273H399.561H409.403L413.914 221.951L412.759 217.899Z" fill="#FFC0B1"/>
<path d="M404.882 217.346C404.882 217.346 401.156 217.065 399.946 217.346C398.736 217.626 392.539 220.458 392.539 220.809C392.539 221.16 393.168 221.644 393.991 221.451C394.814 221.257 401.785 219.358 401.785 219.358C401.785 219.358 397.815 221.305 397.235 222.128C396.654 222.951 396.121 224.273 396.121 224.273H403.431L405.826 220.809L404.882 217.346Z" fill="#FFC0B1"/>
<path d="M398.052 224.474C398.033 224.474 398.012 224.471 397.992 224.465C397.887 224.432 397.828 224.319 397.861 224.213C397.87 224.183 398.097 223.475 398.801 222.771C399.483 222.089 404.84 218.412 405.067 218.256C405.159 218.193 405.284 218.216 405.346 218.308C405.409 218.399 405.386 218.524 405.294 218.587C405.239 218.625 399.741 222.399 399.085 223.055C398.451 223.69 398.246 224.327 398.244 224.333C398.217 224.419 398.138 224.474 398.052 224.474Z" fill="#0A5840"/>
<path d="M472.23 278.949L456.898 342.622H458.172L477.703 278.607L472.23 278.949Z" fill="#0A5840"/>
<path d="M493.769 278.949L509.101 342.622H507.828L488.297 278.607L493.769 278.949Z" fill="#0A5840"/>
<path d="M458.83 276.366C458.83 276.366 481.342 265.033 492.066 248.082C497.692 239.19 498.349 215.936 502.993 215.579C507.636 215.222 511.922 222.722 513.351 230.937C514.779 239.152 514.779 270.718 504.421 276.366C494.063 282.013 458.245 284.513 455.795 283.442C453.345 282.371 452.528 280.005 458.83 276.366Z" fill="#052018"/>
<path d="M468.693 230.629H309.419C308.415 230.629 307.602 229.816 307.602 228.812C307.602 227.808 308.415 226.994 309.419 226.994H468.693C469.696 226.994 470.51 227.808 470.51 228.812C470.51 229.816 469.697 230.629 468.693 230.629Z" fill="#052018"/>
<path d="M318.751 342.622H315.938L337.596 230.629H340.409L318.751 342.622Z" fill="#052018"/>
<path d="M459.37 342.622H462.183L440.524 230.629H437.711L459.37 342.622Z" fill="#052018"/>
<path d="M367.351 224.272L348.946 181.32C348.756 180.877 348.32 180.59 347.839 180.59C346.974 180.59 346.391 181.474 346.732 182.269L365.898 226.995H367.352H368.519H411.4C412.152 226.995 412.762 226.385 412.762 225.633C412.762 224.881 412.152 224.272 411.4 224.272H367.351Z" fill="#0A5840"/>
<path d="M599.197 342.954H0.803418C0.359529 342.954 0 342.595 0 342.151C0 341.707 0.359529 341.348 0.803418 341.348H599.197C599.64 341.348 600 341.707 600 342.151C600 342.595 599.641 342.954 599.197 342.954Z" fill="#0A5840"/>
</svg>
