<svg width="406" height="400" viewBox="0 0 406 400" fill="none" xmlns="http://www.w3.org/2000/svg">
<path opacity="0.3" d="M386.255 271.205C345.414 365.611 237.605 406.161 153.136 399.247C130.072 397.359 83.6675 393.561 47.4343 359.676C-22.1488 294.601 -11.4324 158.577 55.1786 78.494C63.7567 68.181 123.133 -0.915655 215.66 0.00919915C283.404 0.686415 330.952 38.5304 336.734 43.2449C344.038 49.2008 360.147 63.3537 374.665 85.8065C408.779 138.563 411.777 212.211 386.255 271.205Z" fill="url(#paint0_linear_4291_17937)"/>
<path d="M232.236 42.484C232.149 38.4909 228.008 35.3962 223.742 36.1376L21.1171 52.487C14.4492 53.025 9.669 58.1981 10.1868 64.3231C14.7233 117.978 44.1894 351.045 44.1894 351.045C44.3515 354.486 232.37 359.463 232.37 359.463C236.087 359.507 238.997 356.841 238.924 353.461L232.236 42.484Z" fill="url(#paint1_linear_4291_17937)"/>
<path d="M238.946 311.816C239.234 316.56 243.3 320.179 248.044 319.916L397.401 311.642C402.164 311.378 405.811 307.304 405.547 302.541L393.155 78.839C392.891 74.0853 388.831 70.4413 384.077 70.6919L233.503 78.6277C228.713 78.8803 225.046 82.988 225.336 87.7762L238.946 311.816Z" fill="url(#paint2_linear_4291_17937)"/>
<path opacity="0.6" d="M251.552 95.5122C249.816 95.6084 248.487 97.0938 248.583 98.83L248.644 99.9357C248.74 101.672 250.226 103.001 251.962 102.905L375.531 96.0599C377.267 95.9638 378.596 94.4784 378.5 92.7422L378.439 91.6365C378.343 89.9003 376.857 88.5708 375.121 88.667L251.552 95.5122Z" fill="white"/>
<path opacity="0.6" d="M257.136 154.403C255.612 154.509 254.474 156.001 254.595 157.735L254.671 158.84C254.792 160.574 256.125 161.895 257.649 161.789L366.127 154.265C367.651 154.16 368.789 152.668 368.668 150.933L368.592 149.828C368.471 148.094 367.138 146.773 365.614 146.879L257.136 154.403Z" fill="white"/>
<path opacity="0.6" d="M257.34 177.659C255.815 177.765 254.678 179.256 254.798 180.991L254.874 182.096C254.995 183.83 256.328 185.151 257.852 185.045L366.33 177.521C367.854 177.416 368.992 175.924 368.872 174.189L368.795 173.084C368.675 171.349 367.341 170.029 365.817 170.135L257.34 177.659Z" fill="white"/>
<path opacity="0.6" d="M259.504 199.882C257.98 199.987 256.842 201.479 256.962 203.214L257.039 204.319C257.159 206.053 258.492 207.374 260.016 207.268L368.494 199.744C370.018 199.638 371.156 198.146 371.036 196.412L370.959 195.307C370.839 193.572 369.506 192.252 367.981 192.357L259.504 199.882Z" fill="white"/>
<path opacity="0.6" d="M262.527 222.803C261.003 222.909 259.865 224.401 259.985 226.136L260.062 227.24C260.182 228.975 261.515 230.295 263.039 230.19L371.517 222.666C373.041 222.56 374.179 221.068 374.059 219.334L373.982 218.229C373.862 216.494 372.529 215.174 371.005 215.279L262.527 222.803Z" fill="white"/>
<path opacity="0.6" d="M263.144 111.973C263.324 113.614 264.741 114.837 266.391 114.775L374.567 110.758C376.327 110.693 377.691 109.197 377.594 107.438L377.579 107.181C377.484 105.465 376.03 104.142 374.312 104.21L266.149 108.483C264.325 108.555 262.945 110.159 263.144 111.973Z" fill="white"/>
<path opacity="0.61" d="M262.22 303.377C262.25 303.375 262.28 303.373 262.31 303.371L383.946 295.168C385.946 295.033 387.771 294.124 389.085 292.61C390.399 291.095 391.041 289.16 390.892 287.161L378.613 122.216C378.465 120.226 377.55 118.412 376.038 117.11C374.525 115.808 372.576 115.174 370.606 115.322L249.232 124.418C245.132 124.725 242.041 128.311 242.34 132.412V132.412L254.358 296.464C254.655 300.518 258.171 303.601 262.22 303.377ZM244.82 132.231C244.62 129.494 246.682 127.101 249.418 126.896L370.792 117.8C372.108 117.697 373.407 118.124 374.416 118.993C375.425 119.863 376.035 121.072 376.134 122.401L376.815 131.549L245.522 138.823C245.448 138.827 245.375 138.839 245.305 138.855L244.82 132.231ZM256.837 296.282L245.484 141.3C245.542 141.305 245.6 141.308 245.66 141.304L377 134.028L388.413 287.345C388.513 288.679 388.085 289.97 387.208 290.981C386.331 291.991 385.113 292.598 383.778 292.688L262.143 300.891C262.122 300.893 262.102 300.894 262.082 300.895C259.382 301.044 257.035 298.988 256.837 296.282Z" fill="white"/>
<path d="M197 325.42C197.387 330.324 201.663 333.993 206.568 333.632L360.977 322.269C365.901 321.907 369.599 317.622 369.237 312.698L352.218 81.4283C351.856 76.5139 347.586 72.8189 342.67 73.1673L186.995 84.2033C182.043 84.5545 178.325 88.8742 178.716 93.8239L197 325.42Z" fill="url(#paint3_linear_4291_17937)"/>
<path opacity="0.35" d="M188.184 104.812C187.74 99.7506 191.54 95.3115 196.61 94.9698L334.739 85.6596C339.732 85.323 344.054 89.0936 344.398 94.0861L358.71 301.729C359.049 306.647 355.399 310.934 350.491 311.386L216.522 323.705C211.519 324.165 207.095 320.47 206.656 315.465L188.184 104.812Z" fill="white"/>
<path opacity="0.6" d="M205.988 101.338C204.193 101.47 202.846 103.032 202.978 104.827L203.062 105.97C203.194 107.764 204.756 109.113 206.551 108.98L334.3 99.5795C336.095 99.4474 337.443 97.8853 337.311 96.0905L337.226 94.9475C337.094 93.1525 335.532 91.8046 333.737 91.9367L205.988 101.338Z" fill="white"/>
<path opacity="0.6" d="M218.3 118.156C218.518 119.85 220.007 121.089 221.712 120.995L333.585 114.809C335.405 114.708 336.789 113.134 336.655 111.316L336.636 111.051C336.505 109.276 334.975 107.934 333.198 108.037L221.345 114.488C219.459 114.597 218.06 116.282 218.3 118.156Z" fill="white"/>
<path opacity="0.61" d="M220.928 316.25C220.958 316.248 220.99 316.245 221.021 316.243L346.744 305.472C348.812 305.295 350.683 304.321 352.015 302.729C353.346 301.137 353.974 299.122 353.783 297.056L337.982 126.59C337.792 124.533 336.811 122.674 335.221 121.355C333.632 120.035 331.602 119.416 329.567 119.606L204.132 131.295C199.895 131.69 196.763 135.459 197.149 139.697V139.697L212.662 309.244C213.045 313.434 216.742 316.558 220.928 316.25ZM199.712 139.463C199.453 136.635 201.543 134.12 204.371 133.856L329.805 122.167C331.166 122.036 332.518 122.453 333.579 123.334C334.639 124.214 335.293 125.455 335.42 126.828L336.296 136.283L200.562 146.271C200.485 146.277 200.41 146.291 200.338 146.309L199.712 139.463ZM215.224 309.009L200.569 148.836C200.629 148.84 200.689 148.842 200.751 148.837L336.534 138.845L351.221 297.293C351.348 298.672 350.93 300.016 350.042 301.078C349.153 302.141 347.904 302.791 346.524 302.909L220.801 313.679C220.78 313.681 220.76 313.683 220.739 313.684C217.947 313.89 215.48 311.805 215.224 309.009Z" fill="white"/>
<path d="M130.833 86.3713C153.481 89.4746 231.366 99.1116 295.825 94.6135C298.765 94.4082 301.304 96.5883 301.445 99.454L313.069 334.797C313.228 338.024 310.683 340.771 307.369 340.945C280.262 342.373 168.625 347.859 128.837 343.604C126.416 343.345 124.587 341.351 124.585 338.979L124.375 91.8437C124.372 88.4867 127.418 85.9034 130.833 86.3713Z" fill="url(#paint4_linear_4291_17937)"/>
<path opacity="0.35" d="M133.223 92.4864C155.018 95.4731 229.97 104.747 292.002 100.418C294.831 100.221 297.274 102.319 297.41 105.077L308.596 331.558C308.75 334.663 306.3 337.306 303.111 337.474C277.024 338.848 169.591 344.128 131.302 340.033C128.972 339.784 127.212 337.864 127.21 335.582L127.008 97.7528C127.005 94.5221 129.936 92.0362 133.223 92.4864Z" fill="white"/>
<g opacity="0.6">
<path d="M283.036 120.204C284.447 120.21 285.583 119.483 285.561 118.588C285.538 117.692 284.366 116.933 282.955 116.902L224.347 115.596C222.937 115.565 222.132 116.523 222.56 117.725C222.988 118.926 224.493 119.915 225.904 119.922L283.036 120.204Z" fill="white"/>
</g>
<g opacity="0.6">
<path d="M224.293 124.645C222.882 124.614 222.078 125.572 222.506 126.773C222.933 127.975 224.438 128.964 225.849 128.971L282.981 129.252C284.392 129.259 285.528 128.532 285.506 127.636C285.484 126.74 284.311 125.982 282.901 125.95L224.293 124.645Z" fill="white"/>
</g>
<g opacity="0.6">
<path d="M224.238 133.827C222.827 133.795 222.023 134.753 222.451 135.955C222.879 137.157 224.383 138.146 225.794 138.153L282.926 138.434C284.337 138.441 285.473 137.714 285.451 136.818C285.429 135.922 284.257 135.163 282.846 135.132L224.238 133.827Z" fill="white"/>
</g>
<g opacity="0.6">
<path d="M288.65 157.417C290.061 157.424 291.17 156.696 291.114 155.8C291.057 154.904 289.857 154.157 288.446 154.139L149.469 152.389C148.058 152.371 147.63 153.254 148.518 154.351L148.835 154.743C149.723 155.839 151.604 156.742 153.015 156.749L288.65 157.417Z" fill="white"/>
</g>
<g opacity="0.6">
<path d="M149.422 161.438C148.011 161.42 147.583 162.303 148.471 163.4L148.788 163.792C149.676 164.888 151.557 165.791 152.968 165.798L288.603 166.466C290.014 166.473 291.123 165.745 291.067 164.849C291.011 163.953 289.81 163.206 288.399 163.188L149.422 161.438Z" fill="white"/>
</g>
<path d="M172.875 206.669C172.858 206.67 172.841 206.67 172.824 206.671L154.148 206.993C151.457 207.039 149.186 205.295 148.865 202.936L146.795 187.729C146.672 186.824 146.937 185.92 147.539 185.182C148.212 184.357 149.251 183.824 150.388 183.718C151.96 183.572 154.124 183.334 156.505 183.072C161.69 182.503 167.566 181.858 171.025 181.724C171.051 181.723 171.076 181.722 171.102 181.721C173.577 181.655 175.748 183.068 176.398 185.176C177.471 188.657 177.571 195.289 177.584 202.357C177.588 204.675 175.481 206.6 172.875 206.669ZM150.534 185.195C149.806 185.263 149.149 185.594 148.732 186.106C148.389 186.525 148.238 187.033 148.306 187.534L150.376 202.741C150.595 204.353 152.205 205.542 154.122 205.51L172.797 205.188C172.809 205.187 172.822 205.187 172.834 205.187C174.619 205.139 176.063 203.877 176.06 202.36C176.048 195.407 175.952 188.893 174.938 185.602C174.488 184.146 172.835 183.098 171.086 183.206C167.682 183.338 161.58 184.009 156.676 184.546C154.285 184.809 152.112 185.047 150.534 185.195Z" fill="white"/>
<path opacity="0.6" d="M152.586 186.671C156.501 186.305 165.002 185.236 169.044 185.079C170.757 185.013 172.287 185.981 172.73 187.416C173.589 190.204 173.643 195.806 173.652 200.976C173.655 202.525 172.23 203.799 170.447 203.83L155.522 204.087C153.687 204.119 152.129 202.942 151.914 201.36L150.261 189.208C150.089 187.951 151.135 186.806 152.586 186.671Z" fill="white"/>
<g opacity="0.6">
<path d="M189.86 190.404C188.449 190.409 187.627 191.518 188.034 192.869L189.27 196.974C189.677 198.325 191.164 199.399 192.575 199.362L284.521 196.916C285.931 196.878 287.027 195.694 286.956 194.285L286.872 192.634C286.801 191.224 285.588 190.075 284.177 190.08L189.86 190.404Z" fill="white"/>
</g>
<path d="M153.448 189.041C154.812 188.213 156.609 188.638 157.43 189.983L161.293 196.312C161.68 196.945 162.643 196.879 162.935 196.199L171.513 176.159C171.941 175.16 173.461 175.453 173.475 176.536C173.551 182.594 172.224 194.148 162.556 204.047C162.556 204.047 157.021 202.12 152.345 192.809C151.67 191.464 152.144 189.834 153.448 189.041Z" fill="url(#paint5_linear_4291_17937)"/>
<path d="M173.977 245.625C173.96 245.625 173.943 245.626 173.925 245.626L155.25 245.948C152.559 245.994 150.287 244.25 149.966 241.891L147.897 226.685C147.774 225.779 148.038 224.875 148.64 224.137C149.314 223.313 150.352 222.779 151.489 222.673C153.062 222.527 155.226 222.289 157.607 222.027C162.791 221.458 168.668 220.813 172.127 220.679C172.152 220.678 172.178 220.677 172.203 220.676C174.678 220.61 176.849 222.023 177.499 224.132C178.572 227.612 178.673 234.245 178.686 241.312C178.69 243.63 176.582 245.555 173.977 245.625ZM151.635 224.15C150.907 224.218 150.251 224.549 149.833 225.061C149.491 225.48 149.339 225.988 149.408 226.489L151.477 241.696C151.696 243.308 153.307 244.498 155.223 244.465L173.899 244.142C173.911 244.142 173.923 244.142 173.936 244.141C175.72 244.094 177.164 242.832 177.162 241.315C177.149 234.362 177.053 227.848 176.04 224.558C175.59 223.1 173.937 222.072 172.188 222.162C168.784 222.293 162.681 222.964 157.777 223.501C155.386 223.764 153.213 224.002 151.635 224.15Z" fill="white"/>
<path opacity="0.6" d="M153.68 225.628C157.595 225.262 166.096 224.193 170.138 224.036C171.85 223.97 173.381 224.938 173.823 226.373C174.683 229.161 174.736 234.763 174.746 239.934C174.749 241.482 173.323 242.756 171.54 242.787L156.616 243.044C154.781 243.076 153.223 241.899 153.008 240.317L151.354 228.165C151.183 226.908 152.229 225.763 153.68 225.628Z" fill="white"/>
<g opacity="0.6">
<path d="M190.946 229.359C189.535 229.364 188.713 230.473 189.12 231.824L190.356 235.929C190.763 237.28 192.25 238.354 193.66 238.317L285.607 235.871C287.017 235.833 288.113 234.65 288.042 233.24L287.958 231.589C287.887 230.179 286.674 229.03 285.263 229.035L190.946 229.359Z" fill="white"/>
</g>
<path d="M154.534 227.998C155.898 227.17 157.695 227.595 158.516 228.94L162.379 235.269C162.766 235.902 163.729 235.836 164.02 235.156L172.599 215.116C173.027 214.117 174.547 214.41 174.561 215.493C174.637 221.551 173.31 233.105 163.642 243.004C163.642 243.004 158.107 241.077 153.431 231.766C152.756 230.421 153.23 228.791 154.534 227.998Z" fill="url(#paint6_linear_4291_17937)"/>
<path d="M173.272 283.078C173.256 283.078 173.24 283.079 173.223 283.079L154.547 283.4C151.856 283.447 149.585 281.703 149.263 279.343L147.194 264.137C147.071 263.232 147.335 262.328 147.937 261.59C148.61 260.766 149.649 260.232 150.786 260.125C152.357 259.979 154.519 259.742 156.897 259.481C161.828 258.939 167.964 258.266 171.424 258.132C173.88 258.055 176.139 259.454 176.796 261.584C177.869 265.065 177.969 271.697 177.983 278.764C177.987 281.082 175.878 283.008 173.272 283.078ZM150.932 261.603C150.204 261.671 149.547 262.002 149.13 262.514C148.787 262.934 148.636 263.441 148.704 263.942L150.774 279.148C150.993 280.76 152.604 281.95 154.52 281.917L173.196 281.596C174.955 281.518 176.461 280.295 176.459 278.767C176.446 271.814 176.35 265.301 175.336 262.01C174.887 260.553 173.234 259.543 171.484 259.615C168.079 259.746 161.974 260.416 157.068 260.955C154.68 261.217 152.509 261.455 150.932 261.603Z" fill="white"/>
<path opacity="0.6" d="M152.977 263.081C156.892 262.715 165.393 261.646 169.435 261.49C171.147 261.423 172.678 262.391 173.12 263.826C173.98 266.614 174.033 272.216 174.043 277.387C174.046 278.935 172.62 280.209 170.837 280.24L155.913 280.497C154.078 280.529 152.52 279.352 152.305 277.77L150.651 265.618C150.48 264.361 151.525 263.216 152.977 263.081Z" fill="white"/>
<g opacity="0.6">
<path d="M190.258 266.812C188.847 266.817 188.025 267.926 188.432 269.278L189.668 273.382C190.075 274.733 191.562 275.807 192.973 275.77L284.919 273.324C286.33 273.287 287.426 272.103 287.354 270.694L287.271 269.042C287.199 267.632 285.987 266.483 284.576 266.488L190.258 266.812Z" fill="white"/>
</g>
<path d="M153.847 265.451C155.211 264.623 157.008 265.048 157.829 266.393L161.692 272.722C162.079 273.355 163.042 273.289 163.333 272.609L171.911 252.569C172.339 251.57 173.859 251.863 173.873 252.946C173.949 259.004 172.622 270.558 162.954 280.457C162.954 280.457 157.419 278.53 152.744 269.219C152.069 267.874 152.542 266.244 153.847 265.451Z" fill="url(#paint7_linear_4291_17937)"/>
<path d="M172.235 321.71C172.218 321.71 172.201 321.711 172.184 321.711L153.508 322.033C150.816 322.08 148.545 320.335 148.224 317.976L146.154 302.769C146.032 301.865 146.296 300.96 146.899 300.223C147.572 299.398 148.61 298.864 149.747 298.758C151.32 298.612 153.483 298.374 155.865 298.113C161.049 297.544 166.925 296.898 170.384 296.764C172.921 296.729 175.101 298.087 175.757 300.217C176.83 303.698 176.931 310.33 176.944 317.397C176.948 319.716 174.84 321.641 172.235 321.71ZM149.893 300.236C149.165 300.303 148.508 300.635 148.091 301.146C147.748 301.565 147.597 302.073 147.665 302.574L149.735 317.781C149.954 319.393 151.565 320.583 153.481 320.55L172.157 320.228C172.169 320.227 172.181 320.227 172.193 320.227C173.978 320.179 175.422 318.918 175.42 317.4C175.407 310.447 175.311 303.933 174.297 300.642C173.848 299.185 172.195 298.194 170.445 298.247C167.041 298.378 160.939 299.049 156.035 299.587C153.644 299.849 151.472 300.088 149.893 300.236Z" fill="white"/>
<path opacity="0.6" d="M151.946 301.712C155.86 301.347 164.362 300.277 168.403 300.12C170.116 300.054 171.647 301.022 172.089 302.457C172.948 305.245 173.002 310.847 173.012 316.017C173.015 317.566 171.589 318.84 169.806 318.871L154.882 319.129C153.047 319.16 151.489 317.983 151.274 316.401L149.62 304.249C149.449 302.992 150.494 301.847 151.946 301.712Z" fill="white"/>
<g opacity="0.6">
<path d="M189.211 305.445C187.8 305.45 186.979 306.559 187.385 307.91L188.621 312.014C189.028 313.366 190.515 314.44 191.926 314.403L283.872 311.957C285.283 311.919 286.379 310.736 286.307 309.326L286.224 307.675C286.153 306.265 284.94 305.116 283.529 305.121L189.211 305.445Z" fill="white"/>
</g>
<path d="M152.8 304.082C154.164 303.254 155.961 303.679 156.782 305.024L160.645 311.353C161.032 311.986 161.995 311.92 162.286 311.24L170.864 291.2C171.292 290.201 172.812 290.495 172.826 291.577C172.903 297.635 171.575 309.189 161.907 319.088C161.907 319.088 156.372 317.161 151.697 307.85C151.022 306.505 151.495 304.875 152.8 304.082Z" fill="url(#paint8_linear_4291_17937)"/>
<path d="M2.71887 347.051L4.84337 54.3541C4.86069 51.9655 6.81104 50.0433 9.19949 50.0607L219.29 51.5856C223.299 51.6147 226.524 54.8877 226.495 58.8958L224.416 345.322C224.385 349.647 220.854 353.127 216.529 353.096L7.17824 351.576C4.69738 351.558 2.70082 349.532 2.71887 347.051Z" fill="url(#paint9_linear_4291_17937)"/>
<path d="M217.499 216.08C217.001 216.08 216.593 215.679 216.585 215.179L216.164 186.717C216.157 186.212 216.56 185.797 217.065 185.789C217.07 185.789 217.074 185.789 217.079 185.789C217.578 185.789 217.986 186.19 217.993 186.69L218.414 215.152C218.422 215.657 218.018 216.072 217.513 216.08C217.508 216.08 217.504 216.08 217.499 216.08Z" fill="white"/>
<path d="M216.966 179.285C216.467 179.285 216.059 178.884 216.052 178.384L215.227 122.655C215.219 122.15 215.622 121.734 216.127 121.727C216.132 121.727 216.137 121.727 216.141 121.727C216.64 121.727 217.048 122.127 217.055 122.628L217.88 178.357C217.888 178.862 217.485 179.277 216.98 179.285C216.975 179.285 216.97 179.285 216.966 179.285Z" fill="white"/>
<path d="M215.828 103.239C215.329 103.239 214.921 102.838 214.913 102.337L214.435 69.9934C214.369 65.5509 210.072 61.899 204.857 61.8526L175.344 61.593C174.839 61.5883 174.433 61.1756 174.438 60.6702C174.442 60.1649 174.861 59.7651 175.36 59.7637L204.873 60.0233C211.074 60.0786 216.183 64.5388 216.263 69.9665L216.742 102.31C216.75 102.815 216.346 103.231 215.841 103.238C215.837 103.239 215.832 103.239 215.828 103.239Z" fill="white"/>
<path d="M34.0442 171.658C34.2622 163.103 41.3748 156.344 49.9304 156.562L181.67 159.92C188.938 160.105 194.786 165.954 194.97 173.222L199.826 364.468C199.97 370.155 195.377 374.832 189.687 374.791L38.6273 373.686C33.2816 373.647 29.0075 369.23 29.1438 363.886L34.0442 171.658Z" fill="url(#paint10_linear_4291_17937)"/>
<path d="M60.7692 371.027C60.7674 371.027 60.766 371.027 60.7643 371.027L43.8749 370.377C38.2141 370.16 33.7262 365.375 33.8706 359.712L34.5209 334.204C34.5264 333.991 34.7033 333.823 34.9163 333.828H34.9164C35.1293 333.834 35.2975 334.011 35.292 334.224L34.6417 359.732C34.5081 364.975 38.6634 369.405 43.9046 369.607L60.794 370.256C61.0068 370.264 61.1726 370.443 61.1645 370.656C61.1563 370.867 60.9798 371.032 60.7692 371.027Z" fill="white"/>
<path d="M35.1021 326.697C34.8894 326.691 34.7213 326.515 34.7267 326.302L34.8321 322.171C34.8376 321.958 35.0145 321.79 35.2275 321.795C35.4403 321.801 35.6087 321.978 35.6032 322.19L35.4978 326.321C35.4923 326.534 35.3154 326.702 35.1024 326.697C35.1025 326.697 35.1023 326.697 35.1021 326.697Z" fill="white"/>
<path d="M45.1554 159.381C45.2091 156.644 47.6703 154.586 50.3736 155.024C68.3016 157.922 129.973 167.044 181.221 164.422C183.559 164.302 185.538 166.121 185.602 168.46L190.908 360.57C190.981 363.204 188.915 365.402 186.281 365.491C164.737 366.215 76.0181 368.878 44.5026 364.763C42.5844 364.512 41.1659 362.856 41.2039 360.922L45.1554 159.381Z" fill="url(#paint11_linear_4291_17937)"/>
<path opacity="0.6" d="M47.1551 164.242C47.2068 161.608 49.5754 159.628 52.1767 160.049C69.4297 162.838 128.779 171.617 178.097 169.093C180.346 168.978 182.251 170.728 182.313 172.98L187.419 357.855C187.489 360.39 185.501 362.505 182.967 362.591C162.233 363.288 76.8555 365.85 46.5268 361.89C44.681 361.649 43.3157 360.055 43.3523 358.194L47.1551 164.242Z" fill="white"/>
<path opacity="0.78" d="M62.8209 178.887L63.6506 218.515C63.6782 219.833 64.715 220.907 66.0314 220.978C73.3567 221.372 96.185 222.511 109.1 222.168C110.561 222.129 111.745 220.978 111.831 219.519C112.266 212.102 113.355 190.511 111.893 181.436C111.657 179.97 110.43 178.869 108.948 178.779L65.6583 176.159C64.0974 176.065 62.7881 177.323 62.8209 178.887Z" fill="white"/>
<path d="M87.3945 202.185C92.0954 202.185 95.9062 198.375 95.9062 193.674C95.9062 188.973 92.0954 185.162 87.3945 185.162C82.6936 185.162 78.8828 188.973 78.8828 193.674C78.8828 198.375 82.6936 202.185 87.3945 202.185Z" fill="url(#paint12_linear_4291_17937)"/>
<path d="M73.8208 218.324L100.929 219.016C102.591 219.058 103.633 217.248 102.774 215.825C100.564 212.163 95.881 206.747 87.5314 206.774C79.4843 206.799 74.5962 211.458 72.1129 214.826C71.0585 216.256 72.045 218.279 73.8208 218.324Z" fill="url(#paint13_linear_4291_17937)"/>
<g opacity="0.6">
<path d="M170.722 185.084C171.797 185.112 172.674 184.536 172.671 183.805C172.668 183.074 171.788 182.438 170.714 182.392L124.042 180.369C122.968 180.323 122.351 181.092 122.67 182.079C122.99 183.066 124.131 183.896 125.205 183.924L170.722 185.084Z" fill="white"/>
</g>
<g opacity="0.6">
<path d="M123.854 187.748C122.78 187.702 122.163 188.471 122.483 189.458C122.803 190.445 123.943 191.275 125.018 191.303L170.535 192.463C171.609 192.49 172.486 191.915 172.484 191.184C172.481 190.453 171.6 189.817 170.526 189.77L123.854 187.748Z" fill="white"/>
</g>
<g opacity="0.6">
<path d="M123.667 195.234C122.593 195.188 121.976 195.957 122.295 196.944C122.615 197.932 123.756 198.762 124.83 198.789L170.347 199.949C171.422 199.977 172.299 199.401 172.296 198.67C172.293 197.939 171.413 197.303 170.339 197.257L123.667 195.234Z" fill="white"/>
</g>
<g opacity="0.6">
<path d="M174.037 236.169C175.111 236.197 175.966 235.62 175.936 234.889C175.907 234.157 175.004 233.529 173.929 233.494L63.4605 229.806C62.3862 229.77 62.0373 230.443 62.6852 231.3L63.0712 231.811C63.7191 232.669 65.1284 233.393 66.2028 233.42L174.037 236.169Z" fill="white"/>
</g>
<g opacity="0.6">
<path d="M63.273 237.185C62.1987 237.149 61.8498 237.821 62.4977 238.679L62.8837 239.19C63.5316 240.048 64.9409 240.772 66.0153 240.799L173.849 243.548C174.924 243.576 175.779 242.999 175.749 242.268C175.719 241.536 174.816 240.909 173.742 240.873L63.273 237.185Z" fill="white"/>
</g>
<path d="M76.6782 266.067C76.6706 266.067 76.6628 266.067 76.6548 266.067L67.2626 265.737C65.9081 265.69 64.8134 264.728 64.7162 263.5L64.0913 255.597C64.0542 255.126 64.2115 254.666 64.5349 254.301C64.896 253.893 65.4331 253.644 66.0081 253.62H66.0083C66.8007 253.586 67.9178 253.519 69.1005 253.449C71.7206 253.293 74.6902 253.116 76.4318 253.139C77.6933 253.157 78.7674 253.947 79.0393 255.065C79.4836 256.892 79.353 260.317 79.1666 263.965C79.1052 265.163 77.9915 266.102 76.6782 266.067ZM66.0412 254.39C65.6743 254.406 65.3355 254.56 65.1124 254.812C64.9292 255.019 64.8397 255.276 64.8603 255.536L65.4853 263.44C65.5514 264.276 66.3272 264.932 67.2896 264.966L76.6819 265.295C76.6873 265.296 76.693 265.296 76.6986 265.296C77.5964 265.32 78.3561 264.708 78.3961 263.925C78.5792 260.336 78.7092 256.972 78.2893 255.247C78.1057 254.492 77.335 253.934 76.4502 253.91C76.4407 253.91 76.431 253.91 76.4212 253.91C74.7078 253.888 71.6241 254.071 69.1463 254.219C67.9604 254.29 66.8401 254.356 66.0412 254.39Z" fill="white"/>
<g opacity="0.6">
<path d="M86.3279 258.114C85.2535 258.083 84.577 258.914 84.8245 259.96L85.0428 260.883C85.2903 261.929 86.3723 262.798 87.447 262.814L171.851 264.082C172.926 264.098 173.808 263.323 173.811 262.358C173.815 261.394 172.939 260.58 171.864 260.549L86.3279 258.114Z" fill="white"/>
</g>
<path d="M67.395 256.451C68.1028 256.06 68.9942 256.327 69.3702 257.043L71.1384 260.412C71.3155 260.749 71.8012 260.741 71.9661 260.397L76.8229 250.282C77.0652 249.778 77.8208 249.97 77.7983 250.529C77.6715 253.658 76.6894 259.586 71.5618 264.438C71.5618 264.438 68.8333 263.297 66.7381 258.367C66.4355 257.654 66.7179 256.826 67.395 256.451Z" fill="url(#paint14_linear_4291_17937)"/>
<path d="M76.1625 286.202C76.1548 286.202 76.147 286.201 76.1392 286.201L66.747 285.872C65.3924 285.824 64.2978 284.863 64.2006 283.635L63.5756 275.732C63.5385 275.261 63.6959 274.801 64.0192 274.436C64.3804 274.028 64.9174 273.779 65.4924 273.755H65.4925C66.2852 273.721 67.4024 273.654 68.5853 273.584C71.2051 273.428 74.1747 273.251 75.9161 273.273C77.1763 273.294 78.2514 274.082 78.5235 275.2C78.9679 277.026 78.8374 280.452 78.651 284.099C78.5896 285.298 77.4758 286.236 76.1625 286.202ZM65.5253 274.525C65.1585 274.541 64.8201 274.694 64.5968 274.947C64.4136 275.154 64.324 275.411 64.3447 275.671L64.9696 283.574C65.0358 284.411 65.8115 285.067 66.774 285.101L76.1662 285.43C76.1717 285.431 76.1773 285.431 76.183 285.431C77.0808 285.455 77.8405 284.843 77.8805 284.06C78.0637 280.471 78.1935 277.107 77.7736 275.382C77.59 274.627 76.8192 274.069 75.9346 274.045C75.9249 274.045 75.9154 274.045 75.9056 274.045C74.1925 274.023 71.1086 274.206 68.6308 274.354C67.4449 274.424 66.3245 274.491 65.5253 274.525Z" fill="white"/>
<path opacity="0.6" d="M66.5222 275.339C68.4993 275.254 72.7997 274.928 74.8348 274.955C75.6971 274.966 76.4399 275.506 76.623 276.259C76.9786 277.72 76.8528 280.613 76.7165 283.282C76.6757 284.081 75.9248 284.701 75.028 284.669L67.5224 284.406C66.5995 284.373 65.849 283.725 65.7841 282.902L65.2846 276.587C65.2328 275.933 65.7893 275.37 66.5222 275.339Z" fill="white"/>
<g opacity="0.6">
<path d="M85.8045 278.249C84.7301 278.218 84.0536 279.049 84.3011 280.095L84.5194 281.017C84.7669 282.063 85.8488 282.932 86.9236 282.949L171.327 284.217C172.402 284.233 173.284 283.457 173.288 282.493C173.291 281.529 172.415 280.715 171.341 280.684L85.8045 278.249Z" fill="white"/>
</g>
<path d="M75.6548 306.337C75.6472 306.337 75.6394 306.336 75.6314 306.336L66.2392 306.006C64.8846 305.959 63.79 304.998 63.6928 303.77L63.0678 295.866C63.0307 295.396 63.1881 294.935 63.5116 294.57C63.8727 294.162 64.4096 293.914 64.9844 293.889C65.776 293.856 66.891 293.789 68.0714 293.719C70.5637 293.57 73.6656 293.385 75.408 293.408C76.669 293.419 77.7436 294.217 78.0155 295.334C78.4594 297.16 78.3292 300.585 78.1429 304.234C78.082 305.432 76.9681 306.371 75.6548 306.337ZM75.4271 294.18C75.4176 294.18 75.4079 294.18 75.3981 294.18C73.6837 294.157 70.5974 294.341 68.1176 294.489C66.9336 294.559 65.8155 294.626 65.0178 294.66C64.651 294.676 64.3125 294.829 64.0893 295.082C63.9061 295.288 63.8165 295.546 63.8372 295.806L64.4621 303.709C64.5283 304.546 65.304 305.202 66.2665 305.236L75.6587 305.565C75.6642 305.565 75.6698 305.566 75.6755 305.566C76.5732 305.59 77.333 304.977 77.373 304.195C77.5561 300.606 77.6856 297.241 77.2663 295.517C77.0826 294.762 76.3118 294.203 75.4271 294.18Z" fill="white"/>
<path opacity="0.6" d="M66.0066 295.476C67.9835 295.391 72.284 295.065 74.3191 295.091C75.1815 295.103 75.9242 295.643 76.1073 296.395C76.463 297.857 76.3372 300.749 76.2009 303.419C76.16 304.218 75.4092 304.838 74.5123 304.806L67.0068 304.543C66.0838 304.51 65.3334 303.861 65.2684 303.039L64.769 296.723C64.7173 296.07 65.2738 295.507 66.0066 295.476Z" fill="white"/>
<g opacity="0.6">
<path d="M85.2889 298.384C84.2144 298.353 83.5379 299.184 83.7854 300.23L84.0038 301.152C84.2513 302.198 85.3332 303.067 86.4079 303.083L170.812 304.352C171.887 304.368 172.769 303.592 172.772 302.628C172.776 301.663 171.9 300.849 170.825 300.819L85.2889 298.384Z" fill="white"/>
</g>
<path d="M75.1393 326.472C75.1317 326.471 75.1239 326.471 75.1159 326.471L65.7237 326.141C64.3691 326.094 63.2746 325.132 63.1773 323.905L62.5522 316.001C62.5151 315.53 62.6726 315.07 62.9962 314.705C63.3575 314.297 63.8944 314.049 64.4692 314.024C65.2603 313.99 66.3754 313.924 67.5555 313.854C70.0481 313.705 73.15 313.52 74.8927 313.543C76.145 313.559 77.2281 314.351 77.5 315.469C77.9442 317.294 77.8138 320.72 77.6275 324.369C77.5665 325.567 76.4526 326.506 75.1393 326.472ZM74.912 314.315C74.9022 314.315 74.8927 314.314 74.8829 314.314C73.168 314.292 70.0816 314.476 67.6016 314.624C66.4178 314.694 65.2999 314.761 64.5023 314.795C64.1355 314.811 63.797 314.964 63.5738 315.216C63.3906 315.423 63.3008 315.68 63.3215 315.94L63.9466 323.844C64.0128 324.68 64.7886 325.336 65.7511 325.37L75.1434 325.7C75.1489 325.7 75.1545 325.7 75.1601 325.7C76.058 325.724 76.8176 325.112 76.8576 324.329C77.0407 320.74 77.1704 317.376 76.7509 315.651C76.5668 314.897 75.7963 314.338 74.912 314.315Z" fill="white"/>
<path opacity="0.6" d="M65.491 315.61C67.4679 315.526 71.7684 315.2 73.8035 315.226C74.6658 315.237 75.4086 315.777 75.5917 316.53C75.9474 317.992 75.8216 320.884 75.6853 323.553C75.6444 324.353 74.8936 324.972 73.9969 324.941L66.4912 324.677C65.5682 324.645 64.8178 323.996 64.7528 323.174L64.2533 316.858C64.2016 316.205 64.7581 315.642 65.491 315.61Z" fill="white"/>
<g opacity="0.6">
<path d="M84.7811 318.518C83.7066 318.488 83.0301 319.319 83.2776 320.364L83.496 321.287C83.7435 322.333 84.8254 323.202 85.9002 323.218L170.304 324.486C171.379 324.503 172.261 323.727 172.265 322.762C172.268 321.798 171.392 320.984 170.317 320.953L84.7811 318.518Z" fill="white"/>
</g>
<path d="M124.629 132.407C119.955 128.976 115.816 128.936 112.881 129.721C110.204 130.437 108.416 132.959 108.599 135.724L109.505 149.467L124.419 151.174C124.419 151.174 133.796 139.138 124.629 132.407ZM117.774 143.301C115.716 143.249 114.089 141.537 114.142 139.479C114.194 137.421 115.905 135.794 117.964 135.847C120.022 135.899 121.648 137.611 121.596 139.669C121.544 141.727 119.832 143.353 117.774 143.301Z" fill="url(#paint15_linear_4291_17937)"/>
<path d="M111.154 143.761C110.957 143.756 110.793 143.602 110.78 143.401L110.636 141.213C110.621 141 110.782 140.816 110.995 140.802C111.207 140.787 111.391 140.949 111.405 141.162L111.55 143.35C111.564 143.563 111.403 143.747 111.19 143.761C111.178 143.761 111.166 143.762 111.154 143.761ZM110.871 139.473C110.674 139.467 110.51 139.313 110.497 139.112L110.387 137.451C110.213 134.804 111.936 132.389 114.486 131.707C116.287 131.224 118.131 131.196 119.967 131.621C120.174 131.669 120.304 131.876 120.255 132.084C120.207 132.291 119.999 132.42 119.793 132.373C118.081 131.976 116.363 132.003 114.685 132.452C112.49 133.039 111.007 135.12 111.157 137.4L111.267 139.062C111.281 139.274 111.12 139.458 110.907 139.472C110.895 139.473 110.883 139.473 110.871 139.473Z" fill="white"/>
<path d="M88.8828 157.806L89.0585 150.913C89.1192 148.534 91.14 146.678 93.5162 146.82L141.001 149.66C143.108 149.786 144.774 151.494 144.847 153.604L145.075 160.238L88.8828 157.806Z" fill="url(#paint16_linear_4291_17937)"/>
<path d="M104.774 149.732C104.561 149.727 104.393 149.549 104.399 149.337C104.404 149.124 104.581 148.956 104.794 148.961L106.838 149.013C107.051 149.019 107.219 149.196 107.214 149.408C107.208 149.621 107.031 149.79 106.818 149.784L104.774 149.732H104.774Z" fill="white"/>
<path d="M91.5084 155.732C91.2957 155.726 91.1276 155.549 91.1329 155.337L91.2041 152.548C91.2594 150.38 93.0684 148.661 95.2367 148.716L102.751 148.908H102.751C102.964 148.913 103.132 149.09 103.127 149.303C103.121 149.516 102.944 149.684 102.731 149.679L95.217 149.487C93.4739 149.443 92.0197 150.825 91.9752 152.568L91.904 155.356C91.8987 155.569 91.7216 155.737 91.5087 155.732C91.5087 155.732 91.5087 155.732 91.5084 155.732Z" fill="white"/>
<path d="M74.0519 154.904L157.161 157.02C160.149 157.096 162.649 159.312 163.084 162.27L163.143 162.678C163.62 165.917 161.061 168.804 157.788 168.72L72.5234 166.547C70.5645 166.497 69.0452 164.819 69.1891 162.865L69.4698 159.053C69.6456 156.669 71.6621 154.843 74.0519 154.904Z" fill="url(#paint17_linear_4291_17937)"/>
<path d="M251.939 397.664C255.69 397.988 262.2 398.515 267.332 398.741C270.417 398.877 272.194 398.574 273.217 398.165C273.215 398.28 273.212 398.389 273.207 398.49C273.183 399.03 272.744 399.463 272.198 399.493C262.501 400.034 254.788 399.68 252.042 399.513C251.475 399.479 251.136 398.862 251.426 398.378C251.572 398.136 251.748 397.898 251.939 397.664Z" fill="url(#paint18_linear_4291_17937)"/>
<path d="M267.331 398.739C262.199 398.513 255.689 397.986 251.938 397.662C255.626 393.138 267.331 390.088 267.331 390.088H270.637C272.911 393.366 273.24 396.486 273.215 398.163C272.192 398.573 270.416 398.875 267.331 398.739Z" fill="url(#paint19_linear_4291_17937)"/>
<path d="M271.199 384.691L270.89 390.814C270.856 391.477 270.36 392.034 269.696 392.129C269.035 392.223 268.151 392.235 267.212 391.923C266.635 391.731 266.207 391.245 266.1 390.651L265.031 384.691H271.199Z" fill="url(#paint20_linear_4291_17937)"/>
<path d="M314.127 398.694C315.754 398.467 316.49 397.622 316.799 396.719C316.801 396.727 316.803 396.735 316.805 396.743C317.044 397.696 316.489 398.684 315.38 399.153C314.039 399.721 312.574 399.818 311.436 399.771C310.215 399.721 309.094 399.215 308.478 398.407L308.469 398.395C309.694 399.001 311.415 399.073 314.127 398.694Z" fill="url(#paint21_linear_4291_17937)"/>
<path d="M306.46 384.653H309.186C313.339 384.568 315.947 393.327 316.801 396.719C316.492 397.623 315.756 398.468 314.129 398.695C311.417 399.073 309.696 399.002 308.471 398.395C306.227 395.443 305.115 391.119 304.58 388.595C303.972 385.725 306.46 384.653 306.46 384.653Z" fill="url(#paint22_linear_4291_17937)"/>
<path d="M308.839 378.971L310.353 384.992C310.539 385.73 310.185 386.494 309.503 386.844C308.656 387.279 307.463 387.736 306.368 387.604C305.852 387.541 305.424 387.178 305.254 386.693L303.031 380.358L308.839 378.971Z" fill="url(#paint23_linear_4291_17937)"/>
<path d="M310.653 380.712C308.769 382.383 302.643 382.603 302.643 382.603C280.574 329.635 271.546 322.11 271.546 322.11C274.733 342.103 272.06 386.364 272.06 386.364C268.418 387.971 263.723 386.364 263.723 386.364C263.427 353.633 258.396 325.089 252.453 302.586C267.369 302.25 275.301 297.146 277.891 295.098C290.325 315.143 310.653 380.712 310.653 380.712Z" fill="url(#paint24_linear_4291_17937)"/>
<path d="M274.102 234.183C276.925 248.266 275.913 273.471 275.249 284.968C275.062 288.199 277.318 292.679 279.141 295.735C279.427 296.214 279.25 296.828 278.754 297.083C275.701 298.652 265.36 303.515 253.374 304.119C252.575 304.16 251.861 303.616 251.655 302.842C242.764 269.646 232.438 248.433 232.438 248.433C243.838 230.227 274.102 234.183 274.102 234.183Z" fill="url(#paint25_linear_4291_17937)"/>
<path d="M270.036 320.856C270.162 320.856 270.289 320.822 270.404 320.752C270.737 320.549 270.842 320.115 270.64 319.782C270.521 319.586 267.666 314.972 261.889 312.185C261.538 312.017 261.115 312.162 260.945 312.514C260.776 312.866 260.923 313.289 261.275 313.458C266.66 316.057 269.405 320.473 269.432 320.517C269.566 320.735 269.798 320.856 270.036 320.856Z" fill="url(#paint26_linear_4291_17937)"/>
<path d="M291.804 274.6C290.897 281.161 288.218 288.316 282.858 295.917L280.82 294.256C280.82 294.256 283.173 284.713 281.835 273.883C285.142 273.238 289.047 273.903 291.804 274.6Z" fill="url(#paint27_linear_4291_17937)"/>
<path d="M270.938 251.56L274.091 234.184C274.091 234.184 295.16 250.289 291.8 274.6C289.042 273.903 285.138 273.238 281.831 273.883C280.868 266.081 277.991 257.612 270.938 251.56Z" fill="url(#paint28_linear_4291_17937)"/>
<path d="M232.43 248.434L240.563 265.949C239.248 276.523 233.567 281.095 227.442 282.849C227.06 278.03 225.842 274.136 224.711 271.443C232.537 263.363 232.43 248.434 232.43 248.434Z" fill="url(#paint29_linear_4291_17937)"/>
<path d="M224.715 271.443C225.846 274.137 227.064 278.03 227.446 282.849C211.105 289.19 206.781 276.894 206.781 276.894L209.801 276.361C216.622 277.079 221.386 274.881 224.715 271.443Z" fill="url(#paint30_linear_4291_17937)"/>
<path d="M239.93 226.81L243.856 241.244C244.297 242.865 246.051 243.736 247.611 243.112C249.295 242.439 251.431 241.52 253.27 240.527C255.233 239.467 255.847 236.942 254.605 235.089L246.442 222.918L239.93 226.81Z" fill="url(#paint31_linear_4291_17937)"/>
<path d="M199.292 267.236L299.899 303.853C304.118 305.389 306.135 310.194 304.276 314.281L303.971 314.952C302.326 318.569 298.052 320.155 294.446 318.487L196.758 273.296L199.292 267.236Z" fill="url(#paint32_linear_4291_17937)"/>
<path opacity="0.29" d="M153.047 293.978C180.476 293.978 202.712 272.144 202.712 245.21C202.712 218.276 180.476 196.441 153.047 196.441C125.618 196.441 103.383 218.276 103.383 245.21C103.383 272.144 125.618 293.978 153.047 293.978Z" fill="url(#paint33_linear_4291_17937)"/>
<path d="M97.7891 245.21C97.7891 275.18 122.531 299.476 153.052 299.476C183.573 299.476 208.315 275.18 208.315 245.21C208.315 215.239 183.573 190.943 153.052 190.943C122.531 190.944 97.7891 215.239 97.7891 245.21ZM105.907 245.21C105.907 219.642 127.015 198.915 153.052 198.915C179.09 198.915 200.197 219.642 200.197 245.21C200.197 270.778 179.09 291.504 153.052 291.504C127.015 291.504 105.907 270.778 105.907 245.21Z" fill="url(#paint34_linear_4291_17937)"/>
<path d="M204.118 251.87C204.105 251.87 204.091 251.869 204.078 251.868C203.908 251.846 203.788 251.691 203.81 251.521C203.971 250.255 204.085 248.964 204.149 247.683C204.157 247.511 204.306 247.376 204.474 247.388C204.645 247.396 204.777 247.542 204.769 247.713C204.704 249.01 204.589 250.318 204.425 251.599C204.405 251.756 204.272 251.87 204.118 251.87ZM203.738 236.696C203.591 236.696 203.46 236.591 203.433 236.441C202.816 232.998 201.826 229.612 200.492 226.377C200.492 226.377 200.492 226.375 200.491 226.374C192.629 207.306 174.01 194.984 153.056 194.984C143.284 194.984 133.785 197.698 125.585 202.834C125.439 202.925 125.248 202.881 125.157 202.736C125.066 202.59 125.11 202.399 125.255 202.308C133.554 197.111 143.167 194.363 153.056 194.363C174.263 194.363 193.109 206.836 201.066 226.141L201.066 226.141C202.417 229.417 203.419 232.846 204.044 236.331C204.074 236.5 203.962 236.661 203.793 236.692C203.775 236.695 203.756 236.696 203.738 236.696Z" fill="white"/>
<path d="M231.336 215.844C231.3 216.092 234.611 232.315 234.611 232.315L243.834 230.228L242.981 214.385C242.981 214.385 231.935 211.694 231.336 215.844Z" fill="url(#paint35_linear_4291_17937)"/>
<path d="M240.908 217.916L242.01 226.221C242.024 226.327 242.024 226.432 242.009 226.539C241.916 227.19 241.431 229.406 239.194 228.772C237.164 228.197 235.303 227.702 234.018 228.096C233.44 228.272 233.092 228.857 233.213 229.448C233.514 230.922 234.254 234.231 235.336 237.007C235.555 237.571 236.172 237.867 236.753 237.698C238.502 237.188 242.161 236.009 244.882 234.371C245.251 234.149 245.471 233.748 245.453 233.318C245.364 231.221 245.119 224.849 245.325 223.062C245.519 221.386 247.577 220.381 248.471 220.021C248.764 219.903 248.994 219.672 249.111 219.378C249.525 218.341 250.096 215.94 247.07 214.956C246.437 214.75 246.103 214.068 246.328 213.441C246.777 212.193 246.966 210.289 244.625 209.241C242.246 208.174 240.469 209.443 239.51 210.473C239.122 210.89 238.499 210.954 238.018 210.649C237.744 210.476 237.391 210.42 236.965 210.685C236.39 211.043 235.629 210.799 235.332 210.191C234.762 209.021 233.602 207.769 231.272 208.167C227.14 208.875 226.672 213.455 227.762 216.139C228.852 218.822 233.289 217.8 235.515 216.447C237.208 215.419 239.403 216.497 240.358 217.073C240.661 217.255 240.861 217.566 240.908 217.916Z" fill="url(#paint36_linear_4291_17937)"/>
<path d="M245.695 226.09C245.695 226.09 243.996 221.332 245.741 220.167C247.487 219.002 250.072 219.607 249.503 223.053C248.795 227.34 245.695 226.09 245.695 226.09Z" fill="url(#paint37_linear_4291_17937)"/>
<path d="M281.661 293.968L272.15 293.193L268.031 296.99C268.031 296.99 269.006 298.337 272.052 297.563C275.099 296.789 279.272 296.599 279.272 296.599C279.272 296.599 283.478 298.495 283.529 294.947L281.661 293.968Z" fill="url(#paint38_linear_4291_17937)"/>
<path d="M207.994 279.143C207.172 279.786 204.354 278.444 202.629 277.517C201.789 277.065 201.382 276.082 201.67 275.172C202.085 273.864 202.777 272.175 203.629 271.962C205.042 271.608 211.384 276.495 207.994 279.143Z" fill="url(#paint39_linear_4291_17937)"/>
<path d="M297.919 317.017C297.791 317.017 297.671 316.937 297.626 316.808C297.57 316.646 297.656 316.47 297.818 316.414C300.683 315.423 302.183 313.817 302.278 311.639C302.373 309.433 300.979 307.383 298.808 306.536L286.729 301.826C286.569 301.764 286.49 301.584 286.552 301.424C286.615 301.265 286.795 301.185 286.954 301.248L299.034 305.958C301.452 306.901 303.005 309.195 302.898 311.665C302.791 314.123 301.15 315.918 298.021 317C297.987 317.012 297.953 317.017 297.919 317.017Z" fill="white"/>
<path d="M283.11 300.397C283.073 300.397 283.034 300.391 282.997 300.376L281.432 299.766C281.272 299.704 281.194 299.524 281.256 299.364C281.318 299.204 281.499 299.125 281.657 299.188L283.223 299.798C283.383 299.86 283.461 300.04 283.399 300.2C283.351 300.323 283.234 300.397 283.11 300.397Z" fill="white"/>
<defs>
<linearGradient id="paint0_linear_4291_17937" x1="426.364" y1="453.334" x2="130.894" y2="134.414" gradientUnits="userSpaceOnUse">
<stop stop-color="#B37CFF"/>
<stop offset="1" stop-color="#F895E7"/>
</linearGradient>
<linearGradient id="paint1_linear_4291_17937" x1="353.248" y1="-145.516" x2="83.6622" y2="270.935" gradientUnits="userSpaceOnUse">
<stop stop-color="#FDF53F"/>
<stop offset="1" stop-color="#D93C65"/>
</linearGradient>
<linearGradient id="paint2_linear_4291_17937" x1="393.905" y1="-8.0502" x2="136.154" y2="659.405" gradientUnits="userSpaceOnUse">
<stop stop-color="#53D8FF"/>
<stop offset="1" stop-color="#3840F7"/>
</linearGradient>
<linearGradient id="paint3_linear_4291_17937" x1="186.541" y1="337.897" x2="462.163" y2="-86.6012" gradientUnits="userSpaceOnUse">
<stop stop-color="#53D8FF"/>
<stop offset="1" stop-color="#3840F7"/>
</linearGradient>
<linearGradient id="paint4_linear_4291_17937" x1="121.578" y1="331.168" x2="450.514" y2="-67.1777" gradientUnits="userSpaceOnUse">
<stop stop-color="#53D8FF"/>
<stop offset="1" stop-color="#3840F7"/>
</linearGradient>
<linearGradient id="paint5_linear_4291_17937" x1="205.197" y1="111.78" x2="116.267" y2="273.492" gradientUnits="userSpaceOnUse">
<stop stop-color="#A737D5"/>
<stop offset="1" stop-color="#EF497A"/>
</linearGradient>
<linearGradient id="paint6_linear_4291_17937" x1="222.563" y1="121.132" x2="133.634" y2="282.844" gradientUnits="userSpaceOnUse">
<stop stop-color="#A737D5"/>
<stop offset="1" stop-color="#EF497A"/>
</linearGradient>
<linearGradient id="paint7_linear_4291_17937" x1="236.327" y1="158.128" x2="118.105" y2="332.808" gradientUnits="userSpaceOnUse">
<stop stop-color="#A737D5"/>
<stop offset="1" stop-color="#EF497A"/>
</linearGradient>
<linearGradient id="paint8_linear_4291_17937" x1="253.39" y1="138.007" x2="164.461" y2="299.718" gradientUnits="userSpaceOnUse">
<stop stop-color="#A737D5"/>
<stop offset="1" stop-color="#EF497A"/>
</linearGradient>
<linearGradient id="paint9_linear_4291_17937" x1="271.841" y1="-19.9731" x2="-97.7362" y2="498.057" gradientUnits="userSpaceOnUse">
<stop stop-color="#FDF53F"/>
<stop offset="1" stop-color="#D93C65"/>
</linearGradient>
<linearGradient id="paint10_linear_4291_17937" x1="199.599" y1="164.416" x2="-16.2255" y2="433.378" gradientUnits="userSpaceOnUse">
<stop stop-color="#2B3582"/>
<stop offset="1" stop-color="#150E42"/>
</linearGradient>
<linearGradient id="paint11_linear_4291_17937" x1="163.915" y1="161.407" x2="58.0909" y2="389.069" gradientUnits="userSpaceOnUse">
<stop stop-color="#53EAC9"/>
<stop offset="0.9964" stop-color="#45AED8"/>
</linearGradient>
<linearGradient id="paint12_linear_4291_17937" x1="97.9739" y1="178.76" x2="31.3331" y2="272.705" gradientUnits="userSpaceOnUse">
<stop stop-color="#FDF53F"/>
<stop offset="1" stop-color="#D93C65"/>
</linearGradient>
<linearGradient id="paint13_linear_4291_17937" x1="108.738" y1="186.402" x2="42.0966" y2="280.348" gradientUnits="userSpaceOnUse">
<stop stop-color="#FDF53F"/>
<stop offset="1" stop-color="#D93C65"/>
</linearGradient>
<linearGradient id="paint14_linear_4291_17937" x1="95.9735" y1="218.2" x2="45.9135" y2="298.853" gradientUnits="userSpaceOnUse">
<stop stop-color="#A737D5"/>
<stop offset="1" stop-color="#EF497A"/>
</linearGradient>
<linearGradient id="paint15_linear_4291_17937" x1="139.829" y1="113.118" x2="77.2001" y2="191.285" gradientUnits="userSpaceOnUse">
<stop stop-color="#2B3582"/>
<stop offset="1" stop-color="#150E42"/>
</linearGradient>
<linearGradient id="paint16_linear_4291_17937" x1="146.351" y1="118.339" x2="83.7216" y2="196.507" gradientUnits="userSpaceOnUse">
<stop stop-color="#2B3582"/>
<stop offset="1" stop-color="#150E42"/>
</linearGradient>
<linearGradient id="paint17_linear_4291_17937" x1="138.588" y1="123.02" x2="94.7871" y2="198.781" gradientUnits="userSpaceOnUse">
<stop stop-color="#53D8FF"/>
<stop offset="1" stop-color="#3840F7"/>
</linearGradient>
<linearGradient id="paint18_linear_4291_17937" x1="273.217" y1="398.723" x2="251.32" y2="398.723" gradientUnits="userSpaceOnUse">
<stop stop-color="#53D8FF"/>
<stop offset="1" stop-color="#3840F7"/>
</linearGradient>
<linearGradient id="paint19_linear_4291_17937" x1="273.217" y1="394.43" x2="251.937" y2="394.43" gradientUnits="userSpaceOnUse">
<stop stop-color="#2B3582"/>
<stop offset="1" stop-color="#150E42"/>
</linearGradient>
<linearGradient id="paint20_linear_4291_17937" x1="271.199" y1="388.439" x2="265.031" y2="388.439" gradientUnits="userSpaceOnUse">
<stop stop-color="#F9B776"/>
<stop offset="1" stop-color="#F47960"/>
</linearGradient>
<linearGradient id="paint21_linear_4291_17937" x1="316.86" y1="398.25" x2="308.469" y2="398.25" gradientUnits="userSpaceOnUse">
<stop stop-color="#53D8FF"/>
<stop offset="1" stop-color="#3840F7"/>
</linearGradient>
<linearGradient id="paint22_linear_4291_17937" x1="316.801" y1="391.79" x2="304.484" y2="391.79" gradientUnits="userSpaceOnUse">
<stop stop-color="#2B3582"/>
<stop offset="1" stop-color="#150E42"/>
</linearGradient>
<linearGradient id="paint23_linear_4291_17937" x1="310.402" y1="383.299" x2="303.031" y2="383.299" gradientUnits="userSpaceOnUse">
<stop stop-color="#F9B776"/>
<stop offset="1" stop-color="#F47960"/>
</linearGradient>
<linearGradient id="paint24_linear_4291_17937" x1="327.484" y1="404.855" x2="230.654" y2="295.303" gradientUnits="userSpaceOnUse">
<stop stop-color="#2B3582"/>
<stop offset="1" stop-color="#150E42"/>
</linearGradient>
<linearGradient id="paint25_linear_4291_17937" x1="-754.8" y1="1213.13" x2="-888.312" y2="1337.47" gradientUnits="userSpaceOnUse">
<stop stop-color="#CB236D"/>
<stop offset="1" stop-color="#4C246D"/>
</linearGradient>
<linearGradient id="paint26_linear_4291_17937" x1="285.567" y1="356.002" x2="282.035" y2="348.938" gradientUnits="userSpaceOnUse">
<stop stop-color="#53D8FF"/>
<stop offset="1" stop-color="#3840F7"/>
</linearGradient>
<linearGradient id="paint27_linear_4291_17937" x1="276.632" y1="275.856" x2="302.872" y2="299.092" gradientUnits="userSpaceOnUse">
<stop stop-color="#F9B776"/>
<stop offset="1" stop-color="#F47960"/>
</linearGradient>
<linearGradient id="paint28_linear_4291_17937" x1="-750.986" y1="1217.24" x2="-884.497" y2="1341.57" gradientUnits="userSpaceOnUse">
<stop stop-color="#CB236D"/>
<stop offset="1" stop-color="#4C246D"/>
</linearGradient>
<linearGradient id="paint29_linear_4291_17937" x1="-769.305" y1="1197.56" x2="-902.817" y2="1321.9" gradientUnits="userSpaceOnUse">
<stop stop-color="#CB236D"/>
<stop offset="1" stop-color="#4C246D"/>
</linearGradient>
<linearGradient id="paint30_linear_4291_17937" x1="227.446" y1="278.055" x2="206.781" y2="278.055" gradientUnits="userSpaceOnUse">
<stop stop-color="#F9B776"/>
<stop offset="1" stop-color="#F47960"/>
</linearGradient>
<linearGradient id="paint31_linear_4291_17937" x1="247.536" y1="222.831" x2="247.761" y2="261.421" gradientUnits="userSpaceOnUse">
<stop stop-color="#F9B776"/>
<stop offset="1" stop-color="#F47960"/>
</linearGradient>
<linearGradient id="paint32_linear_4291_17937" x1="304.97" y1="293.193" x2="196.758" y2="293.193" gradientUnits="userSpaceOnUse">
<stop stop-color="#2B3582"/>
<stop offset="1" stop-color="#150E42"/>
</linearGradient>
<linearGradient id="paint33_linear_4291_17937" x1="202.712" y1="245.21" x2="103.383" y2="245.21" gradientUnits="userSpaceOnUse">
<stop stop-color="#B37CFF"/>
<stop offset="1" stop-color="#F895E7"/>
</linearGradient>
<linearGradient id="paint34_linear_4291_17937" x1="208.315" y1="245.21" x2="97.7891" y2="245.21" gradientUnits="userSpaceOnUse">
<stop stop-color="#2B3582"/>
<stop offset="1" stop-color="#150E42"/>
</linearGradient>
<linearGradient id="paint35_linear_4291_17937" x1="235.01" y1="216.485" x2="250.221" y2="244.068" gradientUnits="userSpaceOnUse">
<stop stop-color="#F9B776"/>
<stop offset="1" stop-color="#F47960"/>
</linearGradient>
<linearGradient id="paint36_linear_4291_17937" x1="248.504" y1="224.557" x2="226.047" y2="221.316" gradientUnits="userSpaceOnUse">
<stop stop-color="#2B3582"/>
<stop offset="1" stop-color="#150E42"/>
</linearGradient>
<linearGradient id="paint37_linear_4291_17937" x1="259.702" y1="240.154" x2="246.855" y2="222.508" gradientUnits="userSpaceOnUse">
<stop stop-color="#F9B776"/>
<stop offset="1" stop-color="#F47960"/>
</linearGradient>
<linearGradient id="paint38_linear_4291_17937" x1="266.271" y1="287.559" x2="292.51" y2="310.795" gradientUnits="userSpaceOnUse">
<stop stop-color="#F9B776"/>
<stop offset="1" stop-color="#F47960"/>
</linearGradient>
<linearGradient id="paint39_linear_4291_17937" x1="208.978" y1="275.627" x2="201.578" y2="275.627" gradientUnits="userSpaceOnUse">
<stop stop-color="#F9B776"/>
<stop offset="1" stop-color="#F47960"/>
</linearGradient>
</defs>
</svg>
