<svg width="453" height="329" viewBox="0 0 453 329" fill="none" xmlns="http://www.w3.org/2000/svg">
<path d="M29.6846 324.296C29.6846 324.296 -3.01136 247.33 38.3396 189.165C79.6906 131 54.4706 79.4379 127.075 28.1049C220.396 -37.8751 310.408 27.2239 337.25 71.3609C364.092 115.498 455.262 92.9669 428.766 218.556C408.212 315.978 423.549 320.252 423.549 320.252L29.6846 324.296Z" fill="#F1EEFD"/>
<path d="M49.3811 303.474C49.3811 303.474 -8.64285 273.16 5.33815 204.996C19.3191 136.832 76.2591 120.657 99.6761 125.661C143.566 135.04 71.8591 162.714 54.7301 115.215C33.2381 55.6195 109.868 10.4985 180.903 22.1755C226.556 29.6805 248.593 51.5345 289.175 65.2665C329.612 78.9495 346.572 60.6235 330.461 50.0025C315.168 39.9195 259.642 56.3695 278.707 78.9155C304.812 109.786 367.724 61.9565 416.483 115.215C465.242 168.474 422.913 235.432 385.428 241.016C347.943 246.599 364.379 192.792 422.913 235.432C481.447 278.072 407.51 324.297 407.51 324.297" stroke="#C3C8FF" stroke-miterlimit="10"/>
<path d="M447.808 328.559H4.263C1.908 328.559 0 326.65 0 324.296C0 321.941 1.909 320.033 4.263 320.033H452.071V324.296C452.071 326.65 450.162 328.559 447.808 328.559Z" fill="#0A5840" fill-opacity="0.6"/>
<path d="M163.657 328.559H4.263C1.908 328.559 0 326.65 0 324.296V320.033H167.921V324.296C167.921 326.65 166.012 328.559 163.657 328.559Z" fill="#043022"/>
<path d="M229.922 157.508C210.928 194.008 189.586 208.878 189.586 208.878L208.017 238.304L240.202 204.858L229.922 157.508Z" fill="#043022"/>
<path d="M277.016 148.797L229.921 157.509C226.938 246.612 225.82 320.022 225.82 320.022H310.354C310.354 320.022 312.807 183.579 299.208 153.809L277.016 148.797Z" fill="#043022"/>
<path d="M271.547 194.203L294.491 192.262" stroke="#0A5840" stroke-opacity="0.6" stroke-width="4" stroke-miterlimit="10"/>
<path d="M261.016 175.053C261.016 175.053 275.579 274.43 262.908 314.64" stroke="#0A5840" stroke-opacity="0.6" stroke-miterlimit="10"/>
<path d="M245.766 224.832C245.766 224.832 259.832 230.494 278.068 231.093C296.304 231.692 284.958 241.395 257.924 239.555" stroke="#0A5840" stroke-opacity="0.6" stroke-miterlimit="10"/>
<path d="M249.391 145.174L261.014 176.054L277.014 148.797L266.469 131.564L249.391 145.174Z" fill="#E9A394"/>
<path d="M261.016 176.054L282.713 170.064L277.016 148.797L261.016 176.054Z" fill="#0A5840" fill-opacity="0.6"/>
<path d="M251.978 152.035L240.203 165.187L261.018 176.053L251.978 152.035Z" fill="#0A5840" fill-opacity="0.6"/>
<path d="M208.019 238.304C208.019 238.304 214.896 223.963 200.13 205.492C191.942 195.249 188.169 177.574 188.169 177.574L175.867 179.445L187.132 238.305H208.019V238.304Z" fill="#E9A394"/>
<path d="M173.349 159.119L168.312 163.697L175.046 169.641L153.96 169.282L153.508 176.517L175.863 179.445L188.166 177.574L173.349 159.119Z" fill="#E9A394"/>
<path d="M177.037 170.388L156.806 162.043L155.5 165.637L172.386 172.733L177.037 170.388Z" fill="#E9A394"/>
<path d="M299.211 153.809C299.211 153.809 326.388 169.283 334.97 227.245L303.44 234.853L299.211 153.809Z" fill="#043022"/>
<path d="M240.186 107.438L229.922 133.702L237.771 136.117L240.186 150.91L265.244 145.174L268.866 105.023L240.186 107.438Z" fill="#E9A394"/>
<path d="M256.904 113.679H237.742L239.832 108.017L256.904 106.961V113.679Z" fill="#E37A82"/>
<path d="M266.919 125.661C266.919 125.661 254.694 123.132 254.694 110.485C254.694 110.485 236.555 112.954 230.293 103.108C222.876 91.4446 234.211 78.0416 243.572 80.7646C243.572 80.7646 237.673 86.6116 246.632 87.2986C253.021 87.7886 264.696 79.2886 268.864 87.5096C268.864 87.5096 301.022 94.8546 277.015 124.818L266.919 125.661Z" fill="#0A5840"/>
<path d="M254.695 109.485C254.695 109.485 230.448 114.17 225.377 96.7821C222.412 86.6171 232.601 80.8281 232.601 80.8281" stroke="#0A5840" stroke-width="2" stroke-miterlimit="10"/>
<path d="M244.434 132.865C249.489 132.865 253.587 128.767 253.587 123.712C253.587 118.657 249.489 114.559 244.434 114.559C239.379 114.559 235.281 118.657 235.281 123.712C235.281 128.767 239.379 132.865 244.434 132.865Z" stroke="#0A5840" stroke-width="0.5" stroke-miterlimit="10"/>
<path d="M253.094 120.75L266.13 121.464" stroke="#0A5840" stroke-width="0.5" stroke-miterlimit="10"/>
<path d="M282.715 127.965C282.715 133.634 275.121 138.229 269.452 138.229C263.783 138.229 262.188 133.633 262.188 127.965C262.188 122.297 266.784 117.701 272.452 117.701C278.12 117.701 282.715 122.297 282.715 127.965Z" fill="#E9A394"/>
<path d="M331.206 228.152V275.484H307.605L305.641 234.321L331.206 228.152Z" fill="#E9A394"/>
<path d="M228.086 217.451L229.077 184.471L213.789 232.309L228.086 217.451Z" fill="#0A5840"/>
<path d="M250.609 148.315L265.244 145.174L253.246 155.407L250.609 148.315Z" fill="#E37A82"/>
<path d="M241.955 127.966C242.923 127.966 243.707 126.33 243.707 124.312C243.707 122.294 242.923 120.658 241.955 120.658C240.988 120.658 240.203 122.294 240.203 124.312C240.203 126.33 240.988 127.966 241.955 127.966Z" fill="#0A5840"/>
<path d="M246.711 115.425C246.711 110.529 242.812 113.825 242.812 113.825L246.711 115.425Z" fill="#0A5840"/>
<path d="M242.812 137.101L248.388 135.617C248.388 135.617 250.777 156.295 242.812 137.101Z" fill="white"/>
<path d="M122.672 229.787C122.672 229.787 160.285 223.967 161.024 289.557C161.144 300.201 167.921 320.035 167.921 320.035H133.834L122.672 229.787Z" fill="#0A211A"/>
<path d="M83.3424 223.965L60.6094 229.331L67.5454 320.033H155.997C155.997 320.033 153.03 248.27 119.674 226.741L83.3424 223.965Z" fill="#051D16"/>
<path d="M60.6102 229.333C37.1792 234.677 42.6642 252.661 47.1882 289.591C35.4932 299.089 46.7132 303.364 46.7132 303.364C33.8692 316.979 49.8922 320.035 49.8922 320.035H92.6662C92.6662 320.035 84.0572 223.985 60.6102 229.333Z" fill="#051D16"/>
<path d="M90.1244 299.085L79.8594 251.965" stroke="#0A211A" stroke-miterlimit="10"/>
<path d="M49.8906 320.033C49.8906 320.033 57.1126 303.452 79.9376 295.116C98.8626 288.205 126.546 306.146 144.267 289.098L147.549 308.292L92.6646 320.033H49.8906Z" fill="#E9A394"/>
<path d="M125.128 177.252L142.05 203.01L131.191 206.886L129.314 227.819L96.6797 216.481L99.7547 173.902L125.128 177.252Z" fill="#E9A394"/>
<path d="M100.025 204.309L83.3438 223.966L104.736 250.182L114.384 219.562L100.025 204.309Z" fill="#E37A82"/>
<path d="M105.596 192.138L129.466 183.857L125.127 177.252L101.547 179.706L105.596 192.138Z" fill="#E37A82"/>
<path d="M103.538 201.161C103.538 201.161 110.765 215.63 105.737 187.739C105.737 187.739 112.595 188.509 117.966 179.458C117.966 179.458 116.297 194.207 132.052 179.458C147.807 164.708 127.778 153.168 103.304 157.51C82.0909 161.274 60.8629 173.259 91.8889 213.892L103.538 201.161Z" fill="#0A5840"/>
<path d="M99.671 206.913C98.043 209.096 95.246 211.077 92.338 211.501C86.522 212.348 80.842 207.757 79.995 201.941C79.148 196.125 82.086 193.105 87.901 192.258C91.17 191.782 94.955 192.751 97.794 194.724C98.652 195.793 99.671 206.913 99.671 206.913Z" fill="#E9A394"/>
<path d="M122.694 198.873C123.565 198.637 123.834 196.834 123.295 194.846C122.755 192.859 121.612 191.439 120.741 191.676C119.87 191.912 119.601 193.715 120.141 195.702C120.68 197.69 121.823 199.11 122.694 198.873Z" fill="#0A5840"/>
<path d="M116.08 190.218C116.08 190.218 115.232 185.435 119.672 187.738L116.08 190.218Z" fill="#0A5840"/>
<path d="M80.6719 224.77L84.5449 220.322L83.1239 217.025L91.8909 213.893L117.042 226.541L117.968 236.198L113.712 234.853L106.764 260.751L80.6719 224.77Z" fill="#051D16"/>
<path d="M103.383 231.094L117.968 236.198L117.042 226.541" stroke="#0A211A" stroke-miterlimit="10"/>
<path d="M105.734 187.738C105.734 187.738 108.668 204.814 112.959 208.325C114.368 209.478 117.035 206.545 129.313 206.299C136.82 206.149 136.814 232.353 126.852 231.602C116.89 230.851 101.751 224.64 99.4816 205.54C97.4926 188.784 105.734 187.738 105.734 187.738Z" fill="#0A5840"/>
<path d="M117.969 211.502C117.969 211.502 120.501 216.217 125.491 213.023" stroke="#C4C6C5" stroke-miterlimit="10"/>
<path d="M174.898 309.25H90.9297V315.471C90.9297 317.991 92.9727 320.033 95.4917 320.033H174.898C177.418 320.033 179.46 317.99 179.46 315.471V313.812C179.461 311.293 177.418 309.25 174.898 309.25Z" fill="#043022"/>
<path d="M243.096 246.885H145.42C142.517 246.885 140.066 249.043 139.698 251.922L131.829 313.535C131.389 316.983 134.075 320.034 137.551 320.034H235.227C238.13 320.034 240.581 317.876 240.949 314.997L248.818 253.384C249.258 249.936 246.572 246.885 243.096 246.885Z" fill="#043022"/>
<path d="M247.822 246.885H150.146C147.243 246.885 144.792 249.043 144.424 251.922L136.555 313.535C136.115 316.983 138.801 320.034 142.277 320.034H239.953C242.856 320.034 245.307 317.876 245.675 314.997L253.544 253.384C253.984 249.936 251.298 246.885 247.822 246.885Z" fill="#0A5840" fill-opacity="0.6"/>
<path d="M201.338 290.079C205.405 286.219 205.886 280.122 202.412 276.46C198.937 272.798 192.823 272.959 188.756 276.818C184.688 280.678 184.207 286.775 187.682 290.437C191.156 294.099 197.27 293.938 201.338 290.079Z" fill="white"/>
<path d="M245.69 319.512H124.109" stroke="#043022" stroke-miterlimit="10"/>
<path d="M299.424 237.057L339.785 237.822L330.635 188.449L309.174 190.879C309.174 190.879 299.507 205.147 307.141 216.241C315.754 228.758 298.537 229.225 299.424 237.057Z" fill="#0A5840"/>
<path d="M309.173 190.879C309.173 190.879 299.506 205.147 307.14 216.241C315.754 228.759 298.537 229.225 299.424 237.057" stroke="#0B281F" stroke-opacity="0.6" stroke-width="2" stroke-miterlimit="10"/>
<path d="M317.227 231.094C317.227 231.094 298.863 249.114 289.18 317.023H309.622L317.227 231.094Z" fill="#0B281F" fill-opacity="0.6"/>
<path d="M365.762 226.073L357.77 317.022H298.398L305.789 282.286C305.789 282.286 283.185 270.493 317.228 231.093L325.689 226.741L362.449 223.965L365.762 226.073Z" fill="#C3C8FF"/>
<path d="M317.223 271.797C317.223 271.797 313.664 277.893 317.086 282.787L312.047 317.022" stroke="#0B281F" stroke-opacity="0.6" stroke-miterlimit="10"/>
<path d="M308.93 282.443L343.319 283.458" stroke="#0B281F" stroke-opacity="0.6" stroke-miterlimit="10"/>
<path d="M350.098 299.563L346.461 255.818" stroke="#0B281F" stroke-opacity="0.6" stroke-miterlimit="10"/>
<path d="M365.758 226.074C365.758 226.074 369.037 230.199 372.833 239.764C378.215 253.327 384.634 277.83 384.213 317.022H357.766L365.758 226.074Z" fill="#C3C8FF"/>
<path d="M384.211 320.023C384.211 320.023 370.997 289.803 337.76 298.451C301.469 307.894 287.993 306.129 287.993 306.129L285.242 320.023H384.211Z" fill="#E9A394"/>
<path d="M349.621 292.1L337.828 294.737L364.615 320.023H389.864C389.864 320.023 378.982 293.637 349.621 292.1Z" fill="#0B281F" fill-opacity="0.6"/>
<path d="M350.352 299.943L355.969 298.227" stroke="#C3C8FF" stroke-miterlimit="10"/>
<path d="M287.996 306.129L270.752 302.564L258.391 320.023H285.245L287.996 306.129Z" fill="#E9A394"/>
<path d="M317.227 271.798L349.271 239.754L343.318 236.943L365.761 226.074L355.455 219.516H331.469L317.227 237.318L321.162 238.306L317.227 241.066V271.798Z" fill="#0B281F" fill-opacity="0.6"/>
<path d="M339.63 230.409L350.098 223.175L338.798 197.908L321.283 208.909L326.217 229.868L317.227 271.798L339.63 230.409Z" fill="#E9A394"/>
<path d="M322.688 214.894L334.98 208.484L324.006 220.49L322.688 214.894Z" fill="#E37A82"/>
<path d="M300.234 178.314L294.867 208.06H302.918L311.958 220.49L334.981 208.484L318.879 172.607L300.234 178.314Z" fill="#E9A394"/>
<path d="M298.93 185.528L298.391 188.796L319.624 185.899L319.299 181.83L298.93 185.528Z" fill="#E37A82"/>
<path d="M358.918 176.055C353.603 161.647 347.104 156.092 347.104 156.092C334.079 143.149 311.814 157.511 311.814 157.511C283.282 150.605 294.864 186.028 294.864 186.028L318.1 183.178C321.349 202.67 332.968 192.8 332.968 192.8L338.387 202.574C338.387 202.574 332.92 207.406 338.62 215.69C343.313 222.511 332.075 224.835 334.979 232.096L379.892 222.787C379.892 193.235 368.524 202.095 358.918 176.055Z" fill="#0A5840"/>
<path d="M293.046 186.256C293.046 186.256 288.937 166.031 296.485 159.45C300.421 156.018 312.816 157.51 312.816 157.51" stroke="#0B281F" stroke-opacity="0.6" stroke-width="2" stroke-miterlimit="10"/>
<path d="M382.839 221.935C382.839 221.935 386.426 208.485 366.883 193.234" stroke="#0A5840" stroke-width="2" stroke-miterlimit="10"/>
<path d="M333.636 203.825C338.979 203.825 343.311 199.493 343.311 194.15C343.311 188.806 338.979 184.475 333.636 184.475C328.293 184.475 323.961 188.806 323.961 194.15C323.961 199.493 328.293 203.825 333.636 203.825Z" fill="#E9A394"/>
<path d="M308.93 206.967L314.928 205.494C314.928 205.494 317.033 222.601 308.93 206.967Z" fill="white"/>
<path d="M303.93 196.857C303.93 196.857 305.839 185.222 310.016 196.857" stroke="#043022" stroke-width="0.5" stroke-miterlimit="10"/>
<path d="M305.406 188.006C305.406 188.006 307.731 184.068 310.486 188.006H305.406Z" fill="#0A5840"/>
<path d="M215.152 83.1845C211.672 73.5065 200.731 68.6605 191.141 72.7955C182.888 76.3545 178.513 85.7175 181.073 94.3335C182.504 99.1505 185.736 102.877 189.783 105.051C193.519 107.057 196.725 109.92 199.075 113.449L199.753 114.467L213.19 109.636L213.065 108.425C212.622 104.137 213.372 99.8465 214.957 95.8375C216.503 91.9245 216.687 87.4545 215.152 83.1845Z" fill="#C3C8FF"/>
<path d="M215.152 83.1845C211.672 73.5065 200.731 68.6605 191.141 72.7955C182.888 76.3545 178.513 85.7175 181.073 94.3335C182.504 99.1505 185.736 102.877 189.783 105.051C193.519 107.057 196.725 109.92 199.075 113.449L199.753 114.467L213.19 109.636L213.065 108.425C212.622 104.137 213.372 99.8465 214.957 95.8375C216.503 91.9245 216.687 87.4545 215.152 83.1845Z" fill="#C3C8FF"/>
<path d="M202.828 110.503L192.117 95.3974C192.117 95.3974 192.312 92.3384 195.674 92.8234C199.036 93.3084 201.043 98.6144 198.644 97.7584C196.245 96.9024 195.396 90.6654 199.936 89.7144C204.475 88.7634 205.992 99.0764 203.484 97.0894C200.976 95.1024 201.505 88.5364 206.366 88.4824L209.218 110.269" stroke="white" stroke-miterlimit="10"/>
<path d="M212.878 119.961L206.568 122.23C204.169 123.093 201.524 121.847 200.662 119.448L199.328 115.738C198.465 113.339 199.711 110.694 202.11 109.832L208.42 107.563C210.819 106.7 213.463 107.946 214.326 110.345L215.66 114.055C216.522 116.454 215.277 119.098 212.878 119.961Z" fill="#0A5840"/>
<path d="M214.362 104.204L195.359 111.035L198.694 120.312L217.697 113.48L214.362 104.204Z" fill="#0A5840" fill-opacity="0.6"/>
<path d="M197.818 66.7381L195.922 55.8691" stroke="#C3C8FF" stroke-miterlimit="10"/>
<path d="M184.125 73.2127L175.047 64.3457" stroke="#C3C8FF" stroke-miterlimit="10"/>
<path d="M174.663 89.3203L164.305 90.0613" stroke="#C3C8FF" stroke-miterlimit="10"/>
<path d="M212.75 72.6938L217.412 64.0488" stroke="#C3C8FF" stroke-miterlimit="10"/>
<path d="M358.588 152.541H422.816C425.049 152.541 427.188 150.731 427.593 148.497L434.23 111.88C434.635 109.647 433.152 107.836 430.919 107.836H366.691C364.458 107.836 362.319 109.646 361.914 111.88L355.277 148.497C354.873 150.73 356.355 152.541 358.588 152.541Z" fill="#0A5840"/>
<path d="M410.078 133.034C411.953 131.321 412.314 128.664 410.885 127.1C409.456 125.535 406.777 125.655 404.903 127.368C403.028 129.08 402.666 131.737 404.095 133.302C405.525 134.866 408.203 134.746 410.078 133.034Z" fill="white"/>
<path d="M397.32 133.034C399.195 131.321 399.556 128.664 398.127 127.1C396.698 125.535 394.02 125.655 392.145 127.368C390.27 129.08 389.909 131.737 391.338 133.302C392.767 134.866 395.445 134.746 397.32 133.034Z" fill="white"/>
<path d="M384.562 133.034C386.437 131.321 386.798 128.664 385.369 127.1C383.94 125.535 381.262 125.655 379.387 127.368C377.512 129.08 377.151 131.737 378.58 133.302C380.009 134.866 382.687 134.746 384.562 133.034Z" fill="white"/>
<path d="M393.153 150.132L370.836 163.395L374.836 149.086L393.153 150.132Z" fill="#0A5840"/>
<path d="M151.677 147.113H87.4494C85.2164 147.113 83.0774 145.303 82.6724 143.069L76.0354 106.452C75.6304 104.219 77.1134 102.408 79.3464 102.408H143.574C145.807 102.408 147.946 104.218 148.351 106.452L154.988 143.069C155.393 145.302 153.911 147.113 151.677 147.113Z" fill="#C3C8FF"/>
<path d="M106.135 127.857C107.564 126.293 107.203 123.636 105.328 121.923C103.453 120.211 100.775 120.091 99.3455 121.655C97.9164 123.22 98.2777 125.877 100.153 127.589C102.027 129.302 104.706 129.422 106.135 127.857Z" fill="white"/>
<path d="M118.893 127.857C120.322 126.293 119.961 123.636 118.086 121.923C116.211 120.211 113.532 120.091 112.103 121.655C110.674 123.22 111.035 125.877 112.91 127.589C114.785 129.302 117.464 129.422 118.893 127.857Z" fill="white"/>
<path d="M131.651 127.857C133.08 126.293 132.718 123.636 130.843 121.923C128.969 120.211 126.29 120.091 124.861 121.655C123.432 123.22 123.793 125.877 125.668 127.589C127.543 129.302 130.221 129.422 131.651 127.857Z" fill="white"/>
<path d="M128.766 144.705L132.289 157.508L146.537 143.809L128.766 144.705Z" fill="#C3C8FF"/>
</svg>
