<svg width="418" height="401" viewBox="0 0 418 401" fill="none" xmlns="http://www.w3.org/2000/svg">
<path d="M379.482 158.586C379.08 164.72 378.063 170.817 376.472 176.77C373.558 187.755 368.708 198.232 362.228 207.578C358.298 213.272 353.754 218.544 348.674 223.25C347.044 224.765 345.357 226.193 343.622 227.554C336.577 233.066 328.717 237.332 320.425 240.591C313.341 243.37 305.941 245.422 298.455 246.908C297.4 247.118 296.317 247.301 295.224 247.464C286.3 248.786 276.226 248.7 266.707 249.927C258.703 250.953 251.092 252.889 244.871 257.366C244.104 257.921 243.366 258.506 242.666 259.12C234.289 266.443 230.704 277.764 227.904 288.902C226.649 293.896 225.556 298.852 224.262 303.396C222.239 310.508 219.977 317.621 217.13 324.446C213.286 333.667 208.359 342.352 201.439 349.771C201.151 350.078 200.863 350.385 200.566 350.682C194.46 356.979 187.252 361.868 179.44 365.626C171.359 369.508 162.636 372.173 153.836 373.908C152.638 374.147 151.43 374.368 150.223 374.569C141.643 376.017 133.476 375.825 125.492 374.521C114.497 372.729 103.828 368.846 92.8908 364.293C92.0665 363.948 91.2325 363.603 90.4082 363.248C90.2548 363.181 90.111 363.124 89.9576 363.057C76.8157 357.411 63.3383 350.634 50.8962 342.4C34.5622 331.587 19.9921 318.273 10.2147 301.709C-0.195269 284.071 -2.61085 264.258 2.79545 246.812C5.72865 237.303 10.9816 228.503 18.5446 221.151C21.9859 217.786 25.9064 214.729 30.3062 212.045C33.7091 209.965 37.2079 208.009 40.7066 206.054C48.2601 201.798 55.804 197.522 62.2551 191.924C63.7793 190.611 65.2363 189.221 66.6262 187.735C72.3297 181.649 76.394 174.459 79.3176 166.705C83.449 155.767 85.3278 143.699 86.3343 131.985C86.5356 129.589 86.7177 127.193 86.8806 124.787C87.983 109.037 88.6156 93.0965 93.1688 78.1429C93.7344 76.2641 94.367 74.4141 95.0668 72.5737C96.5142 68.7777 98.2396 65.116 100.214 61.5981C102.438 57.6201 104.978 53.8241 107.768 50.2008C111.899 44.8041 116.587 39.81 121.6 35.2088C123.498 33.4643 125.434 31.758 127.409 30.0997C134.052 24.5017 141.097 19.4117 148.526 15.1078C156.252 10.6313 164.39 6.98874 172.94 4.48689C178.644 2.8094 184.53 1.63995 190.597 1.06482C193.607 0.777247 196.617 0.614292 199.627 0.57595C210.229 0.403408 220.782 1.68788 231.135 4.05553C242.992 6.75868 254.591 10.8709 265.729 15.8363C272.88 19.0187 279.849 22.5558 286.578 26.2942C293.739 30.2722 300.717 34.7392 307.446 39.5991C322.4 50.4021 336.117 63.1701 347.83 77.0597C366.982 99.7777 381.495 128.142 379.482 158.586Z" fill="#EEECFE"/>
<path d="M89.9591 363.056C76.8171 357.41 63.3397 350.633 50.8976 342.399L2.79688 246.811C5.73008 237.302 10.983 228.503 18.5461 221.15L89.9591 363.056Z" fill="#EEECFE"/>
<path d="M153.833 373.907C152.635 374.147 151.427 374.367 150.219 374.569C141.64 376.016 133.473 375.824 125.488 374.521L40.7031 206.053C48.2566 201.797 55.8005 197.522 62.2516 191.924L153.833 373.907Z" fill="#EEECFE"/>
<path d="M200.561 350.682C194.455 356.98 187.247 361.869 179.434 365.626L79.3125 166.705C83.4439 155.768 85.3227 143.7 86.3292 131.986C86.5305 129.59 86.7126 127.193 86.8756 124.787L200.561 350.682Z" fill="#EEECFE"/>
<path d="M227.9 288.903C226.644 293.897 225.551 298.853 224.257 303.396C222.235 310.509 219.972 317.621 217.126 324.446L93.1641 78.1433C93.7296 76.2645 94.3623 74.4145 95.062 72.574C96.5094 68.7781 98.2349 65.1164 100.209 61.5985C102.433 57.6205 104.974 53.8245 107.763 50.2012L227.9 288.903Z" fill="#EEECFE"/>
<path d="M266.705 249.927C258.701 250.952 251.09 252.889 244.869 257.365C244.102 257.921 243.364 258.506 242.664 259.119L127.406 30.0994C134.049 24.5013 141.095 19.4114 148.523 15.1074L266.705 249.927Z" fill="#EEECFE"/>
<path d="M320.422 240.591C313.338 243.371 305.938 245.422 298.452 246.908C297.397 247.119 296.314 247.301 295.221 247.464L172.938 4.48711C178.641 2.80962 184.527 1.64018 190.594 1.06504C193.604 0.777469 196.614 0.614514 199.624 0.576172L320.422 240.591Z" fill="#EEECFE"/>
<path d="M362.226 207.579C358.296 213.273 353.752 218.545 348.672 223.251C347.042 224.766 345.355 226.194 343.62 227.555L231.133 4.05664C242.99 6.75979 254.589 10.872 265.727 15.8374L362.226 207.579Z" fill="#EEECFE"/>
<path d="M379.481 158.586C379.079 164.721 378.063 170.817 376.471 176.77L307.445 39.5996C322.399 50.4026 336.116 63.1707 347.83 77.0603C366.982 99.7782 381.494 128.142 379.481 158.586Z" fill="#EEECFE"/>
<path d="M140.394 93.0907C139.973 91.2234 139.384 89.4405 138.668 87.7381L143.798 83.3258L130.834 68.2572L125.571 72.7806C121.651 70.4743 117.232 69.0068 112.599 68.5495L111.06 61.7227L91.6659 66.0966L93.2054 72.9235C89.6989 75.0361 86.6785 77.7786 84.2716 80.9706L77.6719 78.7908L71.4297 97.6669L77.8664 99.7958C77.8501 102.175 78.0927 104.595 78.639 107.017C79.0177 108.696 79.5286 110.316 80.1459 111.865L75.1039 116.205L88.0694 131.273L92.9907 127.042C97.0243 129.515 101.611 131.083 106.429 131.558L107.838 137.808L127.232 133.434L125.822 127.184C129.489 124.983 132.62 122.081 135.078 118.703L141.232 120.739L147.474 101.863L141.17 99.7795C141.148 97.5729 140.9 95.3347 140.394 93.0907ZM114.196 120.822C102.571 123.444 91.0141 116.145 88.3915 104.514C85.7688 92.8836 93.0741 81.331 104.699 78.7094C116.329 76.0867 127.88 83.3862 130.503 95.0174C133.127 106.649 125.827 118.199 114.196 120.822Z" fill="#7E6CC0"/>
<path d="M348.027 212.834C348.07 211.347 347.97 209.89 347.759 208.469L352.476 206.134L345.614 192.28L340.776 194.673C338.267 192.179 335.22 190.222 331.817 188.983L331.974 183.542L316.518 183.098L316.362 188.538C313.312 189.454 310.508 190.938 308.078 192.879L303.525 189.964L295.182 202.982L299.621 205.828C299.15 207.618 298.866 209.488 298.81 211.417C298.772 212.756 298.844 214.075 299.011 215.361L294.375 217.659L301.237 231.513L305.761 229.275C308.323 231.916 311.477 233.982 315.015 235.268L314.871 240.25L330.327 240.695L330.471 235.714C333.658 234.763 336.577 233.181 339.08 231.109L343.325 233.831L351.668 220.812L347.32 218.027C347.731 216.357 347.975 214.623 348.027 212.834ZM322.94 228.676C313.676 228.41 306.376 220.682 306.643 211.413C306.909 202.143 314.642 194.849 323.906 195.115C333.176 195.382 340.47 203.11 340.204 212.379C339.937 221.648 332.209 228.944 322.94 228.676Z" fill="#7E6CC0"/>
<path d="M324.548 291.919C325.283 290.151 325.833 288.357 326.233 286.554L332.969 285.918L331.097 266.128L324.188 266.778C322.322 262.629 319.563 258.879 316.046 255.828L318.735 249.367L300.38 241.729L297.691 248.189C293.609 247.887 289.559 248.379 285.75 249.594L281.623 244L265.621 255.798L269.644 261.256C268.255 263.189 267.055 265.304 266.101 267.595C265.44 269.185 264.92 270.802 264.529 272.423L257.906 273.051L259.778 292.841L266.239 292.232C268.102 296.582 270.939 300.512 274.597 303.684L272.135 309.6L290.49 317.238L292.951 311.323C297.216 311.646 301.447 311.087 305.406 309.751L309.252 314.969L325.254 303.171L321.313 297.827C322.573 296.013 323.664 294.042 324.548 291.919ZM287.141 299.411C276.139 294.832 270.925 282.197 275.506 271.19C280.087 260.183 292.725 254.977 303.728 259.556C314.735 264.137 319.944 276.77 315.363 287.777C310.783 298.784 298.15 303.992 287.141 299.411Z" fill="#F3CF58"/>
<path d="M92.0441 49.5059C91.8725 48.7438 91.6319 48.0172 91.3405 47.3232L93.433 45.524L88.1446 39.3777L85.9984 41.2229C84.3995 40.2816 82.5974 39.6835 80.7071 39.4975L80.0793 36.7129L72.1683 38.4968L72.7961 41.2814C71.3659 42.1432 70.1342 43.2618 69.1517 44.5635L66.46 43.674L63.9141 51.3732L66.5396 52.2416C66.5329 53.2117 66.6316 54.199 66.8549 55.1873C67.0093 55.8727 67.2182 56.5331 67.4694 57.1648L65.4123 58.9353L70.7007 65.0816L72.7079 63.3562C74.3538 64.3646 76.2239 65.0049 78.189 65.1985L78.7641 67.7483L86.6742 65.9644L86.0991 63.4146C87.5944 62.5165 88.8722 61.3336 89.8748 59.9552L92.3853 60.7853L94.9313 53.0861L92.3594 52.2359C92.3518 51.3339 92.2502 50.4213 92.0441 49.5059ZM81.358 60.8169C76.616 61.8867 71.9027 58.9094 70.833 54.1655C69.7632 49.4215 72.7434 44.7092 77.4844 43.6404C82.2284 42.5707 86.9397 45.548 88.0095 50.2919C89.0802 55.0358 86.1029 59.7472 81.358 60.8169Z" fill="#F3CF58"/>
<path d="M114.463 37.63C114.343 37.098 114.175 36.5899 113.971 36.1039L115.434 34.8463L111.739 30.551L110.238 31.8412C109.12 31.1836 107.86 30.7657 106.54 30.6353L106.101 28.6895L100.573 29.9356L101.012 31.8815C100.013 32.4834 99.1518 33.2656 98.4654 34.1753L96.5838 33.5542L94.8047 38.9346L96.6394 39.5413C96.6346 40.22 96.7036 40.9092 96.8599 41.5994C96.9682 42.0777 97.1129 42.5397 97.2893 42.9816L95.8524 44.2182L99.5477 48.5135L100.95 47.3076C102.1 48.0122 103.407 48.4598 104.78 48.595L105.182 50.377L110.71 49.1308L110.309 47.3488C111.353 46.721 112.246 45.8947 112.946 44.9314L114.701 45.5113L116.48 40.1309L114.682 39.5366C114.678 38.9077 114.607 38.2703 114.463 37.63ZM106.996 45.5352C103.682 46.282 100.388 44.2019 99.6407 40.8872C98.893 37.5725 100.975 34.2788 104.289 33.5321C107.603 32.7844 110.896 34.8655 111.644 38.1802C112.391 41.4949 110.31 44.7876 106.996 45.5352Z" fill="url(#paint0_linear_4291_18073)"/>
<path d="M364.153 246.836C363.554 245.899 362.881 245.042 362.154 244.255L364.083 240.834L354.03 235.17L352.051 238.678C349.455 238.193 346.754 238.265 344.135 238.931L341.947 235.509L332.225 241.726L334.413 245.149C332.917 246.994 331.81 249.087 331.126 251.305L327.094 251.419L327.415 262.954L331.349 262.845C331.81 264.146 332.42 265.419 333.196 266.634C333.735 267.475 334.333 268.259 334.976 268.982L333.081 272.347L343.133 278.011L344.983 274.73C347.674 275.283 350.487 275.233 353.21 274.541L355.213 277.675L364.935 271.457L362.932 268.325C364.498 266.399 365.634 264.197 366.309 261.868L370.07 261.763L369.749 250.228L365.896 250.335C365.45 249.133 364.872 247.96 364.153 246.836ZM355.331 267.146C349.504 270.873 341.755 269.171 338.026 263.34C334.297 257.51 336.004 249.762 341.831 246.035C347.661 242.306 355.407 244.01 359.136 249.84C362.864 255.671 361.161 263.417 355.331 267.146Z" fill="url(#paint1_linear_4291_18073)"/>
<path d="M291.018 335.382H125.762C119.279 335.382 114.023 330.126 114.023 323.643V65.0276C114.023 58.5449 119.279 53.2891 125.762 53.2891H291.018C297.501 53.2891 302.757 58.5449 302.757 65.0276V323.643C302.757 330.127 297.501 335.382 291.018 335.382Z" fill="url(#paint2_linear_4291_18073)"/>
<path d="M248.111 50.3425H246.383C246.383 46.8514 243.524 43.9987 240.033 43.9987H226.608C220.241 43.9987 215.08 38.8378 215.08 32.4711V32.1969C215.08 29.9472 214.158 27.9073 212.685 26.4264C211.077 24.8265 208.81 23.8766 206.331 24.052C202.008 24.3568 198.749 28.1374 198.749 32.4701C198.749 38.8369 193.588 43.9978 187.222 43.9978H173.796C172.047 43.9978 170.465 44.709 169.318 45.8631C168.163 47.0096 167.452 48.5989 167.452 50.3416H165.725C161.385 50.3416 157.836 53.8921 157.836 58.2305V58.2382C157.836 62.5786 157.836 66.1272 157.836 66.1272H256V58.2305C256 53.893 252.449 50.3425 248.111 50.3425ZM206.914 39.1877C204.787 39.1877 203.06 37.4604 203.06 35.3266C203.06 33.2005 204.787 31.4722 206.914 31.4722C209.041 31.4722 210.769 33.1996 210.769 35.3266C210.768 37.4604 209.04 39.1877 206.914 39.1877Z" fill="#3E245C"/>
<path d="M290.632 71.1914H126.156V317.478H290.632V71.1914Z" fill="white"/>
<path d="M225.829 175.05H142.846C141.982 175.05 141.273 174.343 141.273 173.477C141.273 172.613 141.981 171.904 142.846 171.904H225.829C226.694 171.904 227.402 172.612 227.402 173.477C227.401 174.342 226.694 175.05 225.829 175.05Z" fill="#CCCCCC"/>
<path d="M166.373 181.098H142.785C141.953 181.098 141.273 180.417 141.273 179.586C141.273 178.754 141.954 178.074 142.785 178.074H166.373C167.205 178.074 167.885 178.755 167.885 179.586C167.886 180.418 167.205 181.098 166.373 181.098Z" fill="#CCCCCC"/>
<path d="M221.903 181.098H174.363C173.531 181.098 172.852 180.417 172.852 179.586C172.852 178.754 173.532 178.074 174.363 178.074H221.903C222.735 178.074 223.415 178.755 223.415 179.586C223.415 180.418 222.734 181.098 221.903 181.098Z" fill="#CCCCCC"/>
<path d="M184.881 187.146H142.785C141.953 187.146 141.273 186.466 141.273 185.635C141.273 184.804 141.954 184.123 142.785 184.123H184.881C185.713 184.123 186.393 184.804 186.393 185.635C186.393 186.466 185.713 187.146 184.881 187.146Z" fill="#CCCCCC"/>
<path d="M215.969 187.146H194.316C193.484 187.146 192.805 186.466 192.805 185.635C192.805 184.804 193.485 184.123 194.316 184.123H215.969C216.801 184.123 217.481 184.804 217.481 185.635C217.481 186.466 216.801 187.146 215.969 187.146Z" fill="#CCCCCC"/>
<path d="M166.373 166.158H142.785C141.953 166.158 141.273 165.477 141.273 164.646C141.273 163.814 141.954 163.135 142.785 163.135H166.373C167.205 163.135 167.885 163.815 167.885 164.646C167.886 165.477 167.205 166.158 166.373 166.158Z" fill="#7E6CC0"/>
<path d="M221.903 166.158H174.363C173.531 166.158 172.852 165.477 172.852 164.646C172.852 163.814 173.532 163.135 174.363 163.135H221.903C222.735 163.135 223.415 163.815 223.415 164.646C223.415 165.477 222.734 166.158 221.903 166.158Z" fill="#7E6CC0"/>
<path d="M225.829 273.261H142.846C141.982 273.261 141.273 272.554 141.273 271.688C141.273 270.824 141.981 270.115 142.846 270.115H225.829C226.694 270.115 227.402 270.823 227.402 271.688C227.401 272.554 226.694 273.261 225.829 273.261Z" fill="#CCCCCC"/>
<path d="M166.373 279.31H142.785C141.953 279.31 141.273 278.63 141.273 277.799C141.273 276.967 141.954 276.287 142.785 276.287H166.373C167.205 276.287 167.885 276.968 167.885 277.799C167.886 278.63 167.205 279.31 166.373 279.31Z" fill="#CCCCCC"/>
<path d="M221.903 279.31H174.363C173.531 279.31 172.852 278.63 172.852 277.799C172.852 276.967 173.532 276.287 174.363 276.287H221.903C222.735 276.287 223.415 276.968 223.415 277.799C223.415 278.63 222.734 279.31 221.903 279.31Z" fill="#CCCCCC"/>
<path d="M184.881 285.358H142.785C141.953 285.358 141.273 284.678 141.273 283.846C141.273 283.015 141.954 282.334 142.785 282.334H184.881C185.713 282.334 186.393 283.015 186.393 283.846C186.393 284.678 185.713 285.358 184.881 285.358Z" fill="#CCCCCC"/>
<path d="M215.969 285.358H194.316C193.484 285.358 192.805 284.678 192.805 283.846C192.805 283.015 193.485 282.334 194.316 282.334H215.969C216.801 282.334 217.481 283.015 217.481 283.846C217.481 284.678 216.801 285.358 215.969 285.358Z" fill="#CCCCCC"/>
<path d="M166.373 264.371H142.785C141.953 264.371 141.273 263.69 141.273 262.859C141.273 262.027 141.954 261.348 142.785 261.348H166.373C167.205 261.348 167.885 262.028 167.885 262.859C167.886 263.69 167.205 264.371 166.373 264.371Z" fill="#7E6CC0"/>
<path d="M221.903 264.371H174.363C173.531 264.371 172.852 263.69 172.852 262.859C172.852 262.027 173.532 261.348 174.363 261.348H221.903C222.735 261.348 223.415 262.028 223.415 262.859C223.415 263.69 222.734 264.371 221.903 264.371Z" fill="#7E6CC0"/>
<path d="M225.829 224.212H142.846C141.982 224.212 141.273 223.505 141.273 222.639C141.273 221.775 141.981 221.066 142.846 221.066H225.829C226.694 221.066 227.402 221.774 227.402 222.639C227.401 223.505 226.694 224.212 225.829 224.212Z" fill="#CCCCCC"/>
<path d="M166.373 230.261H142.785C141.953 230.261 141.273 229.58 141.273 228.748C141.273 227.916 141.954 227.236 142.785 227.236H166.373C167.205 227.236 167.885 227.917 167.885 228.748C167.886 229.58 167.205 230.261 166.373 230.261Z" fill="#CCCCCC"/>
<path d="M221.903 230.261H174.363C173.531 230.261 172.852 229.58 172.852 228.748C172.852 227.916 173.532 227.236 174.363 227.236H221.903C222.735 227.236 223.415 227.917 223.415 228.748C223.415 229.58 222.734 230.261 221.903 230.261Z" fill="#CCCCCC"/>
<path d="M184.881 236.31H142.785C141.953 236.31 141.273 235.63 141.273 234.799C141.273 233.967 141.954 233.287 142.785 233.287H184.881C185.713 233.287 186.393 233.968 186.393 234.799C186.393 235.63 185.713 236.31 184.881 236.31Z" fill="#CCCCCC"/>
<path d="M215.969 236.31H194.316C193.484 236.31 192.805 235.63 192.805 234.799C192.805 233.967 193.485 233.287 194.316 233.287H215.969C216.801 233.287 217.481 233.968 217.481 234.799C217.481 235.63 216.801 236.31 215.969 236.31Z" fill="#CCCCCC"/>
<path d="M221.897 215.867H198.309C197.476 215.867 196.797 215.187 196.797 214.355C196.797 213.523 197.477 212.844 198.309 212.844H221.897C222.729 212.844 223.409 213.524 223.409 214.355C223.409 215.187 222.728 215.867 221.897 215.867Z" fill="#7E6CC0"/>
<path d="M190.325 215.867H142.785C141.953 215.867 141.273 215.187 141.273 214.355C141.273 213.523 141.954 212.844 142.785 212.844H190.325C191.157 212.844 191.837 213.524 191.837 214.355C191.837 215.187 191.156 215.867 190.325 215.867Z" fill="#7E6CC0"/>
<path d="M226.984 112.662H195.289V144.357H226.984V112.662Z" fill="#7E6CC0"/>
<path d="M226.984 143.553V144.357H195.922C197.576 138.449 202.49 133.904 208.597 132.775C205.246 131.556 202.843 128.35 202.843 124.571C202.843 119.752 206.757 115.838 211.576 115.838C216.401 115.838 220.314 119.752 220.314 124.571C220.314 128.35 217.911 131.557 214.56 132.775C220.384 133.852 225.125 138.04 226.984 143.553Z" fill="#F3CF58"/>
<path d="M262.377 87.3281H142.95C142.028 87.3281 141.273 88.0825 141.273 89.0047C141.273 89.9268 142.028 90.6812 142.95 90.6812H262.377C263.3 90.6812 264.054 89.9268 264.054 89.0047C264.054 88.0825 263.3 87.3281 262.377 87.3281Z" fill="#7E6CC0"/>
<path d="M220.628 94.7051H142.633C141.885 94.7051 141.273 95.3166 141.273 96.0643V96.6989C141.273 97.4466 141.885 98.0581 142.633 98.0581H220.629C221.377 98.0581 221.988 97.4466 221.988 96.6989V96.0643C221.987 95.3166 221.376 94.7051 220.628 94.7051Z" fill="#7E6CC0"/>
<path d="M260.452 229.699L273.2 218.733L273.229 218.714C271.686 216.921 269.817 215.493 267.727 214.506C267.487 214.391 267.248 214.285 267.008 214.18C266.999 214.161 266.989 214.161 266.97 214.161C266.778 214.084 266.586 214.007 266.395 213.931C266.28 213.883 266.155 213.835 266.04 213.806C265.839 213.729 265.637 213.662 265.436 213.605C265.177 213.518 264.909 213.442 264.64 213.375C264.382 213.308 264.123 213.24 263.854 213.193C263.04 213.02 262.206 212.905 261.372 212.867C261.065 212.847 260.758 212.838 260.452 212.838C255.822 212.838 251.604 214.745 248.556 217.803C248.172 218.187 247.808 218.589 247.463 219.001C247.118 219.414 246.802 219.845 246.485 220.296C246.485 220.305 246.485 220.305 246.485 220.305C246.188 220.746 245.901 221.216 245.642 221.685C245.373 222.165 245.143 222.663 244.923 223.162C244.712 223.67 244.52 224.178 244.357 224.705C243.792 226.507 243.523 228.434 243.61 230.428C243.619 230.677 243.638 230.926 243.658 231.166C243.667 231.338 243.686 231.511 243.715 231.683C243.725 231.827 243.744 231.971 243.763 232.115C243.773 232.201 243.782 232.278 243.801 232.364C243.82 232.46 243.83 232.565 243.849 232.661C243.882 232.846 243.927 233.027 243.965 233.21C243.974 233.25 243.982 233.292 243.991 233.332C243.982 233.292 243.974 233.252 243.965 233.212C243.974 233.252 243.982 233.292 243.991 233.332C243.991 233.334 243.992 233.336 243.993 233.338C243.993 233.336 243.992 233.334 243.991 233.332C244.057 233.628 244.13 233.923 244.213 234.213C244.217 234.227 244.222 234.241 244.226 234.254C244.278 234.437 244.335 234.618 244.393 234.799C244.394 234.801 244.395 234.803 244.396 234.806C244.398 234.817 244.403 234.826 244.406 234.837C246.055 239.977 250.147 244.083 255.285 245.734C255.055 245.657 254.825 245.571 254.595 245.485C254.977 245.632 255.36 245.752 255.742 245.867C255.596 245.824 255.449 245.789 255.304 245.743C255.486 245.801 255.668 245.858 255.86 245.906C256.071 245.974 256.282 246.031 256.493 246.079C256.521 246.079 256.55 246.089 256.579 246.098C256.799 246.146 257.03 246.204 257.26 246.242C257.327 246.261 257.403 246.28 257.48 246.29C257.595 246.309 257.72 246.328 257.835 246.347C257.883 246.357 257.931 246.367 257.978 246.367C258.151 246.395 258.333 246.414 258.506 246.434C258.659 246.453 258.812 246.472 258.966 246.482H258.995C259.234 246.51 259.474 246.52 259.713 246.529C259.963 246.549 260.212 246.549 260.452 246.549C264.621 246.549 268.456 245.005 271.408 242.456L271.427 242.475C273.172 240.979 274.571 239.158 275.549 237.136C275.693 236.848 275.837 236.551 275.961 236.254C275.971 236.235 275.971 236.225 275.98 236.215C276.057 236.024 276.134 235.832 276.21 235.64C276.335 235.305 276.45 234.969 276.555 234.624C276.632 234.375 276.709 234.135 276.766 233.886C276.833 233.646 276.891 233.397 276.939 233.148C277.121 232.324 277.226 231.48 277.274 230.617C277.294 230.311 277.303 230.004 277.303 229.697H260.452V229.699Z" fill="#7E6CC0"/>
<path d="M277.305 229.7C277.305 225.521 275.761 221.687 273.202 218.734L260.453 229.7H277.305Z" fill="#F3CF58"/>
<path d="M251.191 161.764C249.722 161.764 248.531 162.954 248.531 164.424V191.742H253.851V164.424C253.851 162.955 252.66 161.764 251.191 161.764Z" fill="#F3CF58"/>
<path d="M257.707 167.877C256.238 167.877 255.047 169.067 255.047 170.537V191.742H260.367V170.537C260.367 169.068 259.175 167.877 257.707 167.877Z" fill="#7E6CC0"/>
<path d="M264.199 173.826C262.73 173.826 261.539 175.017 261.539 176.486V191.742H266.859V176.486C266.858 175.018 265.668 173.826 264.199 173.826Z" fill="#F3CF58"/>
<path d="M271.301 178.219C269.831 178.219 268.641 179.409 268.641 180.879V191.741H273.961V180.879C273.961 179.41 272.77 178.219 271.301 178.219Z" fill="#7E6CC0"/>
<path d="M275.284 194.124H245.625C244.749 194.124 244.039 193.415 244.039 192.539C244.039 191.663 244.748 190.953 245.625 190.953H275.284C276.16 190.953 276.87 191.662 276.87 192.539C276.87 193.415 276.161 194.124 275.284 194.124Z" fill="#7E6CC0"/>
<path d="M175.392 112.662H143.141V144.914H175.392V112.662Z" fill="#7E6CC0"/>
<path d="M142.284 128.238C140.974 129.503 140.932 131.588 142.191 132.904L151.699 142.851C152.917 144.126 154.972 144.062 156.109 142.713L176.596 118.407C177.684 117.116 177.39 115.164 175.97 114.251C174.807 113.503 173.27 113.718 172.357 114.757L153.981 135.664L146.975 128.331C145.708 127.006 143.604 126.964 142.284 128.238Z" fill="#F3CF58"/>
<path d="M276.572 112.662H244.32V144.914H276.572V112.662Z" fill="#7E6CC0"/>
<path d="M243.463 128.238C242.154 129.503 242.112 131.588 243.37 132.904L252.878 142.851C254.097 144.126 256.152 144.062 257.289 142.713L277.776 118.407C278.864 117.116 278.57 115.164 277.15 114.251C275.986 113.503 274.45 113.718 273.536 114.757L255.161 135.664L248.154 128.331C246.887 127.006 244.783 126.964 243.463 128.238Z" fill="#F3CF58"/>
<path d="M260.461 273.024L276.329 266.583C274.787 262.784 271.937 259.667 268.291 257.789L260.453 273.026L260.461 273.024Z" fill="#7E6CC0"/>
<path d="M276.771 267.798C276.703 267.587 276.627 267.376 276.551 267.165C276.479 266.969 276.425 266.771 276.346 266.575L276.328 266.582L260.46 273.024L260.453 273.026V273.025L268.291 257.788L268.302 257.765C268.082 257.652 267.852 257.567 267.627 257.464C267.377 257.349 267.128 257.23 266.873 257.128C266.601 257.018 266.326 256.923 266.05 256.829C265.753 256.727 265.458 256.626 265.158 256.541C264.884 256.462 264.608 256.397 264.33 256.333C264.04 256.266 263.748 256.204 263.455 256.151C263.142 256.095 262.83 256.051 262.515 256.013C262.28 255.984 262.043 255.962 261.805 255.943C261.42 255.912 261.035 255.894 260.649 255.889C260.514 255.887 260.38 255.891 260.245 255.892C258.122 255.916 255.999 256.308 253.991 257.123C251.969 257.945 250.2 259.13 248.699 260.555C248.611 260.639 248.517 260.715 248.43 260.8C248.279 260.949 248.14 261.11 247.995 261.264C245.176 264.274 243.512 268.223 243.332 272.343C243.323 272.534 243.307 272.723 243.305 272.915C243.303 273.066 243.317 273.218 243.319 273.369C243.353 275.413 243.737 277.48 244.548 279.477C245.334 281.416 246.459 283.119 247.805 284.58C247.96 284.748 248.105 284.924 248.265 285.085C248.338 285.159 248.417 285.225 248.492 285.297C251.549 288.25 255.628 289.984 259.876 290.146C260.022 290.152 260.168 290.165 260.316 290.166C260.493 290.168 260.671 290.153 260.849 290.149C262.876 290.111 264.923 289.729 266.902 288.927C268.899 288.115 270.649 286.948 272.138 285.544C272.249 285.441 272.368 285.344 272.475 285.238C272.605 285.108 272.724 284.971 272.85 284.838C274.276 283.327 275.422 281.584 276.223 279.691C277.781 276.015 278.056 271.805 276.771 267.798Z" fill="#F3CF58"/>
<path d="M262.094 133.445L270.149 136.664L278.192 139.876L274.234 121.07L268.178 127.25L262.094 133.445Z" fill="#DC8987"/>
<path d="M262.094 133.445L270.149 136.665C269.547 133.757 268.767 130.051 268.178 127.25L262.094 133.445Z" fill="#3E245C"/>
<path d="M274.234 121.071L278.192 139.877L398.181 114.626L394.224 95.8203L274.234 121.071Z" fill="url(#paint3_linear_4291_18073)"/>
<path d="M398.719 94.8923L394.234 95.8359L398.191 114.643L402.676 113.699L398.719 94.8923Z" fill="#3E245C"/>
<path d="M398.711 94.8755L402.669 113.682L402.89 113.635C404.052 113.39 407.083 112.744 410.23 112.071C415.283 110.992 418.552 106.079 417.597 101.002C416.632 95.8791 411.727 92.4791 406.594 93.3869C403.764 93.8872 400.887 94.4164 398.933 94.8276L398.711 94.8755Z" fill="url(#paint4_linear_4291_18073)"/>
<path d="M134.063 395.044C134.063 398.09 110.342 400.56 81.0823 400.56C51.8222 400.56 28.1016 398.091 28.1016 395.044C28.1016 391.998 51.8222 389.527 81.0823 389.527C110.342 389.527 134.063 391.998 134.063 395.044Z" fill="#EEECFE"/>
<path d="M128.243 165.256C127.103 165.754 126.144 166.309 125.494 166.719C125.16 159.676 123.08 161.722 123.08 161.722L123.248 169.365L123.274 169.345L123.031 173.541L126.702 174.097C129.354 174.71 131.095 174.29 132.212 173.63C132.227 173.621 132.24 173.613 132.255 173.605C133.387 172.92 134.04 171.657 134.087 170.335L134.127 169.232C134.239 166.14 131.076 164.015 128.243 165.256Z" fill="#E89FAB"/>
<path d="M56.2062 206.793L33.6695 242.337C33.5353 242.549 33.4058 242.764 33.2822 242.982C31.1858 246.654 30.8292 251.07 32.0543 255.118L39.5838 289.874L47.0596 288.454L40.7024 254.72C40.8596 251.695 41.8613 248.774 43.5954 246.29L58.317 225.191L56.2062 206.793Z" fill="url(#paint5_linear_4291_18073)"/>
<path d="M55.2658 271.488L26.4922 280.707L32.5914 299.744L61.365 290.526L55.2658 271.488Z" fill="#E16F5A"/>
<path d="M54.5736 272.951L27.9141 281.492L33.2932 298.282L59.9527 289.741L54.5736 272.951Z" fill="#EEECFE"/>
<path d="M35.9901 295.622C35.7428 295.701 35.4773 295.566 35.3977 295.319L31.3353 282.756C31.2557 282.509 31.3909 282.243 31.6382 282.163C31.8855 282.084 32.151 282.219 32.2306 282.466L36.292 295.029C36.3726 295.277 36.2374 295.542 35.9901 295.622Z" fill="#999999"/>
<path d="M38.8719 294.69C38.6246 294.77 38.3591 294.634 38.2796 294.387L34.2181 281.824C34.1386 281.577 34.2737 281.311 34.521 281.232C34.7683 281.152 35.0339 281.287 35.1134 281.535L39.1758 294.098C39.2544 294.345 39.1183 294.61 38.8719 294.69Z" fill="#999999"/>
<path d="M41.7626 293.756C41.5153 293.836 41.2497 293.701 41.1702 293.454L37.1087 280.891C37.0292 280.643 37.1643 280.378 37.4116 280.298C37.659 280.219 37.9245 280.354 38.004 280.601L42.0655 293.164C42.146 293.411 42.0099 293.677 41.7626 293.756Z" fill="#999999"/>
<path d="M44.6454 292.825C44.3981 292.904 44.1326 292.769 44.053 292.522L39.9916 279.959C39.912 279.712 40.0472 279.446 40.2945 279.367C40.5418 279.287 40.8073 279.422 40.8869 279.669L44.9493 292.232C45.0288 292.48 44.8927 292.744 44.6454 292.825Z" fill="#999999"/>
<path d="M47.5282 291.891C47.2809 291.971 47.0154 291.836 46.9358 291.588L42.8744 279.025C42.7948 278.778 42.93 278.513 43.1773 278.433C43.4246 278.353 43.6901 278.489 43.7697 278.736L47.8311 291.299C47.9116 291.546 47.7755 291.811 47.5282 291.891Z" fill="#999999"/>
<path d="M50.411 290.958C50.1637 291.037 49.8982 290.902 49.8186 290.655L45.7572 278.092C45.6776 277.844 45.8128 277.579 46.0601 277.499C46.3074 277.42 46.5729 277.555 46.6525 277.802L50.7149 290.365C50.7935 290.613 50.6583 290.878 50.411 290.958Z" fill="#999999"/>
<path d="M53.3026 290.026C53.0553 290.106 52.7898 289.97 52.7102 289.723L48.6478 277.16C48.5682 276.913 48.7034 276.647 48.9507 276.568C49.198 276.488 49.4636 276.623 49.5431 276.871L53.6045 289.434C53.6851 289.681 53.5499 289.946 53.3026 290.026Z" fill="#999999"/>
<path d="M56.1845 289.092C55.9371 289.172 55.6716 289.037 55.5921 288.789L51.5306 276.227C51.4511 275.979 51.5862 275.714 51.8335 275.634C52.0808 275.555 52.3464 275.69 52.4259 275.937L56.4874 288.5C56.5669 288.747 56.4308 289.013 56.1845 289.092Z" fill="#999999"/>
<path d="M42.1638 289.072C42.0718 289.116 41.9683 289.18 41.858 289.259C40.9675 289.905 40.5803 291.043 40.8046 292.12L40.9675 292.904C40.9186 294.717 42.2856 296.288 44.0944 296.415C45.5121 296.515 47.0563 296.207 48.7223 295.513C49.1326 295.342 49.4537 295.012 49.6291 294.603C50.0806 293.549 50.9692 290.783 49.5189 288.485C49.4125 288.317 49.2399 288.198 49.0492 288.144C48.5201 287.993 47.9928 288.387 47.9938 288.936C47.9948 289.908 47.8999 291.272 47.412 291.957L46.9125 289.647C46.7208 288.763 45.8821 288.181 44.9858 288.304C44.1317 288.423 43.0745 288.646 42.1638 289.072Z" fill="#E89FAB"/>
<path d="M100.98 383.587C100.824 384.132 98.18 386.663 98.1954 392.407C98.2002 394.357 99.7952 395.935 101.747 395.935H124.928C126.228 391.865 124.611 391.415 120.999 390.603C114.039 390.102 109.77 387.605 108.183 383.119L100.98 383.587Z" fill="url(#paint6_linear_4291_18073)"/>
<path d="M39.4253 383.587C39.2691 384.132 36.6254 386.663 36.6407 392.407C36.6455 394.357 38.2405 395.935 40.1922 395.935H63.3731C64.6729 391.865 63.0558 391.415 59.444 390.603C52.4838 390.102 48.2144 387.605 46.628 383.119L39.4253 383.587Z" fill="url(#paint7_linear_4291_18073)"/>
<path d="M55.5992 274.581C54.8592 275.087 54.4336 288.619 54.1949 301.504C53.9026 317.32 51.4017 333.016 46.7871 348.146L35.8672 383.946L48.2231 385.491L64.7631 341.095C67.9148 332.635 70.3918 323.937 72.1709 315.085L80.31 274.58H55.5992V274.581Z" fill="url(#paint8_linear_4291_18073)"/>
<path d="M69.5007 274.582C69.3713 275.078 69.2544 275.575 69.1499 276.074C66.9088 286.767 71.0488 297.807 79.3337 304.929L80.783 306.175C84.2818 316.413 88.463 332.659 90.3418 343.313L97.5588 384.241H109.4L95.3599 277.385L69.5007 274.582Z" fill="url(#paint9_linear_4291_18073)"/>
<path d="M58.8584 185.341C58.6178 186.931 59.8649 189.473 60.6596 190.864C61.4715 192.283 61.5089 192.333 62.7847 193.298C64.5849 194.66 67.427 195.651 69.695 195.234C71.0983 194.975 73.1928 194.277 73.9472 193.048C74.5798 192.019 74.4562 190.346 74.3661 189.198C74.2319 187.478 74.2616 185.525 73.4037 184.006C72.1173 181.728 70.5893 179.924 67.8258 179.609C65.6163 179.358 61.713 179.362 60.7497 181.9" fill="#3E245C"/>
<path d="M79.359 193.817C79.5085 194.415 76.5178 204.284 78.3122 207.723L66.6484 206.976C66.6484 206.976 71.284 204.882 71.8822 186.49L79.359 193.817Z" fill="#DC8987"/>
<path d="M53.9141 277.383C57.3342 266.869 59.0529 255.915 59.0529 244.929C59.0529 239.033 58.5564 233.138 57.5633 227.291L54.9234 211.812C54.4432 207.942 57.1693 204.404 61.0314 203.876L70.1972 202.639H78.5904L81.3328 203.411L91.4993 206.288C92.0821 217.046 88.1501 231.413 88.8278 243.952C89.4499 255.403 94.6837 264.908 95.3614 277.384L53.9141 277.383Z" fill="url(#paint10_linear_4291_18073)"/>
<path d="M131.838 174.602L127.5 197.019L127.489 197.067C126.066 204.595 120.747 210.77 113.414 213.078L99.3338 217.505C94.2659 219.1 88.7177 218.529 83.9412 215.925C80.059 213.808 80.6437 208.012 84.8423 206.986C85.7816 206.757 86.7316 206.57 87.6892 206.427L107.294 203.505C112.689 202.694 117.049 198.782 118.492 193.446L122.309 173.018L123.951 173.291L128.538 174.052L131.838 174.602Z" fill="url(#paint11_linear_4291_18073)"/>
<path d="M66.6484 203.12L67.423 200.587C67.4536 200.487 67.491 200.391 67.5361 200.3C67.9473 199.469 69.0161 199.298 69.805 199.785C71.4566 200.804 75.6196 201.015 78.0783 199.684C79.0753 199.143 80.3741 199.652 80.5984 200.764C80.6003 200.773 80.6022 200.782 80.6042 200.791L81.0825 203.345C75.7241 206.008 70.9131 205.932 66.6484 203.12Z" fill="#F3CF58"/>
<path d="M78.7131 172.674C78.8109 173.112 81.6684 177.683 82.2703 179.694L87.7706 185.056C87.7706 185.056 88.1809 185.503 86.0087 186.754C86.0087 186.754 86.7488 190.81 86.6107 193.83C86.5302 195.604 84.9984 196.982 83.226 196.897C80.4491 196.763 76.3704 196.047 72.7001 189.998C72.7001 189.998 66.6937 192.973 66.1368 184.978C66.1368 184.978 64.257 174.602 69.7755 180.112L71.8441 181.714L78.7131 172.674Z" fill="#E89FAB"/>
<path d="M81.3591 181.445C81.6199 182.152 81.5719 182.821 81.2518 182.94C80.9316 183.058 80.461 182.58 80.1993 181.874C79.9386 181.166 79.9865 180.498 80.3066 180.379C80.6278 180.261 81.0984 180.738 81.3591 181.445Z" fill="#3E245C"/>
<path d="M84.8625 189.022C83.0057 189.436 81.4615 187.641 81.3905 187.558C81.3081 187.461 81.3206 187.316 81.4174 187.234C81.5142 187.152 81.6589 187.164 81.7423 187.261C81.7596 187.28 83.4198 189.204 85.1711 188.439C85.2909 188.389 85.4232 188.442 85.474 188.558C85.5248 188.674 85.4711 188.81 85.3552 188.861C85.1893 188.933 85.0254 188.986 84.8625 189.022Z" fill="#3E245C"/>
<path d="M78.2734 181.584C78.2734 181.584 78.9032 179.383 80.7015 178.804C81.0293 178.699 81.1827 178.324 81.0197 178.02C80.875 177.751 80.5347 177.64 80.2711 177.796C79.6931 178.135 78.7776 179.061 78.2734 181.584Z" fill="#3E245C"/>
<path d="M85.3522 172.153C85.0128 168.89 81.2859 164.776 77.8811 164.604C76.3359 164.533 74.9891 164.572 73.5312 165.045C71.8451 165.596 69.417 166.503 68.8179 168.441C68.5102 169.426 68.4786 170.868 67.4146 171.168C65.1131 171.822 63.1269 172.066 61.1494 173.587C59.2658 175.03 57.7685 177.047 57.595 179.459C57.4062 182.13 58.0599 186.071 59.0137 188.68C60.3116 192.211 65.1265 195.608 69.4879 195.715C69.4803 195.765 69.486 195.813 69.4726 195.863C69.2195 196.814 68.1987 197.195 67.6791 197.957C68.9895 198.441 70.7015 197.677 71.7454 196.891C72.8755 198.463 74.6019 198.199 76.2305 198.528C75.4301 198.061 74.9019 196.357 75.0783 195.631C75.3937 194.327 76.4864 193.333 76.8373 191.976C77.0539 191.138 77.1852 190.012 76.8152 189.225C76.8708 188.985 76.9283 188.747 76.9743 188.491C76.0915 188.357 75.2173 187.656 74.7361 186.6C74.066 185.118 74.4447 183.495 75.5873 182.975C76.1078 182.738 76.6906 182.769 77.2427 183.014C77.1795 181.808 77.0453 180.492 76.8248 179.073C77.4162 178.821 78.1486 177.552 78.4956 177.111C78.9135 176.583 79.2758 175.551 79.8586 175.227C80.2449 175.543 81.4345 177.734 81.4345 177.734C82.6481 177.829 84.847 172.02 84.0111 170.428C84.524 170.956 84.9735 171.531 85.3522 172.153Z" fill="url(#paint12_linear_4291_18073)"/>
<path d="M69.9725 167.303C69.7693 167.303 69.0073 167.283 68.6315 167.3C66.2658 167.408 57.6138 168.752 55.2116 176.248C51.7052 187.186 58.8465 192.029 60.8595 193.282C61.7893 193.861 62.7488 194.324 63.7409 194.814C64.2106 195.046 64.7829 195.362 65.3225 195.393C66.0357 195.433 66.1095 195.152 66.5811 194.608C67.9912 192.981 69.245 190.969 69.9975 188.986C70.864 186.701 71.7056 184.241 72.1849 181.855C72.6383 179.599 72.7025 177.229 72.7437 174.918C72.8233 170.359 69.9725 167.303 69.9725 167.303Z" fill="url(#paint13_linear_4291_18073)"/>
<path d="M65.1808 194.87C65.1808 194.87 63.3653 196.385 65.733 196.899C65.733 196.899 69.8807 196.692 73.2395 185.507C73.2922 185.33 73.3449 185.151 73.3976 184.969C75.5419 178.328 74.8623 172.033 71.653 166.049C71.653 166.049 69.6813 164.952 69.2854 167.283C73.8616 175.193 71.4393 184.617 65.1808 194.87Z" fill="#E16F5A"/>
<defs>
<linearGradient id="paint0_linear_4291_18073" x1="100.474" y1="18.8531" x2="92.9965" y2="-11.0662" gradientUnits="userSpaceOnUse">
<stop offset="0.0026" stop-color="#E16F5A"/>
<stop offset="1" stop-color="#F3CF58"/>
</linearGradient>
<linearGradient id="paint1_linear_4291_18073" x1="323.937" y1="256.59" x2="432.182" y2="256.59" gradientUnits="userSpaceOnUse">
<stop offset="0.0026" stop-color="#E16F5A"/>
<stop offset="1" stop-color="#F3CF58"/>
</linearGradient>
<linearGradient id="paint2_linear_4291_18073" x1="374.876" y1="-8.89976" x2="156.438" y2="257.756" gradientUnits="userSpaceOnUse">
<stop offset="0.0214" stop-color="#3E345C"/>
<stop offset="0.1909" stop-color="#413761"/>
<stop offset="0.4032" stop-color="#4B4071"/>
<stop offset="0.6383" stop-color="#5C4E8A"/>
<stop offset="0.8881" stop-color="#7262AE"/>
<stop offset="1" stop-color="#7E6CC0"/>
</linearGradient>
<linearGradient id="paint3_linear_4291_18073" x1="333.78" y1="105.083" x2="340.013" y2="137.851" gradientUnits="userSpaceOnUse">
<stop stop-color="#EEECFE"/>
<stop offset="0.4837" stop-color="#F3CF58"/>
</linearGradient>
<linearGradient id="paint4_linear_4291_18073" x1="407.788" y1="90.4884" x2="409.226" y2="116.849" gradientUnits="userSpaceOnUse">
<stop stop-color="#F3CF58"/>
<stop offset="0.9974" stop-color="#E16F5A"/>
</linearGradient>
<linearGradient id="paint5_linear_4291_18073" x1="46.6493" y1="224.531" x2="36.1074" y2="298.324" gradientUnits="userSpaceOnUse">
<stop offset="0.0026" stop-color="#E16F5A"/>
<stop offset="0.2115" stop-color="#E2735A"/>
<stop offset="0.4137" stop-color="#E47F5A"/>
<stop offset="0.6132" stop-color="#E89259"/>
<stop offset="0.8097" stop-color="#EDAD59"/>
<stop offset="1" stop-color="#F3CF58"/>
</linearGradient>
<linearGradient id="paint6_linear_4291_18073" x1="80.8462" y1="404.758" x2="121.967" y2="385.551" gradientUnits="userSpaceOnUse">
<stop offset="0.0026" stop-color="#E16F5A"/>
<stop offset="0.3814" stop-color="#E1715A"/>
<stop offset="0.5573" stop-color="#E3795A"/>
<stop offset="0.6913" stop-color="#E5855A"/>
<stop offset="0.8041" stop-color="#E99859"/>
<stop offset="0.9025" stop-color="#EDAF59"/>
<stop offset="0.9913" stop-color="#F2CC58"/>
<stop offset="1" stop-color="#F3CF58"/>
</linearGradient>
<linearGradient id="paint7_linear_4291_18073" x1="18.8482" y1="404.964" x2="59.9692" y2="385.758" gradientUnits="userSpaceOnUse">
<stop offset="0.0026" stop-color="#E16F5A"/>
<stop offset="0.3814" stop-color="#E1715A"/>
<stop offset="0.5573" stop-color="#E3795A"/>
<stop offset="0.6913" stop-color="#E5855A"/>
<stop offset="0.8041" stop-color="#E99859"/>
<stop offset="0.9025" stop-color="#EDAF59"/>
<stop offset="0.9913" stop-color="#F2CC58"/>
<stop offset="1" stop-color="#F3CF58"/>
</linearGradient>
<linearGradient id="paint8_linear_4291_18073" x1="50.2685" y1="323.597" x2="77.2722" y2="343.165" gradientUnits="userSpaceOnUse">
<stop offset="0.0214" stop-color="#3E345C"/>
<stop offset="0.1871" stop-color="#423762"/>
<stop offset="0.406" stop-color="#4C4172"/>
<stop offset="0.6546" stop-color="#5E508E"/>
<stop offset="0.9232" stop-color="#7665B4"/>
<stop offset="1" stop-color="#7E6CC0"/>
</linearGradient>
<linearGradient id="paint9_linear_4291_18073" x1="84.3968" y1="329.493" x2="113.714" y2="332.22" gradientUnits="userSpaceOnUse">
<stop offset="0.0214" stop-color="#3E345C"/>
<stop offset="0.1909" stop-color="#413761"/>
<stop offset="0.4032" stop-color="#4B4071"/>
<stop offset="0.6383" stop-color="#5C4E8A"/>
<stop offset="0.8881" stop-color="#7262AE"/>
<stop offset="1" stop-color="#7E6CC0"/>
</linearGradient>
<linearGradient id="paint10_linear_4291_18073" x1="62.4696" y1="251.09" x2="137.284" y2="199.07" gradientUnits="userSpaceOnUse">
<stop offset="0.0026" stop-color="#E16F5A"/>
<stop offset="1" stop-color="#F3CF58"/>
</linearGradient>
<linearGradient id="paint11_linear_4291_18073" x1="58.2015" y1="248.166" x2="128.082" y2="186.368" gradientUnits="userSpaceOnUse">
<stop offset="0.0026" stop-color="#E16F5A"/>
<stop offset="1" stop-color="#F3CF58"/>
</linearGradient>
<linearGradient id="paint12_linear_4291_18073" x1="71.4014" y1="183.868" x2="105.431" y2="159.425" gradientUnits="userSpaceOnUse">
<stop offset="0.0214" stop-color="#3E345C"/>
<stop offset="0.2515" stop-color="#4E4274"/>
<stop offset="1" stop-color="#7E6CC0"/>
</linearGradient>
<linearGradient id="paint13_linear_4291_18073" x1="59.05" y1="181.345" x2="77.5364" y2="181.345" gradientUnits="userSpaceOnUse">
<stop stop-color="#F3CF58"/>
<stop offset="0.9974" stop-color="#E16F5A"/>
</linearGradient>
</defs>
</svg>
