<svg width="449" height="397" viewBox="0 0 449 397" fill="none" xmlns="http://www.w3.org/2000/svg">
<path d="M115.734 74.9163C126.278 58.903 141.014 45.6042 158.115 36.6704C172.404 29.2051 188.848 24.7485 204.812 27.2724C220.775 29.7964 235.967 40.2555 241.11 55.3852" stroke="#F1CB6B" stroke-miterlimit="10" stroke-dasharray="4 2"/>
<path d="M57.7709 117.484C33.7464 130.5 17.2403 156.126 15.4925 183.123C13.2753 217.372 34.8394 251.05 65.6714 266.909C96.5035 282.768 134.816 281.649 166.385 267.273C196.249 253.675 221.455 226.75 225.472 194.529" stroke="#F1CB6B" stroke-miterlimit="10" stroke-dasharray="4 2"/>
<path d="M260.844 105.752C293.875 68.5489 346.117 60.2251 394.337 73.6968C467.429 94.1162 474.191 256.982 360.488 240.891C314.62 234.4 272.382 207.611 245.305 170.491" stroke="#F1CB6B" stroke-miterlimit="10" stroke-dasharray="4 2"/>
<path d="M0 376.001C0 379.039 99.3274 381.504 221.854 381.504C344.381 381.504 443.708 379.04 443.708 376.001C443.708 372.962 344.381 370.498 221.854 370.498C99.3274 370.498 0 372.962 0 376.001Z" fill="#EFE8E9"/>
<path opacity="0.3" d="M141.377 78.2783H99.4935L93.1306 66.7468C92.2884 65.2195 90.6674 64.2695 88.9064 64.2695H35.1381C32.4819 64.2695 30.3281 66.3955 30.3281 69.0176V78.2773V238.778C30.3281 242.427 33.325 245.385 37.0222 245.385H141.377C145.074 245.385 148.071 242.427 148.071 238.778V84.8861C148.071 81.2366 145.074 78.2783 141.377 78.2783Z" fill="#EFE8E9"/>
<path d="M47.2279 233.211C43.7162 233.211 40.8594 230.39 40.8594 226.925V67.0391H151.287C154.798 67.0391 157.655 69.8591 157.655 73.3256V226.925C157.655 230.391 154.798 233.21 151.287 233.21H47.2279V233.211Z" fill="white"/>
<path d="M151.292 67.5064C154.543 67.5064 157.188 70.1172 157.188 73.3258V226.925C157.188 230.134 154.543 232.744 151.292 232.744H47.2323C43.9809 232.744 41.3369 230.134 41.3369 226.925V67.5064H151.292ZM151.292 66.5723H40.3906V226.925C40.3906 230.655 43.4538 233.678 47.2323 233.678H151.292C155.071 233.678 158.134 230.655 158.134 226.925V73.3258C158.134 69.596 155.071 66.5723 151.292 66.5723Z" fill="#EFE8E9"/>
<path d="M98.9689 52.5645H45.2006C42.5444 52.5645 40.3906 54.6905 40.3906 57.3125V66.5722H109.556L103.193 55.0408C102.351 53.5144 100.73 52.5645 98.9689 52.5645Z" fill="#0A5840"/>
<path d="M59.9683 59.5689C59.9683 61.4362 58.4344 62.9504 56.5428 62.9504C54.6511 62.9504 53.1172 61.4362 53.1172 59.5689C53.1172 57.7017 54.6511 56.1875 56.5428 56.1875C58.4344 56.1875 59.9683 57.7017 59.9683 59.5689Z" stroke="white" stroke-miterlimit="10"/>
<path d="M74.3668 59.5689C74.3668 61.4362 72.8328 62.9504 70.9412 62.9504C69.0496 62.9504 67.5156 61.4362 67.5156 59.5689C67.5156 57.7017 69.0496 56.1875 70.9412 56.1875C72.8328 56.1875 74.3668 57.7017 74.3668 59.5689Z" stroke="white" stroke-miterlimit="10"/>
<path d="M88.7574 59.5689C88.7574 61.4362 87.2235 62.9504 85.3318 62.9504C83.4392 62.9504 81.9062 61.4362 81.9062 59.5689C81.9062 57.7017 83.4402 56.1875 85.3318 56.1875C87.2235 56.1875 88.7574 57.7017 88.7574 59.5689Z" stroke="white" stroke-miterlimit="10"/>
<path d="M159.537 185.177H59.5771C55.8847 185.177 52.8906 182.223 52.8906 178.577V176.706C52.8906 173.061 55.8837 170.105 59.5771 170.105H159.537C163.229 170.105 166.223 173.061 166.223 176.706V178.577C166.222 182.223 163.229 185.177 159.537 185.177Z" fill="#E2DDDE"/>
<path d="M159.537 221.894H59.5771C55.8847 221.894 52.8906 218.94 52.8906 215.294V199.188C52.8906 195.543 55.8837 192.588 59.5771 192.588H159.537C163.229 192.588 166.223 195.542 166.223 199.188V215.294C166.222 218.939 163.229 221.894 159.537 221.894Z" fill="#E2DDDE"/>
<path opacity="0.3" d="M154.201 188.892H54.2412C50.5488 188.892 47.5547 185.937 47.5547 182.292V180.421C47.5547 176.776 50.5478 173.82 54.2412 173.82H154.201C157.893 173.82 160.887 176.775 160.887 180.421V182.292C160.887 185.937 157.893 188.892 154.201 188.892Z" fill="#EFE8E9"/>
<path opacity="0.3" d="M154.201 225.607H54.2412C50.5488 225.607 47.5547 222.653 47.5547 219.007V202.901C47.5547 199.256 50.5478 196.301 54.2412 196.301H154.201C157.893 196.301 160.887 199.255 160.887 202.901V219.007C160.887 222.652 157.893 225.607 154.201 225.607Z" fill="#EFE8E9"/>
<path d="M66.5702 177.642C66.5702 180.556 64.178 182.917 61.2265 182.917C58.275 182.917 55.8828 180.556 55.8828 177.642C55.8828 174.729 58.275 172.367 61.2265 172.367C64.1771 172.367 66.5702 174.729 66.5702 177.642Z" fill="white"/>
<path d="M66.5702 200.96C66.5702 203.874 64.178 206.235 61.2265 206.235C58.275 206.235 55.8828 203.874 55.8828 200.96C55.8828 198.047 58.275 195.686 61.2265 195.686C64.1771 195.686 66.5702 198.047 66.5702 200.96Z" fill="white"/>
<path d="M92.2344 177.643H157.59" stroke="#BAAEAF" stroke-width="0.5" stroke-miterlimit="10"/>
<path d="M71.5938 177.643H86.4921" stroke="#BAAEAF" stroke-width="0.5" stroke-miterlimit="10"/>
<path d="M92.2344 200.494H157.59" stroke="#BAAEAF" stroke-width="0.5" stroke-miterlimit="10"/>
<path d="M71.5938 200.494H86.4921" stroke="#BAAEAF" stroke-width="0.5" stroke-miterlimit="10"/>
<path d="M129.57 207.24H157.597" stroke="#BAAEAF" stroke-width="0.5" stroke-miterlimit="10"/>
<path d="M71.5938 207.24H123.821" stroke="#BAAEAF" stroke-width="0.5" stroke-miterlimit="10"/>
<path d="M113.281 213.986H157.594" stroke="#BAAEAF" stroke-width="0.5" stroke-miterlimit="10"/>
<path d="M71.5938 213.986H107.535" stroke="#BAAEAF" stroke-width="0.5" stroke-miterlimit="10"/>
<path d="M56.5703 182.317L66.3076 172.967" stroke="#0A5840" stroke-width="2" stroke-miterlimit="10"/>
<path d="M56.7031 172.836L66.1764 182.448" stroke="#0A5840" stroke-width="2" stroke-miterlimit="10"/>
<path d="M56.5703 198.476L61.3699 203.714L69.8506 193.238" stroke="#94C19B" stroke-width="2" stroke-miterlimit="10"/>
<path d="M99.2532 161.778C117.761 161.778 132.764 146.968 132.764 128.698C132.764 110.429 117.761 95.6191 99.2532 95.6191C80.7456 95.6191 65.7422 110.429 65.7422 128.698C65.7422 146.968 80.7456 161.778 99.2532 161.778Z" fill="#F7F3F4"/>
<mask id="mask0_4291_18343" style="mask-type:luminance" maskUnits="userSpaceOnUse" x="65" y="95" width="68" height="67">
<path d="M99.2532 161.778C117.761 161.778 132.764 146.968 132.764 128.698C132.764 110.429 117.761 95.6191 99.2532 95.6191C80.7456 95.6191 65.7422 110.429 65.7422 128.698C65.7422 146.968 80.7456 161.778 99.2532 161.778Z" fill="white"/>
</mask>
<g mask="url(#mask0_4291_18343)">
<path d="M103.219 103.77C88.3421 103.224 84.5077 107.592 84.5077 118.755C84.5077 129.917 84.9014 132.829 79.5908 134.964C74.2812 137.099 69.9547 144.088 78.706 148.844C87.4573 153.6 115.285 148.844 115.285 148.844L113.894 114.881L103.219 103.77Z" fill="#AFA59E"/>
<path d="M112.948 136.271C122.316 140.866 125.327 164.29 125.327 164.29L107.68 166.9L112.948 136.271Z" fill="#DACCC8"/>
<path d="M112.952 136.273L112.553 142.731L111.771 155.35L111.657 157.182L111.296 162.986L110.843 170.28H86.2912L86.2694 170.061L83.5082 138.286L83.3359 136.273L90.5041 134.383L102.98 131.088L109.749 134.608C109.749 134.613 109.749 134.613 109.749 134.613L112.952 136.273Z" fill="#DACCC8"/>
<path d="M90.5 134.381L102.976 131.088L109.745 134.605C109.745 134.609 109.745 134.609 109.745 134.609C110.23 147.837 95.962 144.773 90.5 134.381Z" fill="white"/>
<path d="M101.459 137.584L96.1902 137.574C94.2607 137.57 92.7003 136.024 92.7031 134.119L92.7258 123.814L105.225 123.837L105.203 133.901C105.199 135.938 103.523 137.587 101.459 137.584Z" fill="white"/>
<path d="M105.214 131.366L105.212 133.2C99.9017 133.743 94.0423 130.246 95.6775 121.922L105.23 121.937L105.214 131.366Z" fill="white"/>
<path d="M101.659 103.819C107.708 103.199 113.121 107.537 113.749 113.509L114.124 117.073C114.704 122.592 110.643 127.53 105.051 128.104L94.9892 129.135C94.0382 129.232 93.1874 128.55 93.0881 127.611L91.8409 115.754C91.2135 109.782 95.609 104.439 101.659 103.819Z" fill="white"/>
<path d="M93.5384 119.005C93.5384 119.005 100.146 113.464 103.218 103.77C86.0845 102.424 85.8999 117.558 93.5384 119.005Z" fill="#AFA59E"/>
<path d="M96.1617 120.014C93.5017 115.065 91.0943 114.725 89.1516 115.729C85.5907 117.567 87.1445 125.945 93.7373 124.168L96.1617 120.014Z" fill="white"/>
<path d="M99.2656 103.761C99.2656 103.761 110.39 102.884 113.898 114.882C114 104.641 107.267 102.59 99.2656 103.761Z" fill="#AFA59E"/>
<path d="M77.1103 142.952C76.5416 148.023 75.6823 164.534 76.868 177.882L87.3359 173.821C95.1854 140.762 87.1684 135.262 87.1684 135.262C87.1684 135.262 77.909 135.833 77.1103 142.952Z" fill="#DACCC8"/>
</g>
<path d="M143.01 84.502H55.5156" stroke="#EFE8E9" stroke-width="8" stroke-miterlimit="10" stroke-linecap="round" stroke-linejoin="round"/>
<path opacity="0.3" d="M417.377 78.2783H375.493L369.131 66.7468C368.288 65.2195 366.667 64.2695 364.906 64.2695H311.138C308.482 64.2695 306.328 66.3955 306.328 69.0176V78.2773V238.778C306.328 242.427 309.325 245.385 313.022 245.385H417.378C421.075 245.385 424.072 242.427 424.072 238.778V84.8861C424.07 81.2366 421.073 78.2783 417.377 78.2783Z" fill="#EFE8E9"/>
<path d="M322.869 233.211C319.357 233.211 316.5 230.39 316.5 226.925V67.0391H426.928C430.44 67.0391 433.297 69.8591 433.297 73.3256V226.925C433.297 230.391 430.439 233.21 426.928 233.21H322.869V233.211Z" fill="white"/>
<path d="M426.924 67.5064C430.175 67.5064 432.819 70.1172 432.819 73.3258V226.925C432.819 230.134 430.174 232.744 426.924 232.744H322.865C319.615 232.744 316.97 230.134 316.97 226.925V67.5064H426.924ZM426.924 66.5723H316.023V226.925C316.023 230.655 319.087 233.678 322.865 233.678H426.924C430.703 233.678 433.766 230.655 433.766 226.925V73.3258C433.767 69.596 430.703 66.5723 426.924 66.5723Z" fill="#EFE8E9"/>
<path d="M374.602 52.5645H320.833C318.177 52.5645 316.023 54.6905 316.023 57.3125V66.5722H385.189L378.826 55.0408C377.983 53.5144 376.363 52.5645 374.602 52.5645Z" fill="#0A5840"/>
<path d="M335.609 59.5689C335.609 61.4362 334.075 62.9504 332.183 62.9504C330.292 62.9504 328.758 61.4362 328.758 59.5689C328.758 57.7017 330.292 56.1875 332.183 56.1875C334.075 56.1875 335.609 57.7017 335.609 59.5689Z" stroke="white" stroke-miterlimit="10"/>
<path d="M350 59.5689C350 61.4362 348.466 62.9504 346.574 62.9504C344.682 62.9504 343.148 61.4362 343.148 59.5689C343.148 57.7017 344.682 56.1875 346.574 56.1875C348.466 56.1875 350 57.7017 350 59.5689Z" stroke="white" stroke-miterlimit="10"/>
<path d="M364.39 59.5689C364.39 61.4362 362.856 62.9504 360.965 62.9504C359.073 62.9504 357.539 61.4362 357.539 59.5689C357.539 57.7017 359.073 56.1875 360.965 56.1875C362.856 56.1875 364.39 57.7017 364.39 59.5689Z" stroke="white" stroke-miterlimit="10"/>
<path d="M435.169 185.177H335.21C331.517 185.177 328.523 182.223 328.523 178.577V176.706C328.523 173.061 331.517 170.105 335.21 170.105H435.169C438.862 170.105 441.856 173.061 441.856 176.706V178.577C441.855 182.223 438.862 185.177 435.169 185.177Z" fill="#E2DDDE"/>
<path d="M435.169 221.894H335.21C331.517 221.894 328.523 218.94 328.523 215.294V199.188C328.523 195.543 331.517 192.588 335.21 192.588H435.169C438.862 192.588 441.856 195.542 441.856 199.188V215.294C441.855 218.939 438.862 221.894 435.169 221.894Z" fill="#E2DDDE"/>
<path opacity="0.3" d="M429.841 188.892H329.882C326.189 188.892 323.195 185.937 323.195 182.292V180.421C323.195 176.776 326.189 173.82 329.882 173.82H429.841C433.534 173.82 436.528 176.775 436.528 180.421V182.292C436.528 185.937 433.534 188.892 429.841 188.892Z" fill="#EFE8E9"/>
<path opacity="0.3" d="M429.841 225.607H329.882C326.189 225.607 323.195 222.653 323.195 219.007V202.901C323.195 199.256 326.189 196.301 329.882 196.301H429.841C433.534 196.301 436.528 199.255 436.528 202.901V219.007C436.528 222.652 433.534 225.607 429.841 225.607Z" fill="#EFE8E9"/>
<path d="M336.867 182.917C339.818 182.917 342.211 180.555 342.211 177.642C342.211 174.729 339.818 172.367 336.867 172.367C333.916 172.367 331.523 174.729 331.523 177.642C331.523 180.555 333.916 182.917 336.867 182.917Z" fill="white"/>
<path d="M336.867 206.235C339.818 206.235 342.211 203.874 342.211 200.96C342.211 198.047 339.818 195.686 336.867 195.686C333.916 195.686 331.523 198.047 331.523 200.96C331.523 203.874 333.916 206.235 336.867 206.235Z" fill="white"/>
<path d="M367.867 177.643H433.223" stroke="#BAAEAF" stroke-width="0.5" stroke-miterlimit="10"/>
<path d="M347.227 177.643H362.124" stroke="#BAAEAF" stroke-width="0.5" stroke-miterlimit="10"/>
<path d="M367.867 200.494H433.223" stroke="#BAAEAF" stroke-width="0.5" stroke-miterlimit="10"/>
<path d="M347.227 200.494H362.124" stroke="#BAAEAF" stroke-width="0.5" stroke-miterlimit="10"/>
<path d="M405.203 207.24H433.229" stroke="#BAAEAF" stroke-width="0.5" stroke-miterlimit="10"/>
<path d="M347.227 207.24H399.454" stroke="#BAAEAF" stroke-width="0.5" stroke-miterlimit="10"/>
<path d="M388.922 213.986H433.235" stroke="#BAAEAF" stroke-width="0.5" stroke-miterlimit="10"/>
<path d="M347.227 213.986H383.168" stroke="#BAAEAF" stroke-width="0.5" stroke-miterlimit="10"/>
<path d="M332.211 174.686L337.011 179.923L345.491 169.447" stroke="#94C19B" stroke-width="2" stroke-miterlimit="10"/>
<path d="M332.211 205.636L341.948 196.285" stroke="#0A5840" stroke-width="2" stroke-miterlimit="10"/>
<path d="M332.344 196.154L341.817 205.766" stroke="#0A5840" stroke-width="2" stroke-miterlimit="10"/>
<path d="M418.642 84.502H331.148" stroke="#EFE8E9" stroke-width="8" stroke-miterlimit="10" stroke-linecap="round" stroke-linejoin="round"/>
<path d="M380.283 161.326C398.548 158.383 410.938 141.381 407.957 123.351C404.975 105.321 387.751 93.091 369.486 96.0342C351.221 98.9774 338.831 115.979 341.813 134.009C344.794 152.039 362.018 164.269 380.283 161.326Z" fill="#F7F3F4"/>
<mask id="mask1_4291_18343" style="mask-type:luminance" maskUnits="userSpaceOnUse" x="341" y="95" width="68" height="67">
<path d="M380.283 161.326C398.548 158.383 410.938 141.381 407.957 123.351C404.975 105.321 387.751 93.091 369.486 96.0342C351.221 98.9774 338.831 115.979 341.813 134.009C344.794 152.039 362.018 164.269 380.283 161.326Z" fill="white"/>
</mask>
<g mask="url(#mask1_4291_18343)">
<path d="M383.184 141.705L375.75 143.994C375.762 144.212 375.884 146.373 376.227 149.351C376.735 153.73 377.714 159.854 379.5 164.142C379.904 165.102 380.729 166.383 381.892 167.784L393.63 157.663C392.131 155.331 390.079 151.151 389.339 147.811C389.07 146.579 387.925 144.755 386.316 143.39C385.52 142.707 384.609 142.14 383.63 141.819C383.593 141.802 383.545 141.783 383.508 141.777C383.409 141.753 383.317 141.723 383.226 141.693L383.184 141.705Z" fill="#AFA59E"/>
<path d="M354.45 150.242C354.45 150.279 354.456 150.314 354.462 150.345C354.854 153.099 355.422 155.871 356.139 158.553C357.411 163.3 359.167 167.781 361.285 171.435C362.116 172.866 363.004 174.177 363.94 175.325C364.087 175.5 364.233 175.675 364.381 175.844L365.188 174.968L365.372 174.769L382.498 178.053L385.244 153.3L386.37 152.086C386.847 150.359 387.141 149.012 387.293 147.919C387.489 146.433 387.092 144.984 386.259 143.836C386.003 143.48 385.703 143.148 385.366 142.857C385.323 142.821 385.274 142.779 385.231 142.742C384.656 142.272 383.978 141.909 383.224 141.692C383.206 141.685 383.194 141.685 383.175 141.679C377.333 139.989 366.993 138.237 363.414 137.669C363.224 137.639 363.059 137.609 362.906 137.585C362.447 137.512 362.178 137.47 362.153 137.47C359.957 137.27 358.299 137.591 357.076 138.34C355.332 139.396 354.475 141.311 354.2 143.77C353.984 145.652 354.113 147.857 354.45 150.242Z" fill="#AFA59E"/>
<path d="M390.728 119.588C394.571 115.794 394.571 109.643 390.728 105.849C386.885 102.056 380.654 102.056 376.81 105.849C372.967 109.643 372.967 115.794 376.81 119.588C380.654 123.382 386.885 123.382 390.728 119.588Z" fill="#AFA59E"/>
<path d="M378.947 118.561C382.414 115.138 382.414 109.588 378.947 106.165C375.479 102.742 369.856 102.742 366.388 106.165C362.921 109.588 362.921 115.138 366.388 118.561C369.856 121.985 375.479 121.985 378.947 118.561Z" fill="#AFA59E"/>
<path d="M378.026 120.462C378.815 115.684 375.529 111.18 370.689 110.402C365.848 109.624 361.285 112.867 360.497 117.645C359.709 122.423 362.994 126.928 367.835 127.706C372.675 128.483 377.238 125.241 378.026 120.462Z" fill="#AFA59E"/>
<path d="M389.922 119.892C393.049 113.341 388.635 103.429 374.742 109.377L389.922 119.892Z" fill="#AFA59E"/>
<path d="M382.611 141.824C382.013 149.471 367.42 146.298 365.93 138.398L374.073 138.408L382.611 141.824Z" fill="white"/>
<path d="M380.401 143.008L367.219 140.429L370.378 123.037L383.56 125.615L380.401 143.008Z" fill="white"/>
<path d="M381.014 139.646L378.081 139.126C375.238 138.623 373.346 135.94 373.857 133.134L375.482 124.184L383.563 125.614L381.014 139.646Z" fill="white"/>
<path d="M369.234 121.772V135.585H382.713C387.106 135.585 390.741 132.432 391.426 128.289C391.505 127.824 391.548 127.348 391.548 126.864V121.773C391.548 121.241 391.511 120.722 391.432 120.215C391.285 119.171 390.985 118.18 390.551 117.25C388.807 113.427 384.915 110.764 380.388 110.764C380.107 110.764 379.82 110.776 379.55 110.794C375.39 111.102 371.865 113.662 370.219 117.25C369.803 118.18 369.503 119.171 369.356 120.215C369.271 120.721 369.234 121.241 369.234 121.772Z" fill="white"/>
<path d="M384.808 109.838C383.58 117.296 373.766 116.081 373.766 116.081C373.766 116.081 375.257 121.635 372.771 125.208L367.18 121.929L370.25 109.995L384.808 109.838Z" fill="#AFA59E"/>
<path d="M373.031 124.867C370.051 120.34 367.711 120.215 365.932 121.342C363.719 122.743 363.999 127.116 366.795 128.903C369.238 130.464 372.509 128.764 372.89 125.915L373.031 124.867Z" fill="white"/>
<path d="M346.562 156.117L359.645 158.74C365.062 142.397 360.21 137.412 360.21 137.412C360.21 137.412 357.583 137.668 355.724 138.747C352.703 140.492 351.273 142.741 349.171 147.986C348.335 150.077 347.469 152.723 346.562 156.117Z" fill="#AFA59E"/>
</g>
<path opacity="0.3" d="M279.369 78.2783H237.486L231.123 66.7468C230.281 65.2195 228.66 64.2695 226.899 64.2695H173.13C170.474 64.2695 168.32 66.3955 168.32 69.0176V78.2773V238.778C168.32 242.427 171.317 245.385 175.014 245.385H279.369C283.067 245.385 286.063 242.427 286.063 238.778V84.8861C286.063 81.2366 283.067 78.2783 279.369 78.2783Z" fill="#EFE8E9"/>
<path d="M183.923 236.584C180.412 236.584 177.555 233.763 177.555 230.298V70.4121H287.983C291.495 70.4121 294.352 73.2322 294.352 76.6986V230.299C294.352 233.765 291.494 236.584 287.983 236.584H183.923Z" fill="white"/>
<path d="M287.987 70.8794C291.238 70.8794 293.883 73.4902 293.883 76.6989V230.298C293.883 233.508 291.238 236.117 287.987 236.117H183.929C180.677 236.117 178.033 233.507 178.033 230.298V70.8794H287.987ZM287.987 69.9453H177.086V230.298C177.086 234.028 180.149 237.051 183.928 237.051H287.986C291.765 237.051 294.828 234.028 294.828 230.298V76.6989C294.83 72.969 291.766 69.9453 287.987 69.9453Z" fill="#EFE8E9"/>
<path d="M235.664 55.9375H181.896C179.24 55.9375 177.086 58.0635 177.086 60.6855V69.9453H246.251L239.888 58.4138C239.046 56.8875 237.426 55.9375 235.664 55.9375Z" fill="#0A5840"/>
<path d="M196.664 62.942C196.664 64.8093 195.13 66.3234 193.238 66.3234C191.346 66.3234 189.812 64.8093 189.812 62.942C189.812 61.0738 191.346 59.5605 193.238 59.5605C195.13 59.5605 196.664 61.0738 196.664 62.942Z" stroke="white" stroke-miterlimit="10"/>
<path d="M211.054 62.942C211.054 64.8093 209.52 66.3234 207.629 66.3234C205.737 66.3234 204.203 64.8093 204.203 62.942C204.203 61.0738 205.737 59.5605 207.629 59.5605C209.521 59.5605 211.054 61.0738 211.054 62.942Z" stroke="white" stroke-miterlimit="10"/>
<path d="M225.453 62.942C225.453 64.8093 223.919 66.3234 222.027 66.3234C220.135 66.3234 218.602 64.8093 218.602 62.942C218.602 61.0738 220.135 59.5605 222.027 59.5605C223.919 59.5605 225.453 61.0738 225.453 62.942Z" stroke="white" stroke-miterlimit="10"/>
<path d="M296.232 188.55H196.272C192.58 188.55 189.586 185.596 189.586 181.95V180.079C189.586 176.434 192.579 173.479 196.272 173.479H296.232C299.924 173.479 302.918 176.433 302.918 180.079V181.95C302.918 185.595 299.924 188.55 296.232 188.55Z" fill="#E2DDDE"/>
<path d="M296.232 225.265H196.272C192.58 225.265 189.586 222.311 189.586 218.665V202.559C189.586 198.914 192.579 195.959 196.272 195.959H296.232C299.924 195.959 302.918 198.914 302.918 202.559V218.665C302.918 222.311 299.924 225.265 296.232 225.265Z" fill="#E2DDDE"/>
<path opacity="0.3" d="M290.896 192.265H190.936C187.244 192.265 184.25 189.31 184.25 185.665V183.794C184.25 180.149 187.243 177.193 190.936 177.193H290.896C294.588 177.193 297.582 180.148 297.582 183.794V185.665C297.582 189.31 294.588 192.265 290.896 192.265Z" fill="#EFE8E9"/>
<path opacity="0.3" d="M290.896 228.98H190.936C187.244 228.98 184.25 226.025 184.25 222.38V206.274C184.25 202.629 187.243 199.674 190.936 199.674H290.896C294.588 199.674 297.582 202.628 297.582 206.274V222.38C297.582 226.026 294.588 228.98 290.896 228.98Z" fill="#EFE8E9"/>
<path d="M197.922 186.288C200.873 186.288 203.266 183.926 203.266 181.013C203.266 178.1 200.873 175.738 197.922 175.738C194.971 175.738 192.578 178.1 192.578 181.013C192.578 183.926 194.971 186.288 197.922 186.288Z" fill="white"/>
<path d="M197.922 209.608C200.873 209.608 203.266 207.247 203.266 204.333C203.266 201.42 200.873 199.059 197.922 199.059C194.971 199.059 192.578 201.42 192.578 204.333C192.578 207.247 194.971 209.608 197.922 209.608Z" fill="white"/>
<path d="M228.93 181.014H294.286" stroke="#BAAEAF" stroke-width="0.5" stroke-miterlimit="10"/>
<path d="M208.289 181.014H223.187" stroke="#BAAEAF" stroke-width="0.5" stroke-miterlimit="10"/>
<path d="M228.93 203.865H294.286" stroke="#BAAEAF" stroke-width="0.5" stroke-miterlimit="10"/>
<path d="M208.289 203.865H223.187" stroke="#BAAEAF" stroke-width="0.5" stroke-miterlimit="10"/>
<path d="M266.266 210.611H294.292" stroke="#BAAEAF" stroke-width="0.5" stroke-miterlimit="10"/>
<path d="M208.289 210.611H260.518" stroke="#BAAEAF" stroke-width="0.5" stroke-miterlimit="10"/>
<path d="M249.977 217.359H294.289" stroke="#BAAEAF" stroke-width="0.5" stroke-miterlimit="10"/>
<path d="M208.289 217.359H244.231" stroke="#BAAEAF" stroke-width="0.5" stroke-miterlimit="10"/>
<path d="M193.266 178.058L198.065 183.295L206.546 172.82" stroke="#94C19B" stroke-width="2" stroke-miterlimit="10"/>
<path d="M193.266 201.196L198.065 206.435L206.546 195.959" stroke="#94C19B" stroke-width="2" stroke-miterlimit="10"/>
<path d="M279.704 87.875H192.211" stroke="#EFE8E9" stroke-width="8" stroke-miterlimit="10" stroke-linecap="round" stroke-linejoin="round"/>
<path d="M262.721 176.3C293.3 171.37 314.04 142.903 309.045 112.718C304.05 82.5331 275.212 62.0603 244.633 66.9907C214.055 71.9211 193.315 100.388 198.309 130.573C203.304 160.758 232.142 181.23 262.721 176.3Z" fill="#F7F3F4"/>
<mask id="mask2_4291_18343" style="mask-type:luminance" maskUnits="userSpaceOnUse" x="197" y="66" width="113" height="112">
<path d="M262.721 176.298C293.3 171.368 314.04 142.901 309.045 112.716C304.05 82.5312 275.212 62.0583 244.633 66.9887C214.055 71.9191 193.315 100.386 198.309 130.571C203.304 160.756 232.142 181.228 262.721 176.298Z" fill="white"/>
</mask>
<g mask="url(#mask2_4291_18343)">
<path d="M222.315 136.502C208.225 145.552 212.455 167.716 212.455 167.716C212.455 167.716 251.191 185.127 279.167 171.106C277.446 143.915 261.262 139.215 261.262 139.215L222.315 136.502Z" fill="#0A5840"/>
<path d="M274.364 221.582L230.061 221.657L213.969 221.686C213.969 221.686 216.901 214.669 219.458 205.401C221.604 197.614 223.487 188.247 223.147 180.12C222.947 175.262 222.302 170.156 222.308 164.923C222.314 161.599 209.577 145.193 222.308 136.504C229.007 131.932 247.404 130.853 246.284 131.895L261.256 139.216C267.63 142.333 271.277 149.011 270.669 156.008C270.558 157.28 270.589 158.592 270.858 159.915C270.964 160.384 271.051 160.876 271.133 161.356C271.386 162.995 271.55 164.668 271.532 166.382C271.537 166.856 271.526 167.361 271.462 167.864C271.432 168.588 271.35 169.34 271.227 170.07C270.517 174.4 268.476 178.702 264.201 182.476L264.265 182.766L264.276 182.829L267.11 193.701L269.954 204.637L270.03 204.927L274.364 221.582Z" fill="#0A5840"/>
<path d="M281.601 96.1912C281.601 101.485 277.254 105.777 271.891 105.777C266.527 105.777 262.18 101.486 262.18 96.1912C262.18 90.8967 266.527 86.6055 271.891 86.6055C277.254 86.6055 281.601 90.8967 281.601 96.1912Z" fill="black"/>
<path d="M271.681 86.1319C272.124 80.8559 268.15 76.2243 262.805 75.787C257.461 75.3497 252.769 79.2723 252.326 84.5484C251.883 89.8244 255.856 94.4561 261.201 94.8933C266.546 95.3306 271.238 91.408 271.681 86.1319Z" fill="black"/>
<path d="M258.808 90.8246C259.925 85.6465 256.578 80.5548 251.333 79.4521C246.087 78.3493 240.929 81.6531 239.812 86.8312C238.695 92.0093 242.042 97.101 247.287 98.2037C252.533 99.3065 257.691 96.0028 258.808 90.8246Z" fill="black"/>
<path d="M237.129 94.6891C233.207 104.605 234.594 110.917 240.929 115.039L246.929 108.575L243.341 93.0273L237.129 94.6891Z" fill="black"/>
<path d="M240.523 108.574L242.804 132.721L261.023 144.875L261.281 115.106L240.523 108.574Z" fill="#89482F"/>
<path d="M237.539 115.324L241.857 122.768L244.559 117.094L237.539 115.324Z" fill="black"/>
<path d="M261.111 134.707C261.111 134.707 249.873 132.706 249.547 120.186L261.281 123.957L261.111 134.707Z" fill="#5E1E1A"/>
<path d="M268.62 90.998C274.053 97.5741 274.767 106.237 274.767 106.237L268.875 107.156L264.398 93.2249L268.62 90.998Z" fill="black"/>
<path d="M242.364 98.7L244.116 105.55L244.92 108.671L247.07 117.053C248.23 121.578 251.682 125.187 256.191 126.591L263.202 128.774C269.279 130.667 275.529 126.502 276.094 120.237C276.51 115.639 276.507 110.275 274.734 104.576C272.671 97.9564 267.293 92.7843 260.894 90.7199L260.868 90.7125L259.744 90.3809L259.623 90.351C259.062 90.2062 258.485 90.0875 257.909 89.9941C256.539 89.7541 255.124 89.6513 253.694 89.6924L249.158 89.8232C244.54 89.9558 241.232 94.277 242.364 98.7Z" fill="#89482F"/>
<path d="M271.751 109.513C271.751 111.161 271.133 112.498 270.371 112.498C269.609 112.498 268.992 111.161 268.992 109.513C268.992 107.864 269.609 106.527 270.371 106.527C271.134 106.526 271.751 107.863 271.751 109.513Z" fill="black"/>
<path d="M267.259 107.549C268.78 111.162 271.294 111.906 273.04 111.931C274.161 111.947 275.082 112.802 275.172 113.905C275.29 115.361 274.529 116.748 273.23 117.446L268.634 119.914C266.056 120.765 263.297 119.24 262.682 116.626L260.602 107.767L267.259 107.549Z" fill="#89482F"/>
<path d="M270.328 119.332L270.048 118.823L273.086 117.191C274.282 116.55 274.984 115.269 274.875 113.929C274.797 112.968 274.005 112.234 273.032 112.22C271.139 112.193 268.551 111.38 266.984 107.66L267.527 107.438C268.971 110.868 271.322 111.617 273.041 111.641C274.317 111.66 275.358 112.624 275.46 113.882C275.588 115.45 274.766 116.949 273.366 117.7L270.328 119.332Z" fill="#5E1E1A"/>
<path d="M261.564 110.034C261.564 111.683 260.946 113.02 260.184 113.02C259.423 113.02 258.805 111.683 258.805 110.034C258.805 108.386 259.422 107.049 260.183 107.049C260.946 107.049 261.563 108.385 261.564 110.034Z" fill="black"/>
<path d="M258.723 102.846C254.943 104.402 253.904 102.486 256.616 100.865C259.533 99.1207 263.427 100.91 258.723 102.846Z" fill="black"/>
<path d="M269.612 101.098C266.663 100.626 267.482 98.7939 269.948 98.7659C272.601 98.735 273.281 101.686 269.612 101.098Z" fill="black"/>
<path d="M268.647 120.548L261.844 120.029C261.844 120.029 262.609 123.909 264.583 124.328C266.729 124.785 268.647 120.548 268.647 120.548Z" fill="white"/>
<path d="M252.174 89.7498C255.743 98.0726 249.024 109.458 234.932 108.629C228.999 96.7976 229.253 86.2161 252.174 89.7498Z" fill="black"/>
<path d="M247.33 109.556C233.18 90.3645 225.83 120.754 246.627 119.16L247.33 109.556Z" fill="#89482F"/>
<path d="M247.187 97.2656L247.451 113.385L246.082 114.288L240.93 98.7892L247.187 97.2656Z" fill="black"/>
<path d="M247.969 91.4911C259.282 95.8646 269.588 92.2496 269.588 92.2496C269.588 92.2496 265.832 83.3214 247.969 91.4911Z" fill="black"/>
<path d="M233.663 93.3199C233.663 87.6453 227.314 90.3654 231.673 94.0401C224.028 93.021 229.815 102.38 233.335 99.1067" fill="black"/>
<path d="M261.723 145.192C264.178 132.024 251.627 129.233 242.145 125.387L236.93 132.009L261.723 145.192Z" fill="white"/>
</g>
<path d="M122.286 179.294C118.893 180.581 115.256 179.773 112.717 177.586C111.378 176.43 110.342 174.889 109.818 173.065C108.634 168.96 110.421 164.744 113.861 162.586C114.761 162.021 115.777 161.596 116.883 161.351L156.866 152.513L156.92 152.498L159.108 158.501C159.108 158.501 144.681 170.802 122.286 179.294Z" fill="#E89E91"/>
<path d="M153.157 162.118C146.961 166.466 136.097 173.245 122.119 178.551C118.719 179.833 115.087 179.026 112.545 176.84C111.204 175.678 110.169 174.138 109.644 172.318C108.464 168.211 110.253 163.996 113.693 161.843C114.592 161.277 115.605 160.845 116.715 160.609L150.89 153.051L153.157 162.118Z" fill="#849CF1"/>
<path d="M166.344 165.023C164.558 159.683 161.468 157.217 155.781 157.614C155.781 157.614 162.648 158.131 166.344 165.023Z" fill="#E89E91"/>
<path d="M172.542 175.263L189.151 158.312L168.795 162.138L166.703 177.361L172.542 175.263Z" fill="#F2C7BF"/>
<path d="M174.484 163.948L189.146 158.316L189.235 157.838C189.582 155.958 190.747 154.326 192.424 153.377C192.692 153.221 192.822 152.915 192.755 152.63C192.745 152.585 192.727 152.542 192.709 152.499C192.188 151.36 190.939 150.774 189.753 151.043C189.555 151.088 189.365 151.163 189.169 151.254L188.331 151.745L188.246 151.795C186.803 152.644 185.877 154.134 185.765 155.788L174.843 163.693L174.484 163.948Z" fill="#F2C7BF"/>
<path d="M180.258 163.432L186.693 159.664C187.061 156.54 188.488 155.076 190.165 154.127C190.432 153.971 190.562 153.666 190.495 153.381C190.484 153.336 190.466 153.292 190.448 153.249C190.053 152.375 189.221 151.828 188.33 151.746L188.245 151.797C186.802 152.646 185.876 154.136 185.764 155.789L185.115 159.228L180.258 163.432Z" fill="#E89E91"/>
<path d="M185.125 159.228L185.213 158.752C185.559 156.875 186.725 155.244 188.4 154.292C188.709 154.116 188.834 153.737 188.686 153.415C188.078 152.083 186.471 151.516 185.146 152.166L184.224 152.709C182.783 153.559 181.853 155.052 181.739 156.705L170.461 164.863L185.125 159.228Z" fill="#F2C7BF"/>
<path d="M106.08 181.688L108.069 186.442C108.681 187.905 110.381 188.602 111.864 187.998L204.144 150.375C205.627 149.771 206.333 148.094 205.721 146.63L203.732 141.876C203.12 140.412 201.422 139.715 199.938 140.319L107.657 177.942C106.174 178.547 105.468 180.224 106.08 181.688Z" fill="black"/>
<path d="M247.564 65.4384C215.989 68.3509 192.637 99.7667 195.587 130.936C198.536 162.093 226.511 184.999 258.087 182.086C289.651 179.175 312.855 151.549 309.906 120.392C306.955 89.2234 279.128 62.5277 247.564 65.4384ZM247.293 68.0361C277.282 65.2703 303.874 87.0348 306.678 116.651C309.48 146.253 287.432 172.503 257.443 175.27C227.441 178.037 200.848 156.272 198.046 126.67C195.242 97.054 217.291 70.8039 247.293 68.0361Z" fill="#AFA59E"/>
<path d="M197.116 158.547L189.469 141.465C188.796 139.963 189.485 138.207 191.007 137.543L193.477 136.466C194.999 135.801 196.778 136.481 197.45 137.983L205.097 155.065C205.77 156.567 205.081 158.324 203.559 158.987L201.088 160.065C199.567 160.729 197.788 160.049 197.116 158.547Z" fill="#AFA59E"/>
<path d="M195.607 155.176L189.469 141.465C188.796 139.963 189.485 138.207 191.007 137.543L193.477 136.466C194.999 135.801 196.778 136.481 197.45 137.983L203.588 151.694C204.26 153.196 203.571 154.951 202.05 155.616L199.579 156.694C198.057 157.357 196.278 156.678 195.607 155.176Z" fill="#EFE8E9"/>
<path opacity="0.2" d="M248.648 70.2151C219.429 72.9099 197.121 98.8406 199.851 127.683C202.58 156.513 229.314 177.344 258.533 174.65C287.739 171.956 309.212 146.39 306.483 117.56C303.753 88.7178 277.854 67.522 248.648 70.2151Z" fill="white"/>
<mask id="mask3_4291_18343" style="mask-type:luminance" maskUnits="userSpaceOnUse" x="199" y="69" width="108" height="106">
<path d="M248.648 70.2151C219.43 72.9099 197.113 98.7818 199.843 127.624C202.572 156.454 229.315 177.344 258.533 174.65C287.74 171.956 309.213 146.39 306.484 117.56C303.754 88.7178 277.855 67.522 248.648 70.2151Z" fill="white"/>
</mask>
<g mask="url(#mask3_4291_18343)">
<path d="M199.778 57.584L180.078 79.3953L300.288 185.194L319.989 163.383L199.778 57.584Z" fill="url(#paint0_linear_4291_18343)"/>
<path d="M174.55 85.5137L162.828 98.4911L283.039 204.29L294.76 191.313L174.55 85.5137Z" fill="url(#paint1_linear_4291_18343)"/>
<path d="M219.722 35.502L208 48.4794L328.211 154.279L339.932 141.301L219.722 35.502Z" fill="url(#paint2_linear_4291_18343)"/>
</g>
<path d="M253.278 177.769C238.746 177.768 224.788 172.441 213.976 162.77C203.095 153.037 196.35 139.725 194.984 125.284C191.976 93.5162 215.712 65.2568 247.895 62.2882C249.729 62.1191 251.586 62.0332 253.417 62.0332C267.946 62.0332 281.904 67.3585 292.716 77.0274C303.599 86.7589 310.346 100.074 311.712 114.518C314.72 146.285 290.984 174.546 258.801 177.513C256.967 177.682 255.111 177.768 253.282 177.768C253.28 177.769 253.278 177.769 253.278 177.769ZM253.408 66.0517C251.705 66.0517 249.978 66.1311 248.273 66.288C218.325 69.0502 196.237 95.3479 199.036 124.909C200.307 138.345 206.584 150.73 216.71 159.784C226.773 168.782 239.761 173.738 253.284 173.738C254.987 173.738 256.716 173.657 258.422 173.501C288.363 170.739 310.445 144.448 307.648 114.893C306.375 101.453 300.099 89.0642 289.972 80.0072C279.911 71.0081 266.925 66.0517 253.408 66.0517Z" fill="white"/>
<path d="M253.424 62.5005C267.836 62.5005 281.679 67.7829 292.405 77.3742C303.2 87.0272 309.892 100.235 311.248 114.562C314.231 146.073 290.686 174.105 258.764 177.049C256.945 177.218 255.101 177.303 253.284 177.303C238.87 177.303 225.026 172.019 214.299 162.425C203.507 152.771 196.817 139.567 195.461 125.241C192.478 93.7303 216.023 65.6979 247.945 62.7537C249.764 62.5855 251.607 62.5005 253.424 62.5005ZM253.289 174.205C255.008 174.205 256.751 174.125 258.471 173.966C273.098 172.617 286.319 165.724 295.698 154.557C305.078 143.39 309.491 129.289 308.124 114.85C306.841 101.295 300.509 88.7974 290.296 79.6618C280.147 70.5842 267.049 65.5849 253.413 65.5858C251.697 65.5858 249.955 65.6662 248.235 65.825C233.602 67.1748 220.377 74.0684 210.997 85.2365C201.616 96.4047 197.204 110.511 198.57 124.956C199.852 138.507 206.184 151 216.398 160.133C226.548 169.207 239.65 174.205 253.289 174.205ZM253.424 61.5664C251.582 61.5664 249.727 61.6505 247.857 61.8233C215.356 64.8208 191.482 93.2446 194.518 125.327C197.379 155.552 223.124 178.236 253.283 178.236C255.124 178.236 256.98 178.152 258.851 177.979C291.34 174.982 315.225 146.545 312.189 114.475C309.328 84.2389 283.575 61.5664 253.424 61.5664ZM253.289 173.271C225.693 173.271 202.13 152.52 199.513 124.867C196.734 95.5145 218.587 69.496 248.323 66.7535C250.032 66.5956 251.73 66.519 253.413 66.519C281 66.519 304.563 87.272 307.183 114.937C309.96 144.277 288.106 170.295 258.384 173.037C256.674 173.193 254.973 173.271 253.289 173.271Z" fill="#EFE8E9"/>
<path d="M138.17 174.917L166.869 171.725L172.708 175.128C172.708 175.128 156.358 189.681 138.25 193.345C125.799 195.866 122.004 177.709 138.17 174.917Z" fill="#F2C7BF"/>
<path d="M166.967 164.08L164.211 173.036L170.022 174.226L175.315 170.003L171.059 163.511C170.664 162.907 169.998 162.527 169.271 162.488C168.223 162.432 167.272 163.089 166.967 164.08Z" fill="#F2C7BF"/>
<path d="M138.171 174.918L161.101 171.721L165.667 181.995C165.667 181.995 155.776 191.779 137.668 195.443C125.216 197.963 122.006 177.71 138.171 174.918Z" fill="#A2B7F3"/>
<path d="M167.89 156.106C163.693 159.566 156.078 157.846 152.25 154.061C155.238 150.947 160.704 151.028 168.75 153.443L167.89 156.106Z" fill="#E89E91"/>
<path d="M167.903 165.488L168.243 165.681C169.085 166.161 170.162 165.877 170.648 165.046L173.563 160.068C174.049 159.237 173.761 158.175 172.919 157.694L172.58 157.501C171.737 157.021 170.661 157.305 170.175 158.136L167.26 163.114C166.773 163.945 167.062 165.008 167.903 165.488Z" fill="#F2C7BF"/>
<path d="M159.701 153.697L159.688 154.368C159.671 155.249 160.381 155.977 161.274 155.994L172.179 156.195C173.071 156.212 173.808 155.511 173.824 154.63L173.837 153.957C173.854 153.076 173.144 152.35 172.252 152.333L161.347 152.131C160.454 152.114 159.717 152.815 159.701 153.697Z" fill="#E89E91"/>
<path d="M46.4501 341.741C46.4501 341.741 33.5938 356.925 32.3769 367.547C31.6388 373.99 40.9825 373.668 51.8383 373.588L76.0198 373.413C78.7537 373.393 79.8277 369.886 77.5519 368.391C76.5696 367.746 75.1455 367.292 73.0863 367.251C73.0863 367.251 67.7786 362.393 55.192 357.425C55.192 357.425 54.0119 342.903 59.2809 333.854L46.4501 341.741Z" fill="#E89E91"/>
<path d="M35.0625 359.085L66.1254 285.213H90.2029L55.1892 357.425L35.0625 359.085Z" fill="#E89E91"/>
<path d="M113.09 241.297L121.074 286.661H100.851L85.3828 241.297H113.09Z" fill="#F2C7BF"/>
<path d="M149.871 369.237C151.578 370.793 150.321 373.634 147.998 373.617C142.735 373.578 132.165 373.499 124.634 373.439C121.496 373.419 118.493 373.411 115.847 373.252C115.115 373.21 114.405 373.154 113.736 373.078C108.777 372.557 105.582 371.161 106.075 367.37C106.54 363.835 106.462 360.667 106.167 358.05C106.111 357.515 106.04 356.994 105.963 356.508C105.35 352.535 102.445 316.16 102.445 316.16L122.047 335.941L123.466 355.363C135.455 360.3 145.086 367.668 145.086 367.668C147.464 367.752 148.95 368.398 149.871 369.237Z" fill="#F2C7BF"/>
<path d="M123.585 356.279L124.819 287.525L104.625 286.459L106.165 358.05L123.585 356.279Z" fill="#F2C7BF"/>
<path d="M109.134 117.847L103.17 147.206L86.9219 139.797L89.9396 112.695L90.0077 111.355L109.134 117.847Z" fill="#E89E91"/>
<path d="M74.0769 151.924C75.6922 157.567 78.2359 162.781 80.6413 166.954C84.0669 172.858 87.2521 176.68 87.2521 176.68L83.2768 181.52C80.6413 184.732 81.1921 189.459 84.4909 192.004L111.265 192.128L117.177 192.15C120.545 190.647 122.148 186.835 120.854 183.42L118.07 176.024L117.99 165.009C118.356 164.828 118.7 164.636 119.032 164.41C124.852 160.678 125.529 152.275 120.029 147.74L105.043 136.08H102.706H86.2472C77.9435 136.08 71.7983 143.876 74.0334 151.77C74.0476 151.822 74.0618 151.873 74.0769 151.924Z" fill="#A2B7F3"/>
<path d="M93.9671 154.4C95.2957 158.798 97.2318 164.42 99.73 170.233C102.434 176.487 106.306 184.81 111.267 192.127L117.179 192.15C120.547 190.646 122.15 186.835 120.856 183.419L118.072 176.023L117.992 165.008C118.358 164.827 118.702 164.635 119.034 164.409L116.663 160.281L111.654 152.558C110.474 149.787 107.456 147.339 104.684 146.661C103.091 146.276 101.923 147.942 100.238 148.451C95.3572 149.943 92.5117 149.548 93.9671 154.4Z" fill="#849CF1"/>
<path d="M92.8602 154.548C95.2202 158.513 98.4527 163.515 102.292 168.561C107.415 175.297 115.077 184.683 123.654 191.091C129.76 195.652 134.226 195.385 137.389 193.421C142.565 190.207 143.225 182.971 139.021 178.587L116.32 154.908L108.376 144.376C106.55 141.967 103.744 140.666 100.886 140.666C99.2467 140.666 97.5907 141.097 96.0851 141.985C91.7028 144.587 90.2683 150.187 92.8602 154.548Z" fill="#A2B7F3"/>
<path d="M83.5619 99.8136L85.3239 106.917L86.1321 110.155L88.2934 118.848C89.4602 123.541 93.0059 127.302 97.6635 128.789L104.905 131.101C111.181 133.106 117.682 128.841 118.315 122.359C118.78 117.603 118.818 112.05 117.027 106.137C114.942 99.269 109.415 93.8755 102.807 91.6906L102.78 91.6822L101.62 91.331L101.495 91.2993C100.916 91.1451 100.319 91.0181 99.7227 90.9172C98.307 90.6585 96.8422 90.5417 95.3622 90.5735L90.6657 90.6743C85.8803 90.778 82.4235 95.2262 83.5619 99.8136Z" fill="#F2C7BF"/>
<path d="M117.464 108.813C118.101 112.202 120.127 113.3 121.626 113.64C122.589 113.857 123.223 114.761 123.094 115.728C122.925 117.003 122.011 118.061 120.761 118.425L116.341 119.716C113.962 119.98 111.869 118.165 111.828 115.803L111.688 107.793L117.464 108.813Z" fill="#F2C7BF"/>
<path d="M116.43 112.065C116.471 113.782 115.863 115.19 115.07 115.209C114.277 115.227 113.599 113.851 113.557 112.134C113.514 110.417 114.124 109.009 114.917 108.99C115.711 108.972 116.387 110.349 116.43 112.065Z" fill="#212121"/>
<path d="M113.964 104.091C110.977 105.647 110.04 103.779 112.145 102.247C114.409 100.6 117.681 102.154 113.964 104.091Z" fill="black"/>
<path d="M109.469 120.978C109.469 120.978 115.112 120.487 115.877 121.612C116.642 122.736 111.106 126.576 109.469 120.978Z" fill="white"/>
<path d="M104.204 117.27C110.709 112.931 113.96 104.092 111.004 95.9307C110.541 94.6632 104.142 90.6708 96.0985 90.0011C86.5381 89.2043 80.3683 92.6959 76.146 96.6182C68.9324 103.32 83.3482 118.968 83.3482 118.968L104.204 117.27Z" fill="black"/>
<path d="M79.4765 101.554C67.7018 111.589 58.8266 93.4296 66.0515 87.7288C73.2764 82.027 89.3738 93.1186 79.4765 101.554Z" fill="black"/>
<path d="M102.057 122.406C103.132 130.532 113.782 129.879 111.693 140.997C102.68 137.647 96.2773 142.381 95.7654 150.697C95.2487 159.1 99.2042 163.408 96.2177 169.375L69.714 164.772C64.6675 154.239 76.6106 143.65 73.4642 133.419C68.3656 116.84 71.4599 111.011 74.4975 104.283L101.365 115.209L102.057 122.406Z" fill="black"/>
<path d="M106.389 115.407C101.418 107.794 96.0048 113.219 97.6769 120.139C99.3499 127.059 105.351 123.941 105.351 123.941L106.389 115.407Z" fill="#F2C7BF"/>
<path d="M104.267 121.376L101.992 117.607" stroke="#E2A8A1" stroke-miterlimit="10"/>
<path d="M66.6832 231.935L66.1344 285.213L41.6094 341.987L64.6307 345.113L90.2118 289.812L103.134 228.256L66.6832 231.935Z" fill="#BBB1B2"/>
<path d="M91.5726 232.652L82.6122 286.175L57.1172 343.268" stroke="#CBC3C4" stroke-miterlimit="10"/>
<path d="M117.608 201.379L127.011 280.991L126.554 345.242H103.46L100.85 286.661L79.4844 228.257L117.608 201.379Z" fill="#CBC3C4"/>
<path d="M66.6797 231.936L120.462 243.748L117.605 201.379L117.479 199.558L117.181 192.151L88.54 192.015L84.4955 192.004C84.4955 192.004 80.646 196.471 76.5334 202.939C73.2451 208.153 69.7741 214.656 68.0329 221.147C67.5049 223.126 67.0573 226.994 66.6797 231.936Z" fill="#CBC3C4"/>
<path d="M76.5391 202.945L117.605 201.38L117.48 199.561L117.178 192.149L88.5352 192.018L84.4917 192C84.4917 192 80.645 196.474 76.5391 202.945Z" fill="#BBB1B2"/>
<path d="M101.822 206.36L85.2954 205.139L81.3125 220.041L88.2157 225.899L99.7898 221.588L101.822 206.36Z" stroke="#E2DDDE" stroke-miterlimit="10"/>
<path d="M108.898 191.998L111.688 238.245L118.655 280.198L117.471 345.24" stroke="#E2DDDE" stroke-miterlimit="10"/>
<path d="M88.0089 192.709C77.1341 207.058 70.7107 219.271 72.3251 233.177" stroke="#E2DDDE" stroke-miterlimit="10"/>
<path d="M104.269 373.618C103.684 363.297 106.163 358.051 106.163 358.051C111.698 358.051 115.754 361.595 118.485 365.3H132.246C132.606 362.828 132.533 360.423 131.364 359.086C131.364 359.086 150.657 364.993 152.783 373.618V376.08H104.18V373.618H104.269Z" fill="black"/>
<path d="M30.7725 373.618H30.7602C30.7602 364.203 35.4632 358.051 35.4632 358.051C40.999 358.051 44.4151 361.595 46.4771 365.3H58.9842C59.7905 362.828 60.151 360.423 59.2246 359.086C59.2246 359.086 80.1963 364.993 80.765 373.618L80.7347 376.08H30.7422L30.7725 373.618Z" fill="black"/>
<path d="M128.82 15.5253L123.307 12.2728L120.931 16.1979C119.811 15.8775 118.668 15.714 117.527 15.7056L116.396 11.2695L110.167 12.8173L111.299 17.2534C110.3 17.7942 109.37 18.4724 108.538 19.2785L104.561 16.9321L101.266 22.3741L105.243 24.7197C104.918 25.8256 104.752 26.954 104.744 28.0796L100.25 29.1968L101.819 35.3451L106.313 34.2279C106.861 35.2143 107.548 36.1316 108.364 36.9536L105.988 40.8787L111.501 44.1312L113.878 40.2071C114.998 40.5275 116.142 40.6909 117.281 40.6994L118.413 45.1345L124.642 43.5857L123.51 39.1506C124.509 38.6098 125.438 37.9316 126.271 37.1255L130.247 39.471L133.542 34.0289L129.566 31.6834C129.891 30.5774 130.056 29.449 130.066 28.3234L134.559 27.2062L132.99 21.058L128.497 22.1752C127.949 21.1878 127.262 20.2715 126.445 19.4495L128.82 15.5253ZM119.967 23.9686C122.332 25.3642 123.106 28.3982 121.692 30.7334C120.278 33.0687 117.205 33.8318 114.84 32.4372C112.475 31.0417 111.7 28.0077 113.114 25.6725C114.528 23.3372 117.602 22.5731 119.967 23.9686Z" fill="#E2DDDE"/>
<path d="M377.037 267.318L372.293 266.688L371.832 270.065C370.969 270.171 370.137 270.39 369.353 270.714L367.259 268.003L363.452 270.869L365.547 273.579C365.022 274.24 364.588 274.973 364.257 275.767L360.835 275.312L360.195 279.996L363.617 280.451C363.724 281.302 363.946 282.124 364.275 282.897L361.529 284.964L364.432 288.722L367.178 286.655C367.847 287.172 368.59 287.601 369.394 287.928L368.933 291.306L373.678 291.936L374.139 288.559C375.002 288.454 375.834 288.233 376.617 287.909L378.711 290.62L382.518 287.754L380.424 285.044C380.948 284.383 381.383 283.65 381.714 282.856L385.136 283.311L385.775 278.627L382.354 278.172C382.248 277.32 382.024 276.499 381.697 275.726L384.443 273.659L381.541 269.901L378.795 271.968C378.126 271.45 377.383 271.022 376.578 270.695L377.037 267.318ZM373.631 274.583C376.272 274.935 378.131 277.342 377.775 279.949C377.42 282.556 374.981 284.392 372.34 284.04C369.699 283.689 367.839 281.282 368.195 278.675C368.551 276.067 370.99 274.232 373.631 274.583Z" fill="#E2DDDE"/>
<path d="M316.189 20.0013H252.945C250.253 20.0013 248.062 17.8388 248.062 15.1813C248.062 12.5238 250.253 10.3613 252.945 10.3613H316.189C318.881 10.3613 321.072 12.5228 321.072 15.1813C321.072 17.8388 318.882 20.0013 316.189 20.0013ZM252.945 12.1894C251.274 12.1894 249.914 13.5317 249.914 15.1813C249.914 16.8319 251.274 18.1742 252.945 18.1742H316.189C317.86 18.1742 319.22 16.8319 319.22 15.1813C319.22 13.5317 317.86 12.1894 316.189 12.1894H252.945Z" fill="#E2DDDE"/>
<path d="M316.189 33.0208H252.945C250.253 33.0208 248.062 30.8583 248.062 28.2008C248.062 25.5433 250.253 23.3809 252.945 23.3809H316.189C318.881 23.3809 321.072 25.5433 321.072 28.2008C321.072 30.8583 318.882 33.0208 316.189 33.0208ZM252.945 25.2089C251.274 25.2089 249.914 26.5512 249.914 28.2008C249.914 29.8505 251.274 31.1928 252.945 31.1928H316.189C317.86 31.1928 319.22 29.8505 319.22 28.2008C319.22 26.5512 317.86 25.2089 316.189 25.2089H252.945Z" fill="#E2DDDE"/>
<path d="M316.189 46.0423H252.945C250.253 46.0423 248.062 43.8798 248.062 41.2223C248.062 38.5648 250.253 36.4023 252.945 36.4023H316.189C318.881 36.4023 321.072 38.5648 321.072 41.2223C321.072 43.8798 318.882 46.0423 316.189 46.0423ZM252.945 38.2304C251.274 38.2304 249.914 39.5727 249.914 41.2223C249.914 42.8729 251.274 44.2142 252.945 44.2142H316.189C317.86 44.2142 319.22 42.8719 319.22 41.2223C319.22 39.5717 317.86 38.2304 316.189 38.2304H252.945Z" fill="#E2DDDE"/>
<path d="M260.56 19.0882C258.43 19.0882 256.703 17.3835 256.703 15.2808V15.0828C256.703 12.9801 258.43 11.2754 260.56 11.2754C262.69 11.2754 264.417 12.9801 264.417 15.0828V15.2808C264.417 17.3835 262.69 19.0882 260.56 19.0882Z" fill="#E2DDDE"/>
<path d="M294.966 32.1078C292.836 32.1078 291.109 30.403 291.109 28.3004V28.1023C291.109 25.9997 292.836 24.2949 294.966 24.2949C297.097 24.2949 298.824 25.9997 298.824 28.1023V28.3004C298.823 30.403 297.097 32.1078 294.966 32.1078Z" fill="#E2DDDE"/>
<path d="M271.404 45.1292C269.274 45.1292 267.547 43.4245 267.547 41.3218V41.1238C267.547 39.0211 269.274 37.3164 271.404 37.3164C273.534 37.3164 275.261 39.0211 275.261 41.1238V41.3218C275.261 43.4245 273.534 45.1292 271.404 45.1292Z" fill="#E2DDDE"/>
<path d="M316.203 309.735V341.442H402.946C408.818 341.442 413.86 337.949 416.063 332.943C416.815 331.232 417.234 329.336 417.234 327.338V323.837C417.234 316.052 410.834 309.734 402.947 309.734H316.203V309.735Z" fill="#0A5840"/>
<path d="M343.266 332.943V341.443H402.943C408.815 341.443 413.857 337.949 416.06 332.943H343.266Z" fill="#D0391A"/>
<path d="M357.837 325.59C357.837 328.859 356.496 331.821 354.326 333.963C352.155 336.113 349.156 337.436 345.843 337.436H278.742V341.448H345.793C350.233 341.448 354.248 339.67 357.156 336.807C360.064 333.936 361.858 329.966 361.858 325.59C361.858 316.831 354.666 309.738 345.793 309.738H278.742V313.75H345.843C352.468 313.751 357.837 319.051 357.837 325.59Z" fill="#D0391A"/>
<path d="M282.219 313.748H348.284C353.562 313.748 357.84 317.971 357.84 323.181V328C357.84 333.209 353.562 337.432 348.284 337.432H282.219V313.748Z" fill="white"/>
<path d="M300.87 313.744H282.219V337.433H300.87V313.744Z" fill="#EFE8E9"/>
<path d="M300.87 313.744H282.219V337.433H300.87V313.744Z" fill="#EFE8E9"/>
<path d="M327.013 319.356H349.549C350.172 319.356 350.678 318.857 350.678 318.24C350.678 317.624 350.172 317.125 349.549 317.125H327.013C326.389 317.125 325.883 317.625 325.883 318.24C325.883 318.856 326.388 319.356 327.013 319.356Z" fill="#EFE8E9"/>
<path d="M317.302 319.356H322.352C322.976 319.356 323.482 318.857 323.482 318.24C323.482 317.624 322.977 317.125 322.352 317.125H317.302C316.678 317.125 316.172 317.625 316.172 318.24C316.172 318.856 316.678 319.356 317.302 319.356Z" fill="#EFE8E9"/>
<path d="M285.708 323.957H334.923C335.546 323.957 336.053 323.458 336.053 322.842C336.053 322.225 335.546 321.727 334.923 321.727H285.708C285.084 321.727 284.578 322.226 284.578 322.842C284.578 323.457 285.083 323.957 285.708 323.957Z" fill="#EFE8E9"/>
<path d="M285.708 328.688H342.175C342.799 328.688 343.305 328.188 343.305 327.572C343.305 326.957 342.8 326.457 342.175 326.457H285.708C285.084 326.457 284.578 326.957 284.578 327.572C284.578 328.188 285.083 328.688 285.708 328.688Z" fill="#EFE8E9"/>
<path d="M339.966 323.957H347.737C348.36 323.957 348.867 323.458 348.867 322.842C348.867 322.225 348.36 321.727 347.737 321.727H339.966C339.342 321.727 338.836 322.226 338.836 322.842C338.836 323.457 339.342 323.957 339.966 323.957Z" fill="#EFE8E9"/>
<path d="M351.497 328.688H354.35C354.974 328.688 355.48 328.188 355.48 327.572C355.48 326.957 354.975 326.457 354.35 326.457H351.497C350.873 326.457 350.367 326.957 350.367 327.572C350.367 328.188 350.873 328.688 351.497 328.688Z" fill="#EFE8E9"/>
<path d="M320.974 334.057H346.314C346.938 334.057 347.444 333.557 347.444 332.941C347.444 332.326 346.939 331.826 346.314 331.826H320.974C320.35 331.826 319.844 332.326 319.844 332.941C319.844 333.557 320.349 334.057 320.974 334.057Z" fill="#EFE8E9"/>
<path d="M288.81 319.356H300.207C300.83 319.356 301.337 318.857 301.337 318.24C301.337 317.624 300.83 317.125 300.207 317.125H288.81C288.186 317.125 287.68 317.625 287.68 318.24C287.68 318.856 288.186 319.356 288.81 319.356Z" fill="#EFE8E9"/>
<path d="M301.997 334.057H308.793C309.417 334.057 309.923 333.557 309.923 332.941C309.923 332.326 309.417 331.826 308.793 331.826H301.997C301.373 331.826 300.867 332.326 300.867 332.941C300.867 333.557 301.373 334.057 301.997 334.057Z" fill="#EFE8E9"/>
<path d="M398.573 336.808C395.662 339.667 391.646 341.449 387.219 341.449H395.396C399.831 341.449 403.839 339.667 406.75 336.808C407.899 335.681 408.867 334.376 409.625 332.943C410.796 330.747 411.452 328.245 411.452 325.592C411.452 316.829 404.258 309.742 395.396 309.742H387.219C396.082 309.742 403.275 316.829 403.275 325.592C403.275 328.245 402.618 330.747 401.448 332.943C400.689 334.376 399.715 335.681 398.573 336.808Z" fill="#0A5840"/>
<path d="M366.151 336.808C363.24 339.667 359.224 341.449 354.789 341.449H370.716C375.151 341.449 379.174 339.667 382.078 336.808C383.219 335.681 384.194 334.376 384.953 332.943C386.124 330.747 386.788 328.245 386.788 325.592C386.788 316.829 379.593 309.742 370.717 309.742H354.79C363.66 309.742 370.854 316.829 370.854 325.592C370.854 328.245 370.197 330.747 369.027 332.943C368.268 334.376 367.292 335.681 366.151 336.808Z" fill="#0A5840"/>
<path d="M398.573 336.808C395.662 339.667 391.646 341.449 387.219 341.449H395.396C399.831 341.449 403.839 339.667 406.75 336.808C407.899 335.681 408.867 334.376 409.625 332.943H401.448C400.689 334.376 399.715 335.681 398.573 336.808Z" fill="#EEB142"/>
<path d="M354.789 341.449H370.716C375.151 341.449 379.174 339.667 382.078 336.808C383.219 335.681 384.194 334.376 384.953 332.943H369.026C368.268 334.376 367.292 335.681 366.151 336.808C363.24 339.667 359.224 341.449 354.789 341.449Z" fill="#EEB142"/>
<path d="M258.271 379.336H379.07V341.421H258.271V379.336Z" fill="#EEB142"/>
<path d="M258.265 374.539H374.258V346.219H258.265V374.539Z" fill="#EFE8E9"/>
<path d="M327.781 341.422H407.711C416.159 341.422 423.007 348.182 423.007 356.522V364.236C423.007 372.576 416.159 379.336 407.711 379.336H327.781V341.422Z" fill="#0A5840"/>
<path d="M327.781 346.221H403.856C411.779 346.221 418.201 352.56 418.201 360.381C418.201 368.201 411.779 374.541 403.856 374.541H327.781V346.221Z" fill="white"/>
<path d="M314.567 353.811H380.124C380.747 353.811 381.253 353.311 381.253 352.695C381.253 352.08 380.747 351.58 380.124 351.58H314.567C313.944 351.58 313.438 352.08 313.438 352.695C313.438 353.311 313.944 353.811 314.567 353.811Z" fill="#EFE8E9"/>
<path d="M360.567 360.067H401.28C401.903 360.067 402.409 359.567 402.409 358.951C402.409 358.336 401.904 357.836 401.28 357.836H360.567C359.944 357.836 359.438 358.335 359.438 358.951C359.438 359.568 359.944 360.067 360.567 360.067Z" fill="#EFE8E9"/>
<path d="M338.685 367.533H391.658C392.282 367.533 392.788 367.034 392.788 366.418C392.788 365.802 392.282 365.303 391.658 365.303H338.685C338.061 365.303 337.555 365.802 337.555 366.418C337.555 367.034 338.06 367.533 338.685 367.533Z" fill="#EFE8E9"/>
<path d="M315.794 360.067H341.142C341.766 360.067 342.272 359.567 342.272 358.951C342.272 358.336 341.766 357.836 341.142 357.836H315.794C315.17 357.836 314.664 358.335 314.664 358.951C314.664 359.568 315.169 360.067 315.794 360.067Z" fill="#EFE8E9"/>
<path d="M391.653 353.811H406.641C407.264 353.811 407.771 353.311 407.771 352.695C407.771 352.08 407.265 351.58 406.641 351.58H391.653C391.03 351.58 390.523 352.08 390.523 352.695C390.523 353.311 391.029 353.811 391.653 353.811Z" fill="#EFE8E9"/>
<path d="M399.036 367.533H409.768C410.392 367.533 410.898 367.034 410.898 366.418C410.898 365.802 410.392 365.303 409.768 365.303H399.036C398.413 365.303 397.906 365.802 397.906 366.418C397.906 367.034 398.413 367.533 399.036 367.533Z" fill="#EFE8E9"/>
<path d="M406.638 360.067H411.55C412.173 360.067 412.68 359.567 412.68 358.951C412.68 358.336 412.174 357.836 411.55 357.836H406.638C406.014 357.836 405.508 358.335 405.508 358.951C405.508 359.568 406.013 360.067 406.638 360.067Z" fill="#EFE8E9"/>
<path d="M351.31 360.067H356.326C356.949 360.067 357.456 359.567 357.456 358.951C357.456 358.336 356.95 357.836 356.326 357.836H351.31C350.686 357.836 350.18 358.335 350.18 358.951C350.18 359.568 350.686 360.067 351.31 360.067Z" fill="#EFE8E9"/>
<path d="M192.182 256.141H160.469V278.848H192.182V256.141Z" fill="white"/>
<path d="M191.714 256.608V278.381H160.946V256.608H191.714ZM192.66 255.674H160V279.315H192.66V255.674Z" fill="#EFE8E9"/>
<path d="M199.776 256.141H168.062V278.848H199.776V256.141Z" fill="white"/>
<path d="M199.3 256.608V278.381H168.532V256.608H199.3ZM200.246 255.674H167.586V279.315H200.246V255.674Z" fill="#EFE8E9"/>
<path d="M207.361 256.141H175.648V278.848H207.361V256.141Z" fill="white"/>
<path d="M206.886 256.608V278.381H176.118V256.608H206.886ZM207.832 255.674H175.172V279.315H207.832V255.674Z" fill="#EFE8E9"/>
<path d="M214.956 256.141H183.242V278.848H214.956V256.141Z" fill="white"/>
<path d="M214.48 256.608V278.381H183.712V256.608H214.48ZM215.426 255.674H182.766V279.315H215.426V255.674Z" fill="#EFE8E9"/>
<path d="M183.797 310.44C186.848 310.44 189.318 306.364 189.318 301.333V257.291C189.321 252.265 191.792 248.189 194.843 248.189H257.135V301.333C257.135 306.36 252.084 310.44 249.033 310.44H183.797Z" fill="#BBB1B2"/>
<path d="M185.414 269.588V376.001H242.989V301.755C226.319 301.755 212.806 288.416 212.806 271.961V269.589H185.414V269.588Z" fill="#849CF1"/>
<path d="M154.482 376.002H185.414V269.589H154.482V376.002Z" fill="#A2B7F3"/>
<path d="M156.315 374.35H183.578V271.241H156.315V374.35Z" stroke="#849CF1" stroke-miterlimit="10"/>
<path d="M172.393 300.86C178.29 299.526 181.975 293.725 180.624 287.904C179.272 282.083 173.396 278.445 167.498 279.779C161.601 281.114 157.916 286.914 159.268 292.736C160.619 298.557 166.496 302.195 172.393 300.86Z" fill="white"/>
<path d="M178.368 292.328C179.472 287.73 176.591 283.119 171.933 282.028C167.275 280.938 162.604 283.782 161.5 288.38C160.395 292.978 163.276 297.589 167.934 298.679C172.592 299.769 177.263 296.926 178.368 292.328Z" fill="black"/>
<path d="M161.273 360.809H178.609V309.695H161.273V360.809Z" fill="white"/>
<path d="M164.062 317.992H175.828V312.679H164.062V317.992Z" fill="#AFA59E"/>
<path d="M174.875 320.988V357.083" stroke="#EFE8E9" stroke-width="2" stroke-miterlimit="10"/>
<path d="M171.578 320.988V357.083" stroke="#EFE8E9" stroke-width="2" stroke-miterlimit="10"/>
<path d="M168.297 320.988V357.083" stroke="#EFE8E9" stroke-width="2" stroke-miterlimit="10"/>
<path d="M165.008 320.988V357.083" stroke="#EFE8E9" stroke-width="2" stroke-miterlimit="10"/>
<path d="M189.297 259.176V259.611H273.514C274.275 252.638 275.125 248.008 276.047 248.008H196.066C192.326 248.008 189.297 253.009 189.297 259.176Z" fill="#BBB1B2"/>
<path d="M209.696 383.679C206.227 383.679 203.4 378.896 203.396 373.017V259.142C203.396 254.363 201.582 250.249 199 248.475H276.13C279.78 248.475 285.59 253.357 285.59 259.142V383.679H209.696Z" fill="white"/>
<path d="M276.133 248.942C279.519 248.942 285.12 253.71 285.12 259.142V383.213H209.7C206.546 383.213 203.877 378.543 203.872 373.017V259.142C203.872 254.802 202.478 251.064 200.337 248.942H276.133ZM276.133 248.008H196.156C199.896 248.008 202.925 252.991 202.925 259.142V373.018C202.93 379.164 205.959 384.148 209.699 384.148H286.065V259.142C286.066 252.996 279.873 248.008 276.133 248.008Z" fill="#EFE8E9"/>
<path d="M216.265 349.504V361.991V372.98C216.265 379.149 213.233 384.147 209.492 384.147H292.63C296.371 384.147 299.4 379.146 299.4 372.98V361.991H303.013V349.504H216.265Z" fill="#CBC3C4"/>
<path d="M303.015 338.336C299.275 338.336 299.402 343.333 299.402 349.503H216.266C216.266 343.337 219.295 338.336 223.034 338.336H303.015Z" fill="#BBB1B2"/>
<path d="M236.132 395.943C232.661 395.943 229.836 391.141 229.836 385.241V349.504C229.836 344.708 228.021 340.581 225.438 338.803H302.572C306.22 338.803 312.026 343.7 312.026 349.504V349.971H312.031V395.943H236.132Z" fill="white"/>
<path d="M302.57 339.27C305.954 339.27 311.552 344.054 311.552 349.504L311.556 350.438V395.475H236.13C232.975 395.475 230.308 390.788 230.308 385.24V349.503C230.308 345.146 228.911 341.396 226.767 339.269L302.57 339.27ZM302.57 338.336H222.594C226.333 338.336 229.363 343.332 229.363 349.504V385.241C229.363 391.409 232.392 396.41 236.131 396.41H312.504V349.505H312.499C312.498 343.337 306.31 338.336 302.57 338.336Z" fill="#EFE8E9"/>
<path d="M325.332 385.242C325.332 391.409 322.303 396.409 318.562 396.409H235.422C239.162 396.409 242.195 391.412 242.195 385.242H325.332Z" fill="#CBC3C4"/>
<path d="M219.766 260.025H266.761" stroke="#EFE8E9" stroke-width="4" stroke-miterlimit="10" stroke-linecap="round" stroke-linejoin="round"/>
<path d="M219.766 267.367H266.761" stroke="#EFE8E9" stroke-width="4" stroke-miterlimit="10" stroke-linecap="round" stroke-linejoin="round"/>
<path d="M219.766 274.709H267.55" stroke="#EFE8E9" stroke-width="4" stroke-miterlimit="10" stroke-linecap="round" stroke-linejoin="round"/>
<path d="M219.766 282.051H237.351" stroke="#EFE8E9" stroke-width="4" stroke-miterlimit="10" stroke-linecap="round" stroke-linejoin="round"/>
<path d="M219.766 322.305H266.761" stroke="#EFE8E9" stroke-width="4" stroke-miterlimit="10" stroke-linecap="round" stroke-linejoin="round"/>
<path d="M219.766 329.646H266.761" stroke="#EFE8E9" stroke-width="4" stroke-miterlimit="10" stroke-linecap="round" stroke-linejoin="round"/>
<path d="M248.961 353.254H295.957" stroke="#EFE8E9" stroke-width="4" stroke-miterlimit="10" stroke-linecap="round" stroke-linejoin="round"/>
<path d="M248.961 360.596H295.957" stroke="#EFE8E9" stroke-width="4" stroke-miterlimit="10" stroke-linecap="round" stroke-linejoin="round"/>
<path d="M248.961 367.938H277.468" stroke="#EFE8E9" stroke-width="4" stroke-miterlimit="10" stroke-linecap="round" stroke-linejoin="round"/>
<path d="M248.961 375.279H266.545" stroke="#EFE8E9" stroke-width="4" stroke-miterlimit="10" stroke-linecap="round" stroke-linejoin="round"/>
<path d="M250.852 297.656H267.556" stroke="#EFE8E9" stroke-width="4" stroke-miterlimit="10" stroke-linecap="round" stroke-linejoin="round"/>
<path d="M250.852 304.994H267.556" stroke="#EFE8E9" stroke-width="4" stroke-miterlimit="10" stroke-linecap="round" stroke-linejoin="round"/>
<path d="M230.408 314.38C236.842 314.38 242.057 309.232 242.057 302.881C242.057 296.529 236.842 291.381 230.408 291.381C223.974 291.381 218.758 296.529 218.758 302.881C218.758 309.232 223.974 314.38 230.408 314.38Z" fill="#EFE8E9"/>
<path d="M329.253 291.185C338.939 266.517 339.991 238.635 332.189 213.324C329.583 240.231 325.686 267.016 320.516 293.561L329.253 291.185Z" fill="#94C19B"/>
<path d="M314.744 285.126C308.33 264.433 310.257 241.342 320.015 221.963C312.667 243.16 329.38 266.77 323.024 288.278L314.744 285.126Z" fill="#94C19B"/>
<path d="M357.848 234.811C345.084 248.907 337.542 244.153 332.887 267.592C331.947 272.323 327.184 289.854 333.334 289.287C339.523 288.717 341.79 270.544 344.933 261.521C349.169 249.361 354.26 243.629 357.848 234.811Z" fill="#94C19B"/>
<path d="M320.43 283.022C325.396 279.369 327.944 273.207 328.595 267.127C329.246 261.047 328.237 254.93 327.345 248.879C326.454 242.829 325.682 236.645 326.797 230.631C328.053 240.499 334.539 247.959 337.293 257.526C340.02 267.002 338.189 277.653 332.447 285.708L320.43 283.022Z" fill="#BCE0C1"/>
<path d="M314.486 289.3C306.2 274.111 301.696 255.031 307.583 230.631C313.461 247.131 322.015 288.148 322.015 288.148L314.486 289.3Z" fill="#BCE0C1"/>
<path d="M341.639 280.565L339.198 296.081L337.495 306.916L337.192 308.84C337.031 309.877 336.113 310.662 335.044 310.662H312.153C311.055 310.662 310.128 309.859 309.986 308.775L306.276 280.519C306.106 279.22 307.128 278.09 308.443 278.09H339.491C340.825 278.09 341.847 279.257 341.639 280.565Z" fill="#849CF1"/>
<path d="M341.636 280.565L339.195 296.081L337.491 306.916C330.366 301.947 322.511 293.26 316.398 278.09H339.488C340.822 278.09 341.844 279.257 341.636 280.565Z" fill="#B3C3F7"/>
<path d="M187.648 4.49177C187.643 6.1059 186.313 7.40991 184.678 7.40524C183.043 7.40057 181.722 6.08815 181.727 4.47402C181.731 2.85989 183.061 1.55589 184.696 1.56056C186.331 1.56523 187.652 2.87764 187.648 4.49177Z" stroke="#E7DDDD" stroke-width="3" stroke-miterlimit="10" stroke-linecap="round" stroke-linejoin="round"/>
<path d="M47.1006 286.589C47.0959 288.204 45.7664 289.508 44.1312 289.503C42.496 289.498 41.175 288.186 41.1797 286.572C41.1844 284.958 42.514 283.654 44.1492 283.658C45.7844 283.663 47.1054 284.975 47.1006 286.589Z" stroke="#E7DDDD" stroke-width="3" stroke-miterlimit="10" stroke-linecap="round" stroke-linejoin="round"/>
<path d="M21.3897 102.67C21.385 104.284 20.0554 105.588 18.4202 105.583C16.7851 105.578 15.464 104.266 15.4688 102.652C15.4735 101.038 16.803 99.7336 18.4382 99.7383C20.0734 99.743 21.3944 101.055 21.3897 102.67Z" stroke="#E7DDDD" stroke-width="3" stroke-miterlimit="10" stroke-linecap="round" stroke-linejoin="round"/>
<path d="M357.116 33.5582C357.112 35.1723 355.782 36.4763 354.147 36.4716C352.512 36.467 351.191 35.1546 351.195 33.5404C351.2 31.9263 352.53 30.6223 354.165 30.627C355.8 30.6326 357.121 31.945 357.116 33.5582Z" stroke="#E7DDDD" stroke-width="3" stroke-miterlimit="10" stroke-linecap="round" stroke-linejoin="round"/>
<path d="M412.538 264.568C412.533 266.182 411.204 267.486 409.569 267.481C407.933 267.477 406.612 266.164 406.617 264.55C406.622 262.936 407.951 261.632 409.587 261.637C411.222 261.641 412.543 262.954 412.538 264.568Z" stroke="#E7DDDD" stroke-width="3" stroke-miterlimit="10" stroke-linecap="round" stroke-linejoin="round"/>
<defs>
<linearGradient id="paint0_linear_4291_18343" x1="317.733" y1="183.21" x2="230.929" y2="101.862" gradientUnits="userSpaceOnUse">
<stop stop-color="white"/>
<stop offset="1" stop-color="white" stop-opacity="0"/>
</linearGradient>
<linearGradient id="paint1_linear_4291_18343" x1="296.065" y1="206.331" x2="209.261" y2="124.983" gradientUnits="userSpaceOnUse">
<stop stop-color="white"/>
<stop offset="1" stop-color="white" stop-opacity="0"/>
</linearGradient>
<linearGradient id="paint2_linear_4291_18343" x1="211.991" y1="43.0357" x2="278.029" y2="99.7406" gradientUnits="userSpaceOnUse">
<stop stop-color="white"/>
<stop offset="1" stop-color="white" stop-opacity="0"/>
</linearGradient>
</defs>
</svg>
