<svg width="296" height="214" viewBox="0 0 296 214" fill="none" xmlns="http://www.w3.org/2000/svg">
<path d="M219.312 37.5411C219.312 37.5411 205.39 18.1848 181.377 20.2294C157.364 22.274 152.186 48.2005 136.084 60.1348C127.656 66.3849 108.142 60.5192 98.8189 64.7153C69.0172 78.1352 63.5535 121.649 79.8677 142.014C93.9882 159.665 115.096 165.76 145.209 161.516C175.321 157.274 196.61 155.418 220.292 129.722C243.975 104.025 236.033 63.3483 219.312 37.5411Z" fill="#0A5840"/>
<path opacity="0.8" d="M219.312 37.5411C219.312 37.5411 205.39 18.1848 181.377 20.2294C157.364 22.274 152.186 48.2005 136.084 60.1348C127.656 66.3849 108.142 60.5192 98.8189 64.7153C69.0172 78.1352 63.5535 121.649 79.8677 142.014C93.9882 159.665 115.096 165.76 145.209 161.516C175.321 157.274 196.61 155.418 220.292 129.722C243.975 104.025 236.033 63.3483 219.312 37.5411Z" fill="white"/>
<path d="M258.225 135.443C258.083 130.099 258.492 120.982 253.861 117.23C249.793 113.935 246.631 118.408 245.491 122.014C242.723 130.769 244.024 140.432 244.03 149.451C244.03 149.59 244.029 149.728 244.024 149.866C243.805 156.514 243.017 163.711 243.734 170.348C243.734 170.348 243.031 163.699 237.869 166.548C232.708 169.398 240.45 184.357 240.45 184.357C240.45 184.357 234.35 179.846 231.535 183.645C228.72 187.444 235.054 191.718 235.054 191.718C235.054 191.718 229.189 190.056 229.189 191.718C229.189 193.381 231.066 194.805 236.462 195.518H265.552C265.552 195.518 270.244 192.905 269.305 190.056C268.367 187.207 263.44 188.869 263.44 188.869C263.44 188.869 270.947 179.608 270.478 175.572C270.009 171.535 260.391 176.284 260.391 176.284C260.391 176.284 267.898 157.051 266.491 148.503C265.382 141.769 260.217 146.378 257.406 148.965C258.066 144.494 258.344 139.963 258.225 135.443Z" fill="#0A5840" stroke="white" stroke-miterlimit="10" stroke-linecap="round" stroke-linejoin="round"/>
<path opacity="0.5" d="M258.225 135.443C258.083 130.099 258.492 120.982 253.861 117.23C249.793 113.935 246.631 118.408 245.491 122.014C242.723 130.769 244.024 140.432 244.03 149.451C244.03 149.59 244.029 149.728 244.024 149.866C243.805 156.514 243.017 163.711 243.734 170.348C243.734 170.348 243.031 163.699 237.869 166.548C232.708 169.398 240.45 184.357 240.45 184.357C240.45 184.357 234.35 179.846 231.535 183.645C228.72 187.444 235.054 191.718 235.054 191.718C235.054 191.718 229.189 190.056 229.189 191.718C229.189 193.381 231.066 194.805 236.462 195.518H265.552C265.552 195.518 270.244 192.905 269.305 190.056C268.367 187.207 263.44 188.869 263.44 188.869C263.44 188.869 270.947 179.608 270.478 175.572C270.009 171.535 260.391 176.284 260.391 176.284C260.391 176.284 267.898 157.051 266.491 148.503C265.382 141.769 260.217 146.378 257.406 148.965C258.066 144.494 258.344 139.963 258.225 135.443Z" fill="white"/>
<path d="M248.896 195.28L251.008 129.98" stroke="white" stroke-miterlimit="10" stroke-linecap="round" stroke-linejoin="round"/>
<path d="M250.068 167.973L261.094 157.525" stroke="white" stroke-miterlimit="10" stroke-linecap="round" stroke-linejoin="round"/>
<path d="M255.23 163.223L257.576 156.574" stroke="white" stroke-miterlimit="10" stroke-linecap="round" stroke-linejoin="round"/>
<path d="M240.92 176.047L249.365 185.308" stroke="white" stroke-miterlimit="10" stroke-linecap="round" stroke-linejoin="round"/>
<path d="M263.441 181.27L249.365 188.631" stroke="white" stroke-miterlimit="10" stroke-linecap="round" stroke-linejoin="round"/>
<path d="M255.934 185.544L261.095 185.307" stroke="white" stroke-miterlimit="10" stroke-linecap="round" stroke-linejoin="round"/>
<path d="M248.896 195.28L251.008 129.98" stroke="#0A5840" stroke-miterlimit="10" stroke-linecap="round" stroke-linejoin="round"/>
<path d="M250.068 167.973L261.094 157.525" stroke="#0A5840" stroke-miterlimit="10" stroke-linecap="round" stroke-linejoin="round"/>
<path d="M255.23 163.223L257.576 156.574" stroke="#0A5840" stroke-miterlimit="10" stroke-linecap="round" stroke-linejoin="round"/>
<path d="M240.92 176.047L249.365 185.308" stroke="#0A5840" stroke-miterlimit="10" stroke-linecap="round" stroke-linejoin="round"/>
<path d="M263.441 181.27L249.365 188.631" stroke="#0A5840" stroke-miterlimit="10" stroke-linecap="round" stroke-linejoin="round"/>
<path d="M255.934 185.544L261.095 185.307" stroke="#0A5840" stroke-miterlimit="10" stroke-linecap="round" stroke-linejoin="round"/>
<g opacity="0.8">
<path d="M248.896 195.28L251.008 129.98" stroke="white" stroke-miterlimit="10" stroke-linecap="round" stroke-linejoin="round"/>
<path d="M250.068 167.973L261.094 157.525" stroke="white" stroke-miterlimit="10" stroke-linecap="round" stroke-linejoin="round"/>
<path d="M255.23 163.223L257.576 156.574" stroke="white" stroke-miterlimit="10" stroke-linecap="round" stroke-linejoin="round"/>
<path d="M240.92 176.047L249.365 185.308" stroke="white" stroke-miterlimit="10" stroke-linecap="round" stroke-linejoin="round"/>
<path d="M263.441 181.27L249.365 188.631" stroke="white" stroke-miterlimit="10" stroke-linecap="round" stroke-linejoin="round"/>
<path d="M255.934 185.544L261.095 185.307" stroke="white" stroke-miterlimit="10" stroke-linecap="round" stroke-linejoin="round"/>
</g>
<path d="M208.594 182.084C208.594 188.724 213.791 194.107 213.791 194.107C213.791 194.107 218.988 188.724 218.988 182.084C218.988 175.443 213.791 170.061 213.791 170.061C213.791 170.061 208.594 175.443 208.594 182.084Z" fill="#0A5840"/>
<path d="M204.993 192.326C207.517 195.206 211.818 195.518 211.818 195.518C211.818 195.518 212.026 191.159 209.503 188.278C206.978 185.398 202.678 185.086 202.678 185.086C202.678 185.086 202.469 189.445 204.993 192.326Z" fill="#0A5840"/>
<path d="M218.235 188.176C215.586 190.939 215.6 195.303 215.6 195.303C215.6 195.303 219.91 195.188 222.559 192.425C225.209 189.663 225.195 185.299 225.195 185.299C225.195 185.299 220.885 185.414 218.235 188.176Z" fill="#0A5840"/>
<g opacity="0.5">
<path d="M208.594 182.084C208.594 188.724 213.791 194.107 213.791 194.107C213.791 194.107 218.988 188.724 218.988 182.084C218.988 175.443 213.791 170.061 213.791 170.061C213.791 170.061 208.594 175.443 208.594 182.084Z" fill="white"/>
<path d="M213.791 194.107V170.061" stroke="white" stroke-miterlimit="10" stroke-linecap="round" stroke-linejoin="round"/>
<path d="M213.791 178.608L210.881 176.037" stroke="white" stroke-miterlimit="10" stroke-linecap="round" stroke-linejoin="round"/>
<path d="M213.838 182.581L217.44 177.299" stroke="white" stroke-miterlimit="10" stroke-linecap="round" stroke-linejoin="round"/>
<path d="M213.791 184.872L209.496 180.992" stroke="white" stroke-miterlimit="10" stroke-linecap="round" stroke-linejoin="round"/>
<path d="M213.838 187.959L218.087 184.125" stroke="white" stroke-miterlimit="10" stroke-linecap="round" stroke-linejoin="round"/>
<path d="M213.837 190.621L210.512 187.957" stroke="white" stroke-miterlimit="10" stroke-linecap="round" stroke-linejoin="round"/>
<path d="M204.993 192.326C207.517 195.206 211.818 195.518 211.818 195.518C211.818 195.518 212.026 191.159 209.503 188.278C206.978 185.398 202.678 185.086 202.678 185.086C202.678 185.086 202.469 189.445 204.993 192.326Z" fill="white"/>
<path d="M211.817 195.518L202.678 185.086" stroke="white" stroke-miterlimit="10" stroke-linecap="round" stroke-linejoin="round"/>
<path d="M205.927 188.795L203.688 188.812" stroke="white" stroke-miterlimit="10" stroke-linecap="round" stroke-linejoin="round"/>
<path d="M207.457 190.499L207.012 186.805" stroke="white" stroke-miterlimit="10" stroke-linecap="round" stroke-linejoin="round"/>
<path d="M208.307 191.513L204.969 191.502" stroke="white" stroke-miterlimit="10" stroke-linecap="round" stroke-linejoin="round"/>
<path d="M209.5 192.833L209.886 189.516" stroke="white" stroke-miterlimit="10" stroke-linecap="round" stroke-linejoin="round"/>
<path d="M210.514 193.988L208.059 194.127" stroke="white" stroke-miterlimit="10" stroke-linecap="round" stroke-linejoin="round"/>
<path d="M218.235 188.176C215.586 190.939 215.6 195.303 215.6 195.303C215.6 195.303 219.91 195.188 222.559 192.425C225.209 189.663 225.195 185.299 225.195 185.299C225.195 185.299 220.885 185.414 218.235 188.176Z" fill="white"/>
<path d="M215.6 195.302L225.195 185.299" stroke="white" stroke-miterlimit="10" stroke-linecap="round" stroke-linejoin="round"/>
<path d="M221.784 188.855L221.6 186.596" stroke="white" stroke-miterlimit="10" stroke-linecap="round" stroke-linejoin="round"/>
<path d="M220.219 190.527L223.825 189.803" stroke="white" stroke-miterlimit="10" stroke-linecap="round" stroke-linejoin="round"/>
<path d="M219.283 191.46L219.045 188.09" stroke="white" stroke-miterlimit="10" stroke-linecap="round" stroke-linejoin="round"/>
<path d="M218.072 192.764L221.37 192.906" stroke="white" stroke-miterlimit="10" stroke-linecap="round" stroke-linejoin="round"/>
<path d="M217.01 193.872L216.689 191.404" stroke="white" stroke-miterlimit="10" stroke-linecap="round" stroke-linejoin="round"/>
</g>
<path d="M213.791 194.107V170.061" stroke="#0A5840" stroke-miterlimit="10" stroke-linecap="round" stroke-linejoin="round"/>
<path d="M213.791 178.608L210.881 176.037" stroke="#0A5840" stroke-miterlimit="10" stroke-linecap="round" stroke-linejoin="round"/>
<path d="M213.838 182.581L217.44 177.299" stroke="#0A5840" stroke-miterlimit="10" stroke-linecap="round" stroke-linejoin="round"/>
<path d="M213.791 184.872L209.496 180.992" stroke="#0A5840" stroke-miterlimit="10" stroke-linecap="round" stroke-linejoin="round"/>
<path d="M213.838 187.959L218.087 184.125" stroke="#0A5840" stroke-miterlimit="10" stroke-linecap="round" stroke-linejoin="round"/>
<path d="M213.837 190.621L210.512 187.957" stroke="#0A5840" stroke-miterlimit="10" stroke-linecap="round" stroke-linejoin="round"/>
<g opacity="0.7">
<path d="M213.791 194.107V170.061" stroke="white" stroke-miterlimit="10" stroke-linecap="round" stroke-linejoin="round"/>
<path d="M213.791 178.608L210.881 176.037" stroke="white" stroke-miterlimit="10" stroke-linecap="round" stroke-linejoin="round"/>
<path d="M213.838 182.581L217.44 177.299" stroke="white" stroke-miterlimit="10" stroke-linecap="round" stroke-linejoin="round"/>
<path d="M213.791 184.872L209.496 180.992" stroke="white" stroke-miterlimit="10" stroke-linecap="round" stroke-linejoin="round"/>
<path d="M213.838 187.959L218.087 184.125" stroke="white" stroke-miterlimit="10" stroke-linecap="round" stroke-linejoin="round"/>
<path d="M213.837 190.621L210.512 187.957" stroke="white" stroke-miterlimit="10" stroke-linecap="round" stroke-linejoin="round"/>
</g>
<path d="M211.817 195.518L202.678 185.086" stroke="#0A5840" stroke-miterlimit="10" stroke-linecap="round" stroke-linejoin="round"/>
<path d="M205.927 188.793L203.688 188.811" stroke="#0A5840" stroke-miterlimit="10" stroke-linecap="round" stroke-linejoin="round"/>
<path d="M207.457 190.499L207.012 186.805" stroke="#0A5840" stroke-miterlimit="10" stroke-linecap="round" stroke-linejoin="round"/>
<path d="M208.307 191.511L204.969 191.5" stroke="#0A5840" stroke-miterlimit="10" stroke-linecap="round" stroke-linejoin="round"/>
<path d="M209.5 192.831L209.886 189.514" stroke="#0A5840" stroke-miterlimit="10" stroke-linecap="round" stroke-linejoin="round"/>
<path d="M210.514 193.988L208.059 194.127" stroke="#0A5840" stroke-miterlimit="10" stroke-linecap="round" stroke-linejoin="round"/>
<g opacity="0.7">
<path d="M211.817 195.518L202.678 185.086" stroke="white" stroke-miterlimit="10" stroke-linecap="round" stroke-linejoin="round"/>
<path d="M205.927 188.793L203.688 188.811" stroke="white" stroke-miterlimit="10" stroke-linecap="round" stroke-linejoin="round"/>
<path d="M207.457 190.499L207.012 186.805" stroke="white" stroke-miterlimit="10" stroke-linecap="round" stroke-linejoin="round"/>
<path d="M208.307 191.511L204.969 191.5" stroke="white" stroke-miterlimit="10" stroke-linecap="round" stroke-linejoin="round"/>
<path d="M209.5 192.831L209.886 189.514" stroke="white" stroke-miterlimit="10" stroke-linecap="round" stroke-linejoin="round"/>
<path d="M210.514 193.988L208.059 194.127" stroke="white" stroke-miterlimit="10" stroke-linecap="round" stroke-linejoin="round"/>
</g>
<path d="M215.6 195.302L225.195 185.299" stroke="#0A5840" stroke-miterlimit="10" stroke-linecap="round" stroke-linejoin="round"/>
<path d="M221.784 188.855L221.6 186.596" stroke="#0A5840" stroke-miterlimit="10" stroke-linecap="round" stroke-linejoin="round"/>
<path d="M220.219 190.527L223.825 189.803" stroke="#0A5840" stroke-miterlimit="10" stroke-linecap="round" stroke-linejoin="round"/>
<path d="M219.283 191.46L219.045 188.09" stroke="#0A5840" stroke-miterlimit="10" stroke-linecap="round" stroke-linejoin="round"/>
<path d="M218.072 192.764L221.37 192.906" stroke="#0A5840" stroke-miterlimit="10" stroke-linecap="round" stroke-linejoin="round"/>
<path d="M217.01 193.872L216.689 191.404" stroke="#0A5840" stroke-miterlimit="10" stroke-linecap="round" stroke-linejoin="round"/>
<g opacity="0.7">
<path d="M215.6 195.302L225.195 185.299" stroke="white" stroke-miterlimit="10" stroke-linecap="round" stroke-linejoin="round"/>
<path d="M221.784 188.855L221.6 186.596" stroke="white" stroke-miterlimit="10" stroke-linecap="round" stroke-linejoin="round"/>
<path d="M220.219 190.527L223.825 189.803" stroke="white" stroke-miterlimit="10" stroke-linecap="round" stroke-linejoin="round"/>
<path d="M219.283 191.46L219.045 188.09" stroke="white" stroke-miterlimit="10" stroke-linecap="round" stroke-linejoin="round"/>
<path d="M218.072 192.764L221.37 192.906" stroke="white" stroke-miterlimit="10" stroke-linecap="round" stroke-linejoin="round"/>
<path d="M217.01 193.872L216.689 191.404" stroke="white" stroke-miterlimit="10" stroke-linecap="round" stroke-linejoin="round"/>
</g>
<path d="M43.2111 135.443C43.3523 130.099 42.9434 120.982 47.575 117.23C51.6428 113.935 54.8045 118.408 55.9446 122.014C58.7122 130.769 57.4119 140.432 57.4055 149.451C57.4055 149.59 57.4068 149.728 57.4115 149.866C57.6301 156.514 58.4187 163.711 57.7011 170.348C57.7011 170.348 58.4048 163.699 63.5661 166.548C68.7275 169.398 60.9855 184.357 60.9855 184.357C60.9855 184.357 67.0852 179.846 69.9001 183.645C72.7155 187.444 66.3811 191.718 66.3811 191.718C66.3811 191.718 72.2461 190.056 72.2461 191.718C72.2461 193.381 70.3695 194.805 64.9734 195.518H35.883C35.883 195.518 31.1909 192.905 32.1293 190.056C33.0676 187.207 37.9943 188.869 37.9943 188.869C37.9943 188.869 30.4873 179.608 30.9567 175.571C31.426 171.534 41.0444 176.283 41.0444 176.283C41.0444 176.283 33.5374 157.05 34.9446 148.502C36.0534 141.768 41.2177 146.377 44.0289 148.964C43.3692 144.494 43.0914 139.963 43.2111 135.443Z" fill="#0A5840" stroke="white" stroke-miterlimit="10" stroke-linecap="round" stroke-linejoin="round"/>
<path opacity="0.5" d="M43.2111 135.443C43.3523 130.099 42.9434 120.982 47.575 117.23C51.6428 113.935 54.8045 118.408 55.9446 122.014C58.7122 130.769 57.4119 140.432 57.4055 149.451C57.4055 149.59 57.4068 149.728 57.4115 149.866C57.6301 156.514 58.4187 163.711 57.7011 170.348C57.7011 170.348 58.4048 163.699 63.5661 166.548C68.7275 169.398 60.9855 184.357 60.9855 184.357C60.9855 184.357 67.0852 179.846 69.9001 183.645C72.7155 187.444 66.3811 191.718 66.3811 191.718C66.3811 191.718 72.2461 190.056 72.2461 191.718C72.2461 193.381 70.3695 194.805 64.9734 195.518H35.883C35.883 195.518 31.1909 192.905 32.1293 190.056C33.0676 187.207 37.9943 188.869 37.9943 188.869C37.9943 188.869 30.4873 179.608 30.9567 175.571C31.426 171.534 41.0444 176.283 41.0444 176.283C41.0444 176.283 33.5374 157.05 34.9446 148.502C36.0534 141.768 41.2177 146.377 44.0289 148.964C43.3692 144.494 43.0914 139.963 43.2111 135.443Z" fill="white"/>
<path d="M52.5395 195.28L50.4277 129.98" stroke="white" stroke-miterlimit="10" stroke-linecap="round" stroke-linejoin="round"/>
<path d="M51.3663 167.973L40.3398 157.525" stroke="white" stroke-miterlimit="10" stroke-linecap="round" stroke-linejoin="round"/>
<path d="M46.2054 163.223L43.8594 156.574" stroke="white" stroke-miterlimit="10" stroke-linecap="round" stroke-linejoin="round"/>
<path d="M60.516 176.047L52.0703 185.308" stroke="white" stroke-miterlimit="10" stroke-linecap="round" stroke-linejoin="round"/>
<path d="M37.9941 181.27L52.0702 188.631" stroke="white" stroke-miterlimit="10" stroke-linecap="round" stroke-linejoin="round"/>
<path d="M45.5012 185.544L40.3398 185.307" stroke="white" stroke-miterlimit="10" stroke-linecap="round" stroke-linejoin="round"/>
<path d="M52.5395 195.28L50.4277 129.98" stroke="#0A5840" stroke-miterlimit="10" stroke-linecap="round" stroke-linejoin="round"/>
<path d="M51.3663 167.973L40.3398 157.525" stroke="#0A5840" stroke-miterlimit="10" stroke-linecap="round" stroke-linejoin="round"/>
<path d="M46.2054 163.223L43.8594 156.574" stroke="#0A5840" stroke-miterlimit="10" stroke-linecap="round" stroke-linejoin="round"/>
<path d="M60.516 176.047L52.0703 185.308" stroke="#0A5840" stroke-miterlimit="10" stroke-linecap="round" stroke-linejoin="round"/>
<path d="M37.9941 181.27L52.0702 188.631" stroke="#0A5840" stroke-miterlimit="10" stroke-linecap="round" stroke-linejoin="round"/>
<path d="M45.5012 185.544L40.3398 185.307" stroke="#0A5840" stroke-miterlimit="10" stroke-linecap="round" stroke-linejoin="round"/>
<g opacity="0.8">
<path d="M52.5395 195.28L50.4277 129.98" stroke="white" stroke-miterlimit="10" stroke-linecap="round" stroke-linejoin="round"/>
<path d="M51.3663 167.973L40.3398 157.525" stroke="white" stroke-miterlimit="10" stroke-linecap="round" stroke-linejoin="round"/>
<path d="M46.2054 163.223L43.8594 156.574" stroke="white" stroke-miterlimit="10" stroke-linecap="round" stroke-linejoin="round"/>
<path d="M60.516 176.047L52.0703 185.308" stroke="white" stroke-miterlimit="10" stroke-linecap="round" stroke-linejoin="round"/>
<path d="M37.9941 181.27L52.0702 188.631" stroke="white" stroke-miterlimit="10" stroke-linecap="round" stroke-linejoin="round"/>
<path d="M45.5012 185.544L40.3398 185.307" stroke="white" stroke-miterlimit="10" stroke-linecap="round" stroke-linejoin="round"/>
</g>
<path d="M93.6868 182.084C93.6868 188.724 88.4899 194.107 88.4899 194.107C88.4899 194.107 83.293 188.724 83.293 182.084C83.293 175.443 88.4899 170.061 88.4899 170.061C88.4899 170.061 93.6868 175.443 93.6868 182.084Z" fill="#0A5840"/>
<path d="M97.2877 192.326C94.7636 195.206 90.4632 195.518 90.4632 195.518C90.4632 195.518 90.2547 191.159 92.7783 188.278C95.3023 185.398 99.6028 185.086 99.6028 185.086C99.6028 185.086 99.8113 189.445 97.2877 192.326Z" fill="#0A5840"/>
<path d="M84.0457 188.176C86.6954 190.939 86.6814 195.303 86.6814 195.303C86.6814 195.303 82.3712 195.188 79.7216 192.425C77.072 189.663 77.0859 185.299 77.0859 185.299C77.0859 185.299 81.3957 185.414 84.0457 188.176Z" fill="#0A5840"/>
<g opacity="0.5">
<path d="M93.6868 182.084C93.6868 188.724 88.4899 194.107 88.4899 194.107C88.4899 194.107 83.293 188.724 83.293 182.084C83.293 175.443 88.4899 170.061 88.4899 170.061C88.4899 170.061 93.6868 175.443 93.6868 182.084Z" fill="white"/>
<path d="M88.4902 194.107V170.061" stroke="white" stroke-miterlimit="10" stroke-linecap="round" stroke-linejoin="round"/>
<path d="M88.4902 178.608L91.3999 176.037" stroke="white" stroke-miterlimit="10" stroke-linecap="round" stroke-linejoin="round"/>
<path d="M88.4426 182.581L84.8398 177.299" stroke="white" stroke-miterlimit="10" stroke-linecap="round" stroke-linejoin="round"/>
<path d="M88.4902 184.872L92.7856 180.992" stroke="white" stroke-miterlimit="10" stroke-linecap="round" stroke-linejoin="round"/>
<path d="M88.4426 187.959L84.1934 184.125" stroke="white" stroke-miterlimit="10" stroke-linecap="round" stroke-linejoin="round"/>
<path d="M88.4434 190.621L91.7687 187.957" stroke="white" stroke-miterlimit="10" stroke-linecap="round" stroke-linejoin="round"/>
<path d="M97.2877 192.326C94.7636 195.206 90.4632 195.518 90.4632 195.518C90.4632 195.518 90.2547 191.159 92.7783 188.278C95.3023 185.398 99.6028 185.086 99.6028 185.086C99.6028 185.086 99.8113 189.445 97.2877 192.326Z" fill="white"/>
<path d="M90.4629 195.518L99.6025 185.086" stroke="white" stroke-miterlimit="10" stroke-linecap="round" stroke-linejoin="round"/>
<path d="M96.3535 188.795L98.5934 188.812" stroke="white" stroke-miterlimit="10" stroke-linecap="round" stroke-linejoin="round"/>
<path d="M94.8242 190.499L95.2695 186.805" stroke="white" stroke-miterlimit="10" stroke-linecap="round" stroke-linejoin="round"/>
<path d="M93.9727 191.513L97.3107 191.502" stroke="white" stroke-miterlimit="10" stroke-linecap="round" stroke-linejoin="round"/>
<path d="M92.781 192.833L92.3945 189.516" stroke="white" stroke-miterlimit="10" stroke-linecap="round" stroke-linejoin="round"/>
<path d="M91.7676 193.988L94.2231 194.127" stroke="white" stroke-miterlimit="10" stroke-linecap="round" stroke-linejoin="round"/>
<path d="M84.0457 188.176C86.6954 190.939 86.6814 195.303 86.6814 195.303C86.6814 195.303 82.3712 195.188 79.7216 192.425C77.072 189.663 77.0859 185.299 77.0859 185.299C77.0859 185.299 81.3957 185.414 84.0457 188.176Z" fill="white"/>
<path d="M86.6814 195.302L77.0859 185.299" stroke="white" stroke-miterlimit="10" stroke-linecap="round" stroke-linejoin="round"/>
<path d="M80.4961 188.855L80.6809 186.596" stroke="white" stroke-miterlimit="10" stroke-linecap="round" stroke-linejoin="round"/>
<path d="M82.0636 190.527L78.457 189.803" stroke="white" stroke-miterlimit="10" stroke-linecap="round" stroke-linejoin="round"/>
<path d="M82.9961 191.46L83.2346 188.09" stroke="white" stroke-miterlimit="10" stroke-linecap="round" stroke-linejoin="round"/>
<path d="M84.2076 192.764L80.9102 192.906" stroke="white" stroke-miterlimit="10" stroke-linecap="round" stroke-linejoin="round"/>
<path d="M85.2715 193.872L85.5916 191.404" stroke="white" stroke-miterlimit="10" stroke-linecap="round" stroke-linejoin="round"/>
</g>
<path d="M88.4902 194.107V170.061" stroke="#0A5840" stroke-miterlimit="10" stroke-linecap="round" stroke-linejoin="round"/>
<path d="M88.4902 178.608L91.3999 176.037" stroke="#0A5840" stroke-miterlimit="10" stroke-linecap="round" stroke-linejoin="round"/>
<path d="M88.4445 182.581L84.8418 177.299" stroke="#0A5840" stroke-miterlimit="10" stroke-linecap="round" stroke-linejoin="round"/>
<path d="M88.4902 184.872L92.7856 180.992" stroke="#0A5840" stroke-miterlimit="10" stroke-linecap="round" stroke-linejoin="round"/>
<path d="M88.4446 187.959L84.1953 184.125" stroke="#0A5840" stroke-miterlimit="10" stroke-linecap="round" stroke-linejoin="round"/>
<path d="M88.4453 190.621L91.7707 187.957" stroke="#0A5840" stroke-miterlimit="10" stroke-linecap="round" stroke-linejoin="round"/>
<g opacity="0.7">
<path d="M88.4902 194.107V170.061" stroke="white" stroke-miterlimit="10" stroke-linecap="round" stroke-linejoin="round"/>
<path d="M88.4902 178.608L91.3999 176.037" stroke="white" stroke-miterlimit="10" stroke-linecap="round" stroke-linejoin="round"/>
<path d="M88.4445 182.581L84.8418 177.299" stroke="white" stroke-miterlimit="10" stroke-linecap="round" stroke-linejoin="round"/>
<path d="M88.4902 184.872L92.7856 180.992" stroke="white" stroke-miterlimit="10" stroke-linecap="round" stroke-linejoin="round"/>
<path d="M88.4446 187.959L84.1953 184.125" stroke="white" stroke-miterlimit="10" stroke-linecap="round" stroke-linejoin="round"/>
<path d="M88.4453 190.621L91.7707 187.957" stroke="white" stroke-miterlimit="10" stroke-linecap="round" stroke-linejoin="round"/>
</g>
<path d="M90.4629 195.518L99.6025 185.086" stroke="#0A5840" stroke-miterlimit="10" stroke-linecap="round" stroke-linejoin="round"/>
<path d="M96.3535 188.793L98.5934 188.811" stroke="#0A5840" stroke-miterlimit="10" stroke-linecap="round" stroke-linejoin="round"/>
<path d="M94.8242 190.499L95.2695 186.805" stroke="#0A5840" stroke-miterlimit="10" stroke-linecap="round" stroke-linejoin="round"/>
<path d="M93.9727 191.511L97.3107 191.5" stroke="#0A5840" stroke-miterlimit="10" stroke-linecap="round" stroke-linejoin="round"/>
<path d="M92.781 192.831L92.3945 189.514" stroke="#0A5840" stroke-miterlimit="10" stroke-linecap="round" stroke-linejoin="round"/>
<path d="M91.7676 193.988L94.2231 194.127" stroke="#0A5840" stroke-miterlimit="10" stroke-linecap="round" stroke-linejoin="round"/>
<g opacity="0.7">
<path d="M90.4629 195.518L99.6025 185.086" stroke="white" stroke-miterlimit="10" stroke-linecap="round" stroke-linejoin="round"/>
<path d="M96.3535 188.793L98.5934 188.811" stroke="white" stroke-miterlimit="10" stroke-linecap="round" stroke-linejoin="round"/>
<path d="M94.8242 190.499L95.2695 186.805" stroke="white" stroke-miterlimit="10" stroke-linecap="round" stroke-linejoin="round"/>
<path d="M93.9727 191.511L97.3107 191.5" stroke="white" stroke-miterlimit="10" stroke-linecap="round" stroke-linejoin="round"/>
<path d="M92.781 192.831L92.3945 189.514" stroke="white" stroke-miterlimit="10" stroke-linecap="round" stroke-linejoin="round"/>
<path d="M91.7676 193.988L94.2231 194.127" stroke="white" stroke-miterlimit="10" stroke-linecap="round" stroke-linejoin="round"/>
</g>
<path d="M86.6814 195.302L77.0859 185.299" stroke="#0A5840" stroke-miterlimit="10" stroke-linecap="round" stroke-linejoin="round"/>
<path d="M80.4961 188.855L80.6809 186.596" stroke="#0A5840" stroke-miterlimit="10" stroke-linecap="round" stroke-linejoin="round"/>
<path d="M82.0636 190.527L78.457 189.803" stroke="#0A5840" stroke-miterlimit="10" stroke-linecap="round" stroke-linejoin="round"/>
<path d="M82.9961 191.46L83.2346 188.09" stroke="#0A5840" stroke-miterlimit="10" stroke-linecap="round" stroke-linejoin="round"/>
<path d="M84.2076 192.764L80.9102 192.906" stroke="#0A5840" stroke-miterlimit="10" stroke-linecap="round" stroke-linejoin="round"/>
<path d="M85.2715 193.872L85.5916 191.404" stroke="#0A5840" stroke-miterlimit="10" stroke-linecap="round" stroke-linejoin="round"/>
<g opacity="0.7">
<path d="M86.6814 195.302L77.0859 185.299" stroke="white" stroke-miterlimit="10" stroke-linecap="round" stroke-linejoin="round"/>
<path d="M80.4961 188.855L80.6809 186.596" stroke="white" stroke-miterlimit="10" stroke-linecap="round" stroke-linejoin="round"/>
<path d="M82.0636 190.527L78.457 189.803" stroke="white" stroke-miterlimit="10" stroke-linecap="round" stroke-linejoin="round"/>
<path d="M82.9961 191.46L83.2346 188.09" stroke="white" stroke-miterlimit="10" stroke-linecap="round" stroke-linejoin="round"/>
<path d="M84.2076 192.764L80.9102 192.906" stroke="white" stroke-miterlimit="10" stroke-linecap="round" stroke-linejoin="round"/>
<path d="M85.2715 193.872L85.5916 191.404" stroke="white" stroke-miterlimit="10" stroke-linecap="round" stroke-linejoin="round"/>
</g>
<path d="M210.744 68.3186H96.4315C96.2882 68.3186 96.1719 68.2009 96.1719 68.0558C96.1719 67.9107 96.2882 67.793 96.4315 67.793H210.744C210.887 67.793 211.003 67.9107 211.003 68.0558C211.003 68.2009 210.887 68.3186 210.744 68.3186Z" fill="#0A5840"/>
<g opacity="0.3">
<path d="M210.744 68.3186H96.4315C96.2882 68.3186 96.1719 68.2009 96.1719 68.0558C96.1719 67.9107 96.2882 67.793 96.4315 67.793H210.744C210.887 67.793 211.003 67.9107 211.003 68.0558C211.003 68.2009 210.887 68.3186 210.744 68.3186Z" fill="white"/>
</g>
<path d="M210.515 114.207H96.203C96.0592 114.207 95.9434 114.09 95.9434 113.944C95.9434 113.799 96.0596 113.682 96.203 113.682H210.515C210.659 113.682 210.775 113.799 210.775 113.944C210.775 114.09 210.659 114.207 210.515 114.207Z" fill="#0A5840"/>
<g opacity="0.3">
<path d="M210.515 114.207H96.203C96.0592 114.207 95.9434 114.09 95.9434 113.944C95.9434 113.799 96.0596 113.682 96.203 113.682H210.515C210.659 113.682 210.775 113.799 210.775 113.944C210.775 114.09 210.659 114.207 210.515 114.207Z" fill="white"/>
</g>
<path d="M210.515 151.719H96.203C96.0592 151.719 95.9434 151.601 95.9434 151.456C95.9434 151.311 96.0596 151.193 96.203 151.193H210.515C210.659 151.193 210.775 151.311 210.775 151.456C210.775 151.601 210.659 151.719 210.515 151.719Z" fill="#0A5840"/>
<g opacity="0.3">
<path d="M210.515 151.719H96.203C96.0592 151.719 95.9434 151.601 95.9434 151.456C95.9434 151.311 96.0596 151.193 96.203 151.193H210.515C210.659 151.193 210.775 151.311 210.775 151.456C210.775 151.601 210.659 151.719 210.515 151.719Z" fill="white"/>
</g>
<path d="M120.504 158.07V197.11" stroke="#263238" stroke-width="0.2652" stroke-miterlimit="10"/>
<path d="M126.014 158.07V197.11" stroke="#263238" stroke-width="0.2652" stroke-miterlimit="10"/>
<path d="M131.523 158.07V197.11" stroke="#263238" stroke-width="0.2652" stroke-miterlimit="10"/>
<path d="M137.035 158.07V197.11" stroke="#263238" stroke-width="0.2652" stroke-miterlimit="10"/>
<path d="M142.545 158.07V197.11" stroke="#263238" stroke-width="0.2652" stroke-miterlimit="10"/>
<path d="M148.055 158.07V197.11" stroke="#263238" stroke-width="0.2652" stroke-miterlimit="10"/>
<path d="M153.564 158.07V197.11" stroke="#263238" stroke-width="0.2652" stroke-miterlimit="10"/>
<path d="M159.074 158.07V197.11" stroke="#263238" stroke-width="0.2652" stroke-miterlimit="10"/>
<path d="M164.584 158.07V197.11" stroke="#263238" stroke-width="0.2652" stroke-miterlimit="10"/>
<path d="M170.094 158.07V197.11" stroke="#263238" stroke-width="0.2652" stroke-miterlimit="10"/>
<path d="M175.604 158.07V197.11" stroke="#263238" stroke-width="0.2652" stroke-miterlimit="10"/>
<path d="M181.115 158.07V197.11" stroke="#263238" stroke-width="0.2652" stroke-miterlimit="10"/>
<path d="M120.779 161.695H180.839" stroke="#263238" stroke-width="0.2652" stroke-miterlimit="10"/>
<path d="M120.779 166.994H180.839" stroke="#263238" stroke-width="0.2652" stroke-miterlimit="10"/>
<path d="M120.779 172.291H180.839" stroke="#263238" stroke-width="0.2652" stroke-miterlimit="10"/>
<path d="M120.779 177.59H180.839" stroke="#263238" stroke-width="0.2652" stroke-miterlimit="10"/>
<path d="M120.779 182.889H180.839" stroke="#263238" stroke-width="0.2652" stroke-miterlimit="10"/>
<path d="M120.779 188.188H180.839" stroke="#263238" stroke-width="0.2652" stroke-miterlimit="10"/>
<path d="M120.779 193.484H180.839" stroke="#263238" stroke-width="0.2652" stroke-miterlimit="10"/>
<path d="M133.4 171.765L125.34 196.917H142.218L134.157 171.765C134.038 171.394 133.519 171.394 133.4 171.765Z" fill="#0A5840" stroke="#263238" stroke-width="1.0607" stroke-miterlimit="10"/>
<path d="M148.764 163.437L138.035 196.916H160.25L149.521 163.437C149.402 163.065 148.883 163.065 148.764 163.437Z" fill="#263238" stroke="#263238" stroke-width="1.0607" stroke-miterlimit="10"/>
<path d="M162.902 177.517L156.686 196.916H169.876L163.659 177.517C163.54 177.145 163.022 177.145 162.902 177.517Z" fill="#0A5840" stroke="#263238" stroke-width="1.0607" stroke-miterlimit="10"/>
<path d="M171.426 184.179L167.344 196.916H176.264L172.183 184.179C172.063 183.808 171.544 183.808 171.426 184.179Z" fill="#263238" stroke="#263238" stroke-width="1.0607" stroke-miterlimit="10"/>
<path d="M119.781 145.728C113.04 145.728 107.557 140.178 107.557 133.355C107.557 126.533 113.04 120.982 119.781 120.982C126.521 120.982 132.005 126.532 132.005 133.355C132.005 140.177 126.521 145.728 119.781 145.728ZM119.781 124.614C115.019 124.614 111.145 128.536 111.145 133.355C111.145 138.174 115.019 142.096 119.781 142.096C124.542 142.096 128.417 138.174 128.417 133.355C128.417 128.535 124.542 124.614 119.781 124.614Z" fill="#263238" stroke="#263238" stroke-width="1.0607" stroke-miterlimit="10"/>
<path d="M119.781 145.727C116.417 145.727 113.283 144.374 110.955 141.916L113.546 139.402C115.19 141.139 117.404 142.096 119.781 142.096C124.542 142.096 128.417 138.174 128.417 133.355C128.417 128.536 124.542 124.614 119.781 124.614V120.982C126.521 120.982 132.004 126.532 132.004 133.355C132.004 140.177 126.521 145.727 119.781 145.727Z" fill="#0A5840" stroke="#263238" stroke-width="1.0607" stroke-miterlimit="10"/>
<path d="M149.927 145.728C143.187 145.728 137.703 140.178 137.703 133.355C137.703 126.533 143.187 120.982 149.927 120.982C156.667 120.982 162.151 126.532 162.151 133.355C162.151 140.177 156.667 145.728 149.927 145.728ZM149.927 124.614C145.165 124.614 141.291 128.536 141.291 133.355C141.291 138.174 145.165 142.096 149.927 142.096C154.688 142.096 158.563 138.174 158.563 133.355C158.563 128.535 154.689 124.614 149.927 124.614Z" fill="#263238" stroke="#263238" stroke-width="1.0607" stroke-miterlimit="10"/>
<path d="M154.687 144.754L153.289 141.41C156.493 140.038 158.563 136.876 158.563 133.355C158.563 128.536 154.689 124.614 149.928 124.614V120.982C156.668 120.982 162.152 126.532 162.152 133.355C162.152 138.339 159.221 142.813 154.687 144.754Z" fill="#0A5840" stroke="#263238" stroke-width="1.0607" stroke-miterlimit="10"/>
<path d="M180.074 145.728C173.333 145.728 167.85 140.178 167.85 133.355C167.85 126.533 173.333 120.982 180.074 120.982C186.814 120.982 192.298 126.532 192.298 133.355C192.298 140.177 186.814 145.728 180.074 145.728ZM180.074 124.614C175.312 124.614 171.438 128.536 171.438 133.355C171.438 138.174 175.312 142.096 180.074 142.096C184.835 142.096 188.71 138.174 188.71 133.355C188.71 128.535 184.835 124.614 180.074 124.614Z" fill="#263238" stroke="#263238" stroke-width="1.0607" stroke-miterlimit="10"/>
<path d="M188.539 131.612C187.729 127.557 184.169 124.614 180.074 124.614V120.982C185.87 120.982 190.909 125.15 192.056 130.892L188.539 131.612Z" fill="#0A5840" stroke="#263238" stroke-width="1.0607" stroke-miterlimit="10"/>
<path d="M124.654 107.283H182.064" stroke="#263238" stroke-width="1.0607" stroke-miterlimit="10"/>
<path d="M124.654 107.284V106.045" stroke="#263238" stroke-width="1.0607" stroke-miterlimit="10"/>
<path d="M136.137 107.284V106.045" stroke="#263238" stroke-width="1.0607" stroke-miterlimit="10"/>
<path d="M147.619 107.284V106.045" stroke="#263238" stroke-width="1.0607" stroke-miterlimit="10"/>
<path d="M159.1 107.284V106.045" stroke="#263238" stroke-width="1.0607" stroke-miterlimit="10"/>
<path d="M170.582 107.284V106.045" stroke="#263238" stroke-width="1.0607" stroke-miterlimit="10"/>
<path d="M182.064 107.284V106.045" stroke="#263238" stroke-width="1.0607" stroke-miterlimit="10"/>
<path d="M134.529 90.7695H126.262V100.679H134.529V90.7695Z" fill="#0A5840" stroke="#263238" stroke-width="1.0607" stroke-miterlimit="10"/>
<path d="M146.011 79.207H137.744V102.329H146.011V79.207Z" fill="#0A5840" stroke="#263238" stroke-width="1.0607" stroke-miterlimit="10"/>
<path d="M157.492 63.0215H149.225V88.7867H157.492V63.0215Z" fill="#0A5840" stroke="#263238" stroke-width="1.0607" stroke-miterlimit="10"/>
<path d="M168.974 87.1348H160.707V92.0893H168.974V87.1348Z" fill="#0A5840" stroke="#263238" stroke-width="1.0607" stroke-miterlimit="10"/>
<path d="M180.456 84.1621H172.189V97.0445H180.456V84.1621Z" fill="#0A5840" stroke="#263238" stroke-width="1.0607" stroke-miterlimit="10"/>
<path d="M134.529 100.678H126.262V107.284H134.529V100.678Z" fill="#263238" stroke="#263238" stroke-width="1.0607" stroke-miterlimit="10"/>
<path d="M146.011 102.33H137.744V107.285H146.011V102.33Z" fill="#263238" stroke="#263238" stroke-width="1.0607" stroke-miterlimit="10"/>
<path d="M157.492 88.7871H149.225V107.285H157.492V88.7871Z" fill="#263238" stroke="#263238" stroke-width="1.0607" stroke-miterlimit="10"/>
<path d="M168.974 92.0898H160.707V107.285H168.974V92.0898Z" fill="#263238" stroke="#263238" stroke-width="1.0607" stroke-miterlimit="10"/>
<path d="M180.456 97.0449H172.189V107.285H180.456V97.0449Z" fill="#263238" stroke="#263238" stroke-width="1.0607" stroke-miterlimit="10"/>
<path d="M197.363 58.3453C197.169 58.3453 196.978 58.2516 196.86 58.0774L179.076 31.8222L161.032 51.2966L142.608 39.1393L124.785 43.3255L106.682 58.2075C106.42 58.4224 106.036 58.3822 105.824 58.1177C105.612 57.8531 105.651 57.4649 105.913 57.2501L124.235 42.1888L142.838 37.8193L160.841 49.6989L179.223 29.8594L197.865 57.3806C198.055 57.6614 197.984 58.0457 197.707 58.2383C197.602 58.3102 197.482 58.3453 197.363 58.3453Z" fill="#263238"/>
<path d="M107.806 57.7287C107.806 58.5723 107.13 59.2567 106.296 59.2567C105.463 59.2567 104.787 58.5727 104.787 57.7287C104.787 56.8851 105.463 56.2012 106.296 56.2012C107.13 56.2012 107.806 56.8851 107.806 57.7287Z" fill="#0A5840"/>
<path d="M126.019 42.756C126.019 43.6001 125.343 44.284 124.509 44.284C123.676 44.284 123 43.6001 123 42.756C123 41.9125 123.676 41.2285 124.509 41.2285C125.343 41.2281 126.019 41.912 126.019 42.756Z" fill="#0A5840"/>
<path d="M144.232 38.4787C144.232 39.3223 143.556 40.0067 142.722 40.0067C141.889 40.0067 141.213 39.3227 141.213 38.4787C141.213 37.6351 141.889 36.9512 142.722 36.9512C143.556 36.9512 144.232 37.6351 144.232 38.4787Z" fill="#0A5840"/>
<path d="M162.445 50.4963C162.445 51.3399 161.769 52.0238 160.935 52.0238C160.102 52.0238 159.426 51.3399 159.426 50.4963C159.426 49.6527 160.102 48.9688 160.935 48.9688C161.769 48.9688 162.445 49.6527 162.445 50.4963Z" fill="#0A5840"/>
<path d="M180.659 30.84C180.659 31.6836 179.983 32.368 179.15 32.368C178.316 32.368 177.641 31.684 177.641 30.84C177.641 29.9964 178.316 29.3125 179.15 29.3125C179.983 29.3125 180.659 29.9964 180.659 30.84Z" fill="#0A5840"/>
<path d="M198.872 57.7287C198.872 58.5723 198.196 59.2567 197.363 59.2567C196.529 59.2567 195.854 58.5727 195.854 57.7287C195.854 56.8851 196.529 56.2012 197.363 56.2012C198.196 56.2012 198.872 56.8851 198.872 57.7287Z" fill="#0A5840"/>
<path d="M229.917 203.361C246.035 203.361 259.101 201.585 259.101 199.393C259.101 197.202 246.035 195.426 229.917 195.426C213.799 195.426 200.732 197.202 200.732 199.393C200.732 201.585 213.799 203.361 229.917 203.361Z" fill="#0A5840"/>
<path opacity="0.7" d="M229.917 203.361C246.035 203.361 259.101 201.585 259.101 199.393C259.101 197.202 246.035 195.426 229.917 195.426C213.799 195.426 200.732 197.202 200.732 199.393C200.732 201.585 213.799 203.361 229.917 203.361Z" fill="white"/>
<path d="M70.0156 203.361C84.8884 203.361 96.9453 201.585 96.9453 199.393C96.9453 197.202 84.8884 195.426 70.0156 195.426C55.1428 195.426 43.0859 197.202 43.0859 199.393C43.0859 201.585 55.1428 203.361 70.0156 203.361Z" fill="#0A5840"/>
<path opacity="0.7" d="M70.0156 203.361C84.8884 203.361 96.9453 201.585 96.9453 199.393C96.9453 197.202 84.8884 195.426 70.0156 195.426C55.1428 195.426 43.0859 197.202 43.0859 199.393C43.0859 201.585 55.1428 203.361 70.0156 203.361Z" fill="white"/>
<path d="M221.679 59.6216C221.679 59.6216 232.765 58.5332 233.399 60.4031C234.033 62.2735 233.813 66.544 233.813 66.544C233.813 66.544 235.274 66.9626 235.44 67.13C235.584 67.2764 237.228 68.3635 235.697 70.1474C235.304 70.6058 234.809 70.9606 234.271 71.2294C233.606 71.5611 232.565 72.1033 232.358 72.3426C231.924 72.8451 230.145 74.8896 230.145 74.8896L230.586 78.1835C230.586 78.1835 231.579 78.9094 232.792 81.4491C232.792 81.4491 235.66 83.1517 237.342 84.1289C239.024 85.106 241.644 85.9992 241.644 85.9992C241.644 85.9992 242.417 86.2504 242.362 86.8086C242.307 87.3667 238.528 100.095 238.528 100.095L236.543 106.515C236.543 106.515 236.515 107.52 236.239 108.86C235.955 110.242 234.888 111.149 233.785 110.87L233.896 115.559C233.896 115.559 228.711 118.183 220.162 117.737C220.162 117.737 216.136 117.346 213.157 115.113L213.102 104.115L199.368 101.435C199.368 101.435 197.631 101.064 198.541 99.4816C199.472 97.8625 202.429 93.969 202.429 93.969L212.068 82.0364C212.068 82.0364 212.73 81.2407 212.978 80.9895C213.226 80.7382 213.806 80.5709 216.204 80.3616C218.604 80.1523 221.251 79.6918 221.251 79.6918C221.251 79.6918 222.699 78.4356 222.906 78.4356C223.113 78.4356 223.154 76.5515 223.154 76.5515C223.154 76.5515 220.796 75.0022 220.589 71.9458C220.383 68.8895 221.706 61.7299 221.706 61.7299L221.679 59.6216Z" fill="white"/>
<path d="M213.308 115.078C213.308 115.078 212.143 132.637 212.143 141.024C212.143 149.41 212.661 156.224 212.919 162.121C213.178 168.017 212.143 172.08 213.049 176.404C213.955 180.728 216.027 193.308 216.027 193.308L218.469 194.801C218.469 194.801 218.875 184.791 219.781 181.252C220.687 177.714 220.946 162.776 221.464 158.19C221.982 153.603 223.665 137.355 223.665 137.355C223.665 137.355 230.138 154.389 231.692 161.073C233.245 167.756 238.553 182.825 239.718 186.494C240.883 190.163 242.711 195.594 242.711 195.594C242.711 195.594 243.488 195.856 244.394 195.725C245.3 195.594 245.559 194.939 245.559 194.939C245.559 194.939 243.84 183.964 243.084 178.632C242.149 172.034 240.624 162.121 239.718 158.452C238.812 154.783 237.388 149.017 237.388 146.266C237.388 143.514 233.892 115.865 233.892 115.865C233.892 115.865 221.723 121.237 213.308 115.078Z" fill="#263238"/>
<path d="M223.666 137.355L218.473 131.227" stroke="white" stroke-width="0.5303" stroke-miterlimit="10" stroke-linecap="round"/>
<path d="M217.146 131.674L221.42 135.7" stroke="white" stroke-width="0.5303" stroke-miterlimit="10" stroke-linecap="round"/>
<path d="M226.281 132.121C226.281 132.121 227.755 127.796 232.028 125.559" stroke="white" stroke-width="0.5303" stroke-miterlimit="10" stroke-linecap="round"/>
<path d="M232.323 117.355C232.323 117.355 231.733 119.593 232.47 120.935C233.207 122.277 233.943 122.277 233.943 122.277C233.943 122.277 235.269 129.585 235.269 133.761C235.269 137.937 234.385 138.384 235.269 143.007C236.154 147.63 236.743 149.122 236.743 151.806C236.743 154.491 237.922 156.281 238.953 157.921C239.985 159.562 240.279 164.334 240.279 166.273C240.279 168.212 240.869 170.3 241.458 172.239C241.458 172.239 241.6 176.585 242.342 177.608C243.085 178.631 243.227 182.082 243.227 182.082" stroke="white" stroke-width="0.5303" stroke-miterlimit="10" stroke-linecap="round"/>
<path d="M222.599 136.744C222.599 136.744 222.893 140.174 221.862 146.14C220.831 152.105 220.094 153.746 219.946 160.607C219.799 167.467 220.389 168.661 220.094 172.24C219.799 175.819 218.031 181.486 218.031 184.022C218.031 186.557 218.303 194.801 218.303 194.801" stroke="white" stroke-width="0.5303" stroke-miterlimit="10" stroke-linecap="round"/>
<path d="M219.355 118.252L219.65 119.445L221.566 119.892L221.271 118.401" stroke="white" stroke-width="0.5303" stroke-miterlimit="10" stroke-linecap="round"/>
<path d="M221.566 119.892C221.566 119.892 225.103 119.743 226.871 119.146L226.429 117.953" stroke="white" stroke-width="0.5303" stroke-miterlimit="10" stroke-linecap="round"/>
<path d="M228.049 117.654L228.491 119.146C228.491 119.146 231.29 118.997 231.732 118.549" stroke="white" stroke-width="0.5303" stroke-miterlimit="10" stroke-linecap="round"/>
<path d="M219.651 119.443C219.651 119.443 218.178 119.443 216.851 118.698C215.525 117.952 215.525 117.952 215.525 117.952L215.967 116.908" stroke="white" stroke-width="0.5303" stroke-miterlimit="10" stroke-linecap="round"/>
<path d="M216.027 193.309C216.027 193.309 209.683 197.502 208.777 199.468C207.871 201.433 211.496 200.647 214.085 199.598C216.674 198.55 218.302 194.801 218.302 194.801L216.027 193.309Z" fill="white" stroke="#263238" stroke-width="1.0607" stroke-miterlimit="10" stroke-linecap="round"/>
<path d="M242.92 195.653C242.92 195.653 243.389 198.548 244.784 200.744C246.179 202.94 248.814 204.823 248.814 201.371C248.814 197.92 245.559 194.939 245.559 194.939C245.559 194.939 243.947 195.837 242.92 195.653Z" fill="white" stroke="#263238" stroke-width="1.0607" stroke-miterlimit="10" stroke-linecap="round"/>
<path d="M221.64 61.9922C221.64 61.9922 220.266 70.6288 220.734 72.7371C221.799 77.529 225.524 77.3236 227.855 76.4064C230.03 75.5504 232.205 72.5253 232.485 72.1259C232.505 72.0973 232.53 72.0784 232.564 72.0686C232.912 71.9659 235.06 71.2755 236.011 69.5926C237.046 67.7582 235.104 66.972 235.104 66.972" fill="white"/>
<mask id="mask0_2340_7758" style="mask-type:luminance" maskUnits="userSpaceOnUse" x="220" y="61" width="17" height="16">
<path d="M221.64 61.9922C221.64 61.9922 220.266 70.6288 220.734 72.7371C221.799 77.529 225.524 77.3236 227.855 76.4064C230.03 75.5504 232.205 72.5253 232.485 72.1259C232.505 72.0973 232.53 72.0784 232.564 72.0686C232.912 71.9659 235.06 71.2755 236.011 69.5926C237.046 67.7582 235.104 66.972 235.104 66.972" fill="white"/>
</mask>
<g mask="url(#mask0_2340_7758)">
<path opacity="0.5" d="M230.464 74.3685L232.515 72.0825C232.515 72.0825 234.949 71.3275 236.011 69.5929C236.633 68.5768 236.287 67.6943 235.914 67.4426C235.541 67.1909 234.317 66.6936 234.317 66.6936L233.628 68.231L233.043 68.335C233.043 68.335 233.286 66.7501 232.577 65.8128C231.868 64.8754 231.707 62.1641 231.707 62.1641C231.707 62.1641 230.712 67.5744 230.588 69.839C230.463 72.1035 229.469 73.3618 229.469 73.3618C229.469 73.3618 229.593 74.746 229.842 76.1297C229.87 76.2893 229.899 76.5354 229.927 76.8406L230.268 76.2915L230.452 76.8136C230.239 75.9238 230.141 74.9685 230.464 74.3685Z" fill="#0A5840"/>
</g>
<path d="M221.64 61.9922C221.64 61.9922 220.266 70.6288 220.734 72.7371C221.799 77.529 225.524 77.3236 227.855 76.4064C230.03 75.5504 232.205 72.5253 232.485 72.1259C232.505 72.0973 232.53 72.0784 232.564 72.0686C232.912 71.9659 235.06 71.2755 236.011 69.5926C237.046 67.7582 235.104 66.972 235.104 66.972" stroke="#263238" stroke-width="1.0607" stroke-miterlimit="10" stroke-linecap="round"/>
<path d="M226.901 66.3795C226.82 66.7194 226.891 67.0275 227.058 67.0682C227.226 67.1088 227.427 66.8666 227.508 66.5272C227.589 66.1878 227.517 65.8792 227.35 65.8385C227.183 65.7974 226.981 66.0397 226.901 66.3795Z" fill="#263238"/>
<path d="M223.264 65.479C223.183 65.8189 223.254 66.127 223.422 66.1677C223.59 66.2084 223.791 65.9661 223.871 65.6267C223.952 65.2873 223.881 64.9787 223.714 64.938C223.546 64.8974 223.344 65.1396 223.264 65.479Z" fill="#263238"/>
<path d="M229.155 64.8797C229.155 64.8797 228.612 63.7515 227.188 63.6445" stroke="#263238" stroke-width="1.0607" stroke-miterlimit="10" stroke-linecap="round"/>
<path d="M224.408 63.7064C224.408 63.7064 223.373 63.1756 222.41 64.0997" stroke="#263238" stroke-width="1.0607" stroke-miterlimit="10" stroke-linecap="round"/>
<path d="M224.652 65.2656C224.652 65.2656 224.668 66.2633 224.526 66.9772C224.384 67.6911 223.837 67.8311 223.975 68.3853C224.114 68.9391 224.826 68.9926 224.826 68.9926" stroke="#263238" stroke-width="1.0607" stroke-miterlimit="10" stroke-linecap="round"/>
<path d="M225.557 71.2205C225.557 71.2205 226.605 71.5711 227.363 70.9941" stroke="#263238" stroke-width="1.0607" stroke-miterlimit="10" stroke-linecap="round"/>
<path d="M232.256 55.9643C232.256 55.9643 229.408 53.4746 226.689 53.4746C223.971 53.4746 221.77 55.0471 220.087 55.178C218.404 55.309 217.238 53.7365 216.203 55.8333C215.167 57.9301 219.051 61.4679 221.64 61.9922C224.229 62.5165 227.855 61.7303 228.89 61.5993C229.926 61.4684 231.868 61.5993 231.868 61.5993C231.868 61.5993 231.091 64.089 231.868 64.8752C232.645 65.6615 232.774 66.1858 232.774 66.7097C232.774 67.234 233.033 68.4131 233.033 68.4131L233.81 68.675L234.198 67.2335C234.198 67.2335 235.881 65.5301 236.27 63.1714C236.658 60.8127 234.716 58.454 234.716 58.454L232.256 55.9643Z" fill="#263238"/>
<path d="M221.354 60.9264C221.354 60.9264 225.779 61.7738 229.247 60.3212C232.716 58.8686 229.726 55.9629 229.726 55.9629" stroke="white" stroke-width="0.5303" stroke-miterlimit="10" stroke-linecap="round"/>
<path d="M230.443 55.7207C230.802 55.7207 233.792 58.0208 233.194 59.7157C232.597 61.4105 231.4 61.5317 231.4 61.5317" stroke="white" stroke-width="0.5303" stroke-miterlimit="10" stroke-linecap="round"/>
<path d="M229.966 107.708L226.237 105.695C226.237 105.695 224.248 105.569 223.378 105.318C222.508 105.066 213.567 104.201 213.567 104.201L213.434 106.324C213.434 106.324 223.627 107.709 225.74 107.96C227.853 108.212 229.718 109.218 230.091 109.847C230.464 110.476 231.21 111.105 230.837 112.866C230.464 114.628 227.978 117.144 227.978 117.144C227.86 116.966 233.96 116.524 233.894 115.863C233.763 114.554 233.074 110.728 233.074 110.728L229.966 107.708Z" fill="#0A5840"/>
<path opacity="0.5" d="M229.966 107.708L226.237 105.695C226.237 105.695 224.248 105.569 223.378 105.318C222.508 105.066 213.567 104.201 213.567 104.201L213.434 106.324C213.434 106.324 223.627 107.709 225.74 107.96C227.853 108.212 229.718 109.218 230.091 109.847C230.464 110.476 231.21 111.105 230.837 112.866C230.464 114.628 227.978 117.144 227.978 117.144C227.883 116.956 233.971 116.517 233.894 115.863C233.696 114.192 233.074 110.728 233.074 110.728L229.966 107.708Z" fill="white"/>
<path d="M242.309 86.774C241.979 85.2045 239.518 85.4147 238.036 84.5463C236.555 83.6783 232.95 81.665 232.95 81.665L231.21 79.0229C231.21 79.0229 230.732 77.9739 230.453 76.8132L230.269 76.291L229.928 76.8401C230.145 79.1834 230.34 85.1878 230.34 85.1878L231.086 88.9624C231.086 88.9624 233.944 101.418 234.69 104.186C235.436 106.954 235.436 108.842 234.939 109.723C234.442 110.603 234.608 110.99 234.608 110.99C234.608 110.99 236.552 109.471 236.43 107.961C236.289 106.206 242.531 87.8329 242.309 86.774Z" fill="#0A5840"/>
<path opacity="0.5" d="M242.309 86.774C242.14 85.1784 239.518 85.4147 238.036 84.5463C236.555 83.6783 232.95 81.665 232.95 81.665L231.21 79.0229C231.21 79.0229 230.732 77.9739 230.453 76.8132L230.269 76.291L229.928 76.8401C230.145 79.1834 230.34 85.1878 230.34 85.1878L231.086 88.9624C231.086 88.9624 233.944 101.418 234.69 104.186C235.436 106.954 235.436 108.842 234.939 109.723C234.442 110.603 234.608 110.99 234.608 110.99C234.608 110.99 236.604 109.466 236.43 107.961C236.246 106.368 242.448 88.094 242.309 86.774Z" fill="white"/>
<path d="M231.434 85.2012C231.434 85.2012 230.657 78.1251 230.269 76.2907C229.881 74.4563 230.139 73.4077 228.456 73.4077C226.773 73.4077 224.702 73.1457 225.091 74.0629C225.479 74.9801 228.068 74.1939 228.456 74.5872C228.845 74.9806 228.586 75.8978 228.586 75.8978C228.586 75.8978 225.22 76.1597 225.22 77.0769C225.22 77.9941 225.349 80.4838 225.997 80.7461C226.644 81.0081 226.903 79.5666 226.903 79.5666C226.903 79.5666 227.032 82.5806 227.68 83.6287C228.327 84.6773 229.104 85.4631 229.104 85.4631L231.434 85.2012Z" fill="white" stroke="#263238" stroke-width="1.0607" stroke-miterlimit="10" stroke-linecap="round"/>
<path d="M229.102 87.1678C229.102 87.1678 228.713 103.416 229.361 106.038C230.008 108.658 233.504 112.196 235.316 110.493C237.128 108.789 236.222 105.12 236.222 103.416C236.222 101.713 232.079 89.1332 232.079 88.216C232.079 87.2988 231.561 85.9883 231.561 85.9883" stroke="#263238" stroke-width="1.0607" stroke-miterlimit="10" stroke-linecap="round"/>
<path d="M229.361 89.133L231.951 88.8711" stroke="#263238" stroke-width="1.0607" stroke-miterlimit="10" stroke-linecap="round"/>
<path d="M212.813 97.266L213.31 82.797C213.31 82.797 212.688 82.4195 212.44 83.8037C212.191 85.1878 212.067 87.9557 212.067 87.9557C212.067 87.9557 209.084 86.0682 209.829 87.2007C210.575 88.3332 211.818 90.8494 211.818 90.8494L207.219 95.5048L209.332 96.3856L212.813 97.266Z" fill="#0A5840"/>
<path opacity="0.5" d="M212.813 97.266L213.31 82.797C213.31 82.797 212.688 82.4195 212.44 83.8037C212.191 85.1878 212.067 87.9557 212.067 87.9557C212.067 87.9557 209.084 86.0682 209.829 87.2007C210.575 88.3332 211.818 90.8494 211.818 90.8494L207.219 95.5048L209.332 96.3856L212.813 97.266Z" fill="white"/>
<path d="M219.001 86.0152C219.001 86.0152 218.765 86.8614 219.759 86.8614C220.753 86.8614 222.496 86.1462 222.496 86.1462L222.369 84.7227C222.369 84.7227 219.983 85.9241 219.001 86.0152Z" fill="#0A5840"/>
<path opacity="0.5" d="M219.001 86.0152C219.001 86.0152 218.765 86.8614 219.759 86.8614C220.753 86.8614 222.496 86.1462 222.496 86.1462L222.369 84.7227C222.369 84.7227 219.983 85.9241 219.001 86.0152Z" fill="white"/>
<path d="M223.278 76.4551C223.278 76.4551 221.983 84.1527 222.76 85.8561C223.537 87.5595 224.702 87.1666 225.608 86.38C226.514 85.5937 227.68 83.6284 227.68 83.6284" stroke="#263238" stroke-width="1.0607" stroke-miterlimit="10" stroke-linecap="round"/>
<path d="M213.049 104.332L213.308 115.077C213.308 115.077 216.285 117.96 221.982 117.96C227.678 117.96 233.892 115.863 233.892 115.863V112.063" stroke="#263238" stroke-width="1.0607" stroke-miterlimit="10" stroke-linecap="round"/>
<path d="M230.527 77.9941C230.527 77.9941 232.858 80.3529 232.858 82.5806C232.858 84.8083 232.469 85.3322 232.469 85.3322" stroke="#263238" stroke-width="1.0607" stroke-miterlimit="10" stroke-linecap="round"/>
<path d="M232.598 81.2695C232.598 81.2695 236.093 83.3663 238.035 84.5454C239.977 85.725 242.307 85.725 242.307 86.7732C242.307 87.8214 236.87 105.642 236.87 105.642" stroke="#263238" stroke-width="1.0607" stroke-miterlimit="10" stroke-linecap="round"/>
<path d="M234.799 87.166L233.504 92.4073" stroke="#263238" stroke-width="1.0607" stroke-miterlimit="10" stroke-linecap="round"/>
<path d="M213.08 90.243L210.99 85.8008" stroke="#263238" stroke-width="0.5303" stroke-miterlimit="10" stroke-linecap="round"/>
<path d="M213.08 91.5131L209.945 89.6094" stroke="#263238" stroke-width="0.5303" stroke-miterlimit="10" stroke-linecap="round"/>
<path d="M223.32 101.453L222.693 104.626" stroke="#263238" stroke-width="0.5303" stroke-miterlimit="10" stroke-linecap="round"/>
<path d="M240.248 86.6484C240.248 86.6484 237.113 87.2832 234.188 90.8788" stroke="#263238" stroke-width="0.5303" stroke-miterlimit="10" stroke-linecap="round"/>
<path d="M238.158 86.436C238.158 86.436 237.322 86.2245 234.396 88.7626" stroke="#263238" stroke-width="0.5303" stroke-miterlimit="10" stroke-linecap="round"/>
<path d="M223.32 87.4941L222.066 97.4353L223.111 97.6472L223.947 94.4744" stroke="#263238" stroke-width="0.5303" stroke-miterlimit="10" stroke-linecap="round"/>
<path d="M224.156 113.51C220.394 116.683 215.17 116.471 215.17 116.471" stroke="#263238" stroke-width="0.5303" stroke-miterlimit="10" stroke-linecap="round"/>
<path d="M208.254 96.2477C208.254 96.2477 205.697 93.8744 202.072 96.8948" stroke="#263238" stroke-width="0.5303" stroke-miterlimit="10" stroke-linecap="round"/>
<path d="M223.017 78.3867C223.017 78.3867 221.981 78.6487 220.816 80.4835C219.651 82.3179 218.227 85.4628 219.263 85.7248C220.298 85.9867 222.24 84.8076 222.24 84.8076" stroke="#263238" stroke-width="1.0607" stroke-miterlimit="10" stroke-linecap="round"/>
<path d="M227.031 85.332L228.326 86.5116" stroke="#263238" stroke-width="1.0607" stroke-miterlimit="10" stroke-linecap="round"/>
<path d="M221.205 79.6973C221.205 79.6973 216.415 80.3525 214.474 80.4835C212.531 80.6145 212.909 81.3433 212.273 81.794C211.25 82.5182 199.513 97.5795 198.737 99.021C197.96 100.463 198.089 101.118 199.384 101.511C200.679 101.904 213.567 104.202 213.567 104.202L224.96 105.381L225.866 102.498C225.866 102.498 228.511 102.849 228.976 102.849" stroke="#263238" stroke-width="1.0607" stroke-miterlimit="10" stroke-linecap="round"/>
<path d="M224.572 101.45C224.572 101.45 220.818 100.401 217.322 98.4355" stroke="#263238" stroke-width="1.0607" stroke-miterlimit="10" stroke-linecap="round"/>
<path d="M216.287 98.1742C216.287 98.1742 212.494 96.746 210.423 96.4836C208.351 96.2217 205.211 96.1387 205.211 96.1387" stroke="#263238" stroke-width="1.0607" stroke-miterlimit="10" stroke-linecap="round"/>
<path d="M212.791 96.4707L213.18 86.1191" stroke="#263238" stroke-width="1.0607" stroke-miterlimit="10" stroke-linecap="round"/>
<path d="M224.961 105.381C224.961 105.381 226.807 106.301 227.737 106.458" stroke="#263238" stroke-width="1.0607" stroke-miterlimit="10" stroke-linecap="round"/>
<path d="M55.5343 97.0415L57.0609 88.6027L66.7215 84.7652C66.7215 84.7652 67.1925 82.1429 67.6636 82.0239C68.1346 81.9045 68.6057 80.8319 68.6057 80.8319L68.3719 78.6684C68.3719 78.6684 69.2561 75.2294 73.6999 77.9116C73.6999 77.9116 72.3535 78.8216 72.5886 79.1794C72.8241 79.5368 72.3277 80.7561 72.9167 80.7561C73.5054 80.7561 74.6936 81.5111 75.2949 82.1257C75.8962 82.7403 76.4019 83.6199 76.4019 83.6199L81.4039 83.9105C81.4039 83.9105 82.3904 83.9233 82.9211 84.1181C83.0061 81.646 82.7084 79.758 82.113 78.2909C79.9632 72.9926 76.037 71.1005 75.4763 68.4511C74.9156 65.8018 75.1959 65.5181 75.1959 65.5181C75.1959 65.5181 77.0654 63.815 76.5047 60.9765C75.944 58.1381 73.7937 56.1513 66.0356 55.7729C58.277 55.3946 59.3988 60.7874 59.3988 60.7874L59.4923 61.1657C59.4923 61.1657 54.5381 62.8687 55.473 69.2078C56.408 75.5469 59.1185 78.2904 59.025 80.2776C58.9316 82.2644 56.0337 83.0215 51.921 87.5626C47.8083 92.1041 46.9668 98.9162 48.6494 103.364C49.4765 105.55 51.1506 107.373 53.2251 108.735L55.5343 97.0415Z" fill="#263238"/>
<path d="M62.0109 97.875V99.7822L58.4297 110.985C60.7829 111.57 63.1987 111.65 65.2753 111.129C66.5515 110.808 67.7566 110.257 68.895 109.567L62.0109 97.875Z" fill="#263238"/>
<path d="M72.2901 79.1049L72.7037 81.0309C72.7037 81.0309 73.9655 79.7538 76.4472 83.6477C76.4472 83.6477 81.5972 83.5219 83.004 84.2341C83.004 84.2341 83.2937 84.318 84.2451 85.3435C85.1965 86.3694 88.7748 89.614 88.7748 89.614C88.7748 89.614 93.3666 93.9266 93.8216 94.2617C94.2766 94.5968 95.9934 96.2506 97.2759 96.8365L100.709 88.9233L102.24 85.0083L103.067 81.7842H103.336L103.398 79.1884L103.191 76.0901C103.191 76.0901 103.233 75.8389 103.398 75.6505C103.563 75.4622 104.205 74.3109 104.205 74.0177C104.205 73.7245 103.915 72.0078 103.915 72.0078C103.915 72.0078 103.771 71.5683 104.081 71.5263C104.391 71.4844 105.549 71.882 105.694 72.6986L106.107 72.5522C106.107 72.5522 106.728 71.0448 107.41 70.1447C108.093 69.2447 108.796 68.6793 109.23 68.9725C109.665 69.2656 109.437 69.7471 109.437 69.7471L108.072 72.28C108.072 72.28 107.472 73.0967 108.217 73.3894C108.217 73.3894 109.83 74.4363 109.934 75.3574C110.037 76.2784 109.458 77.0531 108.941 77.7439C108.424 78.4347 107.514 79.9002 107.514 79.9002L106.459 80.8422L106.024 82.475L106.521 83.1029L105.776 86.3685L105.238 88.818L104.969 90.3044L103.273 96.1663L101.598 101.274C101.598 101.274 100.729 104.205 98.6193 104.122C96.5097 104.038 94.1932 102.886 93.4486 102.51C92.7039 102.133 86.5818 98.846 86.5818 98.846L85.3306 98.2387C85.3306 98.2387 85.5687 98.9085 85.5479 100.039C85.5272 101.17 84.3276 103.661 83.9762 104.226L83.7694 108.644C83.7694 108.644 83.6248 109.795 83.8108 110.946C83.9969 112.098 84.9483 118.608 85.1551 119.425C85.1551 119.425 83.1004 121.309 76.9783 122.202C70.8562 123.096 67.9879 121.644 67.9879 121.644L65.258 120.025L68.6222 113.298C68.6222 113.298 69.4489 111.299 69.3808 110.772C69.3119 110.242 67.8501 107.981 67.8501 107.981L62.5276 98.4484L62.2794 98.5323L61.4523 101.324L58.4737 110.786L54.5576 122.594C54.5576 122.594 53.4823 125.58 53.0408 126.473L51.7997 130.298C51.7997 130.298 51.9376 131.609 52.2961 132.279L49.1797 130.242L49.7311 127.255L50.4203 122.789L51.2754 117.932L52.02 113.912L53.2057 108.553L53.6193 107.074L54.4468 102.887L55.9361 95.2945L57.2047 88.7906L66.0847 85.2176L66.6361 84.799C66.6361 84.799 66.8289 83.4033 67.5186 82.4823C68.2078 81.5612 68.6353 81.2539 68.6353 81.2539C68.6353 81.2539 68.5939 80.6958 68.5664 80.1655C68.5389 79.6352 68.4011 78.6581 68.4011 78.6581C68.4011 78.6581 71.1598 79.8308 72.2901 79.1049Z" fill="white"/>
<path d="M60.4121 61.9051C60.4121 61.9051 62.0566 58.2188 65.346 58.2188C68.6354 58.2188 75.4493 64.7586 75.4493 64.7586" stroke="white" stroke-width="0.5303" stroke-miterlimit="10" stroke-linecap="round"/>
<path d="M61.8223 62.5002C61.8223 62.5002 63.8194 60.3598 66.2864 61.1923C68.7533 62.0247 69.106 64.9972 69.106 64.9972" stroke="white" stroke-width="0.5303" stroke-miterlimit="10" stroke-linecap="round"/>
<path d="M60.1763 62.8574C60.1763 62.8574 57.2396 64.5223 57.0044 67.6138C56.7698 70.7052 61.1163 74.3916 61.7037 78.553C62.291 82.7149 59.2367 83.6663 54.3024 87.1143C49.3685 90.5627 50.1905 98.2915 51.2481 99.9565" stroke="white" stroke-width="0.5303" stroke-miterlimit="10" stroke-linecap="round"/>
<path d="M51.8359 100.906C51.8359 100.906 52.5408 102.452 53.598 102.928" stroke="white" stroke-width="0.5303" stroke-miterlimit="10" stroke-linecap="round"/>
<path d="M60.5294 70.9434C60.5294 70.9434 60.0597 71.7758 60.647 72.8458C61.2344 73.9158 65.6984 79.2667 65.3462 81.7641C64.994 84.261 62.6442 85.8069 62.6442 85.8069" stroke="white" stroke-width="0.5303" stroke-miterlimit="10" stroke-linecap="round"/>
<path d="M62.7621 62.8574C62.7621 62.8574 60.06 64.0464 60.1776 66.7813C60.2951 69.5162 60.8825 70.2297 60.8825 70.2297" stroke="white" stroke-width="0.5303" stroke-miterlimit="10" stroke-linecap="round"/>
<path d="M75.4492 71.8926C75.4492 71.8926 76.7415 74.984 78.8562 77.1244C80.9709 79.2649 81.206 82.3563 81.206 82.3563" stroke="white" stroke-width="0.5303" stroke-miterlimit="10" stroke-linecap="round"/>
<path d="M77.916 78.6719C77.916 78.6719 78.9732 81.1688 78.9732 82.7148" stroke="white" stroke-width="0.5303" stroke-miterlimit="10" stroke-linecap="round"/>
<path d="M72.0661 79.3346L68.7458 82.3601C68.7458 82.3601 68.3919 83.2791 67.7238 84.7441C67.0557 86.2091 67.1669 89.0262 67.1669 89.0262L69.2131 93.1457C69.2131 93.1457 65.2742 88.5756 65.0518 88.0119C64.8289 87.4482 60.7094 88.4626 59.9301 88.8007C59.1508 89.1388 58.1486 89.815 58.3715 90.8294C58.5943 91.8438 59.5961 93.1958 59.1508 93.4214C58.7055 93.6469 57.4809 93.0832 57.4809 93.7595C57.4809 94.4357 58.9284 97.0277 58.2602 97.9291C57.5921 98.8309 53.3614 113.368 53.3614 113.368C53.3614 113.368 56.0335 111.114 55.3658 112.015C54.6977 112.917 51.4687 120.242 51.4687 120.242L50.2441 124.524L53.139 109.31L55.5886 96.4636L57.0619 88.6042C58.4831 88.1244 66.7225 84.7668 66.7225 84.7668C66.7225 84.7668 67.3728 81.9946 68.6063 80.8335L68.3725 78.6699C68.3725 78.6699 70.6187 79.4472 72.0661 79.3346Z" fill="#0A5840"/>
<path opacity="0.5" d="M72.0661 79.3346L68.7458 82.3601C68.7458 82.3601 68.3919 83.2791 67.7238 84.7441C67.0557 86.2091 67.1669 89.0262 67.1669 89.0262L69.2131 93.1457C69.2131 93.1457 65.2742 88.5756 65.0518 88.0119C64.8289 87.4482 60.7094 88.4626 59.9301 88.8007C59.1508 89.1388 58.1486 89.815 58.3715 90.8294C58.5943 91.8438 59.5961 93.1958 59.1508 93.4214C58.7055 93.6469 57.4809 93.0832 57.4809 93.7595C57.4809 94.4357 58.9284 97.0277 58.2602 97.9291C57.5921 98.8309 53.3614 113.368 53.3614 113.368C53.3614 113.368 56.0335 111.114 55.3658 112.015C54.6977 112.917 51.4687 120.242 51.4687 120.242L50.2441 124.524L53.139 109.31L55.5886 96.4636L57.0619 88.6042C58.4831 88.1244 66.7225 84.7668 66.7225 84.7668C66.7225 84.7668 66.8992 82.2189 68.6088 81.2978L68.3725 78.6699C68.3725 78.6699 70.6187 79.4472 72.0661 79.3346Z" fill="white"/>
<path d="M84.4238 94.5472C84.4238 94.5472 86.4277 91.1664 86.6506 91.9552C86.8734 92.744 86.0937 95.4486 86.0937 95.4486C86.0937 95.4486 88.2092 94.6598 87.9864 95.336C87.7635 96.0123 87.3183 96.3504 87.4299 96.6885C87.5411 97.0266 94.7783 100.858 95.6689 101.309C96.5598 101.759 98.675 99.1675 99.6771 99.9563C100.679 100.745 99.6805 103.442 97.6732 103.45C95.6659 103.457 89.8795 100.858 89.8795 100.858L85.3228 98.1724" fill="#0A5840"/>
<path opacity="0.5" d="M84.4238 94.5472C84.4238 94.5472 86.4277 91.1664 86.6506 91.9552C86.8734 92.744 86.0937 95.4486 86.0937 95.4486C86.0937 95.4486 88.2092 94.6598 87.9864 95.336C87.7635 96.0123 87.3183 96.3504 87.4299 96.6885C87.5411 97.0266 94.7783 100.858 95.6689 101.309C96.5598 101.759 98.675 99.1675 99.6771 99.9563C100.679 100.745 99.6805 103.442 97.6732 103.45C95.6659 103.457 89.8795 100.858 89.8795 100.858L85.3402 98.1835" fill="white"/>
<path d="M72.4004 108.183C72.4004 108.183 85.4269 101.196 83.3118 103.788C81.1962 106.379 74.1819 109.309 72.4004 108.183Z" fill="#0A5840"/>
<path opacity="0.5" d="M72.4004 108.183C72.4004 108.183 85.4269 101.196 83.3118 103.788C81.1962 106.379 74.1819 109.309 72.4004 108.183Z" fill="white"/>
<path d="M68.3711 78.6699C68.3711 78.6699 68.4645 80.4675 68.7449 82.3597C69.0253 84.2519 68.9318 84.2519 70.7078 86.5224C72.4838 88.793 74.3533 90.6856 74.6336 90.3068" stroke="#263238" stroke-width="1.0607" stroke-miterlimit="10" stroke-linecap="round"/>
<path d="M74.7276 89.6436C74.7276 89.6436 74.9145 86.3321 74.2604 84.1562C73.6062 81.9802 72.6713 81.2231 72.6713 80.7502C72.6713 80.2772 72.4844 79.2363 72.4844 79.2363" stroke="#263238" stroke-width="1.0607" stroke-miterlimit="10" stroke-linecap="round"/>
<path d="M68.3708 81.4121C68.3708 81.4121 67.1555 82.453 66.8752 83.9668C66.5948 85.4807 66.3145 87.2783 66.3145 87.2783L69.2123 93.144C69.2123 93.144 69.6795 91.2518 70.3341 90.2109C70.9883 89.17 71.2691 88.9809 71.2691 88.9809" stroke="#263238" stroke-width="1.0607" stroke-miterlimit="10" stroke-linecap="round"/>
<path d="M75.3821 88.0366C75.3821 88.0366 75.8493 87.8474 76.5973 88.2258C77.345 88.6042 78.8406 90.5909 78.8406 90.5909C78.8406 90.5909 77.8122 85.6711 76.0362 83.1163C74.2602 80.5616 73.0449 80.7512 73.0449 80.7512" stroke="#263238" stroke-width="1.0607" stroke-miterlimit="10" stroke-linecap="round"/>
<path d="M66.0348 85.1035L57.0613 88.6041C57.0613 88.6041 53.7897 106.675 52.5744 111.5C51.3591 116.326 49.3027 129.95 49.3027 129.95L51.7333 130.423L52.5744 127.963" stroke="#263238" stroke-miterlimit="10" stroke-linecap="round" stroke-linejoin="round"/>
<path d="M53.041 126.543C53.041 126.543 53.6017 125.691 55.0974 120.961C56.593 116.23 60.6123 104.688 61.2669 102.417C61.921 100.147 62.4821 98.6328 62.4821 98.6328" stroke="#263238" stroke-width="1.0607" stroke-miterlimit="10" stroke-linecap="round"/>
<path d="M60.8926 95.8887C60.8926 95.8887 68.4643 109.607 69.1184 110.175C69.7726 110.742 68.8381 112.351 68.6512 113.203" stroke="#263238" stroke-width="1.0607" stroke-miterlimit="10" stroke-linecap="round"/>
<path d="M67.811 114.907L65.3809 120.016C65.3809 120.016 66.97 122.475 73.7002 122.475C80.4304 122.475 85.1976 119.637 85.1976 119.637C85.1976 119.637 83.6085 111.122 83.702 109.608C83.7954 108.094 83.9823 104.121 83.9823 104.121C83.9823 104.121 85.6649 101.566 85.478 99.5791C85.2911 97.5923 84.4496 95.3218 84.4496 94.943C84.4496 94.5647 84.2627 90.4961 84.2627 90.4961" stroke="#263238" stroke-width="1.0607" stroke-miterlimit="10" stroke-linecap="round"/>
<path d="M73.6875 106.496L80.3839 102.334" stroke="#263238" stroke-width="0.5303" stroke-miterlimit="10" stroke-linecap="round"/>
<path d="M77.2109 105.187L80.8526 103.047" stroke="#263238" stroke-width="0.5303" stroke-miterlimit="10" stroke-linecap="round"/>
<path d="M97.2556 96.9297L95.8906 100.313" stroke="#263238" stroke-width="0.5303" stroke-miterlimit="10" stroke-linecap="round"/>
<path d="M96.7122 98.4102L95.4199 99.7181" stroke="#263238" stroke-width="0.5303" stroke-miterlimit="10" stroke-linecap="round"/>
<path d="M58.5326 110.42C58.5326 110.42 56.3004 113.036 54.7734 114.106" stroke="#263238" stroke-width="0.5303" stroke-miterlimit="10" stroke-linecap="round"/>
<path d="M57.2402 111.133C57.2402 111.133 53.3634 114.224 52.4238 114.938" stroke="#263238" stroke-width="0.5303" stroke-miterlimit="10" stroke-linecap="round"/>
<path d="M57.9453 89.1348C57.9453 89.1348 60.1771 92.3452 61.1172 94.3666" stroke="#263238" stroke-width="0.5303" stroke-miterlimit="10" stroke-linecap="round"/>
<path d="M61.4688 95.1992L62.2912 96.6262" stroke="#263238" stroke-width="0.5303" stroke-miterlimit="10" stroke-linecap="round"/>
<path d="M84.4492 94.9427L85.4772 89.6445" stroke="#263238" stroke-width="0.5303" stroke-miterlimit="10" stroke-linecap="round"/>
<path d="M84.8242 95.3213L86.4133 93.0508" stroke="#263238" stroke-width="0.5303" stroke-miterlimit="10" stroke-linecap="round"/>
<path d="M62.4826 98.632L57.9961 96.1719" stroke="#263238" stroke-width="0.5303" stroke-miterlimit="10" stroke-linecap="round"/>
<path d="M74.541 90.7793C74.541 90.7793 76.2236 94.1853 76.7843 96.6455" stroke="#263238" stroke-width="0.5303" stroke-miterlimit="10" stroke-linecap="round"/>
<path d="M102.303 84.8187C102.303 84.8187 103.758 84.6651 104.771 85.6906" stroke="#263238" stroke-width="0.5303" stroke-miterlimit="10" stroke-linecap="round"/>
<path d="M50.9297 127.588L52.0879 128.027" stroke="#263238" stroke-width="0.5303" stroke-miterlimit="10" stroke-linecap="round"/>
<path d="M49.2761 130.09C49.2761 130.09 49.3027 132.978 49.0224 134.964C48.742 136.951 48.8355 141.493 49.2093 142.912C49.5831 144.331 49.77 144.615 50.1442 143.763C50.518 142.912 51.6399 137.897 51.6399 137.897C51.6399 137.897 51.8268 141.208 52.6683 140.925C53.5097 140.641 53.0421 139.032 53.0421 137.613C53.0421 136.194 53.1355 135.721 53.0421 134.586C52.9486 133.45 51.7033 130.648 51.7033 130.648" fill="white"/>
<path d="M49.2761 130.09C49.2761 130.09 49.3027 132.978 49.0224 134.964C48.742 136.951 48.8355 141.493 49.2093 142.912C49.5831 144.331 49.77 144.615 50.1442 143.763C50.518 142.912 51.6399 137.897 51.6399 137.897C51.6399 137.897 51.8268 141.208 52.6683 140.925C53.5097 140.641 53.0421 139.032 53.0421 137.613C53.0421 136.194 53.1355 135.721 53.0421 134.586C52.9486 133.45 51.7033 130.648 51.7033 130.648" stroke="#263238" stroke-miterlimit="10" stroke-linecap="round"/>
<path d="M103.39 81.7169C103.39 81.7169 103.313 79.9882 103.39 79.2028C103.468 78.417 103.157 77.2387 103.235 76.2171C103.313 75.1954 104.322 74.8025 104.167 73.4672C104.012 72.1314 103.701 71.9743 103.934 71.6601C104.167 71.346 105.642 71.8172 105.719 72.6818C105.797 73.5459 105.797 75.1175 105.719 75.3534C105.641 75.5892 106.185 77.082 105.874 77.7104C105.564 78.3391 105.486 78.8103 105.486 78.8103" stroke="#263238" stroke-width="0.8808" stroke-miterlimit="10" stroke-linecap="round"/>
<path d="M106.029 72.6017C106.029 72.6017 107.815 68.9873 108.824 68.9089C109.833 68.8302 109.523 69.7731 109.212 70.2447C108.902 70.7164 107.892 72.4446 107.815 73.1517C107.738 73.8588 106.806 76.2162 106.806 76.2162" stroke="#263238" stroke-width="0.8808" stroke-miterlimit="10" stroke-linecap="round"/>
<path d="M107.815 73.1523C107.815 73.1523 110.532 74.8023 109.912 76.1381C109.29 77.4739 108.98 78.0238 108.514 77.8668C108.048 77.7097 107.428 77.0026 107.428 77.0026" stroke="#263238" stroke-width="0.8808" stroke-miterlimit="10" stroke-linecap="round"/>
<path d="M108.824 77.8652C108.824 77.8652 108.125 79.0439 107.582 79.751C107.039 80.4581 106.485 80.8287 106.485 80.8287L106.158 81.9882" stroke="#263238" stroke-width="0.8808" stroke-miterlimit="10" stroke-linecap="round"/>
<path d="M76.2227 83.589C76.2227 83.589 82.6725 83.4944 83.5136 84.5353C84.3546 85.5762 94.5438 95.0372 95.7587 95.8889C96.974 96.7402 97.2543 96.9298 97.2543 96.9298C97.2543 96.9298 102.302 85.3871 102.302 84.8195C102.302 84.252 103.143 81.6973 103.143 81.6973C103.143 81.6973 104.732 81.8864 105.106 81.8864C105.48 81.8864 106.508 83.1165 106.508 83.1165C106.508 83.1165 105.106 88.8877 105.106 89.5502C105.106 90.2128 102.488 99.2008 101.274 101.944C100.058 104.688 98.3757 104.309 95.6652 103.458C92.9543 102.606 85.5699 98.349 85.5699 98.349" stroke="#263238" stroke-width="1.0607" stroke-miterlimit="10" stroke-linecap="round"/>
<path d="M65.3793 120.013C65.3793 120.013 61.6391 129.492 60.626 135.938C59.6128 142.384 60.0471 157.473 59.7574 159.085C59.4678 160.696 55.4151 168.314 55.4151 171.977C55.4151 175.639 53.2441 194.537 53.2441 194.537L54.6916 195.416C54.6916 195.416 59.7574 179.595 61.6391 175.493C63.5208 171.391 66.1261 161.722 66.8496 159.818C67.5731 157.913 72.6389 142.677 72.9286 140.773C73.2182 138.868 74.9549 134.18 74.9549 134.18C74.9549 134.18 78.7179 157.473 79.4418 162.308C80.1653 167.142 85.2312 193.365 85.2312 193.365C85.2312 193.365 85.8101 193.511 86.2443 193.511C86.6786 193.511 86.8232 192.779 86.8232 192.779C86.8232 192.779 88.8496 174.174 88.2707 169.193C87.6918 164.212 85.9547 158.059 85.9547 156.301C85.9547 154.543 88.5599 139.307 88.5599 134.034C88.5599 128.76 85.1956 119.635 85.1956 119.635C85.1956 119.635 73.1721 125.77 65.3793 120.013Z" fill="#263238"/>
<path d="M85.9039 157.268C85.9039 157.268 84.6117 162.856 82.8496 165.829" stroke="white" stroke-width="0.5303" stroke-miterlimit="10" stroke-linecap="round"/>
<path d="M85.5508 162.977C85.5508 162.977 84.4936 167.019 82.3789 168.922" stroke="white" stroke-width="0.5303" stroke-miterlimit="10" stroke-linecap="round"/>
<path d="M60.5273 161.191C60.5273 161.191 61.3498 166.067 62.2894 168.088" stroke="white" stroke-width="0.5303" stroke-miterlimit="10" stroke-linecap="round"/>
<path d="M60.293 164.045C60.293 164.045 60.9979 167.493 62.2901 169.515" stroke="white" stroke-width="0.5303" stroke-miterlimit="10" stroke-linecap="round"/>
<path d="M75.3301 134.199L80.0289 130.275" stroke="white" stroke-width="0.5303" stroke-miterlimit="10" stroke-linecap="round"/>
<path d="M77.5625 132.536L83.0842 130.039" stroke="white" stroke-width="0.5303" stroke-miterlimit="10" stroke-linecap="round"/>
<path d="M65.4629 125.877C65.4629 125.877 69.105 128.255 71.2192 130.276" stroke="white" stroke-width="0.5303" stroke-miterlimit="10" stroke-linecap="round"/>
<path d="M53.3992 194.525C53.3992 194.525 47.8906 199.226 47.8906 201.57C47.8906 203.914 50.0616 203.767 52.3776 201.57C54.6936 199.372 54.8158 194.849 54.8158 194.849L53.3992 194.525Z" fill="white" stroke="#263238" stroke-width="1.0607" stroke-miterlimit="10" stroke-linecap="round"/>
<path d="M85.2324 193.365C85.2324 193.365 87.1141 198.053 89.1405 200.104C91.1668 202.155 92.3246 202.888 92.3246 200.69C92.3246 198.493 91.0218 196.002 86.8245 192.779C86.8245 192.779 87.9827 193.658 85.2324 193.365Z" fill="white" stroke="#263238" stroke-width="1.0607" stroke-miterlimit="10" stroke-linecap="round"/>
<path d="M65.8117 63.6419C65.4392 63.4993 65.0806 63.3303 64.714 63.1728C64.33 63.0076 63.6754 62.9262 63.4183 64.0973C63.0445 65.8003 65.6616 67.2195 64.8205 68.6388C63.9791 70.058 62.5773 70.531 62.5773 70.531C62.5773 70.531 62.5045 70.575 62.11 70.6255C61.3624 70.7214 60.1471 70.6255 60.5209 71.9502C60.8947 73.2749 62.11 74.4099 62.8576 74.4099C63.6052 74.4099 63.6052 74.4099 63.6052 74.4099C63.6052 74.4099 64.4467 76.9646 67.6245 78.3835C70.8027 79.8027 72.9525 79.7081 73.7005 77.9105C74.4481 76.1129 75.0093 74.5991 75.0093 72.2335C75.0093 69.8684 74.1678 65.8944 74.1678 65.8944C74.1678 65.8944 73.4202 66.9353 70.5223 65.6107C68.6026 64.7337 66.8058 64.0224 65.8117 63.6419Z" fill="white"/>
<mask id="mask1_2340_7758" style="mask-type:luminance" maskUnits="userSpaceOnUse" x="60" y="63" width="16" height="17">
<path d="M65.8117 63.6419C65.4392 63.4993 65.0806 63.3303 64.714 63.1728C64.33 63.0076 63.6754 62.9262 63.4183 64.0973C63.0445 65.8003 65.6616 67.2195 64.8205 68.6388C63.9791 70.058 62.5773 70.531 62.5773 70.531C62.5773 70.531 62.5045 70.575 62.11 70.6255C61.3624 70.7214 60.1471 70.6255 60.5209 71.9502C60.8947 73.2749 62.11 74.4099 62.8576 74.4099C63.6052 74.4099 63.6052 74.4099 63.6052 74.4099C63.6052 74.4099 64.4467 76.9646 67.6245 78.3835C70.8027 79.8027 72.9525 79.7081 73.7005 77.9105C74.4481 76.1129 75.0093 74.5991 75.0093 72.2335C75.0093 69.8684 74.1678 65.8944 74.1678 65.8944C74.1678 65.8944 73.4202 66.9353 70.5223 65.6107C68.6026 64.7337 66.8058 64.0224 65.8117 63.6419Z" fill="white"/>
</mask>
<g mask="url(#mask1_2340_7758)">
<path opacity="0.5" d="M70.5217 65.6111C70.5217 65.6111 66.0538 65.3581 65.3857 65.4707C64.7176 65.5832 65.4969 67.612 65.2745 69.6403C65.0516 71.669 65.1632 74.9368 66.0538 75.9511C66.9443 76.9655 69.3939 78.8812 69.3939 78.8812C69.3939 78.8812 65.9426 78.3175 64.7176 76.8529C63.493 75.3879 63.2701 74.5991 63.2701 74.5991C63.2701 74.5991 60.3752 72.9085 60.1528 71.5564C59.93 70.2039 61.8265 70.9324 62.7618 70.2805C63.2769 69.9215 65.4123 69.2461 64.8558 67.4433C64.2989 65.6402 63.4541 65.3157 63.4177 64.0977C63.3927 63.2511 64.1378 62.9926 64.5949 62.9138C64.8013 62.8783 65.0127 62.9147 65.2013 63.0067L70.5217 65.6111Z" fill="#0A5840"/>
</g>
<path d="M65.8117 63.6419C65.4392 63.4993 65.0806 63.3303 64.714 63.1728C64.33 63.0076 63.6754 62.9262 63.4183 64.0973C63.0445 65.8003 65.6616 67.2195 64.8205 68.6388C63.9791 70.058 62.5773 70.531 62.5773 70.531C62.5773 70.531 62.5045 70.575 62.11 70.6255C61.3624 70.7214 60.1471 70.6255 60.5209 71.9502C60.8947 73.2749 62.11 74.4099 62.8576 74.4099C63.6052 74.4099 63.6052 74.4099 63.6052 74.4099C63.6052 74.4099 64.4467 76.9646 67.6245 78.3835C70.8027 79.8027 72.9525 79.7081 73.7005 77.9105C74.4481 76.1129 75.0093 74.5991 75.0093 72.2335C75.0093 69.8684 74.1678 65.8944 74.1678 65.8944C74.1678 65.8944 73.4202 66.9353 70.5223 65.6107C68.6026 64.7337 66.8058 64.0224 65.8117 63.6419Z" stroke="#263238" stroke-width="1.0607" stroke-miterlimit="10" stroke-linecap="round"/>
<path d="M69.1156 69.2472C69.1735 69.608 69.0762 69.9247 68.8978 69.9542C68.7194 69.9838 68.5278 69.715 68.4699 69.3537C68.4119 68.9929 68.5092 68.6762 68.6876 68.6467C68.8661 68.6176 69.0576 68.8864 69.1156 69.2472Z" fill="#263238"/>
<path d="M72.9827 68.5949C73.0407 68.9561 72.9434 69.2724 72.765 69.3019C72.5865 69.3315 72.395 69.0623 72.337 68.7015C72.2791 68.3407 72.3764 68.0239 72.5548 67.9944C72.7328 67.9649 72.9244 68.2337 72.9827 68.5949Z" fill="#263238"/>
<path d="M66.877 67.5027C66.877 67.5027 67.5315 66.3672 69.0268 66.3672" stroke="#263238" stroke-width="1.0607" stroke-miterlimit="10" stroke-linecap="round"/>
<path d="M71.9238 66.6522C71.9238 66.6522 73.0457 66.1792 73.9802 67.2197" stroke="#263238" stroke-width="1.0607" stroke-miterlimit="10" stroke-linecap="round"/>
<path d="M71.5497 68.2598C71.5497 68.2598 71.4563 69.3007 71.5497 70.0574C71.6432 70.8141 72.2043 71.0037 72.017 71.5712C71.8301 72.1387 71.082 72.1387 71.082 72.1387" stroke="#263238" stroke-width="1.0607" stroke-miterlimit="10" stroke-linecap="round"/>
<path d="M70.1488 74.4096C70.1488 74.4096 69.0269 74.6934 68.2793 74.0312" stroke="#263238" stroke-width="1.0607" stroke-miterlimit="10" stroke-linecap="round"/>
</svg>
