<svg width="78" height="70" viewBox="0 0 78 70" fill="none" xmlns="http://www.w3.org/2000/svg">
<path d="M31.2155 42.7992H46.7788V19.4542H58.4513L38.9972 0L19.543 19.4542H31.2155V42.7992ZM75.3298 48.7599C74.5127 47.8884 69.0616 42.056 67.5053 40.5347C66.4147 39.4893 64.9618 38.9064 63.4511 38.9083H56.6149L68.5364 50.5575H54.7473C54.5599 50.5541 54.3749 50.6001 54.2109 50.6909C54.047 50.7818 53.9099 50.9143 53.8135 51.075L50.6385 58.3625H27.3558L24.1809 51.075C24.0839 50.9148 23.9466 50.7828 23.7828 50.692C23.619 50.6012 23.4343 50.5548 23.2471 50.5575H9.45795L21.3756 38.9083H14.5433C12.9986 38.9083 11.524 39.527 10.489 40.5347C8.93269 42.0599 3.48163 47.8923 2.66455 48.7599C0.761934 50.7871 -0.2847 52.4018 0.213326 54.3978L2.39608 66.3582C2.89411 68.3581 5.08465 70 7.26741 70H70.7347C72.9175 70 75.108 68.3581 75.606 66.3582L77.7888 54.3978C78.279 52.4018 77.2363 50.7871 75.3298 48.7599Z" fill="#282727"/>
</svg>
