<svg width="500" height="500" viewBox="0 0 500 500" fill="none" xmlns="http://www.w3.org/2000/svg">
<path d="M38.1569 210.565C38.1569 210.565 30.9349 289.002 89.6009 351.885C148.267 414.768 238.09 433.574 310.565 450.723C383.041 467.872 444.346 435.892 460.612 374.787C476.878 313.682 423.317 286.001 401.899 209.774C380.481 133.547 386.097 110.604 327.443 56.1252C268.789 1.64524 165.132 11.7673 103.183 77.9672C41.2339 144.168 38.1569 210.565 38.1569 210.565Z" fill="#1E775B"/>
<path opacity="0.7" d="M38.1569 210.565C38.1569 210.565 30.9349 289.002 89.6009 351.885C148.267 414.768 238.09 433.574 310.565 450.723C383.041 467.872 444.346 435.892 460.612 374.787C476.878 313.682 423.317 286.001 401.899 209.774C380.481 133.547 386.097 110.604 327.443 56.1252C268.789 1.64524 165.132 11.7673 103.183 77.9672C41.2339 144.168 38.1569 210.565 38.1569 210.565Z" fill="white"/>
<path d="M19.0953 374.658C22.0693 374.441 27.9133 371.193 27.9173 371.191C27.9783 371.157 24.6073 367.989 24.3723 367.813C21.6443 365.782 15.1813 363.461 12.0793 365.671C9.84526 367.263 9.77526 370.375 11.5113 372.353C13.2843 374.374 16.5623 374.843 19.0953 374.658Z" fill="#263238"/>
<path d="M30.1601 390.714C32.8601 389.759 37.3321 385.448 37.6871 385.104C40.0761 387.62 42.7321 390.007 45.5531 392.276C47.1641 393.575 48.8281 394.832 50.5111 396.072C49.6581 395.62 48.8921 395.223 48.7791 395.179C45.6121 393.94 38.7651 393.409 36.3571 396.359C34.6221 398.485 35.3771 401.504 37.5731 402.954C39.8161 404.435 43.1021 404.021 45.4971 403.174C47.9261 402.314 51.8131 398.717 52.8291 397.75C53.4801 398.219 54.1241 398.695 54.7771 399.161C57.9081 401.399 61.0431 403.619 64.0501 405.891C65.1111 406.691 66.1251 407.518 67.1431 408.342C66.3851 407.941 65.7431 407.61 65.6401 407.57C62.4731 406.331 55.6261 405.8 53.2181 408.75C51.4841 410.876 52.2381 413.895 54.4351 415.345C56.6781 416.826 59.9641 416.412 62.3591 415.565C64.6781 414.745 68.2941 411.456 69.5071 410.314C70.5241 411.189 71.5451 412.063 72.4911 412.957C73.1231 413.582 73.7761 414.14 74.3761 414.802C74.9841 415.446 75.5861 416.083 76.1821 416.714C77.2851 417.972 78.4321 419.263 79.4771 420.517C80.2111 421.383 80.8941 422.223 81.5851 423.067C80.5391 422.258 78.4581 420.718 78.2691 420.609C75.3271 418.905 68.6391 417.342 65.8121 419.894C63.7761 421.732 64.0631 424.831 66.0151 426.597C68.0081 428.401 71.3191 428.49 73.8141 428.015C76.5611 427.492 81.4511 424.072 82.0591 423.641C83.1971 425.041 84.2911 426.413 85.3031 427.725C88.0311 431.245 90.2951 434.381 92.0571 436.904L94.2971 435.724C92.4321 433.167 90.0101 429.951 87.0711 426.325C85.9211 424.899 84.6641 423.398 83.3581 421.869C83.6691 421.505 85.4271 419.425 86.8241 417.276C89.5321 418.235 95.1021 418.094 95.8211 418.07C95.9981 419.865 96.1531 421.613 96.2731 423.265C96.5971 427.577 96.7561 431.354 96.8371 434.386L99.2731 433.103C99.1211 430.262 98.8901 426.879 98.5211 423.074C98.3491 421.25 98.1281 419.304 97.8821 417.308C98.5861 417.107 104.326 415.429 106.456 413.61C108.387 411.96 110.389 409.322 110.229 406.639C110.072 404.011 107.835 401.848 105.126 402.287C101.367 402.896 98.4021 409.091 97.8911 412.453C97.8611 412.652 97.7741 414.84 97.7421 416.221C97.6381 415.406 97.5451 414.614 97.4271 413.776C97.2051 412.118 96.9351 410.47 96.6501 408.696C96.4831 407.844 96.3141 406.984 96.1431 406.115C95.9921 405.25 95.7231 404.355 95.5141 403.465C94.9881 401.413 94.3551 399.358 93.6711 397.303C95.1221 397.105 100.266 396.328 102.434 394.984C104.592 393.646 106.971 391.341 107.219 388.665C107.462 386.044 105.578 383.566 102.835 383.59C99.0271 383.623 95.1581 389.297 94.1431 392.543C94.0801 392.745 93.6131 395.156 93.3831 396.485C92.9631 395.252 92.5491 394.02 92.0831 392.787C90.7381 389.228 89.2661 385.667 87.8141 382.109C87.3681 381.019 86.9381 379.928 86.5021 378.837C87.0191 378.772 93.1531 377.981 95.5821 376.475C97.7411 375.138 100.119 372.833 100.367 370.156C100.61 367.535 98.7261 365.058 95.9831 365.081C92.1751 365.113 88.3061 370.788 87.2911 374.033C87.2151 374.278 86.5481 377.747 86.4221 378.638C85.4641 376.235 84.5321 373.832 83.7081 371.426C82.5681 368.107 81.6321 364.788 80.9641 361.505C81.2051 361.475 87.6111 360.678 90.0981 359.136C92.2571 357.798 94.6351 355.494 94.8831 352.817C95.1261 350.196 93.2421 347.719 90.4991 347.742C86.6911 347.775 82.8221 353.449 81.8071 356.694C81.7271 356.949 81.0121 360.682 80.9311 361.368C80.8921 361.173 80.8301 360.975 80.7931 360.779C80.1241 357.265 79.9171 353.778 79.8841 350.503C79.8611 348.6 79.9451 346.78 80.0671 345.01C81.2751 344.984 86.7951 344.803 89.1881 343.663C91.4811 342.57 94.0981 340.541 94.6381 337.908C95.1671 335.329 93.5671 332.66 90.8381 332.382C87.0491 331.996 82.5811 337.211 81.2161 340.325C81.1421 340.494 80.5781 342.3 80.1851 343.62C80.2521 342.822 80.3071 341.998 80.3861 341.235C80.6781 338.37 81.1211 335.765 81.5331 333.461C81.7771 332.152 82.0251 330.974 82.2671 329.874C83.4391 329.23 88.1311 326.574 89.7001 324.498C91.2311 322.472 92.6181 319.464 91.8851 316.878C91.1671 314.346 88.5161 312.714 85.9661 313.725C82.4261 315.129 80.8631 321.816 81.0871 325.209C81.1071 325.502 81.9361 330.053 81.9971 330.021C81.9971 330.021 82.0541 329.99 82.0681 329.982C81.8131 331.036 81.5521 332.169 81.2921 333.412C80.8291 335.712 80.3281 338.315 79.9731 341.185C79.6111 344.052 79.2981 347.177 79.2661 350.498C79.2291 353.827 79.3601 357.331 79.9621 360.923C79.9691 360.964 79.9811 361.005 79.9881 361.046C79.4861 360.05 77.9881 357.312 77.8491 357.115C75.8911 354.335 70.4731 350.114 66.8371 351.246C64.2181 352.062 63.1811 354.997 64.2131 357.419C65.2681 359.892 68.2361 361.359 70.7001 361.974C73.4791 362.667 79.5871 361.539 80.0731 361.447C80.6781 364.863 81.5761 368.319 82.6771 371.768C83.3041 373.74 83.9981 375.706 84.7181 377.669C84.2561 376.822 83.8361 376.068 83.7661 375.968C81.8081 373.188 76.3901 368.968 72.7551 370.1C70.1351 370.916 69.0991 373.851 70.1311 376.272C71.1851 378.745 74.1541 380.212 76.6181 380.827C79.1181 381.45 84.3451 380.593 85.7251 380.348C86.0091 381.098 86.2851 381.851 86.5721 382.599C87.9481 386.193 89.3381 389.774 90.5931 393.328C91.0361 394.58 91.4261 395.83 91.8211 397.078C91.4091 396.326 91.0571 395.696 90.9931 395.606C89.0351 392.826 83.6181 388.605 79.9821 389.738C77.3631 390.554 76.3261 393.488 77.3581 395.91C78.4121 398.382 81.3811 399.85 83.8451 400.464C86.2311 401.059 91.0621 400.311 92.7041 400.028C93.0691 401.319 93.4381 402.611 93.7351 403.879C93.9181 404.749 94.1541 405.574 94.2891 406.458C94.4411 407.331 94.5921 408.194 94.7411 409.049C94.9671 410.707 95.2111 412.416 95.3921 414.039C95.5261 415.167 95.6331 416.244 95.7441 417.328C95.3181 416.077 94.4321 413.644 94.3351 413.449C93.3291 411.426 90.9081 408.551 88.2921 407.011C88.1451 406.711 87.9731 406.426 87.7721 406.158C86.1911 404.053 83.1311 403.483 81.1151 405.343C78.3161 407.925 79.2601 414.727 80.6891 417.813C80.7731 417.995 81.9081 419.868 82.6431 421.038C82.1061 420.416 81.5921 419.806 81.0311 419.173C79.9311 417.913 78.7971 416.687 77.5811 415.365C76.9721 414.747 76.3561 414.123 75.7341 413.492C75.1311 412.853 74.4121 412.256 73.7481 411.629C72.1771 410.208 70.5151 408.843 68.8111 407.506C69.9121 406.54 73.7731 403.055 74.8401 400.737C75.9021 398.43 76.6151 395.196 75.3451 392.826C74.1021 390.506 71.1641 389.479 68.8891 391.012C65.7311 393.14 65.6341 400.007 66.5781 403.274C66.6371 403.478 67.5771 405.745 68.1191 406.981C67.0881 406.185 66.0641 405.386 64.9951 404.615C61.9101 402.388 58.7181 400.23 55.5431 398.064C54.5701 397.401 53.6091 396.728 52.6441 396.059C53.0401 395.719 57.7191 391.675 58.9141 389.08C59.9761 386.773 60.6891 383.539 59.4191 381.169C58.1761 378.849 55.2381 377.821 52.9631 379.355C49.8051 381.483 49.7081 388.35 50.6521 391.617C50.7231 391.863 52.0821 395.124 52.4681 395.937C50.3441 394.462 48.2401 392.972 46.2261 391.419C43.4441 389.28 40.8331 387.027 38.4641 384.658C38.6481 384.5 43.5511 380.302 44.7751 377.643C45.8381 375.336 46.5501 372.102 45.2801 369.733C44.0371 367.413 41.0991 366.386 38.8241 367.919C35.6661 370.047 35.5691 376.914 36.5131 380.181C36.5871 380.438 38.0501 383.945 38.3611 384.563C38.2201 384.422 38.0591 384.291 37.9201 384.149C35.4241 381.587 33.3271 378.792 31.4931 376.079C30.4241 374.505 29.4901 372.94 28.6161 371.397C29.6091 370.709 34.1141 367.512 35.4801 365.242C36.7891 363.066 37.8521 359.93 36.8511 357.435C35.8701 354.993 33.0621 353.648 30.6331 354.923C27.2611 356.691 26.4101 363.506 26.9901 366.857C27.0221 367.039 27.5471 368.856 27.9481 370.174C27.5641 369.472 27.1551 368.754 26.8001 368.074C25.4631 365.524 24.3951 363.106 23.4671 360.957C22.9491 359.731 22.5051 358.612 22.1011 357.561C22.7231 356.377 25.1711 351.574 25.3351 348.976C25.4941 346.441 24.9921 343.168 22.9541 341.416C20.9581 339.701 17.8471 339.801 16.2781 342.052C14.0991 345.176 16.4851 351.615 18.5441 354.323C18.7221 354.557 21.9241 357.895 21.9571 357.834C21.9571 357.834 21.9871 357.776 21.9941 357.763C22.3631 358.782 22.7701 359.871 23.2391 361.052C24.1221 363.226 25.1391 365.674 26.4271 368.263C27.7061 370.854 29.1701 373.633 30.9751 376.421C32.7811 379.218 34.8231 382.068 37.3071 384.733C37.3351 384.763 37.3681 384.791 37.3961 384.821C36.4281 384.267 33.6681 382.81 33.4431 382.722C30.2761 381.483 23.4291 380.952 21.0211 383.902C19.2871 386.028 20.0411 389.047 22.2381 390.498C24.4801 391.974 27.7661 391.56 30.1601 390.714Z" fill="#263238"/>
<path d="M79.5979 344.455C79.6669 344.46 78.6039 339.958 78.5039 339.682C77.3499 336.483 73.2389 330.982 69.4329 331.114C66.6909 331.209 64.9159 333.766 65.2719 336.374C65.6359 339.038 68.1109 341.237 70.3259 342.481C72.9269 343.94 79.5929 344.455 79.5979 344.455Z" fill="#263238"/>
<path d="M479.237 374.658C476.263 374.441 470.419 371.193 470.415 371.191C470.354 371.157 473.725 367.989 473.961 367.813C476.689 365.782 483.152 363.461 486.254 365.671C488.488 367.263 488.558 370.375 486.822 372.353C485.048 374.374 481.77 374.843 479.237 374.658Z" fill="#263238"/>
<path d="M468.172 390.714C465.472 389.759 461 385.448 460.645 385.104C458.256 387.62 455.6 390.007 452.779 392.276C451.168 393.575 449.504 394.832 447.821 396.072C448.674 395.62 449.44 395.223 449.553 395.179C452.72 393.94 459.567 393.409 461.975 396.359C463.71 398.485 462.955 401.504 460.759 402.954C458.516 404.435 455.23 404.021 452.835 403.174C450.406 402.314 446.519 398.717 445.503 397.75C444.852 398.219 444.208 398.695 443.555 399.161C440.424 401.399 437.289 403.619 434.282 405.891C433.221 406.691 432.207 407.518 431.189 408.342C431.947 407.941 432.589 407.61 432.692 407.57C435.859 406.331 442.706 405.8 445.114 408.75C446.848 410.876 446.094 413.895 443.897 415.345C441.654 416.826 438.368 416.412 435.974 415.565C433.655 414.745 430.038 411.456 428.826 410.314C427.809 411.189 426.788 412.063 425.842 412.957C425.21 413.582 424.557 414.14 423.957 414.802C423.349 415.446 422.747 416.083 422.151 416.714C421.048 417.972 419.901 419.263 418.856 420.517C418.122 421.383 417.439 422.223 416.748 423.067C417.794 422.258 419.875 420.718 420.064 420.609C423.006 418.905 429.694 417.342 432.521 419.894C434.557 421.732 434.27 424.831 432.318 426.597C430.325 428.401 427.014 428.49 424.519 428.015C421.772 427.492 416.882 424.072 416.274 423.641C415.136 425.041 414.042 426.413 413.03 427.725C410.302 431.245 408.038 434.381 406.276 436.904L404.036 435.724C405.901 433.167 408.323 429.951 411.261 426.325C412.411 424.899 413.668 423.398 414.974 421.869C414.663 421.505 412.905 419.425 411.508 417.276C408.8 418.235 403.23 418.094 402.511 418.07C402.334 419.865 402.179 421.613 402.059 423.265C401.736 427.577 401.576 431.354 401.495 434.386L399.059 433.103C399.211 430.262 399.442 426.879 399.811 423.074C399.983 421.25 400.204 419.304 400.45 417.308C399.746 417.107 394.006 415.429 391.876 413.61C389.945 411.96 387.943 409.322 388.103 406.639C388.26 404.011 390.497 401.848 393.206 402.287C396.965 402.896 399.93 409.091 400.441 412.453C400.471 412.652 400.558 414.84 400.59 416.221C400.694 415.406 400.787 414.614 400.905 413.776C401.127 412.118 401.397 410.47 401.682 408.696C401.849 407.844 402.018 406.984 402.19 406.115C402.341 405.25 402.61 404.355 402.819 403.465C403.345 401.413 403.978 399.358 404.662 397.303C403.211 397.105 398.067 396.328 395.899 394.984C393.741 393.646 391.362 391.341 391.114 388.665C390.871 386.044 392.755 383.566 395.498 383.59C399.306 383.623 403.175 389.297 404.19 392.543C404.253 392.745 404.72 395.156 404.95 396.485C405.37 395.252 405.784 394.02 406.25 392.787C407.594 389.228 409.067 385.667 410.519 382.109C410.965 381.019 411.395 379.928 411.831 378.837C411.314 378.772 405.18 377.981 402.751 376.475C400.592 375.138 398.214 372.833 397.966 370.156C397.723 367.535 399.607 365.058 402.35 365.081C406.158 365.113 410.027 370.788 411.042 374.033C411.118 374.278 411.784 377.747 411.911 378.638C412.869 376.235 413.801 373.832 414.625 371.426C415.765 368.107 416.701 364.788 417.369 361.505C417.128 361.475 410.722 360.678 408.235 359.136C406.076 357.798 403.698 355.494 403.45 352.817C403.207 350.196 405.091 347.719 407.834 347.742C411.642 347.775 415.511 353.449 416.526 356.694C416.606 356.949 417.32 360.682 417.402 361.368C417.441 361.173 417.503 360.975 417.54 360.779C418.209 357.265 418.416 353.778 418.449 350.503C418.472 348.6 418.388 346.78 418.266 345.01C417.058 344.984 411.538 344.803 409.145 343.663C406.852 342.57 404.235 340.541 403.695 337.908C403.166 335.329 404.766 332.66 407.495 332.382C411.284 331.996 415.752 337.211 417.117 340.325C417.191 340.494 417.755 342.3 418.148 343.62C418.081 342.822 418.026 341.998 417.947 341.235C417.655 338.37 417.212 335.765 416.8 333.461C416.555 332.152 416.308 330.974 416.066 329.874C414.894 329.23 410.203 326.574 408.633 324.498C407.102 322.472 405.715 319.464 406.448 316.878C407.166 314.346 409.817 312.714 412.367 313.725C415.907 315.129 417.47 321.816 417.246 325.209C417.226 325.502 416.398 330.053 416.336 330.021C416.336 330.021 416.279 329.99 416.265 329.982C416.52 331.036 416.781 332.169 417.042 333.412C417.504 335.712 418.006 338.315 418.361 341.185C418.723 344.052 419.036 347.177 419.068 350.498C419.105 353.827 418.974 357.331 418.372 360.923C418.365 360.964 418.353 361.005 418.346 361.046C418.848 360.05 420.346 357.312 420.485 357.115C422.443 354.335 427.861 350.114 431.497 351.246C434.116 352.062 435.153 354.997 434.121 357.419C433.066 359.892 430.098 361.359 427.634 361.974C424.855 362.667 418.747 361.539 418.261 361.447C417.656 364.863 416.758 368.319 415.657 371.768C415.03 373.74 414.336 375.706 413.616 377.669C414.078 376.822 414.498 376.068 414.568 375.968C416.526 373.188 421.944 368.968 425.579 370.1C428.199 370.916 429.235 373.851 428.203 376.272C427.149 378.745 424.18 380.212 421.716 380.827C419.216 381.45 413.989 380.593 412.609 380.348C412.325 381.098 412.049 381.851 411.762 382.599C410.386 386.193 408.996 389.774 407.741 393.328C407.298 394.58 406.908 395.83 406.513 397.078C406.925 396.326 407.277 395.696 407.341 395.606C409.299 392.826 414.716 388.605 418.352 389.738C420.971 390.554 422.008 393.488 420.976 395.91C419.922 398.382 416.953 399.85 414.489 400.464C412.103 401.059 407.272 400.311 405.63 400.028C405.265 401.319 404.896 402.611 404.599 403.879C404.416 404.749 404.18 405.574 404.045 406.458C403.893 407.331 403.742 408.194 403.593 409.049C403.367 410.707 403.123 412.416 402.942 414.039C402.808 415.167 402.701 416.244 402.59 417.328C403.016 416.077 403.902 413.644 403.999 413.449C405.005 411.426 407.426 408.551 410.042 407.011C410.189 406.711 410.361 406.426 410.562 406.158C412.143 404.053 415.203 403.483 417.219 405.343C420.018 407.925 419.074 414.727 417.645 417.813C417.561 417.995 416.426 419.868 415.691 421.038C416.228 420.416 416.742 419.806 417.303 419.173C418.403 417.913 419.537 416.687 420.754 415.365C421.363 414.747 421.979 414.123 422.601 413.492C423.204 412.853 423.923 412.256 424.587 411.629C426.158 410.208 427.82 408.843 429.524 407.506C428.423 406.54 424.562 403.055 423.495 400.737C422.433 398.43 421.72 395.196 422.99 392.826C424.233 390.506 427.171 389.479 429.446 391.012C432.604 393.14 432.701 400.007 431.757 403.274C431.698 403.478 430.758 405.745 430.216 406.981C431.247 406.185 432.271 405.386 433.34 404.615C436.425 402.388 439.617 400.23 442.792 398.064C443.765 397.401 444.726 396.728 445.691 396.059C445.295 395.719 440.616 391.675 439.421 389.08C438.358 386.773 437.646 383.539 438.916 381.169C440.159 378.849 443.097 377.821 445.372 379.355C448.53 381.483 448.627 388.35 447.683 391.617C447.612 391.863 446.253 395.124 445.867 395.937C447.991 394.462 450.095 392.972 452.109 391.419C454.891 389.28 457.502 387.027 459.871 384.658C459.687 384.5 454.784 380.302 453.56 377.643C452.497 375.336 451.785 372.102 453.055 369.733C454.298 367.413 457.236 366.386 459.511 367.919C462.669 370.047 462.766 376.914 461.822 380.181C461.748 380.438 460.285 383.945 459.974 384.563C460.115 384.422 460.276 384.291 460.414 384.149C462.91 381.587 465.007 378.792 466.842 376.079C467.911 374.505 468.845 372.94 469.719 371.397C468.726 370.709 464.221 367.512 462.855 365.242C461.546 363.066 460.483 359.93 461.484 357.435C462.465 354.993 465.273 353.648 467.702 354.923C471.075 356.691 471.925 363.506 471.345 366.857C471.313 367.039 470.788 368.856 470.387 370.174C470.771 369.472 471.18 368.754 471.535 368.074C472.872 365.524 473.94 363.106 474.868 360.957C475.386 359.731 475.83 358.612 476.234 357.561C475.612 356.377 473.164 351.574 473 348.976C472.841 346.441 473.343 343.168 475.381 341.416C477.377 339.701 480.488 339.801 482.057 342.052C484.236 345.176 481.85 351.615 479.791 354.323C479.613 354.557 476.411 357.895 476.378 357.834C476.378 357.834 476.348 357.776 476.341 357.763C475.972 358.782 475.565 359.871 475.096 361.052C474.213 363.226 473.196 365.674 471.908 368.263C470.629 370.854 469.165 373.633 467.36 376.421C465.554 379.218 463.512 382.068 461.028 384.733C461 384.763 460.967 384.791 460.939 384.821C461.907 384.267 464.667 382.81 464.892 382.722C468.059 381.483 474.906 380.952 477.314 383.902C479.048 386.028 478.294 389.047 476.097 390.498C473.852 391.974 470.567 391.56 468.172 390.714Z" fill="#263238"/>
<path d="M418.73 344.455C418.661 344.46 419.724 339.958 419.824 339.682C420.978 336.483 425.089 330.982 428.895 331.114C431.637 331.209 433.412 333.766 433.055 336.374C432.691 339.038 430.216 341.237 428.001 342.481C425.401 343.94 418.735 344.455 418.73 344.455Z" fill="#263238"/>
<path d="M92.2266 200.602L93.0656 201.147" stroke="#263238" stroke-miterlimit="10"/>
<path d="M94.7422 202.236L247.973 301.874" stroke="#263238" stroke-miterlimit="10" stroke-dasharray="2 2"/>
<path d="M248.805 302.418L249.643 302.963L249.098 302.125" stroke="#263238" stroke-miterlimit="10"/>
<path d="M248.02 300.461L116.578 98.3594" stroke="#263238" stroke-miterlimit="10" stroke-dasharray="1.98 1.98"/>
<path d="M116.038 97.5275L115.492 96.6895" stroke="#263238" stroke-miterlimit="10"/>
<path d="M407.057 200.602L406.219 201.147" stroke="#263238" stroke-miterlimit="10"/>
<path d="M404.55 202.236L251.32 301.874" stroke="#263238" stroke-miterlimit="10" stroke-dasharray="2 2"/>
<path d="M250.48 302.418L249.641 302.963L250.187 302.125" stroke="#263238" stroke-miterlimit="10"/>
<path d="M251.266 300.461L382.708 98.3594" stroke="#263238" stroke-miterlimit="10" stroke-dasharray="1.98 1.98"/>
<path d="M383.25 97.5275L383.795 96.6895" stroke="#263238" stroke-miterlimit="10"/>
<path d="M249.641 65.6719V66.6719" stroke="#263238" stroke-miterlimit="10"/>
<path d="M249.641 68.6836V300.959" stroke="#263238" stroke-miterlimit="10" stroke-dasharray="2.01 2.01"/>
<path d="M249.641 301.963V302.963" stroke="#263238" stroke-miterlimit="10"/>
<path d="M251.512 91.9045C268.497 91.9045 282.266 78.1355 282.266 61.1505C282.266 44.1655 268.497 30.3965 251.512 30.3965C234.527 30.3965 220.758 44.1655 220.758 61.1505C220.758 78.1355 234.527 91.9045 251.512 91.9045Z" fill="#263238" stroke="#263238" stroke-width="2" stroke-miterlimit="10"/>
<path d="M251.516 61.1508L277.396 44.5458C273.61 38.6568 267.873 34.1468 261.095 31.9258L251.516 61.1508Z" fill="#1E775B" stroke="#263238" stroke-miterlimit="10"/>
<path d="M251.516 61.1509L266.047 88.2589C275.703 83.0719 282.27 72.8799 282.27 61.1509C282.27 55.0319 280.477 49.3359 277.395 44.5469L251.516 61.1509Z" fill="white" stroke="#263238" stroke-miterlimit="10"/>
<path d="M400.402 118.234C412.406 106.229 412.406 86.7667 400.402 74.7625C388.398 62.7583 368.935 62.7583 356.931 74.7625C344.927 86.7667 344.927 106.229 356.931 118.234C368.935 130.238 388.398 130.238 400.402 118.234Z" stroke="#263238" stroke-miterlimit="10"/>
<path d="M378.669 123.144C393.386 123.144 405.315 111.214 405.315 96.4976C405.315 81.7814 393.386 69.8516 378.669 69.8516C363.953 69.8516 352.023 81.7814 352.023 96.4976C352.023 111.214 363.953 123.144 378.669 123.144Z" fill="#263238"/>
<path d="M394.007 96.4967L368.195 81.5938V111.399L394.007 96.4967Z" fill="white"/>
<path d="M453.892 204.241C458.018 187.012 447.396 169.701 430.168 165.575C412.939 161.449 395.628 172.071 391.502 189.299C387.376 206.528 397.998 223.839 415.226 227.965C432.455 232.091 449.766 221.469 453.892 204.241Z" fill="#263238"/>
<path d="M444.99 202.099C447.926 189.79 440.328 177.432 428.019 174.496C415.711 171.561 403.353 179.159 400.417 191.467C397.481 203.776 405.08 216.134 417.388 219.069C429.697 222.005 442.054 214.407 444.99 202.099Z" fill="white"/>
<path d="M436.082 199.97C437.837 192.583 433.271 185.173 425.885 183.418C418.498 181.664 411.088 186.229 409.333 193.616C407.579 201.002 412.144 208.413 419.531 210.167C426.917 211.922 434.328 207.356 436.082 199.97Z" fill="#263238"/>
<path d="M429.932 198.483C430.875 194.505 428.414 190.516 424.436 189.574C420.457 188.632 416.469 191.092 415.526 195.071C414.584 199.049 417.045 203.037 421.023 203.98C425.001 204.922 428.99 202.461 429.932 198.483Z" fill="white"/>
<path d="M463.603 181.403L459.523 179.807L461.303 178.94C461.725 178.735 461.901 178.226 461.695 177.804C461.49 177.383 460.981 177.206 460.559 177.412L459.267 178.041L461.318 173.598L453.704 177.024L452.598 181.289L422.346 196.022C421.924 196.227 421.748 196.736 421.953 197.158C422.101 197.46 422.403 197.636 422.718 197.636C422.842 197.636 422.969 197.609 423.089 197.55L453.44 182.769L456.749 184.639L463.603 181.403Z" fill="#263238"/>
<path d="M118.176 127.236C135.89 127.236 150.25 112.876 150.25 95.1619C150.25 77.4479 135.89 63.0879 118.176 63.0879C100.462 63.0879 86.1016 77.4479 86.1016 95.1619C86.1016 112.876 100.462 127.236 118.176 127.236Z" fill="white" stroke="#263238" stroke-width="2" stroke-miterlimit="10"/>
<path d="M118.178 127.236C131.022 127.236 141.434 112.876 141.434 95.1619C141.434 77.4479 131.022 63.0879 118.178 63.0879C105.334 63.0879 94.9219 77.4479 94.9219 95.1619C94.9219 112.876 105.334 127.236 118.178 127.236Z" fill="white" stroke="#263238" stroke-miterlimit="10"/>
<path d="M118.172 127.236C123.64 127.236 128.071 112.876 128.071 95.1619C128.071 77.4479 123.64 63.0879 118.172 63.0879C112.705 63.0879 108.273 77.4479 108.273 95.1619C108.273 112.876 112.705 127.236 118.172 127.236Z" fill="white" stroke="#263238" stroke-miterlimit="10"/>
<path d="M101.18 68.0723H135.734" stroke="#263238" stroke-miterlimit="10"/>
<path d="M89.5547 80.6387H146.726" stroke="#263238" stroke-miterlimit="10"/>
<path d="M86.2578 93.2031H150.183" stroke="#263238" stroke-miterlimit="10"/>
<path d="M87.6719 105.768H148.298" stroke="#263238" stroke-miterlimit="10"/>
<path d="M96.3125 118.332H140.605" stroke="#263238" stroke-miterlimit="10"/>
<path d="M76.1912 228.863C93.9052 228.863 108.265 214.503 108.265 196.789C108.265 179.075 93.9052 164.715 76.1912 164.715C58.4772 164.715 44.1172 179.075 44.1172 196.789C44.1172 214.503 58.4772 228.863 76.1912 228.863Z" fill="#263238" stroke="#263238" stroke-width="2" stroke-miterlimit="10"/>
<path d="M96.5116 181.631H53.9766V215.659H96.5116V181.631Z" fill="white" stroke="#263238" stroke-width="2" stroke-miterlimit="10"/>
<path d="M99.1713 181.631H51.3203V195.455H99.1713V181.631Z" fill="white" stroke="#263238" stroke-width="2" stroke-miterlimit="10"/>
<path d="M75.2025 181.288C75.2025 181.288 65.1645 169.577 63.4915 170.134C61.8185 170.692 57.3565 178.5 59.8665 179.337C62.3755 180.174 75.2025 181.288 75.2025 181.288Z" fill="#1E775B"/>
<path d="M75.2891 181.288C75.2891 181.288 85.3271 169.577 87.0001 170.134C88.6731 170.692 93.1341 178.5 90.6251 179.337C88.1161 180.174 75.2891 181.288 75.2891 181.288Z" fill="#1E775B"/>
<path d="M78.2678 205.547L75.2598 200.315L72.1328 205.547V182.125H78.2678V205.547Z" fill="#1E775B"/>
<path d="M90.3906 285.142L249.529 195.566L412.572 285.142V414.991H92.3426L90.3906 285.142Z" fill="#263238" stroke="#263238" stroke-miterlimit="10" stroke-linecap="round" stroke-linejoin="round"/>
<path d="M370.594 219.73H132.375V431.589H370.594V219.73Z" fill="white" stroke="#263238" stroke-miterlimit="10"/>
<path d="M159.711 256.83H340.328" stroke="#263238" stroke-miterlimit="10"/>
<path d="M159.711 275.379H340.328" stroke="#263238" stroke-miterlimit="10"/>
<path d="M159.711 293.93H340.328" stroke="#263238" stroke-miterlimit="10"/>
<path d="M159.711 312.479H340.328" stroke="#263238" stroke-miterlimit="10"/>
<path d="M159.711 331.029H340.328" stroke="#263238" stroke-miterlimit="10"/>
<path d="M159.711 349.578H340.328" stroke="#263238" stroke-miterlimit="10"/>
<path d="M412.572 463.808H90.3906V285.143L251.482 394.49L412.572 285.143V463.808Z" fill="#1E775B" stroke="#263238" stroke-miterlimit="10"/>
<path d="M90.3906 463.807L207.526 364.598" stroke="#263238" stroke-miterlimit="10"/>
<path d="M412.06 463.808L295.789 364.445" stroke="#263238" stroke-miterlimit="10"/>
<path d="M286.328 160.671C286.328 160.671 285.115 166.333 286.732 168.153C288.349 169.973 294.416 176.444 294.416 177.455C294.416 178.466 292.394 207.584 292.394 207.584L283.092 200.911L277.43 218.301C277.43 218.301 291.585 224.367 298.258 225.58C304.931 226.793 306.144 224.973 306.144 219.716C306.144 214.459 300.887 174.219 300.887 174.219C300.887 174.219 302.505 164.917 302.505 163.3C302.505 161.682 303.112 160.874 301.696 160.065C300.281 159.256 288.755 158.043 288.755 158.043C288.755 158.043 286.328 159.053 286.328 160.671Z" fill="white" stroke="#263238" stroke-miterlimit="10" stroke-linecap="round" stroke-linejoin="round"/>
<path d="M283.323 203.359L280.25 218.944L277.43 218.299L283.323 203.359Z" fill="#263238" stroke="#263238" stroke-miterlimit="10" stroke-linecap="round" stroke-linejoin="round"/>
<path d="M306.031 165.214L283.125 162.13V156.423C283.125 155.884 283.562 155.447 284.101 155.447C284.641 155.447 285.077 155.884 285.077 156.423V160.422L304.23 163L304.561 158.375C304.599 157.838 305.047 157.437 305.604 157.471C306.142 157.51 306.547 157.977 306.508 158.515L306.031 165.214Z" fill="#263238"/>
<path d="M288.352 163.299L300.889 164.512L301.698 160.063L288.756 158.041L288.352 163.299Z" fill="white" stroke="#263238" stroke-miterlimit="10" stroke-linecap="round" stroke-linejoin="round"/>
<path d="M286.125 163.905C286.125 163.905 286.125 158.85 286.732 158.445C287.339 158.041 296.034 158.647 296.034 159.86C296.034 161.073 296.034 161.68 295.023 161.68C294.012 161.68 291.99 161.882 291.99 161.882C291.99 161.882 296.641 166.128 295.225 169.97" fill="white"/>
<path d="M286.125 163.905C286.125 163.905 286.125 158.85 286.732 158.445C287.339 158.041 296.034 158.647 296.034 159.86C296.034 161.073 296.034 161.68 295.023 161.68C294.012 161.68 291.99 161.882 291.99 161.882C291.99 161.882 296.641 166.128 295.225 169.97" stroke="#263238" stroke-miterlimit="10" stroke-linecap="round" stroke-linejoin="round"/>
<path d="M292.395 207.584L291.586 216.481" stroke="#263238" stroke-miterlimit="10" stroke-linecap="round" stroke-linejoin="round"/>
<path d="M189.71 203.695C189.71 203.695 161.129 226.007 161.866 228.404C162.604 230.801 183.809 251.085 190.816 256.064C197.823 261.043 201.695 263.255 201.695 263.255L206.121 266.021C206.121 266.021 204.277 268.971 205.383 269.525C206.489 270.079 210.546 272.106 211.099 271C211.652 269.894 214.603 261.596 214.234 259.567C213.865 257.539 203.17 255.879 202.433 255.141C201.695 254.403 184.178 227.113 184.178 227.113L197.823 216.418L189.71 203.695Z" fill="white" stroke="#263238" stroke-miterlimit="10" stroke-linecap="round" stroke-linejoin="round"/>
<path d="M189.219 204.438L194.405 218.514L197.825 216.419L189.219 204.438Z" fill="#263238" stroke="#263238" stroke-miterlimit="10" stroke-linecap="round" stroke-linejoin="round"/>
<path d="M206.125 266.021C206.125 266.021 207.416 268.787 209.628 268.971" stroke="#263238" stroke-miterlimit="10" stroke-linecap="round" stroke-linejoin="round"/>
<path d="M184.18 227.114L180.492 220.66" stroke="#263238" stroke-miterlimit="10" stroke-linecap="round" stroke-linejoin="round"/>
<path d="M208.701 429.023L208.406 445.409L221.84 445.704L223.021 427.842L208.701 429.023Z" fill="white" stroke="#263238" stroke-miterlimit="10" stroke-linecap="round" stroke-linejoin="round"/>
<path d="M208.758 428.133V432.181L222.684 432.828L223.008 428.618L208.758 428.133Z" fill="#263238" stroke="#263238" stroke-miterlimit="10" stroke-linecap="round" stroke-linejoin="round"/>
<path d="M215.05 441.129C215.05 441.129 213.279 434.191 210.621 434.043C207.964 433.895 206.635 435.962 205.602 437.881C204.569 439.8 198.073 446.296 195.859 447.92C193.645 449.544 188.773 451.611 188.035 456.335C187.297 461.059 190.102 462.978 192.021 463.421C193.94 463.864 202.65 464.011 207.817 463.421C212.984 462.83 227.082 464.233 227.894 463.421C228.706 462.609 229.813 460.026 229.075 458.254C228.337 456.482 227.008 454.563 227.008 454.563C227.008 454.563 228.484 450.282 227.598 447.92C226.712 445.558 224.941 442.605 225.236 441.277C225.531 439.948 228.779 437.143 226.565 436.996C224.351 436.848 220.808 439.506 218.593 440.244C216.379 440.981 215.05 441.129 215.05 441.129Z" fill="#263238" stroke="#263238" stroke-miterlimit="10" stroke-linecap="round" stroke-linejoin="round"/>
<path d="M224.498 455.152C222.431 455.447 214.459 459.286 209.44 460.467C204.421 461.648 199.992 461.796 197.63 460.615C195.268 459.434 193.201 455.891 191.43 453.677C189.659 451.463 188.182 457.072 188.182 457.072L187.937 457.181C187.641 461.29 190.22 463.005 192.02 463.42C193.939 463.863 202.649 464.01 207.816 463.42C212.983 462.829 227.081 464.232 227.893 463.42C228.705 462.608 229.812 460.025 229.074 458.253C228.336 456.481 227.007 454.562 227.007 454.562C226.122 454.414 226.565 454.857 224.498 455.152Z" fill="white" stroke="#263238" stroke-miterlimit="10" stroke-linecap="round" stroke-linejoin="round"/>
<path d="M202.942 442.014C202.942 442.014 206.928 441.128 211.947 446L209.29 448.214C209.29 448.214 204.123 444.228 200.875 444.228L202.942 442.014Z" fill="white" stroke="#263238" stroke-miterlimit="10" stroke-linecap="round" stroke-linejoin="round"/>
<path d="M199.255 444.967C199.255 444.967 203.24 444.081 208.259 448.953L205.602 451.167C205.602 451.167 200.435 447.181 197.188 447.181L199.255 444.967Z" fill="white" stroke="#263238" stroke-miterlimit="10" stroke-linecap="round" stroke-linejoin="round"/>
<path d="M210.914 444.524L215.047 441.129" stroke="#263238" stroke-miterlimit="10" stroke-linecap="round" stroke-linejoin="round"/>
<path d="M205.604 451.166C205.604 451.166 206.637 453.38 204.866 454.709C203.094 456.038 191.432 453.823 191.58 452.199C191.728 450.575 197.19 447.18 197.19 447.18C197.19 447.18 201.618 448.066 205.604 451.166Z" fill="white" stroke="#263238" stroke-miterlimit="10" stroke-linecap="round" stroke-linejoin="round"/>
<path d="M293.414 429.023L293.709 445.409L280.275 445.704L279.094 427.842L293.414 429.023Z" fill="white" stroke="#263238" stroke-miterlimit="10" stroke-linecap="round" stroke-linejoin="round"/>
<path d="M279.355 430.885V433.314L293.604 433.152L293.442 429.59L279.031 429.428L279.355 430.885Z" fill="#263238" stroke="#263238" stroke-miterlimit="10" stroke-linecap="round" stroke-linejoin="round"/>
<path d="M287.064 441.129C287.064 441.129 288.836 434.191 291.493 434.043C294.15 433.895 295.479 435.962 296.512 437.881C297.545 439.8 304.041 446.296 306.255 447.92C308.469 449.544 313.341 451.611 314.079 456.335C314.817 461.059 312.012 462.978 310.093 463.421C308.174 463.864 299.464 464.011 294.297 463.421C289.13 462.83 275.032 464.233 274.22 463.421C273.408 462.609 272.301 460.026 273.039 458.254C273.777 456.482 275.106 454.563 275.106 454.563C275.106 454.563 273.63 450.282 274.515 447.92C275.401 445.558 277.172 442.605 276.877 441.277C276.582 439.948 273.334 437.143 275.548 436.996C277.762 436.848 281.305 439.506 283.52 440.244C285.736 440.981 287.064 441.129 287.064 441.129Z" fill="#263238" stroke="#263238" stroke-miterlimit="10" stroke-linecap="round" stroke-linejoin="round"/>
<path d="M277.615 455.152C279.682 455.447 287.654 459.286 292.673 460.467C297.692 461.648 302.121 461.796 304.483 460.615C306.845 459.434 308.912 455.891 310.683 453.677C312.455 451.463 313.931 457.072 313.931 457.072L314.176 457.181C314.472 461.29 311.893 463.005 310.093 463.42C308.174 463.863 299.464 464.01 294.297 463.42C289.13 462.829 275.032 464.232 274.22 463.42C273.408 462.608 272.301 460.025 273.039 458.253C273.777 456.481 275.106 454.562 275.106 454.562C275.992 454.414 275.549 454.857 277.615 455.152Z" fill="white" stroke="#263238" stroke-miterlimit="10" stroke-linecap="round" stroke-linejoin="round"/>
<path d="M299.169 442.014C299.169 442.014 295.183 441.128 290.164 446L292.821 448.214C292.821 448.214 297.988 444.228 301.236 444.228L299.169 442.014Z" fill="white" stroke="#263238" stroke-miterlimit="10" stroke-linecap="round" stroke-linejoin="round"/>
<path d="M302.864 444.967C302.864 444.967 298.878 444.081 293.859 448.953L296.516 451.167C296.516 451.167 301.683 447.181 304.931 447.181L302.864 444.967Z" fill="white" stroke="#263238" stroke-miterlimit="10" stroke-linecap="round" stroke-linejoin="round"/>
<path d="M291.197 444.524L287.062 441.129" stroke="#263238" stroke-miterlimit="10" stroke-linecap="round" stroke-linejoin="round"/>
<path d="M296.51 451.166C296.51 451.166 295.477 453.38 297.248 454.709C299.019 456.038 310.682 453.823 310.534 452.199C310.386 450.575 304.924 447.18 304.924 447.18C304.924 447.18 300.496 448.066 296.51 451.166Z" fill="white" stroke="#263238" stroke-miterlimit="10" stroke-linecap="round" stroke-linejoin="round"/>
<path d="M214.872 256.031C214.872 256.031 207.062 287.924 204.133 314.935C201.204 341.946 196.648 430.465 196.648 430.465H232.446C232.446 430.465 243.185 340.645 244.813 324.698C246.44 308.752 246.44 298.663 246.44 298.663L266.617 430.465H309.249C309.249 430.465 292.977 346.828 286.468 308.427C279.959 270.025 270.847 255.055 270.847 255.055L214.872 256.031Z" fill="#B0B0B0" stroke="#263238" stroke-miterlimit="10" stroke-linecap="round" stroke-linejoin="round"/>
<path d="M245.46 258.309C245.151 259.235 236.673 271.977 239.277 272.954C241.881 273.93 246.762 273.93 246.762 271.327C246.762 268.723 246.762 260.913 246.762 260.913C246.762 260.913 247.413 275.558 250.342 274.907C253.271 274.256 257.176 274.907 256.2 271.653C255.224 268.399 247.739 257.985 247.739 257.985C247.739 257.985 246.436 255.38 245.46 258.309Z" fill="#B0B0B0" stroke="#263238" stroke-miterlimit="10" stroke-linecap="round" stroke-linejoin="round"/>
<path d="M246.805 259.377C246.805 259.377 254.188 269.857 253.474 270.809C252.759 271.762 251.807 272.714 251.092 271.285C250.378 269.857 246.805 259.377 246.805 259.377Z" stroke="#263238" stroke-miterlimit="10"/>
<path d="M246.563 258.186C246.563 258.186 241.085 269.857 241.799 270.333C242.514 270.809 244.181 270.809 244.657 269.142C245.134 267.475 246.563 258.186 246.563 258.186Z" stroke="#263238" stroke-miterlimit="10"/>
<path d="M268.812 291.445C269.113 293.102 269.365 294.658 269.549 296.059" stroke="#263238" stroke-miterlimit="10" stroke-linecap="round" stroke-linejoin="round"/>
<path d="M261.086 259.285C261.086 259.285 265.147 273.788 267.753 286.099" stroke="#263238" stroke-miterlimit="10" stroke-linecap="round" stroke-linejoin="round"/>
<path d="M258.156 259.285C258.156 259.285 260.76 277.509 262.061 282.391" stroke="#263238" stroke-miterlimit="10" stroke-linecap="round" stroke-linejoin="round"/>
<path d="M222.737 284.52C222.601 285.781 222.473 286.933 222.359 287.924" stroke="#263238" stroke-miterlimit="10" stroke-linecap="round" stroke-linejoin="round"/>
<path d="M225.283 259.285C225.283 259.285 224.205 270.424 223.25 279.62" stroke="#263238" stroke-miterlimit="10" stroke-linecap="round" stroke-linejoin="round"/>
<path d="M222.685 259.938L221.383 275.557" stroke="#263238" stroke-miterlimit="10" stroke-linecap="round" stroke-linejoin="round"/>
<path d="M245.49 126.496C245.49 126.496 257.622 127.709 254.791 133.978C251.96 140.247 249.129 141.46 248.522 141.46C247.915 141.46 243.062 133.978 243.062 133.978L245.49 126.496Z" fill="#263238" stroke="#263238" stroke-miterlimit="10" stroke-linecap="round" stroke-linejoin="round"/>
<path d="M244.072 132.36C244.072 132.36 248.723 134.989 250.138 139.842C251.553 144.695 255.193 146.11 256.204 145.908C257.215 145.706 258.63 148.739 257.417 150.761C256.204 152.783 256.204 152.783 256.204 152.783C256.204 152.783 257.215 166.533 256.002 168.353C254.789 170.173 247.307 169.162 247.307 169.162C247.307 169.162 245.689 175.633 247.105 179.677C248.52 183.721 252.767 185.743 254.384 185.743C256.001 185.743 259.439 183.721 264.09 186.147C268.741 188.573 284.311 200.302 284.311 200.302L276.02 222.95L267.123 218.299L273.391 256.921L212.728 258.336C212.728 258.336 213.335 230.835 211.717 225.78C210.099 220.725 207.471 216.074 207.471 216.074L199.787 222.14L189.07 203.537C189.07 203.537 204.842 187.765 211.111 186.349C217.379 184.934 224.861 186.753 227.288 183.72C229.714 180.687 227.692 166.33 227.692 166.33C227.692 166.33 221.828 164.308 218.39 153.995C214.952 143.682 226.681 132.965 226.681 132.965C226.681 132.965 231.939 127.507 244.072 132.36Z" fill="white" stroke="#263238" stroke-miterlimit="10" stroke-linecap="round" stroke-linejoin="round"/>
<path d="M247.31 169.162L241.844 168.236L246.234 173.285L247.31 169.162Z" fill="#263238" stroke="#263238" stroke-miterlimit="10" stroke-linecap="round" stroke-linejoin="round"/>
<path d="M244.742 143.307C244.742 143.307 244.742 139.465 248.18 139.465" stroke="#263238" stroke-width="2" stroke-miterlimit="10" stroke-linecap="round" stroke-linejoin="round"/>
<path d="M253.778 157.231L246.701 153.793C246.701 153.793 246.094 161.073 248.723 160.87C251.352 160.669 253.778 157.231 253.778 157.231Z" fill="#263238" stroke="#263238" stroke-miterlimit="10" stroke-linecap="round" stroke-linejoin="round"/>
<path d="M246.852 147.061C246.852 147.061 249.131 144.593 251.029 146.681" stroke="#263238" stroke-miterlimit="10" stroke-linecap="round" stroke-linejoin="round"/>
<path d="M246.648 156.104L253.012 158.172C253.49 157.636 253.778 157.231 253.778 157.231L246.701 153.793C246.701 153.793 246.615 154.827 246.648 156.104Z" fill="white" stroke="#263238" stroke-miterlimit="10" stroke-linecap="round" stroke-linejoin="round"/>
<path d="M207.069 141.055C207.069 141.055 202.62 131.955 196.352 132.967C190.084 133.978 185.23 140.853 187.252 150.559C187.252 150.559 188.263 153.188 189.072 155.412C189.072 155.412 181.186 152.986 176.939 158.243C172.693 163.5 175.928 168.96 180.781 171.589C185.634 174.218 188.465 174.015 188.465 174.015C188.465 174.015 177.748 177.25 181.59 181.294C185.432 185.338 197.16 182.71 194.734 179.272C192.307 175.834 190.488 176.239 190.488 176.239C190.488 176.239 200.194 172.599 199.183 169.97C198.172 167.341 193.319 165.319 193.319 165.319C193.319 165.319 202.621 168.554 207.676 165.521C212.731 162.488 208.283 149.546 208.283 149.546L207.069 141.055Z" fill="#263238" stroke="#263238" stroke-miterlimit="10" stroke-linecap="round" stroke-linejoin="round"/>
<path d="M247.711 122.048C247.711 122.048 249.329 127.71 246.498 132.563C243.667 137.416 237.601 145.707 236.792 155.008C235.983 164.31 238.612 175.836 240.23 179.678C241.848 183.52 238.208 184.329 235.579 184.127C232.95 183.925 231.939 182.307 231.939 178.667C231.939 175.027 231.13 168.556 231.13 168.556C231.13 168.556 220.817 167.545 215.964 164.714C211.111 161.883 204.034 152.177 207.067 141.056C210.1 129.934 218.189 126.699 223.042 124.677C227.895 122.655 234.568 122.857 239.219 121.846C243.869 120.835 247.509 119.621 247.711 122.048Z" fill="#263238" stroke="#263238" stroke-miterlimit="10" stroke-linecap="round" stroke-linejoin="round"/>
<path d="M232.948 150.357L231.128 157.636C231.128 157.636 227.286 155.816 226.679 152.581C226.072 149.346 230.723 147.728 233.958 150.559" fill="white"/>
<path d="M232.948 150.357L231.128 157.636C231.128 157.636 227.286 155.816 226.679 152.581C226.072 149.346 230.723 147.728 233.958 150.559" stroke="#263238" stroke-miterlimit="10" stroke-linecap="round" stroke-linejoin="round"/>
<path d="M291.996 161.883L289.367 162.085" stroke="#263238" stroke-miterlimit="10" stroke-linecap="round" stroke-linejoin="round"/>
<path d="M273.082 156.044L340.475 165.471L331.318 115.615L271 144.655L273.082 156.044Z" fill="#1E775B" stroke="#263238" stroke-miterlimit="10" stroke-linecap="round" stroke-linejoin="round"/>
<path d="M270.994 144.669L260.977 146.5L263.048 157.835L273.065 156.004L270.994 144.669Z" fill="#1E775B" stroke="#263238" stroke-miterlimit="10" stroke-linecap="round" stroke-linejoin="round"/>
<path d="M284.31 200.303C284.31 200.303 268.74 188.575 264.089 186.148C259.502 183.755 256.098 185.686 254.454 185.739C251.899 189.402 245.952 195.593 234.971 195.45C221.67 195.277 217.963 187.879 217.165 185.724C215.156 185.781 213.074 185.907 211.111 186.35C204.842 187.765 189.07 203.538 189.07 203.538L199.787 222.141L207.471 216.075C207.471 216.075 210.1 220.726 211.717 225.781C213.335 230.836 212.728 258.337 212.728 258.337L273.391 256.922L267.123 218.3L276.02 222.951L284.31 200.303Z" fill="#263238" stroke="#263238" stroke-miterlimit="10" stroke-linecap="round" stroke-linejoin="round"/>
<path d="M245.934 238.801C255.962 236.413 262.155 226.349 259.768 216.322C257.381 206.294 247.317 200.101 237.289 202.488C227.262 204.875 221.068 214.939 223.455 224.967C225.843 234.994 235.907 241.188 245.934 238.801Z" stroke="white" stroke-miterlimit="10"/>
<path d="M253.008 212.197H230.883L241.788 222.71L253.008 212.197Z" fill="#1E775B"/>
<path d="M246.219 220.385L253.922 227.192V213.168L246.219 220.385Z" fill="#1E775B"/>
<path d="M237.442 220.372L229.641 212.852V226.872L237.442 220.372Z" fill="#1E775B"/>
<path d="M245.241 221.301L241.774 224.549L238.407 221.302L230.289 228.067H252.897L245.241 221.301Z" fill="#1E775B"/>
<path d="M30.3125 463.809H470.628" stroke="#263238" stroke-miterlimit="10"/>
</svg>
