<svg width="469" height="378" viewBox="0 0 469 378" fill="none" xmlns="http://www.w3.org/2000/svg">
<path d="M228.151 377.612C354.155 377.612 456.302 365.385 456.302 350.301C456.302 335.218 354.155 322.99 228.151 322.99C102.147 322.99 0 335.218 0 350.301C0 365.385 102.147 377.612 228.151 377.612Z" fill="#0A5840" fill-opacity="0.3"/>
<path d="M172.022 22.141C172.022 23.219 171.582 24.203 170.867 24.914C170.16 25.63 169.177 26.07 168.098 26.07H84.1154C81.9584 26.07 80.1914 24.303 80.1914 22.141C80.1914 21.062 80.6314 20.079 81.3464 19.368C82.0534 18.652 83.0364 18.212 84.1154 18.212H88.0844C89.6524 14.569 93.2724 12.023 97.4864 12.023C100.322 12.023 102.887 13.178 104.745 15.041C107.219 10.845 111.782 8.02695 117.007 8.02695C118.444 8.02695 119.826 8.24395 121.131 8.63895C123.863 3.50095 129.265 0.00195312 135.491 0.00195312C142.968 0.00195312 149.257 5.04995 151.156 11.919C152.533 11.23 154.088 10.836 155.737 10.836C160.4 10.836 164.333 13.949 165.57 18.213H168.099C170.255 18.213 172.022 19.98 172.022 22.141Z" fill="#0A5840" fill-opacity="0.3"/>
<path d="M436.08 47.2396C436.08 48.3186 435.641 49.3016 434.925 50.0126C434.218 50.7286 433.235 51.1686 432.156 51.1686H348.174C346.017 51.1686 344.25 49.4016 344.25 47.2396C344.25 46.1606 344.689 45.1776 345.405 44.4666C346.112 43.7506 347.095 43.3106 348.174 43.3106H352.143C353.711 39.6676 357.331 37.1206 361.545 37.1206C364.381 37.1206 366.946 38.2756 368.804 40.1386C371.278 35.9426 375.841 33.1246 381.066 33.1246C382.502 33.1246 383.885 33.3416 385.19 33.7366C387.922 28.5986 393.324 25.0996 399.55 25.0996C407.027 25.0996 413.316 30.1476 415.215 37.0166C416.592 36.3276 418.147 35.9336 419.796 35.9336C424.459 35.9336 428.392 39.0466 429.629 43.3106H432.158C434.313 43.3116 436.08 45.0786 436.08 47.2396Z" fill="#0A5840" fill-opacity="0.3"/>
<path d="M340.194 22.14C340.194 23.219 339.754 24.202 339.039 24.913C338.332 25.629 337.349 26.069 336.27 26.069H252.287C250.13 26.069 248.363 24.302 248.363 22.14C248.363 21.062 248.803 20.078 249.518 19.367C250.225 18.651 251.208 18.211 252.287 18.211H256.257C257.825 14.568 261.445 12.021 265.659 12.021C268.496 12.021 271.06 13.176 272.918 15.039C275.392 10.843 279.955 8.025 285.18 8.025C286.616 8.025 287.998 8.242 289.303 8.637C292.035 3.499 297.437 0 303.663 0C311.14 0 317.429 5.048 319.328 11.918C320.705 11.229 322.26 10.835 323.909 10.835C328.572 10.835 332.505 13.948 333.742 18.212H336.271C338.427 18.212 340.194 19.979 340.194 22.14Z" fill="#0A5840" fill-opacity="0.3"/>
<path d="M76.1607 104.305C76.0537 104.44 75.9437 104.566 75.8297 104.678C72.5797 107.898 66.9467 95.5695 72.1527 83.2315C77.3587 70.8935 73.0697 54.5935 66.0877 53.9585C59.1067 53.3235 65.1757 64.1675 56.1767 62.5035C47.1777 60.8395 45.7917 36.8665 34.1777 38.1895C24.0137 39.3455 30.5277 57.1015 35.5767 64.5825C40.3407 71.6445 38.9267 78.8255 33.5777 77.2555C28.2307 75.6875 22.8857 83.1105 30.8467 94.6385C38.8077 106.166 49.5897 117.641 44.4007 118.964C39.2117 120.289 28.4167 108.956 23.8187 122.368C21.7637 128.363 34.8237 149.107 63.8117 150.749L76.1607 137.374V104.305Z" fill="#0A5840" fill-opacity="0.3"/>
<path d="M72.7656 137.374C60.5286 104.895 39.9596 55.133 39.7096 54.528C39.5516 54.147 39.7316 53.708 40.1146 53.549C40.4976 53.391 40.9346 53.574 41.0936 53.956C41.3446 54.566 62.1406 104.87 74.3666 137.373L72.7656 137.374Z" fill="#BEFAE8"/>
<path d="M54.5242 89.8043C54.4012 89.7933 54.2802 89.7513 54.1712 89.6773C53.8292 89.4443 53.7412 88.9783 53.9732 88.6363C54.0382 88.5413 60.4392 79.0993 62.3392 72.2903C62.4502 71.8913 62.8642 71.6583 63.2622 71.7703C63.6602 71.8813 63.8942 72.2943 63.7822 72.6933C61.8152 79.7413 55.4802 89.0863 55.2112 89.4813C55.0532 89.7133 54.7862 89.8283 54.5242 89.8043Z" fill="#BEFAE8"/>
<path d="M57.2783 97.7938C57.2633 97.7928 57.2483 97.7908 57.2333 97.7888C56.7743 97.7198 45.9183 96.0438 38.5613 92.0158C38.1983 91.8168 38.0653 91.3618 38.2643 90.9988C38.4633 90.6358 38.9183 90.5028 39.2813 90.7018C46.4023 94.6008 57.3483 96.2918 57.4583 96.3078C57.8673 96.3698 58.1483 96.7518 58.0863 97.1608C58.0263 97.5538 57.6703 97.8288 57.2783 97.7938Z" fill="#BEFAE8"/>
<path d="M76.1619 120.828C73.0039 124.62 69.6269 127.541 69.5699 127.59C69.2559 127.86 69.2199 128.332 69.4889 128.646C69.6209 128.8 69.8019 128.888 69.9889 128.905C70.1839 128.923 70.3849 128.865 70.5449 128.728C70.7549 128.548 73.3739 126.283 76.1619 123.142V120.828Z" fill="#BEFAE8"/>
<path d="M60.6493 135.356C56.3813 134.967 51.6843 134.15 47.8193 132.505C47.4383 132.343 47.2613 131.903 47.4233 131.522C47.5853 131.141 48.0253 130.964 48.4063 131.126C57.6283 135.051 72.3923 134.058 72.5403 134.047C72.9513 134.017 73.3113 134.329 73.3403 134.741C73.3693 135.154 73.0583 135.512 72.6463 135.541C72.2773 135.569 66.9303 135.928 60.6493 135.356Z" fill="#BEFAE8"/>
<path d="M394.258 278.997C394.365 279.132 394.475 279.257 394.589 279.37C397.839 282.59 403.472 270.261 398.266 257.923C393.06 245.585 397.349 229.285 404.331 228.65C411.312 228.015 405.243 238.859 414.242 237.195C423.241 235.531 424.628 211.558 436.241 212.881C446.405 214.037 439.891 231.793 434.842 239.274C430.078 246.336 431.492 253.517 436.841 251.947C442.188 250.379 447.533 257.802 439.572 269.33C431.611 280.858 420.829 292.332 426.018 293.655C431.207 294.981 442.002 283.649 446.6 297.06C448.656 303.054 444.215 308.202 438.676 312.066H394.258V278.997Z" fill="#0A5840" fill-opacity="0.3"/>
<path d="M397.656 312.065C409.893 279.586 430.462 229.825 430.712 229.219C430.87 228.838 430.69 228.399 430.307 228.24C429.924 228.082 429.487 228.265 429.328 228.648C429.077 229.257 408.281 279.562 396.055 312.065H397.656Z" fill="#BEFAE8"/>
<path d="M415.892 264.496C416.015 264.485 416.136 264.443 416.245 264.369C416.587 264.136 416.675 263.67 416.443 263.328C416.378 263.234 409.977 253.791 408.077 246.982C407.966 246.583 407.551 246.35 407.154 246.462C406.756 246.573 406.522 246.986 406.633 247.385C408.6 254.433 414.935 263.778 415.204 264.172C415.364 264.405 415.63 264.52 415.892 264.496Z" fill="#BEFAE8"/>
<path d="M413.14 272.485C413.155 272.484 413.17 272.482 413.185 272.48C413.644 272.411 424.5 270.735 431.857 266.707C432.22 266.509 432.353 266.053 432.155 265.69C431.956 265.327 431.501 265.194 431.138 265.393C424.017 269.292 413.071 270.983 412.961 270.999C412.552 271.061 412.271 271.443 412.333 271.852C412.392 272.245 412.749 272.52 413.14 272.485Z" fill="#BEFAE8"/>
<path d="M394.258 295.52C397.416 299.312 400.793 302.233 400.85 302.282C401.164 302.552 401.2 303.025 400.931 303.339C400.799 303.493 400.618 303.58 400.431 303.598C400.236 303.616 400.035 303.558 399.875 303.421C399.665 303.241 397.046 300.976 394.258 297.835V295.52Z" fill="#BEFAE8"/>
<path d="M409.771 310.048C414.039 309.66 418.736 308.842 422.601 307.197C422.982 307.035 423.159 306.595 422.997 306.214C422.835 305.833 422.395 305.656 422.014 305.818C412.791 309.743 398.028 308.75 397.88 308.739C397.468 308.709 397.109 309.021 397.08 309.433C397.051 309.846 397.361 310.204 397.774 310.233C398.144 310.261 403.49 310.62 409.771 310.048Z" fill="#BEFAE8"/>
<path d="M441.244 117.766C445.4 100.998 452.426 85.8869 459.056 92.6609C465.693 99.4409 453.111 125.215 435.739 138.91L430.944 144.982C443.43 134.78 462.896 129.376 467.734 135.809C472.541 142.202 459.257 144.623 446.755 144.811C437.238 144.954 431.04 147.228 428.013 148.693L405.364 177.371C425.183 161.272 455.917 152.773 463.572 162.953C471.2 173.097 450.121 176.938 430.283 177.236C415.292 177.461 405.485 181.021 400.644 183.347L396.128 189.065C395.014 188.437 393.903 187.804 392.797 187.163L419.743 153.045C420.095 149.402 420.048 144.221 418.595 137.686C415.88 125.48 415.157 111.997 422.49 115.192C428.854 117.965 429.175 133.36 424.635 146.851L433.954 135.052C436.212 130.91 439.45 125.003 441.244 117.766Z" fill="#0A5840" fill-opacity="0.3"/>
<path d="M234.426 39.7054C234.827 22.4344 232.024 6.00743 223.845 10.7984C215.658 15.5934 221.017 43.7694 234.175 61.5524L237.204 68.6714C227.841 55.5444 210.482 45.2094 204.123 50.1444C197.803 55.0474 209.983 60.8774 221.996 64.3474C231.14 66.9884 236.521 70.8134 239.056 73.0234L253.363 106.649C238.477 85.9044 211.061 69.6194 200.998 77.4274C190.97 85.2074 210.296 94.4584 229.357 99.9644C243.761 104.125 252.286 110.139 256.345 113.657L259.198 120.362C260.438 120.05 261.676 119.73 262.912 119.403L245.89 79.3984C246.509 75.7904 247.917 70.8044 251.037 64.8824C256.867 53.8204 261.112 41.0024 253.196 42.1554C246.327 43.1564 241.967 57.9254 242.799 72.1354L236.912 58.3004C235.823 53.7094 234.253 47.1594 234.426 39.7054Z" fill="#0A5840" fill-opacity="0.3"/>
<path d="M31.1421 231.281C26.9861 214.513 19.9601 199.402 13.3301 206.176C6.69311 212.956 19.2741 238.73 36.6471 252.426L41.4421 258.498C28.9561 248.296 9.49011 242.892 4.65211 249.325C-0.154889 255.718 13.1291 258.139 25.6311 258.327C35.1481 258.471 41.3461 260.745 44.3731 262.21L67.0221 290.888C47.2031 274.789 16.4691 266.29 8.81411 276.47C1.18611 286.614 22.2651 290.455 42.1031 290.753C57.0941 290.978 66.9011 294.538 71.7421 296.864L76.2581 302.582C77.3721 301.954 78.4831 301.321 79.5891 300.68L52.6431 266.562C52.2911 262.918 52.3371 257.738 53.7911 251.203C56.5061 238.998 57.2291 225.514 49.8961 228.709C43.5321 231.482 43.2111 246.877 47.7511 260.368L38.4321 248.57C36.1731 244.426 32.9361 238.518 31.1421 231.281Z" fill="#0A5840" fill-opacity="0.3"/>
<path d="M406.523 116.682V305.555C406.523 313.341 400.212 319.652 392.423 319.652H70.5414C62.7534 319.652 56.4414 313.341 56.4414 305.555V116.682C56.4414 108.894 62.7524 102.582 70.5414 102.582H392.423C400.211 102.582 406.523 108.893 406.523 116.682Z" fill="#06402E"/>
<path d="M406.522 211.115V305.553C406.522 313.34 400.21 319.651 392.423 319.651H70.5394C62.7524 319.651 56.4414 313.339 56.4414 305.553V211.115H406.522Z" fill="#011B13"/>
<path d="M390.971 126.281V295.953C390.971 300.945 386.924 304.994 381.933 304.994H81.0332C78.3652 304.994 75.9652 303.837 74.3112 301.991C72.8672 300.396 71.9922 298.274 71.9922 295.952V126.281C71.9922 121.289 76.0412 117.24 81.0332 117.24H381.933C383.602 117.24 385.163 117.693 386.506 118.484C389.176 120.054 390.971 122.961 390.971 126.281Z" fill="white"/>
<path d="M390.971 126.281V295.953C390.971 300.945 386.924 304.994 381.933 304.994H81.0332C78.3652 304.994 75.9652 303.837 74.3112 301.991C72.8672 300.396 71.9922 298.274 71.9922 295.952V126.281C71.9922 121.289 76.0412 117.24 81.0332 117.24H381.933C383.602 117.24 385.163 117.693 386.506 118.484C389.176 120.054 390.971 122.961 390.971 126.281Z" fill="white"/>
<path d="M82.1797 189.525C82.1797 190.878 83.2757 191.974 84.6287 191.974H136.571C137.924 191.974 139.02 190.878 139.02 189.525C139.02 188.172 137.924 187.076 136.571 187.076H84.6287C83.2767 187.076 82.1797 188.173 82.1797 189.525Z" fill="#0A5840" fill-opacity="0.3"/>
<path d="M82.1797 202.023C82.1797 203.376 83.2757 204.472 84.6287 204.472H136.571C137.924 204.472 139.02 203.376 139.02 202.023C139.02 200.67 137.924 199.574 136.571 199.574H84.6287C83.2767 199.574 82.1797 200.67 82.1797 202.023Z" fill="#0A5840" fill-opacity="0.3"/>
<path d="M82.1797 214.186C82.1797 215.353 83.2617 216.3 84.5957 216.3H135.835C137.169 216.3 138.251 215.354 138.251 214.186C138.251 213.019 137.169 212.072 135.835 212.072H84.5957C83.2617 212.072 82.1797 213.019 82.1797 214.186Z" fill="#0A5840" fill-opacity="0.3"/>
<path d="M82.1797 232.869C82.1797 234.222 83.2757 235.318 84.6287 235.318H136.571C137.924 235.318 139.02 234.222 139.02 232.869C139.02 231.516 137.924 230.42 136.571 230.42H84.6287C83.2767 230.42 82.1797 231.517 82.1797 232.869Z" fill="#0A5840" fill-opacity="0.3"/>
<path d="M82.1797 245.367C82.1797 246.72 83.2757 247.816 84.6287 247.816H136.571C137.924 247.816 139.02 246.72 139.02 245.367C139.02 244.014 137.924 242.918 136.571 242.918H84.6287C83.2767 242.918 82.1797 244.014 82.1797 245.367Z" fill="#0A5840" fill-opacity="0.3"/>
<path d="M82.1797 257.865C82.1797 259.218 83.2757 260.314 84.6287 260.314H136.571C137.924 260.314 139.02 259.218 139.02 257.865C139.02 256.512 137.924 255.416 136.571 255.416H84.6287C83.2767 255.416 82.1797 256.513 82.1797 257.865Z" fill="#0A5840" fill-opacity="0.3"/>
<path d="M323.586 189.525C323.586 190.878 324.682 191.974 326.035 191.974H377.977C379.33 191.974 380.426 190.878 380.426 189.525C380.426 188.172 379.33 187.076 377.977 187.076H326.035C324.683 187.076 323.586 188.173 323.586 189.525Z" fill="#0A5840" fill-opacity="0.3"/>
<path d="M323.586 202.023C323.586 203.376 324.682 204.472 326.035 204.472H377.977C379.33 204.472 380.426 203.376 380.426 202.023C380.426 200.67 379.33 199.574 377.977 199.574H326.035C324.683 199.574 323.586 200.67 323.586 202.023Z" fill="#0A5840" fill-opacity="0.3"/>
<path d="M323.586 214.186C323.586 215.353 324.668 216.3 326.002 216.3H377.241C378.575 216.3 379.657 215.354 379.657 214.186C379.657 213.019 378.575 212.072 377.241 212.072H326.002C324.668 212.072 323.586 213.019 323.586 214.186Z" fill="#0A5840" fill-opacity="0.3"/>
<path d="M323.586 232.869C323.586 234.222 324.682 235.318 326.035 235.318H377.977C379.33 235.318 380.426 234.222 380.426 232.869C380.426 231.516 379.33 230.42 377.977 230.42H326.035C324.683 230.42 323.586 231.517 323.586 232.869Z" fill="#0A5840" fill-opacity="0.3"/>
<path d="M323.586 245.367C323.586 246.72 324.682 247.816 326.035 247.816H377.977C379.33 247.816 380.426 246.72 380.426 245.367C380.426 244.014 379.33 242.918 377.977 242.918H326.035C324.683 242.918 323.586 244.014 323.586 245.367Z" fill="#0A5840" fill-opacity="0.3"/>
<path d="M323.586 257.865C323.586 259.218 324.682 260.314 326.035 260.314H377.977C379.33 260.314 380.426 259.218 380.426 257.865C380.426 256.512 379.33 255.416 377.977 255.416H326.035C324.683 255.416 323.586 256.513 323.586 257.865Z" fill="#0A5840" fill-opacity="0.3"/>
<path d="M390.971 126.281V135.716H71.9922V126.281C71.9922 121.289 76.0412 117.24 81.0332 117.24H381.933C383.602 117.24 385.163 117.693 386.506 118.484C389.176 120.054 390.971 122.961 390.971 126.281Z" fill="#0A5840" fill-opacity="0.3"/>
<path d="M389.341 121.11H73.625C75.255 118.771 77.966 117.242 81.036 117.242H381.934C385.003 117.242 387.715 118.771 389.341 121.11Z" fill="#03261B"/>
<path d="M357.871 127.442C357.871 129.187 356.456 130.602 354.711 130.602C352.965 130.602 351.551 129.187 351.551 127.442C351.551 125.697 352.966 124.281 354.711 124.281C356.456 124.281 357.871 125.696 357.871 127.442Z" fill="#0A5840"/>
<path d="M368.114 127.442C368.114 129.187 366.699 130.602 364.954 130.602C363.208 130.602 361.793 129.187 361.793 127.442C361.793 125.697 363.208 124.281 364.954 124.281C366.699 124.281 368.114 125.696 368.114 127.442Z" fill="#06402E"/>
<path d="M377.859 127.442C377.859 129.187 376.444 130.602 374.699 130.602C372.954 130.602 371.539 129.187 371.539 127.442C371.539 125.697 372.954 124.281 374.699 124.281C376.444 124.281 377.859 125.696 377.859 127.442Z" fill="#0A5840"/>
<path d="M315.562 181.023V295.796H149.324V181.023H156.969L156.899 180.959L156.982 181.023H315.562Z" fill="#0A5840" fill-opacity="0.3"/>
<path d="M315.56 176.357H149.406V291.131H315.56V176.357Z" fill="#F8F9FF"/>
<path d="M315.56 172.154H149.406V286.928H315.56V172.154Z" fill="#0A5840"/>
<g opacity="0.5">
<path d="M160.826 210.857V260.77C160.826 262.431 159.48 263.777 157.819 263.777C156.158 263.777 154.812 262.431 154.812 260.77V210.857C154.812 209.196 156.158 207.85 157.819 207.85C159.479 207.85 160.826 209.196 160.826 210.857Z" fill="#0A5840"/>
</g>
<g opacity="0.5">
<path d="M160.826 195.581V200.633C160.826 202.294 159.48 203.64 157.819 203.64C156.158 203.64 154.812 202.294 154.812 200.633V195.581C154.812 193.921 156.158 192.574 157.819 192.574C159.48 192.574 160.826 193.921 160.826 195.581Z" fill="#0A5840"/>
</g>
<path d="M216.477 231.552L154.219 286.928H149.406V284.002L212.898 227.531L216.477 231.552Z" fill="#F8F9FF"/>
<path d="M315.561 284.391V286.928H310.313L248.055 231.552L251.634 227.531L315.561 284.391Z" fill="#F8F9FF"/>
<path d="M315.556 172.154L290.385 194.541L237.955 241.17C234.833 243.949 230.126 243.949 227.002 241.17L174.583 194.548L149.402 172.154H315.556Z" fill="#F8F9FF"/>
<path d="M290.384 153.817V194.54L274.409 208.747L268.903 213.645L260.357 221.245L254.851 226.143L246.305 233.743L240.799 238.641L237.955 241.17C234.833 243.949 230.126 243.949 227.002 241.17L224.158 238.641L218.652 233.743L210.106 226.143L204.599 221.245L196.053 213.645L190.547 208.747L174.582 194.548V153.817C174.582 150.149 177.554 147.176 181.223 147.176H283.744C287.412 147.176 290.384 150.149 290.384 153.817Z" fill="#0A5840" fill-opacity="0.3"/>
<path d="M216.532 163.032H188.475C187.253 163.032 186.262 162.041 186.262 160.819V160.346C186.262 159.124 187.253 158.133 188.475 158.133H216.531C217.753 158.133 218.744 159.124 218.744 160.346V160.819C218.745 162.042 217.754 163.032 216.532 163.032Z" fill="#BEFAE8"/>
<path d="M279.969 176.148H188.711C187.358 176.148 186.262 175.052 186.262 173.699C186.262 172.346 187.358 171.25 188.711 171.25H279.969C281.322 171.25 282.418 172.346 282.418 173.699C282.418 175.052 281.322 176.148 279.969 176.148Z" fill="#BEFAE8"/>
<path d="M279.969 188.646H188.711C187.358 188.646 186.262 187.55 186.262 186.197C186.262 184.844 187.358 183.748 188.711 183.748H279.969C281.322 183.748 282.418 184.844 282.418 186.197C282.418 187.549 281.322 188.646 279.969 188.646Z" fill="#BEFAE8"/>
<path d="M279.969 201.144H188.711C187.358 201.144 186.262 200.048 186.262 198.695C186.262 197.342 187.358 196.246 188.711 196.246H279.969C281.322 196.246 282.418 197.342 282.418 198.695C282.418 200.048 281.322 201.144 279.969 201.144Z" fill="#BEFAE8"/>
<path d="M274.41 208.746L268.903 213.643H196.054L190.547 208.746H274.41Z" fill="#BEFAE8"/>
<path d="M260.355 221.244L254.849 226.142H210.104L204.598 221.244H260.355Z" fill="#BEFAE8"/>
<path d="M246.305 233.742L240.799 238.64H224.158L218.652 233.742H246.305Z" fill="#BEFAE8"/>
<path d="M289.223 160.275H288.326C280.38 160.275 273.938 153.833 273.938 145.887V144.99C273.938 137.044 280.38 130.602 288.326 130.602H289.223C297.169 130.602 303.611 137.044 303.611 144.99V145.887C303.611 153.834 297.169 160.275 289.223 160.275Z" fill="#0A5840"/>
<path d="M291.844 160.275H290.947C283.001 160.275 276.559 153.833 276.559 145.887V144.99C276.559 137.044 283.001 130.602 290.947 130.602H291.844C299.79 130.602 306.232 137.044 306.232 144.99V145.887C306.232 153.834 299.79 160.275 291.844 160.275Z" fill="#0A5840"/>
<path d="M289.231 146.937L288.147 136.532H294.651L293.567 146.937H289.231ZM291.399 153.633C290.467 153.633 289.705 153.352 289.111 152.79C288.516 152.212 288.219 151.53 288.219 150.743C288.219 149.94 288.516 149.266 289.111 148.72C289.705 148.174 290.467 147.901 291.399 147.901C292.346 147.901 293.109 148.174 293.687 148.72C294.281 149.266 294.578 149.94 294.578 150.743C294.578 151.53 294.281 152.212 293.687 152.79C293.109 153.352 292.346 153.633 291.399 153.633Z" fill="white"/>
<path d="M439.226 312.104V313.311C439.226 319.319 437.299 324.876 434.027 329.395C429.038 336.296 420.919 340.785 411.751 340.785H51.2172C42.0492 340.785 33.9302 336.296 28.9412 329.395C25.6692 324.876 23.7422 319.319 23.7422 313.311V312.104H439.226Z" fill="#011B13"/>
<path d="M184.918 312.104V312.38C184.918 314.556 186.375 316.319 188.172 316.319H272.991C274.788 316.319 276.245 314.555 276.245 312.38V312.104H184.918Z" fill="white"/>
<path d="M434.027 329.395C429.038 336.296 420.919 340.786 411.751 340.786H51.2174C42.0494 340.786 33.9304 336.296 28.9414 329.395H434.027Z" fill="#03261B"/>
<path d="M55.3187 294.371L51.6797 302.159L59.3737 302.279L62.3417 295.192L55.3187 294.371Z" fill="#FAB083"/>
<path d="M54.1005 301.672C54.1005 301.672 52.5205 299.549 51.2655 299.64C50.0105 299.731 40.3295 307.428 37.0125 308.064C33.6955 308.7 34.0035 312.079 35.3915 312.079C39.3895 312.079 61.4065 311.919 61.4065 311.919C61.4065 311.919 62.1165 304.224 61.2715 301.871C60.4265 299.518 56.6945 302.229 54.1005 301.672Z" fill="#0A5840"/>
<path d="M48.7522 307.042C48.8692 307.077 49.0012 307.066 49.1152 307.001C49.3382 306.874 49.4152 306.591 49.2892 306.367C49.2472 306.292 48.2342 304.533 46.8702 303.846C45.0562 302.93 43.6422 303.955 43.5822 304C43.3762 304.152 43.3332 304.444 43.4862 304.65C43.6392 304.856 43.9302 304.899 44.1362 304.746C44.1742 304.718 45.1592 304.027 46.4512 304.677C47.5622 305.237 48.4722 306.812 48.4812 306.828C48.5432 306.936 48.6422 307.009 48.7522 307.042Z" fill="white"/>
<path d="M50.135 305.734C50.252 305.769 50.383 305.758 50.498 305.693C50.721 305.566 50.799 305.282 50.672 305.059C50.629 304.984 49.617 303.225 48.253 302.538C46.438 301.621 45.025 302.647 44.965 302.691C44.759 302.844 44.716 303.135 44.869 303.341C45.021 303.547 45.313 303.59 45.519 303.437C45.558 303.41 46.543 302.718 47.834 303.368C48.95 303.93 49.855 305.503 49.863 305.519C49.926 305.627 50.024 305.701 50.135 305.734Z" fill="white"/>
<path d="M46.8733 308.103C46.9913 308.138 47.1223 308.127 47.2363 308.062C47.4593 307.935 47.5373 307.651 47.4103 307.428C47.3673 307.354 46.3553 305.594 44.9913 304.907C43.1763 303.99 41.7633 305.016 41.7033 305.06C41.4973 305.213 41.4543 305.504 41.6073 305.71C41.7603 305.916 42.0513 305.959 42.2573 305.806C42.2963 305.778 43.2813 305.087 44.5723 305.737C45.6883 306.299 46.5933 307.872 46.6013 307.888C46.6643 307.996 46.7633 308.07 46.8733 308.103Z" fill="white"/>
<path d="M53.125 296.91L56.534 298.022L58.429 298.135L61.686 298.326C65.989 294.923 77.596 284.682 79.858 278.643C79.858 278.643 90.694 308.126 111.343 308.126C112.683 308.126 113.241 296.091 109.875 292.498C109.875 292.498 90.842 257.027 78.504 260.792C72.978 262.477 67.388 270.521 53.125 296.91Z" fill="#011B13"/>
<path d="M56.5352 298.021L58.4302 298.134C71.0962 288.543 76.9642 280.421 79.6652 275.219C79.7582 275.038 79.9102 274.98 80.0122 274.982C80.1002 274.985 80.1642 275.033 80.2052 275.136C86.2702 289.413 93.5491 297.982 98.5872 302.659C104.078 307.754 108.095 309.434 108.261 309.504L108.493 308.937L108.725 308.372C108.686 308.355 104.701 306.68 99.3592 301.708C94.4252 297.117 87.2922 288.697 81.3292 274.656C81.1022 274.116 80.6252 273.781 80.0582 273.759C79.4472 273.734 78.8752 274.086 78.5792 274.654C75.8562 279.9 69.8222 288.19 56.5352 298.021Z" fill="#03261B"/>
<path d="M65.1024 296.003C64.5604 297.017 63.6294 298.447 62.7394 299.139C62.7394 299.139 55.4454 298.803 51.8984 297.021L53.4894 293.312C53.4894 293.312 59.2954 295.432 65.1024 296.003Z" fill="#06402E"/>
<path d="M110.827 232.188C110.827 232.188 96.6917 249.061 90.7547 251.833C88.1487 253.05 85.5747 253.479 83.6737 253.547C83.0357 253.571 81.3757 253.436 81.2847 253.434C81.2767 253.434 81.2697 253.436 81.2697 253.436C74.2167 252.562 65.9267 250.439 55.5547 246.215L57.1007 241.411C57.1007 241.411 63.3327 242.735 70.9697 243.28C73.7857 243.478 80.2817 243.776 82.6837 244.164C83.2787 243.897 83.8647 243.608 84.4357 243.295C94.9757 237.606 101.932 226.023 101.932 226.023C105.268 227.275 109.098 229.615 110.827 232.188Z" fill="#0A5840"/>
<path d="M57.364 241.031C57.364 241.031 55.92 237.383 53.955 236.342C51.99 235.301 46.398 231.635 45.205 232.732C44.012 233.829 44.258 239.096 49.271 243.499C52.464 246.304 55.682 246.185 55.682 246.185L57.364 241.031Z" fill="#FAB083"/>
<path d="M44.8479 236.082L53.1019 243.793C53.4119 244.085 53.9719 244.168 54.3549 243.983L59.4139 241.537C59.5709 241.46 59.6739 241.35 59.7179 241.226L59.7299 241.186L59.9779 240.341L58.6359 239.833L45.6499 234.9L44.9459 234.635L44.6819 235.528L44.6619 235.59C44.6579 235.597 44.6569 235.604 44.6599 235.612C44.6289 235.768 44.6929 235.939 44.8479 236.082Z" fill="#011B13"/>
<path d="M54.6066 243.126L59.6676 240.679C60.0496 240.494 60.1076 240.111 59.7986 239.822L51.5436 232.111C51.2346 231.822 50.6746 231.737 50.2926 231.922L45.2316 234.369C44.8496 234.554 44.7916 234.937 45.1016 235.226L53.3556 242.937C53.6656 243.226 54.2256 243.31 54.6066 243.126Z" fill="#06402E"/>
<path d="M53.994 241.744L57.915 239.848C58.297 239.664 58.355 239.28 58.046 238.991L51.626 232.994C51.317 232.705 50.756 232.62 50.375 232.805L46.454 234.701C46.073 234.886 46.014 235.269 46.324 235.558L52.744 241.555C53.053 241.844 53.613 241.929 53.994 241.744Z" fill="#0A5840"/>
<path d="M54.0981 234.495C54.0981 234.495 52.9221 234.678 52.8021 235.689C52.6821 236.7 53.7761 236.298 54.4791 236.076C55.1821 235.854 55.8161 236.077 55.9121 236.191C56.2201 236.552 56.1671 234.195 54.0981 234.495Z" fill="#FAB083"/>
<path d="M48.8399 239.985C48.8399 239.985 46.9949 236.953 45.5809 235.297C44.6389 234.193 44.1579 235.794 44.8029 236.91C45.4479 238.026 46.7199 240.299 48.8399 239.985Z" fill="#FAB083"/>
<path d="M120.75 214.711C120.75 214.711 129.658 214.756 133.719 218.427C137.78 222.098 133.904 229.557 129.499 230.513C125.094 231.469 111.339 229.839 109.909 227.481C108.478 225.124 109.385 214.892 120.75 214.711Z" fill="#0A5840"/>
<path d="M134.799 294.652L139.129 266.73L138.19 228.211L127.83 224.708L127.274 224.52L124.949 223.734L123.103 223.111L112.165 224.618L110.385 224.862L109.757 224.949L101.932 226.026C101.858 250.782 104.235 256.129 99.6587 276.267C97.3587 283.859 105.807 310.76 134.799 294.652Z" fill="#0A5840"/>
<path d="M120.01 230.62C127.847 230.591 129.666 223.684 129.684 223.614C129.723 223.459 129.629 223.302 129.474 223.263C129.32 223.223 129.162 223.318 129.123 223.473C129.055 223.742 127.385 230.014 120.01 230.041C119.969 230.041 119.929 230.041 119.888 230.041C119.733 230.049 119.598 230.169 119.598 230.328C119.597 230.488 119.726 230.618 119.886 230.619C119.927 230.62 119.97 230.62 120.01 230.62Z" fill="#0A5840"/>
<path d="M112.645 229.539C112.802 229.538 112.931 229.412 112.933 229.254C112.935 229.095 112.808 228.963 112.649 228.96C112.546 228.958 110.267 228.866 109.678 225.786C109.648 225.629 109.498 225.526 109.34 225.556C109.183 225.586 109.08 225.738 109.111 225.894C109.792 229.455 112.611 229.538 112.64 229.538C112.64 229.538 112.643 229.539 112.645 229.539Z" fill="#0A5840"/>
<path d="M125.298 268.617C125.298 268.617 126.571 278.334 123.979 283.089C123.979 283.089 111.09 283.992 101.719 280.307C101.719 280.307 104.06 273.524 104.096 266.902L125.298 268.617Z" fill="#0A5840"/>
<path d="M118.415 258.333C118.423 258.333 118.432 258.333 118.44 258.332C118.599 258.318 118.717 258.177 118.702 258.018C118.054 250.814 120.753 232.627 120.78 232.444C120.804 232.286 120.695 232.139 120.537 232.115C120.379 232.091 120.232 232.2 120.208 232.358C120.18 232.542 117.471 250.797 118.126 258.069C118.14 258.22 118.266 258.334 118.415 258.333Z" fill="white"/>
<path d="M108.881 256.921C108.889 256.921 108.898 256.921 108.906 256.92C109.065 256.906 109.182 256.765 109.168 256.606C108.52 249.402 111.31 231.073 111.338 230.889C111.362 230.731 111.254 230.584 111.096 230.56C110.938 230.535 110.791 230.644 110.766 230.802C110.738 230.987 107.937 249.386 108.591 256.659C108.606 256.809 108.733 256.922 108.881 256.921Z" fill="white"/>
<path d="M145.996 304.4C145.996 304.4 142.787 308.752 143.051 311.003C143.316 313.255 146.222 317.498 148.545 317.703C150.868 317.908 145.876 312.25 147.054 312.433C148.48 312.654 158.105 320.551 160.137 320.551C162.168 320.551 157.747 316.881 156.025 315.953C156.025 315.953 160.579 317.99 161.639 319.05C162.699 320.11 163.468 317.837 158.17 314.613C158.17 314.613 163.03 317.372 163.361 317.416C164.442 317.56 161.358 313.944 158.702 312.636C158.702 312.636 162.598 314.533 162.994 314.541C163.542 314.553 162.367 313.278 159.475 311.675C156.874 310.233 152.611 303.613 152.611 303.613L145.996 304.4Z" fill="#FAB083"/>
<path d="M138.189 228.211C138.189 228.211 148.991 248.959 151.451 270.661L152.61 303.614C152.61 303.614 151.5 305.962 145.995 304.401L140.671 271.452L136.591 256.376C136.591 256.376 134.736 237.823 138.189 228.211Z" fill="#0A5840"/>
<path d="M105.012 205.779C106.16 212.27 112.352 216.603 118.843 215.455C125.334 214.308 129.666 208.115 128.519 201.624C127.371 195.133 121.179 190.801 114.688 191.948C108.197 193.095 103.865 199.287 105.012 205.779Z" fill="#03261B"/>
<path d="M104.833 203.636C104.833 203.636 101.342 203.305 101.21 199.997C101.098 197.181 104.643 198.393 103.979 196.295C103.315 194.196 102.339 192.354 105.024 191.325C107.373 190.425 107.708 192.084 110.473 189.102C113.74 185.579 117.807 191.68 121.209 191.284C126.226 190.699 127.35 193.397 128.235 195.557C129.12 197.717 127.488 199.631 127.488 199.631L104.833 203.636Z" fill="#03261B"/>
<path d="M107.567 208.718C107.567 208.718 105.266 206.565 104.245 208.862C103.223 211.159 106.252 216.876 109.38 214.797L107.567 208.718Z" fill="#FC8664"/>
<path d="M108.308 213.055C108.183 213.077 108.053 213.015 107.995 212.895C107.139 211.116 105.066 210.7 105.045 210.696C104.887 210.666 104.784 210.514 104.814 210.356C104.844 210.198 104.996 210.095 105.153 210.124C105.25 210.142 107.534 210.594 108.52 212.642C108.589 212.787 108.529 212.961 108.384 213.03C108.359 213.043 108.334 213.051 108.308 213.055Z" fill="#FD664D"/>
<path d="M106.185 212.457C106.132 212.466 106.076 212.461 106.022 212.439C105.874 212.377 105.804 212.206 105.866 212.058C105.876 212.033 106.127 211.449 106.788 211.001C106.92 210.911 107.102 210.946 107.192 211.079C107.282 211.212 107.248 211.393 107.114 211.483C106.603 211.829 106.404 212.279 106.403 212.283C106.363 212.378 106.279 212.441 106.185 212.457Z" fill="#FD664D"/>
<path d="M123.079 217.68L124.145 223.709C124.145 223.709 122.136 226.804 119.741 227.443C117.349 228.084 115.361 225.46 115.361 225.46L114.336 219.662L123.079 217.68Z" fill="#FAB083"/>
<path d="M123.078 217.68L123.551 220.355C122.24 222.454 119.422 223.419 115.022 223.544L114.336 219.663L123.078 217.68Z" fill="#FC8664"/>
<path d="M126.696 201.072C126.998 203.435 127.293 206.404 127.26 208.826C127.252 209.43 127.223 210.002 127.169 210.52C126.685 215.187 124.859 223.367 115.413 221.764C111.241 221.057 108.65 217.007 107.054 212.706C105.971 209.784 105.348 206.749 105.003 204.562C104.652 202.329 105.507 200.081 107.25 198.641C111.969 194.741 117.699 194.871 121.59 195.628C124.29 196.151 126.348 198.348 126.696 201.072Z" fill="#FAB083"/>
<path d="M112.174 208.715C112.288 209.359 112.048 209.939 111.639 210.011C111.23 210.083 110.806 209.62 110.692 208.977C110.578 208.334 110.818 207.753 111.227 207.681C111.636 207.608 112.06 208.071 112.174 208.715Z" fill="#03261B"/>
<path d="M120.85 207.18C120.964 207.824 120.724 208.404 120.315 208.476C119.906 208.548 119.482 208.085 119.368 207.442C119.254 206.798 119.494 206.218 119.903 206.146C120.312 206.074 120.736 206.537 120.85 207.18Z" fill="#03261B"/>
<path d="M108.393 205.693C108.393 205.693 111.262 203.929 113.818 204.535L113.815 205.672C113.815 205.672 111.142 205.553 108.79 206.937C108.541 206.457 108.284 206.251 108.393 205.693Z" fill="#03261B"/>
<path d="M122.505 203.198C122.505 203.198 119.206 202.524 117.012 203.97L117.405 205.037C117.405 205.037 119.875 204.008 122.559 204.502C122.627 203.967 122.798 203.686 122.505 203.198Z" fill="#03261B"/>
<path d="M117.091 212.575C117.574 212.489 118.02 212.217 118.089 212.173C118.224 212.087 118.265 211.908 118.179 211.772C118.094 211.636 117.914 211.595 117.778 211.681C117.538 211.832 116.946 212.106 116.648 211.993C116.59 211.971 116.509 211.922 116.46 211.751C116.18 210.769 115.861 207.368 115.858 207.334C115.843 207.174 115.701 207.057 115.542 207.072C115.381 207.086 115.264 207.228 115.279 207.388C115.292 207.53 115.606 210.878 115.901 211.911C116.012 212.3 116.256 212.466 116.441 212.537C116.645 212.614 116.872 212.614 117.091 212.575Z" fill="#FC8664"/>
<path d="M113.797 214.964C114.239 216.1 115.4 218.13 118.022 217.666C120.649 217.202 121.036 215.091 121.048 213.682L113.797 214.964Z" fill="white"/>
<path d="M118.249 219.169C118.99 219.038 119.552 218.551 119.576 218.531C119.697 218.425 119.709 218.241 119.603 218.121C119.497 218 119.313 217.988 119.193 218.094C119.189 218.098 118.726 218.495 118.148 218.597C117.618 218.691 117.057 218.476 117.051 218.474C116.902 218.415 116.733 218.487 116.673 218.637C116.614 218.786 116.686 218.955 116.836 219.015C116.865 219.026 117.549 219.293 118.249 219.169Z" fill="#FC8664"/>
<path d="M107.611 210.679C107.186 209.536 106.702 208.049 106.72 207.24C106.755 205.808 107.756 204.792 107.138 203.526C106.52 202.255 107.676 200.572 108.673 200.151C109.667 199.727 112.184 199.815 114.37 198.26C116.457 196.774 120.555 196.849 121.46 198.197C122.554 199.83 121.521 200.185 123.991 201.723C124.975 202.336 124.318 204.496 124.402 205.811C124.442 206.416 124.484 206.707 124.62 207.34L124.686 207.662L127.237 207.211C127.165 205.162 126.936 202.929 126.698 201.07C126.35 198.346 124.29 196.151 121.59 195.626C117.698 194.869 111.97 194.737 107.249 198.639C105.508 200.079 104.652 202.326 105.004 204.559C105.277 206.293 105.726 208.563 106.441 210.887L107.611 210.679Z" fill="#03261B"/>
<path d="M126.301 208.514C126.175 207.848 126.104 207.172 126.105 206.495C126.105 205.568 126.222 204.707 127.075 204.17C127.762 203.738 128.551 203.592 129.26 204.327C131.007 206.135 130.594 212.795 126.943 211.915L126.301 208.514Z" fill="#FAB083"/>
<path d="M127.27 209.938C127.388 209.892 127.467 209.771 127.454 209.638C127.26 207.673 128.815 206.24 128.83 206.226C128.949 206.118 128.958 205.934 128.851 205.815C128.744 205.696 128.56 205.686 128.441 205.794C128.368 205.86 126.652 207.433 126.875 209.696C126.891 209.856 127.033 209.972 127.193 209.957C127.22 209.953 127.246 209.947 127.27 209.938Z" fill="#FC8664"/>
<path d="M128.776 208.322C128.826 208.302 128.872 208.269 128.906 208.222C129 208.092 128.971 207.91 128.841 207.816C128.819 207.8 128.302 207.432 127.504 207.393C127.344 207.385 127.207 207.509 127.2 207.669C127.192 207.829 127.316 207.966 127.476 207.974C128.093 208.004 128.496 208.284 128.5 208.287C128.582 208.347 128.687 208.357 128.776 208.322Z" fill="#FC8664"/>
<path d="M135.523 300.896C135.335 301.749 135.007 302.621 134.505 303.489C132.994 306.098 129.896 308.701 124.144 310.792C112.221 315.123 89.4215 313.089 89.4215 313.089C89.6975 321.983 68.5015 351.946 68.5015 351.946L67.4605 351.273L66.4805 350.639L62.3945 347.997C62.3945 347.997 76.3955 297.668 85.9155 296.227C119.596 291.13 134.798 294.652 134.798 294.652C135.528 296.333 136.047 298.545 135.523 300.896Z" fill="#06402E"/>
<path d="M135.522 300.896C135.334 301.749 135.006 302.621 134.504 303.489C129.596 307.459 120.859 309.761 108.467 310.349C99.3154 310.78 90.9844 310.089 88.7824 309.88C86.6064 325.196 70.7834 346.863 67.4604 351.274C67.1454 351.692 66.9444 351.952 66.8754 352.042C66.7624 352.192 66.5894 352.269 66.4164 352.269C66.2924 352.269 66.1664 352.228 66.0604 352.145C65.8074 351.952 65.7614 351.586 65.9574 351.333C65.9754 351.31 66.1614 351.07 66.4804 350.64C69.6284 346.443 85.8974 324.108 87.7044 309.179C87.7404 308.862 88.0264 308.637 88.3414 308.671C88.7154 308.712 125.582 312.568 135.522 300.896Z" fill="#011B13"/>
<path d="M63.1822 347.996L58.1992 353.827L64.1502 357.391L68.5002 351.945L63.1822 347.996Z" fill="#FAB083"/>
<path d="M69.9855 351.826C69.2525 353.539 68.7415 354.091 67.5815 354.937C67.5815 354.937 63.8325 353.218 59.9805 349.859L62.3935 346.6C62.3935 346.6 65.2445 348.426 69.9855 351.826Z" fill="#0A5840"/>
<path d="M59.8886 354.229C59.8886 354.229 59.5826 351.601 58.4506 351.051C57.3186 350.502 45.0846 352.32 41.8946 351.21C38.7046 350.1 37.2806 353.179 38.4816 353.874C41.9426 355.875 61.0836 366.756 61.0836 366.756C61.0836 366.756 65.5486 360.449 65.9956 357.989C66.4446 355.53 61.8556 356.009 59.8886 354.229Z" fill="#0A5840"/>
<path d="M52.5673 356.201C52.6513 356.29 52.7703 356.346 52.9023 356.347C53.1593 356.348 53.3673 356.142 53.3703 355.885C53.3713 355.799 53.3743 353.769 52.5373 352.492C51.4253 350.791 49.6873 350.971 49.6143 350.98C49.3593 351.009 49.1763 351.24 49.2063 351.495C49.2353 351.75 49.4663 351.933 49.7213 351.903C49.7683 351.898 50.9673 351.792 51.7603 353.002C52.4423 354.043 52.4413 355.862 52.4413 355.88C52.4403 356.004 52.4883 356.117 52.5673 356.201Z" fill="white"/>
<path d="M54.4218 355.76C54.5058 355.849 54.6248 355.906 54.7568 355.907C55.0138 355.908 55.2228 355.701 55.2248 355.444C55.2258 355.358 55.2288 353.328 54.3928 352.051C53.2798 350.349 51.5428 350.53 51.4698 350.538C51.2148 350.567 51.0318 350.798 51.0618 351.053C51.0908 351.308 51.3208 351.491 51.5768 351.461C51.6238 351.457 52.8228 351.351 53.6158 352.56C54.3008 353.605 54.2958 355.42 54.2958 355.438C54.2948 355.563 54.3428 355.676 54.4218 355.76Z" fill="white"/>
<path d="M50.4111 356.18C50.4951 356.269 50.6141 356.325 50.7461 356.326C51.0031 356.327 51.2121 356.121 51.2141 355.864C51.2141 355.778 51.2181 353.748 50.3811 352.471C49.2691 350.769 47.5321 350.95 47.4581 350.958C47.2031 350.987 47.0201 351.218 47.0501 351.473C47.0791 351.728 47.3101 351.911 47.5651 351.881C47.6121 351.877 48.8121 351.771 49.6041 352.98C50.2881 354.025 50.2851 355.84 50.2841 355.858C50.2841 355.982 50.3321 356.096 50.4111 356.18Z" fill="white"/>
<path d="M335.197 345.148L333.805 351.514C333.805 351.514 337.62 354.344 340.315 352.812L341.717 346.596L335.197 345.148Z" fill="#FAB083"/>
<path d="M335.107 351.133C335.107 351.133 334.04 348.966 332.898 348.84C331.756 348.714 321.791 354.021 318.708 354.042C315.625 354.064 315.142 357.811 316.246 358.434C317.504 359.144 339.704 362.482 339.704 362.482C339.704 362.482 341.88 354.751 341.512 352.499C341.143 350.246 337.344 352.062 335.107 351.133Z" fill="#0A5840"/>
<path d="M329.413 355.069C329.512 355.12 329.632 355.132 329.746 355.092C329.967 355.015 330.084 354.773 330.007 354.552C329.981 354.478 329.363 352.731 328.253 351.889C326.777 350.766 325.337 351.453 325.276 351.482C325.066 351.585 324.979 351.839 325.082 352.049C325.185 352.259 325.439 352.346 325.65 352.243C325.689 352.224 326.688 351.767 327.74 352.564C328.645 353.25 329.2 354.815 329.206 354.831C329.243 354.938 329.32 355.021 329.413 355.069Z" fill="white"/>
<path d="M330.874 354.125C330.973 354.176 331.093 354.188 331.207 354.148C331.428 354.071 331.545 353.829 331.468 353.608C331.442 353.534 330.824 351.787 329.714 350.945C328.236 349.821 326.798 350.508 326.737 350.538C326.527 350.641 326.44 350.895 326.543 351.106C326.646 351.316 326.9 351.403 327.111 351.3C327.15 351.282 328.149 350.824 329.201 351.621C330.11 352.311 330.661 353.872 330.667 353.888C330.704 353.994 330.78 354.076 330.874 354.125Z" fill="white"/>
<path d="M327.554 355.712C327.653 355.763 327.773 355.774 327.887 355.734C328.108 355.657 328.225 355.416 328.148 355.195C328.122 355.121 327.504 353.374 326.394 352.531C324.916 351.407 323.478 352.094 323.417 352.123C323.207 352.226 323.12 352.481 323.223 352.691C323.326 352.901 323.58 352.988 323.791 352.885C323.83 352.867 324.83 352.409 325.881 353.206C326.789 353.896 327.341 355.457 327.347 355.473C327.384 355.58 327.461 355.664 327.554 355.712Z" fill="white"/>
<path d="M366.687 247.891C366.117 250.343 365.547 252.868 364.968 255.456C361.557 270.748 357.865 288.33 352.436 305.929C350.454 321.71 346.998 331.736 342.347 347.625C341.886 347.716 341.216 347.734 340.438 347.688C340.148 347.67 339.841 347.643 339.524 347.598C337.588 347.363 335.271 346.729 333.805 345.625C333.805 345.625 336.628 326.388 340.537 304.734C342.618 293.179 346.31 264.884 348.066 251.184C348.663 246.479 349.034 243.502 349.034 243.502L363.837 247.185L364.081 247.239L364.714 247.402L366.687 247.891Z" fill="#06402E"/>
<path d="M366.688 247.892C366.118 250.344 365.548 252.869 364.969 255.457L348.066 251.186C348.663 246.481 349.034 243.504 349.034 243.504L363.837 247.187L364.081 247.241L364.714 247.404L366.688 247.892Z" fill="#011B13"/>
<path d="M364.711 247.394V247.403L350.686 305.658C350.668 305.812 347.953 324.886 340.434 347.689C340.144 347.671 339.837 347.644 339.52 347.598C347.049 324.796 349.772 305.685 349.799 305.486L363.833 247.186L364.077 247.24L364.711 247.394Z" fill="#011B13"/>
<path d="M377.016 344.613L377.582 352.976L383.689 351.513V344.613H377.016Z" fill="#FAB083"/>
<path d="M379.725 351.248C379.725 351.248 382.968 350.387 383.864 350.405C384.76 350.424 390.757 357.145 392.779 357.543C396.445 358.264 396.443 363.99 394.212 364.271C387.757 365.086 376.72 362.347 376.72 362.347C376.72 362.347 375.711 354.999 376.156 352.695C376.6 350.391 377.921 351.924 379.725 351.248Z" fill="#0A5840"/>
<path d="M385.063 357.526C384.948 357.551 384.823 357.531 384.717 357.46C384.512 357.322 384.458 357.044 384.596 356.84C384.642 356.772 385.74 355.156 387.098 354.595C388.904 353.846 390.187 354.932 390.241 354.978C390.428 355.139 390.448 355.422 390.286 355.609C390.125 355.796 389.842 355.816 389.655 355.654C389.62 355.624 388.725 354.89 387.438 355.421C386.332 355.878 385.346 357.325 385.336 357.339C385.271 357.438 385.171 357.502 385.063 357.526Z" fill="white"/>
<path d="M383.828 356.17C383.713 356.195 383.588 356.175 383.483 356.104C383.278 355.966 383.224 355.688 383.362 355.484C383.408 355.415 384.507 353.8 385.864 353.239C387.671 352.49 388.953 353.576 389.007 353.623C389.194 353.784 389.214 354.067 389.052 354.253C388.891 354.44 388.608 354.46 388.422 354.298C388.387 354.269 387.491 353.534 386.205 354.065C385.094 354.525 384.113 355.968 384.103 355.983C384.036 356.082 383.936 356.146 383.828 356.17Z" fill="white"/>
<path d="M386.789 358.679C386.674 358.704 386.549 358.684 386.444 358.613C386.239 358.475 386.185 358.197 386.323 357.992C386.369 357.924 387.466 356.308 388.824 355.747C390.631 354.998 391.913 356.084 391.967 356.13C392.154 356.292 392.175 356.574 392.013 356.761C391.852 356.948 391.569 356.968 391.383 356.806C391.348 356.777 390.451 356.042 389.165 356.573C388.054 357.032 387.074 358.477 387.064 358.491C386.998 358.592 386.898 358.656 386.789 358.679Z" fill="white"/>
<path d="M384.521 345.517C383.091 346.132 381.028 346.313 379.038 346.277C378.73 346.277 378.423 346.268 378.124 346.241C377.391 346.214 376.685 346.151 376.043 346.078L367.293 255.348L366.578 247.892L368.261 247.765L369.166 247.702L384.178 246.607C384.178 246.607 384.169 248.435 384.169 251.412C384.16 261.637 384.214 285.453 384.793 295.741C385.534 309.033 384.521 345.517 384.521 345.517Z" fill="#06402E"/>
<path d="M384.178 246.607C384.178 246.607 384.169 248.435 384.169 251.412L367.293 255.348L366.578 247.892L368.261 247.765L369.166 247.702L384.178 246.607Z" fill="#011B13"/>
<path d="M379.035 346.278C378.727 346.278 378.42 346.269 378.121 346.242L368.258 247.766L369.163 247.703L379.035 346.278Z" fill="#011B13"/>
<path d="M380.531 194.87L384.567 207.834L388.986 220.158C389.697 222.738 392.545 224.066 394.978 222.955C395.021 222.936 395.063 222.917 395.106 222.898C399.31 220.91 396.992 212.666 396.992 212.666L396.198 212.604C395.875 211.699 395.002 209.397 393.891 206.504C393.757 206.148 393.616 205.782 393.474 205.412C393.238 204.797 392.993 204.163 392.744 203.511C392.389 202.591 392.023 201.642 391.652 200.686C388.928 193.619 386.671 185.951 386.671 185.951L384.79 180.367L380.531 194.87Z" fill="#FAB083"/>
<path d="M392.469 215.496C392.469 215.496 393.048 206.104 395.052 204.107C397.056 202.11 398.885 201.348 400.765 201.416C402.644 201.484 404.412 201.717 404.296 202.49C404.296 202.49 408.613 201.838 410.541 202.956C412.468 204.075 404.832 205.054 402.565 205.113C400.298 205.172 399.1 206.439 399.009 207.79C398.917 209.141 397.609 218.091 397.609 218.091L392.469 215.496Z" fill="#FAB083"/>
<path d="M381.156 198.318C381.156 198.318 388.288 221.09 389.921 222.637C391.554 224.184 395.223 225.767 397.225 221.601C399.227 217.434 399.627 206.307 399.627 206.307L394.647 203.99L393.868 206.443L384.868 180.311C384.868 180.311 381.671 196.6 381.156 198.318Z" fill="#0A5840"/>
<path d="M391.867 215.306C391.885 215.308 391.9 215.308 391.918 215.309C392.079 215.31 392.222 215.194 392.247 215.03C392.861 211.122 393.459 208.173 393.868 206.442C393.733 206.087 393.64 205.741 393.499 205.371C393.115 206.897 392.336 210.189 391.59 214.926C391.563 215.107 391.686 215.276 391.867 215.306Z" fill="#0A5840"/>
<path d="M390.181 203.098L418.795 203.289C419.871 203.296 420.749 202.43 420.757 201.354V201.337C420.764 200.261 419.898 199.383 418.822 199.375L390.208 199.184C389.132 199.177 388.254 200.043 388.246 201.119V201.136C388.238 202.212 389.105 203.091 390.181 203.098Z" fill="#011B13"/>
<path d="M420.736 203.303L427 180.459C427.352 179.176 426.392 177.908 425.061 177.899L411.614 177.809C410.707 177.803 409.906 178.401 409.655 179.273L402.766 203.183L420.736 203.303Z" fill="#06402E"/>
<path d="M409.654 179.272L402.822 202.985L401.285 202.975L408.117 179.262C408.37 178.39 409.169 177.791 410.077 177.797L411.614 177.807C410.706 177.801 409.907 178.4 409.654 179.272Z" fill="#011B13"/>
<path d="M413.03 191.559C412.671 193.066 413.603 194.296 415.112 194.306C416.621 194.316 418.137 193.102 418.496 191.595C418.856 190.088 417.923 188.858 416.414 188.848C414.905 188.838 413.39 190.052 413.03 191.559Z" fill="#0A5840"/>
<path d="M305.058 171.353C304.496 171.419 303.957 171.358 303.499 171.117C302.289 170.484 301.283 169.855 300.702 169.473C300.357 169.237 300.159 169.1 300.159 169.1C300.159 169.1 300.145 169.1 300.135 169.11C300.003 169.133 299.351 169.228 298.255 168.604C297.022 167.895 296.379 166.7 296.535 166.043C296.686 165.386 297.541 165.216 297.541 165.216C297.541 165.216 297.111 164.592 297.324 163.912C297.537 163.227 298.902 162.877 298.902 162.877C298.902 162.877 298.519 162.017 299.204 161.455C299.856 160.912 301.306 161.942 301.434 162.022C301.24 161.819 296.894 157.265 298.183 157.236C299.501 157.208 304.079 161.398 304.296 161.493C304.509 161.592 305.624 161.516 306.705 161.663C307.787 161.805 308.321 162.301 308.808 163.935C309.295 165.57 309.14 168.208 309.14 168.208C309.475 168.458 310.123 169.042 310.511 169.325C310.511 169.325 310.749 169.454 310.773 169.468C311.586 169.936 324.337 177.064 328.424 180.253C328.429 180.253 328.429 180.258 328.433 180.258C328.579 180.371 328.811 180.466 329.118 180.551C333.318 181.689 351.417 180.324 351.417 180.324L352.353 190.222C352.353 190.222 334.178 191.299 325.513 186.985C318.677 183.584 307.722 173.342 307.722 173.342L305.058 171.353Z" fill="#FAB083"/>
<path d="M306.542 166.023C306.589 166.035 306.639 166.037 306.689 166.025C306.85 165.987 306.95 165.824 306.912 165.663L306.587 164.296C306.567 164.214 306.514 164.144 306.441 164.103C306.367 164.062 306.28 164.054 306.2 164.08C306.185 164.085 304.637 164.583 303.506 163.956C303.16 163.764 302.952 163.543 302.905 163.317C302.851 163.062 303.011 162.847 303.013 162.845C303.112 162.714 303.089 162.525 302.959 162.425C302.829 162.324 302.643 162.345 302.54 162.474C302.506 162.517 302.211 162.908 302.315 163.429C302.397 163.841 302.7 164.195 303.215 164.482C304.25 165.057 305.5 164.871 306.075 164.737L306.328 165.803C306.354 165.913 306.439 165.995 306.542 166.023Z" fill="#FC8664"/>
<path d="M300.133 169.108C300.149 169.102 300.158 169.101 300.158 169.101C300.158 169.101 300.355 169.24 300.704 169.47C301.374 169.006 301.603 168.298 301.798 167.703C301.966 167.186 302.113 166.738 302.478 166.481C302.856 166.217 303.073 165.872 303.191 165.517C303.309 165.177 303.333 164.826 303.319 164.534C303.315 164.425 303.307 164.323 303.295 164.235C303.266 164.003 303.222 163.848 303.217 163.828C303.171 163.668 303.005 163.574 302.845 163.621C302.686 163.665 302.593 163.831 302.638 163.991C302.639 163.994 302.645 164.018 302.654 164.062C302.695 164.243 302.777 164.74 302.649 165.218C302.572 165.506 302.417 165.79 302.131 165.991C301.602 166.362 301.409 166.948 301.224 167.517C301.015 168.161 300.815 168.776 300.133 169.108Z" fill="#FC8664"/>
<path d="M304.75 168.036C304.859 168.065 304.98 168.031 305.058 167.94C305.165 167.813 305.149 167.624 305.022 167.517C305.007 167.504 303.508 166.209 303.775 164.522C303.801 164.358 303.688 164.204 303.525 164.178C303.361 164.152 303.207 164.264 303.181 164.428C302.861 166.454 304.561 167.915 304.634 167.976C304.669 168.005 304.709 168.025 304.75 168.036Z" fill="#FC8664"/>
<path d="M385.696 246.883C378.546 248.537 372.768 249.382 367.061 249.434C367.026 249.434 366.991 249.438 366.957 249.434C366.922 249.438 366.888 249.434 366.851 249.434C361.143 249.382 355.369 248.537 348.216 246.883C347.215 234.064 351.595 225.949 351.108 211.579C351.104 211.455 351.099 211.329 351.095 211.205C351.073 210.584 351.045 209.969 351.015 209.356C350.958 208.191 350.889 207.038 350.809 205.904C350.767 205.282 350.72 204.665 350.672 204.055C349.686 191.64 347.719 181.804 348.786 180.458C349.944 178.996 352.89 177.271 355.884 175.67C358.724 174.155 361.605 172.75 363.049 171.789C364.481 172.413 365.622 172.754 366.851 172.749C366.884 172.749 366.921 172.749 366.957 172.745C366.991 172.749 367.027 172.749 367.061 172.749C368.289 172.755 369.431 172.414 370.865 171.789C372.204 172.68 374.728 173.923 377.301 175.279C380.43 176.928 383.634 178.744 384.871 180.307C385.983 181.711 383.989 192.466 383.105 205.667C383.066 206.26 383.029 206.856 382.994 207.459C382.918 208.76 382.855 210.081 382.809 211.416C382.807 211.47 382.805 211.524 382.804 211.577C382.785 212.105 382.774 212.624 382.769 213.135C382.63 226.551 386.659 234.534 385.696 246.883Z" fill="#0A5840"/>
<path d="M378.526 230.676H378.524C371.317 230.644 365.166 227.365 361.275 224.619C357.067 221.65 354.516 218.641 354.491 218.611C354.368 218.465 354.387 218.246 354.533 218.122C354.68 217.999 354.898 218.018 355.021 218.164C355.046 218.194 357.55 221.145 361.69 224.063C365.497 226.746 371.508 229.951 378.526 229.982C378.718 229.983 378.872 230.139 378.871 230.33C378.872 230.522 378.717 230.676 378.526 230.676Z" fill="#0A5840"/>
<path d="M371.016 233.125C364.762 233.125 358.526 229.561 358.243 229.397C358.077 229.301 358.021 229.089 358.117 228.923C358.213 228.757 358.425 228.701 358.591 228.796C358.664 228.838 366.002 233.029 372.508 232.356C372.701 232.334 372.869 232.475 372.889 232.665C372.909 232.855 372.77 233.026 372.58 233.046C372.059 233.1 371.537 233.125 371.016 233.125Z" fill="#0A5840"/>
<path d="M365.479 189.316C365.316 189.316 365.17 189.2 365.139 189.034C365.103 188.846 365.227 188.664 365.415 188.629C374.201 186.962 376.85 181.31 376.875 181.253C376.954 181.079 377.159 181.001 377.334 181.08C377.508 181.159 377.586 181.364 377.507 181.539C377.396 181.785 374.681 187.577 365.544 189.311C365.522 189.314 365.5 189.316 365.479 189.316Z" fill="#0A5840"/>
<path d="M367.685 178.486C362.639 179.006 360.79 172.897 360.772 172.834C360.733 172.701 360.809 172.563 360.942 172.524C361.075 172.486 361.213 172.561 361.252 172.694C361.324 172.939 363.074 178.703 367.926 177.951C372.173 177.296 371.936 172.532 371.924 172.33C371.916 172.192 372.019 172.073 372.158 172.065C372.296 172.057 372.414 172.161 372.423 172.299C372.426 172.353 372.702 177.72 368.002 178.445C367.895 178.462 367.789 178.475 367.685 178.486Z" fill="white"/>
<path d="M357.399 158.112C357.399 158.112 353.246 151.013 356.748 145.532C360.25 140.051 367.688 140.568 369.615 140.999C371.542 141.43 382.635 146.631 375.925 159.245L357.399 158.112Z" fill="#03261B"/>
<path d="M358.094 156.102C358.094 156.102 356.413 153.861 355.163 155.714C353.913 157.567 355.68 163.041 358.74 161.705L358.094 156.102Z" fill="#FC8664"/>
<path d="M358.073 160.012C357.96 160.012 357.856 159.937 357.824 159.823C357.35 158.133 355.599 157.448 355.581 157.441C355.448 157.39 355.381 157.241 355.431 157.108C355.482 156.975 355.631 156.907 355.764 156.958C355.846 156.989 357.775 157.738 358.321 159.684C358.36 159.821 358.279 159.964 358.142 160.003C358.12 160.009 358.096 160.012 358.073 160.012Z" fill="#FD664D"/>
<path d="M356.305 159.163C356.257 159.163 356.209 159.15 356.165 159.122C356.045 159.045 356.01 158.885 356.088 158.764C356.101 158.744 356.411 158.272 357.059 157.982C357.189 157.923 357.343 157.982 357.402 158.112C357.46 158.242 357.402 158.395 357.272 158.454C356.771 158.678 356.526 159.041 356.524 159.044C356.473 159.121 356.39 159.163 356.305 159.163Z" fill="#FD664D"/>
<path d="M375.416 156.102C375.416 156.102 377.097 153.861 378.347 155.714C379.597 157.567 377.83 163.041 374.77 161.705L375.416 156.102Z" fill="#FC8664"/>
<path d="M375.438 160.012C375.551 160.012 375.654 159.937 375.686 159.823C376.16 158.133 377.912 157.448 377.93 157.441C378.063 157.39 378.131 157.241 378.08 157.108C378.029 156.975 377.879 156.907 377.746 156.958C377.664 156.989 375.735 157.738 375.189 159.684C375.15 159.821 375.232 159.964 375.369 160.003C375.391 160.009 375.415 160.012 375.438 160.012Z" fill="#FD664D"/>
<path d="M377.204 159.163C377.252 159.163 377.301 159.15 377.344 159.122C377.464 159.045 377.499 158.885 377.421 158.764C377.408 158.744 377.098 158.272 376.45 157.982C376.32 157.923 376.167 157.982 376.108 158.112C376.05 158.242 376.108 158.395 376.238 158.454C376.739 158.678 376.983 159.041 376.985 159.044C377.036 159.121 377.119 159.163 377.204 159.163Z" fill="#FD664D"/>
<path d="M370.895 166.348V171.791C370.895 171.791 369.272 174.563 367.076 174.752C364.883 174.943 362.934 172.365 362.934 172.365V166.73L370.895 166.348Z" fill="#FAB083"/>
<path d="M370.895 166.348V168.763C369.422 170.398 366.806 170.806 362.934 170.234V166.73L370.895 166.348Z" fill="#FC8664"/>
<path d="M376.634 152.367C376.533 154.482 376.331 157.128 375.928 159.243C375.827 159.771 375.713 160.267 375.587 160.712C374.441 164.723 371.576 171.602 363.554 168.736C360.011 167.472 358.369 163.525 357.637 159.512C357.141 156.786 357.065 154.032 357.102 152.065C357.141 150.056 358.237 148.22 359.985 147.229C364.72 144.545 369.716 145.546 373.005 146.81C375.289 147.686 376.75 149.928 376.634 152.367Z" fill="#FAB083"/>
<path d="M364.594 144.618C364.594 144.618 375.179 161.596 376.639 155.369C378.707 146.544 372.384 141.084 364.594 144.618Z" fill="#03261B"/>
<path d="M364.154 144.617C357.11 144.669 353.606 152.673 356.873 153.621C361.419 154.94 365.361 148.505 366.574 146.273C365.758 145.734 364.941 145.197 364.154 144.617Z" fill="#03261B"/>
<path d="M376.987 140.81C376.987 144.657 373.868 147.776 370.021 147.776C366.174 147.776 363.055 144.657 363.055 140.81C363.055 136.963 366.174 133.844 370.021 133.844C373.868 133.843 376.987 136.962 376.987 140.81Z" fill="#03261B"/>
<path d="M358.333 152.861C358.333 152.861 358.881 154.99 358.133 156.422C357.385 157.854 357.796 160.308 358.133 163.066C358.133 163.066 356.944 161.385 356.875 158.692C356.806 155.998 357.246 153.757 356.875 152.68L358.333 152.861Z" fill="#03261B"/>
<path d="M374.963 152.861C374.963 152.861 374.415 154.99 375.163 156.422C375.911 157.854 375.5 160.308 375.163 163.066C375.163 163.066 376.352 161.385 376.421 158.692C376.49 155.998 376.05 153.757 376.421 152.68L374.963 152.861Z" fill="#03261B"/>
<path d="M363.221 156.421C363.221 157.002 362.921 157.473 362.552 157.473C362.183 157.473 361.883 157.002 361.883 156.421C361.883 155.84 362.183 155.369 362.552 155.369C362.922 155.369 363.221 155.84 363.221 156.421Z" fill="#03261B"/>
<path d="M371.483 156.421C371.483 157.002 371.183 157.473 370.814 157.473C370.445 157.473 370.145 157.002 370.145 156.421C370.145 155.84 370.445 155.369 370.814 155.369C371.183 155.369 371.483 155.84 371.483 156.421Z" fill="#03261B"/>
<path d="M361.23 153.288C361.786 153.131 362.907 152.863 364.091 152.859C364.403 152.858 364.641 153.135 364.586 153.442L364.584 153.45C364.54 153.695 364.321 153.868 364.073 153.856C363.267 153.818 361.153 153.932 360.155 154.336C360.134 154.162 360.237 153.972 360.383 153.804C360.603 153.548 360.905 153.379 361.23 153.288Z" fill="#03261B"/>
<path d="M372.036 153.31C371.48 153.153 370.358 152.885 369.175 152.881C368.863 152.88 368.625 153.157 368.68 153.464L368.681 153.472C368.725 153.717 368.944 153.89 369.192 153.878C369.997 153.84 372.112 153.954 373.11 154.358C373.13 154.184 373.028 153.994 372.882 153.826C372.663 153.571 372.361 153.402 372.036 153.31Z" fill="#03261B"/>
<path d="M366.844 161.22C366.646 161.22 366.447 161.185 366.282 161.086C366.131 160.995 365.943 160.812 365.906 160.454C365.808 159.504 366.051 156.524 366.061 156.398C366.073 156.256 366.197 156.15 366.34 156.161C366.482 156.173 366.588 156.298 366.576 156.44C366.573 156.47 366.326 159.498 366.42 160.4C366.436 160.557 366.5 160.613 366.547 160.641C366.79 160.786 367.351 160.638 367.584 160.543C367.716 160.489 367.867 160.553 367.921 160.685C367.975 160.817 367.912 160.968 367.78 161.022C367.713 161.051 367.28 161.22 366.844 161.22Z" fill="#FC8664"/>
<path d="M363.562 162.854C363.757 163.838 364.408 165.647 366.597 165.647C368.791 165.647 369.407 163.993 369.618 162.854H363.562Z" fill="white"/>
<path d="M366.566 167.158C365.934 167.158 365.376 166.818 365.353 166.803C365.232 166.728 365.194 166.569 365.269 166.447C365.344 166.326 365.503 166.288 365.624 166.363C365.628 166.366 366.084 166.641 366.565 166.641C367.086 166.641 367.553 166.365 367.558 166.362C367.68 166.288 367.839 166.328 367.913 166.45C367.986 166.572 367.948 166.73 367.826 166.804C367.803 166.819 367.235 167.158 366.566 167.158Z" fill="#FC8664"/>
<path d="M310.518 169.039L306.918 173.79C306.918 173.79 320.484 185.414 327.186 187.712C333.889 190.01 349.438 192.141 349.438 192.141C350.569 188.251 350.042 184.356 348.785 180.459C348.785 180.459 332.777 180.838 328.178 178.518C318.324 173.547 310.518 169.039 310.518 169.039Z" fill="#0A5840"/>
<path d="M305.655 53.3507C305.565 53.3597 305.472 53.3477 305.383 53.3107C304.44 52.9127 303.887 52.7267 303.881 52.7257C303.592 52.6287 303.436 52.3167 303.532 52.0277C303.629 51.7387 303.941 51.5827 304.23 51.6787C304.254 51.6867 304.824 51.8777 305.811 52.2947C306.092 52.4127 306.223 52.7367 306.105 53.0177C306.025 53.2077 305.849 53.3297 305.655 53.3507Z" fill="#0A5840" fill-opacity="0.3"/>
<path d="M333.778 82.9474C334.153 83.9484 334.505 84.9814 334.823 86.0164C334.902 86.2734 335.151 86.4303 335.408 86.4033C335.443 86.3993 335.478 86.3924 335.512 86.3824C335.803 86.2924 335.967 85.9843 335.877 85.6933C335.553 84.6363 335.194 83.5834 334.811 82.5614C334.704 82.2764 334.387 82.1314 334.101 82.2384C333.815 82.3444 333.671 82.6624 333.778 82.9474Z" fill="#0A5840" fill-opacity="0.3"/>
<path d="M335.68 89.1427C335.933 90.1797 336.162 91.2467 336.359 92.3157C336.412 92.6007 336.675 92.7937 336.959 92.7637C336.973 92.7627 336.988 92.7597 337.002 92.7577C337.302 92.7017 337.5 92.4137 337.444 92.1147C337.242 91.0257 337.009 89.9387 336.752 88.8817C336.68 88.5857 336.381 88.4047 336.085 88.4767C335.79 88.5477 335.608 88.8467 335.68 89.1427Z" fill="#0A5840" fill-opacity="0.3"/>
<path d="M337.34 94.9015C337.038 94.9415 336.824 95.2176 336.864 95.5196C336.929 96.0186 336.988 96.5226 337.04 97.0176C337.101 97.5886 337.154 98.1725 337.199 98.7505C337.223 99.0545 337.488 99.2816 337.792 99.2576C337.797 99.2566 337.802 99.2566 337.807 99.2556C338.103 99.2246 338.322 98.9626 338.299 98.6636C338.253 98.0756 338.198 97.4816 338.137 96.9006C338.084 96.3966 338.024 95.8835 337.958 95.3755C337.919 95.0775 337.65 94.8666 337.353 94.8976C337.349 94.9016 337.345 94.9015 337.34 94.9015Z" fill="#0A5840" fill-opacity="0.3"/>
<path d="M332.546 79.9497C332.646 80.1727 332.876 80.2977 333.108 80.2737C333.164 80.2677 333.221 80.2527 333.275 80.2287C333.553 80.1047 333.678 79.7777 333.554 79.4997C333.104 78.4947 332.618 77.4927 332.107 76.5217C331.965 76.2517 331.632 76.1487 331.361 76.2897C331.092 76.4317 330.988 76.7657 331.13 77.0347C331.629 77.9857 332.106 78.9667 332.546 79.9497Z" fill="#0A5840" fill-opacity="0.3"/>
<path d="M308.313 54.68C309.261 55.164 310.217 55.691 311.155 56.247C311.261 56.31 311.38 56.333 311.494 56.321C311.662 56.303 311.819 56.209 311.911 56.053C312.066 55.791 311.979 55.452 311.717 55.297C310.759 54.73 309.782 54.191 308.814 53.697C308.543 53.559 308.21 53.666 308.072 53.937C307.934 54.209 308.042 54.542 308.313 54.68Z" fill="#0A5840" fill-opacity="0.3"/>
<path d="M316.537 59.8769C316.654 59.9659 316.795 60.0009 316.93 59.9869C317.076 59.9719 317.215 59.8989 317.31 59.7729C317.495 59.5309 317.449 59.1849 317.207 58.9999C316.333 58.3329 315.428 57.6829 314.517 57.0689C314.264 56.8989 313.922 56.9649 313.751 57.2179C313.58 57.4709 313.647 57.8139 313.9 57.9839C314.793 58.5849 315.68 59.2229 316.537 59.8769Z" fill="#0A5840" fill-opacity="0.3"/>
<path d="M325.808 68.9109C325.93 69.0629 326.116 69.1339 326.297 69.1149C326.398 69.1039 326.498 69.0649 326.583 68.9969C326.821 68.8069 326.86 68.4589 326.669 68.2209C325.983 67.3649 325.26 66.5169 324.519 65.7019C324.314 65.4769 323.965 65.4599 323.739 65.6649C323.513 65.8699 323.497 66.2189 323.702 66.4439C324.428 67.2429 325.136 68.0729 325.808 68.9109Z" fill="#0A5840" fill-opacity="0.3"/>
<path d="M321.448 64.1139C321.57 64.2329 321.734 64.2839 321.891 64.2669C322.015 64.2539 322.135 64.1989 322.228 64.1029C322.44 63.8849 322.436 63.5349 322.217 63.3229C321.432 62.5589 320.611 61.8069 319.775 61.0869C319.544 60.8879 319.196 60.9139 318.997 61.1449C318.798 61.3759 318.824 61.7239 319.055 61.9229C319.874 62.6289 320.679 63.3659 321.448 64.1139Z" fill="#0A5840" fill-opacity="0.3"/>
<path d="M329.529 74.2157C329.644 74.4037 329.853 74.4987 330.058 74.4767C330.137 74.4687 330.215 74.4427 330.287 74.3987C330.547 74.2397 330.629 73.8997 330.47 73.6397C329.897 72.7017 329.287 71.7697 328.656 70.8697C328.481 70.6207 328.137 70.5597 327.887 70.7347C327.638 70.9097 327.577 71.2537 327.752 71.5037C328.37 72.3847 328.968 73.2977 329.529 74.2157Z" fill="#0A5840" fill-opacity="0.3"/>
<path d="M282.109 37.0171L277.664 53.8164L301.984 60.2518L306.43 43.4525L282.109 37.0171Z" fill="#0A5840"/>
<path d="M294.316 49.5418L301.284 60.0588L301.988 60.2448L302.102 59.8168L294.996 49.0918L294.316 49.5418Z" fill="#F8F9FF"/>
<path d="M277.77 53.4378L277.672 53.8098L278.44 54.0128L289.698 48.3188L289.33 47.5918L277.77 53.4378Z" fill="#F8F9FF"/>
<path d="M306.438 43.4458L291.416 51.0428L282.117 37.0098L306.438 43.4458Z" fill="#0A5840"/>
<path d="M375.917 73.6835C372.564 73.6835 369.836 70.9555 369.836 67.6025C369.836 64.2495 372.564 61.5215 375.917 61.5215C379.27 61.5215 381.998 64.2495 381.998 67.6025C381.998 70.9555 379.27 73.6835 375.917 73.6835ZM375.917 63.4295C373.616 63.4295 371.744 65.3015 371.744 67.6025C371.744 69.9035 373.616 71.7755 375.917 71.7755C378.218 71.7755 380.09 69.9035 380.09 67.6025C380.09 65.3015 378.218 63.4295 375.917 63.4295Z" fill="#0A5840"/>
<path d="M406.823 79.869C403.47 79.869 400.742 77.141 400.742 73.788C400.742 70.435 403.47 67.707 406.823 67.707C410.176 67.707 412.904 70.435 412.904 73.788C412.903 77.141 410.175 79.869 406.823 79.869ZM406.823 69.615C404.522 69.615 402.65 71.487 402.65 73.788C402.65 76.089 404.522 77.961 406.823 77.961C409.124 77.961 410.996 76.089 410.996 73.788C410.995 71.487 409.124 69.615 406.823 69.615Z" fill="#0A5840"/>
<path d="M421.462 92.2839C420.935 92.2839 420.508 91.8569 420.508 91.3299V87.1239C420.508 86.5969 420.935 86.1699 421.462 86.1699C421.989 86.1699 422.416 86.5969 422.416 87.1239V91.3299C422.416 91.8579 421.989 92.2839 421.462 92.2839Z" fill="#0A5840"/>
<path d="M421.462 99.6452C420.935 99.6452 420.508 99.2183 420.508 98.6913V94.4852C420.508 93.9582 420.935 93.5312 421.462 93.5312C421.989 93.5312 422.416 93.9582 422.416 94.4852V98.6913C422.416 99.2183 421.989 99.6452 421.462 99.6452Z" fill="#0A5840"/>
<path d="M427.366 93.8611H423.587C423.06 93.8611 422.633 93.4341 422.633 92.9071C422.633 92.3801 423.06 91.9531 423.587 91.9531H427.366C427.893 91.9531 428.32 92.3801 428.32 92.9071C428.32 93.4341 427.893 93.8611 427.366 93.8611Z" fill="#0A5840"/>
<path d="M419.338 93.8611H415.559C415.032 93.8611 414.605 93.4341 414.605 92.9071C414.605 92.3801 415.032 91.9531 415.559 91.9531H419.338C419.865 91.9531 420.292 92.3801 420.292 92.9071C420.291 93.4341 419.864 93.8611 419.338 93.8611Z" fill="#0A5840"/>
<path d="M388.985 85.4245C388.458 85.4245 388.031 84.9976 388.031 84.4706V80.2646C388.031 79.7376 388.458 79.3105 388.985 79.3105C389.512 79.3105 389.939 79.7376 389.939 80.2646V84.4706C389.939 84.9976 389.512 85.4245 388.985 85.4245Z" fill="#0A5840"/>
<path d="M388.985 92.7859C388.458 92.7859 388.031 92.3589 388.031 91.8319V87.6259C388.031 87.0989 388.458 86.6719 388.985 86.6719C389.512 86.6719 389.939 87.0989 389.939 87.6259V91.8319C389.939 92.3589 389.512 92.7859 388.985 92.7859Z" fill="#0A5840"/>
<path d="M394.889 87.0018H391.11C390.583 87.0018 390.156 86.5747 390.156 86.0477C390.156 85.5207 390.583 85.0938 391.11 85.0938H394.889C395.416 85.0938 395.843 85.5207 395.843 86.0477C395.843 86.5757 395.416 87.0018 394.889 87.0018Z" fill="#0A5840"/>
<path d="M386.862 87.0018H383.083C382.556 87.0018 382.129 86.5747 382.129 86.0477C382.129 85.5207 382.556 85.0938 383.083 85.0938H386.862C387.389 85.0938 387.816 85.5207 387.816 86.0477C387.815 86.5757 387.388 87.0018 386.862 87.0018Z" fill="#0A5840"/>
<path d="M20.1854 209.36C20.1854 212.713 17.4574 215.441 14.1044 215.441C10.7514 215.441 8.02344 212.713 8.02344 209.36C8.02344 206.007 10.7514 203.279 14.1044 203.279C17.4574 203.28 20.1854 206.008 20.1854 209.36ZM9.93144 209.36C9.93144 211.661 11.8034 213.533 14.1044 213.533C16.4054 213.533 18.2774 211.661 18.2774 209.36C18.2774 207.059 16.4054 205.187 14.1044 205.187C11.8034 205.187 9.93144 207.059 9.93144 209.36Z" fill="#0A5840"/>
<path d="M26.3729 178.458C26.3729 181.811 23.6449 184.539 20.2919 184.539C16.9389 184.539 14.2109 181.811 14.2109 178.458C14.2109 175.105 16.9389 172.377 20.2919 172.377C23.6449 172.377 26.3729 175.105 26.3729 178.458ZM16.1189 178.458C16.1189 180.759 17.9909 182.631 20.2919 182.631C22.5929 182.631 24.4649 180.759 24.4649 178.458C24.4649 176.157 22.5929 174.285 20.2919 174.285C17.9909 174.285 16.1189 176.157 16.1189 178.458Z" fill="#0A5840"/>
<path d="M38.7859 163.813C38.7859 164.34 38.3589 164.767 37.8319 164.767H33.6259C33.0989 164.767 32.6719 164.34 32.6719 163.813C32.6719 163.286 33.0989 162.859 33.6259 162.859H37.8319C38.3589 162.86 38.7859 163.287 38.7859 163.813Z" fill="#0A5840"/>
<path d="M46.1453 163.813C46.1453 164.34 45.7182 164.767 45.1912 164.767H40.9853C40.4583 164.767 40.0312 164.34 40.0312 163.813C40.0312 163.286 40.4583 162.859 40.9853 162.859H45.1912C45.7182 162.86 46.1453 163.287 46.1453 163.813Z" fill="#0A5840"/>
<path d="M40.365 157.909V161.688C40.365 162.215 39.938 162.642 39.411 162.642C38.884 162.642 38.457 162.215 38.457 161.688V157.909C38.457 157.382 38.884 156.955 39.411 156.955C39.938 156.955 40.365 157.383 40.365 157.909Z" fill="#0A5840"/>
<path d="M40.365 165.938V169.717C40.365 170.244 39.938 170.671 39.411 170.671C38.884 170.671 38.457 170.244 38.457 169.717V165.938C38.457 165.411 38.884 164.984 39.411 164.984C39.938 164.984 40.365 165.411 40.365 165.938Z" fill="#0A5840"/>
<path d="M31.9265 196.29C31.9265 196.817 31.4995 197.244 30.9725 197.244H26.7665C26.2395 197.244 25.8125 196.817 25.8125 196.29C25.8125 195.763 26.2395 195.336 26.7665 195.336H30.9725C31.4995 195.336 31.9265 195.763 31.9265 196.29Z" fill="#0A5840"/>
<path d="M39.2859 196.29C39.2859 196.817 38.8589 197.244 38.3319 197.244H34.1259C33.5989 197.244 33.1719 196.817 33.1719 196.29C33.1719 195.763 33.5989 195.336 34.1259 195.336H38.3319C38.8589 195.336 39.2859 195.763 39.2859 196.29Z" fill="#0A5840"/>
<path d="M33.5018 190.386V194.165C33.5018 194.692 33.0748 195.119 32.5478 195.119C32.0208 195.119 31.5938 194.692 31.5938 194.165V190.386C31.5938 189.859 32.0208 189.432 32.5478 189.432C33.0758 189.432 33.5018 189.86 33.5018 190.386Z" fill="#0A5840"/>
<path d="M33.5018 198.415V202.194C33.5018 202.721 33.0748 203.148 32.5478 203.148C32.0208 203.148 31.5938 202.721 31.5938 202.194V198.415C31.5938 197.888 32.0208 197.461 32.5478 197.461C33.0758 197.461 33.5018 197.888 33.5018 198.415Z" fill="#0A5840"/>
<path d="M116.109 64.718V83.554C116.109 86.044 118.129 88.064 120.619 88.064H154.82L165.145 91.768C166.205 92.149 167.22 91.107 166.814 90.058L162.908 79.971V64.717C162.908 62.227 160.888 60.207 158.396 60.207H120.619C118.129 60.208 116.109 62.228 116.109 64.718Z" fill="#0A5840"/>
<path d="M145.824 74.6722C145.824 76.4742 147.285 77.9352 149.086 77.9352C150.887 77.9352 152.349 76.4742 152.349 74.6722C152.349 72.8702 150.888 71.4102 149.086 71.4102C147.284 71.4102 145.824 72.8702 145.824 74.6722Z" fill="#0A5840"/>
<path d="M135.496 74.6722C135.496 76.4742 136.957 77.9352 138.758 77.9352C140.56 77.9352 142.02 76.4742 142.02 74.6722C142.02 72.8702 140.56 71.4102 138.758 71.4102C136.957 71.4092 135.496 72.8702 135.496 74.6722Z" fill="#0A5840"/>
<path d="M125.168 74.6722C125.168 76.4742 126.629 77.9352 128.431 77.9352C130.233 77.9352 131.694 76.4742 131.694 74.6722C131.694 72.8702 130.233 71.4102 128.431 71.4102C126.628 71.4092 125.168 72.8702 125.168 74.6722Z" fill="#0A5840"/>
</svg>
