<svg width="554" height="400" viewBox="0 0 554 400" fill="none" xmlns="http://www.w3.org/2000/svg">
<path d="M137.128 137.755C136.232 137.549 135.325 137.312 134.434 137.05L134.628 136.387C135.507 136.645 136.4 136.878 137.283 137.081L137.128 137.755ZM131.786 136.189C130.917 135.878 130.044 135.537 129.192 135.176L129.462 134.539C130.302 134.896 131.163 135.232 132.019 135.538L131.786 136.189ZM126.66 134.017C125.83 133.609 125.002 133.173 124.196 132.72L124.535 132.117C125.33 132.564 126.147 132.995 126.965 133.397L126.66 134.017ZM121.808 131.29C121.03 130.794 120.254 130.27 119.501 129.732L119.903 129.17C120.646 129.701 121.412 130.218 122.179 130.706L121.808 131.29ZM117.281 128.053C116.559 127.475 115.843 126.87 115.154 126.257L115.614 125.74C116.294 126.346 117 126.942 117.713 127.513L117.281 128.053ZM113.126 124.35C112.47 123.699 111.823 123.022 111.204 122.337L111.716 121.873C112.327 122.549 112.966 123.217 113.613 123.859L113.126 124.35ZM109.391 120.224C108.809 119.506 108.238 118.763 107.697 118.016L108.257 117.61C108.791 118.347 109.353 119.08 109.928 119.789L109.391 120.224ZM106.126 115.717C105.626 114.939 105.141 114.137 104.686 113.334L105.288 112.993C105.736 113.785 106.214 114.575 106.708 115.343L106.126 115.717ZM103.383 110.873C102.973 110.041 102.583 109.189 102.225 108.341L102.862 108.072C103.215 108.908 103.599 109.748 104.003 110.568L103.383 110.873ZM96.7356 110.494C95.8067 110.429 94.8696 110.294 93.9515 110.093L94.0986 109.418C94.9846 109.612 95.8883 109.742 96.7843 109.805L96.7356 110.494ZM99.5498 110.484L99.4951 109.795C100.403 109.722 101.303 109.579 102.169 109.369L102.332 110.041C101.431 110.26 100.495 110.409 99.5498 110.484ZM91.2531 109.298C90.3713 108.968 89.5116 108.572 88.6975 108.122L89.0315 107.517C89.8163 107.95 90.6453 108.332 91.4954 108.651L91.2531 109.298ZM105.008 109.149L104.734 108.515C104.976 108.41 105.216 108.299 105.454 108.182C106.02 107.902 106.575 107.58 107.103 107.224L107.489 107.797C106.936 108.171 106.354 108.508 105.76 108.802C105.511 108.924 105.261 109.04 105.008 109.149ZM86.3442 106.577C85.5946 105.997 84.8938 105.359 84.2611 104.679L84.7675 104.208C85.3744 104.861 86.0472 105.474 86.7668 106.03L86.3442 106.577ZM109.672 105.999L109.183 105.511C109.836 104.855 110.401 104.151 110.861 103.417L111.447 103.784C110.959 104.562 110.362 105.307 109.672 105.999ZM101.218 105.744C101.077 105.347 100.942 104.948 100.812 104.548C100.655 104.063 100.515 103.564 100.395 103.066L101.068 102.905C101.183 103.386 101.319 103.867 101.47 104.335C101.598 104.73 101.731 105.122 101.869 105.513L101.218 105.744ZM82.5246 102.455C82.018 101.675 81.5714 100.838 81.1972 99.9665L81.8324 99.6939C82.1908 100.529 82.6188 101.332 83.1044 102.079L82.5246 102.455ZM112.627 101.189L111.964 100.995C112.184 100.241 112.296 99.4735 112.296 98.7139C112.296 98.6016 112.294 98.4885 112.289 98.3759L112.979 98.3463C112.985 98.4688 112.987 98.5914 112.987 98.7139C112.987 99.5396 112.866 100.372 112.627 101.189ZM99.9392 100.288C99.901 99.8385 99.8817 99.3949 99.8817 98.9699C99.8814 98.4487 99.9101 97.9401 99.9674 97.4576L100.654 97.5394C100.6 97.9946 100.573 98.4758 100.573 98.9696C100.573 99.3759 100.591 99.7998 100.628 100.23L99.9392 100.288ZM80.2993 97.2964C80.074 96.3954 79.9141 95.4622 79.8256 94.5217L80.5136 94.457C80.5994 95.3626 80.7526 96.2616 80.9696 97.1285L80.2993 97.2964ZM111.614 95.8662C111.228 95.0969 110.681 94.3704 110.033 93.7659L110.504 93.2602C111.212 93.9205 111.809 94.7142 112.232 95.5562L111.614 95.8662ZM101.345 94.9882L100.719 94.6951C101.154 93.7662 101.758 93 102.514 92.4168L102.936 92.9643C102.268 93.4792 101.733 94.16 101.345 94.9882ZM107.826 92.3501C107.158 92.0855 106.485 91.9514 105.828 91.9514C105.828 91.9514 105.827 91.9514 105.826 91.9514C105.645 91.9514 105.465 91.9616 105.285 91.9823L105.204 91.2957C105.411 91.2714 105.618 91.26 105.826 91.26C105.826 91.26 105.827 91.26 105.828 91.26C106.573 91.26 107.33 91.4107 108.081 91.7075L107.826 92.3501ZM80.4564 91.744L79.7656 91.7088C79.8129 90.7756 79.9288 89.8365 80.1094 88.9173L80.7879 89.0509C80.6132 89.9371 80.5017 90.8433 80.4564 91.744ZM81.5028 86.4344L80.8513 86.204C81.166 85.3136 81.5476 84.4469 81.9864 83.6281L82.5962 83.955C82.1736 84.7428 81.8059 85.5771 81.5028 86.4344ZM84.0618 81.6789L83.5129 81.2583C84.0897 80.5059 84.7287 79.8049 85.4129 79.1738L85.8813 79.6821C85.2268 80.286 84.6143 80.958 84.0618 81.6789Z" fill="#D2D2D2"/>
<path d="M99.9818 83.5739H69.6179C65.2123 83.5739 61.6406 80.0022 61.6406 75.5966V70.8113C61.6406 66.4056 65.212 62.834 69.6179 62.834H99.9818C104.387 62.834 107.959 66.4056 107.959 70.8113V75.5966C107.959 80.0025 104.388 83.5739 99.9818 83.5739Z" fill="#EDEDED"/>
<path d="M74.0038 76.3513C75.7438 76.3099 77.1208 74.8657 77.0794 73.1256C77.038 71.3856 75.5938 70.0086 73.8538 70.05C72.1137 70.0914 70.7367 71.5356 70.7781 73.2756C70.8196 75.0157 72.2637 76.3927 74.0038 76.3513Z" fill="white"/>
<path d="M84.9183 76.3572C86.6572 76.2784 88.0029 74.8049 87.924 73.066C87.8452 71.3272 86.3716 69.9815 84.6328 70.0604C82.894 70.1392 81.5483 71.6127 81.6271 73.3516C81.706 75.0904 83.1795 76.4361 84.9183 76.3572Z" fill="white"/>
<path d="M95.7777 76.3572C97.5166 76.2784 98.8622 74.8049 98.7834 73.066C98.7045 71.3272 97.231 69.9815 95.4922 70.0604C93.7534 70.1392 92.4077 71.6127 92.4865 73.3516C92.5654 75.0904 94.0389 76.4361 95.7777 76.3572Z" fill="white"/>
<path d="M132.109 26.8184V177.778C132.109 187.445 139.946 195.282 149.614 195.282H403.366C413.034 195.282 420.87 187.445 420.87 177.778V26.8184H132.109Z" fill="white"/>
<path d="M403.432 195.974H149.68C139.647 195.974 131.484 187.811 131.484 177.778V26.127H421.628V177.778C421.628 187.811 413.465 195.974 403.432 195.974ZM132.867 27.5096V177.778C132.867 187.049 140.409 194.591 149.68 194.591H403.433C412.703 194.591 420.246 187.049 420.246 177.778V27.5096H132.867Z" fill="#D2D2D2"/>
<path d="M420.87 18.1956C420.87 8.52821 413.034 0.691406 403.366 0.691406H149.614C139.946 0.691406 132.109 8.52821 132.109 18.1956V26.818H420.87V18.1956Z" fill="#D2D2D2"/>
<path d="M421.628 27.5096H131.484V18.1955C131.484 8.16255 139.647 0 149.68 0H403.433C413.466 0 421.628 8.16255 421.628 18.1955L421.628 27.5096ZM132.867 26.1269H420.245V18.1955C420.245 8.92494 412.703 1.38264 403.432 1.38264H149.68C140.41 1.38264 132.867 8.92466 132.867 18.1955V26.1269Z" fill="#D2D2D2"/>
<path d="M169.946 14.8404C170.543 11.4215 168.255 8.16602 164.837 7.56907C161.418 6.97213 158.162 9.25978 157.565 12.6787C156.968 16.0976 159.256 19.3531 162.675 19.95C166.094 20.547 169.349 18.2593 169.946 14.8404Z" fill="white"/>
<path d="M191.542 14.7649C192.102 11.3398 189.779 8.10933 186.354 7.54952C182.929 6.98971 179.698 9.31253 179.139 12.7377C178.579 16.1628 180.902 19.3933 184.327 19.9531C187.752 20.5129 190.982 18.1901 191.542 14.7649Z" fill="white"/>
<path d="M213.158 14.7345C213.698 11.3062 211.357 8.08929 207.929 7.54926C204.5 7.00924 201.283 9.35063 200.743 12.7789C200.203 16.2072 202.545 19.4241 205.973 19.9641C209.401 20.5042 212.618 18.1628 213.158 14.7345Z" fill="white"/>
<path d="M380.218 19.516H348.417C345.235 19.516 342.656 16.9368 342.656 13.7551C342.656 10.5733 345.236 7.99414 348.417 7.99414H380.218C383.4 7.99414 385.979 10.5733 385.979 13.7551C385.979 16.9365 383.4 19.516 380.218 19.516Z" fill="white"/>
<path d="M315.051 46.5215H237.969V54.8173H315.051V46.5215Z" fill="#599BFF"/>
<path d="M368.727 152.178H184.375V163.7H368.727V152.178Z" fill="white"/>
<path d="M369.028 164.045H183.984V151.832H369.028L369.028 164.045ZM184.676 163.354H368.336V152.523H184.676V163.354Z" fill="#D2D2D2"/>
<path d="M282.356 155.205H184.375V160.672H282.356V155.205Z" fill="#D2D2D2"/>
<path d="M220.703 102.886V91.998L226.147 97.4421L220.703 102.886Z" fill="#FFD966"/>
<path d="M231.016 102.886V91.998L236.46 97.4421L231.016 102.886Z" fill="#FFD966"/>
<path d="M320.547 102.045V91.1562L325.991 96.6002L320.547 102.045Z" fill="#FFD966"/>
<path d="M330.938 102.045V91.1562L336.382 96.6002L330.938 102.045Z" fill="#FFD966"/>
<path d="M201.011 121.908H168.357C166.632 121.908 165.234 120.51 165.234 118.786V77.2629C165.234 75.5385 166.632 74.1406 168.357 74.1406H201.011C202.735 74.1406 204.133 75.5385 204.133 77.2629V118.786C204.133 120.51 202.735 121.908 201.011 121.908Z" fill="white"/>
<path d="M200.966 122.254H168.312C166.4 122.254 164.844 120.698 164.844 118.786V77.2631C164.844 75.3509 166.399 73.7949 168.312 73.7949H200.966C202.878 73.7949 204.434 75.3507 204.434 77.2631V118.786C204.434 120.698 202.878 122.254 200.966 122.254ZM168.312 74.4862C166.781 74.4862 165.535 75.7317 165.535 77.2631V118.786C165.535 120.317 166.781 121.563 168.312 121.563H200.966C202.497 121.563 203.743 120.318 203.743 118.786V77.2631C203.743 75.732 202.497 74.4862 200.966 74.4862H168.312Z" fill="black"/>
<path d="M177.331 79.5605H171.172V82.27H177.331V79.5605Z" fill="#599BFF"/>
<path d="M191.049 80.6562H180.703V81.1747H191.049V80.6562Z" fill="black"/>
<path d="M177.79 88.4844H171.172V89.0029H177.79V88.4844Z" fill="black"/>
<path d="M184.381 92.248H171.172V92.7665H184.381V92.248Z" fill="black"/>
<path d="M198.239 96.0098H171.172V96.5283H198.239V96.0098Z" fill="black"/>
<path d="M194.106 99.7734H171.172V100.292H194.106V99.7734Z" fill="black"/>
<path d="M182.652 103.537H171.172V104.056H182.652V103.537Z" fill="black"/>
<path d="M198.239 107.301H171.172V107.819H198.239V107.301Z" fill="black"/>
<path d="M198.204 111.062H190.938V111.581H198.204V111.062Z" fill="black"/>
<path d="M304.285 88.0977H252.812V120.651H304.285V88.0977Z" fill="black"/>
<path d="M295.165 117.83H261.967C260.32 117.83 258.984 116.494 258.984 114.847V77.5139C258.984 75.8666 260.32 74.5312 261.967 74.5312H295.165C296.812 74.5312 298.147 75.8666 298.147 77.5139V114.847C298.147 116.494 296.812 117.83 295.165 117.83Z" fill="white"/>
<path d="M295.198 118.175H262C260.165 118.175 258.672 116.682 258.672 114.847V77.5138C258.672 75.6785 260.165 74.1855 262 74.1855H295.198C297.033 74.1855 298.526 75.6785 298.526 77.5138V114.847C298.527 116.682 297.033 118.175 295.198 118.175ZM262 74.8769C260.546 74.8769 259.363 76.0596 259.363 77.5138V114.847C259.363 116.301 260.546 117.484 262 117.484H295.198C296.652 117.484 297.835 116.301 297.835 114.847V77.5138C297.835 76.0596 296.652 74.8769 295.198 74.8769H262Z" fill="black"/>
<path d="M289.714 83.9121H266.953V84.4306H289.714V83.9121Z" fill="black"/>
<path d="M285.008 87.9922H266.953V88.5107H285.008V87.9922Z" fill="black"/>
<path d="M290.099 92.0703H266.953V92.5888H290.099V92.0703Z" fill="black"/>
<path d="M252.812 88.0996L273.607 102.833L252.812 120.651" fill="#0A5840"/>
<path d="M304.299 88.0996L283.359 102.979L304.299 120.651" fill="#0A5840"/>
<path opacity="0.2" d="M304.28 116.001V120.651H297.068L287.266 100.146L304.28 116.001Z" fill="black"/>
<path opacity="0.2" d="M252.812 116.001V120.651H260.024L269.827 100.146L252.812 116.001Z" fill="black"/>
<path d="M269.289 100.719L252.812 120.651H304.285L287.809 100.719C286.259 98.8437 284.116 97.7832 281.876 97.7832H275.221C272.982 97.7832 270.839 98.8437 269.289 100.719Z" fill="#0A5840"/>
<path d="M382.922 109.14C389.846 102.216 389.846 90.9907 382.922 84.0669C375.999 77.1432 364.773 77.1432 357.849 84.0669C350.925 90.9907 350.925 102.216 357.849 109.14C364.773 116.064 375.999 116.064 382.922 109.14Z" fill="white"/>
<path d="M370.419 114.678C360.452 114.678 352.344 106.569 352.344 96.6026C352.344 86.6357 360.452 78.5273 370.419 78.5273C380.386 78.5273 388.494 86.6357 388.494 96.6026C388.494 106.569 380.386 114.678 370.419 114.678ZM370.419 79.2187C360.833 79.2187 353.035 87.017 353.035 96.6026C353.035 106.188 360.833 113.987 370.419 113.987C380.005 113.987 387.803 106.188 387.803 96.6026C387.803 87.0168 380.005 79.2187 370.419 79.2187Z" fill="black"/>
<path d="M370.416 96.4614C372.372 96.4614 373.957 94.5791 373.957 92.2571C373.957 89.9351 372.372 88.0527 370.416 88.0527C368.46 88.0527 366.875 89.9351 366.875 92.2571C366.875 94.5791 368.46 96.4614 370.416 96.4614Z" fill="black"/>
<path d="M378.081 105.148H362.734V105.109C362.734 101.568 365.085 98.4571 368.493 97.4903L370.317 96.9727L372.276 97.5155C375.706 98.4659 378.081 101.588 378.081 105.148Z" fill="black"/>
<path d="M372.477 94.6797H368.359V98.6957H372.477V94.6797Z" fill="black"/>
<path d="M384.305 90.3626C390.135 90.3626 394.861 85.6369 394.861 79.8073C394.861 73.9777 390.135 69.252 384.305 69.252C378.476 69.252 373.75 73.9777 373.75 79.8073C373.75 85.6369 378.476 90.3626 384.305 90.3626Z" fill="#0A5840"/>
<path d="M378.886 82.2572C379.103 82.2798 379.295 82.2798 379.637 82.2572C380.161 82.2229 380.695 82.0752 381.093 81.8023C381.571 81.4721 381.89 80.9945 382.026 80.4368L381.992 80.4257C381.662 80.7667 381.184 80.9602 380.514 80.9602C379.262 80.9602 378.203 80.0842 378.203 78.6507C378.203 77.2056 379.364 75.9883 380.991 75.9883C382.891 75.9883 383.79 77.4445 383.79 79.1742C383.79 80.7103 383.3 81.8363 382.492 82.576C381.787 83.2129 380.82 83.566 379.671 83.6113C379.375 83.634 379.079 83.6229 378.886 83.6113V82.2572ZM379.933 78.5484C379.933 79.1852 380.275 79.7314 380.98 79.7314C381.447 79.7314 381.776 79.5038 381.936 79.2422C381.992 79.1399 382.026 79.0259 382.026 78.81C382.026 78.0249 381.731 77.2512 380.945 77.2512C380.354 77.2514 379.922 77.7744 379.933 78.5484Z" fill="white"/>
<path d="M388.103 77.4551V79.9353H390.48V81.0049H388.103V83.508H386.988V81.0049H384.609V79.9353H386.988V77.4551H388.103Z" fill="white"/>
<path d="M382.879 400C382.813 400 382.746 399.991 382.68 399.971C382.315 399.861 382.107 399.476 382.217 399.11L413.971 293.434C414.082 293.069 414.461 292.861 414.833 292.971C415.198 293.081 415.405 293.466 415.296 293.832L383.541 399.508C383.451 399.807 383.176 400 382.879 400Z" fill="black"/>
<path d="M473.931 400C473.633 400 473.359 399.807 473.268 399.508L441.514 293.832C441.404 293.466 441.612 293.081 441.977 292.971C442.347 292.861 442.728 293.069 442.838 293.434L474.593 399.11C474.702 399.476 474.495 399.861 474.13 399.971C474.063 399.991 473.996 400 473.931 400Z" fill="black"/>
<path d="M372.812 298.27L444.326 297.909C457.426 297.843 468.993 289.348 472.977 276.87L487.541 216.591L434.19 196.289L372.812 298.27Z" fill="#EDEDED"/>
<path d="M371.641 298.967L433.951 195.438L434.491 195.644L488.411 216.162L473.704 277.032C469.602 289.885 457.825 298.533 444.385 298.601L371.641 298.967ZM434.539 197.141L374.094 297.573L444.378 297.218C457.217 297.153 468.467 288.891 472.373 276.66L486.781 217.021L434.539 197.141Z" fill="black"/>
<path d="M229.327 310.083H181.875V288.475H229.327V310.083ZM183.258 308.7H227.944V289.857H183.258V308.7Z" fill="#D2D2D2"/>
<path d="M204.639 330.309H157.188V308.701H204.639V330.309ZM158.57 328.926H203.257V310.084H158.57V328.926Z" fill="#D2D2D2"/>
<path d="M482.519 76.5156C471.528 76.5156 462.532 85.4254 462.619 96.4154C462.655 100.904 463.864 104.821 466.802 108.335C465.593 111.043 462.264 113.162 458.75 114.659C463.692 115.825 468.3 114.845 471.346 112.883C474.531 115.048 478.377 116.315 482.519 116.315C493.509 116.315 502.418 107.405 502.418 96.4151C502.418 85.4251 493.509 76.5156 482.519 76.5156Z" fill="#EDEDED"/>
<path d="M482.627 103.962L475.798 95.6687C475.652 95.4917 475.677 95.2304 475.854 95.0846C476.031 94.9394 476.292 94.9638 476.438 95.1413L482.461 102.455L489.455 88.6913C489.56 88.4867 489.811 88.407 490.013 88.5094C490.218 88.6133 490.299 88.863 490.195 89.0674L482.627 103.962Z" fill="black"/>
<path d="M334.905 366.672L324.585 399.003L283.516 381.061C290.083 372.445 301.49 370.371 310.65 373.136L314.452 358.1L334.905 366.672Z" fill="#929292"/>
<path d="M448.823 237.41L449.033 260.327L370.046 288.899L338.707 371.528L304.141 357.702L322.096 277.358C323.46 271.324 326.248 265.705 330.227 260.969C336.422 253.595 345.14 248.791 354.683 247.492L422.812 238.219L448.823 237.41Z" fill="#0A5840"/>
<path d="M349.126 364.778L338.152 399.157L292.031 380.079C300.044 372.575 309.295 370.592 319.724 373.871L326.225 355.508L349.126 364.778Z" fill="#D2D2D2"/>
<path d="M464.723 258.251C464.848 272.25 453.863 283.837 439.87 284.452L385.733 286.823L351.285 376.37L346.881 374.607L325.07 365.883L316.719 362.544L339.864 266.105C342.546 256.378 350.566 249.057 360.486 247.252L409.134 238.403L415.232 237.297L464.509 235.334L464.647 249.886L464.723 258.251Z" fill="#0A5840"/>
<path opacity="0.2" d="M464.654 249.886L409.141 238.403L415.238 237.297L464.515 235.334L464.654 249.886Z" fill="black"/>
<path d="M316.744 362.956C316.713 362.956 316.681 362.952 316.649 362.945C316.426 362.893 316.287 362.67 316.339 362.447L338.836 265.41C339.723 261.585 341.555 257.999 344.134 255.038C347.716 250.925 352.645 248.127 358.012 247.159L370.917 244.832C371.145 244.795 371.358 244.941 371.399 245.167C371.44 245.392 371.29 245.607 371.064 245.649L358.16 247.976C352.977 248.91 348.218 251.611 344.759 255.583C342.27 258.442 340.501 261.905 339.645 265.598L317.148 362.635C317.103 362.827 316.932 362.956 316.744 362.956Z" fill="black"/>
<path d="M324.326 382.813C324.081 382.813 323.843 382.682 323.718 382.451L319.224 374.156C319.042 373.819 319.167 373.4 319.503 373.218C319.839 373.037 320.258 373.161 320.44 373.497L324.933 381.792C325.116 382.129 324.991 382.548 324.655 382.73C324.551 382.787 324.438 382.813 324.326 382.813Z" fill="black"/>
<path d="M347.788 358.203C343.036 355.797 339.116 352.099 334.709 349.16C330.637 346.444 326.073 344.596 321.271 343.705L321.094 344.442C326.201 345.402 331.12 347.455 335.495 350.535C339.954 353.673 344.06 357.471 349.152 359.591C351.743 360.669 354.455 361.143 357.179 361.13L357.463 360.392C354.254 360.465 351.011 359.835 347.788 358.203Z" fill="white"/>
<path d="M435.576 126.922H418.203V150.427H435.576V126.922Z" fill="#FF8F78"/>
<path d="M432.168 136.094C430.177 140.276 423.554 145.503 418.203 147.756V134.248L432.168 136.094Z" fill="black"/>
<path d="M434.688 126.948L434.134 129.201L432.24 136.875C431.984 137.048 431.715 137.221 431.424 137.387C428.092 139.315 422.486 140.864 418.193 140.74C416.05 140.677 414.238 140.207 413.187 139.156C411.756 137.725 410.83 135.057 410.242 132.036C409.973 130.66 409.772 129.215 409.62 127.77C409.295 124.639 409.219 121.535 409.219 119.309C409.212 117.325 409.275 116.039 409.275 116.039L421.082 110.301L432.662 113.674L433.692 120.436L434.224 123.913L434.681 126.92L434.688 126.948Z" fill="#FF8F78"/>
<path d="M436.626 123.855C441.264 108.168 436.963 96.7824 415.372 104.879C396.818 95.3486 393.276 131.867 426.421 114.831C429.449 116.853 431.832 119.686 433.083 123.939L436.626 123.855Z" fill="black"/>
<path d="M438.955 126.324C439.925 123.97 438.942 121.333 436.76 120.434C434.578 119.535 432.023 120.715 431.053 123.069C430.083 125.423 431.066 128.061 433.248 128.96C435.43 129.859 437.985 128.679 438.955 126.324Z" fill="#FF8F78"/>
<path d="M416.007 130.287C415.947 130.287 415.886 130.271 415.83 130.238C415.733 130.18 415.634 130.126 415.536 130.072C414.939 129.745 414.12 129.296 414.595 128.234C414.753 127.881 414.983 127.641 415.187 127.429C415.502 127.101 415.774 126.818 415.836 126.109C415.853 125.919 416.024 125.777 416.21 125.795C416.401 125.811 416.542 125.978 416.525 126.169C416.442 127.121 416.04 127.539 415.685 127.908C415.498 128.104 415.335 128.273 415.227 128.516C415.032 128.952 415.174 129.085 415.869 129.466C415.974 129.524 416.081 129.582 416.185 129.644C416.349 129.742 416.403 129.954 416.305 130.118C416.24 130.226 416.125 130.287 416.007 130.287Z" fill="black"/>
<path d="M418.375 121.617C418.212 122.122 419.315 122.283 420.788 122.421C422.261 122.56 423.806 122.94 423.839 122.592C423.871 122.243 422.516 121.079 421.043 120.941C419.569 120.803 418.643 120.787 418.375 121.617Z" fill="black"/>
<path d="M414.623 122.217C414.723 122.727 413.777 122.846 412.519 122.928C411.261 123.01 409.924 123.332 409.922 122.983C409.92 122.635 411.156 121.526 412.415 121.444C413.673 121.362 414.458 121.381 414.623 122.217Z" fill="black"/>
<path d="M417.2 133.648C416.599 133.648 415.992 133.528 415.425 133.244C415.255 133.159 415.186 132.951 415.271 132.78C415.357 132.61 415.566 132.542 415.735 132.626C417.429 133.473 419.633 132.529 420.508 131.552C420.636 131.41 420.855 131.399 420.995 131.525C421.138 131.652 421.15 131.871 421.022 132.013C420.27 132.854 418.75 133.648 417.2 133.648Z" fill="black"/>
<path d="M420.083 126.312C420.56 126.312 420.947 125.808 420.947 125.188C420.947 124.567 420.56 124.064 420.083 124.064C419.606 124.064 419.219 124.567 419.219 125.188C419.219 125.808 419.606 126.312 420.083 126.312Z" fill="black"/>
<path d="M412.974 126.312C413.451 126.312 413.838 125.808 413.838 125.188C413.838 124.567 413.451 124.064 412.974 124.064C412.496 124.064 412.109 124.567 412.109 125.188C412.109 125.808 412.496 126.312 412.974 126.312Z" fill="black"/>
<path opacity="0.4" d="M424.817 130.257C426.01 130.257 426.977 129.289 426.977 128.096C426.977 126.903 426.01 125.936 424.817 125.936C423.624 125.936 422.656 126.903 422.656 128.096C422.656 129.289 423.624 130.257 424.817 130.257Z" fill="#0A5840"/>
<path opacity="0.4" d="M412.022 129.909C412.022 130.98 411.248 131.865 410.232 132.038C409.962 130.662 409.761 129.218 409.609 127.773C409.692 127.759 409.782 127.752 409.865 127.752C411.054 127.752 412.022 128.72 412.022 129.909Z" fill="#0A5840"/>
<path d="M434.088 127.319C433.93 127.319 433.788 127.211 433.751 127.051C433.429 125.651 433.606 124.367 434.239 123.527C434.683 122.938 435.312 122.606 436.058 122.567C436.246 122.562 436.411 122.703 436.421 122.894C436.431 123.084 436.284 123.247 436.094 123.257C435.559 123.285 435.108 123.523 434.791 123.943C434.281 124.619 434.148 125.696 434.425 126.896C434.468 127.082 434.352 127.267 434.166 127.31C434.139 127.316 434.114 127.319 434.088 127.319Z" fill="black"/>
<path d="M500.026 209.079L470.064 208.954V233.849C470.064 234.478 469.981 235.086 469.829 235.667C469.02 238.716 466.234 240.962 462.93 240.942L397.573 240.451C393.867 240.423 390.984 237.215 391.358 233.524L393.791 209.646L377.891 186.486L381.617 173.206C384.258 163.797 391.427 156.331 400.718 153.31L418.34 147.593L427.226 150.392L433.428 146.398L453.86 149.01C464.181 150.33 473.231 156.538 478.18 165.691L496.784 200.105C498.312 202.926 499.397 205.954 500.026 209.079Z" fill="#FFD966"/>
<path d="M408.984 197.421L413.008 197.325L447.574 181.212C448.382 180.836 448.731 179.876 448.355 179.069C447.979 178.261 447.019 177.912 446.211 178.288L411.645 194.401L408.984 197.421Z" fill="black"/>
<path d="M418.23 145.115L427.139 150.475L420.23 156.787L410.625 150.3L418.23 145.115Z" fill="#FFD966"/>
<path d="M427.109 150.475L434.372 155.98L441.013 147.304L435.598 143.617L427.109 150.475Z" fill="#FFD966"/>
<path d="M420.214 157.077L410.345 150.649C410.152 150.524 410.099 150.267 410.224 150.075C410.349 149.883 410.607 149.83 410.797 149.954L420.138 156.038L427.061 149.945L434.38 155.291L440.659 147.054C440.798 146.872 441.059 146.837 441.24 146.976C441.423 147.115 441.458 147.375 441.319 147.557L434.547 156.44L427.109 151.007L420.214 157.077Z" fill="black"/>
<path opacity="0.2" d="M470.07 211.167V233.849C470.07 234.478 469.987 235.087 469.835 235.668C458.522 230.1 447.873 221.311 437.578 210.801L470.07 211.167Z" fill="black"/>
<path d="M446.311 190.978L434.071 180.857C433.327 180.242 432.276 180.162 431.447 180.657L421.81 186.329C421.449 186.541 421.179 186.877 421.049 187.275L419.868 190.892C419.148 192.27 418.895 193.803 418.857 195.406C418.704 196.092 419.171 196.762 419.868 196.855L419.69 200.65C419.644 201.623 420.368 202.461 421.337 202.558L421.865 204.812C422.083 205.744 423.103 206.241 423.971 205.837L428.423 203.768L437.552 210.799L446.916 202.99L446.311 190.978Z" fill="#FF8F78"/>
<path d="M419.712 191.386C419.547 191.386 419.39 191.287 419.326 191.123C419.242 190.911 419.346 190.67 419.559 190.585L427.978 187.25C428.192 187.165 428.432 187.27 428.516 187.483C428.6 187.696 428.496 187.937 428.283 188.021L419.864 191.356C419.814 191.377 419.762 191.386 419.712 191.386Z" fill="black"/>
<path d="M419.868 197.27C419.706 197.27 419.551 197.173 419.485 197.014C419.397 196.803 419.497 196.56 419.709 196.472L425.931 193.879C426.141 193.792 426.385 193.892 426.473 194.103C426.561 194.314 426.461 194.557 426.249 194.645L420.027 197.237C419.975 197.259 419.921 197.27 419.868 197.27Z" fill="black"/>
<path d="M421.353 202.97C421.213 202.97 421.078 202.9 420.999 202.773C420.879 202.578 420.94 202.322 421.135 202.203L426.291 199.034C426.489 198.914 426.742 198.976 426.862 199.17C426.982 199.365 426.921 199.621 426.726 199.74L421.57 202.909C421.501 202.951 421.426 202.97 421.353 202.97Z" fill="black"/>
<path d="M500.647 216.55C500.537 219.876 499.299 222.952 497.287 225.372C495.269 227.798 492.469 229.568 489.22 230.287C488.183 230.515 487.139 230.626 486.088 230.626C484.09 230.626 482.099 230.218 480.246 229.409L437.578 210.799L446.337 190.979L500.032 209.077C500.53 211.525 500.737 214.034 500.647 216.55Z" fill="#FFD966"/>
<path d="M486.544 205.674C486.498 205.674 486.451 205.666 486.405 205.65L446.214 191.368C445.998 191.291 445.885 191.054 445.962 190.838C446.038 190.623 446.274 190.51 446.492 190.586L486.683 204.868C486.898 204.945 487.012 205.182 486.935 205.398C486.874 205.568 486.715 205.674 486.544 205.674Z" fill="black"/>
<path d="M396.022 203.852C395.805 203.852 395.622 203.683 395.609 203.463L393.751 174.11C393.736 173.881 393.91 173.684 394.138 173.669C394.36 173.65 394.564 173.828 394.579 174.057L396.437 203.411C396.451 203.64 396.277 203.837 396.049 203.851C396.04 203.852 396.031 203.852 396.022 203.852Z" fill="black"/>
<path d="M468.55 199.01C468.374 199.01 468.21 198.896 468.154 198.719L460.722 175.124C460.654 174.906 460.775 174.673 460.993 174.604C461.212 174.533 461.444 174.656 461.514 174.875L468.945 198.469C469.014 198.688 468.893 198.921 468.675 198.99C468.633 199.003 468.591 199.01 468.55 199.01Z" fill="black"/>
<path d="M355.078 183.027L395.175 183.719L422.136 230.382L381.003 229.691L355.078 183.027Z" fill="#599BFF"/>
<path d="M369.247 182.68L370.773 185.574C370.927 185.866 371.226 186.052 371.556 186.06L379.802 186.27C380.465 186.287 380.924 185.612 380.664 185.001L379.46 182.174C379.321 181.848 379.005 181.632 378.651 181.62L370.083 181.344C369.384 181.322 368.921 182.062 369.247 182.68Z" fill="black"/>
<path d="M360.818 203.937C371.105 197.244 382.626 190.889 380.12 198.526C383.079 198.003 384.334 199.658 382.306 202.463C385.392 202.181 386.173 203.934 382.257 208.415C388.295 207.676 383.252 213.638 373.173 220.595C371.604 221.678 369.758 222.299 367.853 222.377L366.715 222.423C363.14 222.569 359.756 220.804 357.83 217.788C355.946 214.837 355.733 211.119 357.266 207.973L357.275 207.953C358.072 206.319 359.293 204.928 360.818 203.937Z" fill="#FF8F78"/>
<path d="M368.931 205.817C368.792 205.817 368.656 205.748 368.578 205.621C368.457 205.426 368.518 205.171 368.712 205.05L379.841 198.173C380.036 198.053 380.291 198.114 380.412 198.308C380.532 198.503 380.472 198.758 380.277 198.879L369.149 205.756C369.08 205.798 369.005 205.817 368.931 205.817Z" fill="black"/>
<path d="M371.744 209.192C371.603 209.192 371.465 209.12 371.387 208.99C371.27 208.794 371.333 208.539 371.53 208.421L382.072 202.108C382.269 201.99 382.523 202.054 382.641 202.25C382.758 202.446 382.695 202.702 382.498 202.819L371.956 209.133C371.889 209.173 371.816 209.192 371.744 209.192Z" fill="black"/>
<path d="M372.916 215.236C372.783 215.236 372.654 215.174 372.573 215.057C372.443 214.868 372.491 214.61 372.68 214.48L382.007 208.073C382.196 207.943 382.454 207.992 382.584 208.18C382.714 208.369 382.666 208.627 382.477 208.756L373.15 215.164C373.078 215.213 372.996 215.236 372.916 215.236Z" fill="black"/>
<path d="M427.814 162.145C428.72 162.145 429.455 161.41 429.455 160.503C429.455 159.596 428.72 158.861 427.814 158.861C426.907 158.861 426.172 159.596 426.172 160.503C426.172 161.41 426.907 162.145 427.814 162.145Z" fill="black"/>
<path d="M274.91 230.755C274.785 230.755 274.66 230.722 274.546 230.652C274.222 230.451 274.121 230.025 274.323 229.7L308.006 175.305L316.649 174.584C317.038 174.553 317.364 174.836 317.395 175.216C317.427 175.597 317.145 175.931 316.764 175.962L308.815 176.625L275.498 230.428C275.367 230.639 275.141 230.755 274.91 230.755Z" fill="black"/>
<path d="M310.547 147.909L319.705 141.277L330.53 209.98L319.978 207.766L310.547 147.909Z" fill="#D2D2D2"/>
<path d="M226.238 398.66C226.145 398.66 226.049 398.641 225.959 398.6C225.61 398.446 225.452 398.038 225.606 397.688L299.55 230.691C299.704 230.342 300.111 230.184 300.462 230.339C300.811 230.493 300.968 230.901 300.814 231.251L226.87 398.249C226.756 398.507 226.503 398.66 226.238 398.66Z" fill="black"/>
<path d="M438.385 398.658C438.12 398.658 437.866 398.505 437.752 398.247L363.809 231.25C363.655 230.9 363.812 230.492 364.161 230.338C364.511 230.181 364.919 230.341 365.073 230.689L439.016 397.687C439.171 398.037 439.013 398.444 438.664 398.599C438.573 398.64 438.478 398.658 438.385 398.658Z" fill="black"/>
<path d="M435.218 229.877H229.375V234.828H435.218V229.877Z" fill="black"/>
<path d="M103.271 399.465H105.859L105.859 247.902H103.271L103.271 399.465Z" fill="black"/>
<path d="M71.4844 262.068H147.36V231.474C147.36 224.495 141.703 218.838 134.724 218.838H84.1209C77.1419 218.838 71.4844 224.495 71.4844 231.474V262.068Z" fill="#0A5840"/>
<path d="M122.109 262.068H147.382V231.474C147.382 224.495 141.725 218.838 134.746 218.838C127.767 218.838 122.109 224.495 122.109 231.474V262.068Z" fill="#0A5840"/>
<path d="M122.701 262.186H121.406V231.473C121.406 224.148 127.365 218.189 134.69 218.189C142.015 218.189 147.974 224.148 147.974 231.473V262.067H146.679V231.473C146.679 224.862 141.301 219.484 134.69 219.484C128.079 219.484 122.701 224.862 122.701 231.473V262.186H122.701Z" fill="white"/>
<path d="M98.8941 233.566H102.5V193.876H98.8941V233.566Z" fill="black"/>
<path d="M93.5332 212.428H102.53V193.875H93.5332C91.8409 193.875 90.4688 195.247 90.4688 196.939V209.364C90.4688 211.057 91.8406 212.428 93.5332 212.428Z" fill="#0A5840"/>
<path d="M97.2712 238.188H104.232C104.882 238.188 105.409 237.661 105.409 237.011V229.449C105.409 228.799 104.882 228.271 104.232 228.271H97.2712C96.6211 228.271 96.0938 228.799 96.0938 229.449V237.011C96.0938 237.661 96.6208 238.188 97.2712 238.188Z" fill="black"/>
<path d="M102.326 163.031L96.7969 181.006L98.1181 181.412L103.647 163.438L102.326 163.031Z" fill="#D2D2D2"/>
<path d="M82.0021 157.941L80.7031 158.416L89.4601 182.383L90.759 181.908L82.0021 157.941Z" fill="#D2D2D2"/>
<path d="M68.8199 172.825L67.9688 173.914L82.7165 185.435L83.5676 184.346L68.8199 172.825Z" fill="#D2D2D2"/>
<path d="M553.056 398.375H0V399.758H553.056V398.375Z" fill="black"/>
</svg>
