<svg width="360" height="360" viewBox="0 0 360 360" fill="none" xmlns="http://www.w3.org/2000/svg">
<path d="M154.614 63.9648H29.6288V175.784H154.614V63.9648Z" fill="#FAFAFA"/>
<path d="M154.614 175.784C154.614 175.784 154.593 175.067 154.582 173.709C154.575 172.336 154.564 170.33 154.549 167.718C154.533 162.467 154.508 154.794 154.476 145.02C154.441 125.482 154.391 97.5643 154.331 63.9655L154.614 64.2485C118.619 64.2629 75.6619 64.2802 29.6395 64.2989H29.628L29.9621 63.9648C29.9477 104.646 29.934 142.926 29.9218 175.784L29.628 175.49C66.9139 175.551 98.1209 175.603 120.026 175.638C130.986 175.671 139.615 175.698 145.523 175.715C148.466 175.73 150.728 175.742 152.273 175.75C153.029 175.757 153.607 175.763 154.013 175.766C154.405 175.773 154.614 175.784 154.614 175.784C154.614 175.784 154.428 175.795 154.047 175.801C153.648 175.805 153.081 175.81 152.338 175.818C150.806 175.825 148.564 175.837 145.646 175.852C139.753 175.87 131.147 175.897 120.216 175.93C98.2642 175.966 66.9917 176.017 29.628 176.078L29.3343 176.079V175.784C29.3227 142.928 29.3091 104.647 29.2939 63.9655V63.6314H29.628H29.6395C75.6619 63.6502 118.619 63.6674 154.614 63.6818H154.898L154.897 63.9655C154.837 97.6392 154.786 125.618 154.752 145.199C154.72 154.945 154.696 162.598 154.678 167.833C154.664 170.423 154.653 172.411 154.646 173.771C154.634 175.109 154.614 175.784 154.614 175.784Z" fill="#E0E0E0"/>
<path d="M77.552 83.8332C77.552 84.0175 70.9733 84.1673 62.8604 84.1673C54.7438 84.1673 48.1666 84.0175 48.1666 83.8332C48.1666 83.6489 54.7438 83.4991 62.8604 83.4991C70.9733 83.4991 77.552 83.6489 77.552 83.8332Z" fill="#E0E0E0"/>
<path d="M130.51 92.2291C130.51 92.4134 112.437 92.5632 90.1477 92.5632C67.8507 92.5632 49.7809 92.4142 49.7809 92.2291C49.7809 92.0448 67.85 91.8951 90.1477 91.8951C112.437 91.8951 130.51 92.0448 130.51 92.2291Z" fill="#E0E0E0"/>
<path d="M53.6479 106.451H48.3818V111.716H53.6479V106.451Z" fill="#E0E0E0"/>
<path d="M66.6086 106.451H61.3433V111.716H66.6086V106.451Z" fill="#E0E0E0"/>
<path d="M79.8099 106.212H74.5446V111.477H79.8099V106.212Z" fill="#E0E0E0"/>
<path d="M92.5323 106.451H87.267V111.716H92.5323V106.451Z" fill="#E0E0E0"/>
<path d="M105.494 106.451H100.228V111.716H105.494V106.451Z" fill="#E0E0E0"/>
<path d="M118.455 106.451H113.19V111.716H118.455V106.451Z" fill="#E0E0E0"/>
<path d="M131.417 106.451H126.151V111.716H131.417V106.451Z" fill="#EBEBEB"/>
<path d="M53.6479 117.645H48.3818V122.91H53.6479V117.645Z" fill="#EBEBEB"/>
<path d="M66.6086 117.645H61.3433V122.91H66.6086V117.645Z" fill="#E0E0E0"/>
<path d="M79.5708 117.645H74.3047V122.91H79.5708V117.645Z" fill="#EBEBEB"/>
<path d="M92.5323 117.645H87.267V122.91H92.5323V117.645Z" fill="#E0E0E0"/>
<path d="M105.494 117.645H100.228V122.91H105.494V117.645Z" fill="#E0E0E0"/>
<path d="M118.694 117.406H113.429V122.671H118.694V117.406Z" fill="#E0E0E0"/>
<path d="M131.417 117.645H126.151V122.91H131.417V117.645Z" fill="#E0E0E0"/>
<path d="M53.6479 128.84H48.3818V134.105H53.6479V128.84Z" fill="#E0E0E0"/>
<path d="M66.8478 128.6H61.5824V133.865H66.8478V128.6Z" fill="#E0E0E0"/>
<path d="M79.5708 128.84H74.3047V134.105H79.5708V128.84Z" fill="#E0E0E0"/>
<path d="M92.5323 128.84H87.267V134.105H92.5323V128.84Z" fill="#EBEBEB"/>
<path d="M105.494 128.84H100.228V134.105H105.494V128.84Z" fill="#E0E0E0"/>
<path d="M118.455 128.84H113.19V134.105H118.455V128.84Z" fill="#E0E0E0"/>
<path d="M131.417 128.84H126.151V134.105H131.417V128.84Z" fill="#E0E0E0"/>
<path d="M53.6479 140.034H48.3818V145.3H53.6479V140.034Z" fill="#E0E0E0"/>
<path d="M66.6086 140.034H61.3433V145.3H66.6086V140.034Z" fill="#E0E0E0"/>
<path d="M79.5708 140.034H74.3047V145.3H79.5708V140.034Z" fill="#E0E0E0"/>
<path d="M92.7713 139.794H87.506V145.06H92.7713V139.794Z" fill="#E0E0E0"/>
<path d="M105.494 140.034H100.228V145.3H105.494V140.034Z" fill="#E0E0E0"/>
<path d="M118.455 140.034H113.19V145.3H118.455V140.034Z" fill="#EBEBEB"/>
<path d="M131.417 140.034H126.151V145.3H131.417V140.034Z" fill="#E0E0E0"/>
<path d="M53.6479 151.228H48.3818V156.493H53.6479V151.228Z" fill="#E0E0E0"/>
<path d="M66.6086 151.228H61.3433V156.493H66.6086V151.228Z" fill="#EBEBEB"/>
<path d="M79.5708 151.228H74.3047V156.493H79.5708V151.228Z" fill="#E0E0E0"/>
<path d="M92.5323 151.228H87.267V156.493H92.5323V151.228Z" fill="#E0E0E0"/>
<path d="M105.494 151.228H100.228V156.493H105.494V151.228Z" fill="#E0E0E0"/>
<path d="M118.694 150.989H113.429V156.254H118.694V150.989Z" fill="#E0E0E0"/>
<path d="M131.417 151.228H126.151V156.493H131.417V151.228Z" fill="#E0E0E0"/>
<path d="M295.754 37.3464L287.722 37.3897L287.938 77.3562L295.97 77.3128L295.754 37.3464Z" fill="#E0E0E0"/>
<path d="M238.935 37.4743L218.135 37.5846L218.252 59.649L239.052 59.5387L238.935 37.4743Z" fill="#EBEBEB"/>
<path d="M259.64 37.3394L238.839 37.4517L238.959 59.5161L259.759 59.4038L259.64 37.3394Z" fill="#F5F5F5"/>
<path d="M218.166 43.6673C231.988 43.7811 245.845 43.7011 259.667 43.4765C259.951 43.4722 259.949 43.0359 259.664 43.0344C245.841 42.9581 231.984 43.0258 218.164 43.2886C217.92 43.2929 217.922 43.6651 218.166 43.6673Z" fill="#E0E0E0"/>
<path d="M242.96 59.1484L205.171 59.3524L205.268 77.333L243.058 77.1289L242.96 59.1484Z" fill="#EBEBEB"/>
<path d="M280.572 58.9458L242.782 59.1499L242.879 77.1305L280.669 76.9264L280.572 58.9458Z" fill="#F5F5F5"/>
<path d="M205.192 64.3615C230.296 64.6459 255.489 64.391 280.593 63.9893C280.877 63.9842 280.876 63.5486 280.59 63.5472C255.484 63.4147 230.291 63.4291 205.191 63.9828C204.947 63.9878 204.948 64.3586 205.192 64.3615Z" fill="#E0E0E0"/>
<path d="M337.469 77.341H191.06V83.7828H337.469V77.341Z" fill="#E0E0E0"/>
<path d="M220.974 80.4384H215.03V102.419H220.974V80.4384Z" fill="#E0E0E0"/>
<path d="M309.697 80.4384H303.754V102.419H309.697V80.4384Z" fill="#E0E0E0"/>
<path d="M303.591 22.4427L295.559 22.4861L295.856 77.4545L303.888 77.4111L303.591 22.4427Z" fill="#EBEBEB"/>
<path d="M316.142 32.6778L303.661 32.7451L303.902 77.2908L316.382 77.2234L316.142 32.6778Z" fill="#F5F5F5"/>
<path d="M316.052 41.2682C316.052 41.3878 313.258 41.4842 309.812 41.4842C306.365 41.4842 303.572 41.387 303.572 41.2682C303.572 41.1487 306.365 41.0522 309.812 41.0522C313.258 41.0522 316.052 41.1494 316.052 41.2682Z" fill="#E0E0E0"/>
<path d="M316.052 39.397C316.052 39.5165 313.258 39.613 309.812 39.613C306.365 39.613 303.572 39.5165 303.572 39.397C303.572 39.2774 306.365 39.181 309.812 39.181C313.258 39.181 316.052 39.2774 316.052 39.397Z" fill="#E0E0E0"/>
<path d="M316.052 70.5298C316.052 70.6493 313.258 70.7458 309.812 70.7458C306.365 70.7458 303.572 70.6493 303.572 70.5298C303.572 70.4102 306.365 70.3138 309.812 70.3138C313.258 70.3138 316.052 70.4102 316.052 70.5298Z" fill="#E0E0E0"/>
<path d="M316.052 68.6585C316.052 68.778 313.258 68.8745 309.812 68.8745C306.365 68.8745 303.572 68.778 303.572 68.6585C303.572 68.539 306.365 68.4425 309.812 68.4425C313.258 68.4425 316.052 68.539 316.052 68.6585Z" fill="#E0E0E0"/>
<path d="M310.013 64.5754C309.893 64.5754 309.797 60.0811 309.797 54.5386C309.797 48.9938 309.893 44.501 310.013 44.501C310.132 44.501 310.229 48.9946 310.229 54.5386C310.229 60.0811 310.132 64.5754 310.013 64.5754Z" fill="#E0E0E0"/>
<path d="M329.772 43.6255H316.187V77.2481H329.772V43.6255Z" fill="#EBEBEB"/>
<path d="M301.761 31.8391C301.761 33.1142 300.727 34.1474 299.452 34.1474C298.177 34.1474 297.144 33.1142 297.144 31.8391C297.144 30.564 298.177 29.5308 299.452 29.5308C300.727 29.5308 301.761 30.564 301.761 31.8391Z" fill="#E0E0E0"/>
<path d="M300.166 38.1881H298.739V70.8876H300.166V38.1881Z" fill="#E0E0E0"/>
<path d="M53.4686 246.84C57.2364 244.896 61.6737 244.643 65.8569 245.334C68.104 245.706 70.4469 246.378 71.9762 248.066C73.5055 249.754 73.7949 252.725 72.0396 254.175C70.9941 255.038 69.5368 255.169 68.1811 255.154C64.9065 255.116 61.2727 254.539 58.6569 256.51C57.1644 257.634 56.1708 259.503 54.3859 260.056C52.6399 260.597 50.67 259.566 49.744 257.991C48.8181 256.415 48.7872 254.446 49.2192 252.67C49.2192 252.67 49.6735 248.798 53.4686 246.84Z" fill="#04412E"/>
<path d="M44.8365 230.175C47.1405 233.466 51.6189 232.376 53.6947 230.368C55.7711 228.36 56.6488 225.449 57.4473 222.672C59.2725 216.329 61.1128 209.675 59.7556 203.216C59.3495 201.285 58.6274 199.359 57.2709 197.926C55.9137 196.493 53.8271 195.641 51.9191 196.145C49.6612 196.741 48.2579 198.953 47.2442 201.056C44.2627 207.24 42.6844 214.095 42.6614 220.96C42.6499 224.166 43.0279 227.529 44.8365 230.175Z" fill="#04412E"/>
<path d="M38.5092 234.897C41.0112 231.928 41.4857 227.598 40.3725 223.878C39.2594 220.159 36.7445 216.994 33.8465 214.411C30.4481 211.382 26.4542 209.025 22.1601 207.516C20.4703 206.922 18.6876 206.453 16.9041 206.623C15.1207 206.793 13.325 207.705 12.4934 209.291C11.2637 211.637 12.443 214.482 13.7181 216.803C15.9653 220.892 18.5342 224.804 21.3941 228.492C23.6945 231.458 26.3304 234.384 29.8368 235.724C33.3432 237.065 36.9857 236.907 38.844 234.475" fill="#04412E"/>
<path d="M44.6803 279.815C44.7235 279.818 44.7934 279.284 44.8884 278.32C44.9942 277.231 45.1274 275.864 45.2858 274.239C45.4759 272.521 45.7265 270.478 46.2038 268.253C46.679 266.033 47.4235 263.627 48.3797 261.188C49.3697 258.763 50.5764 256.558 51.9876 254.796C53.388 253.025 55.0174 251.744 56.5481 251.004C58.0738 250.25 59.4432 249.944 60.3886 249.808C61.3426 249.71 61.8768 249.635 61.8775 249.593C61.8782 249.551 61.3426 249.543 60.3626 249.569C59.3914 249.634 57.9665 249.88 56.3573 250.612C54.7438 251.328 53.0158 252.629 51.5462 254.436C50.0652 256.236 48.8146 258.489 47.8073 260.958C46.8346 263.44 46.1016 265.87 45.6473 268.137C45.1944 270.401 44.987 272.467 44.8517 274.199C44.7221 275.932 44.6731 277.335 44.6494 278.305C44.627 279.275 44.6386 279.813 44.6803 279.815Z" fill="#263238"/>
<path d="M44.9619 276.675C44.9827 276.674 44.9964 276.435 45.0022 275.981C45.0007 275.46 44.9993 274.803 44.9971 273.997C44.9921 272.275 44.9928 269.783 45.0857 266.706C45.2383 260.552 45.7683 253.929 46.7914 244.591C47.7605 235.811 49.0615 225.593 50.4339 218.95C50.7283 217.439 51.025 216.079 51.3036 214.888C51.5693 213.695 51.7968 212.666 52.0164 211.833C52.2051 211.05 52.3584 210.411 52.4801 209.905C52.5795 209.462 52.6219 209.226 52.6018 209.22C52.5816 209.215 52.4988 209.439 52.3606 209.871C52.2094 210.37 52.0186 211 51.7846 211.773C51.529 212.597 51.2669 213.62 50.9681 214.808C50.6563 215.994 50.3295 217.351 50.0069 218.859C48.649 224.879 47.2104 233.292 46.1772 242.652C45.1519 252.009 44.6897 260.529 44.6487 266.698C44.6119 269.783 44.6775 272.28 44.7567 274.003C44.8056 274.809 44.8459 275.465 44.8776 275.986C44.9122 276.439 44.9403 276.677 44.9619 276.675Z" fill="#263238"/>
<path d="M45.0029 260.243C45.0461 260.242 45.0381 259.505 44.9885 258.17C44.9121 256.838 44.7293 254.913 44.3534 252.555C43.956 250.203 43.4001 247.409 42.5275 244.374C42.1495 242.986 41.2603 239.661 39.1061 234.693C36.2685 227.961 32.4129 222.458 29.0592 219.048C28.2722 218.143 27.3967 217.491 26.6954 216.852C26.3325 216.545 26.0121 216.24 25.686 215.997C25.3577 215.771 25.0524 215.56 24.7687 215.365C23.6649 214.61 23.0465 214.212 23.0234 214.248C22.9241 214.382 25.4959 215.896 28.7431 219.35C31.9766 222.798 35.7249 228.263 38.5394 234.938C40.109 238.559 41.2034 241.788 41.9796 244.53C42.8767 247.536 43.4729 250.302 43.9229 252.63C44.3505 254.964 44.5989 256.87 44.748 258.19C44.8718 259.512 44.9604 260.245 45.0029 260.243Z" fill="#263238"/>
<path d="M29.1204 289.23L30.7663 311.787H59.7463L61.3929 289.23H29.1204Z" fill="#263238"/>
<path d="M64.8504 280.338H26.321V289.229H64.8504V280.338Z" fill="#263238"/>
<path d="M26.321 310.924V313.389H28.1311H64.2139V310.924H26.321Z" fill="#455A64"/>
<path d="M29.9059 317.727L28.1311 313.389H62.8337L60.7637 317.727H29.9059Z" fill="#455A64"/>
<path d="M60.8551 296.602C60.8616 296.607 60.8155 296.677 60.7197 296.809C60.6045 296.962 60.462 297.15 60.287 297.384C59.8752 297.911 59.31 298.634 58.5986 299.544L58.5237 299.64L58.451 299.54C57.3897 298.073 55.972 296.112 54.3038 293.804H54.5421C53.308 295.551 51.9343 297.497 50.459 299.586L50.3308 299.768L50.1876 299.597C48.6806 297.804 47.044 295.857 45.3448 293.835L45.6242 293.831C45.54 293.937 45.4492 294.052 45.3578 294.166C43.8559 296.049 42.4022 297.871 41.0277 299.595L40.883 299.776L40.7498 299.587C39.2796 297.507 37.9058 295.564 36.6645 293.806L36.9021 293.818C34.889 296.112 33.1812 298.057 31.8708 299.55L31.7815 299.652L31.7131 299.537C31.05 298.423 30.5208 297.534 30.1377 296.891C29.9728 296.603 29.8396 296.371 29.7338 296.186C29.6452 296.024 29.6028 295.939 29.6107 295.934C29.6186 295.929 29.6755 296.006 29.7792 296.158C29.8965 296.336 30.0441 296.559 30.2263 296.836C30.6288 297.468 31.1839 298.341 31.8801 299.434L31.7224 299.421C33.012 297.91 34.6924 295.941 36.6732 293.619L36.7977 293.473L36.9108 293.63C38.1636 295.379 39.5496 297.314 41.0328 299.385L40.7556 299.377C42.1272 297.652 43.5772 295.826 45.0756 293.941C45.167 293.826 45.2577 293.712 45.342 293.606L45.4795 293.433L45.6213 293.602C47.3155 295.628 48.9477 297.579 50.4504 299.375L50.1796 299.386C51.67 297.307 53.0575 295.371 54.3038 293.633L54.4248 293.465L54.5428 293.633C56.1765 295.967 57.564 297.948 58.6029 299.432L58.4553 299.428C59.1955 298.541 59.783 297.836 60.2114 297.323C60.4022 297.102 60.557 296.923 60.6816 296.778C60.7888 296.657 60.8479 296.597 60.8551 296.602Z" fill="#E0E0E0"/>
<path d="M61.7961 289.081C61.7961 289.181 54.5349 289.261 45.5796 289.261C36.6213 289.261 29.3616 289.181 29.3616 289.081C29.3616 288.981 36.6213 288.901 45.5796 288.901C54.5349 288.9 61.7961 288.981 61.7961 289.081Z" fill="#455A64"/>
<path d="M63.2599 313.632C63.2599 313.731 55.368 313.813 45.6357 313.813C35.8999 313.813 28.0094 313.732 28.0094 313.632C28.0094 313.533 35.8992 313.452 45.6357 313.452C55.3687 313.451 63.2599 313.532 63.2599 313.632Z" fill="#263238"/>
<path d="M339.659 318.136H250.54V233.451C250.54 227.436 255.416 222.56 261.431 222.56H328.769C334.784 222.56 339.66 227.436 339.66 233.451V318.136H339.659Z" fill="#455A64"/>
<path d="M332.167 223.047C332.271 223.047 332.354 244.325 332.354 270.565C332.354 296.815 332.27 318.087 332.167 318.087C332.063 318.087 331.98 296.815 331.98 270.565C331.98 244.325 332.063 223.047 332.167 223.047Z" fill="#263238"/>
<path d="M288.262 118.801C296.427 130.441 301.187 144.44 301.808 158.644C302.227 168.22 300.938 178.425 305.483 186.865C312.003 198.973 326.11 198.562 330.43 211.617C332.308 217.295 328.845 229.791 327.911 235.699C326.85 242.413 330.957 248.052 329.896 254.766C328.923 260.921 324.318 265.314 318.784 268.18C313.862 270.729 309.311 270.797 304.19 268.677C294.432 264.637 286.31 260.373 279.358 252.423C269.597 241.263 266.648 225.809 264.981 211.076C261.304 178.595 262.049 145.616 267.191 113.334" fill="#263238"/>
<path d="M309.131 270.049C309.131 270.049 309.237 270.016 309.445 269.97C309.653 269.921 309.968 269.873 310.368 269.752C311.17 269.539 312.348 269.156 313.739 268.404C315.122 267.656 316.758 266.555 318.193 264.833C318.901 263.974 319.55 262.946 319.934 261.745C320.3 260.543 320.466 259.191 320.542 257.789C320.681 254.966 320.25 251.878 319.609 248.615C318.981 245.348 318.129 241.86 317.924 238.086C317.826 236.205 317.907 234.25 318.332 232.313C318.733 230.371 319.434 228.475 320.162 226.568C320.894 224.662 321.666 222.736 322.225 220.719C322.753 218.705 323.078 216.567 322.724 214.456C322.417 212.342 321.55 210.364 320.388 208.636C319.227 206.898 317.785 205.399 316.305 204.01C313.33 201.234 310.111 198.941 307.36 196.366C301.81 191.255 298.073 185.439 295.711 180.284C294.534 177.697 293.631 175.28 293.029 173.103C292.684 172.027 292.486 170.993 292.239 170.058C292.054 169.111 291.885 168.245 291.733 167.463C291.504 165.891 291.337 164.67 291.291 163.834C291.26 163.431 291.236 163.117 291.218 162.886C291.203 162.672 291.206 162.562 291.206 162.562C291.206 162.562 291.229 162.67 291.256 162.883C291.283 163.112 291.319 163.425 291.366 163.826C291.436 164.658 291.626 165.874 291.877 167.437C292.039 168.214 292.218 169.075 292.414 170.017C292.671 170.946 292.877 171.974 293.232 173.043C293.849 175.205 294.766 177.604 295.953 180.171C298.333 185.286 302.071 191.05 307.595 196.111C310.329 198.66 313.554 200.947 316.556 203.74C318.049 205.138 319.512 206.654 320.698 208.426C321.885 210.188 322.78 212.223 323.096 214.4C323.459 216.577 323.124 218.773 322.586 220.815C322.018 222.862 321.24 224.798 320.507 226.699C319.777 228.601 319.08 230.479 318.684 232.386C318.264 234.287 318.179 236.208 318.271 238.068C318.463 241.799 319.299 245.278 319.916 248.555C320.546 251.829 320.965 254.946 320.808 257.801C320.721 259.225 320.548 260.577 320.162 261.819C319.756 263.054 319.084 264.098 318.355 264.966C316.88 266.705 315.214 267.796 313.809 268.532C312.394 269.271 311.201 269.634 310.387 269.824C309.571 270.019 309.131 270.049 309.131 270.049Z" fill="#455A64"/>
<path d="M175.078 295.777L209.629 279.366C209.629 279.366 223.086 214.029 225.63 209.123C228.175 204.216 238.81 199.976 238.81 199.976L237.028 288.45L233.872 308.858L185.143 313.475L175.078 295.777Z" fill="#04412E"/>
<path d="M145.588 311.255C145.397 311.247 144.436 311.849 145.241 313.366C146.047 314.883 151.896 319.9 153.618 318.152C155.34 316.405 152.71 314.272 152.71 314.272L145.588 311.255Z" fill="#FFBE9D"/>
<path d="M152.959 314.341C152.959 314.341 160.024 315.231 162.744 316.266C165.699 317.388 169.297 316.624 171.719 314.982C174.14 313.341 175.552 311.859 175.552 311.859L184.566 311.717C184.566 311.717 188.893 307.232 186.324 300.548C185.876 299.383 185.392 298.46 184.259 297.03C183.188 295.872 181.498 294.934 178.576 294.429L167.867 296.742C167.867 296.742 151.276 295.556 148.328 296.95C148.328 296.95 144.621 299.149 143.474 300.071C143.042 300.418 141.728 304.64 144.426 306.835C144.426 306.835 142.077 308.703 143.35 310.378L143.96 311.122C143.96 311.122 142.38 313.167 143.191 314.057C144.001 314.947 151.101 319.108 153.639 318.115C156.178 317.123 154.077 314.771 152.959 314.341Z" fill="#FFBE9D"/>
<path d="M146.202 303.186C146.21 303.167 146.52 303.286 147.08 303.499C147.639 303.713 148.451 304.015 149.47 304.339C149.979 304.501 150.541 304.667 151.148 304.826C151.753 304.992 152.415 305.122 153.1 305.344C153.778 305.569 154.509 305.888 155.046 306.518C155.554 307.124 155.9 308.029 155.565 308.887C155.403 309.308 155.061 309.63 154.689 309.829C154.31 310.025 153.904 310.117 153.509 310.158C152.714 310.234 151.965 310.133 151.258 310.039C149.842 309.823 148.609 309.444 147.596 309.085C146.582 308.727 145.782 308.388 145.23 308.152C144.679 307.915 144.38 307.771 144.387 307.752C144.395 307.733 144.709 307.84 145.272 308.046C145.837 308.248 146.647 308.557 147.663 308.888C148.678 309.219 149.905 309.573 151.297 309.771C151.991 309.856 152.734 309.947 153.478 309.871C153.849 309.832 154.22 309.743 154.552 309.571C154.875 309.396 155.159 309.126 155.293 308.777C155.574 308.074 155.285 307.254 154.825 306.705C154.354 306.144 153.667 305.826 153.014 305.604C152.354 305.382 151.692 305.241 151.083 305.064C150.474 304.893 149.913 304.714 149.404 304.538C148.388 304.187 147.584 303.853 147.036 303.607C146.488 303.36 146.194 303.204 146.202 303.186Z" fill="#EB996E"/>
<path d="M146.837 298.079C146.846 298.059 147.154 298.179 147.71 298.395C148.267 298.609 149.072 298.919 150.083 299.256C151.093 299.593 152.309 299.959 153.677 300.286C154.351 300.459 155.13 300.597 155.772 301.134C156.086 301.399 156.324 301.789 156.387 302.217C156.455 302.643 156.378 303.083 156.204 303.477C155.849 304.284 155.102 304.8 154.355 305.051C153.599 305.31 152.813 305.328 152.103 305.23C150.673 305.015 149.496 304.502 148.481 304.181C147.51 303.841 146.706 303.56 146.094 303.345C145.532 303.142 145.225 303.02 145.231 303.001C145.238 302.981 145.557 303.066 146.13 303.236C146.749 303.427 147.563 303.679 148.547 303.983C149.57 304.28 150.763 304.77 152.137 304.96C152.822 305.047 153.559 305.022 154.261 304.777C154.954 304.541 155.625 304.064 155.935 303.358C156.26 302.661 156.153 301.805 155.583 301.35C155.033 300.879 154.287 300.724 153.613 300.549C152.238 300.204 151.022 299.816 150.016 299.452C149.008 299.088 148.211 298.747 147.666 298.501C147.122 298.252 146.83 298.096 146.837 298.079Z" fill="#EB996E"/>
<path d="M150.242 299.538C150.157 299.537 150.11 298.888 149.921 298.118C149.739 297.347 149.486 296.747 149.562 296.708C149.628 296.668 150.015 297.236 150.209 298.049C150.406 298.861 150.319 299.543 150.242 299.538Z" fill="#EB996E"/>
<path d="M175.175 299.75L168.876 297.323C168.876 297.323 151.387 289.16 151.091 289.602C150.795 290.044 149.847 289.996 150.055 292.129C150.262 294.26 160.454 298.56 160.776 299.299C161.099 300.038 160.561 303.773 164.325 306.448C168.089 309.123 170.806 309.181 170.806 309.181" fill="#FFBE9D"/>
<path d="M170.806 309.181C170.806 309.186 170.755 309.19 170.656 309.186C170.557 309.182 170.41 309.171 170.22 309.144C169.839 309.09 169.281 308.977 168.584 308.751C167.888 308.527 167.057 308.185 166.144 307.688C165.239 307.182 164.211 306.579 163.243 305.677C162.274 304.786 161.482 303.5 161.096 301.995C160.894 301.248 160.823 300.435 160.724 299.644C160.712 299.543 160.69 299.454 160.662 299.373C160.641 299.318 160.577 299.268 160.497 299.205C160.341 299.087 160.163 298.98 159.986 298.873C159.628 298.662 159.255 298.461 158.877 298.258C157.36 297.45 155.745 296.633 154.117 295.697C153.302 295.229 152.484 294.732 151.688 294.165C151.294 293.877 150.903 293.574 150.548 293.214C150.369 293.037 150.206 292.835 150.068 292.607C150.008 292.484 149.946 292.362 149.923 292.213C149.892 292.072 149.899 291.956 149.885 291.826C149.865 291.324 149.882 290.784 150.155 290.305C150.289 290.066 150.513 289.886 150.711 289.747C150.811 289.677 150.899 289.611 150.952 289.539C150.971 289.521 150.938 289.545 151.013 289.478C151.094 289.429 151.109 289.445 151.136 289.439C151.198 289.435 151.217 289.446 151.259 289.449C151.326 289.462 151.389 289.476 151.45 289.493C152.397 289.785 153.264 290.167 154.135 290.524C155.863 291.252 157.514 291.989 159.085 292.694C162.226 294.109 165.038 295.415 167.396 296.52C167.987 296.791 168.545 297.073 169.078 297.3C169.623 297.513 170.137 297.716 170.619 297.906C171.575 298.285 172.4 298.611 173.084 298.883C173.743 299.149 174.262 299.359 174.638 299.511C174.802 299.581 174.933 299.637 175.04 299.682C175.13 299.722 175.175 299.745 175.173 299.75C175.171 299.755 175.123 299.741 175.029 299.71C174.92 299.672 174.784 299.625 174.617 299.567C174.236 299.427 173.709 299.234 173.042 298.989C172.352 298.731 171.519 298.419 170.556 298.058C170.071 297.876 169.553 297.68 169.005 297.473C168.456 297.248 167.904 296.976 167.309 296.71C164.93 295.635 162.107 294.359 158.974 292.943C157.401 292.244 155.748 291.514 154.022 290.791C153.16 290.438 152.276 290.053 151.373 289.777C151.317 289.761 151.262 289.749 151.21 289.739C151.192 289.737 151.152 289.729 151.153 289.733C151.15 289.723 151.154 289.755 151.145 289.71C151.125 289.655 151.148 289.663 151.133 289.638C151.129 289.629 151.122 289.622 151.113 289.617C151.311 289.751 151.163 289.661 151.205 289.693L151.187 289.716C151.094 289.839 150.98 289.916 150.883 289.987C150.685 290.127 150.517 290.264 150.409 290.456C150.188 290.838 150.157 291.334 150.181 291.812C150.196 292.071 150.207 292.269 150.326 292.463C150.443 292.656 150.59 292.841 150.759 293.008C151.093 293.347 151.474 293.645 151.86 293.927C152.64 294.484 153.452 294.979 154.261 295.446C155.879 296.381 157.488 297.202 159.006 298.018C159.385 298.224 159.759 298.428 160.122 298.645C160.304 298.755 160.483 298.863 160.657 298.995C160.736 299.059 160.847 299.138 160.904 299.275C160.944 299.389 160.968 299.498 160.98 299.601C161.078 300.427 161.14 301.198 161.333 301.933C161.698 303.399 162.451 304.646 163.387 305.526C164.318 306.412 165.335 307.029 166.222 307.542C167.119 308.047 167.936 308.402 168.62 308.641C169.304 308.881 169.855 309.012 170.229 309.084C170.416 309.12 170.561 309.141 170.657 309.155C170.756 309.169 170.806 309.176 170.806 309.181Z" fill="#EB996E"/>
<path d="M151.518 310.003C151.523 309.987 151.767 310.034 152.187 310.198C152.605 310.362 153.198 310.652 153.836 311.152C154.151 311.406 154.485 311.696 154.789 312.076C155.079 312.449 155.374 312.952 155.298 313.549C155.222 314.149 154.708 314.623 154.132 314.809C153.536 315.009 152.891 314.914 152.299 314.751C149.956 314.037 147.916 313.176 146.501 312.423C145.794 312.047 145.241 311.709 144.87 311.459C144.498 311.21 144.304 311.056 144.315 311.041C144.327 311.022 144.541 311.144 144.93 311.361C145.317 311.58 145.881 311.889 146.595 312.237C148.018 312.936 150.065 313.763 152.377 314.467C152.946 314.625 153.535 314.703 154.04 314.534C154.547 314.374 154.964 313.98 155.028 313.51C155.1 313.038 154.861 312.581 154.595 312.225C154.321 311.865 154 311.569 153.704 311.313C152.484 310.306 151.489 310.059 151.518 310.003Z" fill="#EB996E"/>
<g opacity="0.3">
<path d="M233.624 308.88C227.965 289.794 222.974 265.209 217.316 246.123C215.247 263.745 217.836 287.007 221.08 304.451C221.46 306.495 221.634 308.498 223.22 309.843L233.624 308.88Z" fill="black"/>
</g>
<path d="M224.356 295.777C224.281 295.795 224.042 294.531 223.274 292.625C222.898 291.67 222.349 290.575 221.651 289.414C220.93 288.267 220.048 287.062 218.991 285.909C217.919 284.769 216.783 283.8 215.692 282.996C214.586 282.214 213.535 281.585 212.609 281.139C210.766 280.233 209.524 279.901 209.547 279.827C209.555 279.802 209.865 279.876 210.424 280.034C210.704 280.108 211.045 280.211 211.427 280.366C211.811 280.516 212.26 280.665 212.723 280.9C213.675 281.321 214.757 281.935 215.891 282.715C217.011 283.516 218.175 284.494 219.264 285.654C220.34 286.826 221.229 288.06 221.945 289.236C222.638 290.425 223.171 291.549 223.52 292.53C223.72 293.01 223.835 293.468 223.956 293.862C224.082 294.255 224.16 294.602 224.212 294.888C224.33 295.456 224.381 295.772 224.356 295.777Z" fill="#263238"/>
<path d="M235.148 199.086C235.148 199.086 217.049 239.515 217.049 246.938C217.049 254.36 230.61 305.932 230.61 305.932C230.481 307.978 229.954 318.257 229.954 318.257L305.979 318.518L307.137 302.176L301.203 286.602L307.131 242.578C307.131 242.578 311.121 217.017 311.476 209.868C311.921 200.923 281.622 190.556 282.447 189.318L277.215 182.314L247.239 206.653L241.317 189.546L234.22 196.254L235.148 199.086Z" fill="#04412E"/>
<path d="M284.934 209.84C276.706 223.763 261.646 249.135 261.646 249.135L234.66 279.904C234.66 279.904 232.895 295.54 236.426 300.331C239.957 305.123 246.01 308.402 246.01 308.402C246.01 308.402 253.134 308.402 262.182 300.836C271.23 293.27 296.198 261.997 296.198 261.997L304.772 251.657C304.772 251.657 314.993 226.542 313.086 213.759C312.35 208.83 310.252 206.78 307.452 204.52C300.416 198.844 289.532 202.059 284.934 209.84Z" fill="#04412E"/>
<path d="M307.941 242.929C307.947 242.932 307.904 243.028 307.817 243.214C307.719 243.414 307.586 243.686 307.417 244.034C307.059 244.751 306.51 245.799 305.76 247.125C304.271 249.782 301.957 253.536 298.927 258.062C297.412 260.323 295.716 262.776 293.857 265.383C292.015 268.004 289.872 270.675 288.129 273.814C286.34 276.924 284.803 280.382 282.892 283.812C280.982 287.24 278.728 290.645 276.034 293.827C273.334 297 270.282 299.768 266.944 301.862C263.618 303.973 259.99 305.339 256.419 305.937C252.848 306.554 249.329 306.354 246.221 305.505C244.661 305.096 243.221 304.467 241.909 303.756C240.592 303.052 239.395 302.245 238.356 301.351C237.306 300.472 236.403 299.516 235.676 298.517C234.921 297.539 234.367 296.505 233.904 295.523C233.018 293.532 232.645 291.676 232.453 290.165C232.3 288.645 232.291 287.459 232.33 286.658C232.353 286.271 232.37 285.97 232.383 285.747C232.397 285.542 232.407 285.438 232.414 285.438C232.42 285.438 232.423 285.543 232.421 285.749C232.417 285.971 232.412 286.273 232.406 286.659C232.392 287.459 232.424 288.64 232.598 290.147C232.811 291.645 233.202 293.478 234.094 295.436C234.561 296.402 235.115 297.415 235.866 298.373C236.589 299.352 237.486 300.287 238.526 301.147C239.555 302.022 240.741 302.811 242.046 303.501C243.346 304.196 244.763 304.807 246.303 305.204C249.367 306.027 252.837 306.214 256.361 305.595C259.885 304.994 263.461 303.641 266.747 301.55C270.045 299.474 273.068 296.731 275.748 293.582C278.421 290.424 280.667 287.038 282.571 283.632C284.476 280.223 286.02 276.767 287.829 273.641C289.595 270.482 291.758 267.804 293.603 265.2C295.471 262.605 297.179 260.163 298.707 257.913C301.761 253.411 304.106 249.683 305.632 247.052C306.401 245.74 306.97 244.704 307.349 243.999C307.533 243.659 307.676 243.393 307.781 243.197C307.881 243.017 307.935 242.926 307.941 242.929Z" fill="#263238"/>
<path d="M233.31 278.515C233.342 278.569 232.926 278.805 232.43 279.357C231.937 279.898 231.387 280.812 231.281 281.925C231.181 283.04 231.553 284.039 231.94 284.661C232.326 285.295 232.692 285.602 232.651 285.649C232.629 285.683 232.191 285.443 231.72 284.808C231.252 284.188 230.797 283.116 230.908 281.891C231.024 280.666 231.668 279.696 232.241 279.172C232.82 278.633 233.294 278.479 233.31 278.515Z" fill="#263238"/>
<path d="M238.272 286.684C238.278 286.672 238.423 286.706 238.695 286.781C238.832 286.816 238.997 286.872 239.197 286.919C239.406 286.957 239.639 286.999 239.895 287.047C240.946 287.218 242.523 287.198 244.346 286.633C246.157 286.052 248.185 284.937 250.075 283.265C251.967 281.594 253.668 279.365 255.444 277.034C257.215 274.697 259.003 272.497 260.977 270.85C261.955 270.027 262.917 269.299 263.717 268.516C264.517 267.74 265.159 266.898 265.518 266.036C266.194 264.262 265.74 262.597 265.103 261.787C264.437 260.949 263.768 260.866 263.802 260.815C263.804 260.803 263.949 260.84 264.221 260.935C264.477 261.058 264.864 261.267 265.216 261.696C265.921 262.522 266.445 264.244 265.765 266.131C265.399 267.055 264.746 267.93 263.935 268.736C263.126 269.547 262.163 270.291 261.201 271.112C259.271 272.748 257.513 274.923 255.743 277.26C253.966 279.59 252.246 281.832 250.303 283.524C248.367 285.211 246.285 286.325 244.423 286.885C242.55 287.43 240.932 287.408 239.871 287.189C239.613 287.129 239.38 287.075 239.169 287.025C238.969 286.967 238.805 286.898 238.671 286.852C238.404 286.754 238.267 286.696 238.272 286.684Z" fill="#263238"/>
<path d="M288.595 205.565C288.605 205.574 288.5 205.723 288.293 206C288.06 206.303 287.753 206.702 287.371 207.199C286.55 208.223 285.42 209.75 284.043 211.65C281.316 215.467 277.815 220.934 274.44 227.252C271.046 233.561 268.235 239.413 266.085 243.592C265.015 245.684 264.136 247.37 263.502 248.522C263.198 249.071 262.955 249.511 262.769 249.846C262.598 250.147 262.503 250.302 262.491 250.295C262.48 250.289 262.553 250.122 262.702 249.81C262.872 249.468 263.095 249.017 263.372 248.455C263.976 247.241 264.816 245.549 265.847 243.474C267.935 239.268 270.709 233.396 274.11 227.075C277.491 220.746 281.039 215.281 283.828 211.495C285.235 209.611 286.399 208.106 287.256 207.108C287.662 206.628 287.986 206.245 288.234 205.952C288.461 205.69 288.585 205.556 288.595 205.565Z" fill="#263238"/>
<g opacity="0.3">
<path d="M232.415 285.438C235.925 287.34 239.778 287.138 243.696 286.369C247.614 285.6 251.243 283.429 253.773 280.34C253.092 283.761 251.626 287.104 249.13 289.542C246.635 291.978 243.022 293.396 239.591 292.768C236.161 292.139 232.698 288.914 232.415 285.438Z" fill="black"/>
</g>
<g opacity="0.3">
<path d="M265.609 264.661C267.817 268.043 268.605 272.321 267.748 276.267C270.721 271.714 271.419 265.951 270.619 260.574C269.819 255.196 267.635 250.124 265.2 245.262C265.2 245.262 262.516 249.795 262.491 250.295C262.362 252.912 263.325 257.84 263.83 260.411C265.182 261.685 265.821 263.67 265.467 265.494" fill="black"/>
</g>
<g opacity="0.3">
<path d="M244.313 304.274C251.468 309.851 262.085 310.115 269.914 305.531C277.454 301.118 282.095 293.172 286.405 285.571C293.075 273.807 301.214 259.258 305.978 246.601C305.978 246.601 292.621 264.825 288.595 272.681C285.557 278.607 283.226 282.513 279.485 288.023C271.969 299.094 258.357 305.724 245.007 304.818" fill="black"/>
</g>
<path d="M229.954 318.257C229.946 318.256 229.942 318.18 229.942 318.03C229.946 317.855 229.949 317.639 229.954 317.375C229.977 316.763 230.007 315.927 230.045 314.88C230.145 312.69 230.286 309.618 230.455 305.924L230.462 305.976C229.168 301.657 227.655 296.418 226.091 290.758C224.016 283.257 222.265 276.432 221.088 271.469C220.5 268.988 220.041 266.976 219.754 265.579C219.617 264.908 219.509 264.372 219.426 263.97C219.356 263.601 219.324 263.406 219.337 263.403C219.349 263.4 219.406 263.59 219.5 263.953C219.599 264.352 219.731 264.882 219.896 265.546C220.247 266.967 220.74 268.96 221.345 271.405C222.588 276.348 224.378 283.159 226.452 290.658C228.016 296.315 229.505 301.559 230.759 305.886L230.766 305.913L230.765 305.937C230.541 309.63 230.355 312.7 230.222 314.888C230.149 315.934 230.09 316.768 230.047 317.379C230.024 317.642 230.005 317.858 229.99 318.033C229.974 318.182 229.962 318.257 229.954 318.257Z" fill="#263238"/>
<path d="M306.011 204.088C305.989 204.146 305.233 203.878 303.984 203.568C302.736 203.257 300.982 202.944 299.022 202.882C297.061 202.826 295.291 203.034 294.026 203.27C292.761 203.504 291.991 203.727 291.972 203.668C291.964 203.643 292.149 203.563 292.491 203.44C292.833 203.311 293.338 203.162 293.972 203.011C295.237 202.705 297.037 202.45 299.033 202.507C301.027 202.57 302.808 202.931 304.053 203.312C304.677 203.502 305.173 203.681 305.505 203.828C305.84 203.973 306.02 204.064 306.011 204.088Z" fill="#263238"/>
<path d="M281.929 190.814C281.94 190.82 281.874 190.949 281.737 191.187C281.575 191.459 281.373 191.801 281.124 192.22C280.583 193.111 279.781 194.388 278.766 195.952C276.729 199.074 273.815 203.326 270.369 207.852C267.595 211.501 264.91 214.775 262.709 217.341L262.555 217.521L262.458 217.307C261.413 215.014 260.547 213.116 259.919 211.738C259.64 211.102 259.414 210.588 259.239 210.191C259.087 209.833 259.014 209.641 259.027 209.634C259.041 209.628 259.142 209.807 259.32 210.153C259.514 210.541 259.765 211.044 260.075 211.666C260.731 213.029 261.637 214.908 262.732 217.179L262.48 217.146C264.643 214.554 267.303 211.269 270.071 207.626C273.512 203.106 276.455 198.886 278.546 195.805C279.562 194.291 280.394 193.049 281.002 192.141C281.275 191.737 281.497 191.408 281.673 191.147C281.83 190.922 281.918 190.807 281.929 190.814Z" fill="#263238"/>
<path d="M299.43 306.911C299.327 306.899 299.657 303.162 300.167 298.565C300.676 293.965 301.173 290.247 301.276 290.259C301.379 290.27 301.049 294.006 300.539 298.606C300.03 303.204 299.533 306.922 299.43 306.911Z" fill="#263238"/>
<path d="M247.319 305.932C247.422 305.921 247.806 308.73 248.177 312.204C248.548 315.68 248.765 318.506 248.662 318.517C248.559 318.528 248.175 315.72 247.805 312.244C247.433 308.769 247.216 305.942 247.319 305.932Z" fill="#263238"/>
<path d="M285.775 223.697C285.68 223.101 284.856 222.774 284.378 223.142L284.33 223.183C283.881 223.584 284.052 224.454 284.619 224.657C285.187 224.858 285.869 224.292 285.775 223.697Z" fill="white"/>
<path d="M278.267 205.398C278.173 204.803 277.348 204.476 276.871 204.844L276.823 204.884C276.374 205.286 276.544 206.155 277.112 206.358C277.68 206.559 278.361 205.993 278.267 205.398Z" fill="white"/>
<path d="M261.038 220.132C260.944 219.537 260.12 219.21 259.642 219.578L259.594 219.618C259.145 220.02 259.315 220.89 259.883 221.092C260.45 221.294 261.133 220.728 261.038 220.132Z" fill="white"/>
<path d="M242.413 212.733C242.319 212.138 241.495 211.811 241.017 212.179L240.969 212.219C240.52 212.621 240.69 213.491 241.258 213.693C241.825 213.895 242.508 213.328 242.413 212.733Z" fill="white"/>
<path d="M239.118 205.44C239.024 204.844 238.199 204.517 237.722 204.885L237.674 204.926C237.224 205.327 237.395 206.197 237.962 206.4C238.53 206.602 239.213 206.035 239.118 205.44Z" fill="white"/>
<path d="M240.548 197.012C240.454 196.417 239.63 196.09 239.152 196.458L239.104 196.498C238.655 196.9 238.825 197.77 239.393 197.972C239.961 198.174 240.643 197.607 240.548 197.012Z" fill="white"/>
<path d="M230.234 208.604C230.14 208.009 229.316 207.682 228.838 208.05L228.79 208.09C228.341 208.492 228.511 209.362 229.079 209.564C229.646 209.766 230.329 209.199 230.234 208.604Z" fill="white"/>
<path d="M254.127 211.947C254.033 211.352 253.208 211.025 252.731 211.393L252.683 211.433C252.233 211.835 252.404 212.705 252.971 212.907C253.539 213.108 254.222 212.542 254.127 211.947Z" fill="white"/>
<path d="M233.898 226.971C233.804 226.375 232.98 226.048 232.502 226.416L232.454 226.457C232.005 226.858 232.176 227.728 232.743 227.93C233.311 228.132 233.993 227.565 233.898 226.971Z" fill="white"/>
<path d="M215.381 270.186C215.287 269.59 214.463 269.263 213.985 269.631L213.937 269.672C213.488 270.073 213.659 270.943 214.226 271.146C214.794 271.347 215.476 270.78 215.381 270.186Z" fill="white"/>
<path d="M221.988 245.262C221.894 244.667 221.07 244.34 220.592 244.708L220.544 244.748C220.095 245.15 220.265 246.02 220.833 246.222C221.401 246.424 222.083 245.857 221.988 245.262Z" fill="white"/>
<path d="M270.688 201.496C270.593 200.901 269.769 200.574 269.292 200.942L269.243 200.982C268.794 201.384 268.965 202.254 269.532 202.456C270.1 202.658 270.782 202.092 270.688 201.496Z" fill="white"/>
<path d="M293.93 251.125C293.836 250.53 293.011 250.203 292.534 250.571L292.486 250.611C292.036 251.013 292.207 251.883 292.774 252.085C293.342 252.287 294.024 251.72 293.93 251.125Z" fill="white"/>
<path d="M302.986 208.416C302.892 207.821 302.067 207.494 301.59 207.862L301.542 207.902C301.093 208.304 301.263 209.174 301.831 209.376C302.399 209.578 303.08 209.012 302.986 208.416Z" fill="white"/>
<path d="M299.43 236.385C299.336 235.79 298.511 235.463 298.034 235.831L297.986 235.871C297.536 236.273 297.707 237.143 298.274 237.345C298.843 237.547 299.525 236.98 299.43 236.385Z" fill="white"/>
<path d="M279.122 256.581C279.027 255.985 278.203 255.658 277.726 256.026L277.677 256.067C277.228 256.468 277.399 257.338 277.966 257.54C278.533 257.742 279.216 257.176 279.122 256.581Z" fill="white"/>
<path d="M279.976 239.769C279.882 239.174 279.058 238.847 278.58 239.215L278.532 239.255C278.083 239.657 278.253 240.527 278.821 240.729C279.388 240.931 280.071 240.365 279.976 239.769Z" fill="white"/>
<path d="M292.229 208.562C292.135 207.967 291.311 207.64 290.833 208.008L290.785 208.048C290.336 208.45 290.506 209.32 291.074 209.522C291.642 209.724 292.324 209.157 292.229 208.562Z" fill="white"/>
<path d="M275.735 192.274C275.64 191.678 274.816 191.352 274.339 191.719L274.29 191.76C273.841 192.162 274.012 193.031 274.579 193.234C275.147 193.435 275.829 192.869 275.735 192.274Z" fill="white"/>
<path d="M275.137 218.531C275.042 217.935 274.218 217.608 273.74 217.976L273.692 218.017C273.243 218.418 273.414 219.288 273.981 219.491C274.548 219.693 275.231 219.126 275.137 218.531Z" fill="white"/>
<path d="M254.079 298.631C253.984 298.035 253.16 297.708 252.683 298.076L252.634 298.117C252.185 298.518 252.356 299.388 252.923 299.591C253.491 299.793 254.174 299.226 254.079 298.631Z" fill="white"/>
<path d="M229.924 285.459C229.83 284.864 229.005 284.537 228.528 284.905L228.48 284.945C228.031 285.347 228.201 286.217 228.769 286.419C229.337 286.621 230.019 286.055 229.924 285.459Z" fill="white"/>
<path d="M210.393 291.915C210.299 291.32 209.475 290.993 208.997 291.361L208.949 291.401C208.5 291.803 208.67 292.673 209.238 292.875C209.806 293.077 210.488 292.51 210.393 291.915Z" fill="white"/>
<path d="M208.303 303.039C208.209 302.443 207.385 302.116 206.907 302.484L206.859 302.525C206.41 302.926 206.58 303.796 207.148 303.998C207.716 304.201 208.398 303.634 208.303 303.039Z" fill="white"/>
<path d="M226.615 306.765C226.521 306.17 225.696 305.843 225.219 306.211L225.171 306.251C224.721 306.653 224.892 307.523 225.459 307.725C226.027 307.927 226.709 307.36 226.615 306.765Z" fill="white"/>
<path d="M220.491 281.854C220.397 281.259 219.573 280.932 219.095 281.3L219.047 281.34C218.598 281.742 218.768 282.611 219.336 282.814C219.904 283.016 220.586 282.449 220.491 281.854Z" fill="white"/>
<path d="M242.958 288.184C242.864 287.589 242.04 287.262 241.562 287.63L241.514 287.67C241.065 288.072 241.235 288.942 241.803 289.144C242.37 289.346 243.053 288.779 242.958 288.184Z" fill="white"/>
<path d="M296.363 281.812C296.268 281.217 295.444 280.89 294.967 281.258L294.919 281.298C294.469 281.7 294.64 282.57 295.207 282.772C295.775 282.974 296.457 282.408 296.363 281.812Z" fill="white"/>
<path d="M263.319 313.476C263.225 312.88 262.4 312.553 261.923 312.921L261.875 312.962C261.426 313.363 261.596 314.233 262.164 314.436C262.732 314.637 263.413 314.07 263.319 313.476Z" fill="white"/>
<path d="M277.412 295.85C277.318 295.255 276.494 294.928 276.016 295.296L275.968 295.336C275.519 295.738 275.689 296.608 276.257 296.81C276.825 297.012 277.507 296.445 277.412 295.85Z" fill="white"/>
<path d="M285.783 310.185C285.689 309.589 284.864 309.262 284.387 309.63L284.339 309.671C283.89 310.072 284.06 310.942 284.628 311.144C285.196 311.347 285.877 310.78 285.783 310.185Z" fill="white"/>
<path d="M262.491 235.116C262.397 234.521 261.572 234.194 261.095 234.562L261.047 234.602C260.598 235.004 260.768 235.873 261.336 236.076C261.904 236.278 262.585 235.711 262.491 235.116Z" fill="white"/>
<path d="M281.444 271.711C281.35 271.115 280.526 270.788 280.048 271.156L280 271.197C279.551 271.598 279.722 272.468 280.289 272.67C280.857 272.873 281.539 272.306 281.444 271.711Z" fill="white"/>
<path d="M275.298 285.573C275.203 284.977 274.379 284.651 273.902 285.018L273.853 285.059C273.404 285.461 273.575 286.33 274.142 286.533C274.71 286.734 275.393 286.168 275.298 285.573Z" fill="white"/>
<path d="M295.508 296.706C295.414 296.11 294.59 295.783 294.112 296.151L294.064 296.191C293.615 296.593 293.785 297.463 294.353 297.665C294.92 297.868 295.603 297.301 295.508 296.706Z" fill="white"/>
<path d="M240.206 312.779C240.112 312.183 239.288 311.856 238.81 312.224L238.762 312.265C238.313 312.666 238.483 313.536 239.051 313.739C239.619 313.941 240.301 313.374 240.206 312.779Z" fill="white"/>
<path d="M194.124 308.574C194.03 307.979 193.206 307.652 192.728 308.02L192.68 308.06C192.231 308.462 192.401 309.331 192.969 309.534C193.537 309.736 194.219 309.169 194.124 308.574Z" fill="white"/>
<path d="M234.705 301.005C234.611 300.41 233.786 300.083 233.309 300.451L233.261 300.491C232.811 300.893 232.982 301.763 233.549 301.965C234.117 302.167 234.8 301.601 234.705 301.005Z" fill="white"/>
<path d="M195.834 292.771C195.739 292.175 194.915 291.848 194.437 292.216L194.389 292.257C193.94 292.658 194.111 293.528 194.678 293.73C195.246 293.932 195.928 293.365 195.834 292.771Z" fill="white"/>
<path d="M260.782 266.637C260.688 266.041 259.863 265.715 259.386 266.082L259.338 266.123C258.888 266.525 259.059 267.394 259.626 267.597C260.194 267.799 260.876 267.232 260.782 266.637Z" fill="white"/>
<path d="M247.19 226.971C247.095 226.375 246.271 226.048 245.794 226.416L245.745 226.457C245.296 226.858 245.467 227.728 246.034 227.93C246.602 228.132 247.284 227.565 247.19 226.971Z" fill="white"/>
<path d="M243.793 261.369C243.699 260.774 242.875 260.447 242.397 260.815L242.349 260.855C241.9 261.257 242.071 262.127 242.638 262.329C243.206 262.531 243.889 261.965 243.793 261.369Z" fill="white"/>
<path d="M238.263 250.149C238.169 249.553 237.344 249.227 236.867 249.594L236.819 249.635C236.369 250.037 236.54 250.906 237.107 251.109C237.676 251.311 238.358 250.744 238.263 250.149Z" fill="white"/>
<path d="M262.719 285.417C262.625 284.822 261.801 284.495 261.323 284.863L261.275 284.903C260.826 285.305 260.996 286.175 261.564 286.377C262.132 286.579 262.814 286.013 262.719 285.417Z" fill="white"/>
<path d="M245.48 278.497C245.386 277.902 244.562 277.575 244.084 277.943L244.036 277.983C243.587 278.385 243.757 279.255 244.325 279.457C244.892 279.659 245.575 279.092 245.48 278.497Z" fill="white"/>
<path d="M252.86 240.514C252.765 239.918 251.941 239.592 251.464 239.959L251.415 240C250.966 240.402 251.137 241.271 251.704 241.474C252.272 241.675 252.954 241.109 252.86 240.514Z" fill="white"/>
<path d="M226.615 267.409C226.521 266.813 225.696 266.486 225.219 266.854L225.171 266.895C224.721 267.296 224.892 268.166 225.459 268.369C226.027 268.571 226.709 268.004 226.615 267.409Z" fill="white"/>
<path d="M267.124 255.064C267.029 254.469 266.205 254.142 265.728 254.51L265.68 254.55C265.231 254.952 265.401 255.822 265.969 256.024C266.536 256.226 267.219 255.659 267.124 255.064Z" fill="white"/>
<path d="M304.695 222.841C304.601 222.245 303.777 221.918 303.299 222.286L303.251 222.327C302.802 222.728 302.972 223.598 303.54 223.8C304.107 224.003 304.79 223.436 304.695 222.841Z" fill="white"/>
<path d="M289.44 198.441C289.346 197.845 288.521 197.518 288.044 197.886L287.996 197.927C287.546 198.328 287.717 199.198 288.284 199.4C288.852 199.603 289.535 199.036 289.44 198.441Z" fill="white"/>
<path d="M259.874 201.496C259.78 200.901 258.955 200.574 258.478 200.942L258.43 200.982C257.98 201.384 258.151 202.254 258.718 202.456C259.286 202.658 259.968 202.092 259.874 201.496Z" fill="white"/>
<path d="M229.718 113.91C224.046 117.519 221.783 125.081 222.865 129.55C223.41 131.802 224.432 134.068 223.986 136.342C223.6 138.307 222.188 139.879 221.13 141.579C217.604 147.251 218.228 155.188 222.598 160.238C226.968 165.288 234.732 167.047 240.852 164.373" fill="#263238"/>
<path d="M226.362 143.421C212.567 113.08 245.38 97.8372 263.285 102.894C280.112 107.647 287.289 116.022 290.059 127.276C292.828 138.535 292.696 150.729 288.284 161.453C286.108 166.74 282.19 172.112 276.51 172.773" fill="#263238"/>
<path d="M242.524 217.518C242.286 203.021 242.117 183.108 242.112 183.191C242.112 183.191 229.652 181.122 227.07 164.864C225.786 156.779 226.192 143.523 226.875 132.687C227.49 122.934 233.952 110.966 243.67 111.995L274.016 119.665C276.968 119.977 279.191 122.496 279.133 125.464L277.155 188.232" fill="#FFBE9D"/>
<path d="M232.301 142.615C232.249 143.71 233.133 144.655 234.275 144.73C235.414 144.805 236.382 143.981 236.433 142.887C236.484 141.793 235.601 140.846 234.462 140.772C233.32 140.696 232.352 141.521 232.301 142.615Z" fill="#263238"/>
<path d="M253.843 142.615C253.791 143.709 254.676 144.655 255.817 144.729C256.956 144.804 257.923 143.98 257.975 142.886C258.026 141.792 257.143 140.846 256.004 140.771C254.862 140.696 253.894 141.521 253.843 142.615Z" fill="#263238"/>
<path d="M230.057 138.828C230.306 139.108 231.924 137.992 234.166 138.073C236.406 138.121 238.014 139.329 238.267 139.063C238.39 138.946 238.143 138.446 237.444 137.9C236.756 137.357 235.57 136.812 234.173 136.771C232.776 136.732 231.584 137.208 230.891 137.712C230.183 138.218 229.933 138.702 230.057 138.828Z" fill="#263238"/>
<path d="M251.349 139.364C251.61 139.635 253.186 138.459 255.428 138.455C257.669 138.419 259.321 139.566 259.563 139.29C259.682 139.167 259.419 138.678 258.697 138.159C257.989 137.642 256.783 137.142 255.385 137.154C253.988 137.169 252.814 137.688 252.141 138.218C251.455 138.75 251.222 139.242 251.349 139.364Z" fill="#263238"/>
<path d="M243.663 156.641C243.673 156.514 242.278 156.273 240.019 155.984C239.445 155.925 238.903 155.811 238.807 155.42C238.672 155.006 238.911 154.388 239.189 153.721C239.728 152.335 240.291 150.882 240.883 149.359C243.236 143.148 244.939 138.04 244.689 137.948C244.438 137.856 242.326 142.815 239.974 149.026C239.408 150.558 238.866 152.018 238.351 153.415C238.134 154.066 237.761 154.804 238.054 155.663C238.208 156.092 238.628 156.402 238.996 156.501C239.363 156.613 239.686 156.619 239.97 156.637C242.243 156.758 243.654 156.768 243.663 156.641Z" fill="#263238"/>
<path d="M242.112 183.191C242.112 183.191 253.05 183.896 263.886 177.383C263.886 177.383 258.384 188.693 242.112 187.172V183.191Z" fill="#EB996E"/>
<path d="M250.796 136.173C251.017 136.783 253.257 136.493 255.889 136.811C258.528 137.075 260.65 137.845 260.999 137.298C261.156 137.036 260.786 136.463 259.927 135.872C259.077 135.282 257.719 134.722 256.139 134.546C254.558 134.373 253.111 134.624 252.153 135.014C251.187 135.404 250.7 135.883 250.796 136.173Z" fill="#263238"/>
<path d="M230.575 133.189C230.97 133.699 232.515 133.17 234.374 133.145C236.232 133.055 237.807 133.487 238.17 132.954C238.329 132.695 238.08 132.186 237.393 131.703C236.715 131.222 235.582 130.83 234.304 130.868C233.027 130.908 231.921 131.37 231.274 131.892C230.617 132.416 230.401 132.941 230.575 133.189Z" fill="#263238"/>
<path d="M276.344 146.868C276.582 146.753 285.046 143.009 285.145 152.743C285.245 162.477 275.452 160.569 275.432 160.289C275.412 160.01 276.344 146.868 276.344 146.868Z" fill="#FFBE9D"/>
<path d="M278.368 156.571C278.41 156.54 278.539 156.688 278.827 156.817C279.107 156.941 279.589 157.026 280.095 156.83C281.119 156.442 281.968 154.8 281.997 153.045C282.013 152.159 281.819 151.317 281.498 150.623C281.193 149.913 280.727 149.421 280.209 149.334C279.693 149.22 279.329 149.534 279.213 149.809C279.086 150.083 279.15 150.276 279.098 150.294C279.071 150.318 278.888 150.133 278.962 149.73C279 149.536 279.112 149.305 279.339 149.116C279.57 148.923 279.913 148.823 280.274 148.859C281.025 148.902 281.707 149.586 282.06 150.35C282.455 151.116 282.694 152.062 282.676 153.057C282.633 155.019 281.648 156.864 280.245 157.285C279.562 157.47 278.989 157.27 278.691 157.044C278.388 156.806 278.335 156.589 278.368 156.571Z" fill="#EB996E"/>
<path d="M240.429 107.194C235.014 109.992 232.785 121.071 235.025 126.739C237.266 132.408 243.304 135.177 249.258 136.482C255.213 137.786 261.051 137.94 266.923 136.307C267.332 140.256 269.698 144.31 273.53 145.351C278.603 146.731 283.715 142.086 284.844 136.952C285.973 131.818 284.281 126.53 282.61 121.546" fill="#263238"/>
<path d="M283.376 142.513C283.399 142.543 283.132 142.795 282.625 143.222C282.116 143.646 281.37 144.251 280.38 144.915C279.39 145.57 278.139 146.3 276.596 146.746C275.073 147.187 273.208 147.347 271.431 146.671C269.657 145.996 268.348 144.653 267.521 143.291C266.682 141.912 266.307 140.496 266.12 139.317C265.938 138.131 265.94 137.161 265.967 136.498C265.998 135.834 266.058 135.47 266.094 135.472C266.201 135.469 266.086 136.951 266.511 139.247C266.741 140.384 267.145 141.731 267.96 143.017C268.766 144.292 270.005 145.529 271.63 146.144C273.253 146.764 274.996 146.641 276.456 146.246C277.932 145.85 279.166 145.181 280.166 144.579C282.154 143.337 283.318 142.433 283.376 142.513Z" fill="#263238"/>
<path d="M244.326 162.892C244.652 163.72 244.987 164.561 245.534 165.262C246.082 165.964 246.884 166.519 247.773 166.562C248.72 166.607 249.634 166.046 250.163 165.259C250.691 164.471 250.871 163.489 250.829 162.541C250.79 161.685 250.398 160.662 249.546 160.561C249.192 160.519 248.843 160.656 248.512 160.79C247.021 161.395 245.528 162 244.036 162.605" fill="#EB996E"/>
<path d="M246.113 166.575C246.136 166.435 247.118 166.833 248.501 166.28C249.17 166.01 249.902 165.478 250.306 164.64C250.709 163.812 250.789 162.692 250.365 161.712C250.266 161.467 250.119 161.243 249.975 161.043C249.798 160.857 249.83 160.865 249.637 160.894C249.455 160.943 249.16 161.082 248.92 161.176C248.671 161.277 248.425 161.377 248.185 161.475C247.226 161.863 246.359 162.202 245.627 162.475C244.161 163.022 243.233 163.311 243.189 163.209C243.146 163.107 243.996 162.636 245.405 161.955C246.11 161.615 246.954 161.222 247.896 160.798C248.133 160.692 248.375 160.583 248.62 160.474C248.882 160.366 249.081 160.249 249.438 160.137C249.613 160.088 249.86 160.06 250.101 160.156C250.338 160.252 250.485 160.412 250.595 160.546C250.796 160.813 250.972 161.086 251.099 161.395C251.625 162.619 251.498 163.973 250.962 164.977C250.415 166.002 249.482 166.578 248.69 166.813C247.885 167.062 247.191 167.002 246.751 166.889C246.304 166.771 246.095 166.62 246.113 166.575Z" fill="#263238"/>
<path d="M287.259 140.205C286.262 140.135 278.223 141.175 278.856 156.119C279.447 170.076 289.239 167.003 292.364 161.748C295.324 156.77 297.034 140.891 287.259 140.205Z" fill="#455A64"/>
<path d="M292.229 141.97C292.219 141.97 292.206 141.836 292.192 141.577C292.18 141.286 292.164 140.909 292.144 140.439C292.116 139.407 292.075 137.969 292.026 136.182C291.952 132.512 291.85 127.414 291.732 121.527L291.912 121.704C290.586 121.707 289.193 121.708 287.768 121.71L287.953 121.519C287.984 122.632 288.015 123.805 288.048 124.996C288.187 130.604 288.316 135.827 288.424 140.198L288.427 140.326L288.303 140.355C286.438 140.792 284.964 141.876 284.034 143.103C283.088 144.331 282.617 145.637 282.329 146.708C282.043 147.788 281.945 148.666 281.89 149.26C281.864 149.558 281.849 149.787 281.841 149.942C281.832 150.097 281.827 150.177 281.818 150.177C281.81 150.178 281.799 150.097 281.792 149.942C281.784 149.787 281.783 149.556 281.794 149.255C281.82 148.653 281.888 147.766 282.152 146.664C282.419 145.571 282.871 144.232 283.829 142.95C284.768 141.669 286.299 140.517 288.23 140.049L288.109 140.206C287.984 135.836 287.833 130.614 287.672 125.006C287.641 123.816 287.61 122.642 287.58 121.53L287.575 121.338H287.766C289.192 121.34 290.585 121.342 291.91 121.344H292.089L292.091 121.521C292.156 127.409 292.212 132.508 292.252 136.179C292.258 137.966 292.262 139.404 292.266 140.437C292.261 140.907 292.257 141.284 292.254 141.576C292.249 141.835 292.24 141.97 292.229 141.97Z" fill="#455A64"/>
<path d="M287.258 121.524C287.258 121.524 283.054 111.684 273.036 106.829C268.183 104.478 264.553 103.265 261.035 102.38C261.035 102.38 266.879 100.992 276.337 105.2C280.635 107.112 284.964 109.602 287.827 113.334C289.645 115.704 291.915 120.336 291.912 121.524L287.258 121.524Z" fill="#455A64"/>
<path d="M261.323 240.659C261.32 240.655 261.38 240.589 261.503 240.463C261.623 240.335 261.814 240.155 262.046 239.903C262.519 239.404 263.196 238.645 263.99 237.597C264.785 236.551 265.678 235.202 266.615 233.567C267.555 231.932 268.529 230.007 269.59 227.854C271.714 223.551 274.172 218.334 276.714 212.356C277.988 209.369 279.284 206.192 280.574 202.849C280.894 202.011 281.216 201.165 281.542 200.311C281.866 199.455 282.198 198.575 282.699 197.758C283.193 196.94 283.909 196.217 284.79 195.771C285.228 195.546 285.718 195.375 286.255 195.399C286.522 195.42 286.795 195.509 287.019 195.676C287.251 195.842 287.39 196.086 287.505 196.323L287.529 196.371L287.517 196.428C287.445 196.757 287.341 197.094 287.13 197.388C286.922 197.685 286.585 197.902 286.231 197.977C285.513 198.123 284.828 197.895 284.222 197.608C282.922 197.066 282.15 195.525 282.444 194.12C282.579 193.413 283.02 192.769 283.612 192.362C284.204 191.951 284.93 191.736 285.659 191.779C286.371 191.824 287.152 192.114 287.548 192.82C287.752 193.165 287.729 193.674 287.473 193.994C287.233 194.32 286.905 194.516 286.561 194.661C285.343 195.145 283.88 194.718 283.11 193.683C282.724 193.165 282.563 192.493 282.643 191.867C282.709 191.238 282.98 190.642 283.391 190.17C283.8 189.697 284.372 189.353 285.011 189.274C285.639 189.211 286.309 189.387 286.762 189.876C286.99 190.117 287.117 190.459 287.107 190.795C287.104 191.138 286.93 191.465 286.691 191.682C286.209 192.12 285.549 192.277 284.931 192.157C284.289 192.02 283.827 191.538 283.529 191.03C283.231 190.508 283.084 189.935 283.002 189.369C282.858 188.245 282.874 187.062 283.384 186.011C283.659 185.503 284.038 185.029 284.611 184.797C285.173 184.574 285.79 184.633 286.321 184.852C286.836 185.077 287.349 185.544 287.376 186.185C287.421 186.809 286.983 187.366 286.463 187.592C285.947 187.838 285.315 187.849 284.806 187.567C284.302 187.297 283.959 186.813 283.783 186.304C283.592 185.798 283.605 185.215 283.685 184.728C283.751 184.224 283.843 183.719 284.018 183.234C284.185 182.753 284.478 182.276 284.891 181.961C285.293 181.642 285.75 181.408 286.247 181.287C286.487 181.236 286.766 181.187 287.04 181.279C287.3 181.365 287.516 181.519 287.698 181.698C287.878 181.881 288.026 182.094 288.122 182.336C288.22 182.572 288.256 182.871 288.146 183.132C287.933 183.679 287.325 183.856 286.859 183.845C286.365 183.851 285.891 183.655 285.507 183.391C284.734 182.844 284.237 181.998 284.061 181.125C283.868 180.254 283.967 179.33 284.363 178.561C284.571 178.183 284.823 177.829 285.172 177.571C285.514 177.312 285.912 177.149 286.323 177.075C286.731 177.009 287.173 177.035 287.547 177.247C287.915 177.455 288.187 177.844 288.208 178.268C288.236 179.123 287.574 179.795 286.851 179.995C286.077 180.199 285.335 179.78 284.893 179.259C284.435 178.728 284.199 178.063 284.155 177.417C284.093 176.106 284.609 175.003 284.859 173.969C285.153 172.935 285.42 171.988 285.662 171.135C286.145 169.447 286.523 168.129 286.784 167.218C286.913 166.783 287.013 166.445 287.085 166.202C287.155 165.974 287.199 165.859 287.199 165.859C287.199 165.859 287.179 165.981 287.122 166.213C287.058 166.459 286.97 166.8 286.857 167.239C286.611 168.155 286.257 169.479 285.803 171.176C285.571 172.031 285.314 172.98 285.032 174.018C284.787 175.061 284.291 176.171 284.364 177.403C284.409 178.006 284.638 178.628 285.063 179.113C285.468 179.591 286.15 179.947 286.789 179.765C287.414 179.598 287.996 178.969 287.957 178.287C287.94 177.955 287.719 177.64 287.421 177.473C287.116 177.301 286.733 177.276 286.367 177.337C286.001 177.405 285.639 177.555 285.336 177.787C285.032 178.013 284.796 178.345 284.61 178.688C284.25 179.393 284.16 180.253 284.344 181.063C284.511 181.877 284.978 182.653 285.677 183.144C286.033 183.383 286.43 183.545 286.861 183.539C287.276 183.547 287.726 183.385 287.858 183.018C288.004 182.671 287.77 182.221 287.475 181.922C287.322 181.77 287.138 181.645 286.944 181.582C286.76 181.517 286.543 181.552 286.32 181.599C285.441 181.826 284.605 182.424 284.327 183.345C284.166 183.794 284.078 184.278 284.016 184.769C283.938 185.272 283.935 185.732 284.101 186.191C284.257 186.638 284.555 187.047 284.969 187.266C285.369 187.489 285.89 187.483 286.315 187.279C286.746 187.086 287.062 186.663 287.027 186.203C287.014 185.746 286.624 185.369 286.181 185.175C285.73 184.988 285.193 184.943 284.743 185.127C284.299 185.299 283.936 185.726 283.703 186.172C283.246 187.109 283.219 188.244 283.361 189.316C283.44 189.852 283.58 190.386 283.845 190.846C284.106 191.296 284.516 191.699 285.005 191.796C285.498 191.897 286.07 191.754 286.436 191.413C286.825 191.086 286.829 190.486 286.485 190.122C286.149 189.75 285.57 189.585 285.05 189.642C284.527 189.707 284.026 190 283.669 190.414C282.944 191.229 282.733 192.566 283.409 193.46C284.06 194.351 285.382 194.734 286.417 194.312C286.708 194.192 286.996 194.012 287.166 193.774C287.341 193.54 287.353 193.251 287.214 192.994C286.924 192.462 286.261 192.185 285.633 192.151C284.358 192.062 283.029 192.94 282.806 194.193C282.552 195.428 283.219 196.795 284.38 197.274C284.943 197.547 285.579 197.737 286.146 197.618C286.729 197.512 287.047 196.947 287.156 196.359L287.166 196.464C286.999 196.055 286.657 195.783 286.227 195.759C285.8 195.739 285.355 195.882 284.952 196.091C284.134 196.506 283.471 197.168 283 197.945C282.521 198.72 282.193 199.58 281.869 200.434C281.54 201.288 281.215 202.135 280.894 202.972C279.594 206.317 278.287 209.493 277.002 212.479C274.437 218.454 271.951 223.664 269.797 227.957C268.721 230.103 267.729 232.025 266.771 233.657C265.814 235.289 264.902 236.633 264.087 237.672C262.46 239.757 261.323 240.659 261.323 240.659Z" fill="white"/>
<path d="M295.983 133.198C295.919 133.212 296.014 132.178 295.328 130.535C294.664 128.922 293.027 126.734 290.16 125.358C288.737 124.687 287.032 124.262 285.178 124.14C283.324 124.019 281.327 124.196 279.269 124.592C275.142 125.351 270.809 127.133 265.955 127.864C263.524 128.182 261.115 128.167 258.826 127.856C256.535 127.535 254.391 126.886 252.417 126.119C248.492 124.499 245.327 122.239 243.086 119.955C240.831 117.678 239.374 115.499 238.565 113.908C238.335 113.525 238.167 113.165 238.034 112.847C237.9 112.54 237.783 112.275 237.685 112.05C237.601 111.851 237.533 111.689 237.478 111.558C237.433 111.446 237.413 111.388 237.419 111.385C237.424 111.383 237.456 111.436 237.513 111.542C237.577 111.669 237.656 111.826 237.754 112.019C237.861 112.238 237.987 112.497 238.135 112.797C238.278 113.109 238.455 113.461 238.693 113.838C239.537 115.398 241.016 117.536 243.272 119.766C245.516 122.004 248.662 124.215 252.546 125.798C254.5 126.546 256.618 127.18 258.877 127.493C261.136 127.794 263.507 127.806 265.902 127.493C270.69 126.774 275.031 125.003 279.207 124.252C281.287 123.862 283.313 123.693 285.201 123.83C287.086 123.967 288.824 124.415 290.276 125.119C293.193 126.557 294.828 128.821 295.464 130.48C295.808 131.314 295.898 132.016 295.965 132.479C295.974 132.696 295.982 132.872 295.988 133.015C295.991 133.136 295.99 133.197 295.983 133.198Z" fill="#455A64"/>
<path d="M285.118 117.681C285.119 117.694 284.941 117.725 284.602 117.773C284.262 117.819 283.762 117.893 283.121 118.004C281.838 118.218 279.999 118.626 277.739 119.19C275.48 119.75 272.771 120.429 269.688 120.749C266.611 121.076 263.182 121.048 259.647 120.531C256.11 120.019 252.817 119.076 249.947 117.922C247.077 116.766 244.617 115.43 242.666 114.142C241.699 113.486 240.831 112.879 240.102 112.306C239.388 111.713 238.746 111.234 238.273 110.784C237.819 110.357 237.455 110.015 237.177 109.754C236.93 109.516 236.804 109.386 236.814 109.377C236.822 109.367 236.966 109.479 237.229 109.698C237.518 109.945 237.896 110.269 238.368 110.673C238.855 111.105 239.507 111.565 240.23 112.139C240.967 112.694 241.842 113.281 242.811 113.918C246.71 116.412 252.662 119.16 259.702 120.159C263.205 120.671 266.602 120.709 269.654 120.404C272.71 120.106 275.409 119.459 277.68 118.93C279.95 118.4 281.806 118.029 283.101 117.859C283.748 117.769 284.253 117.718 284.596 117.696C284.936 117.674 285.117 117.668 285.118 117.681Z" fill="#455A64"/>
<path d="M286.189 165.922C286.184 165.934 286.089 165.905 285.908 165.84C285.73 165.768 285.469 165.652 285.161 165.454C284.543 165.068 283.72 164.345 283.054 163.206C282.379 162.073 281.932 160.538 281.761 158.823C281.595 157.107 281.595 155.215 281.755 153.238C281.922 151.262 282.255 149.396 282.68 147.733C283.098 146.072 283.6 144.582 284.287 143.458C284.964 142.328 285.783 141.602 286.407 141.222C286.719 141.029 286.978 140.911 287.157 140.844C287.338 140.777 287.436 140.754 287.44 140.765C287.454 140.797 287.071 140.932 286.487 141.343C285.905 141.75 285.143 142.48 284.516 143.591C283.879 144.697 283.412 146.161 283.016 147.815C282.614 149.467 282.294 151.314 282.129 153.269C281.971 155.222 281.961 157.102 282.106 158.789C282.255 160.474 282.663 161.964 283.286 163.074C283.9 164.191 284.667 164.919 285.244 165.331C285.821 165.753 286.205 165.887 286.189 165.922Z" fill="#263238"/>
<path d="M254.654 167.991L247.27 169.44C246.157 169.659 245.077 168.934 244.859 167.82L244.806 167.548C244.588 166.435 245.313 165.356 246.425 165.138L253.809 163.688C254.923 163.47 256.002 164.195 256.22 165.308L256.273 165.581C256.492 166.693 255.767 167.772 254.654 167.991Z" fill="#455A64"/>
<path d="M255.219 164.797L289.38 154.08C290.226 153.815 291.126 154.282 291.396 155.125C291.677 156 291.17 156.933 290.283 157.172L255.35 166.609L255.219 164.797Z" fill="#455A64"/>
<path d="M280.469 160.086C280.462 160.061 280.865 159.921 281.601 159.688C282.4 159.445 283.453 159.124 284.724 158.737C286.035 158.332 287.644 157.905 289.346 157.347C289.757 157.188 290.156 156.974 290.465 156.659C290.761 156.352 290.954 155.909 290.946 155.471C290.946 155.032 290.666 154.637 290.24 154.493C289.812 154.35 289.301 154.413 288.812 154.536C284.842 155.814 281.249 156.969 278.57 157.831C277.3 158.224 276.249 158.548 275.451 158.795C274.711 159.015 274.299 159.124 274.291 159.1C274.283 159.075 274.679 158.918 275.404 158.656C276.193 158.381 277.232 158.018 278.487 157.579C281.103 156.691 284.688 155.462 288.72 154.172C289.241 154.045 289.807 153.958 290.364 154.14C290.926 154.32 291.324 154.898 291.314 155.462C291.318 156.02 291.086 156.533 290.721 156.91C290.356 157.276 289.907 157.506 289.47 157.67C287.705 158.229 286.13 158.615 284.798 158.992C283.512 159.332 282.449 159.615 281.641 159.828C280.893 160.018 280.476 160.111 280.469 160.086Z" fill="#263238"/>
<path d="M224.61 133.92C225.78 138.025 221.607 141.546 220.137 145.554C218.717 149.43 219.926 153.773 221.675 157.512C223.423 161.251 225.726 164.799 226.621 168.828C228.829 178.764 219.845 189.467 221.556 199.501C222.18 203.155 223.651 206.969 224.927 210.45C226.204 213.93 226.114 217.114 224.927 220.625C222.985 226.372 219.689 229.081 217.367 234.685C216.18 237.55 216.274 240.76 216.333 243.861C216.393 246.962 216.371 250.196 214.991 252.973C213.612 255.751 210.452 257.898 207.457 257.094C210.592 260.78 216.38 261.881 220.65 259.605C224.589 257.505 226.793 253.239 228.679 249.193C237.81 229.6 242.639 227.946 242.388 206.332C242.372 204.941 242.112 183.293 242.112 183.293C242.112 183.293 238.692 182.381 236.722 181.021C226.523 173.982 226.151 161.438 226.232 151.716" fill="#263238"/>
<path d="M245.018 199.5V207.657C245.018 207.657 238.743 239.657 236.861 257.435C234.979 275.214 234.661 279.904 234.661 279.904C234.661 279.904 239.162 286.926 248.574 275.004C257.986 263.082 259.659 261.2 263.424 260.991C263.424 260.991 258.823 211.003 259.032 209.12C259.241 207.238 260.706 205.565 260.706 205.565L245.018 199.5Z" fill="#FFBE9D"/>
<path d="M257.358 181.094C257.358 181.094 247.11 194.689 246.273 196.572C245.436 198.454 245.018 199.5 245.018 199.5L260.705 205.565L275.973 188.832L281.62 173.982L279.947 156.414C279.947 156.414 276.6 156.205 275.973 159.132C275.346 162.06 275.555 164.779 275.555 164.779L270.868 161.014L263.319 158.714C263.319 158.714 261.541 161.642 264.47 163.106C267.398 164.57 268.235 164.57 268.235 164.57L270.869 169.172L269.718 174.327L264.379 169.321C263.308 168.317 261.674 168.214 260.487 169.078L257.037 171.586L253.804 170.142L247.529 175.656L245.019 177.956C245.019 177.956 246.692 181.093 250.039 179.629C253.385 178.165 253.385 178.165 253.385 178.165L257.358 181.094Z" fill="#FFBE9D"/>
<path d="M245.018 202.252C245.018 202.252 245.005 202.105 245.015 201.817C245.024 201.529 245.049 201.1 245.118 200.54C245.188 199.981 245.297 199.29 245.51 198.49C245.742 197.701 246.006 196.764 246.61 195.857C248.954 192.253 252.649 187.242 257.253 181.015L257.28 181.2C256.038 180.289 254.694 179.302 253.3 178.279L253.441 178.295C252.764 178.592 252.074 178.896 251.372 179.204C250.667 179.498 249.977 179.874 249.168 180.063C248.373 180.246 247.478 180.186 246.72 179.785C245.951 179.406 245.332 178.782 244.879 178.03L244.818 177.929L244.912 177.841C247.609 175.309 250.608 172.747 253.689 170.014L253.782 169.932L253.889 169.995C254.752 170.504 255.708 171.069 256.674 171.64L256.49 171.644C257.561 170.94 258.648 170.225 259.749 169.5C260.312 169.138 260.829 168.769 261.441 168.407C262.097 168.072 262.94 168.143 263.537 168.59C265.608 170.34 267.728 172.131 269.886 173.954L269.587 174.054C269.933 172.504 270.307 170.826 270.685 169.132L270.706 169.264C269.873 167.81 268.975 166.243 268.07 164.663L268.232 164.758C267.736 164.704 267.358 164.554 266.933 164.407C266.52 164.255 266.111 164.082 265.702 163.899C265.292 163.718 264.887 163.521 264.48 163.32C264.276 163.22 264.072 163.087 263.868 162.971C263.688 162.812 263.476 162.691 263.326 162.496C262.844 161.987 262.565 161.268 262.6 160.574C262.616 159.875 262.823 159.221 263.156 158.616L263.226 158.49L263.372 158.535C265.922 159.312 268.44 160.08 270.92 160.836L270.955 160.847L270.983 160.87C272.565 162.141 274.126 163.397 275.668 164.636L275.37 164.793C275.272 162.897 275.404 161.032 275.769 159.224C275.927 158.301 276.476 157.391 277.295 156.908C278.104 156.408 279.032 156.218 279.957 156.236L280.107 156.239L280.122 156.396C280.711 162.641 281.264 168.525 281.777 173.966L281.781 174.003L281.768 174.038C279.675 179.512 277.777 184.476 276.094 188.878L276.085 188.901L276.069 188.919C271.048 194.383 267.008 198.782 264.213 201.824C262.822 203.327 261.741 204.495 260.998 205.297C260.635 205.684 260.356 205.981 260.157 206.191C259.966 206.392 259.862 206.487 259.862 206.487C259.862 206.487 259.948 206.374 260.13 206.166C260.322 205.95 260.592 205.644 260.943 205.248C261.675 204.435 262.739 203.251 264.108 201.728C266.883 198.667 270.894 194.242 275.877 188.744L275.852 188.785C277.52 184.377 279.399 179.407 281.472 173.925L281.463 173.995C280.939 168.556 280.372 162.672 279.771 156.428L279.936 156.588C279.101 156.573 278.207 156.757 277.487 157.209C276.751 157.65 276.276 158.431 276.124 159.296C275.768 161.063 275.64 162.918 275.738 164.763L275.759 165.177L275.44 164.92C273.897 163.682 272.334 162.427 270.752 161.157L270.814 161.189C268.332 160.434 265.814 159.666 263.264 158.89L263.478 158.808C263.186 159.338 262.985 159.966 262.976 160.578C262.947 161.196 263.185 161.793 263.602 162.239C263.729 162.41 263.925 162.517 264.082 162.66C264.272 162.766 264.447 162.883 264.648 162.982C265.05 163.181 265.452 163.376 265.856 163.554C266.648 163.901 267.497 164.267 268.234 164.38L268.353 164.398L268.396 164.475C269.3 166.055 270.197 167.622 271.029 169.076L271.065 169.139L271.049 169.209C270.67 170.904 270.294 172.582 269.948 174.131L269.882 174.429L269.649 174.231C267.5 172.411 265.388 170.623 263.325 168.876C262.835 168.508 262.14 168.448 261.6 168.723C261.063 169.041 260.492 169.44 259.945 169.791C258.842 170.515 257.754 171.228 256.682 171.931L256.591 171.991L256.498 171.935C255.532 171.363 254.577 170.796 253.716 170.285L253.916 170.266C250.831 172.992 247.826 175.547 245.125 178.068L245.157 177.879C245.564 178.558 246.158 179.165 246.858 179.508C247.553 179.878 248.363 179.933 249.105 179.767C249.845 179.6 250.548 179.227 251.256 178.934C251.959 178.628 252.649 178.327 253.328 178.032L253.403 178L253.468 178.048C254.858 179.076 256.198 180.068 257.436 180.984L257.543 181.063L257.463 181.169C252.834 187.371 249.105 192.364 246.732 195.929C246.131 196.809 245.857 197.737 245.616 198.516C245.393 199.306 245.273 199.992 245.191 200.547C245.111 201.102 245.074 201.529 245.052 201.815C245.03 202.105 245.018 202.252 245.018 202.252Z" fill="#EB996E"/>
<path d="M264.429 184.242C264.354 184.231 264.632 183.133 264.746 181.351C264.783 180.467 264.732 179.382 264.252 178.328C263.773 177.272 262.83 176.353 261.753 175.522C259.582 173.847 257.488 172.498 255.947 171.568C255.226 171.144 254.613 170.783 254.109 170.486C253.673 170.232 253.435 170.085 253.447 170.061C253.459 170.039 253.719 170.142 254.177 170.357C254.635 170.572 255.288 170.902 256.08 171.339C257.663 172.214 259.793 173.536 261.984 175.227C263.075 176.07 264.068 177.041 264.566 178.186C265.064 179.328 265.082 180.466 265.011 181.368C264.935 182.279 264.771 182.997 264.657 183.489C264.537 183.979 264.454 184.247 264.429 184.242Z" fill="#EB996E"/>
<path d="M275.407 177.716C275.35 177.702 275.502 176.99 275.674 175.835C275.846 174.679 276.009 173.072 275.996 171.292C275.979 169.512 275.788 167.908 275.597 166.755C275.406 165.602 275.242 164.894 275.298 164.878C275.342 164.866 275.597 165.552 275.856 166.704C276.117 167.856 276.353 169.482 276.371 171.289C276.384 173.096 276.175 174.725 275.934 175.88C275.694 177.037 275.45 177.728 275.407 177.716Z" fill="#EB996E"/>
<path d="M205.489 124.368L197.984 111.141C201.304 105.752 203.224 99.4075 203.224 92.6129C203.224 73.0735 187.384 57.2335 167.844 57.2335C148.305 57.2335 132.465 73.0735 132.465 92.6129C132.465 112.152 148.305 127.992 167.844 127.992C176.003 127.992 183.511 125.223 189.496 120.583L189.484 120.599L205.489 124.368Z" fill="white"/>
<path d="M205.489 124.368C204.835 124.218 199.701 123.04 189.462 120.691L189.322 120.658L189.41 120.543L189.422 120.527L189.553 120.658C187.535 122.219 185.118 123.759 182.277 125.04C179.433 126.3 176.174 127.329 172.577 127.807C170.781 128.036 168.905 128.184 166.977 128.089C166.013 128.034 165.033 128.01 164.043 127.927C163.061 127.779 162.065 127.628 161.055 127.475C157.051 126.684 152.958 125.163 149.139 122.793C145.323 120.432 141.789 117.225 138.957 113.285C136.13 109.352 133.986 104.689 132.982 99.6228C131.988 94.5634 132.071 89.1403 133.4 83.8915C134.739 78.6614 137.238 73.5523 140.98 69.349L142.424 67.7599C142.898 67.2257 143.465 66.785 143.979 66.2947C144.518 65.831 145.004 65.3062 145.583 64.8965C146.149 64.4724 146.715 64.0498 147.28 63.6278C147.829 63.1836 148.434 62.8258 149.036 62.4658C149.636 62.1014 150.234 61.7386 150.831 61.3764C151.458 61.0718 152.084 60.7673 152.709 60.4642C153.339 60.174 153.945 59.8298 154.605 59.621C159.741 57.5813 165.22 56.8051 170.456 57.1846C175.694 57.5611 180.706 59.0638 185.005 61.4837C189.319 63.8842 192.956 67.0896 195.764 70.6702C198.581 74.2522 200.565 78.2035 201.795 82.1383C203.016 86.0911 203.347 90.0122 203.334 93.6418C203.23 97.2799 202.569 100.633 201.605 103.575C200.639 106.521 199.37 109.056 198.06 111.189L198.061 111.097C202.825 119.607 205.176 123.808 205.489 124.368C205.169 123.812 202.769 119.639 197.906 111.186L197.88 111.141L197.908 111.095C199.199 108.965 200.448 106.439 201.396 103.506C202.341 100.579 202.985 97.2468 203.076 93.6346C203.076 90.031 202.737 86.1415 201.516 82.2247C200.287 78.3259 198.31 74.4134 195.512 70.8689C192.723 67.3258 189.114 64.1563 184.839 61.7854C180.577 59.3942 175.614 57.9139 170.429 57.5453C165.244 57.1745 159.824 57.947 154.742 59.9666C154.089 60.1726 153.49 60.5138 152.867 60.8018C152.249 61.1021 151.63 61.403 151.008 61.7047C150.418 62.0633 149.827 62.4233 149.234 62.7833C148.638 63.1397 148.038 63.4939 147.496 63.9338C146.937 64.3514 146.377 64.7698 145.817 65.1895C145.243 65.5949 144.764 66.1147 144.23 66.5734C143.721 67.0586 143.16 67.4942 142.692 68.0234L141.264 69.5952C137.561 73.7539 135.088 78.809 133.761 83.983C132.444 89.1749 132.358 94.5432 133.337 99.5522C134.325 104.568 136.444 109.186 139.238 113.084C142.038 116.989 145.532 120.172 149.309 122.519C153.089 124.875 157.143 126.391 161.112 127.185C162.112 127.339 163.1 127.491 164.074 127.641C165.055 127.726 166.028 127.751 166.984 127.809C168.897 127.908 170.759 127.767 172.542 127.546C176.114 127.084 179.353 126.073 182.184 124.833C185.013 123.571 187.422 122.052 189.438 120.51L190.004 120.077L189.57 120.64L189.557 120.656L189.505 120.509C199.716 122.975 204.837 124.211 205.489 124.368Z" fill="#263238"/>
<path d="M160.176 92.6129C160.176 94.1997 158.89 95.4857 157.303 95.4857C155.717 95.4857 154.431 94.1997 154.431 92.6129C154.431 91.0267 155.717 89.7408 157.303 89.7408C158.89 89.7408 160.176 91.0267 160.176 92.6129Z" fill="#263238"/>
<path d="M171.672 92.6129C171.672 94.1997 170.386 95.4857 168.799 95.4857C167.212 95.4857 165.926 94.1997 165.926 92.6129C165.926 91.0267 167.212 89.7408 168.799 89.7408C170.386 89.7408 171.672 91.0267 171.672 92.6129Z" fill="#263238"/>
<path d="M183.138 91.1765C183.931 92.5502 183.46 94.307 182.087 95.1005C180.713 95.8939 178.956 95.423 178.163 94.0493C177.369 92.6755 177.84 90.9187 179.214 90.1253C180.588 89.3325 182.344 89.8027 183.138 91.1765Z" fill="#263238"/>
<path d="M347.072 318.342C347.072 318.446 273.877 318.529 183.608 318.529C93.3069 318.529 20.1283 318.445 20.1283 318.342C20.1283 318.239 93.3069 318.155 183.608 318.155C273.877 318.155 347.072 318.239 347.072 318.342Z" fill="#263238"/>
<path d="M254.56 318.517C254.56 318.517 259.443 310.178 269.959 309.82C280.475 309.462 285.734 318.517 285.734 318.517H254.56Z" fill="#455A64"/>
<path d="M274.713 318.257C274.636 318.257 274.617 317.64 274.405 316.687C274.197 315.735 273.736 314.454 272.904 313.223C272.066 311.996 271.045 311.095 270.237 310.552C269.429 310.003 268.862 309.759 268.891 309.687C268.906 309.64 269.524 309.779 270.409 310.277C271.292 310.769 272.406 311.678 273.284 312.965C274.157 314.256 274.591 315.626 274.724 316.629C274.861 317.634 274.762 318.26 274.713 318.257Z" fill="#263238"/>
<path d="M248.049 318.136L248.049 318.069C248.013 315.865 246.216 314.098 244.012 314.098H154.483C152.253 314.098 150.445 315.906 150.445 318.136H248.049Z" fill="#455A64"/>
<path d="M76.6605 161.312C76.6605 163.195 78.071 275.633 78.071 275.633L161.58 295.726H168.487L164.092 138.753H157.812L76.6605 161.312Z" fill="#263238"/>
<path d="M94.3214 270.927L68.4396 318.365H92.0959C87.8652 317.942 129.556 318.365 129.556 318.365L92.0959 308.431L103.81 281.826L102.81 270.927H94.3214Z" fill="#263238"/>
<path d="M94.8988 279.683L92.0958 191.271L117.525 188.832L120.66 283.234L111.576 283.695L94.8988 279.683Z" fill="#263238"/>
<path d="M124.214 286.736C124.214 286.736 124.204 286.597 124.199 286.325C124.195 286.042 124.19 285.639 124.183 285.112C124.177 284.034 124.167 282.457 124.154 280.415C124.142 276.306 124.124 270.333 124.101 262.83C124.085 247.802 124.062 226.653 124.034 202.13L124.214 202.309C114.803 202.311 104.679 202.314 94.2084 202.317L94.3955 202.13C94.3955 203.42 94.3955 204.812 94.3955 206.21C94.384 230.124 94.374 252.383 94.3653 270.927V270.967L94.3459 271.002C86.5576 285.281 80.0971 297.126 75.5776 305.412C73.3147 309.54 71.5384 312.779 70.3223 314.996C69.7161 316.092 69.2495 316.933 68.9299 317.511C68.6131 318.078 68.4381 318.365 68.4381 318.365C68.4381 318.365 68.5836 318.062 68.8867 317.488C69.197 316.904 69.6492 316.056 70.2381 314.951C71.4369 312.724 73.1872 309.471 75.4178 305.326C79.9092 297.024 86.3294 285.157 94.0694 270.852L94.0507 270.927C94.042 252.383 94.0312 230.124 94.0204 206.21C94.0204 204.813 94.0204 203.421 94.0204 202.13V201.943H94.2076C104.678 201.946 114.802 201.948 124.213 201.951H124.393V202.13C124.366 226.653 124.343 247.802 124.326 262.83C124.304 270.333 124.286 276.305 124.273 280.415C124.26 282.457 124.25 284.034 124.244 285.112C124.237 285.639 124.232 286.042 124.229 286.325C124.225 286.597 124.214 286.736 124.214 286.736Z" fill="#455A64"/>
<path d="M103.809 281.826C103.904 281.868 100.302 290.195 95.7657 300.421C91.2275 310.652 87.4734 318.908 87.3784 318.866C87.2841 318.825 90.8848 310.5 95.4222 300.269C99.9597 290.043 103.714 281.784 103.809 281.826Z" fill="#455A64"/>
<path d="M161.581 295.726C161.581 295.726 161.567 295.59 161.56 295.322C161.554 295.04 161.546 294.646 161.536 294.135C161.523 293.077 161.505 291.542 161.482 289.572C161.452 285.61 161.363 279.876 161.223 272.793C160.954 258.625 160.314 239.059 159.53 217.452C158.745 195.837 158.147 176.265 157.946 162.094C157.84 155.008 157.791 149.274 157.806 145.311C157.812 143.341 157.818 141.806 157.822 140.748C157.828 140.238 157.832 139.843 157.835 139.562C157.84 139.295 157.853 139.158 157.853 139.158C157.853 139.158 157.866 139.295 157.874 139.562C157.879 139.843 157.887 140.238 157.897 140.748C157.91 141.807 157.928 143.341 157.952 145.311C157.982 149.273 158.071 155.006 158.211 162.09C158.48 176.258 159.119 195.825 159.904 217.44C160.689 239.047 161.286 258.618 161.488 272.789C161.594 279.875 161.643 285.61 161.628 289.573C161.621 291.543 161.615 293.078 161.612 294.137C161.606 294.647 161.602 295.042 161.598 295.323C161.593 295.589 161.581 295.726 161.581 295.726Z" fill="#455A64"/>
<path d="M119.659 201.477C119.763 201.477 119.846 220.281 119.846 243.472C119.846 266.671 119.762 285.472 119.659 285.472C119.555 285.472 119.472 266.671 119.472 243.472C119.472 220.281 119.555 201.477 119.659 201.477Z" fill="#455A64"/>
<path d="M74.6611 310.96C74.6503 310.967 74.5271 310.795 74.3018 310.46C74.1844 310.282 74.0469 310.075 73.8885 309.835C73.7179 309.593 73.5429 309.3 73.3701 308.956C72.5903 307.631 71.7047 305.557 71.0863 302.872C70.4714 300.186 70.2626 296.868 70.6406 293.247C71.0539 289.631 72.0251 285.703 73.7611 281.867C74.6359 279.947 75.7648 278.206 77.0255 276.674C77.3294 276.281 77.6419 275.902 77.9795 275.551C78.3107 275.193 78.6283 274.831 78.9609 274.489C79.6543 273.834 80.3051 273.162 81.0194 272.593C82.3895 271.39 83.8382 270.431 85.2026 269.562C85.9125 269.172 86.5814 268.765 87.2567 268.434C87.9415 268.124 88.5729 267.769 89.2223 267.537C91.7726 266.499 93.9679 265.995 95.5007 265.864C96.2603 265.737 96.8637 265.784 97.2662 265.757C97.6701 265.749 97.8818 265.751 97.8818 265.764C97.8818 265.777 97.6701 265.8 97.2683 265.833C96.868 265.884 96.2704 265.861 95.5187 266.01C94.0024 266.184 91.8374 266.723 89.3246 267.782C88.6845 268.021 88.0624 268.38 87.3878 268.693C86.7225 269.026 86.0637 269.436 85.3646 269.828C84.0211 270.701 82.5933 271.659 81.244 272.857C80.5406 273.422 79.9005 274.09 79.2172 274.741C78.8896 275.08 78.5771 275.44 78.251 275.793C77.9183 276.142 77.6109 276.517 77.3121 276.906C76.0715 278.42 74.9613 280.138 74.1023 282.025C72.3873 285.813 71.4124 289.711 70.9847 293.286C70.5923 296.87 70.7702 300.151 71.3462 302.816C71.9251 305.481 72.7639 307.55 73.499 308.887C73.6603 309.234 73.8244 309.531 73.9843 309.779C74.1304 310.024 74.2564 310.237 74.3651 310.419C74.5696 310.766 74.6719 310.953 74.6611 310.96Z" fill="#455A64"/>
</svg>
