<svg width="500" height="458" viewBox="0 0 500 458" fill="none" xmlns="http://www.w3.org/2000/svg">
<path d="M449.901 398.496H416.779V398.746H449.901V398.496Z" fill="#EBEBEB"/>
<path d="M331.22 401.211H322.527V401.461H331.22V401.211Z" fill="#EBEBEB"/>
<path d="M415.778 389.211H396.586V389.461H415.778V389.211Z" fill="#EBEBEB"/>
<path d="M95.652 390.891H52.459V391.141H95.652V390.891Z" fill="#EBEBEB"/>
<path d="M110.889 390.891H104.556V391.141H110.889V390.891Z" fill="#EBEBEB"/>
<path d="M225.147 395.113H131.471V395.363H225.147V395.113Z" fill="#EBEBEB"/>
<path d="M237.014 337.801H43.915C40.768 337.801 38.207 335.24 38.207 332.093V60.6611C38.207 57.5141 40.768 54.9531 43.915 54.9531H237.014C240.16 54.9531 242.721 57.5141 242.721 60.6611V332.093C242.721 335.24 240.16 337.801 237.014 337.801ZM43.915 55.2041C40.905 55.2041 38.457 57.6521 38.457 60.6621V332.094C38.457 335.104 40.905 337.552 43.915 337.552H237.014C240.023 337.552 242.471 335.104 242.471 332.094V60.6611C242.471 57.6521 240.023 55.2031 237.014 55.2031L43.915 55.2041Z" fill="#EBEBEB"/>
<path d="M453.31 337.801H260.212C257.065 337.801 254.505 335.24 254.505 332.093V60.6611C254.505 57.5141 257.066 54.9531 260.212 54.9531H453.31C456.458 54.9531 459.018 57.5141 459.018 60.6611V332.093C459.019 335.24 456.458 337.801 453.31 337.801ZM260.212 55.2041C257.203 55.2041 254.755 57.6521 254.755 60.6621V332.094C254.755 335.104 257.203 337.552 260.212 337.552H453.31C456.32 337.552 458.768 335.104 458.768 332.094V60.6611C458.768 57.6521 456.32 55.2031 453.31 55.2031L260.212 55.2041Z" fill="#EBEBEB"/>
<path d="M500 382.398H0V382.648H500V382.398Z" fill="#EBEBEB"/>
<path d="M374.07 280.125V383.017H380.799H419.905H426.634V280.125H374.07Z" fill="#EBEBEB"/>
<path d="M384.164 267.422V290.219H388.309H412.395H416.54V267.422H384.164Z" fill="#EBEBEB"/>
<path d="M384.166 283.488H377.436V290.218H384.166V283.488Z" fill="#FAFAFA"/>
<path d="M397.201 283.488H390.471V290.218H397.201V283.488Z" fill="#FAFAFA"/>
<path d="M410.235 283.488H403.505V290.218H410.235V283.488Z" fill="#FAFAFA"/>
<path d="M423.27 283.488H416.54V290.218H423.27V283.488Z" fill="#F0F0F0"/>
<path d="M384.166 295.719H377.436V302.449H384.166V295.719Z" fill="#F0F0F0"/>
<path d="M397.201 295.719H390.471V302.449H397.201V295.719Z" fill="#F0F0F0"/>
<path d="M410.235 295.719H403.505V302.449H410.235V295.719Z" fill="#FAFAFA"/>
<path d="M423.27 295.719H416.54V302.449H423.27V295.719Z" fill="#FAFAFA"/>
<path d="M384.166 307.945H377.436V314.675H384.166V307.945Z" fill="#F0F0F0"/>
<path d="M397.201 307.945H390.471V314.675H397.201V307.945Z" fill="#FAFAFA"/>
<path d="M410.235 307.945H403.505V314.675H410.235V307.945Z" fill="#FAFAFA"/>
<path d="M397.201 272.918H390.471V279.648H397.201V272.918Z" fill="#FAFAFA"/>
<path d="M410.235 272.918H403.505V279.648H410.235V272.918Z" fill="#F0F0F0"/>
<path d="M423.27 307.945H416.54V314.675H423.27V307.945Z" fill="#F0F0F0"/>
<path d="M384.166 320.172H377.436V326.902H384.166V320.172Z" fill="#FAFAFA"/>
<path d="M397.201 320.172H390.471V326.902H397.201V320.172Z" fill="#F0F0F0"/>
<path d="M410.235 320.172H403.505V326.902H410.235V320.172Z" fill="#F0F0F0"/>
<path d="M423.27 320.172H416.54V326.902H423.27V320.172Z" fill="#FAFAFA"/>
<path d="M384.166 332.398H377.436V339.128H384.166V332.398Z" fill="#F0F0F0"/>
<path d="M397.201 332.398H390.471V339.128H397.201V332.398Z" fill="#FAFAFA"/>
<path d="M410.235 332.398H403.505V339.128H410.235V332.398Z" fill="#FAFAFA"/>
<path d="M423.27 332.398H416.54V339.128H423.27V332.398Z" fill="#F0F0F0"/>
<path d="M384.166 344.625H377.436V351.355H384.166V344.625Z" fill="#F0F0F0"/>
<path d="M397.201 344.625H390.471V351.355H397.201V344.625Z" fill="#FAFAFA"/>
<path d="M410.235 344.625H403.505V351.355H410.235V344.625Z" fill="#F0F0F0"/>
<path d="M423.27 344.625H416.54V351.355H423.27V344.625Z" fill="#FAFAFA"/>
<path d="M384.166 356.855H377.436V363.585H384.166V356.855Z" fill="#FAFAFA"/>
<path d="M397.201 356.855H390.471V363.585H397.201V356.855Z" fill="#FAFAFA"/>
<path d="M410.235 356.855H403.505V363.585H410.235V356.855Z" fill="#F0F0F0"/>
<path d="M423.27 356.855H416.54V363.585H423.27V356.855Z" fill="#F0F0F0"/>
<path d="M384.166 369.082H377.436V375.812H384.166V369.082Z" fill="#F0F0F0"/>
<path d="M423.27 369.082H416.54V375.812H423.27V369.082Z" fill="#FAFAFA"/>
<path d="M410.235 369.082H390.471V371.011H391.271V383.015H393.2V371.011H407.506V383.015H409.436V371.011H410.235V369.082Z" fill="#F5F5F5"/>
<path d="M400.352 371.012H393.199V383.016H400.352V371.012Z" fill="#E6E6E6"/>
<path d="M407.506 371.012H400.353V383.016H407.506V371.012Z" fill="#EBEBEB"/>
<path d="M66.9463 280.125V383.017H73.6753H112.781H119.511V280.125H66.9463Z" fill="#F5F5F5"/>
<path d="M70.3115 283.488V295.716V299.08V302.445H77.0405V299.08V295.716V283.488H70.3115Z" fill="#E6E6E6"/>
<path d="M83.3467 283.488V295.716V299.08V302.445H90.0767V299.08V295.716V283.488H83.3467Z" fill="#F0F0F0"/>
<path d="M96.3809 283.488V295.716V299.08V302.445H103.111V299.08V295.716V283.488H96.3809Z" fill="#E6E6E6"/>
<path d="M109.416 283.488V295.716V300.916V302.445H116.146V300.916V295.716V283.488H109.416Z" fill="#F0F0F0"/>
<path d="M70.3115 307.945V320.173V323.538V326.903H77.0405V323.538V320.173V307.945H70.3115Z" fill="#F0F0F0"/>
<path d="M83.3467 307.945V320.173V324.918V326.903H90.0767V324.918V320.173V307.945H83.3467Z" fill="#F0F0F0"/>
<path d="M96.3809 307.945V320.173V323.538V326.903H103.111V323.538V320.173V307.945H96.3809Z" fill="#E6E6E6"/>
<path d="M109.416 307.945V320.173V323.538V326.903H116.146V323.538V320.173V307.945H109.416Z" fill="#F0F0F0"/>
<path d="M70.3115 332.402V344.629V347.994V351.359H77.0405V347.994V344.629V332.402H70.3115Z" fill="#E6E6E6"/>
<path d="M83.3467 332.402V344.629V347.994V351.359H90.0767V347.994V344.629V332.402H83.3467Z" fill="#F0F0F0"/>
<path d="M96.3809 332.402V344.629V347.994V351.359H103.111V347.994V344.629V332.402H96.3809Z" fill="#F0F0F0"/>
<path d="M109.416 332.402V344.629V349.278V351.359H116.146V349.278V344.629V332.402H109.416Z" fill="#E6E6E6"/>
<path d="M112.782 356.855H109.417H103.112H96.3815H90.0765H83.3465H70.3115V363.585H83.3465H90.0765H96.3815H103.112H109.417H112.782H116.147V356.855H112.782Z" fill="#F0F0F0"/>
<path d="M103.112 369.086H83.3467V371.015H84.1467V383.019H86.0757V371.015H100.382V383.019H102.312V371.015H103.112V369.086Z" fill="#EBEBEB"/>
<path d="M93.2282 371.012H86.0752V383.016H93.2282V371.012Z" fill="#FAFAFA"/>
<path d="M100.382 371.012H93.2285V383.016H100.382V371.012Z" fill="#F5F5F5"/>
<path d="M119.512 326.902V383.016H126.241H165.347H172.076V326.902H119.512Z" fill="#E6E6E6"/>
<path d="M129.606 332.398H122.876V339.128H129.606V332.398Z" fill="#F0F0F0"/>
<path d="M142.642 332.398H135.912V339.128H142.642V332.398Z" fill="#F0F0F0"/>
<path d="M155.676 332.398H148.946V339.128H155.676V332.398Z" fill="#F0F0F0"/>
<path d="M168.711 332.398H161.981V339.128H168.711V332.398Z" fill="#F0F0F0"/>
<path d="M129.606 344.629H122.876V351.359H129.606V344.629Z" fill="#F0F0F0"/>
<path d="M142.642 344.629H135.912V351.359H142.642V344.629Z" fill="#F0F0F0"/>
<path d="M155.676 344.629H148.946V351.359H155.676V344.629Z" fill="#F0F0F0"/>
<path d="M168.711 344.629H161.981V351.359H168.711V344.629Z" fill="#F0F0F0"/>
<path d="M129.606 356.855H122.876V363.585H129.606V356.855Z" fill="#F0F0F0"/>
<path d="M142.642 356.855H135.912V363.585H142.642V356.855Z" fill="#F0F0F0"/>
<path d="M155.676 356.855H148.946V363.585H155.676V356.855Z" fill="#F0F0F0"/>
<path d="M168.711 356.855H161.981V363.585H168.711V356.855Z" fill="#F0F0F0"/>
<path d="M129.606 369.082H122.876V375.812H129.606V369.082Z" fill="#F0F0F0"/>
<path d="M168.711 369.082H161.981V375.812H168.711V369.082Z" fill="#F0F0F0"/>
<path d="M155.676 369.082H135.912V371.011H136.712V383.015H138.641V371.011H152.947V383.015H154.876V371.011H155.676V369.082Z" fill="#F5F5F5"/>
<path d="M145.794 371.012H138.641V383.016H145.794V371.012Z" fill="#E6E6E6"/>
<path d="M152.947 371.012H145.794V383.016H152.947V371.012Z" fill="#EBEBEB"/>
<path d="M312.242 280.125V383.017H318.972H358.077H364.807V280.125H312.242Z" fill="#FAFAFA"/>
<path d="M331.372 356.855H328.642H315.607V360.22V363.585V375.813H322.337V363.585H328.642H331.372H335.372V356.855H331.372Z" fill="#F0F0F0"/>
<path d="M356.849 356.855H354.712H341.677V363.585H354.712V375.813H361.442V363.585V358.717V356.855H356.849Z" fill="#F0F0F0"/>
<path d="M348.408 369.086H328.643V371.015H329.443V383.019H331.373V371.015H345.678V383.019H347.608V371.015H348.408V369.086Z" fill="#F5F5F5"/>
<path d="M338.525 371.012H331.372V383.016H338.525V371.012Z" fill="#EBEBEB"/>
<path d="M345.678 371.012H338.525V383.016H345.678V371.012Z" fill="#E0E0E0"/>
<path d="M335.372 283.488H315.607V302.445H335.372V283.488Z" fill="#F0F0F0"/>
<path d="M361.442 283.488H341.677V302.445H361.442V283.488Z" fill="#F0F0F0"/>
<path d="M335.372 307.945H315.607V326.903H335.372V307.945Z" fill="#F0F0F0"/>
<path d="M361.442 307.945H341.677V326.903H361.442V307.945Z" fill="#F0F0F0"/>
<path d="M335.372 332.402H315.607V351.36H335.372V332.402Z" fill="#F0F0F0"/>
<path d="M361.442 332.402H341.677V351.36H361.442V332.402Z" fill="#F0F0F0"/>
<path d="M125.769 255.692C124.06 257.218 124.923 260.033 127.201 260.279C143.514 262.042 176.476 264.473 185.398 256.619C196.872 246.52 164.203 256.07 161.678 253.775C159.154 251.48 168.111 246.394 161.073 246.522C156.136 246.612 148.456 255.352 140.574 254.196C134.149 253.254 142.716 248.588 136.749 248.588C131.589 248.587 129.222 252.608 125.769 255.692Z" fill="#F0F0F0"/>
<path d="M157.157 253.085C155.934 254.177 156.552 256.192 158.182 256.369C169.86 257.631 193.457 259.371 199.845 253.749C208.059 246.519 184.672 253.356 182.865 251.713C181.058 250.07 187.47 246.429 182.432 246.521C178.897 246.585 173.4 252.842 167.757 252.014C163.157 251.339 169.29 247.999 165.019 247.999C161.323 247.999 159.629 250.877 157.157 253.085Z" fill="#F5F5F5"/>
<path d="M274.275 173.695C297.471 173.695 316.275 154.891 316.275 131.695C316.275 108.499 297.471 89.6953 274.275 89.6953C251.079 89.6953 232.275 108.499 232.275 131.695C232.275 154.891 251.079 173.695 274.275 173.695Z" fill="#F0F0F0"/>
<path d="M267.186 144.374C265.233 145.613 265.874 148.6 268.171 148.868C293.673 151.843 356.803 157.52 373.111 143.166C392.791 125.844 336.757 142.224 332.427 138.288C328.097 134.352 343.46 125.628 331.39 125.848C322.921 126.002 309.749 140.993 296.229 139.01C285.208 137.394 299.903 129.391 289.669 129.391C279.124 129.39 275.379 139.176 267.186 144.374Z" fill="#FAFAFA"/>
<path d="M331.939 80.9915C330.41 82.2695 331.161 84.7585 333.142 84.9765C348.859 86.7065 381.978 89.2745 390.847 81.4675C402.086 71.5745 370.085 80.9295 367.613 78.6815C365.14 76.4335 373.914 71.4515 367.021 71.5765C362.185 71.6645 354.662 80.2255 346.941 79.0925C340.647 78.1695 349.039 73.5995 343.195 73.5995C337.894 73.6005 335.602 77.9305 331.939 80.9915Z" fill="#F5F5F5"/>
<path d="M245.178 423.712C352.26 423.712 439.067 418.643 439.067 412.389C439.067 406.136 352.26 401.066 245.178 401.066C138.096 401.066 51.2891 406.136 51.2891 412.389C51.2891 418.643 138.096 423.712 245.178 423.712Z" fill="#F5F5F5"/>
<path d="M140.113 391.422H107.388V407.784H140.113V391.422Z" fill="#0A5840"/>
<path opacity="0.3" d="M140.113 391.422H107.388V407.784H140.113V391.422Z" fill="white"/>
<path opacity="0.2" d="M140.113 407.784V391.422H131.932V407.784H140.113Z" fill="black"/>
<path d="M205.562 358.695H172.837V407.783H205.562V358.695Z" fill="#0A5840"/>
<path opacity="0.4" d="M205.562 358.695H172.837V407.783H205.562V358.695Z" fill="white"/>
<path opacity="0.2" d="M205.562 407.783V358.695H197.382V407.783H205.562Z" fill="black"/>
<path d="M271.012 325.969H238.287V407.782H271.012V325.969Z" fill="#0A5840"/>
<path opacity="0.3" d="M271.012 325.969H238.287V407.782H271.012V325.969Z" fill="white"/>
<path opacity="0.2" d="M271.012 407.782V325.969H262.831V407.782H271.012Z" fill="black"/>
<path d="M336.462 276.883H303.737V407.783H336.462V276.883Z" fill="#0A5840"/>
<path opacity="0.2" d="M336.462 276.883H303.737V407.783H336.462V276.883Z" fill="white"/>
<path opacity="0.2" d="M336.462 407.783V276.883H328.281V407.783H336.462Z" fill="black"/>
<path d="M401.912 211.434H369.188V407.784H401.912V211.434Z" fill="#0A5840"/>
<path opacity="0.2" d="M401.912 407.784L401.912 211.434H393.731L393.731 407.784H401.912Z" fill="black"/>
<path d="M150.589 367.11H107.887L92.4873 360.565H133.76V327.84H199.21V295.115H264.659V246.028H330.109V180.578H385.316V123.543H402.146V187.123H346.94V252.573H281.49V301.66H216.04V334.385H150.589V367.11Z" fill="#0A5840"/>
<g opacity="0.4">
<path d="M150.589 367.11H107.887L92.4873 360.565H133.76V327.84H199.21V295.115H264.659V246.028H330.109V180.578H385.316V123.543H402.146V187.123H346.94V252.573H281.49V301.66H216.04V334.385H150.589V367.11Z" fill="white"/>
</g>
<path d="M385.316 180.578V123.543H402.146V187.123L385.316 180.578Z" fill="#0A5840"/>
<path d="M330.109 246.028V180.578L346.94 187.123V252.573L330.109 246.028Z" fill="#0A5840"/>
<path d="M264.66 295.114V246.027L281.491 252.572V301.659L264.66 295.114Z" fill="#0A5840"/>
<path d="M199.211 327.838V295.113L216.041 301.658V334.383L199.211 327.838Z" fill="#0A5840"/>
<path d="M133.761 360.565V327.84L150.59 334.385V367.11L133.761 360.565Z" fill="#0A5840"/>
<path d="M374.07 128.204L393.731 104.57L413.392 142.516L374.07 128.204Z" fill="#0A5840"/>
<path d="M194.78 162.586C193.666 164.82 192.166 168.221 191.092 172.156C191.07 172.239 191.047 172.321 191.025 172.404C190.892 172.904 190.622 174.045 190.609 174.103C190.494 174.619 190.387 175.141 190.291 175.669C190.286 175.695 190.093 176.85 190.02 177.408C190.012 177.473 190.004 177.537 189.996 177.602C189.853 178.737 189.747 181.144 189.746 181.193C189.74 181.774 189.752 182.356 189.784 182.939C189.786 182.971 189.878 184.217 189.956 184.807V184.809L189.975 184.976C189.967 184.921 189.963 184.865 189.956 184.81C191.479 194.338 192.904 195.583 194.066 199.119C197.487 209.529 200.143 242.527 200.143 242.527C180.363 247.858 156.546 269.558 156.546 269.558L160.823 279.44C160.823 279.44 212.139 255.173 215.779 250.242C220.102 244.387 217.621 213.394 218.978 201.176C219.48 196.654 220.055 192.731 220.627 189.226L227.059 179.313L194.78 162.586Z" fill="#263238"/>
<path opacity="0.2" d="M204.342 188.665L200.509 184.582C200.509 184.582 193.392 190.495 218.522 212.27C218.556 207.922 218.662 204.033 218.979 201.176C219.021 200.804 219.065 200.459 219.107 200.095L204.342 188.665Z" fill="black"/>
<path d="M157.266 271.312L146.864 276.605L150.071 281.855L159.76 277.562L157.266 271.312Z" fill="#FFC3BD"/>
<path d="M150.518 283.176C150.491 283.111 150.505 283.036 150.554 282.986C150.604 282.936 150.68 282.923 150.744 282.953C150.858 283.007 153.432 284.239 153.838 285.4C153.917 285.615 153.909 285.851 153.816 286.06C153.729 286.314 153.49 286.485 153.222 286.487C152.743 286.463 152.091 285.804 151.588 285.078C151.177 284.476 150.818 283.84 150.518 283.176ZM151.013 283.496C151.631 284.676 152.66 286.143 153.227 286.15C153.301 286.157 153.409 286.135 153.51 285.913C153.574 285.786 153.576 285.637 153.516 285.508C153.481 285.405 153.431 285.308 153.367 285.22C152.699 284.502 151.9 283.917 151.013 283.496Z" fill="#0A5840"/>
<path d="M150.475 283.099C150.473 283.038 150.505 282.981 150.557 282.95C150.636 282.907 152.319 281.973 153.445 282.293C153.773 282.382 154.051 282.601 154.214 282.899C154.44 283.307 154.329 283.559 154.181 283.683C153.61 284.262 151.372 283.735 150.579 283.251C150.558 283.239 150.542 283.22 150.534 283.197C150.503 283.174 150.482 283.139 150.475 283.099ZM153.888 282.99C153.769 282.814 153.589 282.686 153.383 282.632C152.578 282.545 151.766 282.707 151.056 283.096C151.985 283.524 153.613 283.758 153.984 283.448C154.012 283.413 154.101 283.327 153.95 283.064L153.888 282.99Z" fill="#0A5840"/>
<path d="M150.923 282.015L146.51 275.64C146.344 275.4 146.033 275.307 145.762 275.416L139.778 277.854C139.245 278.066 138.986 278.67 139.198 279.202C139.225 279.27 139.26 279.336 139.301 279.397C140.932 281.668 142.472 283.624 144.449 286.488C146.785 289.866 145.788 289.288 148.479 293.297C150.103 295.711 153.125 294.267 152.557 293.16C149.928 288.114 150.996 286.662 151.418 283.721C151.467 283.111 151.291 282.504 150.923 282.015Z" fill="#263238"/>
<path opacity="0.2" d="M155.625 272.145L151.728 274.127L154.549 279.868L157.766 278.443L155.625 272.145Z" fill="black"/>
<path d="M156.517 266.273L152.114 268.838L157.629 281.486L162.747 280.064L156.517 266.273Z" fill="#0A5840"/>
<path d="M249.395 235.276C249.395 235.276 204.317 197.26 200.48 190.512C196.643 183.764 206.907 174.516 206.907 174.516L218.342 176.117C218.342 176.117 266.507 219.822 264.535 228.569L249.395 235.276Z" fill="#263238"/>
<path d="M264.535 228.57C263.271 237.448 244.238 280.145 244.238 280.145C244.238 280.145 240.304 279.913 233.104 275.414C233.104 275.414 240.628 241.67 248.266 228.57H264.535Z" fill="#263238"/>
<path d="M236.343 277.441L232.94 288.604L238.946 289.936L242.574 279.979L236.343 277.441Z" fill="#FFC3BD"/>
<path d="M240.212 290.531C240.146 290.505 240.102 290.443 240.1 290.373C240.099 290.302 240.142 290.238 240.209 290.213C240.327 290.169 242.999 289.169 244.118 289.681C244.327 289.773 244.492 289.943 244.578 290.155C244.7 290.394 244.658 290.684 244.473 290.879C244.123 291.207 243.196 291.22 242.325 291.078C241.606 290.958 240.899 290.775 240.212 290.531ZM240.786 290.395C242.065 290.768 243.835 291.045 244.234 290.641C244.29 290.592 244.35 290.499 244.26 290.273C244.212 290.139 244.106 290.034 243.972 289.988C243.873 289.942 243.769 289.911 243.661 289.895C242.68 289.879 241.704 290.049 240.786 290.395Z" fill="#0A5840"/>
<path d="M240.126 290.509C240.081 290.468 240.062 290.406 240.076 290.347C240.1 290.26 240.594 288.4 241.606 287.811C241.898 287.636 242.248 287.588 242.577 287.677C243.027 287.797 243.132 288.052 243.119 288.245C243.14 289.058 241.208 290.304 240.31 290.54C240.287 290.547 240.262 290.545 240.24 290.535C240.199 290.541 240.159 290.531 240.126 290.509ZM242.414 287.974C242.204 287.938 241.988 287.979 241.806 288.089C241.185 288.608 240.738 289.306 240.526 290.087C241.478 289.714 242.776 288.704 242.811 288.222C242.806 288.177 242.805 288.054 242.511 287.98L242.414 287.974Z" fill="#0A5840"/>
<path d="M239.655 289.435L232.002 288.192C231.714 288.145 231.431 288.304 231.322 288.576L228.927 294.578C228.711 295.109 228.966 295.714 229.496 295.931C229.564 295.959 229.635 295.979 229.707 295.992C232.474 296.392 234.951 296.64 238.386 297.202C242.439 297.861 241.332 298.179 246.086 299.021C248.951 299.525 250.007 296.347 248.816 295.988C243.358 294.382 243.052 292.605 241.227 290.261C240.822 289.803 240.262 289.508 239.655 289.435Z" fill="#263238"/>
<path opacity="0.2" d="M235.806 279.203L234.531 283.386L240.623 285.336L241.828 282.029L235.806 279.203Z" fill="black"/>
<path d="M232.195 274.488L230.99 279.439L243.925 284.238L246.451 279.565L232.195 274.488Z" fill="#0A5840"/>
<path d="M180.507 147.234L181.26 140L187.576 141.317L185.431 148.654C185.431 148.654 187.556 152.053 187.393 155.065C187.23 158.077 185.504 157.665 185.504 157.665C185.504 157.665 185.682 160.854 182.973 159.915C180.263 158.977 176.76 157.587 177.352 154.946C177.944 152.306 179.507 149.327 180.507 147.234Z" fill="#FFC3BD"/>
<path d="M226.541 116.783C224.372 108.611 199.393 116.405 199.393 116.405C199.393 116.405 187.197 120.34 184.002 123.299C180.787 126.277 179 143.656 179 143.656L187.753 145.566L193.177 130.604C217.569 126.402 228.646 124.716 226.541 116.783Z" fill="#0A5840"/>
<path d="M187.959 142.773C187.682 143.087 187.202 143.118 186.887 142.841C186.572 142.564 186.542 142.084 186.819 141.769C187.096 141.454 187.576 141.424 187.891 141.701C188.206 141.979 188.236 142.458 187.959 142.773Z" fill="white"/>
<path opacity="0.1" d="M220.235 121.726L220.291 114.006C220.291 114.006 215.039 113.111 207.054 128.159C210.641 127.482 213.741 126.828 216.349 126.135L220.235 121.726Z" fill="black"/>
<path d="M252.399 101.938L253.421 106.786C253.421 106.786 251.764 107.258 250.191 105.924L252.399 101.938Z" fill="#BA4D3C"/>
<path d="M253.473 100.017C253.431 100.523 253.134 100.913 252.802 100.886C252.47 100.859 252.215 100.404 252.27 99.9126C252.325 99.4216 252.609 99.0167 252.941 99.0487C253.274 99.0807 253.51 99.5106 253.473 100.017Z" fill="#263238"/>
<path d="M230.189 115.455C230.189 115.455 234.529 115.772 235.851 107.916C235.851 107.916 240.107 106.814 242.247 109.584C244.387 112.354 238.576 116.909 241.341 119.748C244.106 122.586 230.189 115.455 230.189 115.455Z" fill="#FFC3BD"/>
<path opacity="0.2" d="M239.333 112.34C239.333 112.34 239.979 114 241.164 115.548C241.568 114.571 242.086 113.576 242.415 112.629L239.333 112.34Z" fill="black"/>
<path d="M234.064 96.3711C233.206 103.071 232.697 105.893 235.392 109.931C239.842 114.368 247.875 115.6 250.717 109.285C253.277 103.605 254.248 93.6271 248.269 89.7151C244.006 86.9281 238.292 88.1251 235.505 92.3871C234.722 93.5851 234.229 94.9491 234.064 96.3711Z" fill="#FFC3BD"/>
<path d="M251.327 97.3157C251.394 97.3747 251.486 97.3977 251.573 97.3767C252.218 97.1887 252.915 97.3217 253.445 97.7357C253.553 97.8337 253.719 97.8267 253.818 97.7207C253.915 97.6107 253.907 97.4437 253.8 97.3437C253.141 96.8047 252.258 96.6237 251.44 96.8587C251.297 96.8947 251.211 97.0397 251.247 97.1827C251.262 97.2337 251.289 97.2807 251.327 97.3157Z" fill="#263238"/>
<path d="M247.258 102.604L249.636 102.468C249.636 102.468 248.47 99.7825 250.769 96.8255C253.068 93.8685 258.733 92.2925 254.141 87.1655C249.549 82.0385 243.805 82.8245 243.805 82.8245L247.618 85.5555C247.618 85.5555 239.755 79.7855 235.12 86.0565C235.12 86.0565 237.064 85.4105 238.627 86.1235C238.627 86.1235 217.751 93.1795 235.391 109.929C235.391 109.929 236.06 108.57 238.877 110.784C238.877 110.784 242.096 108.672 243.781 105.479C245.469 102.286 246.667 99.2925 247.258 102.604Z" fill="#263238"/>
<path d="M247.164 100.35C248.01 101.44 248.386 102.823 248.21 104.191C247.963 106.005 246.157 106.202 244.819 105.105C243.606 104.112 242.291 101.977 243.218 100.438C244.146 98.8976 246.115 99.0276 247.164 100.35Z" fill="#FFC3BD"/>
<path d="M256.377 89.0039C256.377 89.0039 256.986 92.6429 251.267 94.8009C251.267 94.8009 259.227 95.6119 256.377 89.0039Z" fill="#263238"/>
<path d="M229.582 116.47L231.849 113.566C231.849 113.566 242.73 114.559 243.389 120.738L229.582 116.47Z" fill="#0A5840"/>
<path opacity="0.5" d="M229.582 116.47L231.849 113.566C231.849 113.566 242.73 114.559 243.389 120.738L229.582 116.47Z" fill="white"/>
<path d="M205.613 141.541C208.616 134.079 213.444 114.26 221.133 113.357C228.822 112.454 250.928 121.288 253.536 129.146C256.144 137.004 225.869 181.721 225.869 181.721L193.743 164.03C193.743 164.03 203.24 147.438 205.613 141.541Z" fill="#0A5840"/>
<path opacity="0.1" d="M243.368 126.559C243.368 126.559 237.54 137.678 244.568 151.683C247.45 146.567 250.017 141.608 251.69 137.558L249.22 131.716L243.368 126.559Z" fill="black"/>
<path d="M211.189 142.294C215.394 142.918 220.004 141.676 223.743 139.853C228.021 137.768 231.195 134.632 234.335 131.13C237.138 128.004 240.898 124.437 245.272 123.855C255.191 122.534 257.311 138.356 256.273 145.257C255.039 153.461 250.43 160.974 245.379 167.386C242.375 171.2 239.07 174.897 235.413 178.105C234.231 179.142 236.08 180.753 237.251 179.725C246.726 171.413 255.93 159.638 258.442 147.078C259.958 139.498 258.045 128.688 251.294 123.779C245.18 119.334 238.43 123.44 233.963 127.939C228.007 133.939 221.119 141.29 211.66 139.887C210.106 139.657 209.623 142.061 211.189 142.294Z" fill="#0A5840"/>
<g opacity="0.3">
<path d="M211.189 142.294C215.394 142.918 220.004 141.676 223.743 139.853C228.021 137.768 231.195 134.632 234.335 131.13C237.138 128.004 240.898 124.437 245.272 123.855C255.191 122.534 257.311 138.356 256.273 145.257C255.039 153.461 250.43 160.974 245.379 167.386C242.375 171.2 239.07 174.897 235.413 178.105C234.231 179.142 236.08 180.753 237.251 179.725C246.726 171.413 255.93 159.638 258.442 147.078C259.958 139.498 258.045 128.688 251.294 123.779C245.18 119.334 238.43 123.44 233.963 127.939C228.007 133.939 221.119 141.29 211.66 139.887C210.106 139.657 209.623 142.061 211.189 142.294Z" fill="black"/>
</g>
<path d="M282.57 155.629L275.822 157.923L274.901 152.834L281.817 150.664C281.817 150.664 283.189 147.09 285.936 146.001C288.684 144.912 289.808 146.907 289.808 146.907C289.808 146.907 292.573 145.442 292.848 148.238C293.123 151.034 293.031 155.506 290.438 156.061C287.846 156.616 284.844 155.662 282.57 155.629Z" fill="#FFC3BD"/>
<path d="M278.971 150.153L264.733 152.396C255.379 130.486 251.314 120.802 244.207 124.599C236.75 128.583 249.981 149.841 249.981 149.841C249.981 149.841 256.263 161.373 259.593 164.221C259.749 164.354 260.077 164.621 260.274 164.674C264.503 165.821 280.456 158.139 280.456 158.139L278.971 150.153Z" fill="#0A5840"/>
<path d="M278.968 157.937C278.691 158.252 278.211 158.282 277.896 158.005C277.581 157.728 277.551 157.248 277.828 156.933C278.105 156.618 278.585 156.588 278.9 156.865C279.215 157.142 279.245 157.622 278.968 157.937Z" fill="white"/>
<path d="M210.926 191.571L189.501 160.638C187.745 158.102 188.376 154.622 190.912 152.866L208.756 140.507C210.228 139.487 212.248 139.854 213.267 141.326L237.36 176.112C238.38 177.584 238.013 179.604 236.541 180.623L218.697 192.982C216.162 194.739 212.682 194.107 210.926 191.571Z" fill="#0A5840"/>
<path opacity="0.3" d="M210.926 191.571L189.501 160.638C187.745 158.102 188.376 154.622 190.912 152.866L208.756 140.507C210.228 139.487 212.248 139.854 213.267 141.326L237.36 176.112C238.38 177.584 238.013 179.604 236.541 180.623L218.697 192.982C216.162 194.739 212.682 194.107 210.926 191.571Z" fill="white"/>
<path opacity="0.1" d="M235.497 178.298L210.525 142.243C209.748 141.122 208.209 140.842 207.088 141.619L206.343 142.135C203.184 144.323 202.397 148.658 204.585 151.816L224.447 180.492C226.635 183.651 230.969 184.438 234.128 182.25L234.873 181.734C235.995 180.958 236.274 179.419 235.497 178.298Z" fill="black"/>
<path d="M237.8 176.748L212.828 140.693C212.051 139.572 210.512 139.292 209.391 140.069L208.646 140.585C205.487 142.773 204.7 147.108 206.888 150.266L226.75 178.942C228.938 182.101 233.272 182.888 236.431 180.7L237.176 180.184C238.298 179.409 238.577 177.87 237.8 176.748Z" fill="#0A5840"/>
<path d="M237.8 176.748L212.828 140.693C212.051 139.572 210.512 139.292 209.391 140.069L208.646 140.585C205.487 142.773 204.7 147.108 206.888 150.266L226.75 178.942C228.938 182.101 233.272 182.888 236.431 180.7L237.176 180.184C238.298 179.409 238.577 177.87 237.8 176.748Z" fill="#0A5840"/>
<path opacity="0.5" d="M237.8 176.748L212.828 140.693C212.051 139.572 210.512 139.292 209.391 140.069L208.646 140.585C205.487 142.773 204.7 147.108 206.888 150.266L226.75 178.942C228.938 182.101 233.272 182.888 236.431 180.7L237.176 180.184C238.298 179.409 238.577 177.87 237.8 176.748Z" fill="white"/>
<path d="M205.693 158.451L205.255 157.819C204.642 156.934 204.863 155.72 205.748 155.107L210.608 151.741C211.493 151.128 212.707 151.349 213.32 152.234L213.758 152.866C214.371 153.751 214.15 154.965 213.265 155.578L208.405 158.944C207.52 159.556 206.306 159.336 205.693 158.451Z" fill="#0A5840"/>
<path d="M219.142 177.865L218.704 177.233C218.091 176.348 218.312 175.134 219.197 174.521L224.057 171.155C224.942 170.542 226.156 170.763 226.769 171.648L227.207 172.28C227.82 173.165 227.6 174.379 226.714 174.992L221.854 178.358C220.969 178.971 219.755 178.75 219.142 177.865Z" fill="#0A5840"/>
<path opacity="0.3" d="M205.693 158.451L205.255 157.819C204.642 156.934 204.863 155.72 205.748 155.107L210.608 151.741C211.493 151.128 212.707 151.349 213.32 152.234L213.758 152.866C214.371 153.751 214.15 154.965 213.265 155.578L208.405 158.944C207.52 159.556 206.306 159.336 205.693 158.451Z" fill="black"/>
<path opacity="0.3" d="M219.142 177.865L218.704 177.233C218.091 176.348 218.312 175.134 219.197 174.521L224.057 171.155C224.942 170.542 226.156 170.763 226.769 171.648L227.207 172.28C227.82 173.165 227.6 174.379 226.714 174.992L221.854 178.358C220.969 178.971 219.755 178.75 219.142 177.865Z" fill="black"/>
<path opacity="0.2" d="M190.66 162.312C190.66 162.312 198.995 176.045 206.153 171.993L200.215 176.107L190.66 162.312Z" fill="black"/>
<path d="M221.922 154.837C223.867 154.56 224.934 153.465 226.586 152.693C227.713 152.166 226.372 151.697 227.37 152.623C227.727 152.954 227.97 153.488 228.226 153.893C228.897 154.955 229.468 156.081 230.164 157.127C230.761 158.025 232.322 158.982 232.71 159.901C233.343 161.4 230.089 163.502 229.155 164.268C228.025 165.194 229.317 167.082 230.456 166.147C232.083 164.812 235.313 162.671 235.199 160.189C235.128 158.65 233.777 157.939 232.85 156.915C231.101 154.983 230.397 151.542 228.076 150.155C227.287 149.684 226.623 149.69 225.825 150.128C224.919 150.625 224.496 151.613 223.455 152.069C222.919 152.304 222.327 152.475 221.747 152.558C220.294 152.764 220.464 155.045 221.922 154.837Z" fill="#0A5840"/>
<g opacity="0.3">
<path d="M221.922 154.837C223.867 154.56 224.934 153.465 226.586 152.693C227.713 152.166 226.372 151.697 227.37 152.623C227.727 152.954 227.97 153.488 228.226 153.893C228.897 154.955 229.468 156.081 230.164 157.127C230.761 158.025 232.322 158.982 232.71 159.901C233.343 161.4 230.089 163.502 229.155 164.268C228.025 165.194 229.317 167.082 230.456 166.147C232.083 164.812 235.313 162.671 235.199 160.189C235.128 158.65 233.777 157.939 232.85 156.915C231.101 154.983 230.397 151.542 228.076 150.155C227.287 149.684 226.623 149.69 225.825 150.128C224.919 150.625 224.496 151.613 223.455 152.069C222.919 152.304 222.327 152.475 221.747 152.558C220.294 152.764 220.464 155.045 221.922 154.837Z" fill="black"/>
</g>
</svg>
