<svg width="326" height="301" viewBox="0 0 326 301" fill="none" xmlns="http://www.w3.org/2000/svg">
<path d="M150.158 51.1791C150.158 51.1791 106.34 53.0486 83.1278 97.4482C59.9153 141.848 35.9485 127.989 21.7943 168.041C7.64007 208.091 36.1821 253.636 55.3144 258.571C74.4467 263.506 292.982 258.571 292.982 258.571C292.982 258.571 321.856 239.44 324.121 189.75C326.385 140.06 283.358 123.464 265.523 116.4C247.69 109.335 220.207 50.0819 150.158 51.1791Z" fill="#F3F5F4"/>
<path d="M212.942 172.607C263.418 139.696 273.206 122.797 298.119 119.654C358.801 112.001 314.34 264.007 175.383 296.488C109.362 311.921 27.5808 269.829 15.8849 237.125C4.57783 205.506 35.0203 193.646 79.9717 210.604C124.925 227.562 187.225 189.376 212.942 172.607Z" stroke="#BBBFBD" stroke-miterlimit="10"/>
<path d="M272.18 140.095C275.045 137.06 274.829 132.349 271.697 129.572C268.566 126.796 263.704 127.005 260.839 130.04C257.974 133.075 258.19 137.786 261.322 140.562C264.453 143.339 269.315 143.129 272.18 140.095Z" fill="#D9D9D9"/>
<path d="M268.848 286.68C271.85 283.772 271.85 279.056 268.848 276.148C265.847 273.239 260.981 273.239 257.979 276.148C254.978 279.056 254.978 283.772 257.979 286.68C260.981 289.589 265.847 289.589 268.848 286.68Z" stroke="#BBBFBD" stroke-miterlimit="10"/>
<path d="M163.318 119.446C167.563 119.446 171.004 116.112 171.004 111.999C171.004 107.885 167.563 104.551 163.318 104.551C159.074 104.551 155.633 107.885 155.633 111.999C155.633 116.112 159.074 119.446 163.318 119.446Z" stroke="#BBBFBD" stroke-miterlimit="10"/>
<path d="M141.57 141.754L133.774 152.27H148.59L141.57 141.754Z" stroke="#BBBFBD" stroke-miterlimit="10" stroke-linecap="round" stroke-linejoin="round"/>
<path d="M104.935 275.34L100.034 284.483H114.849L104.935 275.34Z" fill="#D9D9D9"/>
<path d="M32.2741 162.91C34.1349 155.273 29.255 147.62 21.3745 145.817C13.4941 144.014 5.59725 148.743 3.73646 156.38C1.87566 164.016 6.75556 171.669 14.636 173.472C22.5165 175.275 30.4133 170.546 32.2741 162.91Z" stroke="#BBBFBD" stroke-miterlimit="10" stroke-linecap="round" stroke-linejoin="round"/>
<path d="M16.7192 170.535C16.553 169.668 16.4699 168.896 16.4699 168.219C16.4699 167.115 16.6242 166.219 16.9329 165.53C17.2417 164.829 17.6335 164.26 18.1084 163.82C18.5834 163.369 19.0702 162.959 19.5689 162.591C20.2338 162.104 20.8215 161.588 21.3321 161.042C21.8427 160.484 22.0979 159.682 22.0979 158.637C22.0979 157.616 21.7952 156.844 21.1896 156.322C20.5841 155.8 19.8063 155.538 18.8565 155.538C17.7403 155.538 16.8142 155.835 16.0781 156.429C15.3419 157.023 14.8195 157.616 14.5107 158.21L11.9817 154.755C12.5872 154.007 13.4896 153.294 14.6889 152.618C15.9 151.929 17.3248 151.585 18.9633 151.585C21.5992 151.585 23.5524 152.16 24.8229 153.312C26.0934 154.464 26.7286 156.085 26.7286 158.174C26.7286 159.089 26.5861 159.854 26.3012 160.472C26.0281 161.077 25.6659 161.606 25.2147 162.057C24.7635 162.496 24.2827 162.924 23.7721 163.339C23.2259 163.779 22.6975 164.254 22.187 164.764C21.6764 165.275 21.2549 165.904 20.9225 166.652C20.59 167.388 20.4238 168.326 20.4238 169.466V170.535H16.7192ZM16.6836 179.262V173.954H20.7087V179.262H16.6836Z" fill="#0A5840" fill-opacity="0.6"/>
<path d="M179.359 65.8162C185.084 60.2676 185.084 51.2715 179.359 45.7229C173.633 40.1742 164.35 40.1742 158.624 45.7229C152.898 51.2715 152.898 60.2676 158.624 65.8162C164.35 71.3648 173.633 71.3648 179.359 65.8162Z" fill="#0A5840" fill-opacity="0.6"/>
<path d="M167.7 66.6675C167.533 65.8007 167.45 65.0289 167.45 64.3521C167.45 63.2479 167.605 62.3515 167.913 61.6628C168.222 60.9623 168.614 60.3923 169.089 59.953C169.564 59.5018 170.051 59.0922 170.549 58.7241C171.214 58.2373 171.802 57.7208 172.313 57.1746C172.823 56.6165 173.078 55.8151 173.078 54.7702C173.078 53.7491 172.776 52.9773 172.17 52.4549C171.565 51.9324 170.787 51.6712 169.837 51.6712C168.721 51.6712 167.795 51.968 167.059 52.5617C166.322 53.1554 165.8 53.7491 165.491 54.3428L162.962 50.8876C163.568 50.1395 164.47 49.4271 165.669 48.7503C166.88 48.0617 168.305 47.7173 169.944 47.7173C172.58 47.7173 174.533 48.2932 175.803 49.4449C177.074 50.5967 177.709 52.2174 177.709 54.3071C177.709 55.2214 177.567 55.9872 177.282 56.6047C177.009 57.2102 176.646 57.7386 176.195 58.1898C175.744 58.6291 175.263 59.0565 174.753 59.4721C174.206 59.9114 173.678 60.3864 173.167 60.8969C172.657 61.4075 172.235 62.0368 171.903 62.7848C171.57 63.521 171.404 64.459 171.404 65.5989V66.6675H167.7ZM167.664 75.3945V70.0871H171.689V75.3945H167.664Z" fill="white"/>
<path d="M63.3277 167.211C64.2609 163.363 61.7988 159.511 57.8286 158.607C53.8583 157.703 49.8834 160.089 48.9503 163.936C48.0172 167.783 50.4792 171.635 54.4495 172.54C58.4197 173.444 62.3946 171.058 63.3277 167.211Z" fill="#D9D9D9"/>
<path d="M317.724 37.6914H251.643C247.871 37.6914 244.814 40.6543 244.814 44.3098V82.8505C244.814 86.506 247.871 89.4689 251.643 89.4689H265.094L262.427 96.1474C261.654 98.0815 263.965 99.7946 265.69 98.5666L278.463 89.4681H317.724C321.496 89.4681 324.554 86.5052 324.554 82.8498V44.309C324.553 40.6543 321.495 37.6914 317.724 37.6914Z" fill="#AED6BE"/>
<path d="M252.609 48.4961H315.818" stroke="white" stroke-miterlimit="10" stroke-linecap="round" stroke-linejoin="round"/>
<path d="M252.609 54.0586H315.818" stroke="white" stroke-miterlimit="10" stroke-linecap="round" stroke-linejoin="round"/>
<path d="M252.609 59.6211H315.818" stroke="white" stroke-miterlimit="10" stroke-linecap="round" stroke-linejoin="round"/>
<path d="M252.609 65.1875H315.818" stroke="white" stroke-miterlimit="10" stroke-linecap="round" stroke-linejoin="round"/>
<path d="M252.609 70.75H315.818" stroke="white" stroke-miterlimit="10" stroke-linecap="round" stroke-linejoin="round"/>
<path d="M252.609 76.3164H315.818" stroke="white" stroke-miterlimit="10" stroke-linecap="round" stroke-linejoin="round"/>
<path d="M111.108 160.208C111.108 160.208 110.435 154.735 109.561 152.127C108.687 149.521 104.988 144.568 104.988 144.568C104.988 144.568 103.509 147.631 105.661 150.172C105.661 150.172 105.527 154.213 105.729 155.646C105.729 155.646 98.7377 149.859 97.3929 149.273C96.5401 148.613 95.4994 147.809 94.2291 146.828C89.5894 143.244 86.4963 144.352 86.899 144.613C87.1768 144.792 92.4831 148.95 95.7679 151.528L95.338 152.124C94.3401 151.353 92.7508 150.123 90.3957 148.304C85.756 144.72 82.6621 145.828 83.0656 146.089C83.4032 146.307 91.1701 152.403 93.703 154.392L92.9557 155.43C91.9733 154.671 90.339 153.407 87.8395 151.476C83.1998 147.892 80.1067 149 80.5095 149.261C80.8548 149.484 88.9927 155.873 91.3199 157.7L90.5276 158.801C89.6639 158.04 87.2645 155.975 84.9482 154.409C82.0568 152.454 79.9717 153.366 79.9717 153.366C79.9717 153.366 79.9717 153.366 81.249 154.474C82.5263 155.581 89.1836 160.665 89.1836 160.665C89.1836 160.665 99.3476 169.463 101.898 170.309L104.385 172.609L113.537 163.01L111.108 160.208Z" fill="#FF996A"/>
<path d="M184.277 220.974C178.82 228.599 171.188 233.309 161.04 231.308C133.865 225.955 101.778 174.837 101.778 174.837L103.393 173.144L115.369 160.587L157.05 197.292L170.066 179.032L182.78 161.202L189.063 152.391C189.063 152.391 192.743 158.029 195.058 175.952C196.504 187.185 193.451 208.181 184.277 220.974Z" fill="#D3AA7D"/>
<path d="M184.277 220.976C178.82 228.601 171.188 233.311 161.04 231.31C133.865 225.957 101.778 174.839 101.778 174.839L103.393 173.146L104.389 172.609C104.389 172.609 142.625 223.585 158.739 216.002C168.702 211.314 170.302 192.626 170.066 179.034L182.78 161.203L184.277 220.976Z" fill="#C1966B"/>
<path d="M286.348 216L283.872 258.253H274.27L278.044 216H286.348Z" fill="#0A5840"/>
<path d="M227.577 216L225.1 258.253H215.499L219.273 216H227.577Z" fill="#0A5840"/>
<path d="M287.329 223.315H211.257C203.696 223.315 197.566 217.375 197.566 210.047V168.81C197.566 161.483 203.696 155.543 211.257 155.543H287.329C294.891 155.543 301.02 161.483 301.02 168.81V210.047C301.02 217.375 294.891 223.315 287.329 223.315Z" fill="#0A5840"/>
<path d="M280.914 223.315H204.842C197.281 223.315 191.151 217.375 191.151 210.047V168.81C191.151 161.483 197.281 155.543 204.842 155.543H280.914C288.476 155.543 294.605 161.483 294.605 168.81V210.047C294.605 217.375 288.475 223.315 280.914 223.315Z" fill="#0A5840" fill-opacity="0.6"/>
<path d="M223.574 136.52C223.574 136.52 238.577 134.185 258.762 154.42L263.418 258.254H179.06C179.06 258.254 169.849 188.204 180.586 163.292C191.324 138.38 210.608 135.406 223.574 136.52Z" fill="#FFD294"/>
<path d="M194.144 80.2034L197.848 75.2891L229.424 85.5343L229.15 97.0279H231.235C235.47 97.0279 238.904 100.355 238.904 104.459C238.904 108.564 235.471 111.89 231.235 111.89H228.796L228.424 127.491V141.2L205.563 144.246L205.003 135.077L204.706 130.26L201.389 128.725C191.894 124.334 185.846 115.045 185.846 104.849C185.846 95.9856 188.753 87.3564 194.144 80.2034Z" fill="#FF996A"/>
<path d="M204.706 130.261L205.002 135.079C205.843 134.982 206.723 134.855 207.636 134.694C221.756 132.2 227.283 119.833 226.71 113.461C226.71 113.461 221.95 128.785 204.706 130.261Z" fill="#D37A57"/>
<path d="M231.471 102.331C230.88 102.765 230.335 103.339 230.141 104.056C230.141 104.056 231.319 104.437 231.426 105.718C231.534 106.999 230.141 107.553 230.141 107.553C230.141 107.553 231.212 109.284 232.999 108.35C234.785 107.415 234.489 104.152 232.713 103.468C232.713 103.468 235.535 103.157 236.571 104.161C236.571 104.161 236.807 103.154 235.628 102.264C234.412 101.344 232.7 101.43 231.471 102.331Z" fill="#D37A57"/>
<path d="M194.144 80.2053C194.144 80.2053 198.42 87.3373 203.945 89.6452C209.47 91.9531 215.375 88.5939 220.9 91.6583C226.426 94.7227 222.901 100.466 224.139 103.226C225.378 105.985 226.751 106.354 226.751 106.354C226.751 106.354 227.494 98.5075 229.151 97.0306C229.151 97.0306 234.112 96.9899 235.656 98.3909C235.656 98.3909 238.428 92.969 238.904 88.7225C239.381 84.4759 234.522 83.0915 234.522 83.0915C234.522 83.0915 233.379 72.9372 220.519 69.1524C207.66 65.3676 197.849 71.3678 192.704 69.1524C187.56 66.937 182.893 70.2609 182.607 75.2917C182.322 80.3219 185.846 82.1688 185.846 82.1688C185.846 82.1688 183.465 84.1142 184.418 87.1109C185.371 90.1076 188.36 90.7995 188.36 90.7995C188.36 90.7995 191.878 83.2005 194.144 80.2053Z" fill="#3F2D1F"/>
<path d="M196.705 116.702L209.799 116.078C209.799 116.078 206.767 120.648 202.453 120.604C198.48 120.564 196.705 116.702 196.705 116.702Z" fill="white"/>
<path d="M211.755 96.0381C211.59 96.0381 211.424 95.9847 211.287 95.8749C208.523 93.6686 205.806 95.5425 205.778 95.5629C205.449 95.7967 204.987 95.726 204.747 95.4072C204.507 95.0883 204.579 94.6417 204.908 94.4085C206.165 93.5189 209.313 92.4481 212.224 94.7717C212.538 95.0229 212.583 95.4734 212.324 95.7779C212.179 95.9494 211.968 96.0381 211.755 96.0381Z" fill="#3F2D1F"/>
<path d="M195.471 96.0381C195.306 96.0381 195.141 95.9847 195.003 95.8749C192.24 93.6686 189.522 95.5425 189.495 95.5629C189.166 95.7967 188.704 95.726 188.464 95.4072C188.224 95.0883 188.296 94.6417 188.625 94.4085C189.883 93.5189 193.03 92.4481 195.941 94.7717C196.256 95.0229 196.3 95.4734 196.041 95.7779C195.896 95.9494 195.685 96.0381 195.471 96.0381Z" fill="#3F2D1F"/>
<path d="M232.617 137.603L228.473 132.379L212.014 138L209.35 142.481L207.547 138.455L205.048 135.811L202.453 140.658C202.453 140.658 202.532 145.519 208.88 146.81C215.228 148.101 229.1 143.088 232.617 137.603Z" fill="#9C897A"/>
<path d="M235.655 98.3916C235.655 98.3916 233.097 97.4448 230.668 99.609C228.239 101.773 229.062 103.9 229.062 103.9C229.062 103.9 230.184 101.336 232.589 101.615C234.993 101.895 236.743 108.191 233.529 109.368C230.316 110.545 226.215 108.752 226.358 103.9C226.502 99.0488 228.338 96.3048 231.364 95.8874C234.391 95.4693 235.588 97.9336 235.655 98.3916Z" fill="#77A58A"/>
<path d="M212.934 122.777C212.624 122.777 212.348 122.564 212.286 122.258C212.218 121.911 212.452 121.576 212.811 121.509C225.259 119.189 229.475 107.829 229.517 107.715C229.636 107.382 230.011 107.205 230.357 107.321C230.701 107.436 230.884 107.8 230.764 108.134C230.72 108.256 226.272 120.303 213.059 122.765C213.018 122.774 212.976 122.777 212.934 122.777Z" fill="#77A58A"/>
<path d="M210.157 122.356C210.157 123.846 211.404 125.055 212.943 125.055C214.482 125.055 215.728 123.846 215.728 122.356C215.728 120.865 214.481 119.656 212.943 119.656C211.405 119.656 210.157 120.865 210.157 122.356Z" fill="#0A5840"/>
<path d="M232.274 102.776C232.274 102.776 231.922 105.757 232.598 107.353C233.274 108.948 234.332 108.122 234.538 106.185C234.743 104.248 232.745 101.531 232.274 102.776Z" fill="#0A5840"/>
<path d="M205.789 101.775C205.789 101.775 205.795 104.558 209.553 105.02C213.313 105.482 213.998 101.775 213.998 101.775C213.998 101.775 211.863 99.8357 209.103 99.7785C206.343 99.7206 205.789 101.775 205.789 101.775Z" fill="white"/>
<path d="M188.613 101.775C188.613 101.775 188.618 104.558 192.297 105.02C195.975 105.482 196.468 101.778 196.468 101.778C196.468 101.778 194.556 99.8357 191.855 99.7785C189.155 99.7206 188.613 101.775 188.613 101.775Z" fill="white"/>
<path d="M196.467 101.779C196.467 101.779 194.497 99.6821 192.389 99.3053C190.28 98.9286 188.833 99.9234 188.613 101.779C188.613 101.779 189.032 100.247 191.14 100.059C193.249 99.8701 196.467 101.779 196.467 101.779Z" fill="#3F2D1F"/>
<path d="M213.998 101.777C213.998 101.777 211.939 99.5851 209.735 99.1918C207.531 98.7985 206.019 99.8377 205.789 101.777C205.789 101.777 206.226 100.175 208.43 99.9784C210.634 99.7821 213.998 101.777 213.998 101.777Z" fill="#3F2D1F"/>
<path d="M200.079 101.855L198.346 111.998C198.346 111.998 196.966 112.101 195.055 111.346C195.055 111.346 199.584 102.995 200.079 101.855Z" fill="#D37A57"/>
<path d="M148.489 258.254C148.489 258.254 148.207 250.155 157.619 247.618C167.031 245.08 178.496 252.5 180.335 258.254H148.489Z" fill="#0A5840"/>
<path d="M209.397 105.381C210.7 105.381 211.756 104.086 211.756 102.489C211.756 100.892 210.7 99.5977 209.397 99.5977C208.095 99.5977 207.039 100.892 207.039 102.489C207.039 104.086 208.095 105.381 209.397 105.381Z" fill="#3F2D1F"/>
<path d="M195.22 102.579C195.22 104.125 194.191 105.38 192.92 105.38C191.65 105.38 190.62 104.125 190.62 102.579C190.62 101.032 191.65 99.7773 192.92 99.7773C194.191 99.7773 195.22 101.031 195.22 102.579Z" fill="#3F2D1F"/>
<path d="M219.824 109.72C219.824 110.981 218.284 112.003 216.383 112.003C214.483 112.003 212.942 110.981 212.942 109.72C212.942 108.459 214.483 107.438 216.383 107.438C218.284 107.437 219.824 108.459 219.824 109.72Z" fill="#D37A57"/>
<path d="M191.728 108.627C191.728 109.887 190.188 110.909 188.287 110.909C186.387 110.909 184.847 109.887 184.847 108.627C184.847 107.366 186.387 106.344 188.287 106.344C190.188 106.344 191.728 107.366 191.728 108.627Z" fill="#D37A57"/>
<path d="M281.945 232.472C279.562 239.418 275.204 244.671 270.042 248.387C266.525 250.91 262.638 252.718 258.759 253.854C242.565 258.614 182.588 258.249 182.588 258.249L184.844 240.691L252.004 226.062C252.004 226.062 243.317 199.356 243.7 177.781C244.047 157.699 250.226 149.423 257.188 153.333C257.712 153.633 258.235 153.99 258.758 154.419C258.758 154.419 269.363 169.733 280.306 201.185C284.784 214.049 284.702 224.397 281.945 232.472Z" fill="#E5BC89"/>
<path d="M178.023 243.023L163.775 240.507C163.775 240.507 161.157 240.072 158.538 241.17C155.92 242.267 152.947 247.617 152.947 247.617C152.947 247.617 155.353 247.652 156.981 246.229C158.609 244.805 158.82 243.571 158.82 243.571L164.049 243.966L164.142 245.142C162.396 245.512 157.425 246.61 154.999 247.618C152.027 248.853 150.47 252.624 150.47 252.624C150.47 252.624 154.362 252.076 156.343 249.744L164.437 248.854L164.495 249.587C162.827 249.696 159.848 250.059 157.052 251.253C152.876 253.036 151.603 255.436 151.603 255.436C151.603 255.436 155.779 255.436 158.715 253.242L160.692 253.083C158.738 254.297 157.052 257.22 157.052 257.22C157.052 257.22 157.901 257.426 159.812 256.603C161.723 255.78 162.219 254.842 162.219 254.842L167.787 255.245C170.678 255.646 175.053 256.039 177.552 255.231L182.877 256.025L184.549 243.026H178.023V243.023Z" fill="#FF996A"/>
<path d="M296.637 266.751H28.7194C26.2982 266.751 24.335 264.849 24.335 262.503C24.335 260.156 26.2982 258.254 28.7194 258.254H296.637C299.058 258.254 301.022 260.156 301.022 262.503C301.021 264.85 299.058 266.751 296.637 266.751Z" fill="#0A5840"/>
<path d="M193.934 266.751H26.9656C25.5129 266.751 24.335 264.849 24.335 262.503C24.335 260.156 25.5129 258.254 26.9656 258.254H110.45H193.934C195.387 258.254 196.565 260.156 196.565 262.503C196.565 264.85 195.387 266.751 193.934 266.751Z" fill="#0A5840" fill-opacity="0.6"/>
<path d="M143.444 241.877H51.1774C48.0657 241.877 45.3722 239.779 44.7025 236.834L32.7761 184.345C32.191 181.771 34.2141 179.332 36.9339 179.332H130.241C132.999 179.332 135.386 181.191 135.979 183.801L147.942 236.454C148.575 239.239 146.386 241.877 143.444 241.877Z" fill="#0A5840" fill-opacity="0.6"/>
<path d="M66.3077 232.987C65.5371 236.748 61.0076 239.046 56.1902 238.119C51.3728 237.193 48.0926 233.392 48.8632 229.631C49.6337 225.869 54.1633 223.572 58.9807 224.498C63.7981 225.425 67.0782 229.225 66.3077 232.987Z" fill="#0A5840" fill-opacity="0.6"/>
<path d="M147.942 236.455L135.979 183.801C135.386 181.191 132.999 179.332 130.241 179.332H124.862C127.62 179.332 130.007 181.191 130.6 183.801L142.564 236.455C143.197 239.24 141.009 241.878 138.065 241.878H143.444C146.387 241.878 148.575 239.24 147.942 236.455Z" fill="#0A5840"/>
<path d="M131.974 256.143C131.974 257.308 131.004 258.249 129.802 258.249H53.2081C51.9797 258.249 50.863 257.762 50.0576 256.982C49.2451 256.201 48.75 255.126 48.75 253.929C48.75 253.077 49.0138 252.245 49.5027 251.535L68.4596 224.011C69.0013 223.237 69.8999 222.77 70.8637 222.77H104.008C105.197 222.77 105.944 224.018 105.342 225.017L89.3379 251.81C88.7435 252.802 89.483 254.038 90.6587 254.038H129.801C130.402 254.038 130.944 254.275 131.34 254.659C131.73 255.036 131.974 255.561 131.974 256.143Z" fill="#0A5840"/>
<path d="M109.235 210.241H62.2439C61.6968 210.241 61.2529 209.811 61.2529 209.281C61.2529 208.75 61.6968 208.32 62.2439 208.32H109.235C109.782 208.32 110.226 208.75 110.226 209.281C110.226 209.812 109.782 210.241 109.235 210.241Z" fill="#0A5840"/>
<path d="M111.5 216.003H64.5085C63.9615 216.003 63.5176 215.573 63.5176 215.042C63.5176 214.512 63.9615 214.082 64.5085 214.082H111.499C112.046 214.082 112.49 214.512 112.49 215.042C112.49 215.573 112.047 216.003 111.5 216.003Z" fill="#0A5840"/>
<path d="M33.7498 182.441H133.258C134.067 182.441 134.845 182.586 135.563 182.845C134.667 180.749 132.543 179.332 130.136 179.332H36.8289C34.7578 179.332 33.0948 180.747 32.6758 182.557C33.0188 182.482 33.3781 182.441 33.7498 182.441Z" fill="#0A5840" fill-opacity="0.6"/>
<path d="M135.977 232.987C135.206 236.748 130.677 239.046 125.859 238.119C121.042 237.193 117.762 233.392 118.532 229.631C119.303 225.869 123.832 223.572 128.65 224.498C133.466 225.425 136.746 229.225 135.977 232.987Z" fill="#0A5840" fill-opacity="0.6"/>
<path d="M131.969 256.296C131.887 257.417 130.846 258.249 129.686 258.249H86.0962C84.3362 258.249 82.9092 256.866 82.9092 255.161C82.9092 254.578 83.0799 254.006 83.4012 253.513L103.427 222.77H104.009C105.197 222.77 105.944 224.018 105.343 225.017L89.3383 251.81C88.7439 252.802 89.4835 254.038 90.6591 254.038H129.801C130.403 254.038 130.944 254.275 131.34 254.659C131.765 255.068 132.016 255.653 131.969 256.296Z" fill="#527A62"/>
<path d="M258.759 253.854C242.565 258.614 182.588 258.249 182.588 258.249L260.08 238.267C268.183 236.177 273.343 228.493 272.026 220.468C268.62 199.723 262.028 162.499 257.188 153.332C257.712 153.632 258.235 153.989 258.758 154.418C258.758 154.418 269.363 169.732 280.306 201.184C291.251 232.643 274.961 249.101 258.759 253.854Z" fill="#D3AA7D"/>
<path d="M254.189 226.797C254.189 226.797 265.27 226.646 274.268 234.608" stroke="#9C897A" stroke-miterlimit="10" stroke-linecap="round" stroke-linejoin="round"/>
<path d="M231.004 139.477C231.004 139.477 245.584 144.281 252.765 152.518" stroke="#E5BC89" stroke-miterlimit="10" stroke-linecap="round" stroke-linejoin="round"/>
<path d="M158.426 199.691C158.426 199.691 166.478 209.798 167.508 221.437" stroke="#9C897A" stroke-miterlimit="10" stroke-linecap="round" stroke-linejoin="round"/>
<path d="M200.074 140.731C200.074 140.731 197.013 149.054 209.798 150.076C222.584 151.097 236.598 138.941 236.598 138.941" stroke="#E5BC89" stroke-miterlimit="10" stroke-linecap="round" stroke-linejoin="round"/>
<path d="M182.588 243.023L179.594 255.534L182.876 256.023L184.547 243.023H182.588Z" fill="#D37A57"/>
<path d="M208.879 146.809C208.879 146.809 205.088 157.276 202.452 184.348" stroke="#E5BC89" stroke-miterlimit="10" stroke-linecap="round" stroke-linejoin="round"/>
<path d="M233.364 83.2047C233.364 83.2047 227.392 81.8354 221.988 83.8492" stroke="#543E2F" stroke-miterlimit="10" stroke-linecap="round" stroke-linejoin="round"/>
<path d="M194.143 80.207C194.143 80.207 193.541 88.6821 204.606 89.8928" stroke="#543E2F" stroke-miterlimit="10" stroke-linecap="round" stroke-linejoin="round"/>
<path d="M234.35 77.6211C234.35 77.6211 235.637 80.9893 234.523 83.0919" stroke="#543E2F" stroke-miterlimit="10" stroke-linecap="round" stroke-linejoin="round"/>
<path d="M184.241 74.1836C184.241 74.1836 183.742 79.3882 189.229 81.4351" stroke="#543E2F" stroke-miterlimit="10" stroke-linecap="round" stroke-linejoin="round"/>
<path d="M186.238 83.8516C186.238 83.8516 185.219 87.7469 189.012 89.4246" stroke="#543E2F" stroke-miterlimit="10" stroke-linecap="round" stroke-linejoin="round"/>
<path d="M203.946 70.5583C203.946 70.5583 211.023 67.551 221.073 71.9277C230.139 75.8757 231.004 80.7907 231.004 80.7907" stroke="#543E2F" stroke-miterlimit="10" stroke-linecap="round" stroke-linejoin="round"/>
<path d="M234.35 85.3008C234.35 85.3008 236.345 86.2137 236.345 88.9532C236.345 91.6928 234.977 94.4857 234.977 94.4857" stroke="#543E2F" stroke-miterlimit="10" stroke-linecap="round" stroke-linejoin="round"/>
<path d="M201.119 84.3359C201.119 84.3359 202.531 87.9613 210.762 88.3644C218.994 88.7675 221.655 88.7675 223.9 91.3453C226.145 93.9239 225.397 96.7439 225.397 96.7439" stroke="#543E2F" stroke-miterlimit="10" stroke-linecap="round" stroke-linejoin="round"/>
<path d="M198.036 0.222656H123.118C118.779 0.222656 115.263 3.63147 115.263 7.8359V20.2665C115.263 24.4709 118.779 27.879 123.118 27.879H133.041L130.732 35.605C130.302 37.0436 131.938 38.2325 133.242 37.4301L148.778 27.879H198.036C202.375 27.879 205.892 24.4709 205.892 20.2665V7.8359C205.892 3.63147 202.375 0.222656 198.036 0.222656Z" fill="#D9D9D9"/>
<path d="M125.451 7.66406H196.141" stroke="white" stroke-miterlimit="10" stroke-linecap="round" stroke-linejoin="round"/>
<path d="M125.451 13.4766H196.141" stroke="white" stroke-miterlimit="10" stroke-linecap="round" stroke-linejoin="round"/>
<path d="M125.451 19.2891H196.141" stroke="white" stroke-miterlimit="10" stroke-linecap="round" stroke-linejoin="round"/>
<path d="M75.9818 137.411C111.21 137.411 139.767 109.736 139.767 75.5981C139.767 41.4597 111.21 13.7852 75.9818 13.7852C40.7539 13.7852 12.1961 41.4597 12.1961 75.5981C12.1961 109.736 40.7539 137.411 75.9818 137.411Z" stroke="#BBBFBD" stroke-miterlimit="10"/>
<path d="M135.719 75.593C135.719 97.1964 123.508 116.035 105.41 125.982C103.383 127.097 101.281 128.105 99.1202 128.983C92.0035 131.885 84.1868 133.486 75.9868 133.486C75.4413 133.486 74.9028 133.478 74.3642 133.464C74.0321 133.456 73.7008 133.442 73.3686 133.421C73.1327 133.421 72.9038 133.414 72.6679 133.392C72.314 133.378 71.9602 133.356 71.6133 133.329C71.4659 133.321 71.3184 133.314 71.171 133.292C70.7504 133.271 70.3376 133.229 69.9247 133.192C69.4452 133.143 68.9734 133.092 68.5015 133.035L83.2727 112.332L44.0327 71.1043L18.4286 91.1504C18.1632 90.2216 17.9195 89.2922 17.6984 88.3416C17.6177 87.9844 17.5362 87.6197 17.4625 87.2625C17.3593 86.791 17.263 86.312 17.1823 85.8405C17.1234 85.5262 17.0644 85.2118 17.0202 84.8975C16.9387 84.447 16.8727 83.9898 16.806 83.5326C16.7687 83.2754 16.7323 83.025 16.7028 82.7678C16.6508 82.3745 16.5996 81.9745 16.5623 81.5744L16.5398 81.3383C16.4956 80.9096 16.4513 80.481 16.4219 80.0448C16.3846 79.5658 16.3481 79.0875 16.3256 78.601V78.5724C16.2962 78.0791 16.2736 77.5865 16.2667 77.0857C16.2519 76.5924 16.2449 76.0923 16.2449 75.5922C16.2449 65.9802 18.6637 56.9186 22.941 48.9429C31.8278 32.3643 48.7523 20.4797 68.715 18.1289C71.0973 17.8499 73.523 17.707 75.9861 17.707C86.0151 17.707 95.4769 20.1082 103.773 24.3457L77.7561 44.7061L95.123 95.7383L128.802 48.5435C133.219 56.6125 135.719 65.8237 135.719 75.593Z" fill="#0A5840" fill-opacity="0.6"/>
<path d="M22.7828 48.8945L43.8737 71.0552L18.2696 91.1013C18.0042 90.1726 17.7606 89.2431 17.5394 88.2926C17.4587 87.9354 17.3772 87.5706 17.3035 87.2134C17.2003 86.7419 17.1041 86.2629 17.0234 85.7914C16.9644 85.4771 16.9054 85.1627 16.8612 84.8484C16.7805 84.3979 16.7137 83.9407 16.647 83.4835C16.6098 83.2263 16.5733 82.9759 16.5438 82.7187C16.4918 82.3254 16.4406 81.9254 16.4033 81.5253L16.3816 81.2892C16.3374 80.8605 16.2931 80.4319 16.2637 79.9957C16.2272 79.5167 16.1899 79.0385 16.1674 78.5519V78.5233C16.1379 78.03 16.1162 77.5375 16.1085 77.0366C16.0937 76.5433 16.0867 76.0432 16.0867 75.5432C16.0867 65.9311 18.5055 56.8695 22.7828 48.8945Z" fill="#0A5840" fill-opacity="0.6"/>
<path d="M98.961 128.933C91.8443 131.834 84.0277 133.435 75.8269 133.435C75.2814 133.435 74.7428 133.427 74.2043 133.413C73.8722 133.406 73.5408 133.391 73.2087 133.37C72.9728 133.37 72.7439 133.363 72.508 133.342C72.1541 133.327 71.8002 133.306 71.4534 133.278C71.3059 133.27 71.1585 133.264 71.011 133.242C70.5905 133.221 70.1776 133.178 69.7648 133.142C69.2852 133.092 68.8134 133.042 68.3416 132.985L83.1128 112.281L98.961 128.933Z" fill="#0A5840" fill-opacity="0.6"/>
<path d="M103.616 24.2949L77.5986 44.6553L68.5574 18.0781C70.9398 17.7991 73.3655 17.6563 75.8286 17.6563C85.8576 17.6555 95.3186 20.0566 103.616 24.2949Z" fill="#0A5840" fill-opacity="0.6"/>
<path d="M135.561 75.5409C135.561 97.1443 123.349 115.983 105.252 125.93L94.9647 95.687L128.644 48.4922C133.062 56.5604 135.561 65.7716 135.561 75.5409Z" fill="#0A5840" fill-opacity="0.6"/>
<path d="M83.1137 112.281L68.3425 132.984C67.9661 132.941 67.5906 132.891 67.2142 132.834C66.9046 132.791 66.5949 132.748 66.2853 132.698C65.9384 132.649 65.5993 132.591 65.2525 132.527C64.7954 132.449 64.3383 132.37 63.8805 132.276C63.4894 132.198 63.0991 132.119 62.7149 132.033C62.4713 131.983 62.2284 131.926 61.9847 131.869C61.6604 131.797 61.343 131.718 61.0186 131.64C59.964 131.383 58.9242 131.09 57.8921 130.775C57.5157 130.661 57.1402 130.547 56.7716 130.425C56.2703 130.26 55.776 130.096 55.2894 129.917C54.8323 129.76 54.3753 129.589 53.9252 129.417C53.4681 129.246 53.0181 129.067 52.5757 128.881C52.1334 128.702 51.6911 128.516 51.2558 128.324C51.2558 128.324 51.2488 128.324 51.241 128.316C50.7987 128.123 50.3634 127.923 49.928 127.723C48.6003 127.109 47.3098 126.444 46.0418 125.736C45.6437 125.508 45.2456 125.279 44.8545 125.05C44.0289 124.571 43.2172 124.065 42.428 123.543C42.0299 123.285 41.6388 123.021 41.2485 122.749C40.8574 122.485 40.467 122.206 40.0829 121.927C40.0682 121.92 40.0534 121.906 40.0317 121.891C39.6701 121.627 39.3015 121.355 38.9476 121.084C38.6302 120.841 38.3206 120.605 38.011 120.355C37.5539 119.998 37.1038 119.626 36.6615 119.254C36.3224 118.968 35.9903 118.682 35.6589 118.389C35.3268 118.096 34.9955 117.796 34.6633 117.496C34.6261 117.46 34.5896 117.431 34.5601 117.403C34.2357 117.095 33.9114 116.788 33.587 116.474C33.3069 116.202 33.0267 115.923 32.7466 115.645C32.3633 115.259 31.9799 114.866 31.6105 114.466C31.2862 114.123 30.9688 113.773 30.6592 113.422C30.4085 113.151 30.1726 112.872 29.9367 112.594C29.7893 112.436 29.6566 112.279 29.5239 112.114C29.288 111.835 29.0591 111.557 28.8309 111.278C28.5725 110.964 28.3219 110.65 28.079 110.328C27.7468 109.906 27.4225 109.485 27.1128 109.049C26.8327 108.67 26.5596 108.291 26.2942 107.905C26.1025 107.633 25.9178 107.362 25.7339 107.083C25.6159 106.918 25.505 106.747 25.3948 106.575C24.8935 105.818 24.4069 105.039 23.9421 104.252C23.7279 103.881 23.5145 103.509 23.3004 103.13C22.8138 102.266 22.349 101.386 21.9136 100.493C21.722 100.122 21.545 99.7426 21.3681 99.3643C21.1834 98.9643 20.9995 98.5642 20.8226 98.1641C20.8078 98.1356 20.8009 98.0995 20.7861 98.0709C20.6014 97.649 20.4175 97.2204 20.2406 96.7917C20.2406 96.7775 20.2328 96.7632 20.2258 96.7421C20.0489 96.3135 19.879 95.8773 19.7168 95.4419C19.5546 95.0275 19.3994 94.6057 19.252 94.177C19.1193 93.798 18.9866 93.4122 18.8609 93.0265C18.7724 92.7407 18.6762 92.4474 18.5877 92.1617C18.5807 92.1399 18.573 92.1256 18.573 92.1045C18.4698 91.7684 18.3665 91.433 18.2703 91.0968L43.8744 71.0508L83.1137 112.281Z" fill="#0A5840"/>
<path d="M128.644 48.4947L94.9644 95.6895L77.5975 44.6573L103.614 24.2969C114.271 29.7278 123.018 38.1818 128.644 48.4947Z" fill="#0A5840"/>
<path d="M94.9641 95.6892L83.1138 112.283L43.8738 71.0552L77.5972 44.6562L94.9641 95.6892Z" fill="#0A5840" fill-opacity="0.6"/>
<path d="M86.8862 67.4903L87.074 64.4424L89.1731 63.4716C95.1809 60.6929 99.0081 54.8161 99.0081 48.3639C99.0081 42.7562 97.169 37.296 93.7577 32.7697L91.4142 29.6602L71.4345 36.1424L71.6083 43.415H70.2892C67.6096 43.415 65.4368 45.5198 65.4368 48.1172C65.4368 50.7139 67.6088 52.8195 70.2892 52.8195H71.8326L72.0677 62.691V66.1562C72.0677 66.1562 68.4593 69.5252 61.6111 72.3835C61.6111 72.3835 69.2462 81.6737 81.8632 82.2866C94.4802 82.8995 94.966 75.5472 94.966 75.5472C94.966 75.5472 89.7342 72.5121 86.7341 69.9982L86.8862 67.4903Z" fill="#FF996A"/>
<path d="M87.0739 64.4396L86.8862 67.4875C86.3546 67.4266 85.7974 67.3461 85.2193 67.2438C76.2852 65.6654 72.7878 57.8401 73.1502 53.8086C73.1502 53.8086 76.1634 63.5056 87.0739 64.4396Z" fill="#D37A57"/>
<path d="M70.1381 46.7707C70.5122 47.0452 70.8567 47.4084 70.9801 47.8619C70.9801 47.8619 70.2343 48.1025 70.1661 48.9132C70.0985 49.7238 70.9801 50.0743 70.9801 50.0743C70.9801 50.0743 70.3019 51.1692 69.172 50.5781C68.0421 49.987 68.2292 47.922 69.3528 47.4896C69.3528 47.4896 67.5672 47.2926 66.9115 47.9281C66.9115 47.9281 66.7617 47.2911 67.5083 46.7271C68.278 46.1466 69.3606 46.2 70.1381 46.7707Z" fill="#D37A57"/>
<path d="M86.6444 41.0432C86.5404 41.0462 86.4364 41.083 86.3511 41.1545C84.6454 42.5998 82.8909 41.4628 82.8731 41.4507C82.6604 41.3094 82.3702 41.362 82.2243 41.5681C82.0784 41.7741 82.1328 42.0553 82.3446 42.1967C83.1571 42.7367 85.1685 43.3578 86.9649 41.8358C87.1589 41.6718 87.1791 41.3861 87.0091 41.1981C86.9145 41.0913 86.7787 41.0394 86.6444 41.0432Z" fill="#3F2D1F"/>
<path d="M97.1413 42.1543C97.0498 42.1054 96.9411 42.0858 96.8309 42.1061C94.6038 42.51 93.6889 40.6668 93.6804 40.648C93.5717 40.4209 93.2939 40.3239 93.0603 40.4292C92.8268 40.5345 92.7259 40.8037 92.8345 41.03C93.2512 41.8956 94.6574 43.4206 97.0024 42.9958C97.2562 42.9499 97.423 42.7138 97.3749 42.4679C97.3477 42.3287 97.2593 42.2174 97.1413 42.1543Z" fill="#3F2D1F"/>
<path d="M86.3887 46.4164C86.3887 46.4164 86.3856 48.1776 84.0064 48.4694C81.6272 48.7612 81.1942 46.4164 81.1942 46.4164C81.1942 46.4164 82.5452 45.1892 84.2919 45.1531C86.0379 45.117 86.3887 46.4164 86.3887 46.4164Z" fill="white"/>
<path d="M97.2564 46.4172C97.2564 46.4172 97.2533 48.1783 94.9261 48.4701C92.5989 48.7626 92.2869 46.4187 92.2869 46.4187C92.2869 46.4187 93.4967 45.1891 95.2055 45.1531C96.9134 45.1177 97.2564 46.4172 97.2564 46.4172Z" fill="white"/>
<path d="M92.2859 46.4203C92.2859 46.4203 93.5322 45.0931 94.8669 44.8547C96.2009 44.6163 97.1165 45.2457 97.2562 46.4203C97.2562 46.4203 96.9916 45.4503 95.6569 45.3314C94.3229 45.2126 92.2859 46.4203 92.2859 46.4203Z" fill="#3F2D1F"/>
<path d="M81.1942 46.4182C81.1942 46.4182 82.4971 45.0315 83.8915 44.7826C85.286 44.5337 86.2428 45.1917 86.3879 46.4182C86.3879 46.4182 86.1117 45.4045 84.7172 45.2804C83.3227 45.1564 81.1942 46.4182 81.1942 46.4182Z" fill="#3F2D1F"/>
<path d="M90.0008 46.4688L91.098 52.8863C91.098 52.8863 91.9711 52.9517 93.1801 52.4742C93.1801 52.4742 90.3143 47.1899 90.0008 46.4688Z" fill="#D37A57"/>
<path d="M82.6131 46.8687C82.6131 47.8794 83.2812 48.6983 84.1053 48.6983C84.9295 48.6983 85.5976 47.8794 85.5976 46.8687C85.5976 45.8587 84.9295 45.0391 84.1053 45.0391C83.2812 45.0391 82.6131 45.8587 82.6131 46.8687Z" fill="#3F2D1F"/>
<path d="M93.076 46.9248C93.076 47.9039 93.7278 48.6973 94.5318 48.6973C95.3357 48.6973 95.9868 47.9039 95.9868 46.9248C95.9868 45.9457 95.3349 45.1523 94.5318 45.1523C93.727 45.1523 93.076 45.9457 93.076 46.9248Z" fill="#3F2D1F"/>
<path d="M79.6853 52.8892C80.8874 52.8892 81.862 52.2424 81.862 51.4446C81.862 50.6468 80.8874 50 79.6853 50C78.4831 50 77.5086 50.6468 77.5086 51.4446C77.5086 52.2424 78.4831 52.8892 79.6853 52.8892Z" fill="#D37A57"/>
<path d="M97.4624 52.1978C98.665 52.1978 99.6399 51.551 99.6399 50.7532C99.6399 49.9554 98.665 49.3086 97.4624 49.3086C96.2599 49.3086 95.285 49.9554 95.285 50.7532C95.285 51.551 96.2599 52.1978 97.4624 52.1978Z" fill="#D37A57"/>
<path d="M90.792 55.3598C90.792 55.3598 87.276 55.4749 85.8536 56.7383C84.4312 58.0016 89.6855 58.3844 90.792 57.8866C91.8978 57.3895 92.3898 55.2004 90.792 55.3598Z" fill="white"/>
<path d="M82.2219 45.7276C82.2219 45.7276 81.5212 46.0495 80.7576 45.5742C80.7576 45.5742 80.829 46.2706 81.1953 46.418L82.2219 45.7276Z" fill="#3F2D1F"/>
<path d="M96.451 45.2539C96.451 45.2539 97.2782 45.9172 97.9068 45.7134C98.138 45.6382 97.2588 46.4188 97.2588 46.4188C97.0493 45.6788 96.451 45.2539 96.451 45.2539Z" fill="#3F2D1F"/>
<path d="M101.252 79.2578C101.252 79.2578 112.441 99.0745 116.707 115.692L105.171 122.202C105.171 122.202 100.586 113.32 99.0067 99.6912C97.4284 86.0612 101.252 79.2578 101.252 79.2578Z" fill="#847062"/>
<path d="M94.9643 34.5133C94.9643 34.5133 83.7852 44.7661 73.5669 43.6434C73.5669 43.6434 72.4603 50.8408 74.3041 53.5976C74.3041 53.5976 73.5141 54.3564 72.4075 51.4754C71.3009 48.5945 72.1747 44.6149 71.6059 43.4148C71.6059 43.4148 68.1962 42.6319 65.9559 45.9964C63.7155 49.3608 68.6191 53.469 71.8302 52.8185L71.9776 59.0052C71.9776 59.0052 68.2986 60.3355 65.1907 57.7832C62.0828 55.2309 63.6108 52.6275 63.6108 52.6275C63.6108 52.6275 58.923 48.1433 58.7119 41.916C58.5008 35.6887 63.8475 31.7753 63.8475 31.7753C63.8475 31.7753 65.6121 22.5618 77.3584 22.4595C89.1047 22.3573 92.5284 25.7773 92.5284 25.7773C92.5284 25.7773 100.111 27.0279 102.247 34.8382C104.383 42.6485 99.0065 46.8251 99.0065 46.8251C99.0065 46.8251 97.4521 36.8182 94.9643 34.5133Z" fill="#3F2D1F"/>
<path d="M65.8239 30.7024C65.8239 30.7024 65.259 24.0111 58.7064 24.2939C52.1547 24.5766 50.8906 31.8507 53.7346 35.2197C56.5794 38.5886 60.2926 37.8231 63.0582 35.2197C65.8239 32.617 65.8239 30.7024 65.8239 30.7024Z" fill="#3F2D1F"/>
<path d="M74.3749 57.0325L70.2451 65.3655C70.0976 65.6655 69.7065 65.7512 69.4341 65.5512L69.2642 65.4226L55.7323 55.2887C55.5259 55.1315 55.4592 54.8525 55.5849 54.6239L60.2525 46.3414L60.3635 46.1481C60.5187 45.8623 60.909 45.7909 61.1674 45.9977L74.2353 56.4099C74.4192 56.561 74.4781 56.8182 74.3749 57.0325Z" fill="white"/>
<path d="M102.855 127.253C94.78 131.205 85.6504 133.428 75.9822 133.428C68.0251 133.428 60.4296 131.92 53.4899 129.176L49.0721 80.1442C49.0721 80.1442 49.9792 76.764 55.3918 74.8343C61.5424 72.6332 61.6084 72.3828 61.6084 72.3828C85.0521 83.817 94.9632 75.5412 94.9632 75.5412L100.125 78.0852C100.634 78.3356 101.032 78.75 101.253 79.2576C102.47 82.0806 106.504 91.8709 106.91 98.6171C107.228 103.992 104.603 118.435 102.855 127.253Z" fill="#9C897A"/>
<path d="M51.6608 76.8164C51.6608 76.8164 45.944 79.016 43.8744 93.5131C41.804 108.01 44.0141 115.691 44.0141 115.691L55.3941 102.599C55.3941 102.599 59.2896 82.5301 51.6608 76.8164Z" fill="#9C897A"/>
<path d="M68.6528 55.6132C67.5618 56.2238 64.7216 58.149 64.2141 58.9596C63.9704 59.3499 63.8688 59.7943 63.8269 60.1538L63.113 59.8086C63.473 58.3166 64.1381 56.8254 64.1381 56.8254C64.1381 56.8254 65.2702 56.2381 65.9027 55.3703C66.5351 54.5025 66.2977 53.8092 66.2977 53.8092C65.8662 54.0506 65.1717 54.4905 64.4477 54.9883C64.4578 54.9748 64.4702 54.9627 64.4803 54.9484C65.1119 54.0806 64.8753 53.3873 64.8753 53.3873C63.7423 54.0212 60.7935 56.02 60.2666 56.8623C59.9826 57.3165 59.8848 57.8399 59.8522 58.2302L59.6528 58.1339C59.9911 56.5555 60.7407 54.8717 60.7407 54.8717C60.7407 54.8717 61.8729 54.2844 62.5053 53.4166C63.137 52.5488 62.9003 51.8555 62.9003 51.8555C61.7674 52.4894 58.8186 54.4882 58.2917 55.3305C57.7648 56.1727 57.8703 57.2699 57.8703 57.2699L58.2917 64.4673L58.7068 72.3791C58.7068 72.3791 43.7005 105.661 43.8744 113.777C44.0482 121.894 49.0736 125.109 49.0736 125.109C49.0736 125.109 54.4466 124.496 57.8703 119.371C61.294 114.245 64.4547 75.1863 64.4547 75.1863C64.4547 75.1863 66.2457 72.5317 66.5615 69.993C66.8773 67.4542 65.6745 61.0464 65.6745 61.0464C66.0315 59.7327 66.5731 58.5159 66.5731 58.5159C66.5731 58.5159 67.6642 57.9504 68.2726 57.115C68.881 56.2802 68.6528 55.6132 68.6528 55.6132Z" fill="#FF996A"/>
<path d="M74.3742 57.0318L70.2443 65.3647C70.0969 65.6648 69.7058 65.7505 69.4334 65.5504L69.2635 65.4219L73.4376 56.725L60.2518 46.3414L60.3627 46.1481C60.5179 45.8623 60.9083 45.7909 61.1667 45.9977L74.2345 56.4099C74.4184 56.5603 74.4774 56.8175 74.3742 57.0318Z" fill="#D9D9D9"/>
<path d="M60.253 48.0078L59.6803 49.099L62.5251 51.3189L63.177 50.2661L60.253 48.0078Z" fill="#D9D9D9"/>
<path d="M142.519 80.861L139.331 81.4355L139.245 81.1618C140.167 80.8565 142.333 80.0308 143.21 78.7569C144.337 77.1191 144.732 75.5353 144.732 75.5353C144.732 75.5353 142.778 76.5257 142.026 78.4163L140.516 78.6885C141.122 78.3253 141.683 77.8853 142.035 77.3732C143.162 75.7346 143.557 74.1517 143.557 74.1517C143.557 74.1517 141.604 75.142 140.852 77.0326L138.947 77.3755C139.737 76.7746 140.564 75.991 140.91 75.1435C141.656 73.3124 141.698 71.6836 141.698 71.6836C141.698 71.6836 140.004 73.05 139.679 75.051L137.585 75.8986L128.422 78.6719L128.491 77.3898C128.491 77.3898 128.837 77.189 129.804 76.452C130.772 75.7151 131.98 72.6567 131.98 72.6567C131.98 72.6567 127.178 74.8442 126.007 77.2552C124.837 79.6661 123.722 85.6272 123.722 85.6272C123.722 85.6272 112.71 111.307 110.754 118.382C110.754 118.382 106.972 119.8 105.173 122.201C105.173 122.201 109.018 129.041 112.073 129.755C112.073 129.755 120.922 128.122 125.136 118.117C129.35 108.111 131.048 87.9027 131.048 87.9027L139.893 83.2148C139.893 83.2148 142.566 82.4778 143.487 81.1385C144.409 79.7992 144.731 78.5042 144.731 78.5042C144.731 78.5042 143.134 79.3156 142.519 80.861Z" fill="#FF996A"/>
<path d="M103.12 110.006C103.12 110.006 97.939 109.039 89.0708 109.039C80.2027 109.039 71.3338 110.651 71.3338 110.651" stroke="#847062" stroke-miterlimit="10" stroke-linecap="round" stroke-linejoin="round"/>
<path d="M93.782 28.4688C93.782 28.4688 95.2091 31.018 95.0865 32.7657" stroke="#543E2F" stroke-miterlimit="10" stroke-linecap="round" stroke-linejoin="round"/>
<path d="M91.5906 26.5352C91.5906 26.5352 85.8001 28.3618 82.6131 32.7662" stroke="#543E2F" stroke-miterlimit="10" stroke-linecap="round" stroke-linejoin="round"/>
<path d="M64.737 29.3828C64.737 29.3828 63.795 31.4237 63.7391 32.1757C63.7391 32.1757 60.6444 34.9687 60.2518 36.5802" stroke="#543E2F" stroke-miterlimit="10" stroke-linecap="round" stroke-linejoin="round"/>
<path d="M53.0975 36.9531C53.3194 37.1141 56.38 39.361 59.5197 37.4675" stroke="#543E2F" stroke-miterlimit="10" stroke-linecap="round" stroke-linejoin="round"/>
<path d="M68.5565 28.4695C68.5565 28.4695 75.7399 22.0505 87.6298 25.4345" stroke="#543E2F" stroke-miterlimit="10" stroke-linecap="round" stroke-linejoin="round"/>
<path d="M70.0037 41.7243C70.0037 41.7243 73.0891 42.9297 79.6851 41.7243C86.2811 40.5188 92.2866 33.9727 92.2866 33.9727" stroke="#543E2F" stroke-miterlimit="10" stroke-linecap="round" stroke-linejoin="round"/>
<path d="M67.3397 76.8164C67.3397 76.8164 76.3599 80.4621 85.5982 79.9252C94.8364 79.3882 95.9872 77.7767 95.9872 77.7767" stroke="#847062" stroke-miterlimit="10" stroke-linecap="round" stroke-linejoin="round"/>
</svg>
