<svg width="500" height="500" viewBox="0 0 500 500" fill="none" xmlns="http://www.w3.org/2000/svg">
<path d="M250.003 492.864C385.302 492.864 494.983 429.54 494.983 351.425C494.983 273.311 385.302 209.986 250.003 209.986C114.705 209.986 5.02344 273.311 5.02344 351.425C5.02344 429.54 114.705 492.864 250.003 492.864Z" fill="#FAFAFA"/>
<path d="M378.817 397.548L453.286 354.553C457.966 351.851 457.966 347.47 453.286 344.768L406.64 317.837C401.96 315.135 394.294 314.994 389.518 317.521L311.423 358.852C306.647 361.38 306.569 365.62 311.249 368.322L361.87 397.548C366.55 400.25 374.137 400.25 378.817 397.548Z" fill="#E6E6E6"/>
<path d="M126.268 397.548L51.7991 354.553C47.1191 351.851 47.1191 347.47 51.7991 344.768L98.4451 317.837C103.125 315.135 110.791 314.994 115.567 317.521L193.662 358.852C198.438 361.38 198.517 365.62 193.836 368.322L143.215 397.548C138.536 400.25 130.948 400.25 126.268 397.548Z" fill="#E6E6E6"/>
<path d="M252.826 475.682C312.065 475.682 360.089 447.956 360.089 413.754C360.089 379.552 312.065 351.826 252.826 351.826C193.586 351.826 145.562 379.552 145.562 413.754C145.562 447.956 193.586 475.682 252.826 475.682Z" fill="#E6E6E6"/>
<path d="M385.902 447.218L356.294 430.157C354.85 429.323 354.85 427.972 356.294 427.138L439.357 379.182C440.801 378.348 443.142 378.348 444.586 379.182L474.193 396.243C475.637 397.077 475.637 398.428 474.193 399.262L391.131 447.218C389.687 448.052 387.346 448.052 385.902 447.218Z" fill="#E6E6E6"/>
<path d="M120.507 447.218L150.115 430.157C151.559 429.323 151.559 427.972 150.115 427.138L67.0518 379.182C65.6078 378.348 63.2668 378.348 61.8228 379.182L32.2158 396.243C30.7718 397.077 30.7718 398.428 32.2158 399.262L115.278 447.218C116.723 448.052 119.064 448.052 120.507 447.218Z" fill="#E6E6E6"/>
<path d="M63.5978 339.647C63.5978 339.647 65.3088 321.627 60.7118 307.205C56.1148 292.783 47.3278 282.199 37.4258 278.693C27.5238 275.187 16.8638 282.308 25.9778 291.595C35.0918 300.882 52.2598 318.759 54.7148 345.031L63.5978 339.647Z" fill="#0A5840"/>
<path opacity="0.65" d="M63.5978 339.647C63.5978 339.647 65.3088 321.627 60.7118 307.205C56.1148 292.783 47.3278 282.199 37.4258 278.693C27.5238 275.187 16.8638 282.308 25.9778 291.595C35.0918 300.882 52.2598 318.759 54.7148 345.031L63.5978 339.647Z" fill="white"/>
<path d="M58.1088 335.529C58.1468 335.532 58.1848 335.532 58.2238 335.526C58.5308 335.488 58.7228 335.211 58.7088 334.902C57.4268 304.671 40.5778 286.87 31.8918 282.263C31.6208 282.116 31.2808 282.223 31.1358 282.495C30.9908 282.768 31.0948 283.107 31.3678 283.251C39.8748 287.764 56.0258 305.48 57.5988 335.041C57.6148 335.31 57.8508 335.508 58.1088 335.529Z" fill="white"/>
<path d="M8.91213 309.244C9.17013 311.003 10.6521 312.295 12.0641 313.38C13.4691 314.456 15.0091 315.633 15.4561 317.353C16.3541 320.826 12.3391 324.238 13.3851 327.668C13.8251 329.106 15.0961 330.154 16.4511 330.807C17.5741 331.359 18.7811 331.694 19.9551 332.13C20.5361 332.279 21.1211 332.396 21.7001 332.473C23.4151 332.693 25.2261 333.115 26.5011 334.38C28.5051 336.378 28.3981 339.583 29.1961 342.299C30.1541 345.552 31.6381 348.453 34.6031 350.052C38.9021 352.369 43.5371 351.482 43.5371 351.482L54.7111 345.031C58.4391 343.903 58.6021 340.378 58.7051 336.531C58.8021 332.937 57.1481 329.143 54.7681 326.507C53.2651 324.842 51.3411 323.605 49.4171 322.497C48.3901 321.906 47.1971 321.448 46.4941 320.455C45.8581 319.557 45.7981 318.496 45.6541 317.435C45.4881 316.215 45.5071 315.007 45.1121 313.83C44.7051 312.616 44.0691 311.512 43.3451 310.465C42.5271 309.281 41.5351 308.454 40.1691 307.923C38.1961 307.157 36.2421 306.644 34.1401 306.42C31.5181 306.14 28.6731 306.866 26.1231 306.026C23.6431 305.21 21.3681 303.851 18.7531 303.315C16.0181 302.754 12.9641 303.128 10.7911 305.004C9.57113 306.058 8.67913 307.648 8.91213 309.244Z" fill="#0A5840"/>
<path opacity="0.25" d="M8.91213 309.244C9.17013 311.003 10.6521 312.295 12.0641 313.38C13.4691 314.456 15.0091 315.633 15.4561 317.353C16.3541 320.826 12.3391 324.238 13.3851 327.668C13.8251 329.106 15.0961 330.154 16.4511 330.807C17.5741 331.359 18.7811 331.694 19.9551 332.13C20.5361 332.279 21.1211 332.396 21.7001 332.473C23.4151 332.693 25.2261 333.115 26.5011 334.38C28.5051 336.378 28.3981 339.583 29.1961 342.299C30.1541 345.552 31.6381 348.453 34.6031 350.052C38.9021 352.369 43.5371 351.482 43.5371 351.482L54.7111 345.031C58.4391 343.903 58.6021 340.378 58.7051 336.531C58.8021 332.937 57.1481 329.143 54.7681 326.507C53.2651 324.842 51.3411 323.605 49.4171 322.497C48.3901 321.906 47.1971 321.448 46.4941 320.455C45.8581 319.557 45.7981 318.496 45.6541 317.435C45.4881 316.215 45.5071 315.007 45.1121 313.83C44.7051 312.616 44.0691 311.512 43.3451 310.465C42.5271 309.281 41.5351 308.454 40.1691 307.923C38.1961 307.157 36.2421 306.644 34.1401 306.42C31.5181 306.14 28.6731 306.866 26.1231 306.026C23.6431 305.21 21.3681 303.851 18.7531 303.315C16.0181 302.754 12.9641 303.128 10.7911 305.004C9.57113 306.058 8.67913 307.648 8.91213 309.244Z" fill="white"/>
<path d="M41.0607 325.461C41.0097 325.361 40.9307 325.273 40.8527 325.157C33.4967 314.245 21.3547 309.279 17.3707 308.472C17.1567 308.431 16.9437 308.568 16.8987 308.785C16.8547 309.001 16.9947 309.213 17.2117 309.257C20.9897 310.022 32.2707 314.603 39.5127 324.607C29.7377 320.923 22.0777 325.183 21.9977 325.229C21.8057 325.339 21.7397 325.583 21.8487 325.775C21.9167 325.893 22.0347 325.964 22.1607 325.975C22.2387 325.982 22.3207 325.966 22.3947 325.924C22.4737 325.879 30.4067 321.488 40.3367 325.808C43.6957 330.878 45.9987 337.239 45.9087 345.086C45.9057 345.296 46.0657 345.47 46.2717 345.489C46.2827 345.49 46.2937 345.49 46.3047 345.49C46.5247 345.493 46.7067 345.316 46.7087 345.094C46.7987 337.11 44.4687 330.631 41.0607 325.461Z" fill="white"/>
<path d="M439.921 342.989C439.921 342.989 437.554 317.188 451.293 292.151C458.973 278.156 470.666 272.367 477.45 272.299C485.054 272.222 491.97 279.05 484.226 288.049C476.867 296.6 464.2 299.253 454.365 322.356C450.171 332.208 448.511 340.037 447.861 344.338C447.622 345.924 445.506 346.693 444.042 345.722L439.921 342.989Z" fill="#0A5840"/>
<path opacity="0.5" d="M439.921 342.989C439.921 342.989 437.554 317.188 451.293 292.151C458.973 278.156 470.666 272.367 477.45 272.299C485.054 272.222 491.97 279.05 484.226 288.049C476.867 296.6 464.2 299.253 454.365 322.356C450.171 332.208 448.511 340.037 447.861 344.338C447.622 345.924 445.506 346.693 444.042 345.722L439.921 342.989Z" fill="white"/>
<path d="M445.192 337.822C445.454 337.822 445.664 337.639 445.664 337.412C445.664 308.134 464.465 285.244 477.814 278.34C478.038 278.223 478.112 277.972 477.978 277.777C477.843 277.581 477.554 277.518 477.33 277.634C463.789 284.637 444.719 307.813 444.719 337.412C444.72 337.639 444.93 337.822 445.192 337.822Z" fill="white"/>
<path d="M444.729 346.147C446.006 347.008 447.87 346.541 448.428 345.223C450.817 339.59 455.726 334.014 464.26 328.441C474.187 321.959 487.459 316.398 486.37 309.782C485.281 303.167 475.227 303.627 467.862 306.551C460.498 309.475 443.343 321.542 443.693 345.448L444.729 346.147Z" fill="#0A5840"/>
<path opacity="0.25" d="M444.729 346.147C446.006 347.008 447.87 346.541 448.428 345.223C450.817 339.59 455.726 334.014 464.26 328.441C474.187 321.959 487.459 316.398 486.37 309.782C485.281 303.167 475.227 303.627 467.862 306.551C460.498 309.475 443.343 321.542 443.693 345.448L444.729 346.147Z" fill="white"/>
<path d="M445.309 346.675C445.533 346.675 445.754 346.539 445.773 346.339C447.376 328.586 466.895 310.563 479.518 308.114C479.773 308.065 479.926 307.837 479.862 307.617C479.801 307.396 479.552 307.286 479.29 307.318C466.884 308.845 445.518 328.28 444.844 346.192C444.835 346.419 444.967 346.629 445.224 346.669C445.252 346.673 445.28 346.675 445.309 346.675Z" fill="white"/>
<path d="M313.312 363.063L321.881 270.368L329.832 269.965L317.316 363.051H317.308C317.27 363.303 317.1 363.555 316.778 363.763C316.019 364.254 314.75 364.319 313.944 363.906C313.516 363.687 313.312 363.378 313.322 363.061H313.312V363.063Z" fill="#263238"/>
<path d="M321.877 270.368L329.828 269.965L327.489 285.361C325.581 284.644 324.836 284.298 322.781 283.195C321.688 282.608 320.767 281.795 320.68 281.398L321.877 270.368Z" fill="#263238"/>
<path d="M427.539 258.463H435.5L448.245 346.633H448.236C448.262 346.948 448.074 347.267 447.657 347.508C446.874 347.96 445.603 347.96 444.82 347.508C444.488 347.316 444.305 347.074 444.255 346.824L444.246 346.825L427.539 258.463Z" fill="#37474F"/>
<path d="M435.5 258.463L438.595 279.873C437.152 281.123 434.111 282.889 432.314 283.717L427.539 258.463H435.5Z" fill="#263238"/>
<path d="M366.508 390.281L372.83 296.219L380.781 295.816L370.512 390.269H370.503C370.465 390.521 370.295 390.773 369.973 390.981C369.213 391.472 367.944 391.537 367.139 391.125C366.711 390.906 366.507 390.596 366.517 390.281H366.508Z" fill="#37474F"/>
<path d="M372.031 308.117L372.831 296.219L380.782 295.816L379.386 308.653C377.613 309.193 374.346 308.863 372.031 308.117Z" fill="#263238"/>
<path d="M384.086 233.199H392.047L404.792 323.098H404.783C404.809 323.413 404.621 323.732 404.205 323.973C403.421 324.425 402.151 324.425 401.368 323.973C401.036 323.782 400.853 323.539 400.803 323.288L400.794 323.289L384.086 233.199Z" fill="#263238"/>
<path d="M450.457 170.525C452.051 174.244 453.15 178.8 453.636 184.5C454.545 195.215 450.919 229.912 448.74 245.427L448.749 245.418C445.598 271.342 441.734 271.387 436.116 275.727C426.454 283.192 398.666 297.824 389.491 301.435C372.859 307.981 359.263 297.887 349.124 292.881C338.994 287.883 326.541 280.076 322.272 276.979C319.742 275.133 318.427 273.269 318.454 271.306C318.463 270.532 318.445 267.344 318.445 266.525C318.454 264.021 320.651 261.338 325.306 258.322C333.896 252.748 364.944 234.64 376.974 227.977C376.992 227.887 377.073 227.878 377.073 227.878C386.33 222.259 391.901 184.06 398.313 163.737C398.448 163.305 398.583 162.882 398.727 162.477C398.835 162.153 398.952 161.837 399.06 161.531C399.465 160.424 399.879 159.415 400.321 158.488" fill="#0A5840"/>
<path d="M318.445 266.524C318.454 264.021 320.651 261.338 325.307 258.321C333.897 252.747 364.945 234.639 376.974 227.976C376.992 227.886 377.073 227.877 377.073 227.877C386.33 222.258 391.901 184.059 398.312 163.736C398.372 163.545 398.824 161.984 399.654 159.997C399.692 159.904 399.732 159.818 399.771 159.727C399.886 159.457 400.008 159.181 400.137 158.9C400.199 158.765 400.257 158.619 400.32 158.487L400.328 158.489C401.365 156.302 402.793 153.908 404.606 152.31C404.759 152.175 405.482 151.466 406.703 150.835C407.744 150.247 409.93 149.031 410.476 148.711C416.765 144.948 425.012 149.464 435.291 155.092C441.683 158.597 447.136 162.762 450.456 170.525H450.457C452.051 174.244 453.149 178.8 453.636 184.5C454.546 195.215 450.919 229.912 448.74 245.427L448.749 245.418C445.598 271.342 441.734 271.387 436.116 275.727C426.454 283.192 398.666 297.824 389.491 301.435C372.859 307.981 359.263 297.887 349.124 292.881C338.994 287.883 326.541 280.076 322.272 276.979C319.742 275.133 318.427 273.269 318.454 271.306C318.463 270.531 318.445 267.344 318.445 266.524Z" fill="#0A5840"/>
<path opacity="0.25" d="M318.445 266.524C318.454 264.021 320.651 261.338 325.307 258.321C333.897 252.747 364.945 234.639 376.974 227.976C376.992 227.886 377.073 227.877 377.073 227.877C386.33 222.258 391.901 184.059 398.312 163.736C398.372 163.545 398.824 161.984 399.654 159.997C399.692 159.904 399.732 159.818 399.771 159.727C399.886 159.457 400.008 159.181 400.137 158.9C400.199 158.765 400.257 158.619 400.32 158.487L400.328 158.489C401.365 156.302 402.793 153.908 404.606 152.31C404.759 152.175 405.482 151.466 406.703 150.835C407.744 150.247 409.93 149.031 410.476 148.711C416.765 144.948 425.012 149.464 435.291 155.092C441.683 158.597 447.136 162.762 450.456 170.525H450.457C452.051 174.244 453.149 178.8 453.636 184.5C454.546 195.215 450.919 229.912 448.74 245.427L448.749 245.418C445.598 271.342 441.734 271.387 436.116 275.727C426.454 283.192 398.666 297.824 389.491 301.435C372.859 307.981 359.263 297.887 349.124 292.881C338.994 287.883 326.541 280.076 322.272 276.979C319.742 275.133 318.427 273.269 318.454 271.306C318.463 270.531 318.445 267.344 318.445 266.524Z" fill="white"/>
<path d="M349.13 288.062C338.997 283.057 326.542 275.251 322.277 272.154C316.511 267.967 317.042 263.684 325.305 258.324C336.784 250.877 383.579 224.324 383.579 224.324C383.579 224.324 442.739 259.236 440.194 265.683C437.649 272.13 401.032 292.075 389.496 296.613C372.858 303.158 359.263 293.067 349.13 288.062Z" fill="#0A5840"/>
<path opacity="0.6" d="M349.13 288.062C338.997 283.057 326.542 275.251 322.277 272.154C316.511 267.967 317.042 263.684 325.305 258.324C336.784 250.877 383.579 224.324 383.579 224.324C383.579 224.324 442.739 259.236 440.194 265.683C437.649 272.13 401.032 292.075 389.496 296.613C372.858 303.158 359.263 293.067 349.13 288.062Z" fill="white"/>
<path d="M406.703 150.835C412.93 147.567 421.023 152.01 431.033 157.495C437.445 161.011 442.909 165.175 446.229 172.969L450.456 170.526C447.136 162.763 441.683 158.598 435.291 155.093C425.013 149.464 416.765 144.948 410.477 148.711C409.93 149.031 407.745 150.247 406.703 150.835Z" fill="#0A5840"/>
<path opacity="0.5" d="M406.703 150.835C412.93 147.567 421.023 152.01 431.033 157.495C437.445 161.011 442.909 165.175 446.229 172.969L450.456 170.526C447.136 162.763 441.683 158.598 435.291 155.093C425.013 149.464 416.765 144.948 410.477 148.711C409.93 149.031 407.745 150.247 406.703 150.835Z" fill="white"/>
<path d="M377.078 227.878C377.078 227.878 383.111 229.859 404.632 240.43C413.465 244.761 419.273 249.138 427.549 254.342C439.723 262.005 438.795 267.696 438.795 267.696C444.846 262.681 450.877 204.509 449.391 186.905C448.878 180.854 447.671 176.1 445.924 172.255C445.762 171.913 445.6 171.571 445.429 171.229C445.312 170.995 445.195 170.761 445.069 170.536C445.015 170.428 444.952 170.32 444.889 170.212C444.412 169.347 443.898 168.537 443.358 167.763C443.223 167.565 443.088 167.376 442.953 167.196C442.809 167.007 442.674 166.818 442.529 166.638C442.394 166.458 442.241 166.278 442.097 166.098C441.98 165.954 441.854 165.81 441.728 165.666C441.035 164.856 440.305 164.099 439.54 163.397C439.351 163.208 439.162 163.037 438.964 162.866C437.748 161.803 436.461 160.831 435.11 159.939C434.903 159.795 434.696 159.66 434.489 159.534C434.21 159.354 433.93 159.174 433.642 159.003C433.408 158.859 433.174 158.715 432.931 158.58C432.31 158.211 431.679 157.851 431.04 157.499C423.386 153.312 416.858 149.719 411.419 149.719C407.353 149.719 404.908 152.051 404.612 152.312C400.595 155.85 398.453 163.307 398.318 163.739C391.906 184.06 386.334 222.259 377.078 227.878Z" fill="#0A5840"/>
<path opacity="0.4" d="M377.078 227.878C377.078 227.878 383.111 229.859 404.632 240.43C413.465 244.761 419.273 249.138 427.549 254.342C439.723 262.005 438.795 267.696 438.795 267.696C444.846 262.681 450.877 204.509 449.391 186.905C448.878 180.854 447.671 176.1 445.924 172.255C445.762 171.913 445.6 171.571 445.429 171.229C445.312 170.995 445.195 170.761 445.069 170.536C445.015 170.428 444.952 170.32 444.889 170.212C444.412 169.347 443.898 168.537 443.358 167.763C443.223 167.565 443.088 167.376 442.953 167.196C442.809 167.007 442.674 166.818 442.529 166.638C442.394 166.458 442.241 166.278 442.097 166.098C441.98 165.954 441.854 165.81 441.728 165.666C441.035 164.856 440.305 164.099 439.54 163.397C439.351 163.208 439.162 163.037 438.964 162.866C437.748 161.803 436.461 160.831 435.11 159.939C434.903 159.795 434.696 159.66 434.489 159.534C434.21 159.354 433.93 159.174 433.642 159.003C433.408 158.859 433.174 158.715 432.931 158.58C432.31 158.211 431.679 157.851 431.04 157.499C423.386 153.312 416.858 149.719 411.419 149.719C407.353 149.719 404.908 152.051 404.612 152.312C400.595 155.85 398.453 163.307 398.318 163.739C391.906 184.06 386.334 222.259 377.078 227.878Z" fill="white"/>
<path d="M354.625 311.231C360.315 310.447 365.208 314.989 365.678 316.445C366.313 318.412 366.112 322.401 363.806 327.326C361.807 331.596 360.911 338.319 361.342 342.817C361.773 347.316 363.95 358.537 359.428 364.195C354.907 369.854 344.832 374.801 341.224 367.086C340.044 364.564 342.375 355.793 343.408 349.397C345.465 336.655 347.045 323.998 347.045 323.998L354.625 311.231Z" fill="#263238"/>
<path d="M356.439 321.391C355.806 325.84 354.921 333.249 355.053 340.08C355.185 346.912 353.755 351.408 351.405 354.464C348.814 357.836 342.312 359.736 343.06 352.696C343.582 347.795 347.041 324 347.041 324L356.439 321.391Z" fill="#FFA8A7"/>
<path opacity="0.15" d="M363.778 314.203C364.056 318.408 361.822 329.59 356.158 338.965C350.606 348.157 342.458 358.976 340.921 365.529C340.759 362.521 342.007 357.008 342.929 352.102C342.949 351.994 342.97 351.887 342.989 351.779C343.042 351.493 343.093 351.211 343.143 350.93C343.166 350.801 343.19 350.67 343.213 350.543C343.277 350.179 343.338 349.82 343.395 349.469C343.399 349.446 343.403 349.421 343.407 349.398C344.05 345.416 344.646 341.443 345.162 337.861C345.575 334.996 345.936 332.382 346.229 330.214C346.375 329.131 346.504 328.159 346.614 327.324C346.669 326.906 346.719 326.523 346.764 326.176C346.944 324.79 347.043 323.999 347.043 323.999L354.624 311.231C355.007 311.178 355.367 311.164 355.729 311.145C359.031 311.073 361.958 312.673 363.778 314.203Z" fill="black"/>
<path d="M331.879 239.992C349.977 226.485 370.489 211.217 370.489 211.217L428.588 214.724L371.347 257.538L346.69 274.232C346.69 274.232 341.978 273.865 344.865 281.216C345.782 283.55 347.168 288.225 348.631 293.514L337.184 325.049C337.184 325.049 329.952 314.528 322.053 294.141C314.057 273.503 313.555 266.696 314.381 262.599C315.464 257.239 317.092 251.028 331.879 239.992Z" fill="#455A64"/>
<path d="M342.537 240.637C337.861 244.233 333.379 248.058 329.195 252.149C327.12 254.202 325.106 256.337 323.417 258.639C322.606 259.782 321.819 261.037 321.578 262.2C321.298 263.615 321.101 265.027 321.03 266.448C320.905 269.289 321.157 272.166 321.689 275.019C322.181 277.879 322.881 280.718 323.627 283.552C325.184 289.235 326.629 294.949 328.063 300.677C325.913 295.175 323.982 289.595 322.191 283.976C321.268 281.159 320.484 278.286 319.895 275.351C319.33 272.42 318.964 269.389 319.166 266.34C319.26 264.819 319.489 263.307 319.798 261.835C320.226 260.104 321.152 258.86 322.048 257.627C323.9 255.211 326.046 253.135 328.252 251.146C332.693 247.2 337.486 243.694 342.537 240.637Z" fill="#37474F"/>
<path d="M377.078 245.337C376.35 245.832 373.134 248.08 372.29 248.677C360.898 256.737 341.656 272.349 339.503 279.188C338.164 283.422 333.099 295.754 330.32 311.759C330.32 311.759 330.675 301.154 331.071 290.763C331.624 276.23 334.258 272.138 338.972 266.769C343.526 261.604 367.76 246.808 369.448 245.819C365.262 242.51 363.207 235.684 363.214 232.238C363.213 232.236 369.356 242.67 377.078 245.337Z" fill="#37474F"/>
<path d="M343.348 362.905C344.83 362.808 344.927 365.34 345.827 368.551C346.41 370.632 347.519 374.108 346.307 378.174C345.094 382.24 338.681 383.073 335.531 388.473C332.38 393.874 327.866 403.553 316.515 406.798C305.164 410.044 296.126 406.849 293.736 403.568C291.346 400.288 293.049 396.905 300.124 392.184C307.635 387.171 309.76 385.702 309.76 385.702L343.348 362.905Z" fill="#263238"/>
<path d="M327.954 343.797C327.954 343.797 325.102 356.539 322.214 363.84C319.326 371.141 314.447 378.207 308.951 384.863C307.755 386.312 305.015 389.018 304.036 390.19C303.164 391.234 303.046 392.42 304.349 393.609C306.915 395.953 317.573 396.278 323.435 391.669C329.297 387.06 334.512 377.41 337.986 373.729C339.292 372.346 340.519 370.934 341.681 369.44C342.803 367.999 343.497 366.226 343.395 364.641C343.196 361.572 343.163 360.466 343.686 357.767C344.416 354.004 345.199 352.531 346.288 348.857L327.954 343.797Z" fill="#FFA8A7"/>
<path d="M427.542 214.66C433.901 234.066 432.515 244.485 429.01 252.813C426.089 259.753 420.6 266.956 404.797 274.576C389.821 281.797 375.775 289.45 372.065 291.196C368.355 292.942 367.133 297.073 365.405 304.429C363.765 311.414 361.711 322.706 354.106 337.537C346.073 353.202 343.897 357.831 343.897 357.831C343.897 357.831 333.002 361.217 325.156 353.885C325.156 353.885 332.305 293.916 334.071 284.203C335.255 277.689 336.994 274.091 342.207 269.406C354.319 258.522 376.704 245.414 376.704 245.414C376.704 245.414 375.032 225.626 378.902 214.721L427.542 214.66Z" fill="#455A64"/>
<path d="M331.508 341.661C332.292 332.932 333.256 324.223 334.415 315.539C335.575 306.851 336.817 298.185 338.548 289.548C338.773 288.469 339.036 287.39 339.294 286.308L339.772 284.673L340.364 283.074C341.229 280.97 342.38 278.988 343.757 277.203C346.518 273.628 349.916 270.697 353.458 268.079C356.992 265.437 360.715 263.094 364.404 260.747C368.119 258.426 371.801 256.057 375.548 253.783C372.031 256.397 368.45 258.918 364.901 261.486C361.325 264.022 357.749 266.528 354.346 269.233C350.964 271.947 347.708 274.844 345.185 278.271C343.932 279.984 342.856 281.813 342.076 283.769L341.538 285.252L341.105 286.771C340.864 287.82 340.615 288.871 340.4 289.935C339.505 294.189 338.77 298.503 338.041 302.812L335.88 315.755C334.477 324.395 333.024 333.03 331.508 341.661Z" fill="#37474F"/>
<path d="M280.465 122.165C281.646 121.848 282.916 122.027 284.065 122.446C285.934 123.127 287.484 124.386 289.215 125.328C291.851 126.762 296.091 129.113 299.143 128.978C299.765 128.95 301.045 128.702 300.201 127.93C299.1 126.923 297.906 125.997 296.993 124.817C296.08 123.637 295.463 122.124 295.74 120.658C295.823 120.216 296.004 119.767 296.365 119.498C296.877 119.118 297.229 119.359 297.631 119.662C298.054 119.981 298.533 120.227 298.997 120.49C299.955 121.032 300.912 121.577 301.862 122.133C307.407 125.379 312.953 129.175 316.231 134.862C316.707 135.688 319.572 142.184 321.42 145.85C322.928 149.191 334.331 170.126 334.331 170.126L354.665 150.305C359.216 145.754 363.763 141.534 367.8 139.984C370.696 138.872 374.696 137.388 374.696 137.388L367.272 172.21C367.272 172.21 345.791 188.369 342.725 190.587C338.172 193.882 329.082 199.218 324.569 193.643C318.45 186.084 315.467 175.178 312.606 166.856C309.745 158.534 308.218 153.483 306.579 150.613C304.94 147.744 302.248 147.547 300.36 146.956C296.908 145.876 296.05 145.469 292.898 143.698C290.822 142.532 288.865 141.134 287.164 139.464C286.451 138.764 285.258 137.78 284.947 136.805C284.656 135.894 284.818 134.893 284.413 133.971C283.958 132.936 283.028 132.144 282.69 131.065C282.424 130.218 282.558 129.304 282.517 128.417C282.452 127.006 281.588 126.189 280.608 125.289C280.132 124.852 279.599 124.429 279.37 123.825C279.001 122.853 279.664 122.381 280.465 122.165Z" fill="#FFA8A7"/>
<path d="M325.653 153.381L322.822 148.652C322.822 148.652 321.633 152.37 317.051 155.422C312.469 158.473 309.375 157.363 309.375 157.363L311.043 163.055C311.043 163.055 314.501 164.341 319.977 160.726C325.454 157.11 325.653 153.381 325.653 153.381Z" fill="#0A5840"/>
<path d="M378.829 134.939C370.478 135.5 364.939 138.969 360.181 142.95C355.432 146.923 334.579 166.486 334.579 166.486L324.74 151.343C324.74 151.343 324.176 155.525 318.451 158.844C312.414 162.343 310.234 161.154 310.234 161.154C310.234 161.154 314.717 179.151 319.647 188.005C324.577 196.859 327.39 199.74 335.443 196.108C343.496 192.476 370.977 171.981 370.977 171.981L378.829 134.939Z" fill="#263238"/>
<path d="M302.619 131.627C303.893 135.108 307.399 139.053 309.435 140.197C309.435 140.197 306.102 139.857 304.365 137.608C302.461 135.143 302.438 133.032 302.619 131.627Z" fill="#F28F8F"/>
<path d="M334.578 166.486C338.024 172.454 339.097 180.122 338.383 184.044C340.883 177.728 341.06 171.093 336.807 164.398L334.578 166.486Z" fill="black"/>
<path d="M402.219 73.5014C407.329 70.7744 413.738 70.7454 418.154 72.8924C425.084 76.2604 426.475 80.0614 427.336 88.1034C428.629 100.177 429.573 103.809 431.094 106.516C432.746 109.457 435.146 110.775 437.242 111.41C435.941 112.298 433.31 113.238 430.394 111.917C431.801 117.696 433.656 122.534 432.348 128.734C431.467 132.911 429.453 137.676 426.36 140.75C423.725 143.369 419.86 144.268 416.637 145.804C418.689 140.998 419.729 136.491 418.032 131.22C416.16 125.405 412.062 120.535 410.124 114.676C407.442 106.571 404.396 98.1864 403.436 89.6704C402.623 82.4684 402.324 78.4424 402.219 73.5014Z" fill="#263238"/>
<path d="M401.082 73.0015C401.812 71.7365 406.521 70.9925 410.229 73.4255C413.937 75.8585 416.995 80.1035 414.443 83.6385C412.048 86.9555 396.157 77.9265 401.082 73.0015Z" fill="#0A5840"/>
<path d="M415.902 137.831C422.907 140.582 423.634 140.809 423.634 140.809C425.086 144.626 431.566 155.133 429.858 165.391C428.15 175.649 422.892 197.381 424.011 201.664C425.129 205.946 431.072 217.84 433.179 230.637C433.179 230.637 428.977 233.153 425.213 234.837C425.213 234.837 422.843 219.986 418.912 214.723C419.425 226.173 418.912 233.872 418.912 233.872C418.912 233.872 402.54 240.387 382.863 234.738C362.367 228.854 360.852 218.386 360.852 218.386C360.852 218.386 364.408 205.162 364.409 198.428C364.409 191.694 363.185 180.795 363.185 180.795C363.185 180.795 354.38 172.163 357.344 162.515C360.149 153.382 375.576 138.079 378.827 134.938C384.579 134.938 387.882 134.215 387.882 134.215L415.902 137.831Z" fill="#37474F"/>
<path d="M408.816 137.222C407.816 142.222 405.816 143.445 400.149 149.667C394.482 155.889 376.733 172.843 375.106 180.2C374.037 173.89 372.592 165.435 374.259 158.051C375.926 150.666 379.964 140.863 386.328 135.87L408.257 134.938L408.816 137.222Z" fill="#0A5840"/>
<path d="M370.167 99.3647C364.87 79.8307 382.875 69.8407 400.794 72.9907C406.695 74.0277 414.313 77.4027 415.129 85.8137C422.924 88.2587 426.675 98.6937 421.86 109.834C418.367 117.916 411.39 121.944 408.226 126.906L370.167 99.3647Z" fill="#263238"/>
<path d="M415.49 102.158C410.481 99.9713 407.959 105.215 407.959 105.215C404.702 107.246 402.826 100.714 402.111 98.7463C400.863 95.3083 399.682 90.4123 395.874 88.9873C393.044 87.9283 389.847 88.9803 387.255 90.5323C385.676 91.4783 383.847 91.7053 382.072 91.2213C380.524 90.7993 380.034 88.3743 378.621 87.6153C374.55 85.4303 371.392 92.1273 370.833 95.3403C369.991 100.183 369.811 104.302 369.893 108.323C370.19 122.878 375.071 128.796 377.539 130.129C380.007 131.462 383.059 131.822 387.927 131.421L387.856 135.718C387.856 135.718 384.89 141.46 384.362 150.695C395.082 147.162 401.557 142.318 408.264 135.921L408.235 116.395C409.153 118.301 413.469 119.206 416.14 115.786C419.6 111.355 420.293 104.255 415.49 102.158Z" fill="#FFA8A7"/>
<path d="M389.751 117.834L382.953 119.937C383.499 121.881 385.463 122.987 387.339 122.407C389.218 121.826 390.297 119.78 389.751 117.834Z" fill="#B16668"/>
<path d="M389.307 119.399C387.41 119.336 385.784 120.634 385.367 122.415C385.991 122.6 386.67 122.615 387.341 122.408C388.689 121.992 389.612 120.817 389.832 119.469C389.659 119.44 389.488 119.405 389.307 119.399Z" fill="#F28F8F"/>
<path d="M387.92 131.424C392.635 130.699 401.247 128.397 402.678 124.518C402.678 124.518 402.893 127.67 399.245 130.448C396.199 132.767 387.875 134.217 387.875 134.217L387.92 131.424Z" fill="#F28F8F"/>
<path d="M372.609 96.1329L377.457 97.5779C377.91 96.2439 377.191 94.8389 375.852 94.4399C374.514 94.0419 373.062 94.7999 372.609 96.1329Z" fill="#263238"/>
<path d="M394.416 98.9834L389.977 96.5584C390.606 95.2974 392.109 94.8184 393.335 95.4884C394.56 96.1574 395.045 97.7224 394.416 98.9834Z" fill="#263238"/>
<path d="M373.476 104.876C373.383 106.051 374.226 107.073 375.358 107.16C376.49 107.245 377.481 106.362 377.573 105.187C377.666 104.011 376.824 102.989 375.693 102.904C374.561 102.818 373.568 103.701 373.476 104.876Z" fill="#263238"/>
<path d="M388.976 106.034C388.883 107.209 389.726 108.231 390.857 108.318C391.989 108.403 392.98 107.52 393.072 106.345C393.165 105.169 392.322 104.147 391.191 104.062C390.06 103.976 389.068 104.859 388.976 106.034Z" fill="#263238"/>
<path d="M364.476 100.002C364.557 100.917 365.152 101.796 365.456 102.167C365.617 102.363 365.765 102.617 365.848 102.941C366.221 104.402 366.562 107.151 367.271 108.723C367.982 110.294 369.454 112.803 373.487 113.114C374.272 113.176 374.965 113.15 375.578 113.051C375.631 113.044 375.685 113.034 375.735 113.025C376.385 112.909 376.943 112.709 377.427 112.448C377.461 112.429 377.495 112.411 377.527 112.39C377.577 112.364 377.624 112.337 377.671 112.306C377.713 112.281 377.755 112.254 377.852 112.19C377.91 112.152 377.964 112.114 378.019 112.072C378.082 112.027 378.142 111.98 378.201 111.931C378.261 111.884 378.318 111.837 378.375 111.784C378.489 111.684 378.595 111.579 378.698 111.468C379.284 110.854 379.703 110.118 380.031 109.372C380.887 107.424 380.613 104.618 382.068 104.375C382.122 104.366 382.182 104.36 382.243 104.359C382.303 104.355 382.366 104.358 382.432 104.362C384.418 104.498 384.245 107.529 385.389 109.76C386.531 111.995 388.401 114.215 392.707 114.509C392.899 114.523 393.086 114.529 393.264 114.535C393.416 114.536 393.565 114.536 393.707 114.529C394.077 114.522 394.423 114.489 394.741 114.438C394.852 114.419 394.96 114.402 395.066 114.38C395.171 114.359 395.276 114.332 395.376 114.308C395.441 114.294 395.507 114.275 395.572 114.256C396.009 114.127 396.39 113.965 396.73 113.772C396.865 113.694 396.991 113.614 397.117 113.53C397.36 113.362 397.574 113.182 397.782 112.976C398.417 112.34 398.796 111.619 399.055 111.029C399.7 109.558 399.833 106.835 400.143 105.431C400.226 105.058 400.339 104.802 400.459 104.626C400.731 104.229 401.385 103.55 401.397 102.638C401.408 101.727 400.753 100.897 400.17 100.781C399.832 100.714 399.477 100.648 399.112 100.583C395.708 99.9878 391.274 99.5658 388.635 100.14C385.326 100.868 384.19 101.868 382.337 101.742C380.603 101.607 379.462 100.443 376.297 99.2448C373.773 98.2928 369.632 98.0928 366.473 98.2098C366.135 98.2218 365.808 98.2388 365.495 98.2588C364.957 98.2978 364.396 99.0868 364.476 100.002ZM386.369 103.264C386.541 103.015 386.867 102.767 387.303 102.544C387.357 102.512 387.413 102.485 387.472 102.458C387.503 102.442 387.534 102.428 387.565 102.414C387.712 102.346 387.866 102.279 388.031 102.218C388.167 102.165 388.311 102.114 388.461 102.064C388.894 101.919 389.374 101.794 389.872 101.695C390.057 101.658 390.245 101.624 390.435 101.594C390.914 101.516 391.402 101.467 391.891 101.444C392.009 101.438 392.123 101.432 392.232 101.435C395.428 101.348 397.436 102.21 398.173 102.905C398.936 103.626 398.642 106.56 398.361 108.043C398.354 108.08 398.347 108.116 398.34 108.153C398.333 108.19 398.326 108.229 398.319 108.268C398.285 108.447 398.244 108.651 398.192 108.866C398.162 108.985 398.129 109.109 398.094 109.236C398.091 109.242 398.092 109.247 398.089 109.251C398.034 109.45 397.966 109.655 397.885 109.866V109.869C397.859 109.937 397.83 110.009 397.8 110.078C397.785 110.119 397.766 110.16 397.745 110.203C397.727 110.25 397.705 110.295 397.681 110.342C397.655 110.4 397.625 110.459 397.596 110.516C397.564 110.581 397.529 110.645 397.491 110.709C397.453 110.777 397.413 110.844 397.367 110.913C397.326 110.98 397.28 111.049 397.231 111.118C396.455 112.222 395.126 113.116 392.792 112.982C390.482 112.852 388.998 111.979 388.039 110.927L388.036 110.926C387.086 109.878 386.652 108.655 386.44 107.813C386.017 106.11 385.759 104.142 386.369 103.264ZM367.525 100.679C367.698 100.52 367.956 100.362 368.299 100.227C368.32 100.217 368.339 100.211 368.36 100.204C368.466 100.161 368.579 100.123 368.704 100.087C368.77 100.068 368.842 100.047 368.914 100.031C368.97 100.018 369.031 100.001 369.089 99.9908C369.129 99.9798 369.169 99.9738 369.206 99.9668C369.222 99.9618 369.238 99.9588 369.251 99.9578C369.307 99.9468 369.366 99.9368 369.424 99.9268C369.651 99.8888 369.896 99.8618 370.158 99.8458C370.286 99.8358 370.42 99.8288 370.557 99.8288C370.635 99.8248 370.715 99.8258 370.798 99.8248C370.86 99.8238 370.921 99.8258 370.983 99.8268C371.147 99.8318 371.318 99.8368 371.493 99.8498C371.555 99.8538 371.617 99.8578 371.681 99.8628C371.738 99.8668 371.796 99.8718 371.856 99.8768C372.313 99.9198 372.806 99.9908 373.334 100.096C375.621 100.549 378.02 101.735 378.656 102.705C379.292 103.675 379.183 105.614 378.911 107.267C378.856 107.593 378.773 107.972 378.64 108.369C378.633 108.396 378.621 108.425 378.611 108.455C378.599 108.491 378.587 108.528 378.572 108.566C378.562 108.591 378.555 108.615 378.545 108.64C378.528 108.684 378.511 108.728 378.491 108.771C378.454 108.863 378.415 108.951 378.372 109.041C378.337 109.117 378.297 109.195 378.257 109.27C378.242 109.298 378.227 109.325 378.212 109.351C378.184 109.4 378.154 109.453 378.121 109.505C378.096 109.548 378.068 109.592 378.037 109.637C378.035 109.643 378.029 109.651 378.025 109.658C377.25 110.83 375.849 111.801 373.308 111.568C372.351 111.485 371.556 111.228 370.905 110.864C368.62 109.59 368 107.012 367.713 105.818C367.348 104.287 366.858 101.294 367.525 100.679Z" fill="#37474F"/>
<path d="M400.338 101.053L410.043 102.707C409.423 103.204 408.672 103.98 408.156 104.846L400.289 103.506L400.338 101.053Z" fill="#37474F"/>
<path d="M383.255 104.649L381.964 116.501L374.992 114.052L382.563 104.377C382.836 104.429 383.085 104.511 383.255 104.649Z" fill="#F28F8F"/>
<path d="M410.211 114.017C410.211 115.037 411.038 115.864 412.058 115.864C413.078 115.864 413.904 115.037 413.904 114.017C413.904 112.997 413.077 112.17 412.058 112.17C411.037 112.17 410.211 112.997 410.211 114.017Z" fill="#FAFAFA"/>
<path d="M408.256 132.703L408.26 134.937C408.26 134.937 402.573 143.066 395.282 151.104C386.675 160.592 379.333 167.813 376.691 174.39C374.049 180.967 373.023 189.139 373.023 189.139C373.023 189.139 375.316 178.651 385.785 170.263C392.02 165.268 402.09 161.437 403.992 158.257C405.779 155.269 402.179 151.104 402.179 151.104C402.179 151.104 408.309 149.145 412.065 146.432C415.82 143.718 415.904 137.832 415.904 137.832L408.256 132.703Z" fill="#263238"/>
<path d="M387.852 135.719C384.358 139.047 378.873 146.823 377.281 155.271C375.69 163.719 374.992 182.942 374.992 182.942C374.992 182.942 372.751 169.964 371.526 164.454C370.302 158.944 369.678 154.694 375.689 149.027C374.208 146.462 373.947 145.495 377.083 141.751C380.219 138.007 382.935 136.306 382.935 136.306L387.851 133.16V135.719H387.852Z" fill="#263238"/>
<path d="M375.374 208.194C372.017 207.85 368.792 204.758 364.481 203.116C360.145 201.464 356.475 201.431 353.52 200.226C352.297 200.924 352.93 203.496 354.386 204.611C356.637 206.336 360.08 207.421 359.263 208.336C358.048 209.697 353.401 208.763 351.989 208.471C347.643 207.571 343.028 204.963 338.491 205.925C338.018 206.025 337.517 206.197 337.25 206.6C336.876 207.165 337.131 207.959 337.6 208.448C338.069 208.937 338.707 209.22 339.271 209.595C339.836 209.969 340.369 210.509 340.421 211.184C340.468 211.801 340.101 212.401 340.179 213.015C340.229 213.41 340.457 213.758 340.705 214.069C341.162 214.643 341.708 215.146 342.318 215.556C342.819 215.892 343.366 216.168 343.809 216.578C344.589 217.298 345.892 218.272 346.446 219.177C348.821 223.053 353.925 224.218 358.061 224.936C366.907 226.471 370.974 224.61 376.195 224.71C381.416 224.81 403.63 224.133 415.039 223.315C426.995 222.458 428.442 220.237 431.811 208.829C435.633 195.888 439.531 177.492 440.764 168.117C442.648 153.795 436.099 146.028 425.632 141.928C423.153 144.119 417.691 154.447 415.295 173.428L410.179 202.056C410.179 202.054 378.731 208.539 375.374 208.194Z" fill="#FFA8A7"/>
<path d="M383.808 206.768L378.273 207.976C378.273 207.976 379.157 211.696 379.277 216.579C379.397 221.461 378.474 224.717 378.474 224.717L385.218 224.909C385.218 224.909 389.02 214.408 383.808 206.768Z" fill="#0A5840"/>
<path d="M423.634 140.811C430.068 143.08 434.796 145.534 438.076 150.697C441.356 155.86 441.967 162.275 440.614 172.969C439.261 183.663 432.645 209.653 430.782 215.591C428.919 221.53 427.821 222.871 421.479 223.969C415.137 225.067 382.693 225.37 382.693 225.37C382.693 225.37 383.913 221.895 383.425 215.675C382.937 209.455 381.734 206.766 381.734 206.766L409.783 201.672C409.783 201.672 414.228 174.91 415.819 166.508C417.41 158.107 418.805 150.698 423.634 140.811Z" fill="#263238"/>
<path d="M409.781 201.672C413.651 201.25 420.143 203.847 422.06 207.434C421.256 203.662 417.254 199.515 410.176 199.543L409.781 201.672Z" fill="black"/>
<path d="M191.975 362.66L183.34 269.244L175.328 268.838L187.94 362.648H187.949C187.987 362.902 188.159 363.156 188.483 363.366C189.248 363.861 190.527 363.926 191.339 363.511C191.77 363.29 191.976 362.978 191.966 362.66H191.975Z" fill="#263238"/>
<path d="M183.34 269.244L175.328 268.838L177.685 284.353C179.608 283.63 180.359 283.282 182.429 282.17C183.531 281.579 184.459 280.759 184.547 280.359L183.34 269.244Z" fill="#263238"/>
<path d="M76.8592 257.244H68.8362L55.9922 346.1L56.0012 346.101C55.9752 346.418 56.1642 346.74 56.5842 346.983C57.3732 347.439 58.6542 347.439 59.4432 346.983C59.7772 346.79 59.9612 346.545 60.0132 346.293L60.0222 346.294L76.8592 257.244Z" fill="#37474F"/>
<path d="M68.8377 257.244L65.7188 278.821C67.1727 280.081 70.2378 281.86 72.0488 282.695L76.8607 257.244H68.8377Z" fill="#263238"/>
<path d="M138.368 390.089L131.997 295.295L123.984 294.889L134.333 390.077H134.342C134.38 390.331 134.551 390.585 134.876 390.795C135.642 391.29 136.92 391.355 137.732 390.94C138.163 390.719 138.369 390.407 138.359 390.089H138.368Z" fill="#37474F"/>
<path d="M132.803 307.286L131.997 295.295L123.984 294.889L125.39 307.826C127.177 308.37 130.469 308.038 132.803 307.286Z" fill="#263238"/>
<path d="M120.648 231.783H112.625L99.7812 322.381H99.7902C99.7642 322.698 99.9532 323.02 100.373 323.263C101.163 323.719 102.443 323.719 103.233 323.263C103.568 323.07 103.752 322.825 103.803 322.573L103.812 322.574L120.648 231.783Z" fill="#263238"/>
<path d="M53.7615 168.623C52.1555 172.371 51.0485 176.962 50.5585 182.707C49.6425 193.506 53.2965 228.473 55.4935 244.108L55.4845 244.099C58.6605 270.225 62.5535 270.27 68.2165 274.644C77.9535 282.167 105.958 296.913 115.205 300.552C131.966 307.149 145.668 296.977 155.886 291.931C166.095 286.894 178.645 279.027 182.947 275.905C185.497 274.045 186.822 272.166 186.794 270.188C186.785 269.408 186.803 266.195 186.803 265.37C186.794 262.847 184.58 260.143 179.888 257.103C171.231 251.486 139.942 233.237 127.818 226.522C127.8 226.431 127.718 226.422 127.718 226.422C118.389 220.76 112.774 182.263 106.313 161.782C106.177 161.346 106.041 160.92 105.896 160.512C105.787 160.185 105.669 159.867 105.56 159.559C105.152 158.443 104.734 157.427 104.289 156.492" fill="#0A5840"/>
<path d="M186.803 265.368C186.794 262.846 184.58 260.141 179.888 257.101C171.231 251.484 139.942 233.235 127.819 226.52C127.801 226.429 127.719 226.42 127.719 226.42C118.39 220.758 112.776 182.261 106.314 161.78C106.254 161.588 105.798 160.015 104.961 158.012C104.922 157.919 104.882 157.832 104.843 157.739C104.727 157.467 104.604 157.189 104.474 156.905C104.412 156.769 104.353 156.622 104.29 156.489L104.282 156.491C103.237 154.287 101.798 151.874 99.9698 150.264C99.8158 150.128 99.0868 149.414 97.8568 148.778C96.8068 148.186 94.6048 146.96 94.0538 146.637C87.7158 142.845 79.4048 147.395 69.0458 153.068C62.6048 156.6 57.1078 160.798 53.7628 168.621C52.1568 172.369 51.0488 176.96 50.5588 182.705C49.6418 193.504 53.2968 228.471 55.4938 244.106L55.4848 244.097C58.6608 270.223 62.5538 270.268 68.2168 274.642C77.9538 282.165 105.958 296.911 115.205 300.55C131.966 307.147 145.668 296.975 155.886 291.929C166.095 286.892 178.645 279.025 182.946 275.903C185.496 274.043 186.821 272.164 186.794 270.186C186.785 269.407 186.803 266.194 186.803 265.368Z" fill="#0A5840"/>
<path opacity="0.25" d="M186.803 265.368C186.794 262.846 184.58 260.141 179.888 257.101C171.231 251.484 139.942 233.235 127.819 226.52C127.801 226.429 127.719 226.42 127.719 226.42C118.39 220.758 112.776 182.261 106.314 161.78C106.254 161.588 105.798 160.015 104.961 158.012C104.922 157.919 104.882 157.832 104.843 157.739C104.727 157.467 104.604 157.189 104.474 156.905C104.412 156.769 104.353 156.622 104.29 156.489L104.282 156.491C103.237 154.287 101.798 151.874 99.9698 150.264C99.8158 150.128 99.0868 149.414 97.8568 148.778C96.8068 148.186 94.6048 146.96 94.0538 146.637C87.7158 142.845 79.4048 147.395 69.0458 153.068C62.6048 156.6 57.1078 160.798 53.7628 168.621C52.1568 172.369 51.0488 176.96 50.5588 182.705C49.6418 193.504 53.2968 228.471 55.4938 244.106L55.4848 244.097C58.6608 270.223 62.5538 270.268 68.2168 274.642C77.9538 282.165 105.958 296.911 115.205 300.55C131.966 307.147 145.668 296.975 155.886 291.929C166.095 286.892 178.645 279.025 182.946 275.903C185.496 274.043 186.821 272.164 186.794 270.186C186.785 269.407 186.803 266.194 186.803 265.368Z" fill="white"/>
<path d="M155.884 287.073C166.096 282.03 178.648 274.162 182.946 271.041C188.756 266.822 188.222 262.505 179.894 257.103C168.325 249.598 121.167 222.838 121.167 222.838C121.167 222.838 61.5467 258.022 64.1117 264.519C66.6767 271.016 103.579 291.117 115.204 295.69C131.971 302.286 145.672 292.116 155.884 287.073Z" fill="#0A5840"/>
<path opacity="0.6" d="M155.884 287.073C166.096 282.03 178.648 274.162 182.946 271.041C188.756 266.822 188.222 262.505 179.894 257.103C168.325 249.598 121.167 222.838 121.167 222.838C121.167 222.838 61.5467 258.022 64.1117 264.519C66.6767 271.016 103.579 291.117 115.204 295.69C131.971 302.286 145.672 292.116 155.884 287.073Z" fill="white"/>
<path d="M97.8586 148.78C91.5826 145.486 83.4276 149.964 73.3386 155.492C66.8766 159.035 61.3696 163.232 58.0246 171.087L53.7656 168.625C57.1106 160.802 62.6066 156.604 69.0486 153.072C79.4066 147.399 87.7186 142.849 94.0556 146.641C94.6066 146.961 96.8086 148.187 97.8586 148.78Z" fill="#0A5840"/>
<path opacity="0.5" d="M97.8586 148.78C91.5826 145.486 83.4276 149.964 73.3386 155.492C66.8766 159.035 61.3696 163.232 58.0246 171.087L53.7656 168.625C57.1106 160.802 62.6066 156.604 69.0486 153.072C79.4066 147.399 87.7186 142.849 94.0556 146.641C94.6066 146.961 96.8086 148.187 97.8586 148.78Z" fill="white"/>
<path d="M106.317 161.78C106.181 161.344 104.022 153.83 99.9742 150.264C99.6752 150.001 97.2112 147.65 93.1142 147.65C87.6332 147.65 81.0542 151.271 73.3412 155.49C72.6972 155.844 72.0612 156.207 71.4352 156.579C71.1902 156.715 70.9542 156.86 70.7182 157.005C70.4282 157.177 70.1462 157.359 69.8652 157.54C69.6562 157.667 69.4482 157.803 69.2392 157.948C67.8782 158.846 66.5802 159.826 65.3552 160.897C65.1552 161.069 64.9652 161.242 64.7742 161.432C64.0032 162.14 63.2682 162.902 62.5692 163.719C62.4422 163.864 62.3152 164.009 62.1972 164.155C62.0522 164.337 61.8982 164.518 61.7622 164.699C61.6172 164.881 61.4802 165.071 61.3352 165.262C61.1992 165.444 61.0632 165.634 60.9272 165.834C60.3822 166.614 59.8652 167.431 59.3842 168.302C59.3212 168.411 59.2572 168.52 59.2032 168.628C59.0762 168.855 58.9582 169.091 58.8402 169.327C58.6682 169.672 58.5042 170.017 58.3412 170.361C56.5812 174.236 55.3642 179.027 54.8472 185.125C53.3492 202.866 59.4272 261.49 65.5252 266.545C65.5252 266.545 64.5912 260.81 76.8592 253.087C85.1992 247.842 91.0522 243.432 99.9542 239.067C121.642 228.414 127.722 226.417 127.722 226.417C118.393 220.758 112.778 182.261 106.317 161.78Z" fill="#0A5840"/>
<path opacity="0.4" d="M106.317 161.78C106.181 161.344 104.022 153.83 99.9742 150.264C99.6752 150.001 97.2112 147.65 93.1142 147.65C87.6332 147.65 81.0542 151.271 73.3412 155.49C72.6972 155.844 72.0612 156.207 71.4352 156.579C71.1902 156.715 70.9542 156.86 70.7182 157.005C70.4282 157.177 70.1462 157.359 69.8652 157.54C69.6562 157.667 69.4482 157.803 69.2392 157.948C67.8782 158.846 66.5802 159.826 65.3552 160.897C65.1552 161.069 64.9652 161.242 64.7742 161.432C64.0032 162.14 63.2682 162.902 62.5692 163.719C62.4422 163.864 62.3152 164.009 62.1972 164.155C62.0522 164.337 61.8982 164.518 61.7622 164.699C61.6172 164.881 61.4802 165.071 61.3352 165.262C61.1992 165.444 61.0632 165.634 60.9272 165.834C60.3822 166.614 59.8652 167.431 59.3842 168.302C59.3212 168.411 59.2572 168.52 59.2032 168.628C59.0762 168.855 58.9582 169.091 58.8402 169.327C58.6682 169.672 58.5042 170.017 58.3412 170.361C56.5812 174.236 55.3642 179.027 54.8472 185.125C53.3492 202.866 59.4272 261.49 65.5252 266.545C65.5252 266.545 64.5912 260.81 76.8592 253.087C85.1992 247.842 91.0522 243.432 99.9542 239.067C121.642 228.414 127.722 226.417 127.722 226.417C118.393 220.758 112.778 182.261 106.317 161.78Z" fill="white"/>
<path d="M141.734 347.585L149.11 349.027L149.653 343.768L143.854 344.922L141.734 347.585Z" fill="black"/>
<path d="M142.206 332.967C142.206 332.967 139.564 336.717 138.752 337.912C137.941 339.107 140.82 346.153 141.731 347.585L143.85 344.921C144.274 346.736 144.067 348.578 143.979 351.423C143.905 353.795 143.147 357.9 144.524 361.866C146.569 367.754 151.928 373.409 158.319 377.681C164.71 381.952 169.444 382.656 172.177 382.385C174.91 382.114 176.523 380.819 177.083 378.872C177.645 376.925 142.206 332.967 142.206 332.967Z" fill="#263238"/>
<path d="M167.897 330.457L169.372 328.244C170.599 328.952 168.724 332.316 168.709 336.274C168.689 341.596 169.181 348.582 170.651 353.717C173.553 363.848 177.128 371.292 178.408 375.838C180.122 381.919 169.599 383.412 159.297 376.231C154.184 372.666 146.418 364.199 145.706 359.437C144.994 354.676 146.379 348.796 145.665 345.216C144.951 341.636 141.82 336.541 142.204 332.967C142.415 331.004 144.98 327.701 147.269 324.96C149.37 322.446 152.062 318.265 153.406 319.568L152.64 321.056C152.531 322.656 152.775 325.557 156.601 328.912C158.512 330.587 164.754 334.702 167.897 330.457Z" fill="#37474F"/>
<path opacity="0.15" d="M159.96 331.139C162.106 332.221 164.717 332.899 166.705 331.589C166.729 331.573 166.755 331.568 166.778 331.552C166.778 331.552 164.943 333.338 165.473 336.748C166.003 340.158 168.343 363.339 168.343 363.339C168.343 363.339 165.137 343.43 164.494 339.657C163.543 334.078 162.794 333.033 159.945 331.137C159.951 331.138 159.955 331.139 159.96 331.139Z" fill="black"/>
<path opacity="0.15" d="M160.051 336.956C159.79 337.29 159.308 337.349 158.975 337.088C158.641 336.827 158.582 336.345 158.843 336.012C159.103 335.678 159.585 335.619 159.919 335.88C160.252 336.141 160.312 336.623 160.051 336.956Z" fill="black"/>
<path opacity="0.15" d="M161.051 342.379C160.791 342.713 160.308 342.772 159.975 342.511C159.641 342.25 159.582 341.768 159.843 341.435C160.104 341.101 160.585 341.042 160.919 341.303C161.253 341.564 161.312 342.046 161.051 342.379Z" fill="black"/>
<path opacity="0.15" d="M162.051 347.803C161.791 348.137 161.309 348.196 160.975 347.935C160.641 347.675 160.582 347.193 160.843 346.859C161.104 346.525 161.585 346.466 161.919 346.727C162.252 346.988 162.312 347.47 162.051 347.803Z" fill="black"/>
<path opacity="0.15" d="M163.058 353.229C162.797 353.562 162.315 353.622 161.982 353.361C161.649 353.101 161.589 352.619 161.85 352.285C162.111 351.952 162.593 351.892 162.927 352.153C163.26 352.413 163.319 352.894 163.058 353.229Z" fill="black"/>
<path opacity="0.15" d="M164.058 358.651C163.797 358.985 163.315 359.044 162.982 358.783C162.649 358.523 162.589 358.041 162.85 357.707C163.11 357.373 163.592 357.314 163.926 357.575C164.259 357.836 164.318 358.318 164.058 358.651Z" fill="black"/>
<path d="M159.266 336.733C159.208 336.69 159.164 336.627 159.148 336.552C159.11 336.385 159.214 336.22 159.381 336.183C159.593 336.135 164.6 335.044 168.56 337.816C168.56 337.816 168.563 337.818 168.565 337.819C168.7 337.918 168.732 338.107 168.635 338.245C168.537 338.384 168.345 338.418 168.205 338.32C164.467 335.705 159.566 336.773 159.517 336.784C159.426 336.805 159.335 336.784 159.266 336.733Z" fill="#263238"/>
<path d="M160.274 342.145C160.216 342.102 160.172 342.039 160.156 341.964C160.118 341.797 160.222 341.632 160.388 341.595C160.6 341.547 165.606 340.455 169.567 343.228C169.567 343.228 169.57 343.23 169.572 343.231C169.707 343.33 169.739 343.519 169.642 343.657C169.545 343.796 169.352 343.83 169.212 343.732C165.481 341.12 160.573 342.185 160.524 342.196C160.433 342.217 160.343 342.196 160.274 342.145Z" fill="#263238"/>
<path d="M161.266 347.581C161.208 347.538 161.165 347.475 161.148 347.4C161.11 347.233 161.215 347.068 161.381 347.031C161.593 346.983 166.599 345.892 170.56 348.664C170.56 348.664 170.563 348.666 170.565 348.667C170.7 348.766 170.732 348.955 170.635 349.093C170.538 349.232 170.346 349.267 170.205 349.168C166.474 346.557 161.566 347.621 161.517 347.632C161.426 347.653 161.336 347.632 161.266 347.581Z" fill="#263238"/>
<path d="M162.267 353.003C162.209 352.96 162.165 352.897 162.148 352.822C162.11 352.655 162.214 352.491 162.381 352.453C162.593 352.405 167.6 351.312 171.56 354.085C171.56 354.085 171.563 354.087 171.565 354.088C171.7 354.187 171.732 354.376 171.635 354.514C171.537 354.653 171.345 354.687 171.205 354.589C167.473 351.977 162.565 353.043 162.517 353.054C162.427 353.075 162.336 353.054 162.267 353.003Z" fill="#263238"/>
<path d="M163.274 358.429C163.216 358.386 163.172 358.323 163.156 358.248C163.118 358.081 163.223 357.916 163.389 357.879C163.601 357.831 168.607 356.739 172.568 359.512C172.568 359.512 172.571 359.514 172.573 359.516C172.708 359.615 172.74 359.804 172.643 359.942C172.545 360.081 172.353 360.115 172.213 360.017C168.481 357.405 163.574 358.47 163.525 358.481C163.433 358.501 163.343 358.48 163.274 358.429Z" fill="#263238"/>
<path d="M177.453 399.659L184.552 396.424L181.835 391.654L177.634 396.13L177.453 399.659Z" fill="black"/>
<path d="M169.031 387.027C169.031 387.027 169.064 391.79 169.101 393.288C169.138 394.787 175.823 398.999 177.456 399.658L177.637 396.129C179.091 397.405 180.028 399.086 181.671 401.542C183.041 403.59 184.879 407.514 188.437 410.032C193.719 413.77 201.659 415.31 209.635 415.058C217.611 414.807 222.034 412.542 224.179 410.663C226.324 408.784 226.903 406.717 226.201 404.734C225.498 402.753 169.031 387.027 169.031 387.027Z" fill="#263238"/>
<path d="M189.213 369.396L189.122 366.637C190.585 366.494 191.033 370.467 193.41 373.818C196.607 378.324 201.239 383.927 205.581 387.376C214.149 394.18 221.662 398.306 225.487 401.373C230.605 405.474 222.62 413.088 209.585 413.243C203.115 413.319 191.445 410.857 187.969 407.266C184.494 403.675 182.112 397.874 179.348 395.281C176.584 392.689 170.863 390.277 169.029 387.027C168.022 385.241 168.194 380.903 168.473 377.207C168.729 373.816 168.479 368.66 170.4 368.948L170.652 370.667C171.526 372.084 173.483 374.386 178.741 374.91C181.367 375.173 189.123 374.879 189.213 369.396Z" fill="#37474F"/>
<path d="M182.926 374.763C185.392 374.381 188.006 373.378 188.893 371.071C188.904 371.044 188.923 371.024 188.933 370.996C188.933 370.996 188.462 373.612 190.968 376.172C193.474 378.731 209.447 396.895 209.447 396.895C209.447 396.895 194.72 382.018 191.899 379.219C187.728 375.082 186.465 374.652 182.914 374.77C182.918 374.768 182.922 374.766 182.926 374.763Z" fill="#263238"/>
<path opacity="0.15" d="M186.513 379.621C186.494 380.06 186.123 380.401 185.684 380.383C185.245 380.364 184.904 379.993 184.923 379.554C184.942 379.115 185.313 378.774 185.752 378.792C186.191 378.811 186.532 379.182 186.513 379.621Z" fill="black"/>
<path opacity="0.15" d="M190.63 383.596C190.612 384.035 190.24 384.376 189.801 384.357C189.362 384.338 189.021 383.967 189.04 383.528C189.059 383.089 189.43 382.748 189.869 382.766C190.308 382.785 190.649 383.157 190.63 383.596Z" fill="black"/>
<path opacity="0.15" d="M194.755 387.572C194.736 388.011 194.365 388.352 193.926 388.333C193.487 388.314 193.146 387.943 193.165 387.504C193.184 387.065 193.555 386.724 193.994 386.743C194.433 386.761 194.774 387.132 194.755 387.572Z" fill="black"/>
<path opacity="0.15" d="M198.872 391.549C198.853 391.988 198.482 392.329 198.043 392.31C197.604 392.292 197.263 391.92 197.282 391.481C197.301 391.042 197.672 390.701 198.111 390.719C198.549 390.738 198.89 391.109 198.872 391.549Z" fill="black"/>
<path opacity="0.15" d="M202.997 395.523C202.978 395.962 202.607 396.303 202.168 396.284C201.729 396.265 201.388 395.894 201.407 395.455C201.426 395.016 201.797 394.675 202.236 394.694C202.674 394.713 203.016 395.084 202.997 395.523Z" fill="black"/>
<path d="M185.715 379.909C185.64 379.908 185.565 379.881 185.506 379.828C185.373 379.71 185.362 379.507 185.48 379.376C185.629 379.207 189.2 375.264 194.217 375.213C194.217 375.213 194.221 375.213 194.223 375.213C194.397 375.215 194.538 375.355 194.54 375.531C194.542 375.707 194.4 375.852 194.222 375.854C189.486 375.903 185.993 379.764 185.958 379.802C185.893 379.873 185.804 379.91 185.715 379.909Z" fill="#263238"/>
<path d="M189.832 383.87C189.757 383.869 189.682 383.842 189.623 383.789C189.49 383.671 189.479 383.468 189.597 383.337C189.747 383.168 193.315 379.224 198.334 379.174C198.334 379.174 198.338 379.174 198.34 379.174C198.514 379.176 198.655 379.317 198.657 379.492C198.659 379.668 198.517 379.813 198.339 379.815C193.611 379.862 190.11 383.725 190.075 383.763C190.011 383.834 189.921 383.871 189.832 383.87Z" fill="#263238"/>
<path d="M193.949 387.86C193.874 387.859 193.799 387.832 193.74 387.779C193.608 387.661 193.596 387.459 193.714 387.327C193.864 387.158 197.432 383.214 202.451 383.164C202.451 383.164 202.455 383.164 202.457 383.164C202.631 383.166 202.772 383.306 202.774 383.482C202.776 383.659 202.634 383.803 202.456 383.805C197.728 383.852 194.227 387.715 194.192 387.753C194.127 387.825 194.038 387.861 193.949 387.86Z" fill="#263238"/>
<path d="M198.074 391.836C197.999 391.835 197.924 391.808 197.865 391.755C197.733 391.637 197.721 391.436 197.839 391.303C197.989 391.135 201.557 387.189 206.576 387.139C206.576 387.139 206.58 387.139 206.582 387.139C206.756 387.141 206.897 387.281 206.899 387.456C206.901 387.633 206.759 387.777 206.581 387.779C201.853 387.827 198.351 391.69 198.317 391.729C198.252 391.801 198.163 391.837 198.074 391.836Z" fill="#263238"/>
<path d="M202.192 395.811C202.117 395.81 202.042 395.783 201.983 395.73C201.85 395.612 201.839 395.409 201.957 395.278C202.107 395.11 205.675 391.165 210.694 391.115C210.694 391.115 210.698 391.115 210.7 391.115C210.874 391.117 211.015 391.257 211.017 391.433C211.019 391.61 210.877 391.754 210.699 391.756C205.971 391.803 202.469 395.666 202.435 395.704C202.37 395.776 202.281 395.812 202.192 395.811Z" fill="#263238"/>
<path d="M182.15 327.997C184.565 319.692 188.236 306.983 190.573 298.488C194.303 284.933 196.861 270.835 195.619 264.236C193.947 255.354 185.261 246.214 172.708 237.747C158.999 228.501 140.95 216.422 140.95 216.422L66.8143 217.371C67.0273 229.325 65.1393 238.672 69.4093 250.029C73.1763 260.047 79.4803 265.782 98.8283 277.207C112.556 285.313 128.624 294.454 132.097 296.731C136.496 299.615 140.647 301.924 141.986 309.434C143.261 316.589 144.665 329.008 151.761 344.448C159.888 362.13 167.132 377.86 167.132 377.86C167.132 377.86 182.953 381.428 193.006 369.789C193.008 369.789 187.815 349.526 182.15 327.997Z" fill="#455A64"/>
<path d="M181.893 326.057C176.558 305.872 171.137 285.887 169.473 281.558C165.927 272.37 129.778 244.713 128.656 243.818C128.645 243.803 135.93 239.889 140.219 228.871C139.881 237.87 135.875 241.914 134.571 244.132C140.041 248.65 152.42 258.24 157.969 263.092C164.942 269.197 172.272 276.457 174.608 285.927C176.332 292.954 180.076 315.069 181.893 326.057Z" fill="#37474F"/>
<path d="M174.891 166.121C185.222 157.216 188.194 154.747 189.207 151.697C190.221 148.647 190.126 145.971 190.613 141.096C191.1 136.221 191.749 131.672 192.057 129.136C192.385 126.432 194.106 125.596 196.079 128.178C197.786 130.411 197.284 133.978 197.498 136.427C197.751 139.333 199.299 139.046 200.927 137.092C202.554 135.138 210.232 125.343 213.003 122.501C215.774 119.659 217.908 120.077 218.815 121.359C219.331 122.088 217.903 123.801 214.547 128.267C211.191 132.733 209.37 134.903 209.689 135.143C210.008 135.382 211.928 133.084 215.922 129.035C219.595 125.311 220.652 124.197 222.602 123.268C224.912 122.168 226.173 124.498 225.005 126.007C223.759 127.617 222.986 128.641 217.857 134.31C214.294 138.248 214.063 138.801 214.349 139.088C214.635 139.374 216.3 137.92 220.207 134.58C224.357 131.032 226.491 129.889 227.939 130.97C228.312 131.249 228.515 132.095 228.189 132.656C227.658 133.571 226.72 134.787 224.038 137.088C221.443 139.314 220.611 140.163 219.3 141.303C217.955 142.473 217.809 142.932 218.125 143.248C218.441 143.564 220.824 142.138 225.683 138.364C227.408 137.024 229.673 139.36 226.464 142.312C224.741 143.897 217.349 151.404 213.191 155.234C208.538 159.519 205.052 160.839 201.325 164.649C197.997 168.051 185.014 181.969 185.014 181.969L174.891 166.121Z" fill="#B16668"/>
<path d="M199.622 141.699C201.916 146.249 201.469 153.392 198.664 157.354C203.199 154.913 204.52 146.501 199.622 141.699Z" fill="#9A4A4D"/>
<path d="M125.76 171.153L121.148 130.412C131.132 131.81 135.4 134.345 142.655 144.384C146.704 149.987 155.831 162.181 164.358 173.251L184.798 155.672C184.798 155.672 194.919 163.019 197.496 171.258C197.496 171.258 173.704 196.282 168.351 200.754C163.467 204.834 159.751 207.323 151.664 199.682C143.579 192.041 127.976 174.304 125.76 171.153Z" fill="#F0F0F0"/>
<path d="M189.693 171.323C188.481 169.845 187.173 168.439 185.797 167.113C184.338 165.708 182.737 164.338 180.829 163.593C180.411 163.43 180.177 163.882 180.535 164.152C183.573 166.437 186.296 169.001 188.703 171.952C189.78 173.272 190.775 174.666 191.637 176.137C191.79 176.398 191.931 176.665 192.073 176.931C192.359 176.633 192.64 176.341 192.909 176.06C192.009 174.369 190.906 172.803 189.693 171.323Z" fill="#E0E0E0"/>
<path d="M164.359 173.251C160.025 176.83 155.999 183.25 155.702 188.061C155.36 180.556 157.904 175.375 162.746 171.154L164.359 173.251Z" fill="#E0E0E0"/>
<path d="M61.7453 141.849C61.7453 141.849 55.3323 152.419 59.3423 169.666C62.4883 183.196 65.1633 188.324 65.7343 202.447C66.4763 220.793 66.2043 237.259 66.2043 237.259C90.8473 245.523 133.819 231.371 140.951 216.422C140.951 216.422 138.391 204.218 133.754 153.949C132.649 141.968 125.572 133.724 121.145 130.412L108.471 128.89L90.7203 128.672L80.5893 132.572L61.7453 141.849Z" fill="#FAFAFA"/>
<path d="M124.137 75.1527C120.341 68.7737 113.952 65.0047 103.022 65.5717C89.6801 66.2637 82.7561 72.7597 81.8011 78.2107L81.8111 78.2207C80.4721 78.7197 78.3721 79.9527 76.7891 82.9847C75.5271 85.4037 74.6181 89.8157 78.0451 102.441C80.2501 110.567 82.9091 114.112 84.0931 116.374C85.2771 118.636 87.7121 119.272 87.7121 119.272L87.4751 109.572L87.1241 105.703C87.1241 105.703 91.8781 105.305 91.9401 92.0317C91.9481 90.2317 92.1301 88.7617 92.0661 87.5507L125.413 89.7797C125.412 89.7827 127.933 81.5317 124.137 75.1527Z" fill="#263238"/>
<path d="M78.607 112.4C82.402 114.362 85.929 110.878 85.929 110.878L86.653 130.882C86.653 130.882 87.042 134.738 93.188 138.132C101.904 142.946 107.416 143.612 111.155 148.752C113.974 140.133 115.386 135.8 109.812 129.263L109.799 123.868C109.799 123.868 114.497 124.064 117.959 123.062C123.25 121.531 125.235 118.716 126.235 113.566C127.644 106.309 127.169 96.9321 124.5 84.7911C123.985 82.4471 122.742 80.2671 120.827 78.8211C114.949 74.3831 106.203 78.6471 98.758 81.5361C95.675 82.7331 89.574 82.9801 87.604 82.0521C90.197 84.9211 90.795 92.0491 89.301 99.2391C88.785 101.723 87.925 102.22 87.381 102.206C85.224 102.152 84.424 99.4891 83.058 98.0561C81.679 96.6341 76.553 95.3481 74.336 100.05C72.096 104.838 74.007 110.021 78.607 112.4Z" fill="#B16668"/>
<path d="M109.802 123.869C102.546 123.459 97.4049 122.196 94.6199 120.05C90.8289 117.129 88.4219 112.316 88.4219 112.316C88.4219 112.316 89.5019 119.174 93.4959 122.357C97.4899 125.54 102.221 127.277 109.806 127.277L109.802 123.869Z" fill="#9A4A4D"/>
<path d="M105.368 90.7988L100.062 91.5138C99.9045 90.0078 100.966 88.6268 102.43 88.4298C103.896 88.2328 105.211 89.2928 105.368 90.7988Z" fill="#263238"/>
<path d="M101.665 96.8657C101.706 98.0697 102.716 99.0127 103.92 98.9717C105.124 98.9307 106.067 97.9207 106.026 96.7167C105.984 95.5127 104.975 94.5697 103.771 94.6107C102.566 94.6517 101.623 95.6617 101.665 96.8657Z" fill="#263238"/>
<path d="M117.953 88.8126L122.965 90.6966C123.455 89.2646 122.73 87.6806 121.346 87.1606C119.961 86.6406 118.443 87.3796 117.953 88.8126Z" fill="#263238"/>
<path d="M122.323 95.4575C122.282 96.6615 121.272 97.6045 120.068 97.5635C118.864 97.5225 117.921 96.5125 117.962 95.3085C118.004 94.1045 119.013 93.1615 120.217 93.2025C121.422 93.2435 122.365 94.2535 122.323 95.4575Z" fill="#263238"/>
<path d="M110.391 91.416L112.17 105.307L119.51 102.609C116.907 97.707 113.866 93.977 110.391 91.416Z" fill="#9A4A4D"/>
<path d="M106.719 109.029L114.113 110.37C113.788 112.478 111.87 113.887 109.828 113.517C107.785 113.147 106.394 111.137 106.719 109.029Z" fill="#9A4A4D"/>
<path d="M107.643 110.197C107.33 110.173 107.028 110.195 106.734 110.238C106.98 111.855 108.184 113.218 109.826 113.516C110.238 113.591 110.64 113.576 111.03 113.514C111.089 111.82 109.604 110.346 107.643 110.197Z" fill="#F28F8F"/>
<path d="M114.282 147.216C114.282 147.216 117.14 140.747 116.975 138.302L112.722 134.473L112.172 144.748L114.282 147.216Z" fill="#0A5840"/>
<path opacity="0.2" d="M114.282 147.216C114.282 147.216 117.14 140.747 116.975 138.302L112.722 134.473L112.172 144.748L114.282 147.216Z" fill="black"/>
<path d="M108.704 145.384L101.624 141.238L96.2344 145.416L106.99 150.026L108.704 145.384Z" fill="#0A5840"/>
<path opacity="0.2" d="M108.704 145.384L101.624 141.238L96.2344 145.416L106.99 150.026L108.704 145.384Z" fill="black"/>
<path d="M110.499 197.035C109.566 175.19 110.4 158.517 109.641 153.241L113.322 152.629C116.32 158.82 125.833 177.176 126.659 192.259C127.193 197.498 124.677 209.615 121.145 209.979C117.612 210.344 110.636 200.239 110.499 197.035Z" fill="#0A5840"/>
<path opacity="0.1" d="M110.499 197.035C109.566 175.19 110.4 158.517 109.641 153.241L113.322 152.629C116.32 158.82 125.833 177.176 126.659 192.259C127.193 197.498 124.677 209.615 121.145 209.979C117.612 210.344 110.636 200.239 110.499 197.035Z" fill="white"/>
<path opacity="0.2" d="M113.705 153.415C113.547 153.091 113.441 152.875 113.326 152.637C113.325 152.635 113.323 152.633 113.322 152.631L109.641 153.243C109.705 153.689 109.745 154.138 109.803 154.845C111.159 154.964 113.011 154.023 113.705 153.415Z" fill="black"/>
<path d="M108.576 144.879C110.158 144.475 112.067 144.496 112.067 144.496C112.067 144.496 113.434 145.508 114.285 147.216C114.285 147.216 114.442 150.483 113.325 152.63C113.325 152.63 111.956 153.757 109.644 153.242C109.644 153.242 107.461 151.889 106.736 149.858C106.519 148.084 107.785 145.444 108.576 144.879Z" fill="#0A5840"/>
<path opacity="0.1" d="M108.576 144.879C110.158 144.475 112.067 144.496 112.067 144.496C112.067 144.496 113.434 145.508 114.285 147.216C114.285 147.216 114.442 150.483 113.325 152.63C113.325 152.63 111.956 153.757 109.644 153.242C109.644 153.242 107.461 151.889 106.736 149.858C106.519 148.084 107.785 145.444 108.576 144.879Z" fill="white"/>
<path d="M108.653 144.859C108.534 144.872 108.395 145.157 108.277 145.185C105.609 143.951 105.169 143.504 104.496 143.741C103.22 144.19 100.49 149.783 99.8377 151.576C99.1687 153.355 99.3177 153.339 96.8367 151.9C92.0327 149.096 87.8787 145.29 85.4017 142.139C81.9347 137.731 80.5938 132.571 80.5938 132.571C80.5938 132.571 82.6757 129.902 83.3857 128.421C84.7577 125.557 84.8357 124.258 86.4247 124.403L86.4947 126.334C86.9127 128.733 90.7607 130.882 94.3158 133.594C97.8727 136.321 103.497 138.75 104.862 139.916C105.859 140.761 107.343 142.796 108.653 144.859Z" fill="#E6E6E6"/>
<path d="M121.048 146.166C120.726 147.171 117.128 139.654 115.6 139.909C114.861 140.014 113.322 142.207 112.072 144.497C112.072 144.497 111.18 144.526 111.021 144.53C111.813 142.157 112.165 140.123 112.257 138.559C112.412 135.916 109.822 129.266 109.822 129.266L109.812 126.225C110.22 126.222 111.144 126.179 111.662 126.164C112.075 126.534 112.889 128.121 113.676 129.101C115.485 131.354 119.626 134.629 120.3 137.544C121.382 142.216 121.175 145.791 121.048 146.166Z" fill="#E6E6E6"/>
<path d="M66.188 139.666C56.669 142.949 49.075 147.128 46.789 156.378C44.502 165.629 42.446 187.84 41.23 201.223C40.188 212.692 41.574 222.851 44.996 227.246L66.997 213.759L72.882 177.231C72.882 177.231 76.032 149.673 66.188 139.666Z" fill="#F0F0F0"/>
<path d="M66.5691 196.463C65.0031 199.526 62.8771 200.963 58.2371 204.06C53.9121 206.947 48.8281 209.829 46.7891 215.312C46.8941 210.511 49.1031 207.812 54.4101 203.671C59.7171 199.53 67.6341 194.377 67.6341 194.377L66.5691 196.463Z" fill="#E0E0E0"/>
<path d="M66.5699 196.463C65.0039 199.526 62.8779 200.963 58.2379 204.06C53.9129 206.947 48.8289 209.829 46.7899 215.312C44.9939 220.139 42.8759 224.256 44.9969 227.247C46.4579 229.307 53.1889 229.724 59.3019 228.376C65.4149 227.028 68.8089 222.635 74.3579 217.274C79.1169 212.677 80.9229 210.796 80.9229 210.796L66.5699 196.463Z" fill="#F0F0F0"/>
<path d="M75.48 199.453C72.869 197.736 72.017 195.614 68.432 194.452C64.848 193.29 62.84 193.776 59.066 192.743C55.292 191.711 52.343 191.394 49.94 192.764C47.537 194.135 48.249 195.528 50.437 196.346C52.625 197.163 56.278 198.073 58.935 199.279C61.592 200.484 64.046 200.974 64.659 203.897C65.272 206.82 66.119 212.927 66.506 217.956C66.893 222.985 66.745 227.155 67.223 227.608C67.701 228.06 69.852 227.866 70.576 224.861C71.3 221.856 70.906 211.537 70.906 211.537C70.906 211.537 73.291 218.26 74.667 222.945C76.043 227.63 76.958 231.237 77.303 232.227C77.648 233.217 80.865 231.733 80.662 228.026C80.459 224.32 77.542 213.806 77.542 213.806C77.542 213.806 81.356 218.075 83.815 220.845C86.274 223.616 89.398 227.436 90.353 228.34C91.309 229.245 93.062 226.927 91.954 224.176C90.846 221.425 85.727 215.185 85.727 215.185C85.727 215.185 91.118 218.898 91.988 219.192C92.859 219.486 95.138 218.627 93.674 215.639C92.695 213.642 91.07 212.576 86.666 209.245C82.262 205.915 81.955 204.219 80.462 202.585C78.503 200.439 77.375 200.7 75.48 199.453Z" fill="#B16668"/>
<path d="M67 202.941C70.865 203.775 74.004 201.465 74.301 200.486C74.574 202.972 70.01 205.407 67 202.941Z" fill="#9A4A4D"/>
<path d="M94.1466 217.445C93.9096 217.961 92.9366 218.314 91.8896 217.754C90.8386 217.192 88.1276 215.18 86.8916 214.246C85.6566 213.312 81.3906 209.977 81.3906 209.977L85.7246 215.186C85.7246 215.186 91.1156 218.899 91.9856 219.193C92.6466 219.415 94.1126 218.973 94.1466 217.445Z" fill="#9A4A4D"/>
<path d="M317.419 307.182L330.828 423.534H330.833C330.846 423.97 331.136 424.403 331.711 424.735C332.889 425.415 334.797 425.415 335.975 424.735C336.55 424.403 336.841 423.969 336.853 423.534H336.857L325.946 307.183C325.947 306.552 325.531 305.921 324.697 305.44C323.032 304.478 320.332 304.478 318.667 305.44C317.835 305.921 317.419 306.551 317.419 307.182ZM168.523 423.534H168.527C168.54 423.97 168.83 424.403 169.405 424.735C170.582 425.415 172.491 425.415 173.669 424.735C174.245 424.403 174.534 423.969 174.547 423.534H174.552L187.961 307.182C187.961 306.552 187.545 305.921 186.712 305.441C185.047 304.479 182.347 304.479 180.682 305.441C179.849 305.922 179.433 306.553 179.434 307.184L168.523 423.534ZM248.066 325.106L249.437 451.096H249.442C249.456 451.574 249.774 452.05 250.406 452.414C251.698 453.16 253.793 453.16 255.085 452.414C255.717 452.049 256.035 451.574 256.049 451.096H256.054L257.425 325.105C257.425 324.414 256.968 323.722 256.055 323.194C254.228 322.139 251.265 322.139 249.437 323.194C248.522 323.722 248.065 324.414 248.066 325.106Z" fill="#0A5840"/>
<g opacity="0.3">
<path d="M317.419 307.182L330.828 423.534H330.833C330.846 423.97 331.136 424.403 331.711 424.735C332.889 425.415 334.797 425.415 335.975 424.735C336.55 424.403 336.841 423.969 336.853 423.534H336.857L325.946 307.183C325.947 306.552 325.531 305.921 324.697 305.44C323.032 304.478 320.332 304.478 318.667 305.44C317.835 305.921 317.419 306.551 317.419 307.182ZM168.523 423.534H168.527C168.54 423.97 168.83 424.403 169.405 424.735C170.582 425.415 172.491 425.415 173.669 424.735C174.245 424.403 174.534 423.969 174.547 423.534H174.552L187.961 307.182C187.961 306.552 187.545 305.921 186.712 305.441C185.047 304.479 182.347 304.479 180.682 305.441C179.849 305.922 179.433 306.553 179.434 307.184L168.523 423.534ZM248.066 325.106L249.437 451.096H249.442C249.456 451.574 249.774 452.05 250.406 452.414C251.698 453.16 253.793 453.16 255.085 452.414C255.717 452.049 256.035 451.574 256.049 451.096H256.054L257.425 325.105C257.425 324.414 256.968 323.722 256.055 323.194C254.228 322.139 251.265 322.139 249.437 323.194C248.522 323.722 248.065 324.414 248.066 325.106Z" fill="black"/>
</g>
<g opacity="0.15">
<path d="M248.431 358.916L248.063 325.107C248.062 324.415 248.519 323.723 249.433 323.194C251.26 322.139 254.223 322.139 256.051 323.194C256.965 323.722 257.422 324.413 257.421 325.105L257.053 358.913C254.195 358.985 251.29 358.985 248.431 358.916Z" fill="black"/>
<path d="M179.434 307.183C179.433 306.552 179.849 305.921 180.682 305.44C182.347 304.478 185.047 304.478 186.712 305.44C187.545 305.921 187.961 306.551 187.961 307.181L183.828 343.036C183.198 342.69 182.557 342.356 181.938 341.999C180.044 340.905 178.203 339.703 176.492 338.547L179.434 307.183Z" fill="black"/>
<path d="M318.671 305.44C320.336 304.478 323.036 304.478 324.701 305.44C325.534 305.921 325.95 306.552 325.95 307.183L328.894 338.577C327.165 339.748 325.306 340.961 323.389 342.068C322.791 342.413 322.17 342.737 321.561 343.071L317.422 307.182C317.422 306.551 317.838 305.921 318.671 305.44Z" fill="black"/>
</g>
<path d="M323.635 251.706C284.436 229.074 220.881 229.074 181.682 251.706C162.082 263.022 152.298 277.853 152.305 292.685C152.306 295.731 152.307 292.52 152.305 295.565C152.298 310.396 162.082 325.227 181.683 336.544C220.883 359.176 284.436 359.176 323.636 336.544C343.236 325.228 353.02 310.397 353.013 295.565C353.012 292.52 353.012 295.73 353.013 292.684C353.019 277.853 343.235 263.023 323.635 251.706Z" fill="#0A5840"/>
<path opacity="0.2" d="M323.635 251.706C284.436 229.074 220.881 229.074 181.682 251.706C162.082 263.022 152.298 277.853 152.305 292.685C152.306 295.731 152.307 292.52 152.305 295.565C152.298 310.396 162.082 325.227 181.683 336.544C220.883 359.176 284.436 359.176 323.636 336.544C343.236 325.228 353.02 310.397 353.013 295.565C353.012 292.52 353.012 295.73 353.013 292.684C353.019 277.853 343.235 263.023 323.635 251.706Z" fill="black"/>
<path d="M323.721 244.185C284.522 221.553 220.967 221.553 181.768 244.185C162.168 255.501 152.385 270.332 152.391 285.163C152.392 288.209 152.392 287.059 152.391 290.105C152.384 304.937 162.168 319.768 181.769 331.084C220.968 353.716 284.522 353.716 323.722 331.084C343.322 319.768 353.106 302.875 353.099 288.044C353.098 284.998 353.098 288.209 353.099 285.163C353.105 270.331 343.322 255.501 323.721 244.185Z" fill="#0A5840"/>
<path opacity="0.4" d="M323.721 244.185C284.522 221.553 220.967 221.553 181.768 244.185C162.168 255.501 152.385 270.332 152.391 285.163C152.392 288.209 152.392 287.059 152.391 290.105C152.384 304.937 162.168 319.768 181.769 331.084C220.968 353.716 284.522 353.716 323.722 331.084C343.322 319.768 353.106 302.875 353.099 288.044C353.098 284.998 353.098 288.209 353.099 285.163C353.105 270.331 343.322 255.501 323.721 244.185Z" fill="white"/>
<path opacity="0.1" d="M323.721 244.185C284.522 221.553 220.967 221.553 181.768 244.185C162.168 255.501 152.385 270.332 152.391 285.163C152.392 288.209 152.392 287.059 152.391 290.105C152.384 304.937 162.168 319.768 181.769 331.084C220.968 353.716 284.522 353.716 323.722 331.084C343.322 319.768 353.106 302.875 353.099 288.044C353.098 284.998 353.098 288.209 353.099 285.163C353.105 270.331 343.322 255.501 323.721 244.185Z" fill="black"/>
<path d="M252.743 343.115C308.179 343.115 353.119 317.169 353.119 285.163C353.119 253.157 308.179 227.211 252.743 227.211C197.307 227.211 152.367 253.157 152.367 285.163C152.367 317.169 197.307 343.115 252.743 343.115Z" fill="#0A5840"/>
<path opacity="0.85" d="M252.743 343.115C308.179 343.115 353.119 317.169 353.119 285.163C353.119 253.157 308.179 227.211 252.743 227.211C197.307 227.211 152.367 253.157 152.367 285.163C152.367 317.169 197.307 343.115 252.743 343.115Z" fill="white"/>
<path opacity="0.2" d="M224.758 266.958L267.782 242.12C268.547 241.679 269.49 241.679 270.255 242.12L344.895 285.219C345.261 285.431 345.261 285.96 344.895 286.171L301.467 311.248L224.758 266.958Z" fill="#0A5840"/>
<path d="M227.969 261.727V262.694C227.969 264.111 228.724 265.422 229.955 266.137L299.481 306.276C300.09 306.633 300.785 306.802 301.46 306.802C302.149 306.802 302.837 306.63 303.46 306.272L341.358 284.463C342.576 283.761 343.34 282.437 343.34 281.02V279.682H343.332V279.695C343.332 279.867 343.252 280.026 343.08 280.132L301.461 304.166L227.969 261.727Z" fill="#37474F"/>
<path d="M227.961 261.724L269.186 237.925C269.919 237.502 270.822 237.502 271.555 237.925L343.073 279.222C343.424 279.425 343.424 279.932 343.073 280.134L301.462 304.162L227.961 261.724Z" fill="#455A64"/>
<path d="M301.843 300.662L324.078 287.837L259.062 250.301L236.711 263.058L301.843 300.662Z" fill="#37474F"/>
<path d="M236.711 263.056L237.56 263.545L259.063 251.276L323.224 288.327L324.073 287.839L259.063 250.299L236.711 263.056Z" fill="#263238"/>
<path d="M312.772 264.988L312.362 265.224L301.464 271.515L282.083 260.325L281.68 260.096L292.988 253.568L312.772 264.988Z" fill="#263238"/>
<path d="M312.357 265.223L301.459 271.514L282.078 260.324L292.983 254.033L312.357 265.223Z" fill="#37474F"/>
<path d="M301.461 304.16V306.804C300.779 306.804 300.09 306.63 299.478 306.276L229.951 266.136C228.719 265.426 227.961 264.111 227.961 262.692V261.725L301.461 304.16Z" fill="#263238"/>
<path d="M300.35 304.746C299.034 305.254 297.539 305.157 296.293 304.432L227.072 264.467C225.854 263.764 225.019 262.56 224.782 261.176L217.204 215.984C217.162 215.727 217.141 215.469 217.141 215.212C217.141 213.953 217.642 212.749 218.533 211.865L290.468 253.403C291.366 253.925 291.985 254.816 292.159 255.839L300.35 304.746Z" fill="#37474F"/>
<path d="M301.468 304.161L300.995 304.432C300.786 304.55 300.571 304.655 300.348 304.746L292.157 255.838C291.983 254.815 291.364 253.925 290.466 253.402L218.531 211.864C218.809 211.585 219.136 211.342 219.491 211.133L291.572 252.748C292.469 253.27 293.089 254.161 293.263 255.184L301.468 304.161Z" fill="#455A64"/>
<path d="M291.492 254.324L292.607 253.68C292.937 254.119 293.172 254.628 293.266 255.184L301.471 304.161L300.998 304.432C300.789 304.55 300.574 304.655 300.351 304.745L292.16 255.837C292.064 255.278 291.827 254.766 291.492 254.324Z" fill="#263238"/>
<path d="M261.367 263.029C260.86 260.003 257.736 255.984 254.39 254.053C251.044 252.122 248.743 253.009 249.25 256.034C249.758 259.06 252.882 263.079 256.227 265.01C259.573 266.941 261.874 266.054 261.367 263.029Z" fill="#0A5840"/>
<path opacity="0.4" d="M209.394 298.125C216.402 301.977 216.402 308.221 209.394 312.073C202.385 315.924 191.022 315.924 184.014 312.073C177.006 308.221 177.006 301.977 184.014 298.125C191.023 294.273 202.386 294.273 209.394 298.125Z" fill="#0A5840"/>
<path d="M185.585 270.45C191.871 268.187 201.876 268.237 207.93 270.56C213.984 272.883 213.966 276.602 207.888 278.865C201.81 281.128 191.807 281.078 185.544 278.754C179.281 276.43 179.3 272.712 185.585 270.45Z" fill="#263238"/>
<path d="M180.57 262.549L212.745 263.409L210.002 306.068L209.971 306.067C209.783 307.433 208.459 308.753 205.973 309.736C200.675 311.832 192.033 311.611 186.671 309.24C184.156 308.128 182.857 306.742 182.735 305.368L182.704 305.367L180.57 262.549Z" fill="#FAFAFA"/>
<path d="M212.745 263.409L212.05 271.038C211.298 271.528 210.403 271.989 209.325 272.4C202.293 275.081 190.819 274.787 183.696 271.742C183.388 271.61 183.132 271.469 182.854 271.331C181.721 270.764 180.864 270.152 180.864 270.152L180.57 262.549L212.745 263.409Z" fill="#EBEBEB"/>
<path d="M178.509 263.609L178.659 257.857L182.409 257.953C182.916 257.704 183.469 257.466 184.077 257.243C191.348 254.568 202.823 254.862 209.706 257.9C210.279 258.153 210.785 258.42 211.262 258.693L214.905 258.786L214.756 264.539C214.707 266.413 212.919 268.243 209.403 269.583C202.371 272.265 190.897 271.97 183.774 268.925C180.21 267.404 178.46 265.483 178.509 263.609Z" fill="#37474F"/>
<path d="M184.19 252.817C191.462 250.142 202.936 250.436 209.819 253.474C216.702 256.512 216.582 261.149 209.549 263.831C202.517 266.512 191.043 266.218 183.92 263.174C176.798 260.129 176.918 255.492 184.19 252.817Z" fill="#455A64"/>
<path d="M182.028 256.558H182.015L183.299 251.844L192.503 252.08C195.502 251.787 198.708 251.869 201.656 252.315L210.59 252.544L211.632 257.317L211.617 257.316C212.15 259.054 210.727 260.824 207.332 262.063C201.537 264.175 192.078 263.933 186.204 261.521C182.762 260.108 181.385 258.266 182.028 256.558Z" fill="#37474F"/>
<path d="M187.392 248.917C192.892 247.09 201.58 247.313 206.797 249.414C212.013 251.516 211.93 254.705 206.611 256.536C201.292 258.368 192.605 258.145 187.207 256.038C181.808 253.933 181.891 250.744 187.392 248.917Z" fill="#455A64"/>
<path d="M185.102 252.427C185.109 252.502 185.244 252.759 185.687 253.116C186.103 253.445 186.8 253.866 187.892 254.297C190.274 255.22 193.59 255.811 196.984 255.898C200.378 255.985 203.663 255.573 205.996 254.771C207.091 254.396 207.78 254.002 208.185 253.694C208.637 253.35 208.766 253.091 208.768 253.025C208.771 252.894 208.322 252.049 206.09 251.149C203.802 250.229 200.543 249.649 197.148 249.562C193.754 249.475 190.412 249.886 187.985 250.694C185.703 251.45 185.115 252.259 185.102 252.427Z" fill="#263238"/>
<path d="M185.68 253.115C186.096 253.444 186.793 253.865 187.885 254.296C190.267 255.219 193.583 255.81 196.977 255.897C200.371 255.984 203.656 255.572 205.989 254.77C207.084 254.395 207.773 254.001 208.178 253.693C207.79 253.365 207.122 252.935 206.048 252.505C203.76 251.585 200.501 251.005 197.106 250.918C193.712 250.831 190.37 251.242 187.943 252.05C186.831 252.424 186.113 252.798 185.68 253.115Z" fill="#37474F"/>
<g opacity="0.5">
<path d="M191.142 253.377C190.36 252.91 189.4 252.703 188.997 252.915C188.594 253.126 188.902 253.681 189.684 254.153C190.466 254.626 191.426 254.833 191.829 254.616C192.232 254.399 191.924 253.844 191.142 253.377Z" fill="black"/>
</g>
<path d="M211.475 288.543C211.468 289.959 210.032 291.368 207.169 292.434C201.444 294.567 192.019 294.519 186.118 292.33C183.173 291.237 181.702 289.817 181.704 288.403L180.859 274.58C180.852 276.083 182.413 277.594 185.544 278.756C191.807 281.08 201.81 281.13 207.888 278.867C210.927 277.735 212.451 276.24 212.458 274.737L211.475 288.543Z" fill="#455A64"/>
<path d="M201.646 289.313C202.18 288.607 202.478 287.738 202.911 286.974C203.774 285.451 205.002 284.419 206.568 283.81C206.778 283.729 207.035 283.815 207.134 284.016C207.918 285.62 207.421 287.857 205.774 289.475C204.144 291.077 201.908 291.564 200.303 290.804C200.212 290.761 200.188 290.585 200.262 290.542C200.781 290.246 201.245 289.843 201.646 289.313Z" fill="#263238"/>
<path d="M205.7 283.366C204.854 283.682 204.063 284.181 203.397 284.757C202.684 285.372 202.131 286.159 201.724 287.005C201.106 288.291 200.519 289.085 199.62 289.744C199.424 289.887 199.127 289.847 198.994 289.645C197.932 288.033 198.369 285.571 200.143 283.828C201.825 282.176 204.149 281.711 205.762 282.575C206.087 282.747 206.045 283.238 205.7 283.366Z" fill="#263238"/>
<path d="M402.553 356.444H398.93V339.825C398.93 335.853 401.625 331.186 405.064 329.2L424.5 317.98C426.459 316.848 428.46 316.719 429.989 317.622C431.519 318.526 432.369 320.341 432.324 322.603L431.982 339.489L428.359 339.416L428.701 322.531C428.72 321.641 428.506 320.956 428.146 320.742C427.786 320.529 427.082 320.674 426.311 321.118L406.875 332.338C404.532 333.692 402.552 337.12 402.552 339.826V356.444H402.553Z" fill="#37474F"/>
<path d="M463.448 397.259L459.562 325.668C459.469 323.978 458.204 321.922 456.739 321.075L454.504 319.785C453.744 319.346 453.045 319.326 452.532 319.637L452.531 319.628L377.719 362.83L388.016 442.146L462.785 398.978V398.977C463.238 398.702 463.495 398.108 463.448 397.259Z" fill="#37474F"/>
<path d="M374.944 435.413L386.235 441.932C387.701 442.778 388.813 442.094 388.72 440.404L384.834 368.813C384.741 367.123 383.476 365.067 382.011 364.22L379.776 362.929C378.31 362.083 377.054 362.767 376.971 364.458L372.442 430.819C372.357 432.51 373.478 434.567 374.944 435.413Z" fill="#263238"/>
<path d="M414.315 420.383C413.778 420.383 413.328 419.964 413.295 419.421L411.314 385.877C411.28 385.314 411.711 384.831 412.274 384.798C412.807 384.738 413.32 385.195 413.353 385.758L415.334 419.302C415.368 419.865 414.937 420.348 414.374 420.381C414.356 420.383 414.336 420.383 414.315 420.383Z" fill="#0A5840"/>
<path d="M442.97 403.92C442.433 403.92 441.982 403.501 441.95 402.958L439.971 369.415C439.937 368.852 440.368 368.369 440.931 368.335C441.482 368.305 441.976 368.732 442.01 369.295L443.989 402.839C444.023 403.402 443.592 403.884 443.029 403.918C443.01 403.92 442.99 403.92 442.97 403.92Z" fill="#0A5840"/>
<path d="M394.499 401.856C391.001 403.874 386.603 401.496 386.378 397.463L384.839 368.804C384.737 367.128 383.47 365.065 381.999 364.227L379.772 362.94C379.077 362.531 378.444 362.47 377.953 362.695L452.534 319.627V319.647C453.045 319.32 453.739 319.34 454.495 319.79L456.742 321.077C458.193 321.915 459.459 323.978 459.562 325.675L461.08 353.962C461.395 359.598 458.511 364.931 453.621 367.752L394.499 401.856Z" fill="#455A64"/>
<path d="M420.68 383.486L431.52 377.232L431.981 383.233L421.119 389.505L420.68 383.486Z" fill="#0A5840"/>
<path d="M131.173 371.731V431.499C131.173 434.396 129.124 436.071 126.618 437.546L120.331 441.179C118.595 442.184 117.628 442.522 115.422 442.144C114.456 441.987 112.836 441.2 112.066 440.769C112.014 440.756 111.975 440.73 111.936 440.704L111.597 440.508L47.3536 403.416C42.6596 400.706 39.7676 395.697 39.7676 390.277L39.7656 335.854C39.7656 334.614 40.6396 333.1 41.7236 332.474L52.4516 326.288C53.5216 325.662 55.2706 325.662 56.3406 326.288L129.216 368.364C129.764 368.664 130.247 369.212 130.599 369.812C130.951 370.426 131.173 371.117 131.173 371.731Z" fill="#37474F"/>
<path d="M131.169 371.732V431.5C131.169 434.397 129.121 436.072 126.615 437.547L120.327 441.18C118.591 442.185 117.624 442.522 115.418 442.145C114.452 441.988 112.832 441.201 112.062 440.77V440.743C114.569 441.918 116.539 440.613 116.539 437.651V381.337C116.539 380.398 116.213 379.353 115.677 378.427L130.594 369.812C130.947 370.427 131.169 371.118 131.169 371.732Z" fill="#263238"/>
<path d="M116.548 381.335C116.548 379.462 115.221 377.163 113.599 376.227L44.7206 336.46C41.9976 334.888 39.7706 336.174 39.7706 339.318L39.7656 390.271C39.7656 395.692 42.6566 400.701 47.3516 403.412L111.599 440.508C114.322 442.08 116.549 440.794 116.549 437.65L116.548 381.335Z" fill="#455A64"/>
<path d="M48.9772 328.293L121.98 370.86C124.07 372.079 125.369 374.338 125.369 376.757V438.269L124.257 438.912V376.757C124.257 374.732 123.17 372.841 121.42 371.82L47.8672 328.933L48.9772 328.293Z" fill="#0A5840"/>
<path opacity="0.2" d="M124.462 373.359C125.048 374.379 125.373 375.548 125.373 376.758V438.27L124.261 438.913V376.758C124.261 375.747 123.99 374.769 123.5 373.916L124.462 373.359Z" fill="black"/>
<path opacity="0.2" d="M123.496 373.915C123.005 373.06 122.296 372.331 121.42 371.82L47.8672 328.933L48.9772 328.293L121.98 370.86C123.025 371.469 123.872 372.339 124.458 373.359" fill="black"/>
<path d="M74.9002 335.934V345.189L71.2812 347.28V334.99C71.2812 334.354 71.7222 334.102 72.2722 334.417L74.9002 335.934Z" fill="#0A5840"/>
<path opacity="0.4" d="M74.9002 335.934V345.189L71.2812 347.28V334.99C71.2812 334.354 71.7222 334.102 72.2722 334.417L74.9002 335.934Z" fill="black"/>
<path d="M100.34 345.078V360.062L96.8851 362.062L94.5591 360.715V348.425C94.5591 347.795 94.1121 347.021 93.5681 346.706L75.9371 336.53L72.2761 334.415C71.7261 334.1 71.2851 334.352 71.2851 334.988V347.278L68.9531 345.932V330.954C68.9531 330.891 68.9591 330.822 68.9701 330.759C69.0451 330.169 69.4571 329.516 69.9501 329.235L71.4221 328.381C71.9671 328.066 72.8551 328.066 73.4041 328.381L99.3491 343.358C99.8991 343.68 100.34 344.448 100.34 345.078Z" fill="#0A5840"/>
<path opacity="0.2" d="M96.8851 347.078V362.062L94.5591 360.715V348.425C94.5591 347.795 94.1121 347.021 93.5681 346.706L75.9371 336.53L72.2761 334.415C71.7261 334.1 71.2851 334.352 71.2851 334.988V347.278L68.9531 345.932V330.954C68.9531 330.891 68.9591 330.822 68.9701 330.759C69.0561 330.272 69.4631 330.1 69.9501 330.381L95.8951 345.359C96.4381 345.68 96.8851 346.448 96.8851 347.078Z" fill="black"/>
<path d="M340.179 98.9853L339.753 82.9963C339.753 82.9963 367.538 78.6593 361.889 50.6523C358.667 34.6773 341.446 22.0303 299.216 24.1803C251.212 26.6243 254.6 58.0683 260.936 68.0823C271.167 84.2533 297.051 87.2383 327.642 85.1213L340.179 98.9853Z" fill="#0A5840"/>
<path d="M333.387 44.1585H285C284.491 44.1585 284.078 43.7455 284.078 43.2365C284.078 42.7275 284.491 42.3145 285 42.3145H333.387C333.896 42.3145 334.309 42.7275 334.309 43.2365C334.309 43.7455 333.896 44.1585 333.387 44.1585Z" fill="white"/>
<path d="M339.15 55.7099H279.244C278.704 55.7099 278.266 55.2719 278.266 54.7319C278.266 54.1919 278.704 53.7539 279.244 53.7539H339.15C339.69 53.7539 340.128 54.1919 340.128 54.7319C340.127 55.2719 339.69 55.7099 339.15 55.7099Z" fill="white"/>
<path d="M333.387 67.1487H285C284.491 67.1487 284.078 66.7357 284.078 66.2267C284.078 65.7177 284.491 65.3047 285 65.3047H333.387C333.896 65.3047 334.309 65.7177 334.309 66.2267C334.309 66.7357 333.896 67.1487 333.387 67.1487Z" fill="white"/>
<path d="M156.111 108.891L170.468 95.4002C170.468 95.4002 183.25 97.9633 202.697 96.8133C231.467 95.1113 247.684 82.5872 243.399 65.5282C238.343 45.3972 219.287 37.9252 184.997 39.2642C165.708 40.0172 152.108 46.1832 145.699 54.7292C137.854 65.1912 138.528 81.4782 157.25 91.2512L156.111 108.891Z" fill="#455A64"/>
<path d="M215.596 56.8323H170.211C169.702 56.8323 169.289 56.4193 169.289 55.9103C169.289 55.4013 169.702 54.9883 170.211 54.9883H215.596C216.105 54.9883 216.518 55.4013 216.518 55.9103C216.518 56.4203 216.105 56.8323 215.596 56.8323Z" fill="white"/>
<path d="M221.359 68.3837H164.455C163.915 68.3837 163.477 67.9457 163.477 67.4057C163.477 66.8657 163.915 66.4277 164.455 66.4277H221.359C221.899 66.4277 222.336 66.8657 222.336 67.4057C222.336 67.9457 221.899 68.3837 221.359 68.3837Z" fill="white"/>
<path d="M215.596 79.8245H170.211C169.702 79.8245 169.289 79.4115 169.289 78.9025C169.289 78.3935 169.702 77.9805 170.211 77.9805H215.596C216.105 77.9805 216.518 78.3935 216.518 78.9025C216.518 79.4115 216.105 79.8245 215.596 79.8245Z" fill="white"/>
</svg>
