<svg width="400" height="360" viewBox="0 0 400 360" fill="none" xmlns="http://www.w3.org/2000/svg">
<path d="M166.991 345.002C166.019 340.749 163.279 338.637 159.058 338.11C153.679 337.439 148.295 336.806 142.922 336.09C138.691 335.526 134.473 334.862 130.318 334.253V302.461L130.358 300.729H121.11H111.862L111.902 302.461V334.252C107.746 334.861 103.529 335.525 99.2971 336.089C93.9241 336.805 88.5401 337.438 83.1611 338.109C78.9401 338.636 76.2001 340.748 75.2281 345.001C74.3601 348.796 73.4581 352.493 76.2581 355.968C78.7171 359.019 83.2861 359.338 86.0201 356.525C89.3101 353.141 89.4651 351.9 87.1531 347.711C87.0091 347.45 86.9771 347.128 86.8611 346.723C91.2231 345.827 95.4801 344.951 99.8731 344.049C100.267 345.994 100.568 347.672 99.5001 349.577C98.3111 351.697 97.7871 354.305 99.6591 356.315C101.896 358.718 104.942 359.356 108.147 358.617C112.741 357.56 116.214 352.015 110.954 346.845C114.199 345.116 117.828 344.486 121.109 342.992C124.39 344.486 128.019 345.116 131.264 346.845C126.004 352.015 129.477 357.559 134.071 358.617C137.276 359.355 140.322 358.718 142.559 356.315C144.431 354.304 143.907 351.697 142.718 349.577C141.649 347.672 141.951 345.994 142.345 344.049C146.738 344.952 150.995 345.827 155.356 346.723C155.24 347.128 155.208 347.45 155.064 347.711C152.752 351.9 152.908 353.141 156.197 356.525C158.931 359.339 163.501 359.02 165.96 355.968C168.761 352.495 167.859 348.798 166.991 345.002Z" fill="black"/>
<path d="M165.574 345.129C164.839 341.814 162.703 340.177 159.412 339.557C155.504 338.821 151.54 338.615 147.613 338.08C141.442 337.239 135.287 335.762 129.104 335.649C126.444 335.601 123.778 335.535 121.11 335.51C118.443 335.535 115.776 335.6 113.116 335.649C106.933 335.762 100.778 337.239 94.607 338.08C90.68 338.615 86.716 338.82 82.808 339.557C79.517 340.177 77.381 341.814 76.646 345.129C75.882 348.57 74.79 352 77.422 355.191C79.006 357.112 82.292 357.707 84.179 356.351C87.307 354.102 88.039 351.661 86.324 349.045C85.681 348.065 84.946 347.144 83.986 345.832C90.174 344.597 95.963 343.442 102.198 342.198C101.428 344.246 101.482 345.793 101.793 347.351C101.916 347.968 102.019 348.608 101.495 349.16C99.811 350.93 99.373 353.205 100.528 355.118C101.887 357.368 104.588 357.68 107.052 357.404C109.417 357.139 111.289 355.953 112.007 353.442C112.686 351.069 111.736 349.435 109.854 348.093C109.353 347.735 108.701 347.452 108.592 346.7C108.706 345.907 109.396 345.821 109.996 345.601C113.484 344.321 116.966 343.024 120.457 341.75C120.66 341.676 120.887 341.584 121.11 341.515C121.333 341.583 121.56 341.676 121.763 341.75C125.254 343.024 128.736 344.321 132.224 345.601C132.825 345.821 133.514 345.907 133.628 346.7C133.52 347.451 132.868 347.734 132.366 348.093C130.484 349.436 129.534 351.07 130.213 353.442C130.931 355.952 132.803 357.139 135.169 357.404C137.633 357.68 140.334 357.368 141.693 355.118C142.848 353.206 142.409 350.93 140.726 349.16C140.201 348.609 140.305 347.968 140.428 347.351C140.739 345.793 140.792 344.245 140.023 342.198C146.258 343.442 152.047 344.597 158.235 345.832C157.275 347.144 156.54 348.065 155.897 349.045C154.182 351.661 154.914 354.102 158.042 356.351C159.929 357.707 163.215 357.112 164.799 355.191C167.43 352 166.337 348.57 165.574 345.129Z" fill="#4F4F4F"/>
<path d="M121.109 314.504C118.712 314.504 116.297 314.504 113.836 314.504C113.836 320.936 113.836 327.41 113.836 334.161C116.289 334.161 118.699 334.161 121.109 334.161C123.519 334.161 125.929 334.161 128.382 334.161C128.382 327.41 128.382 320.936 128.382 314.504C125.921 314.504 123.506 314.504 121.109 314.504Z" fill="#262626"/>
<path d="M121.107 302.402C118.683 302.402 116.248 302.402 113.773 302.402C113.773 305.706 113.773 309.007 113.773 312.52C116.259 312.52 118.688 312.52 121.107 312.52C123.526 312.52 125.955 312.52 128.441 312.52C128.441 309.007 128.441 305.706 128.441 302.402C125.966 302.402 123.532 302.402 121.107 302.402Z" fill="#351934"/>
<path d="M399.747 196.964C399.402 194.827 398.466 192.989 397.7 191.039C396.807 188.765 395.421 187.059 393.095 186.089C390.857 185.155 388.508 185.2 386.172 185.132C377.986 184.894 369.825 185.55 361.654 185.866C360.616 185.907 359.582 186.148 359.171 184.682C357.896 180.131 354.483 177.099 351.033 174.216C349.508 172.943 348.821 171.682 348.903 169.763C349.015 167.129 347.762 165.226 345.407 163.923C343.798 163.033 342.241 163.992 340.599 163.795C340.061 160.966 339.523 158.139 338.953 155.139C342.398 156.493 342.398 156.493 343.283 153.652C344.08 153.28 345.093 153.904 345.942 152.977C344.333 146.673 346.828 141.686 351.405 137.225C354.338 134.367 356.759 130.988 358.718 127.393C362 121.375 363.555 112.097 355.919 105.766C355.004 105.008 354.067 104.275 353.17 103.555C355.229 96.1709 352.611 92.6725 344.902 92.3932C344.336 92.3724 343.763 92.3359 343.202 92.3932C338.381 92.8897 334.18 90.7052 331.038 87.8613C325.388 82.747 319.039 82.4252 312.221 83.3008C306.829 83.9928 301.786 90.1139 304.011 95.1758C304.119 95.4216 303.985 95.7711 303.966 96.0465C298.725 96.9132 298.245 97.154 294.413 101.183C293.34 102.312 292.09 103.011 290.539 102.691C288.58 102.286 288.418 103.427 288.668 104.739C289.027 106.617 290.319 107.833 292.101 108.464C293.121 108.826 294.214 108.987 295.302 109.244C295.084 109.783 294.663 109.806 294.276 109.899C293.271 110.141 291.718 109.539 291.579 111.205C291.451 112.734 292.587 113.661 293.824 114.358C295.209 115.138 296.805 114.804 298.5 114.943C298.135 117.183 299.26 117.626 301.174 117.555C303.408 117.472 304.218 118.631 303.805 120.838C303.555 122.174 303.402 123.539 303.008 124.832C302.45 126.666 301.335 128.12 299.363 128.679C295.938 129.647 295.136 131.632 297.282 134.47C298.137 135.6 298.519 136.435 297.973 137.86C297.124 140.076 297.866 140.98 300.347 140.945C302.017 140.921 303.682 140.635 305.512 140.449C304.912 143.531 302.63 144.91 300.419 146.366C298.841 147.405 298.234 149.535 299.542 150.596C301.045 151.814 300.672 152.953 300.322 154.368C298.833 160.4 300.086 162.19 306.362 163.015C308.05 163.236 309.752 163.197 311.442 162.887C312.769 162.644 314.107 162.465 315.535 162.242C316.073 164.954 316.565 167.441 317.057 169.923C315.937 171.141 313.861 171.538 313.454 173.063C312.907 175.113 311.333 175.763 309.844 176.572C308.313 177.402 306.89 178.399 305.991 179.793C304.129 182.678 301.945 185.443 301.07 188.835C300.321 191.74 298.535 193.831 296.076 195.35C290.465 198.815 286.469 203.57 283.827 209.532C283.036 211.316 281.932 212.967 280.927 214.755C277.906 212.672 275.764 210.146 273.521 207.768C270.007 204.04 267.025 199.986 267.36 194.451C267.437 193.188 267.213 191.899 267.051 190.63C266.847 189.032 267.03 187.62 267.735 186.058C269.918 181.224 267.415 176.925 262.549 176.715C262.421 176.709 262.301 176.532 262.018 176.309C262.489 174.27 261.259 173.107 259.331 172.993C253.756 172.665 248.165 172.514 242.649 173.692C241.602 173.916 240.095 174.457 240.327 175.434C241.08 178.591 239.352 181.213 238.737 184.029C238.314 185.963 238.457 187.939 238.041 189.689C237.52 191.876 238.126 192.845 239.725 193.765C240.308 194.101 240.762 194.437 241.011 195.098C241.725 196.991 243.247 197.743 245.197 197.77C246.732 197.792 248.267 197.778 249.802 197.754C250.629 197.742 251.206 197.847 251.811 198.658C258.746 207.951 263.835 218.29 269.269 228.431C268.149 230.105 266.635 230.66 264.579 230.511C262.661 230.373 260.663 230.506 258.785 230.904C257.324 231.214 255.592 230.692 254.407 231.931C253.518 232.862 252.466 232.912 251.306 232.917C246.044 232.941 240.782 232.977 235.522 233.073C233.705 233.107 232.534 232.572 231.79 230.76C229.723 225.724 227.437 220.778 225.306 215.767C224.708 214.361 223.941 213.628 222.256 213.634C206.869 213.688 191.482 213.657 176.094 213.678C173.551 213.682 172.753 214.974 173.836 217.263C174.862 219.431 175.937 221.579 177.039 223.712C177.764 225.115 177.706 226.323 176.836 227.732C174.144 232.091 171.615 236.548 169.014 240.962C166.488 245.247 166.068 245.429 160.639 244.59C161.174 242.931 161.674 241.28 162.236 239.651C166.311 227.848 170.407 216.051 174.476 204.246C175.31 201.826 174.869 201.238 172.277 201.179C168.329 201.089 164.371 201.367 160.079 200.905C160.548 195.619 158.686 190.989 157.371 186.211C156.236 182.087 154.102 179.022 150.311 177.007C147.525 175.527 144.705 174.162 141.64 173.31C140.58 173.015 139.309 172.855 138.714 171.783C138.064 170.612 137.047 170.202 135.882 170.16C135.882 168.802 135.882 167.633 135.882 166.462C143.45 166.84 146.027 164.784 145.927 158.579C148.803 157.107 150.072 154.825 149.933 151.583C149.809 148.676 149.326 145.888 148.389 143.136C147.927 141.78 147.82 140.646 149.436 139.484C152.716 137.126 153.381 128.98 150.895 125.714C150.392 125.054 149.738 124.661 148.976 124.32C147.257 123.548 147.362 122.13 148.466 121.135C149.549 120.159 149.952 119.278 149.36 118.03C148.984 117.237 149.48 116.901 149.909 116.408C152.679 113.225 152.486 110.609 149.306 107.808C150.928 104.864 152.646 101.921 150.308 98.5548C144.76 100.357 139.953 99.8133 136.068 95.2894C134.932 93.9666 133.355 93.3141 131.646 92.9529C123.798 91.2905 116.538 92.2589 110.206 97.5449C106.153 94.5056 100.941 99.3257 101.912 104.568C97.724 106.314 94.435 111.258 98.206 115.47C96.649 118.575 96.017 121.649 97.594 125.09C98.434 126.923 98.553 129.112 95.707 130.062C94.485 130.469 93.731 131.688 93.464 133.027C92.973 135.482 92.815 137.969 93.412 140.404C94.678 145.571 98.244 148.024 102.966 147.043C103.374 149.175 102.929 151.164 102.004 153.068C101.155 154.817 100.524 156.614 100.459 158.573C100.316 162.935 103.613 165.728 108.039 164.834C109.439 167.97 112.49 167.621 115.345 167.716C115.274 168.748 115.536 169.534 115.079 170.427C113.308 169.772 111.84 169.86 111.252 172.086C111.075 172.756 110.121 172.56 109.522 172.727C103.781 174.322 98.728 177.085 94.745 181.502C93.712 182.647 92.716 183.063 91.224 183.053C82.883 182.997 74.541 183.058 66.2 182.995C64.646 182.983 63.373 183.457 62.122 184.249C58.665 186.436 58.176 189.781 58.188 193.46C58.241 209.609 58.211 225.757 58.211 241.905C58.211 242.849 58.211 243.793 58.211 244.612C57.15 245.221 56.239 245.027 55.366 245.027C42.489 245.039 29.613 245.034 16.736 245.034C13.983 245.034 11.228 244.983 8.476 245.054C5.575 245.129 4.216 246.552 4.15 249.397C4.059 253.325 6.645 255.705 10.942 255.693C20.174 255.668 29.406 255.655 38.638 255.655C39.424 255.655 40.25 255.466 41.259 256.062C36.508 267.281 31.746 278.527 27.072 289.563C27.158 290.671 28.439 290.39 28.503 291.466C19.051 313.664 9.526 336.021 0 358.383C3.271 359.588 4.886 358.985 6.068 356.21C15.093 335.012 24.114 313.813 33.153 292.62C33.448 291.928 33.436 290.852 34.417 290.751C36.258 290.562 36.682 289.195 37.248 287.859C41.524 277.757 45.804 267.658 50.114 257.571C50.43 256.829 50.41 255.696 51.647 255.682C53.873 255.657 56.099 255.676 58.367 255.676C58.367 267.019 58.355 277.97 58.372 288.92C58.38 294.365 61.594 299.056 66.329 300.259C68.581 300.83 70.936 301.041 73.257 301.303C80.33 302.104 87.407 302.865 94.486 303.616C103.625 304.586 112.634 307.008 121.943 306.049C123.776 305.861 125.591 305.503 127.433 305.22C127.532 305.498 127.669 305.717 127.681 305.942C128.184 315.194 129.012 324.431 128.766 333.716C128.639 338.519 128.637 343.312 129.265 348.116C129.652 351.076 128.566 354.125 129.614 357.142C130.175 358.757 131.081 359.543 132.777 359.493C135.203 359.421 137.63 359.297 140.056 359.294C157.629 359.277 175.202 359.248 192.775 359.299C199.763 359.32 198.74 359.305 197.814 353.212C197.152 348.854 195.178 347.094 190.62 346.41C187.675 345.968 184.774 345.484 181.73 343.922C184.789 343.003 184.495 340.897 184.181 338.807C184.087 338.178 184.023 337.466 183.682 336.968C182.5 335.238 182.836 333.977 184.214 332.381C186.071 330.232 186.368 327.444 184.989 324.96C183.81 322.838 183.413 320.655 183.121 318.351C182.469 313.199 182.422 308.062 183.085 302.989C185.509 302.989 187.759 303.011 190.01 302.984C193.09 302.948 195.212 301.464 196.45 298.71C196.909 297.688 197.394 296.673 197.777 295.622C199.215 291.681 199.123 287.103 193.748 285.243C190.548 284.135 187.482 282.653 184.075 282.24C183.322 282.149 182.913 281.899 182.65 281.22C180.442 275.528 175.929 272.283 170.527 269.846C163.856 266.836 156.915 264.242 151.579 258.95C150.666 258.044 149.232 257.545 149.065 255.861C149.841 255.823 150.472 255.767 151.103 255.764C160.82 255.72 170.537 255.655 180.254 255.648C204.793 255.631 229.331 255.634 253.87 255.656C256.127 255.658 258.901 254.784 260.501 256.016C262.072 257.225 262.499 259.905 263.38 261.96C264.814 265.3 266.209 268.656 267.767 272.355C266.348 272.355 265.393 272.349 264.438 272.356C256.342 272.412 248.241 272.32 240.153 272.597C236.41 272.725 233.518 274.678 231.69 278.12C229.349 282.526 229.242 287.119 229.879 291.893C231.105 301.078 232.403 310.244 232.132 319.572C231.946 325.955 232.208 332.36 232.539 338.743C232.759 342.992 231.141 345.084 226.952 345.097C225.98 345.1 225.008 345.095 224.037 345.088C218.297 345.051 215.41 347.603 214.603 353.189C214.304 355.26 215.049 355.992 217.056 355.899C222.635 355.641 228.188 356.33 233.781 356.234C244.21 356.057 254.647 356.373 265.082 356.454C269.941 356.491 274.8 356.481 279.659 356.441C280.762 356.432 281.56 356.665 282.421 357.488C284.374 359.359 286.859 359.817 289.398 358.908C291.789 358.052 294.01 354.43 294.182 352.204C294.327 350.322 292.559 349.308 292.379 347.505C294.894 347.009 297.35 346.552 299.792 346.029C300.757 345.822 301.323 346.077 301.654 347.015C302.601 349.7 304.408 352.112 304.187 355.167C304.12 356.09 304.662 356.829 305.359 357.443C307.791 359.584 310.669 360.187 313.716 359.389C317.346 358.44 319.411 355.412 319.078 352.119C318.889 350.248 317.513 349.077 316.27 347.585C319.796 346.288 323.118 345.055 326.452 343.856C326.802 343.73 327.293 343.669 327.609 343.813C330.89 345.307 334.519 345.938 337.764 347.666C332.504 352.837 335.977 358.38 340.571 359.439C343.777 360.176 346.822 359.539 349.059 357.137C350.931 355.126 350.407 352.519 349.218 350.399C348.149 348.493 348.451 346.815 348.845 344.871C353.238 345.774 357.495 346.648 361.856 347.545C361.74 347.949 361.708 348.271 361.564 348.533C359.252 352.721 359.408 353.962 362.697 357.347C365.431 360.16 370.001 359.841 372.459 356.789C375.259 353.315 374.357 349.618 373.489 345.822C372.517 341.57 369.777 339.457 365.556 338.93C360.177 338.258 354.793 337.626 349.42 336.911C345.189 336.347 340.971 335.683 336.816 335.074C336.816 324.253 336.816 313.754 336.816 303.282C337.268 303.189 337.504 303.097 337.739 303.098C349.075 303.123 360.41 303.169 371.745 303.179C373.258 303.18 375.146 303.667 376.145 302.457C377.381 300.962 378.329 299.292 380.538 298.924C379.725 297.695 378.831 298.028 378.089 298.028C348.611 298.028 319.132 298.051 289.654 298.069C285.483 298.072 284.886 297.536 284.268 293.095C316.001 293.095 347.706 293.095 379.413 293.092C380.56 294.29 379.236 296.243 380.847 297.598C381.534 295.941 381.636 294.386 380.969 293.048C380.367 291.842 380.501 290.789 380.689 289.606C381.69 283.291 382.711 276.979 383.624 270.652C385.61 256.891 388.222 243.216 389.572 229.366C390.039 224.577 393.071 220.862 394.962 216.675C397.805 210.387 400.918 204.229 399.747 196.964ZM151.633 333.418C151.428 333.107 151.352 332.657 151.36 332.274C151.537 323.114 151.735 313.953 151.932 304.614C154.177 304.201 156.268 304.372 158.336 304.429C159.902 304.473 159.7 305.836 159.704 306.785C159.717 310.296 159.947 313.795 160.091 317.299C160.353 323.672 160.318 330.058 160.308 336.439C160.303 339.481 160.18 342.495 162.063 345.16C162.244 345.417 162.087 345.905 162.087 346.399C158.777 346.735 155.719 346.494 152.707 344.764C154.193 341.838 153.718 339.25 150.888 337.085C152.467 336.042 152.557 334.817 151.633 333.418ZM291.127 303.193C300.035 303.193 308.677 303.193 317.304 303.193C317.924 303.809 317.701 304.571 317.702 305.262C317.718 314.452 317.657 323.642 317.759 332.831C317.779 334.606 317.122 335.227 315.501 335.431C311.81 335.898 308.122 336.402 304.447 336.985C303.112 337.196 302.419 336.879 301.874 335.575C298.448 327.379 294.916 319.225 291.449 311.046C290.403 308.575 291.044 306.027 291.127 303.193ZM290.339 320.507C292.749 326.144 295.158 331.781 297.718 337.769C295.357 338.005 293.256 338.215 290.832 338.456C290.889 332.288 289.51 326.52 290.339 320.507ZM268.474 329.424C266.476 330.327 265.869 331.949 267.041 333.968C268.259 336.066 268.259 337.942 266.452 339.842C265.607 340.73 264.922 342.038 264.764 343.232C264.454 345.586 262.886 345.848 261.063 345.987C259.467 346.109 257.871 346.24 256.055 346.384C257.801 342.77 257.568 339.598 254.875 336.517C253.72 335.195 254.179 333.164 254.729 331.458C255.386 329.416 255.66 327.426 254.403 325.475C254.114 325.027 253.935 324.424 253.933 323.892C253.902 317.054 253.913 310.214 253.913 303.227C259.102 303.227 264.14 303.227 269.422 303.227C269.577 306.541 269.802 309.71 269.855 312.882C269.932 317.509 269.866 322.138 269.902 326.766C269.91 327.943 269.817 328.816 268.474 329.424ZM289.978 263.471C286.602 265.421 286.262 269.061 285.422 272.668C282.961 272.555 280.635 272.433 278.308 272.351C277.567 272.324 277.098 272.011 276.819 271.35C274.678 266.281 272.532 261.213 270.266 255.858C278.337 255.858 286.096 255.858 294.101 255.858C293.308 258.834 292.997 261.726 289.978 263.471ZM295.677 244.84C293.533 245.16 291.435 245.124 288.855 244.835C291.242 242.727 293.304 240.907 295.677 238.811C295.677 241.162 295.677 242.902 295.677 244.84Z" fill="black"/>
<path d="M344.141 152.124C343.681 146.248 345.16 141.534 349.254 137.595C352.446 134.522 355.23 130.992 357.278 127.099C361.744 118.606 361.105 111.37 354.072 106.071C352.205 104.664 351.784 103.705 352.213 101.511C353.207 96.4318 351.518 94.4783 346.219 93.9363C344.934 93.805 343.631 93.7774 342.339 93.8119C340.01 93.8751 337.908 93.2996 335.84 92.2059C332.99 90.6996 330.195 89.2465 327.718 87.0749C324.027 83.8391 319.292 84.2379 314.749 84.3998C307.815 84.6475 304.31 88.8635 305.54 95.495C305.838 97.102 305.661 97.9539 303.694 97.7663C300.926 97.5028 298.546 98.5541 296.779 100.596C294.992 102.661 293.182 104.494 289.695 104.105C292.191 109.019 296.62 107.181 300.645 107.886C298.172 110.094 295.882 111.222 292.901 111.52C295.279 114.91 298.182 112.995 300.739 112.625C301.574 114.023 299.262 114.732 300.34 116.093C301.587 116.49 303.407 114.088 304.37 117.441C305.037 113.301 306.009 110.041 308.316 107.666C307.94 106.273 306.461 105.632 307.16 104.052C307.55 104.308 307.892 104.416 308.038 104.646C310.197 108.039 313.442 108.337 317.011 107.771C319.344 107.4 321.545 106.604 323.755 105.816C324.546 105.534 325.331 104.955 326.453 105.55C324.893 107.376 322.65 107.644 320.666 108.302C316.957 109.532 315.484 111.772 316.1 115.63C316.667 119.181 320.067 120.839 323.335 119.16C325.338 118.132 327.574 118.522 328.823 120.119C331.82 123.951 330.922 130.657 326.863 133.428C325.421 134.412 325.01 135.495 325.243 137.05C325.71 140.164 326.926 143.044 328.101 145.933C328.409 146.691 328.975 147.36 329.734 147.646C331.867 148.452 333.099 150.684 335.485 151.085C336.113 151.19 336.375 151.737 336.238 152.386C336.083 153.121 336.41 153.612 337.271 154.107C338.626 151.979 339.889 154.291 341.501 154.424C341.481 152.69 341.764 151.239 344.141 152.124Z" fill="#D3672A"/>
<path d="M100.047 238.476C100.925 238.547 101.397 238.618 101.869 238.618C121.061 238.623 140.253 238.605 159.445 238.656C161.054 238.66 161.686 238.031 162.169 236.619C165.822 225.942 169.557 215.292 173.24 204.624C173.484 203.917 174.06 203.202 173.441 202.2C172.647 202.2 171.764 202.2 170.88 202.2C162.565 202.2 154.25 202.197 145.935 202.2C135.489 202.204 125.043 202.249 114.598 202.18C113.016 202.169 112.37 202.674 111.876 204.131C108.508 214.061 105.036 223.955 101.601 233.861C101.108 235.284 100.639 236.714 100.047 238.476Z" fill="#F2F3F4"/>
<path d="M150.476 335.327C150.633 333.973 149.882 333.022 149.911 331.87C150.247 318.693 150.335 305.507 150.889 292.34C151.103 287.253 149.239 283.635 145.476 280.484C139.202 275.231 132.223 271.12 124.998 267.298C117.127 263.135 108.094 264.011 103.003 269.443C102.859 269.597 102.587 269.633 102.444 269.694C100.594 267.578 98.9942 270.186 97.4482 269.727C95.5832 273.916 96.6822 277.324 99.8792 280.169C106.7 286.239 114.992 288.766 123.947 289.993C125.09 286.736 127.538 285.381 130.66 284.848C129.299 287.017 127.244 288.695 126.171 291.608C127.837 290.684 128.867 289.484 130.427 289.859C129.815 290.609 129.135 291.165 128.37 291.557C126.299 292.617 125.719 293.999 126.792 296.194C128.061 298.792 128.861 301.578 129.033 304.481C129.764 316.842 130.584 329.201 130.027 341.596C129.993 342.343 129.703 343.197 130.499 343.898C131.412 343.839 132.399 343.606 133.329 343.743C138.572 344.515 143.8 344.457 149.021 343.63C150.048 343.468 151.507 344.106 151.954 342.619C152.402 341.13 151.892 339.794 150.708 338.723C149.537 337.665 148.457 336.674 146.74 336.273C144.08 335.654 141.52 334.584 138.956 333.607C138.174 333.309 137.036 333.015 137.511 331.585C141.795 333.142 145.818 335.242 150.476 335.327Z" fill="#59A0E2"/>
<path d="M6.36055 251.572C6.32355 251.879 6.28555 252.187 6.24855 252.493C8.25555 254.179 10.7335 254.254 13.2315 254.247C55.5765 254.134 97.9226 254.434 140.269 254.085C154.351 253.969 168.437 254.227 182.521 254.241C211.428 254.27 240.335 254.251 269.243 254.25C279.203 254.25 289.162 254.268 299.122 254.23C301.394 254.221 303.698 254.099 305.592 252.165C304.282 251.527 303.221 251.764 302.202 251.764C273.133 251.749 244.064 251.753 214.995 251.752C212.38 251.752 212.38 251.748 210.511 250.414C242.703 250.414 274.284 250.414 305.816 250.414C306.156 247.105 305.552 246.483 302.273 246.48C284.949 246.468 267.624 246.457 250.3 246.478C223.176 246.511 196.053 246.591 168.929 246.608C156.704 246.616 144.48 246.485 132.255 246.478C98.3275 246.458 64.3995 246.471 30.4725 246.472C23.2655 246.472 16.0595 246.446 8.85255 246.492C5.93955 246.511 5.24555 247.454 5.98455 250.321C16.4535 250.321 26.9705 250.321 37.4885 250.321C48.0955 250.321 58.7035 250.291 69.3105 250.331C79.7325 250.369 90.1616 250.165 100.579 250.446C100.576 250.821 100.573 251.195 100.57 251.571C69.1656 251.572 37.7635 251.572 6.36055 251.572Z" fill="#FCF6B1"/>
<path d="M175.287 332.777C177.09 332.379 178.421 333.347 179.877 333.6C180.479 333.705 180.956 334.077 181.636 333.498C184.27 331.259 184.982 327.701 183.328 324.609C182.879 323.77 182.319 322.896 182.207 321.99C181.678 317.716 181.107 313.455 181.176 309.114C181.282 302.473 182.87 295.948 182.607 289.295C182.438 285.008 181.731 280.875 178.837 277.416C176.736 274.905 174.091 273.13 171.179 271.666C165.428 268.776 159.155 266.866 154.03 262.794C153.59 262.445 153.078 262.193 152.467 262.245C148.696 262.572 144.986 262.705 141.925 265.622C139.234 268.187 136.194 267.515 134.443 264.286C133.587 262.707 132.573 262.633 131.21 263.115C130.736 264.904 131.765 266.811 130.008 268.257C131.658 269.285 133.201 270.248 134.781 271.233C135.896 270.253 136.281 268.569 138.107 268.537C138.044 270.041 136.491 270.634 136.375 272.073C140.122 274.101 143.153 277.142 146.59 279.66C149.35 281.682 151.602 284.357 151.927 287.664C152.308 291.532 155.107 292.486 157.771 293.812C159.225 294.536 160.52 294.278 161.508 292.746C162.015 291.96 162.392 290.873 163.718 290.545C164.041 293.244 160.913 294.026 160.7 296.328C162.635 296.404 164.545 295.13 166.392 296.568C166.168 297.944 164.028 298.54 164.33 299.341C165.639 302.814 163.249 301.219 161.967 301.244C161.512 301.253 160.977 301.229 160.741 301.644C160.989 309.218 161.594 316.685 161.529 324.181C161.483 329.446 161.524 334.719 161.762 339.978C161.93 343.693 163.421 344.803 166.986 344.603C172.002 344.319 176.8 342.513 181.861 342.562C182.301 342.566 182.577 342.327 182.776 341.923C183.879 339.682 181.961 335.582 179.561 334.87C178.109 334.44 176.338 334.525 175.287 332.777Z" fill="#59A0E2"/>
<path d="M111.27 173.766C110.05 174.081 109.275 174.273 108.504 174.48C97.229 177.513 92.14 186.685 87.332 195.842C84.633 200.982 82.925 206.635 80.849 212.086C79.621 215.311 78.9 218.688 78.529 222.102C78.271 224.475 78.058 226.935 79.378 229.431C81.648 224.463 86.224 224.835 90.409 224.406C89.252 221.206 86.203 222.78 83.947 221.8C85.241 220.538 86.59 220.837 87.804 220.895C90.825 221.037 91.718 223.888 93.854 225.907C95.931 221.214 96.901 216.446 98.584 211.932C100.271 207.41 102.09 202.935 103.851 198.44C104.071 198.507 104.291 198.575 104.511 198.642C103.952 200.732 103.392 202.821 102.803 205.023C104.588 205.027 105.193 203.007 107.123 203.027C106.432 204.968 105.041 205.944 103.491 206.479C102.074 206.968 101.416 207.835 101.003 209.121C99.78 212.926 98.411 216.689 97.327 220.53C96.712 222.709 94.771 224.94 95.55 226.958C96.354 229.04 98.614 230.578 100.248 232.344C100.344 232.448 100.538 232.464 100.779 232.556C100.978 232.136 101.218 231.728 101.372 231.291C104.852 221.409 108.314 211.52 111.815 201.646C112.02 201.068 111.902 200.583 111.876 200.034C111.607 194.281 110.577 188.611 109.993 182.894C109.854 181.532 109.629 180.137 110.614 178.87C111.598 186.255 113.159 193.546 113.139 201.03C114.666 200.706 114.735 200.709 114.813 199.105C115.031 194.614 114.655 190.177 113.515 185.805C112.515 181.963 110.851 178.254 111.27 173.766Z" fill="#BFBFBF"/>
<path d="M105.967 109.82C116.904 118.525 128.809 119.195 138.291 111.381C138.74 112.69 139.05 114.07 140.464 114.683C141.773 115.25 143.131 115.261 144.514 115.144C146.036 115.014 146.295 113.389 147.509 112.471C147.696 115.548 145.277 115.847 143.472 116.712C143.667 117.472 143.823 118.082 143.981 118.692C144.226 119.631 144.4 120.672 145.744 120.554C146.769 120.464 147.987 120.582 148.516 119.462C149.124 118.175 147.208 118.291 147.074 117.112C148.794 116.085 150.515 114.969 150.773 112.582C151.07 109.826 149.173 109.139 146.866 108.639C149.347 106.013 151.194 103.507 149.904 99.9489C144.086 101.228 139.067 100.569 135.184 95.8909C134.292 94.8159 132.976 94.3164 131.603 93.9907C128.743 93.3115 125.835 92.9848 122.925 93.3362C119.538 93.7459 116.304 94.6767 113.297 96.4121C111.327 97.5492 111.092 99.4791 110.514 101.436C109.427 99.5106 109.419 96.3983 105.992 98.0231C102.845 99.5156 102.545 101.907 104.749 106.872C104.017 107.389 103.552 106.829 103.07 106.436C102.447 105.928 101.794 105.803 101.044 106.124C99.2552 106.891 97.3532 110.138 97.6092 112.082C97.7872 113.431 98.2812 114.395 99.9882 113.91C100.875 113.657 101.885 113.355 102.445 114.562C101.712 116.061 99.7002 114.948 98.9702 116.416C97.8262 118.716 97.0372 121.052 98.1762 123.525C98.6622 124.582 98.9042 125.62 98.9662 126.743C99.1272 129.654 99.5912 130.108 102.719 130.4C102.66 129.201 103.162 128.267 104.073 127.486C106.201 125.658 107.178 123.278 107.496 120.55C107.927 116.859 108.421 113.181 105.967 109.82Z" fill="#441A03"/>
<path d="M143.926 145.297C142.482 145.003 141.458 144.068 140.324 143.329C137.207 141.297 134.082 140.716 130.944 143.295C130.507 143.655 130.116 143.925 129.433 143.681C123.618 141.608 119.032 144.009 114.916 147.766C112.826 149.674 112.182 149.761 109.887 147.93C107.82 146.281 106.047 144.38 104.761 141.986C104.447 142.33 104.276 142.43 104.263 142.546C104.212 143.021 104.174 143.502 104.193 143.978C104.348 147.928 104.153 151.798 102.169 155.396C101.589 156.447 101.509 157.692 101.508 158.905C101.506 161.227 102.717 162.884 104.647 163.96C106.499 164.992 107.319 163.17 108.475 162.327C108.564 162.262 108.775 162.359 109.046 162.396C109.208 164.096 109.193 166.082 111.489 166.447C115.048 167.013 118.382 166.847 119.833 162.201C121.643 164.169 122.799 166.15 125.567 165.884C128.22 165.628 129.786 164.25 131.218 161.431C131.958 164.25 134.043 164.192 135.686 164.916C138.43 166.127 140.999 165.506 143.262 163.977C145.41 162.526 145.108 160.278 144.424 158.102C144.388 157.987 144.533 157.815 144.598 157.672C147.462 156.755 148.727 155.199 148.893 152.69C149.166 148.541 147.738 144.745 146.648 140.604C145.2 142.072 145.26 144.083 143.926 145.297Z" fill="#441A03"/>
<path d="M181.508 219.107C184.062 224.977 186.594 230.843 189.169 236.692C190.359 239.396 190.961 242.923 193.05 244.514C195.274 246.208 198.979 244.921 202.035 245.021C204.576 245.104 207.122 245.038 209.866 245.038C206.342 238.217 206.353 238.139 211.288 232.872C210.557 232.994 209.932 233.133 209.3 233.199C207.886 233.346 206.204 234.156 205.149 232.93C204.015 231.613 205.988 230.588 206.132 229.253C198.858 225.834 191.576 222.395 184.272 219.002C183.476 218.632 182.555 218.599 181.508 219.107Z" fill="#C6E2F7"/>
<path d="M137.346 181.911C135.091 183.582 132.876 183.148 130.635 182.776C128.075 182.35 126.674 180.593 125.561 178.459C122.865 182.438 119.69 185.011 114.32 183.568C116.114 189.38 116.595 195.121 116.159 201.037C117.163 201.096 117.874 201.172 118.585 201.173C124.564 201.181 130.547 201.051 136.52 201.238C138.894 201.312 139.539 200.224 139.552 198.326C139.59 192.878 138.4 187.597 137.346 181.911Z" fill="white"/>
<path d="M129.547 255.809C116.051 255.809 102.679 255.809 89.0781 255.809C89.7111 258.782 89.3751 261.639 89.6561 265.015C95.0701 262.337 99.5421 258.473 105.496 258.108C100.516 259.859 96.2551 262.954 91.5551 265.16C89.3611 266.188 89.5301 267.145 90.1231 268.77C90.7061 270.371 92.1541 270.773 93.7751 271.645C93.3561 269.218 94.5791 268.721 96.3321 268.417C100.239 267.741 104.106 266.886 107.058 263.907C107.481 263.48 108.173 263.148 108.774 263.084C114.561 262.475 120.319 262.711 125.389 265.777C126.984 266.741 128.042 266.794 129.547 266.208C129.547 262.768 129.547 259.364 129.547 255.809Z" fill="#BFBFBF"/>
<path d="M152.61 201.176C153.707 201.176 154.748 201.178 155.79 201.176C158.851 201.167 158.903 201.164 158.768 198.078C158.569 193.545 156.825 189.378 155.532 185.1C154.883 182.953 153.809 181.045 152.026 179.767C148.288 177.087 144.134 175.215 139.102 174.164C141.279 183.163 142.049 191.98 141.409 201.174C143.426 201.174 145.434 201.102 147.434 201.197C148.931 201.268 149.474 200.571 149.53 199.238C149.651 196.365 149.776 193.493 149.918 190.621C149.945 190.075 149.703 189.407 150.7 188.758C151.342 192.377 151.311 195.71 151.061 199.251C151.428 198.695 151.101 198.024 151.968 197.937C152.724 198.766 152.112 199.905 152.61 201.176Z" fill="#BFBFBF"/>
<path d="M216.125 354.55C219.16 354.55 222.06 354.466 224.953 354.565C234.572 354.896 244.193 354.664 253.812 354.687C254.426 354.688 255.222 354.859 255.452 354.041C256.105 351.726 255.956 349.426 254.865 347.28C254.026 345.629 252.525 347.061 251.373 346.749C251.148 346.688 250.889 346.759 250.648 346.742C241.713 346.081 232.774 346.018 223.82 346.336C218.737 346.515 216.203 348.932 216.125 354.55Z" fill="black"/>
<path d="M186.927 218.768C186.878 218.982 186.829 219.197 186.781 219.41C191.502 221.608 196.239 223.774 200.939 226.015C204.525 227.724 208.03 229.374 212.102 227.248C213.339 226.602 215.891 226.026 216.104 226.167C218.691 227.872 221.664 226.402 224.693 227.936C223.519 225.209 222.498 223.136 221.736 220.973C221.142 219.286 220.228 218.68 218.378 218.723C212.809 218.851 207.234 218.768 201.662 218.768C196.75 218.768 191.839 218.768 186.927 218.768Z" fill="#C6E2F7"/>
<path d="M93.6151 242.444C96.3731 242.834 97.6591 241.771 98.8071 239.168C100.519 235.289 99.5431 232.724 96.4751 230.383C96.1601 230.142 95.8691 229.842 95.6481 229.516C92.8971 225.45 89.0441 225.146 84.7431 226.391C80.0451 227.751 78.7831 231.809 81.9811 235.438C83.5711 237.242 85.4051 238.868 87.5511 239.956C89.5201 240.955 90.9191 243.402 93.6151 242.444Z" fill="#BFBFBF"/>
<path d="M260.217 176.779C254.064 177.821 247.946 177.573 241.914 177.766C241.429 179.559 241.697 180.701 243.616 181.149C244.695 181.401 245.66 182.095 246.716 182.484C248.624 183.186 249.009 184.572 248.596 186.329C248.201 188.006 247.51 189.5 248.147 191.441C248.64 192.943 247.691 194.537 245.49 194.535C244.572 194.534 243.591 194.253 242.586 194.845C242.988 196.087 243.976 196.348 245.036 196.38C248.816 196.492 252.6 196.518 256.379 196.661C258.644 196.747 259.938 195.524 260.342 193.592C260.821 191.308 260.521 188.961 260.326 186.556C259.057 186.754 258.112 187.002 257.161 187.028C255.649 187.068 254.067 186.803 253.635 185.136C253.257 183.677 253.795 182.329 255.204 181.427C256.361 180.685 257.495 179.838 258.845 179.584C260.499 179.269 260.774 178.416 260.217 176.779Z" fill="white"/>
<path d="M191.131 244.712C187.251 235.775 183.422 226.957 179.635 218.233C180.847 217.295 181.843 217.417 182.793 217.416C195.015 217.405 207.236 217.439 219.457 217.37C221.131 217.36 221.962 218.004 222.544 219.434C223.599 222.027 224.817 224.556 225.852 227.157C226.647 229.153 228.182 230.191 230.522 231.235C228.341 226.234 226.284 221.741 224.437 217.164C223.758 215.482 222.858 214.955 221.044 214.965C206.799 215.042 192.554 215.004 178.309 215.019C177.533 215.02 176.712 214.807 175.883 215.314C175.952 215.607 175.978 215.922 176.098 216.198C180.081 225.374 184.09 234.539 188.045 243.726C188.687 245.215 189.638 245.235 191.131 244.712Z" fill="white"/>
<path d="M29.0962 289.299C30.0422 289.299 30.8652 289.183 31.6422 289.32C34.3492 289.798 35.5642 288.602 36.5602 286.129C40.2882 276.872 44.2992 267.727 48.1762 258.529C48.5312 257.686 49.1962 256.894 48.8902 255.647C47.7922 255.647 46.6612 255.758 45.5622 255.624C43.5832 255.382 42.6542 256.141 41.8882 258.015C38.0502 267.401 34.0082 276.705 30.0632 286.048C29.6682 286.982 29.0502 287.863 29.0962 289.299Z" fill="#E2DA8D"/>
<path d="M282.525 289.066C282.525 288.734 282.574 288.559 282.518 288.427C278.051 277.833 273.566 267.245 269.12 256.642C268.82 255.928 268.415 255.651 267.688 255.656C266.009 255.667 264.329 255.659 262.662 255.659C262.492 256.922 263.099 257.73 263.463 258.592C267.128 267.275 270.818 275.946 274.494 284.623C276.651 289.715 276.645 289.717 282.209 289.199C282.282 289.191 282.352 289.14 282.525 289.066Z" fill="#E2DA8D"/>
<path d="M281.105 298.076C279.278 296.288 280.384 293.115 276.914 293.12C264.368 293.138 251.821 293.163 239.275 293.092C237.198 293.08 236.75 294.061 236.902 295.742C237.08 297.703 238.347 298.104 240.128 298.098C252.269 298.054 264.411 298.075 276.553 298.076C277.841 298.076 279.128 298.076 281.105 298.076Z" fill="#F4E7C4"/>
<path d="M280.35 355.017C279.242 351.618 280.14 348.372 280.753 345.168C272.656 346.024 264.625 346.029 256.727 348.127C257.509 350.454 257.17 352.672 256.906 355.016C264.736 355.017 272.464 355.017 280.35 355.017Z" fill="black"/>
<path d="M150.54 345.744C149.967 345.064 149.431 344.944 148.839 345.041C143.612 345.901 138.388 345.897 133.146 345.136C132.347 345.019 131.064 344.962 130.999 346.126C130.814 349.451 129.939 352.757 130.783 356.127C131.14 357.552 131.845 358.148 133.301 358.077C135.806 357.955 138.322 357.736 140.817 357.864C142.776 357.964 143.717 357.4 144.169 355.452C145.079 351.531 147.147 348.244 150.54 345.744Z" fill="#301303"/>
<path d="M159.748 242.552C159.16 242.476 158.688 242.363 158.215 242.363C138.965 242.353 119.715 242.367 100.465 242.328C98.6491 242.324 98.0511 243.126 98.0791 244.823C98.4671 244.903 98.7701 245.021 99.0721 245.02C118.642 244.971 138.212 244.904 157.783 244.87C159.278 244.867 159.789 244.177 159.748 242.552Z" fill="#989899"/>
<path d="M146.852 357.919C154.045 358.317 161.113 357.37 168.465 357.187C168.012 355.139 167.755 353.563 167.303 352.044C166.817 350.413 165.491 349.288 164.01 348.761C156.479 346.08 149.043 350.043 146.852 357.919Z" fill="#301303"/>
<path d="M289.382 346.603C293.323 345.756 296.927 345.464 300.48 344.336C299.89 342.935 299.309 341.708 298.858 340.435C298.499 339.423 297.896 339.087 296.842 339.244C293.729 339.706 290.59 340.022 287.497 340.585C285.361 340.974 283.535 342.025 282.716 344.199C281.752 346.76 281.132 349.396 281.279 352.153C281.399 354.385 282.48 356.166 284.391 357.253C286.82 358.634 288.985 358.06 291.033 355.798C293.206 353.397 293.318 352.134 291.525 349.46C290.965 348.622 290.317 347.841 289.382 346.603Z" fill="#4F4F4F"/>
<path d="M364.726 346.656C363.766 347.968 363.031 348.889 362.388 349.869C360.673 352.485 361.405 354.926 364.533 357.175C366.42 358.531 369.706 357.936 371.29 356.015C373.922 352.824 372.829 349.394 372.066 345.953C371.33 342.639 369.195 341.001 365.904 340.381C361.996 339.645 358.032 339.439 354.105 338.904C347.934 338.063 341.779 336.587 335.596 336.473C325.851 336.294 316.017 335.881 306.381 338.108C305.405 338.334 304.243 337.984 303.375 339.106C304.438 340.826 304.188 343.614 307.721 343.436C306.887 345.018 306.916 346.393 307.328 347.802C308.276 351.04 309.788 354.05 311.146 357.121C311.43 357.762 311.851 358.47 312.784 358.23C314.904 357.687 316.687 356.788 317.404 354.475C318.054 352.379 317.57 350.752 315.888 349.35C315.196 348.774 314.096 348.475 314.072 346.947C318.28 345.402 322.564 343.807 326.873 342.282C327.252 342.148 327.812 342.411 328.256 342.572C331.747 343.846 335.229 345.143 338.717 346.423C339.318 346.643 340.007 346.729 340.121 347.522C340.013 348.273 339.361 348.556 338.859 348.915C336.977 350.258 336.027 351.892 336.706 354.264C337.424 356.774 339.296 357.961 341.662 358.226C344.126 358.503 346.827 358.19 348.186 355.939C349.341 354.027 348.902 351.751 347.219 349.981C346.695 349.43 346.798 348.789 346.92 348.172C347.231 346.614 347.285 345.067 346.515 343.02C352.748 344.266 358.538 345.421 364.726 346.656Z" fill="#4F4F4F"/>
<path d="M334.876 334.986C334.876 328.234 334.876 321.76 334.876 315.328C329.547 315.328 324.419 315.328 319.273 315.328C319.273 321.95 319.273 328.425 319.273 334.986C324.552 334.986 329.617 334.986 334.876 334.986Z" fill="#262626"/>
<path d="M334.933 313.345C334.933 309.83 334.933 306.53 334.933 303.227C329.611 303.227 324.469 303.227 319.242 303.227C319.242 306.685 319.242 309.982 319.242 313.345C324.51 313.345 329.592 313.345 334.933 313.345Z" fill="#76768C"/>
<path d="M183.62 236.398C181.199 238.802 180.184 241.732 177.616 243.359C178.428 240.812 180.385 238.961 181.626 236.693C182.001 236.008 182.813 235.385 182.481 234.548C181.476 232.012 180.353 229.522 179.084 226.568C175.317 232.935 171.883 238.741 168.422 244.591C171.961 245.807 172.156 241.767 174.699 241.055C174.625 242.649 173.263 243.355 172.864 244.726C177.586 245.25 182.173 245.046 186.983 244.943C186.094 242.63 185.388 240.66 184.277 238.84C182.853 239.777 182.635 241.674 180.668 242.246C181.196 240.025 183.242 238.905 183.62 236.398Z" fill="#FA720E"/>
<path d="M196.638 356.813C196.832 349.763 193.984 347.23 186.264 347.258C182.789 347.271 178.666 352.577 178.892 356.813C184.765 356.813 190.642 356.813 196.638 356.813Z" fill="#301303"/>
<path d="M120.538 164.869C119.684 165.509 118.936 166.293 118.017 166.704C116.612 167.333 116.522 168.301 116.624 169.609C116.729 170.959 117.277 171.772 118.508 172.366C122.994 174.529 127.122 176.992 132.227 172.916C134.77 170.886 134.13 168.872 134.277 166.668C134.418 164.543 132.425 164.667 131.267 163.945C127.527 167.696 124.165 167.863 120.538 164.869Z" fill="#E9A787"/>
<path d="M133.646 256.2C134.17 258.477 134.238 260.62 135.069 262.586C136.575 266.152 138.736 266.692 141.706 264.068C143.205 262.743 144.833 261.965 146.802 261.515C148.215 261.193 149.811 261.498 150.784 260.872C148.693 255.18 144.023 255.424 139.312 255.763C139.07 255.781 138.827 255.766 138.584 255.766C136.033 255.766 133.482 255.766 130.903 255.766C130.903 256.825 130.849 257.624 130.919 258.413C130.981 259.119 130.583 260.184 131.912 260.167C133.033 260.152 132.752 259.228 132.869 258.57C132.999 257.842 132.755 256.998 133.646 256.2Z" fill="#BFBFBF"/>
<path d="M31.9966 291.05C30.0816 290.124 29.9556 291.598 29.5596 292.523C22.5266 308.996 15.5126 325.477 8.49756 341.958C6.40656 346.87 4.32756 351.786 2.22656 356.738C4.08156 357.501 4.27656 356.154 4.68956 355.185C12.1456 337.693 19.5936 320.197 27.0416 302.702C28.6936 298.824 30.3416 294.943 31.9966 291.05Z" fill="white"/>
<path d="M279.664 291.037C279.961 291.781 280.24 292.519 280.548 293.243C284.33 302.141 288.114 311.039 291.901 319.935C296.909 331.698 301.916 343.461 306.936 355.22C307.349 356.187 307.55 357.569 309.36 356.708C306.141 349.132 302.928 341.563 299.71 333.996C293.826 320.162 287.944 306.327 282.044 292.499C281.644 291.56 281.496 290.107 279.664 291.037Z" fill="white"/>
<path d="M160.719 240.093C159.835 239.287 158.732 239.654 157.74 239.652C140.274 239.627 122.809 239.635 105.343 239.636C103.888 239.636 102.432 239.631 100.977 239.643C100.139 239.65 99.3139 239.699 99.4629 241.027C99.7249 241.107 100.012 241.272 100.299 241.272C119.867 241.291 139.434 241.299 159.002 241.3C159.812 241.3 160.679 241.3 160.719 240.093Z" fill="#BFBFBF"/>
<path d="M175.073 356.807C175.796 352.378 176.865 348.358 180.457 344.789C174.358 343.867 169.111 346.674 163.523 346.25C167.77 348.635 169.532 352.201 169.518 356.807C171.472 356.807 173.21 356.807 175.073 356.807Z" fill="#301303"/>
<path d="M320.422 291.685C320.837 291.73 321.155 291.795 321.473 291.795C339.849 291.801 358.225 291.77 376.601 291.844C378.762 291.853 379.159 290.709 379.388 289.073C379.952 285.039 380.503 281.001 381.14 276.978C383.677 260.961 386.455 244.979 388.242 228.854C388.426 227.191 388.629 225.45 389.505 224.009C391.964 219.96 393.948 215.687 395.851 211.376C398.155 206.158 399.22 200.964 397.561 195.132C395.705 188.608 393.947 186.671 387.125 186.553C386.963 186.55 386.801 186.551 386.639 186.55C372.388 186.475 358.167 187.261 343.958 188.189C341.392 188.356 338.702 188.19 335.929 189.035C336.353 189.349 336.465 189.489 336.606 189.528C345.865 192.09 349.592 199.739 345.854 208.512C344.033 212.786 342.278 217.118 339.675 220.981C337.141 224.741 336.068 228.851 335.19 233.209C332.854 244.799 330.101 256.307 327.638 267.873C325.924 275.929 323.472 283.75 320.422 291.685Z" fill="#9898B2"/>
<path d="M283.05 291.136C283.872 292.152 284.833 291.782 285.654 291.784C295.206 291.812 304.759 291.802 314.312 291.801C318.044 291.801 319.596 291.006 320.573 287.514C322.248 281.528 324.761 275.834 325.93 269.644C328.599 255.521 332.201 241.579 334.886 227.45C335.126 226.187 335.626 224.993 336.34 223.914C339.63 218.945 342.182 213.608 344.507 208.15C348.233 199.405 344.206 192.089 334.801 190.623C333.526 190.424 332.223 190.396 330.933 190.294C323.409 189.706 320.591 193.36 319.581 200.374C319.092 203.772 318.881 207.219 318.211 210.579C316.194 220.682 314.17 230.788 311.847 240.826C309.973 248.92 310.296 257.389 307.357 265.291C306.636 267.23 306.158 269.272 305.731 271.3C304.675 276.316 301.411 279.003 296.186 279.013C291.734 279.021 287.281 279.003 282.829 279.029C282.051 279.034 281.213 278.796 280.305 279.471C281.456 282.216 282.582 285.012 283.801 287.768C284.397 289.116 285.1 290.38 283.05 291.136Z" fill="#9898B2"/>
<path d="M238.914 291.5C251.951 291.5 264.844 291.5 277.738 291.5C277.883 291.271 278.028 291.042 278.173 290.813C275.084 291.026 274.798 288.787 274.008 287.015C273.161 285.114 272.256 283.225 271.598 281.259C271.027 279.552 270.103 278.936 268.248 278.974C262.583 279.093 256.913 278.97 251.245 279.022C243.604 279.092 239.085 283.565 238.914 291.5Z" fill="#9898B2"/>
<path d="M374.144 299.547C345.007 299.547 315.952 299.547 286.844 299.547C286.884 301.69 288.269 301.647 289.712 301.646C305.331 301.633 320.95 301.641 336.569 301.64C347.98 301.639 359.391 301.629 370.801 301.638C372.313 301.639 373.74 301.589 374.144 299.547Z" fill="#9898B2"/>
<path d="M281.998 301.439C281.87 299.569 280.834 299.373 279.457 299.377C267.968 299.414 256.478 299.396 244.989 299.412C244.559 299.413 243.999 299.193 243.664 299.899C244.245 301.203 245.366 301.611 246.75 301.611C258.158 301.614 269.567 301.622 280.975 301.619C281.278 301.619 281.581 301.515 281.998 301.439Z" fill="#9898B2"/>
<path d="M113.016 171.303C112.556 174.354 112.243 177.127 113.338 179.768C114.307 182.107 116.227 182.987 118.397 182.525C121.038 181.964 124.06 179.241 124.251 177.3C124.315 176.646 124.096 176.232 123.502 175.969C120.127 174.47 116.755 172.967 113.016 171.303Z" fill="white"/>
<path d="M136.649 171.768C133.969 173.272 131.328 174.929 128.529 176.264C126.698 177.137 126.885 178.099 127.757 179.421C129.231 181.655 134.145 182.543 136.271 180.959C138.431 179.349 138.709 174.193 136.649 171.768Z" fill="white"/>
<path d="M59.847 255.777C59.847 267.106 59.831 278.127 59.87 289.149C59.874 290.333 60.023 291.573 60.401 292.69C61.426 295.715 63.329 298.079 66.59 298.86C69.014 299.441 71.519 299.753 74.007 300.008C87.518 301.395 100.991 303.074 114.455 304.85C118.742 305.416 123.117 304.985 127.32 303.529C127.422 299.108 124.058 295.692 124.742 291.255C119.847 291.114 115.555 289.688 111.223 288.407C106.539 287.021 102.752 284.157 99.04 281.204C97.664 280.109 96.265 278.767 96.02 276.971C95.706 274.67 94.181 273.293 92.418 272.537C88.9 271.027 88.106 268.284 88.061 264.992C88.02 261.972 88.193 258.945 87.736 255.831C81.764 255.831 75.839 255.831 69.851 255.831C69.421 259.442 70.121 262.979 69.351 266.378C69.049 266.373 68.747 266.368 68.445 266.363C68.445 262.843 68.445 259.323 68.445 255.778C65.338 255.777 62.699 255.777 59.847 255.777Z" fill="#4A2747"/>
<path d="M87.6714 242.368C85.2534 240.27 82.7054 238.531 80.8584 236.129C76.7404 230.771 76.0824 224.6 77.7894 218.349C80.8414 207.174 84.2334 196.085 91.3694 186.583C91.7704 186.049 92.4124 185.541 92.1784 184.658C83.9994 184.658 75.8394 184.658 67.4934 184.658C68.6664 186.783 70.3634 188.512 69.5524 191.202C68.5334 190.421 68.5384 189.559 68.2354 188.842C67.4794 187.055 66.6384 184.806 64.5704 184.823C62.2934 184.841 60.8274 186.818 60.0004 188.949C59.6544 189.842 59.4824 190.767 59.4844 191.755C59.5214 208.529 59.5214 225.304 59.5544 242.078C59.5564 242.995 59.2644 243.98 59.9164 244.888C62.6434 244.888 65.3584 244.888 68.5644 244.888C68.5644 229.914 68.5644 215.087 68.5644 200.261C68.8924 200.262 69.2204 200.263 69.5474 200.264C69.5474 215.108 69.5474 229.951 69.5474 245.023C72.6104 245.023 75.1854 245.023 77.7594 245.023C78.2764 245.023 78.8074 244.889 78.9664 244.394C79.6934 242.133 81.5484 242.347 83.3384 242.367C84.7824 242.38 86.2274 242.368 87.6714 242.368Z" fill="#4A2747"/>
<path d="M183.102 301.201C185.495 301.729 187.599 301.489 189.682 301.572C192.474 301.683 194.282 300.391 195.302 297.882C195.723 296.846 196.307 295.86 196.62 294.795C197.306 292.461 198.056 289.719 195.824 288.101C192.259 285.514 188.036 284.182 183.378 283.531C184.388 289.563 183.995 295.264 183.102 301.201Z" fill="#4A2747"/>
<path d="M159.158 295.654C156.598 295.291 154.749 293.646 152.605 292.566C152.095 294.463 151.984 300.786 152.414 302.761C154.604 302.761 156.8 302.761 159.114 302.761C158.596 300.35 159.233 298.156 159.158 295.654Z" fill="#4A2747"/>
<path d="M97.1395 243.403C91.8384 243.403 86.9314 243.4 82.0244 243.405C81.1834 243.406 80.3954 243.515 80.2734 244.579C83.6854 245.706 95.9025 245.179 97.1395 243.403Z" fill="#989899"/>
<path d="M241.992 175.597C245.781 177.046 258.005 176.294 260.185 174.561C253.873 173.965 247.873 173.747 241.992 175.597Z" fill="#683611"/>
<path d="M252.538 303.048C250.371 303.048 248.594 302.95 246.832 303.075C244.875 303.213 243.475 302.368 242.641 300.798C241.996 299.585 241.16 299.235 239.925 299.398C238.248 299.619 236.836 299.214 236.06 297.618C235.195 295.838 235.185 293.96 236.399 292.401C237.15 291.436 237.349 290.466 237.564 289.368C239.122 281.415 243.04 278.113 250.86 277.59C256.417 277.218 262.023 277.57 267.607 277.564C268.274 277.563 269.065 277.863 269.584 277.158C269.333 274.651 268.154 273.668 265.464 273.733C257.536 273.924 249.601 273.799 241.669 273.831C237.173 273.85 234.126 275.861 232.311 280.043C230.699 283.759 230.766 287.502 231.241 291.331C232.351 300.283 233.924 309.193 233.475 318.275C233.353 320.745 233.561 323.231 233.471 325.703C233.404 327.534 234.173 328.058 235.937 327.926C239.291 327.678 242.405 326.54 245.592 325.658C246.393 325.436 247.16 324.813 248.718 325.583C243.754 328.034 239.019 329.309 233.654 329.292C233.717 333.376 233.579 337.438 234.151 341.718C239.314 338.83 244.367 336.393 249.322 333.735C244.636 338.446 238.269 340.49 232.902 344.074C233.196 344.756 233.74 344.641 234.196 344.648C239.592 344.725 244.984 344.845 250.367 345.299C251.636 345.405 252.949 345.196 254.222 345.008C255.425 344.831 256.072 344.055 255.976 342.819C255.872 341.471 255.941 340 254.916 338.966C252.4 336.429 252.663 333.544 253.557 330.496C253.918 329.263 254.188 327.923 253.464 326.762C252.554 325.303 252.533 323.744 252.535 322.14C252.543 315.918 252.538 309.698 252.538 303.048Z" fill="#0A5840"/>
<path d="M271.357 328.898C275.307 328.422 278.722 326.891 282.415 325.952C282.345 327.072 281.807 327.352 281.312 327.551C277.858 328.939 274.288 330.01 270.61 330.557C267.8 330.976 267.381 331.404 268.605 333.987C269.707 336.311 269.714 338.376 267.774 340.35C266.79 341.35 266.178 342.661 266.164 344.432C270.092 344.437 273.875 344.868 277.631 344.137C279.038 343.864 280.919 343.679 281.65 342.742C283.711 340.102 286.541 339.295 289.528 338.677C289.35 331.439 287.802 324.42 288.534 317.294C288.603 316.623 288.346 315.871 288.077 315.221C286.613 311.677 285.105 308.15 283.593 304.626C283.32 303.99 283.179 303.134 282.247 303.127C278.491 303.1 274.735 303.116 270.745 303.116C271.578 311.871 271.205 320.243 271.357 328.898Z" fill="#0A5840"/>
<path d="M287.93 277.571C287.21 276.145 286.621 274.981 285.971 273.695C283.467 274.677 280.814 273.157 278.07 274.199C278.89 275.53 278.505 277.502 280.69 277.557C283.006 277.616 285.325 277.571 287.93 277.571Z" fill="#0A5840"/>
<path d="M261.984 178.595C266.095 181.031 266.279 184.135 262.659 186.83C261.944 187.362 261.829 187.929 262.357 188.631C267.185 187.488 267.677 184.276 266.43 179.595C265.921 177.681 264.504 177.421 261.984 178.595Z" fill="white"/>
<path d="M270.967 228.286C274.98 224.738 277.016 220.496 279.668 216.722C280.216 215.941 279.341 215.428 278.851 214.943C276.677 212.796 274.35 210.784 272.326 208.508C268.888 204.641 265.75 200.592 265.979 194.976C266.059 193.014 265.752 191.036 265.609 188.871C263.664 189.676 262.203 190.154 261.743 192.629C260.846 197.453 260.016 197.855 255.641 198.121C254.904 198.167 254.054 197.861 253.195 198.69C260.592 207.538 264.888 218.148 270.967 228.286Z" fill="#FCC6B1"/>
<path d="M339.133 163.993C338.303 162.468 337.571 161.001 337.399 159.413C336.871 154.53 333.793 151.555 329.781 149.293C328.069 148.328 326.946 147.037 326.268 145.21C325.077 142.002 323.909 138.798 323.563 135.322C322.139 135.322 320.956 135.322 319.646 135.322C319.805 136.83 320.06 138.24 320.071 139.65C320.081 140.937 320.718 142.408 318.858 144.049C318.883 140.013 318.342 136.602 317.676 132.964C324.46 134.979 329.663 131.604 328.734 126.363C325.352 126.502 322.495 127.992 319.803 129.982C320.369 127.898 321.749 126.782 323.533 126.109C325.244 125.462 327.174 125.452 328.879 124.399C328.416 122.607 328.46 120.516 326.136 120.048C323.956 119.609 322.71 121.082 321.702 122.722C321.326 123.334 321.055 124.008 320.715 124.642C320.48 125.079 320.536 125.846 319.643 125.617C318.76 124.186 320.326 123.12 320.267 121.715C317.908 120.729 315.815 119.404 314.978 116.818C314.184 114.366 314.875 111.987 315.622 109.462C313.401 109.512 311.468 109.012 309.649 108.445C307.699 110.196 306.802 112.31 306.356 114.627C305.736 117.841 305.214 121.074 304.583 124.286C304.075 126.872 302.685 128.952 300.16 129.894C297.031 131.062 296.802 131.586 298.992 134.273C300.111 134.308 301.102 132.526 302.672 134.196C300.631 135.327 298.965 136.697 299.29 139.368C301.115 139.858 302.901 139.268 304.707 139.004C305.478 138.891 306.377 138.488 307.005 139.197C307.738 140.024 307.056 140.882 306.746 141.655C305.785 144.051 304.05 145.797 301.815 147.084C300.846 147.643 299.712 148.691 300.647 149.493C303.032 151.538 301.823 153.709 301.397 155.889C300.653 159.696 301.216 160.495 305.03 161.387C308.303 162.153 311.468 161.466 314.656 160.949C316.168 160.704 317.11 160.918 317.132 162.802C317.148 164.217 317.763 165.615 317.876 167.04C318.032 169.002 318.883 169.379 320.756 168.967C326.912 167.61 332.998 166.037 339.133 163.993Z" fill="#FCC6B1"/>
<path d="M252.432 234.19C247.608 234.19 242.981 233.873 238.421 234.279C233.983 234.676 230.485 233.249 226.928 230.878C220.964 226.902 214.586 227.806 208.203 229.8C208.418 231.506 208.965 232.011 210.499 231.624C212.58 231.1 214.765 230.75 216.866 231.942C216.271 233.145 215.373 233.023 214.629 233.243C212.299 233.933 210.364 235.167 209.225 237.361C207.679 240.338 210.535 244.999 213.924 245.035C226.455 245.17 238.987 245.384 251.518 245.033C252.128 245.016 252.835 245.243 253.328 244.498C253.008 242.924 252.304 241.378 252.41 239.656C252.513 237.996 252.432 236.324 252.432 234.19Z" fill="#FCC6B1"/>
<path d="M256.809 185.671C258.812 185.423 260.641 185.191 262.472 184.974C263.212 184.886 263.563 184.526 263.703 183.769C264.081 181.733 262.882 179.312 260.142 180.528C258.823 181.114 257.389 181.455 256.206 182.323C255.59 182.774 254.773 183.166 255.18 184.087C256.076 184.623 256.489 183.006 257.349 183.741C257.736 184.528 256.781 184.854 256.809 185.671Z" fill="#FCC6B1"/>
<path d="M143.394 143.996C146.361 139.198 146.821 135.548 145.519 130.461C144.449 126.281 143.595 122.047 142.65 117.836C142.473 117.048 142.363 116.233 141.326 116.067C139.72 115.809 138.679 114.665 137.756 113.719C128.177 120.04 118.747 118.049 109.249 113.95C108.764 114.42 108.893 115.091 108.883 115.712C108.81 120.494 108.51 125.193 104.44 128.643C104.211 128.836 103.98 129.184 103.98 129.459C103.976 133.068 102.767 136.748 104.937 140.22C106.43 142.609 107.881 144.949 110.116 146.789C111.713 148.105 112.706 148.509 114.524 146.801C118.616 142.957 123.363 140.532 129.268 142.736C130.093 143.044 130.446 142.472 130.935 142.103C133.532 140.149 136.283 140.012 139.119 141.503C140.536 142.248 141.889 143.112 143.394 143.996Z" fill="#E9A787"/>
<path d="M103.146 141.295C103.192 140.957 103.467 140.281 103.327 139.703C103.042 138.525 103.179 136.904 101.651 136.535C99.7816 136.083 97.8286 135.953 95.9056 135.736C94.7216 135.602 94.1886 136.098 94.1346 137.369C93.9806 140.976 95.6876 143.707 98.2976 145.898C100.179 147.478 102.881 146.191 103.135 143.751C103.208 143.039 103.146 142.313 103.146 141.295Z" fill="#E9A787"/>
<path d="M101.613 135.645C101.505 131.996 100.172 130.157 97.9006 130.216C95.9376 130.268 94.4926 132.136 94.5736 134.627C96.8776 134.692 99.1586 135.039 101.613 135.645Z" fill="#E9A787"/>
<path d="M147.86 139.193C150.904 137.089 151.819 134.261 150.904 130.425C149.762 130.375 148.304 130.509 148.104 131.641C147.688 134.004 146.695 136.451 147.86 139.193Z" fill="#E9A787"/>
<path d="M150.972 129.12C150.812 127.425 150.394 126.095 148.855 125.458C148.179 125.178 147.483 125.452 147.165 126.034C146.358 127.508 146.069 129.057 146.886 130.76C147.607 130.359 148.136 129.99 148.722 129.759C149.383 129.498 150.096 129.362 150.972 129.12Z" fill="#E9A787"/>
<path d="M239.658 185.449C239.112 186.749 238.576 187.911 240.216 188.76C242.18 189.777 245.842 189.282 247.025 187.762C245.722 187.546 244.422 187.469 243.218 187.093C242.017 186.718 240.912 186.043 239.658 185.449Z" fill="#FCC6B1"/>
<path d="M245.722 190.746C244.164 190.632 242.731 190.557 241.306 190.413C240.499 190.332 239.525 190.078 239.295 191.082C239.054 192.132 240.045 192.66 240.869 192.83C242.706 193.209 244.583 193.29 246.777 192.651C244.141 192.893 245.643 191.504 245.722 190.746Z" fill="#FCC6B1"/>
<path d="M247.614 184.421C245.325 183.432 243.669 182.695 241.994 182.003C241.465 181.785 240.87 181.707 240.458 182.254C240.146 182.668 240.178 183.138 240.382 183.608C241.065 185.181 243.424 185.845 245.016 184.999C245.549 184.716 246.236 184.713 247.614 184.421Z" fill="#FCC6B1"/>
<path d="M153.898 347.084C150.458 346.236 146.222 350.935 145.867 355.95C147.834 352.201 150.24 349.255 153.898 347.084Z" fill="#301303"/>
<path d="M176.986 356.316C177.879 352.278 180.125 349.075 183.471 346.17C179.668 346.253 176.711 351.181 176.986 356.316Z" fill="#301303"/>
<path d="M358.021 185.734C356.092 179.328 351.069 175.961 346.391 172.317C348.386 170.946 347.637 168.955 346.969 167.318C346.164 165.347 344.371 164.653 342.157 165.073C334.298 166.562 326.766 169.325 318.91 170.843C317.274 171.159 315.861 172.25 314.664 173.928C318.964 173.072 322.919 173.193 326.886 173.486C325.209 174.695 323.346 174.596 321.506 174.632C319.571 174.669 317.668 174.65 315.748 175.222C308.721 177.315 304.801 182.392 302.583 188.834C301.359 192.389 299.29 194.935 296.198 196.925C291.921 199.678 288.478 203.182 286.272 207.825C284.001 212.604 281.267 217.13 278.181 221.45C277.009 223.091 275.969 224.822 274.653 226.844C281.352 225.686 287.544 224.502 293.233 220.708C293.196 222.715 291.941 223.124 290.949 223.646C286.607 225.93 281.836 226.836 277.084 227.852C270.146 229.337 271.488 228.847 270.932 234.81C270.854 235.651 271.371 236.812 269.643 237.188C268.658 235.087 269.497 232.882 269.376 230.488C267.547 232.391 267.983 234.708 267.67 237.127C266.536 235.638 266.536 235.638 266.437 231.937C264.027 231.494 261.646 232.309 259.241 232.243C258.47 232.222 258.135 232.931 257.996 233.539C257.276 236.682 256.94 239.836 257.973 242.994C258.454 244.463 259.298 245.107 260.993 245.082C267.629 244.98 274.282 244.772 280.899 245.134C285.116 245.365 288.141 243.852 291.031 241.133C299.816 232.867 306.799 223.191 313.629 213.385C314.499 212.136 315.23 210.78 316.213 209.629C316.879 208.849 317.193 208.079 317.353 207.097C317.943 203.48 317.88 199.76 319.118 196.244C320.509 192.294 322.879 189.314 327.305 188.64C331.216 188.045 335.154 187.577 339.095 187.221C345.285 186.66 351.488 186.24 358.021 185.734Z" fill="white"/>
<path d="M299.636 260.963C296.786 262.779 294.204 263.785 291.563 264.567C287.898 265.651 287.774 268.847 287.139 271.631C286.696 273.57 288.741 275.8 291.062 276.988C292.95 277.955 294.867 277.508 296.764 277.551C300.27 277.631 303.167 275.902 303.904 272.592C305.157 266.968 307.719 261.649 308.209 255.892C308.944 247.255 310.959 238.866 312.648 230.406C313.31 227.09 313.864 223.751 314.458 220.477C311.397 220.06 309.739 221.341 308.15 223.438C305.245 227.272 302.267 231.076 299.172 234.752C296.452 237.982 296.991 241.319 297.193 245.039C298.398 245.039 299.362 245.037 300.326 245.039C301.379 245.041 302.435 244.99 303.483 245.063C305.984 245.239 307.33 246.604 307.466 249.014C307.698 253.121 305.151 255.678 300.826 255.7C298.997 255.71 297.145 255.394 295.305 255.93C295.156 258.165 294.309 260.152 293.605 262.398C295.628 262.129 297.045 260.567 299.636 260.963Z" fill="white"/>
<path d="M256.655 232.359C255.128 232.645 254.338 233.442 254.176 234.462C253.66 237.703 253.437 240.955 254.783 244.11C255.338 245.412 256.104 245.117 257.123 244.673C255.348 240.62 255.948 236.596 256.655 232.359Z" fill="white"/>
<path d="M311.797 218.744C314.662 219.555 315.788 218.058 316.346 211.686C314.699 214.241 313.264 216.468 311.797 218.744Z" fill="white"/>
<path d="M145.778 125.667C146.867 124.891 146.935 123.802 146.886 122.665C146.85 121.828 146.368 121.594 145.602 121.656C144.823 121.718 144.663 122.192 144.821 122.812C145.066 123.776 144.909 124.883 145.778 125.667Z" fill="black"/>
<path d="M15.0535 43.0536C16.8805 34.3028 18.3155 25.5441 25.3475 19.0548C30.3245 14.4617 35.8705 10.4688 41.9425 7.60322C57.8605 0.0912424 74.5065 -0.952145 91.6665 3.06938C104.545 6.087 115.24 12.0314 122.963 22.9154C131.14 34.4391 134.908 46.4227 128.137 59.9314C123.816 68.5519 118.601 76.4736 110.397 82.033C97.1885 90.9842 82.4115 95.4381 66.5675 96.7885C64.8885 96.9316 63.1745 96.7747 61.4275 97.3087C61.2205 98.4508 61.4345 99.5307 61.7785 100.598C62.6385 103.264 63.4875 105.933 64.9665 108.354C65.4035 109.068 65.6785 109.843 65.0945 110.59C64.5075 111.343 63.6985 111.275 62.8845 110.992C61.9715 110.673 61.0275 110.417 60.1515 110.017C47.7675 104.366 37.6265 95.9435 29.3125 85.3576C25.2855 80.2305 20.6825 75.5674 18.6505 68.9981C16.0195 60.4882 13.1335 52.2546 15.0535 43.0536Z" fill="#0A5840"/>
<path d="M359.808 26.7424C352.557 19.7852 343.735 15.7745 334.09 13.4696C318.461 9.73533 302.486 8.39483 286.494 7.29419C274.265 6.45217 262.255 8.32474 250.398 10.8508C240.84 12.8872 232.613 17.9748 224.881 23.7475C222.518 25.5115 221.071 28.0069 219.881 30.7037C217.724 35.5919 217.377 40.6953 217.265 45.931C217.047 56.1151 221.898 63.2984 230.505 68.2133C234.839 70.688 239.461 72.6721 243.948 74.8872C244.718 75.2672 245.485 75.517 245.925 76.4784C248.407 81.8997 252.06 86.3931 257.159 89.6496C257.843 90.0859 258.422 91.1747 259.44 90.5103C260.432 89.8628 259.817 88.8994 259.577 88.1047C258.707 85.2223 258.597 82.3093 259.028 79.0933C259.566 79.0933 259.88 79.0706 260.19 79.0963C280.993 80.7971 301.692 79.9857 322.414 77.4428C337.076 75.6433 349.559 69.4343 361.277 61.1672C364.939 58.5839 367.997 55.2554 368.195 50.6465C368.58 41.6795 366.688 33.3433 359.808 26.7424Z" fill="#0A5840" fill-opacity="0.6"/>
<path d="M251.675 153.812C251.769 156.224 253.392 157.593 254.683 159.202C256.425 161.373 256.109 164.386 253.832 165.704C251.505 167.053 249.243 168.173 250.323 171.446C250.35 171.528 250.15 171.682 249.981 171.899C248.534 171.025 247.433 169.912 246.76 168.465C245.739 166.272 246.244 165.007 248.57 163.532C250.544 162.28 250.666 161.429 249.108 159.794C246.282 156.83 246.949 154.985 251.675 153.812ZM248.597 168.956C249.327 166.984 250.462 165.958 251.994 165.246C254.922 163.884 255.327 161.791 253.178 159.378C252.132 158.204 250.893 157.178 250.842 155.398C248.105 156.763 248.058 156.974 249.851 158.743C252.264 161.123 252.132 162.949 249.239 164.63C247.411 165.693 247.232 166.908 248.597 168.956Z" fill="white"/>
<path d="M337.617 172.645C339.679 171.774 343.665 171.48 345.138 172.012C343.46 173.291 340.354 173.606 337.617 172.645Z" fill="black"/>
<path d="M141.774 218.224C143.907 218.161 146.157 220.273 146.267 222.443C146.401 225.079 144 227.766 141.451 227.833C139.371 227.887 136.549 225.516 136.471 223.648C136.375 221.34 139.352 218.295 141.774 218.224ZM142.262 219.875C140.056 219.927 138.498 221.597 138.5 223.557C138.502 225.046 140.02 226.488 141.505 226.413C143.167 226.329 144.879 224.376 144.769 222.525C144.668 220.838 143.626 219.978 142.262 219.875Z" fill="#BFBFBF"/>
<path d="M171.499 329.652C169.472 329.886 168.389 328.892 167.773 326.707C169.569 327.351 170.523 328.499 171.499 329.652Z" fill="black"/>
<path d="M68.5474 278.389C69.5364 278.567 69.5704 279.215 69.8174 279.682C71.2834 282.453 73.5174 284.242 76.5944 285.066C81.8464 286.471 87.1654 287.272 92.6174 287.469C99.4714 287.718 106.352 287.976 113.025 289.783C116.568 290.743 118.214 292.705 118.236 295.633C117.766 295.735 117.401 295.491 117.252 295.131C115.504 290.9 111.519 290.424 107.805 290.048C101.7 289.43 95.5954 288.729 89.4294 288.662C84.7294 288.61 80.1494 287.417 75.6264 286.177C72.7704 285.393 70.6094 283.656 69.1004 281.141C68.6084 280.32 68.1364 279.483 68.5474 278.389Z" fill="black"/>
<path d="M306.57 122.29C306.646 121.715 306.695 121.081 306.82 120.462C307.021 119.461 307.471 118.621 308.662 118.615C309.747 118.609 310.099 119.392 310.385 120.286C310.704 121.285 310.852 122.284 310.785 123.324C310.695 124.722 310.163 125.938 308.629 126.017C307.034 126.099 306.804 124.773 306.689 123.53C306.652 123.135 306.613 122.742 306.57 122.29Z" fill="black"/>
<path d="M308.636 113.311C310.875 114.068 312.368 115.307 313.973 116.93C311.201 118.893 309.878 115.796 307.68 115.992C308.068 114.904 308.319 114.198 308.636 113.311Z" fill="black"/>
<path d="M134.409 128.339C134.473 125.788 135.493 124.394 137.322 124.358C139.186 124.321 140.608 126.34 140.54 128.929C140.487 130.949 139.084 132.674 137.517 132.646C135.461 132.608 134.341 131.056 134.409 128.339Z" fill="black"/>
<path d="M121.114 130.485C121.066 132.831 119.662 134.649 118.109 134.549C115.918 134.408 115.047 133.01 114.99 131.003C114.97 130.289 115.003 129.563 115.119 128.86C115.369 127.344 116.27 126.359 117.856 126.303C119.321 126.252 120.278 127.065 120.651 128.479C120.854 129.247 121.01 130.026 121.114 130.485Z" fill="black"/>
<path d="M129.071 133.502C131.063 134.237 133.987 132.502 134.32 135.815C134.518 137.779 131.859 139.071 128.523 138.752C129.188 137.731 130.25 137.968 131.089 137.714C132.217 137.371 133.498 136.842 133.122 135.515C132.77 134.273 131.374 134.73 130.362 134.789C129.649 134.831 129.151 135.627 127.938 135.308C128.061 131.697 128.531 128.08 129.197 124.484C129.474 124.497 129.75 124.511 130.027 124.524C129.705 127.543 129.383 130.564 129.071 133.502Z" fill="black"/>
<path d="M121.933 122.734C118.884 124.714 115.035 123.651 111.664 125.529C112.219 122.204 117.656 120.751 121.933 122.734Z" fill="black"/>
<path d="M131.609 121.153C133.292 119.697 135.242 119.334 137.252 119.175C138.446 119.08 138.658 119.785 138.253 120.689C137.899 121.48 132.956 122.691 132.25 122.177C131.967 121.971 131.846 121.548 131.609 121.153Z" fill="black"/>
<path d="M133.231 147.371C130.755 147.683 128.266 147.925 125.809 148.336C123.96 148.645 123.596 149.636 124.764 151.045C126.264 152.856 128.195 153.98 130.464 153.865C133.622 153.9 135.336 152.291 135.53 149.581C135.646 147.953 135.08 147.138 133.231 147.371Z" fill="#B21B1B"/>
<path d="M283.175 333.061C281.504 334.971 279.747 336.743 276.836 336.661C278.822 335.257 280.623 333.555 283.175 333.061Z" fill="black"/>
<path d="M125.339 186.453C124.035 186.459 123.589 185.628 123.564 184.586C123.538 183.49 123.864 182.403 125.23 182.387C126.473 182.372 127.121 183.238 127.196 184.404C127.278 185.663 126.51 186.282 125.339 186.453Z" fill="black"/>
<path d="M127.322 191.691C127.195 192.965 126.671 193.82 125.379 193.791C124.214 193.765 123.64 193.026 123.709 191.895C123.776 190.786 124.19 189.728 125.462 189.713C126.69 189.698 127.235 190.632 127.322 191.691Z" fill="black"/>
<path d="M127.142 198.035C127.154 199.147 126.63 199.958 125.498 199.922C124.312 199.884 123.642 199.072 123.716 197.859C123.779 196.824 124.287 195.919 125.408 195.94C126.624 195.963 127.171 196.844 127.142 198.035Z" fill="black"/>
</svg>
