<svg width="512" height="413" viewBox="0 0 512 413" fill="none" xmlns="http://www.w3.org/2000/svg">
<path opacity="0.27" d="M34.8598 386.514C37.9218 388.767 43.2918 390.384 48.5858 391.923H489.428C490.1 391.517 490.754 391.08 491.368 390.576C495.233 387.403 497.271 382.605 499.003 377.946C507.365 355.46 511.9 331.217 508.971 307.438C506.042 283.66 495.154 260.376 476.576 244.966C467.098 237.104 455.856 231.401 446.967 222.896C419.669 196.778 419.285 149.423 387.957 128.166C373.523 118.371 355.038 116.278 337.561 117.417C321.234 118.481 304.842 122.208 290.713 130.353C275.958 138.859 264.386 151.695 252.124 163.441C227.546 186.989 197.695 207.445 163.675 211.361C142.035 213.852 120.134 209.489 98.3878 210.799C74.6518 212.231 51.3888 220.598 32.2838 234.575C20.0498 243.525 9.29085 255.082 3.97885 269.17C-3.88015 290.014 1.08085 313.396 8.67385 334.335C13.9128 348.782 22.1028 377.125 34.8598 386.514Z" fill="#0A5840"/>
<path opacity="0.27" d="M478.543 327.157C466.953 348.62 455.277 370.039 443.678 391.496C442.117 394.384 440.453 397.387 437.709 399.227C434.166 401.602 429.566 401.568 425.286 401.448C402.093 400.797 378.955 400.38 355.765 400.172C302.366 399.691 248.966 399.21 195.567 398.73C171.607 398.514 147.648 398.298 123.688 398.083C108.015 397.942 92.4254 398.534 76.7864 398.578C68.8344 398.601 60.3934 397.1 54.5134 391.815C49.6234 387.419 47.1734 381.033 45.0474 374.851C33.6034 341.568 26.7134 306.766 24.5914 271.681C22.7714 241.587 29.5554 211.19 53.9714 190.939C63.0694 183.392 73.8614 177.917 82.3944 169.752C108.599 144.681 108.967 99.2227 139.041 78.816C152.897 69.4137 170.641 67.4039 187.419 68.4976C203.092 69.5193 218.828 73.0976 232.391 80.9166C246.556 89.081 257.664 101.403 269.434 112.68C293.028 135.284 321.683 154.921 354.341 158.681C375.114 161.072 396.138 156.882 417.013 158.142C439.798 159.516 462.13 167.548 480.469 180.965C492.214 189.557 502.541 200.65 507.641 214.174C518.782 243.722 506.637 274.724 492.579 301.037C487.923 309.753 483.24 318.459 478.543 327.157Z" fill="#0A5840"/>
<path d="M391.883 334.077C391.883 334.077 409.363 343.807 409.073 337.468C408.813 331.79 395.226 333.564 392.396 333.995C392.066 334.045 391.883 334.077 391.883 334.077Z" fill="#0A5840"/>
<path d="M392.053 333.869C392.053 333.869 401.91 316.614 395.488 316.9C389.066 317.187 392.053 333.869 392.053 333.869Z" fill="#0A5840"/>
<path d="M380.961 341.659C380.961 341.659 398.441 351.389 398.151 345.05C397.861 338.712 380.961 341.659 380.961 341.659Z" fill="#0A5840"/>
<path d="M380.904 341.689C380.904 341.689 390.761 324.434 384.339 324.72C377.918 325.007 380.904 341.689 380.904 341.689Z" fill="#0A5840"/>
<path d="M372.211 349.229C372.211 349.229 387.546 357.765 387.292 352.205C387.037 346.643 372.211 349.229 372.211 349.229Z" fill="#0A5840"/>
<path d="M372.272 349.37C372.272 349.37 380.919 334.233 375.286 334.484C369.652 334.734 372.272 349.37 372.272 349.37Z" fill="#0A5840"/>
<path d="M364.477 357.475C364.477 357.475 379.771 363.581 378.855 358.444C377.939 353.305 364.477 357.475 364.477 357.475Z" fill="#0A5840"/>
<path d="M364.718 357.691C364.718 357.691 370.904 342.594 365.7 343.498C360.495 344.401 364.718 357.691 364.718 357.691Z" fill="#0A5840"/>
<path d="M357.836 366.419C357.836 366.419 374.21 368.415 371.979 363.685C369.748 358.956 357.836 366.419 357.836 366.419Z" fill="#0A5840"/>
<path d="M358.039 366.401C358.039 366.401 360.061 350.238 355.27 352.441C350.479 354.643 358.039 366.401 358.039 366.401Z" fill="#0A5840"/>
<path d="M352.617 375.077C352.617 375.077 366.813 376.807 364.879 372.707C362.945 368.606 352.617 375.077 352.617 375.077Z" fill="#0A5840"/>
<path d="M352.975 375.154C352.975 375.154 354.728 361.141 350.574 363.05C346.42 364.959 352.975 375.154 352.975 375.154Z" fill="#0A5840"/>
<path d="M349.133 382.04C349.133 382.04 361.257 383.518 359.606 380.016C357.954 376.514 349.133 382.04 349.133 382.04Z" fill="#0A5840"/>
<path d="M349.501 382.157C349.501 382.157 350.998 370.189 347.451 371.819C343.903 373.449 349.501 382.157 349.501 382.157Z" fill="#0A5840"/>
<path d="M391.102 334.601C391.102 334.601 410.33 326.838 408.303 323.317C406.275 319.796 391.102 334.601 391.102 334.601Z" fill="#0A5840"/>
<path d="M394.911 332.197C394.911 332.197 352.605 353.951 343.797 400.779" stroke="#0A5840" stroke-miterlimit="10"/>
<path d="M86.1307 284.141C86.1307 284.141 51.4407 284.507 57.2297 275.143C62.4147 266.755 81.4997 280.614 85.4227 283.595C85.8797 283.942 86.1307 284.141 86.1307 284.141Z" fill="#0A5840"/>
<path d="M86.041 283.682C86.041 283.682 85.671 249.439 95.157 255.153C104.642 260.867 86.041 283.682 86.041 283.682Z" fill="#0A5840"/>
<path d="M96.2713 304.606C96.2713 304.606 61.5813 304.97 67.3703 295.608C73.1583 286.244 96.2713 304.606 96.2713 304.606Z" fill="#0A5840"/>
<path d="M96.3301 304.693C96.3301 304.693 95.9601 270.45 105.446 276.165C114.932 281.878 96.3301 304.693 96.3301 304.693Z" fill="#0A5840"/>
<path d="M103.138 323.266C103.138 323.266 72.7036 323.586 77.7826 315.371C82.8606 307.156 103.138 323.266 103.138 323.266Z" fill="#0A5840"/>
<path d="M102.931 323.431C102.931 323.431 102.607 293.389 110.929 298.402C119.251 303.415 102.931 323.431 102.931 323.431Z" fill="#0A5840"/>
<path d="M107.893 342.117C107.893 342.117 79.5711 338.791 85.2951 331.762C91.0181 324.732 107.893 342.117 107.893 342.117Z" fill="#0A5840"/>
<path d="M107.352 342.248C107.352 342.248 110.722 314.291 117.843 319.942C124.964 325.591 107.352 342.248 107.352 342.248Z" fill="#0A5840"/>
<path d="M86.8655 285.574C86.8655 285.574 64.2896 258.003 70.3326 254.336C76.3756 250.669 86.8655 285.574 86.8655 285.574Z" fill="#0A5840"/>
<path d="M83.125 278.803C83.125 278.803 111.097 320.241 110.762 375.701" stroke="#0A5840" stroke-miterlimit="10" stroke-linecap="round" stroke-linejoin="round"/>
<path d="M378.367 178.977C378.367 178.977 398.502 206.864 402.758 196.731C406.57 187.654 383.982 180.593 379.232 179.219C378.678 179.059 378.367 178.977 378.367 178.977Z" fill="#0A5840"/>
<path d="M378.797 178.776C378.797 178.776 407.048 158.9 396.783 154.699C386.517 150.499 378.797 178.776 378.797 178.776Z" fill="#0A5840"/>
<path d="M355.641 182.941C355.641 182.941 375.776 210.829 380.032 200.696C384.288 190.563 355.641 182.941 355.641 182.941Z" fill="#0A5840"/>
<path d="M355.539 182.946C355.539 182.946 383.79 163.07 373.525 158.869C363.26 154.669 355.539 182.946 355.539 182.946Z" fill="#0A5840"/>
<path d="M336.328 188.455C336.328 188.455 353.993 212.921 357.726 204.031C361.46 195.141 336.328 188.455 336.328 188.455Z" fill="#0A5840"/>
<path d="M336.312 188.719C336.312 188.719 361.097 171.282 352.091 167.596C343.084 163.91 336.312 188.719 336.312 188.719Z" fill="#0A5840"/>
<path d="M318.086 195.764C318.086 195.764 337.491 216.396 339.875 207.69C342.258 198.985 318.086 195.764 318.086 195.764Z" fill="#0A5840"/>
<path d="M318.305 196.275C318.305 196.275 339.207 177.12 330.387 174.767C321.568 172.414 318.305 196.275 318.305 196.275Z" fill="#0A5840"/>
<path d="M301.039 204.954C301.039 204.954 325.189 219.933 325.211 210.916C325.233 201.896 301.039 204.954 301.039 204.954Z" fill="#0A5840"/>
<path d="M301.373 205.077C301.373 205.077 316.548 181.239 307.412 181.217C298.276 181.195 301.373 205.077 301.373 205.077Z" fill="#0A5840"/>
<path d="M286.438 214.732C286.438 214.732 307.376 227.718 307.395 219.899C307.413 212.08 286.438 214.732 286.438 214.732Z" fill="#0A5840"/>
<path d="M286.939 215.109C286.939 215.109 300.095 194.441 292.174 194.422C284.253 194.403 286.939 215.109 286.939 215.109Z" fill="#0A5840"/>
<path d="M275.812 223.108C275.812 223.108 293.694 234.199 293.71 227.521C293.727 220.844 275.812 223.108 275.812 223.108Z" fill="#0A5840"/>
<path d="M276.304 223.56C276.304 223.56 287.54 205.908 280.775 205.893C274.01 205.876 276.304 223.56 276.304 223.56Z" fill="#0A5840"/>
<path d="M376.766 179.234C376.766 179.234 412.635 181.003 412.077 174.022C411.52 167.043 376.766 179.234 376.766 179.234Z" fill="#0A5840"/>
<path d="M384.508 178.227C384.508 178.227 302.114 181.653 253.531 248.584" stroke="#0A5840" stroke-miterlimit="10"/>
<path d="M198.39 257.959C199.642 257.422 189.268 227.336 188.594 225.744C178.531 201.977 163.515 182.629 145.332 170.103C111.742 146.965 72.5053 149.324 34.8203 158.22C39.4933 158.331 43.7223 161.234 47.5443 164.507C72.5493 185.925 85.8143 224.999 111.592 244.887C136.587 264.171 169.241 270.353 198.39 257.959Z" fill="#0A5840"/>
<path d="M183.462 251.441C183.462 251.441 137.147 172.741 54.0312 161.934" stroke="white" stroke-miterlimit="10" stroke-linecap="round" stroke-linejoin="round"/>
<path d="M108.229 159.605L116.661 184.529L74.8516 186.288" stroke="white" stroke-miterlimit="10" stroke-linecap="round" stroke-linejoin="round"/>
<path d="M140.231 180.33L148.454 209.135L113.297 210.951" stroke="white" stroke-miterlimit="10" stroke-linecap="round" stroke-linejoin="round"/>
<path d="M168.719 206.838L173.227 236.556L137.625 233.341" stroke="white" stroke-miterlimit="10" stroke-linecap="round" stroke-linejoin="round"/>
<path d="M208.87 250.416L203.139 264.778L165.31 359.635L161.379 345.576L157.188 302.274L173.357 255.094L208.87 250.416Z" fill="#FAAD3B" stroke="#0A5840" stroke-miterlimit="10"/>
<g opacity="0.75">
<path d="M203.143 264.777L165.314 359.635L161.383 345.576L199.15 263.943L203.143 264.777Z" fill="#F5E073"/>
</g>
<path d="M338.056 319.103L333.059 343.92L329.9 359.635L292.071 264.778L286.328 250.416L321.842 255.094L338.056 319.103Z" fill="#FAAD3B" stroke="#0A5840" stroke-miterlimit="10"/>
<g opacity="0.75">
<path d="M333.058 343.92L329.899 359.635L292.07 264.777L296.063 263.943L333.058 343.92Z" fill="#F5E073"/>
</g>
<path d="M205.374 319.588C205.243 319.588 205.117 319.536 205.023 319.445C204.927 319.353 204.874 319.225 204.874 319.094C204.874 318.299 204.854 317.498 204.824 316.703L204.796 315.525L204.767 314.83C204.749 314.414 204.732 314.004 204.706 313.599C204.655 312.673 204.605 311.754 204.565 310.834C204.446 309.192 204.317 307.547 204.167 305.921L204.145 305.67C204.128 305.492 204.112 305.316 204.105 305.134L204.074 304.045L204.049 303.465C204.031 303.04 204.013 302.621 203.985 302.196L203.835 299.437C203.726 297.789 203.596 296.154 203.446 294.52L203.326 293.105L203.157 291.519C203.103 290.984 203.055 290.505 202.998 290.043L202.924 289.378C202.861 288.809 202.8 288.248 202.728 287.686L202.65 287.116L202.468 285.65C202.408 285.173 202.349 284.702 202.28 284.242L202.241 283.972C202.184 283.579 202.128 283.192 202.078 282.811L201.8 280.947C201.757 280.65 201.714 280.352 201.662 280.059C201.591 279.588 201.521 279.148 201.442 278.709C201.231 277.369 201.011 276.068 200.792 274.796C200.732 274.433 200.673 274.092 200.604 273.742C200.466 272.942 200.318 272.166 200.172 271.404L200.064 270.836C199.955 270.278 199.845 269.736 199.735 269.194C199.501 268.003 199.268 266.871 199.042 265.795C185.854 264.545 171.244 257.956 171.096 257.888C170.849 257.775 170.738 257.488 170.847 257.242L188.877 216.593C192.953 210.176 209.048 205.233 221.838 202.204C228.259 200.695 233.388 199.774 234.5 199.581C234.563 199.552 234.632 199.535 234.701 199.535C234.716 199.535 247.92 200.722 247.92 200.722C247.92 200.722 261.5 199.535 261.514 199.535C261.59 199.535 261.664 199.552 261.733 199.585C264.339 200.024 300.89 206.441 307.298 216.528L325.362 257.242C325.471 257.488 325.361 257.775 325.113 257.888C324.961 257.957 309.856 264.765 296.508 265.86C290.805 287.484 291.14 317.493 291.144 317.794C291.148 318.066 290.927 318.291 290.652 318.295L278.093 318.483L259.163 318.779L237.102 319.115L234.49 319.144C234.49 319.144 205.377 319.588 205.374 319.588Z" fill="#F5E073"/>
<path d="M261.514 200.028V200.048C261.644 200.068 300.434 206.652 306.874 216.789L324.904 257.439C324.904 257.439 309.614 264.388 296.114 265.395C290.234 287.359 290.644 317.801 290.644 317.801L278.084 317.989L259.154 318.285L237.094 318.621L234.484 318.65L222.964 318.828L205.374 319.094C205.374 318.295 205.354 317.485 205.324 316.686C205.314 316.261 205.304 315.837 205.294 315.432C205.264 314.8 205.244 314.179 205.204 313.567C205.154 312.649 205.104 311.731 205.064 310.813C204.944 309.154 204.814 307.506 204.664 305.877C204.644 305.62 204.614 305.374 204.604 305.117C204.594 304.752 204.584 304.377 204.574 304.031C204.544 303.399 204.524 302.787 204.484 302.165C204.434 301.247 204.384 300.329 204.334 299.411C204.224 297.753 204.094 296.114 203.944 294.476C203.904 294.002 203.864 293.538 203.824 293.064C203.764 292.531 203.714 291.998 203.654 291.465C203.604 290.971 203.554 290.468 203.494 289.984C203.404 289.185 203.324 288.405 203.224 287.625C203.194 287.428 203.174 287.24 203.144 287.043C203.084 286.549 203.024 286.075 202.964 285.592C202.904 285.108 202.844 284.634 202.774 284.17C202.704 283.687 202.634 283.213 202.574 282.749C202.504 282.285 202.434 281.811 202.364 281.347C202.294 280.893 202.234 280.429 202.154 279.975C202.084 279.511 202.014 279.067 201.934 278.623C201.724 277.29 201.504 275.987 201.284 274.714C201.224 274.348 201.164 274.003 201.094 273.647C200.924 272.66 200.734 271.693 200.554 270.745C200.444 270.183 200.334 269.64 200.224 269.097C199.964 267.774 199.704 266.52 199.454 265.336C186.104 264.171 171.304 257.439 171.304 257.439L189.334 216.789C193.354 210.472 209.994 205.516 221.954 202.683C229.134 200.995 234.634 200.058 234.684 200.048L234.694 200.028L234.994 200.058L247.874 201.213L261.514 200.028ZM234.694 199.041C234.57 199.041 234.448 199.064 234.336 199.107C233.031 199.337 227.971 200.255 221.723 201.724C208.84 204.775 192.617 209.775 188.488 216.265C188.462 216.307 188.439 216.35 188.419 216.395L170.389 257.044C170.17 257.537 170.392 258.111 170.886 258.336C171.485 258.609 185.467 264.914 198.625 266.25C198.827 267.217 199.035 268.229 199.243 269.285C199.357 269.849 199.465 270.381 199.573 270.933L199.686 271.523C199.83 272.274 199.976 273.037 200.109 273.813C200.181 274.182 200.239 274.517 200.298 274.873C200.519 276.149 200.738 277.447 200.947 278.776C201.029 279.232 201.097 279.667 201.166 280.122C201.22 280.432 201.262 280.723 201.305 281.012L201.377 281.497L201.482 282.198L201.587 282.896C201.636 283.274 201.695 283.68 201.754 284.093L201.786 284.311C201.856 284.773 201.914 285.238 201.973 285.713L202.033 286.195L202.153 287.161C202.171 287.282 202.183 287.371 202.194 287.461C202.207 287.564 202.221 287.667 202.237 287.772C202.305 288.303 202.366 288.856 202.427 289.417L202.502 290.094C202.558 290.544 202.604 291 202.649 291.45L202.66 291.564C202.691 291.838 202.718 292.102 202.745 292.366C202.773 292.636 202.801 292.905 202.831 293.174L202.891 293.881L202.949 294.559C203.1 296.206 203.23 297.859 203.338 299.476L203.487 302.219C203.514 302.645 203.532 303.057 203.55 303.473L203.577 304.077L203.599 304.868L203.607 305.144C203.615 305.341 203.631 305.523 203.648 305.706L203.67 305.953C203.805 307.421 203.935 309.029 204.07 310.883C204.109 311.776 204.159 312.698 204.209 313.62C204.236 314.04 204.254 314.455 204.272 314.874L204.299 315.479L204.328 316.71C204.362 317.608 204.378 318.384 204.378 319.095C204.378 319.36 204.485 319.613 204.676 319.798C204.863 319.98 205.115 320.083 205.378 320.083C205.383 320.083 205.388 320.083 205.393 320.083L222.983 319.816L234.503 319.638L237.109 319.609L259.173 319.273L278.103 318.977L290.662 318.789C291.214 318.782 291.654 318.333 291.647 317.789C291.643 317.489 291.314 287.85 296.906 266.322C310.238 265.137 324.705 258.619 325.325 258.336C325.82 258.111 326.041 257.537 325.823 257.043L307.793 216.394C307.773 216.349 307.75 216.306 307.724 216.265C301.217 206.023 264.746 199.594 261.849 199.102C261.741 199.063 261.626 199.041 261.51 199.041C261.483 199.041 261.456 199.042 261.429 199.045L247.878 200.222L235.087 199.075L234.796 199.046C234.76 199.043 234.727 199.041 234.694 199.041Z" fill="#0A5840"/>
<path d="M259.153 318.285L237.093 318.621L234.483 318.65L205.373 319.094C205.373 318.295 205.353 317.485 205.323 316.686C205.313 316.261 205.303 315.837 205.293 315.432C205.263 314.8 205.243 314.179 205.203 313.567C205.153 312.649 205.103 311.731 205.063 310.813C204.943 309.154 204.813 307.506 204.663 305.877C204.643 305.62 204.613 305.374 204.603 305.117C204.593 304.752 204.583 304.377 204.573 304.031C204.543 303.399 204.523 302.787 204.483 302.165C204.433 301.247 204.383 300.329 204.333 299.411C204.223 297.753 204.093 296.114 203.943 294.476C203.903 294.002 203.863 293.538 203.823 293.064C203.763 292.531 203.713 291.998 203.653 291.465C203.603 290.971 203.553 290.468 203.493 289.984C203.403 289.185 203.323 288.405 203.223 287.625C203.193 287.428 203.173 287.24 203.143 287.043C203.083 286.549 203.023 286.075 202.963 285.592C202.903 285.108 202.843 284.634 202.773 284.17C202.703 283.687 202.633 283.213 202.573 282.749C202.503 282.285 202.433 281.811 202.363 281.347C202.293 280.893 202.233 280.429 202.153 279.975C202.083 279.511 202.013 279.067 201.933 278.623C201.723 277.29 201.503 275.987 201.283 274.714C201.223 274.348 201.163 274.003 201.093 273.647C200.923 272.66 200.733 271.693 200.553 270.745C200.443 270.183 200.333 269.64 200.223 269.097C199.963 267.774 199.703 266.52 199.453 265.336C199.453 265.336 227.733 301.257 259.153 318.285Z" fill="#E3C940"/>
<path d="M261.515 172.793V202.683C261.515 202.683 258.345 205.032 251.175 205.457C250.475 205.496 249.725 205.516 248.945 205.516C243.965 205.516 240.285 204.736 237.925 203.996C235.775 203.325 234.695 202.683 234.695 202.683V175.971L261.515 172.793Z" fill="#FAAD3B"/>
<g opacity="0.75">
<path d="M251.175 205.457C250.475 205.496 249.725 205.516 248.945 205.516C243.965 205.516 240.285 204.736 237.925 203.996C235.775 203.324 234.695 202.683 234.695 202.683V178.113L245.455 183.217C245.455 183.217 243.045 197.737 251.175 205.457Z" fill="#F5E073"/>
</g>
<path d="M234.695 202.687V175.968L261.517 172.789V202.687" stroke="#0A5840" stroke-miterlimit="10" stroke-linecap="round" stroke-linejoin="round"/>
<path d="M215.794 144.213C216.133 148.867 214.238 152.794 211.561 152.983C208.885 153.173 206.441 149.554 206.102 144.9C205.763 140.245 207.658 136.319 210.334 136.128C213.011 135.939 215.455 139.557 215.794 144.213Z" fill="#FAAD3B" stroke="#0A5840" stroke-miterlimit="10"/>
<g opacity="0.75">
<path d="M207.91 142.742C208.634 142.047 209.723 142.028 210.569 142.533C211.542 143.113 211.927 144.257 212.234 145.272C212.449 145.982 211.327 146.285 211.113 145.577C210.928 144.966 210.745 144.28 210.298 143.794C209.913 143.377 209.198 143.106 208.732 143.553C208.195 144.07 207.372 143.258 207.91 142.742Z" fill="#F5E073"/>
</g>
<path d="M279.774 144.213C279.435 148.867 281.33 152.794 284.006 152.983C286.682 153.173 289.126 149.554 289.465 144.9C289.804 140.245 287.909 136.319 285.233 136.128C282.557 135.939 280.113 139.557 279.774 144.213Z" fill="#FAAD3B" stroke="#0A5840" stroke-miterlimit="10"/>
<g opacity="0.75">
<path d="M287.657 142.742C286.933 142.047 285.844 142.028 284.997 142.533C284.024 143.113 283.639 144.257 283.332 145.272C283.117 145.982 284.239 146.285 284.454 145.577C284.639 144.966 284.822 144.28 285.269 143.794C285.654 143.377 286.369 143.106 286.835 143.553C287.372 144.07 288.195 143.258 287.657 142.742Z" fill="#F5E073"/>
</g>
<path d="M248.903 185.858C246.016 185.858 243.154 185.492 240.399 184.769C238.331 184.236 236.339 183.518 234.481 182.634C233.797 182.313 233.191 182.004 232.631 181.691C231.709 181.186 230.75 180.59 229.702 179.87C221.364 174.107 215.519 164.566 212.799 152.276C211.625 146.828 211.059 140.854 211.117 134.517C211.075 132.991 211.089 131.484 211.158 130.056L211.164 129.92L211.184 129.885C212.03 114.776 219.214 101.534 230.416 94.4428C231.176 93.9562 231.952 93.5041 232.722 93.1003C237.12 90.7086 241.86 89.4292 246.804 89.3009C247.116 89.292 247.429 89.2871 247.742 89.2871C253.918 89.2871 260.049 91.1498 265.471 94.6728C275.478 101.159 282.618 112.974 284.573 126.276L284.625 126.77C284.888 128.596 285.048 130.485 285.098 132.366C285.119 133.689 285.119 134.988 285.098 136.256L285.039 138.09C284.882 142.388 284.445 146.532 283.741 150.412C281.027 165.083 274.187 176.217 264.479 181.767C263.75 182.23 262.908 182.677 261.926 183.122L261.623 182.715L261.832 183.163L261.713 183.215C258.076 184.825 254.12 185.71 249.964 185.84C249.609 185.853 249.255 185.858 248.903 185.858Z" fill="#FAAD3B"/>
<path d="M247.742 89.782C254.032 89.782 259.982 91.698 265.197 95.0868C274.927 101.395 282.088 112.796 284.077 126.349L284.127 126.823C284.387 128.629 284.547 130.495 284.597 132.38C284.617 133.693 284.617 134.986 284.597 136.25C284.577 136.862 284.557 137.474 284.537 138.076C284.377 142.449 283.937 146.526 283.247 150.326C280.447 165.468 273.517 176.031 264.227 181.341C263.417 181.855 262.567 182.289 261.717 182.674C261.647 182.704 261.588 182.733 261.518 182.763C257.928 184.352 254.037 185.221 249.947 185.349C249.599 185.36 249.251 185.365 248.903 185.365C246.058 185.365 243.245 185.005 240.527 184.293C238.537 183.78 236.587 183.089 234.697 182.19C234.087 181.904 233.477 181.598 232.877 181.262C231.887 180.719 230.938 180.117 229.988 179.466C222.248 174.116 216.137 165.044 213.287 152.172C212.157 146.93 211.557 141.047 211.617 134.522C211.577 133.032 211.587 131.541 211.657 130.08C211.657 130.06 211.657 130.06 211.677 130.031C212.497 114.79 219.927 101.671 230.687 94.8598C231.427 94.386 232.188 93.9418 232.958 93.537C237.188 91.2371 241.857 89.9242 246.817 89.7959C247.125 89.787 247.435 89.782 247.742 89.782ZM247.742 88.7949C247.425 88.7949 247.106 88.7999 246.787 88.8087C241.767 88.939 236.95 90.2381 232.475 92.6723C231.706 93.0761 230.917 93.5361 230.143 94.0316C218.817 101.201 211.55 114.576 210.687 129.829C210.669 129.904 210.657 129.986 210.657 130.08C210.589 131.47 210.575 132.989 210.617 134.548C210.558 140.887 211.127 146.898 212.308 152.377C215.057 164.794 220.972 174.439 229.413 180.274C230.48 181.007 231.453 181.611 232.391 182.125C232.956 182.441 233.573 182.755 234.268 183.082C236.15 183.976 238.171 184.705 240.274 185.247C243.068 185.98 245.973 186.352 248.903 186.352C249.261 186.352 249.619 186.346 249.979 186.335C254.201 186.203 258.22 185.304 261.926 183.663L262.036 183.615L262.111 183.581C263.138 183.116 263.999 182.659 264.768 182.171C274.566 176.572 281.493 165.316 284.232 150.503C284.94 146.601 285.38 142.433 285.538 138.111L285.598 136.281C285.619 134.996 285.619 133.683 285.598 132.365C285.547 130.452 285.386 128.544 285.118 126.684L285.072 126.246C283.094 112.767 275.871 100.825 265.746 94.2616C260.241 90.6853 254.015 88.7949 247.742 88.7949Z" fill="#0A5840"/>
<path d="M246.891 140.111C246.891 140.111 249.358 148.424 247.318 153.138C246.926 154.046 247.493 155.051 248.487 155.147C250.025 155.296 252.261 155.072 254.669 153.374" stroke="#0A5840" stroke-miterlimit="10" stroke-linecap="round" stroke-linejoin="round"/>
<path d="M246.398 162.79C246.398 162.79 253.986 166.036 260.179 159.605" stroke="#0A5840" stroke-miterlimit="10" stroke-linecap="round" stroke-linejoin="round"/>
<path d="M258.844 128.98C258.844 128.98 265.442 127.074 268.621 129.902" stroke="#0A5840" stroke-miterlimit="10" stroke-linecap="round" stroke-linejoin="round"/>
<path d="M229.711 128.98C229.711 128.98 236.309 127.074 239.488 129.902" stroke="#0A5840" stroke-miterlimit="10" stroke-linecap="round" stroke-linejoin="round"/>
<g opacity="0.75">
<path d="M249.947 185.349C246.747 185.447 243.577 185.092 240.527 184.292C238.537 183.779 236.587 183.088 234.697 182.19C234.087 181.904 233.477 181.598 232.877 181.262C231.887 180.719 230.937 180.117 229.987 179.465C222.247 174.115 216.137 165.044 213.287 152.172C212.157 146.93 211.557 141.047 211.617 134.522C211.577 133.031 211.587 131.541 211.657 130.08C211.657 130.06 211.657 130.06 211.677 130.03C212.497 114.789 219.927 101.67 230.687 94.8594L233.387 105.935C233.387 105.935 220.127 157.186 234.697 177.353C238.097 182.062 243.007 185.072 249.947 185.349Z" fill="#F5E073"/>
</g>
<g opacity="0.49">
<path d="M273.479 152.798C272.666 156.191 269.221 158.29 265.784 157.488C262.347 156.685 260.22 153.285 261.033 149.892C261.846 146.499 265.291 144.4 268.728 145.202C272.166 146.005 274.293 149.405 273.479 152.798Z" fill="#E8A137"/>
<path d="M235.127 153.788C234.314 157.181 230.869 159.281 227.432 158.478C223.995 157.676 221.868 154.275 222.681 150.882C223.494 147.49 226.939 145.39 230.377 146.192C233.814 146.995 235.94 150.396 235.127 153.788Z" fill="#E8A137"/>
</g>
<path d="M264.59 137.4C264.589 139.895 263.213 142.003 261.516 142.112C259.819 142.22 258.444 140.287 258.445 137.792C258.446 135.299 259.821 133.188 261.52 133.078C263.216 132.971 264.591 134.906 264.59 137.4Z" fill="#0A5840"/>
<path d="M238.773 137.24C238.908 139.732 237.649 141.91 235.96 142.109C234.272 142.307 232.792 140.45 232.658 137.958C232.523 135.469 233.782 133.288 235.472 133.089C237.16 132.891 238.638 134.75 238.773 137.24Z" fill="#0A5840"/>
<path d="M228.909 198.376C228.87 198.376 228.831 198.371 228.791 198.362C228.338 198.253 217.595 195.564 209.744 182.644C200.081 166.745 199.243 143.17 207.255 112.576C207.82 110.418 208.438 108.283 209.091 106.231C209.217 105.722 209.362 105.185 209.524 104.65C211.354 98.59 213.813 93.3335 216.833 89.0238C219.92 84.3123 223.448 80.9669 227.313 79.0924C232.399 76.056 238.407 74.5052 245.133 74.5052C248.1 74.5052 251.259 74.8083 254.528 75.4055C254.522 75.2702 254.519 75.135 254.519 74.9978C254.519 68.0623 260.235 62.4199 267.261 62.4199C274.287 62.4199 280.003 68.0623 280.003 74.9978C280.003 79.3944 277.683 83.4505 273.906 85.7308C290.091 103.24 285.771 135.864 285.725 136.194C285.707 136.332 285.628 136.456 285.512 136.535C285.428 136.592 285.329 136.621 285.23 136.621C285.191 136.621 285.153 136.617 285.114 136.607C284.923 136.562 266.803 132.037 264.339 109.452C262.08 115.869 253.039 129.252 216.86 135.935C214.872 156.291 215.448 183.358 229.271 197.541C229.425 197.699 229.455 197.938 229.344 198.129C229.252 198.283 229.085 198.376 228.909 198.376Z" fill="#0A5840"/>
<path d="M267.26 62.9149C274.021 62.9149 279.502 68.3253 279.502 74.9992C279.502 79.5804 276.919 83.5654 273.112 85.6146C289.829 103.035 285.229 136.128 285.229 136.128C285.229 136.128 265.428 131.476 264.588 105.885C264.588 105.885 264.506 126.737 216.396 135.517C214.417 155.395 214.652 183.256 228.908 197.883C228.908 197.883 187.989 188.12 207.737 112.701C208.322 110.465 208.934 108.367 209.566 106.381C209.699 105.85 209.842 105.32 210.001 104.792C211.731 99.0661 214.102 93.787 217.243 89.3075C220.456 84.4045 223.932 81.2842 227.532 79.537C232.365 76.6526 238.178 75.0002 245.131 75.0002C248.13 75.0002 251.342 75.3072 254.778 75.9557C254.877 75.9745 254.972 75.9981 255.07 76.0179C255.041 75.6813 255.018 75.3427 255.018 74.9992C255.018 68.3253 260.499 62.9149 267.26 62.9149ZM267.26 61.9277C260.02 61.9277 254.119 67.6915 254.019 74.8156C250.933 74.2825 247.947 74.013 245.131 74.013C238.329 74.013 232.247 75.5796 227.052 78.6693C223.12 80.5882 219.538 83.9859 216.403 88.7705C213.37 93.096 210.888 98.3998 209.043 104.51C208.896 104.998 208.752 105.523 208.603 106.114C207.95 108.167 207.333 110.301 206.769 112.454C198.723 143.181 199.579 166.882 209.314 182.899C217.272 195.993 228.211 198.732 228.673 198.842C228.751 198.861 228.83 198.87 228.908 198.87C229.26 198.87 229.594 198.685 229.775 198.374C229.996 197.994 229.936 197.515 229.628 197.199C216.019 183.236 215.384 156.561 217.319 136.352C237.094 132.656 251.203 126.511 259.26 118.086C261.656 115.58 263.145 113.231 264.07 111.278C265.628 121.587 270.469 127.812 274.564 131.346C279.746 135.817 284.784 137.038 284.996 137.088C285.073 137.106 285.15 137.115 285.228 137.115C285.428 137.115 285.625 137.055 285.793 136.942C286.026 136.785 286.18 136.537 286.219 136.262C286.406 134.914 290.549 103.578 274.669 85.8328C278.295 83.4144 280.501 79.3682 280.501 74.9982C280.502 67.7912 274.562 61.9277 267.26 61.9277Z" fill="#0A5840"/>
<path d="M153.578 391.668C153.302 391.668 153.078 391.447 153.078 391.174V280.685C153.078 280.413 153.302 280.191 153.578 280.191H343.797C344.073 280.191 344.297 280.413 344.297 280.685V391.174C344.297 391.447 344.073 391.668 343.797 391.668H153.578Z" fill="#0A5840"/>
<path d="M343.797 280.684V391.173H153.578V280.684H343.797ZM343.797 279.697H153.578C153.026 279.697 152.578 280.139 152.578 280.684V391.173C152.578 391.718 153.026 392.16 153.578 392.16H343.797C344.349 392.16 344.797 391.718 344.797 391.173V280.684C344.797 280.139 344.349 279.697 343.797 279.697Z" fill="#0A5840"/>
<path d="M90.9269 391.43C90.6829 391.43 90.4749 391.256 90.4339 391.02C88.4549 379.653 83.2509 349.935 82.9509 348.949C82.9059 348.8 82.9329 348.632 83.0269 348.507C83.1209 348.382 83.2679 348.303 83.4259 348.303H125.786C125.935 348.303 126.076 348.368 126.171 348.482C126.266 348.595 126.305 348.745 126.277 348.889L118.687 388.206C118.681 388.239 118.671 388.27 118.659 388.301L118.137 391.029C118.093 391.262 117.886 391.431 117.646 391.431L90.9269 391.43Z" fill="#EDEDED"/>
<path d="M125.79 348.796L118.2 388.113H118.19L117.65 390.936H90.9296C90.9296 390.936 83.7596 349.763 83.4296 348.796H125.79ZM125.79 347.809H83.4296C83.1076 347.809 82.8056 347.962 82.6176 348.22C82.4296 348.479 82.3796 348.811 82.4816 349.112C82.7776 350.19 87.1076 374.819 89.9436 391.104C90.0266 391.577 90.4426 391.924 90.9296 391.924H117.65C118.131 391.924 118.543 391.586 118.633 391.119L119.148 388.429C119.163 388.386 119.174 388.343 119.183 388.297L126.773 348.98C126.829 348.691 126.751 348.393 126.561 348.166C126.37 347.94 126.088 347.809 125.79 347.809Z" fill="#0A5840"/>
<path d="M104.113 367.667C102.478 364.034 102.901 360.746 103.577 358.572C99.1801 358.767 95.6641 363.021 95.6641 368.255C95.6641 373.613 99.3461 377.956 103.889 377.956C104.012 377.956 104.131 377.941 104.253 377.935C105.116 375.361 105.82 371.457 104.113 367.667Z" fill="#0A5840"/>
<path d="M113.746 368.254C113.746 362.896 110.064 358.553 105.521 358.553C105.416 358.553 105.314 358.567 105.209 358.571C104.533 360.745 104.109 364.033 105.745 367.666C107.452 371.456 106.748 375.36 105.884 377.933C110.257 377.707 113.746 373.466 113.746 368.254Z" fill="#0A5840"/>
<path d="M83.4295 349.291C83.2445 349.291 83.0745 349.189 82.9885 349.028C82.9015 348.867 82.9115 348.673 83.0155 348.521L87.1055 342.54L91.8055 335.65C91.8985 335.514 92.0535 335.432 92.2195 335.432H117.979C118.155 335.432 118.318 335.523 118.408 335.672L122.578 342.562L126.218 348.543C126.311 348.696 126.313 348.886 126.224 349.04C126.135 349.195 125.969 349.291 125.789 349.291H83.4295Z" fill="#EDEDED"/>
<path d="M117.979 335.925L122.149 342.815L125.789 348.797H83.4289L87.5189 342.815L92.2189 335.925H117.979ZM117.979 334.938H92.2189C91.8859 334.938 91.5749 335.1 91.3899 335.373L86.69 342.263L82.6009 348.244C82.3939 348.547 82.3729 348.937 82.5469 349.26C82.7209 349.582 83.0599 349.784 83.4299 349.784H125.79C126.15 349.784 126.483 349.592 126.66 349.282C126.837 348.972 126.833 348.593 126.647 348.288L123.007 342.306L118.838 335.418C118.657 335.12 118.331 334.938 117.979 334.938Z" fill="#0A5840"/>
<path d="M429.495 56.4685C433.225 33.4717 417.363 11.8441 394.066 8.16189C370.769 4.4797 348.859 20.1373 345.129 43.1341C341.399 66.1309 357.261 87.7584 380.558 91.4406C403.855 95.1228 425.764 79.4653 429.495 56.4685Z" fill="white" stroke="#0A5840" stroke-miterlimit="10" stroke-linecap="round" stroke-linejoin="round"/>
<path d="M387.305 7.61523V14.9505" stroke="#0A5840" stroke-miterlimit="10" stroke-linecap="round" stroke-linejoin="round"/>
<path d="M387.305 83.9043V91.2406" stroke="#0A5840" stroke-miterlimit="10" stroke-linecap="round" stroke-linejoin="round"/>
<path d="M344.945 49.4277H352.377" stroke="#0A5840" stroke-miterlimit="10" stroke-linecap="round" stroke-linejoin="round"/>
<path d="M422.227 49.4277H429.659" stroke="#0A5840" stroke-miterlimit="10" stroke-linecap="round" stroke-linejoin="round"/>
<path d="M357.352 19.8613L362.607 25.0486" stroke="#0A5840" stroke-miterlimit="10" stroke-linecap="round" stroke-linejoin="round"/>
<path d="M412 73.8066L417.255 78.9939" stroke="#0A5840" stroke-miterlimit="10" stroke-linecap="round" stroke-linejoin="round"/>
<path d="M357.352 78.9939L362.607 73.8066" stroke="#0A5840" stroke-miterlimit="10" stroke-linecap="round" stroke-linejoin="round"/>
<path d="M412 25.0486L417.255 19.8613" stroke="#0A5840" stroke-miterlimit="10" stroke-linecap="round" stroke-linejoin="round"/>
<path d="M390.186 49.4279C390.186 50.9974 388.897 52.2688 387.308 52.2688C385.718 52.2688 384.43 50.9964 384.43 49.4279C384.43 47.8583 385.719 46.5859 387.308 46.5859C388.897 46.5869 390.186 47.8583 390.186 49.4279Z" fill="#0A5840"/>
<path d="M387.305 19.8613V49.4275L404.021 65.0566" stroke="#0A5840" stroke-miterlimit="10" stroke-linecap="round" stroke-linejoin="round"/>
<path opacity="0.27" d="M118.19 388.113L117.65 390.936H90.9297C90.9297 390.936 83.7597 349.763 83.4297 348.796L87.5197 342.814L92.2197 335.924C92.2197 335.924 92.0597 341.392 92.9197 348.796C94.5797 363.267 100.11 385.151 118.19 388.113Z" fill="#0A5840"/>
<path d="M441.602 336.502C441.602 336.502 445.844 307.449 458.929 294.709" stroke="#0A5840" stroke-miterlimit="10"/>
<path d="M455.867 298.091C456.076 297.979 456.291 296.857 456.367 296.645C456.833 295.345 457.333 294.057 457.858 292.78C459.466 288.862 461.308 285.021 463.503 281.388C466.043 277.185 469.154 272.821 473.487 270.263C475.645 268.989 478.761 268.365 481.26 268.552C485.434 268.864 488.436 272.355 486.323 276.272C484.559 279.544 481.089 281.654 478.229 283.89C473.783 287.365 469.009 290.435 464.169 293.345C461.44 294.986 458.681 296.592 455.867 298.091Z" fill="#0A5840"/>
<path d="M450.445 348.636C450.445 348.636 452.106 325.992 465.191 313.252" stroke="#0A5840" stroke-miterlimit="10"/>
<path d="M461.477 317.365C461.787 317.2 462.122 315.549 462.243 315.232C462.917 313.463 463.664 311.72 464.487 310.015C466.477 305.887 468.952 301.461 472.693 298.627C475.057 296.837 481.864 294.98 483.214 299.131C483.444 299.837 483.262 300.612 482.969 301.296C481.918 303.748 479.621 305.441 477.585 307.069C475.322 308.877 472.916 310.512 470.473 312.073C467.545 313.942 464.547 315.73 461.477 317.365Z" fill="#0A5840"/>
<path d="M421.281 292.57C421.281 292.57 434.79 303.921 441.029 339.614" stroke="#0A5840" stroke-miterlimit="10"/>
<path d="M425.264 297.076C424.983 296.909 424.708 295.877 424.575 295.596C423.951 294.279 423.308 292.971 422.651 291.67C420.636 287.681 418.487 283.752 416.131 279.948C413.706 276.033 411.074 272.103 407.771 268.847C405.786 266.889 402.691 264.246 399.638 265.304C397.69 265.978 395.959 268.258 395.72 270.206C395.332 273.366 398.479 276.603 400.54 278.724C402.748 280.997 405.18 283.056 407.67 285.02C412.263 288.643 417.109 291.957 422.056 295.09C423.117 295.764 424.183 296.433 425.264 297.076Z" fill="#0A5840"/>
<path d="M435.409 337.273C435.409 337.273 429.605 320.469 437.31 303.998" stroke="#0A5840" stroke-miterlimit="10"/>
<path d="M436.157 306.994C435.962 303.879 436.083 300.715 436.389 297.613C436.859 292.855 437.737 287.048 441.238 283.443C442.913 281.718 445.271 280.843 447.696 281.121C456.23 282.099 440.94 301.124 438.846 303.736C437.967 304.834 437.078 305.928 436.157 306.994Z" fill="#0A5840"/>
<path d="M435.171 336.597C435.171 336.597 423.796 316.863 406.43 310.926" stroke="#0A5840" stroke-miterlimit="10"/>
<path d="M415.108 315.067C414.757 315.024 413.837 313.6 413.608 313.347C412.327 311.935 410.987 310.573 409.59 309.271C404.975 304.969 397.237 298.334 390.513 302.228C389.744 302.674 389.034 303.248 388.556 303.99C386.108 307.793 392.04 309.755 394.672 310.691C397.481 311.69 400.393 312.411 403.307 313.041C407.196 313.883 411.132 314.563 415.082 315.064C415.091 315.065 415.1 315.066 415.108 315.067Z" fill="#0A5840"/>
<path d="M462.839 328.711H419.211V388.966H462.839V328.711Z" fill="#F5E073"/>
<path d="M462.34 329.204V388.472H419.711V329.204H462.34ZM463.34 328.217H462.34H419.711H418.711V329.204V388.472V389.459H419.711H462.34H463.34V388.472V329.204V328.217Z" fill="#0A5840"/>
<path d="M460.332 388.473H419.711V329.205C419.711 329.205 425.453 383.754 460.332 388.473Z" fill="#EDD349"/>
<path d="M54.0329 364.989C53.9209 364.989 53.8069 364.983 53.6919 364.971C52.0209 364.807 50.7109 363.304 50.7109 361.551V326.042C50.7109 325.77 50.9349 325.549 51.2109 325.549H56.8539C57.1299 325.549 57.3539 325.77 57.3539 326.042V361.71C57.3539 362.587 57.0079 363.41 56.3809 364.029C55.7539 364.648 54.9199 364.989 54.0329 364.989Z" fill="#F5E073"/>
<path d="M56.8539 326.044V361.71C56.8539 363.248 55.5909 364.495 54.0329 364.495C53.9369 364.495 53.8399 364.49 53.7419 364.48C52.2729 364.335 51.2109 363.007 51.2109 361.55V326.042H56.8539M56.8539 325.057H51.2109C50.6589 325.057 50.2109 325.499 50.2109 326.044V361.552C50.2109 363.555 51.7179 365.274 53.6419 365.464C53.7729 365.477 53.9039 365.484 54.0329 365.484C56.1399 365.484 57.8539 363.792 57.8539 361.712V326.046C57.8539 325.499 57.4069 325.057 56.8539 325.057Z" fill="#0A5840"/>
<path d="M54.9769 323.321C54.5049 322.7 53.5609 322.7 53.0889 323.321L51.2109 325.793V326.046H56.8539V325.793L54.9769 323.321Z" fill="#0A5840"/>
<path d="M45.8047 330.34L47.3977 331.51V337.355L45.8047 338.758V330.34Z" fill="#0A5840"/>
<path d="M42.9851 357.395C41.1541 357.395 39.6641 355.924 39.6641 354.116V325.053H46.3071V354.116C46.3061 355.924 44.8161 357.395 42.9851 357.395Z" fill="#F5E073"/>
<path d="M45.8071 325.546V354.116C45.8071 355.654 44.5441 356.902 42.9861 356.902C41.4281 356.902 40.1651 355.655 40.1651 354.116V325.546H45.8071ZM46.8071 324.559H45.8071H40.1641H39.1641V325.546V354.116C39.1641 356.196 40.8781 357.889 42.9851 357.889C45.0921 357.889 46.8061 356.197 46.8061 354.116V325.546V324.559H46.8071Z" fill="#0A5840"/>
<path d="M39.6641 326.04V321.235C39.6641 319.428 41.1541 317.957 42.9851 317.957C44.8171 317.957 46.3061 319.428 46.3061 321.235V326.04H39.6641Z" fill="#F5E073"/>
<path d="M42.9851 318.45C44.5431 318.45 45.8061 319.697 45.8061 321.236V325.546H40.1631V321.236C40.1631 319.698 41.4261 318.45 42.9851 318.45ZM42.9851 317.463C40.8781 317.463 39.1641 319.155 39.1641 321.236V325.546V326.534H40.1641H45.8071H46.8071V325.546V321.236C46.8061 319.156 45.0921 317.463 42.9851 317.463Z" fill="#0A5840"/>
<path d="M34.1882 364.991C32.3562 364.991 30.8672 363.52 30.8672 361.713V328.831C30.8672 327.024 32.3572 325.553 34.1882 325.553C36.0192 325.553 37.5092 327.024 37.5092 328.831V361.713C37.5092 363.52 36.0192 364.991 34.1882 364.991Z" fill="#F5E073"/>
<path d="M34.1882 326.046C35.7462 326.046 37.0092 327.292 37.0092 328.83V361.712C37.0092 363.25 35.7462 364.497 34.1882 364.497C32.6302 364.497 31.3672 363.25 31.3672 361.712V328.83C31.3662 327.292 32.6302 326.046 34.1882 326.046ZM34.1882 325.059C32.0812 325.059 30.3672 326.751 30.3672 328.83V361.712C30.3672 363.792 32.0812 365.484 34.1882 365.484C36.2952 365.484 38.0092 363.792 38.0092 361.712V328.83C38.0092 326.751 36.2952 325.059 34.1882 325.059Z" fill="#0A5840"/>
<path d="M62.0383 338.768L60.4453 339.936V345.782L62.0383 347.185V338.768Z" fill="#0A5840"/>
<path d="M64.8601 365.82C63.0291 365.82 61.5391 364.35 61.5391 362.542V333.479H68.1821V362.542C68.1821 364.35 66.6921 365.82 64.8601 365.82Z" fill="#F5E073"/>
<path d="M67.6821 333.971V362.542C67.6821 364.08 66.4191 365.327 64.8611 365.327C63.3031 365.327 62.0401 364.081 62.0401 362.542V333.971H67.6821ZM68.6821 332.984H67.6821H62.0391H61.0391V333.971V362.542C61.0391 364.622 62.7531 366.314 64.8601 366.314C66.9671 366.314 68.6821 364.623 68.6821 362.542V333.971V332.984Z" fill="#0A5840"/>
<path d="M64.8601 326.877C66.4181 326.877 67.6821 328.124 67.6821 329.663V333.973H62.0391V329.663C62.0391 328.124 63.3021 326.877 64.8601 326.877Z" fill="#0A5840"/>
<path d="M69.7084 342.359V380.571C69.7084 383.433 68.5584 386.03 66.6884 387.935C64.7384 389.929 61.9984 391.172 58.9684 391.172H38.1484C32.2084 391.172 27.3984 386.424 27.3984 380.571V342.359H69.7084Z" fill="#0A4D39"/>
<path d="M66.6884 387.935C64.7384 389.929 61.9984 391.172 58.9684 391.172H38.1484C32.2084 391.172 27.3984 386.424 27.3984 380.571V342.359C27.3984 342.359 40.1184 378.448 66.6884 387.935Z" fill="#0A5840"/>
<path d="M26.007 411.569C19.318 411.569 13.875 406.197 13.875 399.593C13.875 392.989 19.317 387.617 26.007 387.617H488.125C494.814 387.617 500.257 392.989 500.257 399.593C500.257 406.196 494.815 411.569 488.125 411.569H26.007Z" fill="#EDEDED"/>
<path d="M488.125 388.11C494.549 388.11 499.757 393.251 499.757 399.592C499.757 405.934 494.549 411.074 488.125 411.074H26.007C19.583 411.074 14.375 405.934 14.375 399.592C14.375 393.251 19.583 388.11 26.007 388.11H488.125ZM488.125 387.123H26.007C19.042 387.123 13.375 392.717 13.375 399.592C13.375 406.468 19.042 412.062 26.007 412.062H488.125C495.09 412.062 500.757 406.468 500.757 399.592C500.757 392.717 495.09 387.123 488.125 387.123Z" fill="#0A5840"/>
<path d="M178.099 4.64648H81.139C71.674 4.64648 64 12.2207 64 21.5647V58.0921C64 67.4352 71.673 75.0103 81.139 75.0103H153.357L176.852 91.8328L171.252 75.0103H178.099C187.564 75.0103 195.238 67.4362 195.238 58.0921V21.5647C195.238 12.2207 187.564 4.64648 178.099 4.64648Z" fill="#0A5840"/>
<path d="M185.357 1.33984H88.3968C78.9318 1.33984 71.2578 8.91401 71.2578 18.2581V54.7854C71.2578 64.1285 78.9308 71.7037 88.3968 71.7037H160.614L184.109 88.5262L178.509 71.7037H185.356C194.821 71.7037 202.495 64.1295 202.495 54.7854V18.2581C202.496 8.915 194.823 1.33984 185.357 1.33984Z" fill="white" stroke="#0A5840" stroke-miterlimit="10" stroke-linecap="round" stroke-linejoin="round"/>
<path d="M82.5 42.2246H177.969" stroke="#0A5840" stroke-miterlimit="10" stroke-linecap="round" stroke-linejoin="round"/>
<path d="M82.5 16.1152H131.714" stroke="#0A5840" stroke-miterlimit="10" stroke-linecap="round" stroke-linejoin="round"/>
<path d="M82.6094 29.5488H142.593" stroke="#0A5840" stroke-miterlimit="10" stroke-linecap="round" stroke-linejoin="round"/>
<path d="M82.7891 35.9102H162.285" stroke="#0A5840" stroke-miterlimit="10" stroke-linecap="round" stroke-linejoin="round"/>
<path d="M82.9062 48.7539H177.213" stroke="#0A5840" stroke-miterlimit="10" stroke-linecap="round" stroke-linejoin="round"/>
<path d="M82.9141 55.2812H177.986" stroke="#0A5840" stroke-miterlimit="10" stroke-linecap="round" stroke-linejoin="round"/>
<path d="M82.9609 22.6426H177.718" stroke="#0A5840" stroke-miterlimit="10" stroke-linecap="round" stroke-linejoin="round"/>
</svg>
