<svg width="690" height="364" viewBox="0 0 690 364" fill="none" xmlns="http://www.w3.org/2000/svg">
<path d="M619.588 262.169H453.367C450.395 262.169 447.977 259.839 447.977 256.975V23.7209C447.977 20.8575 450.395 18.5273 453.367 18.5273H619.588C622.561 18.5273 624.979 20.8566 624.979 23.7209V256.974C624.979 259.839 622.561 262.169 619.588 262.169ZM453.367 18.7488C450.521 18.7488 448.206 20.9797 448.206 23.7209V256.974C448.206 259.716 450.522 261.946 453.367 261.946H619.588C622.435 261.946 624.749 259.715 624.749 256.974V23.7209C624.749 20.9797 622.434 18.7488 619.588 18.7488H453.367Z" fill="#E0E0E0"/>
<path d="M427.912 262.169H261.692C258.719 262.169 256.301 259.839 256.301 256.975V23.7209C256.301 20.8575 258.719 18.5273 261.692 18.5273H427.913C430.886 18.5273 433.304 20.8566 433.304 23.7209V256.974C433.303 259.839 430.885 262.169 427.912 262.169ZM261.692 18.7488C258.846 18.7488 256.531 20.9797 256.531 23.7209V256.974C256.531 259.716 258.846 261.946 261.692 261.946H427.913C430.76 261.946 433.074 259.715 433.074 256.974V23.7209C433.074 20.9797 430.759 18.7488 427.913 18.7488H261.692Z" fill="#E0E0E0"/>
<path d="M236.362 262.169H70.1409C67.1686 262.169 64.75 259.839 64.75 256.975V23.7209C64.75 20.8575 67.1677 18.5273 70.1409 18.5273H236.362C239.334 18.5273 241.753 20.8566 241.753 23.7209V256.974C241.754 259.839 239.335 262.169 236.362 262.169ZM70.1409 18.7488C67.2956 18.7488 64.9799 20.9797 64.9799 23.7209V256.974C64.9799 259.716 67.2956 261.946 70.1409 261.946H236.362C239.208 261.946 241.523 259.715 241.523 256.974V23.7209C241.523 20.9797 239.207 18.7488 236.362 18.7488H70.1409Z" fill="#E0E0E0"/>
<path d="M689.728 316.297H0V316.403H689.728V316.297Z" fill="#E0E0E0"/>
<path d="M652.348 342.314H601.098V342.687H652.348V342.314Z" fill="#EBEBEB"/>
<path d="M468.713 346.361H455.262V346.734H468.713V346.361Z" fill="#EBEBEB"/>
<path d="M104.213 330.979H37.3789V331.352H104.213V330.979Z" fill="#EBEBEB"/>
<path d="M127.788 330.979H117.988V331.352H127.788V330.979Z" fill="#EBEBEB"/>
<path d="M304.583 337.27H159.637V337.643H304.583V337.27Z" fill="#EBEBEB"/>
<path d="M575.563 306.212C577.919 303.414 582.473 301.547 587.472 300.648C587.08 302.026 587.373 303.297 588.219 303.609C589.162 303.958 590.426 302.982 591.044 301.431C591.217 300.993 591.314 300.559 591.353 300.15C596.393 299.755 601.433 300.314 604.797 301.868C604.797 301.868 601.504 304.728 597.773 312.248C597.659 312.243 597.544 312.24 597.428 312.241C595.014 312.265 593.068 313.388 593.082 314.75C593.092 315.745 594.148 316.589 595.656 316.965C595.461 317.447 595.265 317.937 595.07 318.444C591.516 327.71 582.037 321.012 582.121 314.67C582.121 314.67 570.284 312.481 575.563 306.212Z" fill="#E6E6E6"/>
<path d="M563.883 294.255C560.98 291.235 555.644 289.435 549.875 288.771C550.429 290.314 550.192 291.784 549.253 292.2C548.205 292.665 546.688 291.644 545.864 289.92C545.631 289.433 545.487 288.946 545.412 288.482C539.636 288.395 533.933 289.395 530.219 291.411C530.219 291.411 534.195 294.434 539.032 302.737C539.162 302.725 539.293 302.712 539.425 302.705C542.18 302.558 544.484 303.698 544.574 305.252C544.64 306.386 543.502 307.426 541.812 307.962C542.073 308.497 542.334 309.041 542.595 309.607C547.366 319.913 557.653 311.594 557.064 304.371C557.064 304.371 570.388 301.021 563.883 294.255Z" fill="#E6E6E6"/>
<path d="M556.833 292.02C558.067 286.223 563.234 280.177 569.812 275.218C570.324 277.512 571.753 279.149 573.231 278.987C574.879 278.807 575.955 276.461 575.634 273.749C575.543 272.984 575.343 272.281 575.076 271.657C582.111 267.401 589.896 264.535 596.023 264.346C596.023 264.346 593.473 270.918 593.952 284.601C593.782 284.679 593.612 284.757 593.442 284.845C589.942 286.641 587.991 289.699 589.082 291.673C589.88 293.115 592.083 293.576 594.576 293.021C594.669 293.866 594.769 294.723 594.885 295.606C596.995 311.705 577.91 308.864 573.046 299.56C573.046 299.56 554.071 305.011 556.833 292.02Z" fill="#EBEBEB"/>
<path d="M570.243 328.776C567.047 311.665 571.825 293.31 583.019 279.676L583.559 280.088C572.485 293.575 567.761 311.732 570.922 328.658L570.243 328.776Z" fill="#E0E0E0"/>
<path d="M569.724 322.945C569.689 322.945 569.654 322.94 569.62 322.929C569.516 322.898 569.433 322.82 569.398 322.72C567.144 316.356 559.531 302.643 546.85 296.301C546.681 296.216 546.615 296.015 546.703 295.852C546.792 295.688 546.999 295.628 547.169 295.711C559.768 302.013 567.434 315.464 569.896 322.083C572.39 320.346 586.637 310.443 593.778 306.035C593.938 305.937 594.152 305.979 594.255 306.135C594.358 306.289 594.312 306.495 594.151 306.594C586.364 311.401 570.091 322.769 569.928 322.883C569.866 322.923 569.795 322.945 569.724 322.945Z" fill="#E0E0E0"/>
<path d="M590.187 334.159H550.027L550.043 327.072H590.146L590.187 334.159Z" fill="#E0E0E0"/>
<path d="M552.938 331.854L559.212 357.001H582.319L587.915 331.854H552.938Z" fill="#E0E0E0"/>
<path d="M555.838 325.82H552.265C552.138 325.82 552.035 325.721 552.035 325.598C552.035 325.476 552.138 325.377 552.265 325.377H555.838C555.965 325.377 556.068 325.476 556.068 325.598C556.068 325.721 555.965 325.82 555.838 325.82Z" fill="#E0E0E0"/>
<path d="M567.26 325.82H557.484C557.357 325.82 557.254 325.721 557.254 325.598C557.254 325.476 557.357 325.377 557.484 325.377H567.26C567.387 325.377 567.49 325.476 567.49 325.598C567.49 325.721 567.387 325.82 567.26 325.82Z" fill="#E0E0E0"/>
<path d="M478.898 36.4727H477.242V160.837H478.898V36.4727Z" fill="#E0E0E0"/>
<path d="M581.94 36.4727H580.285V160.837H581.94V36.4727Z" fill="#E0E0E0"/>
<path d="M588.428 44.3004H470.76L468.277 38.7188H590.911L588.428 44.3004Z" fill="#F0F0F0"/>
<path d="M588.428 51.9684H470.76L468.277 46.3867H590.911L588.428 51.9684Z" fill="#F0F0F0"/>
<path d="M588.428 59.6285H470.76L468.277 54.0469H590.911L588.428 59.6285Z" fill="#F0F0F0"/>
<path d="M588.428 67.2965H470.76L468.277 61.7148H590.911L588.428 67.2965Z" fill="#F0F0F0"/>
<path d="M588.428 74.9566H470.76L468.277 69.375H590.911L588.428 74.9566Z" fill="#F0F0F0"/>
<path d="M588.428 82.6246H470.76L468.277 77.043H590.911L588.428 82.6246Z" fill="#F0F0F0"/>
<path d="M588.428 90.2848H470.76L468.277 84.7031H590.911L588.428 90.2848Z" fill="#F0F0F0"/>
<path d="M588.428 97.9449H470.76L468.277 92.3633H590.911L588.428 97.9449Z" fill="#F0F0F0"/>
<path d="M588.428 105.595H470.76L468.277 100.014H590.911L588.428 105.595Z" fill="#F0F0F0"/>
<path d="M588.428 113.263H470.76L468.277 107.682H590.911L588.428 113.263Z" fill="#F0F0F0"/>
<path d="M588.428 120.933H470.76L468.277 115.352H590.911L588.428 120.933Z" fill="#F0F0F0"/>
<path d="M588.428 128.601H470.76L468.277 123.02H590.911L588.428 128.601Z" fill="#F0F0F0"/>
<path d="M588.428 136.252H470.76L468.277 130.67H590.911L588.428 136.252Z" fill="#F0F0F0"/>
<path d="M588.428 143.91H470.76L468.277 138.328H590.911L588.428 143.91Z" fill="#F0F0F0"/>
<path d="M588.428 151.58H470.76L468.277 145.998H590.911L588.428 151.58Z" fill="#F0F0F0"/>
<path d="M588.428 159.248H470.76L468.277 153.666H590.911L588.428 159.248Z" fill="#F0F0F0"/>
<path d="M590.911 159.254H468.277V162.443H590.911V159.254Z" fill="#E0E0E0"/>
<path d="M595.186 31.7285H464V39.1707H595.186V31.7285Z" fill="#E0E0E0"/>
<path d="M465.341 106.646C464.605 106.646 464.008 106.071 464.008 105.362V61.9487C464.008 61.2391 464.605 60.6641 465.341 60.6641C466.078 60.6641 466.675 61.2391 466.675 61.9487V105.362C466.675 106.071 466.077 106.646 465.341 106.646Z" fill="#E0E0E0"/>
<path d="M465.833 37.6758H464.867V63.4577H465.833V37.6758Z" fill="#E0E0E0"/>
<path d="M439.372 154.907L399.805 162.407C398.054 162.738 396.357 161.64 396.012 159.954L385.655 109.241C385.311 107.555 386.45 105.919 388.201 105.588L427.768 98.0883C429.518 97.7569 431.216 98.8547 431.561 100.541L441.917 151.254C442.261 152.939 441.122 154.575 439.372 154.907Z" fill="#E6E6E6"/>
<path d="M424.143 115.558L398.428 120.433C397.543 120.6 396.685 120.046 396.512 119.193L396.371 118.506C396.197 117.654 396.773 116.827 397.656 116.659L423.371 111.786C424.256 111.618 425.114 112.173 425.288 113.024L425.429 113.713C425.602 114.564 425.027 115.391 424.143 115.558Z" fill="#F0F0F0"/>
<path d="M426.112 125.201L400.397 130.075C399.512 130.243 398.655 129.688 398.48 128.836L398.34 128.147C398.166 127.295 398.741 126.469 399.626 126.301L425.341 121.426C426.226 121.259 427.084 121.813 427.258 122.666L427.398 123.354C427.572 124.206 426.996 125.033 426.112 125.201Z" fill="#F0F0F0"/>
<path d="M428.084 134.863L402.369 139.737C401.485 139.905 400.627 139.35 400.453 138.498L400.312 137.809C400.138 136.957 400.714 136.13 401.599 135.963L427.314 131.088C428.198 130.921 429.056 131.476 429.23 132.328L429.371 133.016C429.545 133.869 428.969 134.695 428.084 134.863Z" fill="#F0F0F0"/>
<path d="M416.373 147.103L404.338 149.384C403.453 149.552 402.596 148.997 402.422 148.145L402.281 147.456C402.107 146.604 402.683 145.777 403.567 145.61L415.602 143.329C416.487 143.161 417.345 143.716 417.518 144.568L417.659 145.257C417.834 146.109 417.257 146.935 416.373 147.103Z" fill="#F0F0F0"/>
<path d="M150.742 68.4473L114.932 78.1266C111.658 79.0117 108.258 77.1724 107.341 74.0175L93.4845 26.4397C92.5657 23.2857 94.4749 20.0111 97.7497 19.126L133.559 9.44672C136.834 8.56163 140.233 10.4009 141.152 13.5559L155.008 61.1336C155.926 64.2877 154.017 67.5623 150.742 68.4473Z" fill="#E6E6E6"/>
<path d="M133.519 27.5497L107.559 34.5666C106.436 34.8705 105.27 34.2388 104.954 33.157C104.639 32.0752 105.294 30.9518 106.417 30.6479L132.378 23.631C133.501 23.3271 134.667 23.9579 134.981 25.0406C135.298 26.1233 134.643 27.2467 133.519 27.5497Z" fill="#F0F0F0"/>
<path d="M136.436 37.5722L110.476 44.5891C109.353 44.8921 108.187 44.2613 107.872 43.1795C107.557 42.0977 108.212 40.9743 109.335 40.6713L135.296 33.6544C136.419 33.3505 137.585 33.9822 137.9 35.064C138.214 36.1457 137.559 37.2683 136.436 37.5722Z" fill="#F0F0F0"/>
<path d="M139.355 47.5936L113.395 54.6106C112.272 54.9145 111.106 54.2836 110.79 53.201C110.475 52.1192 111.13 50.9958 112.253 50.6928L138.214 43.6759C139.337 43.372 140.503 44.0037 140.817 45.0855C141.133 46.1672 140.478 47.2906 139.355 47.5936Z" fill="#F0F0F0"/>
<path d="M128.072 61.4567L116.316 64.6339C115.194 64.9377 114.027 64.306 113.712 63.2243C113.397 62.1425 114.051 61.0191 115.175 60.7152L126.931 57.5372C128.054 57.2333 129.22 57.865 129.535 58.9468C129.851 60.0294 129.195 61.1529 128.072 61.4567Z" fill="#F0F0F0"/>
<path d="M637.931 156.332L614.965 151.079C613.23 150.682 612.157 149.005 612.569 147.333L619.998 117.182C620.41 115.51 622.151 114.477 623.886 114.874L646.853 120.127C648.588 120.524 649.661 122.201 649.249 123.873L641.819 154.024C641.407 155.695 639.667 156.729 637.931 156.332Z" fill="#E6E6E6"/>
<path d="M640.8 129.61L624.87 125.966C624.181 125.808 623.754 125.142 623.918 124.478C624.081 123.814 624.773 123.403 625.462 123.561L641.393 127.205C642.082 127.363 642.508 128.029 642.345 128.693C642.181 129.357 641.489 129.767 640.8 129.61Z" fill="#F0F0F0"/>
<path d="M639.285 135.765L623.354 132.122C622.665 131.964 622.238 131.298 622.402 130.634C622.566 129.971 623.257 129.56 623.946 129.717L639.877 133.361C640.566 133.519 640.993 134.184 640.829 134.849C640.666 135.512 639.975 135.923 639.285 135.765Z" fill="#F0F0F0"/>
<path d="M637.765 141.913L621.834 138.27C621.146 138.113 620.719 137.446 620.883 136.783C621.046 136.119 621.738 135.708 622.427 135.866L638.358 139.509C639.046 139.667 639.473 140.333 639.309 140.996C639.147 141.661 638.455 142.071 637.765 141.913Z" fill="#F0F0F0"/>
<path d="M627.532 146.076L620.319 144.427C619.63 144.269 619.203 143.603 619.367 142.939C619.531 142.275 620.222 141.864 620.911 142.022L628.125 143.672C628.814 143.829 629.24 144.496 629.077 145.159C628.913 145.824 628.221 146.234 627.532 146.076Z" fill="#F0F0F0"/>
<path d="M69.4253 227.793L52.2189 234.821C50.5764 235.492 48.681 234.753 47.9849 233.172L37.8937 210.242C37.1975 208.66 37.9645 206.833 39.6061 206.163L56.8134 199.134C58.4559 198.464 60.3512 199.203 61.0474 200.784L71.1386 223.714C71.8348 225.295 71.0678 227.121 69.4253 227.793Z" fill="#E6E6E6"/>
<path d="M58.1013 208.22L45.4912 213.371C44.9459 213.593 44.316 213.348 44.0851 212.822C43.8543 212.297 44.109 211.69 44.6544 211.468L57.2644 206.317C57.8098 206.094 58.4397 206.339 58.6706 206.865C58.9014 207.389 58.6467 207.996 58.1013 208.22Z" fill="#F0F0F0"/>
<path d="M60.2419 213.091L47.6319 218.242C47.0865 218.464 46.4566 218.219 46.2257 217.693C45.9949 217.168 46.2497 216.561 46.795 216.339L59.4051 211.188C59.9504 210.965 60.5804 211.21 60.8121 211.736C61.042 212.261 60.7873 212.868 60.2419 213.091Z" fill="#F0F0F0"/>
<path d="M62.3865 217.954L49.7764 223.105C49.2311 223.327 48.6011 223.082 48.3703 222.556C48.1395 222.031 48.3942 221.424 48.9395 221.202L61.5496 216.051C62.0949 215.828 62.7249 216.074 62.9566 216.599C63.1866 217.125 62.9318 217.731 62.3865 217.954Z" fill="#F0F0F0"/>
<path d="M57.6276 225.641L51.9175 227.974C51.3722 228.197 50.7423 227.95 50.5114 227.425C50.2797 226.9 50.5344 226.293 51.0807 226.07L56.7907 223.737C57.3361 223.514 57.966 223.759 58.1968 224.285C58.4277 224.811 58.1738 225.417 57.6276 225.641Z" fill="#F0F0F0"/>
<path d="M657.613 358.398C657.613 361.401 517.588 363.835 344.859 363.835C172.13 363.835 32.1055 361.402 32.1055 358.398C32.1055 355.396 172.13 352.961 344.859 352.961C517.588 352.961 657.613 355.395 657.613 358.398Z" fill="#F5F5F5"/>
<path d="M362.398 356.929H128.537C124.765 356.929 121.707 353.983 121.707 350.349V31.17C121.707 27.5357 124.765 24.5898 128.537 24.5898H362.398C366.171 24.5898 369.228 27.5357 369.228 31.17V350.35C369.228 353.983 366.171 356.929 362.398 356.929Z" fill="#0A5840"/>
<path opacity="0.3" d="M360.239 57.7461H130.699V344.512H360.239V57.7461Z" fill="black"/>
<path d="M360.653 36.8047H131.113V335.749H360.653V36.8047Z" fill="white"/>
<path d="M334.251 65.2168H157.516V74.4141H334.251V65.2168Z" fill="#E0E0E0"/>
<path d="M333.837 308.848H157.102V318.045H333.837V308.848Z" fill="#E0E0E0"/>
<path d="M292.554 181.012H164.375V181.898H292.554V181.012Z" fill="#263238"/>
<path d="M292.554 193.986H164.375V194.872H292.554V193.986Z" fill="#263238"/>
<path d="M333.167 199.963H308.922V176.605H333.167V199.963ZM309.842 199.077H332.248V177.491H309.842V199.077Z" fill="#263238"/>
<path d="M324.045 197.195L311.277 188.036L314.595 183.744L323.155 189.885L334.918 176.367L339.175 179.804L324.045 197.195Z" fill="#0A5840"/>
<path d="M292.554 139.977H164.375V140.863H292.554V139.977Z" fill="#263238"/>
<path d="M292.554 152.951H164.375V153.837H292.554V152.951Z" fill="#263238"/>
<path d="M333.167 158.916H308.922V135.559H333.167V158.916ZM309.842 158.03H332.248V136.445H309.842V158.03Z" fill="#263238"/>
<path d="M324.045 156.154L311.277 146.995L314.595 142.704L323.155 148.845L334.918 135.326L339.175 138.764L324.045 156.154Z" fill="#0A5840"/>
<path d="M292.554 98.9219H164.375V99.8079H292.554V98.9219Z" fill="#263238"/>
<path d="M292.554 111.896H164.375V112.782H292.554V111.896Z" fill="#263238"/>
<path d="M333.167 117.875H308.922V94.5176H333.167V117.875ZM309.842 116.989H332.248V95.4036H309.842V116.989Z" fill="#263238"/>
<path d="M324.045 115.12L311.277 105.962L314.595 101.67L323.155 107.811L334.918 94.293L339.175 97.7297L324.045 115.12Z" fill="#0A5840"/>
<path d="M292.554 221.355H164.375V222.241H292.554V221.355Z" fill="#263238"/>
<path d="M292.554 234.33H164.375V235.216H292.554V234.33Z" fill="#263238"/>
<path d="M333.167 240.308H308.922V216.951H333.167V240.308ZM309.842 239.422H332.248V217.837H309.842V239.422Z" fill="#263238"/>
<path d="M292.554 261.701H164.375V262.587H292.554V261.701Z" fill="#263238"/>
<path d="M292.554 274.676H164.375V275.562H292.554V274.676Z" fill="#263238"/>
<path d="M333.167 280.645H308.922V257.287H333.167V280.645ZM309.842 279.759H332.248V258.173H309.842V279.759Z" fill="#263238"/>
<path d="M284.73 18.8516H206.211V47.3817H284.73V18.8516Z" fill="#263238"/>
<path d="M270.332 21.725H224.416L219.297 0H276.616L270.332 21.725Z" fill="#263238"/>
<path opacity="0.3" d="M271.93 0C271.877 0.134668 265.815 18.5984 265.964 18.5984C266.113 18.5984 271.174 18.5984 271.174 18.5984L276.69 0H271.93Z" fill="black"/>
<path opacity="0.3" d="M279.661 18.8516C279.661 18.8516 279.282 47.3817 279.661 47.3817C280.039 47.3817 284.731 47.3817 284.731 47.3817V18.8516H279.661Z" fill="black"/>
<path d="M589.53 68.668H565.28C559.061 68.668 554.02 73.524 554.02 79.5158V92.607C554.02 98.598 559.061 103.455 565.28 103.455H570.796L571.677 109.504L578.37 103.455H589.53C595.749 103.455 600.79 98.598 600.79 92.607V79.5158C600.79 73.5249 595.749 68.668 589.53 68.668Z" fill="#0A5840"/>
<path d="M584.512 86.109C584.512 87.6506 585.809 88.9016 587.41 88.9016C589.011 88.9016 590.308 87.6515 590.308 86.109C590.308 84.5665 589.011 83.3164 587.41 83.3164C585.809 83.3164 584.512 84.5665 584.512 86.109Z" fill="white"/>
<path d="M574.641 86.109C574.641 87.6506 575.938 88.9016 577.539 88.9016C579.14 88.9016 580.438 87.6515 580.438 86.109C580.438 84.5665 579.14 83.3164 577.539 83.3164C575.938 83.3164 574.641 84.5665 574.641 86.109Z" fill="white"/>
<path d="M564.504 86.109C564.504 87.6506 565.801 88.9016 567.403 88.9016C569.004 88.9016 570.301 87.6515 570.301 86.109C570.301 84.5665 569.004 83.3164 567.403 83.3164C565.801 83.3164 564.504 84.5665 564.504 86.109Z" fill="white"/>
<path d="M590.153 66.5957C585.026 66.5957 579.898 66.5957 574.771 66.5957C574.326 66.5957 574.326 67.2602 574.771 67.2602C579.898 67.2602 585.025 67.2602 590.153 67.2602C590.597 67.2602 590.598 66.5957 590.153 66.5957Z" fill="#0A5840"/>
<path d="M572.841 66.5957C572.411 66.5957 571.982 66.5957 571.552 66.5957C571.372 66.5957 571.199 66.749 571.207 66.9279C571.216 67.1078 571.359 67.2602 571.552 67.2602C571.982 67.2602 572.411 67.2602 572.841 67.2602C573.021 67.2602 573.194 67.1069 573.185 66.9279C573.177 66.7481 573.034 66.5957 572.841 66.5957Z" fill="#0A5840"/>
<path d="M60.2651 69.6836H83.6607C89.6604 69.6836 94.5234 74.3686 94.5234 80.1487V92.7783C94.5234 98.5575 89.6595 103.243 83.6607 103.243H78.3396L77.4899 109.079L71.0331 103.243H60.2651C54.2663 103.243 49.4023 98.5575 49.4023 92.7783V80.1487C49.4023 74.3686 54.2654 69.6836 60.2651 69.6836Z" fill="#0A5840"/>
<path d="M65.1079 86.5028C65.1079 87.9904 63.8563 89.1962 62.3113 89.1962C60.7673 89.1962 59.5156 87.9904 59.5156 86.5028C59.5156 85.0144 60.7673 83.8086 62.3113 83.8086C63.8563 83.8086 65.1079 85.0144 65.1079 86.5028Z" fill="white"/>
<path d="M74.6353 86.5028C74.6353 87.9904 73.3837 89.1962 71.8396 89.1962C70.2955 89.1962 69.043 87.9904 69.043 86.5028C69.043 85.0144 70.2946 83.8086 71.8396 83.8086C73.3827 83.8086 74.6353 85.0144 74.6353 86.5028Z" fill="white"/>
<path d="M84.4126 86.5028C84.4126 87.9904 83.161 89.1962 81.616 89.1962C80.0719 89.1962 78.8203 87.9904 78.8203 86.5028C78.8203 85.0144 80.0719 83.8086 81.616 83.8086C83.161 83.8086 84.4126 85.0144 84.4126 86.5028Z" fill="white"/>
<path d="M59.6648 68.3305C64.6116 68.3305 69.5574 68.3305 74.5041 68.3305C74.9483 68.3305 74.9483 67.666 74.5041 67.666C69.5574 67.666 64.6116 67.666 59.6648 67.666C59.2216 67.666 59.2206 68.3305 59.6648 68.3305Z" fill="#0A5840"/>
<path d="M76.3647 68.3305C76.7794 68.3305 77.1933 68.3305 77.608 68.3305C77.7883 68.3305 77.9612 68.1772 77.9529 67.9983C77.9446 67.8184 77.8012 67.666 77.608 67.666C77.1933 67.666 76.7794 67.666 76.3647 67.666C76.1844 67.666 76.0115 67.8193 76.0198 67.9983C76.0281 68.179 76.1716 68.3305 76.3647 68.3305Z" fill="#0A5840"/>
<path d="M434.075 60.2211C445.422 52.1334 447.814 36.7153 439.419 25.7839C431.023 14.8526 415.02 12.5473 403.673 20.6351C392.327 28.7229 389.935 44.1409 398.33 55.0723C406.725 66.0037 422.729 68.3089 434.075 60.2211Z" fill="#0A5840"/>
<path opacity="0.3" d="M434.075 60.2211C445.422 52.1334 447.814 36.7153 439.419 25.7839C431.023 14.8526 415.02 12.5473 403.673 20.6351C392.327 28.7229 389.935 44.1409 398.33 55.0723C406.725 66.0037 422.729 68.3089 434.075 60.2211Z" fill="black"/>
<path d="M435.318 56.7424C425.19 66.2135 409.011 65.9822 399.18 56.225C389.349 46.4678 389.589 30.8808 399.717 21.4097C409.845 11.9387 426.024 12.1699 435.855 21.9271C445.686 31.6835 445.446 47.2713 435.318 56.7424Z" fill="#0A5840"/>
<path d="M434.511 51.3355C441.544 42.2959 439.639 29.475 430.256 22.6992C420.873 15.9235 407.565 17.7587 400.532 26.7983C393.498 35.8379 395.403 48.6589 404.786 55.4346C414.17 62.2104 427.478 60.3752 434.511 51.3355Z" fill="white"/>
<path d="M407.319 53.5974L410.14 49.5715C410.223 49.6255 410.305 49.6778 410.389 49.7301L407.672 53.8206C407.553 53.748 407.436 53.6727 407.319 53.5974ZM401.689 47.7269C401.619 47.6091 401.551 47.4895 401.485 47.369L405.932 45.0823C405.978 45.1664 406.026 45.2506 406.075 45.333L401.689 47.7269ZM415.485 56.4989L416.038 51.6721L416.351 51.7031L415.891 56.5388C415.755 56.5264 415.62 56.5131 415.485 56.4989ZM399.33 39.6583C399.325 39.5237 399.322 39.3899 399.32 39.2552L404.362 39.2074L404.367 39.5006L399.33 39.6583ZM424.111 55.4101L422.276 50.8872L422.56 50.7773L424.57 55.2311L424.45 55.2789C424.368 55.3117 424.24 55.3613 424.111 55.4101ZM401.135 31.4622C401.195 31.3399 401.258 31.2194 401.321 31.0989L405.811 33.3076C405.765 33.3927 405.721 33.4795 405.678 33.5664L401.135 31.4622ZM427.46 47.3636C427.523 47.2945 427.584 47.2245 427.644 47.1537L431.537 50.2395C431.445 50.3476 431.351 50.453 431.257 50.5585L427.46 47.3636ZM409.681 28.907L406.69 24.9981L407.018 24.7704L409.938 28.7289L409.681 28.907ZM430.309 41.9725L430.376 41.6837L435.307 42.699C435.278 42.8292 435.248 42.9586 435.216 43.0879L430.309 41.9725ZM415.491 26.5663L414.713 21.7687C414.847 21.7483 414.982 21.7297 415.116 21.7129L415.804 26.5229L415.491 26.5663ZM430.239 35.9142C430.214 35.8229 430.189 35.7326 430.161 35.6413L435.009 34.307C435.048 34.439 435.085 34.5719 435.121 34.7039L430.239 35.9142ZM421.756 27.0987L423.384 22.5023C423.52 22.5475 423.656 22.5936 423.792 22.6423L422.028 27.1918C421.938 27.159 421.847 27.128 421.756 27.0987ZM427.256 30.5806L427.052 30.368L430.71 27.0261C430.807 27.1235 430.902 27.2228 430.995 27.322L427.256 30.5806Z" fill="black"/>
<path d="M417.234 40.3253C417.214 40.3253 417.193 40.3244 417.171 40.3218C417.032 40.3032 416.908 40.2234 416.837 40.1056L411.77 31.7074C411.642 31.4957 411.716 31.2246 411.937 31.1014C412.154 30.9783 412.437 31.0492 412.566 31.2618L417.337 39.17L425.113 31.8811C425.294 31.711 425.587 31.7145 425.764 31.8899C425.94 32.0654 425.937 32.3462 425.754 32.5163L417.556 40.2004C417.468 40.281 417.353 40.3253 417.234 40.3253Z" fill="black"/>
<path d="M418.711 40.2568C418.134 40.8912 417.132 40.9541 416.474 40.3986C415.815 39.8422 415.75 38.8774 416.327 38.243C416.904 37.6087 417.906 37.5458 418.564 38.1013C419.223 38.6577 419.289 39.6225 418.711 40.2568Z" fill="black"/>
<path opacity="0.3" d="M403.346 25.9301C411.759 18.0617 425.202 18.254 433.369 26.3598C435.376 28.3514 436.871 30.6372 437.87 33.0666C436.923 30.0233 435.238 27.1438 432.782 24.7074C424.615 16.6016 411.173 16.4094 402.759 24.2777C396.413 30.2129 394.746 39.0372 397.811 46.4944C395.61 39.4164 397.462 31.4329 403.346 25.9301Z" fill="black"/>
<path d="M64.1885 347.114C64.1885 346.739 60.1357 309.153 69.0884 277.18L70.2333 277.467C61.3496 309.241 65.3335 346.63 65.3335 347.004L64.1885 347.114Z" fill="#263238"/>
<path d="M73.8998 285.285C73.8998 285.285 61.5702 307.343 64.0321 333.339C64.0321 333.339 69.16 301.398 73.8998 285.285Z" fill="#0A5840"/>
<path d="M49.3867 274.375C49.3867 274.375 67.3831 298.76 64.2692 329.895C64.2462 329.927 57.2515 290.775 49.3867 274.375Z" fill="#0A5840"/>
<path d="M64.1889 337.405C64.1889 337.405 68.0808 305.211 47.4065 295.914C47.3485 295.914 58.3731 303.766 64.1889 337.405Z" fill="#0A5840"/>
<path d="M66.3062 277.673L65.9282 277.74C65.3865 277.834 65.0279 278.333 65.1254 278.855C65.1318 278.888 65.1391 278.921 65.1493 278.953L65.6072 280.553C65.7525 281.064 66.2997 281.365 66.8304 281.225C66.995 281.182 67.1449 281.098 67.2672 280.983L67.8852 280.41C68.2889 280.04 68.9262 280.057 69.3097 280.445C69.4026 280.54 69.4752 280.652 69.5221 280.773L70.3581 282.979C70.5438 283.478 71.114 283.737 71.6318 283.559C71.6943 283.536 71.755 283.509 71.812 283.476L73.735 282.373C74.2068 282.101 74.3603 281.512 74.078 281.058C74.0394 280.996 73.9934 280.937 73.941 280.885L73.632 280.576C73.2522 280.184 73.2743 279.57 73.6807 279.204C73.8573 279.045 74.0881 278.952 74.33 278.944H76.0019C76.5518 278.931 76.9868 278.492 76.974 277.962C76.973 277.921 76.9694 277.88 76.9629 277.841L76.7799 276.462C76.7109 275.937 76.2125 275.564 75.6662 275.631C75.5559 275.644 75.4483 275.676 75.348 275.723L75.2331 275.778C74.7282 276.003 74.1295 275.79 73.8959 275.303C73.7773 275.056 73.7727 274.772 73.8821 274.52L74.4312 273.307C74.65 272.822 74.4192 272.256 73.9143 272.044C73.827 272.008 73.735 271.983 73.6412 271.973L71.8663 271.742C71.3228 271.662 70.8151 272.022 70.7324 272.547C70.7259 272.587 70.7223 272.627 70.7213 272.668C70.6947 273.203 70.2229 273.617 69.6674 273.591C69.3262 273.575 69.0154 273.394 68.8444 273.109L68.6154 272.713C68.3386 272.247 67.7233 272.086 67.2405 272.353C67.1752 272.389 67.1136 272.432 67.0584 272.481L65.7415 273.672C65.3369 274.04 65.3185 274.655 65.7001 275.044C65.713 275.058 65.7268 275.071 65.7415 275.084L66.7945 276.022C67.1982 276.391 67.2138 277.005 66.8304 277.394C66.6924 277.535 66.5076 277.633 66.3062 277.673Z" fill="#0A5840"/>
<path opacity="0.7" d="M66.3062 277.673L65.9282 277.74C65.3865 277.834 65.0279 278.333 65.1254 278.855C65.1318 278.888 65.1391 278.921 65.1493 278.953L65.6072 280.553C65.7525 281.064 66.2997 281.365 66.8304 281.225C66.995 281.182 67.1449 281.098 67.2672 280.983L67.8852 280.41C68.2889 280.04 68.9262 280.057 69.3097 280.445C69.4026 280.54 69.4752 280.652 69.5221 280.773L70.3581 282.979C70.5438 283.478 71.114 283.737 71.6318 283.559C71.6943 283.536 71.755 283.509 71.812 283.476L73.735 282.373C74.2068 282.101 74.3603 281.512 74.078 281.058C74.0394 280.996 73.9934 280.937 73.941 280.885L73.632 280.576C73.2522 280.184 73.2743 279.57 73.6807 279.204C73.8573 279.045 74.0881 278.952 74.33 278.944H76.0019C76.5518 278.931 76.9868 278.492 76.974 277.962C76.973 277.921 76.9694 277.88 76.9629 277.841L76.7799 276.462C76.7109 275.937 76.2125 275.564 75.6662 275.631C75.5559 275.644 75.4483 275.676 75.348 275.723L75.2331 275.778C74.7282 276.003 74.1295 275.79 73.8959 275.303C73.7773 275.056 73.7727 274.772 73.8821 274.52L74.4312 273.307C74.65 272.822 74.4192 272.256 73.9143 272.044C73.827 272.008 73.735 271.983 73.6412 271.973L71.8663 271.742C71.3228 271.662 70.8151 272.022 70.7324 272.547C70.7259 272.587 70.7223 272.627 70.7213 272.668C70.6947 273.203 70.2229 273.617 69.6674 273.591C69.3262 273.575 69.0154 273.394 68.8444 273.109L68.6154 272.713C68.3386 272.247 67.7233 272.086 67.2405 272.353C67.1752 272.389 67.1136 272.432 67.0584 272.481L65.7415 273.672C65.3369 274.04 65.3185 274.655 65.7001 275.044C65.713 275.058 65.7268 275.071 65.7415 275.084L66.7945 276.022C67.1982 276.391 67.2138 277.005 66.8304 277.394C66.6924 277.535 66.5076 277.633 66.3062 277.673Z" fill="white"/>
<path d="M67.9544 329.12L69.3973 318.367H56.8038L58.2348 329.12C52.2139 331.118 48.1694 336.573 48.1602 342.708C48.2724 346.033 49.1065 349.297 50.6101 352.292C52.0668 355.235 55.1595 357.101 58.5438 357.078H67.7024C71.0849 357.105 74.1758 355.237 75.6242 352.292C77.1361 349.3 77.9748 346.034 78.0851 342.708C78.0861 336.554 74.0093 331.085 67.9544 329.12Z" fill="#0A5840"/>
<path opacity="0.7" d="M67.9544 329.12L69.3973 318.367H56.8038L58.2348 329.12C52.2139 331.118 48.1694 336.573 48.1602 342.708C48.2724 346.033 49.1065 349.297 50.6101 352.292C52.0668 355.235 55.1595 357.101 58.5438 357.078H67.7024C71.0849 357.105 74.1758 355.237 75.6242 352.292C77.1361 349.3 77.9748 346.034 78.0851 342.708C78.0861 336.554 74.0093 331.085 67.9544 329.12Z" fill="white"/>
<path d="M550.561 236.077L543.961 235.663C543.961 235.663 539.334 202.99 538.892 201.687C538.284 199.314 534.58 181.095 533.117 176.445L533.824 176.339C533.039 173.945 533.707 171.359 536.27 170.549C538.834 169.738 542.349 171.07 543.145 173.443C544.795 178.268 547.938 196.602 548.41 198.802C548.414 198.853 548.414 198.904 548.41 198.956C549.912 208.518 550.561 236.077 550.561 236.077Z" fill="#B97964"/>
<path d="M550.559 236.077C550.559 239.048 547.81 240.583 545.825 240.786H535.355L534.746 240.641C534.563 240.593 534.455 240.407 534.504 240.227C534.522 240.163 534.558 240.106 534.608 240.062L536.494 238.576C538.576 236.926 541.405 236.386 543.959 235.682L550.559 236.077Z" fill="#B97964"/>
<path d="M537.161 160.511C536.206 160.962 535.49 161.096 534.806 161.775C527.813 168.724 533.929 186.68 533.929 186.68L547.1 185.484C547.1 185.484 548.406 170.181 546.914 165.404C545.333 160.396 542.288 157.221 537.161 160.511Z" fill="#0A5840"/>
<path opacity="0.2" d="M547.237 183.671L540.367 176.033L547.099 185.493L547.237 183.671Z" fill="black"/>
<path d="M581.395 335.873L582.559 347.633L591.74 348.602L592.672 335.955L581.395 335.873Z" fill="#E4897B"/>
<path d="M580.575 345.581C580.555 345.117 580.976 344.749 581.447 344.766L584.239 344.87C584.944 344.88 585.663 346.144 586.072 346.708C587.836 349.144 589.2 348.251 591.186 346.009C592.432 345.883 592.746 347.29 592.843 347.667L595.057 356.024C595.25 356.722 594.83 357.442 594.119 357.631C593.993 357.665 593.863 357.68 593.731 357.677C589.946 357.626 588.155 357.602 583.444 357.539L569.037 357.346C565.109 357.294 564.35 353.394 565.972 353.056C573.269 351.574 578.449 349.54 580.727 347.491C581.046 347.22 580.61 346.433 580.575 345.581Z" fill="#0A5840"/>
<path d="M581.85 350.25C581.772 350.25 581.696 350.212 581.653 350.143C581.12 349.286 580.201 348.685 579.191 348.537C579.066 348.52 578.98 348.406 578.999 348.285C579.018 348.164 579.131 348.084 579.261 348.1C580.403 348.267 581.445 348.946 582.047 349.914C582.112 350.02 582.077 350.155 581.968 350.219C581.931 350.24 581.891 350.25 581.85 350.25Z" fill="white"/>
<path d="M579.783 351.411C579.705 351.411 579.629 351.373 579.586 351.304C579.054 350.448 578.134 349.848 577.125 349.698C576.999 349.679 576.913 349.567 576.932 349.445C576.952 349.324 577.072 349.243 577.194 349.26C578.338 349.429 579.379 350.109 579.98 351.076C580.044 351.181 580.009 351.317 579.901 351.38C579.864 351.401 579.824 351.411 579.783 351.411Z" fill="white"/>
<path d="M577.236 352.579C577.158 352.579 577.082 352.541 577.038 352.472C576.507 351.615 575.586 351.015 574.578 350.866C574.452 350.848 574.367 350.735 574.385 350.613C574.405 350.493 574.527 350.41 574.647 350.428C575.79 350.597 576.831 351.276 577.433 352.244C577.497 352.349 577.462 352.485 577.354 352.548C577.317 352.57 577.277 352.579 577.236 352.579Z" fill="white"/>
<path d="M539.049 173.977C542.486 179.835 549.853 187.68 569.497 199.751L593.719 181.418C585.576 171.855 581.362 166.4 571.422 145.76C570.477 143.72 567.772 141.304 565.558 140.766C563.725 140.348 561.8 140.635 560.176 141.567C558.379 142.599 556.424 143.786 554.518 145.098C550.176 147.916 546.046 151.037 542.162 154.439C539.451 156.899 536.74 159.718 534.805 161.782C534.805 161.782 534.805 162.11 534.962 162.873C535.644 166.782 537.027 170.542 539.049 173.977Z" fill="#0A5840"/>
<path d="M524.147 118.845C519.976 123.208 519.648 128.144 520.492 131.465C522.155 135.826 524.503 138.637 526.774 142.721L532.85 113.482C530.119 114.709 528.699 114.438 524.147 118.845Z" fill="#263238"/>
<path d="M529.743 115.069C534.03 111.765 539.337 113.226 542.498 114.365C546.081 116.144 548.698 119.347 549.687 123.166C550.527 126.756 551.546 131.108 549.753 133.503C548.757 134.881 547.219 135.793 545.516 136.015L523.48 123.911C524.773 120.5 526.928 117.456 529.743 115.069Z" fill="#263238"/>
<path d="M549.873 163.781C551.874 164.253 552.043 160.492 553.238 158.838C556.569 150.554 553.958 145.457 553.958 145.457C550.78 144.492 549.99 143.244 548.182 139C548.123 138.88 548.055 138.764 547.98 138.654C547.643 138.146 547.156 137.754 546.584 137.53C545.037 136.876 543.243 137.578 542.578 139.099C542.577 139.101 542.577 139.101 542.576 139.103L539.055 142.99C539.08 143.056 539.106 143.121 539.135 143.195C540.476 145.297 541.586 146.886 542.397 148.175C542.464 148.347 542.598 148.493 542.687 148.647C542.754 148.819 542.875 148.979 542.972 149.131C544.001 150.948 542.544 153.472 541.708 154.85C541.231 155.733 543.101 162.205 549.873 163.781Z" fill="#B97964"/>
<path opacity="0.2" d="M537.385 143.56C537.395 143.484 537.394 143.407 537.379 143.332L541.984 140.751C543.148 139.541 545.081 139.467 546.308 140.586C546.749 140.99 547.059 141.513 547.199 142.091L542.819 148.914C542.819 148.914 539.582 144.149 539.538 144.149C539.495 144.149 537.385 143.56 537.385 143.56Z" fill="black"/>
<path d="M547.207 124.861C548.958 133.207 549.886 136.686 546.899 142.145C542.395 150.345 531.779 150.936 527.527 143.343C523.76 136.491 521.492 124.029 528.623 118.334C535.753 112.637 545.447 116.507 547.207 124.861Z" fill="#B97964"/>
<path d="M552.636 131.082C552.194 133.076 550.931 134.648 549.575 135.485C547.535 136.745 545.254 133.642 545.302 131.233C545.345 129.064 547.101 127.069 549.398 126.795C551.661 126.525 553.141 128.802 552.636 131.082Z" fill="#B97964"/>
<path opacity="0.2" d="M547.813 132.381C547.709 132.381 547.615 132.313 547.589 132.212C547.376 131.362 547.518 130.441 547.979 129.684C548.443 128.926 549.208 128.363 550.079 128.139C550.201 128.111 550.327 128.177 550.36 128.296C550.393 128.414 550.321 128.536 550.197 128.567C549.442 128.761 548.778 129.25 548.377 129.909C547.974 130.567 547.851 131.369 548.037 132.108C548.067 132.226 547.991 132.347 547.867 132.375C547.849 132.379 547.83 132.381 547.813 132.381Z" fill="black"/>
<path d="M536.96 131.028C537.202 131.905 536.954 132.769 536.407 132.958C535.859 133.148 535.22 132.59 534.979 131.713C534.737 130.837 534.986 129.972 535.533 129.783C536.079 129.594 536.718 130.151 536.96 131.028Z" fill="#263238"/>
<path d="M528.69 133.681C528.922 134.531 528.668 135.374 528.123 135.563C527.577 135.751 526.946 135.215 526.715 134.365C526.483 133.514 526.737 132.672 527.282 132.483C527.827 132.294 528.458 132.831 528.69 133.681Z" fill="#263238"/>
<path d="M537.722 127.461C537.619 127.507 537.502 127.512 537.394 127.465C535.723 126.719 534.403 127.598 534.389 127.608C534.193 127.74 533.936 127.691 533.818 127.493C533.699 127.295 533.762 127.026 533.959 126.891C534.028 126.845 535.683 125.739 537.757 126.666C537.964 126.758 538.051 127.012 537.951 127.233C537.902 127.338 537.819 127.418 537.722 127.461Z" fill="#263238"/>
<path d="M524.574 130.487C524.48 130.487 524.39 130.448 524.323 130.371C524.186 130.211 524.203 129.946 524.359 129.779C525.93 128.111 527.61 128.448 527.682 128.465C527.882 128.508 527.998 128.726 527.942 128.953C527.886 129.18 527.677 129.328 527.478 129.286C527.412 129.272 526.105 129.032 524.856 130.359C524.775 130.445 524.672 130.488 524.574 130.487Z" fill="#263238"/>
<path d="M530.812 132.562C530.812 132.562 530.502 136.042 529.646 138.425C529.497 138.841 529.817 139.276 530.265 139.29C531.421 139.325 532.521 138.598 532.521 138.598L530.812 132.562Z" fill="#A24E3F"/>
<path d="M535.856 129.723L533.789 129.903C533.789 129.903 535.298 130.959 535.856 129.723Z" fill="#263238"/>
<path d="M527.485 132.439L525.418 132.619C525.418 132.619 526.926 133.676 527.485 132.439Z" fill="#263238"/>
<path d="M533.605 140.751C534.492 141.357 535.804 142.693 535.804 142.693C535.952 142.597 536.098 142.501 536.239 142.398C538.194 141.048 538.654 139.795 538.57 138.815C538.522 138.279 538.303 137.823 538.08 137.482C537.826 137.086 537.551 136.861 537.551 136.861C536.944 138.178 535.219 139.572 534.265 140.28C533.869 140.581 533.605 140.751 533.605 140.751Z" fill="#263238"/>
<path d="M534.266 140.279L534.93 140.836C536.768 139.56 537.891 138.422 538.08 137.482C537.826 137.086 537.551 136.861 537.551 136.861C536.945 138.177 535.218 139.572 534.266 140.279Z" fill="white"/>
<path d="M536.237 142.391C538.192 141.041 538.652 139.788 538.567 138.809C537.919 139.293 537.191 139.948 536.695 140.725C536.312 141.319 536.217 141.893 536.237 142.391Z" fill="#DE5753"/>
<path d="M544.734 127.577C544.734 127.577 538.604 123.303 537.369 118.703C537.369 118.703 519.096 119.03 524.126 133.295C524.126 133.295 517.404 121.516 531.13 116.108C544.857 110.699 552.025 128.113 547.06 135.937C547.02 135.878 548.535 130.265 544.734 127.577Z" fill="#263238"/>
<path d="M557.311 112.981C557.863 116.836 555.111 120.437 551.163 121.024C547.215 121.61 543.567 118.961 543.016 115.105C542.497 111.482 544.903 108.038 548.556 107.178C552.637 106.415 556.545 109.004 557.311 112.981Z" fill="#263238"/>
<path d="M525.093 119.433C523.632 121.624 522.917 124.204 523.051 126.799C523.474 128.605 526.299 129.318 526.299 129.318L528.456 124.656L529.265 128.116C534.18 126.391 536.483 123.095 537.327 118.921L533.37 114.686C533.37 114.686 526.434 117.625 525.093 119.433Z" fill="#263238"/>
<path d="M550.289 118.805C551.181 120.661 552.787 122.172 554.719 122.971C553.847 123.252 552.884 123.252 552.018 122.97C552.219 123.669 552.544 124.332 552.975 124.921C550.547 123.745 548.736 121.435 548.199 118.83L550.289 118.805Z" fill="#263238"/>
<path d="M567.016 198.595L592.278 179.691L567.016 198.595Z" fill="#0A5840"/>
<path d="M639.723 323.786L647.918 332.435L655.923 327.895L648.845 317.291L639.723 323.786Z" fill="#E4897B"/>
<path d="M645.083 332.019C644.781 331.661 644.886 331.118 645.272 330.85L647.554 329.267C648.12 328.854 649.473 329.429 650.147 329.634C653.054 330.516 653.585 328.993 653.778 326.028C654.689 325.186 655.809 326.114 656.119 326.357L663.044 331.675C663.629 332.115 663.741 332.937 663.293 333.511C663.213 333.613 663.119 333.703 663.012 333.779C659.974 335.996 658.536 337.046 654.755 339.807L643.189 348.249C640.037 350.551 637.022 347.906 638.103 346.67C642.983 341.138 645.843 336.432 646.385 333.445C646.471 333.041 645.637 332.675 645.083 332.019Z" fill="#0A5840"/>
<path d="M645.706 335.221C645.626 335.221 645.548 335.18 645.506 335.107C645.444 335.001 645.483 334.866 645.594 334.806C646.607 334.258 647.854 334.176 648.932 334.587C649.051 334.632 649.108 334.761 649.062 334.874C649.015 334.988 648.883 335.043 648.764 334.999C647.814 334.638 646.713 334.708 645.819 335.192C645.784 335.211 645.745 335.221 645.706 335.221Z" fill="white"/>
<path d="M644.781 337.366C644.701 337.366 644.622 337.325 644.58 337.252C644.518 337.146 644.557 337.011 644.668 336.951C645.682 336.402 646.929 336.321 648.007 336.731C648.125 336.777 648.182 336.905 648.136 337.018C648.089 337.133 647.958 337.187 647.838 337.143C646.888 336.782 645.787 336.855 644.894 337.337C644.858 337.356 644.819 337.366 644.781 337.366Z" fill="white"/>
<path d="M643.476 339.82C643.396 339.82 643.318 339.779 643.275 339.707C643.214 339.6 643.252 339.466 643.364 339.405C644.374 338.859 645.623 338.775 646.702 339.186C646.82 339.231 646.878 339.358 646.832 339.473C646.785 339.586 646.652 339.642 646.534 339.598C645.584 339.236 644.481 339.308 643.589 339.792C643.553 339.81 643.514 339.82 643.476 339.82Z" fill="white"/>
<path d="M569.496 199.754C569.496 199.754 576.814 289.734 576.872 290.236L581.45 342.901H593.333C593.333 342.901 593.414 339.869 594.033 335.874C599.455 300.857 593.895 289.54 593.895 289.54C593.895 289.54 598.669 221.937 600.338 216.841C600.504 216.311 594.817 177.57 569.496 199.754Z" fill="#263238"/>
<path d="M569.316 199.639L569.645 200.166C574.542 206.55 583.823 213.35 588.672 219.181L590.36 222.861C590.36 222.861 627.862 197.59 604.912 186.723C603.958 186.271 594.741 181.552 594.741 181.552C588.66 180.114 569.316 199.639 569.316 199.639Z" fill="#263238"/>
<path d="M619.259 225.087C619.406 236.753 620.782 267.028 622.423 278.578C622.423 278.578 631.841 285.722 636.683 292.901L651.377 320.746L641.988 326.729L611.789 298.019C604.985 291.37 602.516 286.81 600.346 280.962C595.032 266.681 593.997 249.312 591.66 235.369C590.579 228.904 585.836 207.898 587.486 201.597C589.706 193.067 592.178 179.113 602.363 185.433C612.353 189.88 618.257 192.645 619.259 225.087Z" fill="#263238"/>
<path opacity="0.2" d="M595.821 263.632L587.137 209.131L577.234 205.949L584.965 212.892L595.821 263.632Z" fill="black"/>
<path opacity="0.2" d="M547.898 176.61C547.898 176.61 564.351 184.327 569.585 181.469C574.82 178.613 573.858 168.965 573.764 167.092C573.672 165.252 573.418 163.253 573.418 163.253L574.655 163.107L572.069 148.428C572.069 148.428 567.881 175.156 567.011 175.156C566.142 175.157 547.898 176.61 547.898 176.61Z" fill="black"/>
<path d="M571.06 153.985C572.376 159.447 572.092 169.704 571.914 173.786C571.86 175.707 571.095 177.542 569.763 178.948C568.133 180.618 566.382 181.475 560.924 180C556.259 178.739 535.617 173.47 535.617 173.47L536.932 168.348C536.932 168.348 547.61 169.663 561.489 171.188C561.324 164.589 561.582 155.616 562.151 153.464C563.104 149.932 569.391 147.067 571.06 153.985Z" fill="#B97964"/>
<path d="M561.267 141.823C558.32 143.945 557.957 162.547 557.957 162.547H572.401C572.401 162.547 573.005 149.59 571.728 146.454C569.744 141.389 564.567 139.439 561.267 141.823Z" fill="#0A5840"/>
<path d="M539.051 168.366L533.862 165.868C533.285 165.595 532.662 165.43 532.023 165.381L528.867 165.163C527.604 165.081 526.512 166.019 526.428 167.26C526.428 167.267 526.427 167.275 526.427 167.282L526.271 170.02C526.231 171.106 526.99 172.064 528.072 172.294L531.286 172.975C531.286 172.975 536.84 175.157 538.501 172.445L539.051 168.366Z" fill="#B97964"/>
<path d="M527.638 168.183C527.545 167.633 525.685 167.319 524.558 167.155C523.43 166.99 520.379 166.875 519.739 166.355C519.099 165.836 519.205 164.739 519.845 164.75C520.485 164.761 522.518 164.733 524.122 164.875C525.726 165.017 528.814 165.031 529.481 165.198C530.148 165.366 527.638 168.183 527.638 168.183Z" fill="#B97964"/>
<path d="M429.154 200.804L445.276 209.379L462.35 186.316L469.122 198.104C469.122 198.104 452.798 221.683 446.675 222.02C440.553 222.357 424.504 205.935 424.504 205.935L429.154 200.804Z" fill="#E4897B"/>
<path d="M429.996 201.587C429.996 201.587 431.078 198.684 429.922 196.39C428.765 194.095 428.476 191.967 427.493 190.318C426.511 188.669 426.005 191.188 426.017 192.581C426.028 193.974 426.028 195.552 424.941 195.391C423.854 195.231 416.456 189.554 414.922 189.496C413.389 189.438 414.287 190.718 414.287 190.718C414.287 190.718 412.452 189.385 411.706 189.943C411.512 190.087 411.305 190.726 412.043 191.459C413.702 193.109 417.369 196.4 417.369 196.4C417.162 196.206 412.335 192.457 411.536 191.987C410.491 191.372 409.674 191.595 409.323 192.189C408.825 193.036 414.646 197.882 414.743 198.251C414.743 198.251 411.488 195.353 410.252 195.754C409.016 196.153 410.961 198.086 413.013 199.475C414.893 200.749 418.235 203.721 420.278 204.838C422.794 206.213 424.804 206.592 426.999 205.056C429.194 203.518 429.996 201.587 429.996 201.587Z" fill="#E4897B"/>
<path opacity="0.3" d="M418.718 194.504C418.66 194.504 418.604 194.485 418.559 194.443C417.235 193.226 415.838 192.055 414.407 190.961C414.308 190.885 414.291 190.746 414.37 190.649C414.45 190.554 414.595 190.54 414.693 190.613C416.134 191.715 417.542 192.895 418.877 194.122C418.969 194.207 418.971 194.347 418.884 194.436C418.838 194.481 418.777 194.504 418.718 194.504Z" fill="black"/>
<path opacity="0.3" d="M415.957 199.58C415.927 199.58 415.896 199.574 415.866 199.562C415.749 199.514 415.695 199.384 415.746 199.271C416.696 197.134 418.334 195.255 420.357 193.982C420.462 193.914 420.606 193.944 420.676 194.046C420.746 194.148 420.715 194.285 420.609 194.352C418.662 195.579 417.084 197.388 416.169 199.446C416.131 199.53 416.045 199.58 415.957 199.58Z" fill="black"/>
<path opacity="0.3" d="M425.793 201.779C425.74 201.779 425.687 201.761 425.644 201.726C424.872 201.09 424.332 200.172 424.16 199.206C423.987 198.241 424.179 197.202 424.686 196.353C424.749 196.246 424.89 196.211 425 196.272C425.11 196.333 425.147 196.468 425.085 196.575C424.631 197.334 424.458 198.266 424.612 199.132C424.767 199.997 425.251 200.819 425.942 201.39C426.039 201.469 426.05 201.609 425.967 201.702C425.923 201.753 425.857 201.779 425.793 201.779Z" fill="black"/>
<path d="M485.877 172.944C486.048 174.51 485.974 175.889 485.429 176.59C484.863 177.311 483.9 177.802 482.855 178.141C483.784 179.858 486.122 181.243 486.122 181.243H492.677C492.677 181.243 495.64 181.878 496.766 181.265C497.695 180.76 498.676 180.285 499.56 179.71C500.008 179.42 500.429 179.073 500.846 178.714C499.467 177.938 498.205 176.884 497.764 175.5C496.62 171.927 497.849 159.734 497.849 159.734L484.017 165.213C484.017 165.213 484.125 165.512 484.285 166.017C484.723 167.425 485.61 170.432 485.877 172.944Z" fill="#E4897B"/>
<path d="M477.57 139.691C477.949 139.226 476.904 128.786 495.56 133.981C509.414 137.839 504.18 148.301 504.18 148.301L488.338 137.277L477.57 139.691Z" fill="#263238"/>
<path opacity="0.2" d="M495.551 165.917C495.551 165.917 492.58 171.869 485.749 171.663C485.481 169.151 484.595 166.144 484.156 164.732C484.669 164.547 485 164.434 485 164.434L495.551 165.917Z" fill="black"/>
<path d="M477.935 137.551C477.935 137.551 473.908 148.524 479.272 154.018C484.637 159.512 488.812 138.473 488.812 138.473L477.935 137.551Z" fill="#263238"/>
<path d="M495.567 166.33C491.349 169.397 486.571 170.145 482.552 168.053C479.967 166.711 477.852 164.419 476.838 161.496C476.7 161.114 476.588 160.714 476.49 160.307C474.796 152.836 476.22 140.575 484.699 137.444C490.729 135.17 497.546 138.037 499.904 143.857C500.586 145.507 500.838 147.294 500.665 149.069C499.994 157.316 500.494 162.748 495.567 166.33Z" fill="#E4897B"/>
<path d="M489.059 151.216C489.104 152.077 488.557 152.775 487.959 152.763C487.36 152.75 486.91 152.032 486.922 151.167C486.934 150.302 487.439 149.607 488.023 149.619C488.607 149.633 489.071 150.338 489.059 151.216Z" fill="#263238"/>
<path d="M480.462 151.215C480.507 152.077 479.945 152.775 479.361 152.763C478.777 152.75 478.312 152.032 478.324 151.167C478.336 150.303 478.841 149.607 479.425 149.619C480.009 149.633 480.475 150.392 480.462 151.215Z" fill="#263238"/>
<path d="M482.191 151.357C481.317 153.4 480.153 155.318 478.734 157.054C479.693 157.743 480.918 157.986 482.081 157.722L482.191 151.357Z" fill="#DE5753"/>
<path d="M476.828 147.668C476.961 147.742 477.124 147.742 477.257 147.669C478.141 147.133 479.234 147.031 480.208 147.392C480.41 147.488 480.655 147.408 480.754 147.213C480.854 147.018 480.771 146.783 480.569 146.687L480.567 146.686C479.347 146.199 477.959 146.311 476.842 146.988C476.645 147.094 476.575 147.333 476.685 147.523C476.687 147.526 476.688 147.529 476.689 147.531C476.728 147.584 476.775 147.63 476.828 147.668Z" fill="#263238"/>
<path d="M489.216 148.119C489.299 148.118 489.379 148.092 489.446 148.045C489.598 147.885 489.586 147.637 489.42 147.49C489.418 147.488 489.415 147.486 489.414 147.483C488.444 146.614 487.096 146.255 485.8 146.519C485.583 146.576 485.455 146.792 485.514 147.001V147.002C485.579 147.209 485.799 147.329 486.016 147.278C487.045 147.098 488.102 147.397 488.865 148.085C488.973 148.145 489.101 148.158 489.216 148.119Z" fill="#263238"/>
<path d="M494.58 138.637L493.863 142.244C495.057 142.96 495.709 144.354 495.038 145.75C493.604 148.731 495.073 153.593 497.377 155.644C497.377 155.644 497.546 154.323 498.685 154.713C499.823 155.103 498.726 160.658 497.519 164.073C497.519 164.073 500.158 162.374 502.6 155.254C504.858 148.67 505.473 143.099 504.225 140.414L494.58 138.637Z" fill="#263238"/>
<path d="M504.276 155.926C503.285 157.778 501.572 159.177 499.513 159.815C496.78 160.641 495.324 158.304 496.001 155.771C496.625 153.525 498.786 150.312 501.572 150.618C504.357 150.924 505.462 153.637 504.276 155.926Z" fill="#E4897B"/>
<path d="M477.937 137.552C477.461 138.412 478.976 141.579 482.43 143.102C485.885 144.625 482.21 141.252 482.21 141.252C482.21 141.252 489.154 143.549 489.342 142.69C489.53 141.832 487.385 140.585 487.385 140.585C487.385 140.585 493.166 143.205 497.854 142.09C502.541 140.973 493.999 133.499 488.552 133.651C483.105 133.801 479.379 134.949 477.937 137.552Z" fill="#263238"/>
<path opacity="0.1" d="M498.062 156.405L497.609 156.326C497.885 154.869 498.851 153.566 500.192 152.84C500.977 152.415 501.729 152.396 502.201 152.792L501.899 153.126C501.524 152.812 500.887 152.971 500.417 153.227C499.193 153.888 498.313 155.076 498.062 156.405Z" fill="black"/>
<path d="M484.989 160.666C485.685 160.68 486.377 160.541 486.988 160.214C487.719 159.822 488.276 159.192 488.7 158.508C488.928 158.141 488.332 157.806 488.104 158.172C487.738 158.763 487.27 159.302 486.639 159.64C486.126 159.914 485.568 160.013 484.989 160.001C484.545 159.992 484.545 160.657 484.989 160.666Z" fill="#263238"/>
<path d="M519.594 357.246H523.209L516.528 282.018H512.914L519.594 357.246Z" fill="#0A5840"/>
<path opacity="0.6" d="M519.594 357.246H523.209L516.528 282.018H512.914L519.594 357.246Z" fill="white"/>
<path d="M482.625 357.246H479.012L485.692 282.018H489.305L482.625 357.246Z" fill="#0A5840"/>
<path opacity="0.6" d="M482.625 357.246H479.012L485.692 282.018H489.305L482.625 357.246Z" fill="white"/>
<path d="M504.207 282.029H430.285C433.394 274.611 439.049 270.066 445.161 270.066H499.232L504.207 282.029Z" fill="#263238"/>
<path d="M470.219 357.246H473.833L467.152 282.018H463.539L470.219 357.246Z" fill="#0A5840"/>
<path opacity="0.6" d="M470.219 357.246H473.833L467.152 282.018H463.539L470.219 357.246Z" fill="white"/>
<path d="M433.255 357.246H429.641L436.322 282.018H439.935L433.255 357.246Z" fill="#0A5840"/>
<path opacity="0.6" d="M433.255 357.246H429.641L436.322 282.018H439.935L433.255 357.246Z" fill="white"/>
<path d="M521.332 282.029H480.703C484.241 274.611 490.666 270.066 497.621 270.066H512C518.954 270.066 522.379 273.929 521.332 282.029Z" fill="#263238"/>
<path opacity="0.5" d="M521.332 282.029H480.703C484.241 274.611 490.666 270.066 497.621 270.066H512C518.954 270.066 522.379 273.929 521.332 282.029Z" fill="black"/>
<path d="M419.207 329.821L416.244 348.02L409.429 347.127L407.332 328.711L419.207 329.821Z" fill="#E4897B"/>
<path d="M405.845 342.93C405.738 341.814 405.821 340.883 407.177 340.814L409.097 340.719C409.823 340.719 410.342 341.147 410.924 341.505C415.325 344.21 417.13 340.717 418.839 340.719C421.033 340.717 419.622 346.916 419.726 347.242L422.124 354.436C422.333 355.037 421.911 356.334 421.182 356.506C421.053 356.537 420.918 356.551 420.783 356.549C416.888 356.549 415.044 356.549 410.195 356.549H395.366C391.323 356.549 391.277 352.175 392.942 351.864C400.43 350.5 403.384 348.335 405.851 346.751C405.851 346.751 406.011 344.646 405.845 342.93Z" fill="#263238"/>
<path opacity="0.4" d="M395.363 356.559H410.192C415.041 356.559 416.884 356.559 420.78 356.559C420.915 356.561 421.049 356.546 421.179 356.516C421.673 356.399 422.02 355.765 422.13 355.18L422.12 354.633H392.117C392.516 355.65 393.521 356.559 395.363 356.559Z" fill="white"/>
<path d="M401.869 349.412C402.179 349.663 402.465 349.941 402.723 350.243C402.753 350.278 402.783 350.316 402.813 350.351C402.791 350.324 402.803 350.339 402.817 350.357C402.834 350.378 402.85 350.398 402.865 350.419C402.925 350.498 402.984 350.577 403.04 350.658C403.152 350.82 403.255 350.986 403.351 351.157C403.436 351.311 403.67 351.372 403.823 351.276C403.984 351.176 404.038 350.985 403.946 350.821C403.546 350.106 402.999 349.466 402.356 348.942C402.218 348.831 402.002 348.802 401.868 348.942C401.752 349.065 401.722 349.292 401.869 349.412Z" fill="#0A5840"/>
<path d="M404.205 348.161C404.489 348.4 404.754 348.66 404.997 348.939C405.026 348.973 405.055 349.006 405.083 349.041C405.096 349.056 405.109 349.071 405.121 349.087C405.138 349.107 405.162 349.138 405.132 349.1C405.187 349.169 405.241 349.24 405.293 349.311C405.403 349.461 405.506 349.616 405.603 349.774C405.695 349.923 405.917 349.991 406.075 349.893C406.231 349.796 406.296 349.599 406.198 349.439C405.797 348.785 405.285 348.193 404.692 347.693C404.555 347.578 404.336 347.554 404.204 347.693C404.086 347.817 404.06 348.039 404.205 348.161Z" fill="#0A5840"/>
<path d="M405.936 347.116C406.072 347.181 406.203 347.256 406.327 347.34C406.358 347.361 406.388 347.382 406.418 347.405C406.452 347.429 406.358 347.358 406.405 347.395C406.421 347.407 406.438 347.42 406.453 347.432C406.51 347.478 406.566 347.526 406.62 347.576C406.673 347.626 406.725 347.678 406.773 347.731C406.795 347.755 406.817 347.78 406.839 347.805C406.851 347.82 406.863 347.836 406.876 347.85C406.866 347.838 406.857 347.825 406.847 347.814C406.855 347.825 406.863 347.834 406.871 347.845C406.958 347.958 407.035 348.077 407.102 348.203C407.186 348.357 407.423 348.416 407.574 348.322C407.737 348.221 407.788 348.032 407.697 347.867C407.389 347.297 406.876 346.83 406.283 346.542C406.122 346.465 405.902 346.496 405.811 346.661C405.73 346.812 405.764 347.032 405.936 347.116Z" fill="#0A5840"/>
<path d="M406.115 344.877C406.288 344.879 406.46 344.888 406.633 344.905C406.67 344.908 406.707 344.913 406.744 344.916C406.819 344.924 406.73 344.913 406.799 344.923C406.884 344.936 406.97 344.949 407.055 344.965C407.381 345.025 407.7 345.114 408.01 345.227C408.179 345.289 408.395 345.159 408.434 344.995C408.479 344.806 408.374 344.653 408.193 344.587C407.531 344.344 406.823 344.221 406.115 344.213C405.934 344.211 405.762 344.367 405.77 344.545C405.778 344.727 405.922 344.876 406.115 344.877Z" fill="#0A5840"/>
<g opacity="0.3">
<path d="M413.271 345.107C413.311 345.75 413.566 346.455 414.212 346.753C414.612 346.938 415.087 346.931 415.537 346.919C416.886 346.884 418.234 346.85 419.584 346.815L419.6 346.781C419.814 345.087 420.385 340.955 418.713 340.957C417.397 340.955 416.014 343.328 413.263 342.635C413.285 343.533 413.245 344.675 413.271 345.107Z" fill="black"/>
</g>
<path d="M463.334 243.453C463.334 243.453 433.752 247.385 416.748 254.464C410.845 256.922 407.356 261.958 406.591 267.413C402.821 296.982 405.874 332.906 405.874 332.906L420.083 334.767C420.083 334.767 427.65 301.101 427.481 277.321C442.992 273.104 483.281 275.849 488.027 263.468C490.344 257.05 490.958 250.175 489.81 243.47L463.334 243.453Z" fill="#0A5840"/>
<path opacity="0.3" d="M457.531 249.348C457.531 249.348 435.661 269.019 436.651 275.728C433.554 276.037 430.485 276.568 427.47 277.318C427.478 279.629 427.577 282.445 427.312 284.742C418.085 271.49 418.958 258.756 457.531 249.348Z" fill="black"/>
<path d="M463.36 327.432L466.606 345.585L459.854 346.843L451.742 330.046L463.36 327.432Z" fill="#E4897B"/>
<path d="M455.248 343.45C454.871 342.388 454.724 341.465 456.025 341.092L457.868 340.564C458.574 340.399 459.182 340.698 459.835 340.914C464.774 342.546 465.675 338.741 467.336 338.356C469.468 337.857 469.61 344.203 469.79 344.495L473.878 350.944C474.228 351.481 474.135 352.836 473.468 353.169C473.349 353.228 473.222 353.272 473.091 353.302C469.305 354.185 467.513 354.602 462.8 355.702L448.387 359.063C444.458 359.979 443.344 355.739 444.887 355.058C451.832 352.035 454.174 349.261 456.184 347.164C456.186 347.164 455.827 345.081 455.248 343.45Z" fill="#263238"/>
<path opacity="0.4" d="M448.39 359.059L462.803 355.697C467.517 354.599 469.308 354.18 473.094 353.297C473.226 353.268 473.353 353.224 473.471 353.164C473.924 352.939 474.106 352.244 474.071 351.651L473.927 351.121L444.766 357.922C445.401 358.821 446.6 359.476 448.39 359.059Z" fill="white"/>
<path d="M452.971 350.65C453.334 350.824 453.679 351.029 454.003 351.264C454.008 351.267 454.058 351.305 454.033 351.286C454.007 351.266 454.078 351.32 454.077 351.319C454.115 351.349 454.153 351.379 454.192 351.409C454.267 351.47 454.341 351.532 454.413 351.597C454.561 351.728 454.703 351.866 454.837 352.011C454.959 352.14 455.203 352.138 455.325 352.011C455.456 351.872 455.453 351.679 455.325 351.541C454.761 350.937 454.072 350.439 453.319 350.076C453.158 349.998 452.938 350.03 452.847 350.194C452.765 350.346 452.799 350.567 452.971 350.65Z" fill="#0A5840"/>
<path d="M454.94 348.902C455.274 349.07 455.596 349.261 455.9 349.478C455.916 349.49 455.934 349.501 455.95 349.514C455.955 349.517 456.005 349.555 455.978 349.534C455.946 349.51 456.012 349.56 456.017 349.564C456.034 349.577 456.05 349.59 456.067 349.602C456.14 349.659 456.213 349.718 456.284 349.778C456.426 349.897 456.562 350.022 456.693 350.153C456.819 350.278 457.056 350.284 457.181 350.153C457.308 350.019 457.315 349.816 457.181 349.683C456.631 349.139 455.987 348.68 455.289 348.328C455.129 348.248 454.907 348.284 454.817 348.448C454.733 348.6 454.769 348.816 454.94 348.902Z" fill="#0A5840"/>
<path d="M456.367 347.498C456.514 347.531 456.659 347.573 456.8 347.626C456.811 347.631 456.835 347.645 456.846 347.644C456.817 347.647 456.791 347.621 456.844 347.644C456.878 347.659 456.912 347.674 456.945 347.69C457.012 347.722 457.077 347.756 457.142 347.792C457.202 347.826 457.26 347.862 457.318 347.9C457.349 347.921 457.378 347.941 457.408 347.962C457.473 348.008 457.369 347.931 457.406 347.96C457.418 347.97 457.431 347.98 457.443 347.99C457.558 348.082 457.665 348.182 457.764 348.291C457.883 348.422 458.132 348.417 458.252 348.291C458.385 348.151 458.379 347.961 458.252 347.821C457.812 347.337 457.198 347.002 456.55 346.857C456.375 346.818 456.169 346.909 456.127 347.089C456.086 347.259 456.179 347.456 456.367 347.498Z" fill="#0A5840"/>
<path d="M455.993 345.279C456.332 345.204 456.583 345.169 456.928 345.153C457.259 345.138 457.591 345.152 457.921 345.192C458.1 345.215 458.273 345.024 458.266 344.86C458.256 344.662 458.113 344.551 457.921 344.528C457.216 344.442 456.501 344.485 455.809 344.639C455.633 344.678 455.513 344.881 455.568 345.047C455.629 345.224 455.805 345.321 455.993 345.279Z" fill="#0A5840"/>
<g opacity="0.3">
<path d="M462.994 343.865C463.189 344.481 463.611 345.108 464.31 345.252C464.744 345.34 465.203 345.226 465.639 345.112C466.941 344.773 468.245 344.434 469.547 344.095L469.554 344.057C469.347 342.363 468.894 338.218 467.27 338.599C465.991 338.896 465.226 341.515 462.383 341.465C462.624 342.331 462.863 343.451 462.994 343.865Z" fill="black"/>
</g>
<path d="M482.496 243.508C482.496 243.508 427.016 252.752 429.026 268.724C431.923 291.767 452.334 338.852 452.334 338.852L469.077 333.073C469.077 333.073 458.343 291.18 454.669 274.367C468.926 274.367 498.357 275.85 503.103 263.47C505.415 257.165 505.881 250.37 504.452 243.827L482.496 243.508Z" fill="#0A5840"/>
<path d="M473.551 176.356C478.476 179.817 479.089 189.552 463.87 210.488L451.789 198.182C454.92 192.856 457.638 190.249 462.287 183.913C468.612 175.024 473.551 176.356 473.551 176.356Z" fill="#263238"/>
<path opacity="0.3" d="M461.969 244.1C461.969 244.1 471.51 255.873 486.786 257.726C502.062 259.578 504.964 255.94 504.964 255.94C504.964 255.94 505.034 250.205 505.271 250.498C505.507 250.79 463.539 242.406 463.539 242.406L461.969 244.1Z" fill="black"/>
<path d="M473.404 176.166C477.321 175.895 492.996 174.211 508.962 177.325L507.417 231.803C507.417 231.803 508.21 251.843 507.417 253.663C490.65 260.266 469.719 250.654 459.113 244.059C459.225 244.322 462.035 237.11 462.035 237.11C463.99 219.742 467.115 192.666 470.075 177.038C470.154 176.651 473.013 176.193 473.404 176.166Z" fill="#263238"/>
<path opacity="0.2" d="M507.21 210.419L506.33 210.529L503.16 195.551L504.628 212.364L507.42 212.802L507.21 210.419Z" fill="black"/>
<path opacity="0.2" d="M465.528 208.162L468.034 189.424L462.344 208.927L463.872 210.484L465.528 208.162Z" fill="black"/>
<path d="M462.883 201.887C462.868 205.624 465.565 208.567 469.026 208.575L469.059 209.142C469.034 209.849 469.596 210.448 470.329 210.495L482.282 210.541C483.037 210.539 483.648 209.949 483.65 209.221L483.711 194.283C483.644 193.772 483.177 193.399 482.643 193.429L470.172 193.392C469.642 193.34 469.16 193.691 469.069 194.197V195.246C465.607 195.227 462.898 198.15 462.883 201.887ZM465.102 201.894C465.119 199.393 466.925 197.216 469.062 197.217L469.021 206.604C466.873 206.593 465.085 204.396 465.102 201.894Z" fill="#0A5840"/>
<path d="M506.874 205.372L507.42 215.425L487.607 204.51L482.137 210.777C482.137 210.777 506.584 232.105 514.279 232.339C525.513 232.68 519.876 203.273 519.876 203.273L506.874 205.372Z" fill="#E4897B"/>
<path d="M508.965 177.324C508.965 177.324 515.253 178.445 516.766 186.036C518.159 193.025 522.071 208.565 522.071 208.565L506.33 210.529L503.16 192.35L508.965 177.324Z" fill="#263238"/>
<path d="M483.299 198.953C483.299 198.953 475.141 195.411 474.719 195.941C474.297 196.472 473.474 198.411 474.051 199.772C474.051 199.772 472.844 201.397 474.028 202.831L474.898 203.64C474.898 203.64 472.809 204.275 474.4 206.63C475.99 208.986 480.128 210.677 482.465 211.255C484.802 211.833 488.608 209.953 488.532 209.559C488.455 209.163 487.212 200.449 486.579 198.262C485.946 196.075 483.964 194.749 483.707 194.744L483.299 198.953Z" fill="#E4897B"/>
<path d="M391.525 356.622H345.23V246.055H347.07V354.867H389.686V246.055H391.525V356.622Z" fill="#263238"/>
<path d="M562.656 240.797H328.473V246.068H562.656V240.797Z" fill="#0A5840"/>
<path opacity="0.2" d="M562.656 240.797H328.473V246.068H562.656V240.797Z" fill="black"/>
<path opacity="0.2" d="M562.658 240.797H492.801V246.068H562.658V240.797Z" fill="black"/>
<path d="M559.259 357.788H512.965V246.066H514.804V356.016H557.42V246.066H559.259V357.788Z" fill="#263238"/>
<path d="M388.148 241.027H420.177C420.73 241.024 421.174 240.675 421.169 240.247C421.168 240.167 421.151 240.087 421.118 240.011L406.871 208.541C406.511 207.643 405.438 207.028 404.221 207.023H372.173C371.631 207.023 371.191 207.364 371.191 207.783C371.191 207.87 371.212 207.958 371.25 208.041L385.498 239.51C385.863 240.406 386.933 241.018 388.148 241.027Z" fill="#263238"/>
<path opacity="0.7" d="M372.173 207.023H404.221C405.438 207.028 406.511 207.642 406.871 208.541L421.118 240.011C421.151 240.087 421.168 240.167 421.169 240.247C421.174 240.675 420.73 241.024 420.177 241.027H388.148C386.933 241.018 385.863 240.405 385.498 239.51L371.25 208.041C371.212 207.958 371.191 207.87 371.191 207.783C371.191 207.364 371.631 207.024 372.173 207.023Z" fill="white"/>
<path d="M392.024 224.729C392.717 226.24 394.119 227.276 395.166 227.066C396.211 226.855 396.491 225.478 395.819 223.964C395.147 222.45 393.728 221.436 392.682 221.647C391.636 221.859 391.324 223.18 392.024 224.729Z" fill="white"/>
<path opacity="0.3" d="M404.031 207.025H404.222C405.438 207.03 406.512 207.644 406.871 208.543L421.119 240.013C421.151 240.089 421.169 240.169 421.17 240.249C421.174 240.676 420.73 241.026 420.177 241.029H419.152L404.031 207.025Z" fill="black"/>
<path d="M451.531 241.029H418.188V238.863H449.282C450.524 238.864 451.531 239.833 451.531 241.029Z" fill="#263238"/>
<path opacity="0.7" d="M451.531 241.029H418.188V238.863H449.282C450.524 238.864 451.531 239.833 451.531 241.029Z" fill="white"/>
<path d="M127.611 145.297C127.611 145.297 140.012 173.59 141.598 173.737C143.183 173.883 163.455 166.271 163.455 166.271L166.608 169.704C166.608 169.704 155.991 183.381 139.184 187.724C136.165 188.504 132.353 185.209 128.718 180.704C128.006 179.829 127.311 178.902 126.616 177.949C122.877 172.609 119.523 167.027 116.578 161.243L127.611 145.297Z" fill="#0A5840"/>
<path opacity="0.6" d="M127.611 145.297C127.611 145.297 140.012 173.59 141.598 173.737C143.183 173.883 163.455 166.271 163.455 166.271L166.608 169.704C166.608 169.704 155.991 183.381 139.184 187.724C136.165 188.504 132.353 185.209 128.718 180.704C128.006 179.829 127.311 178.902 126.616 177.949C122.877 172.609 119.523 167.027 116.578 161.243L127.611 145.297Z" fill="white"/>
<path opacity="0.2" d="M130.019 152.686C130.802 156.021 132.636 161.029 134.084 164.582C134.553 165.732 134.758 166.978 134.541 168.196C133.916 171.704 130.771 172.826 129.724 175.623C129.139 177.261 128.8 178.972 128.718 180.703C128.006 179.827 127.311 178.901 126.616 177.948L125.066 172.045L130.019 152.686Z" fill="black"/>
<path d="M95.156 351.93L102.721 351.603L105.526 332.645L94 333.022L95.156 351.93Z" fill="#B97964"/>
<path d="M103.646 348.291H100.955C100.346 348.291 99.7834 348.588 99.4229 349.061C97.8715 351.102 96.7054 350.331 95.0169 348.412C93.9437 348.291 93.6549 349.477 93.5676 349.796L91.5563 356.846C91.3816 357.434 91.7357 358.048 92.3463 358.217C92.4548 358.247 92.5679 358.261 92.6801 358.259C95.9476 358.259 97.4935 358.259 101.561 358.259H113.999C117.39 358.259 118.092 354.968 116.696 354.663C110.415 353.326 105.968 351.545 104.027 349.786C103.667 349.476 104.037 349.245 103.646 348.291Z" fill="#263238"/>
<path d="M108.912 350.64C109.195 350.444 109.364 350.13 109.369 349.794C109.393 349.614 109.307 349.436 109.149 349.337C108.306 348.762 104.942 350.276 104.564 350.454C104.521 350.468 104.488 350.5 104.474 350.541C104.446 350.615 104.486 350.698 104.564 350.725C105.39 350.914 106.236 351.018 107.084 351.038C107.722 351.096 108.362 350.957 108.912 350.64ZM108.938 349.582C109.006 349.623 109.041 349.701 109.026 349.777C109.012 350.02 108.891 350.245 108.692 350.394C107.928 350.945 106.083 350.707 105.091 350.53C106.488 349.937 108.472 349.269 108.938 349.582Z" fill="#0A5840"/>
<path d="M104.681 350.759C105.69 350.353 107.807 348.753 107.693 347.907C107.676 347.73 107.544 347.518 107.087 347.458C105.242 347.256 104.453 350.446 104.453 350.582C104.434 350.636 104.452 350.696 104.497 350.734C104.531 350.744 104.567 350.744 104.602 350.734L104.681 350.759ZM107.026 347.721C107.369 347.754 107.369 347.873 107.369 347.916C107.465 348.432 105.928 349.76 104.83 350.319C105.058 349.575 105.735 347.713 106.902 347.713L107.026 347.721Z" fill="#0A5840"/>
<path d="M102.656 352.271C102.613 352.271 102.571 352.259 102.533 352.237C102.426 352.171 102.393 352.035 102.461 351.931C102.998 351.11 103.914 350.543 104.91 350.412C105.039 350.397 105.152 350.48 105.169 350.602C105.186 350.724 105.098 350.835 104.972 350.851C104.109 350.964 103.316 351.456 102.85 352.166C102.806 352.234 102.732 352.271 102.656 352.271Z" fill="#0A5840"/>
<path d="M104.327 353.494C104.285 353.494 104.243 353.482 104.205 353.46C104.097 353.394 104.065 353.258 104.133 353.154C104.669 352.334 105.585 351.766 106.582 351.634C106.704 351.622 106.823 351.702 106.841 351.824C106.858 351.945 106.77 352.057 106.644 352.073C105.78 352.187 104.987 352.679 104.522 353.389C104.478 353.457 104.404 353.494 104.327 353.494Z" fill="#0A5840"/>
<path d="M106.409 354.507C106.367 354.507 106.325 354.496 106.287 354.474C106.18 354.408 106.147 354.271 106.215 354.168C106.752 353.348 107.667 352.78 108.663 352.648C108.788 352.635 108.905 352.716 108.922 352.837C108.939 352.959 108.851 353.071 108.725 353.087C107.862 353.201 107.068 353.693 106.603 354.403C106.56 354.471 106.486 354.507 106.409 354.507Z" fill="#0A5840"/>
<path opacity="0.3" d="M103.997 342.975L103.637 345.413L94.7492 345.262L94.6094 342.975H103.997Z" fill="black"/>
<path d="M126.681 350.04L134.892 349.038L136.701 331.166L125.438 330.863L126.681 350.04Z" fill="#B97964"/>
<path d="M135.31 347.551H132.619C132.01 347.551 131.447 347.848 131.087 348.321C129.536 350.362 128.369 349.59 126.681 347.671C125.608 347.551 125.319 348.737 125.232 349.056L123.22 356.105C123.046 356.693 123.4 357.307 124.01 357.475C124.119 357.506 124.232 357.52 124.344 357.518C127.612 357.518 129.158 357.518 133.225 357.518H145.663C149.054 357.518 149.757 354.226 148.36 353.922C142.079 352.585 137.632 350.804 135.691 349.045C135.332 348.735 135.702 348.505 135.31 347.551Z" fill="#263238"/>
<path d="M141.146 349.554C141.429 349.358 141.599 349.044 141.603 348.708C141.627 348.527 141.542 348.35 141.383 348.251C140.54 347.675 137.176 349.19 136.798 349.368C136.756 349.382 136.723 349.414 136.708 349.455C136.68 349.529 136.72 349.612 136.798 349.639C137.625 349.828 138.47 349.933 139.319 349.952C139.957 350.011 140.597 349.871 141.146 349.554ZM141.173 348.496C141.242 348.537 141.277 348.615 141.261 348.691C141.247 348.934 141.125 349.159 140.927 349.309C140.163 349.859 138.318 349.622 137.326 349.444C138.722 348.853 140.707 348.184 141.173 348.496Z" fill="#0A5840"/>
<path d="M136.915 349.673C137.925 349.267 140.042 347.667 139.928 346.821C139.91 346.643 139.779 346.432 139.322 346.373C137.477 346.17 136.687 349.36 136.687 349.495C136.669 349.55 136.686 349.609 136.731 349.647C136.765 349.657 136.802 349.657 136.837 349.647L136.915 349.673ZM139.26 346.635C139.603 346.668 139.603 346.787 139.603 346.83C139.7 347.346 138.163 348.674 137.065 349.233C137.293 348.488 137.97 346.627 139.138 346.627L139.26 346.635Z" fill="#0A5840"/>
<path d="M134.894 351.185C134.851 351.185 134.809 351.174 134.771 351.152C134.664 351.086 134.632 350.95 134.7 350.846C135.236 350.025 136.152 349.458 137.149 349.326C137.271 349.312 137.391 349.394 137.407 349.515C137.425 349.637 137.336 349.749 137.21 349.765C136.347 349.879 135.553 350.371 135.089 351.081C135.045 351.149 134.97 351.185 134.894 351.185Z" fill="#0A5840"/>
<path d="M136.562 352.408C136.519 352.408 136.477 352.396 136.439 352.374C136.332 352.308 136.3 352.171 136.368 352.068C136.904 351.248 137.819 350.68 138.817 350.548C138.936 350.536 139.058 350.616 139.075 350.738C139.093 350.859 139.004 350.971 138.878 350.987C138.014 351.101 137.221 351.593 136.757 352.303C136.713 352.371 136.638 352.408 136.562 352.408Z" fill="#0A5840"/>
<path d="M138.644 353.421C138.601 353.421 138.559 353.41 138.521 353.388C138.414 353.322 138.382 353.186 138.45 353.082C138.986 352.262 139.901 351.694 140.899 351.562C141.021 351.549 141.141 351.63 141.157 351.751C141.175 351.873 141.086 351.985 140.96 352.001C140.097 352.115 139.303 352.607 138.839 353.317C138.796 353.385 138.72 353.421 138.644 353.421Z" fill="#0A5840"/>
<path opacity="0.3" d="M135.618 341.9L135.371 344.347L126.311 344.291L126.156 341.9H135.618Z" fill="black"/>
<path d="M87.2809 170.454C92.0602 163.268 85.4094 156.145 85.5612 147.764C85.712 139.384 89.443 131.079 89.9083 122.706C90.1318 118.68 90.7111 114.603 92.4833 110.902C94.2554 107.2 97.5312 103.271 101.647 101.754L122.408 110.301C125.655 124.873 125.5 134.236 125.083 143.272C124.662 152.345 123.968 161.084 121.805 171.436C121.533 172.74 121.219 174.093 120.326 175.145C119.119 176.567 117.101 177.164 115.21 177.684C110.395 179.008 105.545 180.338 100.546 180.827C95.5475 181.315 94.6297 180.802 90.1226 178.8C88.6006 178.124 86.2748 176.736 86.0651 175.206C85.8867 173.909 86.5341 171.577 87.2809 170.454Z" fill="#263238"/>
<path d="M109.262 200.312L130.354 200.396C130.354 200.396 137.723 236.137 137.291 276.211C138.152 299.738 137.461 342.998 137.461 342.998H123.745C123.745 342.998 115.006 307.864 118.505 280.026C117.232 275.226 115.532 266.915 114.532 262.673C111.732 251.237 109.626 239.655 108.222 227.983C105.812 206.108 109.262 200.312 109.262 200.312Z" fill="#263238"/>
<path opacity="0.2" d="M111.128 214.346C111.128 214.346 118.732 247.251 114.528 262.669C111.728 251.233 109.622 239.651 108.219 227.979L111.128 214.346Z" fill="black"/>
<path d="M91.5322 190.951C89.6911 198.891 82.4775 208.59 81.018 218.747C78.5258 236.094 89.3508 257.672 92.1842 278.026C87.907 308.128 94.464 344.632 93.5959 343.842L107.367 343.855C107.784 341.162 110.608 300.375 112.01 276.209C113.198 255.059 115.097 201.866 115.097 201.866L91.5322 190.951Z" fill="#263238"/>
<path d="M128.753 173.415C127.694 180.426 129.268 195.403 132.32 205.733C133.405 209.405 102.549 208.913 85.2344 203.404L91.0171 186.144C90.9996 184.719 88.1386 174.504 88.0669 173.002C87.7156 165.718 86.8732 158.463 85.5461 151.284C85.4891 150.972 85.4487 150.659 85.4257 150.343C85.1424 146.444 85.0376 143.427 88.5607 141.958C89.5015 141.565 92.9805 140.845 94.0611 140.772C95.5398 140.669 97.2678 140.449 98.8708 140.406C100.474 140.364 100.518 140.159 101.997 140.159C106.039 140.085 111.393 140.641 115.41 141.081L116.301 141.193C117.806 141.382 119.338 141.622 120.816 141.862C120.816 141.862 124.562 142.38 126.699 144.106C128.836 145.832 133.717 163.67 132.863 168.322C132.124 172.368 128.753 173.415 128.753 173.415Z" fill="#0A5840"/>
<path opacity="0.6" d="M128.753 173.415C127.694 180.426 129.268 195.403 132.32 205.733C133.405 209.405 102.549 208.913 85.2344 203.404L91.0171 186.144C90.9996 184.719 88.1386 174.504 88.0669 173.002C87.7156 165.718 86.8732 158.463 85.5461 151.284C85.4891 150.972 85.4487 150.659 85.4257 150.343C85.1424 146.444 85.0376 143.427 88.5607 141.958C89.5015 141.565 92.9805 140.845 94.0611 140.772C95.5398 140.669 97.2678 140.449 98.8708 140.406C100.474 140.364 100.518 140.159 101.997 140.159C106.039 140.085 111.393 140.641 115.41 141.081L116.301 141.193C117.806 141.382 119.338 141.622 120.816 141.862C120.816 141.862 124.562 142.38 126.699 144.106C128.836 145.832 133.717 163.67 132.863 168.322C132.124 172.368 128.753 173.415 128.753 173.415Z" fill="white"/>
<path opacity="0.2" d="M89.1006 191.88L87.2227 197.484C87.2227 197.484 108.223 193.93 118.747 184.864C126.241 178.408 125.068 175.689 125.068 175.689L116.58 176.479L89.1006 191.88Z" fill="black"/>
<path opacity="0.2" d="M94.0236 160.713L94.4301 180.136C91.2601 182.079 90.2632 183.268 89.7813 180.485L88.0469 172.595L94.0236 160.713Z" fill="black"/>
<path d="M94.0264 160.724C94.0264 160.724 86.0752 179.696 87.5099 180.571C88.9436 181.447 111.832 175.414 111.832 175.414L116.249 181.039C115.474 184.317 75.172 204.327 71.9478 187.054C69.988 176.56 82.1705 148.376 82.1705 148.376C85.2375 143.112 89.5018 140.601 91.1829 142.098C95.5806 146.017 94.0264 160.724 94.0264 160.724Z" fill="#0A5840"/>
<path opacity="0.6" d="M94.0264 160.724C94.0264 160.724 86.0752 179.696 87.5099 180.571C88.9436 181.447 111.832 175.414 111.832 175.414L116.249 181.039C115.474 184.317 75.172 204.327 71.9478 187.054C69.988 176.56 82.1705 148.376 82.1705 148.376C85.2375 143.112 89.5018 140.601 91.1829 142.098C95.5806 146.017 94.0264 160.724 94.0264 160.724Z" fill="white"/>
<path d="M116.248 181.042C118.953 181.249 119.049 177.323 120.456 177.168C121.275 177.092 122.077 176.895 122.834 176.584C122.834 176.584 121.943 178.944 122.834 178.755C123.724 178.566 126.584 178.429 127.288 176.181C127.992 173.932 125.444 169.128 124.866 168.458C124.286 167.789 121.241 167.995 121.241 167.995C121.241 167.995 124.518 167.18 126.317 166.939C128.117 166.699 128.458 164.718 125.947 165.157C124.916 165.337 116.777 165.395 115.896 166.202C115.014 167.009 111.744 174.935 111.744 174.935C110.533 175.604 113.611 182.252 116.248 181.042Z" fill="#B97964"/>
<g opacity="0.3">
<path d="M121.204 167.752C120.369 167.696 119.53 167.748 118.71 167.906C118.587 167.939 118.513 168.061 118.547 168.18C118.577 168.284 118.679 168.353 118.79 168.344C119.566 168.194 120.36 168.142 121.151 168.19C121.445 168.19 121.498 167.77 121.204 167.752Z" fill="black"/>
<path d="M125.4 170.129C125.658 170.257 125.925 169.896 125.668 169.768C124.145 168.987 122.541 169.425 121 169.922C120.724 170.008 120.92 170.411 121.196 170.325C122.55 169.888 124.046 169.468 125.4 170.129Z" fill="black"/>
<path d="M126.591 172.07C125.277 171.314 123.657 171.247 122.28 171.89C122.172 171.956 122.139 172.094 122.208 172.197C122.263 172.282 122.368 172.321 122.467 172.293C123.698 171.715 125.149 171.766 126.332 172.43C126.582 172.576 126.85 172.216 126.591 172.07Z" fill="black"/>
<path d="M124.408 175.356C124.525 175.126 124.621 174.884 124.685 174.631C124.748 174.356 124.32 174.202 124.248 174.476C124.059 175.321 123.514 176.051 122.743 176.493C122.485 176.63 122.68 177.033 122.93 176.896H122.903C123.387 176.634 123.789 176.266 124.103 175.838C124.134 175.839 124.16 175.853 124.194 175.841C124.673 175.679 125.206 175.815 125.539 176.185C125.735 176.399 126.082 176.115 125.886 175.901C125.514 175.486 124.958 175.298 124.408 175.356Z" fill="black"/>
</g>
<path d="M138.93 181.411C137.998 181.064 137.501 179.919 137.819 178.852L146.112 146.668C146.587 145.15 147.847 144.124 149.254 144.109L170.988 144.546C171.226 144.523 171.464 144.554 171.689 144.638C172.621 144.985 173.117 146.131 172.799 147.198L164.497 179.381C164.023 180.899 162.763 181.925 161.355 181.94L139.62 181.503C139.386 181.524 139.151 181.493 138.93 181.411Z" fill="#263238"/>
<path d="M167.41 161.487C166.982 161.452 165.165 162.319 164.31 161.745C163.455 161.17 164.257 160.697 164.257 160.697C165.825 160.328 167.544 158.441 168.497 158.981C169.449 159.522 171.027 160.2 170.795 161.058C170.533 161.852 170.218 162.629 169.85 163.384C170.099 163.767 170.133 164.242 169.94 164.654C169.744 165.128 169.311 165.475 168.791 165.572C169.09 165.863 169.245 166.262 169.219 166.671C169.148 167.323 167.366 168.181 167.366 168.181C167.366 168.181 167.714 169.202 167.304 169.597C166.609 170.148 165.684 170.352 164.81 170.146C163.768 169.906 163.055 169.563 163.126 168.551C163.197 167.538 165.077 167.538 165.077 167.538C165.077 167.538 161.55 166.509 162.297 165.864C163.045 165.221 165.86 165.298 165.86 165.298C165.86 165.298 161.086 164.388 161.843 163.445C162.6 162.501 167.356 162.758 167.356 162.758C167.356 162.758 167.837 161.521 167.41 161.487Z" fill="#B97964"/>
<path d="M166.653 143.296L154.683 143.096L153.648 145.644L165.821 145.874L166.653 143.296Z" fill="#263238"/>
<path d="M158.801 143.494V141.43H164.529L163.225 143.808L158.801 143.494Z" fill="#263238"/>
<path d="M112.37 106.493C112.37 106.493 119.021 118.04 119.336 121.633C121.882 123.721 123.691 119.486 123.597 113.811C123.518 109.166 121.004 104.153 116.836 102.348C110.984 99.8122 112.37 106.493 112.37 106.493Z" fill="#263238"/>
<path d="M111.121 139.88C110.006 138.808 110.273 137.519 110.483 135.959C110.631 134.759 111.032 133.513 111.511 132.299L109.848 130.558L101.202 122.74C101.615 128.148 102.302 137.436 98.0195 140.528L116.093 151.596L114.422 141.003C114.422 141.003 112.756 140.763 111.121 139.88Z" fill="#B97964"/>
<path opacity="0.2" d="M110.433 136.416C108.089 135.184 105.487 132.997 105.691 130.386C105.784 129.286 105.99 128.241 106.237 127.566L111.121 133.347C110.774 134.318 110.658 134.955 110.433 136.416Z" fill="black"/>
<path d="M98.5124 114.118C99.6086 122.347 99.8909 125.842 104.476 130.017C111.373 136.295 121.524 133.748 122.978 125.502C124.287 118.082 122.275 105.872 113.731 102.696C105.314 99.5673 97.4162 105.889 98.5124 114.118Z" fill="#B97964"/>
<path d="M110.137 117.017C110.143 117.791 110.606 118.449 111.169 118.485C111.731 118.523 112.182 117.925 112.175 117.15C112.168 116.376 111.706 115.718 111.144 115.681C110.581 115.644 110.13 116.242 110.137 117.017Z" fill="#263238"/>
<path d="M118.291 116.419C118.254 117.168 118.675 117.833 119.233 117.901C119.791 117.97 120.274 117.418 120.312 116.668C120.35 115.918 119.928 115.255 119.37 115.186C118.812 115.116 118.329 115.668 118.291 116.419Z" fill="#263238"/>
<path d="M107.856 114.365C107.966 114.372 108.075 114.336 108.156 114.257C109.42 113.021 110.925 113.368 110.942 113.373C111.166 113.425 111.383 113.295 111.423 113.076C111.462 112.857 111.311 112.636 111.085 112.581C111.006 112.563 109.116 112.125 107.549 113.66C107.393 113.813 107.402 114.071 107.569 114.236C107.65 114.314 107.753 114.358 107.856 114.365Z" fill="#263238"/>
<path d="M121.136 112.663C121.236 112.632 121.32 112.566 121.367 112.472C121.465 112.28 121.369 112.042 121.154 111.942C118.991 110.936 117.305 111.808 117.234 111.847C117.034 111.953 116.975 112.193 117.103 112.382C117.23 112.571 117.494 112.638 117.695 112.533C117.76 112.498 119.079 111.84 120.799 112.639C120.91 112.691 121.032 112.696 121.136 112.663Z" fill="#263238"/>
<path d="M96.1745 120.941C97.2505 122.599 98.9353 123.606 100.457 123.916C102.746 124.385 103.785 120.831 102.928 118.668C102.157 116.721 99.8789 115.494 97.6874 116.001C95.528 116.502 94.9441 119.046 96.1745 120.941Z" fill="#B97964"/>
<path d="M115.848 115.77C115.848 115.77 117.304 118.813 118.89 120.687C119.167 121.014 119.022 121.512 118.616 121.671C117.572 122.083 116.32 121.787 116.32 121.787L115.848 115.77Z" fill="#C15854"/>
<path d="M110.973 115.657L112.961 115.299C112.961 115.299 111.816 116.661 110.973 115.657Z" fill="#263238"/>
<path d="M119.078 115.189L121.085 114.945C120.108 115.977 119.33 115.528 119.078 115.189Z" fill="#263238"/>
<path d="M96.2015 109.609C95.0391 111.227 97.3538 115.928 97.3538 115.928C97.3538 115.928 101.465 114.75 101.689 120.716C103.205 120.958 104.907 115.387 104.659 109.789C104.355 106.625 98.2542 106.753 96.2015 109.609Z" fill="#263238"/>
<path opacity="0.2" d="M99.9426 121.884C99.9252 121.884 99.9068 121.882 99.8893 121.878C98.4951 121.559 97.856 120.849 97.5654 120.31C97.2794 119.78 97.2132 119.181 97.3925 118.745C97.6767 118.058 98.5521 117.532 99.4074 117.848C99.526 117.891 99.5849 118.02 99.5398 118.134C99.4948 118.248 99.3642 118.305 99.2428 118.261C98.6524 118.042 98.0188 118.428 97.8201 118.908C97.7217 119.147 97.7033 119.604 97.9737 120.104C98.2202 120.561 98.7719 121.165 99.996 121.446C100.12 121.474 100.196 121.593 100.167 121.712C100.141 121.815 100.047 121.884 99.9426 121.884Z" fill="black"/>
<path d="M117.112 124.488C116.468 125.399 115.68 127.173 115.68 127.173C115.5 127.133 115.32 127.093 115.144 127.044C112.72 126.445 111.802 125.396 111.518 124.415C111.366 123.877 111.41 123.355 111.501 122.944C111.602 122.466 111.787 122.148 111.787 122.148C112.875 123.205 115.088 123.931 116.288 124.271C116.79 124.419 117.112 124.488 117.112 124.488Z" fill="#263238"/>
<path d="M116.288 124.272L115.844 125.053C113.564 124.483 112.037 123.787 111.5 122.944C111.601 122.466 111.786 122.148 111.786 122.148C112.875 123.205 115.088 123.932 116.288 124.272Z" fill="white"/>
<path d="M115.141 127.051C112.718 126.453 111.799 125.403 111.516 124.422C112.333 124.657 113.291 125.028 114.069 125.601C114.665 126.036 114.974 126.559 115.141 127.051Z" fill="#DC5753"/>
<path d="M120.429 105.012C118.616 101.382 111.23 98.008 102.738 101.514C95.0654 104.67 92.8491 115.432 98.3945 115.836C103.94 116.241 110.479 111.013 110.479 111.013L120.429 105.012Z" fill="#263238"/>
</svg>
