<svg width="394" height="312" viewBox="0 0 394 312" fill="none" xmlns="http://www.w3.org/2000/svg">
<path d="M57.6988 281.852C134.63 321.619 259.37 321.619 336.301 281.852C413.233 242.085 413.233 177.609 336.301 137.834C259.37 98.0588 134.666 98.0675 57.6988 137.834C-19.2681 177.601 -19.1977 242.085 57.6988 281.852Z" fill="#F5F5F5"/>
<path d="M36.2557 216.619L11.248 202.336V149.262L36.2557 163.553V216.619Z" fill="#E0E0E0"/>
<path d="M36.2559 163.551L71.9861 143.141V196.206L36.2559 216.616V163.551Z" fill="#EBEBEB"/>
<path d="M71.9859 143.141L36.2557 163.551L11.248 149.259L46.9783 128.85L71.9859 143.141Z" fill="#F5F5F5"/>
<path d="M39.8369 165.59L68.4158 149.262L69.0755 149.636V169.297L40.4878 185.625L39.8281 185.251L39.8369 165.59Z" fill="#E0E0E0"/>
<path d="M40.4854 165.971L69.073 149.635V169.296L40.4854 185.624V165.971Z" fill="#F5F5F5"/>
<path d="M51.6953 162.893L56.5596 160.116C57.1841 159.751 57.6943 159.916 57.6943 160.482C57.649 160.828 57.5229 161.16 57.3259 161.45C57.129 161.74 56.8666 161.98 56.5596 162.153L51.6953 164.929C51.0619 165.295 50.5518 165.13 50.5518 164.564C50.5974 164.216 50.7245 163.884 50.9231 163.594C51.1217 163.304 51.3861 163.064 51.6953 162.893Z" fill="#E0E0E0"/>
<path d="M39.1738 190.461L67.7527 174.133V193.794L68.4124 194.168L39.8247 210.496L39.1738 210.122V190.461Z" fill="#E0E0E0"/>
<path d="M39.8281 190.84L68.4158 174.512V194.173L39.8281 210.501V190.84Z" fill="#F5F5F5"/>
<path d="M51.0341 187.771L55.9424 185.003C56.5757 184.638 57.0859 184.803 57.0859 185.369C57.0403 185.716 56.9131 186.048 56.7146 186.338C56.516 186.629 56.2516 186.869 55.9424 187.04L51.0781 189.816C50.4448 190.182 49.9346 190.016 49.9346 189.451C49.9741 189.106 50.094 188.774 50.2847 188.483C50.4755 188.191 50.732 187.948 51.0341 187.771Z" fill="#E0E0E0"/>
<path d="M36.2557 160.484L11.248 146.193V93.127L36.2557 107.41V160.484Z" fill="#E0E0E0"/>
<path d="M36.2559 107.414L71.9861 87.0039V140.078L36.2559 160.488V107.414Z" fill="#EBEBEB"/>
<path d="M71.9859 87.0033L36.2557 107.413L11.248 93.1306L46.9783 72.7207L71.9859 87.0033Z" fill="#F5F5F5"/>
<path d="M39.8281 109.453L68.4158 93.125L69.0755 93.4992V113.161L40.4878 129.489L39.8281 129.106V109.453Z" fill="#E0E0E0"/>
<path d="M51.6953 106.757L56.5508 103.981C57.1841 103.624 57.6943 103.79 57.6943 104.355C57.6473 104.702 57.5196 105.034 57.3212 105.324C57.1228 105.614 56.8591 105.854 56.5508 106.026L51.6953 108.803C51.0619 109.16 50.5518 109.003 50.5518 108.437C50.5981 108.089 50.7254 107.756 50.9238 107.464C51.1223 107.173 51.3863 106.931 51.6953 106.757Z" fill="#E0E0E0"/>
<path d="M39.1738 134.332L67.7527 118.004V137.657L68.4124 138.031L39.8247 154.359L39.1738 153.984V134.332Z" fill="#E0E0E0"/>
<path d="M39.8281 134.711L68.4158 118.383V138.035L39.8281 154.363V134.711Z" fill="#F5F5F5"/>
<path d="M51.0332 131.636L55.9414 128.86C56.566 128.503 57.085 128.668 57.085 129.234C57.0354 129.58 56.9067 129.911 56.7085 130.201C56.5104 130.49 56.248 130.731 55.9414 130.905L51.0332 133.656C50.3998 134.012 49.8896 133.847 49.8896 133.29C49.9398 132.946 50.0689 132.618 50.2672 132.332C50.4654 132.045 50.7275 131.807 51.0332 131.636Z" fill="#E0E0E0"/>
<path d="M39.8281 109.453L68.4158 93.125V112.778L39.8281 129.106V109.453Z" fill="#E0E0E0"/>
<path d="M82.7071 102.841L67.0586 93.9023V111.222L82.7071 120.152V102.841Z" fill="#E0E0E0"/>
<path d="M50.5518 131.918V107.418L56.6827 103.902L57.6943 105.381L75.5594 95.1719V117.627L50.5518 131.918Z" fill="#EBEBEB"/>
<path d="M50.5518 131.919L52.3374 110.482L77.345 96.1992L75.5594 117.627L50.5518 131.919Z" fill="#F5F5F5"/>
<path d="M54.1195 119.176L40.4854 111.387V128.707L54.1195 136.488V119.176Z" fill="#EBEBEB"/>
<path d="M54.1201 117.623L82.7078 101.295V120.948L54.1201 137.275V117.623Z" fill="#F5F5F5"/>
<path d="M65.3251 114.547L70.1807 111.77C70.814 111.413 71.3242 111.579 71.3242 112.144C71.2766 112.491 71.1486 112.823 70.9503 113.112C70.7519 113.402 70.4885 113.643 70.1807 113.815L65.3251 116.592C64.6918 116.949 64.1816 116.783 64.1816 116.226C64.2279 115.878 64.3553 115.545 64.5537 115.253C64.7521 114.962 65.0162 114.72 65.3251 114.547Z" fill="#E0E0E0"/>
<path d="M54.1219 117.622L53.1719 117.082V136.735L54.1219 137.274V117.622Z" fill="#E0E0E0"/>
<path d="M53.1719 117.091L81.7508 100.754L82.7096 101.302L54.1219 117.63L53.1719 117.091Z" fill="#EBEBEB"/>
<path d="M331.703 184.47L306.687 170.179V117.113L331.703 131.396V184.47Z" fill="#E0E0E0"/>
<path d="M331.703 131.386L367.433 110.977V164.051L331.703 184.461V131.386Z" fill="#EBEBEB"/>
<path d="M367.433 110.975L331.703 131.385L306.687 117.102L342.426 96.6836L367.433 110.975Z" fill="#F5F5F5"/>
<path d="M335.275 133.441L363.863 117.113L364.523 117.488L364.514 137.14L335.935 153.468L335.275 153.094V133.441Z" fill="#E0E0E0"/>
<path d="M335.933 133.806L364.52 117.479L364.512 137.131L335.933 153.459V133.806Z" fill="#F5F5F5"/>
<path d="M347.139 130.738L351.994 127.962C352.627 127.605 353.138 127.77 353.138 128.327C353.091 128.676 352.964 129.009 352.766 129.3C352.567 129.592 352.303 129.834 351.994 130.007L347.139 132.784C346.505 133.141 345.995 132.975 345.995 132.418C346.041 132.07 346.169 131.737 346.367 131.445C346.566 131.154 346.83 130.912 347.139 130.738Z" fill="#E0E0E0"/>
<path d="M334.613 158.313L363.201 141.977V161.638L363.861 162.012L335.273 178.34L334.613 177.966V158.313Z" fill="#E0E0E0"/>
<path d="M335.275 158.683L363.863 142.355V162.008L335.275 178.336V158.683Z" fill="#F5F5F5"/>
<path d="M346.48 155.617L351.345 152.841C351.969 152.484 352.479 152.649 352.479 153.206C352.433 153.554 352.306 153.886 352.11 154.177C351.913 154.468 351.651 154.711 351.345 154.886L346.48 157.663C345.847 158.019 345.337 157.854 345.337 157.288C345.384 156.941 345.512 156.61 345.711 156.32C345.909 156.03 346.173 155.79 346.48 155.617Z" fill="#E0E0E0"/>
<path d="M93.7618 239.94C93.7618 239.94 93.8585 226.137 85.0623 215.788C77.2777 206.623 73.1347 200.809 75.5888 198.129C78.043 195.448 83.3207 194.804 90.4368 202.219C97.553 209.635 98.1071 230.175 97.1219 234.823L93.7618 239.94Z" fill="#455A64"/>
<path opacity="0.2" d="M93.7618 239.94C93.7618 239.94 93.8585 226.137 85.0623 215.788C77.2777 206.623 73.1347 200.809 75.5888 198.129C78.043 195.448 83.3207 194.804 90.4368 202.219C97.553 209.635 98.1071 230.175 97.1219 234.823L93.7618 239.94Z" fill="black"/>
<path d="M95.2409 225.105C95.1407 225.106 95.0434 225.072 94.965 225.011C94.8866 224.949 94.8319 224.863 94.8098 224.766C91.7312 210.518 83.8322 202.641 79.3901 199.212C79.2981 199.142 79.2382 199.038 79.2233 198.924C79.2085 198.809 79.24 198.694 79.3109 198.603C79.3838 198.511 79.4901 198.452 79.607 198.437C79.7238 198.422 79.8418 198.454 79.9354 198.525C84.4655 202.006 92.5316 210.065 95.6719 224.583C95.6848 224.639 95.6863 224.696 95.6764 224.752C95.6665 224.808 95.6453 224.862 95.6142 224.91C95.583 224.957 95.5425 224.999 95.495 225.031C95.4475 225.063 95.394 225.085 95.3376 225.097L95.2409 225.105Z" fill="white"/>
<path d="M93.4285 245.066L89.8485 247.111C89.4666 246.079 88.8225 245.161 87.9783 244.446C87.1341 243.731 86.1181 243.243 85.0281 243.029C81.1138 242.159 77.05 242.307 74.3056 238.947C71.5611 235.588 74.9037 231.932 74.3056 229.461C73.7074 226.989 73.3204 226.275 68.4121 223.803C63.5038 221.331 61.5686 217.232 65.263 214.456C68.9575 211.679 74.9389 213.716 78.5629 216.196C81.7823 218.372 84.8434 218.947 88.4411 219.391C92.0387 219.834 97.897 221.81 96.9998 230.079C96.4123 235.197 95.2135 240.227 93.4285 245.066Z" fill="#455A64"/>
<path d="M79.6889 234.211C79.5952 234.21 79.504 234.18 79.4283 234.125C79.3526 234.071 79.2961 233.994 79.2667 233.906C79.2334 233.795 79.2451 233.676 79.2993 233.574C79.3535 233.471 79.4459 233.394 79.5569 233.358C79.8736 233.262 87.4735 230.877 90.7017 233.436C90.7819 233.511 90.8307 233.613 90.8385 233.721C90.8464 233.83 90.8127 233.938 90.7441 234.023C90.6756 234.109 90.5771 234.165 90.4683 234.182C90.3595 234.199 90.2481 234.175 90.1564 234.115C87.3064 231.852 79.9 234.167 79.8208 234.193L79.6889 234.211Z" fill="white"/>
<path d="M93.8241 244.412C93.717 244.412 93.6135 244.373 93.5338 244.302C93.4542 244.232 93.404 244.134 93.393 244.029C91.4315 225.699 69.1155 217.004 68.8956 216.917C68.8411 216.897 68.7911 216.866 68.7487 216.826C68.7063 216.787 68.6722 216.739 68.6485 216.687C68.6248 216.634 68.6119 216.577 68.6105 216.52C68.6091 216.462 68.6193 216.405 68.6405 216.351C68.6837 216.246 68.7663 216.161 68.871 216.114C68.9758 216.067 69.0948 216.061 69.2034 216.099C69.4409 216.195 92.2495 225.072 94.2639 243.95C94.2762 244.064 94.2425 244.179 94.17 244.268C94.0975 244.358 93.9921 244.416 93.8768 244.429L93.8241 244.412Z" fill="white"/>
<path d="M312.612 233.033C312.709 232.728 316.483 213.511 312.612 199.881C309.094 187.382 304.502 182.77 297.958 181.751C291.414 180.733 288.572 185.398 292.047 191.717C295.521 198.036 303.887 206.417 305.936 220.534C306.816 226.348 307.484 231.396 307.484 231.396L312.612 233.033Z" fill="#455A64"/>
<path opacity="0.2" d="M312.612 233.033C312.709 232.728 316.483 213.511 312.612 199.881C309.094 187.382 304.502 182.77 297.958 181.751C291.414 180.733 288.572 185.398 292.047 191.717C295.521 198.036 303.887 206.417 305.936 220.534C306.816 226.348 307.484 231.396 307.484 231.396L312.612 233.033Z" fill="black"/>
<path d="M310.401 221.999C310.343 221.996 310.287 221.981 310.235 221.956C310.183 221.931 310.136 221.896 310.098 221.854C310.059 221.811 310.03 221.761 310.011 221.707C309.992 221.652 309.984 221.595 309.988 221.538C310.867 205.976 305.73 192.085 296.521 185.27C296.427 185.201 296.366 185.098 296.349 184.984C296.333 184.869 296.363 184.753 296.433 184.661C296.504 184.571 296.608 184.511 296.723 184.495C296.838 184.478 296.954 184.507 297.048 184.574C306.487 191.537 311.782 205.741 310.858 221.59C310.852 221.704 310.8 221.811 310.714 221.887C310.629 221.964 310.516 222.004 310.401 221.999Z" fill="white"/>
<path d="M322.739 243.042C322.238 239.465 324.314 234.103 329.248 232.833C334.183 231.562 336.382 228.759 334.605 225.696C332.828 222.632 333.242 219.821 337.719 218.55C342.196 217.279 346.12 215.069 343.542 210.386C341.669 207 341.255 204.807 345.847 198.14C349.656 192.605 346.542 189.358 341.774 189.968C337.007 190.577 334.06 196.199 331.078 197.139C328.096 198.079 327.41 193.066 323.478 195.312C319.546 197.557 319.784 203.31 319.661 207.322C319.537 211.335 319.274 212.24 315.72 211.753C312.166 211.265 308.683 211.84 308.762 220.343C308.824 227.637 312.756 236.671 312.756 236.671L322.739 243.042Z" fill="#455A64"/>
<path d="M316.499 237.601H316.455C316.337 237.588 316.23 237.529 316.156 237.438C316.081 237.347 316.047 237.23 316.059 237.114C318.54 215.19 337.557 196.694 342.518 192.943C342.611 192.873 342.729 192.842 342.845 192.857C342.962 192.873 343.067 192.934 343.138 193.026C343.209 193.118 343.241 193.235 343.225 193.35C343.209 193.465 343.148 193.569 343.055 193.639C338.155 197.338 319.384 215.59 316.939 237.21C316.926 237.317 316.874 237.415 316.793 237.487C316.712 237.559 316.608 237.6 316.499 237.601Z" fill="white"/>
<path d="M325.175 214.161C325.086 214.16 324.999 214.134 324.925 214.084C324.852 214.034 324.795 213.964 324.762 213.882C324.724 213.773 324.73 213.653 324.779 213.548C324.829 213.442 324.917 213.36 325.025 213.317C332.115 210.706 340.155 211.942 340.498 211.994C340.612 212.013 340.714 212.076 340.781 212.169C340.849 212.262 340.876 212.377 340.859 212.49C340.837 212.602 340.773 212.702 340.68 212.77C340.587 212.838 340.472 212.868 340.357 212.855C340.278 212.855 332.203 211.602 325.333 214.135C325.282 214.152 325.229 214.161 325.175 214.161Z" fill="white"/>
<path d="M318.857 227.342C318.795 227.341 318.734 227.328 318.678 227.302C318.622 227.277 318.572 227.24 318.531 227.194C315.583 223.796 313.584 219.695 312.735 215.296C312.726 215.239 312.728 215.182 312.742 215.126C312.756 215.071 312.781 215.018 312.815 214.972C312.85 214.926 312.893 214.887 312.942 214.858C312.992 214.828 313.047 214.808 313.104 214.8C313.161 214.791 313.22 214.794 313.276 214.808C313.332 214.821 313.385 214.846 313.431 214.88C313.478 214.914 313.517 214.956 313.547 215.005C313.577 215.054 313.597 215.109 313.605 215.165C314.446 219.391 316.37 223.332 319.191 226.611C319.246 226.675 319.281 226.753 319.293 226.836C319.305 226.919 319.293 227.004 319.258 227.081C319.223 227.157 319.166 227.223 319.095 227.269C319.024 227.315 318.942 227.34 318.857 227.342Z" fill="white"/>
<path d="M93.4326 110.365V245.079L232.782 165.476L232.773 43.0078L129.163 102.201L125.583 91.9915L93.4326 110.365Z" fill="#455A64"/>
<path opacity="0.7" d="M93.4326 110.365V245.079L232.782 165.476L232.773 43.0078L129.163 102.201L125.583 91.9915L93.4326 110.365Z" fill="black"/>
<path d="M93.4326 245.079L100.575 122.611L239.925 43.0078L232.782 165.476L93.4326 245.079Z" fill="#E0E0E0"/>
<path d="M93.4326 245.081L104.146 124.658L243.496 45.0469L232.782 165.478L93.4326 245.081Z" fill="#455A64"/>
<path opacity="0.7" d="M93.4326 245.081L104.146 124.658L243.496 45.0469L232.782 165.478L93.4326 245.081Z" fill="black"/>
<path d="M114.866 122.609V257.331L254.216 177.72V55.252L150.596 114.445L147.025 104.236L114.866 122.609Z" fill="#455A64"/>
<path opacity="0.5" d="M114.866 122.609V257.331L254.216 177.72V55.252L150.596 114.445L147.025 104.236L114.866 122.609Z" fill="black"/>
<path d="M114.866 257.331L122.009 134.855L261.358 55.252L254.216 177.72L114.866 257.331Z" fill="#E0E0E0"/>
<path d="M114.866 257.334L125.58 136.903L264.93 57.291L254.216 177.722L114.866 257.334Z" fill="#455A64"/>
<path opacity="0.5" d="M114.866 257.334L125.58 136.903L264.93 57.291L254.216 177.722L114.866 257.334Z" fill="black"/>
<path d="M232.746 300.201C207.73 285.91 184.525 270.374 173.935 252.148L206.129 233.758L232.746 300.201Z" fill="#E0E0E0"/>
<path d="M139.874 136.902V271.616L279.224 192.013V69.5449L175.604 128.738L172.033 118.529L139.874 136.902Z" fill="#455A64"/>
<path opacity="0.2" d="M139.874 136.902V271.616L279.224 192.013V69.5449L175.604 128.738L172.033 118.529L139.874 136.902Z" fill="black"/>
<path d="M180.02 176.732C179.668 176.732 179.615 176.331 179.615 176.096V61.2094C179.643 60.7637 179.776 60.3306 180.002 59.944C180.227 59.5574 180.541 59.2279 180.917 58.9813L281.493 1.5377C281.631 1.45269 281.788 1.40469 281.95 1.39844C282.302 1.39844 282.355 1.7988 282.355 2.0338V116.921C282.327 117.368 282.195 117.803 281.97 118.191C281.744 118.579 281.43 118.91 281.053 119.158L180.477 176.601C180.338 176.682 180.181 176.727 180.02 176.732Z" fill="white"/>
<path d="M281.9 1.79929C281.907 1.86292 281.907 1.92714 281.9 1.99077V116.878C281.871 117.248 281.759 117.608 281.572 117.93C281.384 118.252 281.127 118.529 280.818 118.74L180.242 176.184L180.066 176.262C180.054 176.199 180.054 176.134 180.066 176.071V61.1838C180.096 60.8147 180.209 60.457 180.396 60.1363C180.583 59.8157 180.84 59.5402 181.148 59.3299L281.724 1.88633C281.779 1.84793 281.842 1.82127 281.909 1.808M281.961 0.937639C281.722 0.944695 281.488 1.01372 281.284 1.13782L180.708 58.5814C180.266 58.8688 179.898 59.2546 179.634 59.7081C179.37 60.1615 179.216 60.6699 179.187 61.1925V176.08C179.187 176.758 179.53 177.15 180.066 177.15C180.306 177.144 180.54 177.075 180.743 176.95L281.319 119.506C281.763 119.221 282.133 118.836 282.397 118.382C282.662 117.928 282.814 117.419 282.841 116.895V2.00818C282.841 1.3293 282.498 0.928935 281.961 0.937639Z" fill="#455A64"/>
<path opacity="0.7" d="M281.9 1.79929C281.907 1.86292 281.907 1.92714 281.9 1.99077V116.878C281.871 117.248 281.759 117.608 281.572 117.93C281.384 118.252 281.127 118.529 280.818 118.74L180.242 176.184L180.066 176.262C180.054 176.199 180.054 176.134 180.066 176.071V61.1838C180.096 60.8147 180.209 60.457 180.396 60.1363C180.583 59.8157 180.84 59.5402 181.148 59.3299L281.724 1.88633C281.779 1.84793 281.842 1.82127 281.909 1.808M281.961 0.937639C281.722 0.944695 281.488 1.01372 281.284 1.13782L180.708 58.5814C180.266 58.8688 179.898 59.2546 179.634 59.7081C179.37 60.1615 179.216 60.6699 179.187 61.1925V176.08C179.187 176.758 179.53 177.15 180.066 177.15C180.306 177.144 180.54 177.075 180.743 176.95L281.319 119.506C281.763 119.221 282.133 118.836 282.397 118.382C282.662 117.928 282.814 117.419 282.841 116.895V2.00818C282.841 1.3293 282.498 0.928935 281.961 0.937639Z" fill="white"/>
<path d="M189.897 65.57L225.628 45.1602V85.9799L189.897 106.39V65.57Z" fill="#455A64"/>
<path opacity="0.8" d="M189.897 65.57L225.628 45.1602V85.9799L189.897 106.39V65.57Z" fill="white"/>
<path d="M220.271 55.3359V67.608L219.145 68.2259V64.4747C219.145 62.4032 217.448 61.6982 215.337 62.8993L200.198 71.5594C198.096 72.7605 196.39 75.4151 196.39 77.4865V81.2378L195.272 81.8992V69.6533L220.271 55.3359Z" fill="white"/>
<path d="M213.394 86.5817C211.564 87.6261 210.077 86.5295 210.077 84.1186V64.4746L205.477 66.9464V86.747C205.477 89.1492 203.991 91.9692 202.161 92.9875L198.836 94.8849V96.1904L216.701 85.9811V84.6843L213.394 86.5817Z" fill="white"/>
<path d="M232.745 43.144C232.745 44.2755 233.774 44.5975 235.032 43.8838L269.795 23.9961C270.412 23.6502 270.939 23.1677 271.336 22.5863C271.733 22.005 271.988 21.3406 272.082 20.6453C272.082 19.5225 271.053 19.1918 269.795 19.9142L235.059 39.7583C234.432 40.1036 233.895 40.5899 233.494 41.1781C233.092 41.7662 232.835 42.4397 232.745 43.144Z" fill="#455A64"/>
<path d="M232.745 55.3368C232.745 56.4683 233.774 56.799 235.032 56.0766L269.768 36.2325C270.385 35.8866 270.913 35.404 271.309 34.8227C271.706 34.2413 271.962 33.5769 272.055 32.8816C272.055 31.7588 271.026 31.4281 269.768 32.1505L235.032 51.9946C234.416 52.3397 233.89 52.8209 233.493 53.4006C233.096 53.9804 232.84 54.643 232.745 55.3368Z" fill="#455A64"/>
<path d="M232.745 67.6059C232.745 68.7374 233.774 69.0681 235.032 68.3457L269.768 48.5016C270.384 48.1565 270.911 47.6754 271.308 47.0956C271.704 46.5158 271.96 45.8532 272.055 45.1594C272.055 44.028 271.026 43.6972 269.768 44.4196L235.032 64.2638C234.416 64.6088 233.89 65.09 233.493 65.6698C233.096 66.2495 232.84 66.9122 232.745 67.6059Z" fill="#455A64"/>
<path d="M232.745 79.8501C232.745 80.9815 233.774 81.3123 235.032 80.5899L269.768 60.7457C270.384 60.4007 270.911 59.9195 271.308 59.3397C271.704 58.76 271.96 58.0974 272.055 57.4036C272.055 56.2721 271.026 55.9414 269.768 56.6638L235.032 76.5079C234.416 76.853 233.89 77.3341 233.493 77.9139C233.096 78.4936 232.84 79.1563 232.745 79.8501Z" fill="#455A64"/>
<path d="M189.897 116.603C189.897 117.735 190.918 118.065 192.184 117.343L269.793 72.9548C270.41 72.6108 270.938 72.1299 271.334 71.5499C271.731 70.97 271.987 70.3068 272.08 69.6126C272.08 68.4811 271.051 68.1591 269.793 68.8728L192.184 113.261C191.567 113.604 191.04 114.085 190.643 114.665C190.246 115.245 189.991 115.909 189.897 116.603Z" fill="#455A64"/>
<path d="M189.897 128.84C189.897 129.972 190.918 130.303 192.184 129.58L269.793 85.2442C270.41 84.8983 270.938 84.4157 271.335 83.8344C271.731 83.253 271.987 82.5886 272.08 81.8933C272.08 80.7706 271.051 80.4398 269.793 81.1622L192.184 125.498C191.567 125.842 191.04 126.322 190.643 126.902C190.246 127.483 189.991 128.146 189.897 128.84Z" fill="#455A64"/>
<path d="M189.897 141.101C189.897 142.224 190.918 142.555 192.184 141.832L269.793 97.4961C270.41 97.1502 270.938 96.6677 271.335 96.0863C271.731 95.505 271.987 94.8406 272.08 94.1453C272.08 93.0225 271.051 92.6918 269.793 93.4142L192.184 137.75C191.566 138.094 191.038 138.577 190.641 139.158C190.244 139.74 189.989 140.405 189.897 141.101Z" fill="#455A64"/>
<path d="M139.874 271.616L164.882 163.44L304.231 83.8281L279.224 192.014L139.874 271.616Z" fill="#455A64"/>
<path d="M173.967 171.909V252.148L206.126 233.774V153.545L173.967 171.909Z" fill="#455A64"/>
<path opacity="0.2" d="M173.967 171.909V252.148L206.126 233.774V153.545L173.967 171.909Z" fill="black"/>
<path d="M232.805 299.685C230.069 297.665 203.698 277.726 190.293 249.204C176.025 218.881 176.043 183.509 176.043 170.202V169.784L271.64 115.178C271.64 128.607 271.64 164.031 285.969 194.459C299.067 222.31 324.426 241.997 328.446 245.009L232.805 299.685Z" fill="white"/>
<path d="M271.198 115.957C271.198 129.952 271.471 164.697 285.571 194.672C298.229 221.566 322.295 240.905 327.652 244.987L232.829 299.158C229.126 296.399 203.749 276.79 190.695 249.052C176.445 218.816 176.445 183.514 176.445 170.223V170.058L271.163 115.948M272.043 114.442L175.566 169.562C175.566 182.086 175.302 218.476 189.86 249.417C204.189 279.784 232.741 300.203 232.741 300.203L329.244 245.074C329.244 245.074 300.657 224.656 286.372 194.289C271.805 163.348 272.078 126.958 272.078 114.434L272.043 114.442Z" fill="#455A64"/>
<path opacity="0.7" d="M271.198 115.957C271.198 129.952 271.471 164.697 285.571 194.672C298.229 221.566 322.295 240.905 327.652 244.987L232.829 299.158C229.126 296.399 203.749 276.79 190.695 249.052C176.445 218.816 176.445 183.514 176.445 170.223V170.058L271.163 115.948M272.043 114.442L175.566 169.562C175.566 182.086 175.302 218.476 189.86 249.417C204.189 279.784 232.741 300.203 232.741 300.203L329.244 245.074C329.244 245.074 300.657 224.656 286.372 194.289C271.805 163.348 272.078 126.958 272.078 114.434L272.043 114.442Z" fill="white"/>
<path d="M261.163 132.928L230.658 150.335C230.047 150.668 229.527 151.141 229.141 151.715C228.755 152.29 228.515 152.948 228.441 153.634C228.485 154.739 229.55 155.052 230.808 154.33L261.322 136.923C261.925 136.593 262.44 136.126 262.824 135.56C263.208 134.994 263.45 134.345 263.53 133.668C263.477 132.519 262.43 132.205 261.163 132.928Z" fill="#455A64"/>
<path d="M261.816 144.809L231.31 162.216C230.707 162.537 230.195 163.004 229.823 163.573C229.451 164.142 229.23 164.795 229.182 165.471C229.278 166.541 230.387 166.829 231.645 166.106L262.159 148.699C262.759 148.379 263.267 147.914 263.635 147.346C264.003 146.777 264.218 146.126 264.261 145.453C264.173 144.373 263.082 144.112 261.816 144.809Z" fill="#455A64"/>
<path d="M263.039 156.358L232.524 173.766C231.267 174.488 230.352 175.924 230.501 176.96C230.651 177.995 231.803 178.265 233.07 177.543L263.584 160.136C264.842 159.413 265.739 157.986 265.581 156.95C265.422 155.915 264.296 155.636 263.039 156.358Z" fill="#455A64"/>
<path d="M264.865 167.56L234.351 184.967C233.093 185.689 232.222 187.099 232.433 188.109C232.644 189.119 233.84 189.345 235.072 188.622L265.577 171.215C266.844 170.493 267.688 169.092 267.477 168.082C267.266 167.072 266.166 166.837 264.865 167.56Z" fill="#455A64"/>
<path d="M267.35 178.384L236.836 195.791C235.578 196.513 234.76 197.888 235.077 198.854C235.394 199.82 236.599 200.038 237.857 199.316L268.371 181.909C269.637 181.186 270.429 179.82 270.13 178.845C269.831 177.87 268.608 177.661 267.35 178.384Z" fill="#455A64"/>
<path d="M270.568 188.82L196.205 231.302C194.947 232.024 194.181 233.365 194.524 234.296C194.868 235.227 196.178 235.401 197.436 234.679L271.799 192.197C273.066 191.474 273.796 190.143 273.453 189.203C273.11 188.263 271.782 188.098 270.568 188.82Z" fill="#455A64"/>
<path d="M274.481 198.787L200.127 241.27C198.86 241.992 198.165 243.297 198.588 244.185C199.01 245.073 200.347 245.212 201.631 244.49L275.994 202.008C277.261 201.285 277.938 199.98 277.516 199.092C277.094 198.204 275.748 198.074 274.481 198.787Z" fill="#455A64"/>
<path d="M279.364 208.286L205.001 250.768C203.734 251.49 203.109 252.761 203.611 253.605C204.112 254.449 205.546 254.536 206.813 253.814L281.123 211.332C282.381 210.618 282.988 209.356 282.486 208.512C281.985 207.668 280.595 207.563 279.364 208.286Z" fill="#455A64"/>
<path d="M285.056 217.27L210.702 259.743C209.435 260.465 208.872 261.71 209.444 262.502C210.016 263.294 211.52 263.372 212.787 262.641L287.141 220.159C288.408 219.437 288.953 218.21 288.381 217.409C287.81 216.608 286.323 216.547 285.056 217.27Z" fill="#455A64"/>
<path d="M291.547 225.803L217.184 268.276C215.926 268.998 215.425 270.208 216.058 270.965C216.691 271.723 218.248 271.757 219.515 271.035L293.878 228.535C295.136 227.813 295.638 226.621 294.987 225.863C294.336 225.106 292.814 225.054 291.547 225.803Z" fill="#455A64"/>
<path d="M298.717 233.93L224.38 276.403C223.113 277.125 222.621 278.309 223.36 279.014C224.099 279.719 225.664 279.737 226.922 279.014L301.285 236.532C302.552 235.81 302.992 234.643 302.288 233.921C301.584 233.199 300.001 233.216 298.717 233.93Z" fill="#455A64"/>
<path d="M306.63 241.701L232.267 284.175C231.009 284.897 230.596 286.054 231.387 286.742C232.179 287.43 233.797 287.404 235.064 286.681L309.366 244.199C310.624 243.477 311.019 242.345 310.245 241.649C309.471 240.953 307.862 240.979 306.63 241.701Z" fill="#455A64"/>
<path d="M219.603 156.684L184.523 176.702C184.91 189.278 186.362 207.417 191.675 225.686L226.763 205.667C221.441 187.398 219.99 169.252 219.603 156.684Z" fill="#455A64"/>
<path opacity="0.8" d="M219.603 156.684L184.523 176.702C184.91 189.278 186.362 207.417 191.675 225.686L226.763 205.667C221.441 187.398 219.99 169.252 219.603 156.684Z" fill="white"/>
<path d="M198.826 173.931C198.873 173.12 198.746 172.307 198.452 171.548C198.157 170.788 197.703 170.1 197.12 169.527L184.523 176.716C184.629 180.041 184.805 183.758 185.113 187.761C186.751 187.948 188.409 187.645 189.872 186.891C194.824 184.645 198.826 178.823 198.826 173.931Z" fill="#455A64"/>
<path opacity="0.6" d="M198.826 173.931C198.873 173.12 198.746 172.307 198.452 171.548C198.157 170.788 197.703 170.1 197.12 169.527L184.523 176.716C184.629 180.041 184.805 183.758 185.113 187.761C186.751 187.948 188.409 187.645 189.872 186.891C194.824 184.645 198.826 178.823 198.826 173.931Z" fill="white"/>
<path d="M223.781 193.657C221.441 190.741 216.682 181.733 214.65 177.807C214.57 177.652 214.445 177.524 214.291 177.44C214.137 177.356 213.961 177.32 213.786 177.336C213.611 177.352 213.444 177.419 213.308 177.53C213.172 177.64 213.073 177.788 213.023 177.955C210.825 185.39 209.549 193.062 209.223 200.802C206.293 198.501 203.775 195.73 201.773 192.604C201.687 192.482 201.569 192.388 201.431 192.331C201.293 192.275 201.142 192.258 200.995 192.284C200.848 192.309 200.711 192.376 200.601 192.476C200.491 192.576 200.412 192.705 200.374 192.847C196.539 207.46 198.465 221.839 198.465 221.839L226.763 205.668C225.584 201.629 224.608 197.608 223.781 193.657Z" fill="#455A64"/>
<path opacity="0.6" d="M223.781 193.657C221.441 190.741 216.682 181.733 214.65 177.807C214.57 177.652 214.445 177.524 214.291 177.44C214.137 177.356 213.961 177.32 213.786 177.336C213.611 177.352 213.444 177.419 213.308 177.53C213.172 177.64 213.073 177.788 213.023 177.955C210.825 185.39 209.549 193.062 209.223 200.802C206.293 198.501 203.775 195.73 201.773 192.604C201.687 192.482 201.569 192.388 201.431 192.331C201.293 192.275 201.142 192.258 200.995 192.284C200.848 192.309 200.711 192.376 200.601 192.476C200.491 192.576 200.412 192.705 200.374 192.847C196.539 207.46 198.465 221.839 198.465 221.839L226.763 205.668C225.584 201.629 224.608 197.608 223.781 193.657Z" fill="white"/>
</svg>
