<svg width="357" height="436" viewBox="0 0 357 436" fill="none" xmlns="http://www.w3.org/2000/svg">
<path d="M273.301 245.393C282.076 236.283 294.114 230.944 306.826 230.526C319.538 230.109 331.908 234.645 341.274 243.159C345.875 247.355 349.589 252.413 352.2 258.039C354.811 263.666 356.267 269.749 356.484 275.936C356.702 282.124 355.676 288.292 353.466 294.085C351.256 299.877 347.906 305.177 343.611 309.679C334.836 318.79 322.798 324.128 310.086 324.546C297.374 324.964 285.004 320.427 275.638 311.913C271.037 307.717 267.323 302.659 264.712 297.033C262.102 291.407 260.645 285.323 260.428 279.136C260.211 272.948 261.237 266.78 263.446 260.988C265.656 255.196 269.006 249.895 273.301 245.393ZM325.224 292.904C327.283 290.753 328.889 288.217 329.948 285.446C331.008 282.674 331.499 279.722 331.394 276.761C331.289 273.799 330.59 270.888 329.336 268.197C328.083 265.506 326.301 263.088 324.095 261.085C319.612 257.019 313.694 254.857 307.616 255.066C301.538 255.275 295.786 257.837 291.598 262.202C289.539 264.353 287.933 266.888 286.874 269.66C285.814 272.432 285.323 275.384 285.428 278.345C285.533 281.307 286.232 284.218 287.485 286.909C288.739 289.6 290.52 292.018 292.727 294.021C297.21 298.097 303.133 300.264 309.218 300.055C315.302 299.846 321.06 297.278 325.246 292.904H325.224Z" fill="#F5F5F5"/>
<path d="M105.627 280.187L314.783 278.701V281.605L105.627 283.459V280.187Z" fill="#263238"/>
<path d="M101.066 69.7815L105.83 281.917L314.783 280.309V66.2188L101.066 69.7815Z" fill="white"/>
<path d="M101.068 69.7792L314.784 65.9707H315.044V66.2276C315.044 127.509 315.044 199.826 315.044 276.978V280.608H314.75L105.797 282.182H105.549V281.937C102.851 154.794 101.091 71.9682 101.034 69.7903C101.034 71.9347 103.043 154.794 106.046 281.914L105.797 281.669L314.75 280.027L314.457 280.317V276.967C314.457 199.815 314.457 127.498 314.457 66.2164L314.716 66.4733L101.068 69.7792Z" fill="#263238"/>
<path d="M100.231 71.1946L315.697 69.9772L315.968 61.0312L100.231 62.3603V71.1946Z" fill="#263238"/>
<path d="M203.376 287.697C203.015 287.697 202.631 286.033 202.529 283.956C202.428 281.878 202.653 280.181 203.015 280.158C203.376 280.136 203.76 281.811 203.861 283.889C203.963 285.966 203.748 287.697 203.376 287.697Z" fill="#263238"/>
<path d="M203.299 286.168C203.299 286.09 203.66 286.068 204.224 286.291C204.565 286.433 204.884 286.621 205.172 286.85C205.561 287.158 205.886 287.537 206.132 287.966C206.467 288.56 206.635 289.231 206.619 289.911C206.603 290.59 206.404 291.253 206.042 291.831C205.824 292.179 205.55 292.488 205.229 292.747C204.894 293.013 204.511 293.214 204.1 293.338C203.228 293.577 202.299 293.51 201.47 293.149C201.051 292.964 200.669 292.707 200.341 292.389C200.016 292.071 199.758 291.691 199.585 291.272C199.273 290.511 199.206 289.672 199.393 288.871C199.532 288.204 199.857 287.588 200.332 287.094C200.807 286.601 201.413 286.249 202.08 286.079C202.933 285.848 203.842 285.927 204.642 286.302C205.184 286.57 205.387 286.85 205.342 286.917C205.297 286.984 204.992 286.917 204.473 286.783C203.766 286.652 203.036 286.714 202.362 286.961C201.928 287.128 201.54 287.397 201.233 287.743C200.881 288.151 200.651 288.649 200.569 289.18C200.487 289.711 200.557 290.254 200.77 290.747C201.016 291.278 201.456 291.697 202.001 291.92C202.543 292.16 203.152 292.211 203.728 292.065C204.257 291.93 204.716 291.603 205.014 291.149C205.309 290.722 205.484 290.225 205.522 289.709C205.557 289.475 205.557 289.238 205.522 289.005C205.486 288.786 205.421 288.572 205.33 288.368C205.041 287.711 204.586 287.138 204.01 286.704C203.592 286.414 203.299 286.258 203.299 286.168Z" fill="#263238"/>
<path d="M234.384 185.868C234.384 185.868 234.384 185.868 234.248 185.868H233.864L232.374 185.935L226.629 186.181L205.499 186.963C187.654 187.611 162.991 188.471 135.765 189.398L126.397 189.71H126.182V189.498C124.286 164.849 122.57 142.758 121.385 126.876C120.798 118.946 120.335 112.569 120.008 108.18C119.861 105.946 119.737 104.282 119.658 103.132C119.658 102.551 119.591 102.115 119.579 101.814C119.568 101.512 119.579 101.557 119.579 101.479C119.579 101.401 119.579 101.367 119.579 101.367C119.584 101.404 119.584 101.442 119.579 101.479C119.579 101.557 119.579 101.669 119.579 101.814C119.579 101.959 119.647 102.551 119.703 103.121C119.794 104.237 119.94 105.969 120.132 108.169C120.482 112.558 121.001 118.935 121.645 126.843C122.909 142.68 124.647 164.715 126.566 189.465L126.34 189.264L135.709 188.94C162.934 188.024 187.631 187.209 205.443 186.65L226.584 186.002L232.329 185.846H233.819H234.338L234.384 185.868Z" fill="#455A64"/>
<path d="M158.722 94.4942V97.3422L188.498 95.935V93.5449L158.722 94.4942Z" fill="#263238"/>
<path d="M136.178 183.427H146.529L144.903 155.629H134.756L136.178 183.427Z" fill="#1D283C"/>
<path d="M154.94 183.433H165.279L163.665 144.578H153.518L154.94 183.433Z" fill="#1D283C"/>
<path d="M172.505 182.199H182.855L181.23 131.326H171.094L172.505 182.199Z" fill="#1D283C"/>
<path d="M212.799 180.215H223.138L221.524 110.881H211.377L212.799 180.215Z" fill="#1D283C"/>
<path d="M193.196 180.455H203.535L201.91 120.793H191.773L193.196 180.455Z" fill="#1D283C"/>
<path d="M129.681 148.422C129.41 148.009 147.899 135.813 170.959 121.182C194.019 106.551 212.959 95.0252 213.23 95.4943C213.501 95.9634 195.012 108.104 171.941 122.734C148.869 137.365 129.929 148.835 129.681 148.422Z" fill="#1D283C"/>
<path d="M202.991 95.4504C202.901 94.959 209.594 93.3061 217.97 91.7425L220.092 91.3516L218.884 93.1274L218.816 93.2279C214.03 100.264 209.786 105.748 209.391 105.513C208.996 105.279 212.529 99.3147 217.292 92.2674L217.36 92.1669L218.286 93.5518C209.922 95.0595 203.081 95.9307 202.991 95.4504Z" fill="#1D283C"/>
<path d="M134.756 192.82H145.569L145.908 194.719H134.756V192.82Z" fill="#263238"/>
<path d="M153.9 192.037H164.714L165.052 193.936H153.9V192.037Z" fill="#263238"/>
<path d="M173.61 191.48H184.424L184.762 193.379H173.61V191.48Z" fill="#263238"/>
<path d="M192.078 191.018H202.891L203.23 192.927H192.078V191.018Z" fill="#263238"/>
<path d="M214.957 190.344H225.77L226.109 192.254H214.957V190.344Z" fill="#263238"/>
<path d="M263.457 266.049C282.521 266.049 297.974 250.758 297.974 231.896C297.974 213.033 282.521 197.742 263.457 197.742C244.394 197.742 228.94 213.033 228.94 231.896C228.94 250.758 244.394 266.049 263.457 266.049Z" fill="#1D283C"/>
<path opacity="0.3" d="M263.457 266.049C282.521 266.049 297.974 250.758 297.974 231.896C297.974 213.033 282.521 197.742 263.457 197.742C244.394 197.742 228.94 213.033 228.94 231.896C228.94 250.758 244.394 266.049 263.457 266.049Z" fill="black"/>
<path d="M263.461 231.849L229.791 239.343C224.373 214.772 244.397 197.695 263.461 197.695" fill="#1D283C"/>
<path d="M263.503 231.849L263.277 197.695C288.697 197.695 301.293 220.691 297.23 239.119L263.503 231.849Z" fill="#1D283C"/>
<path d="M263.503 231.849L263.277 197.695C288.697 197.695 301.293 220.691 297.23 239.119L263.503 231.849Z" fill="#1D283C"/>
<path opacity="0.1" d="M263.503 231.849L263.277 197.695C288.697 197.695 301.293 220.691 297.23 239.119L263.503 231.849Z" fill="black"/>
<path d="M298.868 151.027C298.198 150.583 297.483 150.209 296.735 149.91C294.65 149.279 292.414 149.342 290.369 150.089C287.728 150.904 285.109 152.982 282.569 155.584C280.03 158.186 277.309 161.336 273.336 163.178C271.419 164.121 269.261 164.475 267.139 164.195C265.225 163.802 263.375 163.148 261.642 162.251C260.117 161.466 258.487 160.898 256.8 160.565C255.333 160.337 253.831 160.523 252.466 161.101C250.457 161.945 248.814 163.464 247.827 165.39C247.509 166.113 247.249 166.86 247.048 167.624C247.083 166.816 247.279 166.023 247.623 165.289C248.569 163.256 250.23 161.632 252.296 160.721C253.712 160.098 255.276 159.877 256.811 160.085C258.554 160.405 260.241 160.969 261.823 161.76C263.511 162.626 265.311 163.258 267.173 163.636C269.181 163.884 271.218 163.542 273.031 162.654C276.847 160.889 279.522 157.762 282.129 155.204C284.737 152.647 287.434 150.491 290.177 149.698C292.308 148.963 294.627 148.963 296.758 149.698C297.326 149.915 297.862 150.208 298.349 150.569C298.541 150.7 298.715 150.854 298.868 151.027Z" fill="#263238"/>
<path d="M301.792 173.091C301.792 173.259 289.534 173.382 274.42 173.382C259.306 173.382 247.048 173.259 247.048 173.091C247.048 172.924 259.306 172.801 274.42 172.801C289.534 172.801 301.792 172.935 301.792 173.091Z" fill="#263238"/>
<path d="M298.743 173.096C298.585 173.096 298.449 166.194 298.449 157.672C298.449 149.151 298.585 142.26 298.743 142.26C298.901 142.26 299.036 149.162 299.036 157.672C299.036 166.183 298.912 173.096 298.743 173.096Z" fill="#263238"/>
<path d="M252.563 160.106C252.563 160.106 252.484 159.994 252.563 159.793C252.615 159.652 252.698 159.524 252.805 159.418C252.912 159.312 253.042 159.23 253.184 159.179C253.399 159.085 253.635 159.051 253.868 159.081C254.101 159.11 254.321 159.202 254.505 159.347C254.704 159.567 254.821 159.848 254.838 160.144C254.854 160.439 254.769 160.731 254.596 160.972C254.423 161.214 254.172 161.39 253.885 161.472C253.598 161.554 253.291 161.537 253.015 161.424C252.82 161.309 252.661 161.145 252.551 160.949C252.442 160.752 252.388 160.531 252.394 160.307C252.392 160.158 252.419 160.01 252.476 159.872C252.532 159.734 252.615 159.609 252.721 159.503C252.891 159.369 253.015 159.369 253.026 159.391C253.037 159.414 252.721 159.715 252.8 160.285C252.816 160.431 252.866 160.572 252.946 160.696C253.027 160.82 253.135 160.924 253.263 160.999C253.421 161.039 253.588 161.03 253.741 160.975C253.895 160.919 254.028 160.819 254.123 160.688C254.218 160.556 254.271 160.4 254.274 160.238C254.278 160.077 254.232 159.918 254.144 159.782C254.03 159.69 253.896 159.627 253.752 159.598C253.609 159.568 253.46 159.574 253.32 159.615C252.744 159.704 252.642 160.128 252.563 160.106Z" fill="#263238"/>
<path d="M289.474 148.904C289.474 148.904 289.474 148.77 289.677 148.658C289.94 148.527 290.243 148.503 290.524 148.591C290.746 148.651 290.948 148.77 291.107 148.935C291.267 149.101 291.377 149.306 291.427 149.529C291.444 149.817 291.363 150.102 291.196 150.339C291.03 150.576 290.787 150.75 290.508 150.834C290.229 150.918 289.93 150.907 289.658 150.801C289.387 150.696 289.159 150.504 289.011 150.255C288.93 150.04 288.909 149.807 288.951 149.58C288.992 149.354 289.095 149.144 289.248 148.971C289.439 148.747 289.71 148.607 290.004 148.58C290.208 148.58 290.309 148.647 290.298 148.68C290.287 148.714 289.869 148.736 289.587 149.216C289.509 149.336 289.46 149.472 289.444 149.613C289.429 149.755 289.446 149.898 289.496 150.032C289.596 150.152 289.729 150.241 289.879 150.286C290.03 150.331 290.19 150.331 290.341 150.285C290.491 150.24 290.624 150.151 290.723 150.03C290.822 149.909 290.882 149.762 290.896 149.607C290.866 149.468 290.804 149.338 290.713 149.228C290.623 149.117 290.508 149.029 290.377 148.971C289.88 148.725 289.53 148.982 289.474 148.904Z" fill="#263238"/>
<path d="M297.774 112.349C297.774 112.505 285.9 112.639 271.26 112.639C256.62 112.639 244.746 112.505 244.746 112.349C244.746 112.193 256.609 112.059 271.26 112.059C285.911 112.059 297.774 112.215 297.774 112.349Z" fill="#263238"/>
<path d="M297.774 119.665C297.774 119.833 285.9 119.956 271.26 119.956C256.62 119.956 244.746 119.833 244.746 119.665C244.746 119.498 256.609 119.375 271.26 119.375C285.911 119.375 297.774 119.509 297.774 119.665Z" fill="#263238"/>
<path d="M297.774 126.958C297.774 127.115 285.9 127.249 271.26 127.249C256.62 127.249 244.746 127.115 244.746 126.958C244.746 126.802 256.609 126.668 271.26 126.668C285.911 126.668 297.774 126.791 297.774 126.958Z" fill="#263238"/>
<path d="M297.774 134.244C297.774 134.411 285.9 134.534 271.26 134.534C256.62 134.534 244.746 134.411 244.746 134.244C244.746 134.076 256.609 133.953 271.26 133.953C285.911 133.953 297.774 134.087 297.774 134.244Z" fill="#263238"/>
<path d="M272.965 99.0547H244.746V101.411H272.965V99.0547Z" fill="#263238"/>
<path d="M156.476 216.051H128.258V218.407H156.476V216.051Z" fill="#263238"/>
<path d="M205.476 229.71C205.476 229.878 188.353 230.001 167.235 230.001C146.116 230.001 128.981 229.878 128.981 229.71C128.981 229.543 146.104 229.42 167.235 229.42C188.365 229.42 205.476 229.554 205.476 229.71Z" fill="#263238"/>
<path d="M205.928 236.318C205.928 236.474 188.5 236.608 167.009 236.608C145.518 236.608 128.09 236.474 128.09 236.318C128.09 236.161 145.506 236.027 167.009 236.027C188.511 236.027 205.928 236.184 205.928 236.318Z" fill="#263238"/>
<path d="M206.819 242.55C206.819 242.706 189.29 242.841 167.674 242.841C146.059 242.841 128.529 242.706 128.529 242.55C128.529 242.394 146.059 242.26 167.674 242.26C189.29 242.26 206.819 242.383 206.819 242.55Z" fill="#263238"/>
<path d="M169.244 249.189C169.244 249.345 160.214 249.479 149.107 249.479C138 249.479 128.981 249.345 128.981 249.189C128.981 249.032 138.011 248.898 149.107 248.898C160.202 248.898 169.244 249.032 169.244 249.189Z" fill="#263238"/>
<path d="M46.3301 429.977V419.925L27.2205 419.758L27.0625 434.534L28.1912 434.612C33.4625 434.936 55.0102 435.885 58.5431 434.858C62.5389 433.696 46.3301 429.977 46.3301 429.977Z" fill="#1D283C"/>
<path d="M59.0503 433.929C59.0503 434.108 51.9053 434.253 43.0899 434.253C34.2744 434.253 27.1182 434.108 27.1182 433.929C27.1182 433.751 34.2744 433.605 43.0899 433.605C51.9053 433.605 59.0503 433.751 59.0503 433.929Z" fill="#263238"/>
<path d="M46.6672 432.048C46.5092 431.959 46.6672 431.412 47.051 430.931C47.4348 430.451 47.9652 430.138 48.0781 430.261C48.191 430.384 47.9427 430.842 47.5702 431.378C47.1977 431.914 46.8252 432.137 46.6672 432.048Z" fill="#263238"/>
<path d="M47.8877 432.703C47.7184 432.636 47.8087 432.032 48.1812 431.407C48.5537 430.782 49.0503 430.402 49.1858 430.514C49.3212 430.625 49.0955 431.15 48.7456 431.731C48.3957 432.312 48.057 432.77 47.8877 432.703Z" fill="#263238"/>
<path d="M32.8645 433.858C32.7855 433.914 32.492 433.646 32.0744 433.199C31.566 432.615 31.0029 432.08 30.3926 431.602C29.7839 431.159 29.0745 430.872 28.327 430.764C27.7513 430.686 27.3788 430.764 27.345 430.675C27.3111 430.585 27.6723 430.351 28.3382 430.306C29.2159 430.281 30.0759 430.553 30.7763 431.077C31.444 431.583 32.0105 432.208 32.4469 432.92C32.7968 433.445 32.9548 433.802 32.8645 433.858Z" fill="#263238"/>
<path d="M46.7236 430.141C46.8139 430.286 46.4753 430.644 45.9335 430.834C45.3917 431.024 44.9064 430.957 44.8838 430.778C44.8612 430.599 45.2337 430.398 45.7191 430.231C46.2044 430.063 46.6221 429.985 46.7236 430.141Z" fill="#263238"/>
<path d="M46.4079 429.158C46.4079 429.336 45.9112 429.493 45.2791 429.504C44.647 429.515 44.1504 429.37 44.1504 429.191C44.1504 429.012 44.6696 428.867 45.2791 428.856C45.8887 428.845 46.4079 428.979 46.4079 429.158Z" fill="#1D283C"/>
<path d="M59.0503 433.929C59.0503 434.108 51.9053 434.253 43.0899 434.253C34.2744 434.253 27.1182 434.108 27.1182 433.929C27.1182 433.751 34.2744 433.605 43.0899 433.605C51.9053 433.605 59.0503 433.751 59.0503 433.929Z" fill="#263238"/>
<path d="M46.6672 432.048C46.5092 431.959 46.6672 431.412 47.051 430.931C47.4348 430.451 47.9652 430.138 48.0781 430.261C48.191 430.384 47.9427 430.842 47.5702 431.378C47.1977 431.914 46.8252 432.137 46.6672 432.048Z" fill="#263238"/>
<path d="M47.8877 432.703C47.7184 432.636 47.8087 432.032 48.1812 431.407C48.5537 430.782 49.0503 430.402 49.1858 430.514C49.3212 430.625 49.0955 431.15 48.7456 431.731C48.3957 432.312 48.057 432.77 47.8877 432.703Z" fill="#263238"/>
<path d="M32.8645 433.858C32.7855 433.914 32.492 433.646 32.0744 433.199C31.566 432.615 31.0029 432.08 30.3926 431.602C29.7839 431.159 29.0745 430.872 28.327 430.764C27.7513 430.686 27.3788 430.764 27.345 430.675C27.3111 430.585 27.6723 430.351 28.3382 430.306C29.2159 430.281 30.0759 430.553 30.7763 431.077C31.444 431.583 32.0105 432.208 32.4469 432.92C32.7968 433.445 32.9548 433.802 32.8645 433.858Z" fill="#263238"/>
<path d="M46.7236 430.141C46.8139 430.286 46.4753 430.644 45.9335 430.834C45.3917 431.024 44.9064 430.957 44.8838 430.778C44.8612 430.599 45.2337 430.398 45.7191 430.231C46.2044 430.063 46.6221 429.985 46.7236 430.141Z" fill="#263238"/>
<path d="M46.4079 429.158C46.4079 429.336 45.9112 429.493 45.2791 429.504C44.647 429.515 44.1504 429.37 44.1504 429.191C44.1504 429.012 44.6696 428.867 45.2791 428.856C45.8887 428.845 46.4079 428.979 46.4079 429.158Z" fill="#263238"/>
<path d="M66.4906 426.406L69.5044 416.767L51.2865 411.049L46.7715 425.11L47.9002 425.534C52.8328 427.388 73.1389 434.603 76.8186 434.659C80.8595 434.704 66.4906 426.406 66.4906 426.406Z" fill="#1D283C"/>
<path d="M77.4589 433.901C77.4589 434.08 70.5285 432.125 62.108 429.534C53.6876 426.943 46.9039 424.721 46.9603 424.553C47.0167 424.385 53.8795 426.34 62.3112 428.92C70.7429 431.5 77.5154 433.734 77.4589 433.901Z" fill="#263238"/>
<path d="M66.1923 428.462C66.0682 428.328 66.3616 427.859 66.9034 427.468C67.4452 427.077 68.0322 426.977 68.0886 427.133C68.1451 427.289 67.7839 427.647 67.2872 428.004C66.7906 428.362 66.3165 428.585 66.1923 428.462Z" fill="#263238"/>
<path d="M67.1535 429.466C67.0181 429.354 67.2777 428.796 67.8308 428.349C68.3838 427.902 68.9595 427.645 69.0611 427.791C69.1627 427.936 68.7789 428.371 68.271 428.829C67.763 429.287 67.3003 429.533 67.1535 429.466Z" fill="#263238"/>
<path d="M52.4792 426.178C52.3889 426.178 52.197 425.876 51.9374 425.318C51.6274 424.613 51.2494 423.94 50.8087 423.307C50.3605 422.708 49.7717 422.225 49.093 421.9C48.5625 421.666 48.1787 421.621 48.1787 421.532C48.1787 421.442 48.585 421.308 49.2397 421.465C50.0816 421.701 50.8177 422.213 51.3279 422.916C51.8112 423.592 52.1668 424.349 52.3776 425.15C52.5244 425.753 52.5582 426.178 52.4792 426.178Z" fill="#455A64"/>
<path d="M66.8178 426.666C66.8178 426.834 66.434 427.079 65.8584 427.102C65.2827 427.124 64.8312 426.912 64.8651 426.733C64.8989 426.554 65.3279 426.476 65.8358 426.454C66.3437 426.432 66.7275 426.487 66.8178 426.666Z" fill="#263238"/>
<path d="M66.8167 425.66C66.8167 425.828 66.2523 425.828 65.6315 425.66C65.0107 425.493 64.5705 425.191 64.6269 425.024C64.6834 424.856 65.2252 424.867 65.8121 425.024C66.3991 425.18 66.8619 425.482 66.8167 425.66Z" fill="#263238"/>
<path d="M79.455 230.316L54.3743 228.406L16.3809 225.357L20.6249 427.296L53.6181 426.871C53.6181 426.871 53.6181 424.638 53.5391 420.684L72.8857 425.922C72.8857 425.922 91.7357 362.909 98.1583 337.054C103.52 315.51 79.455 230.316 79.455 230.316ZM53.1779 389.323C52.6812 342.705 52.1056 263.431 52.7941 253.737C52.7941 253.737 71.17 323.529 71.3393 329.035C71.4522 332.363 61.2145 364.573 53.1779 389.323Z" fill="#455A64"/>
<path d="M53.7987 419.22C53.7987 419.399 46.4167 419.544 37.3191 419.544C28.2214 419.544 20.8281 419.399 20.8281 419.22C20.8281 419.042 28.2101 418.896 37.3191 418.896C46.428 418.896 53.7987 419.042 53.7987 419.22Z" fill="#455A64"/>
<path d="M53.5078 411.963C54.5398 412.205 55.5512 412.526 56.5329 412.923L64.0841 415.526L71.6354 418.139C72.7034 418.441 73.7391 418.845 74.7282 419.345C73.6255 419.194 72.5405 418.935 71.4887 418.575C69.5247 418.005 66.827 417.156 63.8697 416.14C60.9124 415.124 58.226 414.118 56.3748 413.348C55.3589 413.02 54.394 412.554 53.5078 411.963Z" fill="#455A64"/>
<path d="M83.7359 328.416C81.6953 328.886 79.6112 329.148 77.5165 329.197C75.439 329.46 73.3396 329.509 71.252 329.343C73.2913 328.864 75.3759 328.598 77.4713 328.55C79.549 328.287 81.6487 328.243 83.7359 328.416Z" fill="#455A64"/>
<path d="M81.5808 332.072C79.9582 331.936 78.3606 331.591 76.8288 331.044C75.2346 330.7 73.6936 330.148 72.2461 329.402C73.8733 329.524 75.4759 329.866 77.0094 330.419C79.5829 331.156 81.6372 331.893 81.5808 332.072Z" fill="#455A64"/>
<path d="M55.8341 228.664C55.9857 229.939 56.0423 231.223 56.0034 232.506C56.0034 234.885 56.0034 238.169 56.0034 241.798C56.0034 243.596 56.0034 245.316 55.9357 246.902C55.977 248.331 55.7075 249.752 55.1455 251.068C54.7452 251.965 54.1052 252.738 53.2944 253.302C53.0179 253.529 52.6878 253.682 52.335 253.749C52.335 253.749 52.651 253.548 53.1589 253.123C53.8717 252.519 54.4256 251.752 54.773 250.889C55.2437 249.61 55.4546 248.251 55.3939 246.891C55.3939 245.294 55.3939 243.541 55.3939 241.776C55.3939 238.146 55.4842 234.863 55.5519 232.495C55.5483 231.213 55.6426 229.932 55.8341 228.664Z" fill="#455A64"/>
<path d="M36.9482 227.52C36.9603 227.683 36.9603 227.847 36.9482 228.011C36.9482 228.368 36.9482 228.849 36.9482 229.463C36.9482 230.758 36.8466 232.635 36.7675 235.047C36.6095 239.905 36.3838 246.886 36.1016 255.497C35.5711 272.763 35.0293 296.63 34.8938 322.977C34.7584 349.324 35.0632 373.235 35.4131 390.491C35.6049 399.102 35.7517 406.127 35.8646 410.94C35.8646 413.342 35.9549 415.207 35.9887 416.525C35.9887 417.139 35.9887 417.642 35.9887 417.977C36.0009 418.14 36.0009 418.304 35.9887 418.468C35.9766 418.304 35.9766 418.14 35.9887 417.977C35.9887 417.63 35.9887 417.15 35.9097 416.536C35.9097 415.229 35.7855 413.364 35.684 410.952C35.4921 406.127 35.2663 399.135 35.0406 390.502C34.5778 373.224 34.2166 349.357 34.352 322.977C34.4875 296.597 35.097 272.719 35.7291 255.486C36.0452 246.852 36.3386 239.85 36.587 235.036C36.7111 232.646 36.8127 230.781 36.8804 229.452C36.8804 228.837 36.9481 228.335 36.9707 228C36.9516 227.84 36.944 227.68 36.9482 227.52Z" fill="#455A64"/>
<path d="M71.2397 232.604C71.3082 232.752 71.3648 232.905 71.409 233.061C71.5106 233.396 71.6573 233.843 71.8379 234.424C72.1991 235.619 72.7748 237.384 73.4069 239.684C74.7049 244.275 76.4545 250.942 78.4072 259.24C80.3599 267.539 82.5271 277.434 84.7846 288.469C87.0421 299.503 89.4237 311.654 91.557 324.476C91.8279 326.084 92.0763 327.681 92.2907 329.278C92.2907 329.703 92.3697 330.138 92.3697 330.552L92.1666 331.736C92.0198 332.528 91.9069 333.321 91.7264 334.092C91.083 337.197 90.3606 340.235 89.5817 343.206C88.0467 349.147 86.4213 354.832 84.8185 360.238C81.6354 371.049 78.5652 380.721 75.9578 388.84C73.3504 396.96 71.172 403.493 69.6369 408.005L67.8535 413.199L67.3681 414.55C67.326 414.706 67.2654 414.856 67.1875 414.997C67.217 414.838 67.2585 414.681 67.3117 414.528C67.4245 414.193 67.56 413.746 67.7406 413.165L69.4224 407.938L75.5628 388.717C78.1137 380.587 81.1388 370.904 84.2992 360.092C85.8795 354.687 87.4936 348.991 89.0287 343.06C89.7962 340.101 90.5186 337.074 91.162 333.98C91.3426 333.21 91.4442 332.428 91.5796 331.646L91.7828 330.473C91.7828 330.094 91.7264 329.725 91.7038 329.357C91.4893 327.782 91.2523 326.185 90.9814 324.588C88.8368 311.777 86.4664 299.626 84.2089 288.591C81.9515 277.557 79.9084 267.583 78.0121 259.33C76.1158 251.076 74.4114 244.342 73.1811 239.74C72.5942 237.44 72.0524 235.664 71.725 234.457L71.3526 233.084C71.2971 232.928 71.2593 232.767 71.2397 232.604Z" fill="#455A64"/>
<path d="M53.0799 385.225C53.1708 385.744 53.2049 386.272 53.1815 386.799C53.1815 387.916 53.1815 389.379 53.2379 391.11C53.2379 394.852 53.3734 399.822 53.4524 405.306C53.5314 410.789 53.7459 415.759 53.8475 419.501C53.8475 421.232 53.9378 422.684 53.9716 423.812C54.0226 424.336 54.0226 424.863 53.9716 425.387C53.8471 424.874 53.779 424.35 53.7685 423.823C53.6782 422.807 53.5766 421.344 53.4637 419.523C53.2379 415.893 53.0235 410.868 52.8993 405.317C52.7752 399.766 52.7977 394.74 52.8993 391.11C52.8993 389.29 52.9783 387.76 53.0235 386.799C53.0006 386.274 53.0195 385.747 53.0799 385.225Z" fill="#455A64"/>
<path d="M79.455 230.316L54.3743 228.406L16.3809 225.357L20.6249 427.296L53.6181 426.871C53.6181 426.871 53.6181 424.638 53.5391 420.684L72.8857 425.922C72.8857 425.922 91.7357 362.909 98.1583 337.054C103.52 315.51 79.455 230.316 79.455 230.316ZM53.1779 389.323C52.6812 342.705 52.1056 263.431 52.7941 253.737C52.7941 253.737 71.17 323.529 71.3393 329.035C71.4522 332.363 61.2145 364.573 53.1779 389.323Z" fill="#263238"/>
<path d="M53.7987 419.22C53.7987 419.399 46.4167 419.544 37.3191 419.544C28.2214 419.544 20.8281 419.399 20.8281 419.22C20.8281 419.042 28.2101 418.896 37.3191 418.896C46.428 418.896 53.7987 419.042 53.7987 419.22Z" fill="#455A64"/>
<path d="M53.5078 411.963C54.5398 412.205 55.5512 412.526 56.5329 412.923L64.0841 415.526L71.6354 418.139C72.7034 418.441 73.7391 418.845 74.7282 419.345C73.6255 419.194 72.5405 418.935 71.4887 418.575C69.5247 418.005 66.827 417.156 63.8697 416.14C60.9124 415.124 58.226 414.118 56.3748 413.348C55.3589 413.02 54.394 412.554 53.5078 411.963Z" fill="#455A64"/>
<path d="M83.7359 328.416C81.6953 328.886 79.6112 329.148 77.5165 329.197C75.439 329.46 73.3396 329.509 71.252 329.343C73.2913 328.864 75.3759 328.598 77.4713 328.55C79.549 328.287 81.6487 328.243 83.7359 328.416Z" fill="#455A64"/>
<path d="M81.5808 332.072C79.9582 331.936 78.3606 331.591 76.8288 331.044C75.2346 330.7 73.6936 330.148 72.2461 329.402C73.8733 329.524 75.4759 329.866 77.0094 330.419C79.5829 331.156 81.6372 331.893 81.5808 332.072Z" fill="#455A64"/>
<path d="M55.8341 228.664C55.9857 229.939 56.0423 231.223 56.0034 232.506C56.0034 234.885 56.0034 238.169 56.0034 241.798C56.0034 243.596 56.0034 245.316 55.9357 246.902C55.977 248.331 55.7075 249.752 55.1455 251.068C54.7452 251.965 54.1052 252.738 53.2944 253.302C53.0179 253.529 52.6878 253.682 52.335 253.749C52.335 253.749 52.651 253.548 53.1589 253.123C53.8717 252.519 54.4256 251.752 54.773 250.889C55.2437 249.61 55.4546 248.251 55.3939 246.891C55.3939 245.294 55.3939 243.541 55.3939 241.776C55.3939 238.146 55.4842 234.863 55.5519 232.495C55.5483 231.213 55.6426 229.932 55.8341 228.664Z" fill="#455A64"/>
<path d="M36.9482 227.52C36.9603 227.683 36.9603 227.847 36.9482 228.011C36.9482 228.368 36.9482 228.849 36.9482 229.463C36.9482 230.758 36.8466 232.635 36.7675 235.047C36.6095 239.905 36.3838 246.886 36.1016 255.497C35.5711 272.763 35.0293 296.63 34.8938 322.977C34.7584 349.324 35.0632 373.235 35.4131 390.491C35.6049 399.102 35.7517 406.127 35.8646 410.94C35.8646 413.342 35.9549 415.207 35.9887 416.525C35.9887 417.139 35.9887 417.642 35.9887 417.977C36.0009 418.14 36.0009 418.304 35.9887 418.468C35.9766 418.304 35.9766 418.14 35.9887 417.977C35.9887 417.63 35.9887 417.15 35.9097 416.536C35.9097 415.229 35.7855 413.364 35.684 410.952C35.4921 406.127 35.2663 399.135 35.0406 390.502C34.5778 373.224 34.2166 349.357 34.352 322.977C34.4875 296.597 35.097 272.719 35.7291 255.486C36.0452 246.852 36.3386 239.85 36.587 235.036C36.7111 232.646 36.8127 230.781 36.8804 229.452C36.8804 228.837 36.9481 228.335 36.9707 228C36.9516 227.84 36.944 227.68 36.9482 227.52Z" fill="#455A64"/>
<path d="M71.2397 232.604C71.3082 232.752 71.3648 232.905 71.409 233.061C71.5106 233.396 71.6573 233.843 71.8379 234.424C72.1991 235.619 72.7748 237.384 73.4069 239.684C74.7049 244.275 76.4545 250.942 78.4072 259.24C80.3599 267.539 82.5271 277.434 84.7846 288.469C87.0421 299.503 89.4237 311.654 91.557 324.476C91.8279 326.084 92.0763 327.681 92.2907 329.278C92.2907 329.703 92.3697 330.138 92.3697 330.552L92.1666 331.736C92.0198 332.528 91.9069 333.321 91.7264 334.092C91.083 337.197 90.3606 340.235 89.5817 343.206C88.0467 349.147 86.4213 354.832 84.8185 360.238C81.6354 371.049 78.5652 380.721 75.9578 388.84C73.3504 396.96 71.172 403.493 69.6369 408.005L67.8535 413.199L67.3681 414.55C67.326 414.706 67.2654 414.856 67.1875 414.997C67.217 414.838 67.2585 414.681 67.3117 414.528C67.4245 414.193 67.56 413.746 67.7406 413.165L69.4224 407.938L75.5628 388.717C78.1137 380.587 81.1388 370.904 84.2992 360.092C85.8795 354.687 87.4936 348.991 89.0287 343.06C89.7962 340.101 90.5186 337.074 91.162 333.98C91.3426 333.21 91.4442 332.428 91.5796 331.646L91.7828 330.473C91.7828 330.094 91.7264 329.725 91.7038 329.357C91.4893 327.782 91.2523 326.185 90.9814 324.588C88.8368 311.777 86.4664 299.626 84.2089 288.591C81.9515 277.557 79.9084 267.583 78.0121 259.33C76.1158 251.076 74.4114 244.342 73.1811 239.74C72.5942 237.44 72.0524 235.664 71.725 234.457L71.3526 233.084C71.2971 232.928 71.2593 232.767 71.2397 232.604Z" fill="#455A64"/>
<path d="M53.0799 385.225C53.1708 385.744 53.2049 386.272 53.1815 386.799C53.1815 387.916 53.1815 389.379 53.2379 391.11C53.2379 394.852 53.3734 399.822 53.4524 405.306C53.5314 410.789 53.7459 415.759 53.8475 419.501C53.8475 421.232 53.9378 422.684 53.9716 423.812C54.0226 424.336 54.0226 424.863 53.9716 425.387C53.8471 424.874 53.779 424.35 53.7685 423.823C53.6782 422.807 53.5766 421.344 53.4637 419.523C53.2379 415.893 53.0235 410.868 52.8993 405.317C52.7752 399.766 52.7977 394.74 52.8993 391.11C52.8993 389.29 52.9783 387.76 53.0235 386.799C53.0006 386.274 53.0195 385.747 53.0799 385.225Z" fill="#455A64"/>
<path d="M36.249 133.4L55.4376 134.808C55.6972 132.574 56.0697 124.075 56.0697 124.075C56.0697 124.075 64.0725 123.349 64.6595 115.508C65.2464 107.668 64.9981 89.5638 64.9981 89.5638C60.6111 87.3698 55.7113 86.3755 50.8057 86.6838C45.9001 86.9921 41.1668 88.5917 37.0956 91.3172L35.8652 92.1437L36.249 133.4Z" fill="#EA9D85"/>
<path d="M62.2674 102.921C62.1154 102.763 62.0136 102.564 61.9747 102.349C61.9358 102.134 61.9615 101.912 62.0486 101.711C62.1357 101.511 62.2804 101.34 62.4647 101.219C62.6491 101.099 62.865 101.035 63.0858 101.035C63.3065 101.035 63.5225 101.099 63.7068 101.219C63.8912 101.34 64.0359 101.511 64.123 101.711C64.2101 101.912 64.2358 102.134 64.1969 102.349C64.158 102.564 64.0562 102.763 63.9041 102.921C63.7987 103.031 63.6717 103.119 63.5311 103.178C63.3904 103.238 63.2389 103.269 63.0858 103.269C62.9327 103.269 62.7812 103.238 62.6405 103.178C62.4998 103.119 62.3729 103.031 62.2674 102.921Z" fill="#263238"/>
<path d="M64.3014 101.255C64.1659 101.389 63.4322 100.752 62.3374 100.674C61.2425 100.596 60.4185 101.109 60.3056 100.964C60.1928 100.819 60.3846 100.663 60.7571 100.428C61.2374 100.116 61.8103 99.9743 62.3825 100.026C62.959 100.06 63.5074 100.284 63.9402 100.663C64.2675 100.942 64.3691 101.176 64.3014 101.255Z" fill="#263238"/>
<path d="M51.6568 101.434C51.8356 101.563 51.972 101.741 52.0491 101.947C52.1262 102.152 52.1406 102.375 52.0905 102.588C52.0404 102.802 51.928 102.996 51.7673 103.146C51.6066 103.297 51.4047 103.398 51.1868 103.436C50.9688 103.474 50.7443 103.447 50.5413 103.36C50.3383 103.273 50.1657 103.128 50.0449 102.945C49.9242 102.761 49.8607 102.546 49.8623 102.327C49.8639 102.108 49.9306 101.895 50.054 101.713C50.1387 101.588 50.2481 101.481 50.3754 101.399C50.5028 101.317 50.6457 101.262 50.7953 101.236C50.945 101.21 51.0985 101.214 51.2465 101.248C51.3945 101.282 51.5341 101.345 51.6568 101.434Z" fill="#263238"/>
<path d="M52.3815 101.484C52.2461 101.607 51.5124 100.971 50.4175 100.893C49.3226 100.814 48.4987 101.339 48.3858 101.194C48.2729 101.049 48.4648 100.881 48.826 100.647C49.3153 100.346 49.888 100.205 50.4627 100.245C51.0375 100.286 51.5836 100.509 52.0203 100.881C52.3477 101.172 52.4493 101.429 52.3815 101.484Z" fill="#263238"/>
<path d="M56.2058 110.672C56.7832 110.496 57.3849 110.409 57.9893 110.415C58.2827 110.415 58.5198 110.36 58.5536 110.203C58.5822 109.915 58.5274 109.624 58.3956 109.366L57.6732 107.132C56.9781 105.222 56.4679 103.251 56.1494 101.246C57.0241 103.08 57.7232 104.99 58.2376 106.953L58.9148 109.187C59.0778 109.557 59.1096 109.97 59.0051 110.36C58.9577 110.464 58.8859 110.556 58.7957 110.628C58.7054 110.7 58.5993 110.749 58.4859 110.773C58.3248 110.794 58.1617 110.794 58.0006 110.773C57.4007 110.834 56.7948 110.801 56.2058 110.672Z" fill="#263238"/>
<path d="M52.5824 111.636C51.4537 110.899 55.6074 113.479 57.8423 113.513C57.4364 114.057 56.8556 114.448 56.1951 114.623C55.5347 114.797 54.8339 114.745 54.2078 114.473C51.8826 113.457 52.5824 111.636 52.5824 111.636Z" fill="white"/>
<path d="M56.0259 123.953C52.3608 123.8 48.8246 122.571 45.8672 120.424C45.8672 120.424 47.9554 126.22 55.913 126.008L56.0259 123.953Z" fill="#4B5E84"/>
<path d="M37.3787 99.099C37.1981 99.032 31.4866 98.2949 32.0284 104.974C32.5702 111.652 39.2072 108.894 39.1959 108.704C39.1846 108.514 37.3787 99.099 37.3787 99.099Z" fill="#EA9D85"/>
<path d="M36.8814 106.522C36.8814 106.522 36.7798 106.612 36.588 106.723C36.3162 106.861 36.002 106.893 35.7075 106.813C35.2505 106.571 34.8659 106.215 34.5924 105.78C34.3189 105.344 34.1663 104.846 34.1499 104.333C34.0876 103.763 34.1571 103.186 34.353 102.647C34.3982 102.433 34.4946 102.233 34.634 102.064C34.7735 101.895 34.952 101.762 35.1544 101.675C35.2878 101.633 35.4317 101.636 35.5628 101.685C35.694 101.733 35.8046 101.824 35.8768 101.943C35.9784 102.122 35.9559 102.256 35.9897 102.267C36.0236 102.278 36.1252 102.144 35.9897 101.876C35.9426 101.712 35.8387 101.57 35.6962 101.474C35.496 101.356 35.2586 101.316 35.0303 101.362C34.7614 101.438 34.5166 101.58 34.319 101.775C34.1214 101.971 33.9777 102.213 33.9015 102.479C33.6581 103.077 33.5689 103.726 33.6419 104.367C33.6545 104.963 33.8456 105.543 34.1912 106.032C34.5368 106.521 35.0213 106.898 35.5834 107.114C35.7684 107.153 35.9597 107.149 36.1434 107.105C36.327 107.061 36.4982 106.976 36.6444 106.857C36.8814 106.69 36.9153 106.533 36.8814 106.522Z" fill="#4B5E84"/>
<path d="M65.5077 86.733C65.9645 86.721 66.4124 86.605 66.8168 86.3943C67.2211 86.1836 67.5711 85.8836 67.8395 85.5177C68.108 85.1517 68.2878 84.7296 68.365 84.2839C68.4423 83.8382 68.4149 83.3809 68.285 82.9474C68.155 82.5138 67.9261 82.1157 67.6158 81.7837C67.3055 81.4517 66.9222 81.1948 66.4955 81.0328C66.0688 80.8708 65.6102 80.8081 65.1551 80.8495C64.7 80.8909 64.2607 81.0353 63.871 81.2716C64.8149 80.4963 65.584 79.5337 66.1285 78.446C66.3918 77.8974 66.4789 77.2821 66.378 76.683C66.2771 76.0839 65.993 75.5299 65.5641 75.0954C65.0674 74.7702 64.4928 74.5804 63.8983 74.5451C63.3037 74.5098 62.7103 74.6303 62.1779 74.8944C60.4961 75.6092 59.1641 77.0164 57.4372 77.6083C55.7102 78.2003 53.78 77.9099 51.9289 77.9881C49.8517 78.0247 47.84 78.713 46.1836 79.9537C44.7722 81.051 43.8587 82.6578 43.6439 84.4211C43.4221 84.1197 43.1768 83.8359 42.9102 83.5723C42.0324 82.5357 40.8481 81.7974 39.524 81.4615C39.445 81.6067 40.9914 82.4555 42.47 83.9744C42.8726 84.3555 43.2496 84.7622 43.5988 85.1918C41.0252 84.8791 38.1921 84.8567 36.1604 86.4427C35.3373 87.1686 34.6867 88.0658 34.2555 89.0699C33.8242 90.074 33.6228 91.1601 33.6658 92.2503C33.6658 94.417 34.5688 96.4832 35.2122 98.5605C35.3678 99.149 35.636 99.7026 36.0023 100.191L36.9731 105.775L40.506 105.708L40.2803 93.9926C40.2803 93.9926 39.9191 89.0561 44.2083 89.5252C48.4975 89.9943 54.367 94.7409 62.6971 93.5347C64.0639 93.4593 65.3956 93.0774 66.5913 92.4178C67.17 92.0551 67.6404 91.546 67.954 90.9433C68.2675 90.3406 68.4127 89.6659 68.3747 88.9891C68.2925 88.3156 67.9456 87.7012 67.409 87.279C66.8724 86.8567 66.1893 86.6606 65.5077 86.733Z" fill="#263238"/>
<path d="M137.295 144.55L137.814 140.999C138.345 139.056 138.677 137.065 138.807 135.057C138.892 134.059 138.801 133.053 138.536 132.086C138.27 130.869 137.829 129.695 137.227 128.601C136.572 127.652 137.43 126.368 138.356 126.759C139.281 127.15 141.212 129.674 141.832 133.315C142.453 136.956 145.354 131.907 146.438 130.087C147.521 128.266 151.167 122.783 152.002 122.671C153.221 122.503 153.628 123.788 152.488 125.564C151.348 127.339 148.345 132.98 149.35 133.493C150.102 133.374 150.871 133.412 151.607 133.605C151.726 133.639 151.831 133.71 151.908 133.806C151.985 133.902 152.03 134.019 152.036 134.141C152.032 134.704 152.093 135.266 152.217 135.816C152.217 135.816 153.695 135.481 154 136.118C154.206 136.772 154.302 137.455 154.282 138.139C154.282 138.139 155.411 137.76 155.953 138.139C157.082 139.044 155.637 140.596 155.637 140.596C152.313 144.519 148.743 148.231 144.948 151.709L137.171 144.293" fill="#EA9D85"/>
<path d="M151.766 136.066C151.434 136.756 150.988 137.386 150.445 137.931C149.994 138.467 149.429 139.048 148.763 139.751C148.416 140.117 148.039 140.453 147.635 140.756C147.386 140.952 147.086 141.073 146.769 141.104C146.453 141.136 146.135 141.077 145.851 140.935C145.697 140.845 145.566 140.721 145.47 140.571C145.374 140.422 145.315 140.252 145.298 140.075C145.275 139.76 145.346 139.446 145.501 139.17C145.779 138.756 146.081 138.357 146.404 137.975C146.98 137.261 147.454 136.59 147.849 136.01C148.228 135.353 148.662 134.729 149.147 134.145C148.959 134.887 148.638 135.591 148.199 136.222C147.789 136.94 147.337 137.634 146.845 138.299C146.545 138.655 146.266 139.028 146.009 139.416C145.806 139.785 145.817 140.243 146.145 140.41C146.329 140.487 146.531 140.514 146.729 140.489C146.927 140.463 147.115 140.386 147.273 140.265C147.648 139.984 148.003 139.678 148.334 139.349C149.012 138.724 149.599 138.132 150.084 137.629C150.59 137.053 151.153 136.529 151.766 136.066Z" fill="#4B5E84"/>
<path d="M153.741 138.352C153.409 138.948 152.982 139.488 152.477 139.95C151.967 140.49 151.412 140.987 150.817 141.435C150.461 141.702 150.083 141.941 149.689 142.15C149.454 142.266 149.203 142.345 148.944 142.384C148.787 142.41 148.626 142.402 148.473 142.361C148.319 142.321 148.176 142.249 148.052 142.15C147.844 141.937 147.712 141.661 147.677 141.367C147.642 141.072 147.707 140.774 147.86 140.519C148.089 140.121 148.357 139.747 148.661 139.402C149.158 138.833 149.621 138.285 150.084 137.738C150.908 136.8 151.449 136.253 151.517 136.297C151.219 136.911 150.84 137.482 150.388 137.995L149.124 139.771C148.858 140.087 148.616 140.423 148.402 140.776C148.315 140.919 148.275 141.084 148.287 141.25C148.299 141.416 148.363 141.574 148.47 141.703C148.673 141.893 149.102 141.815 149.474 141.636C149.845 141.446 150.203 141.234 150.546 140.999C151.133 140.585 151.695 140.138 152.228 139.659C152.677 139.164 153.185 138.726 153.741 138.352Z" fill="#4B5E84"/>
<path d="M154.204 141.548C154.26 141.548 154.204 142.051 153.673 142.665C153.512 142.855 153.314 143.011 153.092 143.124C152.869 143.238 152.625 143.305 152.375 143.324C152.052 143.326 151.737 143.22 151.483 143.022C151.343 142.906 151.231 142.761 151.155 142.597C151.079 142.432 151.041 142.254 151.043 142.073C151.132 141.504 151.365 140.966 151.72 140.509C151.958 140.141 152.219 139.786 152.499 139.448C152.985 138.868 153.334 138.566 153.402 138.622C153.47 138.678 153.222 139.057 152.838 139.739C152.612 140.13 152.386 140.487 152.183 140.856C151.911 141.249 151.723 141.694 151.63 142.162C151.639 142.352 151.721 142.531 151.86 142.662C151.999 142.793 152.183 142.866 152.375 142.866C152.75 142.854 153.107 142.707 153.38 142.453C153.888 141.917 154.125 141.503 154.204 141.548Z" fill="#4B5E84"/>
<path d="M136.448 139.937C136.448 139.937 106.841 168.763 102.688 168.976C97.947 169.199 83.3637 148.738 83.3637 148.738C74.029 134.487 61.7144 132.186 57.222 131.829V130.064L35.155 128.277C35.155 128.277 35.155 130.154 35.155 131.795H25.414C25.414 131.795 7.91849 131.002 5.2998 154.255L17.874 164.095L23.0324 183.081C24.8271 189.693 18.4158 200.225 15.3569 217.279C14.8851 220.122 15.3647 223.04 16.7227 225.589L80.4402 232.837L77.054 184.634L76.0268 173.465C81.2755 180.557 90.7005 190.587 102.248 190.363C121.944 189.995 149.305 149.04 149.305 149.04L136.448 139.937Z" fill="#E0E0E0"/>
<path d="M49.7978 129.754C49.9073 130.745 49.9073 131.745 49.7978 132.736C49.6332 135.217 49.2938 137.684 48.782 140.118L48.703 140.487L48.3643 140.308C47.5968 139.906 46.7954 139.482 45.9827 139.013C42.8222 137.17 40.1245 135.271 38.0815 133.953C36.9786 133.289 35.9158 132.562 34.8984 131.775C35.2363 131.873 35.559 132.016 35.8579 132.2C36.4448 132.524 37.2914 132.993 38.3072 133.607C40.3615 134.836 43.0931 136.69 46.2084 138.51C46.9986 138.968 47.7887 139.404 48.5562 139.806L48.1386 139.995C48.7933 137.114 49.1093 134.534 49.3463 132.702C49.4364 131.711 49.5871 130.727 49.7978 129.754Z" fill="#FAFAFA"/>
<path d="M57.287 131.954C57.1452 132.913 56.9339 133.862 56.6549 134.791C56.4404 135.673 56.2147 136.723 55.8309 137.862C55.6311 138.465 55.3936 139.054 55.1198 139.627C55.0408 139.832 54.8987 140.008 54.7134 140.129C54.5849 140.208 54.4334 140.24 54.2837 140.222C54.134 140.204 53.995 140.136 53.8895 140.029C53.678 139.72 53.5072 139.386 53.3815 139.035C52.2528 136.5 51.3611 134.199 50.7064 132.513C50.2947 131.629 49.9805 130.704 49.7695 129.754C50.2968 130.575 50.7392 131.447 51.0902 132.356C51.8464 133.998 52.851 136.276 53.9233 138.812C54.0274 139.094 54.1558 139.366 54.3071 139.627C54.3635 139.627 54.3071 139.627 54.4087 139.627C54.4936 139.559 54.5597 139.47 54.6005 139.37C54.8706 138.821 55.1118 138.258 55.3229 137.684C55.718 136.567 55.9889 135.539 56.2485 134.679C56.473 133.73 56.8221 132.814 57.287 131.954Z" fill="#FAFAFA"/>
<path d="M53.1809 209.959C53.1269 209.698 53.0967 209.433 53.0906 209.166C53.0906 208.586 53.0454 207.841 52.9551 206.933C52.8648 204.878 52.7294 202.03 52.5714 198.534C52.3005 191.386 51.9167 181.614 51.5103 170.825C51.104 160.036 50.8444 150.264 50.6186 143.116C50.5396 139.609 50.4719 136.761 50.4155 134.706C50.4155 133.768 50.4155 133.008 50.4155 132.472C50.3863 132.205 50.3863 131.935 50.4155 131.668C50.4675 131.929 50.4939 132.195 50.4945 132.461C50.4945 133.042 50.5848 133.801 50.6412 134.695C50.7315 136.738 50.8669 139.586 51.025 143.082C51.2959 150.23 51.6684 160.003 52.086 170.791C52.5036 181.58 52.7407 191.353 52.9777 198.512C53.0567 202.007 53.1244 204.855 53.1809 206.91C53.1809 207.86 53.1809 208.619 53.1809 209.2C53.2075 209.452 53.2075 209.707 53.1809 209.959Z" fill="#F5F5F5"/>
<path d="M49.1621 136.812L51.0132 141.86L52.6048 136.444L50.1328 131.016L49.1621 136.812Z" fill="#1D283C"/>
<path d="M51.3519 140.359L50.1328 197.185L58.8015 215.122L62.2216 194.94L51.3519 140.359Z" fill="#1D283C"/>
<path d="M103.003 176.011C103.003 176.011 103.003 176.179 103.003 176.458L102.936 176.882L102.744 176.458C102.307 175.328 102.055 174.137 101.999 172.929C101.812 171.581 101.975 170.209 102.473 168.941C102.642 168.941 102.473 170.728 102.586 172.895C102.676 174.436 102.924 175.754 103.003 176.391H102.744C102.845 176.089 102.958 176.011 103.003 176.011Z" fill="#FAFAFA"/>
<path d="M105.542 175.816C104.701 174.942 104.075 173.887 103.714 172.733C103.171 171.668 102.874 170.497 102.845 169.305C103.419 170.343 103.888 171.436 104.244 172.566C104.783 173.605 105.217 174.693 105.542 175.816Z" fill="#FAFAFA"/>
<path d="M147.454 151.752C145.013 150.475 142.667 149.027 140.433 147.419C138.093 145.974 135.86 144.365 133.751 142.605C136.191 143.893 138.537 145.349 140.772 146.961C143.111 148.399 145.344 150.001 147.454 151.752Z" fill="#FAFAFA"/>
<path d="M24.3861 160.88C24.3861 160.88 19.6905 193.269 21.9141 195.078C34.1949 205.298 51.2614 210.658 57.3567 212.345C58.2484 212.133 59.2868 211.853 60.4833 211.474C61.5204 211.148 62.4938 210.649 63.3616 210C64.4696 209.23 65.4648 208.313 66.3189 207.274C66.4478 207.051 66.6436 206.874 66.8791 206.766C67.1146 206.658 67.3782 206.625 67.6335 206.671C67.8888 206.718 68.1231 206.842 68.3042 207.026C68.4852 207.21 68.604 207.445 68.6441 207.699C68.7005 208.816 66.8945 211.686 63.497 213.786C63.497 213.786 71.3192 226.239 73.8137 227.367C76.3082 228.495 83.4419 231.667 82.2342 232.27C81.0264 232.873 72.3464 230.382 72.3464 230.382L54.738 225.725C54.738 225.725 -3.50514 216.689 0.366445 190.254C2.74809 174.048 5.3442 159.451 6.28105 155.754L24.3861 160.88Z" fill="#EA9D85"/>
<path d="M5.29953 154.25L0.129891 189.554C-1.07786 200.421 6.28154 209.054 16.1806 213.912C31.2493 221.295 53.621 226.566 53.4291 226.533C53.2372 226.499 54.9416 210.774 54.9416 210.774C54.9416 210.774 23.5739 197.372 22.5919 191.564C21.6099 185.756 26.5763 161.632 26.5763 161.632L5.29953 154.25Z" fill="#E0E0E0"/>
<path d="M53.3846 226.535C53.3728 226.442 53.3728 226.349 53.3846 226.256C53.3846 226.033 53.3846 225.765 53.4411 225.441C53.4975 224.67 53.5765 223.631 53.6894 222.302C53.9264 219.533 54.2764 215.601 54.694 210.765L54.8181 210.966L39.0158 203.405L34.5008 201.171C32.977 200.367 31.4419 199.485 29.9181 198.513C28.372 197.526 26.887 196.448 25.4708 195.286C24.7597 194.694 24.0486 194.068 23.3714 193.409C22.9895 193.078 22.6819 192.67 22.4684 192.214C22.3487 191.993 22.2613 191.756 22.2088 191.511C22.1347 191.278 22.0818 191.038 22.0508 190.796C21.5428 186.932 22.5813 183.291 23.1795 179.817C23.7777 176.344 24.376 172.96 24.9403 169.765C26.0691 163.355 27.0962 157.592 27.9541 152.722C28.4173 150.565 28.6817 148.371 28.7442 146.166C28.766 144.508 28.4192 142.864 27.7283 141.353C27.2852 140.399 26.6561 139.541 25.8772 138.829C25.3354 138.348 25.0081 138.159 25.0194 138.125C25.3552 138.292 25.6696 138.498 25.9562 138.739C26.7849 139.431 27.4579 140.287 27.9315 141.252C28.6723 142.787 29.058 144.466 29.0602 146.166C29.0351 148.391 28.797 150.609 28.3491 152.789C27.5252 157.67 26.5432 163.444 25.4596 169.866C24.9065 173.071 24.3308 176.444 23.7326 179.918C23.5859 180.789 23.4278 181.671 23.2698 182.565C23.1118 183.458 22.9425 184.329 22.8183 185.223C22.5215 187.028 22.4722 188.865 22.6716 190.684C22.7073 190.906 22.7563 191.126 22.8183 191.343C22.8627 191.558 22.9388 191.765 23.0441 191.957C23.23 192.352 23.4994 192.702 23.8342 192.985C24.5001 193.633 25.1887 194.247 25.8885 194.828C27.2857 195.979 28.752 197.046 30.2793 198.022C31.7805 198.994 33.293 199.865 34.7943 200.669L39.3092 202.903L54.9875 210.631L55.1116 210.698V210.832C54.6037 215.668 54.1973 219.588 53.9151 222.358C53.7571 223.676 53.6443 224.726 53.554 225.485C53.5088 225.813 53.475 226.081 53.4524 226.289C53.4379 226.373 53.4152 226.456 53.3846 226.535Z" fill="#FAFAFA"/>
<path d="M50.4716 208.617C50.5051 209.426 50.4406 210.236 50.2797 211.03C50.0878 212.504 49.7718 214.537 49.3541 216.77C48.9365 219.004 48.4624 221.014 48.0786 222.455C47.9238 223.249 47.6618 224.019 47.2998 224.745C47.3392 223.937 47.464 223.136 47.6723 222.354C48.0034 220.672 48.3796 218.773 48.801 216.659C49.196 213.948 49.7539 211.262 50.4716 208.617Z" fill="#FAFAFA"/>
<path d="M53.3846 226.533C53.1967 226.532 53.01 226.502 52.8315 226.443L51.2852 226.075L45.6414 224.6C40.8669 223.327 34.2299 221.652 27.1188 219.072C23.7724 217.861 20.514 216.424 17.3664 214.772C14.795 213.419 12.3411 211.857 10.0296 210.104C8.46999 208.922 6.99879 207.631 5.62752 206.239C5.14217 205.748 4.79226 205.357 4.49878 205.123C4.3644 204.991 4.2503 204.84 4.16016 204.676C4.16016 204.676 4.72453 205.201 5.7404 206.128C7.17148 207.446 8.67903 208.68 10.2554 209.824C12.5895 211.486 15.0415 212.979 17.5922 214.292C20.7319 215.906 23.9745 217.316 27.2994 218.514C34.3653 221.082 40.991 222.813 45.7317 224.198L51.3754 225.84L52.8993 226.32C53.0696 226.37 53.2327 226.442 53.3846 226.533Z" fill="#FAFAFA"/>
<path d="M53.7656 212.39C53.7723 212.589 53.7187 212.786 53.6118 212.956C53.5048 213.125 53.3493 213.259 53.165 213.341C52.9807 213.422 52.7761 213.448 52.5772 213.414C52.3783 213.38 52.1941 213.288 52.0482 213.15C51.9023 213.012 51.8013 212.834 51.758 212.639C51.7147 212.444 51.7311 212.24 51.8052 212.054C51.8793 211.869 52.0076 211.709 52.1738 211.595C52.34 211.482 52.5365 211.42 52.7384 211.418C53.004 211.415 53.2602 211.515 53.4522 211.697C53.6442 211.878 53.7567 212.127 53.7656 212.39Z" fill="#FAFAFA"/>
<path d="M127.326 0.199219H101.963V100.012H127.326V0.199219Z" fill="#E6E6E6"/>
<path d="M164.634 21.9648H139.271V99.9994H164.634V21.9648Z" fill="#E6E6E6"/>
<path d="M202.514 39.7891H177.151V99.9987H202.514V39.7891Z" fill="#E6E6E6"/>
<path d="M237.584 64.248H212.221V100.01H237.584V64.248Z" fill="#E6E6E6"/>
</svg>
