<svg width="449" height="413" viewBox="0 0 449 413" fill="none" xmlns="http://www.w3.org/2000/svg">
<path d="M65.6354 381.527C153.156 422.797 295.047 422.81 382.568 381.527C470.088 340.245 470.075 273.339 382.568 232.069C295.06 190.8 153.156 190.8 65.6354 232.069C-21.8848 273.339 -21.8721 340.258 65.6354 381.527Z" fill="#F5F5F5"/>
<path d="M382.263 351.021C398.382 351.021 411.449 344.861 411.449 337.261C411.449 329.661 398.382 323.5 382.263 323.5C366.144 323.5 353.077 329.661 353.077 337.261C353.077 344.861 366.144 351.021 382.263 351.021Z" fill="#EBEBEB"/>
<path d="M58.9941 339.236L69.3198 333.342C75.0849 328.687 79.4728 322.578 82.0204 315.661C85.2083 306.964 84.7638 300.354 82.4777 297.036C79.6708 292.952 72.3933 293.668 72.1012 302.264C71.4916 319.204 66.5002 330.954 58.9941 339.236Z" fill="#263238"/>
<path opacity="0.2" d="M58.9941 339.236L69.3198 333.342C75.0849 328.687 79.4728 322.578 82.0204 315.661C85.2083 306.964 84.7638 300.354 82.4777 297.036C79.6708 292.952 72.3933 293.668 72.1012 302.264C71.4916 319.204 66.5002 330.954 58.9941 339.236Z" fill="black"/>
<path d="M58.9925 339.866C58.858 339.864 58.7276 339.821 58.6199 339.741C58.5122 339.661 58.4329 339.55 58.3933 339.423C58.3538 339.295 58.356 339.159 58.3998 339.033C58.4436 338.907 58.5266 338.799 58.6369 338.722C82.5141 322.386 77.8911 299.602 77.8403 299.376C77.8227 299.293 77.8218 299.208 77.8376 299.125C77.8533 299.042 77.8854 298.963 77.932 298.893C77.9785 298.822 78.0387 298.761 78.1091 298.714C78.1794 298.666 78.2585 298.633 78.3419 298.615C78.4253 298.598 78.5114 298.597 78.5951 298.613C78.6789 298.628 78.7587 298.66 78.83 298.706C78.9014 298.752 78.9629 298.812 79.011 298.881C79.0591 298.951 79.0928 299.029 79.1103 299.112C79.1103 299.35 83.9874 322.913 59.3989 339.753C59.2796 339.834 59.1368 339.873 58.9925 339.866Z" fill="white"/>
<path d="M38.3033 351.064C38.3033 351.064 34.709 348.174 35.5727 344.253C36.4363 340.332 38.7605 337.517 34.7852 332.465C30.8099 327.413 29.705 320.677 34.455 317.033C38.0747 314.205 43.7265 318.202 45.7586 310.749C47.2573 305.295 46.7492 293.219 53.7727 289.197C60.7962 285.176 65.2033 291.233 64.0983 299.427C63.1331 306.753 61.7614 313.803 62.8283 315.764C64.8858 319.534 68.4039 319.018 68.2387 325.905C68.099 332.314 61.9646 337.617 61.9646 337.617L38.3033 351.064Z" fill="#263238"/>
<path d="M50.1024 344.916C49.9471 344.914 49.7976 344.857 49.6811 344.756C49.5645 344.654 49.4887 344.515 49.4674 344.363C47.6512 329.471 52.0075 303.759 55.5637 296.118C55.5936 296.034 55.6416 295.956 55.7043 295.891C55.767 295.826 55.843 295.776 55.9273 295.742C56.0115 295.709 56.102 295.694 56.1927 295.698C56.2833 295.702 56.372 295.725 56.4527 295.766C56.5285 295.8 56.5967 295.849 56.6533 295.909C56.7099 295.969 56.7536 296.04 56.7821 296.117C56.8105 296.195 56.8229 296.277 56.8187 296.359C56.8145 296.441 56.7937 296.522 56.7575 296.596C53.2394 304.136 49.0355 329.923 50.7755 344.162C50.7934 344.326 50.7447 344.491 50.64 344.621C50.5353 344.75 50.3832 344.834 50.2167 344.853L50.1024 344.916Z" fill="white"/>
<path d="M49.7593 333.319C49.6621 333.323 49.5655 333.302 49.4799 333.256C45.0728 331.132 42.2786 323.554 42.1643 323.202C42.1332 323.124 42.1182 323.041 42.1203 322.957C42.1224 322.873 42.1415 322.79 42.1764 322.713C42.2113 322.637 42.2615 322.568 42.3238 322.511C42.3861 322.454 42.4593 322.41 42.5391 322.381C42.619 322.353 42.7038 322.34 42.7886 322.345C42.8734 322.349 42.9564 322.37 43.0328 322.407C43.1091 322.444 43.1773 322.495 43.2332 322.558C43.2891 322.622 43.3316 322.695 43.3582 322.775C43.3582 322.851 46.0888 330.19 50.0387 332.087C50.1683 332.149 50.2727 332.253 50.3348 332.382C50.3969 332.51 50.4131 332.656 50.3806 332.794C50.3481 332.933 50.2689 333.057 50.1561 333.145C50.0432 333.234 49.9033 333.282 49.7593 333.281V333.319Z" fill="white"/>
<path d="M49.683 338.346C49.5557 338.346 49.4315 338.308 49.327 338.236C49.2226 338.164 49.1429 338.062 49.0987 337.944C49.0355 337.791 49.0361 337.619 49.1003 337.466C49.1646 337.313 49.2872 337.191 49.4417 337.127C56.8589 334.187 61.4819 325.453 61.5327 325.352C61.6102 325.204 61.744 325.092 61.9048 325.041C62.0656 324.991 62.2401 325.005 62.39 325.082C62.5399 325.159 62.6529 325.291 62.7041 325.45C62.7553 325.609 62.7405 325.782 62.663 325.93C62.4598 326.307 57.7733 335.179 49.9624 338.296C49.8754 338.337 49.779 338.354 49.683 338.346Z" fill="white"/>
<path d="M308.942 270.735C308.942 270.735 303.392 261.837 302.846 252.173C302.3 242.51 304.446 238.488 307.393 237.332C310.339 236.176 310.568 239.732 312.079 241.831C313.591 243.93 316.677 242.736 317.82 236.188C318.963 229.641 323.129 218.595 331.791 216.446C341.316 214.108 336.211 225.167 333.81 229.478C331.41 233.788 329.555 239.669 331.13 241.265C332.705 242.861 335.156 239.908 337.481 242.648C340.313 245.953 331.511 257.854 326.456 260.731L308.942 270.735Z" fill="#263238"/>
<path d="M316.549 267.006C316.465 267.003 316.383 266.984 316.307 266.949C316.232 266.914 316.163 266.865 316.107 266.805C316.05 266.744 316.006 266.673 315.977 266.595C315.949 266.518 315.936 266.435 315.939 266.353C316.799 250.807 321.699 235.744 330.164 222.62C330.212 222.552 330.273 222.494 330.344 222.45C330.416 222.405 330.495 222.376 330.578 222.363C330.661 222.35 330.746 222.354 330.828 222.374C330.909 222.395 330.986 222.431 331.053 222.482C331.186 222.58 331.275 222.725 331.301 222.887C331.327 223.049 331.288 223.215 331.193 223.349C322.879 236.281 318.068 251.112 317.222 266.416C317.217 266.498 317.196 266.579 317.159 266.654C317.123 266.728 317.072 266.795 317.009 266.849C316.947 266.904 316.874 266.946 316.795 266.973C316.716 267 316.632 267.011 316.549 267.006Z" fill="white"/>
<path d="M317.274 259.577C317.168 259.576 317.064 259.55 316.969 259.502C313.413 257.554 311.445 251.773 311.368 251.534C311.34 251.456 311.328 251.373 311.333 251.29C311.338 251.207 311.359 251.126 311.396 251.051C311.432 250.976 311.483 250.909 311.546 250.854C311.609 250.799 311.683 250.757 311.762 250.73C311.922 250.679 312.096 250.692 312.246 250.767C312.396 250.843 312.51 250.974 312.562 251.132C312.562 251.132 314.467 256.699 317.643 258.396C317.786 258.48 317.892 258.616 317.937 258.775C317.982 258.934 317.963 259.105 317.884 259.25C317.826 259.359 317.738 259.447 317.629 259.506C317.521 259.564 317.397 259.589 317.274 259.577Z" fill="white"/>
<path d="M317.894 255.77C317.754 255.768 317.617 255.721 317.507 255.634C317.397 255.548 317.319 255.427 317.285 255.292C317.264 255.213 317.259 255.131 317.271 255.049C317.283 254.968 317.311 254.89 317.353 254.82C317.396 254.75 317.452 254.689 317.519 254.641C317.586 254.592 317.662 254.557 317.742 254.538C326.912 252.239 330.087 247.488 330.112 247.438C330.157 247.368 330.216 247.307 330.285 247.259C330.353 247.212 330.431 247.178 330.513 247.16C330.595 247.142 330.68 247.14 330.762 247.154C330.845 247.168 330.924 247.199 330.995 247.243C331.066 247.288 331.127 247.346 331.176 247.414C331.224 247.482 331.258 247.558 331.276 247.64C331.295 247.721 331.297 247.805 331.282 247.886C331.268 247.968 331.237 248.046 331.192 248.117C331.052 248.33 327.75 253.319 318.06 255.757L317.894 255.77Z" fill="white"/>
<path d="M170.758 251.207C170.758 251.207 158.578 248.266 157.943 225.696C157.27 201.341 160.928 172.915 146.512 170.615C132.097 168.315 124.096 185.695 124.273 205.991C124.439 223.761 131.678 262.341 170.707 269.906L170.758 251.207Z" fill="#263238"/>
<path opacity="0.2" d="M170.758 251.207C170.758 251.207 158.578 248.266 157.943 225.696C157.27 201.341 160.928 172.915 146.512 170.615C132.097 168.315 124.096 185.695 124.273 205.991C124.439 223.761 131.678 262.341 170.707 269.906L170.758 251.207Z" fill="black"/>
<path d="M170.76 267.594H170.646C161.87 266.01 154.719 261.222 149.398 253.38C133.623 230.094 138.589 186.613 140.228 179.022C140.264 178.86 140.363 178.719 140.503 178.628C140.642 178.536 140.812 178.502 140.977 178.532C141.141 178.571 141.284 178.671 141.377 178.811C141.469 178.952 141.503 179.122 141.472 179.286C139.859 186.826 134.919 229.755 150.452 252.677C152.713 256.231 155.696 259.282 159.211 261.636C162.727 263.99 166.699 265.595 170.874 266.349C170.957 266.365 171.036 266.396 171.107 266.441C171.177 266.487 171.238 266.546 171.285 266.615C171.333 266.684 171.366 266.762 171.382 266.843C171.399 266.925 171.399 267.009 171.382 267.091C171.355 267.234 171.278 267.363 171.164 267.455C171.05 267.547 170.907 267.596 170.76 267.594Z" fill="white"/>
<path d="M170.758 325.515C158.172 327.199 137.736 327.174 125.937 317.975C114.138 308.776 116.602 300.859 121.136 297.554C125.671 294.249 129.608 290.479 121.81 283.14C114.011 275.801 101.489 264.013 97.4243 246.331C93.3601 228.65 95.3668 217.591 103.343 213.909C111.078 210.34 113.122 216.02 117.86 227.732C122.597 239.445 133.253 229.404 142.372 233.061C151.491 236.718 151.123 243.956 151.694 250.177C152.266 256.397 155.276 258.119 160.445 258.119C165.614 258.119 170.758 261.06 170.758 266.916V325.515Z" fill="#263238"/>
<path d="M170.758 304.981C170.704 304.993 170.648 304.993 170.593 304.981C170.047 304.83 157.029 301.085 138.067 283.856C117.873 265.508 108.347 237.987 108.246 237.711C108.197 237.552 108.212 237.381 108.288 237.234C108.364 237.086 108.494 236.973 108.652 236.919C108.811 236.867 108.983 236.878 109.133 236.951C109.283 237.024 109.397 237.152 109.452 237.308C109.541 237.585 118.978 264.805 138.931 282.926C157.626 299.929 170.797 303.737 170.936 303.775C171.016 303.798 171.091 303.836 171.156 303.888C171.221 303.94 171.275 304.003 171.315 304.076C171.355 304.148 171.381 304.228 171.39 304.31C171.399 304.392 171.391 304.475 171.368 304.554C171.327 304.681 171.245 304.791 171.135 304.868C171.025 304.945 170.893 304.985 170.758 304.981Z" fill="white"/>
<path d="M143.363 288.229C143.235 288.231 143.11 288.194 143.005 288.121C142.9 288.049 142.821 287.946 142.779 287.827C138.702 277.472 137.775 255.317 137.698 254.374C137.695 254.208 137.756 254.048 137.87 253.926C137.984 253.804 138.141 253.73 138.308 253.721C138.474 253.723 138.633 253.786 138.755 253.897C138.877 254.009 138.953 254.16 138.968 254.324C138.968 254.55 139.921 277.208 143.922 287.375C143.952 287.452 143.967 287.535 143.965 287.618C143.963 287.701 143.944 287.783 143.91 287.859C143.876 287.935 143.827 288.004 143.765 288.061C143.704 288.118 143.632 288.162 143.553 288.192C143.492 288.213 143.428 288.226 143.363 288.229Z" fill="white"/>
<path d="M143.262 303.122C142.091 303.131 140.921 303.072 139.757 302.946C139.673 302.936 139.593 302.91 139.52 302.869C139.446 302.829 139.382 302.774 139.33 302.709C139.278 302.643 139.24 302.569 139.217 302.489C139.194 302.409 139.188 302.325 139.198 302.242C139.208 302.16 139.234 302.08 139.275 302.008C139.317 301.935 139.372 301.871 139.438 301.82C139.504 301.769 139.579 301.731 139.66 301.708C139.741 301.686 139.826 301.68 139.909 301.689C140.023 301.689 151.848 303.022 157.271 297.555C157.327 297.489 157.397 297.435 157.476 297.397C157.554 297.358 157.64 297.337 157.727 297.333C157.815 297.329 157.902 297.343 157.984 297.374C158.065 297.405 158.14 297.452 158.202 297.513C158.264 297.574 158.313 297.647 158.346 297.727C158.378 297.807 158.394 297.894 158.391 297.98C158.388 298.067 158.367 298.152 158.33 298.23C158.292 298.308 158.239 298.378 158.173 298.435C154.248 302.443 147.403 303.122 143.262 303.122Z" fill="white"/>
<path d="M134.115 65.1564L132.743 57.3272L125.681 61.9267C125.036 60.6701 124.122 59.5679 123.002 58.697L126.38 49.6488L120.03 48.2539L115.381 57.0507C113.7 57.3315 112.069 57.8566 110.542 58.609L108.523 51.9737L100.979 57.8424L101.474 65.6339C99.9377 67.3367 98.5445 69.1608 97.3082 71.0879L91.0849 70.7738L86.7159 80.4628L92.0629 82.7249C91.5047 84.729 91.1515 86.7835 91.0087 88.8575L84.2139 95.0404L85.5728 102.882L92.6471 98.2827C93.2886 99.5382 94.204 100.637 95.3269 101.5L92.0121 110.561L98.3624 111.943L105.018 105.534C106.554 105.295 106.173 102.43 107.85 101.613L109.869 108.223L117.401 102.367L117.21 99.3006C118.734 97.6166 124.5 93.9094 125.745 91.9741L127.307 89.4607L131.676 79.7717L129.644 76.1273L127.383 71.377L134.115 65.1564ZM111.063 90.9311C105.272 95.43 103.443 96.4228 102.465 90.4033C101.487 84.3837 104.802 75.235 110.593 70.7235C116.385 66.212 118.595 65.8978 119.636 71.9048C120.677 77.9118 116.867 86.4824 111.063 90.9311Z" fill="#E0E0E0"/>
<path d="M120.081 48.2539L128.324 52.9539L123.675 61.7256L115.433 57.0256L120.081 48.2539Z" fill="#F5F5F5"/>
<path d="M140.986 62.0262L133.924 66.6257L125.682 61.9257L132.743 57.3262L140.986 62.0262Z" fill="#F5F5F5"/>
<path d="M139.856 84.4319L134.509 82.1824L126.267 77.4824L131.614 79.7319L139.856 84.4319Z" fill="#E0E0E0"/>
<path d="M91.998 110.559L100.241 115.246L103.619 106.198L95.3764 101.498L91.998 110.559Z" fill="#E0E0E0"/>
<path d="M118.037 112.925L109.807 108.225L107.787 101.615L116.03 106.315L118.037 112.925Z" fill="#E0E0E0"/>
<path d="M142.345 69.8556L140.986 62.0264L133.925 66.6259C133.275 65.3687 132.356 64.2666 131.232 63.3962L134.61 54.3481L128.324 52.9531L123.663 61.7499C121.981 62.0307 120.35 62.5558 118.824 63.3082L116.817 56.6981L109.273 62.5668L109.768 70.3583C108.23 72.0731 106.837 73.9098 105.602 75.85L99.3662 75.5358L94.9971 85.2249L100.344 87.4869C99.791 89.4964 99.4379 91.5546 99.29 93.6321L92.5078 99.7271L93.8668 107.569L100.928 102.969C101.578 104.223 102.497 105.321 103.621 106.186L100.243 115.235L106.593 116.63L111.241 107.833C112.93 107.555 114.565 107.025 116.093 106.262L118.1 112.872L125.644 107.016L125.148 99.2244C126.685 97.5216 128.078 95.6975 129.314 93.7704L135.55 94.072L139.919 84.3829L134.496 82.1334C135.058 80.1255 135.416 78.0668 135.563 75.9882L142.345 69.8556ZM119.319 95.6805C113.54 100.179 108.003 98.9605 106.948 92.9535C105.894 86.9466 109.743 78.4137 115.534 73.9147C121.326 69.4158 126.85 70.6473 127.905 76.6543C128.959 82.6613 125.11 91.1816 119.319 95.6805Z" fill="#EBEBEB"/>
<path d="M116.815 56.6766L108.572 51.9766L101.028 57.8453L109.271 62.5453L116.815 56.6766Z" fill="#F5F5F5"/>
<path d="M101.028 57.8438L101.524 65.6352L109.766 70.3352L109.271 62.5438L101.028 57.8438Z" fill="#E0E0E0"/>
<path d="M105.601 75.7907L97.3581 71.0907L91.1348 70.7891L99.3648 75.4891L105.601 75.7907Z" fill="#F5F5F5"/>
<path d="M91.1347 70.7891L86.7656 80.4656L94.9957 85.1656L99.3647 75.4891L91.1347 70.7891Z" fill="#E0E0E0"/>
<path d="M99.2895 93.5574L91.0595 88.8574L84.2646 95.0403L92.4947 99.7403L99.2895 93.5574Z" fill="#F5F5F5"/>
<path d="M93.8664 107.585L85.6236 102.885L84.2646 95.043L92.4947 99.743L93.8664 107.585Z" fill="#E0E0E0"/>
<path d="M128.324 52.9539L120.081 48.2539L126.381 49.6488L134.611 54.3488L128.324 52.9539Z" fill="#F5F5F5"/>
<path d="M97.2064 29.6177V17.9179L87.7952 22.1152C87.2967 20.1302 86.4359 18.2521 85.2551 16.5732L91.1863 4.74779L83.9469 0.613281L76.5551 11.6093C74.4952 11.4312 72.4198 11.6315 70.4334 12.2L69.392 2.03335L59.1552 7.88951L58.1265 19.1997C55.8986 21.153 53.8501 23.2978 52.0048 25.6088L44.613 23.0954L37.3736 35.5115L43.2921 40.5383C42.1985 43.2747 41.3486 46.1005 40.752 48.9832L31.3408 55.5306V67.2429L40.752 63.0456C41.2505 65.0306 42.1113 66.9088 43.2921 68.5876L37.399 80.4256L44.6384 84.5601L52.0302 73.5641C54.0901 73.7416 56.1654 73.5413 58.1519 72.9734L59.1807 83.1401L69.4174 77.2839L70.4588 65.9737C73.6539 64.8202 76.4843 62.852 78.6635 60.2683L83.9723 62.1157L91.2117 49.7121L86.7665 45.9421C87.7315 42.7983 88.0891 39.5027 87.8206 36.2279L97.2064 29.6177ZM64.2736 58.8483C56.4246 63.3346 51.573 60.1049 51.573 51.1699C51.573 42.2348 58.063 31.1885 65.9247 26.7021C73.7864 22.2158 78.5364 25.4455 78.5364 34.4559C78.5364 43.4664 72.1353 54.3493 64.2736 58.8483Z" fill="#E0E0E0"/>
<path d="M92.1765 5.30074L83.9465 0.613281L76.5547 11.6093L84.7847 16.3093L92.1765 5.30074Z" fill="#F5F5F5"/>
<path d="M105.448 22.618L97.2051 17.918L87.7939 22.1153L96.0367 26.8153L105.448 22.618Z" fill="#F5F5F5"/>
<path d="M67.3838 87.8412L59.1537 83.1412L58.125 72.9746L66.355 77.6746L67.3838 87.8412Z" fill="#E0E0E0"/>
<path d="M37.3613 80.427L45.6041 85.127L51.5353 73.3016L43.2925 68.6016L37.3613 80.427Z" fill="#E0E0E0"/>
<path d="M105.448 34.3808V22.6811L96.0364 26.8407C95.5432 24.8539 94.6819 22.9748 93.4963 21.2987L99.4275 9.47325L92.1881 5.32617L84.7964 16.3348C82.7364 16.1505 80.6598 16.3509 78.6746 16.9254L77.6332 6.73367L67.3965 12.5898L66.355 23.9C64.1303 25.8566 62.082 28.0011 60.2333 30.3092L52.8415 27.7958L45.6021 40.2119L51.5333 45.2386C50.434 47.9731 49.5839 50.7993 48.9932 53.6836L39.582 60.2309V71.9433L48.9932 67.7459C49.4862 69.7328 50.3475 71.612 51.5333 73.2879L45.6021 85.1133L52.8415 89.2479L60.2333 78.2518C62.2932 78.4299 64.3687 78.2297 66.355 77.6612L67.3965 87.8278L77.6332 81.9716L78.662 70.6614C80.8898 68.7081 82.9384 66.5634 84.7837 64.2523L92.1754 66.7657L99.4148 54.3622L93.4836 49.3354C94.5827 46.6009 95.4327 43.7747 96.0237 40.8905L105.448 34.3808ZM72.5148 63.6114C64.6531 68.0978 58.2774 64.4534 58.2774 55.4806C58.2774 46.5079 64.6277 35.5872 72.5148 31.0883C80.4019 26.5893 86.7396 30.2463 86.7396 39.2191C86.7396 48.1918 80.3638 59.0496 72.5148 63.5486V63.6114Z" fill="#EBEBEB"/>
<path d="M52.0041 25.634L60.2341 30.334L52.8423 27.7829L44.6123 23.0703L52.0041 25.634Z" fill="#F0F0F0"/>
<path d="M44.6115 23.0856L37.3701 35.5059L45.6101 40.2093L52.8514 27.789L44.6115 23.0856Z" fill="#F5F5F5"/>
<path d="M37.3613 35.4883L45.6041 40.1883L51.5353 45.2402L43.2925 40.5527L37.3613 35.4883Z" fill="#E0E0E0"/>
<path d="M40.752 48.998L48.9947 53.6981L39.5835 60.2454L31.3408 55.5454L40.752 48.998Z" fill="#F5F5F5"/>
<path d="M31.3408 55.543L39.5835 60.243V71.9553L31.3408 67.2553V55.543Z" fill="#E0E0E0"/>
<path d="M77.6347 6.73517L69.392 2.03516L59.1553 7.89132L67.3853 12.5913L77.6347 6.73517Z" fill="#F5F5F5"/>
<path d="M183.308 342.328L302.694 274.115C302.957 274.024 303.185 273.854 303.346 273.629C303.507 273.403 303.594 273.134 303.594 272.859C303.594 272.583 303.507 272.314 303.346 272.089C303.185 271.863 302.957 271.693 302.694 271.602L291.657 265.318C290.973 264.978 290.219 264.801 289.453 264.801C288.688 264.801 287.933 264.978 287.25 265.318L167.826 333.469C167.563 333.56 167.335 333.73 167.174 333.955C167.012 334.18 166.926 334.449 166.926 334.725C166.926 335.001 167.012 335.27 167.174 335.495C167.335 335.721 167.563 335.891 167.826 335.982L178.901 342.265C179.579 342.616 180.331 342.804 181.097 342.815C181.862 342.826 182.619 342.659 183.308 342.328Z" fill="#E0E0E0"/>
<path d="M299.417 10.7503L191.766 72.2527C190.166 73.286 188.834 74.6778 187.878 76.3153C186.923 77.9528 186.371 79.7899 186.267 81.6778V334.36C186.267 337.829 188.731 339.236 191.766 337.502L299.417 276C301.019 274.969 302.353 273.577 303.308 271.939C304.264 270.301 304.815 268.463 304.916 266.574V13.892C304.916 10.4236 302.465 9.01607 299.417 10.7503Z" fill="#455A64"/>
<path d="M191.766 72.2549L299.417 10.7525C302.135 9.19425 304.383 10.1619 304.84 12.8638C304.586 11.165 303.971 9.53876 303.037 8.09189C302.102 6.64502 300.868 5.41034 299.417 4.4691L294.946 1.95572C293.242 1.10017 291.358 0.654297 289.447 0.654297C287.536 0.654297 285.652 1.10017 283.947 1.95572L176.284 63.4078C174.662 64.4139 173.325 65.8105 172.397 67.4669L187.88 76.2637C188.807 74.6204 190.145 73.24 191.766 72.2549Z" fill="#37474F"/>
<path d="M170.759 325.514C170.863 327.402 171.415 329.239 172.371 330.876C173.326 332.514 174.658 333.906 176.258 334.939L180.742 337.452C182.293 338.22 183.991 338.656 185.725 338.729C187.458 338.803 189.188 338.513 190.8 337.88C188.26 338.86 186.241 337.415 186.241 334.311V81.6785C186.305 79.7825 186.86 77.9346 187.854 76.3124L172.372 67.5156C171.392 69.1255 170.837 70.9536 170.759 72.8314V325.514Z" fill="#263238"/>
<path d="M194.725 105.921L296.495 47.7991C298.324 46.7686 299.798 47.6106 299.798 49.6841V236.705C299.737 237.838 299.406 238.941 298.832 239.924C298.258 240.907 297.457 241.741 296.495 242.36L194.763 300.482C192.934 301.525 191.461 300.683 191.461 298.597V111.576C191.519 110.446 191.844 109.346 192.411 108.363C192.978 107.381 193.771 106.544 194.725 105.921Z" fill="white"/>
<path d="M245.593 51.0782C245.031 51.4431 244.564 51.9334 244.228 52.5096C243.893 53.0858 243.699 53.7319 243.662 54.3958C243.662 55.6525 244.526 56.1175 245.593 55.5017C246.157 55.139 246.625 54.6493 246.961 54.0726C247.297 53.4959 247.489 52.8486 247.523 52.184C247.523 50.965 246.659 50.4749 245.593 51.0782Z" fill="#37474F"/>
<path d="M245.591 280.365C243.371 281.802 241.524 283.737 240.2 286.012C238.876 288.287 238.112 290.838 237.971 293.46C237.971 298.273 241.387 300.233 245.591 297.82C247.811 296.382 249.657 294.448 250.981 292.173C252.305 289.898 253.069 287.347 253.211 284.726C253.237 279.913 249.808 277.952 245.591 280.365Z" fill="#37474F"/>
<path d="M227.314 70.5329C226.198 71.2661 225.271 72.2486 224.61 73.4011C223.948 74.5537 223.569 75.8441 223.504 77.1682C223.504 79.6062 225.231 80.599 227.314 79.38C228.442 78.6538 229.381 77.6743 230.054 76.5213C230.727 75.3683 231.116 74.0743 231.188 72.7447C231.188 70.3067 229.461 69.3139 227.314 70.5329Z" fill="#37474F"/>
<path d="M236.802 69.7043C236.802 71.338 238.072 71.9538 239.558 71.0867L264.959 56.5468C265.746 56.0606 266.406 55.3974 266.885 54.6113C267.363 53.8251 267.648 52.9382 267.715 52.0227C267.715 50.4016 266.445 49.7858 264.959 50.6529L239.558 65.1928C238.773 65.6778 238.114 66.339 237.635 67.1228C237.156 67.9066 236.871 68.791 236.802 69.7043Z" fill="#37474F"/>
<path d="M179.345 114.014C180.246 114.595 180.997 115.378 181.535 116.299C182.073 117.221 182.385 118.255 182.444 119.317C182.444 121.278 181.06 122.07 179.345 121.089C178.447 120.506 177.7 119.723 177.163 118.802C176.627 117.88 176.318 116.848 176.259 115.786C176.259 113.838 177.643 113.047 179.345 114.014Z" fill="#37474F"/>
<path d="M179.345 137.616C180.246 138.197 180.997 138.98 181.535 139.901C182.073 140.822 182.385 141.856 182.444 142.919C182.444 144.867 181.06 145.659 179.345 144.691C178.447 144.108 177.7 143.324 177.163 142.403C176.627 141.482 176.318 140.449 176.259 139.388C176.259 137.427 177.643 136.636 179.345 137.616Z" fill="#37474F"/>
<path d="M178.38 114.494C179.282 115.075 180.032 115.858 180.57 116.779C181.109 117.7 181.42 118.734 181.479 119.797C181.479 121.745 180.095 122.537 178.38 121.569C177.479 120.988 176.729 120.205 176.19 119.284C175.652 118.362 175.34 117.328 175.281 116.266C175.294 114.305 176.678 113.551 178.38 114.494Z" fill="#455A64"/>
<path d="M178.38 138.079C179.283 138.661 180.034 139.446 180.573 140.369C181.112 141.293 181.422 142.33 181.479 143.394C181.479 145.342 180.095 146.134 178.38 145.154C177.477 144.575 176.725 143.793 176.186 142.871C175.648 141.949 175.337 140.914 175.281 139.851C175.294 137.903 176.678 137.111 178.38 138.079Z" fill="#455A64"/>
<path d="M320.399 55.604C320.399 53.5179 318.926 52.6759 317.097 53.719L304.917 60.6685L215.365 111.841C214.403 112.459 213.602 113.294 213.028 114.277C212.454 115.259 212.124 116.363 212.062 117.496V304.466C212.062 306.552 213.536 307.394 215.365 306.351L304.955 255.166L317.097 248.229C318.059 247.611 318.859 246.776 319.433 245.794C320.007 244.811 320.338 243.708 320.399 242.574V55.604Z" fill="white"/>
<path d="M321.667 55.6045C321.747 54.9743 321.638 54.3348 321.352 53.7659C321.067 53.197 320.618 52.7241 320.062 52.4062C319.506 52.0883 318.868 51.9397 318.228 51.9788C317.587 52.0179 316.972 52.2431 316.46 52.6262L304.839 59.2741L214.728 110.798C213.568 111.523 212.603 112.516 211.917 113.692C211.231 114.867 210.845 116.19 210.791 117.547V304.467C210.74 305.094 210.862 305.723 211.143 306.288C211.425 306.852 211.856 307.33 212.391 307.671C212.846 307.933 213.364 308.067 213.89 308.061C214.634 308.038 215.36 307.826 215.998 307.445L306.173 255.921L317.768 249.298C318.922 248.566 319.881 247.572 320.566 246.398C321.251 245.223 321.642 243.904 321.705 242.55L321.667 55.6045ZM304.864 253.772L303.823 254.375L214.779 305.246C214.629 305.36 214.456 305.439 214.271 305.478C214.086 305.517 213.895 305.515 213.712 305.472C213.547 305.372 213.382 305.02 213.382 304.442V117.496C213.447 116.584 213.722 115.698 214.184 114.906C214.646 114.113 215.283 113.435 216.049 112.922L305.004 62.0262L317.705 54.75C317.854 54.6362 318.028 54.5569 318.212 54.5177C318.397 54.4786 318.588 54.4807 318.772 54.5238C318.937 54.6243 319.102 54.9762 319.102 55.5543V242.575C319.036 243.487 318.762 244.373 318.3 245.165C317.838 245.958 317.2 246.636 316.435 247.149L304.839 253.772H304.864Z" fill="#263238"/>
<path d="M266.231 99.0462C277.662 92.5365 286.87 97.7895 286.87 110.846C286.87 123.903 277.624 139.75 266.231 146.21C254.839 152.669 245.593 147.466 245.593 134.422C245.593 121.378 254.839 105.568 266.231 99.0462Z" fill="#263238"/>
<path d="M266.229 109.301C269.925 107.189 272.923 108.898 272.923 113.071C272.797 115.369 272.126 117.606 270.963 119.599C269.8 121.593 268.178 123.287 266.229 124.544C262.534 126.655 259.536 124.946 259.536 120.774C259.662 118.476 260.333 116.239 261.496 114.245C262.659 112.252 264.281 110.558 266.229 109.301Z" fill="#263238"/>
<path d="M279.275 131.823C279.275 124.886 274.359 122.071 268.276 125.54L264.466 127.714C258.395 131.182 253.467 139.627 253.467 146.564V148.437C256.985 149.58 261.405 148.964 266.167 146.212C271.443 142.992 275.905 138.62 279.211 133.432L279.275 131.823Z" fill="#263238"/>
<path opacity="0.7" d="M266.229 109.301C269.925 107.189 272.923 108.898 272.923 113.071C272.797 115.369 272.126 117.606 270.963 119.599C269.8 121.593 268.178 123.287 266.229 124.544C262.534 126.655 259.536 124.946 259.536 120.774C259.662 118.476 260.333 116.239 261.496 114.245C262.659 112.252 264.281 110.558 266.229 109.301Z" fill="white"/>
<path opacity="0.7" d="M279.275 131.823C279.275 124.886 274.359 122.071 268.276 125.54L264.466 127.714C258.395 131.182 253.467 139.627 253.467 146.564V148.437C256.985 149.58 261.405 148.964 266.167 146.212C271.443 142.992 275.905 138.62 279.211 133.432L279.275 131.823Z" fill="white"/>
<path d="M226.299 174.926L252.856 159.758C254.126 159.067 255.053 159.62 255.053 161.015V161.882C255.013 162.637 254.793 163.372 254.411 164.028C254.029 164.683 253.496 165.239 252.856 165.652L226.299 180.82C225.092 181.511 224.102 180.946 224.102 179.564V178.696C224.143 177.941 224.363 177.207 224.745 176.552C225.127 175.897 225.659 175.34 226.299 174.926Z" fill="#263238"/>
<path opacity="0.1" d="M226.299 174.926L252.856 159.758C254.126 159.067 255.053 159.62 255.053 161.015V161.882C255.013 162.637 254.793 163.372 254.411 164.028C254.029 164.683 253.496 165.239 252.856 165.652L226.299 180.82C225.092 181.511 224.102 180.946 224.102 179.564V178.696C224.143 177.941 224.363 177.207 224.745 176.552C225.127 175.897 225.659 175.34 226.299 174.926Z" fill="black"/>
<path d="M225.207 193.236L305.551 147.342C306.148 146.99 306.643 147.267 306.643 147.97V157.245C306.621 157.621 306.511 157.987 306.321 158.314C306.131 158.641 305.868 158.92 305.551 159.13L225.207 205.024C224.597 205.376 224.102 205.087 224.102 204.396V195.121C224.123 194.743 224.235 194.376 224.427 194.048C224.619 193.721 224.886 193.443 225.207 193.236Z" fill="#263238"/>
<path opacity="0.2" d="M225.207 193.236L305.551 147.342C306.148 146.99 306.643 147.267 306.643 147.97V157.245C306.621 157.621 306.511 157.987 306.321 158.314C306.131 158.641 305.868 158.92 305.551 159.13L225.207 205.024C224.597 205.376 224.102 205.087 224.102 204.396V195.121C224.123 194.743 224.235 194.376 224.427 194.048C224.619 193.721 224.886 193.443 225.207 193.236Z" fill="white"/>
<path d="M226.299 216.184L252.856 201.016C254.126 200.325 255.053 200.89 255.053 202.272V203.139C255.014 203.895 254.794 204.63 254.412 205.286C254.03 205.941 253.497 206.498 252.856 206.91L226.299 222.078C225.092 222.782 224.102 222.216 224.102 220.821V219.954C224.145 219.199 224.366 218.465 224.748 217.811C225.129 217.156 225.66 216.599 226.299 216.184Z" fill="#263238"/>
<path opacity="0.1" d="M226.299 216.184L252.856 201.016C254.126 200.325 255.053 200.89 255.053 202.272V203.139C255.014 203.895 254.794 204.63 254.412 205.286C254.03 205.941 253.497 206.498 252.856 206.91L226.299 222.078C225.092 222.782 224.102 222.216 224.102 220.821V219.954C224.145 219.199 224.366 218.465 224.748 217.811C225.129 217.156 225.66 216.599 226.299 216.184Z" fill="black"/>
<path d="M225.207 234.494L305.551 188.599C306.148 188.248 306.643 188.537 306.643 189.228V198.502C306.621 198.879 306.511 199.245 306.321 199.572C306.131 199.899 305.868 200.178 305.551 200.387L225.207 246.281C224.597 246.633 224.102 246.357 224.102 245.653V236.379C224.123 236.001 224.235 235.633 224.427 235.306C224.619 234.978 224.886 234.7 225.207 234.494Z" fill="#263238"/>
<path opacity="0.2" d="M225.207 234.494L305.551 188.599C306.148 188.248 306.643 188.537 306.643 189.228V198.502C306.621 198.879 306.511 199.245 306.321 199.572C306.131 199.899 305.868 200.178 305.551 200.387L225.207 246.281C224.597 246.633 224.102 246.357 224.102 245.653V236.379C224.123 236.001 224.235 235.633 224.427 235.306C224.619 234.978 224.886 234.7 225.207 234.494Z" fill="white"/>
<path d="M257.25 239.757L289.002 221.648C290.272 220.945 291.212 221.51 291.212 222.905V232.607C291.17 233.363 290.948 234.099 290.564 234.754C290.18 235.41 289.644 235.966 289.002 236.377L257.25 254.498C255.98 255.19 255.053 254.624 255.053 253.242V243.527C255.097 242.773 255.319 242.039 255.7 241.385C256.082 240.73 256.612 240.173 257.25 239.757Z" fill="#263238"/>
<path opacity="0.1" d="M257.25 239.757L289.002 221.648C290.272 220.945 291.212 221.51 291.212 222.905V232.607C291.17 233.363 290.948 234.099 290.564 234.754C290.18 235.41 289.644 235.966 289.002 236.377L257.25 254.498C255.98 255.19 255.053 254.624 255.053 253.242V243.527C255.097 242.773 255.319 242.039 255.7 241.385C256.082 240.73 256.612 240.173 257.25 239.757Z" fill="black"/>
<path d="M332.437 198.821C332.437 198.821 316.84 177.532 315.926 174.944C315.202 173.033 315.926 170.193 316.154 168.874C316.383 167.554 316.586 164.614 316.815 163.847C317.196 162.414 315.329 162.703 314.275 164.01C313.221 165.317 312.865 167.931 312.319 168.358C311.773 168.786 307.62 162.791 305.448 160.027C303.276 157.262 301.917 155.578 300.583 156.608C299.631 157.35 300.342 158.958 301.917 161.321C302.837 162.593 303.685 163.915 304.457 165.28C304.698 165.795 303.403 165.832 302.704 166.901C302.158 167.73 302.704 169.075 301.942 169.716C301.473 170.069 301.152 170.58 301.04 171.153C300.927 171.725 301.031 172.318 301.333 172.82C302.746 175.016 304.57 176.927 306.705 178.45C309.042 180.046 309.982 180.611 311.366 182.785C312.751 184.959 325.172 207.165 326.01 208.497C326.848 209.829 328.461 212.544 330.913 212.619C333.364 212.694 353.431 195.603 354.46 194.749C357.762 192.022 358.816 191.632 359.375 194.083C359.568 194.954 359.712 195.835 359.807 196.722C360.2 199.838 362.347 210.973 362.347 210.973C362.347 210.973 372.507 215.836 380.852 213.486C389.196 211.136 392.015 207.63 392.015 207.63L387.837 200.894C388.967 198.117 394.187 186.857 395.876 178.977L369.713 174.793C369.18 174.68 368.316 174.466 367.173 174.177C365.738 173.8 362.093 172.556 359.337 174.944C350.345 182.697 332.462 198.821 332.462 198.821" fill="#EA9D85"/>
<path d="M384.307 329.435L379.62 335.882C381.75 336.866 384.077 337.36 386.428 337.327C390.632 337.478 391.787 336.071 391.94 335.794C392.651 334.286 391.546 331.572 391.241 329.234L384.307 329.435Z" fill="#37474F"/>
<path d="M379.886 332.796C379.886 332.796 374.196 332.432 370.272 331.954C366.347 331.477 363.236 333.362 364.15 334.958C365.065 336.554 367.236 337.886 370.615 339.004C373.498 339.972 376.965 340.663 379.962 341.518C382.96 342.372 385.043 343.491 386.783 342.887C388.726 342.221 389.564 341.455 389.399 340.047C388.975 338.045 388.449 336.066 387.824 334.116L379.886 332.796Z" fill="#37474F"/>
<path d="M391.94 322.969C391.94 322.969 391.229 328.825 391.178 330.081C391.127 331.338 385.399 331.74 384.307 329.44L384.129 322.277L391.94 322.969Z" fill="#EA9D85"/>
<path d="M386.172 326.562L388.217 335.46C388.217 335.46 388.408 336.541 383.734 337.232C379.06 337.923 371.719 334.806 370.462 334.178C369.204 333.55 369.065 332.28 373.662 332.532C378.26 332.783 379.886 332.796 379.886 332.796L378.387 328.862L386.172 326.562Z" fill="#EA9D85"/>
<path d="M395.8 178.904L399.039 178.012C399.039 178.012 405.808 199.212 406.558 201.26C407.307 203.309 408.158 205.47 406.697 207.996C404.957 211 395.8 223.077 395.8 223.077L389.983 217.447L396.588 205.483L390.745 193.796L395.8 178.904Z" fill="#EA9D85"/>
<path d="M362.536 151.367C361.777 149.956 361.392 148.379 361.416 146.781C361.441 145.183 361.874 143.618 362.676 142.231C365.902 136.312 373.091 133.434 381.651 134.527C385.613 135.042 390.287 138.297 392.84 143.161C395.66 148.552 395.926 159.41 396.65 163.519L362.536 151.367Z" fill="#37474F"/>
<path d="M362.309 153.689C362.309 153.689 360.277 157.522 360.633 157.874C361.159 158.179 361.735 158.391 362.334 158.503L362.309 153.689Z" fill="#EA9D85"/>
<path d="M368.482 141.575C366.272 142.995 362.462 145.609 362.297 154.218C362.119 163.014 363.389 165.917 364.71 166.935C365.599 167.626 370.819 167.275 373.054 166.759C375.29 166.244 381.729 163.09 384.053 158.302C386.784 152.672 386.225 144.478 382.174 141.965C380.111 140.758 377.773 140.09 375.379 140.021C372.984 139.953 370.611 140.488 368.482 141.575Z" fill="#EA9D85"/>
<path d="M391.938 207.578C395.85 213.61 399.558 218.888 400.371 225.7C402.048 240.013 396.561 256.375 395.38 266.969C397.601 269.983 398.882 273.574 399.063 277.299C399.063 281.685 391.938 322.967 391.938 322.967C391.938 322.967 386.756 324.526 384.127 322.276L379.237 246.334L381.777 237.085L391.938 207.578Z" fill="#263238"/>
<path opacity="0.2" d="M391.938 207.578C395.85 213.61 399.558 218.888 400.371 225.7C402.048 240.013 396.561 256.375 395.38 266.969C397.601 269.983 398.882 273.574 399.063 277.299C399.063 281.685 391.938 322.967 391.938 322.967C391.938 322.967 386.756 324.526 384.127 322.276L379.237 246.334L381.777 237.085L391.938 207.578Z" fill="black"/>
<path d="M379.237 246.335L381.777 237.085C386.641 235.819 391.332 233.975 395.748 231.594C395.748 231.594 393.106 236.357 385.511 238.971L381.587 250.846L381.257 278.054L379.237 246.335Z" fill="#263238"/>
<path opacity="0.3" d="M379.237 246.335L381.777 237.085C386.641 235.819 391.332 233.975 395.748 231.594C395.748 231.594 393.106 236.357 385.511 238.971L381.587 250.846L381.257 278.054L379.237 246.335Z" fill="black"/>
<path d="M391.938 207.578C394.033 210.971 399.037 216.752 397.971 222.319C396.701 229.055 393.017 233.793 381.815 237.085L371.299 274.786C371.299 274.786 376.773 279.813 378.45 284.676C380.126 289.539 386.172 326.587 386.172 326.587C386.172 326.587 384.292 329.615 378.386 328.886C378.386 328.886 357.798 282.389 356.351 279.36C354.593 276.293 353.978 272.714 354.611 269.244C355.258 264.368 362.231 210.996 362.231 210.996L391.938 207.578Z" fill="#263238"/>
<path opacity="0.2" d="M391.938 207.578C394.033 210.971 399.037 216.752 397.971 222.319C396.701 229.055 393.017 233.793 381.815 237.085L371.299 274.786C371.299 274.786 376.773 279.813 378.45 284.676C380.126 289.539 386.172 326.587 386.172 326.587C386.172 326.587 384.292 329.615 378.386 328.886C378.386 328.886 357.798 282.389 356.351 279.36C354.593 276.293 353.978 272.714 354.611 269.244C355.258 264.368 362.231 210.996 362.231 210.996L391.938 207.578Z" fill="black"/>
<path d="M395.8 178.902L369.636 174.717C369.103 174.604 368.239 174.391 367.096 174.102C367.096 174.102 365.978 190.338 359.26 194.058C359.425 194.837 359.565 195.704 359.692 196.697C360.085 199.813 362.232 210.948 362.232 210.948C362.232 210.948 372.392 215.811 380.737 213.461C389.081 211.111 391.9 207.605 391.9 207.605L387.722 200.869C388.89 198.067 394.148 186.807 395.8 178.902Z" fill="#263238"/>
<path opacity="0.7" d="M395.8 178.902L369.636 174.717C369.103 174.604 368.239 174.391 367.096 174.102C367.096 174.102 365.978 190.338 359.26 194.058C359.425 194.837 359.565 195.704 359.692 196.697C360.085 199.813 362.232 210.948 362.232 210.948C362.232 210.948 372.392 215.811 380.737 213.461C389.081 211.111 391.9 207.605 391.9 207.605L387.722 200.869C388.89 198.067 394.148 186.807 395.8 178.902Z" fill="white"/>
<path d="M388.903 198.188C385.428 200.252 381.788 202.03 378.019 203.503C381.44 203.436 384.789 202.52 387.76 200.839L388.903 198.188Z" fill="#263238"/>
<path d="M367.833 142.003C367.833 142.003 366.563 150.172 369.56 154.972C369.56 154.972 370.678 151.717 373.459 152.333C376.241 152.949 376.393 156.581 374.437 158.617C373.94 159.188 373.29 159.608 372.562 159.831C371.834 160.053 371.058 160.068 370.322 159.873C370.322 159.873 369.877 165.78 369.636 170.731C369.395 175.682 368.074 186.477 373.7 190.838C379.327 195.199 393.45 196.732 400.067 187.583C403.75 182.494 398.86 173.496 396.587 163.405C394.491 154.13 393.31 140.382 383.366 138.17C373.421 135.958 367.833 142.003 367.833 142.003Z" fill="#37474F"/>
<path d="M404.321 30.393L402.226 31.6497C402.401 30.9119 402.499 30.158 402.518 29.4002C402.518 25.1903 399.533 23.4938 395.85 25.6301C394.729 26.2991 393.729 27.1486 392.891 28.1435C392.891 22.4884 388.877 20.1887 383.924 23.0162C381.314 24.7005 379.142 26.9699 377.584 29.6402C376.026 32.3106 375.126 35.3067 374.957 38.3855C374.957 38.6746 374.957 38.951 374.957 39.2275C373.681 39.0686 372.39 39.3625 371.312 40.0569C369.371 41.3082 367.756 42.9948 366.598 44.9796C365.439 46.9644 364.77 49.1915 364.644 51.4802C364.644 52.0123 364.699 52.5429 364.809 53.0637L363.692 53.7046C360.656 55.4388 358.192 58.8193 358.192 61.2447C358.192 63.6701 360.656 64.2482 363.692 62.5014L404.334 39.3155C407.369 37.5812 409.833 34.2007 409.833 31.7753C409.833 29.3499 407.357 28.6462 404.321 30.393Z" fill="#EBEBEB"/>
</svg>
